<?xml version="1.0" encoding="utf-8" standalone="no"?>
<!DOCTYPE svg PUBLIC "-//W3C//DTD SVG 1.1//EN"
  "http://www.w3.org/Graphics/SVG/1.1/DTD/svg11.dtd">
<svg xmlns:xlink="http://www.w3.org/1999/xlink" width="424.010625pt" height="370.686865pt" viewBox="0 0 424.010625 370.686865" xmlns="http://www.w3.org/2000/svg" version="1.1">
 <metadata>
  <rdf:RDF xmlns:dc="http://purl.org/dc/elements/1.1/" xmlns:cc="http://creativecommons.org/ns#" xmlns:rdf="http://www.w3.org/1999/02/22-rdf-syntax-ns#">
   <cc:Work>
    <dc:type rdf:resource="http://purl.org/dc/dcmitype/StillImage"/>
    <dc:date>2022-04-27T20:14:08.885082</dc:date>
    <dc:format>image/svg+xml</dc:format>
    <dc:creator>
     <cc:Agent>
      <dc:title>Matplotlib v3.5.1, https://matplotlib.org/</dc:title>
     </cc:Agent>
    </dc:creator>
   </cc:Work>
  </rdf:RDF>
 </metadata>
 <defs>
  <style type="text/css">*{stroke-linejoin: round; stroke-linecap: butt}</style>
 </defs>
 <g id="figure_1">
  <g id="patch_1">
   <path d="M 0 370.686865 
L 424.010625 370.686865 
L 424.010625 0 
L 0 0 
z
" style="fill: #ffffff"/>
  </g>
  <g id="axes_1">
   <g id="patch_2">
    <path d="M 59.690625 288.430125 
L 416.810625 288.430125 
L 416.810625 22.318125 
L 59.690625 22.318125 
z
" style="fill: #ffffff"/>
   </g>
   <g id="PolyCollection_1">
    <defs>
     <path id="m9429204855" d="M 106.989697 -214.238839 
L 101.671553 -214.238839 
L 101.292156 -215.107529 
L 100.872407 -215.976219 
L 100.410211 -216.844909 
L 99.903693 -217.713599 
L 99.351249 -218.582289 
L 98.751595 -219.450979 
L 98.103818 -220.319669 
L 97.407429 -221.188359 
L 96.662401 -222.057049 
L 95.869212 -222.925739 
L 95.028876 -223.794429 
L 94.142966 -224.663119 
L 93.213632 -225.531809 
L 92.243602 -226.400499 
L 91.236179 -227.269188 
L 90.195225 -228.137878 
L 89.12513 -229.006568 
L 88.030772 -229.875258 
L 86.91747 -230.743948 
L 85.790922 -231.612638 
L 84.657134 -232.481328 
L 83.522346 -233.350018 
L 82.392947 -234.218708 
L 81.275388 -235.087398 
L 80.176095 -235.956088 
L 79.101375 -236.824778 
L 78.057329 -237.693468 
L 77.049768 -238.562158 
L 76.084133 -239.430848 
L 75.165421 -240.299538 
L 74.298122 -241.168228 
L 73.486165 -242.036918 
L 72.732874 -242.905608 
L 72.040939 -243.774298 
L 71.412394 -244.642988 
L 70.848616 -245.511678 
L 70.350325 -246.380368 
L 69.917612 -247.249058 
L 69.549964 -248.117748 
L 69.246307 -248.986438 
L 69.005064 -249.855128 
L 68.824213 -250.723818 
L 68.701356 -251.592508 
L 68.633798 -252.461198 
L 68.618625 -253.329888 
L 68.652785 -254.198578 
L 68.733175 -255.067268 
L 68.856716 -255.935958 
L 69.020435 -256.804648 
L 69.221536 -257.673338 
L 69.457461 -258.542028 
L 69.725945 -259.410718 
L 70.025062 -260.279408 
L 70.353251 -261.148098 
L 70.709336 -262.016788 
L 71.092528 -262.885478 
L 71.502414 -263.754168 
L 71.938929 -264.622858 
L 72.402322 -265.491548 
L 72.893098 -266.360238 
L 73.411962 -267.228928 
L 73.959746 -268.097618 
L 74.537329 -268.966308 
L 75.145564 -269.834998 
L 75.785189 -270.703688 
L 76.456752 -271.572378 
L 77.160532 -272.441068 
L 77.896477 -273.309758 
L 78.664144 -274.178448 
L 79.462651 -275.047138 
L 80.290648 -275.915828 
L 81.1463 -276.784518 
L 82.027283 -277.653208 
L 82.930801 -278.521898 
L 83.85361 -279.390588 
L 84.792065 -280.259278 
L 85.74217 -281.127968 
L 86.699651 -281.996658 
L 87.66002 -282.865347 
L 88.618665 -283.734037 
L 89.570922 -284.602727 
L 90.512169 -285.471417 
L 91.437901 -286.340107 
L 92.343807 -287.208797 
L 93.225846 -288.077487 
L 94.080303 -288.946177 
L 94.903849 -289.814867 
L 95.693578 -290.683557 
L 96.447038 -291.552247 
L 97.162255 -292.420937 
L 97.837736 -293.289627 
L 98.472469 -294.158317 
L 99.065911 -295.027007 
L 99.617961 -295.895697 
L 100.128937 -296.764387 
L 100.599535 -297.633077 
L 101.030792 -298.501767 
L 101.424038 -299.370457 
L 101.780853 -300.239147 
L 106.880397 -300.239147 
L 106.880397 -300.239147 
L 107.237212 -299.370457 
L 107.630458 -298.501767 
L 108.061715 -297.633077 
L 108.532313 -296.764387 
L 109.043289 -295.895697 
L 109.595339 -295.027007 
L 110.188781 -294.158317 
L 110.823514 -293.289627 
L 111.498995 -292.420937 
L 112.214212 -291.552247 
L 112.967672 -290.683557 
L 113.757401 -289.814867 
L 114.580947 -288.946177 
L 115.435404 -288.077487 
L 116.317443 -287.208797 
L 117.223349 -286.340107 
L 118.149081 -285.471417 
L 119.090328 -284.602727 
L 120.042585 -283.734037 
L 121.00123 -282.865347 
L 121.961599 -281.996658 
L 122.91908 -281.127968 
L 123.869185 -280.259278 
L 124.80764 -279.390588 
L 125.730449 -278.521898 
L 126.633967 -277.653208 
L 127.51495 -276.784518 
L 128.370602 -275.915828 
L 129.198599 -275.047138 
L 129.997106 -274.178448 
L 130.764773 -273.309758 
L 131.500718 -272.441068 
L 132.204498 -271.572378 
L 132.876061 -270.703688 
L 133.515686 -269.834998 
L 134.123921 -268.966308 
L 134.701504 -268.097618 
L 135.249288 -267.228928 
L 135.768152 -266.360238 
L 136.258928 -265.491548 
L 136.722321 -264.622858 
L 137.158836 -263.754168 
L 137.568722 -262.885478 
L 137.951914 -262.016788 
L 138.307999 -261.148098 
L 138.636188 -260.279408 
L 138.935305 -259.410718 
L 139.203789 -258.542028 
L 139.439714 -257.673338 
L 139.640815 -256.804648 
L 139.804534 -255.935958 
L 139.928075 -255.067268 
L 140.008465 -254.198578 
L 140.042625 -253.329888 
L 140.027452 -252.461198 
L 139.959894 -251.592508 
L 139.837037 -250.723818 
L 139.656186 -249.855128 
L 139.414943 -248.986438 
L 139.111286 -248.117748 
L 138.743638 -247.249058 
L 138.310925 -246.380368 
L 137.812634 -245.511678 
L 137.248856 -244.642988 
L 136.620311 -243.774298 
L 135.928376 -242.905608 
L 135.175085 -242.036918 
L 134.363128 -241.168228 
L 133.495829 -240.299538 
L 132.577117 -239.430848 
L 131.611482 -238.562158 
L 130.603921 -237.693468 
L 129.559875 -236.824778 
L 128.485155 -235.956088 
L 127.385862 -235.087398 
L 126.268303 -234.218708 
L 125.138904 -233.350018 
L 124.004116 -232.481328 
L 122.870328 -231.612638 
L 121.74378 -230.743948 
L 120.630478 -229.875258 
L 119.53612 -229.006568 
L 118.466025 -228.137878 
L 117.425071 -227.269188 
L 116.417648 -226.400499 
L 115.447618 -225.531809 
L 114.518284 -224.663119 
L 113.632374 -223.794429 
L 112.792038 -222.925739 
L 111.998849 -222.057049 
L 111.253821 -221.188359 
L 110.557432 -220.319669 
L 109.909655 -219.450979 
L 109.310001 -218.582289 
L 108.757557 -217.713599 
L 108.251039 -216.844909 
L 107.788843 -215.976219 
L 107.369094 -215.107529 
L 106.989697 -214.238839 
z
" style="stroke: #3f3f3f; stroke-width: 1.5"/>
    </defs>
    <g clip-path="url(#p146d77c9fa)">
     <use xlink:href="#m9429204855" x="0" y="370.686865" style="fill: #9fd495; stroke: #3f3f3f; stroke-width: 1.5"/>
    </g>
   </g>
   <g id="PolyCollection_2">
    <defs>
     <path id="md294d9d65c" d="M 194.482331 -98.906198 
L 192.738919 -98.906198 
L 192.623427 -101.30384 
L 192.497 -103.701482 
L 192.359274 -106.099124 
L 192.209981 -108.496766 
L 192.048952 -110.894407 
L 191.876138 -113.292049 
L 191.691617 -115.689691 
L 191.495605 -118.087333 
L 191.288468 -120.484975 
L 191.070723 -122.882617 
L 190.843038 -125.280258 
L 190.606239 -127.6779 
L 190.361298 -130.075542 
L 190.109323 -132.473184 
L 189.851551 -134.870826 
L 189.589324 -137.268468 
L 189.324068 -139.666109 
L 189.057273 -142.063751 
L 188.790456 -144.461393 
L 188.525135 -146.859035 
L 188.262791 -149.256677 
L 188.004836 -151.654319 
L 187.752577 -154.051961 
L 187.507177 -156.449602 
L 187.269629 -158.847244 
L 187.040718 -161.244886 
L 186.821 -163.642528 
L 186.610783 -166.04017 
L 186.410103 -168.437812 
L 186.218725 -170.835453 
L 186.036141 -173.233095 
L 185.861572 -175.630737 
L 185.69399 -178.028379 
L 185.53214 -180.426021 
L 185.374572 -182.823663 
L 185.219684 -185.221304 
L 185.065763 -187.618946 
L 184.911041 -190.016588 
L 184.753754 -192.41423 
L 184.592195 -194.811872 
L 184.424782 -197.209514 
L 184.250115 -199.607156 
L 184.067032 -202.004797 
L 183.874668 -204.402439 
L 183.672501 -206.800081 
L 183.46039 -209.197723 
L 183.238612 -211.595365 
L 183.007878 -213.993007 
L 182.769348 -216.390648 
L 182.524625 -218.78829 
L 182.275745 -221.185932 
L 182.025146 -223.583574 
L 181.775636 -225.981216 
L 181.53034 -228.378858 
L 181.292643 -230.776499 
L 181.066121 -233.174141 
L 180.854469 -235.571783 
L 180.661421 -237.969425 
L 180.49067 -240.367067 
L 180.345783 -242.764709 
L 180.230123 -245.16235 
L 180.14677 -247.559992 
L 180.098454 -249.957634 
L 180.087486 -252.355276 
L 180.115711 -254.752918 
L 180.184459 -257.15056 
L 180.294518 -259.548202 
L 180.446113 -261.945843 
L 180.638903 -264.343485 
L 180.871983 -266.741127 
L 181.143909 -269.138769 
L 181.452725 -271.536411 
L 181.796006 -273.934053 
L 182.170908 -276.331694 
L 182.574227 -278.729336 
L 183.002462 -281.126978 
L 183.451884 -283.52462 
L 183.918605 -285.922262 
L 184.398652 -288.319904 
L 184.888033 -290.717545 
L 185.382805 -293.115187 
L 185.879139 -295.512829 
L 186.37337 -297.910471 
L 186.862053 -300.308113 
L 187.342003 -302.705755 
L 187.810327 -305.103396 
L 188.264456 -307.501038 
L 188.702157 -309.89868 
L 189.121545 -312.296322 
L 189.521086 -314.693964 
L 189.899593 -317.091606 
L 190.256213 -319.489248 
L 190.590409 -321.886889 
L 190.901944 -324.284531 
L 191.190852 -326.682173 
L 191.45741 -329.079815 
L 191.702113 -331.477457 
L 191.925638 -333.875099 
L 192.128819 -336.27274 
L 195.092431 -336.27274 
L 195.092431 -336.27274 
L 195.295612 -333.875099 
L 195.519137 -331.477457 
L 195.76384 -329.079815 
L 196.030398 -326.682173 
L 196.319306 -324.284531 
L 196.630841 -321.886889 
L 196.965037 -319.489248 
L 197.321657 -317.091606 
L 197.700164 -314.693964 
L 198.099705 -312.296322 
L 198.519093 -309.89868 
L 198.956794 -307.501038 
L 199.410923 -305.103396 
L 199.879247 -302.705755 
L 200.359197 -300.308113 
L 200.84788 -297.910471 
L 201.342111 -295.512829 
L 201.838445 -293.115187 
L 202.333217 -290.717545 
L 202.822598 -288.319904 
L 203.302645 -285.922262 
L 203.769366 -283.52462 
L 204.218788 -281.126978 
L 204.647023 -278.729336 
L 205.050342 -276.331694 
L 205.425244 -273.934053 
L 205.768525 -271.536411 
L 206.077341 -269.138769 
L 206.349267 -266.741127 
L 206.582347 -264.343485 
L 206.775137 -261.945843 
L 206.926732 -259.548202 
L 207.036791 -257.15056 
L 207.105539 -254.752918 
L 207.133764 -252.355276 
L 207.122796 -249.957634 
L 207.07448 -247.559992 
L 206.991127 -245.16235 
L 206.875467 -242.764709 
L 206.73058 -240.367067 
L 206.559829 -237.969425 
L 206.366781 -235.571783 
L 206.155129 -233.174141 
L 205.928607 -230.776499 
L 205.69091 -228.378858 
L 205.445614 -225.981216 
L 205.196104 -223.583574 
L 204.945505 -221.185932 
L 204.696625 -218.78829 
L 204.451902 -216.390648 
L 204.213372 -213.993007 
L 203.982638 -211.595365 
L 203.76086 -209.197723 
L 203.548749 -206.800081 
L 203.346582 -204.402439 
L 203.154218 -202.004797 
L 202.971135 -199.607156 
L 202.796468 -197.209514 
L 202.629055 -194.811872 
L 202.467496 -192.41423 
L 202.310209 -190.016588 
L 202.155487 -187.618946 
L 202.001566 -185.221304 
L 201.846678 -182.823663 
L 201.68911 -180.426021 
L 201.52726 -178.028379 
L 201.359678 -175.630737 
L 201.185109 -173.233095 
L 201.002525 -170.835453 
L 200.811147 -168.437812 
L 200.610467 -166.04017 
L 200.40025 -163.642528 
L 200.180532 -161.244886 
L 199.951621 -158.847244 
L 199.714073 -156.449602 
L 199.468673 -154.051961 
L 199.216414 -151.654319 
L 198.958459 -149.256677 
L 198.696115 -146.859035 
L 198.430794 -144.461393 
L 198.163977 -142.063751 
L 197.897182 -139.666109 
L 197.631926 -137.268468 
L 197.369699 -134.870826 
L 197.111927 -132.473184 
L 196.859952 -130.075542 
L 196.615011 -127.6779 
L 196.378212 -125.280258 
L 196.150527 -122.882617 
L 195.932782 -120.484975 
L 195.725645 -118.087333 
L 195.529633 -115.689691 
L 195.345112 -113.292049 
L 195.172298 -110.894407 
L 195.011269 -108.496766 
L 194.861976 -106.099124 
L 194.72425 -103.701482 
L 194.597823 -101.30384 
L 194.482331 -98.906198 
z
" style="stroke: #3f3f3f; stroke-width: 1.5"/>
    </defs>
    <g clip-path="url(#p146d77c9fa)">
     <use xlink:href="#md294d9d65c" x="0" y="370.686865" style="fill: #c03d3e; stroke: #3f3f3f; stroke-width: 1.5"/>
    </g>
   </g>
   <g id="PolyCollection_3">
    <defs>
     <path id="m2cb5188cb3" d="M 283.877743 -99.743364 
L 281.903507 -99.743364 
L 281.765213 -101.99108 
L 281.612767 -104.238797 
L 281.445548 -106.486514 
L 281.263033 -108.73423 
L 281.064808 -110.981947 
L 280.850593 -113.229663 
L 280.620254 -115.47738 
L 280.373815 -117.725096 
L 280.111475 -119.972813 
L 279.833613 -122.220529 
L 279.540794 -124.468246 
L 279.23377 -126.715962 
L 278.913478 -128.963679 
L 278.581033 -131.211396 
L 278.237718 -133.459112 
L 277.884963 -135.706829 
L 277.524332 -137.954545 
L 277.157493 -140.202262 
L 276.786196 -142.449978 
L 276.41224 -144.697695 
L 276.037445 -146.945411 
L 275.663617 -149.193128 
L 275.29252 -151.440845 
L 274.925842 -153.688561 
L 274.565167 -155.936278 
L 274.211952 -158.183994 
L 273.867503 -160.431711 
L 273.53296 -162.679427 
L 273.209283 -164.927144 
L 272.897249 -167.17486 
L 272.597447 -169.422577 
L 272.310288 -171.670293 
L 272.036015 -173.91801 
L 271.774718 -176.165727 
L 271.526352 -178.413443 
L 271.290768 -180.66116 
L 271.067733 -182.908876 
L 270.856966 -185.156593 
L 270.65816 -187.404309 
L 270.47102 -189.652026 
L 270.295284 -191.899742 
L 270.130756 -194.147459 
L 269.977323 -196.395176 
L 269.83498 -198.642892 
L 269.703841 -200.890609 
L 269.584151 -203.138325 
L 269.476292 -205.386042 
L 269.380782 -207.633758 
L 269.298269 -209.881475 
L 269.229524 -212.129191 
L 269.175422 -214.376908 
L 269.136929 -216.624624 
L 269.115076 -218.872341 
L 269.110933 -221.120058 
L 269.125587 -223.367774 
L 269.160106 -225.615491 
L 269.215515 -227.863207 
L 269.292765 -230.110924 
L 269.392701 -232.35864 
L 269.516038 -234.606357 
L 269.663333 -236.854073 
L 269.834962 -239.10179 
L 270.0311 -241.349507 
L 270.251706 -243.597223 
L 270.496506 -245.84494 
L 270.764989 -248.092656 
L 271.056403 -250.340373 
L 271.369751 -252.588089 
L 271.703803 -254.835806 
L 272.057102 -257.083522 
L 272.42798 -259.331239 
L 272.814579 -261.578955 
L 273.21487 -263.826672 
L 273.626682 -266.074389 
L 274.04773 -268.322105 
L 274.475649 -270.569822 
L 274.908024 -272.817538 
L 275.342424 -275.065255 
L 275.776437 -277.312971 
L 276.207704 -279.560688 
L 276.633947 -281.808404 
L 277.053003 -284.056121 
L 277.462847 -286.303838 
L 277.861619 -288.551554 
L 278.24764 -290.799271 
L 278.619431 -293.046987 
L 278.975722 -295.294704 
L 279.315461 -297.54242 
L 279.637817 -299.790137 
L 279.942175 -302.037853 
L 280.228137 -304.28557 
L 280.495507 -306.533286 
L 280.744284 -308.781003 
L 280.974644 -311.02872 
L 281.186926 -313.276436 
L 281.381611 -315.524153 
L 281.559306 -317.771869 
L 281.720721 -320.019586 
L 281.866654 -322.267302 
L 283.914596 -322.267302 
L 283.914596 -322.267302 
L 284.060529 -320.019586 
L 284.221944 -317.771869 
L 284.399639 -315.524153 
L 284.594324 -313.276436 
L 284.806606 -311.02872 
L 285.036966 -308.781003 
L 285.285743 -306.533286 
L 285.553113 -304.28557 
L 285.839075 -302.037853 
L 286.143433 -299.790137 
L 286.465789 -297.54242 
L 286.805528 -295.294704 
L 287.161819 -293.046987 
L 287.53361 -290.799271 
L 287.919631 -288.551554 
L 288.318403 -286.303838 
L 288.728247 -284.056121 
L 289.147303 -281.808404 
L 289.573546 -279.560688 
L 290.004813 -277.312971 
L 290.438826 -275.065255 
L 290.873226 -272.817538 
L 291.305601 -270.569822 
L 291.73352 -268.322105 
L 292.154568 -266.074389 
L 292.56638 -263.826672 
L 292.966671 -261.578955 
L 293.35327 -259.331239 
L 293.724148 -257.083522 
L 294.077447 -254.835806 
L 294.411499 -252.588089 
L 294.724847 -250.340373 
L 295.016261 -248.092656 
L 295.284744 -245.84494 
L 295.529544 -243.597223 
L 295.75015 -241.349507 
L 295.946288 -239.10179 
L 296.117917 -236.854073 
L 296.265212 -234.606357 
L 296.388549 -232.35864 
L 296.488485 -230.110924 
L 296.565735 -227.863207 
L 296.621144 -225.615491 
L 296.655663 -223.367774 
L 296.670317 -221.120058 
L 296.666174 -218.872341 
L 296.644321 -216.624624 
L 296.605828 -214.376908 
L 296.551726 -212.129191 
L 296.482981 -209.881475 
L 296.400468 -207.633758 
L 296.304958 -205.386042 
L 296.197099 -203.138325 
L 296.077409 -200.890609 
L 295.94627 -198.642892 
L 295.803927 -196.395176 
L 295.650494 -194.147459 
L 295.485966 -191.899742 
L 295.31023 -189.652026 
L 295.12309 -187.404309 
L 294.924284 -185.156593 
L 294.713517 -182.908876 
L 294.490482 -180.66116 
L 294.254898 -178.413443 
L 294.006532 -176.165727 
L 293.745235 -173.91801 
L 293.470962 -171.670293 
L 293.183803 -169.422577 
L 292.884001 -167.17486 
L 292.571967 -164.927144 
L 292.24829 -162.679427 
L 291.913747 -160.431711 
L 291.569298 -158.183994 
L 291.216083 -155.936278 
L 290.855408 -153.688561 
L 290.48873 -151.440845 
L 290.117633 -149.193128 
L 289.743805 -146.945411 
L 289.36901 -144.697695 
L 288.995054 -142.449978 
L 288.623757 -140.202262 
L 288.256918 -137.954545 
L 287.896287 -135.706829 
L 287.543532 -133.459112 
L 287.200217 -131.211396 
L 286.867772 -128.963679 
L 286.54748 -126.715962 
L 286.240456 -124.468246 
L 285.947637 -122.220529 
L 285.669775 -119.972813 
L 285.407435 -117.725096 
L 285.160996 -115.47738 
L 284.930657 -113.229663 
L 284.716442 -110.981947 
L 284.518217 -108.73423 
L 284.335702 -106.486514 
L 284.168483 -104.238797 
L 284.016037 -101.99108 
L 283.877743 -99.743364 
z
" style="stroke: #3f3f3f; stroke-width: 1.5"/>
    </defs>
    <g clip-path="url(#p146d77c9fa)">
     <use xlink:href="#m2cb5188cb3" x="0" y="370.686865" style="fill: #c7c7c7; stroke: #3f3f3f; stroke-width: 1.5"/>
    </g>
   </g>
   <g id="PolyCollection_4">
    <defs>
     <path id="mc0114ee50f" d="M 373.469402 -94.35274 
L 370.871848 -94.35274 
L 370.683919 -96.315679 
L 370.475436 -98.278618 
L 370.245237 -100.241557 
L 369.992265 -102.204496 
L 369.71559 -104.167435 
L 369.414448 -106.130374 
L 369.088267 -108.093313 
L 368.736698 -110.056252 
L 368.359647 -112.019191 
L 367.9573 -113.98213 
L 367.530149 -115.945069 
L 367.079011 -117.908008 
L 366.605047 -119.870947 
L 366.109774 -121.833886 
L 365.595065 -123.796825 
L 365.063153 -125.759764 
L 364.516619 -127.722703 
L 363.958374 -129.685642 
L 363.391638 -131.648581 
L 362.819905 -133.61152 
L 362.246902 -135.574459 
L 361.676546 -137.537398 
L 361.112887 -139.500337 
L 360.560049 -141.463276 
L 360.022169 -143.426215 
L 359.503327 -145.389154 
L 359.007481 -147.352093 
L 358.538395 -149.315031 
L 358.099577 -151.27797 
L 357.69421 -153.240909 
L 357.325098 -155.203848 
L 356.994611 -157.166787 
L 356.704641 -159.129726 
L 356.456571 -161.092665 
L 356.251247 -163.055604 
L 356.088967 -165.018543 
L 355.96948 -166.981482 
L 355.892 -168.944421 
L 355.855225 -170.90736 
L 355.857376 -172.870299 
L 355.896244 -174.833238 
L 355.969241 -176.796177 
L 356.073473 -178.759116 
L 356.205803 -180.722055 
L 356.362932 -182.684994 
L 356.541478 -184.647933 
L 356.738052 -186.610872 
L 356.949342 -188.573811 
L 357.17218 -190.53675 
L 357.403617 -192.499689 
L 357.640978 -194.462628 
L 357.881919 -196.425567 
L 358.124461 -198.388506 
L 358.367025 -200.351445 
L 358.608443 -202.314384 
L 358.847967 -204.277323 
L 359.085252 -206.240262 
L 359.320344 -208.203201 
L 359.553643 -210.166139 
L 359.785858 -212.129078 
L 360.017965 -214.092017 
L 360.251144 -216.054956 
L 360.486717 -218.017895 
L 360.72609 -219.980834 
L 360.970683 -221.943773 
L 361.221874 -223.906712 
L 361.480933 -225.869651 
L 361.748975 -227.83259 
L 362.026913 -229.795529 
L 362.315415 -231.758468 
L 362.614883 -233.721407 
L 362.925426 -235.684346 
L 363.246857 -237.647285 
L 363.578689 -239.610224 
L 363.920147 -241.573163 
L 364.270186 -243.536102 
L 364.627517 -245.499041 
L 364.990637 -247.46198 
L 365.357871 -249.424919 
L 365.72741 -251.387858 
L 366.097351 -253.350797 
L 366.46575 -255.313736 
L 366.830657 -257.276675 
L 367.190159 -259.239614 
L 367.542423 -261.202553 
L 367.885725 -263.165492 
L 368.218481 -265.128431 
L 368.539275 -267.09137 
L 368.846872 -269.054308 
L 369.140237 -271.017247 
L 369.418539 -272.980186 
L 369.681154 -274.943125 
L 369.927666 -276.906064 
L 370.157852 -278.869003 
L 370.37168 -280.831942 
L 370.56929 -282.794881 
L 370.750979 -284.75782 
L 370.91718 -286.720759 
L 371.068448 -288.683698 
L 373.272802 -288.683698 
L 373.272802 -288.683698 
L 373.42407 -286.720759 
L 373.590271 -284.75782 
L 373.77196 -282.794881 
L 373.96957 -280.831942 
L 374.183398 -278.869003 
L 374.413584 -276.906064 
L 374.660096 -274.943125 
L 374.922711 -272.980186 
L 375.201013 -271.017247 
L 375.494378 -269.054308 
L 375.801975 -267.09137 
L 376.122769 -265.128431 
L 376.455525 -263.165492 
L 376.798827 -261.202553 
L 377.151091 -259.239614 
L 377.510593 -257.276675 
L 377.8755 -255.313736 
L 378.243899 -253.350797 
L 378.61384 -251.387858 
L 378.983379 -249.424919 
L 379.350613 -247.46198 
L 379.713733 -245.499041 
L 380.071064 -243.536102 
L 380.421103 -241.573163 
L 380.762561 -239.610224 
L 381.094393 -237.647285 
L 381.415824 -235.684346 
L 381.726367 -233.721407 
L 382.025835 -231.758468 
L 382.314337 -229.795529 
L 382.592275 -227.83259 
L 382.860317 -225.869651 
L 383.119376 -223.906712 
L 383.370567 -221.943773 
L 383.61516 -219.980834 
L 383.854533 -218.017895 
L 384.090106 -216.054956 
L 384.323285 -214.092017 
L 384.555392 -212.129078 
L 384.787607 -210.166139 
L 385.020906 -208.203201 
L 385.255998 -206.240262 
L 385.493283 -204.277323 
L 385.732807 -202.314384 
L 385.974225 -200.351445 
L 386.216789 -198.388506 
L 386.459331 -196.425567 
L 386.700272 -194.462628 
L 386.937633 -192.499689 
L 387.16907 -190.53675 
L 387.391908 -188.573811 
L 387.603198 -186.610872 
L 387.799772 -184.647933 
L 387.978318 -182.684994 
L 388.135447 -180.722055 
L 388.267777 -178.759116 
L 388.372009 -176.796177 
L 388.445006 -174.833238 
L 388.483874 -172.870299 
L 388.486025 -170.90736 
L 388.44925 -168.944421 
L 388.37177 -166.981482 
L 388.252283 -165.018543 
L 388.090003 -163.055604 
L 387.884679 -161.092665 
L 387.636609 -159.129726 
L 387.346639 -157.166787 
L 387.016152 -155.203848 
L 386.64704 -153.240909 
L 386.241673 -151.27797 
L 385.802855 -149.315031 
L 385.333769 -147.352093 
L 384.837923 -145.389154 
L 384.319081 -143.426215 
L 383.781201 -141.463276 
L 383.228363 -139.500337 
L 382.664704 -137.537398 
L 382.094348 -135.574459 
L 381.521345 -133.61152 
L 380.949612 -131.648581 
L 380.382876 -129.685642 
L 379.824631 -127.722703 
L 379.278097 -125.759764 
L 378.746185 -123.796825 
L 378.231476 -121.833886 
L 377.736203 -119.870947 
L 377.262239 -117.908008 
L 376.811101 -115.945069 
L 376.38395 -113.98213 
L 375.981603 -112.019191 
L 375.604552 -110.056252 
L 375.252983 -108.093313 
L 374.926802 -106.130374 
L 374.62566 -104.167435 
L 374.348985 -102.204496 
L 374.096013 -100.241557 
L 373.865814 -98.278618 
L 373.657331 -96.315679 
L 373.469402 -94.35274 
z
" style="stroke: #3f3f3f; stroke-width: 1.5"/>
    </defs>
    <g clip-path="url(#p146d77c9fa)">
     <use xlink:href="#mc0114ee50f" x="0" y="370.686865" style="fill: #3274a1; stroke: #3f3f3f; stroke-width: 1.5"/>
    </g>
   </g>
   <g id="matplotlib.axis_1">
    <g id="xtick_1">
     <g id="line2d_1">
      <defs>
       <path id="m697a348096" d="M 0 0 
L 0 3.5 
" style="stroke: #000000; stroke-width: 0.8"/>
      </defs>
      <g>
       <use xlink:href="#m697a348096" x="104.330625" y="288.430125" style="stroke: #000000; stroke-width: 0.8"/>
      </g>
     </g>
     <g id="text_1">
      <!-- aflplusplus_ast_o1 -->
      <g transform="translate(23.899569 347.766815)rotate(-30)scale(0.1 -0.1)">
       <defs>
        <path id="DejaVuSans-61" d="M 2194 1759 
Q 1497 1759 1228 1600 
Q 959 1441 959 1056 
Q 959 750 1161 570 
Q 1363 391 1709 391 
Q 2188 391 2477 730 
Q 2766 1069 2766 1631 
L 2766 1759 
L 2194 1759 
z
M 3341 1997 
L 3341 0 
L 2766 0 
L 2766 531 
Q 2569 213 2275 61 
Q 1981 -91 1556 -91 
Q 1019 -91 701 211 
Q 384 513 384 1019 
Q 384 1609 779 1909 
Q 1175 2209 1959 2209 
L 2766 2209 
L 2766 2266 
Q 2766 2663 2505 2880 
Q 2244 3097 1772 3097 
Q 1472 3097 1187 3025 
Q 903 2953 641 2809 
L 641 3341 
Q 956 3463 1253 3523 
Q 1550 3584 1831 3584 
Q 2591 3584 2966 3190 
Q 3341 2797 3341 1997 
z
" transform="scale(0.015625)"/>
        <path id="DejaVuSans-66" d="M 2375 4863 
L 2375 4384 
L 1825 4384 
Q 1516 4384 1395 4259 
Q 1275 4134 1275 3809 
L 1275 3500 
L 2222 3500 
L 2222 3053 
L 1275 3053 
L 1275 0 
L 697 0 
L 697 3053 
L 147 3053 
L 147 3500 
L 697 3500 
L 697 3744 
Q 697 4328 969 4595 
Q 1241 4863 1831 4863 
L 2375 4863 
z
" transform="scale(0.015625)"/>
        <path id="DejaVuSans-6c" d="M 603 4863 
L 1178 4863 
L 1178 0 
L 603 0 
L 603 4863 
z
" transform="scale(0.015625)"/>
        <path id="DejaVuSans-70" d="M 1159 525 
L 1159 -1331 
L 581 -1331 
L 581 3500 
L 1159 3500 
L 1159 2969 
Q 1341 3281 1617 3432 
Q 1894 3584 2278 3584 
Q 2916 3584 3314 3078 
Q 3713 2572 3713 1747 
Q 3713 922 3314 415 
Q 2916 -91 2278 -91 
Q 1894 -91 1617 61 
Q 1341 213 1159 525 
z
M 3116 1747 
Q 3116 2381 2855 2742 
Q 2594 3103 2138 3103 
Q 1681 3103 1420 2742 
Q 1159 2381 1159 1747 
Q 1159 1113 1420 752 
Q 1681 391 2138 391 
Q 2594 391 2855 752 
Q 3116 1113 3116 1747 
z
" transform="scale(0.015625)"/>
        <path id="DejaVuSans-75" d="M 544 1381 
L 544 3500 
L 1119 3500 
L 1119 1403 
Q 1119 906 1312 657 
Q 1506 409 1894 409 
Q 2359 409 2629 706 
Q 2900 1003 2900 1516 
L 2900 3500 
L 3475 3500 
L 3475 0 
L 2900 0 
L 2900 538 
Q 2691 219 2414 64 
Q 2138 -91 1772 -91 
Q 1169 -91 856 284 
Q 544 659 544 1381 
z
M 1991 3584 
L 1991 3584 
z
" transform="scale(0.015625)"/>
        <path id="DejaVuSans-73" d="M 2834 3397 
L 2834 2853 
Q 2591 2978 2328 3040 
Q 2066 3103 1784 3103 
Q 1356 3103 1142 2972 
Q 928 2841 928 2578 
Q 928 2378 1081 2264 
Q 1234 2150 1697 2047 
L 1894 2003 
Q 2506 1872 2764 1633 
Q 3022 1394 3022 966 
Q 3022 478 2636 193 
Q 2250 -91 1575 -91 
Q 1294 -91 989 -36 
Q 684 19 347 128 
L 347 722 
Q 666 556 975 473 
Q 1284 391 1588 391 
Q 1994 391 2212 530 
Q 2431 669 2431 922 
Q 2431 1156 2273 1281 
Q 2116 1406 1581 1522 
L 1381 1569 
Q 847 1681 609 1914 
Q 372 2147 372 2553 
Q 372 3047 722 3315 
Q 1072 3584 1716 3584 
Q 2034 3584 2315 3537 
Q 2597 3491 2834 3397 
z
" transform="scale(0.015625)"/>
        <path id="DejaVuSans-5f" d="M 3263 -1063 
L 3263 -1509 
L -63 -1509 
L -63 -1063 
L 3263 -1063 
z
" transform="scale(0.015625)"/>
        <path id="DejaVuSans-74" d="M 1172 4494 
L 1172 3500 
L 2356 3500 
L 2356 3053 
L 1172 3053 
L 1172 1153 
Q 1172 725 1289 603 
Q 1406 481 1766 481 
L 2356 481 
L 2356 0 
L 1766 0 
Q 1100 0 847 248 
Q 594 497 594 1153 
L 594 3053 
L 172 3053 
L 172 3500 
L 594 3500 
L 594 4494 
L 1172 4494 
z
" transform="scale(0.015625)"/>
        <path id="DejaVuSans-6f" d="M 1959 3097 
Q 1497 3097 1228 2736 
Q 959 2375 959 1747 
Q 959 1119 1226 758 
Q 1494 397 1959 397 
Q 2419 397 2687 759 
Q 2956 1122 2956 1747 
Q 2956 2369 2687 2733 
Q 2419 3097 1959 3097 
z
M 1959 3584 
Q 2709 3584 3137 3096 
Q 3566 2609 3566 1747 
Q 3566 888 3137 398 
Q 2709 -91 1959 -91 
Q 1206 -91 779 398 
Q 353 888 353 1747 
Q 353 2609 779 3096 
Q 1206 3584 1959 3584 
z
" transform="scale(0.015625)"/>
        <path id="DejaVuSans-31" d="M 794 531 
L 1825 531 
L 1825 4091 
L 703 3866 
L 703 4441 
L 1819 4666 
L 2450 4666 
L 2450 531 
L 3481 531 
L 3481 0 
L 794 0 
L 794 531 
z
" transform="scale(0.015625)"/>
       </defs>
       <use xlink:href="#DejaVuSans-61"/>
       <use xlink:href="#DejaVuSans-66" x="61.279297"/>
       <use xlink:href="#DejaVuSans-6c" x="96.484375"/>
       <use xlink:href="#DejaVuSans-70" x="124.267578"/>
       <use xlink:href="#DejaVuSans-6c" x="187.744141"/>
       <use xlink:href="#DejaVuSans-75" x="215.527344"/>
       <use xlink:href="#DejaVuSans-73" x="278.90625"/>
       <use xlink:href="#DejaVuSans-70" x="331.005859"/>
       <use xlink:href="#DejaVuSans-6c" x="394.482422"/>
       <use xlink:href="#DejaVuSans-75" x="422.265625"/>
       <use xlink:href="#DejaVuSans-73" x="485.644531"/>
       <use xlink:href="#DejaVuSans-5f" x="537.744141"/>
       <use xlink:href="#DejaVuSans-61" x="587.744141"/>
       <use xlink:href="#DejaVuSans-73" x="649.023438"/>
       <use xlink:href="#DejaVuSans-74" x="701.123047"/>
       <use xlink:href="#DejaVuSans-5f" x="740.332031"/>
       <use xlink:href="#DejaVuSans-6f" x="790.332031"/>
       <use xlink:href="#DejaVuSans-31" x="851.513672"/>
      </g>
     </g>
    </g>
    <g id="xtick_2">
     <g id="line2d_2">
      <g>
       <use xlink:href="#m697a348096" x="193.610625" y="288.430125" style="stroke: #000000; stroke-width: 0.8"/>
      </g>
     </g>
     <g id="text_2">
      <!-- aflplusplus_ast_o2 -->
      <g transform="translate(113.179569 347.766815)rotate(-30)scale(0.1 -0.1)">
       <defs>
        <path id="DejaVuSans-32" d="M 1228 531 
L 3431 531 
L 3431 0 
L 469 0 
L 469 531 
Q 828 903 1448 1529 
Q 2069 2156 2228 2338 
Q 2531 2678 2651 2914 
Q 2772 3150 2772 3378 
Q 2772 3750 2511 3984 
Q 2250 4219 1831 4219 
Q 1534 4219 1204 4116 
Q 875 4013 500 3803 
L 500 4441 
Q 881 4594 1212 4672 
Q 1544 4750 1819 4750 
Q 2544 4750 2975 4387 
Q 3406 4025 3406 3419 
Q 3406 3131 3298 2873 
Q 3191 2616 2906 2266 
Q 2828 2175 2409 1742 
Q 1991 1309 1228 531 
z
" transform="scale(0.015625)"/>
       </defs>
       <use xlink:href="#DejaVuSans-61"/>
       <use xlink:href="#DejaVuSans-66" x="61.279297"/>
       <use xlink:href="#DejaVuSans-6c" x="96.484375"/>
       <use xlink:href="#DejaVuSans-70" x="124.267578"/>
       <use xlink:href="#DejaVuSans-6c" x="187.744141"/>
       <use xlink:href="#DejaVuSans-75" x="215.527344"/>
       <use xlink:href="#DejaVuSans-73" x="278.90625"/>
       <use xlink:href="#DejaVuSans-70" x="331.005859"/>
       <use xlink:href="#DejaVuSans-6c" x="394.482422"/>
       <use xlink:href="#DejaVuSans-75" x="422.265625"/>
       <use xlink:href="#DejaVuSans-73" x="485.644531"/>
       <use xlink:href="#DejaVuSans-5f" x="537.744141"/>
       <use xlink:href="#DejaVuSans-61" x="587.744141"/>
       <use xlink:href="#DejaVuSans-73" x="649.023438"/>
       <use xlink:href="#DejaVuSans-74" x="701.123047"/>
       <use xlink:href="#DejaVuSans-5f" x="740.332031"/>
       <use xlink:href="#DejaVuSans-6f" x="790.332031"/>
       <use xlink:href="#DejaVuSans-32" x="851.513672"/>
      </g>
     </g>
    </g>
    <g id="xtick_3">
     <g id="line2d_3">
      <g>
       <use xlink:href="#m697a348096" x="282.890625" y="288.430125" style="stroke: #000000; stroke-width: 0.8"/>
      </g>
     </g>
     <g id="text_3">
      <!-- aflplusplus_ast_o3 -->
      <g transform="translate(202.459569 347.766815)rotate(-30)scale(0.1 -0.1)">
       <defs>
        <path id="DejaVuSans-33" d="M 2597 2516 
Q 3050 2419 3304 2112 
Q 3559 1806 3559 1356 
Q 3559 666 3084 287 
Q 2609 -91 1734 -91 
Q 1441 -91 1130 -33 
Q 819 25 488 141 
L 488 750 
Q 750 597 1062 519 
Q 1375 441 1716 441 
Q 2309 441 2620 675 
Q 2931 909 2931 1356 
Q 2931 1769 2642 2001 
Q 2353 2234 1838 2234 
L 1294 2234 
L 1294 2753 
L 1863 2753 
Q 2328 2753 2575 2939 
Q 2822 3125 2822 3475 
Q 2822 3834 2567 4026 
Q 2313 4219 1838 4219 
Q 1578 4219 1281 4162 
Q 984 4106 628 3988 
L 628 4550 
Q 988 4650 1302 4700 
Q 1616 4750 1894 4750 
Q 2613 4750 3031 4423 
Q 3450 4097 3450 3541 
Q 3450 3153 3228 2886 
Q 3006 2619 2597 2516 
z
" transform="scale(0.015625)"/>
       </defs>
       <use xlink:href="#DejaVuSans-61"/>
       <use xlink:href="#DejaVuSans-66" x="61.279297"/>
       <use xlink:href="#DejaVuSans-6c" x="96.484375"/>
       <use xlink:href="#DejaVuSans-70" x="124.267578"/>
       <use xlink:href="#DejaVuSans-6c" x="187.744141"/>
       <use xlink:href="#DejaVuSans-75" x="215.527344"/>
       <use xlink:href="#DejaVuSans-73" x="278.90625"/>
       <use xlink:href="#DejaVuSans-70" x="331.005859"/>
       <use xlink:href="#DejaVuSans-6c" x="394.482422"/>
       <use xlink:href="#DejaVuSans-75" x="422.265625"/>
       <use xlink:href="#DejaVuSans-73" x="485.644531"/>
       <use xlink:href="#DejaVuSans-5f" x="537.744141"/>
       <use xlink:href="#DejaVuSans-61" x="587.744141"/>
       <use xlink:href="#DejaVuSans-73" x="649.023438"/>
       <use xlink:href="#DejaVuSans-74" x="701.123047"/>
       <use xlink:href="#DejaVuSans-5f" x="740.332031"/>
       <use xlink:href="#DejaVuSans-6f" x="790.332031"/>
       <use xlink:href="#DejaVuSans-33" x="851.513672"/>
      </g>
     </g>
    </g>
    <g id="xtick_4">
     <g id="line2d_4">
      <g>
       <use xlink:href="#m697a348096" x="372.170625" y="288.430125" style="stroke: #000000; stroke-width: 0.8"/>
      </g>
     </g>
     <g id="text_4">
      <!-- aflplusplus_ast_o0 -->
      <g transform="translate(291.739569 347.766815)rotate(-30)scale(0.1 -0.1)">
       <defs>
        <path id="DejaVuSans-30" d="M 2034 4250 
Q 1547 4250 1301 3770 
Q 1056 3291 1056 2328 
Q 1056 1369 1301 889 
Q 1547 409 2034 409 
Q 2525 409 2770 889 
Q 3016 1369 3016 2328 
Q 3016 3291 2770 3770 
Q 2525 4250 2034 4250 
z
M 2034 4750 
Q 2819 4750 3233 4129 
Q 3647 3509 3647 2328 
Q 3647 1150 3233 529 
Q 2819 -91 2034 -91 
Q 1250 -91 836 529 
Q 422 1150 422 2328 
Q 422 3509 836 4129 
Q 1250 4750 2034 4750 
z
" transform="scale(0.015625)"/>
       </defs>
       <use xlink:href="#DejaVuSans-61"/>
       <use xlink:href="#DejaVuSans-66" x="61.279297"/>
       <use xlink:href="#DejaVuSans-6c" x="96.484375"/>
       <use xlink:href="#DejaVuSans-70" x="124.267578"/>
       <use xlink:href="#DejaVuSans-6c" x="187.744141"/>
       <use xlink:href="#DejaVuSans-75" x="215.527344"/>
       <use xlink:href="#DejaVuSans-73" x="278.90625"/>
       <use xlink:href="#DejaVuSans-70" x="331.005859"/>
       <use xlink:href="#DejaVuSans-6c" x="394.482422"/>
       <use xlink:href="#DejaVuSans-75" x="422.265625"/>
       <use xlink:href="#DejaVuSans-73" x="485.644531"/>
       <use xlink:href="#DejaVuSans-5f" x="537.744141"/>
       <use xlink:href="#DejaVuSans-61" x="587.744141"/>
       <use xlink:href="#DejaVuSans-73" x="649.023438"/>
       <use xlink:href="#DejaVuSans-74" x="701.123047"/>
       <use xlink:href="#DejaVuSans-5f" x="740.332031"/>
       <use xlink:href="#DejaVuSans-6f" x="790.332031"/>
       <use xlink:href="#DejaVuSans-30" x="851.513672"/>
      </g>
     </g>
    </g>
    <g id="text_5">
     <!-- Fuzzer (highest median coverage on the left) -->
     <g transform="translate(125.632656 361.407178)scale(0.1 -0.1)">
      <defs>
       <path id="DejaVuSans-46" d="M 628 4666 
L 3309 4666 
L 3309 4134 
L 1259 4134 
L 1259 2759 
L 3109 2759 
L 3109 2228 
L 1259 2228 
L 1259 0 
L 628 0 
L 628 4666 
z
" transform="scale(0.015625)"/>
       <path id="DejaVuSans-7a" d="M 353 3500 
L 3084 3500 
L 3084 2975 
L 922 459 
L 3084 459 
L 3084 0 
L 275 0 
L 275 525 
L 2438 3041 
L 353 3041 
L 353 3500 
z
" transform="scale(0.015625)"/>
       <path id="DejaVuSans-65" d="M 3597 1894 
L 3597 1613 
L 953 1613 
Q 991 1019 1311 708 
Q 1631 397 2203 397 
Q 2534 397 2845 478 
Q 3156 559 3463 722 
L 3463 178 
Q 3153 47 2828 -22 
Q 2503 -91 2169 -91 
Q 1331 -91 842 396 
Q 353 884 353 1716 
Q 353 2575 817 3079 
Q 1281 3584 2069 3584 
Q 2775 3584 3186 3129 
Q 3597 2675 3597 1894 
z
M 3022 2063 
Q 3016 2534 2758 2815 
Q 2500 3097 2075 3097 
Q 1594 3097 1305 2825 
Q 1016 2553 972 2059 
L 3022 2063 
z
" transform="scale(0.015625)"/>
       <path id="DejaVuSans-72" d="M 2631 2963 
Q 2534 3019 2420 3045 
Q 2306 3072 2169 3072 
Q 1681 3072 1420 2755 
Q 1159 2438 1159 1844 
L 1159 0 
L 581 0 
L 581 3500 
L 1159 3500 
L 1159 2956 
Q 1341 3275 1631 3429 
Q 1922 3584 2338 3584 
Q 2397 3584 2469 3576 
Q 2541 3569 2628 3553 
L 2631 2963 
z
" transform="scale(0.015625)"/>
       <path id="DejaVuSans-20" transform="scale(0.015625)"/>
       <path id="DejaVuSans-28" d="M 1984 4856 
Q 1566 4138 1362 3434 
Q 1159 2731 1159 2009 
Q 1159 1288 1364 580 
Q 1569 -128 1984 -844 
L 1484 -844 
Q 1016 -109 783 600 
Q 550 1309 550 2009 
Q 550 2706 781 3412 
Q 1013 4119 1484 4856 
L 1984 4856 
z
" transform="scale(0.015625)"/>
       <path id="DejaVuSans-68" d="M 3513 2113 
L 3513 0 
L 2938 0 
L 2938 2094 
Q 2938 2591 2744 2837 
Q 2550 3084 2163 3084 
Q 1697 3084 1428 2787 
Q 1159 2491 1159 1978 
L 1159 0 
L 581 0 
L 581 4863 
L 1159 4863 
L 1159 2956 
Q 1366 3272 1645 3428 
Q 1925 3584 2291 3584 
Q 2894 3584 3203 3211 
Q 3513 2838 3513 2113 
z
" transform="scale(0.015625)"/>
       <path id="DejaVuSans-69" d="M 603 3500 
L 1178 3500 
L 1178 0 
L 603 0 
L 603 3500 
z
M 603 4863 
L 1178 4863 
L 1178 4134 
L 603 4134 
L 603 4863 
z
" transform="scale(0.015625)"/>
       <path id="DejaVuSans-67" d="M 2906 1791 
Q 2906 2416 2648 2759 
Q 2391 3103 1925 3103 
Q 1463 3103 1205 2759 
Q 947 2416 947 1791 
Q 947 1169 1205 825 
Q 1463 481 1925 481 
Q 2391 481 2648 825 
Q 2906 1169 2906 1791 
z
M 3481 434 
Q 3481 -459 3084 -895 
Q 2688 -1331 1869 -1331 
Q 1566 -1331 1297 -1286 
Q 1028 -1241 775 -1147 
L 775 -588 
Q 1028 -725 1275 -790 
Q 1522 -856 1778 -856 
Q 2344 -856 2625 -561 
Q 2906 -266 2906 331 
L 2906 616 
Q 2728 306 2450 153 
Q 2172 0 1784 0 
Q 1141 0 747 490 
Q 353 981 353 1791 
Q 353 2603 747 3093 
Q 1141 3584 1784 3584 
Q 2172 3584 2450 3431 
Q 2728 3278 2906 2969 
L 2906 3500 
L 3481 3500 
L 3481 434 
z
" transform="scale(0.015625)"/>
       <path id="DejaVuSans-6d" d="M 3328 2828 
Q 3544 3216 3844 3400 
Q 4144 3584 4550 3584 
Q 5097 3584 5394 3201 
Q 5691 2819 5691 2113 
L 5691 0 
L 5113 0 
L 5113 2094 
Q 5113 2597 4934 2840 
Q 4756 3084 4391 3084 
Q 3944 3084 3684 2787 
Q 3425 2491 3425 1978 
L 3425 0 
L 2847 0 
L 2847 2094 
Q 2847 2600 2669 2842 
Q 2491 3084 2119 3084 
Q 1678 3084 1418 2786 
Q 1159 2488 1159 1978 
L 1159 0 
L 581 0 
L 581 3500 
L 1159 3500 
L 1159 2956 
Q 1356 3278 1631 3431 
Q 1906 3584 2284 3584 
Q 2666 3584 2933 3390 
Q 3200 3197 3328 2828 
z
" transform="scale(0.015625)"/>
       <path id="DejaVuSans-64" d="M 2906 2969 
L 2906 4863 
L 3481 4863 
L 3481 0 
L 2906 0 
L 2906 525 
Q 2725 213 2448 61 
Q 2172 -91 1784 -91 
Q 1150 -91 751 415 
Q 353 922 353 1747 
Q 353 2572 751 3078 
Q 1150 3584 1784 3584 
Q 2172 3584 2448 3432 
Q 2725 3281 2906 2969 
z
M 947 1747 
Q 947 1113 1208 752 
Q 1469 391 1925 391 
Q 2381 391 2643 752 
Q 2906 1113 2906 1747 
Q 2906 2381 2643 2742 
Q 2381 3103 1925 3103 
Q 1469 3103 1208 2742 
Q 947 2381 947 1747 
z
" transform="scale(0.015625)"/>
       <path id="DejaVuSans-6e" d="M 3513 2113 
L 3513 0 
L 2938 0 
L 2938 2094 
Q 2938 2591 2744 2837 
Q 2550 3084 2163 3084 
Q 1697 3084 1428 2787 
Q 1159 2491 1159 1978 
L 1159 0 
L 581 0 
L 581 3500 
L 1159 3500 
L 1159 2956 
Q 1366 3272 1645 3428 
Q 1925 3584 2291 3584 
Q 2894 3584 3203 3211 
Q 3513 2838 3513 2113 
z
" transform="scale(0.015625)"/>
       <path id="DejaVuSans-63" d="M 3122 3366 
L 3122 2828 
Q 2878 2963 2633 3030 
Q 2388 3097 2138 3097 
Q 1578 3097 1268 2742 
Q 959 2388 959 1747 
Q 959 1106 1268 751 
Q 1578 397 2138 397 
Q 2388 397 2633 464 
Q 2878 531 3122 666 
L 3122 134 
Q 2881 22 2623 -34 
Q 2366 -91 2075 -91 
Q 1284 -91 818 406 
Q 353 903 353 1747 
Q 353 2603 823 3093 
Q 1294 3584 2113 3584 
Q 2378 3584 2631 3529 
Q 2884 3475 3122 3366 
z
" transform="scale(0.015625)"/>
       <path id="DejaVuSans-76" d="M 191 3500 
L 800 3500 
L 1894 563 
L 2988 3500 
L 3597 3500 
L 2284 0 
L 1503 0 
L 191 3500 
z
" transform="scale(0.015625)"/>
       <path id="DejaVuSans-29" d="M 513 4856 
L 1013 4856 
Q 1481 4119 1714 3412 
Q 1947 2706 1947 2009 
Q 1947 1309 1714 600 
Q 1481 -109 1013 -844 
L 513 -844 
Q 928 -128 1133 580 
Q 1338 1288 1338 2009 
Q 1338 2731 1133 3434 
Q 928 4138 513 4856 
z
" transform="scale(0.015625)"/>
      </defs>
      <use xlink:href="#DejaVuSans-46"/>
      <use xlink:href="#DejaVuSans-75" x="52.019531"/>
      <use xlink:href="#DejaVuSans-7a" x="115.398438"/>
      <use xlink:href="#DejaVuSans-7a" x="167.888672"/>
      <use xlink:href="#DejaVuSans-65" x="220.378906"/>
      <use xlink:href="#DejaVuSans-72" x="281.902344"/>
      <use xlink:href="#DejaVuSans-20" x="323.015625"/>
      <use xlink:href="#DejaVuSans-28" x="354.802734"/>
      <use xlink:href="#DejaVuSans-68" x="393.816406"/>
      <use xlink:href="#DejaVuSans-69" x="457.195312"/>
      <use xlink:href="#DejaVuSans-67" x="484.978516"/>
      <use xlink:href="#DejaVuSans-68" x="548.455078"/>
      <use xlink:href="#DejaVuSans-65" x="611.833984"/>
      <use xlink:href="#DejaVuSans-73" x="673.357422"/>
      <use xlink:href="#DejaVuSans-74" x="725.457031"/>
      <use xlink:href="#DejaVuSans-20" x="764.666016"/>
      <use xlink:href="#DejaVuSans-6d" x="796.453125"/>
      <use xlink:href="#DejaVuSans-65" x="893.865234"/>
      <use xlink:href="#DejaVuSans-64" x="955.388672"/>
      <use xlink:href="#DejaVuSans-69" x="1018.865234"/>
      <use xlink:href="#DejaVuSans-61" x="1046.648438"/>
      <use xlink:href="#DejaVuSans-6e" x="1107.927734"/>
      <use xlink:href="#DejaVuSans-20" x="1171.306641"/>
      <use xlink:href="#DejaVuSans-63" x="1203.09375"/>
      <use xlink:href="#DejaVuSans-6f" x="1258.074219"/>
      <use xlink:href="#DejaVuSans-76" x="1319.255859"/>
      <use xlink:href="#DejaVuSans-65" x="1378.435547"/>
      <use xlink:href="#DejaVuSans-72" x="1439.958984"/>
      <use xlink:href="#DejaVuSans-61" x="1481.072266"/>
      <use xlink:href="#DejaVuSans-67" x="1542.351562"/>
      <use xlink:href="#DejaVuSans-65" x="1605.828125"/>
      <use xlink:href="#DejaVuSans-20" x="1667.351562"/>
      <use xlink:href="#DejaVuSans-6f" x="1699.138672"/>
      <use xlink:href="#DejaVuSans-6e" x="1760.320312"/>
      <use xlink:href="#DejaVuSans-20" x="1823.699219"/>
      <use xlink:href="#DejaVuSans-74" x="1855.486328"/>
      <use xlink:href="#DejaVuSans-68" x="1894.695312"/>
      <use xlink:href="#DejaVuSans-65" x="1958.074219"/>
      <use xlink:href="#DejaVuSans-20" x="2019.597656"/>
      <use xlink:href="#DejaVuSans-6c" x="2051.384766"/>
      <use xlink:href="#DejaVuSans-65" x="2079.167969"/>
      <use xlink:href="#DejaVuSans-66" x="2140.691406"/>
      <use xlink:href="#DejaVuSans-74" x="2174.146484"/>
      <use xlink:href="#DejaVuSans-29" x="2213.355469"/>
     </g>
    </g>
   </g>
   <g id="matplotlib.axis_2">
    <g id="ytick_1">
     <g id="line2d_5">
      <defs>
       <path id="mfa54a9a64e" d="M 0 0 
L -3.5 0 
" style="stroke: #000000; stroke-width: 0.8"/>
      </defs>
      <g>
       <use xlink:href="#mfa54a9a64e" x="59.690625" y="253.402973" style="stroke: #000000; stroke-width: 0.8"/>
      </g>
     </g>
     <g id="text_6">
      <!-- 18000 -->
      <g transform="translate(20.878125 257.202192)scale(0.1 -0.1)">
       <defs>
        <path id="DejaVuSans-38" d="M 2034 2216 
Q 1584 2216 1326 1975 
Q 1069 1734 1069 1313 
Q 1069 891 1326 650 
Q 1584 409 2034 409 
Q 2484 409 2743 651 
Q 3003 894 3003 1313 
Q 3003 1734 2745 1975 
Q 2488 2216 2034 2216 
z
M 1403 2484 
Q 997 2584 770 2862 
Q 544 3141 544 3541 
Q 544 4100 942 4425 
Q 1341 4750 2034 4750 
Q 2731 4750 3128 4425 
Q 3525 4100 3525 3541 
Q 3525 3141 3298 2862 
Q 3072 2584 2669 2484 
Q 3125 2378 3379 2068 
Q 3634 1759 3634 1313 
Q 3634 634 3220 271 
Q 2806 -91 2034 -91 
Q 1263 -91 848 271 
Q 434 634 434 1313 
Q 434 1759 690 2068 
Q 947 2378 1403 2484 
z
M 1172 3481 
Q 1172 3119 1398 2916 
Q 1625 2713 2034 2713 
Q 2441 2713 2670 2916 
Q 2900 3119 2900 3481 
Q 2900 3844 2670 4047 
Q 2441 4250 2034 4250 
Q 1625 4250 1398 4047 
Q 1172 3844 1172 3481 
z
" transform="scale(0.015625)"/>
       </defs>
       <use xlink:href="#DejaVuSans-31"/>
       <use xlink:href="#DejaVuSans-38" x="63.623047"/>
       <use xlink:href="#DejaVuSans-30" x="127.246094"/>
       <use xlink:href="#DejaVuSans-30" x="190.869141"/>
       <use xlink:href="#DejaVuSans-30" x="254.492188"/>
      </g>
     </g>
    </g>
    <g id="ytick_2">
     <g id="line2d_6">
      <g>
       <use xlink:href="#mfa54a9a64e" x="59.690625" y="205.167543" style="stroke: #000000; stroke-width: 0.8"/>
      </g>
     </g>
     <g id="text_7">
      <!-- 19000 -->
      <g transform="translate(20.878125 208.966762)scale(0.1 -0.1)">
       <defs>
        <path id="DejaVuSans-39" d="M 703 97 
L 703 672 
Q 941 559 1184 500 
Q 1428 441 1663 441 
Q 2288 441 2617 861 
Q 2947 1281 2994 2138 
Q 2813 1869 2534 1725 
Q 2256 1581 1919 1581 
Q 1219 1581 811 2004 
Q 403 2428 403 3163 
Q 403 3881 828 4315 
Q 1253 4750 1959 4750 
Q 2769 4750 3195 4129 
Q 3622 3509 3622 2328 
Q 3622 1225 3098 567 
Q 2575 -91 1691 -91 
Q 1453 -91 1209 -44 
Q 966 3 703 97 
z
M 1959 2075 
Q 2384 2075 2632 2365 
Q 2881 2656 2881 3163 
Q 2881 3666 2632 3958 
Q 2384 4250 1959 4250 
Q 1534 4250 1286 3958 
Q 1038 3666 1038 3163 
Q 1038 2656 1286 2365 
Q 1534 2075 1959 2075 
z
" transform="scale(0.015625)"/>
       </defs>
       <use xlink:href="#DejaVuSans-31"/>
       <use xlink:href="#DejaVuSans-39" x="63.623047"/>
       <use xlink:href="#DejaVuSans-30" x="127.246094"/>
       <use xlink:href="#DejaVuSans-30" x="190.869141"/>
       <use xlink:href="#DejaVuSans-30" x="254.492188"/>
      </g>
     </g>
    </g>
    <g id="ytick_3">
     <g id="line2d_7">
      <g>
       <use xlink:href="#mfa54a9a64e" x="59.690625" y="156.932113" style="stroke: #000000; stroke-width: 0.8"/>
      </g>
     </g>
     <g id="text_8">
      <!-- 20000 -->
      <g transform="translate(20.878125 160.731332)scale(0.1 -0.1)">
       <use xlink:href="#DejaVuSans-32"/>
       <use xlink:href="#DejaVuSans-30" x="63.623047"/>
       <use xlink:href="#DejaVuSans-30" x="127.246094"/>
       <use xlink:href="#DejaVuSans-30" x="190.869141"/>
       <use xlink:href="#DejaVuSans-30" x="254.492188"/>
      </g>
     </g>
    </g>
    <g id="ytick_4">
     <g id="line2d_8">
      <g>
       <use xlink:href="#mfa54a9a64e" x="59.690625" y="108.696683" style="stroke: #000000; stroke-width: 0.8"/>
      </g>
     </g>
     <g id="text_9">
      <!-- 21000 -->
      <g transform="translate(20.878125 112.495901)scale(0.1 -0.1)">
       <use xlink:href="#DejaVuSans-32"/>
       <use xlink:href="#DejaVuSans-31" x="63.623047"/>
       <use xlink:href="#DejaVuSans-30" x="127.246094"/>
       <use xlink:href="#DejaVuSans-30" x="190.869141"/>
       <use xlink:href="#DejaVuSans-30" x="254.492188"/>
      </g>
     </g>
    </g>
    <g id="ytick_5">
     <g id="line2d_9">
      <g>
       <use xlink:href="#mfa54a9a64e" x="59.690625" y="60.461252" style="stroke: #000000; stroke-width: 0.8"/>
      </g>
     </g>
     <g id="text_10">
      <!-- 22000 -->
      <g transform="translate(20.878125 64.260471)scale(0.1 -0.1)">
       <use xlink:href="#DejaVuSans-32"/>
       <use xlink:href="#DejaVuSans-32" x="63.623047"/>
       <use xlink:href="#DejaVuSans-30" x="127.246094"/>
       <use xlink:href="#DejaVuSans-30" x="190.869141"/>
       <use xlink:href="#DejaVuSans-30" x="254.492188"/>
      </g>
     </g>
    </g>
    <g id="text_11">
     <!-- Reached region coverage -->
     <g transform="translate(14.798438 219.136625)rotate(-90)scale(0.1 -0.1)">
      <defs>
       <path id="DejaVuSans-52" d="M 2841 2188 
Q 3044 2119 3236 1894 
Q 3428 1669 3622 1275 
L 4263 0 
L 3584 0 
L 2988 1197 
Q 2756 1666 2539 1819 
Q 2322 1972 1947 1972 
L 1259 1972 
L 1259 0 
L 628 0 
L 628 4666 
L 2053 4666 
Q 2853 4666 3247 4331 
Q 3641 3997 3641 3322 
Q 3641 2881 3436 2590 
Q 3231 2300 2841 2188 
z
M 1259 4147 
L 1259 2491 
L 2053 2491 
Q 2509 2491 2742 2702 
Q 2975 2913 2975 3322 
Q 2975 3731 2742 3939 
Q 2509 4147 2053 4147 
L 1259 4147 
z
" transform="scale(0.015625)"/>
      </defs>
      <use xlink:href="#DejaVuSans-52"/>
      <use xlink:href="#DejaVuSans-65" x="64.982422"/>
      <use xlink:href="#DejaVuSans-61" x="126.505859"/>
      <use xlink:href="#DejaVuSans-63" x="187.785156"/>
      <use xlink:href="#DejaVuSans-68" x="242.765625"/>
      <use xlink:href="#DejaVuSans-65" x="306.144531"/>
      <use xlink:href="#DejaVuSans-64" x="367.667969"/>
      <use xlink:href="#DejaVuSans-20" x="431.144531"/>
      <use xlink:href="#DejaVuSans-72" x="462.931641"/>
      <use xlink:href="#DejaVuSans-65" x="501.794922"/>
      <use xlink:href="#DejaVuSans-67" x="563.318359"/>
      <use xlink:href="#DejaVuSans-69" x="626.794922"/>
      <use xlink:href="#DejaVuSans-6f" x="654.578125"/>
      <use xlink:href="#DejaVuSans-6e" x="715.759766"/>
      <use xlink:href="#DejaVuSans-20" x="779.138672"/>
      <use xlink:href="#DejaVuSans-63" x="810.925781"/>
      <use xlink:href="#DejaVuSans-6f" x="865.90625"/>
      <use xlink:href="#DejaVuSans-76" x="927.087891"/>
      <use xlink:href="#DejaVuSans-65" x="986.267578"/>
      <use xlink:href="#DejaVuSans-72" x="1047.791016"/>
      <use xlink:href="#DejaVuSans-61" x="1088.904297"/>
      <use xlink:href="#DejaVuSans-67" x="1150.183594"/>
      <use xlink:href="#DejaVuSans-65" x="1213.660156"/>
     </g>
    </g>
   </g>
   <g id="line2d_10">
    <path d="M 104.330625 129.920272 
L 104.330625 96.975473 
" clip-path="url(#p146d77c9fa)" style="fill: none; stroke: #3f3f3f; stroke-width: 1.5; stroke-linecap: square"/>
   </g>
   <g id="line2d_11">
    <path d="M 104.330625 122.805546 
L 104.330625 106.333147 
" clip-path="url(#p146d77c9fa)" style="fill: none; stroke: #3f3f3f; stroke-width: 4.5; stroke-linecap: square"/>
   </g>
   <g id="line2d_12">
    <path d="M 193.610625 195.665163 
L 193.610625 110.529629 
" clip-path="url(#p146d77c9fa)" style="fill: none; stroke: #3f3f3f; stroke-width: 1.5; stroke-linecap: square"/>
   </g>
   <g id="line2d_13">
    <path d="M 193.610625 156.305052 
L 193.610625 113.737285 
" clip-path="url(#p146d77c9fa)" style="fill: none; stroke: #3f3f3f; stroke-width: 4.5; stroke-linecap: square"/>
   </g>
   <g id="line2d_14">
    <path d="M 282.890625 202.321653 
L 282.890625 117.041412 
" clip-path="url(#p146d77c9fa)" style="fill: none; stroke: #3f3f3f; stroke-width: 1.5; stroke-linecap: square"/>
   </g>
   <g id="line2d_15">
    <path d="M 282.890625 178.445115 
L 282.890625 135.804994 
" clip-path="url(#p146d77c9fa)" style="fill: none; stroke: #3f3f3f; stroke-width: 4.5; stroke-linecap: square"/>
   </g>
   <g id="line2d_16">
    <path d="M 372.170625 215.827573 
L 372.170625 142.509719 
" clip-path="url(#p146d77c9fa)" style="fill: none; stroke: #3f3f3f; stroke-width: 1.5; stroke-linecap: square"/>
   </g>
   <g id="line2d_17">
    <path d="M 372.170625 205.071072 
L 372.170625 168.412145 
" clip-path="url(#p146d77c9fa)" style="fill: none; stroke: #3f3f3f; stroke-width: 4.5; stroke-linecap: square"/>
   </g>
   <g id="patch_3">
    <path d="M 59.690625 253.402973 
L 59.690625 60.461252 
" style="fill: none; stroke: #000000; stroke-width: 0.8; stroke-linejoin: miter; stroke-linecap: square"/>
   </g>
   <g id="patch_4">
    <path d="M 104.330625 288.430125 
L 372.170625 288.430125 
" style="fill: none; stroke: #000000; stroke-width: 0.8; stroke-linejoin: miter; stroke-linecap: square"/>
   </g>
   <g id="PathCollection_1">
    <defs>
     <path id="md4c71e6788" d="M 0 1.5 
C 0.397805 1.5 0.77937 1.341951 1.06066 1.06066 
C 1.341951 0.77937 1.5 0.397805 1.5 0 
C 1.5 -0.397805 1.341951 -0.77937 1.06066 -1.06066 
C 0.77937 -1.341951 0.397805 -1.5 0 -1.5 
C -0.397805 -1.5 -0.77937 -1.341951 -1.06066 -1.06066 
C -1.341951 -0.77937 -1.5 -0.397805 -1.5 0 
C -1.5 0.397805 -1.341951 0.77937 -1.06066 1.06066 
C -0.77937 1.341951 -0.397805 1.5 0 1.5 
z
" style="stroke: #3f3f3f"/>
    </defs>
    <g clip-path="url(#p146d77c9fa)">
     <use xlink:href="#md4c71e6788" x="104.330625" y="115.69082" style="fill: #ffffff; stroke: #3f3f3f"/>
    </g>
   </g>
   <g id="PathCollection_2">
    <g clip-path="url(#p146d77c9fa)">
     <use xlink:href="#md4c71e6788" x="193.610625" y="116.944941" style="fill: #ffffff; stroke: #3f3f3f"/>
    </g>
   </g>
   <g id="PathCollection_3">
    <g clip-path="url(#p146d77c9fa)">
     <use xlink:href="#md4c71e6788" x="282.890625" y="154.568577" style="fill: #ffffff; stroke: #3f3f3f"/>
    </g>
   </g>
   <g id="PathCollection_4">
    <g clip-path="url(#p146d77c9fa)">
     <use xlink:href="#md4c71e6788" x="372.170625" y="194.314571" style="fill: #ffffff; stroke: #3f3f3f"/>
    </g>
   </g>
   <g id="text_12">
    <!-- freetype2-2017 (1h, 3 trials/fuzzer) -->
    <g transform="translate(132.672188 16.318125)scale(0.12 -0.12)">
     <defs>
      <path id="DejaVuSans-79" d="M 2059 -325 
Q 1816 -950 1584 -1140 
Q 1353 -1331 966 -1331 
L 506 -1331 
L 506 -850 
L 844 -850 
Q 1081 -850 1212 -737 
Q 1344 -625 1503 -206 
L 1606 56 
L 191 3500 
L 800 3500 
L 1894 763 
L 2988 3500 
L 3597 3500 
L 2059 -325 
z
" transform="scale(0.015625)"/>
      <path id="DejaVuSans-2d" d="M 313 2009 
L 1997 2009 
L 1997 1497 
L 313 1497 
L 313 2009 
z
" transform="scale(0.015625)"/>
      <path id="DejaVuSans-37" d="M 525 4666 
L 3525 4666 
L 3525 4397 
L 1831 0 
L 1172 0 
L 2766 4134 
L 525 4134 
L 525 4666 
z
" transform="scale(0.015625)"/>
      <path id="DejaVuSans-2c" d="M 750 794 
L 1409 794 
L 1409 256 
L 897 -744 
L 494 -744 
L 750 256 
L 750 794 
z
" transform="scale(0.015625)"/>
      <path id="DejaVuSans-2f" d="M 1625 4666 
L 2156 4666 
L 531 -594 
L 0 -594 
L 1625 4666 
z
" transform="scale(0.015625)"/>
     </defs>
     <use xlink:href="#DejaVuSans-66"/>
     <use xlink:href="#DejaVuSans-72" x="35.205078"/>
     <use xlink:href="#DejaVuSans-65" x="74.068359"/>
     <use xlink:href="#DejaVuSans-65" x="135.591797"/>
     <use xlink:href="#DejaVuSans-74" x="197.115234"/>
     <use xlink:href="#DejaVuSans-79" x="236.324219"/>
     <use xlink:href="#DejaVuSans-70" x="295.503906"/>
     <use xlink:href="#DejaVuSans-65" x="358.980469"/>
     <use xlink:href="#DejaVuSans-32" x="420.503906"/>
     <use xlink:href="#DejaVuSans-2d" x="484.126953"/>
     <use xlink:href="#DejaVuSans-32" x="520.210938"/>
     <use xlink:href="#DejaVuSans-30" x="583.833984"/>
     <use xlink:href="#DejaVuSans-31" x="647.457031"/>
     <use xlink:href="#DejaVuSans-37" x="711.080078"/>
     <use xlink:href="#DejaVuSans-20" x="774.703125"/>
     <use xlink:href="#DejaVuSans-28" x="806.490234"/>
     <use xlink:href="#DejaVuSans-31" x="845.503906"/>
     <use xlink:href="#DejaVuSans-68" x="909.126953"/>
     <use xlink:href="#DejaVuSans-2c" x="972.505859"/>
     <use xlink:href="#DejaVuSans-20" x="1004.292969"/>
     <use xlink:href="#DejaVuSans-33" x="1036.080078"/>
     <use xlink:href="#DejaVuSans-20" x="1099.703125"/>
     <use xlink:href="#DejaVuSans-74" x="1131.490234"/>
     <use xlink:href="#DejaVuSans-72" x="1170.699219"/>
     <use xlink:href="#DejaVuSans-69" x="1211.8125"/>
     <use xlink:href="#DejaVuSans-61" x="1239.595703"/>
     <use xlink:href="#DejaVuSans-6c" x="1300.875"/>
     <use xlink:href="#DejaVuSans-73" x="1328.658203"/>
     <use xlink:href="#DejaVuSans-2f" x="1380.757812"/>
     <use xlink:href="#DejaVuSans-66" x="1414.449219"/>
     <use xlink:href="#DejaVuSans-75" x="1449.654297"/>
     <use xlink:href="#DejaVuSans-7a" x="1513.033203"/>
     <use xlink:href="#DejaVuSans-7a" x="1565.523438"/>
     <use xlink:href="#DejaVuSans-65" x="1618.013672"/>
     <use xlink:href="#DejaVuSans-72" x="1679.537109"/>
     <use xlink:href="#DejaVuSans-29" x="1720.650391"/>
    </g>
   </g>
  </g>
 </g>
 <defs>
  <clipPath id="p146d77c9fa">
   <rect x="59.690625" y="22.318125" width="357.12" height="266.112"/>
  </clipPath>
 </defs>
</svg>
