<?xml version="1.0" encoding="utf-8" standalone="no"?>
<!DOCTYPE svg PUBLIC "-//W3C//DTD SVG 1.1//EN"
  "http://www.w3.org/Graphics/SVG/1.1/DTD/svg11.dtd">
<svg xmlns:xlink="http://www.w3.org/1999/xlink" width="417.648125pt" height="370.686865pt" viewBox="0 0 417.648125 370.686865" xmlns="http://www.w3.org/2000/svg" version="1.1">
 <metadata>
  <rdf:RDF xmlns:dc="http://purl.org/dc/elements/1.1/" xmlns:cc="http://creativecommons.org/ns#" xmlns:rdf="http://www.w3.org/1999/02/22-rdf-syntax-ns#">
   <cc:Work>
    <dc:type rdf:resource="http://purl.org/dc/dcmitype/StillImage"/>
    <dc:date>2022-04-27T20:14:14.941996</dc:date>
    <dc:format>image/svg+xml</dc:format>
    <dc:creator>
     <cc:Agent>
      <dc:title>Matplotlib v3.5.1, https://matplotlib.org/</dc:title>
     </cc:Agent>
    </dc:creator>
   </cc:Work>
  </rdf:RDF>
 </metadata>
 <defs>
  <style type="text/css">*{stroke-linejoin: round; stroke-linecap: butt}</style>
 </defs>
 <g id="figure_1">
  <g id="patch_1">
   <path d="M 0 370.686865 
L 417.648125 370.686865 
L 417.648125 0 
L 0 0 
z
" style="fill: #ffffff"/>
  </g>
  <g id="axes_1">
   <g id="patch_2">
    <path d="M 53.328125 288.430125 
L 410.448125 288.430125 
L 410.448125 22.318125 
L 53.328125 22.318125 
z
" style="fill: #ffffff"/>
   </g>
   <g id="PolyCollection_1">
    <defs>
     <path id="m969e5d92ca" d="M 98.210735 -183.539164 
L 97.725515 -183.539164 
L 97.690696 -184.772327 
L 97.652128 -186.005489 
L 97.609609 -187.238652 
L 97.562953 -188.471815 
L 97.512002 -189.704977 
L 97.456624 -190.93814 
L 97.396721 -192.171303 
L 97.332237 -193.404465 
L 97.263156 -194.637628 
L 97.189511 -195.87079 
L 97.111387 -197.103953 
L 97.028922 -198.337116 
L 96.94231 -199.570278 
L 96.851803 -200.803441 
L 96.75771 -202.036604 
L 96.660396 -203.269766 
L 96.560284 -204.502929 
L 96.457843 -205.736092 
L 96.353595 -206.969254 
L 96.2481 -208.202417 
L 96.141955 -209.43558 
L 96.035784 -210.668742 
L 95.930233 -211.901905 
L 95.825958 -213.135067 
L 95.723617 -214.36823 
L 95.623862 -215.601393 
L 95.527327 -216.834555 
L 95.434619 -218.067718 
L 95.346311 -219.300881 
L 95.262929 -220.534043 
L 95.184949 -221.767206 
L 95.112786 -223.000369 
L 95.046792 -224.233531 
L 94.987246 -225.466694 
L 94.934356 -226.699857 
L 94.888254 -227.933019 
L 94.848997 -229.166182 
L 94.816566 -230.399344 
L 94.790871 -231.632507 
L 94.771755 -232.86567 
L 94.758998 -234.098832 
L 94.752325 -235.331995 
L 94.751413 -236.565158 
L 94.755902 -237.79832 
L 94.765401 -239.031483 
L 94.779502 -240.264646 
L 94.797787 -241.497808 
L 94.81984 -242.730971 
L 94.845257 -243.964134 
L 94.873655 -245.197296 
L 94.90468 -246.430459 
L 94.938014 -247.663621 
L 94.973383 -248.896784 
L 95.010559 -250.129947 
L 95.049364 -251.363109 
L 95.089673 -252.596272 
L 95.13141 -253.829435 
L 95.174549 -255.062597 
L 95.219107 -256.29576 
L 95.265143 -257.528923 
L 95.312745 -258.762085 
L 95.362029 -259.995248 
L 95.413125 -261.228411 
L 95.466173 -262.461573 
L 95.521308 -263.694736 
L 95.578655 -264.927898 
L 95.638321 -266.161061 
L 95.700382 -267.394224 
L 95.764882 -268.627386 
L 95.831823 -269.860549 
L 95.901163 -271.093712 
L 95.972814 -272.326874 
L 96.046635 -273.560037 
L 96.122442 -274.7932 
L 96.200002 -276.026362 
L 96.27904 -277.259525 
L 96.359242 -278.492688 
L 96.440262 -279.72585 
L 96.521731 -280.959013 
L 96.603259 -282.192175 
L 96.684447 -283.425338 
L 96.764894 -284.658501 
L 96.844205 -285.891663 
L 96.921998 -287.124826 
L 96.997909 -288.357989 
L 97.071603 -289.591151 
L 97.142775 -290.824314 
L 97.211155 -292.057477 
L 97.276513 -293.290639 
L 97.338661 -294.523802 
L 97.397451 -295.756964 
L 97.452781 -296.990127 
L 97.504586 -298.22329 
L 97.552844 -299.456452 
L 97.59757 -300.689615 
L 97.638812 -301.922778 
L 97.676651 -303.15594 
L 97.711193 -304.389103 
L 97.742568 -305.622266 
L 98.193682 -305.622266 
L 98.193682 -305.622266 
L 98.225057 -304.389103 
L 98.259599 -303.15594 
L 98.297438 -301.922778 
L 98.33868 -300.689615 
L 98.383406 -299.456452 
L 98.431664 -298.22329 
L 98.483469 -296.990127 
L 98.538799 -295.756964 
L 98.597589 -294.523802 
L 98.659737 -293.290639 
L 98.725095 -292.057477 
L 98.793475 -290.824314 
L 98.864647 -289.591151 
L 98.938341 -288.357989 
L 99.014252 -287.124826 
L 99.092045 -285.891663 
L 99.171356 -284.658501 
L 99.251803 -283.425338 
L 99.332991 -282.192175 
L 99.414519 -280.959013 
L 99.495988 -279.72585 
L 99.577008 -278.492688 
L 99.65721 -277.259525 
L 99.736248 -276.026362 
L 99.813808 -274.7932 
L 99.889615 -273.560037 
L 99.963436 -272.326874 
L 100.035087 -271.093712 
L 100.104427 -269.860549 
L 100.171368 -268.627386 
L 100.235868 -267.394224 
L 100.297929 -266.161061 
L 100.357595 -264.927898 
L 100.414942 -263.694736 
L 100.470077 -262.461573 
L 100.523125 -261.228411 
L 100.574221 -259.995248 
L 100.623505 -258.762085 
L 100.671107 -257.528923 
L 100.717143 -256.29576 
L 100.761701 -255.062597 
L 100.80484 -253.829435 
L 100.846577 -252.596272 
L 100.886886 -251.363109 
L 100.925691 -250.129947 
L 100.962867 -248.896784 
L 100.998236 -247.663621 
L 101.03157 -246.430459 
L 101.062595 -245.197296 
L 101.090993 -243.964134 
L 101.11641 -242.730971 
L 101.138463 -241.497808 
L 101.156748 -240.264646 
L 101.170849 -239.031483 
L 101.180348 -237.79832 
L 101.184837 -236.565158 
L 101.183925 -235.331995 
L 101.177252 -234.098832 
L 101.164495 -232.86567 
L 101.145379 -231.632507 
L 101.119684 -230.399344 
L 101.087253 -229.166182 
L 101.047996 -227.933019 
L 101.001894 -226.699857 
L 100.949004 -225.466694 
L 100.889458 -224.233531 
L 100.823464 -223.000369 
L 100.751301 -221.767206 
L 100.673321 -220.534043 
L 100.589939 -219.300881 
L 100.501631 -218.067718 
L 100.408923 -216.834555 
L 100.312388 -215.601393 
L 100.212633 -214.36823 
L 100.110292 -213.135067 
L 100.006017 -211.901905 
L 99.900466 -210.668742 
L 99.794295 -209.43558 
L 99.68815 -208.202417 
L 99.582655 -206.969254 
L 99.478407 -205.736092 
L 99.375966 -204.502929 
L 99.275854 -203.269766 
L 99.17854 -202.036604 
L 99.084447 -200.803441 
L 98.99394 -199.570278 
L 98.907328 -198.337116 
L 98.824863 -197.103953 
L 98.746739 -195.87079 
L 98.673094 -194.637628 
L 98.604013 -193.404465 
L 98.539529 -192.171303 
L 98.479626 -190.93814 
L 98.424248 -189.704977 
L 98.373297 -188.471815 
L 98.326641 -187.238652 
L 98.284122 -186.005489 
L 98.245554 -184.772327 
L 98.210735 -183.539164 
z
" style="stroke: #3f3f3f; stroke-width: 1.5"/>
    </defs>
    <g clip-path="url(#p335f80c638)">
     <use xlink:href="#m969e5d92ca" x="0" y="370.686865" style="fill: #c03d3e; stroke: #3f3f3f; stroke-width: 1.5"/>
    </g>
   </g>
   <g id="PolyCollection_2">
    <defs>
     <path id="m8c16908717" d="M 189.917853 -215.11156 
L 184.578397 -215.11156 
L 184.196669 -215.221913 
L 183.774157 -215.332265 
L 183.308711 -215.442618 
L 182.798393 -215.55297 
L 182.241538 -215.663323 
L 181.636797 -215.773675 
L 180.983197 -215.884028 
L 180.280189 -215.99438 
L 179.527693 -216.104733 
L 178.72614 -216.215085 
L 177.876508 -216.325438 
L 176.980349 -216.43579 
L 176.039802 -216.546142 
L 175.057611 -216.656495 
L 174.037113 -216.766847 
L 172.982226 -216.8772 
L 171.897428 -216.987552 
L 170.787713 -217.097905 
L 169.658544 -217.208257 
L 168.515796 -217.31861 
L 167.365684 -217.428962 
L 166.214685 -217.539315 
L 165.069455 -217.649667 
L 163.936737 -217.76002 
L 162.823268 -217.870372 
L 161.735683 -217.980724 
L 160.680421 -218.091077 
L 159.663635 -218.201429 
L 158.691099 -218.311782 
L 157.768132 -218.422134 
L 156.899523 -218.532487 
L 156.08947 -218.642839 
L 155.341527 -218.753192 
L 154.658564 -218.863544 
L 154.042745 -218.973897 
L 153.49551 -219.084249 
L 153.017583 -219.194602 
L 152.608986 -219.304954 
L 152.269066 -219.415306 
L 151.996542 -219.525659 
L 151.789558 -219.636011 
L 151.645751 -219.746364 
L 151.562322 -219.856716 
L 151.536125 -219.967069 
L 151.563752 -220.077421 
L 151.641625 -220.187774 
L 151.766093 -220.298126 
L 151.933522 -220.408479 
L 152.140385 -220.518831 
L 152.383345 -220.629183 
L 152.659331 -220.739536 
L 152.965599 -220.849888 
L 153.299791 -220.960241 
L 153.659967 -221.070593 
L 154.044632 -221.180946 
L 154.452741 -221.291298 
L 154.883696 -221.401651 
L 155.337314 -221.512003 
L 155.813793 -221.622356 
L 156.313656 -221.732708 
L 156.837686 -221.843061 
L 157.38685 -221.953413 
L 157.962218 -222.063765 
L 158.56487 -222.174118 
L 159.195816 -222.28447 
L 159.855897 -222.394823 
L 160.545714 -222.505175 
L 161.265545 -222.615528 
L 162.015281 -222.72588 
L 162.794377 -222.836233 
L 163.601812 -222.946585 
L 164.436065 -223.056938 
L 165.29511 -223.16729 
L 166.176426 -223.277643 
L 167.077023 -223.387995 
L 167.99348 -223.498347 
L 168.922003 -223.6087 
L 169.858487 -223.719052 
L 170.79859 -223.829405 
L 171.737815 -223.939757 
L 172.671593 -224.05011 
L 173.59537 -224.160462 
L 174.504685 -224.270815 
L 175.395257 -224.381167 
L 176.263052 -224.49152 
L 177.104352 -224.601872 
L 177.915807 -224.712225 
L 178.69448 -224.822577 
L 179.437884 -224.932929 
L 180.143997 -225.043282 
L 180.811277 -225.153634 
L 181.438656 -225.263987 
L 182.025534 -225.374339 
L 182.571753 -225.484692 
L 183.077572 -225.595044 
L 183.543632 -225.705397 
L 183.970912 -225.815749 
L 184.36069 -225.926102 
L 184.714495 -226.036454 
L 189.781755 -226.036454 
L 189.781755 -226.036454 
L 190.13556 -225.926102 
L 190.525338 -225.815749 
L 190.952618 -225.705397 
L 191.418678 -225.595044 
L 191.924497 -225.484692 
L 192.470716 -225.374339 
L 193.057594 -225.263987 
L 193.684973 -225.153634 
L 194.352253 -225.043282 
L 195.058366 -224.932929 
L 195.80177 -224.822577 
L 196.580443 -224.712225 
L 197.391898 -224.601872 
L 198.233198 -224.49152 
L 199.100993 -224.381167 
L 199.991565 -224.270815 
L 200.90088 -224.160462 
L 201.824657 -224.05011 
L 202.758435 -223.939757 
L 203.69766 -223.829405 
L 204.637763 -223.719052 
L 205.574247 -223.6087 
L 206.50277 -223.498347 
L 207.419227 -223.387995 
L 208.319824 -223.277643 
L 209.20114 -223.16729 
L 210.060185 -223.056938 
L 210.894438 -222.946585 
L 211.701873 -222.836233 
L 212.480969 -222.72588 
L 213.230705 -222.615528 
L 213.950536 -222.505175 
L 214.640353 -222.394823 
L 215.300434 -222.28447 
L 215.93138 -222.174118 
L 216.534032 -222.063765 
L 217.1094 -221.953413 
L 217.658564 -221.843061 
L 218.182594 -221.732708 
L 218.682457 -221.622356 
L 219.158936 -221.512003 
L 219.612554 -221.401651 
L 220.043509 -221.291298 
L 220.451618 -221.180946 
L 220.836283 -221.070593 
L 221.196459 -220.960241 
L 221.530651 -220.849888 
L 221.836919 -220.739536 
L 222.112905 -220.629183 
L 222.355865 -220.518831 
L 222.562728 -220.408479 
L 222.730157 -220.298126 
L 222.854625 -220.187774 
L 222.932498 -220.077421 
L 222.960125 -219.967069 
L 222.933928 -219.856716 
L 222.850499 -219.746364 
L 222.706692 -219.636011 
L 222.499708 -219.525659 
L 222.227184 -219.415306 
L 221.887264 -219.304954 
L 221.478667 -219.194602 
L 221.00074 -219.084249 
L 220.453505 -218.973897 
L 219.837686 -218.863544 
L 219.154723 -218.753192 
L 218.40678 -218.642839 
L 217.596727 -218.532487 
L 216.728118 -218.422134 
L 215.805151 -218.311782 
L 214.832615 -218.201429 
L 213.815829 -218.091077 
L 212.760567 -217.980724 
L 211.672982 -217.870372 
L 210.559513 -217.76002 
L 209.426795 -217.649667 
L 208.281565 -217.539315 
L 207.130566 -217.428962 
L 205.980454 -217.31861 
L 204.837706 -217.208257 
L 203.708537 -217.097905 
L 202.598822 -216.987552 
L 201.514024 -216.8772 
L 200.459137 -216.766847 
L 199.438639 -216.656495 
L 198.456448 -216.546142 
L 197.515901 -216.43579 
L 196.619742 -216.325438 
L 195.77011 -216.215085 
L 194.968557 -216.104733 
L 194.216061 -215.99438 
L 193.513053 -215.884028 
L 192.859453 -215.773675 
L 192.254712 -215.663323 
L 191.697857 -215.55297 
L 191.187539 -215.442618 
L 190.722093 -215.332265 
L 190.299581 -215.221913 
L 189.917853 -215.11156 
z
" style="stroke: #3f3f3f; stroke-width: 1.5"/>
    </defs>
    <g clip-path="url(#p335f80c638)">
     <use xlink:href="#m8c16908717" x="0" y="370.686865" style="fill: #3274a1; stroke: #3f3f3f; stroke-width: 1.5"/>
    </g>
   </g>
   <g id="PolyCollection_3">
    <defs>
     <path id="m61ecdcb9c8" d="M 276.862039 -172.233551 
L 276.194211 -172.233551 
L 276.147503 -173.485349 
L 276.095968 -174.737147 
L 276.039387 -175.988945 
L 275.977572 -177.240743 
L 275.910376 -178.492541 
L 275.837701 -179.744339 
L 275.759505 -180.996137 
L 275.675807 -182.247935 
L 275.586698 -183.499733 
L 275.492342 -184.751531 
L 275.392982 -186.003329 
L 275.288946 -187.255127 
L 275.180645 -188.506925 
L 275.068577 -189.758723 
L 274.953322 -191.010521 
L 274.835544 -192.262319 
L 274.715978 -193.514117 
L 274.595432 -194.765915 
L 274.474768 -196.017713 
L 274.354899 -197.269511 
L 274.236771 -198.521309 
L 274.121351 -199.773107 
L 274.009609 -201.024905 
L 273.902503 -202.276703 
L 273.800963 -203.528501 
L 273.705872 -204.780299 
L 273.618046 -206.032097 
L 273.538226 -207.283895 
L 273.467054 -208.535693 
L 273.405066 -209.787491 
L 273.352678 -211.039289 
L 273.310177 -212.291087 
L 273.277716 -213.542885 
L 273.25531 -214.794683 
L 273.242837 -216.046481 
L 273.24004 -217.298279 
L 273.246532 -218.550077 
L 273.261808 -219.801875 
L 273.285256 -221.053673 
L 273.316169 -222.305471 
L 273.353765 -223.557269 
L 273.397203 -224.809067 
L 273.445602 -226.060865 
L 273.498064 -227.312663 
L 273.55369 -228.564461 
L 273.611602 -229.816259 
L 273.670961 -231.068057 
L 273.730986 -232.319855 
L 273.790964 -233.571653 
L 273.850271 -234.823452 
L 273.908375 -236.07525 
L 273.964849 -237.327048 
L 274.019369 -238.578846 
L 274.071724 -239.830644 
L 274.121809 -241.082442 
L 274.169621 -242.33424 
L 274.215254 -243.586038 
L 274.258888 -244.837836 
L 274.300779 -246.089634 
L 274.341246 -247.341432 
L 274.380658 -248.59323 
L 274.419415 -249.845028 
L 274.457938 -251.096826 
L 274.496653 -252.348624 
L 274.535973 -253.600422 
L 274.576292 -254.85222 
L 274.617965 -256.104018 
L 274.661303 -257.355816 
L 274.706564 -258.607614 
L 274.753945 -259.859412 
L 274.803577 -261.11121 
L 274.855527 -262.363008 
L 274.909791 -263.614806 
L 274.9663 -264.866604 
L 275.024926 -266.118402 
L 275.085477 -267.3702 
L 275.147717 -268.621998 
L 275.21136 -269.873796 
L 275.276088 -271.125594 
L 275.341555 -272.377392 
L 275.407395 -273.62919 
L 275.473235 -274.880988 
L 275.538698 -276.132786 
L 275.603418 -277.384584 
L 275.667039 -278.636382 
L 275.729229 -279.88818 
L 275.789681 -281.139978 
L 275.848118 -282.391776 
L 275.904299 -283.643574 
L 275.958019 -284.895372 
L 276.009112 -286.14717 
L 276.057447 -287.398968 
L 276.102935 -288.650766 
L 276.145522 -289.902564 
L 276.185189 -291.154362 
L 276.221948 -292.40616 
L 276.255841 -293.657958 
L 276.286936 -294.909756 
L 276.315325 -296.161554 
L 276.740925 -296.161554 
L 276.740925 -296.161554 
L 276.769314 -294.909756 
L 276.800409 -293.657958 
L 276.834302 -292.40616 
L 276.871061 -291.154362 
L 276.910728 -289.902564 
L 276.953315 -288.650766 
L 276.998803 -287.398968 
L 277.047138 -286.14717 
L 277.098231 -284.895372 
L 277.151951 -283.643574 
L 277.208132 -282.391776 
L 277.266569 -281.139978 
L 277.327021 -279.88818 
L 277.389211 -278.636382 
L 277.452832 -277.384584 
L 277.517552 -276.132786 
L 277.583015 -274.880988 
L 277.648855 -273.62919 
L 277.714695 -272.377392 
L 277.780162 -271.125594 
L 277.84489 -269.873796 
L 277.908533 -268.621998 
L 277.970773 -267.3702 
L 278.031324 -266.118402 
L 278.08995 -264.866604 
L 278.146459 -263.614806 
L 278.200723 -262.363008 
L 278.252673 -261.11121 
L 278.302305 -259.859412 
L 278.349686 -258.607614 
L 278.394947 -257.355816 
L 278.438285 -256.104018 
L 278.479958 -254.85222 
L 278.520277 -253.600422 
L 278.559597 -252.348624 
L 278.598312 -251.096826 
L 278.636835 -249.845028 
L 278.675592 -248.59323 
L 278.715004 -247.341432 
L 278.755471 -246.089634 
L 278.797362 -244.837836 
L 278.840996 -243.586038 
L 278.886629 -242.33424 
L 278.934441 -241.082442 
L 278.984526 -239.830644 
L 279.036881 -238.578846 
L 279.091401 -237.327048 
L 279.147875 -236.07525 
L 279.205979 -234.823452 
L 279.265286 -233.571653 
L 279.325264 -232.319855 
L 279.385289 -231.068057 
L 279.444648 -229.816259 
L 279.50256 -228.564461 
L 279.558186 -227.312663 
L 279.610648 -226.060865 
L 279.659047 -224.809067 
L 279.702485 -223.557269 
L 279.740081 -222.305471 
L 279.770994 -221.053673 
L 279.794442 -219.801875 
L 279.809718 -218.550077 
L 279.81621 -217.298279 
L 279.813413 -216.046481 
L 279.80094 -214.794683 
L 279.778534 -213.542885 
L 279.746073 -212.291087 
L 279.703572 -211.039289 
L 279.651184 -209.787491 
L 279.589196 -208.535693 
L 279.518024 -207.283895 
L 279.438204 -206.032097 
L 279.350378 -204.780299 
L 279.255287 -203.528501 
L 279.153747 -202.276703 
L 279.046641 -201.024905 
L 278.934899 -199.773107 
L 278.819479 -198.521309 
L 278.701351 -197.269511 
L 278.581482 -196.017713 
L 278.460818 -194.765915 
L 278.340272 -193.514117 
L 278.220706 -192.262319 
L 278.102928 -191.010521 
L 277.987673 -189.758723 
L 277.875605 -188.506925 
L 277.767304 -187.255127 
L 277.663268 -186.003329 
L 277.563908 -184.751531 
L 277.469552 -183.499733 
L 277.380443 -182.247935 
L 277.296745 -180.996137 
L 277.218549 -179.744339 
L 277.145874 -178.492541 
L 277.078678 -177.240743 
L 277.016863 -175.988945 
L 276.960282 -174.737147 
L 276.908747 -173.485349 
L 276.862039 -172.233551 
z
" style="stroke: #3f3f3f; stroke-width: 1.5"/>
    </defs>
    <g clip-path="url(#p335f80c638)">
     <use xlink:href="#m61ecdcb9c8" x="0" y="370.686865" style="fill: #9fd495; stroke: #3f3f3f; stroke-width: 1.5"/>
    </g>
   </g>
   <g id="PolyCollection_4">
    <defs>
     <path id="m7b367023ab" d="M 365.929745 -94.35274 
L 365.686505 -94.35274 
L 365.669076 -96.796377 
L 365.649777 -99.240013 
L 365.628506 -101.68365 
L 365.605174 -104.127286 
L 365.579702 -106.570922 
L 365.552025 -109.014559 
L 365.522097 -111.458195 
L 365.489891 -113.901831 
L 365.4554 -116.345468 
L 365.418641 -118.789104 
L 365.379659 -121.23274 
L 365.338522 -123.676377 
L 365.295328 -126.120013 
L 365.250202 -128.56365 
L 365.203298 -131.007286 
L 365.154798 -133.450922 
L 365.104908 -135.894559 
L 365.053862 -138.338195 
L 365.001916 -140.781831 
L 364.949344 -143.225468 
L 364.896439 -145.669104 
L 364.843508 -148.11274 
L 364.790865 -150.556377 
L 364.73883 -153.000013 
L 364.687724 -155.44365 
L 364.637864 -157.887286 
L 364.589558 -160.330922 
L 364.543101 -162.774559 
L 364.498771 -165.218195 
L 364.456822 -167.661831 
L 364.417487 -170.105468 
L 364.380967 -172.549104 
L 364.347432 -174.99274 
L 364.31702 -177.436377 
L 364.289833 -179.880013 
L 364.265939 -182.32365 
L 364.245367 -184.767286 
L 364.228115 -187.210922 
L 364.214142 -189.654559 
L 364.20338 -192.098195 
L 364.19573 -194.541831 
L 364.191065 -196.985468 
L 364.189239 -199.429104 
L 364.190086 -201.87274 
L 364.193426 -204.316377 
L 364.199073 -206.760013 
L 364.206834 -209.20365 
L 364.216518 -211.647286 
L 364.227938 -214.090922 
L 364.240919 -216.534559 
L 364.255296 -218.978195 
L 364.270926 -221.421831 
L 364.287681 -223.865468 
L 364.305457 -226.309104 
L 364.324172 -228.75274 
L 364.34377 -231.196377 
L 364.364215 -233.640013 
L 364.385497 -236.08365 
L 364.407622 -238.527286 
L 364.430618 -240.970922 
L 364.454526 -243.414559 
L 364.479396 -245.858195 
L 364.505288 -248.301831 
L 364.532262 -250.745468 
L 364.560378 -253.189104 
L 364.589688 -255.63274 
L 364.620235 -258.076377 
L 364.652048 -260.520013 
L 364.685137 -262.96365 
L 364.719494 -265.407286 
L 364.755087 -267.850922 
L 364.791862 -270.294559 
L 364.829741 -272.738195 
L 364.868621 -275.181831 
L 364.908379 -277.625468 
L 364.948869 -280.069104 
L 364.989929 -282.51274 
L 365.03138 -284.956377 
L 365.073031 -287.400013 
L 365.114683 -289.84365 
L 365.156134 -292.287286 
L 365.19718 -294.730922 
L 365.23762 -297.174559 
L 365.277262 -299.618195 
L 365.315922 -302.061831 
L 365.353433 -304.505468 
L 365.38964 -306.949104 
L 365.424411 -309.39274 
L 365.457629 -311.836377 
L 365.489202 -314.280013 
L 365.519057 -316.72365 
L 365.547143 -319.167286 
L 365.573431 -321.610922 
L 365.59791 -324.054559 
L 365.62059 -326.498195 
L 365.641497 -328.941831 
L 365.660672 -331.385468 
L 365.678173 -333.829104 
L 365.694064 -336.27274 
L 365.922186 -336.27274 
L 365.922186 -336.27274 
L 365.938077 -333.829104 
L 365.955578 -331.385468 
L 365.974753 -328.941831 
L 365.99566 -326.498195 
L 366.01834 -324.054559 
L 366.042819 -321.610922 
L 366.069107 -319.167286 
L 366.097193 -316.72365 
L 366.127048 -314.280013 
L 366.158621 -311.836377 
L 366.191839 -309.39274 
L 366.22661 -306.949104 
L 366.262817 -304.505468 
L 366.300328 -302.061831 
L 366.338988 -299.618195 
L 366.37863 -297.174559 
L 366.41907 -294.730922 
L 366.460116 -292.287286 
L 366.501567 -289.84365 
L 366.543219 -287.400013 
L 366.58487 -284.956377 
L 366.626321 -282.51274 
L 366.667381 -280.069104 
L 366.707871 -277.625468 
L 366.747629 -275.181831 
L 366.786509 -272.738195 
L 366.824388 -270.294559 
L 366.861163 -267.850922 
L 366.896756 -265.407286 
L 366.931113 -262.96365 
L 366.964202 -260.520013 
L 366.996015 -258.076377 
L 367.026562 -255.63274 
L 367.055872 -253.189104 
L 367.083988 -250.745468 
L 367.110962 -248.301831 
L 367.136854 -245.858195 
L 367.161724 -243.414559 
L 367.185632 -240.970922 
L 367.208628 -238.527286 
L 367.230753 -236.08365 
L 367.252035 -233.640013 
L 367.27248 -231.196377 
L 367.292078 -228.75274 
L 367.310793 -226.309104 
L 367.328569 -223.865468 
L 367.345324 -221.421831 
L 367.360954 -218.978195 
L 367.375331 -216.534559 
L 367.388312 -214.090922 
L 367.399732 -211.647286 
L 367.409416 -209.20365 
L 367.417177 -206.760013 
L 367.422824 -204.316377 
L 367.426164 -201.87274 
L 367.427011 -199.429104 
L 367.425185 -196.985468 
L 367.42052 -194.541831 
L 367.41287 -192.098195 
L 367.402108 -189.654559 
L 367.388135 -187.210922 
L 367.370883 -184.767286 
L 367.350311 -182.32365 
L 367.326417 -179.880013 
L 367.29923 -177.436377 
L 367.268818 -174.99274 
L 367.235283 -172.549104 
L 367.198763 -170.105468 
L 367.159428 -167.661831 
L 367.117479 -165.218195 
L 367.073149 -162.774559 
L 367.026692 -160.330922 
L 366.978386 -157.887286 
L 366.928526 -155.44365 
L 366.87742 -153.000013 
L 366.825385 -150.556377 
L 366.772742 -148.11274 
L 366.719811 -145.669104 
L 366.666906 -143.225468 
L 366.614334 -140.781831 
L 366.562388 -138.338195 
L 366.511342 -135.894559 
L 366.461452 -133.450922 
L 366.412952 -131.007286 
L 366.366048 -128.56365 
L 366.320922 -126.120013 
L 366.277728 -123.676377 
L 366.236591 -121.23274 
L 366.197609 -118.789104 
L 366.16085 -116.345468 
L 366.126359 -113.901831 
L 366.094153 -111.458195 
L 366.064225 -109.014559 
L 366.036548 -106.570922 
L 366.011076 -104.127286 
L 365.987744 -101.68365 
L 365.966473 -99.240013 
L 365.947174 -96.796377 
L 365.929745 -94.35274 
z
" style="stroke: #3f3f3f; stroke-width: 1.5"/>
    </defs>
    <g clip-path="url(#p335f80c638)">
     <use xlink:href="#m7b367023ab" x="0" y="370.686865" style="fill: #c7c7c7; stroke: #3f3f3f; stroke-width: 1.5"/>
    </g>
   </g>
   <g id="matplotlib.axis_1">
    <g id="xtick_1">
     <g id="line2d_1">
      <defs>
       <path id="m6e8e4a8f89" d="M 0 0 
L 0 3.5 
" style="stroke: #000000; stroke-width: 0.8"/>
      </defs>
      <g>
       <use xlink:href="#m6e8e4a8f89" x="97.968125" y="288.430125" style="stroke: #000000; stroke-width: 0.8"/>
      </g>
     </g>
     <g id="text_1">
      <!-- aflplusplus_ast_o2 -->
      <g transform="translate(17.537069 347.766815)rotate(-30)scale(0.1 -0.1)">
       <defs>
        <path id="DejaVuSans-61" d="M 2194 1759 
Q 1497 1759 1228 1600 
Q 959 1441 959 1056 
Q 959 750 1161 570 
Q 1363 391 1709 391 
Q 2188 391 2477 730 
Q 2766 1069 2766 1631 
L 2766 1759 
L 2194 1759 
z
M 3341 1997 
L 3341 0 
L 2766 0 
L 2766 531 
Q 2569 213 2275 61 
Q 1981 -91 1556 -91 
Q 1019 -91 701 211 
Q 384 513 384 1019 
Q 384 1609 779 1909 
Q 1175 2209 1959 2209 
L 2766 2209 
L 2766 2266 
Q 2766 2663 2505 2880 
Q 2244 3097 1772 3097 
Q 1472 3097 1187 3025 
Q 903 2953 641 2809 
L 641 3341 
Q 956 3463 1253 3523 
Q 1550 3584 1831 3584 
Q 2591 3584 2966 3190 
Q 3341 2797 3341 1997 
z
" transform="scale(0.015625)"/>
        <path id="DejaVuSans-66" d="M 2375 4863 
L 2375 4384 
L 1825 4384 
Q 1516 4384 1395 4259 
Q 1275 4134 1275 3809 
L 1275 3500 
L 2222 3500 
L 2222 3053 
L 1275 3053 
L 1275 0 
L 697 0 
L 697 3053 
L 147 3053 
L 147 3500 
L 697 3500 
L 697 3744 
Q 697 4328 969 4595 
Q 1241 4863 1831 4863 
L 2375 4863 
z
" transform="scale(0.015625)"/>
        <path id="DejaVuSans-6c" d="M 603 4863 
L 1178 4863 
L 1178 0 
L 603 0 
L 603 4863 
z
" transform="scale(0.015625)"/>
        <path id="DejaVuSans-70" d="M 1159 525 
L 1159 -1331 
L 581 -1331 
L 581 3500 
L 1159 3500 
L 1159 2969 
Q 1341 3281 1617 3432 
Q 1894 3584 2278 3584 
Q 2916 3584 3314 3078 
Q 3713 2572 3713 1747 
Q 3713 922 3314 415 
Q 2916 -91 2278 -91 
Q 1894 -91 1617 61 
Q 1341 213 1159 525 
z
M 3116 1747 
Q 3116 2381 2855 2742 
Q 2594 3103 2138 3103 
Q 1681 3103 1420 2742 
Q 1159 2381 1159 1747 
Q 1159 1113 1420 752 
Q 1681 391 2138 391 
Q 2594 391 2855 752 
Q 3116 1113 3116 1747 
z
" transform="scale(0.015625)"/>
        <path id="DejaVuSans-75" d="M 544 1381 
L 544 3500 
L 1119 3500 
L 1119 1403 
Q 1119 906 1312 657 
Q 1506 409 1894 409 
Q 2359 409 2629 706 
Q 2900 1003 2900 1516 
L 2900 3500 
L 3475 3500 
L 3475 0 
L 2900 0 
L 2900 538 
Q 2691 219 2414 64 
Q 2138 -91 1772 -91 
Q 1169 -91 856 284 
Q 544 659 544 1381 
z
M 1991 3584 
L 1991 3584 
z
" transform="scale(0.015625)"/>
        <path id="DejaVuSans-73" d="M 2834 3397 
L 2834 2853 
Q 2591 2978 2328 3040 
Q 2066 3103 1784 3103 
Q 1356 3103 1142 2972 
Q 928 2841 928 2578 
Q 928 2378 1081 2264 
Q 1234 2150 1697 2047 
L 1894 2003 
Q 2506 1872 2764 1633 
Q 3022 1394 3022 966 
Q 3022 478 2636 193 
Q 2250 -91 1575 -91 
Q 1294 -91 989 -36 
Q 684 19 347 128 
L 347 722 
Q 666 556 975 473 
Q 1284 391 1588 391 
Q 1994 391 2212 530 
Q 2431 669 2431 922 
Q 2431 1156 2273 1281 
Q 2116 1406 1581 1522 
L 1381 1569 
Q 847 1681 609 1914 
Q 372 2147 372 2553 
Q 372 3047 722 3315 
Q 1072 3584 1716 3584 
Q 2034 3584 2315 3537 
Q 2597 3491 2834 3397 
z
" transform="scale(0.015625)"/>
        <path id="DejaVuSans-5f" d="M 3263 -1063 
L 3263 -1509 
L -63 -1509 
L -63 -1063 
L 3263 -1063 
z
" transform="scale(0.015625)"/>
        <path id="DejaVuSans-74" d="M 1172 4494 
L 1172 3500 
L 2356 3500 
L 2356 3053 
L 1172 3053 
L 1172 1153 
Q 1172 725 1289 603 
Q 1406 481 1766 481 
L 2356 481 
L 2356 0 
L 1766 0 
Q 1100 0 847 248 
Q 594 497 594 1153 
L 594 3053 
L 172 3053 
L 172 3500 
L 594 3500 
L 594 4494 
L 1172 4494 
z
" transform="scale(0.015625)"/>
        <path id="DejaVuSans-6f" d="M 1959 3097 
Q 1497 3097 1228 2736 
Q 959 2375 959 1747 
Q 959 1119 1226 758 
Q 1494 397 1959 397 
Q 2419 397 2687 759 
Q 2956 1122 2956 1747 
Q 2956 2369 2687 2733 
Q 2419 3097 1959 3097 
z
M 1959 3584 
Q 2709 3584 3137 3096 
Q 3566 2609 3566 1747 
Q 3566 888 3137 398 
Q 2709 -91 1959 -91 
Q 1206 -91 779 398 
Q 353 888 353 1747 
Q 353 2609 779 3096 
Q 1206 3584 1959 3584 
z
" transform="scale(0.015625)"/>
        <path id="DejaVuSans-32" d="M 1228 531 
L 3431 531 
L 3431 0 
L 469 0 
L 469 531 
Q 828 903 1448 1529 
Q 2069 2156 2228 2338 
Q 2531 2678 2651 2914 
Q 2772 3150 2772 3378 
Q 2772 3750 2511 3984 
Q 2250 4219 1831 4219 
Q 1534 4219 1204 4116 
Q 875 4013 500 3803 
L 500 4441 
Q 881 4594 1212 4672 
Q 1544 4750 1819 4750 
Q 2544 4750 2975 4387 
Q 3406 4025 3406 3419 
Q 3406 3131 3298 2873 
Q 3191 2616 2906 2266 
Q 2828 2175 2409 1742 
Q 1991 1309 1228 531 
z
" transform="scale(0.015625)"/>
       </defs>
       <use xlink:href="#DejaVuSans-61"/>
       <use xlink:href="#DejaVuSans-66" x="61.279297"/>
       <use xlink:href="#DejaVuSans-6c" x="96.484375"/>
       <use xlink:href="#DejaVuSans-70" x="124.267578"/>
       <use xlink:href="#DejaVuSans-6c" x="187.744141"/>
       <use xlink:href="#DejaVuSans-75" x="215.527344"/>
       <use xlink:href="#DejaVuSans-73" x="278.90625"/>
       <use xlink:href="#DejaVuSans-70" x="331.005859"/>
       <use xlink:href="#DejaVuSans-6c" x="394.482422"/>
       <use xlink:href="#DejaVuSans-75" x="422.265625"/>
       <use xlink:href="#DejaVuSans-73" x="485.644531"/>
       <use xlink:href="#DejaVuSans-5f" x="537.744141"/>
       <use xlink:href="#DejaVuSans-61" x="587.744141"/>
       <use xlink:href="#DejaVuSans-73" x="649.023438"/>
       <use xlink:href="#DejaVuSans-74" x="701.123047"/>
       <use xlink:href="#DejaVuSans-5f" x="740.332031"/>
       <use xlink:href="#DejaVuSans-6f" x="790.332031"/>
       <use xlink:href="#DejaVuSans-32" x="851.513672"/>
      </g>
     </g>
    </g>
    <g id="xtick_2">
     <g id="line2d_2">
      <g>
       <use xlink:href="#m6e8e4a8f89" x="187.248125" y="288.430125" style="stroke: #000000; stroke-width: 0.8"/>
      </g>
     </g>
     <g id="text_2">
      <!-- aflplusplus_ast_o0 -->
      <g transform="translate(106.817069 347.766815)rotate(-30)scale(0.1 -0.1)">
       <defs>
        <path id="DejaVuSans-30" d="M 2034 4250 
Q 1547 4250 1301 3770 
Q 1056 3291 1056 2328 
Q 1056 1369 1301 889 
Q 1547 409 2034 409 
Q 2525 409 2770 889 
Q 3016 1369 3016 2328 
Q 3016 3291 2770 3770 
Q 2525 4250 2034 4250 
z
M 2034 4750 
Q 2819 4750 3233 4129 
Q 3647 3509 3647 2328 
Q 3647 1150 3233 529 
Q 2819 -91 2034 -91 
Q 1250 -91 836 529 
Q 422 1150 422 2328 
Q 422 3509 836 4129 
Q 1250 4750 2034 4750 
z
" transform="scale(0.015625)"/>
       </defs>
       <use xlink:href="#DejaVuSans-61"/>
       <use xlink:href="#DejaVuSans-66" x="61.279297"/>
       <use xlink:href="#DejaVuSans-6c" x="96.484375"/>
       <use xlink:href="#DejaVuSans-70" x="124.267578"/>
       <use xlink:href="#DejaVuSans-6c" x="187.744141"/>
       <use xlink:href="#DejaVuSans-75" x="215.527344"/>
       <use xlink:href="#DejaVuSans-73" x="278.90625"/>
       <use xlink:href="#DejaVuSans-70" x="331.005859"/>
       <use xlink:href="#DejaVuSans-6c" x="394.482422"/>
       <use xlink:href="#DejaVuSans-75" x="422.265625"/>
       <use xlink:href="#DejaVuSans-73" x="485.644531"/>
       <use xlink:href="#DejaVuSans-5f" x="537.744141"/>
       <use xlink:href="#DejaVuSans-61" x="587.744141"/>
       <use xlink:href="#DejaVuSans-73" x="649.023438"/>
       <use xlink:href="#DejaVuSans-74" x="701.123047"/>
       <use xlink:href="#DejaVuSans-5f" x="740.332031"/>
       <use xlink:href="#DejaVuSans-6f" x="790.332031"/>
       <use xlink:href="#DejaVuSans-30" x="851.513672"/>
      </g>
     </g>
    </g>
    <g id="xtick_3">
     <g id="line2d_3">
      <g>
       <use xlink:href="#m6e8e4a8f89" x="276.528125" y="288.430125" style="stroke: #000000; stroke-width: 0.8"/>
      </g>
     </g>
     <g id="text_3">
      <!-- aflplusplus_ast_o1 -->
      <g transform="translate(196.097069 347.766815)rotate(-30)scale(0.1 -0.1)">
       <defs>
        <path id="DejaVuSans-31" d="M 794 531 
L 1825 531 
L 1825 4091 
L 703 3866 
L 703 4441 
L 1819 4666 
L 2450 4666 
L 2450 531 
L 3481 531 
L 3481 0 
L 794 0 
L 794 531 
z
" transform="scale(0.015625)"/>
       </defs>
       <use xlink:href="#DejaVuSans-61"/>
       <use xlink:href="#DejaVuSans-66" x="61.279297"/>
       <use xlink:href="#DejaVuSans-6c" x="96.484375"/>
       <use xlink:href="#DejaVuSans-70" x="124.267578"/>
       <use xlink:href="#DejaVuSans-6c" x="187.744141"/>
       <use xlink:href="#DejaVuSans-75" x="215.527344"/>
       <use xlink:href="#DejaVuSans-73" x="278.90625"/>
       <use xlink:href="#DejaVuSans-70" x="331.005859"/>
       <use xlink:href="#DejaVuSans-6c" x="394.482422"/>
       <use xlink:href="#DejaVuSans-75" x="422.265625"/>
       <use xlink:href="#DejaVuSans-73" x="485.644531"/>
       <use xlink:href="#DejaVuSans-5f" x="537.744141"/>
       <use xlink:href="#DejaVuSans-61" x="587.744141"/>
       <use xlink:href="#DejaVuSans-73" x="649.023438"/>
       <use xlink:href="#DejaVuSans-74" x="701.123047"/>
       <use xlink:href="#DejaVuSans-5f" x="740.332031"/>
       <use xlink:href="#DejaVuSans-6f" x="790.332031"/>
       <use xlink:href="#DejaVuSans-31" x="851.513672"/>
      </g>
     </g>
    </g>
    <g id="xtick_4">
     <g id="line2d_4">
      <g>
       <use xlink:href="#m6e8e4a8f89" x="365.808125" y="288.430125" style="stroke: #000000; stroke-width: 0.8"/>
      </g>
     </g>
     <g id="text_4">
      <!-- aflplusplus_ast_o3 -->
      <g transform="translate(285.377069 347.766815)rotate(-30)scale(0.1 -0.1)">
       <defs>
        <path id="DejaVuSans-33" d="M 2597 2516 
Q 3050 2419 3304 2112 
Q 3559 1806 3559 1356 
Q 3559 666 3084 287 
Q 2609 -91 1734 -91 
Q 1441 -91 1130 -33 
Q 819 25 488 141 
L 488 750 
Q 750 597 1062 519 
Q 1375 441 1716 441 
Q 2309 441 2620 675 
Q 2931 909 2931 1356 
Q 2931 1769 2642 2001 
Q 2353 2234 1838 2234 
L 1294 2234 
L 1294 2753 
L 1863 2753 
Q 2328 2753 2575 2939 
Q 2822 3125 2822 3475 
Q 2822 3834 2567 4026 
Q 2313 4219 1838 4219 
Q 1578 4219 1281 4162 
Q 984 4106 628 3988 
L 628 4550 
Q 988 4650 1302 4700 
Q 1616 4750 1894 4750 
Q 2613 4750 3031 4423 
Q 3450 4097 3450 3541 
Q 3450 3153 3228 2886 
Q 3006 2619 2597 2516 
z
" transform="scale(0.015625)"/>
       </defs>
       <use xlink:href="#DejaVuSans-61"/>
       <use xlink:href="#DejaVuSans-66" x="61.279297"/>
       <use xlink:href="#DejaVuSans-6c" x="96.484375"/>
       <use xlink:href="#DejaVuSans-70" x="124.267578"/>
       <use xlink:href="#DejaVuSans-6c" x="187.744141"/>
       <use xlink:href="#DejaVuSans-75" x="215.527344"/>
       <use xlink:href="#DejaVuSans-73" x="278.90625"/>
       <use xlink:href="#DejaVuSans-70" x="331.005859"/>
       <use xlink:href="#DejaVuSans-6c" x="394.482422"/>
       <use xlink:href="#DejaVuSans-75" x="422.265625"/>
       <use xlink:href="#DejaVuSans-73" x="485.644531"/>
       <use xlink:href="#DejaVuSans-5f" x="537.744141"/>
       <use xlink:href="#DejaVuSans-61" x="587.744141"/>
       <use xlink:href="#DejaVuSans-73" x="649.023438"/>
       <use xlink:href="#DejaVuSans-74" x="701.123047"/>
       <use xlink:href="#DejaVuSans-5f" x="740.332031"/>
       <use xlink:href="#DejaVuSans-6f" x="790.332031"/>
       <use xlink:href="#DejaVuSans-33" x="851.513672"/>
      </g>
     </g>
    </g>
    <g id="text_5">
     <!-- Fuzzer (highest median coverage on the left) -->
     <g transform="translate(119.270156 361.407178)scale(0.1 -0.1)">
      <defs>
       <path id="DejaVuSans-46" d="M 628 4666 
L 3309 4666 
L 3309 4134 
L 1259 4134 
L 1259 2759 
L 3109 2759 
L 3109 2228 
L 1259 2228 
L 1259 0 
L 628 0 
L 628 4666 
z
" transform="scale(0.015625)"/>
       <path id="DejaVuSans-7a" d="M 353 3500 
L 3084 3500 
L 3084 2975 
L 922 459 
L 3084 459 
L 3084 0 
L 275 0 
L 275 525 
L 2438 3041 
L 353 3041 
L 353 3500 
z
" transform="scale(0.015625)"/>
       <path id="DejaVuSans-65" d="M 3597 1894 
L 3597 1613 
L 953 1613 
Q 991 1019 1311 708 
Q 1631 397 2203 397 
Q 2534 397 2845 478 
Q 3156 559 3463 722 
L 3463 178 
Q 3153 47 2828 -22 
Q 2503 -91 2169 -91 
Q 1331 -91 842 396 
Q 353 884 353 1716 
Q 353 2575 817 3079 
Q 1281 3584 2069 3584 
Q 2775 3584 3186 3129 
Q 3597 2675 3597 1894 
z
M 3022 2063 
Q 3016 2534 2758 2815 
Q 2500 3097 2075 3097 
Q 1594 3097 1305 2825 
Q 1016 2553 972 2059 
L 3022 2063 
z
" transform="scale(0.015625)"/>
       <path id="DejaVuSans-72" d="M 2631 2963 
Q 2534 3019 2420 3045 
Q 2306 3072 2169 3072 
Q 1681 3072 1420 2755 
Q 1159 2438 1159 1844 
L 1159 0 
L 581 0 
L 581 3500 
L 1159 3500 
L 1159 2956 
Q 1341 3275 1631 3429 
Q 1922 3584 2338 3584 
Q 2397 3584 2469 3576 
Q 2541 3569 2628 3553 
L 2631 2963 
z
" transform="scale(0.015625)"/>
       <path id="DejaVuSans-20" transform="scale(0.015625)"/>
       <path id="DejaVuSans-28" d="M 1984 4856 
Q 1566 4138 1362 3434 
Q 1159 2731 1159 2009 
Q 1159 1288 1364 580 
Q 1569 -128 1984 -844 
L 1484 -844 
Q 1016 -109 783 600 
Q 550 1309 550 2009 
Q 550 2706 781 3412 
Q 1013 4119 1484 4856 
L 1984 4856 
z
" transform="scale(0.015625)"/>
       <path id="DejaVuSans-68" d="M 3513 2113 
L 3513 0 
L 2938 0 
L 2938 2094 
Q 2938 2591 2744 2837 
Q 2550 3084 2163 3084 
Q 1697 3084 1428 2787 
Q 1159 2491 1159 1978 
L 1159 0 
L 581 0 
L 581 4863 
L 1159 4863 
L 1159 2956 
Q 1366 3272 1645 3428 
Q 1925 3584 2291 3584 
Q 2894 3584 3203 3211 
Q 3513 2838 3513 2113 
z
" transform="scale(0.015625)"/>
       <path id="DejaVuSans-69" d="M 603 3500 
L 1178 3500 
L 1178 0 
L 603 0 
L 603 3500 
z
M 603 4863 
L 1178 4863 
L 1178 4134 
L 603 4134 
L 603 4863 
z
" transform="scale(0.015625)"/>
       <path id="DejaVuSans-67" d="M 2906 1791 
Q 2906 2416 2648 2759 
Q 2391 3103 1925 3103 
Q 1463 3103 1205 2759 
Q 947 2416 947 1791 
Q 947 1169 1205 825 
Q 1463 481 1925 481 
Q 2391 481 2648 825 
Q 2906 1169 2906 1791 
z
M 3481 434 
Q 3481 -459 3084 -895 
Q 2688 -1331 1869 -1331 
Q 1566 -1331 1297 -1286 
Q 1028 -1241 775 -1147 
L 775 -588 
Q 1028 -725 1275 -790 
Q 1522 -856 1778 -856 
Q 2344 -856 2625 -561 
Q 2906 -266 2906 331 
L 2906 616 
Q 2728 306 2450 153 
Q 2172 0 1784 0 
Q 1141 0 747 490 
Q 353 981 353 1791 
Q 353 2603 747 3093 
Q 1141 3584 1784 3584 
Q 2172 3584 2450 3431 
Q 2728 3278 2906 2969 
L 2906 3500 
L 3481 3500 
L 3481 434 
z
" transform="scale(0.015625)"/>
       <path id="DejaVuSans-6d" d="M 3328 2828 
Q 3544 3216 3844 3400 
Q 4144 3584 4550 3584 
Q 5097 3584 5394 3201 
Q 5691 2819 5691 2113 
L 5691 0 
L 5113 0 
L 5113 2094 
Q 5113 2597 4934 2840 
Q 4756 3084 4391 3084 
Q 3944 3084 3684 2787 
Q 3425 2491 3425 1978 
L 3425 0 
L 2847 0 
L 2847 2094 
Q 2847 2600 2669 2842 
Q 2491 3084 2119 3084 
Q 1678 3084 1418 2786 
Q 1159 2488 1159 1978 
L 1159 0 
L 581 0 
L 581 3500 
L 1159 3500 
L 1159 2956 
Q 1356 3278 1631 3431 
Q 1906 3584 2284 3584 
Q 2666 3584 2933 3390 
Q 3200 3197 3328 2828 
z
" transform="scale(0.015625)"/>
       <path id="DejaVuSans-64" d="M 2906 2969 
L 2906 4863 
L 3481 4863 
L 3481 0 
L 2906 0 
L 2906 525 
Q 2725 213 2448 61 
Q 2172 -91 1784 -91 
Q 1150 -91 751 415 
Q 353 922 353 1747 
Q 353 2572 751 3078 
Q 1150 3584 1784 3584 
Q 2172 3584 2448 3432 
Q 2725 3281 2906 2969 
z
M 947 1747 
Q 947 1113 1208 752 
Q 1469 391 1925 391 
Q 2381 391 2643 752 
Q 2906 1113 2906 1747 
Q 2906 2381 2643 2742 
Q 2381 3103 1925 3103 
Q 1469 3103 1208 2742 
Q 947 2381 947 1747 
z
" transform="scale(0.015625)"/>
       <path id="DejaVuSans-6e" d="M 3513 2113 
L 3513 0 
L 2938 0 
L 2938 2094 
Q 2938 2591 2744 2837 
Q 2550 3084 2163 3084 
Q 1697 3084 1428 2787 
Q 1159 2491 1159 1978 
L 1159 0 
L 581 0 
L 581 3500 
L 1159 3500 
L 1159 2956 
Q 1366 3272 1645 3428 
Q 1925 3584 2291 3584 
Q 2894 3584 3203 3211 
Q 3513 2838 3513 2113 
z
" transform="scale(0.015625)"/>
       <path id="DejaVuSans-63" d="M 3122 3366 
L 3122 2828 
Q 2878 2963 2633 3030 
Q 2388 3097 2138 3097 
Q 1578 3097 1268 2742 
Q 959 2388 959 1747 
Q 959 1106 1268 751 
Q 1578 397 2138 397 
Q 2388 397 2633 464 
Q 2878 531 3122 666 
L 3122 134 
Q 2881 22 2623 -34 
Q 2366 -91 2075 -91 
Q 1284 -91 818 406 
Q 353 903 353 1747 
Q 353 2603 823 3093 
Q 1294 3584 2113 3584 
Q 2378 3584 2631 3529 
Q 2884 3475 3122 3366 
z
" transform="scale(0.015625)"/>
       <path id="DejaVuSans-76" d="M 191 3500 
L 800 3500 
L 1894 563 
L 2988 3500 
L 3597 3500 
L 2284 0 
L 1503 0 
L 191 3500 
z
" transform="scale(0.015625)"/>
       <path id="DejaVuSans-29" d="M 513 4856 
L 1013 4856 
Q 1481 4119 1714 3412 
Q 1947 2706 1947 2009 
Q 1947 1309 1714 600 
Q 1481 -109 1013 -844 
L 513 -844 
Q 928 -128 1133 580 
Q 1338 1288 1338 2009 
Q 1338 2731 1133 3434 
Q 928 4138 513 4856 
z
" transform="scale(0.015625)"/>
      </defs>
      <use xlink:href="#DejaVuSans-46"/>
      <use xlink:href="#DejaVuSans-75" x="52.019531"/>
      <use xlink:href="#DejaVuSans-7a" x="115.398438"/>
      <use xlink:href="#DejaVuSans-7a" x="167.888672"/>
      <use xlink:href="#DejaVuSans-65" x="220.378906"/>
      <use xlink:href="#DejaVuSans-72" x="281.902344"/>
      <use xlink:href="#DejaVuSans-20" x="323.015625"/>
      <use xlink:href="#DejaVuSans-28" x="354.802734"/>
      <use xlink:href="#DejaVuSans-68" x="393.816406"/>
      <use xlink:href="#DejaVuSans-69" x="457.195312"/>
      <use xlink:href="#DejaVuSans-67" x="484.978516"/>
      <use xlink:href="#DejaVuSans-68" x="548.455078"/>
      <use xlink:href="#DejaVuSans-65" x="611.833984"/>
      <use xlink:href="#DejaVuSans-73" x="673.357422"/>
      <use xlink:href="#DejaVuSans-74" x="725.457031"/>
      <use xlink:href="#DejaVuSans-20" x="764.666016"/>
      <use xlink:href="#DejaVuSans-6d" x="796.453125"/>
      <use xlink:href="#DejaVuSans-65" x="893.865234"/>
      <use xlink:href="#DejaVuSans-64" x="955.388672"/>
      <use xlink:href="#DejaVuSans-69" x="1018.865234"/>
      <use xlink:href="#DejaVuSans-61" x="1046.648438"/>
      <use xlink:href="#DejaVuSans-6e" x="1107.927734"/>
      <use xlink:href="#DejaVuSans-20" x="1171.306641"/>
      <use xlink:href="#DejaVuSans-63" x="1203.09375"/>
      <use xlink:href="#DejaVuSans-6f" x="1258.074219"/>
      <use xlink:href="#DejaVuSans-76" x="1319.255859"/>
      <use xlink:href="#DejaVuSans-65" x="1378.435547"/>
      <use xlink:href="#DejaVuSans-72" x="1439.958984"/>
      <use xlink:href="#DejaVuSans-61" x="1481.072266"/>
      <use xlink:href="#DejaVuSans-67" x="1542.351562"/>
      <use xlink:href="#DejaVuSans-65" x="1605.828125"/>
      <use xlink:href="#DejaVuSans-20" x="1667.351562"/>
      <use xlink:href="#DejaVuSans-6f" x="1699.138672"/>
      <use xlink:href="#DejaVuSans-6e" x="1760.320312"/>
      <use xlink:href="#DejaVuSans-20" x="1823.699219"/>
      <use xlink:href="#DejaVuSans-74" x="1855.486328"/>
      <use xlink:href="#DejaVuSans-68" x="1894.695312"/>
      <use xlink:href="#DejaVuSans-65" x="1958.074219"/>
      <use xlink:href="#DejaVuSans-20" x="2019.597656"/>
      <use xlink:href="#DejaVuSans-6c" x="2051.384766"/>
      <use xlink:href="#DejaVuSans-65" x="2079.167969"/>
      <use xlink:href="#DejaVuSans-66" x="2140.691406"/>
      <use xlink:href="#DejaVuSans-74" x="2174.146484"/>
      <use xlink:href="#DejaVuSans-29" x="2213.355469"/>
     </g>
    </g>
   </g>
   <g id="matplotlib.axis_2">
    <g id="ytick_1">
     <g id="line2d_5">
      <defs>
       <path id="m623a6dd3e8" d="M 0 0 
L -3.5 0 
" style="stroke: #000000; stroke-width: 0.8"/>
      </defs>
      <g>
       <use xlink:href="#m623a6dd3e8" x="53.328125" y="268.996583" style="stroke: #000000; stroke-width: 0.8"/>
      </g>
     </g>
     <g id="text_6">
      <!-- 1000 -->
      <g transform="translate(20.878125 272.795802)scale(0.1 -0.1)">
       <use xlink:href="#DejaVuSans-31"/>
       <use xlink:href="#DejaVuSans-30" x="63.623047"/>
       <use xlink:href="#DejaVuSans-30" x="127.246094"/>
       <use xlink:href="#DejaVuSans-30" x="190.869141"/>
      </g>
     </g>
    </g>
    <g id="ytick_2">
     <g id="line2d_6">
      <g>
       <use xlink:href="#m623a6dd3e8" x="53.328125" y="234.153756" style="stroke: #000000; stroke-width: 0.8"/>
      </g>
     </g>
     <g id="text_7">
      <!-- 1500 -->
      <g transform="translate(20.878125 237.952975)scale(0.1 -0.1)">
       <defs>
        <path id="DejaVuSans-35" d="M 691 4666 
L 3169 4666 
L 3169 4134 
L 1269 4134 
L 1269 2991 
Q 1406 3038 1543 3061 
Q 1681 3084 1819 3084 
Q 2600 3084 3056 2656 
Q 3513 2228 3513 1497 
Q 3513 744 3044 326 
Q 2575 -91 1722 -91 
Q 1428 -91 1123 -41 
Q 819 9 494 109 
L 494 744 
Q 775 591 1075 516 
Q 1375 441 1709 441 
Q 2250 441 2565 725 
Q 2881 1009 2881 1497 
Q 2881 1984 2565 2268 
Q 2250 2553 1709 2553 
Q 1456 2553 1204 2497 
Q 953 2441 691 2322 
L 691 4666 
z
" transform="scale(0.015625)"/>
       </defs>
       <use xlink:href="#DejaVuSans-31"/>
       <use xlink:href="#DejaVuSans-35" x="63.623047"/>
       <use xlink:href="#DejaVuSans-30" x="127.246094"/>
       <use xlink:href="#DejaVuSans-30" x="190.869141"/>
      </g>
     </g>
    </g>
    <g id="ytick_3">
     <g id="line2d_7">
      <g>
       <use xlink:href="#m623a6dd3e8" x="53.328125" y="199.310929" style="stroke: #000000; stroke-width: 0.8"/>
      </g>
     </g>
     <g id="text_8">
      <!-- 2000 -->
      <g transform="translate(20.878125 203.110148)scale(0.1 -0.1)">
       <use xlink:href="#DejaVuSans-32"/>
       <use xlink:href="#DejaVuSans-30" x="63.623047"/>
       <use xlink:href="#DejaVuSans-30" x="127.246094"/>
       <use xlink:href="#DejaVuSans-30" x="190.869141"/>
      </g>
     </g>
    </g>
    <g id="ytick_4">
     <g id="line2d_8">
      <g>
       <use xlink:href="#m623a6dd3e8" x="53.328125" y="164.468103" style="stroke: #000000; stroke-width: 0.8"/>
      </g>
     </g>
     <g id="text_9">
      <!-- 2500 -->
      <g transform="translate(20.878125 168.267322)scale(0.1 -0.1)">
       <use xlink:href="#DejaVuSans-32"/>
       <use xlink:href="#DejaVuSans-35" x="63.623047"/>
       <use xlink:href="#DejaVuSans-30" x="127.246094"/>
       <use xlink:href="#DejaVuSans-30" x="190.869141"/>
      </g>
     </g>
    </g>
    <g id="ytick_5">
     <g id="line2d_9">
      <g>
       <use xlink:href="#m623a6dd3e8" x="53.328125" y="129.625276" style="stroke: #000000; stroke-width: 0.8"/>
      </g>
     </g>
     <g id="text_10">
      <!-- 3000 -->
      <g transform="translate(20.878125 133.424495)scale(0.1 -0.1)">
       <use xlink:href="#DejaVuSans-33"/>
       <use xlink:href="#DejaVuSans-30" x="63.623047"/>
       <use xlink:href="#DejaVuSans-30" x="127.246094"/>
       <use xlink:href="#DejaVuSans-30" x="190.869141"/>
      </g>
     </g>
    </g>
    <g id="ytick_6">
     <g id="line2d_10">
      <g>
       <use xlink:href="#m623a6dd3e8" x="53.328125" y="94.782449" style="stroke: #000000; stroke-width: 0.8"/>
      </g>
     </g>
     <g id="text_11">
      <!-- 3500 -->
      <g transform="translate(20.878125 98.581668)scale(0.1 -0.1)">
       <use xlink:href="#DejaVuSans-33"/>
       <use xlink:href="#DejaVuSans-35" x="63.623047"/>
       <use xlink:href="#DejaVuSans-30" x="127.246094"/>
       <use xlink:href="#DejaVuSans-30" x="190.869141"/>
      </g>
     </g>
    </g>
    <g id="ytick_7">
     <g id="line2d_11">
      <g>
       <use xlink:href="#m623a6dd3e8" x="53.328125" y="59.939623" style="stroke: #000000; stroke-width: 0.8"/>
      </g>
     </g>
     <g id="text_12">
      <!-- 4000 -->
      <g transform="translate(20.878125 63.738841)scale(0.1 -0.1)">
       <defs>
        <path id="DejaVuSans-34" d="M 2419 4116 
L 825 1625 
L 2419 1625 
L 2419 4116 
z
M 2253 4666 
L 3047 4666 
L 3047 1625 
L 3713 1625 
L 3713 1100 
L 3047 1100 
L 3047 0 
L 2419 0 
L 2419 1100 
L 313 1100 
L 313 1709 
L 2253 4666 
z
" transform="scale(0.015625)"/>
       </defs>
       <use xlink:href="#DejaVuSans-34"/>
       <use xlink:href="#DejaVuSans-30" x="63.623047"/>
       <use xlink:href="#DejaVuSans-30" x="127.246094"/>
       <use xlink:href="#DejaVuSans-30" x="190.869141"/>
      </g>
     </g>
    </g>
    <g id="ytick_8">
     <g id="line2d_12">
      <g>
       <use xlink:href="#m623a6dd3e8" x="53.328125" y="25.096796" style="stroke: #000000; stroke-width: 0.8"/>
      </g>
     </g>
     <g id="text_13">
      <!-- 4500 -->
      <g transform="translate(20.878125 28.896015)scale(0.1 -0.1)">
       <use xlink:href="#DejaVuSans-34"/>
       <use xlink:href="#DejaVuSans-35" x="63.623047"/>
       <use xlink:href="#DejaVuSans-30" x="127.246094"/>
       <use xlink:href="#DejaVuSans-30" x="190.869141"/>
      </g>
     </g>
    </g>
    <g id="text_14">
     <!-- Reached region coverage -->
     <g transform="translate(14.798438 219.136625)rotate(-90)scale(0.1 -0.1)">
      <defs>
       <path id="DejaVuSans-52" d="M 2841 2188 
Q 3044 2119 3236 1894 
Q 3428 1669 3622 1275 
L 4263 0 
L 3584 0 
L 2988 1197 
Q 2756 1666 2539 1819 
Q 2322 1972 1947 1972 
L 1259 1972 
L 1259 0 
L 628 0 
L 628 4666 
L 2053 4666 
Q 2853 4666 3247 4331 
Q 3641 3997 3641 3322 
Q 3641 2881 3436 2590 
Q 3231 2300 2841 2188 
z
M 1259 4147 
L 1259 2491 
L 2053 2491 
Q 2509 2491 2742 2702 
Q 2975 2913 2975 3322 
Q 2975 3731 2742 3939 
Q 2509 4147 2053 4147 
L 1259 4147 
z
" transform="scale(0.015625)"/>
      </defs>
      <use xlink:href="#DejaVuSans-52"/>
      <use xlink:href="#DejaVuSans-65" x="64.982422"/>
      <use xlink:href="#DejaVuSans-61" x="126.505859"/>
      <use xlink:href="#DejaVuSans-63" x="187.785156"/>
      <use xlink:href="#DejaVuSans-68" x="242.765625"/>
      <use xlink:href="#DejaVuSans-65" x="306.144531"/>
      <use xlink:href="#DejaVuSans-64" x="367.667969"/>
      <use xlink:href="#DejaVuSans-20" x="431.144531"/>
      <use xlink:href="#DejaVuSans-72" x="462.931641"/>
      <use xlink:href="#DejaVuSans-65" x="501.794922"/>
      <use xlink:href="#DejaVuSans-67" x="563.318359"/>
      <use xlink:href="#DejaVuSans-69" x="626.794922"/>
      <use xlink:href="#DejaVuSans-6f" x="654.578125"/>
      <use xlink:href="#DejaVuSans-6e" x="715.759766"/>
      <use xlink:href="#DejaVuSans-20" x="779.138672"/>
      <use xlink:href="#DejaVuSans-63" x="810.925781"/>
      <use xlink:href="#DejaVuSans-6f" x="865.90625"/>
      <use xlink:href="#DejaVuSans-76" x="927.087891"/>
      <use xlink:href="#DejaVuSans-65" x="986.267578"/>
      <use xlink:href="#DejaVuSans-72" x="1047.791016"/>
      <use xlink:href="#DejaVuSans-61" x="1088.904297"/>
      <use xlink:href="#DejaVuSans-67" x="1150.183594"/>
      <use xlink:href="#DejaVuSans-65" x="1213.660156"/>
     </g>
    </g>
   </g>
   <g id="line2d_13">
    <path d="M 97.968125 149.416002 
L 97.968125 102.7963 
" clip-path="url(#p335f80c638)" style="fill: none; stroke: #3f3f3f; stroke-width: 1.5; stroke-linecap: square"/>
   </g>
   <g id="line2d_14">
    <path d="M 97.968125 140.356867 
L 97.968125 117.047016 
" clip-path="url(#p335f80c638)" style="fill: none; stroke: #3f3f3f; stroke-width: 4.5; stroke-linecap: square"/>
   </g>
   <g id="line2d_15">
    <path d="M 187.248125 152.203428 
L 187.248125 148.022289 
" clip-path="url(#p335f80c638)" style="fill: none; stroke: #3f3f3f; stroke-width: 1.5; stroke-linecap: square"/>
   </g>
   <g id="line2d_16">
    <path d="M 187.248125 151.332357 
L 187.248125 149.241788 
" clip-path="url(#p335f80c638)" style="fill: none; stroke: #3f3f3f; stroke-width: 4.5; stroke-linecap: square"/>
   </g>
   <g id="line2d_17">
    <path d="M 276.528125 158.962936 
L 276.528125 114.01569 
" clip-path="url(#p335f80c638)" style="fill: none; stroke: #3f3f3f; stroke-width: 1.5; stroke-linecap: square"/>
   </g>
   <g id="line2d_18">
    <path d="M 276.528125 156.384567 
L 276.528125 133.910944 
" clip-path="url(#p335f80c638)" style="fill: none; stroke: #3f3f3f; stroke-width: 4.5; stroke-linecap: square"/>
   </g>
   <g id="line2d_19">
    <path d="M 365.808125 201.610556 
L 365.808125 109.137694 
" clip-path="url(#p335f80c638)" style="fill: none; stroke: #3f3f3f; stroke-width: 1.5; stroke-linecap: square"/>
   </g>
   <g id="line2d_20">
    <path d="M 365.808125 183.109015 
L 365.808125 136.872584 
" clip-path="url(#p335f80c638)" style="fill: none; stroke: #3f3f3f; stroke-width: 4.5; stroke-linecap: square"/>
   </g>
   <g id="patch_3">
    <path d="M 53.328125 268.996583 
L 53.328125 25.096796 
" style="fill: none; stroke: #000000; stroke-width: 0.8; stroke-linejoin: miter; stroke-linecap: square"/>
   </g>
   <g id="patch_4">
    <path d="M 97.968125 288.430125 
L 365.808125 288.430125 
" style="fill: none; stroke: #000000; stroke-width: 0.8; stroke-linejoin: miter; stroke-linecap: square"/>
   </g>
   <g id="PathCollection_1">
    <defs>
     <path id="md4caf053d8" d="M 0 1.5 
C 0.397805 1.5 0.77937 1.341951 1.06066 1.06066 
C 1.341951 0.77937 1.5 0.397805 1.5 0 
C 1.5 -0.397805 1.341951 -0.77937 1.06066 -1.06066 
C 0.77937 -1.341951 0.397805 -1.5 0 -1.5 
C -0.397805 -1.5 -0.77937 -1.341951 -1.06066 -1.06066 
C -1.341951 -0.77937 -1.5 -0.397805 -1.5 0 
C -1.5 0.397805 -1.341951 0.77937 -1.06066 1.06066 
C -0.77937 1.341951 -0.397805 1.5 0 1.5 
z
" style="stroke: #3f3f3f"/>
    </defs>
    <g clip-path="url(#p335f80c638)">
     <use xlink:href="#md4caf053d8" x="97.968125" y="131.297732" style="fill: #ffffff; stroke: #3f3f3f"/>
    </g>
   </g>
   <g id="PathCollection_2">
    <g clip-path="url(#p335f80c638)">
     <use xlink:href="#md4caf053d8" x="187.248125" y="150.461286" style="fill: #ffffff; stroke: #3f3f3f"/>
    </g>
   </g>
   <g id="PathCollection_3">
    <g clip-path="url(#p335f80c638)">
     <use xlink:href="#md4caf053d8" x="276.528125" y="153.806198" style="fill: #ffffff; stroke: #3f3f3f"/>
    </g>
   </g>
   <g id="PathCollection_4">
    <g clip-path="url(#p335f80c638)">
     <use xlink:href="#md4caf053d8" x="365.808125" y="164.607474" style="fill: #ffffff; stroke: #3f3f3f"/>
    </g>
   </g>
   <g id="text_15">
    <!-- lcms-2017-03-21 (4h, 3 trials/fuzzer) -->
    <g transform="translate(121.82375 16.318125)scale(0.12 -0.12)">
     <defs>
      <path id="DejaVuSans-2d" d="M 313 2009 
L 1997 2009 
L 1997 1497 
L 313 1497 
L 313 2009 
z
" transform="scale(0.015625)"/>
      <path id="DejaVuSans-37" d="M 525 4666 
L 3525 4666 
L 3525 4397 
L 1831 0 
L 1172 0 
L 2766 4134 
L 525 4134 
L 525 4666 
z
" transform="scale(0.015625)"/>
      <path id="DejaVuSans-2c" d="M 750 794 
L 1409 794 
L 1409 256 
L 897 -744 
L 494 -744 
L 750 256 
L 750 794 
z
" transform="scale(0.015625)"/>
      <path id="DejaVuSans-2f" d="M 1625 4666 
L 2156 4666 
L 531 -594 
L 0 -594 
L 1625 4666 
z
" transform="scale(0.015625)"/>
     </defs>
     <use xlink:href="#DejaVuSans-6c"/>
     <use xlink:href="#DejaVuSans-63" x="27.783203"/>
     <use xlink:href="#DejaVuSans-6d" x="82.763672"/>
     <use xlink:href="#DejaVuSans-73" x="180.175781"/>
     <use xlink:href="#DejaVuSans-2d" x="232.275391"/>
     <use xlink:href="#DejaVuSans-32" x="268.359375"/>
     <use xlink:href="#DejaVuSans-30" x="331.982422"/>
     <use xlink:href="#DejaVuSans-31" x="395.605469"/>
     <use xlink:href="#DejaVuSans-37" x="459.228516"/>
     <use xlink:href="#DejaVuSans-2d" x="522.851562"/>
     <use xlink:href="#DejaVuSans-30" x="558.935547"/>
     <use xlink:href="#DejaVuSans-33" x="622.558594"/>
     <use xlink:href="#DejaVuSans-2d" x="686.181641"/>
     <use xlink:href="#DejaVuSans-32" x="722.265625"/>
     <use xlink:href="#DejaVuSans-31" x="785.888672"/>
     <use xlink:href="#DejaVuSans-20" x="849.511719"/>
     <use xlink:href="#DejaVuSans-28" x="881.298828"/>
     <use xlink:href="#DejaVuSans-34" x="920.3125"/>
     <use xlink:href="#DejaVuSans-68" x="983.935547"/>
     <use xlink:href="#DejaVuSans-2c" x="1047.314453"/>
     <use xlink:href="#DejaVuSans-20" x="1079.101562"/>
     <use xlink:href="#DejaVuSans-33" x="1110.888672"/>
     <use xlink:href="#DejaVuSans-20" x="1174.511719"/>
     <use xlink:href="#DejaVuSans-74" x="1206.298828"/>
     <use xlink:href="#DejaVuSans-72" x="1245.507812"/>
     <use xlink:href="#DejaVuSans-69" x="1286.621094"/>
     <use xlink:href="#DejaVuSans-61" x="1314.404297"/>
     <use xlink:href="#DejaVuSans-6c" x="1375.683594"/>
     <use xlink:href="#DejaVuSans-73" x="1403.466797"/>
     <use xlink:href="#DejaVuSans-2f" x="1455.566406"/>
     <use xlink:href="#DejaVuSans-66" x="1489.257812"/>
     <use xlink:href="#DejaVuSans-75" x="1524.462891"/>
     <use xlink:href="#DejaVuSans-7a" x="1587.841797"/>
     <use xlink:href="#DejaVuSans-7a" x="1640.332031"/>
     <use xlink:href="#DejaVuSans-65" x="1692.822266"/>
     <use xlink:href="#DejaVuSans-72" x="1754.345703"/>
     <use xlink:href="#DejaVuSans-29" x="1795.458984"/>
    </g>
   </g>
  </g>
 </g>
 <defs>
  <clipPath id="p335f80c638">
   <rect x="53.328125" y="22.318125" width="357.12" height="266.112"/>
  </clipPath>
 </defs>
</svg>
