<?xml version="1.0" encoding="utf-8" standalone="no"?>
<!DOCTYPE svg PUBLIC "-//W3C//DTD SVG 1.1//EN"
  "http://www.w3.org/Graphics/SVG/1.1/DTD/svg11.dtd">
<svg xmlns:xlink="http://www.w3.org/1999/xlink" width="417.648125pt" height="370.686865pt" viewBox="0 0 417.648125 370.686865" xmlns="http://www.w3.org/2000/svg" version="1.1">
 <metadata>
  <rdf:RDF xmlns:dc="http://purl.org/dc/elements/1.1/" xmlns:cc="http://creativecommons.org/ns#" xmlns:rdf="http://www.w3.org/1999/02/22-rdf-syntax-ns#">
   <cc:Work>
    <dc:type rdf:resource="http://purl.org/dc/dcmitype/StillImage"/>
    <dc:date>2022-04-27T20:14:21.036964</dc:date>
    <dc:format>image/svg+xml</dc:format>
    <dc:creator>
     <cc:Agent>
      <dc:title>Matplotlib v3.5.1, https://matplotlib.org/</dc:title>
     </cc:Agent>
    </dc:creator>
   </cc:Work>
  </rdf:RDF>
 </metadata>
 <defs>
  <style type="text/css">*{stroke-linejoin: round; stroke-linecap: butt}</style>
 </defs>
 <g id="figure_1">
  <g id="patch_1">
   <path d="M 0 370.686865 
L 417.648125 370.686865 
L 417.648125 0 
L 0 0 
z
" style="fill: #ffffff"/>
  </g>
  <g id="axes_1">
   <g id="patch_2">
    <path d="M 53.328125 288.430125 
L 410.448125 288.430125 
L 410.448125 22.318125 
L 53.328125 22.318125 
z
" style="fill: #ffffff"/>
   </g>
   <g id="PolyCollection_1">
    <defs>
     <path id="mbc7b56875a" d="M 99.894307 -217.792042 
L 96.041943 -217.792042 
L 95.782725 -218.988817 
L 95.498548 -220.185592 
L 95.188562 -221.382367 
L 94.852125 -222.579141 
L 94.488834 -223.775916 
L 94.098554 -224.972691 
L 93.681449 -226.169466 
L 93.238006 -227.36624 
L 92.769049 -228.563015 
L 92.275752 -229.75979 
L 91.759647 -230.956564 
L 91.222617 -232.153339 
L 90.666879 -233.350114 
L 90.09497 -234.546889 
L 89.509706 -235.743663 
L 88.914142 -236.940438 
L 88.311523 -238.137213 
L 87.705218 -239.333988 
L 87.098657 -240.530762 
L 86.495252 -241.727537 
L 85.898323 -242.924312 
L 85.311012 -244.121086 
L 84.736209 -245.317861 
L 84.176468 -246.514636 
L 83.633935 -247.711411 
L 83.110289 -248.908185 
L 82.60668 -250.10496 
L 82.12369 -251.301735 
L 81.66131 -252.49851 
L 81.218925 -253.695284 
L 80.795323 -254.892059 
L 80.388725 -256.088834 
L 79.996826 -257.285608 
L 79.616863 -258.482383 
L 79.245695 -259.679158 
L 78.879902 -260.875933 
L 78.515896 -262.072707 
L 78.150041 -263.269482 
L 77.778788 -264.466257 
L 77.398801 -265.663032 
L 77.0071 -266.859806 
L 76.60118 -268.056581 
L 76.179138 -269.253356 
L 75.739781 -270.45013 
L 75.282715 -271.646905 
L 74.80842 -272.84368 
L 74.318298 -274.040455 
L 73.8147 -275.237229 
L 73.300924 -276.434004 
L 72.781188 -277.630779 
L 72.260573 -278.827554 
L 71.744946 -280.024328 
L 71.240853 -281.221103 
L 70.755391 -282.417878 
L 70.296066 -283.614652 
L 69.87063 -284.811427 
L 69.486914 -286.008202 
L 69.152648 -287.204977 
L 68.87529 -288.401751 
L 68.661844 -289.598526 
L 68.518704 -290.795301 
L 68.451498 -291.992076 
L 68.464953 -293.18885 
L 68.562786 -294.385625 
L 68.747609 -295.5824 
L 69.020868 -296.779174 
L 69.382805 -297.975949 
L 69.832449 -299.172724 
L 70.367633 -300.369499 
L 70.985043 -301.566273 
L 71.680282 -302.763048 
L 72.447967 -303.959823 
L 73.281835 -305.156598 
L 74.174874 -306.353372 
L 75.119463 -307.550147 
L 76.107515 -308.746922 
L 77.130633 -309.943696 
L 78.180258 -311.140471 
L 79.247824 -312.337246 
L 80.324892 -313.534021 
L 81.403286 -314.730795 
L 82.475213 -315.92757 
L 83.533365 -317.124345 
L 84.571006 -318.32112 
L 85.582049 -319.517894 
L 86.5611 -320.714669 
L 87.503504 -321.911444 
L 88.405354 -323.108218 
L 89.263498 -324.304993 
L 90.075527 -325.501768 
L 90.839745 -326.698543 
L 91.555136 -327.895317 
L 92.221312 -329.092092 
L 92.838464 -330.288867 
L 93.407297 -331.485642 
L 93.928969 -332.682416 
L 94.405024 -333.879191 
L 94.837329 -335.075966 
L 95.228005 -336.27274 
L 100.708245 -336.27274 
L 100.708245 -336.27274 
L 101.098921 -335.075966 
L 101.531226 -333.879191 
L 102.007281 -332.682416 
L 102.528953 -331.485642 
L 103.097786 -330.288867 
L 103.714938 -329.092092 
L 104.381114 -327.895317 
L 105.096505 -326.698543 
L 105.860723 -325.501768 
L 106.672752 -324.304993 
L 107.530896 -323.108218 
L 108.432746 -321.911444 
L 109.37515 -320.714669 
L 110.354201 -319.517894 
L 111.365244 -318.32112 
L 112.402885 -317.124345 
L 113.461037 -315.92757 
L 114.532964 -314.730795 
L 115.611358 -313.534021 
L 116.688426 -312.337246 
L 117.755992 -311.140471 
L 118.805617 -309.943696 
L 119.828735 -308.746922 
L 120.816787 -307.550147 
L 121.761376 -306.353372 
L 122.654415 -305.156598 
L 123.488283 -303.959823 
L 124.255968 -302.763048 
L 124.951207 -301.566273 
L 125.568617 -300.369499 
L 126.103801 -299.172724 
L 126.553445 -297.975949 
L 126.915382 -296.779174 
L 127.188641 -295.5824 
L 127.373464 -294.385625 
L 127.471297 -293.18885 
L 127.484752 -291.992076 
L 127.417546 -290.795301 
L 127.274406 -289.598526 
L 127.06096 -288.401751 
L 126.783602 -287.204977 
L 126.449336 -286.008202 
L 126.06562 -284.811427 
L 125.640184 -283.614652 
L 125.180859 -282.417878 
L 124.695397 -281.221103 
L 124.191304 -280.024328 
L 123.675677 -278.827554 
L 123.155062 -277.630779 
L 122.635326 -276.434004 
L 122.12155 -275.237229 
L 121.617952 -274.040455 
L 121.12783 -272.84368 
L 120.653535 -271.646905 
L 120.196469 -270.45013 
L 119.757112 -269.253356 
L 119.33507 -268.056581 
L 118.92915 -266.859806 
L 118.537449 -265.663032 
L 118.157462 -264.466257 
L 117.786209 -263.269482 
L 117.420354 -262.072707 
L 117.056348 -260.875933 
L 116.690555 -259.679158 
L 116.319387 -258.482383 
L 115.939424 -257.285608 
L 115.547525 -256.088834 
L 115.140927 -254.892059 
L 114.717325 -253.695284 
L 114.27494 -252.49851 
L 113.81256 -251.301735 
L 113.32957 -250.10496 
L 112.825961 -248.908185 
L 112.302315 -247.711411 
L 111.759782 -246.514636 
L 111.200041 -245.317861 
L 110.625238 -244.121086 
L 110.037927 -242.924312 
L 109.440998 -241.727537 
L 108.837593 -240.530762 
L 108.231032 -239.333988 
L 107.624727 -238.137213 
L 107.022108 -236.940438 
L 106.426544 -235.743663 
L 105.84128 -234.546889 
L 105.269371 -233.350114 
L 104.713633 -232.153339 
L 104.176603 -230.956564 
L 103.660498 -229.75979 
L 103.167201 -228.563015 
L 102.698244 -227.36624 
L 102.254801 -226.169466 
L 101.837696 -224.972691 
L 101.447416 -223.775916 
L 101.084125 -222.579141 
L 100.747688 -221.382367 
L 100.437702 -220.185592 
L 100.153525 -218.988817 
L 99.894307 -217.792042 
z
" style="stroke: #3f3f3f; stroke-width: 1.5"/>
    </defs>
    <g clip-path="url(#p79b61bbba5)">
     <use xlink:href="#mbc7b56875a" x="0" y="370.686865" style="fill: #9fd495; stroke: #3f3f3f; stroke-width: 1.5"/>
    </g>
   </g>
   <g id="PolyCollection_2">
    <defs>
     <path id="mcd2d7160ad" d="M 188.77365 -118.46701 
L 185.7226 -118.46701 
L 185.519931 -119.959466 
L 185.298016 -121.451922 
L 185.056218 -122.944378 
L 184.794059 -124.436834 
L 184.511242 -125.92929 
L 184.207679 -127.421746 
L 183.883509 -128.914202 
L 183.539114 -130.406658 
L 183.175137 -131.899114 
L 182.792491 -133.391571 
L 182.39236 -134.884027 
L 181.976198 -136.376483 
L 181.545719 -137.868939 
L 181.102881 -139.361395 
L 180.649863 -140.853851 
L 180.189031 -142.346307 
L 179.7229 -143.838763 
L 179.25409 -145.331219 
L 178.785272 -146.823675 
L 178.319114 -148.316131 
L 177.858219 -149.808587 
L 177.405064 -151.301043 
L 176.961935 -152.793499 
L 176.530869 -154.285955 
L 176.113593 -155.778411 
L 175.711472 -157.270867 
L 175.325465 -158.763324 
L 174.956086 -160.25578 
L 174.603381 -161.748236 
L 174.266914 -163.240692 
L 173.945767 -164.733148 
L 173.638555 -166.225604 
L 173.343455 -167.71806 
L 173.058251 -169.210516 
L 172.780392 -170.702972 
L 172.507064 -172.195428 
L 172.235273 -173.687884 
L 171.961935 -175.18034 
L 171.683983 -176.672796 
L 171.398465 -178.165252 
L 171.102658 -179.657708 
L 170.794168 -181.150164 
L 170.471036 -182.64262 
L 170.131827 -184.135077 
L 169.77572 -185.627533 
L 169.402572 -187.119989 
L 169.01297 -188.612445 
L 168.608273 -190.104901 
L 168.19062 -191.597357 
L 167.762926 -193.089813 
L 167.328856 -194.582269 
L 166.892773 -196.074725 
L 166.459673 -197.567181 
L 166.035091 -199.059637 
L 165.624998 -200.552093 
L 165.235681 -202.044549 
L 164.873611 -203.537005 
L 164.545304 -205.029461 
L 164.257176 -206.521917 
L 164.015402 -208.014373 
L 163.825772 -209.50683 
L 163.693561 -210.999286 
L 163.623406 -212.491742 
L 163.619196 -213.984198 
L 163.683985 -215.476654 
L 163.819917 -216.96911 
L 164.028177 -218.461566 
L 164.308963 -219.954022 
L 164.661478 -221.446478 
L 165.08395 -222.938934 
L 165.573666 -224.43139 
L 166.127033 -225.923846 
L 166.73965 -227.416302 
L 167.406405 -228.908758 
L 168.121576 -230.401214 
L 168.878944 -231.89367 
L 169.671917 -233.386126 
L 170.493652 -234.878583 
L 171.337178 -236.371039 
L 172.195519 -237.863495 
L 173.061809 -239.355951 
L 173.929399 -240.848407 
L 174.791952 -242.340863 
L 175.643531 -243.833319 
L 176.478666 -245.325775 
L 177.292416 -246.818231 
L 178.080407 -248.310687 
L 178.838866 -249.803143 
L 179.564629 -251.295599 
L 180.255147 -252.788055 
L 180.908473 -254.280511 
L 181.52324 -255.772967 
L 182.098631 -257.265423 
L 182.634341 -258.75788 
L 183.130529 -260.250336 
L 183.587775 -261.742792 
L 184.00702 -263.235248 
L 184.389519 -264.727704 
L 184.736786 -266.22016 
L 189.759464 -266.22016 
L 189.759464 -266.22016 
L 190.106731 -264.727704 
L 190.48923 -263.235248 
L 190.908475 -261.742792 
L 191.365721 -260.250336 
L 191.861909 -258.75788 
L 192.397619 -257.265423 
L 192.97301 -255.772967 
L 193.587777 -254.280511 
L 194.241103 -252.788055 
L 194.931621 -251.295599 
L 195.657384 -249.803143 
L 196.415843 -248.310687 
L 197.203834 -246.818231 
L 198.017584 -245.325775 
L 198.852719 -243.833319 
L 199.704298 -242.340863 
L 200.566851 -240.848407 
L 201.434441 -239.355951 
L 202.300731 -237.863495 
L 203.159072 -236.371039 
L 204.002598 -234.878583 
L 204.824333 -233.386126 
L 205.617306 -231.89367 
L 206.374674 -230.401214 
L 207.089845 -228.908758 
L 207.7566 -227.416302 
L 208.369217 -225.923846 
L 208.922584 -224.43139 
L 209.4123 -222.938934 
L 209.834772 -221.446478 
L 210.187287 -219.954022 
L 210.468073 -218.461566 
L 210.676333 -216.96911 
L 210.812265 -215.476654 
L 210.877054 -213.984198 
L 210.872844 -212.491742 
L 210.802689 -210.999286 
L 210.670478 -209.50683 
L 210.480848 -208.014373 
L 210.239074 -206.521917 
L 209.950946 -205.029461 
L 209.622639 -203.537005 
L 209.260569 -202.044549 
L 208.871252 -200.552093 
L 208.461159 -199.059637 
L 208.036577 -197.567181 
L 207.603477 -196.074725 
L 207.167394 -194.582269 
L 206.733324 -193.089813 
L 206.30563 -191.597357 
L 205.887977 -190.104901 
L 205.48328 -188.612445 
L 205.093678 -187.119989 
L 204.72053 -185.627533 
L 204.364423 -184.135077 
L 204.025214 -182.64262 
L 203.702082 -181.150164 
L 203.393592 -179.657708 
L 203.097785 -178.165252 
L 202.812267 -176.672796 
L 202.534315 -175.18034 
L 202.260977 -173.687884 
L 201.989186 -172.195428 
L 201.715858 -170.702972 
L 201.437999 -169.210516 
L 201.152795 -167.71806 
L 200.857695 -166.225604 
L 200.550483 -164.733148 
L 200.229336 -163.240692 
L 199.892869 -161.748236 
L 199.540164 -160.25578 
L 199.170785 -158.763324 
L 198.784778 -157.270867 
L 198.382657 -155.778411 
L 197.965381 -154.285955 
L 197.534315 -152.793499 
L 197.091186 -151.301043 
L 196.638031 -149.808587 
L 196.177136 -148.316131 
L 195.710978 -146.823675 
L 195.24216 -145.331219 
L 194.77335 -143.838763 
L 194.307219 -142.346307 
L 193.846387 -140.853851 
L 193.393369 -139.361395 
L 192.950531 -137.868939 
L 192.520052 -136.376483 
L 192.10389 -134.884027 
L 191.703759 -133.391571 
L 191.321113 -131.899114 
L 190.957136 -130.406658 
L 190.612741 -128.914202 
L 190.288571 -127.421746 
L 189.985008 -125.92929 
L 189.702191 -124.436834 
L 189.440032 -122.944378 
L 189.198234 -121.451922 
L 188.976319 -119.959466 
L 188.77365 -118.46701 
z
" style="stroke: #3f3f3f; stroke-width: 1.5"/>
    </defs>
    <g clip-path="url(#p79b61bbba5)">
     <use xlink:href="#mcd2d7160ad" x="0" y="370.686865" style="fill: #3274a1; stroke: #3f3f3f; stroke-width: 1.5"/>
    </g>
   </g>
   <g id="PolyCollection_3">
    <defs>
     <path id="m38588f3eed" d="M 279.291945 -140.896151 
L 273.764305 -140.896151 
L 273.365279 -141.86217 
L 272.922786 -142.828188 
L 272.434387 -143.794207 
L 271.897854 -144.760225 
L 271.311237 -145.726244 
L 270.672918 -146.692262 
L 269.981681 -147.658281 
L 269.236766 -148.624299 
L 268.437933 -149.590317 
L 267.585516 -150.556336 
L 266.68047 -151.522354 
L 265.724416 -152.488373 
L 264.719667 -153.454391 
L 263.669255 -154.42041 
L 262.576938 -155.386428 
L 261.447194 -156.352447 
L 260.285204 -157.318465 
L 259.096819 -158.284483 
L 257.88851 -159.250502 
L 256.667303 -160.21652 
L 255.440704 -161.182539 
L 254.216602 -162.148557 
L 253.003171 -163.114576 
L 251.80875 -164.080594 
L 250.641723 -165.046613 
L 249.510389 -166.012631 
L 248.422831 -166.978649 
L 247.38678 -167.944668 
L 246.409491 -168.910686 
L 245.497616 -169.876705 
L 244.657089 -170.842723 
L 243.893027 -171.808742 
L 243.209638 -172.77476 
L 242.610155 -173.740779 
L 242.096782 -174.706797 
L 241.670667 -175.672816 
L 241.331892 -176.638834 
L 241.079492 -177.604852 
L 240.911491 -178.570871 
L 240.824966 -179.536889 
L 240.816125 -180.502908 
L 240.880412 -181.468926 
L 241.012624 -182.434945 
L 241.207043 -183.400963 
L 241.45758 -184.366982 
L 241.757919 -185.333 
L 242.101678 -186.299018 
L 242.48255 -187.265037 
L 242.894454 -188.231055 
L 243.331667 -189.197074 
L 243.788945 -190.163092 
L 244.261631 -191.129111 
L 244.745735 -192.095129 
L 245.238001 -193.061148 
L 245.735942 -194.027166 
L 246.237857 -194.993184 
L 246.742817 -195.959203 
L 247.250636 -196.925221 
L 247.761808 -197.89124 
L 248.277435 -198.857258 
L 248.799127 -199.823277 
L 249.3289 -200.789295 
L 249.869049 -201.755314 
L 250.422033 -202.721332 
L 250.990338 -203.687351 
L 251.576362 -204.653369 
L 252.182292 -205.619387 
L 252.809996 -206.585406 
L 253.460931 -207.551424 
L 254.136067 -208.517443 
L 254.835821 -209.483461 
L 255.560022 -210.44948 
L 256.307891 -211.415498 
L 257.078037 -212.381517 
L 257.868483 -213.347535 
L 258.676698 -214.313553 
L 259.499657 -215.279572 
L 260.333905 -216.24559 
L 261.175635 -217.211609 
L 262.020777 -218.177627 
L 262.865092 -219.143646 
L 263.704259 -220.109664 
L 264.533972 -221.075683 
L 265.350027 -222.041701 
L 266.148405 -223.007719 
L 266.925342 -223.973738 
L 267.677398 -224.939756 
L 268.401503 -225.905775 
L 269.095002 -226.871793 
L 269.755681 -227.837812 
L 270.381781 -228.80383 
L 270.972006 -229.769849 
L 271.525514 -230.735867 
L 272.041899 -231.701886 
L 272.52117 -232.667904 
L 272.963717 -233.633922 
L 273.370273 -234.599941 
L 273.741875 -235.565959 
L 274.079819 -236.531978 
L 278.976431 -236.531978 
L 278.976431 -236.531978 
L 279.314375 -235.565959 
L 279.685977 -234.599941 
L 280.092533 -233.633922 
L 280.53508 -232.667904 
L 281.014351 -231.701886 
L 281.530736 -230.735867 
L 282.084244 -229.769849 
L 282.674469 -228.80383 
L 283.300569 -227.837812 
L 283.961248 -226.871793 
L 284.654747 -225.905775 
L 285.378852 -224.939756 
L 286.130908 -223.973738 
L 286.907845 -223.007719 
L 287.706223 -222.041701 
L 288.522278 -221.075683 
L 289.351991 -220.109664 
L 290.191158 -219.143646 
L 291.035473 -218.177627 
L 291.880615 -217.211609 
L 292.722345 -216.24559 
L 293.556593 -215.279572 
L 294.379552 -214.313553 
L 295.187767 -213.347535 
L 295.978213 -212.381517 
L 296.748359 -211.415498 
L 297.496228 -210.44948 
L 298.220429 -209.483461 
L 298.920183 -208.517443 
L 299.595319 -207.551424 
L 300.246254 -206.585406 
L 300.873958 -205.619387 
L 301.479888 -204.653369 
L 302.065912 -203.687351 
L 302.634217 -202.721332 
L 303.187201 -201.755314 
L 303.72735 -200.789295 
L 304.257123 -199.823277 
L 304.778815 -198.857258 
L 305.294442 -197.89124 
L 305.805614 -196.925221 
L 306.313433 -195.959203 
L 306.818393 -194.993184 
L 307.320308 -194.027166 
L 307.818249 -193.061148 
L 308.310515 -192.095129 
L 308.794619 -191.129111 
L 309.267305 -190.163092 
L 309.724583 -189.197074 
L 310.161796 -188.231055 
L 310.5737 -187.265037 
L 310.954572 -186.299018 
L 311.298331 -185.333 
L 311.59867 -184.366982 
L 311.849207 -183.400963 
L 312.043626 -182.434945 
L 312.175838 -181.468926 
L 312.240125 -180.502908 
L 312.231284 -179.536889 
L 312.144759 -178.570871 
L 311.976758 -177.604852 
L 311.724358 -176.638834 
L 311.385583 -175.672816 
L 310.959468 -174.706797 
L 310.446095 -173.740779 
L 309.846612 -172.77476 
L 309.163223 -171.808742 
L 308.399161 -170.842723 
L 307.558634 -169.876705 
L 306.646759 -168.910686 
L 305.66947 -167.944668 
L 304.633419 -166.978649 
L 303.545861 -166.012631 
L 302.414527 -165.046613 
L 301.2475 -164.080594 
L 300.053079 -163.114576 
L 298.839648 -162.148557 
L 297.615546 -161.182539 
L 296.388947 -160.21652 
L 295.16774 -159.250502 
L 293.959431 -158.284483 
L 292.771046 -157.318465 
L 291.609056 -156.352447 
L 290.479312 -155.386428 
L 289.386995 -154.42041 
L 288.336583 -153.454391 
L 287.331834 -152.488373 
L 286.37578 -151.522354 
L 285.470734 -150.556336 
L 284.618317 -149.590317 
L 283.819484 -148.624299 
L 283.074569 -147.658281 
L 282.383332 -146.692262 
L 281.745013 -145.726244 
L 281.158396 -144.760225 
L 280.621863 -143.794207 
L 280.133464 -142.828188 
L 279.690971 -141.86217 
L 279.291945 -140.896151 
z
" style="stroke: #3f3f3f; stroke-width: 1.5"/>
    </defs>
    <g clip-path="url(#p79b61bbba5)">
     <use xlink:href="#m38588f3eed" x="0" y="370.686865" style="fill: #c03d3e; stroke: #3f3f3f; stroke-width: 1.5"/>
    </g>
   </g>
   <g id="PolyCollection_4">
    <defs>
     <path id="m7d2527241b" d="M 367.48242 -94.35274 
L 364.13383 -94.35274 
L 363.891864 -95.965735 
L 363.623492 -97.57873 
L 363.327225 -99.191725 
L 363.001705 -100.80472 
L 362.645741 -102.417714 
L 362.258345 -104.030709 
L 361.838775 -105.643704 
L 361.38657 -107.256699 
L 360.901586 -108.869694 
L 360.384033 -110.482689 
L 359.834503 -112.095683 
L 359.253997 -113.708678 
L 358.643944 -115.321673 
L 358.006216 -116.934668 
L 357.343134 -118.547663 
L 356.657464 -120.160657 
L 355.952408 -121.773652 
L 355.231581 -123.386647 
L 354.498984 -124.999642 
L 353.75896 -126.612637 
L 353.016149 -128.225631 
L 352.275431 -129.838626 
L 351.541858 -131.451621 
L 350.820582 -133.064616 
L 350.116782 -134.677611 
L 349.43558 -136.290605 
L 348.781959 -137.9036 
L 348.160678 -139.516595 
L 347.576194 -141.12959 
L 347.032581 -142.742585 
L 346.533461 -144.355579 
L 346.081937 -145.968574 
L 345.680541 -147.581569 
L 345.331189 -149.194564 
L 345.035149 -150.807559 
L 344.793024 -152.420554 
L 344.604748 -154.033548 
L 344.469599 -155.646543 
L 344.386222 -157.259538 
L 344.35267 -158.872533 
L 344.366455 -160.485528 
L 344.424619 -162.098522 
L 344.523803 -163.711517 
L 344.660334 -165.324512 
L 344.830316 -166.937507 
L 345.029725 -168.550502 
L 345.254505 -170.163496 
L 345.50066 -171.776491 
L 345.76435 -173.389486 
L 346.041969 -175.002481 
L 346.330228 -176.615476 
L 346.626214 -178.22847 
L 346.927444 -179.841465 
L 347.231905 -181.45446 
L 347.538075 -183.067455 
L 347.844928 -184.68045 
L 348.151933 -186.293445 
L 348.459024 -187.906439 
L 348.766569 -189.519434 
L 349.075315 -191.132429 
L 349.386334 -192.745424 
L 349.700948 -194.358419 
L 350.020662 -195.971413 
L 350.347079 -197.584408 
L 350.681825 -199.197403 
L 351.026471 -200.810398 
L 351.382458 -202.423393 
L 351.751033 -204.036387 
L 352.133189 -205.649382 
L 352.529619 -207.262377 
L 352.940675 -208.875372 
L 353.366348 -210.488367 
L 353.806251 -212.101361 
L 354.259624 -213.714356 
L 354.725344 -215.327351 
L 355.201945 -216.940346 
L 355.687658 -218.553341 
L 356.180445 -220.166335 
L 356.678052 -221.77933 
L 357.178058 -223.392325 
L 357.677937 -225.00532 
L 358.175104 -226.618315 
L 358.666983 -228.23131 
L 359.151053 -229.844304 
L 359.624898 -231.457299 
L 360.086257 -233.070294 
L 360.533054 -234.683289 
L 360.96344 -236.296284 
L 361.375807 -237.909278 
L 361.768814 -239.522273 
L 362.141391 -241.135268 
L 362.492742 -242.748263 
L 362.822346 -244.361258 
L 363.129942 -245.974252 
L 363.415518 -247.587247 
L 363.679288 -249.200242 
L 363.921676 -250.813237 
L 364.143287 -252.426232 
L 364.344879 -254.039226 
L 367.271371 -254.039226 
L 367.271371 -254.039226 
L 367.472963 -252.426232 
L 367.694574 -250.813237 
L 367.936962 -249.200242 
L 368.200732 -247.587247 
L 368.486308 -245.974252 
L 368.793904 -244.361258 
L 369.123508 -242.748263 
L 369.474859 -241.135268 
L 369.847436 -239.522273 
L 370.240443 -237.909278 
L 370.65281 -236.296284 
L 371.083196 -234.683289 
L 371.529993 -233.070294 
L 371.991352 -231.457299 
L 372.465197 -229.844304 
L 372.949267 -228.23131 
L 373.441146 -226.618315 
L 373.938313 -225.00532 
L 374.438192 -223.392325 
L 374.938198 -221.77933 
L 375.435805 -220.166335 
L 375.928592 -218.553341 
L 376.414305 -216.940346 
L 376.890906 -215.327351 
L 377.356626 -213.714356 
L 377.809999 -212.101361 
L 378.249902 -210.488367 
L 378.675575 -208.875372 
L 379.086631 -207.262377 
L 379.483061 -205.649382 
L 379.865217 -204.036387 
L 380.233792 -202.423393 
L 380.589779 -200.810398 
L 380.934425 -199.197403 
L 381.269171 -197.584408 
L 381.595588 -195.971413 
L 381.915302 -194.358419 
L 382.229916 -192.745424 
L 382.540935 -191.132429 
L 382.849681 -189.519434 
L 383.157226 -187.906439 
L 383.464317 -186.293445 
L 383.771322 -184.68045 
L 384.078175 -183.067455 
L 384.384345 -181.45446 
L 384.688806 -179.841465 
L 384.990036 -178.22847 
L 385.286022 -176.615476 
L 385.574281 -175.002481 
L 385.8519 -173.389486 
L 386.11559 -171.776491 
L 386.361745 -170.163496 
L 386.586525 -168.550502 
L 386.785934 -166.937507 
L 386.955916 -165.324512 
L 387.092447 -163.711517 
L 387.191631 -162.098522 
L 387.249795 -160.485528 
L 387.26358 -158.872533 
L 387.230028 -157.259538 
L 387.146651 -155.646543 
L 387.011502 -154.033548 
L 386.823226 -152.420554 
L 386.581101 -150.807559 
L 386.285061 -149.194564 
L 385.935709 -147.581569 
L 385.534313 -145.968574 
L 385.082789 -144.355579 
L 384.583669 -142.742585 
L 384.040056 -141.12959 
L 383.455572 -139.516595 
L 382.834291 -137.9036 
L 382.18067 -136.290605 
L 381.499468 -134.677611 
L 380.795668 -133.064616 
L 380.074392 -131.451621 
L 379.340819 -129.838626 
L 378.600101 -128.225631 
L 377.85729 -126.612637 
L 377.117266 -124.999642 
L 376.384669 -123.386647 
L 375.663842 -121.773652 
L 374.958786 -120.160657 
L 374.273116 -118.547663 
L 373.610034 -116.934668 
L 372.972306 -115.321673 
L 372.362253 -113.708678 
L 371.781747 -112.095683 
L 371.232217 -110.482689 
L 370.714664 -108.869694 
L 370.22968 -107.256699 
L 369.777475 -105.643704 
L 369.357905 -104.030709 
L 368.970509 -102.417714 
L 368.614545 -100.80472 
L 368.289025 -99.191725 
L 367.992758 -97.57873 
L 367.724386 -95.965735 
L 367.48242 -94.35274 
z
" style="stroke: #3f3f3f; stroke-width: 1.5"/>
    </defs>
    <g clip-path="url(#p79b61bbba5)">
     <use xlink:href="#m7d2527241b" x="0" y="370.686865" style="fill: #c7c7c7; stroke: #3f3f3f; stroke-width: 1.5"/>
    </g>
   </g>
   <g id="matplotlib.axis_1">
    <g id="xtick_1">
     <g id="line2d_1">
      <defs>
       <path id="m8eab2c9bce" d="M 0 0 
L 0 3.5 
" style="stroke: #000000; stroke-width: 0.8"/>
      </defs>
      <g>
       <use xlink:href="#m8eab2c9bce" x="97.968125" y="288.430125" style="stroke: #000000; stroke-width: 0.8"/>
      </g>
     </g>
     <g id="text_1">
      <!-- aflplusplus_ast_o1 -->
      <g transform="translate(17.537069 347.766815)rotate(-30)scale(0.1 -0.1)">
       <defs>
        <path id="DejaVuSans-61" d="M 2194 1759 
Q 1497 1759 1228 1600 
Q 959 1441 959 1056 
Q 959 750 1161 570 
Q 1363 391 1709 391 
Q 2188 391 2477 730 
Q 2766 1069 2766 1631 
L 2766 1759 
L 2194 1759 
z
M 3341 1997 
L 3341 0 
L 2766 0 
L 2766 531 
Q 2569 213 2275 61 
Q 1981 -91 1556 -91 
Q 1019 -91 701 211 
Q 384 513 384 1019 
Q 384 1609 779 1909 
Q 1175 2209 1959 2209 
L 2766 2209 
L 2766 2266 
Q 2766 2663 2505 2880 
Q 2244 3097 1772 3097 
Q 1472 3097 1187 3025 
Q 903 2953 641 2809 
L 641 3341 
Q 956 3463 1253 3523 
Q 1550 3584 1831 3584 
Q 2591 3584 2966 3190 
Q 3341 2797 3341 1997 
z
" transform="scale(0.015625)"/>
        <path id="DejaVuSans-66" d="M 2375 4863 
L 2375 4384 
L 1825 4384 
Q 1516 4384 1395 4259 
Q 1275 4134 1275 3809 
L 1275 3500 
L 2222 3500 
L 2222 3053 
L 1275 3053 
L 1275 0 
L 697 0 
L 697 3053 
L 147 3053 
L 147 3500 
L 697 3500 
L 697 3744 
Q 697 4328 969 4595 
Q 1241 4863 1831 4863 
L 2375 4863 
z
" transform="scale(0.015625)"/>
        <path id="DejaVuSans-6c" d="M 603 4863 
L 1178 4863 
L 1178 0 
L 603 0 
L 603 4863 
z
" transform="scale(0.015625)"/>
        <path id="DejaVuSans-70" d="M 1159 525 
L 1159 -1331 
L 581 -1331 
L 581 3500 
L 1159 3500 
L 1159 2969 
Q 1341 3281 1617 3432 
Q 1894 3584 2278 3584 
Q 2916 3584 3314 3078 
Q 3713 2572 3713 1747 
Q 3713 922 3314 415 
Q 2916 -91 2278 -91 
Q 1894 -91 1617 61 
Q 1341 213 1159 525 
z
M 3116 1747 
Q 3116 2381 2855 2742 
Q 2594 3103 2138 3103 
Q 1681 3103 1420 2742 
Q 1159 2381 1159 1747 
Q 1159 1113 1420 752 
Q 1681 391 2138 391 
Q 2594 391 2855 752 
Q 3116 1113 3116 1747 
z
" transform="scale(0.015625)"/>
        <path id="DejaVuSans-75" d="M 544 1381 
L 544 3500 
L 1119 3500 
L 1119 1403 
Q 1119 906 1312 657 
Q 1506 409 1894 409 
Q 2359 409 2629 706 
Q 2900 1003 2900 1516 
L 2900 3500 
L 3475 3500 
L 3475 0 
L 2900 0 
L 2900 538 
Q 2691 219 2414 64 
Q 2138 -91 1772 -91 
Q 1169 -91 856 284 
Q 544 659 544 1381 
z
M 1991 3584 
L 1991 3584 
z
" transform="scale(0.015625)"/>
        <path id="DejaVuSans-73" d="M 2834 3397 
L 2834 2853 
Q 2591 2978 2328 3040 
Q 2066 3103 1784 3103 
Q 1356 3103 1142 2972 
Q 928 2841 928 2578 
Q 928 2378 1081 2264 
Q 1234 2150 1697 2047 
L 1894 2003 
Q 2506 1872 2764 1633 
Q 3022 1394 3022 966 
Q 3022 478 2636 193 
Q 2250 -91 1575 -91 
Q 1294 -91 989 -36 
Q 684 19 347 128 
L 347 722 
Q 666 556 975 473 
Q 1284 391 1588 391 
Q 1994 391 2212 530 
Q 2431 669 2431 922 
Q 2431 1156 2273 1281 
Q 2116 1406 1581 1522 
L 1381 1569 
Q 847 1681 609 1914 
Q 372 2147 372 2553 
Q 372 3047 722 3315 
Q 1072 3584 1716 3584 
Q 2034 3584 2315 3537 
Q 2597 3491 2834 3397 
z
" transform="scale(0.015625)"/>
        <path id="DejaVuSans-5f" d="M 3263 -1063 
L 3263 -1509 
L -63 -1509 
L -63 -1063 
L 3263 -1063 
z
" transform="scale(0.015625)"/>
        <path id="DejaVuSans-74" d="M 1172 4494 
L 1172 3500 
L 2356 3500 
L 2356 3053 
L 1172 3053 
L 1172 1153 
Q 1172 725 1289 603 
Q 1406 481 1766 481 
L 2356 481 
L 2356 0 
L 1766 0 
Q 1100 0 847 248 
Q 594 497 594 1153 
L 594 3053 
L 172 3053 
L 172 3500 
L 594 3500 
L 594 4494 
L 1172 4494 
z
" transform="scale(0.015625)"/>
        <path id="DejaVuSans-6f" d="M 1959 3097 
Q 1497 3097 1228 2736 
Q 959 2375 959 1747 
Q 959 1119 1226 758 
Q 1494 397 1959 397 
Q 2419 397 2687 759 
Q 2956 1122 2956 1747 
Q 2956 2369 2687 2733 
Q 2419 3097 1959 3097 
z
M 1959 3584 
Q 2709 3584 3137 3096 
Q 3566 2609 3566 1747 
Q 3566 888 3137 398 
Q 2709 -91 1959 -91 
Q 1206 -91 779 398 
Q 353 888 353 1747 
Q 353 2609 779 3096 
Q 1206 3584 1959 3584 
z
" transform="scale(0.015625)"/>
        <path id="DejaVuSans-31" d="M 794 531 
L 1825 531 
L 1825 4091 
L 703 3866 
L 703 4441 
L 1819 4666 
L 2450 4666 
L 2450 531 
L 3481 531 
L 3481 0 
L 794 0 
L 794 531 
z
" transform="scale(0.015625)"/>
       </defs>
       <use xlink:href="#DejaVuSans-61"/>
       <use xlink:href="#DejaVuSans-66" x="61.279297"/>
       <use xlink:href="#DejaVuSans-6c" x="96.484375"/>
       <use xlink:href="#DejaVuSans-70" x="124.267578"/>
       <use xlink:href="#DejaVuSans-6c" x="187.744141"/>
       <use xlink:href="#DejaVuSans-75" x="215.527344"/>
       <use xlink:href="#DejaVuSans-73" x="278.90625"/>
       <use xlink:href="#DejaVuSans-70" x="331.005859"/>
       <use xlink:href="#DejaVuSans-6c" x="394.482422"/>
       <use xlink:href="#DejaVuSans-75" x="422.265625"/>
       <use xlink:href="#DejaVuSans-73" x="485.644531"/>
       <use xlink:href="#DejaVuSans-5f" x="537.744141"/>
       <use xlink:href="#DejaVuSans-61" x="587.744141"/>
       <use xlink:href="#DejaVuSans-73" x="649.023438"/>
       <use xlink:href="#DejaVuSans-74" x="701.123047"/>
       <use xlink:href="#DejaVuSans-5f" x="740.332031"/>
       <use xlink:href="#DejaVuSans-6f" x="790.332031"/>
       <use xlink:href="#DejaVuSans-31" x="851.513672"/>
      </g>
     </g>
    </g>
    <g id="xtick_2">
     <g id="line2d_2">
      <g>
       <use xlink:href="#m8eab2c9bce" x="187.248125" y="288.430125" style="stroke: #000000; stroke-width: 0.8"/>
      </g>
     </g>
     <g id="text_2">
      <!-- aflplusplus_ast_o0 -->
      <g transform="translate(106.817069 347.766815)rotate(-30)scale(0.1 -0.1)">
       <defs>
        <path id="DejaVuSans-30" d="M 2034 4250 
Q 1547 4250 1301 3770 
Q 1056 3291 1056 2328 
Q 1056 1369 1301 889 
Q 1547 409 2034 409 
Q 2525 409 2770 889 
Q 3016 1369 3016 2328 
Q 3016 3291 2770 3770 
Q 2525 4250 2034 4250 
z
M 2034 4750 
Q 2819 4750 3233 4129 
Q 3647 3509 3647 2328 
Q 3647 1150 3233 529 
Q 2819 -91 2034 -91 
Q 1250 -91 836 529 
Q 422 1150 422 2328 
Q 422 3509 836 4129 
Q 1250 4750 2034 4750 
z
" transform="scale(0.015625)"/>
       </defs>
       <use xlink:href="#DejaVuSans-61"/>
       <use xlink:href="#DejaVuSans-66" x="61.279297"/>
       <use xlink:href="#DejaVuSans-6c" x="96.484375"/>
       <use xlink:href="#DejaVuSans-70" x="124.267578"/>
       <use xlink:href="#DejaVuSans-6c" x="187.744141"/>
       <use xlink:href="#DejaVuSans-75" x="215.527344"/>
       <use xlink:href="#DejaVuSans-73" x="278.90625"/>
       <use xlink:href="#DejaVuSans-70" x="331.005859"/>
       <use xlink:href="#DejaVuSans-6c" x="394.482422"/>
       <use xlink:href="#DejaVuSans-75" x="422.265625"/>
       <use xlink:href="#DejaVuSans-73" x="485.644531"/>
       <use xlink:href="#DejaVuSans-5f" x="537.744141"/>
       <use xlink:href="#DejaVuSans-61" x="587.744141"/>
       <use xlink:href="#DejaVuSans-73" x="649.023438"/>
       <use xlink:href="#DejaVuSans-74" x="701.123047"/>
       <use xlink:href="#DejaVuSans-5f" x="740.332031"/>
       <use xlink:href="#DejaVuSans-6f" x="790.332031"/>
       <use xlink:href="#DejaVuSans-30" x="851.513672"/>
      </g>
     </g>
    </g>
    <g id="xtick_3">
     <g id="line2d_3">
      <g>
       <use xlink:href="#m8eab2c9bce" x="276.528125" y="288.430125" style="stroke: #000000; stroke-width: 0.8"/>
      </g>
     </g>
     <g id="text_3">
      <!-- aflplusplus_ast_o2 -->
      <g transform="translate(196.097069 347.766815)rotate(-30)scale(0.1 -0.1)">
       <defs>
        <path id="DejaVuSans-32" d="M 1228 531 
L 3431 531 
L 3431 0 
L 469 0 
L 469 531 
Q 828 903 1448 1529 
Q 2069 2156 2228 2338 
Q 2531 2678 2651 2914 
Q 2772 3150 2772 3378 
Q 2772 3750 2511 3984 
Q 2250 4219 1831 4219 
Q 1534 4219 1204 4116 
Q 875 4013 500 3803 
L 500 4441 
Q 881 4594 1212 4672 
Q 1544 4750 1819 4750 
Q 2544 4750 2975 4387 
Q 3406 4025 3406 3419 
Q 3406 3131 3298 2873 
Q 3191 2616 2906 2266 
Q 2828 2175 2409 1742 
Q 1991 1309 1228 531 
z
" transform="scale(0.015625)"/>
       </defs>
       <use xlink:href="#DejaVuSans-61"/>
       <use xlink:href="#DejaVuSans-66" x="61.279297"/>
       <use xlink:href="#DejaVuSans-6c" x="96.484375"/>
       <use xlink:href="#DejaVuSans-70" x="124.267578"/>
       <use xlink:href="#DejaVuSans-6c" x="187.744141"/>
       <use xlink:href="#DejaVuSans-75" x="215.527344"/>
       <use xlink:href="#DejaVuSans-73" x="278.90625"/>
       <use xlink:href="#DejaVuSans-70" x="331.005859"/>
       <use xlink:href="#DejaVuSans-6c" x="394.482422"/>
       <use xlink:href="#DejaVuSans-75" x="422.265625"/>
       <use xlink:href="#DejaVuSans-73" x="485.644531"/>
       <use xlink:href="#DejaVuSans-5f" x="537.744141"/>
       <use xlink:href="#DejaVuSans-61" x="587.744141"/>
       <use xlink:href="#DejaVuSans-73" x="649.023438"/>
       <use xlink:href="#DejaVuSans-74" x="701.123047"/>
       <use xlink:href="#DejaVuSans-5f" x="740.332031"/>
       <use xlink:href="#DejaVuSans-6f" x="790.332031"/>
       <use xlink:href="#DejaVuSans-32" x="851.513672"/>
      </g>
     </g>
    </g>
    <g id="xtick_4">
     <g id="line2d_4">
      <g>
       <use xlink:href="#m8eab2c9bce" x="365.808125" y="288.430125" style="stroke: #000000; stroke-width: 0.8"/>
      </g>
     </g>
     <g id="text_4">
      <!-- aflplusplus_ast_o3 -->
      <g transform="translate(285.377069 347.766815)rotate(-30)scale(0.1 -0.1)">
       <defs>
        <path id="DejaVuSans-33" d="M 2597 2516 
Q 3050 2419 3304 2112 
Q 3559 1806 3559 1356 
Q 3559 666 3084 287 
Q 2609 -91 1734 -91 
Q 1441 -91 1130 -33 
Q 819 25 488 141 
L 488 750 
Q 750 597 1062 519 
Q 1375 441 1716 441 
Q 2309 441 2620 675 
Q 2931 909 2931 1356 
Q 2931 1769 2642 2001 
Q 2353 2234 1838 2234 
L 1294 2234 
L 1294 2753 
L 1863 2753 
Q 2328 2753 2575 2939 
Q 2822 3125 2822 3475 
Q 2822 3834 2567 4026 
Q 2313 4219 1838 4219 
Q 1578 4219 1281 4162 
Q 984 4106 628 3988 
L 628 4550 
Q 988 4650 1302 4700 
Q 1616 4750 1894 4750 
Q 2613 4750 3031 4423 
Q 3450 4097 3450 3541 
Q 3450 3153 3228 2886 
Q 3006 2619 2597 2516 
z
" transform="scale(0.015625)"/>
       </defs>
       <use xlink:href="#DejaVuSans-61"/>
       <use xlink:href="#DejaVuSans-66" x="61.279297"/>
       <use xlink:href="#DejaVuSans-6c" x="96.484375"/>
       <use xlink:href="#DejaVuSans-70" x="124.267578"/>
       <use xlink:href="#DejaVuSans-6c" x="187.744141"/>
       <use xlink:href="#DejaVuSans-75" x="215.527344"/>
       <use xlink:href="#DejaVuSans-73" x="278.90625"/>
       <use xlink:href="#DejaVuSans-70" x="331.005859"/>
       <use xlink:href="#DejaVuSans-6c" x="394.482422"/>
       <use xlink:href="#DejaVuSans-75" x="422.265625"/>
       <use xlink:href="#DejaVuSans-73" x="485.644531"/>
       <use xlink:href="#DejaVuSans-5f" x="537.744141"/>
       <use xlink:href="#DejaVuSans-61" x="587.744141"/>
       <use xlink:href="#DejaVuSans-73" x="649.023438"/>
       <use xlink:href="#DejaVuSans-74" x="701.123047"/>
       <use xlink:href="#DejaVuSans-5f" x="740.332031"/>
       <use xlink:href="#DejaVuSans-6f" x="790.332031"/>
       <use xlink:href="#DejaVuSans-33" x="851.513672"/>
      </g>
     </g>
    </g>
    <g id="text_5">
     <!-- Fuzzer (highest median coverage on the left) -->
     <g transform="translate(119.270156 361.407178)scale(0.1 -0.1)">
      <defs>
       <path id="DejaVuSans-46" d="M 628 4666 
L 3309 4666 
L 3309 4134 
L 1259 4134 
L 1259 2759 
L 3109 2759 
L 3109 2228 
L 1259 2228 
L 1259 0 
L 628 0 
L 628 4666 
z
" transform="scale(0.015625)"/>
       <path id="DejaVuSans-7a" d="M 353 3500 
L 3084 3500 
L 3084 2975 
L 922 459 
L 3084 459 
L 3084 0 
L 275 0 
L 275 525 
L 2438 3041 
L 353 3041 
L 353 3500 
z
" transform="scale(0.015625)"/>
       <path id="DejaVuSans-65" d="M 3597 1894 
L 3597 1613 
L 953 1613 
Q 991 1019 1311 708 
Q 1631 397 2203 397 
Q 2534 397 2845 478 
Q 3156 559 3463 722 
L 3463 178 
Q 3153 47 2828 -22 
Q 2503 -91 2169 -91 
Q 1331 -91 842 396 
Q 353 884 353 1716 
Q 353 2575 817 3079 
Q 1281 3584 2069 3584 
Q 2775 3584 3186 3129 
Q 3597 2675 3597 1894 
z
M 3022 2063 
Q 3016 2534 2758 2815 
Q 2500 3097 2075 3097 
Q 1594 3097 1305 2825 
Q 1016 2553 972 2059 
L 3022 2063 
z
" transform="scale(0.015625)"/>
       <path id="DejaVuSans-72" d="M 2631 2963 
Q 2534 3019 2420 3045 
Q 2306 3072 2169 3072 
Q 1681 3072 1420 2755 
Q 1159 2438 1159 1844 
L 1159 0 
L 581 0 
L 581 3500 
L 1159 3500 
L 1159 2956 
Q 1341 3275 1631 3429 
Q 1922 3584 2338 3584 
Q 2397 3584 2469 3576 
Q 2541 3569 2628 3553 
L 2631 2963 
z
" transform="scale(0.015625)"/>
       <path id="DejaVuSans-20" transform="scale(0.015625)"/>
       <path id="DejaVuSans-28" d="M 1984 4856 
Q 1566 4138 1362 3434 
Q 1159 2731 1159 2009 
Q 1159 1288 1364 580 
Q 1569 -128 1984 -844 
L 1484 -844 
Q 1016 -109 783 600 
Q 550 1309 550 2009 
Q 550 2706 781 3412 
Q 1013 4119 1484 4856 
L 1984 4856 
z
" transform="scale(0.015625)"/>
       <path id="DejaVuSans-68" d="M 3513 2113 
L 3513 0 
L 2938 0 
L 2938 2094 
Q 2938 2591 2744 2837 
Q 2550 3084 2163 3084 
Q 1697 3084 1428 2787 
Q 1159 2491 1159 1978 
L 1159 0 
L 581 0 
L 581 4863 
L 1159 4863 
L 1159 2956 
Q 1366 3272 1645 3428 
Q 1925 3584 2291 3584 
Q 2894 3584 3203 3211 
Q 3513 2838 3513 2113 
z
" transform="scale(0.015625)"/>
       <path id="DejaVuSans-69" d="M 603 3500 
L 1178 3500 
L 1178 0 
L 603 0 
L 603 3500 
z
M 603 4863 
L 1178 4863 
L 1178 4134 
L 603 4134 
L 603 4863 
z
" transform="scale(0.015625)"/>
       <path id="DejaVuSans-67" d="M 2906 1791 
Q 2906 2416 2648 2759 
Q 2391 3103 1925 3103 
Q 1463 3103 1205 2759 
Q 947 2416 947 1791 
Q 947 1169 1205 825 
Q 1463 481 1925 481 
Q 2391 481 2648 825 
Q 2906 1169 2906 1791 
z
M 3481 434 
Q 3481 -459 3084 -895 
Q 2688 -1331 1869 -1331 
Q 1566 -1331 1297 -1286 
Q 1028 -1241 775 -1147 
L 775 -588 
Q 1028 -725 1275 -790 
Q 1522 -856 1778 -856 
Q 2344 -856 2625 -561 
Q 2906 -266 2906 331 
L 2906 616 
Q 2728 306 2450 153 
Q 2172 0 1784 0 
Q 1141 0 747 490 
Q 353 981 353 1791 
Q 353 2603 747 3093 
Q 1141 3584 1784 3584 
Q 2172 3584 2450 3431 
Q 2728 3278 2906 2969 
L 2906 3500 
L 3481 3500 
L 3481 434 
z
" transform="scale(0.015625)"/>
       <path id="DejaVuSans-6d" d="M 3328 2828 
Q 3544 3216 3844 3400 
Q 4144 3584 4550 3584 
Q 5097 3584 5394 3201 
Q 5691 2819 5691 2113 
L 5691 0 
L 5113 0 
L 5113 2094 
Q 5113 2597 4934 2840 
Q 4756 3084 4391 3084 
Q 3944 3084 3684 2787 
Q 3425 2491 3425 1978 
L 3425 0 
L 2847 0 
L 2847 2094 
Q 2847 2600 2669 2842 
Q 2491 3084 2119 3084 
Q 1678 3084 1418 2786 
Q 1159 2488 1159 1978 
L 1159 0 
L 581 0 
L 581 3500 
L 1159 3500 
L 1159 2956 
Q 1356 3278 1631 3431 
Q 1906 3584 2284 3584 
Q 2666 3584 2933 3390 
Q 3200 3197 3328 2828 
z
" transform="scale(0.015625)"/>
       <path id="DejaVuSans-64" d="M 2906 2969 
L 2906 4863 
L 3481 4863 
L 3481 0 
L 2906 0 
L 2906 525 
Q 2725 213 2448 61 
Q 2172 -91 1784 -91 
Q 1150 -91 751 415 
Q 353 922 353 1747 
Q 353 2572 751 3078 
Q 1150 3584 1784 3584 
Q 2172 3584 2448 3432 
Q 2725 3281 2906 2969 
z
M 947 1747 
Q 947 1113 1208 752 
Q 1469 391 1925 391 
Q 2381 391 2643 752 
Q 2906 1113 2906 1747 
Q 2906 2381 2643 2742 
Q 2381 3103 1925 3103 
Q 1469 3103 1208 2742 
Q 947 2381 947 1747 
z
" transform="scale(0.015625)"/>
       <path id="DejaVuSans-6e" d="M 3513 2113 
L 3513 0 
L 2938 0 
L 2938 2094 
Q 2938 2591 2744 2837 
Q 2550 3084 2163 3084 
Q 1697 3084 1428 2787 
Q 1159 2491 1159 1978 
L 1159 0 
L 581 0 
L 581 3500 
L 1159 3500 
L 1159 2956 
Q 1366 3272 1645 3428 
Q 1925 3584 2291 3584 
Q 2894 3584 3203 3211 
Q 3513 2838 3513 2113 
z
" transform="scale(0.015625)"/>
       <path id="DejaVuSans-63" d="M 3122 3366 
L 3122 2828 
Q 2878 2963 2633 3030 
Q 2388 3097 2138 3097 
Q 1578 3097 1268 2742 
Q 959 2388 959 1747 
Q 959 1106 1268 751 
Q 1578 397 2138 397 
Q 2388 397 2633 464 
Q 2878 531 3122 666 
L 3122 134 
Q 2881 22 2623 -34 
Q 2366 -91 2075 -91 
Q 1284 -91 818 406 
Q 353 903 353 1747 
Q 353 2603 823 3093 
Q 1294 3584 2113 3584 
Q 2378 3584 2631 3529 
Q 2884 3475 3122 3366 
z
" transform="scale(0.015625)"/>
       <path id="DejaVuSans-76" d="M 191 3500 
L 800 3500 
L 1894 563 
L 2988 3500 
L 3597 3500 
L 2284 0 
L 1503 0 
L 191 3500 
z
" transform="scale(0.015625)"/>
       <path id="DejaVuSans-29" d="M 513 4856 
L 1013 4856 
Q 1481 4119 1714 3412 
Q 1947 2706 1947 2009 
Q 1947 1309 1714 600 
Q 1481 -109 1013 -844 
L 513 -844 
Q 928 -128 1133 580 
Q 1338 1288 1338 2009 
Q 1338 2731 1133 3434 
Q 928 4138 513 4856 
z
" transform="scale(0.015625)"/>
      </defs>
      <use xlink:href="#DejaVuSans-46"/>
      <use xlink:href="#DejaVuSans-75" x="52.019531"/>
      <use xlink:href="#DejaVuSans-7a" x="115.398438"/>
      <use xlink:href="#DejaVuSans-7a" x="167.888672"/>
      <use xlink:href="#DejaVuSans-65" x="220.378906"/>
      <use xlink:href="#DejaVuSans-72" x="281.902344"/>
      <use xlink:href="#DejaVuSans-20" x="323.015625"/>
      <use xlink:href="#DejaVuSans-28" x="354.802734"/>
      <use xlink:href="#DejaVuSans-68" x="393.816406"/>
      <use xlink:href="#DejaVuSans-69" x="457.195312"/>
      <use xlink:href="#DejaVuSans-67" x="484.978516"/>
      <use xlink:href="#DejaVuSans-68" x="548.455078"/>
      <use xlink:href="#DejaVuSans-65" x="611.833984"/>
      <use xlink:href="#DejaVuSans-73" x="673.357422"/>
      <use xlink:href="#DejaVuSans-74" x="725.457031"/>
      <use xlink:href="#DejaVuSans-20" x="764.666016"/>
      <use xlink:href="#DejaVuSans-6d" x="796.453125"/>
      <use xlink:href="#DejaVuSans-65" x="893.865234"/>
      <use xlink:href="#DejaVuSans-64" x="955.388672"/>
      <use xlink:href="#DejaVuSans-69" x="1018.865234"/>
      <use xlink:href="#DejaVuSans-61" x="1046.648438"/>
      <use xlink:href="#DejaVuSans-6e" x="1107.927734"/>
      <use xlink:href="#DejaVuSans-20" x="1171.306641"/>
      <use xlink:href="#DejaVuSans-63" x="1203.09375"/>
      <use xlink:href="#DejaVuSans-6f" x="1258.074219"/>
      <use xlink:href="#DejaVuSans-76" x="1319.255859"/>
      <use xlink:href="#DejaVuSans-65" x="1378.435547"/>
      <use xlink:href="#DejaVuSans-72" x="1439.958984"/>
      <use xlink:href="#DejaVuSans-61" x="1481.072266"/>
      <use xlink:href="#DejaVuSans-67" x="1542.351562"/>
      <use xlink:href="#DejaVuSans-65" x="1605.828125"/>
      <use xlink:href="#DejaVuSans-20" x="1667.351562"/>
      <use xlink:href="#DejaVuSans-6f" x="1699.138672"/>
      <use xlink:href="#DejaVuSans-6e" x="1760.320312"/>
      <use xlink:href="#DejaVuSans-20" x="1823.699219"/>
      <use xlink:href="#DejaVuSans-74" x="1855.486328"/>
      <use xlink:href="#DejaVuSans-68" x="1894.695312"/>
      <use xlink:href="#DejaVuSans-65" x="1958.074219"/>
      <use xlink:href="#DejaVuSans-20" x="2019.597656"/>
      <use xlink:href="#DejaVuSans-6c" x="2051.384766"/>
      <use xlink:href="#DejaVuSans-65" x="2079.167969"/>
      <use xlink:href="#DejaVuSans-66" x="2140.691406"/>
      <use xlink:href="#DejaVuSans-74" x="2174.146484"/>
      <use xlink:href="#DejaVuSans-29" x="2213.355469"/>
     </g>
    </g>
   </g>
   <g id="matplotlib.axis_2">
    <g id="ytick_1">
     <g id="line2d_5">
      <defs>
       <path id="mf790e7cda7" d="M 0 0 
L -3.5 0 
" style="stroke: #000000; stroke-width: 0.8"/>
      </defs>
      <g>
       <use xlink:href="#mf790e7cda7" x="53.328125" y="265.451767" style="stroke: #000000; stroke-width: 0.8"/>
      </g>
     </g>
     <g id="text_6">
      <!-- 2040 -->
      <g transform="translate(20.878125 269.250986)scale(0.1 -0.1)">
       <defs>
        <path id="DejaVuSans-34" d="M 2419 4116 
L 825 1625 
L 2419 1625 
L 2419 4116 
z
M 2253 4666 
L 3047 4666 
L 3047 1625 
L 3713 1625 
L 3713 1100 
L 3047 1100 
L 3047 0 
L 2419 0 
L 2419 1100 
L 313 1100 
L 313 1709 
L 2253 4666 
z
" transform="scale(0.015625)"/>
       </defs>
       <use xlink:href="#DejaVuSans-32"/>
       <use xlink:href="#DejaVuSans-30" x="63.623047"/>
       <use xlink:href="#DejaVuSans-34" x="127.246094"/>
       <use xlink:href="#DejaVuSans-30" x="190.869141"/>
      </g>
     </g>
    </g>
    <g id="ytick_2">
     <g id="line2d_6">
      <g>
       <use xlink:href="#mf790e7cda7" x="53.328125" y="217.058164" style="stroke: #000000; stroke-width: 0.8"/>
      </g>
     </g>
     <g id="text_7">
      <!-- 2060 -->
      <g transform="translate(20.878125 220.857382)scale(0.1 -0.1)">
       <defs>
        <path id="DejaVuSans-36" d="M 2113 2584 
Q 1688 2584 1439 2293 
Q 1191 2003 1191 1497 
Q 1191 994 1439 701 
Q 1688 409 2113 409 
Q 2538 409 2786 701 
Q 3034 994 3034 1497 
Q 3034 2003 2786 2293 
Q 2538 2584 2113 2584 
z
M 3366 4563 
L 3366 3988 
Q 3128 4100 2886 4159 
Q 2644 4219 2406 4219 
Q 1781 4219 1451 3797 
Q 1122 3375 1075 2522 
Q 1259 2794 1537 2939 
Q 1816 3084 2150 3084 
Q 2853 3084 3261 2657 
Q 3669 2231 3669 1497 
Q 3669 778 3244 343 
Q 2819 -91 2113 -91 
Q 1303 -91 875 529 
Q 447 1150 447 2328 
Q 447 3434 972 4092 
Q 1497 4750 2381 4750 
Q 2619 4750 2861 4703 
Q 3103 4656 3366 4563 
z
" transform="scale(0.015625)"/>
       </defs>
       <use xlink:href="#DejaVuSans-32"/>
       <use xlink:href="#DejaVuSans-30" x="63.623047"/>
       <use xlink:href="#DejaVuSans-36" x="127.246094"/>
       <use xlink:href="#DejaVuSans-30" x="190.869141"/>
      </g>
     </g>
    </g>
    <g id="ytick_3">
     <g id="line2d_7">
      <g>
       <use xlink:href="#mf790e7cda7" x="53.328125" y="168.66456" style="stroke: #000000; stroke-width: 0.8"/>
      </g>
     </g>
     <g id="text_8">
      <!-- 2080 -->
      <g transform="translate(20.878125 172.463779)scale(0.1 -0.1)">
       <defs>
        <path id="DejaVuSans-38" d="M 2034 2216 
Q 1584 2216 1326 1975 
Q 1069 1734 1069 1313 
Q 1069 891 1326 650 
Q 1584 409 2034 409 
Q 2484 409 2743 651 
Q 3003 894 3003 1313 
Q 3003 1734 2745 1975 
Q 2488 2216 2034 2216 
z
M 1403 2484 
Q 997 2584 770 2862 
Q 544 3141 544 3541 
Q 544 4100 942 4425 
Q 1341 4750 2034 4750 
Q 2731 4750 3128 4425 
Q 3525 4100 3525 3541 
Q 3525 3141 3298 2862 
Q 3072 2584 2669 2484 
Q 3125 2378 3379 2068 
Q 3634 1759 3634 1313 
Q 3634 634 3220 271 
Q 2806 -91 2034 -91 
Q 1263 -91 848 271 
Q 434 634 434 1313 
Q 434 1759 690 2068 
Q 947 2378 1403 2484 
z
M 1172 3481 
Q 1172 3119 1398 2916 
Q 1625 2713 2034 2713 
Q 2441 2713 2670 2916 
Q 2900 3119 2900 3481 
Q 2900 3844 2670 4047 
Q 2441 4250 2034 4250 
Q 1625 4250 1398 4047 
Q 1172 3844 1172 3481 
z
" transform="scale(0.015625)"/>
       </defs>
       <use xlink:href="#DejaVuSans-32"/>
       <use xlink:href="#DejaVuSans-30" x="63.623047"/>
       <use xlink:href="#DejaVuSans-38" x="127.246094"/>
       <use xlink:href="#DejaVuSans-30" x="190.869141"/>
      </g>
     </g>
    </g>
    <g id="ytick_4">
     <g id="line2d_8">
      <g>
       <use xlink:href="#mf790e7cda7" x="53.328125" y="120.270956" style="stroke: #000000; stroke-width: 0.8"/>
      </g>
     </g>
     <g id="text_9">
      <!-- 2100 -->
      <g transform="translate(20.878125 124.070175)scale(0.1 -0.1)">
       <use xlink:href="#DejaVuSans-32"/>
       <use xlink:href="#DejaVuSans-31" x="63.623047"/>
       <use xlink:href="#DejaVuSans-30" x="127.246094"/>
       <use xlink:href="#DejaVuSans-30" x="190.869141"/>
      </g>
     </g>
    </g>
    <g id="ytick_5">
     <g id="line2d_9">
      <g>
       <use xlink:href="#mf790e7cda7" x="53.328125" y="71.877352" style="stroke: #000000; stroke-width: 0.8"/>
      </g>
     </g>
     <g id="text_10">
      <!-- 2120 -->
      <g transform="translate(20.878125 75.676571)scale(0.1 -0.1)">
       <use xlink:href="#DejaVuSans-32"/>
       <use xlink:href="#DejaVuSans-31" x="63.623047"/>
       <use xlink:href="#DejaVuSans-32" x="127.246094"/>
       <use xlink:href="#DejaVuSans-30" x="190.869141"/>
      </g>
     </g>
    </g>
    <g id="ytick_6">
     <g id="line2d_10">
      <g>
       <use xlink:href="#mf790e7cda7" x="53.328125" y="23.483749" style="stroke: #000000; stroke-width: 0.8"/>
      </g>
     </g>
     <g id="text_11">
      <!-- 2140 -->
      <g transform="translate(20.878125 27.282967)scale(0.1 -0.1)">
       <use xlink:href="#DejaVuSans-32"/>
       <use xlink:href="#DejaVuSans-31" x="63.623047"/>
       <use xlink:href="#DejaVuSans-34" x="127.246094"/>
       <use xlink:href="#DejaVuSans-30" x="190.869141"/>
      </g>
     </g>
    </g>
    <g id="text_12">
     <!-- Reached region coverage -->
     <g transform="translate(14.798438 219.136625)rotate(-90)scale(0.1 -0.1)">
      <defs>
       <path id="DejaVuSans-52" d="M 2841 2188 
Q 3044 2119 3236 1894 
Q 3428 1669 3622 1275 
L 4263 0 
L 3584 0 
L 2988 1197 
Q 2756 1666 2539 1819 
Q 2322 1972 1947 1972 
L 1259 1972 
L 1259 0 
L 628 0 
L 628 4666 
L 2053 4666 
Q 2853 4666 3247 4331 
Q 3641 3997 3641 3322 
Q 3641 2881 3436 2590 
Q 3231 2300 2841 2188 
z
M 1259 4147 
L 1259 2491 
L 2053 2491 
Q 2509 2491 2742 2702 
Q 2975 2913 2975 3322 
Q 2975 3731 2742 3939 
Q 2509 4147 2053 4147 
L 1259 4147 
z
" transform="scale(0.015625)"/>
      </defs>
      <use xlink:href="#DejaVuSans-52"/>
      <use xlink:href="#DejaVuSans-65" x="64.982422"/>
      <use xlink:href="#DejaVuSans-61" x="126.505859"/>
      <use xlink:href="#DejaVuSans-63" x="187.785156"/>
      <use xlink:href="#DejaVuSans-68" x="242.765625"/>
      <use xlink:href="#DejaVuSans-65" x="306.144531"/>
      <use xlink:href="#DejaVuSans-64" x="367.667969"/>
      <use xlink:href="#DejaVuSans-20" x="431.144531"/>
      <use xlink:href="#DejaVuSans-72" x="462.931641"/>
      <use xlink:href="#DejaVuSans-65" x="501.794922"/>
      <use xlink:href="#DejaVuSans-67" x="563.318359"/>
      <use xlink:href="#DejaVuSans-69" x="626.794922"/>
      <use xlink:href="#DejaVuSans-6f" x="654.578125"/>
      <use xlink:href="#DejaVuSans-6e" x="715.759766"/>
      <use xlink:href="#DejaVuSans-20" x="779.138672"/>
      <use xlink:href="#DejaVuSans-63" x="810.925781"/>
      <use xlink:href="#DejaVuSans-6f" x="865.90625"/>
      <use xlink:href="#DejaVuSans-76" x="927.087891"/>
      <use xlink:href="#DejaVuSans-65" x="986.267578"/>
      <use xlink:href="#DejaVuSans-72" x="1047.791016"/>
      <use xlink:href="#DejaVuSans-61" x="1088.904297"/>
      <use xlink:href="#DejaVuSans-67" x="1150.183594"/>
      <use xlink:href="#DejaVuSans-65" x="1213.660156"/>
     </g>
    </g>
   </g>
   <g id="line2d_11">
    <path d="M 97.968125 115.431596 
L 97.968125 71.877352 
" clip-path="url(#p79b61bbba5)" style="fill: none; stroke: #3f3f3f; stroke-width: 1.5; stroke-linecap: square"/>
   </g>
   <g id="line2d_12">
    <path d="M 97.968125 97.283994 
L 97.968125 75.506873 
" clip-path="url(#p79b61bbba5)" style="fill: none; stroke: #3f3f3f; stroke-width: 4.5; stroke-linecap: square"/>
   </g>
   <g id="line2d_13">
    <path d="M 187.248125 204.959763 
L 187.248125 151.726799 
" clip-path="url(#p79b61bbba5)" style="fill: none; stroke: #3f3f3f; stroke-width: 1.5; stroke-linecap: square"/>
   </g>
   <g id="line2d_14">
    <path d="M 187.248125 180.762961 
L 187.248125 154.146479 
" clip-path="url(#p79b61bbba5)" style="fill: none; stroke: #3f3f3f; stroke-width: 4.5; stroke-linecap: square"/>
   </g>
   <g id="line2d_15">
    <path d="M 276.528125 200.120402 
L 276.528125 163.825199 
" clip-path="url(#p79b61bbba5)" style="fill: none; stroke: #3f3f3f; stroke-width: 1.5; stroke-linecap: square"/>
   </g>
   <g id="line2d_16">
    <path d="M 276.528125 194.071202 
L 276.528125 175.9236 
" clip-path="url(#p79b61bbba5)" style="fill: none; stroke: #3f3f3f; stroke-width: 4.5; stroke-linecap: square"/>
   </g>
   <g id="line2d_17">
    <path d="M 365.808125 226.736884 
L 365.808125 166.24488 
" clip-path="url(#p79b61bbba5)" style="fill: none; stroke: #3f3f3f; stroke-width: 1.5; stroke-linecap: square"/>
   </g>
   <g id="line2d_18">
    <path d="M 365.808125 217.058164 
L 365.808125 186.812161 
" clip-path="url(#p79b61bbba5)" style="fill: none; stroke: #3f3f3f; stroke-width: 4.5; stroke-linecap: square"/>
   </g>
   <g id="patch_3">
    <path d="M 53.328125 265.451767 
L 53.328125 23.483749 
" style="fill: none; stroke: #000000; stroke-width: 0.8; stroke-linejoin: miter; stroke-linecap: square"/>
   </g>
   <g id="patch_4">
    <path d="M 97.968125 288.430125 
L 365.808125 288.430125 
" style="fill: none; stroke: #000000; stroke-width: 0.8; stroke-linejoin: miter; stroke-linecap: square"/>
   </g>
   <g id="PathCollection_1">
    <defs>
     <path id="mca3798e5c3" d="M 0 1.5 
C 0.397805 1.5 0.77937 1.341951 1.06066 1.06066 
C 1.341951 0.77937 1.5 0.397805 1.5 0 
C 1.5 -0.397805 1.341951 -0.77937 1.06066 -1.06066 
C 0.77937 -1.341951 0.397805 -1.5 0 -1.5 
C -0.397805 -1.5 -0.77937 -1.341951 -1.06066 -1.06066 
C -1.341951 -0.77937 -1.5 -0.397805 -1.5 0 
C -1.5 0.397805 -1.341951 0.77937 -1.06066 1.06066 
C -0.77937 1.341951 -0.397805 1.5 0 1.5 
z
" style="stroke: #3f3f3f"/>
    </defs>
    <g clip-path="url(#p79b61bbba5)">
     <use xlink:href="#mca3798e5c3" x="97.968125" y="79.136393" style="fill: #ffffff; stroke: #3f3f3f"/>
    </g>
   </g>
   <g id="PathCollection_2">
    <g clip-path="url(#p79b61bbba5)">
     <use xlink:href="#mca3798e5c3" x="187.248125" y="156.566159" style="fill: #ffffff; stroke: #3f3f3f"/>
    </g>
   </g>
   <g id="PathCollection_3">
    <g clip-path="url(#p79b61bbba5)">
     <use xlink:href="#mca3798e5c3" x="276.528125" y="188.022001" style="fill: #ffffff; stroke: #3f3f3f"/>
    </g>
   </g>
   <g id="PathCollection_4">
    <g clip-path="url(#p79b61bbba5)">
     <use xlink:href="#mca3798e5c3" x="365.808125" y="207.379443" style="fill: #ffffff; stroke: #3f3f3f"/>
    </g>
   </g>
   <g id="text_13">
    <!-- libpng-1.2.56 (4h, 3 trials/fuzzer) -->
    <g transform="translate(132.981875 16.318125)scale(0.12 -0.12)">
     <defs>
      <path id="DejaVuSans-62" d="M 3116 1747 
Q 3116 2381 2855 2742 
Q 2594 3103 2138 3103 
Q 1681 3103 1420 2742 
Q 1159 2381 1159 1747 
Q 1159 1113 1420 752 
Q 1681 391 2138 391 
Q 2594 391 2855 752 
Q 3116 1113 3116 1747 
z
M 1159 2969 
Q 1341 3281 1617 3432 
Q 1894 3584 2278 3584 
Q 2916 3584 3314 3078 
Q 3713 2572 3713 1747 
Q 3713 922 3314 415 
Q 2916 -91 2278 -91 
Q 1894 -91 1617 61 
Q 1341 213 1159 525 
L 1159 0 
L 581 0 
L 581 4863 
L 1159 4863 
L 1159 2969 
z
" transform="scale(0.015625)"/>
      <path id="DejaVuSans-2d" d="M 313 2009 
L 1997 2009 
L 1997 1497 
L 313 1497 
L 313 2009 
z
" transform="scale(0.015625)"/>
      <path id="DejaVuSans-2e" d="M 684 794 
L 1344 794 
L 1344 0 
L 684 0 
L 684 794 
z
" transform="scale(0.015625)"/>
      <path id="DejaVuSans-35" d="M 691 4666 
L 3169 4666 
L 3169 4134 
L 1269 4134 
L 1269 2991 
Q 1406 3038 1543 3061 
Q 1681 3084 1819 3084 
Q 2600 3084 3056 2656 
Q 3513 2228 3513 1497 
Q 3513 744 3044 326 
Q 2575 -91 1722 -91 
Q 1428 -91 1123 -41 
Q 819 9 494 109 
L 494 744 
Q 775 591 1075 516 
Q 1375 441 1709 441 
Q 2250 441 2565 725 
Q 2881 1009 2881 1497 
Q 2881 1984 2565 2268 
Q 2250 2553 1709 2553 
Q 1456 2553 1204 2497 
Q 953 2441 691 2322 
L 691 4666 
z
" transform="scale(0.015625)"/>
      <path id="DejaVuSans-2c" d="M 750 794 
L 1409 794 
L 1409 256 
L 897 -744 
L 494 -744 
L 750 256 
L 750 794 
z
" transform="scale(0.015625)"/>
      <path id="DejaVuSans-2f" d="M 1625 4666 
L 2156 4666 
L 531 -594 
L 0 -594 
L 1625 4666 
z
" transform="scale(0.015625)"/>
     </defs>
     <use xlink:href="#DejaVuSans-6c"/>
     <use xlink:href="#DejaVuSans-69" x="27.783203"/>
     <use xlink:href="#DejaVuSans-62" x="55.566406"/>
     <use xlink:href="#DejaVuSans-70" x="119.042969"/>
     <use xlink:href="#DejaVuSans-6e" x="182.519531"/>
     <use xlink:href="#DejaVuSans-67" x="245.898438"/>
     <use xlink:href="#DejaVuSans-2d" x="309.375"/>
     <use xlink:href="#DejaVuSans-31" x="345.458984"/>
     <use xlink:href="#DejaVuSans-2e" x="409.082031"/>
     <use xlink:href="#DejaVuSans-32" x="440.869141"/>
     <use xlink:href="#DejaVuSans-2e" x="504.492188"/>
     <use xlink:href="#DejaVuSans-35" x="536.279297"/>
     <use xlink:href="#DejaVuSans-36" x="599.902344"/>
     <use xlink:href="#DejaVuSans-20" x="663.525391"/>
     <use xlink:href="#DejaVuSans-28" x="695.3125"/>
     <use xlink:href="#DejaVuSans-34" x="734.326172"/>
     <use xlink:href="#DejaVuSans-68" x="797.949219"/>
     <use xlink:href="#DejaVuSans-2c" x="861.328125"/>
     <use xlink:href="#DejaVuSans-20" x="893.115234"/>
     <use xlink:href="#DejaVuSans-33" x="924.902344"/>
     <use xlink:href="#DejaVuSans-20" x="988.525391"/>
     <use xlink:href="#DejaVuSans-74" x="1020.3125"/>
     <use xlink:href="#DejaVuSans-72" x="1059.521484"/>
     <use xlink:href="#DejaVuSans-69" x="1100.634766"/>
     <use xlink:href="#DejaVuSans-61" x="1128.417969"/>
     <use xlink:href="#DejaVuSans-6c" x="1189.697266"/>
     <use xlink:href="#DejaVuSans-73" x="1217.480469"/>
     <use xlink:href="#DejaVuSans-2f" x="1269.580078"/>
     <use xlink:href="#DejaVuSans-66" x="1303.271484"/>
     <use xlink:href="#DejaVuSans-75" x="1338.476562"/>
     <use xlink:href="#DejaVuSans-7a" x="1401.855469"/>
     <use xlink:href="#DejaVuSans-7a" x="1454.345703"/>
     <use xlink:href="#DejaVuSans-65" x="1506.835938"/>
     <use xlink:href="#DejaVuSans-72" x="1568.359375"/>
     <use xlink:href="#DejaVuSans-29" x="1609.472656"/>
    </g>
   </g>
  </g>
 </g>
 <defs>
  <clipPath id="p79b61bbba5">
   <rect x="53.328125" y="22.318125" width="357.12" height="266.112"/>
  </clipPath>
 </defs>
</svg>
