<?xml version="1.0" encoding="utf-8" standalone="no"?>
<!DOCTYPE svg PUBLIC "-//W3C//DTD SVG 1.1//EN"
  "http://www.w3.org/Graphics/SVG/1.1/DTD/svg11.dtd">
<svg xmlns:xlink="http://www.w3.org/1999/xlink" width="417.648125pt" height="370.686865pt" viewBox="0 0 417.648125 370.686865" xmlns="http://www.w3.org/2000/svg" version="1.1">
 <metadata>
  <rdf:RDF xmlns:dc="http://purl.org/dc/elements/1.1/" xmlns:cc="http://creativecommons.org/ns#" xmlns:rdf="http://www.w3.org/1999/02/22-rdf-syntax-ns#">
   <cc:Work>
    <dc:type rdf:resource="http://purl.org/dc/dcmitype/StillImage"/>
    <dc:date>2022-04-27T20:14:42.804280</dc:date>
    <dc:format>image/svg+xml</dc:format>
    <dc:creator>
     <cc:Agent>
      <dc:title>Matplotlib v3.5.1, https://matplotlib.org/</dc:title>
     </cc:Agent>
    </dc:creator>
   </cc:Work>
  </rdf:RDF>
 </metadata>
 <defs>
  <style type="text/css">*{stroke-linejoin: round; stroke-linecap: butt}</style>
 </defs>
 <g id="figure_1">
  <g id="patch_1">
   <path d="M 0 370.686865 
L 417.648125 370.686865 
L 417.648125 0 
L 0 0 
z
" style="fill: #ffffff"/>
  </g>
  <g id="axes_1">
   <g id="patch_2">
    <path d="M 53.328125 288.430125 
L 410.448125 288.430125 
L 410.448125 22.318125 
L 53.328125 22.318125 
z
" style="fill: #ffffff"/>
   </g>
   <g id="PolyCollection_1">
    <defs>
     <path id="mfc41795f93" d="M 100.089958 -274.359364 
L 95.846292 -274.359364 
L 95.54222 -274.549838 
L 95.205508 -274.740313 
L 94.834407 -274.930787 
L 94.427333 -275.121262 
L 93.982917 -275.311736 
L 93.500041 -275.502211 
L 92.977886 -275.692685 
L 92.415969 -275.88316 
L 91.814188 -276.073634 
L 91.17285 -276.264109 
L 90.492705 -276.454583 
L 89.774967 -276.645057 
L 89.021335 -276.835532 
L 88.233997 -277.026006 
L 87.415635 -277.216481 
L 86.569409 -277.406955 
L 85.698946 -277.59743 
L 84.808307 -277.787904 
L 83.901952 -277.978379 
L 82.984689 -278.168853 
L 82.061622 -278.359327 
L 81.138089 -278.549802 
L 80.219588 -278.740276 
L 79.311708 -278.930751 
L 78.420046 -279.121225 
L 77.550132 -279.3117 
L 76.707342 -279.502174 
L 75.896825 -279.692649 
L 75.123425 -279.883123 
L 74.391607 -280.073597 
L 73.705396 -280.264072 
L 73.068318 -280.454546 
L 72.483353 -280.645021 
L 71.952897 -280.835495 
L 71.478739 -281.02597 
L 71.062041 -281.216444 
L 70.703343 -281.406919 
L 70.402567 -281.597393 
L 70.159046 -281.787867 
L 69.971557 -281.978342 
L 69.838366 -282.168816 
L 69.757285 -282.359291 
L 69.725738 -282.549765 
L 69.740836 -282.74024 
L 69.799449 -282.930714 
L 69.898295 -283.121189 
L 70.03402 -283.311663 
L 70.203282 -283.502138 
L 70.402833 -283.692612 
L 70.62959 -283.883086 
L 70.880709 -284.073561 
L 71.153642 -284.264035 
L 71.446184 -284.45451 
L 71.756512 -284.644984 
L 72.083207 -284.835459 
L 72.425262 -285.025933 
L 72.782079 -285.216408 
L 73.153448 -285.406882 
L 73.539516 -285.597356 
L 73.94074 -285.787831 
L 74.357833 -285.978305 
L 74.791697 -286.16878 
L 75.243355 -286.359254 
L 75.713874 -286.549729 
L 76.204287 -286.740203 
L 76.71552 -286.930678 
L 77.248317 -287.121152 
L 77.803177 -287.311626 
L 78.380294 -287.502101 
L 78.979513 -287.692575 
L 79.600293 -287.88305 
L 80.241686 -288.073524 
L 80.90233 -288.263999 
L 81.580449 -288.454473 
L 82.273878 -288.644948 
L 82.98009 -288.835422 
L 83.696239 -289.025896 
L 84.419211 -289.216371 
L 85.145684 -289.406845 
L 85.872189 -289.59732 
L 86.595184 -289.787794 
L 87.311116 -289.978269 
L 88.016494 -290.168743 
L 88.707949 -290.359218 
L 89.382296 -290.549692 
L 90.036589 -290.740166 
L 90.668162 -290.930641 
L 91.274668 -291.121115 
L 91.854106 -291.31159 
L 92.404843 -291.502064 
L 92.925616 -291.692539 
L 93.415538 -291.883013 
L 93.874087 -292.073488 
L 94.301094 -292.263962 
L 94.696716 -292.454437 
L 95.061412 -292.644911 
L 95.395913 -292.835385 
L 95.701186 -293.02586 
L 95.978397 -293.216334 
L 99.957853 -293.216334 
L 99.957853 -293.216334 
L 100.235064 -293.02586 
L 100.540337 -292.835385 
L 100.874838 -292.644911 
L 101.239534 -292.454437 
L 101.635156 -292.263962 
L 102.062163 -292.073488 
L 102.520712 -291.883013 
L 103.010634 -291.692539 
L 103.531407 -291.502064 
L 104.082144 -291.31159 
L 104.661582 -291.121115 
L 105.268088 -290.930641 
L 105.899661 -290.740166 
L 106.553954 -290.549692 
L 107.228301 -290.359218 
L 107.919756 -290.168743 
L 108.625134 -289.978269 
L 109.341066 -289.787794 
L 110.064061 -289.59732 
L 110.790566 -289.406845 
L 111.517039 -289.216371 
L 112.240011 -289.025896 
L 112.95616 -288.835422 
L 113.662372 -288.644948 
L 114.355801 -288.454473 
L 115.03392 -288.263999 
L 115.694564 -288.073524 
L 116.335957 -287.88305 
L 116.956737 -287.692575 
L 117.555956 -287.502101 
L 118.133073 -287.311626 
L 118.687933 -287.121152 
L 119.22073 -286.930678 
L 119.731963 -286.740203 
L 120.222376 -286.549729 
L 120.692895 -286.359254 
L 121.144553 -286.16878 
L 121.578417 -285.978305 
L 121.99551 -285.787831 
L 122.396734 -285.597356 
L 122.782802 -285.406882 
L 123.154171 -285.216408 
L 123.510988 -285.025933 
L 123.853043 -284.835459 
L 124.179738 -284.644984 
L 124.490066 -284.45451 
L 124.782608 -284.264035 
L 125.055541 -284.073561 
L 125.30666 -283.883086 
L 125.533417 -283.692612 
L 125.732968 -283.502138 
L 125.90223 -283.311663 
L 126.037955 -283.121189 
L 126.136801 -282.930714 
L 126.195414 -282.74024 
L 126.210512 -282.549765 
L 126.178965 -282.359291 
L 126.097884 -282.168816 
L 125.964693 -281.978342 
L 125.777204 -281.787867 
L 125.533683 -281.597393 
L 125.232907 -281.406919 
L 124.874209 -281.216444 
L 124.457511 -281.02597 
L 123.983353 -280.835495 
L 123.452897 -280.645021 
L 122.867932 -280.454546 
L 122.230854 -280.264072 
L 121.544643 -280.073597 
L 120.812825 -279.883123 
L 120.039425 -279.692649 
L 119.228908 -279.502174 
L 118.386118 -279.3117 
L 117.516204 -279.121225 
L 116.624542 -278.930751 
L 115.716662 -278.740276 
L 114.798161 -278.549802 
L 113.874628 -278.359327 
L 112.951561 -278.168853 
L 112.034298 -277.978379 
L 111.127943 -277.787904 
L 110.237304 -277.59743 
L 109.366841 -277.406955 
L 108.520615 -277.216481 
L 107.702253 -277.026006 
L 106.914915 -276.835532 
L 106.161283 -276.645057 
L 105.443545 -276.454583 
L 104.7634 -276.264109 
L 104.122062 -276.073634 
L 103.520281 -275.88316 
L 102.958364 -275.692685 
L 102.436209 -275.502211 
L 101.953333 -275.311736 
L 101.508917 -275.121262 
L 101.101843 -274.930787 
L 100.730742 -274.740313 
L 100.39403 -274.549838 
L 100.089958 -274.359364 
z
" style="stroke: #3f3f3f; stroke-width: 1.5"/>
    </defs>
    <g clip-path="url(#pf913a88b2d)">
     <use xlink:href="#mfc41795f93" x="0" y="370.686865" style="fill: #c03d3e; stroke: #3f3f3f; stroke-width: 1.5"/>
    </g>
   </g>
   <g id="PolyCollection_2">
    <defs>
     <path id="me6d2b683a1" d="M 190.210924 -272.482854 
L 184.285326 -272.482854 
L 183.856903 -272.638431 
L 183.3817 -272.794008 
L 182.857105 -272.949584 
L 182.28075 -273.105161 
L 181.650583 -273.260737 
L 180.964938 -273.416314 
L 180.22261 -273.571891 
L 179.42292 -273.727467 
L 178.565796 -273.883044 
L 177.651825 -274.03862 
L 176.682322 -274.194197 
L 175.659371 -274.349774 
L 174.585865 -274.50535 
L 173.465532 -274.660927 
L 172.302944 -274.816503 
L 171.10351 -274.97208 
L 169.873448 -275.127657 
L 168.619749 -275.283233 
L 167.350105 -275.43881 
L 166.072836 -275.594386 
L 164.796785 -275.749963 
L 163.5312 -275.90554 
L 162.285608 -276.061116 
L 161.06966 -276.216693 
L 159.892984 -276.372269 
L 158.765017 -276.527846 
L 157.694841 -276.683423 
L 156.691019 -276.838999 
L 155.761434 -276.994576 
L 154.913141 -277.150152 
L 154.152225 -277.305729 
L 153.483687 -277.461306 
L 152.911343 -277.616882 
L 152.437751 -277.772459 
L 152.06416 -277.928035 
L 151.790496 -278.083612 
L 151.615372 -278.239189 
L 151.536125 -278.394765 
L 151.548892 -278.550342 
L 151.648703 -278.705918 
L 151.82961 -278.861495 
L 152.08483 -279.017072 
L 152.406911 -279.172648 
L 152.787912 -279.328225 
L 153.219592 -279.483801 
L 153.693603 -279.639378 
L 154.201681 -279.794955 
L 154.735834 -279.950531 
L 155.288513 -280.106108 
L 155.852773 -280.261684 
L 156.422408 -280.417261 
L 156.992063 -280.572838 
L 157.557321 -280.728414 
L 158.114762 -280.883991 
L 158.661984 -281.039567 
L 159.197604 -281.195144 
L 159.721224 -281.350721 
L 160.233367 -281.506297 
L 160.735396 -281.661874 
L 161.229403 -281.81745 
L 161.718088 -281.973027 
L 162.204613 -282.128604 
L 162.692462 -282.28418 
L 163.185287 -282.439757 
L 163.686756 -282.595333 
L 164.200412 -282.75091 
L 164.729536 -282.906487 
L 165.277027 -283.062063 
L 165.8453 -283.21764 
L 166.436197 -283.373216 
L 167.05093 -283.528793 
L 167.690034 -283.68437 
L 168.353354 -283.839946 
L 169.040045 -283.995523 
L 169.7486 -284.151099 
L 170.476889 -284.306676 
L 171.222225 -284.462253 
L 171.98143 -284.617829 
L 172.750929 -284.773406 
L 173.526836 -284.928982 
L 174.30505 -285.084559 
L 175.08136 -285.240136 
L 175.851534 -285.395712 
L 176.611413 -285.551289 
L 177.356997 -285.706865 
L 178.08452 -285.862442 
L 178.790515 -286.018019 
L 179.471867 -286.173595 
L 180.125856 -286.329172 
L 180.750186 -286.484748 
L 181.343004 -286.640325 
L 181.9029 -286.795902 
L 182.428909 -286.951478 
L 182.920492 -287.107055 
L 183.377511 -287.262631 
L 183.800206 -287.418208 
L 184.189155 -287.573785 
L 184.545233 -287.729361 
L 184.869577 -287.884938 
L 189.626673 -287.884938 
L 189.626673 -287.884938 
L 189.951017 -287.729361 
L 190.307095 -287.573785 
L 190.696044 -287.418208 
L 191.118739 -287.262631 
L 191.575758 -287.107055 
L 192.067341 -286.951478 
L 192.59335 -286.795902 
L 193.153246 -286.640325 
L 193.746064 -286.484748 
L 194.370394 -286.329172 
L 195.024383 -286.173595 
L 195.705735 -286.018019 
L 196.41173 -285.862442 
L 197.139253 -285.706865 
L 197.884837 -285.551289 
L 198.644716 -285.395712 
L 199.41489 -285.240136 
L 200.1912 -285.084559 
L 200.969414 -284.928982 
L 201.745321 -284.773406 
L 202.51482 -284.617829 
L 203.274025 -284.462253 
L 204.019361 -284.306676 
L 204.74765 -284.151099 
L 205.456205 -283.995523 
L 206.142896 -283.839946 
L 206.806216 -283.68437 
L 207.44532 -283.528793 
L 208.060053 -283.373216 
L 208.65095 -283.21764 
L 209.219223 -283.062063 
L 209.766714 -282.906487 
L 210.295838 -282.75091 
L 210.809494 -282.595333 
L 211.310963 -282.439757 
L 211.803788 -282.28418 
L 212.291637 -282.128604 
L 212.778162 -281.973027 
L 213.266847 -281.81745 
L 213.760854 -281.661874 
L 214.262883 -281.506297 
L 214.775026 -281.350721 
L 215.298646 -281.195144 
L 215.834266 -281.039567 
L 216.381488 -280.883991 
L 216.938929 -280.728414 
L 217.504187 -280.572838 
L 218.073842 -280.417261 
L 218.643477 -280.261684 
L 219.207737 -280.106108 
L 219.760416 -279.950531 
L 220.294569 -279.794955 
L 220.802647 -279.639378 
L 221.276658 -279.483801 
L 221.708338 -279.328225 
L 222.089339 -279.172648 
L 222.41142 -279.017072 
L 222.66664 -278.861495 
L 222.847547 -278.705918 
L 222.947358 -278.550342 
L 222.960125 -278.394765 
L 222.880878 -278.239189 
L 222.705754 -278.083612 
L 222.43209 -277.928035 
L 222.058499 -277.772459 
L 221.584907 -277.616882 
L 221.012563 -277.461306 
L 220.344025 -277.305729 
L 219.583109 -277.150152 
L 218.734816 -276.994576 
L 217.805231 -276.838999 
L 216.801409 -276.683423 
L 215.731233 -276.527846 
L 214.603266 -276.372269 
L 213.42659 -276.216693 
L 212.210642 -276.061116 
L 210.96505 -275.90554 
L 209.699465 -275.749963 
L 208.423414 -275.594386 
L 207.146145 -275.43881 
L 205.876501 -275.283233 
L 204.622802 -275.127657 
L 203.39274 -274.97208 
L 202.193306 -274.816503 
L 201.030718 -274.660927 
L 199.910385 -274.50535 
L 198.836879 -274.349774 
L 197.813928 -274.194197 
L 196.844425 -274.03862 
L 195.930454 -273.883044 
L 195.07333 -273.727467 
L 194.27364 -273.571891 
L 193.531312 -273.416314 
L 192.845667 -273.260737 
L 192.2155 -273.105161 
L 191.639145 -272.949584 
L 191.11455 -272.794008 
L 190.639347 -272.638431 
L 190.210924 -272.482854 
z
" style="stroke: #3f3f3f; stroke-width: 1.5"/>
    </defs>
    <g clip-path="url(#pf913a88b2d)">
     <use xlink:href="#me6d2b683a1" x="0" y="370.686865" style="fill: #c7c7c7; stroke: #3f3f3f; stroke-width: 1.5"/>
    </g>
   </g>
   <g id="PolyCollection_3">
    <defs>
     <path id="m83d7312241" d="M 276.746016 -166.995761 
L 276.310234 -166.995761 
L 276.280421 -168.699933 
L 276.247677 -170.404105 
L 276.211895 -172.108277 
L 276.172994 -173.812449 
L 276.130916 -175.516621 
L 276.085638 -177.220793 
L 276.037168 -178.924964 
L 275.985554 -180.629136 
L 275.930882 -182.333308 
L 275.873277 -184.03748 
L 275.812907 -185.741652 
L 275.74998 -187.445824 
L 275.684742 -189.149996 
L 275.617477 -190.854168 
L 275.5485 -192.55834 
L 275.478154 -194.262512 
L 275.406804 -195.966684 
L 275.334829 -197.670856 
L 275.262617 -199.375028 
L 275.190551 -201.0792 
L 275.119009 -202.783371 
L 275.048346 -204.487543 
L 274.978891 -206.191715 
L 274.910938 -207.895887 
L 274.844738 -209.600059 
L 274.78049 -211.304231 
L 274.718338 -213.008403 
L 274.65837 -214.712575 
L 274.600609 -216.416747 
L 274.545019 -218.120919 
L 274.491505 -219.825091 
L 274.439914 -221.529263 
L 274.390045 -223.233435 
L 274.341654 -224.937606 
L 274.294465 -226.641778 
L 274.24818 -228.34595 
L 274.202488 -230.050122 
L 274.157085 -231.754294 
L 274.11168 -233.458466 
L 274.066013 -235.162638 
L 274.019865 -236.86681 
L 273.973071 -238.570982 
L 273.925531 -240.275154 
L 273.877219 -241.979326 
L 273.828188 -243.683498 
L 273.77858 -245.38767 
L 273.728621 -247.091842 
L 273.678629 -248.796013 
L 273.629002 -250.500185 
L 273.580221 -252.204357 
L 273.532838 -253.908529 
L 273.487463 -255.612701 
L 273.444759 -257.316873 
L 273.40542 -259.021045 
L 273.37016 -260.725217 
L 273.339697 -262.429389 
L 273.314736 -264.133561 
L 273.295948 -265.837733 
L 273.283962 -267.541905 
L 273.279341 -269.246077 
L 273.282574 -270.950249 
L 273.294064 -272.65442 
L 273.314112 -274.358592 
L 273.342914 -276.062764 
L 273.380557 -277.766936 
L 273.427009 -279.471108 
L 273.482127 -281.17528 
L 273.545654 -282.879452 
L 273.617222 -284.583624 
L 273.696367 -286.287796 
L 273.782528 -287.991968 
L 273.875066 -289.69614 
L 273.973269 -291.400312 
L 274.076373 -293.104484 
L 274.183567 -294.808655 
L 274.294016 -296.512827 
L 274.406869 -298.216999 
L 274.521275 -299.921171 
L 274.6364 -301.625343 
L 274.751432 -303.329515 
L 274.865599 -305.033687 
L 274.978177 -306.737859 
L 275.088496 -308.442031 
L 275.195951 -310.146203 
L 275.300003 -311.850375 
L 275.400186 -313.554547 
L 275.496107 -315.258719 
L 275.587449 -316.962891 
L 275.673966 -318.667062 
L 275.755483 -320.371234 
L 275.831894 -322.075406 
L 275.903155 -323.779578 
L 275.96928 -325.48375 
L 276.030336 -327.187922 
L 276.086435 -328.892094 
L 276.137732 -330.596266 
L 276.184412 -332.300438 
L 276.226689 -334.00461 
L 276.264797 -335.708782 
L 276.791453 -335.708782 
L 276.791453 -335.708782 
L 276.829561 -334.00461 
L 276.871838 -332.300438 
L 276.918518 -330.596266 
L 276.969815 -328.892094 
L 277.025914 -327.187922 
L 277.08697 -325.48375 
L 277.153095 -323.779578 
L 277.224356 -322.075406 
L 277.300767 -320.371234 
L 277.382284 -318.667062 
L 277.468801 -316.962891 
L 277.560143 -315.258719 
L 277.656064 -313.554547 
L 277.756247 -311.850375 
L 277.860299 -310.146203 
L 277.967754 -308.442031 
L 278.078073 -306.737859 
L 278.190651 -305.033687 
L 278.304818 -303.329515 
L 278.41985 -301.625343 
L 278.534975 -299.921171 
L 278.649381 -298.216999 
L 278.762234 -296.512827 
L 278.872683 -294.808655 
L 278.979877 -293.104484 
L 279.082981 -291.400312 
L 279.181184 -289.69614 
L 279.273722 -287.991968 
L 279.359883 -286.287796 
L 279.439028 -284.583624 
L 279.510596 -282.879452 
L 279.574123 -281.17528 
L 279.629241 -279.471108 
L 279.675693 -277.766936 
L 279.713336 -276.062764 
L 279.742138 -274.358592 
L 279.762186 -272.65442 
L 279.773676 -270.950249 
L 279.776909 -269.246077 
L 279.772288 -267.541905 
L 279.760302 -265.837733 
L 279.741514 -264.133561 
L 279.716553 -262.429389 
L 279.68609 -260.725217 
L 279.65083 -259.021045 
L 279.611491 -257.316873 
L 279.568787 -255.612701 
L 279.523412 -253.908529 
L 279.476029 -252.204357 
L 279.427248 -250.500185 
L 279.377621 -248.796013 
L 279.327629 -247.091842 
L 279.27767 -245.38767 
L 279.228062 -243.683498 
L 279.179031 -241.979326 
L 279.130719 -240.275154 
L 279.083179 -238.570982 
L 279.036385 -236.86681 
L 278.990237 -235.162638 
L 278.94457 -233.458466 
L 278.899165 -231.754294 
L 278.853762 -230.050122 
L 278.80807 -228.34595 
L 278.761785 -226.641778 
L 278.714596 -224.937606 
L 278.666205 -223.233435 
L 278.616336 -221.529263 
L 278.564745 -219.825091 
L 278.511231 -218.120919 
L 278.455641 -216.416747 
L 278.39788 -214.712575 
L 278.337912 -213.008403 
L 278.27576 -211.304231 
L 278.211512 -209.600059 
L 278.145312 -207.895887 
L 278.077359 -206.191715 
L 278.007904 -204.487543 
L 277.937241 -202.783371 
L 277.865699 -201.0792 
L 277.793633 -199.375028 
L 277.721421 -197.670856 
L 277.649446 -195.966684 
L 277.578096 -194.262512 
L 277.50775 -192.55834 
L 277.438773 -190.854168 
L 277.371508 -189.149996 
L 277.30627 -187.445824 
L 277.243343 -185.741652 
L 277.182973 -184.03748 
L 277.125368 -182.333308 
L 277.070696 -180.629136 
L 277.019082 -178.924964 
L 276.970612 -177.220793 
L 276.925334 -175.516621 
L 276.883256 -173.812449 
L 276.844355 -172.108277 
L 276.808573 -170.404105 
L 276.775829 -168.699933 
L 276.746016 -166.995761 
z
" style="stroke: #3f3f3f; stroke-width: 1.5"/>
    </defs>
    <g clip-path="url(#pf913a88b2d)">
     <use xlink:href="#m83d7312241" x="0" y="370.686865" style="fill: #9fd495; stroke: #3f3f3f; stroke-width: 1.5"/>
    </g>
   </g>
   <g id="PolyCollection_4">
    <defs>
     <path id="m3128af6170" d="M 365.976028 -94.35274 
L 365.640222 -94.35274 
L 365.616085 -96.796377 
L 365.58934 -99.240013 
L 365.559844 -101.68365 
L 365.527468 -104.127286 
L 365.492099 -106.570922 
L 365.453643 -109.014559 
L 365.412031 -111.458195 
L 365.36722 -113.901831 
L 365.3192 -116.345468 
L 365.26799 -118.789104 
L 365.213649 -121.23274 
L 365.156272 -123.676377 
L 365.095994 -126.120013 
L 365.032991 -128.56365 
L 364.96748 -131.007286 
L 364.899718 -133.450922 
L 364.830001 -135.894559 
L 364.758664 -138.338195 
L 364.686073 -140.781831 
L 364.612626 -143.225468 
L 364.538748 -145.669104 
L 364.464882 -148.11274 
L 364.391489 -150.556377 
L 364.319036 -153.000013 
L 364.247995 -155.44365 
L 364.17883 -157.887286 
L 364.111996 -160.330922 
L 364.047928 -162.774559 
L 363.987034 -165.218195 
L 363.929694 -167.661831 
L 363.876245 -170.105468 
L 363.826985 -172.549104 
L 363.782163 -174.99274 
L 363.741977 -177.436377 
L 363.70657 -179.880013 
L 363.676031 -182.32365 
L 363.650393 -184.767286 
L 363.629635 -187.210922 
L 363.613682 -189.654559 
L 363.602408 -192.098195 
L 363.595644 -194.541831 
L 363.593177 -196.985468 
L 363.594761 -199.429104 
L 363.600121 -201.87274 
L 363.608961 -204.316377 
L 363.620971 -206.760013 
L 363.635834 -209.20365 
L 363.653238 -211.647286 
L 363.672876 -214.090922 
L 363.69446 -216.534559 
L 363.717722 -218.978195 
L 363.742423 -221.421831 
L 363.768356 -223.865468 
L 363.795351 -226.309104 
L 363.823275 -228.75274 
L 363.852032 -231.196377 
L 363.881568 -233.640013 
L 363.911862 -236.08365 
L 363.942931 -238.527286 
L 363.974818 -240.970922 
L 364.007594 -243.414559 
L 364.041349 -245.858195 
L 364.076185 -248.301831 
L 364.112211 -250.745468 
L 364.149538 -253.189104 
L 364.188266 -255.63274 
L 364.228486 -258.076377 
L 364.270268 -260.520013 
L 364.313657 -262.96365 
L 364.358671 -265.407286 
L 364.405297 -267.850922 
L 364.453487 -270.294559 
L 364.503159 -272.738195 
L 364.554197 -275.181831 
L 364.606452 -277.625468 
L 364.659744 -280.069104 
L 364.713865 -282.51274 
L 364.768584 -284.956377 
L 364.823652 -287.400013 
L 364.878806 -289.84365 
L 364.933774 -292.287286 
L 364.988282 -294.730922 
L 365.042061 -297.174559 
L 365.094848 -299.618195 
L 365.146392 -302.061831 
L 365.196463 -304.505468 
L 365.244849 -306.949104 
L 365.291363 -309.39274 
L 365.335846 -311.836377 
L 365.378164 -314.280013 
L 365.418216 -316.72365 
L 365.455926 -319.167286 
L 365.491249 -321.610922 
L 365.524167 -324.054559 
L 365.554687 -326.498195 
L 365.58284 -328.941831 
L 365.608678 -331.385468 
L 365.632273 -333.829104 
L 365.653712 -336.27274 
L 365.962538 -336.27274 
L 365.962538 -336.27274 
L 365.983977 -333.829104 
L 366.007572 -331.385468 
L 366.03341 -328.941831 
L 366.061563 -326.498195 
L 366.092083 -324.054559 
L 366.125001 -321.610922 
L 366.160324 -319.167286 
L 366.198034 -316.72365 
L 366.238086 -314.280013 
L 366.280404 -311.836377 
L 366.324887 -309.39274 
L 366.371401 -306.949104 
L 366.419787 -304.505468 
L 366.469858 -302.061831 
L 366.521402 -299.618195 
L 366.574189 -297.174559 
L 366.627968 -294.730922 
L 366.682476 -292.287286 
L 366.737444 -289.84365 
L 366.792598 -287.400013 
L 366.847666 -284.956377 
L 366.902385 -282.51274 
L 366.956506 -280.069104 
L 367.009798 -277.625468 
L 367.062053 -275.181831 
L 367.113091 -272.738195 
L 367.162763 -270.294559 
L 367.210953 -267.850922 
L 367.257579 -265.407286 
L 367.302593 -262.96365 
L 367.345982 -260.520013 
L 367.387764 -258.076377 
L 367.427984 -255.63274 
L 367.466712 -253.189104 
L 367.504039 -250.745468 
L 367.540065 -248.301831 
L 367.574901 -245.858195 
L 367.608656 -243.414559 
L 367.641432 -240.970922 
L 367.673319 -238.527286 
L 367.704388 -236.08365 
L 367.734682 -233.640013 
L 367.764218 -231.196377 
L 367.792975 -228.75274 
L 367.820899 -226.309104 
L 367.847894 -223.865468 
L 367.873827 -221.421831 
L 367.898528 -218.978195 
L 367.92179 -216.534559 
L 367.943374 -214.090922 
L 367.963012 -211.647286 
L 367.980416 -209.20365 
L 367.995279 -206.760013 
L 368.007289 -204.316377 
L 368.016129 -201.87274 
L 368.021489 -199.429104 
L 368.023073 -196.985468 
L 368.020606 -194.541831 
L 368.013842 -192.098195 
L 368.002568 -189.654559 
L 367.986615 -187.210922 
L 367.965857 -184.767286 
L 367.940219 -182.32365 
L 367.90968 -179.880013 
L 367.874273 -177.436377 
L 367.834087 -174.99274 
L 367.789265 -172.549104 
L 367.740005 -170.105468 
L 367.686556 -167.661831 
L 367.629216 -165.218195 
L 367.568322 -162.774559 
L 367.504254 -160.330922 
L 367.43742 -157.887286 
L 367.368255 -155.44365 
L 367.297214 -153.000013 
L 367.224761 -150.556377 
L 367.151368 -148.11274 
L 367.077502 -145.669104 
L 367.003624 -143.225468 
L 366.930177 -140.781831 
L 366.857586 -138.338195 
L 366.786249 -135.894559 
L 366.716532 -133.450922 
L 366.64877 -131.007286 
L 366.583259 -128.56365 
L 366.520256 -126.120013 
L 366.459978 -123.676377 
L 366.402601 -121.23274 
L 366.34826 -118.789104 
L 366.29705 -116.345468 
L 366.24903 -113.901831 
L 366.204219 -111.458195 
L 366.162607 -109.014559 
L 366.124151 -106.570922 
L 366.088782 -104.127286 
L 366.056406 -101.68365 
L 366.02691 -99.240013 
L 366.000165 -96.796377 
L 365.976028 -94.35274 
z
" style="stroke: #3f3f3f; stroke-width: 1.5"/>
    </defs>
    <g clip-path="url(#pf913a88b2d)">
     <use xlink:href="#m3128af6170" x="0" y="370.686865" style="fill: #3274a1; stroke: #3f3f3f; stroke-width: 1.5"/>
    </g>
   </g>
   <g id="matplotlib.axis_1">
    <g id="xtick_1">
     <g id="line2d_1">
      <defs>
       <path id="m405b67a9f7" d="M 0 0 
L 0 3.5 
" style="stroke: #000000; stroke-width: 0.8"/>
      </defs>
      <g>
       <use xlink:href="#m405b67a9f7" x="97.968125" y="288.430125" style="stroke: #000000; stroke-width: 0.8"/>
      </g>
     </g>
     <g id="text_1">
      <!-- aflplusplus_ast_o2 -->
      <g transform="translate(17.537069 347.766815)rotate(-30)scale(0.1 -0.1)">
       <defs>
        <path id="DejaVuSans-61" d="M 2194 1759 
Q 1497 1759 1228 1600 
Q 959 1441 959 1056 
Q 959 750 1161 570 
Q 1363 391 1709 391 
Q 2188 391 2477 730 
Q 2766 1069 2766 1631 
L 2766 1759 
L 2194 1759 
z
M 3341 1997 
L 3341 0 
L 2766 0 
L 2766 531 
Q 2569 213 2275 61 
Q 1981 -91 1556 -91 
Q 1019 -91 701 211 
Q 384 513 384 1019 
Q 384 1609 779 1909 
Q 1175 2209 1959 2209 
L 2766 2209 
L 2766 2266 
Q 2766 2663 2505 2880 
Q 2244 3097 1772 3097 
Q 1472 3097 1187 3025 
Q 903 2953 641 2809 
L 641 3341 
Q 956 3463 1253 3523 
Q 1550 3584 1831 3584 
Q 2591 3584 2966 3190 
Q 3341 2797 3341 1997 
z
" transform="scale(0.015625)"/>
        <path id="DejaVuSans-66" d="M 2375 4863 
L 2375 4384 
L 1825 4384 
Q 1516 4384 1395 4259 
Q 1275 4134 1275 3809 
L 1275 3500 
L 2222 3500 
L 2222 3053 
L 1275 3053 
L 1275 0 
L 697 0 
L 697 3053 
L 147 3053 
L 147 3500 
L 697 3500 
L 697 3744 
Q 697 4328 969 4595 
Q 1241 4863 1831 4863 
L 2375 4863 
z
" transform="scale(0.015625)"/>
        <path id="DejaVuSans-6c" d="M 603 4863 
L 1178 4863 
L 1178 0 
L 603 0 
L 603 4863 
z
" transform="scale(0.015625)"/>
        <path id="DejaVuSans-70" d="M 1159 525 
L 1159 -1331 
L 581 -1331 
L 581 3500 
L 1159 3500 
L 1159 2969 
Q 1341 3281 1617 3432 
Q 1894 3584 2278 3584 
Q 2916 3584 3314 3078 
Q 3713 2572 3713 1747 
Q 3713 922 3314 415 
Q 2916 -91 2278 -91 
Q 1894 -91 1617 61 
Q 1341 213 1159 525 
z
M 3116 1747 
Q 3116 2381 2855 2742 
Q 2594 3103 2138 3103 
Q 1681 3103 1420 2742 
Q 1159 2381 1159 1747 
Q 1159 1113 1420 752 
Q 1681 391 2138 391 
Q 2594 391 2855 752 
Q 3116 1113 3116 1747 
z
" transform="scale(0.015625)"/>
        <path id="DejaVuSans-75" d="M 544 1381 
L 544 3500 
L 1119 3500 
L 1119 1403 
Q 1119 906 1312 657 
Q 1506 409 1894 409 
Q 2359 409 2629 706 
Q 2900 1003 2900 1516 
L 2900 3500 
L 3475 3500 
L 3475 0 
L 2900 0 
L 2900 538 
Q 2691 219 2414 64 
Q 2138 -91 1772 -91 
Q 1169 -91 856 284 
Q 544 659 544 1381 
z
M 1991 3584 
L 1991 3584 
z
" transform="scale(0.015625)"/>
        <path id="DejaVuSans-73" d="M 2834 3397 
L 2834 2853 
Q 2591 2978 2328 3040 
Q 2066 3103 1784 3103 
Q 1356 3103 1142 2972 
Q 928 2841 928 2578 
Q 928 2378 1081 2264 
Q 1234 2150 1697 2047 
L 1894 2003 
Q 2506 1872 2764 1633 
Q 3022 1394 3022 966 
Q 3022 478 2636 193 
Q 2250 -91 1575 -91 
Q 1294 -91 989 -36 
Q 684 19 347 128 
L 347 722 
Q 666 556 975 473 
Q 1284 391 1588 391 
Q 1994 391 2212 530 
Q 2431 669 2431 922 
Q 2431 1156 2273 1281 
Q 2116 1406 1581 1522 
L 1381 1569 
Q 847 1681 609 1914 
Q 372 2147 372 2553 
Q 372 3047 722 3315 
Q 1072 3584 1716 3584 
Q 2034 3584 2315 3537 
Q 2597 3491 2834 3397 
z
" transform="scale(0.015625)"/>
        <path id="DejaVuSans-5f" d="M 3263 -1063 
L 3263 -1509 
L -63 -1509 
L -63 -1063 
L 3263 -1063 
z
" transform="scale(0.015625)"/>
        <path id="DejaVuSans-74" d="M 1172 4494 
L 1172 3500 
L 2356 3500 
L 2356 3053 
L 1172 3053 
L 1172 1153 
Q 1172 725 1289 603 
Q 1406 481 1766 481 
L 2356 481 
L 2356 0 
L 1766 0 
Q 1100 0 847 248 
Q 594 497 594 1153 
L 594 3053 
L 172 3053 
L 172 3500 
L 594 3500 
L 594 4494 
L 1172 4494 
z
" transform="scale(0.015625)"/>
        <path id="DejaVuSans-6f" d="M 1959 3097 
Q 1497 3097 1228 2736 
Q 959 2375 959 1747 
Q 959 1119 1226 758 
Q 1494 397 1959 397 
Q 2419 397 2687 759 
Q 2956 1122 2956 1747 
Q 2956 2369 2687 2733 
Q 2419 3097 1959 3097 
z
M 1959 3584 
Q 2709 3584 3137 3096 
Q 3566 2609 3566 1747 
Q 3566 888 3137 398 
Q 2709 -91 1959 -91 
Q 1206 -91 779 398 
Q 353 888 353 1747 
Q 353 2609 779 3096 
Q 1206 3584 1959 3584 
z
" transform="scale(0.015625)"/>
        <path id="DejaVuSans-32" d="M 1228 531 
L 3431 531 
L 3431 0 
L 469 0 
L 469 531 
Q 828 903 1448 1529 
Q 2069 2156 2228 2338 
Q 2531 2678 2651 2914 
Q 2772 3150 2772 3378 
Q 2772 3750 2511 3984 
Q 2250 4219 1831 4219 
Q 1534 4219 1204 4116 
Q 875 4013 500 3803 
L 500 4441 
Q 881 4594 1212 4672 
Q 1544 4750 1819 4750 
Q 2544 4750 2975 4387 
Q 3406 4025 3406 3419 
Q 3406 3131 3298 2873 
Q 3191 2616 2906 2266 
Q 2828 2175 2409 1742 
Q 1991 1309 1228 531 
z
" transform="scale(0.015625)"/>
       </defs>
       <use xlink:href="#DejaVuSans-61"/>
       <use xlink:href="#DejaVuSans-66" x="61.279297"/>
       <use xlink:href="#DejaVuSans-6c" x="96.484375"/>
       <use xlink:href="#DejaVuSans-70" x="124.267578"/>
       <use xlink:href="#DejaVuSans-6c" x="187.744141"/>
       <use xlink:href="#DejaVuSans-75" x="215.527344"/>
       <use xlink:href="#DejaVuSans-73" x="278.90625"/>
       <use xlink:href="#DejaVuSans-70" x="331.005859"/>
       <use xlink:href="#DejaVuSans-6c" x="394.482422"/>
       <use xlink:href="#DejaVuSans-75" x="422.265625"/>
       <use xlink:href="#DejaVuSans-73" x="485.644531"/>
       <use xlink:href="#DejaVuSans-5f" x="537.744141"/>
       <use xlink:href="#DejaVuSans-61" x="587.744141"/>
       <use xlink:href="#DejaVuSans-73" x="649.023438"/>
       <use xlink:href="#DejaVuSans-74" x="701.123047"/>
       <use xlink:href="#DejaVuSans-5f" x="740.332031"/>
       <use xlink:href="#DejaVuSans-6f" x="790.332031"/>
       <use xlink:href="#DejaVuSans-32" x="851.513672"/>
      </g>
     </g>
    </g>
    <g id="xtick_2">
     <g id="line2d_2">
      <g>
       <use xlink:href="#m405b67a9f7" x="187.248125" y="288.430125" style="stroke: #000000; stroke-width: 0.8"/>
      </g>
     </g>
     <g id="text_2">
      <!-- aflplusplus_ast_o3 -->
      <g transform="translate(106.817069 347.766815)rotate(-30)scale(0.1 -0.1)">
       <defs>
        <path id="DejaVuSans-33" d="M 2597 2516 
Q 3050 2419 3304 2112 
Q 3559 1806 3559 1356 
Q 3559 666 3084 287 
Q 2609 -91 1734 -91 
Q 1441 -91 1130 -33 
Q 819 25 488 141 
L 488 750 
Q 750 597 1062 519 
Q 1375 441 1716 441 
Q 2309 441 2620 675 
Q 2931 909 2931 1356 
Q 2931 1769 2642 2001 
Q 2353 2234 1838 2234 
L 1294 2234 
L 1294 2753 
L 1863 2753 
Q 2328 2753 2575 2939 
Q 2822 3125 2822 3475 
Q 2822 3834 2567 4026 
Q 2313 4219 1838 4219 
Q 1578 4219 1281 4162 
Q 984 4106 628 3988 
L 628 4550 
Q 988 4650 1302 4700 
Q 1616 4750 1894 4750 
Q 2613 4750 3031 4423 
Q 3450 4097 3450 3541 
Q 3450 3153 3228 2886 
Q 3006 2619 2597 2516 
z
" transform="scale(0.015625)"/>
       </defs>
       <use xlink:href="#DejaVuSans-61"/>
       <use xlink:href="#DejaVuSans-66" x="61.279297"/>
       <use xlink:href="#DejaVuSans-6c" x="96.484375"/>
       <use xlink:href="#DejaVuSans-70" x="124.267578"/>
       <use xlink:href="#DejaVuSans-6c" x="187.744141"/>
       <use xlink:href="#DejaVuSans-75" x="215.527344"/>
       <use xlink:href="#DejaVuSans-73" x="278.90625"/>
       <use xlink:href="#DejaVuSans-70" x="331.005859"/>
       <use xlink:href="#DejaVuSans-6c" x="394.482422"/>
       <use xlink:href="#DejaVuSans-75" x="422.265625"/>
       <use xlink:href="#DejaVuSans-73" x="485.644531"/>
       <use xlink:href="#DejaVuSans-5f" x="537.744141"/>
       <use xlink:href="#DejaVuSans-61" x="587.744141"/>
       <use xlink:href="#DejaVuSans-73" x="649.023438"/>
       <use xlink:href="#DejaVuSans-74" x="701.123047"/>
       <use xlink:href="#DejaVuSans-5f" x="740.332031"/>
       <use xlink:href="#DejaVuSans-6f" x="790.332031"/>
       <use xlink:href="#DejaVuSans-33" x="851.513672"/>
      </g>
     </g>
    </g>
    <g id="xtick_3">
     <g id="line2d_3">
      <g>
       <use xlink:href="#m405b67a9f7" x="276.528125" y="288.430125" style="stroke: #000000; stroke-width: 0.8"/>
      </g>
     </g>
     <g id="text_3">
      <!-- aflplusplus_ast_o1 -->
      <g transform="translate(196.097069 347.766815)rotate(-30)scale(0.1 -0.1)">
       <defs>
        <path id="DejaVuSans-31" d="M 794 531 
L 1825 531 
L 1825 4091 
L 703 3866 
L 703 4441 
L 1819 4666 
L 2450 4666 
L 2450 531 
L 3481 531 
L 3481 0 
L 794 0 
L 794 531 
z
" transform="scale(0.015625)"/>
       </defs>
       <use xlink:href="#DejaVuSans-61"/>
       <use xlink:href="#DejaVuSans-66" x="61.279297"/>
       <use xlink:href="#DejaVuSans-6c" x="96.484375"/>
       <use xlink:href="#DejaVuSans-70" x="124.267578"/>
       <use xlink:href="#DejaVuSans-6c" x="187.744141"/>
       <use xlink:href="#DejaVuSans-75" x="215.527344"/>
       <use xlink:href="#DejaVuSans-73" x="278.90625"/>
       <use xlink:href="#DejaVuSans-70" x="331.005859"/>
       <use xlink:href="#DejaVuSans-6c" x="394.482422"/>
       <use xlink:href="#DejaVuSans-75" x="422.265625"/>
       <use xlink:href="#DejaVuSans-73" x="485.644531"/>
       <use xlink:href="#DejaVuSans-5f" x="537.744141"/>
       <use xlink:href="#DejaVuSans-61" x="587.744141"/>
       <use xlink:href="#DejaVuSans-73" x="649.023438"/>
       <use xlink:href="#DejaVuSans-74" x="701.123047"/>
       <use xlink:href="#DejaVuSans-5f" x="740.332031"/>
       <use xlink:href="#DejaVuSans-6f" x="790.332031"/>
       <use xlink:href="#DejaVuSans-31" x="851.513672"/>
      </g>
     </g>
    </g>
    <g id="xtick_4">
     <g id="line2d_4">
      <g>
       <use xlink:href="#m405b67a9f7" x="365.808125" y="288.430125" style="stroke: #000000; stroke-width: 0.8"/>
      </g>
     </g>
     <g id="text_4">
      <!-- aflplusplus_ast_o0 -->
      <g transform="translate(285.377069 347.766815)rotate(-30)scale(0.1 -0.1)">
       <defs>
        <path id="DejaVuSans-30" d="M 2034 4250 
Q 1547 4250 1301 3770 
Q 1056 3291 1056 2328 
Q 1056 1369 1301 889 
Q 1547 409 2034 409 
Q 2525 409 2770 889 
Q 3016 1369 3016 2328 
Q 3016 3291 2770 3770 
Q 2525 4250 2034 4250 
z
M 2034 4750 
Q 2819 4750 3233 4129 
Q 3647 3509 3647 2328 
Q 3647 1150 3233 529 
Q 2819 -91 2034 -91 
Q 1250 -91 836 529 
Q 422 1150 422 2328 
Q 422 3509 836 4129 
Q 1250 4750 2034 4750 
z
" transform="scale(0.015625)"/>
       </defs>
       <use xlink:href="#DejaVuSans-61"/>
       <use xlink:href="#DejaVuSans-66" x="61.279297"/>
       <use xlink:href="#DejaVuSans-6c" x="96.484375"/>
       <use xlink:href="#DejaVuSans-70" x="124.267578"/>
       <use xlink:href="#DejaVuSans-6c" x="187.744141"/>
       <use xlink:href="#DejaVuSans-75" x="215.527344"/>
       <use xlink:href="#DejaVuSans-73" x="278.90625"/>
       <use xlink:href="#DejaVuSans-70" x="331.005859"/>
       <use xlink:href="#DejaVuSans-6c" x="394.482422"/>
       <use xlink:href="#DejaVuSans-75" x="422.265625"/>
       <use xlink:href="#DejaVuSans-73" x="485.644531"/>
       <use xlink:href="#DejaVuSans-5f" x="537.744141"/>
       <use xlink:href="#DejaVuSans-61" x="587.744141"/>
       <use xlink:href="#DejaVuSans-73" x="649.023438"/>
       <use xlink:href="#DejaVuSans-74" x="701.123047"/>
       <use xlink:href="#DejaVuSans-5f" x="740.332031"/>
       <use xlink:href="#DejaVuSans-6f" x="790.332031"/>
       <use xlink:href="#DejaVuSans-30" x="851.513672"/>
      </g>
     </g>
    </g>
    <g id="text_5">
     <!-- Fuzzer (highest median coverage on the left) -->
     <g transform="translate(119.270156 361.407178)scale(0.1 -0.1)">
      <defs>
       <path id="DejaVuSans-46" d="M 628 4666 
L 3309 4666 
L 3309 4134 
L 1259 4134 
L 1259 2759 
L 3109 2759 
L 3109 2228 
L 1259 2228 
L 1259 0 
L 628 0 
L 628 4666 
z
" transform="scale(0.015625)"/>
       <path id="DejaVuSans-7a" d="M 353 3500 
L 3084 3500 
L 3084 2975 
L 922 459 
L 3084 459 
L 3084 0 
L 275 0 
L 275 525 
L 2438 3041 
L 353 3041 
L 353 3500 
z
" transform="scale(0.015625)"/>
       <path id="DejaVuSans-65" d="M 3597 1894 
L 3597 1613 
L 953 1613 
Q 991 1019 1311 708 
Q 1631 397 2203 397 
Q 2534 397 2845 478 
Q 3156 559 3463 722 
L 3463 178 
Q 3153 47 2828 -22 
Q 2503 -91 2169 -91 
Q 1331 -91 842 396 
Q 353 884 353 1716 
Q 353 2575 817 3079 
Q 1281 3584 2069 3584 
Q 2775 3584 3186 3129 
Q 3597 2675 3597 1894 
z
M 3022 2063 
Q 3016 2534 2758 2815 
Q 2500 3097 2075 3097 
Q 1594 3097 1305 2825 
Q 1016 2553 972 2059 
L 3022 2063 
z
" transform="scale(0.015625)"/>
       <path id="DejaVuSans-72" d="M 2631 2963 
Q 2534 3019 2420 3045 
Q 2306 3072 2169 3072 
Q 1681 3072 1420 2755 
Q 1159 2438 1159 1844 
L 1159 0 
L 581 0 
L 581 3500 
L 1159 3500 
L 1159 2956 
Q 1341 3275 1631 3429 
Q 1922 3584 2338 3584 
Q 2397 3584 2469 3576 
Q 2541 3569 2628 3553 
L 2631 2963 
z
" transform="scale(0.015625)"/>
       <path id="DejaVuSans-20" transform="scale(0.015625)"/>
       <path id="DejaVuSans-28" d="M 1984 4856 
Q 1566 4138 1362 3434 
Q 1159 2731 1159 2009 
Q 1159 1288 1364 580 
Q 1569 -128 1984 -844 
L 1484 -844 
Q 1016 -109 783 600 
Q 550 1309 550 2009 
Q 550 2706 781 3412 
Q 1013 4119 1484 4856 
L 1984 4856 
z
" transform="scale(0.015625)"/>
       <path id="DejaVuSans-68" d="M 3513 2113 
L 3513 0 
L 2938 0 
L 2938 2094 
Q 2938 2591 2744 2837 
Q 2550 3084 2163 3084 
Q 1697 3084 1428 2787 
Q 1159 2491 1159 1978 
L 1159 0 
L 581 0 
L 581 4863 
L 1159 4863 
L 1159 2956 
Q 1366 3272 1645 3428 
Q 1925 3584 2291 3584 
Q 2894 3584 3203 3211 
Q 3513 2838 3513 2113 
z
" transform="scale(0.015625)"/>
       <path id="DejaVuSans-69" d="M 603 3500 
L 1178 3500 
L 1178 0 
L 603 0 
L 603 3500 
z
M 603 4863 
L 1178 4863 
L 1178 4134 
L 603 4134 
L 603 4863 
z
" transform="scale(0.015625)"/>
       <path id="DejaVuSans-67" d="M 2906 1791 
Q 2906 2416 2648 2759 
Q 2391 3103 1925 3103 
Q 1463 3103 1205 2759 
Q 947 2416 947 1791 
Q 947 1169 1205 825 
Q 1463 481 1925 481 
Q 2391 481 2648 825 
Q 2906 1169 2906 1791 
z
M 3481 434 
Q 3481 -459 3084 -895 
Q 2688 -1331 1869 -1331 
Q 1566 -1331 1297 -1286 
Q 1028 -1241 775 -1147 
L 775 -588 
Q 1028 -725 1275 -790 
Q 1522 -856 1778 -856 
Q 2344 -856 2625 -561 
Q 2906 -266 2906 331 
L 2906 616 
Q 2728 306 2450 153 
Q 2172 0 1784 0 
Q 1141 0 747 490 
Q 353 981 353 1791 
Q 353 2603 747 3093 
Q 1141 3584 1784 3584 
Q 2172 3584 2450 3431 
Q 2728 3278 2906 2969 
L 2906 3500 
L 3481 3500 
L 3481 434 
z
" transform="scale(0.015625)"/>
       <path id="DejaVuSans-6d" d="M 3328 2828 
Q 3544 3216 3844 3400 
Q 4144 3584 4550 3584 
Q 5097 3584 5394 3201 
Q 5691 2819 5691 2113 
L 5691 0 
L 5113 0 
L 5113 2094 
Q 5113 2597 4934 2840 
Q 4756 3084 4391 3084 
Q 3944 3084 3684 2787 
Q 3425 2491 3425 1978 
L 3425 0 
L 2847 0 
L 2847 2094 
Q 2847 2600 2669 2842 
Q 2491 3084 2119 3084 
Q 1678 3084 1418 2786 
Q 1159 2488 1159 1978 
L 1159 0 
L 581 0 
L 581 3500 
L 1159 3500 
L 1159 2956 
Q 1356 3278 1631 3431 
Q 1906 3584 2284 3584 
Q 2666 3584 2933 3390 
Q 3200 3197 3328 2828 
z
" transform="scale(0.015625)"/>
       <path id="DejaVuSans-64" d="M 2906 2969 
L 2906 4863 
L 3481 4863 
L 3481 0 
L 2906 0 
L 2906 525 
Q 2725 213 2448 61 
Q 2172 -91 1784 -91 
Q 1150 -91 751 415 
Q 353 922 353 1747 
Q 353 2572 751 3078 
Q 1150 3584 1784 3584 
Q 2172 3584 2448 3432 
Q 2725 3281 2906 2969 
z
M 947 1747 
Q 947 1113 1208 752 
Q 1469 391 1925 391 
Q 2381 391 2643 752 
Q 2906 1113 2906 1747 
Q 2906 2381 2643 2742 
Q 2381 3103 1925 3103 
Q 1469 3103 1208 2742 
Q 947 2381 947 1747 
z
" transform="scale(0.015625)"/>
       <path id="DejaVuSans-6e" d="M 3513 2113 
L 3513 0 
L 2938 0 
L 2938 2094 
Q 2938 2591 2744 2837 
Q 2550 3084 2163 3084 
Q 1697 3084 1428 2787 
Q 1159 2491 1159 1978 
L 1159 0 
L 581 0 
L 581 3500 
L 1159 3500 
L 1159 2956 
Q 1366 3272 1645 3428 
Q 1925 3584 2291 3584 
Q 2894 3584 3203 3211 
Q 3513 2838 3513 2113 
z
" transform="scale(0.015625)"/>
       <path id="DejaVuSans-63" d="M 3122 3366 
L 3122 2828 
Q 2878 2963 2633 3030 
Q 2388 3097 2138 3097 
Q 1578 3097 1268 2742 
Q 959 2388 959 1747 
Q 959 1106 1268 751 
Q 1578 397 2138 397 
Q 2388 397 2633 464 
Q 2878 531 3122 666 
L 3122 134 
Q 2881 22 2623 -34 
Q 2366 -91 2075 -91 
Q 1284 -91 818 406 
Q 353 903 353 1747 
Q 353 2603 823 3093 
Q 1294 3584 2113 3584 
Q 2378 3584 2631 3529 
Q 2884 3475 3122 3366 
z
" transform="scale(0.015625)"/>
       <path id="DejaVuSans-76" d="M 191 3500 
L 800 3500 
L 1894 563 
L 2988 3500 
L 3597 3500 
L 2284 0 
L 1503 0 
L 191 3500 
z
" transform="scale(0.015625)"/>
       <path id="DejaVuSans-29" d="M 513 4856 
L 1013 4856 
Q 1481 4119 1714 3412 
Q 1947 2706 1947 2009 
Q 1947 1309 1714 600 
Q 1481 -109 1013 -844 
L 513 -844 
Q 928 -128 1133 580 
Q 1338 1288 1338 2009 
Q 1338 2731 1133 3434 
Q 928 4138 513 4856 
z
" transform="scale(0.015625)"/>
      </defs>
      <use xlink:href="#DejaVuSans-46"/>
      <use xlink:href="#DejaVuSans-75" x="52.019531"/>
      <use xlink:href="#DejaVuSans-7a" x="115.398438"/>
      <use xlink:href="#DejaVuSans-7a" x="167.888672"/>
      <use xlink:href="#DejaVuSans-65" x="220.378906"/>
      <use xlink:href="#DejaVuSans-72" x="281.902344"/>
      <use xlink:href="#DejaVuSans-20" x="323.015625"/>
      <use xlink:href="#DejaVuSans-28" x="354.802734"/>
      <use xlink:href="#DejaVuSans-68" x="393.816406"/>
      <use xlink:href="#DejaVuSans-69" x="457.195312"/>
      <use xlink:href="#DejaVuSans-67" x="484.978516"/>
      <use xlink:href="#DejaVuSans-68" x="548.455078"/>
      <use xlink:href="#DejaVuSans-65" x="611.833984"/>
      <use xlink:href="#DejaVuSans-73" x="673.357422"/>
      <use xlink:href="#DejaVuSans-74" x="725.457031"/>
      <use xlink:href="#DejaVuSans-20" x="764.666016"/>
      <use xlink:href="#DejaVuSans-6d" x="796.453125"/>
      <use xlink:href="#DejaVuSans-65" x="893.865234"/>
      <use xlink:href="#DejaVuSans-64" x="955.388672"/>
      <use xlink:href="#DejaVuSans-69" x="1018.865234"/>
      <use xlink:href="#DejaVuSans-61" x="1046.648438"/>
      <use xlink:href="#DejaVuSans-6e" x="1107.927734"/>
      <use xlink:href="#DejaVuSans-20" x="1171.306641"/>
      <use xlink:href="#DejaVuSans-63" x="1203.09375"/>
      <use xlink:href="#DejaVuSans-6f" x="1258.074219"/>
      <use xlink:href="#DejaVuSans-76" x="1319.255859"/>
      <use xlink:href="#DejaVuSans-65" x="1378.435547"/>
      <use xlink:href="#DejaVuSans-72" x="1439.958984"/>
      <use xlink:href="#DejaVuSans-61" x="1481.072266"/>
      <use xlink:href="#DejaVuSans-67" x="1542.351562"/>
      <use xlink:href="#DejaVuSans-65" x="1605.828125"/>
      <use xlink:href="#DejaVuSans-20" x="1667.351562"/>
      <use xlink:href="#DejaVuSans-6f" x="1699.138672"/>
      <use xlink:href="#DejaVuSans-6e" x="1760.320312"/>
      <use xlink:href="#DejaVuSans-20" x="1823.699219"/>
      <use xlink:href="#DejaVuSans-74" x="1855.486328"/>
      <use xlink:href="#DejaVuSans-68" x="1894.695312"/>
      <use xlink:href="#DejaVuSans-65" x="1958.074219"/>
      <use xlink:href="#DejaVuSans-20" x="2019.597656"/>
      <use xlink:href="#DejaVuSans-6c" x="2051.384766"/>
      <use xlink:href="#DejaVuSans-65" x="2079.167969"/>
      <use xlink:href="#DejaVuSans-66" x="2140.691406"/>
      <use xlink:href="#DejaVuSans-74" x="2174.146484"/>
      <use xlink:href="#DejaVuSans-29" x="2213.355469"/>
     </g>
    </g>
   </g>
   <g id="matplotlib.axis_2">
    <g id="ytick_1">
     <g id="line2d_5">
      <defs>
       <path id="m3f6bef3879" d="M 0 0 
L -3.5 0 
" style="stroke: #000000; stroke-width: 0.8"/>
      </defs>
      <g>
       <use xlink:href="#m3f6bef3879" x="53.328125" y="286.558018" style="stroke: #000000; stroke-width: 0.8"/>
      </g>
     </g>
     <g id="text_6">
      <!-- 2025 -->
      <g transform="translate(20.878125 290.357236)scale(0.1 -0.1)">
       <defs>
        <path id="DejaVuSans-35" d="M 691 4666 
L 3169 4666 
L 3169 4134 
L 1269 4134 
L 1269 2991 
Q 1406 3038 1543 3061 
Q 1681 3084 1819 3084 
Q 2600 3084 3056 2656 
Q 3513 2228 3513 1497 
Q 3513 744 3044 326 
Q 2575 -91 1722 -91 
Q 1428 -91 1123 -41 
Q 819 9 494 109 
L 494 744 
Q 775 591 1075 516 
Q 1375 441 1709 441 
Q 2250 441 2565 725 
Q 2881 1009 2881 1497 
Q 2881 1984 2565 2268 
Q 2250 2553 1709 2553 
Q 1456 2553 1204 2497 
Q 953 2441 691 2322 
L 691 4666 
z
" transform="scale(0.015625)"/>
       </defs>
       <use xlink:href="#DejaVuSans-32"/>
       <use xlink:href="#DejaVuSans-30" x="63.623047"/>
       <use xlink:href="#DejaVuSans-32" x="127.246094"/>
       <use xlink:href="#DejaVuSans-35" x="190.869141"/>
      </g>
     </g>
    </g>
    <g id="ytick_2">
     <g id="line2d_6">
      <g>
       <use xlink:href="#m3f6bef3879" x="53.328125" y="250.518487" style="stroke: #000000; stroke-width: 0.8"/>
      </g>
     </g>
     <g id="text_7">
      <!-- 2050 -->
      <g transform="translate(20.878125 254.317705)scale(0.1 -0.1)">
       <use xlink:href="#DejaVuSans-32"/>
       <use xlink:href="#DejaVuSans-30" x="63.623047"/>
       <use xlink:href="#DejaVuSans-35" x="127.246094"/>
       <use xlink:href="#DejaVuSans-30" x="190.869141"/>
      </g>
     </g>
    </g>
    <g id="ytick_3">
     <g id="line2d_7">
      <g>
       <use xlink:href="#m3f6bef3879" x="53.328125" y="214.478956" style="stroke: #000000; stroke-width: 0.8"/>
      </g>
     </g>
     <g id="text_8">
      <!-- 2075 -->
      <g transform="translate(20.878125 218.278174)scale(0.1 -0.1)">
       <defs>
        <path id="DejaVuSans-37" d="M 525 4666 
L 3525 4666 
L 3525 4397 
L 1831 0 
L 1172 0 
L 2766 4134 
L 525 4134 
L 525 4666 
z
" transform="scale(0.015625)"/>
       </defs>
       <use xlink:href="#DejaVuSans-32"/>
       <use xlink:href="#DejaVuSans-30" x="63.623047"/>
       <use xlink:href="#DejaVuSans-37" x="127.246094"/>
       <use xlink:href="#DejaVuSans-35" x="190.869141"/>
      </g>
     </g>
    </g>
    <g id="ytick_4">
     <g id="line2d_8">
      <g>
       <use xlink:href="#m3f6bef3879" x="53.328125" y="178.439425" style="stroke: #000000; stroke-width: 0.8"/>
      </g>
     </g>
     <g id="text_9">
      <!-- 2100 -->
      <g transform="translate(20.878125 182.238644)scale(0.1 -0.1)">
       <use xlink:href="#DejaVuSans-32"/>
       <use xlink:href="#DejaVuSans-31" x="63.623047"/>
       <use xlink:href="#DejaVuSans-30" x="127.246094"/>
       <use xlink:href="#DejaVuSans-30" x="190.869141"/>
      </g>
     </g>
    </g>
    <g id="ytick_5">
     <g id="line2d_9">
      <g>
       <use xlink:href="#m3f6bef3879" x="53.328125" y="142.399894" style="stroke: #000000; stroke-width: 0.8"/>
      </g>
     </g>
     <g id="text_10">
      <!-- 2125 -->
      <g transform="translate(20.878125 146.199113)scale(0.1 -0.1)">
       <use xlink:href="#DejaVuSans-32"/>
       <use xlink:href="#DejaVuSans-31" x="63.623047"/>
       <use xlink:href="#DejaVuSans-32" x="127.246094"/>
       <use xlink:href="#DejaVuSans-35" x="190.869141"/>
      </g>
     </g>
    </g>
    <g id="ytick_6">
     <g id="line2d_10">
      <g>
       <use xlink:href="#m3f6bef3879" x="53.328125" y="106.360363" style="stroke: #000000; stroke-width: 0.8"/>
      </g>
     </g>
     <g id="text_11">
      <!-- 2150 -->
      <g transform="translate(20.878125 110.159582)scale(0.1 -0.1)">
       <use xlink:href="#DejaVuSans-32"/>
       <use xlink:href="#DejaVuSans-31" x="63.623047"/>
       <use xlink:href="#DejaVuSans-35" x="127.246094"/>
       <use xlink:href="#DejaVuSans-30" x="190.869141"/>
      </g>
     </g>
    </g>
    <g id="ytick_7">
     <g id="line2d_11">
      <g>
       <use xlink:href="#m3f6bef3879" x="53.328125" y="70.320832" style="stroke: #000000; stroke-width: 0.8"/>
      </g>
     </g>
     <g id="text_12">
      <!-- 2175 -->
      <g transform="translate(20.878125 74.120051)scale(0.1 -0.1)">
       <use xlink:href="#DejaVuSans-32"/>
       <use xlink:href="#DejaVuSans-31" x="63.623047"/>
       <use xlink:href="#DejaVuSans-37" x="127.246094"/>
       <use xlink:href="#DejaVuSans-35" x="190.869141"/>
      </g>
     </g>
    </g>
    <g id="ytick_8">
     <g id="line2d_12">
      <g>
       <use xlink:href="#m3f6bef3879" x="53.328125" y="34.281301" style="stroke: #000000; stroke-width: 0.8"/>
      </g>
     </g>
     <g id="text_13">
      <!-- 2200 -->
      <g transform="translate(20.878125 38.08052)scale(0.1 -0.1)">
       <use xlink:href="#DejaVuSans-32"/>
       <use xlink:href="#DejaVuSans-32" x="63.623047"/>
       <use xlink:href="#DejaVuSans-30" x="127.246094"/>
       <use xlink:href="#DejaVuSans-30" x="190.869141"/>
      </g>
     </g>
    </g>
    <g id="text_14">
     <!-- Reached region coverage -->
     <g transform="translate(14.798438 219.136625)rotate(-90)scale(0.1 -0.1)">
      <defs>
       <path id="DejaVuSans-52" d="M 2841 2188 
Q 3044 2119 3236 1894 
Q 3428 1669 3622 1275 
L 4263 0 
L 3584 0 
L 2988 1197 
Q 2756 1666 2539 1819 
Q 2322 1972 1947 1972 
L 1259 1972 
L 1259 0 
L 628 0 
L 628 4666 
L 2053 4666 
Q 2853 4666 3247 4331 
Q 3641 3997 3641 3322 
Q 3641 2881 3436 2590 
Q 3231 2300 2841 2188 
z
M 1259 4147 
L 1259 2491 
L 2053 2491 
Q 2509 2491 2742 2702 
Q 2975 2913 2975 3322 
Q 2975 3731 2742 3939 
Q 2509 4147 2053 4147 
L 1259 4147 
z
" transform="scale(0.015625)"/>
      </defs>
      <use xlink:href="#DejaVuSans-52"/>
      <use xlink:href="#DejaVuSans-65" x="64.982422"/>
      <use xlink:href="#DejaVuSans-61" x="126.505859"/>
      <use xlink:href="#DejaVuSans-63" x="187.785156"/>
      <use xlink:href="#DejaVuSans-68" x="242.765625"/>
      <use xlink:href="#DejaVuSans-65" x="306.144531"/>
      <use xlink:href="#DejaVuSans-64" x="367.667969"/>
      <use xlink:href="#DejaVuSans-20" x="431.144531"/>
      <use xlink:href="#DejaVuSans-72" x="462.931641"/>
      <use xlink:href="#DejaVuSans-65" x="501.794922"/>
      <use xlink:href="#DejaVuSans-67" x="563.318359"/>
      <use xlink:href="#DejaVuSans-69" x="626.794922"/>
      <use xlink:href="#DejaVuSans-6f" x="654.578125"/>
      <use xlink:href="#DejaVuSans-6e" x="715.759766"/>
      <use xlink:href="#DejaVuSans-20" x="779.138672"/>
      <use xlink:href="#DejaVuSans-63" x="810.925781"/>
      <use xlink:href="#DejaVuSans-6f" x="865.90625"/>
      <use xlink:href="#DejaVuSans-76" x="927.087891"/>
      <use xlink:href="#DejaVuSans-65" x="986.267578"/>
      <use xlink:href="#DejaVuSans-72" x="1047.791016"/>
      <use xlink:href="#DejaVuSans-61" x="1088.904297"/>
      <use xlink:href="#DejaVuSans-67" x="1150.183594"/>
      <use xlink:href="#DejaVuSans-65" x="1213.660156"/>
     </g>
    </g>
   </g>
   <g id="line2d_13">
    <path d="M 97.968125 90.502969 
L 97.968125 83.295063 
" clip-path="url(#pf913a88b2d)" style="fill: none; stroke: #3f3f3f; stroke-width: 1.5; stroke-linecap: square"/>
   </g>
   <g id="line2d_14">
    <path d="M 97.968125 89.061388 
L 97.968125 85.457435 
" clip-path="url(#pf913a88b2d)" style="fill: none; stroke: #3f3f3f; stroke-width: 4.5; stroke-linecap: square"/>
   </g>
   <g id="line2d_15">
    <path d="M 187.248125 93.386132 
L 187.248125 87.619807 
" clip-path="url(#pf913a88b2d)" style="fill: none; stroke: #3f3f3f; stroke-width: 1.5; stroke-linecap: square"/>
   </g>
   <g id="line2d_16">
    <path d="M 187.248125 92.665341 
L 187.248125 89.782179 
" clip-path="url(#pf913a88b2d)" style="fill: none; stroke: #3f3f3f; stroke-width: 4.5; stroke-linecap: square"/>
   </g>
   <g id="line2d_17">
    <path d="M 276.528125 151.049381 
L 276.528125 87.619807 
" clip-path="url(#pf913a88b2d)" style="fill: none; stroke: #3f3f3f; stroke-width: 1.5; stroke-linecap: square"/>
   </g>
   <g id="line2d_18">
    <path d="M 276.528125 127.984081 
L 276.528125 96.269294 
" clip-path="url(#pf913a88b2d)" style="fill: none; stroke: #3f3f3f; stroke-width: 4.5; stroke-linecap: square"/>
   </g>
   <g id="line2d_19">
    <path d="M 365.808125 201.504725 
L 365.808125 109.243525 
" clip-path="url(#pf913a88b2d)" style="fill: none; stroke: #3f3f3f; stroke-width: 1.5; stroke-linecap: square"/>
   </g>
   <g id="line2d_20">
    <path d="M 365.808125 184.20575 
L 365.808125 138.07515 
" clip-path="url(#pf913a88b2d)" style="fill: none; stroke: #3f3f3f; stroke-width: 4.5; stroke-linecap: square"/>
   </g>
   <g id="patch_3">
    <path d="M 53.328125 286.558018 
L 53.328125 34.281301 
" style="fill: none; stroke: #000000; stroke-width: 0.8; stroke-linejoin: miter; stroke-linecap: square"/>
   </g>
   <g id="patch_4">
    <path d="M 97.968125 288.430125 
L 365.808125 288.430125 
" style="fill: none; stroke: #000000; stroke-width: 0.8; stroke-linejoin: miter; stroke-linecap: square"/>
   </g>
   <g id="PathCollection_1">
    <defs>
     <path id="ma8a88531f4" d="M 0 1.5 
C 0.397805 1.5 0.77937 1.341951 1.06066 1.06066 
C 1.341951 0.77937 1.5 0.397805 1.5 0 
C 1.5 -0.397805 1.341951 -0.77937 1.06066 -1.06066 
C 0.77937 -1.341951 0.397805 -1.5 0 -1.5 
C -0.397805 -1.5 -0.77937 -1.341951 -1.06066 -1.06066 
C -1.341951 -0.77937 -1.5 -0.397805 -1.5 0 
C -1.5 0.397805 -1.341951 0.77937 -1.06066 1.06066 
C -0.77937 1.341951 -0.397805 1.5 0 1.5 
z
" style="stroke: #3f3f3f"/>
    </defs>
    <g clip-path="url(#pf913a88b2d)">
     <use xlink:href="#ma8a88531f4" x="97.968125" y="87.619807" style="fill: #ffffff; stroke: #3f3f3f"/>
    </g>
   </g>
   <g id="PathCollection_2">
    <g clip-path="url(#pf913a88b2d)">
     <use xlink:href="#ma8a88531f4" x="187.248125" y="91.944551" style="fill: #ffffff; stroke: #3f3f3f"/>
    </g>
   </g>
   <g id="PathCollection_3">
    <g clip-path="url(#pf913a88b2d)">
     <use xlink:href="#ma8a88531f4" x="276.528125" y="104.918782" style="fill: #ffffff; stroke: #3f3f3f"/>
    </g>
   </g>
   <g id="PathCollection_4">
    <g clip-path="url(#pf913a88b2d)">
     <use xlink:href="#ma8a88531f4" x="365.808125" y="166.906775" style="fill: #ffffff; stroke: #3f3f3f"/>
    </g>
   </g>
   <g id="text_15">
    <!-- vorbis-2017-12-11 (1h, 3 trials/fuzzer) -->
    <g transform="translate(117.469063 16.318125)scale(0.12 -0.12)">
     <defs>
      <path id="DejaVuSans-62" d="M 3116 1747 
Q 3116 2381 2855 2742 
Q 2594 3103 2138 3103 
Q 1681 3103 1420 2742 
Q 1159 2381 1159 1747 
Q 1159 1113 1420 752 
Q 1681 391 2138 391 
Q 2594 391 2855 752 
Q 3116 1113 3116 1747 
z
M 1159 2969 
Q 1341 3281 1617 3432 
Q 1894 3584 2278 3584 
Q 2916 3584 3314 3078 
Q 3713 2572 3713 1747 
Q 3713 922 3314 415 
Q 2916 -91 2278 -91 
Q 1894 -91 1617 61 
Q 1341 213 1159 525 
L 1159 0 
L 581 0 
L 581 4863 
L 1159 4863 
L 1159 2969 
z
" transform="scale(0.015625)"/>
      <path id="DejaVuSans-2d" d="M 313 2009 
L 1997 2009 
L 1997 1497 
L 313 1497 
L 313 2009 
z
" transform="scale(0.015625)"/>
      <path id="DejaVuSans-2c" d="M 750 794 
L 1409 794 
L 1409 256 
L 897 -744 
L 494 -744 
L 750 256 
L 750 794 
z
" transform="scale(0.015625)"/>
      <path id="DejaVuSans-2f" d="M 1625 4666 
L 2156 4666 
L 531 -594 
L 0 -594 
L 1625 4666 
z
" transform="scale(0.015625)"/>
     </defs>
     <use xlink:href="#DejaVuSans-76"/>
     <use xlink:href="#DejaVuSans-6f" x="59.179688"/>
     <use xlink:href="#DejaVuSans-72" x="120.361328"/>
     <use xlink:href="#DejaVuSans-62" x="161.474609"/>
     <use xlink:href="#DejaVuSans-69" x="224.951172"/>
     <use xlink:href="#DejaVuSans-73" x="252.734375"/>
     <use xlink:href="#DejaVuSans-2d" x="304.833984"/>
     <use xlink:href="#DejaVuSans-32" x="340.917969"/>
     <use xlink:href="#DejaVuSans-30" x="404.541016"/>
     <use xlink:href="#DejaVuSans-31" x="468.164062"/>
     <use xlink:href="#DejaVuSans-37" x="531.787109"/>
     <use xlink:href="#DejaVuSans-2d" x="595.410156"/>
     <use xlink:href="#DejaVuSans-31" x="631.494141"/>
     <use xlink:href="#DejaVuSans-32" x="695.117188"/>
     <use xlink:href="#DejaVuSans-2d" x="758.740234"/>
     <use xlink:href="#DejaVuSans-31" x="794.824219"/>
     <use xlink:href="#DejaVuSans-31" x="858.447266"/>
     <use xlink:href="#DejaVuSans-20" x="922.070312"/>
     <use xlink:href="#DejaVuSans-28" x="953.857422"/>
     <use xlink:href="#DejaVuSans-31" x="992.871094"/>
     <use xlink:href="#DejaVuSans-68" x="1056.494141"/>
     <use xlink:href="#DejaVuSans-2c" x="1119.873047"/>
     <use xlink:href="#DejaVuSans-20" x="1151.660156"/>
     <use xlink:href="#DejaVuSans-33" x="1183.447266"/>
     <use xlink:href="#DejaVuSans-20" x="1247.070312"/>
     <use xlink:href="#DejaVuSans-74" x="1278.857422"/>
     <use xlink:href="#DejaVuSans-72" x="1318.066406"/>
     <use xlink:href="#DejaVuSans-69" x="1359.179688"/>
     <use xlink:href="#DejaVuSans-61" x="1386.962891"/>
     <use xlink:href="#DejaVuSans-6c" x="1448.242188"/>
     <use xlink:href="#DejaVuSans-73" x="1476.025391"/>
     <use xlink:href="#DejaVuSans-2f" x="1528.125"/>
     <use xlink:href="#DejaVuSans-66" x="1561.816406"/>
     <use xlink:href="#DejaVuSans-75" x="1597.021484"/>
     <use xlink:href="#DejaVuSans-7a" x="1660.400391"/>
     <use xlink:href="#DejaVuSans-7a" x="1712.890625"/>
     <use xlink:href="#DejaVuSans-65" x="1765.380859"/>
     <use xlink:href="#DejaVuSans-72" x="1826.904297"/>
     <use xlink:href="#DejaVuSans-29" x="1868.017578"/>
    </g>
   </g>
  </g>
 </g>
 <defs>
  <clipPath id="pf913a88b2d">
   <rect x="53.328125" y="22.318125" width="357.12" height="266.112"/>
  </clipPath>
 </defs>
</svg>
