<?xml version="1.0" encoding="utf-8" standalone="no"?>
<!DOCTYPE svg PUBLIC "-//W3C//DTD SVG 1.1//EN"
  "http://www.w3.org/Graphics/SVG/1.1/DTD/svg11.dtd">
<svg xmlns:xlink="http://www.w3.org/1999/xlink" width="417.648125pt" height="370.686865pt" viewBox="0 0 417.648125 370.686865" xmlns="http://www.w3.org/2000/svg" version="1.1">
 <metadata>
  <rdf:RDF xmlns:dc="http://purl.org/dc/elements/1.1/" xmlns:cc="http://creativecommons.org/ns#" xmlns:rdf="http://www.w3.org/1999/02/22-rdf-syntax-ns#">
   <cc:Work>
    <dc:type rdf:resource="http://purl.org/dc/dcmitype/StillImage"/>
    <dc:date>2022-04-27T20:14:05.202956</dc:date>
    <dc:format>image/svg+xml</dc:format>
    <dc:creator>
     <cc:Agent>
      <dc:title>Matplotlib v3.5.1, https://matplotlib.org/</dc:title>
     </cc:Agent>
    </dc:creator>
   </cc:Work>
  </rdf:RDF>
 </metadata>
 <defs>
  <style type="text/css">*{stroke-linejoin: round; stroke-linecap: butt}</style>
 </defs>
 <g id="figure_1">
  <g id="patch_1">
   <path d="M 0 370.686865 
L 417.648125 370.686865 
L 417.648125 0 
L 0 0 
z
" style="fill: #ffffff"/>
  </g>
  <g id="axes_1">
   <g id="patch_2">
    <path d="M 53.328125 288.430125 
L 410.448125 288.430125 
L 410.448125 22.318125 
L 53.328125 22.318125 
z
" style="fill: #ffffff"/>
   </g>
   <g id="PolyCollection_1">
    <defs>
     <path id="mfcf1c961d6" d="M 98.689252 -94.35274 
L 97.246998 -94.35274 
L 97.149518 -96.796377 
L 97.042602 -99.240013 
L 96.925927 -101.68365 
L 96.799243 -104.127286 
L 96.662395 -106.570922 
L 96.515325 -109.014559 
L 96.358092 -111.458195 
L 96.190873 -113.901831 
L 96.013974 -116.345468 
L 95.827835 -118.789104 
L 95.633028 -121.23274 
L 95.430259 -123.676377 
L 95.22036 -126.120013 
L 95.004282 -128.56365 
L 94.783083 -131.007286 
L 94.55791 -133.450922 
L 94.32998 -135.894559 
L 94.100557 -138.338195 
L 93.870928 -140.781831 
L 93.642372 -143.225468 
L 93.416132 -145.669104 
L 93.193386 -148.11274 
L 92.975214 -150.556377 
L 92.762573 -153.000013 
L 92.556265 -155.44365 
L 92.356917 -157.887286 
L 92.164963 -160.330922 
L 91.980622 -162.774559 
L 91.803897 -165.218195 
L 91.634565 -167.661831 
L 91.472188 -170.105468 
L 91.316118 -172.549104 
L 91.165519 -174.99274 
L 91.019388 -177.436377 
L 90.876591 -179.880013 
L 90.735897 -182.32365 
L 90.59602 -184.767286 
L 90.455667 -187.210922 
L 90.313582 -189.654559 
L 90.168598 -192.098195 
L 90.019688 -194.541831 
L 89.866005 -196.985468 
L 89.706932 -199.429104 
L 89.542118 -201.87274 
L 89.371507 -204.316377 
L 89.195367 -206.760013 
L 89.014304 -209.20365 
L 88.829266 -211.647286 
L 88.641547 -214.090922 
L 88.452764 -216.534559 
L 88.264844 -218.978195 
L 88.079985 -221.421831 
L 87.900618 -223.865468 
L 87.729361 -226.309104 
L 87.568959 -228.75274 
L 87.422227 -231.196377 
L 87.291989 -233.640013 
L 87.181011 -236.08365 
L 87.091938 -238.527286 
L 87.027231 -240.970922 
L 86.98911 -243.414559 
L 86.979499 -245.858195 
L 86.999982 -248.301831 
L 87.051761 -250.745468 
L 87.135629 -253.189104 
L 87.251949 -255.63274 
L 87.400644 -258.076377 
L 87.581198 -260.520013 
L 87.792664 -262.96365 
L 88.033685 -265.407286 
L 88.302519 -267.850922 
L 88.597081 -270.294559 
L 88.914978 -272.738195 
L 89.253563 -275.181831 
L 89.609983 -277.625468 
L 89.981233 -280.069104 
L 90.364216 -282.51274 
L 90.755791 -284.956377 
L 91.152833 -287.400013 
L 91.552278 -289.84365 
L 91.951175 -292.287286 
L 92.346722 -294.730922 
L 92.736308 -297.174559 
L 93.117536 -299.618195 
L 93.488256 -302.061831 
L 93.846575 -304.505468 
L 94.19087 -306.949104 
L 94.519796 -309.39274 
L 94.83228 -311.836377 
L 95.12752 -314.280013 
L 95.404972 -316.72365 
L 95.664332 -319.167286 
L 95.905525 -321.610922 
L 96.128678 -324.054559 
L 96.334103 -326.498195 
L 96.522269 -328.941831 
L 96.69378 -331.385468 
L 96.849352 -333.829104 
L 96.989788 -336.27274 
L 98.946462 -336.27274 
L 98.946462 -336.27274 
L 99.086898 -333.829104 
L 99.24247 -331.385468 
L 99.413981 -328.941831 
L 99.602147 -326.498195 
L 99.807572 -324.054559 
L 100.030725 -321.610922 
L 100.271918 -319.167286 
L 100.531278 -316.72365 
L 100.80873 -314.280013 
L 101.10397 -311.836377 
L 101.416454 -309.39274 
L 101.74538 -306.949104 
L 102.089675 -304.505468 
L 102.447994 -302.061831 
L 102.818714 -299.618195 
L 103.199942 -297.174559 
L 103.589528 -294.730922 
L 103.985075 -292.287286 
L 104.383972 -289.84365 
L 104.783417 -287.400013 
L 105.180459 -284.956377 
L 105.572034 -282.51274 
L 105.955017 -280.069104 
L 106.326267 -277.625468 
L 106.682687 -275.181831 
L 107.021272 -272.738195 
L 107.339169 -270.294559 
L 107.633731 -267.850922 
L 107.902565 -265.407286 
L 108.143586 -262.96365 
L 108.355052 -260.520013 
L 108.535606 -258.076377 
L 108.684301 -255.63274 
L 108.800621 -253.189104 
L 108.884489 -250.745468 
L 108.936268 -248.301831 
L 108.956751 -245.858195 
L 108.94714 -243.414559 
L 108.909019 -240.970922 
L 108.844312 -238.527286 
L 108.755239 -236.08365 
L 108.644261 -233.640013 
L 108.514023 -231.196377 
L 108.367291 -228.75274 
L 108.206889 -226.309104 
L 108.035632 -223.865468 
L 107.856265 -221.421831 
L 107.671406 -218.978195 
L 107.483486 -216.534559 
L 107.294703 -214.090922 
L 107.106984 -211.647286 
L 106.921946 -209.20365 
L 106.740883 -206.760013 
L 106.564743 -204.316377 
L 106.394132 -201.87274 
L 106.229318 -199.429104 
L 106.070245 -196.985468 
L 105.916562 -194.541831 
L 105.767652 -192.098195 
L 105.622668 -189.654559 
L 105.480583 -187.210922 
L 105.34023 -184.767286 
L 105.200353 -182.32365 
L 105.059659 -179.880013 
L 104.916862 -177.436377 
L 104.770731 -174.99274 
L 104.620132 -172.549104 
L 104.464062 -170.105468 
L 104.301685 -167.661831 
L 104.132353 -165.218195 
L 103.955628 -162.774559 
L 103.771287 -160.330922 
L 103.579333 -157.887286 
L 103.379985 -155.44365 
L 103.173677 -153.000013 
L 102.961036 -150.556377 
L 102.742864 -148.11274 
L 102.520118 -145.669104 
L 102.293878 -143.225468 
L 102.065322 -140.781831 
L 101.835693 -138.338195 
L 101.60627 -135.894559 
L 101.37834 -133.450922 
L 101.153167 -131.007286 
L 100.931968 -128.56365 
L 100.71589 -126.120013 
L 100.505991 -123.676377 
L 100.303222 -121.23274 
L 100.108415 -118.789104 
L 99.922276 -116.345468 
L 99.745377 -113.901831 
L 99.578158 -111.458195 
L 99.420925 -109.014559 
L 99.273855 -106.570922 
L 99.137007 -104.127286 
L 99.010323 -101.68365 
L 98.893648 -99.240013 
L 98.786732 -96.796377 
L 98.689252 -94.35274 
z
" style="stroke: #3f3f3f; stroke-width: 1.5"/>
    </defs>
    <g clip-path="url(#p809be6c63d)">
     <use xlink:href="#mfcf1c961d6" x="0" y="370.686865" style="fill: #9fd495; stroke: #3f3f3f; stroke-width: 1.5"/>
    </g>
   </g>
   <g id="PolyCollection_2">
    <defs>
     <path id="m44a40b12c7" d="M 189.561536 -160.20556 
L 184.934714 -160.20556 
L 184.625693 -160.958561 
L 184.28716 -161.711562 
L 183.918128 -162.464562 
L 183.517854 -163.217563 
L 183.085878 -163.970564 
L 182.622058 -164.723565 
L 182.126604 -165.476565 
L 181.600101 -166.229566 
L 181.043538 -166.982567 
L 180.458316 -167.735568 
L 179.846255 -168.488569 
L 179.209592 -169.241569 
L 178.550961 -169.99457 
L 177.873373 -170.747571 
L 177.180172 -171.500572 
L 176.474991 -172.253573 
L 175.761686 -173.006573 
L 175.044271 -173.759574 
L 174.326833 -174.512575 
L 173.613447 -175.265576 
L 172.908082 -176.018576 
L 172.214507 -176.771577 
L 171.536191 -177.524578 
L 170.876216 -178.277579 
L 170.237178 -179.03058 
L 169.62112 -179.78358 
L 169.029453 -180.536581 
L 168.46291 -181.289582 
L 167.921509 -182.042583 
L 167.40453 -182.795584 
L 166.910529 -183.548584 
L 166.437358 -184.301585 
L 165.982213 -185.054586 
L 165.541711 -185.807587 
L 165.111981 -186.560587 
L 164.688776 -187.313588 
L 164.267601 -188.066589 
L 163.843864 -188.81959 
L 163.413023 -189.572591 
L 162.970756 -190.325591 
L 162.513116 -191.078592 
L 162.036695 -191.831593 
L 161.538774 -192.584594 
L 161.017463 -193.337595 
L 160.471821 -194.090595 
L 159.901954 -194.843596 
L 159.309088 -195.596597 
L 158.695615 -196.349598 
L 158.065105 -197.102598 
L 157.422285 -197.855599 
L 156.772991 -198.6086 
L 156.12408 -199.361601 
L 155.483314 -200.114602 
L 154.859223 -200.867602 
L 154.26093 -201.620603 
L 153.697967 -202.373604 
L 153.180072 -203.126605 
L 152.716973 -203.879606 
L 152.318169 -204.632606 
L 151.992719 -205.385607 
L 151.749028 -206.138608 
L 151.594652 -206.891609 
L 151.536125 -207.644609 
L 151.5788 -208.39761 
L 151.726725 -209.150611 
L 151.982546 -209.903612 
L 152.347443 -210.656613 
L 152.821102 -211.409613 
L 153.401716 -212.162614 
L 154.086025 -212.915615 
L 154.869385 -213.668616 
L 155.745866 -214.421617 
L 156.708377 -215.174617 
L 157.748813 -215.927618 
L 158.858218 -216.680619 
L 160.026962 -217.43362 
L 161.244927 -218.18662 
L 162.501694 -218.939621 
L 163.786728 -219.692622 
L 165.08956 -220.445623 
L 166.399954 -221.198624 
L 167.708065 -221.951624 
L 169.004576 -222.704625 
L 170.280818 -223.457626 
L 171.528871 -224.210627 
L 172.741638 -224.963628 
L 173.912904 -225.716628 
L 175.037366 -226.469629 
L 176.110649 -227.22263 
L 177.129301 -227.975631 
L 178.090764 -228.728631 
L 178.993341 -229.481632 
L 179.836142 -230.234633 
L 180.619018 -230.987634 
L 181.342496 -231.740635 
L 182.007699 -232.493635 
L 182.616266 -233.246636 
L 183.170273 -233.999637 
L 183.672154 -234.752638 
L 190.824096 -234.752638 
L 190.824096 -234.752638 
L 191.325977 -233.999637 
L 191.879984 -233.246636 
L 192.488551 -232.493635 
L 193.153754 -231.740635 
L 193.877232 -230.987634 
L 194.660108 -230.234633 
L 195.502909 -229.481632 
L 196.405486 -228.728631 
L 197.366949 -227.975631 
L 198.385601 -227.22263 
L 199.458884 -226.469629 
L 200.583346 -225.716628 
L 201.754612 -224.963628 
L 202.967379 -224.210627 
L 204.215432 -223.457626 
L 205.491674 -222.704625 
L 206.788185 -221.951624 
L 208.096296 -221.198624 
L 209.40669 -220.445623 
L 210.709522 -219.692622 
L 211.994556 -218.939621 
L 213.251323 -218.18662 
L 214.469288 -217.43362 
L 215.638032 -216.680619 
L 216.747437 -215.927618 
L 217.787873 -215.174617 
L 218.750384 -214.421617 
L 219.626865 -213.668616 
L 220.410225 -212.915615 
L 221.094534 -212.162614 
L 221.675148 -211.409613 
L 222.148807 -210.656613 
L 222.513704 -209.903612 
L 222.769525 -209.150611 
L 222.91745 -208.39761 
L 222.960125 -207.644609 
L 222.901598 -206.891609 
L 222.747222 -206.138608 
L 222.503531 -205.385607 
L 222.178081 -204.632606 
L 221.779277 -203.879606 
L 221.316178 -203.126605 
L 220.798283 -202.373604 
L 220.23532 -201.620603 
L 219.637027 -200.867602 
L 219.012936 -200.114602 
L 218.37217 -199.361601 
L 217.723259 -198.6086 
L 217.073965 -197.855599 
L 216.431145 -197.102598 
L 215.800635 -196.349598 
L 215.187162 -195.596597 
L 214.594296 -194.843596 
L 214.024429 -194.090595 
L 213.478787 -193.337595 
L 212.957476 -192.584594 
L 212.459555 -191.831593 
L 211.983134 -191.078592 
L 211.525494 -190.325591 
L 211.083227 -189.572591 
L 210.652386 -188.81959 
L 210.228649 -188.066589 
L 209.807474 -187.313588 
L 209.384269 -186.560587 
L 208.954539 -185.807587 
L 208.514037 -185.054586 
L 208.058892 -184.301585 
L 207.585721 -183.548584 
L 207.09172 -182.795584 
L 206.574741 -182.042583 
L 206.03334 -181.289582 
L 205.466797 -180.536581 
L 204.87513 -179.78358 
L 204.259072 -179.03058 
L 203.620034 -178.277579 
L 202.960059 -177.524578 
L 202.281743 -176.771577 
L 201.588168 -176.018576 
L 200.882803 -175.265576 
L 200.169417 -174.512575 
L 199.451979 -173.759574 
L 198.734564 -173.006573 
L 198.021259 -172.253573 
L 197.316078 -171.500572 
L 196.622877 -170.747571 
L 195.945289 -169.99457 
L 195.286658 -169.241569 
L 194.649995 -168.488569 
L 194.037934 -167.735568 
L 193.452712 -166.982567 
L 192.896149 -166.229566 
L 192.369646 -165.476565 
L 191.874192 -164.723565 
L 191.410372 -163.970564 
L 190.978396 -163.217563 
L 190.578122 -162.464562 
L 190.20909 -161.711562 
L 189.870557 -160.958561 
L 189.561536 -160.20556 
z
" style="stroke: #3f3f3f; stroke-width: 1.5"/>
    </defs>
    <g clip-path="url(#p809be6c63d)">
     <use xlink:href="#m44a40b12c7" x="0" y="370.686865" style="fill: #3274a1; stroke: #3f3f3f; stroke-width: 1.5"/>
    </g>
   </g>
   <g id="PolyCollection_3">
    <defs>
     <path id="m611c6519b7" d="M 278.519914 -142.979871 
L 274.536336 -142.979871 
L 274.269664 -144.569317 
L 273.977254 -146.158762 
L 273.658193 -147.748207 
L 273.311777 -149.337652 
L 272.937553 -150.927097 
L 272.535352 -152.516542 
L 272.105325 -154.105987 
L 271.647974 -155.695432 
L 271.16418 -157.284877 
L 270.655227 -158.874322 
L 270.122819 -160.463767 
L 269.569085 -162.053212 
L 268.996585 -163.642657 
L 268.408301 -165.232102 
L 267.807617 -166.821547 
L 267.198294 -168.410992 
L 266.584433 -170.000437 
L 265.970425 -171.589882 
L 265.360896 -173.179327 
L 264.760644 -174.768772 
L 264.174562 -176.358217 
L 263.607562 -177.947663 
L 263.064489 -179.537108 
L 262.550039 -181.126553 
L 262.068667 -182.715998 
L 261.624509 -184.305443 
L 261.221293 -185.894888 
L 260.862272 -187.484333 
L 260.550151 -189.073778 
L 260.287034 -190.663223 
L 260.074378 -192.252668 
L 259.912963 -193.842113 
L 259.802873 -195.431558 
L 259.7435 -197.021003 
L 259.733553 -198.610448 
L 259.771089 -200.199893 
L 259.85356 -201.789338 
L 259.977871 -203.378783 
L 260.140446 -204.968228 
L 260.337317 -206.557673 
L 260.564209 -208.147118 
L 260.816636 -209.736564 
L 261.090003 -211.326009 
L 261.379704 -212.915454 
L 261.681221 -214.504899 
L 261.990219 -216.094344 
L 262.302632 -217.683789 
L 262.614741 -219.273234 
L 262.923244 -220.862679 
L 263.225308 -222.452124 
L 263.518609 -224.041569 
L 263.801362 -225.631014 
L 264.072329 -227.220459 
L 264.33082 -228.809904 
L 264.576671 -230.399349 
L 264.810218 -231.988794 
L 265.032252 -233.578239 
L 265.243967 -235.167684 
L 265.446899 -236.757129 
L 265.642859 -238.346574 
L 265.833861 -239.936019 
L 266.022047 -241.525464 
L 266.209614 -243.11491 
L 266.398744 -244.704355 
L 266.59153 -246.2938 
L 266.789924 -247.883245 
L 266.995673 -249.47269 
L 267.210277 -251.062135 
L 267.434953 -252.65158 
L 267.670606 -254.241025 
L 267.917809 -255.83047 
L 268.176801 -257.419915 
L 268.44749 -259.00936 
L 268.729456 -260.598805 
L 269.02198 -262.18825 
L 269.324067 -263.777695 
L 269.634476 -265.36714 
L 269.951761 -266.956585 
L 270.274312 -268.54603 
L 270.600391 -270.135475 
L 270.928184 -271.72492 
L 271.255837 -273.314365 
L 271.581498 -274.903811 
L 271.903357 -276.493256 
L 272.219679 -278.082701 
L 272.528837 -279.672146 
L 272.829333 -281.261591 
L 273.119825 -282.851036 
L 273.399136 -284.440481 
L 273.666273 -286.029926 
L 273.920424 -287.619371 
L 274.160968 -289.208816 
L 274.387466 -290.798261 
L 274.599656 -292.387706 
L 274.797445 -293.977151 
L 274.980896 -295.566596 
L 275.150212 -297.156041 
L 275.305722 -298.745486 
L 275.447863 -300.334931 
L 277.608387 -300.334931 
L 277.608387 -300.334931 
L 277.750528 -298.745486 
L 277.906038 -297.156041 
L 278.075354 -295.566596 
L 278.258805 -293.977151 
L 278.456594 -292.387706 
L 278.668784 -290.798261 
L 278.895282 -289.208816 
L 279.135826 -287.619371 
L 279.389977 -286.029926 
L 279.657114 -284.440481 
L 279.936425 -282.851036 
L 280.226917 -281.261591 
L 280.527413 -279.672146 
L 280.836571 -278.082701 
L 281.152893 -276.493256 
L 281.474752 -274.903811 
L 281.800413 -273.314365 
L 282.128066 -271.72492 
L 282.455859 -270.135475 
L 282.781938 -268.54603 
L 283.104489 -266.956585 
L 283.421774 -265.36714 
L 283.732183 -263.777695 
L 284.03427 -262.18825 
L 284.326794 -260.598805 
L 284.60876 -259.00936 
L 284.879449 -257.419915 
L 285.138441 -255.83047 
L 285.385644 -254.241025 
L 285.621297 -252.65158 
L 285.845973 -251.062135 
L 286.060577 -249.47269 
L 286.266326 -247.883245 
L 286.46472 -246.2938 
L 286.657506 -244.704355 
L 286.846636 -243.11491 
L 287.034203 -241.525464 
L 287.222389 -239.936019 
L 287.413391 -238.346574 
L 287.609351 -236.757129 
L 287.812283 -235.167684 
L 288.023998 -233.578239 
L 288.246032 -231.988794 
L 288.479579 -230.399349 
L 288.72543 -228.809904 
L 288.983921 -227.220459 
L 289.254888 -225.631014 
L 289.537641 -224.041569 
L 289.830942 -222.452124 
L 290.133006 -220.862679 
L 290.441509 -219.273234 
L 290.753618 -217.683789 
L 291.066031 -216.094344 
L 291.375029 -214.504899 
L 291.676546 -212.915454 
L 291.966247 -211.326009 
L 292.239614 -209.736564 
L 292.492041 -208.147118 
L 292.718933 -206.557673 
L 292.915804 -204.968228 
L 293.078379 -203.378783 
L 293.20269 -201.789338 
L 293.285161 -200.199893 
L 293.322697 -198.610448 
L 293.31275 -197.021003 
L 293.253377 -195.431558 
L 293.143287 -193.842113 
L 292.981872 -192.252668 
L 292.769216 -190.663223 
L 292.506099 -189.073778 
L 292.193978 -187.484333 
L 291.834957 -185.894888 
L 291.431741 -184.305443 
L 290.987583 -182.715998 
L 290.506211 -181.126553 
L 289.991761 -179.537108 
L 289.448688 -177.947663 
L 288.881688 -176.358217 
L 288.295606 -174.768772 
L 287.695354 -173.179327 
L 287.085825 -171.589882 
L 286.471817 -170.000437 
L 285.857956 -168.410992 
L 285.248633 -166.821547 
L 284.647949 -165.232102 
L 284.059665 -163.642657 
L 283.487165 -162.053212 
L 282.933431 -160.463767 
L 282.401023 -158.874322 
L 281.89207 -157.284877 
L 281.408276 -155.695432 
L 280.950925 -154.105987 
L 280.520898 -152.516542 
L 280.118697 -150.927097 
L 279.744473 -149.337652 
L 279.398057 -147.748207 
L 279.078996 -146.158762 
L 278.786586 -144.569317 
L 278.519914 -142.979871 
z
" style="stroke: #3f3f3f; stroke-width: 1.5"/>
    </defs>
    <g clip-path="url(#p809be6c63d)">
     <use xlink:href="#m611c6519b7" x="0" y="370.686865" style="fill: #c03d3e; stroke: #3f3f3f; stroke-width: 1.5"/>
    </g>
   </g>
   <g id="PolyCollection_4">
    <defs>
     <path id="m209662f429" d="M 367.486188 -138.255705 
L 364.130062 -138.255705 
L 363.88958 -139.69694 
L 363.623252 -141.138174 
L 363.32972 -142.579409 
L 363.007779 -144.020644 
L 362.656414 -145.461879 
L 362.274847 -146.903114 
L 361.862569 -148.344349 
L 361.419389 -149.785583 
L 360.945466 -151.226818 
L 360.441347 -152.668053 
L 359.907994 -154.109288 
L 359.346811 -155.550523 
L 358.759664 -156.991758 
L 358.148886 -158.432993 
L 357.51728 -159.874227 
L 356.86811 -161.315462 
L 356.205082 -162.756697 
L 355.532311 -164.197932 
L 354.854281 -165.639167 
L 354.175793 -167.080402 
L 353.501901 -168.521636 
L 352.83784 -169.962871 
L 352.188947 -171.404106 
L 351.560574 -172.845341 
L 350.957993 -174.286576 
L 350.386309 -175.727811 
L 349.850359 -177.169046 
L 349.35462 -178.61028 
L 348.903127 -180.051515 
L 348.499386 -181.49275 
L 348.146302 -182.933985 
L 347.846126 -184.37522 
L 347.600399 -185.816455 
L 347.409927 -187.25769 
L 347.274764 -188.698924 
L 347.194212 -190.140159 
L 347.166841 -191.581394 
L 347.190523 -193.022629 
L 347.26249 -194.463864 
L 347.379394 -195.905099 
L 347.53739 -197.346333 
L 347.732229 -198.787568 
L 347.95936 -200.228803 
L 348.214033 -201.670038 
L 348.491409 -203.111273 
L 348.786674 -204.552508 
L 349.095141 -205.993743 
L 349.412356 -207.434977 
L 349.734187 -208.876212 
L 350.056906 -210.317447 
L 350.377259 -211.758682 
L 350.692517 -213.199917 
L 351.000519 -214.641152 
L 351.299684 -216.082386 
L 351.589025 -217.523621 
L 351.868128 -218.964856 
L 352.137129 -220.406091 
L 352.396669 -221.847326 
L 352.64784 -223.288561 
L 352.892116 -224.729796 
L 353.131284 -226.17103 
L 353.36736 -227.612265 
L 353.602506 -229.0535 
L 353.838947 -230.494735 
L 354.078892 -231.93597 
L 354.324451 -233.377205 
L 354.577568 -234.818439 
L 354.839957 -236.259674 
L 355.113051 -237.700909 
L 355.397957 -239.142144 
L 355.695428 -240.583379 
L 356.005845 -242.024614 
L 356.329209 -243.465849 
L 356.665149 -244.907083 
L 357.012935 -246.348318 
L 357.371505 -247.789553 
L 357.739499 -249.230788 
L 358.115299 -250.672023 
L 358.497074 -252.113258 
L 358.88283 -253.554493 
L 359.270462 -254.995727 
L 359.657804 -256.436962 
L 360.042678 -257.878197 
L 360.422943 -259.319432 
L 360.79654 -260.760667 
L 361.161525 -262.201902 
L 361.51611 -263.643136 
L 361.858684 -265.084371 
L 362.187838 -266.525606 
L 362.502375 -267.966841 
L 362.801326 -269.408076 
L 363.083947 -270.849311 
L 363.349717 -272.290546 
L 363.598332 -273.73178 
L 363.829694 -275.173015 
L 364.043893 -276.61425 
L 364.241194 -278.055485 
L 364.422012 -279.49672 
L 364.586895 -280.937955 
L 367.029355 -280.937955 
L 367.029355 -280.937955 
L 367.194238 -279.49672 
L 367.375056 -278.055485 
L 367.572357 -276.61425 
L 367.786556 -275.173015 
L 368.017918 -273.73178 
L 368.266533 -272.290546 
L 368.532303 -270.849311 
L 368.814924 -269.408076 
L 369.113875 -267.966841 
L 369.428412 -266.525606 
L 369.757566 -265.084371 
L 370.10014 -263.643136 
L 370.454725 -262.201902 
L 370.81971 -260.760667 
L 371.193307 -259.319432 
L 371.573572 -257.878197 
L 371.958446 -256.436962 
L 372.345788 -254.995727 
L 372.73342 -253.554493 
L 373.119176 -252.113258 
L 373.500951 -250.672023 
L 373.876751 -249.230788 
L 374.244745 -247.789553 
L 374.603315 -246.348318 
L 374.951101 -244.907083 
L 375.287041 -243.465849 
L 375.610405 -242.024614 
L 375.920822 -240.583379 
L 376.218293 -239.142144 
L 376.503199 -237.700909 
L 376.776293 -236.259674 
L 377.038682 -234.818439 
L 377.291799 -233.377205 
L 377.537358 -231.93597 
L 377.777303 -230.494735 
L 378.013744 -229.0535 
L 378.24889 -227.612265 
L 378.484966 -226.17103 
L 378.724134 -224.729796 
L 378.96841 -223.288561 
L 379.219581 -221.847326 
L 379.479121 -220.406091 
L 379.748122 -218.964856 
L 380.027225 -217.523621 
L 380.316566 -216.082386 
L 380.615731 -214.641152 
L 380.923733 -213.199917 
L 381.238991 -211.758682 
L 381.559344 -210.317447 
L 381.882063 -208.876212 
L 382.203894 -207.434977 
L 382.521109 -205.993743 
L 382.829576 -204.552508 
L 383.124841 -203.111273 
L 383.402217 -201.670038 
L 383.65689 -200.228803 
L 383.884021 -198.787568 
L 384.07886 -197.346333 
L 384.236856 -195.905099 
L 384.35376 -194.463864 
L 384.425727 -193.022629 
L 384.449409 -191.581394 
L 384.422038 -190.140159 
L 384.341486 -188.698924 
L 384.206323 -187.25769 
L 384.015851 -185.816455 
L 383.770124 -184.37522 
L 383.469948 -182.933985 
L 383.116864 -181.49275 
L 382.713123 -180.051515 
L 382.26163 -178.61028 
L 381.765891 -177.169046 
L 381.229941 -175.727811 
L 380.658257 -174.286576 
L 380.055676 -172.845341 
L 379.427303 -171.404106 
L 378.77841 -169.962871 
L 378.114349 -168.521636 
L 377.440457 -167.080402 
L 376.761969 -165.639167 
L 376.083939 -164.197932 
L 375.411168 -162.756697 
L 374.74814 -161.315462 
L 374.09897 -159.874227 
L 373.467364 -158.432993 
L 372.856586 -156.991758 
L 372.269439 -155.550523 
L 371.708256 -154.109288 
L 371.174903 -152.668053 
L 370.670784 -151.226818 
L 370.196861 -149.785583 
L 369.753681 -148.344349 
L 369.341403 -146.903114 
L 368.959836 -145.461879 
L 368.608471 -144.020644 
L 368.28653 -142.579409 
L 367.992998 -141.138174 
L 367.72667 -139.69694 
L 367.486188 -138.255705 
z
" style="stroke: #3f3f3f; stroke-width: 1.5"/>
    </defs>
    <g clip-path="url(#p809be6c63d)">
     <use xlink:href="#m209662f429" x="0" y="370.686865" style="fill: #c7c7c7; stroke: #3f3f3f; stroke-width: 1.5"/>
    </g>
   </g>
   <g id="matplotlib.axis_1">
    <g id="xtick_1">
     <g id="line2d_1">
      <defs>
       <path id="m6b16ebfe93" d="M 0 0 
L 0 3.5 
" style="stroke: #000000; stroke-width: 0.8"/>
      </defs>
      <g>
       <use xlink:href="#m6b16ebfe93" x="97.968125" y="288.430125" style="stroke: #000000; stroke-width: 0.8"/>
      </g>
     </g>
     <g id="text_1">
      <!-- aflplusplus_ast_o1 -->
      <g transform="translate(17.537069 347.766815)rotate(-30)scale(0.1 -0.1)">
       <defs>
        <path id="DejaVuSans-61" d="M 2194 1759 
Q 1497 1759 1228 1600 
Q 959 1441 959 1056 
Q 959 750 1161 570 
Q 1363 391 1709 391 
Q 2188 391 2477 730 
Q 2766 1069 2766 1631 
L 2766 1759 
L 2194 1759 
z
M 3341 1997 
L 3341 0 
L 2766 0 
L 2766 531 
Q 2569 213 2275 61 
Q 1981 -91 1556 -91 
Q 1019 -91 701 211 
Q 384 513 384 1019 
Q 384 1609 779 1909 
Q 1175 2209 1959 2209 
L 2766 2209 
L 2766 2266 
Q 2766 2663 2505 2880 
Q 2244 3097 1772 3097 
Q 1472 3097 1187 3025 
Q 903 2953 641 2809 
L 641 3341 
Q 956 3463 1253 3523 
Q 1550 3584 1831 3584 
Q 2591 3584 2966 3190 
Q 3341 2797 3341 1997 
z
" transform="scale(0.015625)"/>
        <path id="DejaVuSans-66" d="M 2375 4863 
L 2375 4384 
L 1825 4384 
Q 1516 4384 1395 4259 
Q 1275 4134 1275 3809 
L 1275 3500 
L 2222 3500 
L 2222 3053 
L 1275 3053 
L 1275 0 
L 697 0 
L 697 3053 
L 147 3053 
L 147 3500 
L 697 3500 
L 697 3744 
Q 697 4328 969 4595 
Q 1241 4863 1831 4863 
L 2375 4863 
z
" transform="scale(0.015625)"/>
        <path id="DejaVuSans-6c" d="M 603 4863 
L 1178 4863 
L 1178 0 
L 603 0 
L 603 4863 
z
" transform="scale(0.015625)"/>
        <path id="DejaVuSans-70" d="M 1159 525 
L 1159 -1331 
L 581 -1331 
L 581 3500 
L 1159 3500 
L 1159 2969 
Q 1341 3281 1617 3432 
Q 1894 3584 2278 3584 
Q 2916 3584 3314 3078 
Q 3713 2572 3713 1747 
Q 3713 922 3314 415 
Q 2916 -91 2278 -91 
Q 1894 -91 1617 61 
Q 1341 213 1159 525 
z
M 3116 1747 
Q 3116 2381 2855 2742 
Q 2594 3103 2138 3103 
Q 1681 3103 1420 2742 
Q 1159 2381 1159 1747 
Q 1159 1113 1420 752 
Q 1681 391 2138 391 
Q 2594 391 2855 752 
Q 3116 1113 3116 1747 
z
" transform="scale(0.015625)"/>
        <path id="DejaVuSans-75" d="M 544 1381 
L 544 3500 
L 1119 3500 
L 1119 1403 
Q 1119 906 1312 657 
Q 1506 409 1894 409 
Q 2359 409 2629 706 
Q 2900 1003 2900 1516 
L 2900 3500 
L 3475 3500 
L 3475 0 
L 2900 0 
L 2900 538 
Q 2691 219 2414 64 
Q 2138 -91 1772 -91 
Q 1169 -91 856 284 
Q 544 659 544 1381 
z
M 1991 3584 
L 1991 3584 
z
" transform="scale(0.015625)"/>
        <path id="DejaVuSans-73" d="M 2834 3397 
L 2834 2853 
Q 2591 2978 2328 3040 
Q 2066 3103 1784 3103 
Q 1356 3103 1142 2972 
Q 928 2841 928 2578 
Q 928 2378 1081 2264 
Q 1234 2150 1697 2047 
L 1894 2003 
Q 2506 1872 2764 1633 
Q 3022 1394 3022 966 
Q 3022 478 2636 193 
Q 2250 -91 1575 -91 
Q 1294 -91 989 -36 
Q 684 19 347 128 
L 347 722 
Q 666 556 975 473 
Q 1284 391 1588 391 
Q 1994 391 2212 530 
Q 2431 669 2431 922 
Q 2431 1156 2273 1281 
Q 2116 1406 1581 1522 
L 1381 1569 
Q 847 1681 609 1914 
Q 372 2147 372 2553 
Q 372 3047 722 3315 
Q 1072 3584 1716 3584 
Q 2034 3584 2315 3537 
Q 2597 3491 2834 3397 
z
" transform="scale(0.015625)"/>
        <path id="DejaVuSans-5f" d="M 3263 -1063 
L 3263 -1509 
L -63 -1509 
L -63 -1063 
L 3263 -1063 
z
" transform="scale(0.015625)"/>
        <path id="DejaVuSans-74" d="M 1172 4494 
L 1172 3500 
L 2356 3500 
L 2356 3053 
L 1172 3053 
L 1172 1153 
Q 1172 725 1289 603 
Q 1406 481 1766 481 
L 2356 481 
L 2356 0 
L 1766 0 
Q 1100 0 847 248 
Q 594 497 594 1153 
L 594 3053 
L 172 3053 
L 172 3500 
L 594 3500 
L 594 4494 
L 1172 4494 
z
" transform="scale(0.015625)"/>
        <path id="DejaVuSans-6f" d="M 1959 3097 
Q 1497 3097 1228 2736 
Q 959 2375 959 1747 
Q 959 1119 1226 758 
Q 1494 397 1959 397 
Q 2419 397 2687 759 
Q 2956 1122 2956 1747 
Q 2956 2369 2687 2733 
Q 2419 3097 1959 3097 
z
M 1959 3584 
Q 2709 3584 3137 3096 
Q 3566 2609 3566 1747 
Q 3566 888 3137 398 
Q 2709 -91 1959 -91 
Q 1206 -91 779 398 
Q 353 888 353 1747 
Q 353 2609 779 3096 
Q 1206 3584 1959 3584 
z
" transform="scale(0.015625)"/>
        <path id="DejaVuSans-31" d="M 794 531 
L 1825 531 
L 1825 4091 
L 703 3866 
L 703 4441 
L 1819 4666 
L 2450 4666 
L 2450 531 
L 3481 531 
L 3481 0 
L 794 0 
L 794 531 
z
" transform="scale(0.015625)"/>
       </defs>
       <use xlink:href="#DejaVuSans-61"/>
       <use xlink:href="#DejaVuSans-66" x="61.279297"/>
       <use xlink:href="#DejaVuSans-6c" x="96.484375"/>
       <use xlink:href="#DejaVuSans-70" x="124.267578"/>
       <use xlink:href="#DejaVuSans-6c" x="187.744141"/>
       <use xlink:href="#DejaVuSans-75" x="215.527344"/>
       <use xlink:href="#DejaVuSans-73" x="278.90625"/>
       <use xlink:href="#DejaVuSans-70" x="331.005859"/>
       <use xlink:href="#DejaVuSans-6c" x="394.482422"/>
       <use xlink:href="#DejaVuSans-75" x="422.265625"/>
       <use xlink:href="#DejaVuSans-73" x="485.644531"/>
       <use xlink:href="#DejaVuSans-5f" x="537.744141"/>
       <use xlink:href="#DejaVuSans-61" x="587.744141"/>
       <use xlink:href="#DejaVuSans-73" x="649.023438"/>
       <use xlink:href="#DejaVuSans-74" x="701.123047"/>
       <use xlink:href="#DejaVuSans-5f" x="740.332031"/>
       <use xlink:href="#DejaVuSans-6f" x="790.332031"/>
       <use xlink:href="#DejaVuSans-31" x="851.513672"/>
      </g>
     </g>
    </g>
    <g id="xtick_2">
     <g id="line2d_2">
      <g>
       <use xlink:href="#m6b16ebfe93" x="187.248125" y="288.430125" style="stroke: #000000; stroke-width: 0.8"/>
      </g>
     </g>
     <g id="text_2">
      <!-- aflplusplus_ast_o0 -->
      <g transform="translate(106.817069 347.766815)rotate(-30)scale(0.1 -0.1)">
       <defs>
        <path id="DejaVuSans-30" d="M 2034 4250 
Q 1547 4250 1301 3770 
Q 1056 3291 1056 2328 
Q 1056 1369 1301 889 
Q 1547 409 2034 409 
Q 2525 409 2770 889 
Q 3016 1369 3016 2328 
Q 3016 3291 2770 3770 
Q 2525 4250 2034 4250 
z
M 2034 4750 
Q 2819 4750 3233 4129 
Q 3647 3509 3647 2328 
Q 3647 1150 3233 529 
Q 2819 -91 2034 -91 
Q 1250 -91 836 529 
Q 422 1150 422 2328 
Q 422 3509 836 4129 
Q 1250 4750 2034 4750 
z
" transform="scale(0.015625)"/>
       </defs>
       <use xlink:href="#DejaVuSans-61"/>
       <use xlink:href="#DejaVuSans-66" x="61.279297"/>
       <use xlink:href="#DejaVuSans-6c" x="96.484375"/>
       <use xlink:href="#DejaVuSans-70" x="124.267578"/>
       <use xlink:href="#DejaVuSans-6c" x="187.744141"/>
       <use xlink:href="#DejaVuSans-75" x="215.527344"/>
       <use xlink:href="#DejaVuSans-73" x="278.90625"/>
       <use xlink:href="#DejaVuSans-70" x="331.005859"/>
       <use xlink:href="#DejaVuSans-6c" x="394.482422"/>
       <use xlink:href="#DejaVuSans-75" x="422.265625"/>
       <use xlink:href="#DejaVuSans-73" x="485.644531"/>
       <use xlink:href="#DejaVuSans-5f" x="537.744141"/>
       <use xlink:href="#DejaVuSans-61" x="587.744141"/>
       <use xlink:href="#DejaVuSans-73" x="649.023438"/>
       <use xlink:href="#DejaVuSans-74" x="701.123047"/>
       <use xlink:href="#DejaVuSans-5f" x="740.332031"/>
       <use xlink:href="#DejaVuSans-6f" x="790.332031"/>
       <use xlink:href="#DejaVuSans-30" x="851.513672"/>
      </g>
     </g>
    </g>
    <g id="xtick_3">
     <g id="line2d_3">
      <g>
       <use xlink:href="#m6b16ebfe93" x="276.528125" y="288.430125" style="stroke: #000000; stroke-width: 0.8"/>
      </g>
     </g>
     <g id="text_3">
      <!-- aflplusplus_ast_o2 -->
      <g transform="translate(196.097069 347.766815)rotate(-30)scale(0.1 -0.1)">
       <defs>
        <path id="DejaVuSans-32" d="M 1228 531 
L 3431 531 
L 3431 0 
L 469 0 
L 469 531 
Q 828 903 1448 1529 
Q 2069 2156 2228 2338 
Q 2531 2678 2651 2914 
Q 2772 3150 2772 3378 
Q 2772 3750 2511 3984 
Q 2250 4219 1831 4219 
Q 1534 4219 1204 4116 
Q 875 4013 500 3803 
L 500 4441 
Q 881 4594 1212 4672 
Q 1544 4750 1819 4750 
Q 2544 4750 2975 4387 
Q 3406 4025 3406 3419 
Q 3406 3131 3298 2873 
Q 3191 2616 2906 2266 
Q 2828 2175 2409 1742 
Q 1991 1309 1228 531 
z
" transform="scale(0.015625)"/>
       </defs>
       <use xlink:href="#DejaVuSans-61"/>
       <use xlink:href="#DejaVuSans-66" x="61.279297"/>
       <use xlink:href="#DejaVuSans-6c" x="96.484375"/>
       <use xlink:href="#DejaVuSans-70" x="124.267578"/>
       <use xlink:href="#DejaVuSans-6c" x="187.744141"/>
       <use xlink:href="#DejaVuSans-75" x="215.527344"/>
       <use xlink:href="#DejaVuSans-73" x="278.90625"/>
       <use xlink:href="#DejaVuSans-70" x="331.005859"/>
       <use xlink:href="#DejaVuSans-6c" x="394.482422"/>
       <use xlink:href="#DejaVuSans-75" x="422.265625"/>
       <use xlink:href="#DejaVuSans-73" x="485.644531"/>
       <use xlink:href="#DejaVuSans-5f" x="537.744141"/>
       <use xlink:href="#DejaVuSans-61" x="587.744141"/>
       <use xlink:href="#DejaVuSans-73" x="649.023438"/>
       <use xlink:href="#DejaVuSans-74" x="701.123047"/>
       <use xlink:href="#DejaVuSans-5f" x="740.332031"/>
       <use xlink:href="#DejaVuSans-6f" x="790.332031"/>
       <use xlink:href="#DejaVuSans-32" x="851.513672"/>
      </g>
     </g>
    </g>
    <g id="xtick_4">
     <g id="line2d_4">
      <g>
       <use xlink:href="#m6b16ebfe93" x="365.808125" y="288.430125" style="stroke: #000000; stroke-width: 0.8"/>
      </g>
     </g>
     <g id="text_4">
      <!-- aflplusplus_ast_o3 -->
      <g transform="translate(285.377069 347.766815)rotate(-30)scale(0.1 -0.1)">
       <defs>
        <path id="DejaVuSans-33" d="M 2597 2516 
Q 3050 2419 3304 2112 
Q 3559 1806 3559 1356 
Q 3559 666 3084 287 
Q 2609 -91 1734 -91 
Q 1441 -91 1130 -33 
Q 819 25 488 141 
L 488 750 
Q 750 597 1062 519 
Q 1375 441 1716 441 
Q 2309 441 2620 675 
Q 2931 909 2931 1356 
Q 2931 1769 2642 2001 
Q 2353 2234 1838 2234 
L 1294 2234 
L 1294 2753 
L 1863 2753 
Q 2328 2753 2575 2939 
Q 2822 3125 2822 3475 
Q 2822 3834 2567 4026 
Q 2313 4219 1838 4219 
Q 1578 4219 1281 4162 
Q 984 4106 628 3988 
L 628 4550 
Q 988 4650 1302 4700 
Q 1616 4750 1894 4750 
Q 2613 4750 3031 4423 
Q 3450 4097 3450 3541 
Q 3450 3153 3228 2886 
Q 3006 2619 2597 2516 
z
" transform="scale(0.015625)"/>
       </defs>
       <use xlink:href="#DejaVuSans-61"/>
       <use xlink:href="#DejaVuSans-66" x="61.279297"/>
       <use xlink:href="#DejaVuSans-6c" x="96.484375"/>
       <use xlink:href="#DejaVuSans-70" x="124.267578"/>
       <use xlink:href="#DejaVuSans-6c" x="187.744141"/>
       <use xlink:href="#DejaVuSans-75" x="215.527344"/>
       <use xlink:href="#DejaVuSans-73" x="278.90625"/>
       <use xlink:href="#DejaVuSans-70" x="331.005859"/>
       <use xlink:href="#DejaVuSans-6c" x="394.482422"/>
       <use xlink:href="#DejaVuSans-75" x="422.265625"/>
       <use xlink:href="#DejaVuSans-73" x="485.644531"/>
       <use xlink:href="#DejaVuSans-5f" x="537.744141"/>
       <use xlink:href="#DejaVuSans-61" x="587.744141"/>
       <use xlink:href="#DejaVuSans-73" x="649.023438"/>
       <use xlink:href="#DejaVuSans-74" x="701.123047"/>
       <use xlink:href="#DejaVuSans-5f" x="740.332031"/>
       <use xlink:href="#DejaVuSans-6f" x="790.332031"/>
       <use xlink:href="#DejaVuSans-33" x="851.513672"/>
      </g>
     </g>
    </g>
    <g id="text_5">
     <!-- Fuzzer (highest median coverage on the left) -->
     <g transform="translate(119.270156 361.407178)scale(0.1 -0.1)">
      <defs>
       <path id="DejaVuSans-46" d="M 628 4666 
L 3309 4666 
L 3309 4134 
L 1259 4134 
L 1259 2759 
L 3109 2759 
L 3109 2228 
L 1259 2228 
L 1259 0 
L 628 0 
L 628 4666 
z
" transform="scale(0.015625)"/>
       <path id="DejaVuSans-7a" d="M 353 3500 
L 3084 3500 
L 3084 2975 
L 922 459 
L 3084 459 
L 3084 0 
L 275 0 
L 275 525 
L 2438 3041 
L 353 3041 
L 353 3500 
z
" transform="scale(0.015625)"/>
       <path id="DejaVuSans-65" d="M 3597 1894 
L 3597 1613 
L 953 1613 
Q 991 1019 1311 708 
Q 1631 397 2203 397 
Q 2534 397 2845 478 
Q 3156 559 3463 722 
L 3463 178 
Q 3153 47 2828 -22 
Q 2503 -91 2169 -91 
Q 1331 -91 842 396 
Q 353 884 353 1716 
Q 353 2575 817 3079 
Q 1281 3584 2069 3584 
Q 2775 3584 3186 3129 
Q 3597 2675 3597 1894 
z
M 3022 2063 
Q 3016 2534 2758 2815 
Q 2500 3097 2075 3097 
Q 1594 3097 1305 2825 
Q 1016 2553 972 2059 
L 3022 2063 
z
" transform="scale(0.015625)"/>
       <path id="DejaVuSans-72" d="M 2631 2963 
Q 2534 3019 2420 3045 
Q 2306 3072 2169 3072 
Q 1681 3072 1420 2755 
Q 1159 2438 1159 1844 
L 1159 0 
L 581 0 
L 581 3500 
L 1159 3500 
L 1159 2956 
Q 1341 3275 1631 3429 
Q 1922 3584 2338 3584 
Q 2397 3584 2469 3576 
Q 2541 3569 2628 3553 
L 2631 2963 
z
" transform="scale(0.015625)"/>
       <path id="DejaVuSans-20" transform="scale(0.015625)"/>
       <path id="DejaVuSans-28" d="M 1984 4856 
Q 1566 4138 1362 3434 
Q 1159 2731 1159 2009 
Q 1159 1288 1364 580 
Q 1569 -128 1984 -844 
L 1484 -844 
Q 1016 -109 783 600 
Q 550 1309 550 2009 
Q 550 2706 781 3412 
Q 1013 4119 1484 4856 
L 1984 4856 
z
" transform="scale(0.015625)"/>
       <path id="DejaVuSans-68" d="M 3513 2113 
L 3513 0 
L 2938 0 
L 2938 2094 
Q 2938 2591 2744 2837 
Q 2550 3084 2163 3084 
Q 1697 3084 1428 2787 
Q 1159 2491 1159 1978 
L 1159 0 
L 581 0 
L 581 4863 
L 1159 4863 
L 1159 2956 
Q 1366 3272 1645 3428 
Q 1925 3584 2291 3584 
Q 2894 3584 3203 3211 
Q 3513 2838 3513 2113 
z
" transform="scale(0.015625)"/>
       <path id="DejaVuSans-69" d="M 603 3500 
L 1178 3500 
L 1178 0 
L 603 0 
L 603 3500 
z
M 603 4863 
L 1178 4863 
L 1178 4134 
L 603 4134 
L 603 4863 
z
" transform="scale(0.015625)"/>
       <path id="DejaVuSans-67" d="M 2906 1791 
Q 2906 2416 2648 2759 
Q 2391 3103 1925 3103 
Q 1463 3103 1205 2759 
Q 947 2416 947 1791 
Q 947 1169 1205 825 
Q 1463 481 1925 481 
Q 2391 481 2648 825 
Q 2906 1169 2906 1791 
z
M 3481 434 
Q 3481 -459 3084 -895 
Q 2688 -1331 1869 -1331 
Q 1566 -1331 1297 -1286 
Q 1028 -1241 775 -1147 
L 775 -588 
Q 1028 -725 1275 -790 
Q 1522 -856 1778 -856 
Q 2344 -856 2625 -561 
Q 2906 -266 2906 331 
L 2906 616 
Q 2728 306 2450 153 
Q 2172 0 1784 0 
Q 1141 0 747 490 
Q 353 981 353 1791 
Q 353 2603 747 3093 
Q 1141 3584 1784 3584 
Q 2172 3584 2450 3431 
Q 2728 3278 2906 2969 
L 2906 3500 
L 3481 3500 
L 3481 434 
z
" transform="scale(0.015625)"/>
       <path id="DejaVuSans-6d" d="M 3328 2828 
Q 3544 3216 3844 3400 
Q 4144 3584 4550 3584 
Q 5097 3584 5394 3201 
Q 5691 2819 5691 2113 
L 5691 0 
L 5113 0 
L 5113 2094 
Q 5113 2597 4934 2840 
Q 4756 3084 4391 3084 
Q 3944 3084 3684 2787 
Q 3425 2491 3425 1978 
L 3425 0 
L 2847 0 
L 2847 2094 
Q 2847 2600 2669 2842 
Q 2491 3084 2119 3084 
Q 1678 3084 1418 2786 
Q 1159 2488 1159 1978 
L 1159 0 
L 581 0 
L 581 3500 
L 1159 3500 
L 1159 2956 
Q 1356 3278 1631 3431 
Q 1906 3584 2284 3584 
Q 2666 3584 2933 3390 
Q 3200 3197 3328 2828 
z
" transform="scale(0.015625)"/>
       <path id="DejaVuSans-64" d="M 2906 2969 
L 2906 4863 
L 3481 4863 
L 3481 0 
L 2906 0 
L 2906 525 
Q 2725 213 2448 61 
Q 2172 -91 1784 -91 
Q 1150 -91 751 415 
Q 353 922 353 1747 
Q 353 2572 751 3078 
Q 1150 3584 1784 3584 
Q 2172 3584 2448 3432 
Q 2725 3281 2906 2969 
z
M 947 1747 
Q 947 1113 1208 752 
Q 1469 391 1925 391 
Q 2381 391 2643 752 
Q 2906 1113 2906 1747 
Q 2906 2381 2643 2742 
Q 2381 3103 1925 3103 
Q 1469 3103 1208 2742 
Q 947 2381 947 1747 
z
" transform="scale(0.015625)"/>
       <path id="DejaVuSans-6e" d="M 3513 2113 
L 3513 0 
L 2938 0 
L 2938 2094 
Q 2938 2591 2744 2837 
Q 2550 3084 2163 3084 
Q 1697 3084 1428 2787 
Q 1159 2491 1159 1978 
L 1159 0 
L 581 0 
L 581 3500 
L 1159 3500 
L 1159 2956 
Q 1366 3272 1645 3428 
Q 1925 3584 2291 3584 
Q 2894 3584 3203 3211 
Q 3513 2838 3513 2113 
z
" transform="scale(0.015625)"/>
       <path id="DejaVuSans-63" d="M 3122 3366 
L 3122 2828 
Q 2878 2963 2633 3030 
Q 2388 3097 2138 3097 
Q 1578 3097 1268 2742 
Q 959 2388 959 1747 
Q 959 1106 1268 751 
Q 1578 397 2138 397 
Q 2388 397 2633 464 
Q 2878 531 3122 666 
L 3122 134 
Q 2881 22 2623 -34 
Q 2366 -91 2075 -91 
Q 1284 -91 818 406 
Q 353 903 353 1747 
Q 353 2603 823 3093 
Q 1294 3584 2113 3584 
Q 2378 3584 2631 3529 
Q 2884 3475 3122 3366 
z
" transform="scale(0.015625)"/>
       <path id="DejaVuSans-76" d="M 191 3500 
L 800 3500 
L 1894 563 
L 2988 3500 
L 3597 3500 
L 2284 0 
L 1503 0 
L 191 3500 
z
" transform="scale(0.015625)"/>
       <path id="DejaVuSans-29" d="M 513 4856 
L 1013 4856 
Q 1481 4119 1714 3412 
Q 1947 2706 1947 2009 
Q 1947 1309 1714 600 
Q 1481 -109 1013 -844 
L 513 -844 
Q 928 -128 1133 580 
Q 1338 1288 1338 2009 
Q 1338 2731 1133 3434 
Q 928 4138 513 4856 
z
" transform="scale(0.015625)"/>
      </defs>
      <use xlink:href="#DejaVuSans-46"/>
      <use xlink:href="#DejaVuSans-75" x="52.019531"/>
      <use xlink:href="#DejaVuSans-7a" x="115.398438"/>
      <use xlink:href="#DejaVuSans-7a" x="167.888672"/>
      <use xlink:href="#DejaVuSans-65" x="220.378906"/>
      <use xlink:href="#DejaVuSans-72" x="281.902344"/>
      <use xlink:href="#DejaVuSans-20" x="323.015625"/>
      <use xlink:href="#DejaVuSans-28" x="354.802734"/>
      <use xlink:href="#DejaVuSans-68" x="393.816406"/>
      <use xlink:href="#DejaVuSans-69" x="457.195312"/>
      <use xlink:href="#DejaVuSans-67" x="484.978516"/>
      <use xlink:href="#DejaVuSans-68" x="548.455078"/>
      <use xlink:href="#DejaVuSans-65" x="611.833984"/>
      <use xlink:href="#DejaVuSans-73" x="673.357422"/>
      <use xlink:href="#DejaVuSans-74" x="725.457031"/>
      <use xlink:href="#DejaVuSans-20" x="764.666016"/>
      <use xlink:href="#DejaVuSans-6d" x="796.453125"/>
      <use xlink:href="#DejaVuSans-65" x="893.865234"/>
      <use xlink:href="#DejaVuSans-64" x="955.388672"/>
      <use xlink:href="#DejaVuSans-69" x="1018.865234"/>
      <use xlink:href="#DejaVuSans-61" x="1046.648438"/>
      <use xlink:href="#DejaVuSans-6e" x="1107.927734"/>
      <use xlink:href="#DejaVuSans-20" x="1171.306641"/>
      <use xlink:href="#DejaVuSans-63" x="1203.09375"/>
      <use xlink:href="#DejaVuSans-6f" x="1258.074219"/>
      <use xlink:href="#DejaVuSans-76" x="1319.255859"/>
      <use xlink:href="#DejaVuSans-65" x="1378.435547"/>
      <use xlink:href="#DejaVuSans-72" x="1439.958984"/>
      <use xlink:href="#DejaVuSans-61" x="1481.072266"/>
      <use xlink:href="#DejaVuSans-67" x="1542.351562"/>
      <use xlink:href="#DejaVuSans-65" x="1605.828125"/>
      <use xlink:href="#DejaVuSans-20" x="1667.351562"/>
      <use xlink:href="#DejaVuSans-6f" x="1699.138672"/>
      <use xlink:href="#DejaVuSans-6e" x="1760.320312"/>
      <use xlink:href="#DejaVuSans-20" x="1823.699219"/>
      <use xlink:href="#DejaVuSans-74" x="1855.486328"/>
      <use xlink:href="#DejaVuSans-68" x="1894.695312"/>
      <use xlink:href="#DejaVuSans-65" x="1958.074219"/>
      <use xlink:href="#DejaVuSans-20" x="2019.597656"/>
      <use xlink:href="#DejaVuSans-6c" x="2051.384766"/>
      <use xlink:href="#DejaVuSans-65" x="2079.167969"/>
      <use xlink:href="#DejaVuSans-66" x="2140.691406"/>
      <use xlink:href="#DejaVuSans-74" x="2174.146484"/>
      <use xlink:href="#DejaVuSans-29" x="2213.355469"/>
     </g>
    </g>
   </g>
   <g id="matplotlib.axis_2">
    <g id="ytick_1">
     <g id="line2d_5">
      <defs>
       <path id="m8d107c83fd" d="M 0 0 
L -3.5 0 
" style="stroke: #000000; stroke-width: 0.8"/>
      </defs>
      <g>
       <use xlink:href="#m8d107c83fd" x="53.328125" y="238.769263" style="stroke: #000000; stroke-width: 0.8"/>
      </g>
     </g>
     <g id="text_6">
      <!-- 5000 -->
      <g transform="translate(20.878125 242.568482)scale(0.1 -0.1)">
       <defs>
        <path id="DejaVuSans-35" d="M 691 4666 
L 3169 4666 
L 3169 4134 
L 1269 4134 
L 1269 2991 
Q 1406 3038 1543 3061 
Q 1681 3084 1819 3084 
Q 2600 3084 3056 2656 
Q 3513 2228 3513 1497 
Q 3513 744 3044 326 
Q 2575 -91 1722 -91 
Q 1428 -91 1123 -41 
Q 819 9 494 109 
L 494 744 
Q 775 591 1075 516 
Q 1375 441 1709 441 
Q 2250 441 2565 725 
Q 2881 1009 2881 1497 
Q 2881 1984 2565 2268 
Q 2250 2553 1709 2553 
Q 1456 2553 1204 2497 
Q 953 2441 691 2322 
L 691 4666 
z
" transform="scale(0.015625)"/>
       </defs>
       <use xlink:href="#DejaVuSans-35"/>
       <use xlink:href="#DejaVuSans-30" x="63.623047"/>
       <use xlink:href="#DejaVuSans-30" x="127.246094"/>
       <use xlink:href="#DejaVuSans-30" x="190.869141"/>
      </g>
     </g>
    </g>
    <g id="ytick_2">
     <g id="line2d_6">
      <g>
       <use xlink:href="#m8d107c83fd" x="53.328125" y="181.610155" style="stroke: #000000; stroke-width: 0.8"/>
      </g>
     </g>
     <g id="text_7">
      <!-- 5500 -->
      <g transform="translate(20.878125 185.409374)scale(0.1 -0.1)">
       <use xlink:href="#DejaVuSans-35"/>
       <use xlink:href="#DejaVuSans-35" x="63.623047"/>
       <use xlink:href="#DejaVuSans-30" x="127.246094"/>
       <use xlink:href="#DejaVuSans-30" x="190.869141"/>
      </g>
     </g>
    </g>
    <g id="ytick_3">
     <g id="line2d_7">
      <g>
       <use xlink:href="#m8d107c83fd" x="53.328125" y="124.451048" style="stroke: #000000; stroke-width: 0.8"/>
      </g>
     </g>
     <g id="text_8">
      <!-- 6000 -->
      <g transform="translate(20.878125 128.250267)scale(0.1 -0.1)">
       <defs>
        <path id="DejaVuSans-36" d="M 2113 2584 
Q 1688 2584 1439 2293 
Q 1191 2003 1191 1497 
Q 1191 994 1439 701 
Q 1688 409 2113 409 
Q 2538 409 2786 701 
Q 3034 994 3034 1497 
Q 3034 2003 2786 2293 
Q 2538 2584 2113 2584 
z
M 3366 4563 
L 3366 3988 
Q 3128 4100 2886 4159 
Q 2644 4219 2406 4219 
Q 1781 4219 1451 3797 
Q 1122 3375 1075 2522 
Q 1259 2794 1537 2939 
Q 1816 3084 2150 3084 
Q 2853 3084 3261 2657 
Q 3669 2231 3669 1497 
Q 3669 778 3244 343 
Q 2819 -91 2113 -91 
Q 1303 -91 875 529 
Q 447 1150 447 2328 
Q 447 3434 972 4092 
Q 1497 4750 2381 4750 
Q 2619 4750 2861 4703 
Q 3103 4656 3366 4563 
z
" transform="scale(0.015625)"/>
       </defs>
       <use xlink:href="#DejaVuSans-36"/>
       <use xlink:href="#DejaVuSans-30" x="63.623047"/>
       <use xlink:href="#DejaVuSans-30" x="127.246094"/>
       <use xlink:href="#DejaVuSans-30" x="190.869141"/>
      </g>
     </g>
    </g>
    <g id="ytick_4">
     <g id="line2d_8">
      <g>
       <use xlink:href="#m8d107c83fd" x="53.328125" y="67.29194" style="stroke: #000000; stroke-width: 0.8"/>
      </g>
     </g>
     <g id="text_9">
      <!-- 6500 -->
      <g transform="translate(20.878125 71.091159)scale(0.1 -0.1)">
       <use xlink:href="#DejaVuSans-36"/>
       <use xlink:href="#DejaVuSans-35" x="63.623047"/>
       <use xlink:href="#DejaVuSans-30" x="127.246094"/>
       <use xlink:href="#DejaVuSans-30" x="190.869141"/>
      </g>
     </g>
    </g>
    <g id="text_10">
     <!-- Reached region coverage -->
     <g transform="translate(14.798438 219.136625)rotate(-90)scale(0.1 -0.1)">
      <defs>
       <path id="DejaVuSans-52" d="M 2841 2188 
Q 3044 2119 3236 1894 
Q 3428 1669 3622 1275 
L 4263 0 
L 3584 0 
L 2988 1197 
Q 2756 1666 2539 1819 
Q 2322 1972 1947 1972 
L 1259 1972 
L 1259 0 
L 628 0 
L 628 4666 
L 2053 4666 
Q 2853 4666 3247 4331 
Q 3641 3997 3641 3322 
Q 3641 2881 3436 2590 
Q 3231 2300 2841 2188 
z
M 1259 4147 
L 1259 2491 
L 2053 2491 
Q 2509 2491 2742 2702 
Q 2975 2913 2975 3322 
Q 2975 3731 2742 3939 
Q 2509 4147 2053 4147 
L 1259 4147 
z
" transform="scale(0.015625)"/>
      </defs>
      <use xlink:href="#DejaVuSans-52"/>
      <use xlink:href="#DejaVuSans-65" x="64.982422"/>
      <use xlink:href="#DejaVuSans-61" x="126.505859"/>
      <use xlink:href="#DejaVuSans-63" x="187.785156"/>
      <use xlink:href="#DejaVuSans-68" x="242.765625"/>
      <use xlink:href="#DejaVuSans-65" x="306.144531"/>
      <use xlink:href="#DejaVuSans-64" x="367.667969"/>
      <use xlink:href="#DejaVuSans-20" x="431.144531"/>
      <use xlink:href="#DejaVuSans-72" x="462.931641"/>
      <use xlink:href="#DejaVuSans-65" x="501.794922"/>
      <use xlink:href="#DejaVuSans-67" x="563.318359"/>
      <use xlink:href="#DejaVuSans-69" x="626.794922"/>
      <use xlink:href="#DejaVuSans-6f" x="654.578125"/>
      <use xlink:href="#DejaVuSans-6e" x="715.759766"/>
      <use xlink:href="#DejaVuSans-20" x="779.138672"/>
      <use xlink:href="#DejaVuSans-63" x="810.925781"/>
      <use xlink:href="#DejaVuSans-6f" x="865.90625"/>
      <use xlink:href="#DejaVuSans-76" x="927.087891"/>
      <use xlink:href="#DejaVuSans-65" x="986.267578"/>
      <use xlink:href="#DejaVuSans-72" x="1047.791016"/>
      <use xlink:href="#DejaVuSans-61" x="1088.904297"/>
      <use xlink:href="#DejaVuSans-67" x="1150.183594"/>
      <use xlink:href="#DejaVuSans-65" x="1213.660156"/>
     </g>
    </g>
   </g>
   <g id="line2d_9">
    <path d="M 97.968125 200.129706 
L 97.968125 110.618544 
" clip-path="url(#p809be6c63d)" style="fill: none; stroke: #3f3f3f; stroke-width: 1.5; stroke-linecap: square"/>
   </g>
   <g id="line2d_10">
    <path d="M 97.968125 164.062309 
L 97.968125 119.306728 
" clip-path="url(#p809be6c63d)" style="fill: none; stroke: #3f3f3f; stroke-width: 4.5; stroke-linecap: square"/>
   </g>
   <g id="line2d_11">
    <path d="M 187.248125 186.754475 
L 187.248125 159.661058 
" clip-path="url(#p809be6c63d)" style="fill: none; stroke: #3f3f3f; stroke-width: 1.5; stroke-linecap: square"/>
   </g>
   <g id="line2d_12">
    <path d="M 187.248125 174.865381 
L 187.248125 161.318672 
" clip-path="url(#p809be6c63d)" style="fill: none; stroke: #3f3f3f; stroke-width: 4.5; stroke-linecap: square"/>
   </g>
   <g id="line2d_13">
    <path d="M 276.528125 176.923109 
L 276.528125 121.13582 
" clip-path="url(#p809be6c63d)" style="fill: none; stroke: #3f3f3f; stroke-width: 1.5; stroke-linecap: square"/>
   </g>
   <g id="line2d_14">
    <path d="M 276.528125 175.894245 
L 276.528125 148.0006 
" clip-path="url(#p809be6c63d)" style="fill: none; stroke: #3f3f3f; stroke-width: 4.5; stroke-linecap: square"/>
   </g>
   <g id="line2d_15">
    <path d="M 365.808125 187.440384 
L 365.808125 134.739687 
" clip-path="url(#p809be6c63d)" style="fill: none; stroke: #3f3f3f; stroke-width: 1.5; stroke-linecap: square"/>
   </g>
   <g id="line2d_16">
    <path d="M 365.808125 182.524701 
L 365.808125 156.174353 
" clip-path="url(#p809be6c63d)" style="fill: none; stroke: #3f3f3f; stroke-width: 4.5; stroke-linecap: square"/>
   </g>
   <g id="patch_3">
    <path d="M 53.328125 238.769263 
L 53.328125 67.29194 
" style="fill: none; stroke: #000000; stroke-width: 0.8; stroke-linejoin: miter; stroke-linecap: square"/>
   </g>
   <g id="patch_4">
    <path d="M 97.968125 288.430125 
L 365.808125 288.430125 
" style="fill: none; stroke: #000000; stroke-width: 0.8; stroke-linejoin: miter; stroke-linecap: square"/>
   </g>
   <g id="PathCollection_1">
    <defs>
     <path id="mfb76d26ca4" d="M 0 1.5 
C 0.397805 1.5 0.77937 1.341951 1.06066 1.06066 
C 1.341951 0.77937 1.5 0.397805 1.5 0 
C 1.5 -0.397805 1.341951 -0.77937 1.06066 -1.06066 
C 0.77937 -1.341951 0.397805 -1.5 0 -1.5 
C -0.397805 -1.5 -0.77937 -1.341951 -1.06066 -1.06066 
C -1.341951 -0.77937 -1.5 -0.397805 -1.5 0 
C -1.5 0.397805 -1.341951 0.77937 -1.06066 1.06066 
C -0.77937 1.341951 -0.397805 1.5 0 1.5 
z
" style="stroke: #3f3f3f"/>
    </defs>
    <g clip-path="url(#p809be6c63d)">
     <use xlink:href="#mfb76d26ca4" x="97.968125" y="127.994912" style="fill: #ffffff; stroke: #3f3f3f"/>
    </g>
   </g>
   <g id="PathCollection_2">
    <g clip-path="url(#p809be6c63d)">
     <use xlink:href="#mfb76d26ca4" x="187.248125" y="162.976286" style="fill: #ffffff; stroke: #3f3f3f"/>
    </g>
   </g>
   <g id="PathCollection_3">
    <g clip-path="url(#p809be6c63d)">
     <use xlink:href="#mfb76d26ca4" x="276.528125" y="174.865381" style="fill: #ffffff; stroke: #3f3f3f"/>
    </g>
   </g>
   <g id="PathCollection_4">
    <g clip-path="url(#p809be6c63d)">
     <use xlink:href="#mfb76d26ca4" x="365.808125" y="177.609018" style="fill: #ffffff; stroke: #3f3f3f"/>
    </g>
   </g>
   <g id="text_11">
    <!-- bloaty_fuzz_target (4h, 3 trials/fuzzer) -->
    <g transform="translate(117.609688 16.318125)scale(0.12 -0.12)">
     <defs>
      <path id="DejaVuSans-62" d="M 3116 1747 
Q 3116 2381 2855 2742 
Q 2594 3103 2138 3103 
Q 1681 3103 1420 2742 
Q 1159 2381 1159 1747 
Q 1159 1113 1420 752 
Q 1681 391 2138 391 
Q 2594 391 2855 752 
Q 3116 1113 3116 1747 
z
M 1159 2969 
Q 1341 3281 1617 3432 
Q 1894 3584 2278 3584 
Q 2916 3584 3314 3078 
Q 3713 2572 3713 1747 
Q 3713 922 3314 415 
Q 2916 -91 2278 -91 
Q 1894 -91 1617 61 
Q 1341 213 1159 525 
L 1159 0 
L 581 0 
L 581 4863 
L 1159 4863 
L 1159 2969 
z
" transform="scale(0.015625)"/>
      <path id="DejaVuSans-79" d="M 2059 -325 
Q 1816 -950 1584 -1140 
Q 1353 -1331 966 -1331 
L 506 -1331 
L 506 -850 
L 844 -850 
Q 1081 -850 1212 -737 
Q 1344 -625 1503 -206 
L 1606 56 
L 191 3500 
L 800 3500 
L 1894 763 
L 2988 3500 
L 3597 3500 
L 2059 -325 
z
" transform="scale(0.015625)"/>
      <path id="DejaVuSans-34" d="M 2419 4116 
L 825 1625 
L 2419 1625 
L 2419 4116 
z
M 2253 4666 
L 3047 4666 
L 3047 1625 
L 3713 1625 
L 3713 1100 
L 3047 1100 
L 3047 0 
L 2419 0 
L 2419 1100 
L 313 1100 
L 313 1709 
L 2253 4666 
z
" transform="scale(0.015625)"/>
      <path id="DejaVuSans-2c" d="M 750 794 
L 1409 794 
L 1409 256 
L 897 -744 
L 494 -744 
L 750 256 
L 750 794 
z
" transform="scale(0.015625)"/>
      <path id="DejaVuSans-2f" d="M 1625 4666 
L 2156 4666 
L 531 -594 
L 0 -594 
L 1625 4666 
z
" transform="scale(0.015625)"/>
     </defs>
     <use xlink:href="#DejaVuSans-62"/>
     <use xlink:href="#DejaVuSans-6c" x="63.476562"/>
     <use xlink:href="#DejaVuSans-6f" x="91.259766"/>
     <use xlink:href="#DejaVuSans-61" x="152.441406"/>
     <use xlink:href="#DejaVuSans-74" x="213.720703"/>
     <use xlink:href="#DejaVuSans-79" x="252.929688"/>
     <use xlink:href="#DejaVuSans-5f" x="312.109375"/>
     <use xlink:href="#DejaVuSans-66" x="362.109375"/>
     <use xlink:href="#DejaVuSans-75" x="397.314453"/>
     <use xlink:href="#DejaVuSans-7a" x="460.693359"/>
     <use xlink:href="#DejaVuSans-7a" x="513.183594"/>
     <use xlink:href="#DejaVuSans-5f" x="565.673828"/>
     <use xlink:href="#DejaVuSans-74" x="615.673828"/>
     <use xlink:href="#DejaVuSans-61" x="654.882812"/>
     <use xlink:href="#DejaVuSans-72" x="716.162109"/>
     <use xlink:href="#DejaVuSans-67" x="755.525391"/>
     <use xlink:href="#DejaVuSans-65" x="819.001953"/>
     <use xlink:href="#DejaVuSans-74" x="880.525391"/>
     <use xlink:href="#DejaVuSans-20" x="919.734375"/>
     <use xlink:href="#DejaVuSans-28" x="951.521484"/>
     <use xlink:href="#DejaVuSans-34" x="990.535156"/>
     <use xlink:href="#DejaVuSans-68" x="1054.158203"/>
     <use xlink:href="#DejaVuSans-2c" x="1117.537109"/>
     <use xlink:href="#DejaVuSans-20" x="1149.324219"/>
     <use xlink:href="#DejaVuSans-33" x="1181.111328"/>
     <use xlink:href="#DejaVuSans-20" x="1244.734375"/>
     <use xlink:href="#DejaVuSans-74" x="1276.521484"/>
     <use xlink:href="#DejaVuSans-72" x="1315.730469"/>
     <use xlink:href="#DejaVuSans-69" x="1356.84375"/>
     <use xlink:href="#DejaVuSans-61" x="1384.626953"/>
     <use xlink:href="#DejaVuSans-6c" x="1445.90625"/>
     <use xlink:href="#DejaVuSans-73" x="1473.689453"/>
     <use xlink:href="#DejaVuSans-2f" x="1525.789062"/>
     <use xlink:href="#DejaVuSans-66" x="1559.480469"/>
     <use xlink:href="#DejaVuSans-75" x="1594.685547"/>
     <use xlink:href="#DejaVuSans-7a" x="1658.064453"/>
     <use xlink:href="#DejaVuSans-7a" x="1710.554688"/>
     <use xlink:href="#DejaVuSans-65" x="1763.044922"/>
     <use xlink:href="#DejaVuSans-72" x="1824.568359"/>
     <use xlink:href="#DejaVuSans-29" x="1865.681641"/>
    </g>
   </g>
  </g>
 </g>
 <defs>
  <clipPath id="p809be6c63d">
   <rect x="53.328125" y="22.318125" width="357.12" height="266.112"/>
  </clipPath>
 </defs>
</svg>
