<?xml version="1.0" encoding="utf-8" standalone="no"?>
<!DOCTYPE svg PUBLIC "-//W3C//DTD SVG 1.1//EN"
  "http://www.w3.org/Graphics/SVG/1.1/DTD/svg11.dtd">
<svg xmlns:xlink="http://www.w3.org/1999/xlink" width="424.010625pt" height="370.686865pt" viewBox="0 0 424.010625 370.686865" xmlns="http://www.w3.org/2000/svg" version="1.1">
 <metadata>
  <rdf:RDF xmlns:dc="http://purl.org/dc/elements/1.1/" xmlns:cc="http://creativecommons.org/ns#" xmlns:rdf="http://www.w3.org/1999/02/22-rdf-syntax-ns#">
   <cc:Work>
    <dc:type rdf:resource="http://purl.org/dc/dcmitype/StillImage"/>
    <dc:date>2022-04-27T20:14:27.008927</dc:date>
    <dc:format>image/svg+xml</dc:format>
    <dc:creator>
     <cc:Agent>
      <dc:title>Matplotlib v3.5.1, https://matplotlib.org/</dc:title>
     </cc:Agent>
    </dc:creator>
   </cc:Work>
  </rdf:RDF>
 </metadata>
 <defs>
  <style type="text/css">*{stroke-linejoin: round; stroke-linecap: butt}</style>
 </defs>
 <g id="figure_1">
  <g id="patch_1">
   <path d="M 0 370.686865 
L 424.010625 370.686865 
L 424.010625 0 
L 0 0 
z
" style="fill: #ffffff"/>
  </g>
  <g id="axes_1">
   <g id="patch_2">
    <path d="M 59.690625 288.430125 
L 416.810625 288.430125 
L 416.810625 22.318125 
L 59.690625 22.318125 
z
" style="fill: #ffffff"/>
   </g>
   <g id="PolyCollection_1">
    <defs>
     <path id="md55db4a56a" d="M 105.919486 -164.10413 
L 102.741764 -164.10413 
L 102.531454 -165.494943 
L 102.301246 -166.885757 
L 102.050486 -168.276571 
L 101.778681 -169.667384 
L 101.485528 -171.058198 
L 101.170935 -172.449011 
L 100.835045 -173.839825 
L 100.478252 -175.230639 
L 100.101219 -176.621452 
L 99.704883 -178.012266 
L 99.290463 -179.403079 
L 98.859457 -180.793893 
L 98.413629 -182.184707 
L 97.954997 -183.57552 
L 97.485807 -184.966334 
L 97.008498 -186.357147 
L 96.525666 -187.747961 
L 96.040018 -189.138774 
L 95.554314 -190.529588 
L 95.071316 -191.920402 
L 94.593721 -193.311215 
L 94.124101 -194.702029 
L 93.664834 -196.092842 
L 93.218044 -197.483656 
L 92.785539 -198.87447 
L 92.368759 -200.265283 
L 91.968722 -201.656097 
L 91.585993 -203.04691 
L 91.22065 -204.437724 
L 90.872274 -205.828537 
L 90.539945 -207.219351 
L 90.222257 -208.610165 
L 89.917345 -210.000978 
L 89.62293 -211.391792 
L 89.336377 -212.782605 
L 89.054768 -214.173419 
L 88.774984 -215.564233 
L 88.493803 -216.955046 
L 88.208 -218.34586 
L 87.914459 -219.736673 
L 87.61028 -221.127487 
L 87.292892 -222.5183 
L 86.960157 -223.909114 
L 86.610469 -225.299928 
L 86.242846 -226.690741 
L 85.856998 -228.081555 
L 85.45339 -229.472368 
L 85.033283 -230.863182 
L 84.598749 -232.253996 
L 84.152671 -233.644809 
L 83.698721 -235.035623 
L 83.241311 -236.426436 
L 82.785525 -237.81725 
L 82.337033 -239.208064 
L 81.901983 -240.598877 
L 81.48688 -241.989691 
L 81.098454 -243.380504 
L 80.743514 -244.771318 
L 80.428799 -246.162131 
L 80.160833 -247.552945 
L 79.945773 -248.943759 
L 79.789272 -250.334572 
L 79.696348 -251.725386 
L 79.671268 -253.116199 
L 79.717449 -254.507013 
L 79.837381 -255.897827 
L 80.032565 -257.28864 
L 80.303481 -258.679454 
L 80.649573 -260.070267 
L 81.069263 -261.461081 
L 81.559983 -262.851894 
L 82.118231 -264.242708 
L 82.739642 -265.633522 
L 83.419085 -267.024335 
L 84.150762 -268.415149 
L 84.928328 -269.805962 
L 85.745013 -271.196776 
L 86.59375 -272.58759 
L 87.467305 -273.978403 
L 88.358404 -275.369217 
L 89.259853 -276.76003 
L 90.164655 -278.150844 
L 91.066109 -279.541657 
L 91.957906 -280.932471 
L 92.834205 -282.323285 
L 93.689695 -283.714098 
L 94.519649 -285.104912 
L 95.319951 -286.495725 
L 96.087122 -287.886539 
L 96.818317 -289.277353 
L 97.511326 -290.668166 
L 98.164548 -292.05898 
L 98.776965 -293.449793 
L 99.348101 -294.840607 
L 99.877982 -296.23142 
L 100.367082 -297.622234 
L 100.81627 -299.013048 
L 101.226759 -300.403861 
L 101.600044 -301.794675 
L 107.061206 -301.794675 
L 107.061206 -301.794675 
L 107.434491 -300.403861 
L 107.84498 -299.013048 
L 108.294168 -297.622234 
L 108.783268 -296.23142 
L 109.313149 -294.840607 
L 109.884285 -293.449793 
L 110.496702 -292.05898 
L 111.149924 -290.668166 
L 111.842933 -289.277353 
L 112.574128 -287.886539 
L 113.341299 -286.495725 
L 114.141601 -285.104912 
L 114.971555 -283.714098 
L 115.827045 -282.323285 
L 116.703344 -280.932471 
L 117.595141 -279.541657 
L 118.496595 -278.150844 
L 119.401397 -276.76003 
L 120.302846 -275.369217 
L 121.193945 -273.978403 
L 122.0675 -272.58759 
L 122.916237 -271.196776 
L 123.732922 -269.805962 
L 124.510488 -268.415149 
L 125.242165 -267.024335 
L 125.921608 -265.633522 
L 126.543019 -264.242708 
L 127.101267 -262.851894 
L 127.591987 -261.461081 
L 128.011677 -260.070267 
L 128.357769 -258.679454 
L 128.628685 -257.28864 
L 128.823869 -255.897827 
L 128.943801 -254.507013 
L 128.989982 -253.116199 
L 128.964902 -251.725386 
L 128.871978 -250.334572 
L 128.715477 -248.943759 
L 128.500417 -247.552945 
L 128.232451 -246.162131 
L 127.917736 -244.771318 
L 127.562796 -243.380504 
L 127.17437 -241.989691 
L 126.759267 -240.598877 
L 126.324217 -239.208064 
L 125.875725 -237.81725 
L 125.419939 -236.426436 
L 124.962529 -235.035623 
L 124.508579 -233.644809 
L 124.062501 -232.253996 
L 123.627967 -230.863182 
L 123.20786 -229.472368 
L 122.804252 -228.081555 
L 122.418404 -226.690741 
L 122.050781 -225.299928 
L 121.701093 -223.909114 
L 121.368358 -222.5183 
L 121.05097 -221.127487 
L 120.746791 -219.736673 
L 120.45325 -218.34586 
L 120.167447 -216.955046 
L 119.886266 -215.564233 
L 119.606482 -214.173419 
L 119.324873 -212.782605 
L 119.03832 -211.391792 
L 118.743905 -210.000978 
L 118.438993 -208.610165 
L 118.121305 -207.219351 
L 117.788976 -205.828537 
L 117.4406 -204.437724 
L 117.075257 -203.04691 
L 116.692528 -201.656097 
L 116.292491 -200.265283 
L 115.875711 -198.87447 
L 115.443206 -197.483656 
L 114.996416 -196.092842 
L 114.537149 -194.702029 
L 114.067529 -193.311215 
L 113.589934 -191.920402 
L 113.106936 -190.529588 
L 112.621232 -189.138774 
L 112.135584 -187.747961 
L 111.652752 -186.357147 
L 111.175443 -184.966334 
L 110.706253 -183.57552 
L 110.247621 -182.184707 
L 109.801793 -180.793893 
L 109.370787 -179.403079 
L 108.956367 -178.012266 
L 108.560031 -176.621452 
L 108.182998 -175.230639 
L 107.826205 -173.839825 
L 107.490315 -172.449011 
L 107.175722 -171.058198 
L 106.882569 -169.667384 
L 106.610764 -168.276571 
L 106.360004 -166.885757 
L 106.129796 -165.494943 
L 105.919486 -164.10413 
z
" style="stroke: #3f3f3f; stroke-width: 1.5"/>
    </defs>
    <g clip-path="url(#pf762d57dc3)">
     <use xlink:href="#md55db4a56a" x="0" y="370.686865" style="fill: #9fd495; stroke: #3f3f3f; stroke-width: 1.5"/>
    </g>
   </g>
   <g id="PolyCollection_2">
    <defs>
     <path id="mb5821b8f30" d="M 197.247923 -198.006346 
L 189.973327 -198.006346 
L 189.464894 -198.969573 
L 188.90399 -199.932799 
L 188.288223 -200.896025 
L 187.615564 -201.859251 
L 186.884431 -202.822477 
L 186.093771 -203.785703 
L 185.243137 -204.748929 
L 184.332765 -205.712156 
L 183.363642 -206.675382 
L 182.337572 -207.638608 
L 181.257222 -208.601834 
L 180.126163 -209.56506 
L 178.948887 -210.528286 
L 177.730816 -211.491512 
L 176.478284 -212.454739 
L 175.1985 -213.417965 
L 173.899491 -214.381191 
L 172.59002 -215.344417 
L 171.279488 -216.307643 
L 169.977809 -217.270869 
L 168.695268 -218.234096 
L 167.442367 -219.197322 
L 166.22965 -220.160548 
L 165.067525 -221.123774 
L 163.966076 -222.087 
L 162.934874 -223.050226 
L 161.982794 -224.013452 
L 161.11784 -224.976679 
L 160.346982 -225.939905 
L 159.676008 -226.903131 
L 159.109409 -227.866357 
L 158.650276 -228.829583 
L 158.300242 -229.792809 
L 158.059441 -230.756036 
L 157.92651 -231.719262 
L 157.898625 -232.682488 
L 157.971566 -233.645714 
L 158.139816 -234.60894 
L 158.396696 -235.572166 
L 158.734517 -236.535392 
L 159.144759 -237.498619 
L 159.618275 -238.461845 
L 160.145493 -239.425071 
L 160.716638 -240.388297 
L 161.321949 -241.351523 
L 161.951891 -242.314749 
L 162.597359 -243.277976 
L 163.249863 -244.241202 
L 163.901694 -245.204428 
L 164.546065 -246.167654 
L 165.177222 -247.13088 
L 165.790529 -248.094106 
L 166.382511 -249.057332 
L 166.950875 -250.020559 
L 167.494495 -250.983785 
L 168.01336 -251.947011 
L 168.508503 -252.910237 
L 168.981899 -253.873463 
L 169.436343 -254.836689 
L 169.875309 -255.799915 
L 170.302799 -256.763142 
L 170.723184 -257.726368 
L 171.141037 -258.689594 
L 171.560979 -259.65282 
L 171.987518 -260.616046 
L 172.424908 -261.579272 
L 172.877023 -262.542499 
L 173.347241 -263.505725 
L 173.838354 -264.468951 
L 174.352498 -265.432177 
L 174.891106 -266.395403 
L 175.454882 -267.358629 
L 176.043794 -268.321855 
L 176.657101 -269.285082 
L 177.293379 -270.248308 
L 177.950583 -271.211534 
L 178.62611 -272.17476 
L 179.316883 -273.137986 
L 180.019434 -274.101212 
L 180.730004 -275.064439 
L 181.444631 -276.027665 
L 182.159255 -276.990891 
L 182.8698 -277.954117 
L 183.57227 -278.917343 
L 184.262822 -279.880569 
L 184.937841 -280.843795 
L 185.593996 -281.807022 
L 186.228291 -282.770248 
L 186.838102 -283.733474 
L 187.421205 -284.6967 
L 187.975787 -285.659926 
L 188.500453 -286.623152 
L 188.99422 -287.586379 
L 189.456502 -288.549605 
L 189.887089 -289.512831 
L 190.286121 -290.476057 
L 190.654054 -291.439283 
L 190.991624 -292.402509 
L 191.29981 -293.365735 
L 195.92144 -293.365735 
L 195.92144 -293.365735 
L 196.229626 -292.402509 
L 196.567196 -291.439283 
L 196.935129 -290.476057 
L 197.334161 -289.512831 
L 197.764748 -288.549605 
L 198.22703 -287.586379 
L 198.720797 -286.623152 
L 199.245463 -285.659926 
L 199.800045 -284.6967 
L 200.383148 -283.733474 
L 200.992959 -282.770248 
L 201.627254 -281.807022 
L 202.283409 -280.843795 
L 202.958428 -279.880569 
L 203.64898 -278.917343 
L 204.35145 -277.954117 
L 205.061995 -276.990891 
L 205.776619 -276.027665 
L 206.491246 -275.064439 
L 207.201816 -274.101212 
L 207.904367 -273.137986 
L 208.59514 -272.17476 
L 209.270667 -271.211534 
L 209.927871 -270.248308 
L 210.564149 -269.285082 
L 211.177456 -268.321855 
L 211.766368 -267.358629 
L 212.330144 -266.395403 
L 212.868752 -265.432177 
L 213.382896 -264.468951 
L 213.874009 -263.505725 
L 214.344227 -262.542499 
L 214.796342 -261.579272 
L 215.233732 -260.616046 
L 215.660271 -259.65282 
L 216.080213 -258.689594 
L 216.498066 -257.726368 
L 216.918451 -256.763142 
L 217.345941 -255.799915 
L 217.784907 -254.836689 
L 218.239351 -253.873463 
L 218.712747 -252.910237 
L 219.20789 -251.947011 
L 219.726755 -250.983785 
L 220.270375 -250.020559 
L 220.838739 -249.057332 
L 221.430721 -248.094106 
L 222.044028 -247.13088 
L 222.675185 -246.167654 
L 223.319556 -245.204428 
L 223.971387 -244.241202 
L 224.623891 -243.277976 
L 225.269359 -242.314749 
L 225.899301 -241.351523 
L 226.504612 -240.388297 
L 227.075757 -239.425071 
L 227.602975 -238.461845 
L 228.076491 -237.498619 
L 228.486733 -236.535392 
L 228.824554 -235.572166 
L 229.081434 -234.60894 
L 229.249684 -233.645714 
L 229.322625 -232.682488 
L 229.29474 -231.719262 
L 229.161809 -230.756036 
L 228.921008 -229.792809 
L 228.570974 -228.829583 
L 228.111841 -227.866357 
L 227.545242 -226.903131 
L 226.874268 -225.939905 
L 226.10341 -224.976679 
L 225.238456 -224.013452 
L 224.286376 -223.050226 
L 223.255174 -222.087 
L 222.153725 -221.123774 
L 220.9916 -220.160548 
L 219.778883 -219.197322 
L 218.525982 -218.234096 
L 217.243441 -217.270869 
L 215.941762 -216.307643 
L 214.63123 -215.344417 
L 213.321759 -214.381191 
L 212.02275 -213.417965 
L 210.742966 -212.454739 
L 209.490434 -211.491512 
L 208.272363 -210.528286 
L 207.095087 -209.56506 
L 205.964028 -208.601834 
L 204.883678 -207.638608 
L 203.857608 -206.675382 
L 202.888485 -205.712156 
L 201.978113 -204.748929 
L 201.127479 -203.785703 
L 200.336819 -202.822477 
L 199.605686 -201.859251 
L 198.933027 -200.896025 
L 198.31726 -199.932799 
L 197.756356 -198.969573 
L 197.247923 -198.006346 
z
" style="stroke: #3f3f3f; stroke-width: 1.5"/>
    </defs>
    <g clip-path="url(#pf762d57dc3)">
     <use xlink:href="#mb5821b8f30" x="0" y="370.686865" style="fill: #c03d3e; stroke: #3f3f3f; stroke-width: 1.5"/>
    </g>
   </g>
   <g id="PolyCollection_3">
    <defs>
     <path id="m787c265fe2" d="M 284.162533 -119.345778 
L 281.618717 -119.345778 
L 281.434684 -121.536959 
L 281.23053 -123.72814 
L 281.005125 -125.919322 
L 280.757443 -128.110503 
L 280.486588 -130.301685 
L 280.191831 -132.492866 
L 279.872635 -134.684048 
L 279.52869 -136.875229 
L 279.15994 -139.06641 
L 278.766611 -141.257592 
L 278.349238 -143.448773 
L 277.908682 -145.639955 
L 277.446151 -147.831136 
L 276.963207 -150.022318 
L 276.461774 -152.213499 
L 275.94413 -154.404681 
L 275.412905 -156.595862 
L 274.871056 -158.787043 
L 274.321844 -160.978225 
L 273.768802 -163.169406 
L 273.215689 -165.360588 
L 272.666444 -167.551769 
L 272.125132 -169.742951 
L 271.595876 -171.934132 
L 271.082799 -174.125314 
L 270.589951 -176.316495 
L 270.12124 -178.507676 
L 269.680364 -180.698858 
L 269.270739 -182.890039 
L 268.895437 -185.081221 
L 268.557129 -187.272402 
L 268.25803 -189.463584 
L 267.999859 -191.654765 
L 267.783803 -193.845947 
L 267.6105 -196.037128 
L 267.480023 -198.228309 
L 267.391889 -200.419491 
L 267.345071 -202.610672 
L 267.338028 -204.801854 
L 267.368741 -206.993035 
L 267.434769 -209.184217 
L 267.533306 -211.375398 
L 267.661253 -213.56658 
L 267.815289 -215.757761 
L 267.991954 -217.948942 
L 268.18773 -220.140124 
L 268.39912 -222.331305 
L 268.62273 -224.522487 
L 268.855345 -226.713668 
L 269.093991 -228.90485 
L 269.335999 -231.096031 
L 269.579057 -233.287213 
L 269.821239 -235.478394 
L 270.06104 -237.669575 
L 270.297383 -239.860757 
L 270.529625 -242.051938 
L 270.757536 -244.24312 
L 270.981283 -246.434301 
L 271.20139 -248.625483 
L 271.418695 -250.816664 
L 271.634297 -253.007846 
L 271.849495 -255.199027 
L 272.065733 -257.390208 
L 272.284524 -259.58139 
L 272.507399 -261.772571 
L 272.735832 -263.963753 
L 272.971193 -266.154934 
L 273.214689 -268.346116 
L 273.467322 -270.537297 
L 273.729849 -272.728479 
L 274.002761 -274.91966 
L 274.286257 -277.110841 
L 274.58024 -279.302023 
L 274.884319 -281.493204 
L 275.197816 -283.684386 
L 275.519786 -285.875567 
L 275.849044 -288.066749 
L 276.184195 -290.25793 
L 276.52367 -292.449112 
L 276.865769 -294.640293 
L 277.208698 -296.831474 
L 277.550619 -299.022656 
L 277.889682 -301.213837 
L 278.224073 -303.405019 
L 278.552047 -305.5962 
L 278.871963 -307.787382 
L 279.182309 -309.978563 
L 279.48173 -312.169745 
L 279.769042 -314.360926 
L 280.043249 -316.552107 
L 280.303546 -318.743289 
L 280.549325 -320.93447 
L 280.780171 -323.125652 
L 280.995855 -325.316833 
L 281.196327 -327.508015 
L 281.381697 -329.699196 
L 281.552226 -331.890378 
L 281.708306 -334.081559 
L 281.85044 -336.27274 
L 283.93081 -336.27274 
L 283.93081 -336.27274 
L 284.072944 -334.081559 
L 284.229024 -331.890378 
L 284.399553 -329.699196 
L 284.584923 -327.508015 
L 284.785395 -325.316833 
L 285.001079 -323.125652 
L 285.231925 -320.93447 
L 285.477704 -318.743289 
L 285.738001 -316.552107 
L 286.012208 -314.360926 
L 286.29952 -312.169745 
L 286.598941 -309.978563 
L 286.909287 -307.787382 
L 287.229203 -305.5962 
L 287.557177 -303.405019 
L 287.891568 -301.213837 
L 288.230631 -299.022656 
L 288.572552 -296.831474 
L 288.915481 -294.640293 
L 289.25758 -292.449112 
L 289.597055 -290.25793 
L 289.932206 -288.066749 
L 290.261464 -285.875567 
L 290.583434 -283.684386 
L 290.896931 -281.493204 
L 291.20101 -279.302023 
L 291.494993 -277.110841 
L 291.778489 -274.91966 
L 292.051401 -272.728479 
L 292.313928 -270.537297 
L 292.566561 -268.346116 
L 292.810057 -266.154934 
L 293.045418 -263.963753 
L 293.273851 -261.772571 
L 293.496726 -259.58139 
L 293.715517 -257.390208 
L 293.931755 -255.199027 
L 294.146953 -253.007846 
L 294.362555 -250.816664 
L 294.57986 -248.625483 
L 294.799967 -246.434301 
L 295.023714 -244.24312 
L 295.251625 -242.051938 
L 295.483867 -239.860757 
L 295.72021 -237.669575 
L 295.960011 -235.478394 
L 296.202193 -233.287213 
L 296.445251 -231.096031 
L 296.687259 -228.90485 
L 296.925905 -226.713668 
L 297.15852 -224.522487 
L 297.38213 -222.331305 
L 297.59352 -220.140124 
L 297.789296 -217.948942 
L 297.965961 -215.757761 
L 298.119997 -213.56658 
L 298.247944 -211.375398 
L 298.346481 -209.184217 
L 298.412509 -206.993035 
L 298.443222 -204.801854 
L 298.436179 -202.610672 
L 298.389361 -200.419491 
L 298.301227 -198.228309 
L 298.17075 -196.037128 
L 297.997447 -193.845947 
L 297.781391 -191.654765 
L 297.52322 -189.463584 
L 297.224121 -187.272402 
L 296.885813 -185.081221 
L 296.510511 -182.890039 
L 296.100886 -180.698858 
L 295.66001 -178.507676 
L 295.191299 -176.316495 
L 294.698451 -174.125314 
L 294.185374 -171.934132 
L 293.656118 -169.742951 
L 293.114806 -167.551769 
L 292.565561 -165.360588 
L 292.012448 -163.169406 
L 291.459406 -160.978225 
L 290.910194 -158.787043 
L 290.368345 -156.595862 
L 289.83712 -154.404681 
L 289.319476 -152.213499 
L 288.818043 -150.022318 
L 288.335099 -147.831136 
L 287.872568 -145.639955 
L 287.432012 -143.448773 
L 287.014639 -141.257592 
L 286.62131 -139.06641 
L 286.25256 -136.875229 
L 285.908615 -134.684048 
L 285.589419 -132.492866 
L 285.294662 -130.301685 
L 285.023807 -128.110503 
L 284.776125 -125.919322 
L 284.55072 -123.72814 
L 284.346566 -121.536959 
L 284.162533 -119.345778 
z
" style="stroke: #3f3f3f; stroke-width: 1.5"/>
    </defs>
    <g clip-path="url(#pf762d57dc3)">
     <use xlink:href="#m787c265fe2" x="0" y="370.686865" style="fill: #3274a1; stroke: #3f3f3f; stroke-width: 1.5"/>
    </g>
   </g>
   <g id="PolyCollection_4">
    <defs>
     <path id="m356a4799c3" d="M 373.244362 -94.35274 
L 371.096888 -94.35274 
L 370.944883 -96.582005 
L 370.77698 -98.81127 
L 370.592409 -101.040535 
L 370.390493 -103.2698 
L 370.170671 -105.499065 
L 369.932517 -107.72833 
L 369.675755 -109.957595 
L 369.400283 -112.18686 
L 369.106181 -114.416125 
L 368.79373 -116.64539 
L 368.463417 -118.874655 
L 368.115944 -121.10392 
L 367.752225 -123.333185 
L 367.373391 -125.56245 
L 366.980777 -127.791715 
L 366.575912 -130.02098 
L 366.160506 -132.250245 
L 365.736428 -134.47951 
L 365.30568 -136.708775 
L 364.870376 -138.93804 
L 364.432707 -141.167305 
L 363.994911 -143.39657 
L 363.559244 -145.625835 
L 363.127941 -147.8551 
L 362.70319 -150.084365 
L 362.287096 -152.31363 
L 361.881654 -154.542895 
L 361.488726 -156.77216 
L 361.110015 -159.001425 
L 360.747049 -161.23069 
L 360.401165 -163.459955 
L 360.073503 -165.68922 
L 359.765001 -167.918485 
L 359.47639 -170.14775 
L 359.208207 -172.377015 
L 358.960799 -174.60628 
L 358.734334 -176.835545 
L 358.528821 -179.06481 
L 358.344127 -181.294075 
L 358.179997 -183.52334 
L 358.036076 -185.752605 
L 357.911933 -187.98187 
L 357.807083 -190.211135 
L 357.721011 -192.4404 
L 357.653195 -194.669665 
L 357.603124 -196.89893 
L 357.570319 -199.128195 
L 357.55435 -201.35746 
L 357.554846 -203.586725 
L 357.571514 -205.81599 
L 357.604137 -208.045255 
L 357.652589 -210.27452 
L 357.716826 -212.503785 
L 357.796892 -214.73305 
L 357.892907 -216.962315 
L 358.005061 -219.19158 
L 358.1336 -221.420845 
L 358.278809 -223.65011 
L 358.440994 -225.879375 
L 358.620463 -228.10864 
L 358.8175 -230.337905 
L 359.032344 -232.56717 
L 359.265162 -234.796435 
L 359.516027 -237.0257 
L 359.784897 -239.254965 
L 360.071589 -241.48423 
L 360.375764 -243.713495 
L 360.696912 -245.94276 
L 361.03434 -248.172025 
L 361.387165 -250.40129 
L 361.754312 -252.630555 
L 362.134519 -254.85982 
L 362.526344 -257.089085 
L 362.928175 -259.31835 
L 363.338256 -261.547615 
L 363.7547 -263.77688 
L 364.175522 -266.006145 
L 364.598665 -268.23541 
L 365.022029 -270.464675 
L 365.443508 -272.69394 
L 365.86102 -274.923205 
L 366.272538 -277.15247 
L 366.676122 -279.381735 
L 367.069949 -281.611 
L 367.452334 -283.840265 
L 367.821758 -286.06953 
L 368.176879 -288.298795 
L 368.516552 -290.52806 
L 368.839833 -292.757325 
L 369.145986 -294.98659 
L 369.434481 -297.215855 
L 369.704994 -299.44512 
L 369.957394 -301.674385 
L 370.191736 -303.90365 
L 370.408244 -306.132915 
L 370.607296 -308.36218 
L 370.789406 -310.591445 
L 370.955206 -312.82071 
L 371.105423 -315.049975 
L 373.235827 -315.049975 
L 373.235827 -315.049975 
L 373.386044 -312.82071 
L 373.551844 -310.591445 
L 373.733954 -308.36218 
L 373.933006 -306.132915 
L 374.149514 -303.90365 
L 374.383856 -301.674385 
L 374.636256 -299.44512 
L 374.906769 -297.215855 
L 375.195264 -294.98659 
L 375.501417 -292.757325 
L 375.824698 -290.52806 
L 376.164371 -288.298795 
L 376.519492 -286.06953 
L 376.888916 -283.840265 
L 377.271301 -281.611 
L 377.665128 -279.381735 
L 378.068712 -277.15247 
L 378.48023 -274.923205 
L 378.897742 -272.69394 
L 379.319221 -270.464675 
L 379.742585 -268.23541 
L 380.165728 -266.006145 
L 380.58655 -263.77688 
L 381.002994 -261.547615 
L 381.413075 -259.31835 
L 381.814906 -257.089085 
L 382.206731 -254.85982 
L 382.586938 -252.630555 
L 382.954085 -250.40129 
L 383.30691 -248.172025 
L 383.644338 -245.94276 
L 383.965486 -243.713495 
L 384.269661 -241.48423 
L 384.556353 -239.254965 
L 384.825223 -237.0257 
L 385.076088 -234.796435 
L 385.308906 -232.56717 
L 385.52375 -230.337905 
L 385.720787 -228.10864 
L 385.900256 -225.879375 
L 386.062441 -223.65011 
L 386.20765 -221.420845 
L 386.336189 -219.19158 
L 386.448343 -216.962315 
L 386.544358 -214.73305 
L 386.624424 -212.503785 
L 386.688661 -210.27452 
L 386.737113 -208.045255 
L 386.769736 -205.81599 
L 386.786404 -203.586725 
L 386.7869 -201.35746 
L 386.770931 -199.128195 
L 386.738126 -196.89893 
L 386.688055 -194.669665 
L 386.620239 -192.4404 
L 386.534167 -190.211135 
L 386.429317 -187.98187 
L 386.305174 -185.752605 
L 386.161253 -183.52334 
L 385.997123 -181.294075 
L 385.812429 -179.06481 
L 385.606916 -176.835545 
L 385.380451 -174.60628 
L 385.133043 -172.377015 
L 384.86486 -170.14775 
L 384.576249 -167.918485 
L 384.267747 -165.68922 
L 383.940085 -163.459955 
L 383.594201 -161.23069 
L 383.231235 -159.001425 
L 382.852524 -156.77216 
L 382.459596 -154.542895 
L 382.054154 -152.31363 
L 381.63806 -150.084365 
L 381.213309 -147.8551 
L 380.782006 -145.625835 
L 380.346339 -143.39657 
L 379.908543 -141.167305 
L 379.470874 -138.93804 
L 379.03557 -136.708775 
L 378.604822 -134.47951 
L 378.180744 -132.250245 
L 377.765338 -130.02098 
L 377.360473 -127.791715 
L 376.967859 -125.56245 
L 376.589025 -123.333185 
L 376.225306 -121.10392 
L 375.877833 -118.874655 
L 375.54752 -116.64539 
L 375.235069 -114.416125 
L 374.940967 -112.18686 
L 374.665495 -109.957595 
L 374.408733 -107.72833 
L 374.170579 -105.499065 
L 373.950757 -103.2698 
L 373.748841 -101.040535 
L 373.56427 -98.81127 
L 373.396367 -96.582005 
L 373.244362 -94.35274 
z
" style="stroke: #3f3f3f; stroke-width: 1.5"/>
    </defs>
    <g clip-path="url(#pf762d57dc3)">
     <use xlink:href="#m356a4799c3" x="0" y="370.686865" style="fill: #c7c7c7; stroke: #3f3f3f; stroke-width: 1.5"/>
    </g>
   </g>
   <g id="matplotlib.axis_1">
    <g id="xtick_1">
     <g id="line2d_1">
      <defs>
       <path id="mcc31e5afe8" d="M 0 0 
L 0 3.5 
" style="stroke: #000000; stroke-width: 0.8"/>
      </defs>
      <g>
       <use xlink:href="#mcc31e5afe8" x="104.330625" y="288.430125" style="stroke: #000000; stroke-width: 0.8"/>
      </g>
     </g>
     <g id="text_1">
      <!-- aflplusplus_ast_o1 -->
      <g transform="translate(23.899569 347.766815)rotate(-30)scale(0.1 -0.1)">
       <defs>
        <path id="DejaVuSans-61" d="M 2194 1759 
Q 1497 1759 1228 1600 
Q 959 1441 959 1056 
Q 959 750 1161 570 
Q 1363 391 1709 391 
Q 2188 391 2477 730 
Q 2766 1069 2766 1631 
L 2766 1759 
L 2194 1759 
z
M 3341 1997 
L 3341 0 
L 2766 0 
L 2766 531 
Q 2569 213 2275 61 
Q 1981 -91 1556 -91 
Q 1019 -91 701 211 
Q 384 513 384 1019 
Q 384 1609 779 1909 
Q 1175 2209 1959 2209 
L 2766 2209 
L 2766 2266 
Q 2766 2663 2505 2880 
Q 2244 3097 1772 3097 
Q 1472 3097 1187 3025 
Q 903 2953 641 2809 
L 641 3341 
Q 956 3463 1253 3523 
Q 1550 3584 1831 3584 
Q 2591 3584 2966 3190 
Q 3341 2797 3341 1997 
z
" transform="scale(0.015625)"/>
        <path id="DejaVuSans-66" d="M 2375 4863 
L 2375 4384 
L 1825 4384 
Q 1516 4384 1395 4259 
Q 1275 4134 1275 3809 
L 1275 3500 
L 2222 3500 
L 2222 3053 
L 1275 3053 
L 1275 0 
L 697 0 
L 697 3053 
L 147 3053 
L 147 3500 
L 697 3500 
L 697 3744 
Q 697 4328 969 4595 
Q 1241 4863 1831 4863 
L 2375 4863 
z
" transform="scale(0.015625)"/>
        <path id="DejaVuSans-6c" d="M 603 4863 
L 1178 4863 
L 1178 0 
L 603 0 
L 603 4863 
z
" transform="scale(0.015625)"/>
        <path id="DejaVuSans-70" d="M 1159 525 
L 1159 -1331 
L 581 -1331 
L 581 3500 
L 1159 3500 
L 1159 2969 
Q 1341 3281 1617 3432 
Q 1894 3584 2278 3584 
Q 2916 3584 3314 3078 
Q 3713 2572 3713 1747 
Q 3713 922 3314 415 
Q 2916 -91 2278 -91 
Q 1894 -91 1617 61 
Q 1341 213 1159 525 
z
M 3116 1747 
Q 3116 2381 2855 2742 
Q 2594 3103 2138 3103 
Q 1681 3103 1420 2742 
Q 1159 2381 1159 1747 
Q 1159 1113 1420 752 
Q 1681 391 2138 391 
Q 2594 391 2855 752 
Q 3116 1113 3116 1747 
z
" transform="scale(0.015625)"/>
        <path id="DejaVuSans-75" d="M 544 1381 
L 544 3500 
L 1119 3500 
L 1119 1403 
Q 1119 906 1312 657 
Q 1506 409 1894 409 
Q 2359 409 2629 706 
Q 2900 1003 2900 1516 
L 2900 3500 
L 3475 3500 
L 3475 0 
L 2900 0 
L 2900 538 
Q 2691 219 2414 64 
Q 2138 -91 1772 -91 
Q 1169 -91 856 284 
Q 544 659 544 1381 
z
M 1991 3584 
L 1991 3584 
z
" transform="scale(0.015625)"/>
        <path id="DejaVuSans-73" d="M 2834 3397 
L 2834 2853 
Q 2591 2978 2328 3040 
Q 2066 3103 1784 3103 
Q 1356 3103 1142 2972 
Q 928 2841 928 2578 
Q 928 2378 1081 2264 
Q 1234 2150 1697 2047 
L 1894 2003 
Q 2506 1872 2764 1633 
Q 3022 1394 3022 966 
Q 3022 478 2636 193 
Q 2250 -91 1575 -91 
Q 1294 -91 989 -36 
Q 684 19 347 128 
L 347 722 
Q 666 556 975 473 
Q 1284 391 1588 391 
Q 1994 391 2212 530 
Q 2431 669 2431 922 
Q 2431 1156 2273 1281 
Q 2116 1406 1581 1522 
L 1381 1569 
Q 847 1681 609 1914 
Q 372 2147 372 2553 
Q 372 3047 722 3315 
Q 1072 3584 1716 3584 
Q 2034 3584 2315 3537 
Q 2597 3491 2834 3397 
z
" transform="scale(0.015625)"/>
        <path id="DejaVuSans-5f" d="M 3263 -1063 
L 3263 -1509 
L -63 -1509 
L -63 -1063 
L 3263 -1063 
z
" transform="scale(0.015625)"/>
        <path id="DejaVuSans-74" d="M 1172 4494 
L 1172 3500 
L 2356 3500 
L 2356 3053 
L 1172 3053 
L 1172 1153 
Q 1172 725 1289 603 
Q 1406 481 1766 481 
L 2356 481 
L 2356 0 
L 1766 0 
Q 1100 0 847 248 
Q 594 497 594 1153 
L 594 3053 
L 172 3053 
L 172 3500 
L 594 3500 
L 594 4494 
L 1172 4494 
z
" transform="scale(0.015625)"/>
        <path id="DejaVuSans-6f" d="M 1959 3097 
Q 1497 3097 1228 2736 
Q 959 2375 959 1747 
Q 959 1119 1226 758 
Q 1494 397 1959 397 
Q 2419 397 2687 759 
Q 2956 1122 2956 1747 
Q 2956 2369 2687 2733 
Q 2419 3097 1959 3097 
z
M 1959 3584 
Q 2709 3584 3137 3096 
Q 3566 2609 3566 1747 
Q 3566 888 3137 398 
Q 2709 -91 1959 -91 
Q 1206 -91 779 398 
Q 353 888 353 1747 
Q 353 2609 779 3096 
Q 1206 3584 1959 3584 
z
" transform="scale(0.015625)"/>
        <path id="DejaVuSans-31" d="M 794 531 
L 1825 531 
L 1825 4091 
L 703 3866 
L 703 4441 
L 1819 4666 
L 2450 4666 
L 2450 531 
L 3481 531 
L 3481 0 
L 794 0 
L 794 531 
z
" transform="scale(0.015625)"/>
       </defs>
       <use xlink:href="#DejaVuSans-61"/>
       <use xlink:href="#DejaVuSans-66" x="61.279297"/>
       <use xlink:href="#DejaVuSans-6c" x="96.484375"/>
       <use xlink:href="#DejaVuSans-70" x="124.267578"/>
       <use xlink:href="#DejaVuSans-6c" x="187.744141"/>
       <use xlink:href="#DejaVuSans-75" x="215.527344"/>
       <use xlink:href="#DejaVuSans-73" x="278.90625"/>
       <use xlink:href="#DejaVuSans-70" x="331.005859"/>
       <use xlink:href="#DejaVuSans-6c" x="394.482422"/>
       <use xlink:href="#DejaVuSans-75" x="422.265625"/>
       <use xlink:href="#DejaVuSans-73" x="485.644531"/>
       <use xlink:href="#DejaVuSans-5f" x="537.744141"/>
       <use xlink:href="#DejaVuSans-61" x="587.744141"/>
       <use xlink:href="#DejaVuSans-73" x="649.023438"/>
       <use xlink:href="#DejaVuSans-74" x="701.123047"/>
       <use xlink:href="#DejaVuSans-5f" x="740.332031"/>
       <use xlink:href="#DejaVuSans-6f" x="790.332031"/>
       <use xlink:href="#DejaVuSans-31" x="851.513672"/>
      </g>
     </g>
    </g>
    <g id="xtick_2">
     <g id="line2d_2">
      <g>
       <use xlink:href="#mcc31e5afe8" x="193.610625" y="288.430125" style="stroke: #000000; stroke-width: 0.8"/>
      </g>
     </g>
     <g id="text_2">
      <!-- aflplusplus_ast_o2 -->
      <g transform="translate(113.179569 347.766815)rotate(-30)scale(0.1 -0.1)">
       <defs>
        <path id="DejaVuSans-32" d="M 1228 531 
L 3431 531 
L 3431 0 
L 469 0 
L 469 531 
Q 828 903 1448 1529 
Q 2069 2156 2228 2338 
Q 2531 2678 2651 2914 
Q 2772 3150 2772 3378 
Q 2772 3750 2511 3984 
Q 2250 4219 1831 4219 
Q 1534 4219 1204 4116 
Q 875 4013 500 3803 
L 500 4441 
Q 881 4594 1212 4672 
Q 1544 4750 1819 4750 
Q 2544 4750 2975 4387 
Q 3406 4025 3406 3419 
Q 3406 3131 3298 2873 
Q 3191 2616 2906 2266 
Q 2828 2175 2409 1742 
Q 1991 1309 1228 531 
z
" transform="scale(0.015625)"/>
       </defs>
       <use xlink:href="#DejaVuSans-61"/>
       <use xlink:href="#DejaVuSans-66" x="61.279297"/>
       <use xlink:href="#DejaVuSans-6c" x="96.484375"/>
       <use xlink:href="#DejaVuSans-70" x="124.267578"/>
       <use xlink:href="#DejaVuSans-6c" x="187.744141"/>
       <use xlink:href="#DejaVuSans-75" x="215.527344"/>
       <use xlink:href="#DejaVuSans-73" x="278.90625"/>
       <use xlink:href="#DejaVuSans-70" x="331.005859"/>
       <use xlink:href="#DejaVuSans-6c" x="394.482422"/>
       <use xlink:href="#DejaVuSans-75" x="422.265625"/>
       <use xlink:href="#DejaVuSans-73" x="485.644531"/>
       <use xlink:href="#DejaVuSans-5f" x="537.744141"/>
       <use xlink:href="#DejaVuSans-61" x="587.744141"/>
       <use xlink:href="#DejaVuSans-73" x="649.023438"/>
       <use xlink:href="#DejaVuSans-74" x="701.123047"/>
       <use xlink:href="#DejaVuSans-5f" x="740.332031"/>
       <use xlink:href="#DejaVuSans-6f" x="790.332031"/>
       <use xlink:href="#DejaVuSans-32" x="851.513672"/>
      </g>
     </g>
    </g>
    <g id="xtick_3">
     <g id="line2d_3">
      <g>
       <use xlink:href="#mcc31e5afe8" x="282.890625" y="288.430125" style="stroke: #000000; stroke-width: 0.8"/>
      </g>
     </g>
     <g id="text_3">
      <!-- aflplusplus_ast_o0 -->
      <g transform="translate(202.459569 347.766815)rotate(-30)scale(0.1 -0.1)">
       <defs>
        <path id="DejaVuSans-30" d="M 2034 4250 
Q 1547 4250 1301 3770 
Q 1056 3291 1056 2328 
Q 1056 1369 1301 889 
Q 1547 409 2034 409 
Q 2525 409 2770 889 
Q 3016 1369 3016 2328 
Q 3016 3291 2770 3770 
Q 2525 4250 2034 4250 
z
M 2034 4750 
Q 2819 4750 3233 4129 
Q 3647 3509 3647 2328 
Q 3647 1150 3233 529 
Q 2819 -91 2034 -91 
Q 1250 -91 836 529 
Q 422 1150 422 2328 
Q 422 3509 836 4129 
Q 1250 4750 2034 4750 
z
" transform="scale(0.015625)"/>
       </defs>
       <use xlink:href="#DejaVuSans-61"/>
       <use xlink:href="#DejaVuSans-66" x="61.279297"/>
       <use xlink:href="#DejaVuSans-6c" x="96.484375"/>
       <use xlink:href="#DejaVuSans-70" x="124.267578"/>
       <use xlink:href="#DejaVuSans-6c" x="187.744141"/>
       <use xlink:href="#DejaVuSans-75" x="215.527344"/>
       <use xlink:href="#DejaVuSans-73" x="278.90625"/>
       <use xlink:href="#DejaVuSans-70" x="331.005859"/>
       <use xlink:href="#DejaVuSans-6c" x="394.482422"/>
       <use xlink:href="#DejaVuSans-75" x="422.265625"/>
       <use xlink:href="#DejaVuSans-73" x="485.644531"/>
       <use xlink:href="#DejaVuSans-5f" x="537.744141"/>
       <use xlink:href="#DejaVuSans-61" x="587.744141"/>
       <use xlink:href="#DejaVuSans-73" x="649.023438"/>
       <use xlink:href="#DejaVuSans-74" x="701.123047"/>
       <use xlink:href="#DejaVuSans-5f" x="740.332031"/>
       <use xlink:href="#DejaVuSans-6f" x="790.332031"/>
       <use xlink:href="#DejaVuSans-30" x="851.513672"/>
      </g>
     </g>
    </g>
    <g id="xtick_4">
     <g id="line2d_4">
      <g>
       <use xlink:href="#mcc31e5afe8" x="372.170625" y="288.430125" style="stroke: #000000; stroke-width: 0.8"/>
      </g>
     </g>
     <g id="text_4">
      <!-- aflplusplus_ast_o3 -->
      <g transform="translate(291.739569 347.766815)rotate(-30)scale(0.1 -0.1)">
       <defs>
        <path id="DejaVuSans-33" d="M 2597 2516 
Q 3050 2419 3304 2112 
Q 3559 1806 3559 1356 
Q 3559 666 3084 287 
Q 2609 -91 1734 -91 
Q 1441 -91 1130 -33 
Q 819 25 488 141 
L 488 750 
Q 750 597 1062 519 
Q 1375 441 1716 441 
Q 2309 441 2620 675 
Q 2931 909 2931 1356 
Q 2931 1769 2642 2001 
Q 2353 2234 1838 2234 
L 1294 2234 
L 1294 2753 
L 1863 2753 
Q 2328 2753 2575 2939 
Q 2822 3125 2822 3475 
Q 2822 3834 2567 4026 
Q 2313 4219 1838 4219 
Q 1578 4219 1281 4162 
Q 984 4106 628 3988 
L 628 4550 
Q 988 4650 1302 4700 
Q 1616 4750 1894 4750 
Q 2613 4750 3031 4423 
Q 3450 4097 3450 3541 
Q 3450 3153 3228 2886 
Q 3006 2619 2597 2516 
z
" transform="scale(0.015625)"/>
       </defs>
       <use xlink:href="#DejaVuSans-61"/>
       <use xlink:href="#DejaVuSans-66" x="61.279297"/>
       <use xlink:href="#DejaVuSans-6c" x="96.484375"/>
       <use xlink:href="#DejaVuSans-70" x="124.267578"/>
       <use xlink:href="#DejaVuSans-6c" x="187.744141"/>
       <use xlink:href="#DejaVuSans-75" x="215.527344"/>
       <use xlink:href="#DejaVuSans-73" x="278.90625"/>
       <use xlink:href="#DejaVuSans-70" x="331.005859"/>
       <use xlink:href="#DejaVuSans-6c" x="394.482422"/>
       <use xlink:href="#DejaVuSans-75" x="422.265625"/>
       <use xlink:href="#DejaVuSans-73" x="485.644531"/>
       <use xlink:href="#DejaVuSans-5f" x="537.744141"/>
       <use xlink:href="#DejaVuSans-61" x="587.744141"/>
       <use xlink:href="#DejaVuSans-73" x="649.023438"/>
       <use xlink:href="#DejaVuSans-74" x="701.123047"/>
       <use xlink:href="#DejaVuSans-5f" x="740.332031"/>
       <use xlink:href="#DejaVuSans-6f" x="790.332031"/>
       <use xlink:href="#DejaVuSans-33" x="851.513672"/>
      </g>
     </g>
    </g>
    <g id="text_5">
     <!-- Fuzzer (highest median coverage on the left) -->
     <g transform="translate(125.632656 361.407178)scale(0.1 -0.1)">
      <defs>
       <path id="DejaVuSans-46" d="M 628 4666 
L 3309 4666 
L 3309 4134 
L 1259 4134 
L 1259 2759 
L 3109 2759 
L 3109 2228 
L 1259 2228 
L 1259 0 
L 628 0 
L 628 4666 
z
" transform="scale(0.015625)"/>
       <path id="DejaVuSans-7a" d="M 353 3500 
L 3084 3500 
L 3084 2975 
L 922 459 
L 3084 459 
L 3084 0 
L 275 0 
L 275 525 
L 2438 3041 
L 353 3041 
L 353 3500 
z
" transform="scale(0.015625)"/>
       <path id="DejaVuSans-65" d="M 3597 1894 
L 3597 1613 
L 953 1613 
Q 991 1019 1311 708 
Q 1631 397 2203 397 
Q 2534 397 2845 478 
Q 3156 559 3463 722 
L 3463 178 
Q 3153 47 2828 -22 
Q 2503 -91 2169 -91 
Q 1331 -91 842 396 
Q 353 884 353 1716 
Q 353 2575 817 3079 
Q 1281 3584 2069 3584 
Q 2775 3584 3186 3129 
Q 3597 2675 3597 1894 
z
M 3022 2063 
Q 3016 2534 2758 2815 
Q 2500 3097 2075 3097 
Q 1594 3097 1305 2825 
Q 1016 2553 972 2059 
L 3022 2063 
z
" transform="scale(0.015625)"/>
       <path id="DejaVuSans-72" d="M 2631 2963 
Q 2534 3019 2420 3045 
Q 2306 3072 2169 3072 
Q 1681 3072 1420 2755 
Q 1159 2438 1159 1844 
L 1159 0 
L 581 0 
L 581 3500 
L 1159 3500 
L 1159 2956 
Q 1341 3275 1631 3429 
Q 1922 3584 2338 3584 
Q 2397 3584 2469 3576 
Q 2541 3569 2628 3553 
L 2631 2963 
z
" transform="scale(0.015625)"/>
       <path id="DejaVuSans-20" transform="scale(0.015625)"/>
       <path id="DejaVuSans-28" d="M 1984 4856 
Q 1566 4138 1362 3434 
Q 1159 2731 1159 2009 
Q 1159 1288 1364 580 
Q 1569 -128 1984 -844 
L 1484 -844 
Q 1016 -109 783 600 
Q 550 1309 550 2009 
Q 550 2706 781 3412 
Q 1013 4119 1484 4856 
L 1984 4856 
z
" transform="scale(0.015625)"/>
       <path id="DejaVuSans-68" d="M 3513 2113 
L 3513 0 
L 2938 0 
L 2938 2094 
Q 2938 2591 2744 2837 
Q 2550 3084 2163 3084 
Q 1697 3084 1428 2787 
Q 1159 2491 1159 1978 
L 1159 0 
L 581 0 
L 581 4863 
L 1159 4863 
L 1159 2956 
Q 1366 3272 1645 3428 
Q 1925 3584 2291 3584 
Q 2894 3584 3203 3211 
Q 3513 2838 3513 2113 
z
" transform="scale(0.015625)"/>
       <path id="DejaVuSans-69" d="M 603 3500 
L 1178 3500 
L 1178 0 
L 603 0 
L 603 3500 
z
M 603 4863 
L 1178 4863 
L 1178 4134 
L 603 4134 
L 603 4863 
z
" transform="scale(0.015625)"/>
       <path id="DejaVuSans-67" d="M 2906 1791 
Q 2906 2416 2648 2759 
Q 2391 3103 1925 3103 
Q 1463 3103 1205 2759 
Q 947 2416 947 1791 
Q 947 1169 1205 825 
Q 1463 481 1925 481 
Q 2391 481 2648 825 
Q 2906 1169 2906 1791 
z
M 3481 434 
Q 3481 -459 3084 -895 
Q 2688 -1331 1869 -1331 
Q 1566 -1331 1297 -1286 
Q 1028 -1241 775 -1147 
L 775 -588 
Q 1028 -725 1275 -790 
Q 1522 -856 1778 -856 
Q 2344 -856 2625 -561 
Q 2906 -266 2906 331 
L 2906 616 
Q 2728 306 2450 153 
Q 2172 0 1784 0 
Q 1141 0 747 490 
Q 353 981 353 1791 
Q 353 2603 747 3093 
Q 1141 3584 1784 3584 
Q 2172 3584 2450 3431 
Q 2728 3278 2906 2969 
L 2906 3500 
L 3481 3500 
L 3481 434 
z
" transform="scale(0.015625)"/>
       <path id="DejaVuSans-6d" d="M 3328 2828 
Q 3544 3216 3844 3400 
Q 4144 3584 4550 3584 
Q 5097 3584 5394 3201 
Q 5691 2819 5691 2113 
L 5691 0 
L 5113 0 
L 5113 2094 
Q 5113 2597 4934 2840 
Q 4756 3084 4391 3084 
Q 3944 3084 3684 2787 
Q 3425 2491 3425 1978 
L 3425 0 
L 2847 0 
L 2847 2094 
Q 2847 2600 2669 2842 
Q 2491 3084 2119 3084 
Q 1678 3084 1418 2786 
Q 1159 2488 1159 1978 
L 1159 0 
L 581 0 
L 581 3500 
L 1159 3500 
L 1159 2956 
Q 1356 3278 1631 3431 
Q 1906 3584 2284 3584 
Q 2666 3584 2933 3390 
Q 3200 3197 3328 2828 
z
" transform="scale(0.015625)"/>
       <path id="DejaVuSans-64" d="M 2906 2969 
L 2906 4863 
L 3481 4863 
L 3481 0 
L 2906 0 
L 2906 525 
Q 2725 213 2448 61 
Q 2172 -91 1784 -91 
Q 1150 -91 751 415 
Q 353 922 353 1747 
Q 353 2572 751 3078 
Q 1150 3584 1784 3584 
Q 2172 3584 2448 3432 
Q 2725 3281 2906 2969 
z
M 947 1747 
Q 947 1113 1208 752 
Q 1469 391 1925 391 
Q 2381 391 2643 752 
Q 2906 1113 2906 1747 
Q 2906 2381 2643 2742 
Q 2381 3103 1925 3103 
Q 1469 3103 1208 2742 
Q 947 2381 947 1747 
z
" transform="scale(0.015625)"/>
       <path id="DejaVuSans-6e" d="M 3513 2113 
L 3513 0 
L 2938 0 
L 2938 2094 
Q 2938 2591 2744 2837 
Q 2550 3084 2163 3084 
Q 1697 3084 1428 2787 
Q 1159 2491 1159 1978 
L 1159 0 
L 581 0 
L 581 3500 
L 1159 3500 
L 1159 2956 
Q 1366 3272 1645 3428 
Q 1925 3584 2291 3584 
Q 2894 3584 3203 3211 
Q 3513 2838 3513 2113 
z
" transform="scale(0.015625)"/>
       <path id="DejaVuSans-63" d="M 3122 3366 
L 3122 2828 
Q 2878 2963 2633 3030 
Q 2388 3097 2138 3097 
Q 1578 3097 1268 2742 
Q 959 2388 959 1747 
Q 959 1106 1268 751 
Q 1578 397 2138 397 
Q 2388 397 2633 464 
Q 2878 531 3122 666 
L 3122 134 
Q 2881 22 2623 -34 
Q 2366 -91 2075 -91 
Q 1284 -91 818 406 
Q 353 903 353 1747 
Q 353 2603 823 3093 
Q 1294 3584 2113 3584 
Q 2378 3584 2631 3529 
Q 2884 3475 3122 3366 
z
" transform="scale(0.015625)"/>
       <path id="DejaVuSans-76" d="M 191 3500 
L 800 3500 
L 1894 563 
L 2988 3500 
L 3597 3500 
L 2284 0 
L 1503 0 
L 191 3500 
z
" transform="scale(0.015625)"/>
       <path id="DejaVuSans-29" d="M 513 4856 
L 1013 4856 
Q 1481 4119 1714 3412 
Q 1947 2706 1947 2009 
Q 1947 1309 1714 600 
Q 1481 -109 1013 -844 
L 513 -844 
Q 928 -128 1133 580 
Q 1338 1288 1338 2009 
Q 1338 2731 1133 3434 
Q 928 4138 513 4856 
z
" transform="scale(0.015625)"/>
      </defs>
      <use xlink:href="#DejaVuSans-46"/>
      <use xlink:href="#DejaVuSans-75" x="52.019531"/>
      <use xlink:href="#DejaVuSans-7a" x="115.398438"/>
      <use xlink:href="#DejaVuSans-7a" x="167.888672"/>
      <use xlink:href="#DejaVuSans-65" x="220.378906"/>
      <use xlink:href="#DejaVuSans-72" x="281.902344"/>
      <use xlink:href="#DejaVuSans-20" x="323.015625"/>
      <use xlink:href="#DejaVuSans-28" x="354.802734"/>
      <use xlink:href="#DejaVuSans-68" x="393.816406"/>
      <use xlink:href="#DejaVuSans-69" x="457.195312"/>
      <use xlink:href="#DejaVuSans-67" x="484.978516"/>
      <use xlink:href="#DejaVuSans-68" x="548.455078"/>
      <use xlink:href="#DejaVuSans-65" x="611.833984"/>
      <use xlink:href="#DejaVuSans-73" x="673.357422"/>
      <use xlink:href="#DejaVuSans-74" x="725.457031"/>
      <use xlink:href="#DejaVuSans-20" x="764.666016"/>
      <use xlink:href="#DejaVuSans-6d" x="796.453125"/>
      <use xlink:href="#DejaVuSans-65" x="893.865234"/>
      <use xlink:href="#DejaVuSans-64" x="955.388672"/>
      <use xlink:href="#DejaVuSans-69" x="1018.865234"/>
      <use xlink:href="#DejaVuSans-61" x="1046.648438"/>
      <use xlink:href="#DejaVuSans-6e" x="1107.927734"/>
      <use xlink:href="#DejaVuSans-20" x="1171.306641"/>
      <use xlink:href="#DejaVuSans-63" x="1203.09375"/>
      <use xlink:href="#DejaVuSans-6f" x="1258.074219"/>
      <use xlink:href="#DejaVuSans-76" x="1319.255859"/>
      <use xlink:href="#DejaVuSans-65" x="1378.435547"/>
      <use xlink:href="#DejaVuSans-72" x="1439.958984"/>
      <use xlink:href="#DejaVuSans-61" x="1481.072266"/>
      <use xlink:href="#DejaVuSans-67" x="1542.351562"/>
      <use xlink:href="#DejaVuSans-65" x="1605.828125"/>
      <use xlink:href="#DejaVuSans-20" x="1667.351562"/>
      <use xlink:href="#DejaVuSans-6f" x="1699.138672"/>
      <use xlink:href="#DejaVuSans-6e" x="1760.320312"/>
      <use xlink:href="#DejaVuSans-20" x="1823.699219"/>
      <use xlink:href="#DejaVuSans-74" x="1855.486328"/>
      <use xlink:href="#DejaVuSans-68" x="1894.695312"/>
      <use xlink:href="#DejaVuSans-65" x="1958.074219"/>
      <use xlink:href="#DejaVuSans-20" x="2019.597656"/>
      <use xlink:href="#DejaVuSans-6c" x="2051.384766"/>
      <use xlink:href="#DejaVuSans-65" x="2079.167969"/>
      <use xlink:href="#DejaVuSans-66" x="2140.691406"/>
      <use xlink:href="#DejaVuSans-74" x="2174.146484"/>
      <use xlink:href="#DejaVuSans-29" x="2213.355469"/>
     </g>
    </g>
   </g>
   <g id="matplotlib.axis_2">
    <g id="ytick_1">
     <g id="line2d_5">
      <defs>
       <path id="mfe3fb3132c" d="M 0 0 
L -3.5 0 
" style="stroke: #000000; stroke-width: 0.8"/>
      </defs>
      <g>
       <use xlink:href="#mfe3fb3132c" x="59.690625" y="243.633515" style="stroke: #000000; stroke-width: 0.8"/>
      </g>
     </g>
     <g id="text_6">
      <!-- 11000 -->
      <g transform="translate(20.878125 247.432734)scale(0.1 -0.1)">
       <use xlink:href="#DejaVuSans-31"/>
       <use xlink:href="#DejaVuSans-31" x="63.623047"/>
       <use xlink:href="#DejaVuSans-30" x="127.246094"/>
       <use xlink:href="#DejaVuSans-30" x="190.869141"/>
       <use xlink:href="#DejaVuSans-30" x="254.492188"/>
      </g>
     </g>
    </g>
    <g id="ytick_2">
     <g id="line2d_6">
      <g>
       <use xlink:href="#mfe3fb3132c" x="59.690625" y="198.14552" style="stroke: #000000; stroke-width: 0.8"/>
      </g>
     </g>
     <g id="text_7">
      <!-- 11500 -->
      <g transform="translate(20.878125 201.944739)scale(0.1 -0.1)">
       <defs>
        <path id="DejaVuSans-35" d="M 691 4666 
L 3169 4666 
L 3169 4134 
L 1269 4134 
L 1269 2991 
Q 1406 3038 1543 3061 
Q 1681 3084 1819 3084 
Q 2600 3084 3056 2656 
Q 3513 2228 3513 1497 
Q 3513 744 3044 326 
Q 2575 -91 1722 -91 
Q 1428 -91 1123 -41 
Q 819 9 494 109 
L 494 744 
Q 775 591 1075 516 
Q 1375 441 1709 441 
Q 2250 441 2565 725 
Q 2881 1009 2881 1497 
Q 2881 1984 2565 2268 
Q 2250 2553 1709 2553 
Q 1456 2553 1204 2497 
Q 953 2441 691 2322 
L 691 4666 
z
" transform="scale(0.015625)"/>
       </defs>
       <use xlink:href="#DejaVuSans-31"/>
       <use xlink:href="#DejaVuSans-31" x="63.623047"/>
       <use xlink:href="#DejaVuSans-35" x="127.246094"/>
       <use xlink:href="#DejaVuSans-30" x="190.869141"/>
       <use xlink:href="#DejaVuSans-30" x="254.492188"/>
      </g>
     </g>
    </g>
    <g id="ytick_3">
     <g id="line2d_7">
      <g>
       <use xlink:href="#mfe3fb3132c" x="59.690625" y="152.657525" style="stroke: #000000; stroke-width: 0.8"/>
      </g>
     </g>
     <g id="text_8">
      <!-- 12000 -->
      <g transform="translate(20.878125 156.456744)scale(0.1 -0.1)">
       <use xlink:href="#DejaVuSans-31"/>
       <use xlink:href="#DejaVuSans-32" x="63.623047"/>
       <use xlink:href="#DejaVuSans-30" x="127.246094"/>
       <use xlink:href="#DejaVuSans-30" x="190.869141"/>
       <use xlink:href="#DejaVuSans-30" x="254.492188"/>
      </g>
     </g>
    </g>
    <g id="ytick_4">
     <g id="line2d_8">
      <g>
       <use xlink:href="#mfe3fb3132c" x="59.690625" y="107.169531" style="stroke: #000000; stroke-width: 0.8"/>
      </g>
     </g>
     <g id="text_9">
      <!-- 12500 -->
      <g transform="translate(20.878125 110.968749)scale(0.1 -0.1)">
       <use xlink:href="#DejaVuSans-31"/>
       <use xlink:href="#DejaVuSans-32" x="63.623047"/>
       <use xlink:href="#DejaVuSans-35" x="127.246094"/>
       <use xlink:href="#DejaVuSans-30" x="190.869141"/>
       <use xlink:href="#DejaVuSans-30" x="254.492188"/>
      </g>
     </g>
    </g>
    <g id="ytick_5">
     <g id="line2d_9">
      <g>
       <use xlink:href="#mfe3fb3132c" x="59.690625" y="61.681536" style="stroke: #000000; stroke-width: 0.8"/>
      </g>
     </g>
     <g id="text_10">
      <!-- 13000 -->
      <g transform="translate(20.878125 65.480755)scale(0.1 -0.1)">
       <use xlink:href="#DejaVuSans-31"/>
       <use xlink:href="#DejaVuSans-33" x="63.623047"/>
       <use xlink:href="#DejaVuSans-30" x="127.246094"/>
       <use xlink:href="#DejaVuSans-30" x="190.869141"/>
       <use xlink:href="#DejaVuSans-30" x="254.492188"/>
      </g>
     </g>
    </g>
    <g id="text_11">
     <!-- Reached region coverage -->
     <g transform="translate(14.798438 219.136625)rotate(-90)scale(0.1 -0.1)">
      <defs>
       <path id="DejaVuSans-52" d="M 2841 2188 
Q 3044 2119 3236 1894 
Q 3428 1669 3622 1275 
L 4263 0 
L 3584 0 
L 2988 1197 
Q 2756 1666 2539 1819 
Q 2322 1972 1947 1972 
L 1259 1972 
L 1259 0 
L 628 0 
L 628 4666 
L 2053 4666 
Q 2853 4666 3247 4331 
Q 3641 3997 3641 3322 
Q 3641 2881 3436 2590 
Q 3231 2300 2841 2188 
z
M 1259 4147 
L 1259 2491 
L 2053 2491 
Q 2509 2491 2742 2702 
Q 2975 2913 2975 3322 
Q 2975 3731 2742 3939 
Q 2509 4147 2053 4147 
L 1259 4147 
z
" transform="scale(0.015625)"/>
      </defs>
      <use xlink:href="#DejaVuSans-52"/>
      <use xlink:href="#DejaVuSans-65" x="64.982422"/>
      <use xlink:href="#DejaVuSans-61" x="126.505859"/>
      <use xlink:href="#DejaVuSans-63" x="187.785156"/>
      <use xlink:href="#DejaVuSans-68" x="242.765625"/>
      <use xlink:href="#DejaVuSans-65" x="306.144531"/>
      <use xlink:href="#DejaVuSans-64" x="367.667969"/>
      <use xlink:href="#DejaVuSans-20" x="431.144531"/>
      <use xlink:href="#DejaVuSans-72" x="462.931641"/>
      <use xlink:href="#DejaVuSans-65" x="501.794922"/>
      <use xlink:href="#DejaVuSans-67" x="563.318359"/>
      <use xlink:href="#DejaVuSans-69" x="626.794922"/>
      <use xlink:href="#DejaVuSans-6f" x="654.578125"/>
      <use xlink:href="#DejaVuSans-6e" x="715.759766"/>
      <use xlink:href="#DejaVuSans-20" x="779.138672"/>
      <use xlink:href="#DejaVuSans-63" x="810.925781"/>
      <use xlink:href="#DejaVuSans-6f" x="865.90625"/>
      <use xlink:href="#DejaVuSans-76" x="927.087891"/>
      <use xlink:href="#DejaVuSans-65" x="986.267578"/>
      <use xlink:href="#DejaVuSans-72" x="1047.791016"/>
      <use xlink:href="#DejaVuSans-61" x="1088.904297"/>
      <use xlink:href="#DejaVuSans-67" x="1150.183594"/>
      <use xlink:href="#DejaVuSans-65" x="1213.660156"/>
     </g>
    </g>
   </g>
   <g id="line2d_10">
    <path d="M 104.330625 162.391956 
L 104.330625 113.08297 
" clip-path="url(#pf762d57dc3)" style="fill: none; stroke: #3f3f3f; stroke-width: 1.5; stroke-linecap: square"/>
   </g>
   <g id="line2d_11">
    <path d="M 104.330625 139.466007 
L 104.330625 114.811514 
" clip-path="url(#pf762d57dc3)" style="fill: none; stroke: #3f3f3f; stroke-width: 4.5; stroke-linecap: square"/>
   </g>
   <g id="line2d_12">
    <path d="M 193.610625 142.286263 
L 193.610625 107.715387 
" clip-path="url(#pf762d57dc3)" style="fill: none; stroke: #3f3f3f; stroke-width: 1.5; stroke-linecap: square"/>
   </g>
   <g id="line2d_13">
    <path d="M 193.610625 140.330279 
L 193.610625 123.044841 
" clip-path="url(#pf762d57dc3)" style="fill: none; stroke: #3f3f3f; stroke-width: 4.5; stroke-linecap: square"/>
   </g>
   <g id="line2d_14">
    <path d="M 282.890625 183.589362 
L 282.890625 102.165851 
" clip-path="url(#pf762d57dc3)" style="fill: none; stroke: #3f3f3f; stroke-width: 1.5; stroke-linecap: square"/>
   </g>
   <g id="line2d_15">
    <path d="M 282.890625 172.854195 
L 282.890625 132.14244 
" clip-path="url(#pf762d57dc3)" style="fill: none; stroke: #3f3f3f; stroke-width: 4.5; stroke-linecap: square"/>
   </g>
   <g id="line2d_16">
    <path d="M 372.170625 208.334831 
L 372.170625 123.636185 
" clip-path="url(#pf762d57dc3)" style="fill: none; stroke: #3f3f3f; stroke-width: 1.5; stroke-linecap: square"/>
   </g>
   <g id="line2d_17">
    <path d="M 372.170625 187.728769 
L 372.170625 145.379446 
" clip-path="url(#pf762d57dc3)" style="fill: none; stroke: #3f3f3f; stroke-width: 4.5; stroke-linecap: square"/>
   </g>
   <g id="patch_3">
    <path d="M 59.690625 243.633515 
L 59.690625 61.681536 
" style="fill: none; stroke: #000000; stroke-width: 0.8; stroke-linejoin: miter; stroke-linecap: square"/>
   </g>
   <g id="patch_4">
    <path d="M 104.330625 288.430125 
L 372.170625 288.430125 
" style="fill: none; stroke: #000000; stroke-width: 0.8; stroke-linejoin: miter; stroke-linecap: square"/>
   </g>
   <g id="PathCollection_1">
    <defs>
     <path id="mc52116108b" d="M 0 1.5 
C 0.397805 1.5 0.77937 1.341951 1.06066 1.06066 
C 1.341951 0.77937 1.5 0.397805 1.5 0 
C 1.5 -0.397805 1.341951 -0.77937 1.06066 -1.06066 
C 0.77937 -1.341951 0.397805 -1.5 0 -1.5 
C -0.397805 -1.5 -0.77937 -1.341951 -1.06066 -1.06066 
C -1.341951 -0.77937 -1.5 -0.397805 -1.5 0 
C -1.5 0.397805 -1.341951 0.77937 -1.06066 1.06066 
C -0.77937 1.341951 -0.397805 1.5 0 1.5 
z
" style="stroke: #3f3f3f"/>
    </defs>
    <g clip-path="url(#pf762d57dc3)">
     <use xlink:href="#mc52116108b" x="104.330625" y="116.540058" style="fill: #ffffff; stroke: #3f3f3f"/>
    </g>
   </g>
   <g id="PathCollection_2">
    <g clip-path="url(#pf762d57dc3)">
     <use xlink:href="#mc52116108b" x="193.610625" y="138.374295" style="fill: #ffffff; stroke: #3f3f3f"/>
    </g>
   </g>
   <g id="PathCollection_3">
    <g clip-path="url(#pf762d57dc3)">
     <use xlink:href="#mc52116108b" x="282.890625" y="162.119028" style="fill: #ffffff; stroke: #3f3f3f"/>
    </g>
   </g>
   <g id="PathCollection_4">
    <g clip-path="url(#pf762d57dc3)">
     <use xlink:href="#mc52116108b" x="372.170625" y="167.122708" style="fill: #ffffff; stroke: #3f3f3f"/>
    </g>
   </g>
   <g id="text_12">
    <!-- libxml2-v2.9.2 (4h, 3 trials/fuzzer) -->
    <g transform="translate(136.30875 16.318125)scale(0.12 -0.12)">
     <defs>
      <path id="DejaVuSans-62" d="M 3116 1747 
Q 3116 2381 2855 2742 
Q 2594 3103 2138 3103 
Q 1681 3103 1420 2742 
Q 1159 2381 1159 1747 
Q 1159 1113 1420 752 
Q 1681 391 2138 391 
Q 2594 391 2855 752 
Q 3116 1113 3116 1747 
z
M 1159 2969 
Q 1341 3281 1617 3432 
Q 1894 3584 2278 3584 
Q 2916 3584 3314 3078 
Q 3713 2572 3713 1747 
Q 3713 922 3314 415 
Q 2916 -91 2278 -91 
Q 1894 -91 1617 61 
Q 1341 213 1159 525 
L 1159 0 
L 581 0 
L 581 4863 
L 1159 4863 
L 1159 2969 
z
" transform="scale(0.015625)"/>
      <path id="DejaVuSans-78" d="M 3513 3500 
L 2247 1797 
L 3578 0 
L 2900 0 
L 1881 1375 
L 863 0 
L 184 0 
L 1544 1831 
L 300 3500 
L 978 3500 
L 1906 2253 
L 2834 3500 
L 3513 3500 
z
" transform="scale(0.015625)"/>
      <path id="DejaVuSans-2d" d="M 313 2009 
L 1997 2009 
L 1997 1497 
L 313 1497 
L 313 2009 
z
" transform="scale(0.015625)"/>
      <path id="DejaVuSans-2e" d="M 684 794 
L 1344 794 
L 1344 0 
L 684 0 
L 684 794 
z
" transform="scale(0.015625)"/>
      <path id="DejaVuSans-39" d="M 703 97 
L 703 672 
Q 941 559 1184 500 
Q 1428 441 1663 441 
Q 2288 441 2617 861 
Q 2947 1281 2994 2138 
Q 2813 1869 2534 1725 
Q 2256 1581 1919 1581 
Q 1219 1581 811 2004 
Q 403 2428 403 3163 
Q 403 3881 828 4315 
Q 1253 4750 1959 4750 
Q 2769 4750 3195 4129 
Q 3622 3509 3622 2328 
Q 3622 1225 3098 567 
Q 2575 -91 1691 -91 
Q 1453 -91 1209 -44 
Q 966 3 703 97 
z
M 1959 2075 
Q 2384 2075 2632 2365 
Q 2881 2656 2881 3163 
Q 2881 3666 2632 3958 
Q 2384 4250 1959 4250 
Q 1534 4250 1286 3958 
Q 1038 3666 1038 3163 
Q 1038 2656 1286 2365 
Q 1534 2075 1959 2075 
z
" transform="scale(0.015625)"/>
      <path id="DejaVuSans-34" d="M 2419 4116 
L 825 1625 
L 2419 1625 
L 2419 4116 
z
M 2253 4666 
L 3047 4666 
L 3047 1625 
L 3713 1625 
L 3713 1100 
L 3047 1100 
L 3047 0 
L 2419 0 
L 2419 1100 
L 313 1100 
L 313 1709 
L 2253 4666 
z
" transform="scale(0.015625)"/>
      <path id="DejaVuSans-2c" d="M 750 794 
L 1409 794 
L 1409 256 
L 897 -744 
L 494 -744 
L 750 256 
L 750 794 
z
" transform="scale(0.015625)"/>
      <path id="DejaVuSans-2f" d="M 1625 4666 
L 2156 4666 
L 531 -594 
L 0 -594 
L 1625 4666 
z
" transform="scale(0.015625)"/>
     </defs>
     <use xlink:href="#DejaVuSans-6c"/>
     <use xlink:href="#DejaVuSans-69" x="27.783203"/>
     <use xlink:href="#DejaVuSans-62" x="55.566406"/>
     <use xlink:href="#DejaVuSans-78" x="119.042969"/>
     <use xlink:href="#DejaVuSans-6d" x="178.222656"/>
     <use xlink:href="#DejaVuSans-6c" x="275.634766"/>
     <use xlink:href="#DejaVuSans-32" x="303.417969"/>
     <use xlink:href="#DejaVuSans-2d" x="367.041016"/>
     <use xlink:href="#DejaVuSans-76" x="400.5"/>
     <use xlink:href="#DejaVuSans-32" x="459.679688"/>
     <use xlink:href="#DejaVuSans-2e" x="523.302734"/>
     <use xlink:href="#DejaVuSans-39" x="555.089844"/>
     <use xlink:href="#DejaVuSans-2e" x="618.712891"/>
     <use xlink:href="#DejaVuSans-32" x="650.5"/>
     <use xlink:href="#DejaVuSans-20" x="714.123047"/>
     <use xlink:href="#DejaVuSans-28" x="745.910156"/>
     <use xlink:href="#DejaVuSans-34" x="784.923828"/>
     <use xlink:href="#DejaVuSans-68" x="848.546875"/>
     <use xlink:href="#DejaVuSans-2c" x="911.925781"/>
     <use xlink:href="#DejaVuSans-20" x="943.712891"/>
     <use xlink:href="#DejaVuSans-33" x="975.5"/>
     <use xlink:href="#DejaVuSans-20" x="1039.123047"/>
     <use xlink:href="#DejaVuSans-74" x="1070.910156"/>
     <use xlink:href="#DejaVuSans-72" x="1110.119141"/>
     <use xlink:href="#DejaVuSans-69" x="1151.232422"/>
     <use xlink:href="#DejaVuSans-61" x="1179.015625"/>
     <use xlink:href="#DejaVuSans-6c" x="1240.294922"/>
     <use xlink:href="#DejaVuSans-73" x="1268.078125"/>
     <use xlink:href="#DejaVuSans-2f" x="1320.177734"/>
     <use xlink:href="#DejaVuSans-66" x="1353.869141"/>
     <use xlink:href="#DejaVuSans-75" x="1389.074219"/>
     <use xlink:href="#DejaVuSans-7a" x="1452.453125"/>
     <use xlink:href="#DejaVuSans-7a" x="1504.943359"/>
     <use xlink:href="#DejaVuSans-65" x="1557.433594"/>
     <use xlink:href="#DejaVuSans-72" x="1618.957031"/>
     <use xlink:href="#DejaVuSans-29" x="1660.070312"/>
    </g>
   </g>
  </g>
 </g>
 <defs>
  <clipPath id="pf762d57dc3">
   <rect x="59.690625" y="22.318125" width="357.12" height="266.112"/>
  </clipPath>
 </defs>
</svg>
