<?xml version="1.0" encoding="utf-8" standalone="no"?>
<!DOCTYPE svg PUBLIC "-//W3C//DTD SVG 1.1//EN"
  "http://www.w3.org/Graphics/SVG/1.1/DTD/svg11.dtd">
<svg xmlns:xlink="http://www.w3.org/1999/xlink" width="417.648125pt" height="370.686865pt" viewBox="0 0 417.648125 370.686865" xmlns="http://www.w3.org/2000/svg" version="1.1">
 <metadata>
  <rdf:RDF xmlns:dc="http://purl.org/dc/elements/1.1/" xmlns:cc="http://creativecommons.org/ns#" xmlns:rdf="http://www.w3.org/1999/02/22-rdf-syntax-ns#">
   <cc:Work>
    <dc:type rdf:resource="http://purl.org/dc/dcmitype/StillImage"/>
    <dc:date>2022-04-27T20:14:32.914399</dc:date>
    <dc:format>image/svg+xml</dc:format>
    <dc:creator>
     <cc:Agent>
      <dc:title>Matplotlib v3.5.1, https://matplotlib.org/</dc:title>
     </cc:Agent>
    </dc:creator>
   </cc:Work>
  </rdf:RDF>
 </metadata>
 <defs>
  <style type="text/css">*{stroke-linejoin: round; stroke-linecap: butt}</style>
 </defs>
 <g id="figure_1">
  <g id="patch_1">
   <path d="M 0 370.686865 
L 417.648125 370.686865 
L 417.648125 0 
L 0 0 
z
" style="fill: #ffffff"/>
  </g>
  <g id="axes_1">
   <g id="patch_2">
    <path d="M 53.328125 288.430125 
L 410.448125 288.430125 
L 410.448125 22.318125 
L 53.328125 22.318125 
z
" style="fill: #ffffff"/>
   </g>
   <g id="PolyCollection_1">
    <defs>
     <path id="me0f3aa2693" d="M 98.151183 -162.055015 
L 97.785067 -162.055015 
L 97.761096 -163.812907 
L 97.73488 -165.570798 
L 97.706348 -167.328689 
L 97.675443 -169.086581 
L 97.642131 -170.844472 
L 97.606402 -172.602363 
L 97.568271 -174.360255 
L 97.52778 -176.118146 
L 97.485003 -177.876038 
L 97.440042 -179.633929 
L 97.393031 -181.39182 
L 97.344136 -183.149712 
L 97.293553 -184.907603 
L 97.241503 -186.665495 
L 97.188237 -188.423386 
L 97.134026 -190.181277 
L 97.079158 -191.939169 
L 97.023937 -193.69706 
L 96.96867 -195.454952 
L 96.91367 -197.212843 
L 96.859241 -198.970734 
L 96.805674 -200.728626 
L 96.753242 -202.486517 
L 96.702189 -204.244408 
L 96.652728 -206.0023 
L 96.605028 -207.760191 
L 96.559216 -209.518083 
L 96.515368 -211.275974 
L 96.473506 -213.033865 
L 96.433596 -214.791757 
L 96.39555 -216.549648 
L 96.359222 -218.30754 
L 96.324415 -220.065431 
L 96.290884 -221.823322 
L 96.258342 -223.581214 
L 96.226464 -225.339105 
L 96.194903 -227.096997 
L 96.163293 -228.854888 
L 96.131265 -230.612779 
L 96.098456 -232.370671 
L 96.064522 -234.128562 
L 96.029153 -235.886453 
L 95.992079 -237.644345 
L 95.953087 -239.402236 
L 95.912029 -241.160128 
L 95.868832 -242.918019 
L 95.823503 -244.67591 
L 95.77614 -246.433802 
L 95.726928 -248.191693 
L 95.676146 -249.949585 
L 95.624163 -251.707476 
L 95.571434 -253.465367 
L 95.518495 -255.223259 
L 95.465953 -256.98115 
L 95.414479 -258.739042 
L 95.364788 -260.496933 
L 95.317633 -262.254824 
L 95.273786 -264.012716 
L 95.234019 -265.770607 
L 95.199093 -267.528498 
L 95.169737 -269.28639 
L 95.146635 -271.044281 
L 95.130407 -272.802173 
L 95.121598 -274.560064 
L 95.120665 -276.317955 
L 95.127966 -278.075847 
L 95.143753 -279.833738 
L 95.168165 -281.59163 
L 95.201225 -283.349521 
L 95.242839 -285.107412 
L 95.2928 -286.865304 
L 95.35079 -288.623195 
L 95.416389 -290.381087 
L 95.48908 -292.138978 
L 95.568265 -293.896869 
L 95.653273 -295.654761 
L 95.743372 -297.412652 
L 95.837789 -299.170543 
L 95.935717 -300.928435 
L 96.036335 -302.686326 
L 96.138821 -304.444218 
L 96.242361 -306.202109 
L 96.346167 -307.96 
L 96.449488 -309.717892 
L 96.551615 -311.475783 
L 96.651895 -313.233675 
L 96.749735 -314.991566 
L 96.844607 -316.749457 
L 96.936055 -318.507349 
L 97.023691 -320.26524 
L 97.107201 -322.023131 
L 97.186342 -323.781023 
L 97.260938 -325.538914 
L 97.330878 -327.296806 
L 97.396113 -329.054697 
L 97.45665 -330.812588 
L 97.512544 -332.57048 
L 97.563897 -334.328371 
L 97.610846 -336.086263 
L 98.325404 -336.086263 
L 98.325404 -336.086263 
L 98.372353 -334.328371 
L 98.423706 -332.57048 
L 98.4796 -330.812588 
L 98.540137 -329.054697 
L 98.605372 -327.296806 
L 98.675312 -325.538914 
L 98.749908 -323.781023 
L 98.829049 -322.023131 
L 98.912559 -320.26524 
L 99.000195 -318.507349 
L 99.091643 -316.749457 
L 99.186515 -314.991566 
L 99.284355 -313.233675 
L 99.384635 -311.475783 
L 99.486762 -309.717892 
L 99.590083 -307.96 
L 99.693889 -306.202109 
L 99.797429 -304.444218 
L 99.899915 -302.686326 
L 100.000533 -300.928435 
L 100.098461 -299.170543 
L 100.192878 -297.412652 
L 100.282977 -295.654761 
L 100.367985 -293.896869 
L 100.44717 -292.138978 
L 100.519861 -290.381087 
L 100.58546 -288.623195 
L 100.64345 -286.865304 
L 100.693411 -285.107412 
L 100.735025 -283.349521 
L 100.768085 -281.59163 
L 100.792497 -279.833738 
L 100.808284 -278.075847 
L 100.815585 -276.317955 
L 100.814652 -274.560064 
L 100.805843 -272.802173 
L 100.789615 -271.044281 
L 100.766513 -269.28639 
L 100.737157 -267.528498 
L 100.702231 -265.770607 
L 100.662464 -264.012716 
L 100.618617 -262.254824 
L 100.571462 -260.496933 
L 100.521771 -258.739042 
L 100.470297 -256.98115 
L 100.417755 -255.223259 
L 100.364816 -253.465367 
L 100.312087 -251.707476 
L 100.260104 -249.949585 
L 100.209322 -248.191693 
L 100.16011 -246.433802 
L 100.112747 -244.67591 
L 100.067418 -242.918019 
L 100.024221 -241.160128 
L 99.983163 -239.402236 
L 99.944171 -237.644345 
L 99.907097 -235.886453 
L 99.871728 -234.128562 
L 99.837794 -232.370671 
L 99.804985 -230.612779 
L 99.772957 -228.854888 
L 99.741347 -227.096997 
L 99.709786 -225.339105 
L 99.677908 -223.581214 
L 99.645366 -221.823322 
L 99.611835 -220.065431 
L 99.577028 -218.30754 
L 99.5407 -216.549648 
L 99.502654 -214.791757 
L 99.462744 -213.033865 
L 99.420882 -211.275974 
L 99.377034 -209.518083 
L 99.331222 -207.760191 
L 99.283522 -206.0023 
L 99.234061 -204.244408 
L 99.183008 -202.486517 
L 99.130576 -200.728626 
L 99.077009 -198.970734 
L 99.02258 -197.212843 
L 98.96758 -195.454952 
L 98.912313 -193.69706 
L 98.857092 -191.939169 
L 98.802224 -190.181277 
L 98.748013 -188.423386 
L 98.694747 -186.665495 
L 98.642697 -184.907603 
L 98.592114 -183.149712 
L 98.543219 -181.39182 
L 98.496208 -179.633929 
L 98.451247 -177.876038 
L 98.40847 -176.118146 
L 98.367979 -174.360255 
L 98.329848 -172.602363 
L 98.294119 -170.844472 
L 98.260807 -169.086581 
L 98.229902 -167.328689 
L 98.20137 -165.570798 
L 98.175154 -163.812907 
L 98.151183 -162.055015 
z
" style="stroke: #3f3f3f; stroke-width: 1.5"/>
    </defs>
    <g clip-path="url(#p04ebe509f7)">
     <use xlink:href="#me0f3aa2693" x="0" y="370.686865" style="fill: #c7c7c7; stroke: #3f3f3f; stroke-width: 1.5"/>
    </g>
   </g>
   <g id="PolyCollection_2">
    <defs>
     <path id="m2d07ec5018" d="M 189.861658 -264.735715 
L 184.634592 -264.735715 
L 184.265318 -264.869908 
L 183.857581 -265.0041 
L 183.40955 -265.138292 
L 182.919629 -265.272485 
L 182.386505 -265.406677 
L 181.809193 -265.54087 
L 181.187086 -265.675062 
L 180.51999 -265.809254 
L 179.808164 -265.943447 
L 179.052347 -266.077639 
L 178.253781 -266.211831 
L 177.414221 -266.346024 
L 176.535936 -266.480216 
L 175.621707 -266.614409 
L 174.674799 -266.748601 
L 173.698939 -266.882793 
L 172.698266 -267.016986 
L 171.67729 -267.151178 
L 170.640823 -267.285371 
L 169.593918 -267.419563 
L 168.541791 -267.553755 
L 167.489748 -267.687948 
L 166.4431 -267.82214 
L 165.40709 -267.956332 
L 164.386809 -268.090525 
L 163.387128 -268.224717 
L 162.412632 -268.35891 
L 161.467557 -268.493102 
L 160.555745 -268.627294 
L 159.680605 -268.761487 
L 158.845084 -268.895679 
L 158.051657 -269.029871 
L 157.302318 -269.164064 
L 156.598593 -269.298256 
L 155.941559 -269.432449 
L 155.331871 -269.566641 
L 154.7698 -269.700833 
L 154.255279 -269.835026 
L 153.787955 -269.969218 
L 153.367239 -270.10341 
L 152.992365 -270.237603 
L 152.662447 -270.371795 
L 152.376532 -270.505988 
L 152.133658 -270.64018 
L 151.932899 -270.774372 
L 151.77341 -270.908565 
L 151.65447 -271.042757 
L 151.575506 -271.176949 
L 151.536125 -271.311142 
L 151.536125 -271.445334 
L 151.575506 -271.579527 
L 151.65447 -271.713719 
L 151.77341 -271.847911 
L 151.932899 -271.982104 
L 152.133658 -272.116296 
L 152.376532 -272.250488 
L 152.662447 -272.384681 
L 152.992365 -272.518873 
L 153.367239 -272.653066 
L 153.787955 -272.787258 
L 154.255279 -272.92145 
L 154.7698 -273.055643 
L 155.331871 -273.189835 
L 155.941559 -273.324027 
L 156.598593 -273.45822 
L 157.302318 -273.592412 
L 158.051657 -273.726605 
L 158.845084 -273.860797 
L 159.680605 -273.994989 
L 160.555745 -274.129182 
L 161.467557 -274.263374 
L 162.412632 -274.397566 
L 163.387128 -274.531759 
L 164.386809 -274.665951 
L 165.40709 -274.800144 
L 166.4431 -274.934336 
L 167.489748 -275.068528 
L 168.541791 -275.202721 
L 169.593918 -275.336913 
L 170.640823 -275.471105 
L 171.67729 -275.605298 
L 172.698266 -275.73949 
L 173.698939 -275.873683 
L 174.674799 -276.007875 
L 175.621707 -276.142067 
L 176.535936 -276.27626 
L 177.414221 -276.410452 
L 178.253781 -276.544644 
L 179.052347 -276.678837 
L 179.808164 -276.813029 
L 180.51999 -276.947222 
L 181.187086 -277.081414 
L 181.809193 -277.215606 
L 182.386505 -277.349799 
L 182.919629 -277.483991 
L 183.40955 -277.618183 
L 183.857581 -277.752376 
L 184.265318 -277.886568 
L 184.634592 -278.020761 
L 189.861658 -278.020761 
L 189.861658 -278.020761 
L 190.230932 -277.886568 
L 190.638669 -277.752376 
L 191.0867 -277.618183 
L 191.576621 -277.483991 
L 192.109745 -277.349799 
L 192.687057 -277.215606 
L 193.309164 -277.081414 
L 193.97626 -276.947222 
L 194.688086 -276.813029 
L 195.443903 -276.678837 
L 196.242469 -276.544644 
L 197.082029 -276.410452 
L 197.960314 -276.27626 
L 198.874543 -276.142067 
L 199.821451 -276.007875 
L 200.797311 -275.873683 
L 201.797984 -275.73949 
L 202.81896 -275.605298 
L 203.855427 -275.471105 
L 204.902332 -275.336913 
L 205.954459 -275.202721 
L 207.006502 -275.068528 
L 208.05315 -274.934336 
L 209.08916 -274.800144 
L 210.109441 -274.665951 
L 211.109122 -274.531759 
L 212.083618 -274.397566 
L 213.028693 -274.263374 
L 213.940505 -274.129182 
L 214.815645 -273.994989 
L 215.651166 -273.860797 
L 216.444593 -273.726605 
L 217.193932 -273.592412 
L 217.897657 -273.45822 
L 218.554691 -273.324027 
L 219.164379 -273.189835 
L 219.72645 -273.055643 
L 220.240971 -272.92145 
L 220.708295 -272.787258 
L 221.129011 -272.653066 
L 221.503885 -272.518873 
L 221.833803 -272.384681 
L 222.119718 -272.250488 
L 222.362592 -272.116296 
L 222.563351 -271.982104 
L 222.72284 -271.847911 
L 222.84178 -271.713719 
L 222.920744 -271.579527 
L 222.960125 -271.445334 
L 222.960125 -271.311142 
L 222.920744 -271.176949 
L 222.84178 -271.042757 
L 222.72284 -270.908565 
L 222.563351 -270.774372 
L 222.362592 -270.64018 
L 222.119718 -270.505988 
L 221.833803 -270.371795 
L 221.503885 -270.237603 
L 221.129011 -270.10341 
L 220.708295 -269.969218 
L 220.240971 -269.835026 
L 219.72645 -269.700833 
L 219.164379 -269.566641 
L 218.554691 -269.432449 
L 217.897657 -269.298256 
L 217.193932 -269.164064 
L 216.444593 -269.029871 
L 215.651166 -268.895679 
L 214.815645 -268.761487 
L 213.940505 -268.627294 
L 213.028693 -268.493102 
L 212.083618 -268.35891 
L 211.109122 -268.224717 
L 210.109441 -268.090525 
L 209.08916 -267.956332 
L 208.05315 -267.82214 
L 207.006502 -267.687948 
L 205.954459 -267.553755 
L 204.902332 -267.419563 
L 203.855427 -267.285371 
L 202.81896 -267.151178 
L 201.797984 -267.016986 
L 200.797311 -266.882793 
L 199.821451 -266.748601 
L 198.874543 -266.614409 
L 197.960314 -266.480216 
L 197.082029 -266.346024 
L 196.242469 -266.211831 
L 195.443903 -266.077639 
L 194.688086 -265.943447 
L 193.97626 -265.809254 
L 193.309164 -265.675062 
L 192.687057 -265.54087 
L 192.109745 -265.406677 
L 191.576621 -265.272485 
L 191.0867 -265.138292 
L 190.638669 -265.0041 
L 190.230932 -264.869908 
L 189.861658 -264.735715 
z
" style="stroke: #3f3f3f; stroke-width: 1.5"/>
    </defs>
    <g clip-path="url(#p04ebe509f7)">
     <use xlink:href="#m2d07ec5018" x="0" y="370.686865" style="fill: #9fd495; stroke: #3f3f3f; stroke-width: 1.5"/>
    </g>
   </g>
   <g id="PolyCollection_3">
    <defs>
     <path id="md97d2becfc" d="M 276.798015 -150.396058 
L 276.258235 -150.396058 
L 276.220352 -152.2736 
L 276.178533 -154.151142 
L 276.132596 -156.028685 
L 276.082382 -157.906227 
L 276.027769 -159.783769 
L 275.96867 -161.661311 
L 275.905047 -163.538854 
L 275.836909 -165.416396 
L 275.764325 -167.293938 
L 275.687422 -169.17148 
L 275.606393 -171.049023 
L 275.521499 -172.926565 
L 275.433068 -174.804107 
L 275.341503 -176.681649 
L 275.247271 -178.559192 
L 275.150908 -180.436734 
L 275.053012 -182.314276 
L 274.954238 -184.191818 
L 274.855289 -186.069361 
L 274.756908 -187.946903 
L 274.659868 -189.824445 
L 274.564959 -191.701987 
L 274.472977 -193.57953 
L 274.384708 -195.457072 
L 274.300918 -197.334614 
L 274.222332 -199.212156 
L 274.149628 -201.089699 
L 274.083417 -202.967241 
L 274.024236 -204.844783 
L 273.972532 -206.722325 
L 273.928657 -208.599868 
L 273.892857 -210.47741 
L 273.865269 -212.354952 
L 273.845917 -214.232494 
L 273.834712 -216.110037 
L 273.831455 -217.987579 
L 273.835841 -219.865121 
L 273.847466 -221.742663 
L 273.865837 -223.620206 
L 273.890383 -225.497748 
L 273.920471 -227.37529 
L 273.955416 -229.252832 
L 273.994501 -231.130375 
L 274.036992 -233.007917 
L 274.082153 -234.885459 
L 274.129265 -236.763001 
L 274.177639 -238.640543 
L 274.22663 -240.518086 
L 274.275653 -242.395628 
L 274.32419 -244.27317 
L 274.371798 -246.150712 
L 274.418123 -248.028255 
L 274.462893 -249.905797 
L 274.505928 -251.783339 
L 274.547134 -253.660881 
L 274.586505 -255.538424 
L 274.62411 -257.415966 
L 274.660092 -259.293508 
L 274.694657 -261.17105 
L 274.728061 -263.048593 
L 274.760602 -264.926135 
L 274.792607 -266.803677 
L 274.824419 -268.681219 
L 274.856383 -270.558762 
L 274.888841 -272.436304 
L 274.922111 -274.313846 
L 274.956487 -276.191388 
L 274.992224 -278.068931 
L 275.029534 -279.946473 
L 275.068579 -281.824015 
L 275.109467 -283.701557 
L 275.152255 -285.5791 
L 275.196939 -287.456642 
L 275.243465 -289.334184 
L 275.291727 -291.211726 
L 275.341569 -293.089269 
L 275.392796 -294.966811 
L 275.445176 -296.844353 
L 275.498446 -298.721895 
L 275.552322 -300.599438 
L 275.606503 -302.47698 
L 275.660683 -304.354522 
L 275.714552 -306.232064 
L 275.767808 -308.109607 
L 275.820159 -309.987149 
L 275.871331 -311.864691 
L 275.921071 -313.742233 
L 275.969152 -315.619776 
L 276.015375 -317.497318 
L 276.059571 -319.37486 
L 276.101603 -321.252402 
L 276.141364 -323.129945 
L 276.17878 -325.007487 
L 276.213808 -326.885029 
L 276.24643 -328.762571 
L 276.276658 -330.640114 
L 276.304527 -332.517656 
L 276.330093 -334.395198 
L 276.353429 -336.27274 
L 276.702821 -336.27274 
L 276.702821 -336.27274 
L 276.726157 -334.395198 
L 276.751723 -332.517656 
L 276.779592 -330.640114 
L 276.80982 -328.762571 
L 276.842442 -326.885029 
L 276.87747 -325.007487 
L 276.914886 -323.129945 
L 276.954647 -321.252402 
L 276.996679 -319.37486 
L 277.040875 -317.497318 
L 277.087098 -315.619776 
L 277.135179 -313.742233 
L 277.184919 -311.864691 
L 277.236091 -309.987149 
L 277.288442 -308.109607 
L 277.341698 -306.232064 
L 277.395567 -304.354522 
L 277.449747 -302.47698 
L 277.503928 -300.599438 
L 277.557804 -298.721895 
L 277.611074 -296.844353 
L 277.663454 -294.966811 
L 277.714681 -293.089269 
L 277.764523 -291.211726 
L 277.812785 -289.334184 
L 277.859311 -287.456642 
L 277.903995 -285.5791 
L 277.946783 -283.701557 
L 277.987671 -281.824015 
L 278.026716 -279.946473 
L 278.064026 -278.068931 
L 278.099763 -276.191388 
L 278.134139 -274.313846 
L 278.167409 -272.436304 
L 278.199867 -270.558762 
L 278.231831 -268.681219 
L 278.263643 -266.803677 
L 278.295648 -264.926135 
L 278.328189 -263.048593 
L 278.361593 -261.17105 
L 278.396158 -259.293508 
L 278.43214 -257.415966 
L 278.469745 -255.538424 
L 278.509116 -253.660881 
L 278.550322 -251.783339 
L 278.593357 -249.905797 
L 278.638127 -248.028255 
L 278.684452 -246.150712 
L 278.73206 -244.27317 
L 278.780597 -242.395628 
L 278.82962 -240.518086 
L 278.878611 -238.640543 
L 278.926985 -236.763001 
L 278.974097 -234.885459 
L 279.019258 -233.007917 
L 279.061749 -231.130375 
L 279.100834 -229.252832 
L 279.135779 -227.37529 
L 279.165867 -225.497748 
L 279.190413 -223.620206 
L 279.208784 -221.742663 
L 279.220409 -219.865121 
L 279.224795 -217.987579 
L 279.221538 -216.110037 
L 279.210333 -214.232494 
L 279.190981 -212.354952 
L 279.163393 -210.47741 
L 279.127593 -208.599868 
L 279.083718 -206.722325 
L 279.032014 -204.844783 
L 278.972833 -202.967241 
L 278.906622 -201.089699 
L 278.833918 -199.212156 
L 278.755332 -197.334614 
L 278.671542 -195.457072 
L 278.583273 -193.57953 
L 278.491291 -191.701987 
L 278.396382 -189.824445 
L 278.299342 -187.946903 
L 278.200961 -186.069361 
L 278.102012 -184.191818 
L 278.003238 -182.314276 
L 277.905342 -180.436734 
L 277.808979 -178.559192 
L 277.714747 -176.681649 
L 277.623182 -174.804107 
L 277.534751 -172.926565 
L 277.449857 -171.049023 
L 277.368828 -169.17148 
L 277.291925 -167.293938 
L 277.219341 -165.416396 
L 277.151203 -163.538854 
L 277.08758 -161.661311 
L 277.028481 -159.783769 
L 276.973868 -157.906227 
L 276.923654 -156.028685 
L 276.877717 -154.151142 
L 276.835898 -152.2736 
L 276.798015 -150.396058 
z
" style="stroke: #3f3f3f; stroke-width: 1.5"/>
    </defs>
    <g clip-path="url(#p04ebe509f7)">
     <use xlink:href="#md97d2becfc" x="0" y="370.686865" style="fill: #c03d3e; stroke: #3f3f3f; stroke-width: 1.5"/>
    </g>
   </g>
   <g id="PolyCollection_4">
    <defs>
     <path id="m7328071959" d="M 365.970611 -94.35274 
L 365.645639 -94.35274 
L 365.622159 -96.731549 
L 365.596118 -99.110357 
L 365.567369 -101.489166 
L 365.535783 -103.867974 
L 365.501243 -106.246783 
L 365.463654 -108.625591 
L 365.422944 -111.0044 
L 365.379067 -113.383208 
L 365.33201 -115.762017 
L 365.281793 -118.140825 
L 365.228474 -120.519634 
L 365.172149 -122.898442 
L 365.112957 -125.277251 
L 365.051079 -127.656059 
L 364.986739 -130.034868 
L 364.920207 -132.413676 
L 364.85179 -134.792485 
L 364.781841 -137.171293 
L 364.710746 -139.550102 
L 364.638926 -141.92891 
L 364.56683 -144.307719 
L 364.494931 -146.686527 
L 364.423718 -149.065336 
L 364.35369 -151.444144 
L 364.285349 -153.822953 
L 364.219191 -156.201761 
L 364.155698 -158.580569 
L 364.095333 -160.959378 
L 364.038526 -163.338186 
L 363.985672 -165.716995 
L 363.937124 -168.095803 
L 363.893183 -170.474612 
L 363.854093 -172.85342 
L 363.820042 -175.232229 
L 363.791154 -177.611037 
L 363.767488 -179.989846 
L 363.749039 -182.368654 
L 363.735739 -184.747463 
L 363.727456 -187.126271 
L 363.724006 -189.50508 
L 363.725147 -191.883888 
L 363.730595 -194.262697 
L 363.740026 -196.641505 
L 363.753086 -199.020314 
L 363.769398 -201.399122 
L 363.788575 -203.777931 
L 363.810224 -206.156739 
L 363.833959 -208.535548 
L 363.859409 -210.914356 
L 363.886226 -213.293165 
L 363.914091 -215.671973 
L 363.942723 -218.050782 
L 363.971881 -220.42959 
L 364.001369 -222.808399 
L 364.031042 -225.187207 
L 364.060798 -227.566016 
L 364.090585 -229.944824 
L 364.120398 -232.323632 
L 364.150271 -234.702441 
L 364.180275 -237.081249 
L 364.210514 -239.460058 
L 364.241114 -241.838866 
L 364.272222 -244.217675 
L 364.30399 -246.596483 
L 364.336576 -248.975292 
L 364.370131 -251.3541 
L 364.404794 -253.732909 
L 364.440685 -256.111717 
L 364.477898 -258.490526 
L 364.5165 -260.869334 
L 364.556525 -263.248143 
L 364.59797 -265.626951 
L 364.640797 -268.00576 
L 364.684932 -270.384568 
L 364.730264 -272.763377 
L 364.776651 -275.142185 
L 364.823921 -277.520994 
L 364.871875 -279.899802 
L 364.920293 -282.278611 
L 364.968942 -284.657419 
L 365.017574 -287.036228 
L 365.065939 -289.415036 
L 365.113786 -291.793845 
L 365.160871 -294.172653 
L 365.206959 -296.551462 
L 365.251829 -298.93027 
L 365.295282 -301.309079 
L 365.337136 -303.687887 
L 365.377236 -306.066695 
L 365.415452 -308.445504 
L 365.45168 -310.824312 
L 365.485843 -313.203121 
L 365.51789 -315.581929 
L 365.547797 -317.960738 
L 365.575561 -320.339546 
L 365.601205 -322.718355 
L 365.624769 -325.097163 
L 365.646313 -327.475972 
L 365.66591 -329.85478 
L 365.95034 -329.85478 
L 365.95034 -329.85478 
L 365.969937 -327.475972 
L 365.991481 -325.097163 
L 366.015045 -322.718355 
L 366.040689 -320.339546 
L 366.068453 -317.960738 
L 366.09836 -315.581929 
L 366.130407 -313.203121 
L 366.16457 -310.824312 
L 366.200798 -308.445504 
L 366.239014 -306.066695 
L 366.279114 -303.687887 
L 366.320968 -301.309079 
L 366.364421 -298.93027 
L 366.409291 -296.551462 
L 366.455379 -294.172653 
L 366.502464 -291.793845 
L 366.550311 -289.415036 
L 366.598676 -287.036228 
L 366.647308 -284.657419 
L 366.695957 -282.278611 
L 366.744375 -279.899802 
L 366.792329 -277.520994 
L 366.839599 -275.142185 
L 366.885986 -272.763377 
L 366.931318 -270.384568 
L 366.975453 -268.00576 
L 367.01828 -265.626951 
L 367.059725 -263.248143 
L 367.09975 -260.869334 
L 367.138352 -258.490526 
L 367.175565 -256.111717 
L 367.211456 -253.732909 
L 367.246119 -251.3541 
L 367.279674 -248.975292 
L 367.31226 -246.596483 
L 367.344028 -244.217675 
L 367.375136 -241.838866 
L 367.405736 -239.460058 
L 367.435975 -237.081249 
L 367.465979 -234.702441 
L 367.495852 -232.323632 
L 367.525665 -229.944824 
L 367.555452 -227.566016 
L 367.585208 -225.187207 
L 367.614881 -222.808399 
L 367.644369 -220.42959 
L 367.673527 -218.050782 
L 367.702159 -215.671973 
L 367.730024 -213.293165 
L 367.756841 -210.914356 
L 367.782291 -208.535548 
L 367.806026 -206.156739 
L 367.827675 -203.777931 
L 367.846852 -201.399122 
L 367.863164 -199.020314 
L 367.876224 -196.641505 
L 367.885655 -194.262697 
L 367.891103 -191.883888 
L 367.892244 -189.50508 
L 367.888794 -187.126271 
L 367.880511 -184.747463 
L 367.867211 -182.368654 
L 367.848762 -179.989846 
L 367.825096 -177.611037 
L 367.796208 -175.232229 
L 367.762157 -172.85342 
L 367.723067 -170.474612 
L 367.679126 -168.095803 
L 367.630578 -165.716995 
L 367.577724 -163.338186 
L 367.520917 -160.959378 
L 367.460552 -158.580569 
L 367.397059 -156.201761 
L 367.330901 -153.822953 
L 367.26256 -151.444144 
L 367.192532 -149.065336 
L 367.121319 -146.686527 
L 367.04942 -144.307719 
L 366.977324 -141.92891 
L 366.905504 -139.550102 
L 366.834409 -137.171293 
L 366.76446 -134.792485 
L 366.696043 -132.413676 
L 366.629511 -130.034868 
L 366.565171 -127.656059 
L 366.503293 -125.277251 
L 366.444101 -122.898442 
L 366.387776 -120.519634 
L 366.334457 -118.140825 
L 366.28424 -115.762017 
L 366.237183 -113.383208 
L 366.193306 -111.0044 
L 366.152596 -108.625591 
L 366.115007 -106.246783 
L 366.080467 -103.867974 
L 366.048881 -101.489166 
L 366.020132 -99.110357 
L 365.994091 -96.731549 
L 365.970611 -94.35274 
z
" style="stroke: #3f3f3f; stroke-width: 1.5"/>
    </defs>
    <g clip-path="url(#p04ebe509f7)">
     <use xlink:href="#m7328071959" x="0" y="370.686865" style="fill: #3274a1; stroke: #3f3f3f; stroke-width: 1.5"/>
    </g>
   </g>
   <g id="matplotlib.axis_1">
    <g id="xtick_1">
     <g id="line2d_1">
      <defs>
       <path id="m72ac2b8d84" d="M 0 0 
L 0 3.5 
" style="stroke: #000000; stroke-width: 0.8"/>
      </defs>
      <g>
       <use xlink:href="#m72ac2b8d84" x="97.968125" y="288.430125" style="stroke: #000000; stroke-width: 0.8"/>
      </g>
     </g>
     <g id="text_1">
      <!-- aflplusplus_ast_o3 -->
      <g transform="translate(17.537069 347.766815)rotate(-30)scale(0.1 -0.1)">
       <defs>
        <path id="DejaVuSans-61" d="M 2194 1759 
Q 1497 1759 1228 1600 
Q 959 1441 959 1056 
Q 959 750 1161 570 
Q 1363 391 1709 391 
Q 2188 391 2477 730 
Q 2766 1069 2766 1631 
L 2766 1759 
L 2194 1759 
z
M 3341 1997 
L 3341 0 
L 2766 0 
L 2766 531 
Q 2569 213 2275 61 
Q 1981 -91 1556 -91 
Q 1019 -91 701 211 
Q 384 513 384 1019 
Q 384 1609 779 1909 
Q 1175 2209 1959 2209 
L 2766 2209 
L 2766 2266 
Q 2766 2663 2505 2880 
Q 2244 3097 1772 3097 
Q 1472 3097 1187 3025 
Q 903 2953 641 2809 
L 641 3341 
Q 956 3463 1253 3523 
Q 1550 3584 1831 3584 
Q 2591 3584 2966 3190 
Q 3341 2797 3341 1997 
z
" transform="scale(0.015625)"/>
        <path id="DejaVuSans-66" d="M 2375 4863 
L 2375 4384 
L 1825 4384 
Q 1516 4384 1395 4259 
Q 1275 4134 1275 3809 
L 1275 3500 
L 2222 3500 
L 2222 3053 
L 1275 3053 
L 1275 0 
L 697 0 
L 697 3053 
L 147 3053 
L 147 3500 
L 697 3500 
L 697 3744 
Q 697 4328 969 4595 
Q 1241 4863 1831 4863 
L 2375 4863 
z
" transform="scale(0.015625)"/>
        <path id="DejaVuSans-6c" d="M 603 4863 
L 1178 4863 
L 1178 0 
L 603 0 
L 603 4863 
z
" transform="scale(0.015625)"/>
        <path id="DejaVuSans-70" d="M 1159 525 
L 1159 -1331 
L 581 -1331 
L 581 3500 
L 1159 3500 
L 1159 2969 
Q 1341 3281 1617 3432 
Q 1894 3584 2278 3584 
Q 2916 3584 3314 3078 
Q 3713 2572 3713 1747 
Q 3713 922 3314 415 
Q 2916 -91 2278 -91 
Q 1894 -91 1617 61 
Q 1341 213 1159 525 
z
M 3116 1747 
Q 3116 2381 2855 2742 
Q 2594 3103 2138 3103 
Q 1681 3103 1420 2742 
Q 1159 2381 1159 1747 
Q 1159 1113 1420 752 
Q 1681 391 2138 391 
Q 2594 391 2855 752 
Q 3116 1113 3116 1747 
z
" transform="scale(0.015625)"/>
        <path id="DejaVuSans-75" d="M 544 1381 
L 544 3500 
L 1119 3500 
L 1119 1403 
Q 1119 906 1312 657 
Q 1506 409 1894 409 
Q 2359 409 2629 706 
Q 2900 1003 2900 1516 
L 2900 3500 
L 3475 3500 
L 3475 0 
L 2900 0 
L 2900 538 
Q 2691 219 2414 64 
Q 2138 -91 1772 -91 
Q 1169 -91 856 284 
Q 544 659 544 1381 
z
M 1991 3584 
L 1991 3584 
z
" transform="scale(0.015625)"/>
        <path id="DejaVuSans-73" d="M 2834 3397 
L 2834 2853 
Q 2591 2978 2328 3040 
Q 2066 3103 1784 3103 
Q 1356 3103 1142 2972 
Q 928 2841 928 2578 
Q 928 2378 1081 2264 
Q 1234 2150 1697 2047 
L 1894 2003 
Q 2506 1872 2764 1633 
Q 3022 1394 3022 966 
Q 3022 478 2636 193 
Q 2250 -91 1575 -91 
Q 1294 -91 989 -36 
Q 684 19 347 128 
L 347 722 
Q 666 556 975 473 
Q 1284 391 1588 391 
Q 1994 391 2212 530 
Q 2431 669 2431 922 
Q 2431 1156 2273 1281 
Q 2116 1406 1581 1522 
L 1381 1569 
Q 847 1681 609 1914 
Q 372 2147 372 2553 
Q 372 3047 722 3315 
Q 1072 3584 1716 3584 
Q 2034 3584 2315 3537 
Q 2597 3491 2834 3397 
z
" transform="scale(0.015625)"/>
        <path id="DejaVuSans-5f" d="M 3263 -1063 
L 3263 -1509 
L -63 -1509 
L -63 -1063 
L 3263 -1063 
z
" transform="scale(0.015625)"/>
        <path id="DejaVuSans-74" d="M 1172 4494 
L 1172 3500 
L 2356 3500 
L 2356 3053 
L 1172 3053 
L 1172 1153 
Q 1172 725 1289 603 
Q 1406 481 1766 481 
L 2356 481 
L 2356 0 
L 1766 0 
Q 1100 0 847 248 
Q 594 497 594 1153 
L 594 3053 
L 172 3053 
L 172 3500 
L 594 3500 
L 594 4494 
L 1172 4494 
z
" transform="scale(0.015625)"/>
        <path id="DejaVuSans-6f" d="M 1959 3097 
Q 1497 3097 1228 2736 
Q 959 2375 959 1747 
Q 959 1119 1226 758 
Q 1494 397 1959 397 
Q 2419 397 2687 759 
Q 2956 1122 2956 1747 
Q 2956 2369 2687 2733 
Q 2419 3097 1959 3097 
z
M 1959 3584 
Q 2709 3584 3137 3096 
Q 3566 2609 3566 1747 
Q 3566 888 3137 398 
Q 2709 -91 1959 -91 
Q 1206 -91 779 398 
Q 353 888 353 1747 
Q 353 2609 779 3096 
Q 1206 3584 1959 3584 
z
" transform="scale(0.015625)"/>
        <path id="DejaVuSans-33" d="M 2597 2516 
Q 3050 2419 3304 2112 
Q 3559 1806 3559 1356 
Q 3559 666 3084 287 
Q 2609 -91 1734 -91 
Q 1441 -91 1130 -33 
Q 819 25 488 141 
L 488 750 
Q 750 597 1062 519 
Q 1375 441 1716 441 
Q 2309 441 2620 675 
Q 2931 909 2931 1356 
Q 2931 1769 2642 2001 
Q 2353 2234 1838 2234 
L 1294 2234 
L 1294 2753 
L 1863 2753 
Q 2328 2753 2575 2939 
Q 2822 3125 2822 3475 
Q 2822 3834 2567 4026 
Q 2313 4219 1838 4219 
Q 1578 4219 1281 4162 
Q 984 4106 628 3988 
L 628 4550 
Q 988 4650 1302 4700 
Q 1616 4750 1894 4750 
Q 2613 4750 3031 4423 
Q 3450 4097 3450 3541 
Q 3450 3153 3228 2886 
Q 3006 2619 2597 2516 
z
" transform="scale(0.015625)"/>
       </defs>
       <use xlink:href="#DejaVuSans-61"/>
       <use xlink:href="#DejaVuSans-66" x="61.279297"/>
       <use xlink:href="#DejaVuSans-6c" x="96.484375"/>
       <use xlink:href="#DejaVuSans-70" x="124.267578"/>
       <use xlink:href="#DejaVuSans-6c" x="187.744141"/>
       <use xlink:href="#DejaVuSans-75" x="215.527344"/>
       <use xlink:href="#DejaVuSans-73" x="278.90625"/>
       <use xlink:href="#DejaVuSans-70" x="331.005859"/>
       <use xlink:href="#DejaVuSans-6c" x="394.482422"/>
       <use xlink:href="#DejaVuSans-75" x="422.265625"/>
       <use xlink:href="#DejaVuSans-73" x="485.644531"/>
       <use xlink:href="#DejaVuSans-5f" x="537.744141"/>
       <use xlink:href="#DejaVuSans-61" x="587.744141"/>
       <use xlink:href="#DejaVuSans-73" x="649.023438"/>
       <use xlink:href="#DejaVuSans-74" x="701.123047"/>
       <use xlink:href="#DejaVuSans-5f" x="740.332031"/>
       <use xlink:href="#DejaVuSans-6f" x="790.332031"/>
       <use xlink:href="#DejaVuSans-33" x="851.513672"/>
      </g>
     </g>
    </g>
    <g id="xtick_2">
     <g id="line2d_2">
      <g>
       <use xlink:href="#m72ac2b8d84" x="187.248125" y="288.430125" style="stroke: #000000; stroke-width: 0.8"/>
      </g>
     </g>
     <g id="text_2">
      <!-- aflplusplus_ast_o1 -->
      <g transform="translate(106.817069 347.766815)rotate(-30)scale(0.1 -0.1)">
       <defs>
        <path id="DejaVuSans-31" d="M 794 531 
L 1825 531 
L 1825 4091 
L 703 3866 
L 703 4441 
L 1819 4666 
L 2450 4666 
L 2450 531 
L 3481 531 
L 3481 0 
L 794 0 
L 794 531 
z
" transform="scale(0.015625)"/>
       </defs>
       <use xlink:href="#DejaVuSans-61"/>
       <use xlink:href="#DejaVuSans-66" x="61.279297"/>
       <use xlink:href="#DejaVuSans-6c" x="96.484375"/>
       <use xlink:href="#DejaVuSans-70" x="124.267578"/>
       <use xlink:href="#DejaVuSans-6c" x="187.744141"/>
       <use xlink:href="#DejaVuSans-75" x="215.527344"/>
       <use xlink:href="#DejaVuSans-73" x="278.90625"/>
       <use xlink:href="#DejaVuSans-70" x="331.005859"/>
       <use xlink:href="#DejaVuSans-6c" x="394.482422"/>
       <use xlink:href="#DejaVuSans-75" x="422.265625"/>
       <use xlink:href="#DejaVuSans-73" x="485.644531"/>
       <use xlink:href="#DejaVuSans-5f" x="537.744141"/>
       <use xlink:href="#DejaVuSans-61" x="587.744141"/>
       <use xlink:href="#DejaVuSans-73" x="649.023438"/>
       <use xlink:href="#DejaVuSans-74" x="701.123047"/>
       <use xlink:href="#DejaVuSans-5f" x="740.332031"/>
       <use xlink:href="#DejaVuSans-6f" x="790.332031"/>
       <use xlink:href="#DejaVuSans-31" x="851.513672"/>
      </g>
     </g>
    </g>
    <g id="xtick_3">
     <g id="line2d_3">
      <g>
       <use xlink:href="#m72ac2b8d84" x="276.528125" y="288.430125" style="stroke: #000000; stroke-width: 0.8"/>
      </g>
     </g>
     <g id="text_3">
      <!-- aflplusplus_ast_o2 -->
      <g transform="translate(196.097069 347.766815)rotate(-30)scale(0.1 -0.1)">
       <defs>
        <path id="DejaVuSans-32" d="M 1228 531 
L 3431 531 
L 3431 0 
L 469 0 
L 469 531 
Q 828 903 1448 1529 
Q 2069 2156 2228 2338 
Q 2531 2678 2651 2914 
Q 2772 3150 2772 3378 
Q 2772 3750 2511 3984 
Q 2250 4219 1831 4219 
Q 1534 4219 1204 4116 
Q 875 4013 500 3803 
L 500 4441 
Q 881 4594 1212 4672 
Q 1544 4750 1819 4750 
Q 2544 4750 2975 4387 
Q 3406 4025 3406 3419 
Q 3406 3131 3298 2873 
Q 3191 2616 2906 2266 
Q 2828 2175 2409 1742 
Q 1991 1309 1228 531 
z
" transform="scale(0.015625)"/>
       </defs>
       <use xlink:href="#DejaVuSans-61"/>
       <use xlink:href="#DejaVuSans-66" x="61.279297"/>
       <use xlink:href="#DejaVuSans-6c" x="96.484375"/>
       <use xlink:href="#DejaVuSans-70" x="124.267578"/>
       <use xlink:href="#DejaVuSans-6c" x="187.744141"/>
       <use xlink:href="#DejaVuSans-75" x="215.527344"/>
       <use xlink:href="#DejaVuSans-73" x="278.90625"/>
       <use xlink:href="#DejaVuSans-70" x="331.005859"/>
       <use xlink:href="#DejaVuSans-6c" x="394.482422"/>
       <use xlink:href="#DejaVuSans-75" x="422.265625"/>
       <use xlink:href="#DejaVuSans-73" x="485.644531"/>
       <use xlink:href="#DejaVuSans-5f" x="537.744141"/>
       <use xlink:href="#DejaVuSans-61" x="587.744141"/>
       <use xlink:href="#DejaVuSans-73" x="649.023438"/>
       <use xlink:href="#DejaVuSans-74" x="701.123047"/>
       <use xlink:href="#DejaVuSans-5f" x="740.332031"/>
       <use xlink:href="#DejaVuSans-6f" x="790.332031"/>
       <use xlink:href="#DejaVuSans-32" x="851.513672"/>
      </g>
     </g>
    </g>
    <g id="xtick_4">
     <g id="line2d_4">
      <g>
       <use xlink:href="#m72ac2b8d84" x="365.808125" y="288.430125" style="stroke: #000000; stroke-width: 0.8"/>
      </g>
     </g>
     <g id="text_4">
      <!-- aflplusplus_ast_o0 -->
      <g transform="translate(285.377069 347.766815)rotate(-30)scale(0.1 -0.1)">
       <defs>
        <path id="DejaVuSans-30" d="M 2034 4250 
Q 1547 4250 1301 3770 
Q 1056 3291 1056 2328 
Q 1056 1369 1301 889 
Q 1547 409 2034 409 
Q 2525 409 2770 889 
Q 3016 1369 3016 2328 
Q 3016 3291 2770 3770 
Q 2525 4250 2034 4250 
z
M 2034 4750 
Q 2819 4750 3233 4129 
Q 3647 3509 3647 2328 
Q 3647 1150 3233 529 
Q 2819 -91 2034 -91 
Q 1250 -91 836 529 
Q 422 1150 422 2328 
Q 422 3509 836 4129 
Q 1250 4750 2034 4750 
z
" transform="scale(0.015625)"/>
       </defs>
       <use xlink:href="#DejaVuSans-61"/>
       <use xlink:href="#DejaVuSans-66" x="61.279297"/>
       <use xlink:href="#DejaVuSans-6c" x="96.484375"/>
       <use xlink:href="#DejaVuSans-70" x="124.267578"/>
       <use xlink:href="#DejaVuSans-6c" x="187.744141"/>
       <use xlink:href="#DejaVuSans-75" x="215.527344"/>
       <use xlink:href="#DejaVuSans-73" x="278.90625"/>
       <use xlink:href="#DejaVuSans-70" x="331.005859"/>
       <use xlink:href="#DejaVuSans-6c" x="394.482422"/>
       <use xlink:href="#DejaVuSans-75" x="422.265625"/>
       <use xlink:href="#DejaVuSans-73" x="485.644531"/>
       <use xlink:href="#DejaVuSans-5f" x="537.744141"/>
       <use xlink:href="#DejaVuSans-61" x="587.744141"/>
       <use xlink:href="#DejaVuSans-73" x="649.023438"/>
       <use xlink:href="#DejaVuSans-74" x="701.123047"/>
       <use xlink:href="#DejaVuSans-5f" x="740.332031"/>
       <use xlink:href="#DejaVuSans-6f" x="790.332031"/>
       <use xlink:href="#DejaVuSans-30" x="851.513672"/>
      </g>
     </g>
    </g>
    <g id="text_5">
     <!-- Fuzzer (highest median coverage on the left) -->
     <g transform="translate(119.270156 361.407178)scale(0.1 -0.1)">
      <defs>
       <path id="DejaVuSans-46" d="M 628 4666 
L 3309 4666 
L 3309 4134 
L 1259 4134 
L 1259 2759 
L 3109 2759 
L 3109 2228 
L 1259 2228 
L 1259 0 
L 628 0 
L 628 4666 
z
" transform="scale(0.015625)"/>
       <path id="DejaVuSans-7a" d="M 353 3500 
L 3084 3500 
L 3084 2975 
L 922 459 
L 3084 459 
L 3084 0 
L 275 0 
L 275 525 
L 2438 3041 
L 353 3041 
L 353 3500 
z
" transform="scale(0.015625)"/>
       <path id="DejaVuSans-65" d="M 3597 1894 
L 3597 1613 
L 953 1613 
Q 991 1019 1311 708 
Q 1631 397 2203 397 
Q 2534 397 2845 478 
Q 3156 559 3463 722 
L 3463 178 
Q 3153 47 2828 -22 
Q 2503 -91 2169 -91 
Q 1331 -91 842 396 
Q 353 884 353 1716 
Q 353 2575 817 3079 
Q 1281 3584 2069 3584 
Q 2775 3584 3186 3129 
Q 3597 2675 3597 1894 
z
M 3022 2063 
Q 3016 2534 2758 2815 
Q 2500 3097 2075 3097 
Q 1594 3097 1305 2825 
Q 1016 2553 972 2059 
L 3022 2063 
z
" transform="scale(0.015625)"/>
       <path id="DejaVuSans-72" d="M 2631 2963 
Q 2534 3019 2420 3045 
Q 2306 3072 2169 3072 
Q 1681 3072 1420 2755 
Q 1159 2438 1159 1844 
L 1159 0 
L 581 0 
L 581 3500 
L 1159 3500 
L 1159 2956 
Q 1341 3275 1631 3429 
Q 1922 3584 2338 3584 
Q 2397 3584 2469 3576 
Q 2541 3569 2628 3553 
L 2631 2963 
z
" transform="scale(0.015625)"/>
       <path id="DejaVuSans-20" transform="scale(0.015625)"/>
       <path id="DejaVuSans-28" d="M 1984 4856 
Q 1566 4138 1362 3434 
Q 1159 2731 1159 2009 
Q 1159 1288 1364 580 
Q 1569 -128 1984 -844 
L 1484 -844 
Q 1016 -109 783 600 
Q 550 1309 550 2009 
Q 550 2706 781 3412 
Q 1013 4119 1484 4856 
L 1984 4856 
z
" transform="scale(0.015625)"/>
       <path id="DejaVuSans-68" d="M 3513 2113 
L 3513 0 
L 2938 0 
L 2938 2094 
Q 2938 2591 2744 2837 
Q 2550 3084 2163 3084 
Q 1697 3084 1428 2787 
Q 1159 2491 1159 1978 
L 1159 0 
L 581 0 
L 581 4863 
L 1159 4863 
L 1159 2956 
Q 1366 3272 1645 3428 
Q 1925 3584 2291 3584 
Q 2894 3584 3203 3211 
Q 3513 2838 3513 2113 
z
" transform="scale(0.015625)"/>
       <path id="DejaVuSans-69" d="M 603 3500 
L 1178 3500 
L 1178 0 
L 603 0 
L 603 3500 
z
M 603 4863 
L 1178 4863 
L 1178 4134 
L 603 4134 
L 603 4863 
z
" transform="scale(0.015625)"/>
       <path id="DejaVuSans-67" d="M 2906 1791 
Q 2906 2416 2648 2759 
Q 2391 3103 1925 3103 
Q 1463 3103 1205 2759 
Q 947 2416 947 1791 
Q 947 1169 1205 825 
Q 1463 481 1925 481 
Q 2391 481 2648 825 
Q 2906 1169 2906 1791 
z
M 3481 434 
Q 3481 -459 3084 -895 
Q 2688 -1331 1869 -1331 
Q 1566 -1331 1297 -1286 
Q 1028 -1241 775 -1147 
L 775 -588 
Q 1028 -725 1275 -790 
Q 1522 -856 1778 -856 
Q 2344 -856 2625 -561 
Q 2906 -266 2906 331 
L 2906 616 
Q 2728 306 2450 153 
Q 2172 0 1784 0 
Q 1141 0 747 490 
Q 353 981 353 1791 
Q 353 2603 747 3093 
Q 1141 3584 1784 3584 
Q 2172 3584 2450 3431 
Q 2728 3278 2906 2969 
L 2906 3500 
L 3481 3500 
L 3481 434 
z
" transform="scale(0.015625)"/>
       <path id="DejaVuSans-6d" d="M 3328 2828 
Q 3544 3216 3844 3400 
Q 4144 3584 4550 3584 
Q 5097 3584 5394 3201 
Q 5691 2819 5691 2113 
L 5691 0 
L 5113 0 
L 5113 2094 
Q 5113 2597 4934 2840 
Q 4756 3084 4391 3084 
Q 3944 3084 3684 2787 
Q 3425 2491 3425 1978 
L 3425 0 
L 2847 0 
L 2847 2094 
Q 2847 2600 2669 2842 
Q 2491 3084 2119 3084 
Q 1678 3084 1418 2786 
Q 1159 2488 1159 1978 
L 1159 0 
L 581 0 
L 581 3500 
L 1159 3500 
L 1159 2956 
Q 1356 3278 1631 3431 
Q 1906 3584 2284 3584 
Q 2666 3584 2933 3390 
Q 3200 3197 3328 2828 
z
" transform="scale(0.015625)"/>
       <path id="DejaVuSans-64" d="M 2906 2969 
L 2906 4863 
L 3481 4863 
L 3481 0 
L 2906 0 
L 2906 525 
Q 2725 213 2448 61 
Q 2172 -91 1784 -91 
Q 1150 -91 751 415 
Q 353 922 353 1747 
Q 353 2572 751 3078 
Q 1150 3584 1784 3584 
Q 2172 3584 2448 3432 
Q 2725 3281 2906 2969 
z
M 947 1747 
Q 947 1113 1208 752 
Q 1469 391 1925 391 
Q 2381 391 2643 752 
Q 2906 1113 2906 1747 
Q 2906 2381 2643 2742 
Q 2381 3103 1925 3103 
Q 1469 3103 1208 2742 
Q 947 2381 947 1747 
z
" transform="scale(0.015625)"/>
       <path id="DejaVuSans-6e" d="M 3513 2113 
L 3513 0 
L 2938 0 
L 2938 2094 
Q 2938 2591 2744 2837 
Q 2550 3084 2163 3084 
Q 1697 3084 1428 2787 
Q 1159 2491 1159 1978 
L 1159 0 
L 581 0 
L 581 3500 
L 1159 3500 
L 1159 2956 
Q 1366 3272 1645 3428 
Q 1925 3584 2291 3584 
Q 2894 3584 3203 3211 
Q 3513 2838 3513 2113 
z
" transform="scale(0.015625)"/>
       <path id="DejaVuSans-63" d="M 3122 3366 
L 3122 2828 
Q 2878 2963 2633 3030 
Q 2388 3097 2138 3097 
Q 1578 3097 1268 2742 
Q 959 2388 959 1747 
Q 959 1106 1268 751 
Q 1578 397 2138 397 
Q 2388 397 2633 464 
Q 2878 531 3122 666 
L 3122 134 
Q 2881 22 2623 -34 
Q 2366 -91 2075 -91 
Q 1284 -91 818 406 
Q 353 903 353 1747 
Q 353 2603 823 3093 
Q 1294 3584 2113 3584 
Q 2378 3584 2631 3529 
Q 2884 3475 3122 3366 
z
" transform="scale(0.015625)"/>
       <path id="DejaVuSans-76" d="M 191 3500 
L 800 3500 
L 1894 563 
L 2988 3500 
L 3597 3500 
L 2284 0 
L 1503 0 
L 191 3500 
z
" transform="scale(0.015625)"/>
       <path id="DejaVuSans-29" d="M 513 4856 
L 1013 4856 
Q 1481 4119 1714 3412 
Q 1947 2706 1947 2009 
Q 1947 1309 1714 600 
Q 1481 -109 1013 -844 
L 513 -844 
Q 928 -128 1133 580 
Q 1338 1288 1338 2009 
Q 1338 2731 1133 3434 
Q 928 4138 513 4856 
z
" transform="scale(0.015625)"/>
      </defs>
      <use xlink:href="#DejaVuSans-46"/>
      <use xlink:href="#DejaVuSans-75" x="52.019531"/>
      <use xlink:href="#DejaVuSans-7a" x="115.398438"/>
      <use xlink:href="#DejaVuSans-7a" x="167.888672"/>
      <use xlink:href="#DejaVuSans-65" x="220.378906"/>
      <use xlink:href="#DejaVuSans-72" x="281.902344"/>
      <use xlink:href="#DejaVuSans-20" x="323.015625"/>
      <use xlink:href="#DejaVuSans-28" x="354.802734"/>
      <use xlink:href="#DejaVuSans-68" x="393.816406"/>
      <use xlink:href="#DejaVuSans-69" x="457.195312"/>
      <use xlink:href="#DejaVuSans-67" x="484.978516"/>
      <use xlink:href="#DejaVuSans-68" x="548.455078"/>
      <use xlink:href="#DejaVuSans-65" x="611.833984"/>
      <use xlink:href="#DejaVuSans-73" x="673.357422"/>
      <use xlink:href="#DejaVuSans-74" x="725.457031"/>
      <use xlink:href="#DejaVuSans-20" x="764.666016"/>
      <use xlink:href="#DejaVuSans-6d" x="796.453125"/>
      <use xlink:href="#DejaVuSans-65" x="893.865234"/>
      <use xlink:href="#DejaVuSans-64" x="955.388672"/>
      <use xlink:href="#DejaVuSans-69" x="1018.865234"/>
      <use xlink:href="#DejaVuSans-61" x="1046.648438"/>
      <use xlink:href="#DejaVuSans-6e" x="1107.927734"/>
      <use xlink:href="#DejaVuSans-20" x="1171.306641"/>
      <use xlink:href="#DejaVuSans-63" x="1203.09375"/>
      <use xlink:href="#DejaVuSans-6f" x="1258.074219"/>
      <use xlink:href="#DejaVuSans-76" x="1319.255859"/>
      <use xlink:href="#DejaVuSans-65" x="1378.435547"/>
      <use xlink:href="#DejaVuSans-72" x="1439.958984"/>
      <use xlink:href="#DejaVuSans-61" x="1481.072266"/>
      <use xlink:href="#DejaVuSans-67" x="1542.351562"/>
      <use xlink:href="#DejaVuSans-65" x="1605.828125"/>
      <use xlink:href="#DejaVuSans-20" x="1667.351562"/>
      <use xlink:href="#DejaVuSans-6f" x="1699.138672"/>
      <use xlink:href="#DejaVuSans-6e" x="1760.320312"/>
      <use xlink:href="#DejaVuSans-20" x="1823.699219"/>
      <use xlink:href="#DejaVuSans-74" x="1855.486328"/>
      <use xlink:href="#DejaVuSans-68" x="1894.695312"/>
      <use xlink:href="#DejaVuSans-65" x="1958.074219"/>
      <use xlink:href="#DejaVuSans-20" x="2019.597656"/>
      <use xlink:href="#DejaVuSans-6c" x="2051.384766"/>
      <use xlink:href="#DejaVuSans-65" x="2079.167969"/>
      <use xlink:href="#DejaVuSans-66" x="2140.691406"/>
      <use xlink:href="#DejaVuSans-74" x="2174.146484"/>
      <use xlink:href="#DejaVuSans-29" x="2213.355469"/>
     </g>
    </g>
   </g>
   <g id="matplotlib.axis_2">
    <g id="ytick_1">
     <g id="line2d_5">
      <defs>
       <path id="m265fdfd333" d="M 0 0 
L -3.5 0 
" style="stroke: #000000; stroke-width: 0.8"/>
      </defs>
      <g>
       <use xlink:href="#m265fdfd333" x="53.328125" y="268.846381" style="stroke: #000000; stroke-width: 0.8"/>
      </g>
     </g>
     <g id="text_6">
      <!-- 5550 -->
      <g transform="translate(20.878125 272.645599)scale(0.1 -0.1)">
       <defs>
        <path id="DejaVuSans-35" d="M 691 4666 
L 3169 4666 
L 3169 4134 
L 1269 4134 
L 1269 2991 
Q 1406 3038 1543 3061 
Q 1681 3084 1819 3084 
Q 2600 3084 3056 2656 
Q 3513 2228 3513 1497 
Q 3513 744 3044 326 
Q 2575 -91 1722 -91 
Q 1428 -91 1123 -41 
Q 819 9 494 109 
L 494 744 
Q 775 591 1075 516 
Q 1375 441 1709 441 
Q 2250 441 2565 725 
Q 2881 1009 2881 1497 
Q 2881 1984 2565 2268 
Q 2250 2553 1709 2553 
Q 1456 2553 1204 2497 
Q 953 2441 691 2322 
L 691 4666 
z
" transform="scale(0.015625)"/>
       </defs>
       <use xlink:href="#DejaVuSans-35"/>
       <use xlink:href="#DejaVuSans-35" x="63.623047"/>
       <use xlink:href="#DejaVuSans-35" x="127.246094"/>
       <use xlink:href="#DejaVuSans-30" x="190.869141"/>
      </g>
     </g>
    </g>
    <g id="ytick_2">
     <g id="line2d_6">
      <g>
       <use xlink:href="#m265fdfd333" x="53.328125" y="236.978382" style="stroke: #000000; stroke-width: 0.8"/>
      </g>
     </g>
     <g id="text_7">
      <!-- 5600 -->
      <g transform="translate(20.878125 240.777601)scale(0.1 -0.1)">
       <defs>
        <path id="DejaVuSans-36" d="M 2113 2584 
Q 1688 2584 1439 2293 
Q 1191 2003 1191 1497 
Q 1191 994 1439 701 
Q 1688 409 2113 409 
Q 2538 409 2786 701 
Q 3034 994 3034 1497 
Q 3034 2003 2786 2293 
Q 2538 2584 2113 2584 
z
M 3366 4563 
L 3366 3988 
Q 3128 4100 2886 4159 
Q 2644 4219 2406 4219 
Q 1781 4219 1451 3797 
Q 1122 3375 1075 2522 
Q 1259 2794 1537 2939 
Q 1816 3084 2150 3084 
Q 2853 3084 3261 2657 
Q 3669 2231 3669 1497 
Q 3669 778 3244 343 
Q 2819 -91 2113 -91 
Q 1303 -91 875 529 
Q 447 1150 447 2328 
Q 447 3434 972 4092 
Q 1497 4750 2381 4750 
Q 2619 4750 2861 4703 
Q 3103 4656 3366 4563 
z
" transform="scale(0.015625)"/>
       </defs>
       <use xlink:href="#DejaVuSans-35"/>
       <use xlink:href="#DejaVuSans-36" x="63.623047"/>
       <use xlink:href="#DejaVuSans-30" x="127.246094"/>
       <use xlink:href="#DejaVuSans-30" x="190.869141"/>
      </g>
     </g>
    </g>
    <g id="ytick_3">
     <g id="line2d_7">
      <g>
       <use xlink:href="#m265fdfd333" x="53.328125" y="205.110383" style="stroke: #000000; stroke-width: 0.8"/>
      </g>
     </g>
     <g id="text_8">
      <!-- 5650 -->
      <g transform="translate(20.878125 208.909602)scale(0.1 -0.1)">
       <use xlink:href="#DejaVuSans-35"/>
       <use xlink:href="#DejaVuSans-36" x="63.623047"/>
       <use xlink:href="#DejaVuSans-35" x="127.246094"/>
       <use xlink:href="#DejaVuSans-30" x="190.869141"/>
      </g>
     </g>
    </g>
    <g id="ytick_4">
     <g id="line2d_8">
      <g>
       <use xlink:href="#m265fdfd333" x="53.328125" y="173.242384" style="stroke: #000000; stroke-width: 0.8"/>
      </g>
     </g>
     <g id="text_9">
      <!-- 5700 -->
      <g transform="translate(20.878125 177.041603)scale(0.1 -0.1)">
       <defs>
        <path id="DejaVuSans-37" d="M 525 4666 
L 3525 4666 
L 3525 4397 
L 1831 0 
L 1172 0 
L 2766 4134 
L 525 4134 
L 525 4666 
z
" transform="scale(0.015625)"/>
       </defs>
       <use xlink:href="#DejaVuSans-35"/>
       <use xlink:href="#DejaVuSans-37" x="63.623047"/>
       <use xlink:href="#DejaVuSans-30" x="127.246094"/>
       <use xlink:href="#DejaVuSans-30" x="190.869141"/>
      </g>
     </g>
    </g>
    <g id="ytick_5">
     <g id="line2d_9">
      <g>
       <use xlink:href="#m265fdfd333" x="53.328125" y="141.374386" style="stroke: #000000; stroke-width: 0.8"/>
      </g>
     </g>
     <g id="text_10">
      <!-- 5750 -->
      <g transform="translate(20.878125 145.173604)scale(0.1 -0.1)">
       <use xlink:href="#DejaVuSans-35"/>
       <use xlink:href="#DejaVuSans-37" x="63.623047"/>
       <use xlink:href="#DejaVuSans-35" x="127.246094"/>
       <use xlink:href="#DejaVuSans-30" x="190.869141"/>
      </g>
     </g>
    </g>
    <g id="ytick_6">
     <g id="line2d_10">
      <g>
       <use xlink:href="#m265fdfd333" x="53.328125" y="109.506387" style="stroke: #000000; stroke-width: 0.8"/>
      </g>
     </g>
     <g id="text_11">
      <!-- 5800 -->
      <g transform="translate(20.878125 113.305606)scale(0.1 -0.1)">
       <defs>
        <path id="DejaVuSans-38" d="M 2034 2216 
Q 1584 2216 1326 1975 
Q 1069 1734 1069 1313 
Q 1069 891 1326 650 
Q 1584 409 2034 409 
Q 2484 409 2743 651 
Q 3003 894 3003 1313 
Q 3003 1734 2745 1975 
Q 2488 2216 2034 2216 
z
M 1403 2484 
Q 997 2584 770 2862 
Q 544 3141 544 3541 
Q 544 4100 942 4425 
Q 1341 4750 2034 4750 
Q 2731 4750 3128 4425 
Q 3525 4100 3525 3541 
Q 3525 3141 3298 2862 
Q 3072 2584 2669 2484 
Q 3125 2378 3379 2068 
Q 3634 1759 3634 1313 
Q 3634 634 3220 271 
Q 2806 -91 2034 -91 
Q 1263 -91 848 271 
Q 434 634 434 1313 
Q 434 1759 690 2068 
Q 947 2378 1403 2484 
z
M 1172 3481 
Q 1172 3119 1398 2916 
Q 1625 2713 2034 2713 
Q 2441 2713 2670 2916 
Q 2900 3119 2900 3481 
Q 2900 3844 2670 4047 
Q 2441 4250 2034 4250 
Q 1625 4250 1398 4047 
Q 1172 3844 1172 3481 
z
" transform="scale(0.015625)"/>
       </defs>
       <use xlink:href="#DejaVuSans-35"/>
       <use xlink:href="#DejaVuSans-38" x="63.623047"/>
       <use xlink:href="#DejaVuSans-30" x="127.246094"/>
       <use xlink:href="#DejaVuSans-30" x="190.869141"/>
      </g>
     </g>
    </g>
    <g id="ytick_7">
     <g id="line2d_11">
      <g>
       <use xlink:href="#m265fdfd333" x="53.328125" y="77.638388" style="stroke: #000000; stroke-width: 0.8"/>
      </g>
     </g>
     <g id="text_12">
      <!-- 5850 -->
      <g transform="translate(20.878125 81.437607)scale(0.1 -0.1)">
       <use xlink:href="#DejaVuSans-35"/>
       <use xlink:href="#DejaVuSans-38" x="63.623047"/>
       <use xlink:href="#DejaVuSans-35" x="127.246094"/>
       <use xlink:href="#DejaVuSans-30" x="190.869141"/>
      </g>
     </g>
    </g>
    <g id="ytick_8">
     <g id="line2d_12">
      <g>
       <use xlink:href="#m265fdfd333" x="53.328125" y="45.77039" style="stroke: #000000; stroke-width: 0.8"/>
      </g>
     </g>
     <g id="text_13">
      <!-- 5900 -->
      <g transform="translate(20.878125 49.569608)scale(0.1 -0.1)">
       <defs>
        <path id="DejaVuSans-39" d="M 703 97 
L 703 672 
Q 941 559 1184 500 
Q 1428 441 1663 441 
Q 2288 441 2617 861 
Q 2947 1281 2994 2138 
Q 2813 1869 2534 1725 
Q 2256 1581 1919 1581 
Q 1219 1581 811 2004 
Q 403 2428 403 3163 
Q 403 3881 828 4315 
Q 1253 4750 1959 4750 
Q 2769 4750 3195 4129 
Q 3622 3509 3622 2328 
Q 3622 1225 3098 567 
Q 2575 -91 1691 -91 
Q 1453 -91 1209 -44 
Q 966 3 703 97 
z
M 1959 2075 
Q 2384 2075 2632 2365 
Q 2881 2656 2881 3163 
Q 2881 3666 2632 3958 
Q 2384 4250 1959 4250 
Q 1534 4250 1286 3958 
Q 1038 3666 1038 3163 
Q 1038 2656 1286 2365 
Q 1534 2075 1959 2075 
z
" transform="scale(0.015625)"/>
       </defs>
       <use xlink:href="#DejaVuSans-35"/>
       <use xlink:href="#DejaVuSans-39" x="63.623047"/>
       <use xlink:href="#DejaVuSans-30" x="127.246094"/>
       <use xlink:href="#DejaVuSans-30" x="190.869141"/>
      </g>
     </g>
    </g>
    <g id="text_14">
     <!-- Reached region coverage -->
     <g transform="translate(14.798438 219.136625)rotate(-90)scale(0.1 -0.1)">
      <defs>
       <path id="DejaVuSans-52" d="M 2841 2188 
Q 3044 2119 3236 1894 
Q 3428 1669 3622 1275 
L 4263 0 
L 3584 0 
L 2988 1197 
Q 2756 1666 2539 1819 
Q 2322 1972 1947 1972 
L 1259 1972 
L 1259 0 
L 628 0 
L 628 4666 
L 2053 4666 
Q 2853 4666 3247 4331 
Q 3641 3997 3641 3322 
Q 3641 2881 3436 2590 
Q 3231 2300 2841 2188 
z
M 1259 4147 
L 1259 2491 
L 2053 2491 
Q 2509 2491 2742 2702 
Q 2975 2913 2975 3322 
Q 2975 3731 2742 3939 
Q 2509 4147 2053 4147 
L 1259 4147 
z
" transform="scale(0.015625)"/>
      </defs>
      <use xlink:href="#DejaVuSans-52"/>
      <use xlink:href="#DejaVuSans-65" x="64.982422"/>
      <use xlink:href="#DejaVuSans-61" x="126.505859"/>
      <use xlink:href="#DejaVuSans-63" x="187.785156"/>
      <use xlink:href="#DejaVuSans-68" x="242.765625"/>
      <use xlink:href="#DejaVuSans-65" x="306.144531"/>
      <use xlink:href="#DejaVuSans-64" x="367.667969"/>
      <use xlink:href="#DejaVuSans-20" x="431.144531"/>
      <use xlink:href="#DejaVuSans-72" x="462.931641"/>
      <use xlink:href="#DejaVuSans-65" x="501.794922"/>
      <use xlink:href="#DejaVuSans-67" x="563.318359"/>
      <use xlink:href="#DejaVuSans-69" x="626.794922"/>
      <use xlink:href="#DejaVuSans-6f" x="654.578125"/>
      <use xlink:href="#DejaVuSans-6e" x="715.759766"/>
      <use xlink:href="#DejaVuSans-20" x="779.138672"/>
      <use xlink:href="#DejaVuSans-63" x="810.925781"/>
      <use xlink:href="#DejaVuSans-6f" x="865.90625"/>
      <use xlink:href="#DejaVuSans-76" x="927.087891"/>
      <use xlink:href="#DejaVuSans-65" x="986.267578"/>
      <use xlink:href="#DejaVuSans-72" x="1047.791016"/>
      <use xlink:href="#DejaVuSans-61" x="1088.904297"/>
      <use xlink:href="#DejaVuSans-67" x="1150.183594"/>
      <use xlink:href="#DejaVuSans-65" x="1213.660156"/>
     </g>
    </g>
   </g>
   <g id="line2d_13">
    <path d="M 97.968125 152.209505 
L 97.968125 91.022948 
" clip-path="url(#p04ebe509f7)" style="fill: none; stroke: #3f3f3f; stroke-width: 1.5; stroke-linecap: square"/>
   </g>
   <g id="line2d_14">
    <path d="M 97.968125 121.934907 
L 97.968125 91.341628 
" clip-path="url(#p04ebe509f7)" style="fill: none; stroke: #3f3f3f; stroke-width: 4.5; stroke-linecap: square"/>
   </g>
   <g id="line2d_15">
    <path d="M 187.248125 101.858067 
L 187.248125 96.759188 
" clip-path="url(#p04ebe509f7)" style="fill: none; stroke: #3f3f3f; stroke-width: 1.5; stroke-linecap: square"/>
   </g>
   <g id="line2d_16">
    <path d="M 187.248125 100.583347 
L 187.248125 98.033907 
" clip-path="url(#p04ebe509f7)" style="fill: none; stroke: #3f3f3f; stroke-width: 4.5; stroke-linecap: square"/>
   </g>
   <g id="line2d_17">
    <path d="M 276.528125 161.132545 
L 276.528125 93.572388 
" clip-path="url(#p04ebe509f7)" style="fill: none; stroke: #3f3f3f; stroke-width: 1.5; stroke-linecap: square"/>
   </g>
   <g id="line2d_18">
    <path d="M 276.528125 156.989705 
L 276.528125 123.209626 
" clip-path="url(#p04ebe509f7)" style="fill: none; stroke: #3f3f3f; stroke-width: 4.5; stroke-linecap: square"/>
   </g>
   <g id="line2d_19">
    <path d="M 365.808125 203.198303 
L 365.808125 113.967907 
" clip-path="url(#p04ebe509f7)" style="fill: none; stroke: #3f3f3f; stroke-width: 1.5; stroke-linecap: square"/>
   </g>
   <g id="line2d_20">
    <path d="M 365.808125 188.857704 
L 365.808125 144.242506 
" clip-path="url(#p04ebe509f7)" style="fill: none; stroke: #3f3f3f; stroke-width: 4.5; stroke-linecap: square"/>
   </g>
   <g id="patch_3">
    <path d="M 53.328125 268.846381 
L 53.328125 45.77039 
" style="fill: none; stroke: #000000; stroke-width: 0.8; stroke-linejoin: miter; stroke-linecap: square"/>
   </g>
   <g id="patch_4">
    <path d="M 97.968125 288.430125 
L 365.808125 288.430125 
" style="fill: none; stroke: #000000; stroke-width: 0.8; stroke-linejoin: miter; stroke-linecap: square"/>
   </g>
   <g id="PathCollection_1">
    <defs>
     <path id="m579709caf9" d="M 0 1.5 
C 0.397805 1.5 0.77937 1.341951 1.06066 1.06066 
C 1.341951 0.77937 1.5 0.397805 1.5 0 
C 1.5 -0.397805 1.341951 -0.77937 1.06066 -1.06066 
C 0.77937 -1.341951 0.397805 -1.5 0 -1.5 
C -0.397805 -1.5 -0.77937 -1.341951 -1.06066 -1.06066 
C -1.341951 -0.77937 -1.5 -0.397805 -1.5 0 
C -1.5 0.397805 -1.341951 0.77937 -1.06066 1.06066 
C -0.77937 1.341951 -0.397805 1.5 0 1.5 
z
" style="stroke: #3f3f3f"/>
    </defs>
    <g clip-path="url(#p04ebe509f7)">
     <use xlink:href="#m579709caf9" x="97.968125" y="91.660308" style="fill: #ffffff; stroke: #3f3f3f"/>
    </g>
   </g>
   <g id="PathCollection_2">
    <g clip-path="url(#p04ebe509f7)">
     <use xlink:href="#m579709caf9" x="187.248125" y="99.308627" style="fill: #ffffff; stroke: #3f3f3f"/>
    </g>
   </g>
   <g id="PathCollection_3">
    <g clip-path="url(#p04ebe509f7)">
     <use xlink:href="#m579709caf9" x="276.528125" y="152.846865" style="fill: #ffffff; stroke: #3f3f3f"/>
    </g>
   </g>
   <g id="PathCollection_4">
    <g clip-path="url(#p04ebe509f7)">
     <use xlink:href="#m579709caf9" x="365.808125" y="174.517104" style="fill: #ffffff; stroke: #3f3f3f"/>
    </g>
   </g>
   <g id="text_15">
    <!-- openthread-2019-12-23 (4h, 3 trials/fuzzer) -->
    <g transform="translate(101.120938 16.318125)scale(0.12 -0.12)">
     <defs>
      <path id="DejaVuSans-2d" d="M 313 2009 
L 1997 2009 
L 1997 1497 
L 313 1497 
L 313 2009 
z
" transform="scale(0.015625)"/>
      <path id="DejaVuSans-34" d="M 2419 4116 
L 825 1625 
L 2419 1625 
L 2419 4116 
z
M 2253 4666 
L 3047 4666 
L 3047 1625 
L 3713 1625 
L 3713 1100 
L 3047 1100 
L 3047 0 
L 2419 0 
L 2419 1100 
L 313 1100 
L 313 1709 
L 2253 4666 
z
" transform="scale(0.015625)"/>
      <path id="DejaVuSans-2c" d="M 750 794 
L 1409 794 
L 1409 256 
L 897 -744 
L 494 -744 
L 750 256 
L 750 794 
z
" transform="scale(0.015625)"/>
      <path id="DejaVuSans-2f" d="M 1625 4666 
L 2156 4666 
L 531 -594 
L 0 -594 
L 1625 4666 
z
" transform="scale(0.015625)"/>
     </defs>
     <use xlink:href="#DejaVuSans-6f"/>
     <use xlink:href="#DejaVuSans-70" x="61.181641"/>
     <use xlink:href="#DejaVuSans-65" x="124.658203"/>
     <use xlink:href="#DejaVuSans-6e" x="186.181641"/>
     <use xlink:href="#DejaVuSans-74" x="249.560547"/>
     <use xlink:href="#DejaVuSans-68" x="288.769531"/>
     <use xlink:href="#DejaVuSans-72" x="352.148438"/>
     <use xlink:href="#DejaVuSans-65" x="391.011719"/>
     <use xlink:href="#DejaVuSans-61" x="452.535156"/>
     <use xlink:href="#DejaVuSans-64" x="513.814453"/>
     <use xlink:href="#DejaVuSans-2d" x="577.291016"/>
     <use xlink:href="#DejaVuSans-32" x="613.375"/>
     <use xlink:href="#DejaVuSans-30" x="676.998047"/>
     <use xlink:href="#DejaVuSans-31" x="740.621094"/>
     <use xlink:href="#DejaVuSans-39" x="804.244141"/>
     <use xlink:href="#DejaVuSans-2d" x="867.867188"/>
     <use xlink:href="#DejaVuSans-31" x="903.951172"/>
     <use xlink:href="#DejaVuSans-32" x="967.574219"/>
     <use xlink:href="#DejaVuSans-2d" x="1031.197266"/>
     <use xlink:href="#DejaVuSans-32" x="1067.28125"/>
     <use xlink:href="#DejaVuSans-33" x="1130.904297"/>
     <use xlink:href="#DejaVuSans-20" x="1194.527344"/>
     <use xlink:href="#DejaVuSans-28" x="1226.314453"/>
     <use xlink:href="#DejaVuSans-34" x="1265.328125"/>
     <use xlink:href="#DejaVuSans-68" x="1328.951172"/>
     <use xlink:href="#DejaVuSans-2c" x="1392.330078"/>
     <use xlink:href="#DejaVuSans-20" x="1424.117188"/>
     <use xlink:href="#DejaVuSans-33" x="1455.904297"/>
     <use xlink:href="#DejaVuSans-20" x="1519.527344"/>
     <use xlink:href="#DejaVuSans-74" x="1551.314453"/>
     <use xlink:href="#DejaVuSans-72" x="1590.523438"/>
     <use xlink:href="#DejaVuSans-69" x="1631.636719"/>
     <use xlink:href="#DejaVuSans-61" x="1659.419922"/>
     <use xlink:href="#DejaVuSans-6c" x="1720.699219"/>
     <use xlink:href="#DejaVuSans-73" x="1748.482422"/>
     <use xlink:href="#DejaVuSans-2f" x="1800.582031"/>
     <use xlink:href="#DejaVuSans-66" x="1834.273438"/>
     <use xlink:href="#DejaVuSans-75" x="1869.478516"/>
     <use xlink:href="#DejaVuSans-7a" x="1932.857422"/>
     <use xlink:href="#DejaVuSans-7a" x="1985.347656"/>
     <use xlink:href="#DejaVuSans-65" x="2037.837891"/>
     <use xlink:href="#DejaVuSans-72" x="2099.361328"/>
     <use xlink:href="#DejaVuSans-29" x="2140.474609"/>
    </g>
   </g>
  </g>
 </g>
 <defs>
  <clipPath id="p04ebe509f7">
   <rect x="53.328125" y="22.318125" width="357.12" height="266.112"/>
  </clipPath>
 </defs>
</svg>
