<?xml version="1.0" encoding="utf-8" standalone="no"?>
<!DOCTYPE svg PUBLIC "-//W3C//DTD SVG 1.1//EN"
  "http://www.w3.org/Graphics/SVG/1.1/DTD/svg11.dtd">
<svg xmlns:xlink="http://www.w3.org/1999/xlink" width="424.010625pt" height="370.686865pt" viewBox="0 0 424.010625 370.686865" xmlns="http://www.w3.org/2000/svg" version="1.1">
 <metadata>
  <rdf:RDF xmlns:dc="http://purl.org/dc/elements/1.1/" xmlns:cc="http://creativecommons.org/ns#" xmlns:rdf="http://www.w3.org/1999/02/22-rdf-syntax-ns#">
   <cc:Work>
    <dc:type rdf:resource="http://purl.org/dc/dcmitype/StillImage"/>
    <dc:date>2022-04-27T20:14:39.162973</dc:date>
    <dc:format>image/svg+xml</dc:format>
    <dc:creator>
     <cc:Agent>
      <dc:title>Matplotlib v3.5.1, https://matplotlib.org/</dc:title>
     </cc:Agent>
    </dc:creator>
   </cc:Work>
  </rdf:RDF>
 </metadata>
 <defs>
  <style type="text/css">*{stroke-linejoin: round; stroke-linecap: butt}</style>
 </defs>
 <g id="figure_1">
  <g id="patch_1">
   <path d="M 0 370.686865 
L 424.010625 370.686865 
L 424.010625 0 
L 0 0 
z
" style="fill: #ffffff"/>
  </g>
  <g id="axes_1">
   <g id="patch_2">
    <path d="M 59.690625 288.430125 
L 416.810625 288.430125 
L 416.810625 22.318125 
L 59.690625 22.318125 
z
" style="fill: #ffffff"/>
   </g>
   <g id="PolyCollection_1">
    <defs>
     <path id="mc267f695da" d="M 105.048579 -119.551808 
L 103.612671 -119.551808 
L 103.516436 -121.412825 
L 103.410976 -123.273842 
L 103.29598 -125.134858 
L 103.171214 -126.995875 
L 103.036532 -128.856892 
L 102.891888 -130.717909 
L 102.737344 -132.578925 
L 102.573085 -134.439942 
L 102.399416 -136.300959 
L 102.216775 -138.161976 
L 102.025731 -140.022992 
L 101.826982 -141.884009 
L 101.621351 -143.745026 
L 101.409777 -145.606043 
L 101.193307 -147.467059 
L 100.973073 -149.328076 
L 100.750279 -151.189093 
L 100.526176 -153.05011 
L 100.302038 -154.911126 
L 100.079134 -156.772143 
L 99.858699 -158.63316 
L 99.641903 -160.494177 
L 99.429825 -162.355193 
L 99.223416 -164.21621 
L 99.023482 -166.077227 
L 98.83065 -167.938243 
L 98.645353 -169.79926 
L 98.467811 -171.660277 
L 98.298024 -173.521294 
L 98.135763 -175.38231 
L 97.980575 -177.243327 
L 97.831789 -179.104344 
L 97.688539 -180.965361 
L 97.549777 -182.826377 
L 97.414311 -184.687394 
L 97.280838 -186.548411 
L 97.147984 -188.409428 
L 97.014351 -190.270444 
L 96.878564 -192.131461 
L 96.739322 -193.992478 
L 96.595446 -195.853495 
L 96.445934 -197.714511 
L 96.289999 -199.575528 
L 96.127119 -201.436545 
L 95.957066 -203.297562 
L 95.779942 -205.158578 
L 95.596192 -207.019595 
L 95.406623 -208.880612 
L 95.212403 -210.741629 
L 95.015053 -212.602645 
L 94.816427 -214.463662 
L 94.618689 -216.324679 
L 94.424269 -218.185696 
L 94.235825 -220.046712 
L 94.05618 -221.907729 
L 93.888274 -223.768746 
L 93.73509 -225.629763 
L 93.599596 -227.490779 
L 93.484671 -229.351796 
L 93.393044 -231.212813 
L 93.32723 -233.073829 
L 93.289466 -234.934846 
L 93.281665 -236.795863 
L 93.305367 -238.65688 
L 93.361699 -240.517896 
L 93.451357 -242.378913 
L 93.574578 -244.23993 
L 93.731142 -246.100947 
L 93.920373 -247.961963 
L 94.141149 -249.82298 
L 94.391934 -251.683997 
L 94.670803 -253.545014 
L 94.975487 -255.40603 
L 95.303416 -257.267047 
L 95.651772 -259.128064 
L 96.017547 -260.989081 
L 96.397595 -262.850097 
L 96.788694 -264.711114 
L 97.1876 -266.572131 
L 97.591105 -268.433148 
L 97.996083 -270.294164 
L 98.399543 -272.155181 
L 98.798664 -274.016198 
L 99.190834 -275.877215 
L 99.57368 -277.738231 
L 99.945085 -279.599248 
L 100.303208 -281.460265 
L 100.64649 -283.321282 
L 100.973659 -285.182298 
L 101.283724 -287.043315 
L 101.575968 -288.904332 
L 101.849936 -290.765349 
L 102.105415 -292.626365 
L 102.342415 -294.487382 
L 102.561151 -296.348399 
L 102.762012 -298.209415 
L 102.945542 -300.070432 
L 103.112412 -301.931449 
L 103.263397 -303.792466 
L 105.397853 -303.792466 
L 105.397853 -303.792466 
L 105.548838 -301.931449 
L 105.715708 -300.070432 
L 105.899238 -298.209415 
L 106.100099 -296.348399 
L 106.318835 -294.487382 
L 106.555835 -292.626365 
L 106.811314 -290.765349 
L 107.085282 -288.904332 
L 107.377526 -287.043315 
L 107.687591 -285.182298 
L 108.01476 -283.321282 
L 108.358042 -281.460265 
L 108.716165 -279.599248 
L 109.08757 -277.738231 
L 109.470416 -275.877215 
L 109.862586 -274.016198 
L 110.261707 -272.155181 
L 110.665167 -270.294164 
L 111.070145 -268.433148 
L 111.47365 -266.572131 
L 111.872556 -264.711114 
L 112.263655 -262.850097 
L 112.643703 -260.989081 
L 113.009478 -259.128064 
L 113.357834 -257.267047 
L 113.685763 -255.40603 
L 113.990447 -253.545014 
L 114.269316 -251.683997 
L 114.520101 -249.82298 
L 114.740877 -247.961963 
L 114.930108 -246.100947 
L 115.086672 -244.23993 
L 115.209893 -242.378913 
L 115.299551 -240.517896 
L 115.355883 -238.65688 
L 115.379585 -236.795863 
L 115.371784 -234.934846 
L 115.33402 -233.073829 
L 115.268206 -231.212813 
L 115.176579 -229.351796 
L 115.061654 -227.490779 
L 114.92616 -225.629763 
L 114.772976 -223.768746 
L 114.60507 -221.907729 
L 114.425425 -220.046712 
L 114.236981 -218.185696 
L 114.042561 -216.324679 
L 113.844823 -214.463662 
L 113.646197 -212.602645 
L 113.448847 -210.741629 
L 113.254627 -208.880612 
L 113.065058 -207.019595 
L 112.881308 -205.158578 
L 112.704184 -203.297562 
L 112.534131 -201.436545 
L 112.371251 -199.575528 
L 112.215316 -197.714511 
L 112.065804 -195.853495 
L 111.921928 -193.992478 
L 111.782686 -192.131461 
L 111.646899 -190.270444 
L 111.513266 -188.409428 
L 111.380412 -186.548411 
L 111.246939 -184.687394 
L 111.111473 -182.826377 
L 110.972711 -180.965361 
L 110.829461 -179.104344 
L 110.680675 -177.243327 
L 110.525487 -175.38231 
L 110.363226 -173.521294 
L 110.193439 -171.660277 
L 110.015897 -169.79926 
L 109.8306 -167.938243 
L 109.637768 -166.077227 
L 109.437834 -164.21621 
L 109.231425 -162.355193 
L 109.019347 -160.494177 
L 108.802551 -158.63316 
L 108.582116 -156.772143 
L 108.359212 -154.911126 
L 108.135074 -153.05011 
L 107.910971 -151.189093 
L 107.688177 -149.328076 
L 107.467943 -147.467059 
L 107.251473 -145.606043 
L 107.039899 -143.745026 
L 106.834268 -141.884009 
L 106.635519 -140.022992 
L 106.444475 -138.161976 
L 106.261834 -136.300959 
L 106.088165 -134.439942 
L 105.923906 -132.578925 
L 105.769362 -130.717909 
L 105.624718 -128.856892 
L 105.490036 -126.995875 
L 105.36527 -125.134858 
L 105.250274 -123.273842 
L 105.144814 -121.412825 
L 105.048579 -119.551808 
z
" style="stroke: #3f3f3f; stroke-width: 1.5"/>
    </defs>
    <g clip-path="url(#p5439f43800)">
     <use xlink:href="#mc267f695da" x="0" y="370.686865" style="fill: #c7c7c7; stroke: #3f3f3f; stroke-width: 1.5"/>
    </g>
   </g>
   <g id="PolyCollection_2">
    <defs>
     <path id="m2f922501c6" d="M 195.956575 -200.208965 
L 191.264675 -200.208965 
L 190.947342 -200.783565 
L 190.599271 -201.358165 
L 190.219399 -201.932765 
L 189.806918 -202.507365 
L 189.36131 -203.081966 
L 188.882393 -203.656566 
L 188.370349 -204.231166 
L 187.825755 -204.805766 
L 187.249606 -205.380366 
L 186.643327 -205.954966 
L 186.008782 -206.529567 
L 185.348264 -207.104167 
L 184.664482 -207.678767 
L 183.96053 -208.253367 
L 183.239848 -208.827967 
L 182.506168 -209.402567 
L 181.763451 -209.977168 
L 181.015811 -210.551768 
L 180.267431 -211.126368 
L 179.522475 -211.700968 
L 178.784986 -212.275568 
L 178.058796 -212.850168 
L 177.34742 -213.424769 
L 176.653968 -213.999369 
L 175.981053 -214.573969 
L 175.330718 -215.148569 
L 174.704369 -215.723169 
L 174.102731 -216.297769 
L 173.525812 -216.87237 
L 172.972903 -217.44697 
L 172.442582 -218.02157 
L 171.932758 -218.59617 
L 171.440725 -219.17077 
L 170.963248 -219.74537 
L 170.49666 -220.319971 
L 170.036985 -220.894571 
L 169.580074 -221.469171 
L 169.121756 -222.043771 
L 168.657989 -222.618371 
L 168.185024 -223.192971 
L 167.699559 -223.767571 
L 167.198895 -224.342172 
L 166.68107 -224.916772 
L 166.144986 -225.491372 
L 165.590511 -226.065972 
L 165.018559 -226.640572 
L 164.431133 -227.215172 
L 163.831356 -227.789773 
L 163.223449 -228.364373 
L 162.612697 -228.938973 
L 162.005365 -229.513573 
L 161.4086 -230.088173 
L 160.830294 -230.662773 
L 160.278927 -231.237374 
L 159.76339 -231.811974 
L 159.29279 -232.386574 
L 158.87625 -232.961174 
L 158.522694 -233.535774 
L 158.240647 -234.110374 
L 158.038028 -234.684975 
L 157.921966 -235.259575 
L 157.898625 -235.834175 
L 157.973059 -236.408775 
L 158.149084 -236.983375 
L 158.429189 -237.557975 
L 158.814468 -238.132576 
L 159.30459 -238.707176 
L 159.897804 -239.281776 
L 160.590965 -239.856376 
L 161.379608 -240.430976 
L 162.258032 -241.005576 
L 163.21942 -241.580177 
L 164.255978 -242.154777 
L 165.359088 -242.729377 
L 166.519479 -243.303977 
L 167.7274 -243.878577 
L 168.972799 -244.453177 
L 170.245505 -245.027777 
L 171.535394 -245.602378 
L 172.832557 -246.176978 
L 174.127447 -246.751578 
L 175.411017 -247.326178 
L 176.67483 -247.900778 
L 177.911162 -248.475378 
L 179.113076 -249.049979 
L 180.274478 -249.624579 
L 181.390151 -250.199179 
L 182.455771 -250.773779 
L 183.467903 -251.348379 
L 184.423983 -251.922979 
L 185.322278 -252.49758 
L 186.161844 -253.07218 
L 186.94246 -253.64678 
L 187.664569 -254.22138 
L 188.329201 -254.79598 
L 188.937897 -255.37058 
L 189.492633 -255.945181 
L 189.995741 -256.519781 
L 190.449838 -257.094381 
L 196.771412 -257.094381 
L 196.771412 -257.094381 
L 197.225509 -256.519781 
L 197.728617 -255.945181 
L 198.283353 -255.37058 
L 198.892049 -254.79598 
L 199.556681 -254.22138 
L 200.27879 -253.64678 
L 201.059406 -253.07218 
L 201.898972 -252.49758 
L 202.797267 -251.922979 
L 203.753347 -251.348379 
L 204.765479 -250.773779 
L 205.831099 -250.199179 
L 206.946772 -249.624579 
L 208.108174 -249.049979 
L 209.310088 -248.475378 
L 210.54642 -247.900778 
L 211.810233 -247.326178 
L 213.093803 -246.751578 
L 214.388693 -246.176978 
L 215.685856 -245.602378 
L 216.975745 -245.027777 
L 218.248451 -244.453177 
L 219.49385 -243.878577 
L 220.701771 -243.303977 
L 221.862162 -242.729377 
L 222.965272 -242.154777 
L 224.00183 -241.580177 
L 224.963218 -241.005576 
L 225.841642 -240.430976 
L 226.630285 -239.856376 
L 227.323446 -239.281776 
L 227.91666 -238.707176 
L 228.406782 -238.132576 
L 228.792061 -237.557975 
L 229.072166 -236.983375 
L 229.248191 -236.408775 
L 229.322625 -235.834175 
L 229.299284 -235.259575 
L 229.183222 -234.684975 
L 228.980603 -234.110374 
L 228.698556 -233.535774 
L 228.345 -232.961174 
L 227.92846 -232.386574 
L 227.45786 -231.811974 
L 226.942323 -231.237374 
L 226.390956 -230.662773 
L 225.81265 -230.088173 
L 225.215885 -229.513573 
L 224.608553 -228.938973 
L 223.997801 -228.364373 
L 223.389894 -227.789773 
L 222.790117 -227.215172 
L 222.202691 -226.640572 
L 221.630739 -226.065972 
L 221.076264 -225.491372 
L 220.54018 -224.916772 
L 220.022355 -224.342172 
L 219.521691 -223.767571 
L 219.036226 -223.192971 
L 218.563261 -222.618371 
L 218.099494 -222.043771 
L 217.641176 -221.469171 
L 217.184265 -220.894571 
L 216.72459 -220.319971 
L 216.258002 -219.74537 
L 215.780525 -219.17077 
L 215.288492 -218.59617 
L 214.778668 -218.02157 
L 214.248347 -217.44697 
L 213.695438 -216.87237 
L 213.118519 -216.297769 
L 212.516881 -215.723169 
L 211.890532 -215.148569 
L 211.240197 -214.573969 
L 210.567282 -213.999369 
L 209.87383 -213.424769 
L 209.162454 -212.850168 
L 208.436264 -212.275568 
L 207.698775 -211.700968 
L 206.953819 -211.126368 
L 206.205439 -210.551768 
L 205.457799 -209.977168 
L 204.715082 -209.402567 
L 203.981402 -208.827967 
L 203.26072 -208.253367 
L 202.556768 -207.678767 
L 201.872986 -207.104167 
L 201.212468 -206.529567 
L 200.577923 -205.954966 
L 199.971644 -205.380366 
L 199.395495 -204.805766 
L 198.850901 -204.231166 
L 198.338857 -203.656566 
L 197.85994 -203.081966 
L 197.414332 -202.507365 
L 197.001851 -201.932765 
L 196.621979 -201.358165 
L 196.273908 -200.783565 
L 195.956575 -200.208965 
z
" style="stroke: #3f3f3f; stroke-width: 1.5"/>
    </defs>
    <g clip-path="url(#p5439f43800)">
     <use xlink:href="#m2f922501c6" x="0" y="370.686865" style="fill: #c03d3e; stroke: #3f3f3f; stroke-width: 1.5"/>
    </g>
   </g>
   <g id="PolyCollection_3">
    <defs>
     <path id="mf091b53739" d="M 284.353685 -178.094011 
L 281.427565 -178.094011 
L 281.222853 -179.050873 
L 280.997245 -180.007735 
L 280.749837 -180.964597 
L 280.479867 -181.921459 
L 280.186742 -182.878321 
L 279.870065 -183.835183 
L 279.529655 -184.792045 
L 279.165573 -185.748908 
L 278.778131 -186.70577 
L 278.367915 -187.662632 
L 277.935782 -188.619494 
L 277.482868 -189.576356 
L 277.010581 -190.533218 
L 276.52059 -191.49008 
L 276.014808 -192.446942 
L 275.495366 -193.403804 
L 274.964586 -194.360666 
L 274.424938 -195.317529 
L 273.879009 -196.274391 
L 273.329449 -197.231253 
L 272.77893 -198.188115 
L 272.230097 -199.144977 
L 271.685519 -200.101839 
L 271.147643 -201.058701 
L 270.618756 -202.015563 
L 270.10094 -202.972425 
L 269.596048 -203.929287 
L 269.105675 -204.886149 
L 268.631143 -205.843012 
L 268.173493 -206.799874 
L 267.733488 -207.756736 
L 267.311621 -208.713598 
L 266.908133 -209.67046 
L 266.523042 -210.627322 
L 266.156176 -211.584184 
L 265.807209 -212.541046 
L 265.475708 -213.497908 
L 265.161174 -214.45477 
L 264.863096 -215.411633 
L 264.580992 -216.368495 
L 264.314455 -217.325357 
L 264.063195 -218.282219 
L 263.827072 -219.239081 
L 263.606127 -220.195943 
L 263.400606 -221.152805 
L 263.210972 -222.109667 
L 263.037913 -223.066529 
L 262.88234 -224.023391 
L 262.745375 -224.980254 
L 262.628337 -225.937116 
L 262.532714 -226.893978 
L 262.460133 -227.85084 
L 262.41232 -228.807702 
L 262.391064 -229.764564 
L 262.398167 -230.721426 
L 262.4354 -231.678288 
L 262.504455 -232.63515 
L 262.606896 -233.592012 
L 262.744113 -234.548874 
L 262.91728 -235.505737 
L 263.127312 -236.462599 
L 263.374832 -237.419461 
L 263.660139 -238.376323 
L 263.983184 -239.333185 
L 264.343552 -240.290047 
L 264.74045 -241.246909 
L 265.172704 -242.203771 
L 265.638763 -243.160633 
L 266.13671 -244.117495 
L 266.664279 -245.074358 
L 267.218881 -246.03122 
L 267.797634 -246.988082 
L 268.397404 -247.944944 
L 269.014841 -248.901806 
L 269.64643 -249.858668 
L 270.288538 -250.81553 
L 270.937465 -251.772392 
L 271.589498 -252.729254 
L 272.240958 -253.686116 
L 272.888255 -254.642979 
L 273.527933 -255.599841 
L 274.156716 -256.556703 
L 274.771545 -257.513565 
L 275.369615 -258.470427 
L 275.948404 -259.427289 
L 276.505692 -260.384151 
L 277.039584 -261.341013 
L 277.548511 -262.297875 
L 278.031241 -263.254737 
L 278.486871 -264.211599 
L 278.914821 -265.168462 
L 279.314819 -266.125324 
L 279.686882 -267.082186 
L 280.031293 -268.039048 
L 280.348579 -268.99591 
L 280.639478 -269.952772 
L 280.904914 -270.909634 
L 281.145967 -271.866496 
L 281.363839 -272.823358 
L 284.417411 -272.823358 
L 284.417411 -272.823358 
L 284.635283 -271.866496 
L 284.876336 -270.909634 
L 285.141772 -269.952772 
L 285.432671 -268.99591 
L 285.749957 -268.039048 
L 286.094368 -267.082186 
L 286.466431 -266.125324 
L 286.866429 -265.168462 
L 287.294379 -264.211599 
L 287.750009 -263.254737 
L 288.232739 -262.297875 
L 288.741666 -261.341013 
L 289.275558 -260.384151 
L 289.832846 -259.427289 
L 290.411635 -258.470427 
L 291.009705 -257.513565 
L 291.624534 -256.556703 
L 292.253317 -255.599841 
L 292.892995 -254.642979 
L 293.540292 -253.686116 
L 294.191752 -252.729254 
L 294.843785 -251.772392 
L 295.492712 -250.81553 
L 296.13482 -249.858668 
L 296.766409 -248.901806 
L 297.383846 -247.944944 
L 297.983616 -246.988082 
L 298.562369 -246.03122 
L 299.116971 -245.074358 
L 299.64454 -244.117495 
L 300.142487 -243.160633 
L 300.608546 -242.203771 
L 301.0408 -241.246909 
L 301.437698 -240.290047 
L 301.798066 -239.333185 
L 302.121111 -238.376323 
L 302.406418 -237.419461 
L 302.653938 -236.462599 
L 302.86397 -235.505737 
L 303.037137 -234.548874 
L 303.174354 -233.592012 
L 303.276795 -232.63515 
L 303.34585 -231.678288 
L 303.383083 -230.721426 
L 303.390186 -229.764564 
L 303.36893 -228.807702 
L 303.321117 -227.85084 
L 303.248536 -226.893978 
L 303.152913 -225.937116 
L 303.035875 -224.980254 
L 302.89891 -224.023391 
L 302.743337 -223.066529 
L 302.570278 -222.109667 
L 302.380644 -221.152805 
L 302.175123 -220.195943 
L 301.954178 -219.239081 
L 301.718055 -218.282219 
L 301.466795 -217.325357 
L 301.200258 -216.368495 
L 300.918154 -215.411633 
L 300.620076 -214.45477 
L 300.305542 -213.497908 
L 299.974041 -212.541046 
L 299.625074 -211.584184 
L 299.258208 -210.627322 
L 298.873117 -209.67046 
L 298.469629 -208.713598 
L 298.047762 -207.756736 
L 297.607757 -206.799874 
L 297.150107 -205.843012 
L 296.675575 -204.886149 
L 296.185202 -203.929287 
L 295.68031 -202.972425 
L 295.162494 -202.015563 
L 294.633607 -201.058701 
L 294.095731 -200.101839 
L 293.551153 -199.144977 
L 293.00232 -198.188115 
L 292.451801 -197.231253 
L 291.902241 -196.274391 
L 291.356312 -195.317529 
L 290.816664 -194.360666 
L 290.285884 -193.403804 
L 289.766442 -192.446942 
L 289.26066 -191.49008 
L 288.770669 -190.533218 
L 288.298382 -189.576356 
L 287.845468 -188.619494 
L 287.413335 -187.662632 
L 287.003119 -186.70577 
L 286.615677 -185.748908 
L 286.251595 -184.792045 
L 285.911185 -183.835183 
L 285.594508 -182.878321 
L 285.301383 -181.921459 
L 285.031413 -180.964597 
L 284.784005 -180.007735 
L 284.558397 -179.050873 
L 284.353685 -178.094011 
z
" style="stroke: #3f3f3f; stroke-width: 1.5"/>
    </defs>
    <g clip-path="url(#p5439f43800)">
     <use xlink:href="#mf091b53739" x="0" y="370.686865" style="fill: #3274a1; stroke: #3f3f3f; stroke-width: 1.5"/>
    </g>
   </g>
   <g id="PolyCollection_4">
    <defs>
     <path id="m64fda41fdf" d="M 372.802131 -94.35274 
L 371.539119 -94.35274 
L 371.44801 -96.796377 
L 371.346991 -99.240013 
L 371.235505 -101.68365 
L 371.113049 -104.127286 
L 370.979178 -106.570922 
L 370.833526 -109.014559 
L 370.675816 -111.458195 
L 370.505877 -113.901831 
L 370.323655 -116.345468 
L 370.129225 -118.789104 
L 369.922802 -121.23274 
L 369.704755 -123.676377 
L 369.475605 -126.120013 
L 369.236039 -128.56365 
L 368.986904 -131.007286 
L 368.729214 -133.450922 
L 368.464135 -135.894559 
L 368.19299 -138.338195 
L 367.917238 -140.781831 
L 367.638463 -143.225468 
L 367.358356 -145.669104 
L 367.078698 -148.11274 
L 366.801329 -150.556377 
L 366.52813 -153.000013 
L 366.260991 -155.44365 
L 366.001782 -157.887286 
L 365.752329 -160.330922 
L 365.514375 -162.774559 
L 365.289561 -165.218195 
L 365.079393 -167.661831 
L 364.885217 -170.105468 
L 364.708196 -172.549104 
L 364.549294 -174.99274 
L 364.409254 -177.436377 
L 364.288595 -179.880013 
L 364.187596 -182.32365 
L 364.106301 -184.767286 
L 364.04452 -187.210922 
L 364.001838 -189.654559 
L 363.977628 -192.098195 
L 363.971066 -194.541831 
L 363.981161 -196.985468 
L 364.006773 -199.429104 
L 364.046646 -201.87274 
L 364.09944 -204.316377 
L 364.163763 -206.760013 
L 364.238204 -209.20365 
L 364.321366 -211.647286 
L 364.411902 -214.090922 
L 364.50854 -216.534559 
L 364.610114 -218.978195 
L 364.715584 -221.421831 
L 364.824059 -223.865468 
L 364.934808 -226.309104 
L 365.047271 -228.75274 
L 365.161059 -231.196377 
L 365.275957 -233.640013 
L 365.391913 -236.08365 
L 365.509025 -238.527286 
L 365.627527 -240.970922 
L 365.747766 -243.414559 
L 365.870176 -245.858195 
L 365.995257 -248.301831 
L 366.123541 -250.745468 
L 366.255567 -253.189104 
L 366.391855 -255.63274 
L 366.532873 -258.076377 
L 366.67902 -260.520013 
L 366.830601 -262.96365 
L 366.987811 -265.407286 
L 367.150719 -267.850922 
L 367.319262 -270.294559 
L 367.49324 -272.738195 
L 367.672315 -275.181831 
L 367.856016 -277.625468 
L 368.043747 -280.069104 
L 368.234801 -282.51274 
L 368.428375 -284.956377 
L 368.623587 -287.400013 
L 368.819496 -289.84365 
L 369.015123 -292.287286 
L 369.209473 -294.730922 
L 369.401556 -297.174559 
L 369.590405 -299.618195 
L 369.775098 -302.061831 
L 369.954771 -304.505468 
L 370.128635 -306.949104 
L 370.295989 -309.39274 
L 370.456226 -311.836377 
L 370.608841 -314.280013 
L 370.753433 -316.72365 
L 370.88971 -319.167286 
L 371.017481 -321.610922 
L 371.136658 -324.054559 
L 371.247249 -326.498195 
L 371.349346 -328.941831 
L 371.443122 -331.385468 
L 371.528822 -333.829104 
L 371.606745 -336.27274 
L 372.734505 -336.27274 
L 372.734505 -336.27274 
L 372.812428 -333.829104 
L 372.898128 -331.385468 
L 372.991904 -328.941831 
L 373.094001 -326.498195 
L 373.204592 -324.054559 
L 373.323769 -321.610922 
L 373.45154 -319.167286 
L 373.587817 -316.72365 
L 373.732409 -314.280013 
L 373.885024 -311.836377 
L 374.045261 -309.39274 
L 374.212615 -306.949104 
L 374.386479 -304.505468 
L 374.566152 -302.061831 
L 374.750845 -299.618195 
L 374.939694 -297.174559 
L 375.131777 -294.730922 
L 375.326127 -292.287286 
L 375.521754 -289.84365 
L 375.717663 -287.400013 
L 375.912875 -284.956377 
L 376.106449 -282.51274 
L 376.297503 -280.069104 
L 376.485234 -277.625468 
L 376.668935 -275.181831 
L 376.84801 -272.738195 
L 377.021988 -270.294559 
L 377.190531 -267.850922 
L 377.353439 -265.407286 
L 377.510649 -262.96365 
L 377.66223 -260.520013 
L 377.808377 -258.076377 
L 377.949395 -255.63274 
L 378.085683 -253.189104 
L 378.217709 -250.745468 
L 378.345993 -248.301831 
L 378.471074 -245.858195 
L 378.593484 -243.414559 
L 378.713723 -240.970922 
L 378.832225 -238.527286 
L 378.949337 -236.08365 
L 379.065293 -233.640013 
L 379.180191 -231.196377 
L 379.293979 -228.75274 
L 379.406442 -226.309104 
L 379.517191 -223.865468 
L 379.625666 -221.421831 
L 379.731136 -218.978195 
L 379.83271 -216.534559 
L 379.929348 -214.090922 
L 380.019884 -211.647286 
L 380.103046 -209.20365 
L 380.177487 -206.760013 
L 380.24181 -204.316377 
L 380.294604 -201.87274 
L 380.334477 -199.429104 
L 380.360089 -196.985468 
L 380.370184 -194.541831 
L 380.363622 -192.098195 
L 380.339412 -189.654559 
L 380.29673 -187.210922 
L 380.234949 -184.767286 
L 380.153654 -182.32365 
L 380.052655 -179.880013 
L 379.931996 -177.436377 
L 379.791956 -174.99274 
L 379.633054 -172.549104 
L 379.456033 -170.105468 
L 379.261857 -167.661831 
L 379.051689 -165.218195 
L 378.826875 -162.774559 
L 378.588921 -160.330922 
L 378.339468 -157.887286 
L 378.080259 -155.44365 
L 377.81312 -153.000013 
L 377.539921 -150.556377 
L 377.262552 -148.11274 
L 376.982894 -145.669104 
L 376.702787 -143.225468 
L 376.424012 -140.781831 
L 376.14826 -138.338195 
L 375.877115 -135.894559 
L 375.612036 -133.450922 
L 375.354346 -131.007286 
L 375.105211 -128.56365 
L 374.865645 -126.120013 
L 374.636495 -123.676377 
L 374.418448 -121.23274 
L 374.212025 -118.789104 
L 374.017595 -116.345468 
L 373.835373 -113.901831 
L 373.665434 -111.458195 
L 373.507724 -109.014559 
L 373.362072 -106.570922 
L 373.228201 -104.127286 
L 373.105745 -101.68365 
L 372.994259 -99.240013 
L 372.89324 -96.796377 
L 372.802131 -94.35274 
z
" style="stroke: #3f3f3f; stroke-width: 1.5"/>
    </defs>
    <g clip-path="url(#p5439f43800)">
     <use xlink:href="#m64fda41fdf" x="0" y="370.686865" style="fill: #9fd495; stroke: #3f3f3f; stroke-width: 1.5"/>
    </g>
   </g>
   <g id="matplotlib.axis_1">
    <g id="xtick_1">
     <g id="line2d_1">
      <defs>
       <path id="m3dad6f340e" d="M 0 0 
L 0 3.5 
" style="stroke: #000000; stroke-width: 0.8"/>
      </defs>
      <g>
       <use xlink:href="#m3dad6f340e" x="104.330625" y="288.430125" style="stroke: #000000; stroke-width: 0.8"/>
      </g>
     </g>
     <g id="text_1">
      <!-- aflplusplus_ast_o3 -->
      <g transform="translate(23.899569 347.766815)rotate(-30)scale(0.1 -0.1)">
       <defs>
        <path id="DejaVuSans-61" d="M 2194 1759 
Q 1497 1759 1228 1600 
Q 959 1441 959 1056 
Q 959 750 1161 570 
Q 1363 391 1709 391 
Q 2188 391 2477 730 
Q 2766 1069 2766 1631 
L 2766 1759 
L 2194 1759 
z
M 3341 1997 
L 3341 0 
L 2766 0 
L 2766 531 
Q 2569 213 2275 61 
Q 1981 -91 1556 -91 
Q 1019 -91 701 211 
Q 384 513 384 1019 
Q 384 1609 779 1909 
Q 1175 2209 1959 2209 
L 2766 2209 
L 2766 2266 
Q 2766 2663 2505 2880 
Q 2244 3097 1772 3097 
Q 1472 3097 1187 3025 
Q 903 2953 641 2809 
L 641 3341 
Q 956 3463 1253 3523 
Q 1550 3584 1831 3584 
Q 2591 3584 2966 3190 
Q 3341 2797 3341 1997 
z
" transform="scale(0.015625)"/>
        <path id="DejaVuSans-66" d="M 2375 4863 
L 2375 4384 
L 1825 4384 
Q 1516 4384 1395 4259 
Q 1275 4134 1275 3809 
L 1275 3500 
L 2222 3500 
L 2222 3053 
L 1275 3053 
L 1275 0 
L 697 0 
L 697 3053 
L 147 3053 
L 147 3500 
L 697 3500 
L 697 3744 
Q 697 4328 969 4595 
Q 1241 4863 1831 4863 
L 2375 4863 
z
" transform="scale(0.015625)"/>
        <path id="DejaVuSans-6c" d="M 603 4863 
L 1178 4863 
L 1178 0 
L 603 0 
L 603 4863 
z
" transform="scale(0.015625)"/>
        <path id="DejaVuSans-70" d="M 1159 525 
L 1159 -1331 
L 581 -1331 
L 581 3500 
L 1159 3500 
L 1159 2969 
Q 1341 3281 1617 3432 
Q 1894 3584 2278 3584 
Q 2916 3584 3314 3078 
Q 3713 2572 3713 1747 
Q 3713 922 3314 415 
Q 2916 -91 2278 -91 
Q 1894 -91 1617 61 
Q 1341 213 1159 525 
z
M 3116 1747 
Q 3116 2381 2855 2742 
Q 2594 3103 2138 3103 
Q 1681 3103 1420 2742 
Q 1159 2381 1159 1747 
Q 1159 1113 1420 752 
Q 1681 391 2138 391 
Q 2594 391 2855 752 
Q 3116 1113 3116 1747 
z
" transform="scale(0.015625)"/>
        <path id="DejaVuSans-75" d="M 544 1381 
L 544 3500 
L 1119 3500 
L 1119 1403 
Q 1119 906 1312 657 
Q 1506 409 1894 409 
Q 2359 409 2629 706 
Q 2900 1003 2900 1516 
L 2900 3500 
L 3475 3500 
L 3475 0 
L 2900 0 
L 2900 538 
Q 2691 219 2414 64 
Q 2138 -91 1772 -91 
Q 1169 -91 856 284 
Q 544 659 544 1381 
z
M 1991 3584 
L 1991 3584 
z
" transform="scale(0.015625)"/>
        <path id="DejaVuSans-73" d="M 2834 3397 
L 2834 2853 
Q 2591 2978 2328 3040 
Q 2066 3103 1784 3103 
Q 1356 3103 1142 2972 
Q 928 2841 928 2578 
Q 928 2378 1081 2264 
Q 1234 2150 1697 2047 
L 1894 2003 
Q 2506 1872 2764 1633 
Q 3022 1394 3022 966 
Q 3022 478 2636 193 
Q 2250 -91 1575 -91 
Q 1294 -91 989 -36 
Q 684 19 347 128 
L 347 722 
Q 666 556 975 473 
Q 1284 391 1588 391 
Q 1994 391 2212 530 
Q 2431 669 2431 922 
Q 2431 1156 2273 1281 
Q 2116 1406 1581 1522 
L 1381 1569 
Q 847 1681 609 1914 
Q 372 2147 372 2553 
Q 372 3047 722 3315 
Q 1072 3584 1716 3584 
Q 2034 3584 2315 3537 
Q 2597 3491 2834 3397 
z
" transform="scale(0.015625)"/>
        <path id="DejaVuSans-5f" d="M 3263 -1063 
L 3263 -1509 
L -63 -1509 
L -63 -1063 
L 3263 -1063 
z
" transform="scale(0.015625)"/>
        <path id="DejaVuSans-74" d="M 1172 4494 
L 1172 3500 
L 2356 3500 
L 2356 3053 
L 1172 3053 
L 1172 1153 
Q 1172 725 1289 603 
Q 1406 481 1766 481 
L 2356 481 
L 2356 0 
L 1766 0 
Q 1100 0 847 248 
Q 594 497 594 1153 
L 594 3053 
L 172 3053 
L 172 3500 
L 594 3500 
L 594 4494 
L 1172 4494 
z
" transform="scale(0.015625)"/>
        <path id="DejaVuSans-6f" d="M 1959 3097 
Q 1497 3097 1228 2736 
Q 959 2375 959 1747 
Q 959 1119 1226 758 
Q 1494 397 1959 397 
Q 2419 397 2687 759 
Q 2956 1122 2956 1747 
Q 2956 2369 2687 2733 
Q 2419 3097 1959 3097 
z
M 1959 3584 
Q 2709 3584 3137 3096 
Q 3566 2609 3566 1747 
Q 3566 888 3137 398 
Q 2709 -91 1959 -91 
Q 1206 -91 779 398 
Q 353 888 353 1747 
Q 353 2609 779 3096 
Q 1206 3584 1959 3584 
z
" transform="scale(0.015625)"/>
        <path id="DejaVuSans-33" d="M 2597 2516 
Q 3050 2419 3304 2112 
Q 3559 1806 3559 1356 
Q 3559 666 3084 287 
Q 2609 -91 1734 -91 
Q 1441 -91 1130 -33 
Q 819 25 488 141 
L 488 750 
Q 750 597 1062 519 
Q 1375 441 1716 441 
Q 2309 441 2620 675 
Q 2931 909 2931 1356 
Q 2931 1769 2642 2001 
Q 2353 2234 1838 2234 
L 1294 2234 
L 1294 2753 
L 1863 2753 
Q 2328 2753 2575 2939 
Q 2822 3125 2822 3475 
Q 2822 3834 2567 4026 
Q 2313 4219 1838 4219 
Q 1578 4219 1281 4162 
Q 984 4106 628 3988 
L 628 4550 
Q 988 4650 1302 4700 
Q 1616 4750 1894 4750 
Q 2613 4750 3031 4423 
Q 3450 4097 3450 3541 
Q 3450 3153 3228 2886 
Q 3006 2619 2597 2516 
z
" transform="scale(0.015625)"/>
       </defs>
       <use xlink:href="#DejaVuSans-61"/>
       <use xlink:href="#DejaVuSans-66" x="61.279297"/>
       <use xlink:href="#DejaVuSans-6c" x="96.484375"/>
       <use xlink:href="#DejaVuSans-70" x="124.267578"/>
       <use xlink:href="#DejaVuSans-6c" x="187.744141"/>
       <use xlink:href="#DejaVuSans-75" x="215.527344"/>
       <use xlink:href="#DejaVuSans-73" x="278.90625"/>
       <use xlink:href="#DejaVuSans-70" x="331.005859"/>
       <use xlink:href="#DejaVuSans-6c" x="394.482422"/>
       <use xlink:href="#DejaVuSans-75" x="422.265625"/>
       <use xlink:href="#DejaVuSans-73" x="485.644531"/>
       <use xlink:href="#DejaVuSans-5f" x="537.744141"/>
       <use xlink:href="#DejaVuSans-61" x="587.744141"/>
       <use xlink:href="#DejaVuSans-73" x="649.023438"/>
       <use xlink:href="#DejaVuSans-74" x="701.123047"/>
       <use xlink:href="#DejaVuSans-5f" x="740.332031"/>
       <use xlink:href="#DejaVuSans-6f" x="790.332031"/>
       <use xlink:href="#DejaVuSans-33" x="851.513672"/>
      </g>
     </g>
    </g>
    <g id="xtick_2">
     <g id="line2d_2">
      <g>
       <use xlink:href="#m3dad6f340e" x="193.610625" y="288.430125" style="stroke: #000000; stroke-width: 0.8"/>
      </g>
     </g>
     <g id="text_2">
      <!-- aflplusplus_ast_o2 -->
      <g transform="translate(113.179569 347.766815)rotate(-30)scale(0.1 -0.1)">
       <defs>
        <path id="DejaVuSans-32" d="M 1228 531 
L 3431 531 
L 3431 0 
L 469 0 
L 469 531 
Q 828 903 1448 1529 
Q 2069 2156 2228 2338 
Q 2531 2678 2651 2914 
Q 2772 3150 2772 3378 
Q 2772 3750 2511 3984 
Q 2250 4219 1831 4219 
Q 1534 4219 1204 4116 
Q 875 4013 500 3803 
L 500 4441 
Q 881 4594 1212 4672 
Q 1544 4750 1819 4750 
Q 2544 4750 2975 4387 
Q 3406 4025 3406 3419 
Q 3406 3131 3298 2873 
Q 3191 2616 2906 2266 
Q 2828 2175 2409 1742 
Q 1991 1309 1228 531 
z
" transform="scale(0.015625)"/>
       </defs>
       <use xlink:href="#DejaVuSans-61"/>
       <use xlink:href="#DejaVuSans-66" x="61.279297"/>
       <use xlink:href="#DejaVuSans-6c" x="96.484375"/>
       <use xlink:href="#DejaVuSans-70" x="124.267578"/>
       <use xlink:href="#DejaVuSans-6c" x="187.744141"/>
       <use xlink:href="#DejaVuSans-75" x="215.527344"/>
       <use xlink:href="#DejaVuSans-73" x="278.90625"/>
       <use xlink:href="#DejaVuSans-70" x="331.005859"/>
       <use xlink:href="#DejaVuSans-6c" x="394.482422"/>
       <use xlink:href="#DejaVuSans-75" x="422.265625"/>
       <use xlink:href="#DejaVuSans-73" x="485.644531"/>
       <use xlink:href="#DejaVuSans-5f" x="537.744141"/>
       <use xlink:href="#DejaVuSans-61" x="587.744141"/>
       <use xlink:href="#DejaVuSans-73" x="649.023438"/>
       <use xlink:href="#DejaVuSans-74" x="701.123047"/>
       <use xlink:href="#DejaVuSans-5f" x="740.332031"/>
       <use xlink:href="#DejaVuSans-6f" x="790.332031"/>
       <use xlink:href="#DejaVuSans-32" x="851.513672"/>
      </g>
     </g>
    </g>
    <g id="xtick_3">
     <g id="line2d_3">
      <g>
       <use xlink:href="#m3dad6f340e" x="282.890625" y="288.430125" style="stroke: #000000; stroke-width: 0.8"/>
      </g>
     </g>
     <g id="text_3">
      <!-- aflplusplus_ast_o0 -->
      <g transform="translate(202.459569 347.766815)rotate(-30)scale(0.1 -0.1)">
       <defs>
        <path id="DejaVuSans-30" d="M 2034 4250 
Q 1547 4250 1301 3770 
Q 1056 3291 1056 2328 
Q 1056 1369 1301 889 
Q 1547 409 2034 409 
Q 2525 409 2770 889 
Q 3016 1369 3016 2328 
Q 3016 3291 2770 3770 
Q 2525 4250 2034 4250 
z
M 2034 4750 
Q 2819 4750 3233 4129 
Q 3647 3509 3647 2328 
Q 3647 1150 3233 529 
Q 2819 -91 2034 -91 
Q 1250 -91 836 529 
Q 422 1150 422 2328 
Q 422 3509 836 4129 
Q 1250 4750 2034 4750 
z
" transform="scale(0.015625)"/>
       </defs>
       <use xlink:href="#DejaVuSans-61"/>
       <use xlink:href="#DejaVuSans-66" x="61.279297"/>
       <use xlink:href="#DejaVuSans-6c" x="96.484375"/>
       <use xlink:href="#DejaVuSans-70" x="124.267578"/>
       <use xlink:href="#DejaVuSans-6c" x="187.744141"/>
       <use xlink:href="#DejaVuSans-75" x="215.527344"/>
       <use xlink:href="#DejaVuSans-73" x="278.90625"/>
       <use xlink:href="#DejaVuSans-70" x="331.005859"/>
       <use xlink:href="#DejaVuSans-6c" x="394.482422"/>
       <use xlink:href="#DejaVuSans-75" x="422.265625"/>
       <use xlink:href="#DejaVuSans-73" x="485.644531"/>
       <use xlink:href="#DejaVuSans-5f" x="537.744141"/>
       <use xlink:href="#DejaVuSans-61" x="587.744141"/>
       <use xlink:href="#DejaVuSans-73" x="649.023438"/>
       <use xlink:href="#DejaVuSans-74" x="701.123047"/>
       <use xlink:href="#DejaVuSans-5f" x="740.332031"/>
       <use xlink:href="#DejaVuSans-6f" x="790.332031"/>
       <use xlink:href="#DejaVuSans-30" x="851.513672"/>
      </g>
     </g>
    </g>
    <g id="xtick_4">
     <g id="line2d_4">
      <g>
       <use xlink:href="#m3dad6f340e" x="372.170625" y="288.430125" style="stroke: #000000; stroke-width: 0.8"/>
      </g>
     </g>
     <g id="text_4">
      <!-- aflplusplus_ast_o1 -->
      <g transform="translate(291.739569 347.766815)rotate(-30)scale(0.1 -0.1)">
       <defs>
        <path id="DejaVuSans-31" d="M 794 531 
L 1825 531 
L 1825 4091 
L 703 3866 
L 703 4441 
L 1819 4666 
L 2450 4666 
L 2450 531 
L 3481 531 
L 3481 0 
L 794 0 
L 794 531 
z
" transform="scale(0.015625)"/>
       </defs>
       <use xlink:href="#DejaVuSans-61"/>
       <use xlink:href="#DejaVuSans-66" x="61.279297"/>
       <use xlink:href="#DejaVuSans-6c" x="96.484375"/>
       <use xlink:href="#DejaVuSans-70" x="124.267578"/>
       <use xlink:href="#DejaVuSans-6c" x="187.744141"/>
       <use xlink:href="#DejaVuSans-75" x="215.527344"/>
       <use xlink:href="#DejaVuSans-73" x="278.90625"/>
       <use xlink:href="#DejaVuSans-70" x="331.005859"/>
       <use xlink:href="#DejaVuSans-6c" x="394.482422"/>
       <use xlink:href="#DejaVuSans-75" x="422.265625"/>
       <use xlink:href="#DejaVuSans-73" x="485.644531"/>
       <use xlink:href="#DejaVuSans-5f" x="537.744141"/>
       <use xlink:href="#DejaVuSans-61" x="587.744141"/>
       <use xlink:href="#DejaVuSans-73" x="649.023438"/>
       <use xlink:href="#DejaVuSans-74" x="701.123047"/>
       <use xlink:href="#DejaVuSans-5f" x="740.332031"/>
       <use xlink:href="#DejaVuSans-6f" x="790.332031"/>
       <use xlink:href="#DejaVuSans-31" x="851.513672"/>
      </g>
     </g>
    </g>
    <g id="text_5">
     <!-- Fuzzer (highest median coverage on the left) -->
     <g transform="translate(125.632656 361.407178)scale(0.1 -0.1)">
      <defs>
       <path id="DejaVuSans-46" d="M 628 4666 
L 3309 4666 
L 3309 4134 
L 1259 4134 
L 1259 2759 
L 3109 2759 
L 3109 2228 
L 1259 2228 
L 1259 0 
L 628 0 
L 628 4666 
z
" transform="scale(0.015625)"/>
       <path id="DejaVuSans-7a" d="M 353 3500 
L 3084 3500 
L 3084 2975 
L 922 459 
L 3084 459 
L 3084 0 
L 275 0 
L 275 525 
L 2438 3041 
L 353 3041 
L 353 3500 
z
" transform="scale(0.015625)"/>
       <path id="DejaVuSans-65" d="M 3597 1894 
L 3597 1613 
L 953 1613 
Q 991 1019 1311 708 
Q 1631 397 2203 397 
Q 2534 397 2845 478 
Q 3156 559 3463 722 
L 3463 178 
Q 3153 47 2828 -22 
Q 2503 -91 2169 -91 
Q 1331 -91 842 396 
Q 353 884 353 1716 
Q 353 2575 817 3079 
Q 1281 3584 2069 3584 
Q 2775 3584 3186 3129 
Q 3597 2675 3597 1894 
z
M 3022 2063 
Q 3016 2534 2758 2815 
Q 2500 3097 2075 3097 
Q 1594 3097 1305 2825 
Q 1016 2553 972 2059 
L 3022 2063 
z
" transform="scale(0.015625)"/>
       <path id="DejaVuSans-72" d="M 2631 2963 
Q 2534 3019 2420 3045 
Q 2306 3072 2169 3072 
Q 1681 3072 1420 2755 
Q 1159 2438 1159 1844 
L 1159 0 
L 581 0 
L 581 3500 
L 1159 3500 
L 1159 2956 
Q 1341 3275 1631 3429 
Q 1922 3584 2338 3584 
Q 2397 3584 2469 3576 
Q 2541 3569 2628 3553 
L 2631 2963 
z
" transform="scale(0.015625)"/>
       <path id="DejaVuSans-20" transform="scale(0.015625)"/>
       <path id="DejaVuSans-28" d="M 1984 4856 
Q 1566 4138 1362 3434 
Q 1159 2731 1159 2009 
Q 1159 1288 1364 580 
Q 1569 -128 1984 -844 
L 1484 -844 
Q 1016 -109 783 600 
Q 550 1309 550 2009 
Q 550 2706 781 3412 
Q 1013 4119 1484 4856 
L 1984 4856 
z
" transform="scale(0.015625)"/>
       <path id="DejaVuSans-68" d="M 3513 2113 
L 3513 0 
L 2938 0 
L 2938 2094 
Q 2938 2591 2744 2837 
Q 2550 3084 2163 3084 
Q 1697 3084 1428 2787 
Q 1159 2491 1159 1978 
L 1159 0 
L 581 0 
L 581 4863 
L 1159 4863 
L 1159 2956 
Q 1366 3272 1645 3428 
Q 1925 3584 2291 3584 
Q 2894 3584 3203 3211 
Q 3513 2838 3513 2113 
z
" transform="scale(0.015625)"/>
       <path id="DejaVuSans-69" d="M 603 3500 
L 1178 3500 
L 1178 0 
L 603 0 
L 603 3500 
z
M 603 4863 
L 1178 4863 
L 1178 4134 
L 603 4134 
L 603 4863 
z
" transform="scale(0.015625)"/>
       <path id="DejaVuSans-67" d="M 2906 1791 
Q 2906 2416 2648 2759 
Q 2391 3103 1925 3103 
Q 1463 3103 1205 2759 
Q 947 2416 947 1791 
Q 947 1169 1205 825 
Q 1463 481 1925 481 
Q 2391 481 2648 825 
Q 2906 1169 2906 1791 
z
M 3481 434 
Q 3481 -459 3084 -895 
Q 2688 -1331 1869 -1331 
Q 1566 -1331 1297 -1286 
Q 1028 -1241 775 -1147 
L 775 -588 
Q 1028 -725 1275 -790 
Q 1522 -856 1778 -856 
Q 2344 -856 2625 -561 
Q 2906 -266 2906 331 
L 2906 616 
Q 2728 306 2450 153 
Q 2172 0 1784 0 
Q 1141 0 747 490 
Q 353 981 353 1791 
Q 353 2603 747 3093 
Q 1141 3584 1784 3584 
Q 2172 3584 2450 3431 
Q 2728 3278 2906 2969 
L 2906 3500 
L 3481 3500 
L 3481 434 
z
" transform="scale(0.015625)"/>
       <path id="DejaVuSans-6d" d="M 3328 2828 
Q 3544 3216 3844 3400 
Q 4144 3584 4550 3584 
Q 5097 3584 5394 3201 
Q 5691 2819 5691 2113 
L 5691 0 
L 5113 0 
L 5113 2094 
Q 5113 2597 4934 2840 
Q 4756 3084 4391 3084 
Q 3944 3084 3684 2787 
Q 3425 2491 3425 1978 
L 3425 0 
L 2847 0 
L 2847 2094 
Q 2847 2600 2669 2842 
Q 2491 3084 2119 3084 
Q 1678 3084 1418 2786 
Q 1159 2488 1159 1978 
L 1159 0 
L 581 0 
L 581 3500 
L 1159 3500 
L 1159 2956 
Q 1356 3278 1631 3431 
Q 1906 3584 2284 3584 
Q 2666 3584 2933 3390 
Q 3200 3197 3328 2828 
z
" transform="scale(0.015625)"/>
       <path id="DejaVuSans-64" d="M 2906 2969 
L 2906 4863 
L 3481 4863 
L 3481 0 
L 2906 0 
L 2906 525 
Q 2725 213 2448 61 
Q 2172 -91 1784 -91 
Q 1150 -91 751 415 
Q 353 922 353 1747 
Q 353 2572 751 3078 
Q 1150 3584 1784 3584 
Q 2172 3584 2448 3432 
Q 2725 3281 2906 2969 
z
M 947 1747 
Q 947 1113 1208 752 
Q 1469 391 1925 391 
Q 2381 391 2643 752 
Q 2906 1113 2906 1747 
Q 2906 2381 2643 2742 
Q 2381 3103 1925 3103 
Q 1469 3103 1208 2742 
Q 947 2381 947 1747 
z
" transform="scale(0.015625)"/>
       <path id="DejaVuSans-6e" d="M 3513 2113 
L 3513 0 
L 2938 0 
L 2938 2094 
Q 2938 2591 2744 2837 
Q 2550 3084 2163 3084 
Q 1697 3084 1428 2787 
Q 1159 2491 1159 1978 
L 1159 0 
L 581 0 
L 581 3500 
L 1159 3500 
L 1159 2956 
Q 1366 3272 1645 3428 
Q 1925 3584 2291 3584 
Q 2894 3584 3203 3211 
Q 3513 2838 3513 2113 
z
" transform="scale(0.015625)"/>
       <path id="DejaVuSans-63" d="M 3122 3366 
L 3122 2828 
Q 2878 2963 2633 3030 
Q 2388 3097 2138 3097 
Q 1578 3097 1268 2742 
Q 959 2388 959 1747 
Q 959 1106 1268 751 
Q 1578 397 2138 397 
Q 2388 397 2633 464 
Q 2878 531 3122 666 
L 3122 134 
Q 2881 22 2623 -34 
Q 2366 -91 2075 -91 
Q 1284 -91 818 406 
Q 353 903 353 1747 
Q 353 2603 823 3093 
Q 1294 3584 2113 3584 
Q 2378 3584 2631 3529 
Q 2884 3475 3122 3366 
z
" transform="scale(0.015625)"/>
       <path id="DejaVuSans-76" d="M 191 3500 
L 800 3500 
L 1894 563 
L 2988 3500 
L 3597 3500 
L 2284 0 
L 1503 0 
L 191 3500 
z
" transform="scale(0.015625)"/>
       <path id="DejaVuSans-29" d="M 513 4856 
L 1013 4856 
Q 1481 4119 1714 3412 
Q 1947 2706 1947 2009 
Q 1947 1309 1714 600 
Q 1481 -109 1013 -844 
L 513 -844 
Q 928 -128 1133 580 
Q 1338 1288 1338 2009 
Q 1338 2731 1133 3434 
Q 928 4138 513 4856 
z
" transform="scale(0.015625)"/>
      </defs>
      <use xlink:href="#DejaVuSans-46"/>
      <use xlink:href="#DejaVuSans-75" x="52.019531"/>
      <use xlink:href="#DejaVuSans-7a" x="115.398438"/>
      <use xlink:href="#DejaVuSans-7a" x="167.888672"/>
      <use xlink:href="#DejaVuSans-65" x="220.378906"/>
      <use xlink:href="#DejaVuSans-72" x="281.902344"/>
      <use xlink:href="#DejaVuSans-20" x="323.015625"/>
      <use xlink:href="#DejaVuSans-28" x="354.802734"/>
      <use xlink:href="#DejaVuSans-68" x="393.816406"/>
      <use xlink:href="#DejaVuSans-69" x="457.195312"/>
      <use xlink:href="#DejaVuSans-67" x="484.978516"/>
      <use xlink:href="#DejaVuSans-68" x="548.455078"/>
      <use xlink:href="#DejaVuSans-65" x="611.833984"/>
      <use xlink:href="#DejaVuSans-73" x="673.357422"/>
      <use xlink:href="#DejaVuSans-74" x="725.457031"/>
      <use xlink:href="#DejaVuSans-20" x="764.666016"/>
      <use xlink:href="#DejaVuSans-6d" x="796.453125"/>
      <use xlink:href="#DejaVuSans-65" x="893.865234"/>
      <use xlink:href="#DejaVuSans-64" x="955.388672"/>
      <use xlink:href="#DejaVuSans-69" x="1018.865234"/>
      <use xlink:href="#DejaVuSans-61" x="1046.648438"/>
      <use xlink:href="#DejaVuSans-6e" x="1107.927734"/>
      <use xlink:href="#DejaVuSans-20" x="1171.306641"/>
      <use xlink:href="#DejaVuSans-63" x="1203.09375"/>
      <use xlink:href="#DejaVuSans-6f" x="1258.074219"/>
      <use xlink:href="#DejaVuSans-76" x="1319.255859"/>
      <use xlink:href="#DejaVuSans-65" x="1378.435547"/>
      <use xlink:href="#DejaVuSans-72" x="1439.958984"/>
      <use xlink:href="#DejaVuSans-61" x="1481.072266"/>
      <use xlink:href="#DejaVuSans-67" x="1542.351562"/>
      <use xlink:href="#DejaVuSans-65" x="1605.828125"/>
      <use xlink:href="#DejaVuSans-20" x="1667.351562"/>
      <use xlink:href="#DejaVuSans-6f" x="1699.138672"/>
      <use xlink:href="#DejaVuSans-6e" x="1760.320312"/>
      <use xlink:href="#DejaVuSans-20" x="1823.699219"/>
      <use xlink:href="#DejaVuSans-74" x="1855.486328"/>
      <use xlink:href="#DejaVuSans-68" x="1894.695312"/>
      <use xlink:href="#DejaVuSans-65" x="1958.074219"/>
      <use xlink:href="#DejaVuSans-20" x="2019.597656"/>
      <use xlink:href="#DejaVuSans-6c" x="2051.384766"/>
      <use xlink:href="#DejaVuSans-65" x="2079.167969"/>
      <use xlink:href="#DejaVuSans-66" x="2140.691406"/>
      <use xlink:href="#DejaVuSans-74" x="2174.146484"/>
      <use xlink:href="#DejaVuSans-29" x="2213.355469"/>
     </g>
    </g>
   </g>
   <g id="matplotlib.axis_2">
    <g id="ytick_1">
     <g id="line2d_5">
      <defs>
       <path id="m2eaf5e0417" d="M 0 0 
L -3.5 0 
" style="stroke: #000000; stroke-width: 0.8"/>
      </defs>
      <g>
       <use xlink:href="#m2eaf5e0417" x="59.690625" y="270.679796" style="stroke: #000000; stroke-width: 0.8"/>
      </g>
     </g>
     <g id="text_6">
      <!-- 22500 -->
      <g transform="translate(20.878125 274.479015)scale(0.1 -0.1)">
       <defs>
        <path id="DejaVuSans-35" d="M 691 4666 
L 3169 4666 
L 3169 4134 
L 1269 4134 
L 1269 2991 
Q 1406 3038 1543 3061 
Q 1681 3084 1819 3084 
Q 2600 3084 3056 2656 
Q 3513 2228 3513 1497 
Q 3513 744 3044 326 
Q 2575 -91 1722 -91 
Q 1428 -91 1123 -41 
Q 819 9 494 109 
L 494 744 
Q 775 591 1075 516 
Q 1375 441 1709 441 
Q 2250 441 2565 725 
Q 2881 1009 2881 1497 
Q 2881 1984 2565 2268 
Q 2250 2553 1709 2553 
Q 1456 2553 1204 2497 
Q 953 2441 691 2322 
L 691 4666 
z
" transform="scale(0.015625)"/>
       </defs>
       <use xlink:href="#DejaVuSans-32"/>
       <use xlink:href="#DejaVuSans-32" x="63.623047"/>
       <use xlink:href="#DejaVuSans-35" x="127.246094"/>
       <use xlink:href="#DejaVuSans-30" x="190.869141"/>
       <use xlink:href="#DejaVuSans-30" x="254.492188"/>
      </g>
     </g>
    </g>
    <g id="ytick_2">
     <g id="line2d_6">
      <g>
       <use xlink:href="#m2eaf5e0417" x="59.690625" y="240.838784" style="stroke: #000000; stroke-width: 0.8"/>
      </g>
     </g>
     <g id="text_7">
      <!-- 23000 -->
      <g transform="translate(20.878125 244.638003)scale(0.1 -0.1)">
       <use xlink:href="#DejaVuSans-32"/>
       <use xlink:href="#DejaVuSans-33" x="63.623047"/>
       <use xlink:href="#DejaVuSans-30" x="127.246094"/>
       <use xlink:href="#DejaVuSans-30" x="190.869141"/>
       <use xlink:href="#DejaVuSans-30" x="254.492188"/>
      </g>
     </g>
    </g>
    <g id="ytick_3">
     <g id="line2d_7">
      <g>
       <use xlink:href="#m2eaf5e0417" x="59.690625" y="210.997772" style="stroke: #000000; stroke-width: 0.8"/>
      </g>
     </g>
     <g id="text_8">
      <!-- 23500 -->
      <g transform="translate(20.878125 214.79699)scale(0.1 -0.1)">
       <use xlink:href="#DejaVuSans-32"/>
       <use xlink:href="#DejaVuSans-33" x="63.623047"/>
       <use xlink:href="#DejaVuSans-35" x="127.246094"/>
       <use xlink:href="#DejaVuSans-30" x="190.869141"/>
       <use xlink:href="#DejaVuSans-30" x="254.492188"/>
      </g>
     </g>
    </g>
    <g id="ytick_4">
     <g id="line2d_8">
      <g>
       <use xlink:href="#m2eaf5e0417" x="59.690625" y="181.15676" style="stroke: #000000; stroke-width: 0.8"/>
      </g>
     </g>
     <g id="text_9">
      <!-- 24000 -->
      <g transform="translate(20.878125 184.955978)scale(0.1 -0.1)">
       <defs>
        <path id="DejaVuSans-34" d="M 2419 4116 
L 825 1625 
L 2419 1625 
L 2419 4116 
z
M 2253 4666 
L 3047 4666 
L 3047 1625 
L 3713 1625 
L 3713 1100 
L 3047 1100 
L 3047 0 
L 2419 0 
L 2419 1100 
L 313 1100 
L 313 1709 
L 2253 4666 
z
" transform="scale(0.015625)"/>
       </defs>
       <use xlink:href="#DejaVuSans-32"/>
       <use xlink:href="#DejaVuSans-34" x="63.623047"/>
       <use xlink:href="#DejaVuSans-30" x="127.246094"/>
       <use xlink:href="#DejaVuSans-30" x="190.869141"/>
       <use xlink:href="#DejaVuSans-30" x="254.492188"/>
      </g>
     </g>
    </g>
    <g id="ytick_5">
     <g id="line2d_9">
      <g>
       <use xlink:href="#m2eaf5e0417" x="59.690625" y="151.315747" style="stroke: #000000; stroke-width: 0.8"/>
      </g>
     </g>
     <g id="text_10">
      <!-- 24500 -->
      <g transform="translate(20.878125 155.114966)scale(0.1 -0.1)">
       <use xlink:href="#DejaVuSans-32"/>
       <use xlink:href="#DejaVuSans-34" x="63.623047"/>
       <use xlink:href="#DejaVuSans-35" x="127.246094"/>
       <use xlink:href="#DejaVuSans-30" x="190.869141"/>
       <use xlink:href="#DejaVuSans-30" x="254.492188"/>
      </g>
     </g>
    </g>
    <g id="ytick_6">
     <g id="line2d_10">
      <g>
       <use xlink:href="#m2eaf5e0417" x="59.690625" y="121.474735" style="stroke: #000000; stroke-width: 0.8"/>
      </g>
     </g>
     <g id="text_11">
      <!-- 25000 -->
      <g transform="translate(20.878125 125.273954)scale(0.1 -0.1)">
       <use xlink:href="#DejaVuSans-32"/>
       <use xlink:href="#DejaVuSans-35" x="63.623047"/>
       <use xlink:href="#DejaVuSans-30" x="127.246094"/>
       <use xlink:href="#DejaVuSans-30" x="190.869141"/>
       <use xlink:href="#DejaVuSans-30" x="254.492188"/>
      </g>
     </g>
    </g>
    <g id="ytick_7">
     <g id="line2d_11">
      <g>
       <use xlink:href="#m2eaf5e0417" x="59.690625" y="91.633723" style="stroke: #000000; stroke-width: 0.8"/>
      </g>
     </g>
     <g id="text_12">
      <!-- 25500 -->
      <g transform="translate(20.878125 95.432942)scale(0.1 -0.1)">
       <use xlink:href="#DejaVuSans-32"/>
       <use xlink:href="#DejaVuSans-35" x="63.623047"/>
       <use xlink:href="#DejaVuSans-35" x="127.246094"/>
       <use xlink:href="#DejaVuSans-30" x="190.869141"/>
       <use xlink:href="#DejaVuSans-30" x="254.492188"/>
      </g>
     </g>
    </g>
    <g id="ytick_8">
     <g id="line2d_12">
      <g>
       <use xlink:href="#m2eaf5e0417" x="59.690625" y="61.792711" style="stroke: #000000; stroke-width: 0.8"/>
      </g>
     </g>
     <g id="text_13">
      <!-- 26000 -->
      <g transform="translate(20.878125 65.59193)scale(0.1 -0.1)">
       <defs>
        <path id="DejaVuSans-36" d="M 2113 2584 
Q 1688 2584 1439 2293 
Q 1191 2003 1191 1497 
Q 1191 994 1439 701 
Q 1688 409 2113 409 
Q 2538 409 2786 701 
Q 3034 994 3034 1497 
Q 3034 2003 2786 2293 
Q 2538 2584 2113 2584 
z
M 3366 4563 
L 3366 3988 
Q 3128 4100 2886 4159 
Q 2644 4219 2406 4219 
Q 1781 4219 1451 3797 
Q 1122 3375 1075 2522 
Q 1259 2794 1537 2939 
Q 1816 3084 2150 3084 
Q 2853 3084 3261 2657 
Q 3669 2231 3669 1497 
Q 3669 778 3244 343 
Q 2819 -91 2113 -91 
Q 1303 -91 875 529 
Q 447 1150 447 2328 
Q 447 3434 972 4092 
Q 1497 4750 2381 4750 
Q 2619 4750 2861 4703 
Q 3103 4656 3366 4563 
z
" transform="scale(0.015625)"/>
       </defs>
       <use xlink:href="#DejaVuSans-32"/>
       <use xlink:href="#DejaVuSans-36" x="63.623047"/>
       <use xlink:href="#DejaVuSans-30" x="127.246094"/>
       <use xlink:href="#DejaVuSans-30" x="190.869141"/>
       <use xlink:href="#DejaVuSans-30" x="254.492188"/>
      </g>
     </g>
    </g>
    <g id="ytick_9">
     <g id="line2d_13">
      <g>
       <use xlink:href="#m2eaf5e0417" x="59.690625" y="31.951699" style="stroke: #000000; stroke-width: 0.8"/>
      </g>
     </g>
     <g id="text_14">
      <!-- 26500 -->
      <g transform="translate(20.878125 35.750917)scale(0.1 -0.1)">
       <use xlink:href="#DejaVuSans-32"/>
       <use xlink:href="#DejaVuSans-36" x="63.623047"/>
       <use xlink:href="#DejaVuSans-35" x="127.246094"/>
       <use xlink:href="#DejaVuSans-30" x="190.869141"/>
       <use xlink:href="#DejaVuSans-30" x="254.492188"/>
      </g>
     </g>
    </g>
    <g id="text_15">
     <!-- Reached region coverage -->
     <g transform="translate(14.798438 219.136625)rotate(-90)scale(0.1 -0.1)">
      <defs>
       <path id="DejaVuSans-52" d="M 2841 2188 
Q 3044 2119 3236 1894 
Q 3428 1669 3622 1275 
L 4263 0 
L 3584 0 
L 2988 1197 
Q 2756 1666 2539 1819 
Q 2322 1972 1947 1972 
L 1259 1972 
L 1259 0 
L 628 0 
L 628 4666 
L 2053 4666 
Q 2853 4666 3247 4331 
Q 3641 3997 3641 3322 
Q 3641 2881 3436 2590 
Q 3231 2300 2841 2188 
z
M 1259 4147 
L 1259 2491 
L 2053 2491 
Q 2509 2491 2742 2702 
Q 2975 2913 2975 3322 
Q 2975 3731 2742 3939 
Q 2509 4147 2053 4147 
L 1259 4147 
z
" transform="scale(0.015625)"/>
      </defs>
      <use xlink:href="#DejaVuSans-52"/>
      <use xlink:href="#DejaVuSans-65" x="64.982422"/>
      <use xlink:href="#DejaVuSans-61" x="126.505859"/>
      <use xlink:href="#DejaVuSans-63" x="187.785156"/>
      <use xlink:href="#DejaVuSans-68" x="242.765625"/>
      <use xlink:href="#DejaVuSans-65" x="306.144531"/>
      <use xlink:href="#DejaVuSans-64" x="367.667969"/>
      <use xlink:href="#DejaVuSans-20" x="431.144531"/>
      <use xlink:href="#DejaVuSans-72" x="462.931641"/>
      <use xlink:href="#DejaVuSans-65" x="501.794922"/>
      <use xlink:href="#DejaVuSans-67" x="563.318359"/>
      <use xlink:href="#DejaVuSans-69" x="626.794922"/>
      <use xlink:href="#DejaVuSans-6f" x="654.578125"/>
      <use xlink:href="#DejaVuSans-6e" x="715.759766"/>
      <use xlink:href="#DejaVuSans-20" x="779.138672"/>
      <use xlink:href="#DejaVuSans-63" x="810.925781"/>
      <use xlink:href="#DejaVuSans-6f" x="865.90625"/>
      <use xlink:href="#DejaVuSans-76" x="927.087891"/>
      <use xlink:href="#DejaVuSans-65" x="986.267578"/>
      <use xlink:href="#DejaVuSans-72" x="1047.791016"/>
      <use xlink:href="#DejaVuSans-61" x="1088.904297"/>
      <use xlink:href="#DejaVuSans-67" x="1150.183594"/>
      <use xlink:href="#DejaVuSans-65" x="1213.660156"/>
     </g>
    </g>
   </g>
   <g id="line2d_14">
    <path d="M 104.330625 192.67539 
L 104.330625 125.354067 
" clip-path="url(#p5439f43800)" style="fill: none; stroke: #3f3f3f; stroke-width: 1.5; stroke-linecap: square"/>
   </g>
   <g id="line2d_15">
    <path d="M 104.330625 163.819131 
L 104.330625 130.15847 
" clip-path="url(#p5439f43800)" style="fill: none; stroke: #3f3f3f; stroke-width: 4.5; stroke-linecap: square"/>
   </g>
   <g id="line2d_16">
    <path d="M 193.610625 152.56907 
L 193.610625 131.501315 
" clip-path="url(#p5439f43800)" style="fill: none; stroke: #3f3f3f; stroke-width: 1.5; stroke-linecap: square"/>
   </g>
   <g id="line2d_17">
    <path d="M 193.610625 144.124063 
L 193.610625 133.590186 
" clip-path="url(#p5439f43800)" style="fill: none; stroke: #3f3f3f; stroke-width: 4.5; stroke-linecap: square"/>
   </g>
   <g id="line2d_18">
    <path d="M 282.890625 163.371516 
L 282.890625 127.084845 
" clip-path="url(#p5439f43800)" style="fill: none; stroke: #3f3f3f; stroke-width: 1.5; stroke-linecap: square"/>
   </g>
   <g id="line2d_19">
    <path d="M 282.890625 153.046526 
L 282.890625 134.903191 
" clip-path="url(#p5439f43800)" style="fill: none; stroke: #3f3f3f; stroke-width: 4.5; stroke-linecap: square"/>
   </g>
   <g id="line2d_20">
    <path d="M 372.170625 201.329284 
L 372.170625 109.418966 
" clip-path="url(#p5439f43800)" style="fill: none; stroke: #3f3f3f; stroke-width: 1.5; stroke-linecap: square"/>
   </g>
   <g id="line2d_21">
    <path d="M 372.170625 185.632911 
L 372.170625 139.677753 
" clip-path="url(#p5439f43800)" style="fill: none; stroke: #3f3f3f; stroke-width: 4.5; stroke-linecap: square"/>
   </g>
   <g id="patch_3">
    <path d="M 59.690625 270.679796 
L 59.690625 31.951699 
" style="fill: none; stroke: #000000; stroke-width: 0.8; stroke-linejoin: miter; stroke-linecap: square"/>
   </g>
   <g id="patch_4">
    <path d="M 104.330625 288.430125 
L 372.170625 288.430125 
" style="fill: none; stroke: #000000; stroke-width: 0.8; stroke-linejoin: miter; stroke-linecap: square"/>
   </g>
   <g id="PathCollection_1">
    <defs>
     <path id="m8626d7920e" d="M 0 1.5 
C 0.397805 1.5 0.77937 1.341951 1.06066 1.06066 
C 1.341951 0.77937 1.5 0.397805 1.5 0 
C 1.5 -0.397805 1.341951 -0.77937 1.06066 -1.06066 
C 0.77937 -1.341951 0.397805 -1.5 0 -1.5 
C -0.397805 -1.5 -0.77937 -1.341951 -1.06066 -1.06066 
C -1.341951 -0.77937 -1.5 -0.397805 -1.5 0 
C -1.5 0.397805 -1.341951 0.77937 -1.06066 1.06066 
C -0.77937 1.341951 -0.397805 1.5 0 1.5 
z
" style="stroke: #3f3f3f"/>
    </defs>
    <g clip-path="url(#p5439f43800)">
     <use xlink:href="#m8626d7920e" x="104.330625" y="134.962873" style="fill: #ffffff; stroke: #3f3f3f"/>
    </g>
   </g>
   <g id="PathCollection_2">
    <g clip-path="url(#p5439f43800)">
     <use xlink:href="#m8626d7920e" x="193.610625" y="135.679057" style="fill: #ffffff; stroke: #3f3f3f"/>
    </g>
   </g>
   <g id="PathCollection_3">
    <g clip-path="url(#p5439f43800)">
     <use xlink:href="#m8626d7920e" x="282.890625" y="142.721536" style="fill: #ffffff; stroke: #3f3f3f"/>
    </g>
   </g>
   <g id="PathCollection_4">
    <g clip-path="url(#p5439f43800)">
     <use xlink:href="#m8626d7920e" x="372.170625" y="169.936539" style="fill: #ffffff; stroke: #3f3f3f"/>
    </g>
   </g>
   <g id="text_16">
    <!-- sqlite3_ossfuzz (4h, 3 trials/fuzzer) -->
    <g transform="translate(133.890938 16.318125)scale(0.12 -0.12)">
     <defs>
      <path id="DejaVuSans-71" d="M 947 1747 
Q 947 1113 1208 752 
Q 1469 391 1925 391 
Q 2381 391 2643 752 
Q 2906 1113 2906 1747 
Q 2906 2381 2643 2742 
Q 2381 3103 1925 3103 
Q 1469 3103 1208 2742 
Q 947 2381 947 1747 
z
M 2906 525 
Q 2725 213 2448 61 
Q 2172 -91 1784 -91 
Q 1150 -91 751 415 
Q 353 922 353 1747 
Q 353 2572 751 3078 
Q 1150 3584 1784 3584 
Q 2172 3584 2448 3432 
Q 2725 3281 2906 2969 
L 2906 3500 
L 3481 3500 
L 3481 -1331 
L 2906 -1331 
L 2906 525 
z
" transform="scale(0.015625)"/>
      <path id="DejaVuSans-2c" d="M 750 794 
L 1409 794 
L 1409 256 
L 897 -744 
L 494 -744 
L 750 256 
L 750 794 
z
" transform="scale(0.015625)"/>
      <path id="DejaVuSans-2f" d="M 1625 4666 
L 2156 4666 
L 531 -594 
L 0 -594 
L 1625 4666 
z
" transform="scale(0.015625)"/>
     </defs>
     <use xlink:href="#DejaVuSans-73"/>
     <use xlink:href="#DejaVuSans-71" x="52.099609"/>
     <use xlink:href="#DejaVuSans-6c" x="115.576172"/>
     <use xlink:href="#DejaVuSans-69" x="143.359375"/>
     <use xlink:href="#DejaVuSans-74" x="171.142578"/>
     <use xlink:href="#DejaVuSans-65" x="210.351562"/>
     <use xlink:href="#DejaVuSans-33" x="271.875"/>
     <use xlink:href="#DejaVuSans-5f" x="335.498047"/>
     <use xlink:href="#DejaVuSans-6f" x="385.498047"/>
     <use xlink:href="#DejaVuSans-73" x="446.679688"/>
     <use xlink:href="#DejaVuSans-73" x="498.779297"/>
     <use xlink:href="#DejaVuSans-66" x="550.878906"/>
     <use xlink:href="#DejaVuSans-75" x="586.083984"/>
     <use xlink:href="#DejaVuSans-7a" x="649.462891"/>
     <use xlink:href="#DejaVuSans-7a" x="701.953125"/>
     <use xlink:href="#DejaVuSans-20" x="754.443359"/>
     <use xlink:href="#DejaVuSans-28" x="786.230469"/>
     <use xlink:href="#DejaVuSans-34" x="825.244141"/>
     <use xlink:href="#DejaVuSans-68" x="888.867188"/>
     <use xlink:href="#DejaVuSans-2c" x="952.246094"/>
     <use xlink:href="#DejaVuSans-20" x="984.033203"/>
     <use xlink:href="#DejaVuSans-33" x="1015.820312"/>
     <use xlink:href="#DejaVuSans-20" x="1079.443359"/>
     <use xlink:href="#DejaVuSans-74" x="1111.230469"/>
     <use xlink:href="#DejaVuSans-72" x="1150.439453"/>
     <use xlink:href="#DejaVuSans-69" x="1191.552734"/>
     <use xlink:href="#DejaVuSans-61" x="1219.335938"/>
     <use xlink:href="#DejaVuSans-6c" x="1280.615234"/>
     <use xlink:href="#DejaVuSans-73" x="1308.398438"/>
     <use xlink:href="#DejaVuSans-2f" x="1360.498047"/>
     <use xlink:href="#DejaVuSans-66" x="1394.189453"/>
     <use xlink:href="#DejaVuSans-75" x="1429.394531"/>
     <use xlink:href="#DejaVuSans-7a" x="1492.773438"/>
     <use xlink:href="#DejaVuSans-7a" x="1545.263672"/>
     <use xlink:href="#DejaVuSans-65" x="1597.753906"/>
     <use xlink:href="#DejaVuSans-72" x="1659.277344"/>
     <use xlink:href="#DejaVuSans-29" x="1700.390625"/>
    </g>
   </g>
  </g>
 </g>
 <defs>
  <clipPath id="p5439f43800">
   <rect x="59.690625" y="22.318125" width="357.12" height="266.112"/>
  </clipPath>
 </defs>
</svg>
