<?xml version="1.0" encoding="utf-8" standalone="no"?>
<!DOCTYPE svg PUBLIC "-//W3C//DTD SVG 1.1//EN"
  "http://www.w3.org/Graphics/SVG/1.1/DTD/svg11.dtd">
<svg xmlns:xlink="http://www.w3.org/1999/xlink" width="417.648125pt" height="370.686865pt" viewBox="0 0 417.648125 370.686865" xmlns="http://www.w3.org/2000/svg" version="1.1">
 <metadata>
  <rdf:RDF xmlns:dc="http://purl.org/dc/elements/1.1/" xmlns:cc="http://creativecommons.org/ns#" xmlns:rdf="http://www.w3.org/1999/02/22-rdf-syntax-ns#">
   <cc:Work>
    <dc:type rdf:resource="http://purl.org/dc/dcmitype/StillImage"/>
    <dc:date>2022-04-27T20:14:48.887740</dc:date>
    <dc:format>image/svg+xml</dc:format>
    <dc:creator>
     <cc:Agent>
      <dc:title>Matplotlib v3.5.1, https://matplotlib.org/</dc:title>
     </cc:Agent>
    </dc:creator>
   </cc:Work>
  </rdf:RDF>
 </metadata>
 <defs>
  <style type="text/css">*{stroke-linejoin: round; stroke-linecap: butt}</style>
 </defs>
 <g id="figure_1">
  <g id="patch_1">
   <path d="M 0 370.686865 
L 417.648125 370.686865 
L 417.648125 0 
L 0 0 
z
" style="fill: #ffffff"/>
  </g>
  <g id="axes_1">
   <g id="patch_2">
    <path d="M 53.328125 288.430125 
L 410.448125 288.430125 
L 410.448125 22.318125 
L 53.328125 22.318125 
z
" style="fill: #ffffff"/>
   </g>
   <g id="PolyCollection_1">
    <defs>
     <path id="m13265055cf" d="M 99.71602 -166.064637 
L 96.22023 -166.064637 
L 95.98818 -167.059549 
L 95.734109 -168.05446 
L 95.45729 -169.049371 
L 95.157175 -170.044282 
L 94.833427 -171.039193 
L 94.485945 -172.034104 
L 94.114885 -173.029016 
L 93.720688 -174.023927 
L 93.304088 -175.018838 
L 92.866128 -176.013749 
L 92.408161 -177.00866 
L 91.931851 -178.003572 
L 91.439158 -178.998483 
L 90.932321 -179.993394 
L 90.413831 -180.988305 
L 89.886395 -181.983216 
L 89.35289 -182.978127 
L 88.816312 -183.973039 
L 88.279719 -184.96795 
L 87.746164 -185.962861 
L 87.218627 -186.957772 
L 86.699943 -187.952683 
L 86.192732 -188.947594 
L 85.699329 -189.942506 
L 85.221714 -190.937417 
L 84.761455 -191.932328 
L 84.319654 -192.927239 
L 83.896907 -193.92215 
L 83.493271 -194.917061 
L 83.108255 -195.911973 
L 82.740812 -196.906884 
L 82.389363 -197.901795 
L 82.051825 -198.896706 
L 81.725664 -199.891617 
L 81.407961 -200.886528 
L 81.095493 -201.88144 
L 80.784826 -202.876351 
L 80.472426 -203.871262 
L 80.154769 -204.866173 
L 79.828462 -205.861084 
L 79.490372 -206.855995 
L 79.137736 -207.850907 
L 78.768289 -208.845818 
L 78.380364 -209.840729 
L 77.972991 -210.83564 
L 77.545975 -211.830551 
L 77.099961 -212.825462 
L 76.636471 -213.820374 
L 76.157924 -214.815285 
L 75.667629 -215.810196 
L 75.169757 -216.805107 
L 74.669281 -217.800018 
L 74.1719 -218.79493 
L 73.683939 -219.789841 
L 73.212228 -220.784752 
L 72.763964 -221.779663 
L 72.346562 -222.774574 
L 71.967494 -223.769485 
L 71.634129 -224.764397 
L 71.353562 -225.759308 
L 71.132458 -226.754219 
L 70.976897 -227.74913 
L 70.892232 -228.744041 
L 70.882969 -229.738952 
L 70.952657 -230.733864 
L 71.103808 -231.728775 
L 71.337836 -232.723686 
L 71.655027 -233.718597 
L 72.054525 -234.713508 
L 72.534354 -235.708419 
L 73.091459 -236.703331 
L 73.721771 -237.698242 
L 74.420295 -238.693153 
L 75.18121 -239.688064 
L 75.99799 -240.682975 
L 76.863537 -241.677886 
L 77.770315 -242.672798 
L 78.710492 -243.667709 
L 79.676085 -244.66262 
L 80.659096 -245.657531 
L 81.651647 -246.652442 
L 82.646102 -247.647353 
L 83.635177 -248.642265 
L 84.61204 -249.637176 
L 85.570395 -250.632087 
L 86.504543 -251.626998 
L 87.409436 -252.621909 
L 88.28071 -253.616821 
L 89.114703 -254.611732 
L 89.908454 -255.606643 
L 90.659693 -256.601554 
L 91.366818 -257.596465 
L 92.028859 -258.591376 
L 92.645433 -259.586288 
L 93.216695 -260.581199 
L 93.743282 -261.57611 
L 94.226252 -262.571021 
L 94.667023 -263.565932 
L 95.067313 -264.560843 
L 100.868937 -264.560843 
L 100.868937 -264.560843 
L 101.269227 -263.565932 
L 101.709998 -262.571021 
L 102.192968 -261.57611 
L 102.719555 -260.581199 
L 103.290817 -259.586288 
L 103.907391 -258.591376 
L 104.569432 -257.596465 
L 105.276557 -256.601554 
L 106.027796 -255.606643 
L 106.821547 -254.611732 
L 107.65554 -253.616821 
L 108.526814 -252.621909 
L 109.431707 -251.626998 
L 110.365855 -250.632087 
L 111.32421 -249.637176 
L 112.301073 -248.642265 
L 113.290148 -247.647353 
L 114.284603 -246.652442 
L 115.277154 -245.657531 
L 116.260165 -244.66262 
L 117.225758 -243.667709 
L 118.165935 -242.672798 
L 119.072713 -241.677886 
L 119.93826 -240.682975 
L 120.75504 -239.688064 
L 121.515955 -238.693153 
L 122.214479 -237.698242 
L 122.844791 -236.703331 
L 123.401896 -235.708419 
L 123.881725 -234.713508 
L 124.281223 -233.718597 
L 124.598414 -232.723686 
L 124.832442 -231.728775 
L 124.983593 -230.733864 
L 125.053281 -229.738952 
L 125.044018 -228.744041 
L 124.959353 -227.74913 
L 124.803792 -226.754219 
L 124.582688 -225.759308 
L 124.302121 -224.764397 
L 123.968756 -223.769485 
L 123.589688 -222.774574 
L 123.172286 -221.779663 
L 122.724022 -220.784752 
L 122.252311 -219.789841 
L 121.76435 -218.79493 
L 121.266969 -217.800018 
L 120.766493 -216.805107 
L 120.268621 -215.810196 
L 119.778326 -214.815285 
L 119.299779 -213.820374 
L 118.836289 -212.825462 
L 118.390275 -211.830551 
L 117.963259 -210.83564 
L 117.555886 -209.840729 
L 117.167961 -208.845818 
L 116.798514 -207.850907 
L 116.445878 -206.855995 
L 116.107788 -205.861084 
L 115.781481 -204.866173 
L 115.463824 -203.871262 
L 115.151424 -202.876351 
L 114.840757 -201.88144 
L 114.528289 -200.886528 
L 114.210586 -199.891617 
L 113.884425 -198.896706 
L 113.546887 -197.901795 
L 113.195438 -196.906884 
L 112.827995 -195.911973 
L 112.442979 -194.917061 
L 112.039343 -193.92215 
L 111.616596 -192.927239 
L 111.174795 -191.932328 
L 110.714536 -190.937417 
L 110.236921 -189.942506 
L 109.743518 -188.947594 
L 109.236307 -187.952683 
L 108.717623 -186.957772 
L 108.190086 -185.962861 
L 107.656531 -184.96795 
L 107.119938 -183.973039 
L 106.58336 -182.978127 
L 106.049855 -181.983216 
L 105.522419 -180.988305 
L 105.003929 -179.993394 
L 104.497092 -178.998483 
L 104.004399 -178.003572 
L 103.528089 -177.00866 
L 103.070122 -176.013749 
L 102.632162 -175.018838 
L 102.215562 -174.023927 
L 101.821365 -173.029016 
L 101.450305 -172.034104 
L 101.102823 -171.039193 
L 100.779075 -170.044282 
L 100.47896 -169.049371 
L 100.202141 -168.05446 
L 99.94807 -167.059549 
L 99.71602 -166.064637 
z
" style="stroke: #3f3f3f; stroke-width: 1.5"/>
    </defs>
    <g clip-path="url(#p5a51aa5fa0)">
     <use xlink:href="#m13265055cf" x="0" y="370.686865" style="fill: #9fd495; stroke: #3f3f3f; stroke-width: 1.5"/>
    </g>
   </g>
   <g id="PolyCollection_2">
    <defs>
     <path id="m65c5f58d19" d="M 188.865314 -167.688455 
L 185.630936 -167.688455 
L 185.397264 -168.961904 
L 185.138099 -170.235354 
L 184.852005 -171.508804 
L 184.537671 -172.782254 
L 184.193948 -174.055703 
L 183.819884 -175.329153 
L 183.414762 -176.602603 
L 182.978136 -177.876052 
L 182.509868 -179.149502 
L 182.010158 -180.422952 
L 181.479574 -181.696402 
L 180.919079 -182.969851 
L 180.33005 -184.243301 
L 179.714286 -185.516751 
L 179.074021 -186.7902 
L 178.411916 -188.06365 
L 177.731053 -189.3371 
L 177.03491 -190.61055 
L 176.327336 -191.883999 
L 175.612511 -193.157449 
L 174.8949 -194.430899 
L 174.179197 -195.704348 
L 173.470263 -196.977798 
L 172.773059 -198.251248 
L 172.092569 -199.524698 
L 171.433723 -200.798147 
L 170.801318 -202.071597 
L 170.199941 -203.345047 
L 169.633884 -204.618496 
L 169.107077 -205.891946 
L 168.623014 -207.165396 
L 168.184695 -208.438846 
L 167.794568 -209.712295 
L 167.454493 -210.985745 
L 167.165709 -212.259195 
L 166.928817 -213.532644 
L 166.743776 -214.806094 
L 166.609914 -216.079544 
L 166.525952 -217.352994 
L 166.490043 -218.626443 
L 166.49982 -219.899893 
L 166.55246 -221.173343 
L 166.644759 -222.446792 
L 166.773205 -223.720242 
L 166.934075 -224.993692 
L 167.123516 -226.267142 
L 167.337644 -227.540591 
L 167.572631 -228.814041 
L 167.824795 -230.087491 
L 168.090678 -231.36094 
L 168.367122 -232.63439 
L 168.651327 -233.90784 
L 168.940908 -235.18129 
L 169.233925 -236.454739 
L 169.528909 -237.728189 
L 169.824869 -239.001639 
L 170.121283 -240.275088 
L 170.41808 -241.548538 
L 170.7156 -242.821988 
L 171.014551 -244.095438 
L 171.315949 -245.368887 
L 171.621054 -246.642337 
L 171.931297 -247.915787 
L 172.248206 -249.189236 
L 172.573331 -250.462686 
L 172.908166 -251.736136 
L 173.254084 -253.009586 
L 173.612268 -254.283035 
L 173.983658 -255.556485 
L 174.368903 -256.829935 
L 174.768327 -258.103384 
L 175.181903 -259.376834 
L 175.609245 -260.650284 
L 176.049601 -261.923734 
L 176.501874 -263.197183 
L 176.964637 -264.470633 
L 177.436169 -265.744083 
L 177.914492 -267.017532 
L 178.397418 -268.290982 
L 178.882603 -269.564432 
L 179.367596 -270.837882 
L 179.849896 -272.111331 
L 180.32701 -273.384781 
L 180.796495 -274.658231 
L 181.256015 -275.93168 
L 181.703383 -277.20513 
L 182.136592 -278.47858 
L 182.553853 -279.75203 
L 182.953614 -281.025479 
L 183.334578 -282.298929 
L 183.695711 -283.572379 
L 184.036249 -284.845828 
L 184.355689 -286.119278 
L 184.653782 -287.392728 
L 184.930518 -288.666178 
L 185.18611 -289.939627 
L 185.42097 -291.213077 
L 185.635685 -292.486527 
L 185.830996 -293.759976 
L 188.665254 -293.759976 
L 188.665254 -293.759976 
L 188.860565 -292.486527 
L 189.07528 -291.213077 
L 189.31014 -289.939627 
L 189.565732 -288.666178 
L 189.842468 -287.392728 
L 190.140561 -286.119278 
L 190.460001 -284.845828 
L 190.800539 -283.572379 
L 191.161672 -282.298929 
L 191.542636 -281.025479 
L 191.942397 -279.75203 
L 192.359658 -278.47858 
L 192.792867 -277.20513 
L 193.240235 -275.93168 
L 193.699755 -274.658231 
L 194.16924 -273.384781 
L 194.646354 -272.111331 
L 195.128654 -270.837882 
L 195.613647 -269.564432 
L 196.098832 -268.290982 
L 196.581758 -267.017532 
L 197.060081 -265.744083 
L 197.531613 -264.470633 
L 197.994376 -263.197183 
L 198.446649 -261.923734 
L 198.887005 -260.650284 
L 199.314347 -259.376834 
L 199.727923 -258.103384 
L 200.127347 -256.829935 
L 200.512592 -255.556485 
L 200.883982 -254.283035 
L 201.242166 -253.009586 
L 201.588084 -251.736136 
L 201.922919 -250.462686 
L 202.248044 -249.189236 
L 202.564953 -247.915787 
L 202.875196 -246.642337 
L 203.180301 -245.368887 
L 203.481699 -244.095438 
L 203.78065 -242.821988 
L 204.07817 -241.548538 
L 204.374967 -240.275088 
L 204.671381 -239.001639 
L 204.967341 -237.728189 
L 205.262325 -236.454739 
L 205.555342 -235.18129 
L 205.844923 -233.90784 
L 206.129128 -232.63439 
L 206.405572 -231.36094 
L 206.671455 -230.087491 
L 206.923619 -228.814041 
L 207.158606 -227.540591 
L 207.372734 -226.267142 
L 207.562175 -224.993692 
L 207.723045 -223.720242 
L 207.851491 -222.446792 
L 207.94379 -221.173343 
L 207.99643 -219.899893 
L 208.006207 -218.626443 
L 207.970298 -217.352994 
L 207.886336 -216.079544 
L 207.752474 -214.806094 
L 207.567433 -213.532644 
L 207.330541 -212.259195 
L 207.041757 -210.985745 
L 206.701682 -209.712295 
L 206.311555 -208.438846 
L 205.873236 -207.165396 
L 205.389173 -205.891946 
L 204.862366 -204.618496 
L 204.296309 -203.345047 
L 203.694932 -202.071597 
L 203.062527 -200.798147 
L 202.403681 -199.524698 
L 201.723191 -198.251248 
L 201.025987 -196.977798 
L 200.317053 -195.704348 
L 199.60135 -194.430899 
L 198.883739 -193.157449 
L 198.168914 -191.883999 
L 197.46134 -190.61055 
L 196.765197 -189.3371 
L 196.084334 -188.06365 
L 195.422229 -186.7902 
L 194.781964 -185.516751 
L 194.1662 -184.243301 
L 193.577171 -182.969851 
L 193.016676 -181.696402 
L 192.486092 -180.422952 
L 191.986382 -179.149502 
L 191.518114 -177.876052 
L 191.081488 -176.602603 
L 190.676366 -175.329153 
L 190.302302 -174.055703 
L 189.958579 -172.782254 
L 189.644245 -171.508804 
L 189.358151 -170.235354 
L 189.098986 -168.961904 
L 188.865314 -167.688455 
z
" style="stroke: #3f3f3f; stroke-width: 1.5"/>
    </defs>
    <g clip-path="url(#p5a51aa5fa0)">
     <use xlink:href="#m65c5f58d19" x="0" y="370.686865" style="fill: #c03d3e; stroke: #3f3f3f; stroke-width: 1.5"/>
    </g>
   </g>
   <g id="PolyCollection_3">
    <defs>
     <path id="m127ea1bbdc" d="M 278.976431 -173.371188 
L 274.079819 -173.371188 
L 273.741875 -174.109522 
L 273.370273 -174.847856 
L 272.963717 -175.58619 
L 272.52117 -176.324524 
L 272.041899 -177.062858 
L 271.525514 -177.801192 
L 270.972006 -178.539526 
L 270.381781 -179.27786 
L 269.755681 -180.016194 
L 269.095002 -180.754528 
L 268.401503 -181.492863 
L 267.677398 -182.231197 
L 266.925342 -182.969531 
L 266.148405 -183.707865 
L 265.350027 -184.446199 
L 264.533972 -185.184533 
L 263.704259 -185.922867 
L 262.865092 -186.661201 
L 262.020777 -187.399535 
L 261.175635 -188.137869 
L 260.333905 -188.876203 
L 259.499657 -189.614537 
L 258.676698 -190.352871 
L 257.868483 -191.091205 
L 257.078037 -191.829539 
L 256.307891 -192.567874 
L 255.560022 -193.306208 
L 254.835821 -194.044542 
L 254.136067 -194.782876 
L 253.460931 -195.52121 
L 252.809996 -196.259544 
L 252.182292 -196.997878 
L 251.576362 -197.736212 
L 250.990338 -198.474546 
L 250.422033 -199.21288 
L 249.869049 -199.951214 
L 249.3289 -200.689548 
L 248.799127 -201.427882 
L 248.277435 -202.166216 
L 247.761808 -202.90455 
L 247.250636 -203.642885 
L 246.742817 -204.381219 
L 246.237857 -205.119553 
L 245.735942 -205.857887 
L 245.238001 -206.596221 
L 244.745735 -207.334555 
L 244.261631 -208.072889 
L 243.788945 -208.811223 
L 243.331667 -209.549557 
L 242.894454 -210.287891 
L 242.48255 -211.026225 
L 242.101678 -211.764559 
L 241.757919 -212.502893 
L 241.45758 -213.241227 
L 241.207043 -213.979562 
L 241.012624 -214.717896 
L 240.880412 -215.45623 
L 240.816125 -216.194564 
L 240.824966 -216.932898 
L 240.911491 -217.671232 
L 241.079492 -218.409566 
L 241.331892 -219.1479 
L 241.670667 -219.886234 
L 242.096782 -220.624568 
L 242.610155 -221.362902 
L 243.209638 -222.101236 
L 243.893027 -222.83957 
L 244.657089 -223.577904 
L 245.497616 -224.316238 
L 246.409491 -225.054573 
L 247.38678 -225.792907 
L 248.422831 -226.531241 
L 249.510389 -227.269575 
L 250.641723 -228.007909 
L 251.80875 -228.746243 
L 253.003171 -229.484577 
L 254.216602 -230.222911 
L 255.440704 -230.961245 
L 256.667303 -231.699579 
L 257.88851 -232.437913 
L 259.096819 -233.176247 
L 260.285204 -233.914581 
L 261.447194 -234.652915 
L 262.576938 -235.391249 
L 263.669255 -236.129584 
L 264.719667 -236.867918 
L 265.724416 -237.606252 
L 266.68047 -238.344586 
L 267.585516 -239.08292 
L 268.437933 -239.821254 
L 269.236766 -240.559588 
L 269.981681 -241.297922 
L 270.672918 -242.036256 
L 271.311237 -242.77459 
L 271.897854 -243.512924 
L 272.434387 -244.251258 
L 272.922786 -244.989592 
L 273.365279 -245.727926 
L 273.764305 -246.466261 
L 279.291945 -246.466261 
L 279.291945 -246.466261 
L 279.690971 -245.727926 
L 280.133464 -244.989592 
L 280.621863 -244.251258 
L 281.158396 -243.512924 
L 281.745013 -242.77459 
L 282.383332 -242.036256 
L 283.074569 -241.297922 
L 283.819484 -240.559588 
L 284.618317 -239.821254 
L 285.470734 -239.08292 
L 286.37578 -238.344586 
L 287.331834 -237.606252 
L 288.336583 -236.867918 
L 289.386995 -236.129584 
L 290.479312 -235.391249 
L 291.609056 -234.652915 
L 292.771046 -233.914581 
L 293.959431 -233.176247 
L 295.16774 -232.437913 
L 296.388947 -231.699579 
L 297.615546 -230.961245 
L 298.839648 -230.222911 
L 300.053079 -229.484577 
L 301.2475 -228.746243 
L 302.414527 -228.007909 
L 303.545861 -227.269575 
L 304.633419 -226.531241 
L 305.66947 -225.792907 
L 306.646759 -225.054573 
L 307.558634 -224.316238 
L 308.399161 -223.577904 
L 309.163223 -222.83957 
L 309.846612 -222.101236 
L 310.446095 -221.362902 
L 310.959468 -220.624568 
L 311.385583 -219.886234 
L 311.724358 -219.1479 
L 311.976758 -218.409566 
L 312.144759 -217.671232 
L 312.231284 -216.932898 
L 312.240125 -216.194564 
L 312.175838 -215.45623 
L 312.043626 -214.717896 
L 311.849207 -213.979562 
L 311.59867 -213.241227 
L 311.298331 -212.502893 
L 310.954572 -211.764559 
L 310.5737 -211.026225 
L 310.161796 -210.287891 
L 309.724583 -209.549557 
L 309.267305 -208.811223 
L 308.794619 -208.072889 
L 308.310515 -207.334555 
L 307.818249 -206.596221 
L 307.320308 -205.857887 
L 306.818393 -205.119553 
L 306.313433 -204.381219 
L 305.805614 -203.642885 
L 305.294442 -202.90455 
L 304.778815 -202.166216 
L 304.257123 -201.427882 
L 303.72735 -200.689548 
L 303.187201 -199.951214 
L 302.634217 -199.21288 
L 302.065912 -198.474546 
L 301.479888 -197.736212 
L 300.873958 -196.997878 
L 300.246254 -196.259544 
L 299.595319 -195.52121 
L 298.920183 -194.782876 
L 298.220429 -194.044542 
L 297.496228 -193.306208 
L 296.748359 -192.567874 
L 295.978213 -191.829539 
L 295.187767 -191.091205 
L 294.379552 -190.352871 
L 293.556593 -189.614537 
L 292.722345 -188.876203 
L 291.880615 -188.137869 
L 291.035473 -187.399535 
L 290.191158 -186.661201 
L 289.351991 -185.922867 
L 288.522278 -185.184533 
L 287.706223 -184.446199 
L 286.907845 -183.707865 
L 286.130908 -182.969531 
L 285.378852 -182.231197 
L 284.654747 -181.492863 
L 283.961248 -180.754528 
L 283.300569 -180.016194 
L 282.674469 -179.27786 
L 282.084244 -178.539526 
L 281.530736 -177.801192 
L 281.014351 -177.062858 
L 280.53508 -176.324524 
L 280.092533 -175.58619 
L 279.685977 -174.847856 
L 279.314375 -174.109522 
L 278.976431 -173.371188 
z
" style="stroke: #3f3f3f; stroke-width: 1.5"/>
    </defs>
    <g clip-path="url(#p5a51aa5fa0)">
     <use xlink:href="#m127ea1bbdc" x="0" y="370.686865" style="fill: #c7c7c7; stroke: #3f3f3f; stroke-width: 1.5"/>
    </g>
   </g>
   <g id="PolyCollection_4">
    <defs>
     <path id="m823e4db006" d="M 366.695412 -94.35274 
L 364.920838 -94.35274 
L 364.792433 -96.796377 
L 364.649984 -99.240013 
L 364.492701 -101.68365 
L 364.319863 -104.127286 
L 364.130844 -106.570922 
L 363.925128 -109.014559 
L 363.702336 -111.458195 
L 363.462245 -113.901831 
L 363.204809 -116.345468 
L 362.930175 -118.789104 
L 362.638707 -121.23274 
L 362.330993 -123.676377 
L 362.007864 -126.120013 
L 361.670395 -128.56365 
L 361.319912 -131.007286 
L 360.957989 -133.450922 
L 360.586442 -135.894559 
L 360.207318 -138.338195 
L 359.822874 -140.781831 
L 359.435556 -143.225468 
L 359.047972 -145.669104 
L 358.662853 -148.11274 
L 358.28302 -150.556377 
L 357.911341 -153.000013 
L 357.550683 -155.44365 
L 357.203865 -157.887286 
L 356.873615 -160.330922 
L 356.562513 -162.774559 
L 356.272951 -165.218195 
L 356.007086 -167.661831 
L 355.766798 -170.105468 
L 355.553655 -172.549104 
L 355.368884 -174.99274 
L 355.213344 -177.436377 
L 355.087518 -179.880013 
L 354.991496 -182.32365 
L 354.924984 -184.767286 
L 354.88731 -187.210922 
L 354.877444 -189.654559 
L 354.894027 -192.098195 
L 354.935399 -194.541831 
L 354.99965 -196.985468 
L 355.084657 -199.429104 
L 355.188145 -201.87274 
L 355.307734 -204.316377 
L 355.441 -206.760013 
L 355.585529 -209.20365 
L 355.738975 -211.647286 
L 355.899107 -214.090922 
L 356.06386 -216.534559 
L 356.231377 -218.978195 
L 356.400042 -221.421831 
L 356.568504 -223.865468 
L 356.735703 -226.309104 
L 356.900874 -228.75274 
L 357.063548 -231.196377 
L 357.223546 -233.640013 
L 357.380961 -236.08365 
L 357.536136 -238.527286 
L 357.689631 -240.970922 
L 357.842187 -243.414559 
L 357.99469 -245.858195 
L 358.14812 -248.301831 
L 358.303513 -250.745468 
L 358.461915 -253.189104 
L 358.624336 -255.63274 
L 358.791711 -258.076377 
L 358.964867 -260.520013 
L 359.144485 -262.96365 
L 359.33108 -265.407286 
L 359.524978 -267.850922 
L 359.726305 -270.294559 
L 359.934982 -272.738195 
L 360.15072 -275.181831 
L 360.373036 -277.625468 
L 360.601256 -280.069104 
L 360.834542 -282.51274 
L 361.071908 -284.956377 
L 361.312246 -287.400013 
L 361.554358 -289.84365 
L 361.796982 -292.287286 
L 362.03882 -294.730922 
L 362.278574 -297.174559 
L 362.514966 -299.618195 
L 362.746769 -302.061831 
L 362.972829 -304.505468 
L 363.192084 -306.949104 
L 363.403582 -309.39274 
L 363.606492 -311.836377 
L 363.800116 -314.280013 
L 363.983889 -316.72365 
L 364.157386 -319.167286 
L 364.320319 -321.610922 
L 364.472528 -324.054559 
L 364.613983 -326.498195 
L 364.744764 -328.941831 
L 364.865058 -331.385468 
L 364.975145 -333.829104 
L 365.075381 -336.27274 
L 366.540869 -336.27274 
L 366.540869 -336.27274 
L 366.641105 -333.829104 
L 366.751192 -331.385468 
L 366.871486 -328.941831 
L 367.002267 -326.498195 
L 367.143722 -324.054559 
L 367.295931 -321.610922 
L 367.458864 -319.167286 
L 367.632361 -316.72365 
L 367.816134 -314.280013 
L 368.009758 -311.836377 
L 368.212668 -309.39274 
L 368.424166 -306.949104 
L 368.643421 -304.505468 
L 368.869481 -302.061831 
L 369.101284 -299.618195 
L 369.337676 -297.174559 
L 369.57743 -294.730922 
L 369.819268 -292.287286 
L 370.061892 -289.84365 
L 370.304004 -287.400013 
L 370.544342 -284.956377 
L 370.781708 -282.51274 
L 371.014994 -280.069104 
L 371.243214 -277.625468 
L 371.46553 -275.181831 
L 371.681268 -272.738195 
L 371.889945 -270.294559 
L 372.091272 -267.850922 
L 372.28517 -265.407286 
L 372.471765 -262.96365 
L 372.651383 -260.520013 
L 372.824539 -258.076377 
L 372.991914 -255.63274 
L 373.154335 -253.189104 
L 373.312737 -250.745468 
L 373.46813 -248.301831 
L 373.62156 -245.858195 
L 373.774063 -243.414559 
L 373.926619 -240.970922 
L 374.080114 -238.527286 
L 374.235289 -236.08365 
L 374.392704 -233.640013 
L 374.552702 -231.196377 
L 374.715376 -228.75274 
L 374.880547 -226.309104 
L 375.047746 -223.865468 
L 375.216208 -221.421831 
L 375.384873 -218.978195 
L 375.55239 -216.534559 
L 375.717143 -214.090922 
L 375.877275 -211.647286 
L 376.030721 -209.20365 
L 376.17525 -206.760013 
L 376.308516 -204.316377 
L 376.428105 -201.87274 
L 376.531593 -199.429104 
L 376.6166 -196.985468 
L 376.680851 -194.541831 
L 376.722223 -192.098195 
L 376.738806 -189.654559 
L 376.72894 -187.210922 
L 376.691266 -184.767286 
L 376.624754 -182.32365 
L 376.528732 -179.880013 
L 376.402906 -177.436377 
L 376.247366 -174.99274 
L 376.062595 -172.549104 
L 375.849452 -170.105468 
L 375.609164 -167.661831 
L 375.343299 -165.218195 
L 375.053737 -162.774559 
L 374.742635 -160.330922 
L 374.412385 -157.887286 
L 374.065567 -155.44365 
L 373.704909 -153.000013 
L 373.33323 -150.556377 
L 372.953397 -148.11274 
L 372.568278 -145.669104 
L 372.180694 -143.225468 
L 371.793376 -140.781831 
L 371.408932 -138.338195 
L 371.029808 -135.894559 
L 370.658261 -133.450922 
L 370.296338 -131.007286 
L 369.945855 -128.56365 
L 369.608386 -126.120013 
L 369.285257 -123.676377 
L 368.977543 -121.23274 
L 368.686075 -118.789104 
L 368.411441 -116.345468 
L 368.154005 -113.901831 
L 367.913914 -111.458195 
L 367.691122 -109.014559 
L 367.485406 -106.570922 
L 367.296387 -104.127286 
L 367.123549 -101.68365 
L 366.966266 -99.240013 
L 366.823817 -96.796377 
L 366.695412 -94.35274 
z
" style="stroke: #3f3f3f; stroke-width: 1.5"/>
    </defs>
    <g clip-path="url(#p5a51aa5fa0)">
     <use xlink:href="#m823e4db006" x="0" y="370.686865" style="fill: #3274a1; stroke: #3f3f3f; stroke-width: 1.5"/>
    </g>
   </g>
   <g id="matplotlib.axis_1">
    <g id="xtick_1">
     <g id="line2d_1">
      <defs>
       <path id="m5e839bb197" d="M 0 0 
L 0 3.5 
" style="stroke: #000000; stroke-width: 0.8"/>
      </defs>
      <g>
       <use xlink:href="#m5e839bb197" x="97.968125" y="288.430125" style="stroke: #000000; stroke-width: 0.8"/>
      </g>
     </g>
     <g id="text_1">
      <!-- aflplusplus_ast_o1 -->
      <g transform="translate(17.537069 347.766815)rotate(-30)scale(0.1 -0.1)">
       <defs>
        <path id="DejaVuSans-61" d="M 2194 1759 
Q 1497 1759 1228 1600 
Q 959 1441 959 1056 
Q 959 750 1161 570 
Q 1363 391 1709 391 
Q 2188 391 2477 730 
Q 2766 1069 2766 1631 
L 2766 1759 
L 2194 1759 
z
M 3341 1997 
L 3341 0 
L 2766 0 
L 2766 531 
Q 2569 213 2275 61 
Q 1981 -91 1556 -91 
Q 1019 -91 701 211 
Q 384 513 384 1019 
Q 384 1609 779 1909 
Q 1175 2209 1959 2209 
L 2766 2209 
L 2766 2266 
Q 2766 2663 2505 2880 
Q 2244 3097 1772 3097 
Q 1472 3097 1187 3025 
Q 903 2953 641 2809 
L 641 3341 
Q 956 3463 1253 3523 
Q 1550 3584 1831 3584 
Q 2591 3584 2966 3190 
Q 3341 2797 3341 1997 
z
" transform="scale(0.015625)"/>
        <path id="DejaVuSans-66" d="M 2375 4863 
L 2375 4384 
L 1825 4384 
Q 1516 4384 1395 4259 
Q 1275 4134 1275 3809 
L 1275 3500 
L 2222 3500 
L 2222 3053 
L 1275 3053 
L 1275 0 
L 697 0 
L 697 3053 
L 147 3053 
L 147 3500 
L 697 3500 
L 697 3744 
Q 697 4328 969 4595 
Q 1241 4863 1831 4863 
L 2375 4863 
z
" transform="scale(0.015625)"/>
        <path id="DejaVuSans-6c" d="M 603 4863 
L 1178 4863 
L 1178 0 
L 603 0 
L 603 4863 
z
" transform="scale(0.015625)"/>
        <path id="DejaVuSans-70" d="M 1159 525 
L 1159 -1331 
L 581 -1331 
L 581 3500 
L 1159 3500 
L 1159 2969 
Q 1341 3281 1617 3432 
Q 1894 3584 2278 3584 
Q 2916 3584 3314 3078 
Q 3713 2572 3713 1747 
Q 3713 922 3314 415 
Q 2916 -91 2278 -91 
Q 1894 -91 1617 61 
Q 1341 213 1159 525 
z
M 3116 1747 
Q 3116 2381 2855 2742 
Q 2594 3103 2138 3103 
Q 1681 3103 1420 2742 
Q 1159 2381 1159 1747 
Q 1159 1113 1420 752 
Q 1681 391 2138 391 
Q 2594 391 2855 752 
Q 3116 1113 3116 1747 
z
" transform="scale(0.015625)"/>
        <path id="DejaVuSans-75" d="M 544 1381 
L 544 3500 
L 1119 3500 
L 1119 1403 
Q 1119 906 1312 657 
Q 1506 409 1894 409 
Q 2359 409 2629 706 
Q 2900 1003 2900 1516 
L 2900 3500 
L 3475 3500 
L 3475 0 
L 2900 0 
L 2900 538 
Q 2691 219 2414 64 
Q 2138 -91 1772 -91 
Q 1169 -91 856 284 
Q 544 659 544 1381 
z
M 1991 3584 
L 1991 3584 
z
" transform="scale(0.015625)"/>
        <path id="DejaVuSans-73" d="M 2834 3397 
L 2834 2853 
Q 2591 2978 2328 3040 
Q 2066 3103 1784 3103 
Q 1356 3103 1142 2972 
Q 928 2841 928 2578 
Q 928 2378 1081 2264 
Q 1234 2150 1697 2047 
L 1894 2003 
Q 2506 1872 2764 1633 
Q 3022 1394 3022 966 
Q 3022 478 2636 193 
Q 2250 -91 1575 -91 
Q 1294 -91 989 -36 
Q 684 19 347 128 
L 347 722 
Q 666 556 975 473 
Q 1284 391 1588 391 
Q 1994 391 2212 530 
Q 2431 669 2431 922 
Q 2431 1156 2273 1281 
Q 2116 1406 1581 1522 
L 1381 1569 
Q 847 1681 609 1914 
Q 372 2147 372 2553 
Q 372 3047 722 3315 
Q 1072 3584 1716 3584 
Q 2034 3584 2315 3537 
Q 2597 3491 2834 3397 
z
" transform="scale(0.015625)"/>
        <path id="DejaVuSans-5f" d="M 3263 -1063 
L 3263 -1509 
L -63 -1509 
L -63 -1063 
L 3263 -1063 
z
" transform="scale(0.015625)"/>
        <path id="DejaVuSans-74" d="M 1172 4494 
L 1172 3500 
L 2356 3500 
L 2356 3053 
L 1172 3053 
L 1172 1153 
Q 1172 725 1289 603 
Q 1406 481 1766 481 
L 2356 481 
L 2356 0 
L 1766 0 
Q 1100 0 847 248 
Q 594 497 594 1153 
L 594 3053 
L 172 3053 
L 172 3500 
L 594 3500 
L 594 4494 
L 1172 4494 
z
" transform="scale(0.015625)"/>
        <path id="DejaVuSans-6f" d="M 1959 3097 
Q 1497 3097 1228 2736 
Q 959 2375 959 1747 
Q 959 1119 1226 758 
Q 1494 397 1959 397 
Q 2419 397 2687 759 
Q 2956 1122 2956 1747 
Q 2956 2369 2687 2733 
Q 2419 3097 1959 3097 
z
M 1959 3584 
Q 2709 3584 3137 3096 
Q 3566 2609 3566 1747 
Q 3566 888 3137 398 
Q 2709 -91 1959 -91 
Q 1206 -91 779 398 
Q 353 888 353 1747 
Q 353 2609 779 3096 
Q 1206 3584 1959 3584 
z
" transform="scale(0.015625)"/>
        <path id="DejaVuSans-31" d="M 794 531 
L 1825 531 
L 1825 4091 
L 703 3866 
L 703 4441 
L 1819 4666 
L 2450 4666 
L 2450 531 
L 3481 531 
L 3481 0 
L 794 0 
L 794 531 
z
" transform="scale(0.015625)"/>
       </defs>
       <use xlink:href="#DejaVuSans-61"/>
       <use xlink:href="#DejaVuSans-66" x="61.279297"/>
       <use xlink:href="#DejaVuSans-6c" x="96.484375"/>
       <use xlink:href="#DejaVuSans-70" x="124.267578"/>
       <use xlink:href="#DejaVuSans-6c" x="187.744141"/>
       <use xlink:href="#DejaVuSans-75" x="215.527344"/>
       <use xlink:href="#DejaVuSans-73" x="278.90625"/>
       <use xlink:href="#DejaVuSans-70" x="331.005859"/>
       <use xlink:href="#DejaVuSans-6c" x="394.482422"/>
       <use xlink:href="#DejaVuSans-75" x="422.265625"/>
       <use xlink:href="#DejaVuSans-73" x="485.644531"/>
       <use xlink:href="#DejaVuSans-5f" x="537.744141"/>
       <use xlink:href="#DejaVuSans-61" x="587.744141"/>
       <use xlink:href="#DejaVuSans-73" x="649.023438"/>
       <use xlink:href="#DejaVuSans-74" x="701.123047"/>
       <use xlink:href="#DejaVuSans-5f" x="740.332031"/>
       <use xlink:href="#DejaVuSans-6f" x="790.332031"/>
       <use xlink:href="#DejaVuSans-31" x="851.513672"/>
      </g>
     </g>
    </g>
    <g id="xtick_2">
     <g id="line2d_2">
      <g>
       <use xlink:href="#m5e839bb197" x="187.248125" y="288.430125" style="stroke: #000000; stroke-width: 0.8"/>
      </g>
     </g>
     <g id="text_2">
      <!-- aflplusplus_ast_o2 -->
      <g transform="translate(106.817069 347.766815)rotate(-30)scale(0.1 -0.1)">
       <defs>
        <path id="DejaVuSans-32" d="M 1228 531 
L 3431 531 
L 3431 0 
L 469 0 
L 469 531 
Q 828 903 1448 1529 
Q 2069 2156 2228 2338 
Q 2531 2678 2651 2914 
Q 2772 3150 2772 3378 
Q 2772 3750 2511 3984 
Q 2250 4219 1831 4219 
Q 1534 4219 1204 4116 
Q 875 4013 500 3803 
L 500 4441 
Q 881 4594 1212 4672 
Q 1544 4750 1819 4750 
Q 2544 4750 2975 4387 
Q 3406 4025 3406 3419 
Q 3406 3131 3298 2873 
Q 3191 2616 2906 2266 
Q 2828 2175 2409 1742 
Q 1991 1309 1228 531 
z
" transform="scale(0.015625)"/>
       </defs>
       <use xlink:href="#DejaVuSans-61"/>
       <use xlink:href="#DejaVuSans-66" x="61.279297"/>
       <use xlink:href="#DejaVuSans-6c" x="96.484375"/>
       <use xlink:href="#DejaVuSans-70" x="124.267578"/>
       <use xlink:href="#DejaVuSans-6c" x="187.744141"/>
       <use xlink:href="#DejaVuSans-75" x="215.527344"/>
       <use xlink:href="#DejaVuSans-73" x="278.90625"/>
       <use xlink:href="#DejaVuSans-70" x="331.005859"/>
       <use xlink:href="#DejaVuSans-6c" x="394.482422"/>
       <use xlink:href="#DejaVuSans-75" x="422.265625"/>
       <use xlink:href="#DejaVuSans-73" x="485.644531"/>
       <use xlink:href="#DejaVuSans-5f" x="537.744141"/>
       <use xlink:href="#DejaVuSans-61" x="587.744141"/>
       <use xlink:href="#DejaVuSans-73" x="649.023438"/>
       <use xlink:href="#DejaVuSans-74" x="701.123047"/>
       <use xlink:href="#DejaVuSans-5f" x="740.332031"/>
       <use xlink:href="#DejaVuSans-6f" x="790.332031"/>
       <use xlink:href="#DejaVuSans-32" x="851.513672"/>
      </g>
     </g>
    </g>
    <g id="xtick_3">
     <g id="line2d_3">
      <g>
       <use xlink:href="#m5e839bb197" x="276.528125" y="288.430125" style="stroke: #000000; stroke-width: 0.8"/>
      </g>
     </g>
     <g id="text_3">
      <!-- aflplusplus_ast_o3 -->
      <g transform="translate(196.097069 347.766815)rotate(-30)scale(0.1 -0.1)">
       <defs>
        <path id="DejaVuSans-33" d="M 2597 2516 
Q 3050 2419 3304 2112 
Q 3559 1806 3559 1356 
Q 3559 666 3084 287 
Q 2609 -91 1734 -91 
Q 1441 -91 1130 -33 
Q 819 25 488 141 
L 488 750 
Q 750 597 1062 519 
Q 1375 441 1716 441 
Q 2309 441 2620 675 
Q 2931 909 2931 1356 
Q 2931 1769 2642 2001 
Q 2353 2234 1838 2234 
L 1294 2234 
L 1294 2753 
L 1863 2753 
Q 2328 2753 2575 2939 
Q 2822 3125 2822 3475 
Q 2822 3834 2567 4026 
Q 2313 4219 1838 4219 
Q 1578 4219 1281 4162 
Q 984 4106 628 3988 
L 628 4550 
Q 988 4650 1302 4700 
Q 1616 4750 1894 4750 
Q 2613 4750 3031 4423 
Q 3450 4097 3450 3541 
Q 3450 3153 3228 2886 
Q 3006 2619 2597 2516 
z
" transform="scale(0.015625)"/>
       </defs>
       <use xlink:href="#DejaVuSans-61"/>
       <use xlink:href="#DejaVuSans-66" x="61.279297"/>
       <use xlink:href="#DejaVuSans-6c" x="96.484375"/>
       <use xlink:href="#DejaVuSans-70" x="124.267578"/>
       <use xlink:href="#DejaVuSans-6c" x="187.744141"/>
       <use xlink:href="#DejaVuSans-75" x="215.527344"/>
       <use xlink:href="#DejaVuSans-73" x="278.90625"/>
       <use xlink:href="#DejaVuSans-70" x="331.005859"/>
       <use xlink:href="#DejaVuSans-6c" x="394.482422"/>
       <use xlink:href="#DejaVuSans-75" x="422.265625"/>
       <use xlink:href="#DejaVuSans-73" x="485.644531"/>
       <use xlink:href="#DejaVuSans-5f" x="537.744141"/>
       <use xlink:href="#DejaVuSans-61" x="587.744141"/>
       <use xlink:href="#DejaVuSans-73" x="649.023438"/>
       <use xlink:href="#DejaVuSans-74" x="701.123047"/>
       <use xlink:href="#DejaVuSans-5f" x="740.332031"/>
       <use xlink:href="#DejaVuSans-6f" x="790.332031"/>
       <use xlink:href="#DejaVuSans-33" x="851.513672"/>
      </g>
     </g>
    </g>
    <g id="xtick_4">
     <g id="line2d_4">
      <g>
       <use xlink:href="#m5e839bb197" x="365.808125" y="288.430125" style="stroke: #000000; stroke-width: 0.8"/>
      </g>
     </g>
     <g id="text_4">
      <!-- aflplusplus_ast_o0 -->
      <g transform="translate(285.377069 347.766815)rotate(-30)scale(0.1 -0.1)">
       <defs>
        <path id="DejaVuSans-30" d="M 2034 4250 
Q 1547 4250 1301 3770 
Q 1056 3291 1056 2328 
Q 1056 1369 1301 889 
Q 1547 409 2034 409 
Q 2525 409 2770 889 
Q 3016 1369 3016 2328 
Q 3016 3291 2770 3770 
Q 2525 4250 2034 4250 
z
M 2034 4750 
Q 2819 4750 3233 4129 
Q 3647 3509 3647 2328 
Q 3647 1150 3233 529 
Q 2819 -91 2034 -91 
Q 1250 -91 836 529 
Q 422 1150 422 2328 
Q 422 3509 836 4129 
Q 1250 4750 2034 4750 
z
" transform="scale(0.015625)"/>
       </defs>
       <use xlink:href="#DejaVuSans-61"/>
       <use xlink:href="#DejaVuSans-66" x="61.279297"/>
       <use xlink:href="#DejaVuSans-6c" x="96.484375"/>
       <use xlink:href="#DejaVuSans-70" x="124.267578"/>
       <use xlink:href="#DejaVuSans-6c" x="187.744141"/>
       <use xlink:href="#DejaVuSans-75" x="215.527344"/>
       <use xlink:href="#DejaVuSans-73" x="278.90625"/>
       <use xlink:href="#DejaVuSans-70" x="331.005859"/>
       <use xlink:href="#DejaVuSans-6c" x="394.482422"/>
       <use xlink:href="#DejaVuSans-75" x="422.265625"/>
       <use xlink:href="#DejaVuSans-73" x="485.644531"/>
       <use xlink:href="#DejaVuSans-5f" x="537.744141"/>
       <use xlink:href="#DejaVuSans-61" x="587.744141"/>
       <use xlink:href="#DejaVuSans-73" x="649.023438"/>
       <use xlink:href="#DejaVuSans-74" x="701.123047"/>
       <use xlink:href="#DejaVuSans-5f" x="740.332031"/>
       <use xlink:href="#DejaVuSans-6f" x="790.332031"/>
       <use xlink:href="#DejaVuSans-30" x="851.513672"/>
      </g>
     </g>
    </g>
    <g id="text_5">
     <!-- Fuzzer (highest median coverage on the left) -->
     <g transform="translate(119.270156 361.407178)scale(0.1 -0.1)">
      <defs>
       <path id="DejaVuSans-46" d="M 628 4666 
L 3309 4666 
L 3309 4134 
L 1259 4134 
L 1259 2759 
L 3109 2759 
L 3109 2228 
L 1259 2228 
L 1259 0 
L 628 0 
L 628 4666 
z
" transform="scale(0.015625)"/>
       <path id="DejaVuSans-7a" d="M 353 3500 
L 3084 3500 
L 3084 2975 
L 922 459 
L 3084 459 
L 3084 0 
L 275 0 
L 275 525 
L 2438 3041 
L 353 3041 
L 353 3500 
z
" transform="scale(0.015625)"/>
       <path id="DejaVuSans-65" d="M 3597 1894 
L 3597 1613 
L 953 1613 
Q 991 1019 1311 708 
Q 1631 397 2203 397 
Q 2534 397 2845 478 
Q 3156 559 3463 722 
L 3463 178 
Q 3153 47 2828 -22 
Q 2503 -91 2169 -91 
Q 1331 -91 842 396 
Q 353 884 353 1716 
Q 353 2575 817 3079 
Q 1281 3584 2069 3584 
Q 2775 3584 3186 3129 
Q 3597 2675 3597 1894 
z
M 3022 2063 
Q 3016 2534 2758 2815 
Q 2500 3097 2075 3097 
Q 1594 3097 1305 2825 
Q 1016 2553 972 2059 
L 3022 2063 
z
" transform="scale(0.015625)"/>
       <path id="DejaVuSans-72" d="M 2631 2963 
Q 2534 3019 2420 3045 
Q 2306 3072 2169 3072 
Q 1681 3072 1420 2755 
Q 1159 2438 1159 1844 
L 1159 0 
L 581 0 
L 581 3500 
L 1159 3500 
L 1159 2956 
Q 1341 3275 1631 3429 
Q 1922 3584 2338 3584 
Q 2397 3584 2469 3576 
Q 2541 3569 2628 3553 
L 2631 2963 
z
" transform="scale(0.015625)"/>
       <path id="DejaVuSans-20" transform="scale(0.015625)"/>
       <path id="DejaVuSans-28" d="M 1984 4856 
Q 1566 4138 1362 3434 
Q 1159 2731 1159 2009 
Q 1159 1288 1364 580 
Q 1569 -128 1984 -844 
L 1484 -844 
Q 1016 -109 783 600 
Q 550 1309 550 2009 
Q 550 2706 781 3412 
Q 1013 4119 1484 4856 
L 1984 4856 
z
" transform="scale(0.015625)"/>
       <path id="DejaVuSans-68" d="M 3513 2113 
L 3513 0 
L 2938 0 
L 2938 2094 
Q 2938 2591 2744 2837 
Q 2550 3084 2163 3084 
Q 1697 3084 1428 2787 
Q 1159 2491 1159 1978 
L 1159 0 
L 581 0 
L 581 4863 
L 1159 4863 
L 1159 2956 
Q 1366 3272 1645 3428 
Q 1925 3584 2291 3584 
Q 2894 3584 3203 3211 
Q 3513 2838 3513 2113 
z
" transform="scale(0.015625)"/>
       <path id="DejaVuSans-69" d="M 603 3500 
L 1178 3500 
L 1178 0 
L 603 0 
L 603 3500 
z
M 603 4863 
L 1178 4863 
L 1178 4134 
L 603 4134 
L 603 4863 
z
" transform="scale(0.015625)"/>
       <path id="DejaVuSans-67" d="M 2906 1791 
Q 2906 2416 2648 2759 
Q 2391 3103 1925 3103 
Q 1463 3103 1205 2759 
Q 947 2416 947 1791 
Q 947 1169 1205 825 
Q 1463 481 1925 481 
Q 2391 481 2648 825 
Q 2906 1169 2906 1791 
z
M 3481 434 
Q 3481 -459 3084 -895 
Q 2688 -1331 1869 -1331 
Q 1566 -1331 1297 -1286 
Q 1028 -1241 775 -1147 
L 775 -588 
Q 1028 -725 1275 -790 
Q 1522 -856 1778 -856 
Q 2344 -856 2625 -561 
Q 2906 -266 2906 331 
L 2906 616 
Q 2728 306 2450 153 
Q 2172 0 1784 0 
Q 1141 0 747 490 
Q 353 981 353 1791 
Q 353 2603 747 3093 
Q 1141 3584 1784 3584 
Q 2172 3584 2450 3431 
Q 2728 3278 2906 2969 
L 2906 3500 
L 3481 3500 
L 3481 434 
z
" transform="scale(0.015625)"/>
       <path id="DejaVuSans-6d" d="M 3328 2828 
Q 3544 3216 3844 3400 
Q 4144 3584 4550 3584 
Q 5097 3584 5394 3201 
Q 5691 2819 5691 2113 
L 5691 0 
L 5113 0 
L 5113 2094 
Q 5113 2597 4934 2840 
Q 4756 3084 4391 3084 
Q 3944 3084 3684 2787 
Q 3425 2491 3425 1978 
L 3425 0 
L 2847 0 
L 2847 2094 
Q 2847 2600 2669 2842 
Q 2491 3084 2119 3084 
Q 1678 3084 1418 2786 
Q 1159 2488 1159 1978 
L 1159 0 
L 581 0 
L 581 3500 
L 1159 3500 
L 1159 2956 
Q 1356 3278 1631 3431 
Q 1906 3584 2284 3584 
Q 2666 3584 2933 3390 
Q 3200 3197 3328 2828 
z
" transform="scale(0.015625)"/>
       <path id="DejaVuSans-64" d="M 2906 2969 
L 2906 4863 
L 3481 4863 
L 3481 0 
L 2906 0 
L 2906 525 
Q 2725 213 2448 61 
Q 2172 -91 1784 -91 
Q 1150 -91 751 415 
Q 353 922 353 1747 
Q 353 2572 751 3078 
Q 1150 3584 1784 3584 
Q 2172 3584 2448 3432 
Q 2725 3281 2906 2969 
z
M 947 1747 
Q 947 1113 1208 752 
Q 1469 391 1925 391 
Q 2381 391 2643 752 
Q 2906 1113 2906 1747 
Q 2906 2381 2643 2742 
Q 2381 3103 1925 3103 
Q 1469 3103 1208 2742 
Q 947 2381 947 1747 
z
" transform="scale(0.015625)"/>
       <path id="DejaVuSans-6e" d="M 3513 2113 
L 3513 0 
L 2938 0 
L 2938 2094 
Q 2938 2591 2744 2837 
Q 2550 3084 2163 3084 
Q 1697 3084 1428 2787 
Q 1159 2491 1159 1978 
L 1159 0 
L 581 0 
L 581 3500 
L 1159 3500 
L 1159 2956 
Q 1366 3272 1645 3428 
Q 1925 3584 2291 3584 
Q 2894 3584 3203 3211 
Q 3513 2838 3513 2113 
z
" transform="scale(0.015625)"/>
       <path id="DejaVuSans-63" d="M 3122 3366 
L 3122 2828 
Q 2878 2963 2633 3030 
Q 2388 3097 2138 3097 
Q 1578 3097 1268 2742 
Q 959 2388 959 1747 
Q 959 1106 1268 751 
Q 1578 397 2138 397 
Q 2388 397 2633 464 
Q 2878 531 3122 666 
L 3122 134 
Q 2881 22 2623 -34 
Q 2366 -91 2075 -91 
Q 1284 -91 818 406 
Q 353 903 353 1747 
Q 353 2603 823 3093 
Q 1294 3584 2113 3584 
Q 2378 3584 2631 3529 
Q 2884 3475 3122 3366 
z
" transform="scale(0.015625)"/>
       <path id="DejaVuSans-76" d="M 191 3500 
L 800 3500 
L 1894 563 
L 2988 3500 
L 3597 3500 
L 2284 0 
L 1503 0 
L 191 3500 
z
" transform="scale(0.015625)"/>
       <path id="DejaVuSans-29" d="M 513 4856 
L 1013 4856 
Q 1481 4119 1714 3412 
Q 1947 2706 1947 2009 
Q 1947 1309 1714 600 
Q 1481 -109 1013 -844 
L 513 -844 
Q 928 -128 1133 580 
Q 1338 1288 1338 2009 
Q 1338 2731 1133 3434 
Q 928 4138 513 4856 
z
" transform="scale(0.015625)"/>
      </defs>
      <use xlink:href="#DejaVuSans-46"/>
      <use xlink:href="#DejaVuSans-75" x="52.019531"/>
      <use xlink:href="#DejaVuSans-7a" x="115.398438"/>
      <use xlink:href="#DejaVuSans-7a" x="167.888672"/>
      <use xlink:href="#DejaVuSans-65" x="220.378906"/>
      <use xlink:href="#DejaVuSans-72" x="281.902344"/>
      <use xlink:href="#DejaVuSans-20" x="323.015625"/>
      <use xlink:href="#DejaVuSans-28" x="354.802734"/>
      <use xlink:href="#DejaVuSans-68" x="393.816406"/>
      <use xlink:href="#DejaVuSans-69" x="457.195312"/>
      <use xlink:href="#DejaVuSans-67" x="484.978516"/>
      <use xlink:href="#DejaVuSans-68" x="548.455078"/>
      <use xlink:href="#DejaVuSans-65" x="611.833984"/>
      <use xlink:href="#DejaVuSans-73" x="673.357422"/>
      <use xlink:href="#DejaVuSans-74" x="725.457031"/>
      <use xlink:href="#DejaVuSans-20" x="764.666016"/>
      <use xlink:href="#DejaVuSans-6d" x="796.453125"/>
      <use xlink:href="#DejaVuSans-65" x="893.865234"/>
      <use xlink:href="#DejaVuSans-64" x="955.388672"/>
      <use xlink:href="#DejaVuSans-69" x="1018.865234"/>
      <use xlink:href="#DejaVuSans-61" x="1046.648438"/>
      <use xlink:href="#DejaVuSans-6e" x="1107.927734"/>
      <use xlink:href="#DejaVuSans-20" x="1171.306641"/>
      <use xlink:href="#DejaVuSans-63" x="1203.09375"/>
      <use xlink:href="#DejaVuSans-6f" x="1258.074219"/>
      <use xlink:href="#DejaVuSans-76" x="1319.255859"/>
      <use xlink:href="#DejaVuSans-65" x="1378.435547"/>
      <use xlink:href="#DejaVuSans-72" x="1439.958984"/>
      <use xlink:href="#DejaVuSans-61" x="1481.072266"/>
      <use xlink:href="#DejaVuSans-67" x="1542.351562"/>
      <use xlink:href="#DejaVuSans-65" x="1605.828125"/>
      <use xlink:href="#DejaVuSans-20" x="1667.351562"/>
      <use xlink:href="#DejaVuSans-6f" x="1699.138672"/>
      <use xlink:href="#DejaVuSans-6e" x="1760.320312"/>
      <use xlink:href="#DejaVuSans-20" x="1823.699219"/>
      <use xlink:href="#DejaVuSans-74" x="1855.486328"/>
      <use xlink:href="#DejaVuSans-68" x="1894.695312"/>
      <use xlink:href="#DejaVuSans-65" x="1958.074219"/>
      <use xlink:href="#DejaVuSans-20" x="2019.597656"/>
      <use xlink:href="#DejaVuSans-6c" x="2051.384766"/>
      <use xlink:href="#DejaVuSans-65" x="2079.167969"/>
      <use xlink:href="#DejaVuSans-66" x="2140.691406"/>
      <use xlink:href="#DejaVuSans-74" x="2174.146484"/>
      <use xlink:href="#DejaVuSans-29" x="2213.355469"/>
     </g>
    </g>
   </g>
   <g id="matplotlib.axis_2">
    <g id="ytick_1">
     <g id="line2d_5">
      <defs>
       <path id="m335edbbc56" d="M 0 0 
L -3.5 0 
" style="stroke: #000000; stroke-width: 0.8"/>
      </defs>
      <g>
       <use xlink:href="#m335edbbc56" x="53.328125" y="274.813057" style="stroke: #000000; stroke-width: 0.8"/>
      </g>
     </g>
     <g id="text_6">
      <!-- 1800 -->
      <g transform="translate(20.878125 278.612276)scale(0.1 -0.1)">
       <defs>
        <path id="DejaVuSans-38" d="M 2034 2216 
Q 1584 2216 1326 1975 
Q 1069 1734 1069 1313 
Q 1069 891 1326 650 
Q 1584 409 2034 409 
Q 2484 409 2743 651 
Q 3003 894 3003 1313 
Q 3003 1734 2745 1975 
Q 2488 2216 2034 2216 
z
M 1403 2484 
Q 997 2584 770 2862 
Q 544 3141 544 3541 
Q 544 4100 942 4425 
Q 1341 4750 2034 4750 
Q 2731 4750 3128 4425 
Q 3525 4100 3525 3541 
Q 3525 3141 3298 2862 
Q 3072 2584 2669 2484 
Q 3125 2378 3379 2068 
Q 3634 1759 3634 1313 
Q 3634 634 3220 271 
Q 2806 -91 2034 -91 
Q 1263 -91 848 271 
Q 434 634 434 1313 
Q 434 1759 690 2068 
Q 947 2378 1403 2484 
z
M 1172 3481 
Q 1172 3119 1398 2916 
Q 1625 2713 2034 2713 
Q 2441 2713 2670 2916 
Q 2900 3119 2900 3481 
Q 2900 3844 2670 4047 
Q 2441 4250 2034 4250 
Q 1625 4250 1398 4047 
Q 1172 3844 1172 3481 
z
" transform="scale(0.015625)"/>
       </defs>
       <use xlink:href="#DejaVuSans-31"/>
       <use xlink:href="#DejaVuSans-38" x="63.623047"/>
       <use xlink:href="#DejaVuSans-30" x="127.246094"/>
       <use xlink:href="#DejaVuSans-30" x="190.869141"/>
      </g>
     </g>
    </g>
    <g id="ytick_2">
     <g id="line2d_6">
      <g>
       <use xlink:href="#m335edbbc56" x="53.328125" y="243.990107" style="stroke: #000000; stroke-width: 0.8"/>
      </g>
     </g>
     <g id="text_7">
      <!-- 1820 -->
      <g transform="translate(20.878125 247.789326)scale(0.1 -0.1)">
       <use xlink:href="#DejaVuSans-31"/>
       <use xlink:href="#DejaVuSans-38" x="63.623047"/>
       <use xlink:href="#DejaVuSans-32" x="127.246094"/>
       <use xlink:href="#DejaVuSans-30" x="190.869141"/>
      </g>
     </g>
    </g>
    <g id="ytick_3">
     <g id="line2d_7">
      <g>
       <use xlink:href="#m335edbbc56" x="53.328125" y="213.167157" style="stroke: #000000; stroke-width: 0.8"/>
      </g>
     </g>
     <g id="text_8">
      <!-- 1840 -->
      <g transform="translate(20.878125 216.966376)scale(0.1 -0.1)">
       <defs>
        <path id="DejaVuSans-34" d="M 2419 4116 
L 825 1625 
L 2419 1625 
L 2419 4116 
z
M 2253 4666 
L 3047 4666 
L 3047 1625 
L 3713 1625 
L 3713 1100 
L 3047 1100 
L 3047 0 
L 2419 0 
L 2419 1100 
L 313 1100 
L 313 1709 
L 2253 4666 
z
" transform="scale(0.015625)"/>
       </defs>
       <use xlink:href="#DejaVuSans-31"/>
       <use xlink:href="#DejaVuSans-38" x="63.623047"/>
       <use xlink:href="#DejaVuSans-34" x="127.246094"/>
       <use xlink:href="#DejaVuSans-30" x="190.869141"/>
      </g>
     </g>
    </g>
    <g id="ytick_4">
     <g id="line2d_8">
      <g>
       <use xlink:href="#m335edbbc56" x="53.328125" y="182.344206" style="stroke: #000000; stroke-width: 0.8"/>
      </g>
     </g>
     <g id="text_9">
      <!-- 1860 -->
      <g transform="translate(20.878125 186.143425)scale(0.1 -0.1)">
       <defs>
        <path id="DejaVuSans-36" d="M 2113 2584 
Q 1688 2584 1439 2293 
Q 1191 2003 1191 1497 
Q 1191 994 1439 701 
Q 1688 409 2113 409 
Q 2538 409 2786 701 
Q 3034 994 3034 1497 
Q 3034 2003 2786 2293 
Q 2538 2584 2113 2584 
z
M 3366 4563 
L 3366 3988 
Q 3128 4100 2886 4159 
Q 2644 4219 2406 4219 
Q 1781 4219 1451 3797 
Q 1122 3375 1075 2522 
Q 1259 2794 1537 2939 
Q 1816 3084 2150 3084 
Q 2853 3084 3261 2657 
Q 3669 2231 3669 1497 
Q 3669 778 3244 343 
Q 2819 -91 2113 -91 
Q 1303 -91 875 529 
Q 447 1150 447 2328 
Q 447 3434 972 4092 
Q 1497 4750 2381 4750 
Q 2619 4750 2861 4703 
Q 3103 4656 3366 4563 
z
" transform="scale(0.015625)"/>
       </defs>
       <use xlink:href="#DejaVuSans-31"/>
       <use xlink:href="#DejaVuSans-38" x="63.623047"/>
       <use xlink:href="#DejaVuSans-36" x="127.246094"/>
       <use xlink:href="#DejaVuSans-30" x="190.869141"/>
      </g>
     </g>
    </g>
    <g id="ytick_5">
     <g id="line2d_9">
      <g>
       <use xlink:href="#m335edbbc56" x="53.328125" y="151.521256" style="stroke: #000000; stroke-width: 0.8"/>
      </g>
     </g>
     <g id="text_10">
      <!-- 1880 -->
      <g transform="translate(20.878125 155.320475)scale(0.1 -0.1)">
       <use xlink:href="#DejaVuSans-31"/>
       <use xlink:href="#DejaVuSans-38" x="63.623047"/>
       <use xlink:href="#DejaVuSans-38" x="127.246094"/>
       <use xlink:href="#DejaVuSans-30" x="190.869141"/>
      </g>
     </g>
    </g>
    <g id="ytick_6">
     <g id="line2d_10">
      <g>
       <use xlink:href="#m335edbbc56" x="53.328125" y="120.698306" style="stroke: #000000; stroke-width: 0.8"/>
      </g>
     </g>
     <g id="text_11">
      <!-- 1900 -->
      <g transform="translate(20.878125 124.497525)scale(0.1 -0.1)">
       <defs>
        <path id="DejaVuSans-39" d="M 703 97 
L 703 672 
Q 941 559 1184 500 
Q 1428 441 1663 441 
Q 2288 441 2617 861 
Q 2947 1281 2994 2138 
Q 2813 1869 2534 1725 
Q 2256 1581 1919 1581 
Q 1219 1581 811 2004 
Q 403 2428 403 3163 
Q 403 3881 828 4315 
Q 1253 4750 1959 4750 
Q 2769 4750 3195 4129 
Q 3622 3509 3622 2328 
Q 3622 1225 3098 567 
Q 2575 -91 1691 -91 
Q 1453 -91 1209 -44 
Q 966 3 703 97 
z
M 1959 2075 
Q 2384 2075 2632 2365 
Q 2881 2656 2881 3163 
Q 2881 3666 2632 3958 
Q 2384 4250 1959 4250 
Q 1534 4250 1286 3958 
Q 1038 3666 1038 3163 
Q 1038 2656 1286 2365 
Q 1534 2075 1959 2075 
z
" transform="scale(0.015625)"/>
       </defs>
       <use xlink:href="#DejaVuSans-31"/>
       <use xlink:href="#DejaVuSans-39" x="63.623047"/>
       <use xlink:href="#DejaVuSans-30" x="127.246094"/>
       <use xlink:href="#DejaVuSans-30" x="190.869141"/>
      </g>
     </g>
    </g>
    <g id="ytick_7">
     <g id="line2d_11">
      <g>
       <use xlink:href="#m335edbbc56" x="53.328125" y="89.875356" style="stroke: #000000; stroke-width: 0.8"/>
      </g>
     </g>
     <g id="text_12">
      <!-- 1920 -->
      <g transform="translate(20.878125 93.674574)scale(0.1 -0.1)">
       <use xlink:href="#DejaVuSans-31"/>
       <use xlink:href="#DejaVuSans-39" x="63.623047"/>
       <use xlink:href="#DejaVuSans-32" x="127.246094"/>
       <use xlink:href="#DejaVuSans-30" x="190.869141"/>
      </g>
     </g>
    </g>
    <g id="ytick_8">
     <g id="line2d_12">
      <g>
       <use xlink:href="#m335edbbc56" x="53.328125" y="59.052405" style="stroke: #000000; stroke-width: 0.8"/>
      </g>
     </g>
     <g id="text_13">
      <!-- 1940 -->
      <g transform="translate(20.878125 62.851624)scale(0.1 -0.1)">
       <use xlink:href="#DejaVuSans-31"/>
       <use xlink:href="#DejaVuSans-39" x="63.623047"/>
       <use xlink:href="#DejaVuSans-34" x="127.246094"/>
       <use xlink:href="#DejaVuSans-30" x="190.869141"/>
      </g>
     </g>
    </g>
    <g id="ytick_9">
     <g id="line2d_13">
      <g>
       <use xlink:href="#m335edbbc56" x="53.328125" y="28.229455" style="stroke: #000000; stroke-width: 0.8"/>
      </g>
     </g>
     <g id="text_14">
      <!-- 1960 -->
      <g transform="translate(20.878125 32.028674)scale(0.1 -0.1)">
       <use xlink:href="#DejaVuSans-31"/>
       <use xlink:href="#DejaVuSans-39" x="63.623047"/>
       <use xlink:href="#DejaVuSans-36" x="127.246094"/>
       <use xlink:href="#DejaVuSans-30" x="190.869141"/>
      </g>
     </g>
    </g>
    <g id="text_15">
     <!-- Reached region coverage -->
     <g transform="translate(14.798438 219.136625)rotate(-90)scale(0.1 -0.1)">
      <defs>
       <path id="DejaVuSans-52" d="M 2841 2188 
Q 3044 2119 3236 1894 
Q 3428 1669 3622 1275 
L 4263 0 
L 3584 0 
L 2988 1197 
Q 2756 1666 2539 1819 
Q 2322 1972 1947 1972 
L 1259 1972 
L 1259 0 
L 628 0 
L 628 4666 
L 2053 4666 
Q 2853 4666 3247 4331 
Q 3641 3997 3641 3322 
Q 3641 2881 3436 2590 
Q 3231 2300 2841 2188 
z
M 1259 4147 
L 1259 2491 
L 2053 2491 
Q 2509 2491 2742 2702 
Q 2975 2913 2975 3322 
Q 2975 3731 2742 3939 
Q 2509 4147 2053 4147 
L 1259 4147 
z
" transform="scale(0.015625)"/>
      </defs>
      <use xlink:href="#DejaVuSans-52"/>
      <use xlink:href="#DejaVuSans-65" x="64.982422"/>
      <use xlink:href="#DejaVuSans-61" x="126.505859"/>
      <use xlink:href="#DejaVuSans-63" x="187.785156"/>
      <use xlink:href="#DejaVuSans-68" x="242.765625"/>
      <use xlink:href="#DejaVuSans-65" x="306.144531"/>
      <use xlink:href="#DejaVuSans-64" x="367.667969"/>
      <use xlink:href="#DejaVuSans-20" x="431.144531"/>
      <use xlink:href="#DejaVuSans-72" x="462.931641"/>
      <use xlink:href="#DejaVuSans-65" x="501.794922"/>
      <use xlink:href="#DejaVuSans-67" x="563.318359"/>
      <use xlink:href="#DejaVuSans-69" x="626.794922"/>
      <use xlink:href="#DejaVuSans-6f" x="654.578125"/>
      <use xlink:href="#DejaVuSans-6e" x="715.759766"/>
      <use xlink:href="#DejaVuSans-20" x="779.138672"/>
      <use xlink:href="#DejaVuSans-63" x="810.925781"/>
      <use xlink:href="#DejaVuSans-6f" x="865.90625"/>
      <use xlink:href="#DejaVuSans-76" x="927.087891"/>
      <use xlink:href="#DejaVuSans-65" x="986.267578"/>
      <use xlink:href="#DejaVuSans-72" x="1047.791016"/>
      <use xlink:href="#DejaVuSans-61" x="1088.904297"/>
      <use xlink:href="#DejaVuSans-67" x="1150.183594"/>
      <use xlink:href="#DejaVuSans-65" x="1213.660156"/>
     </g>
    </g>
   </g>
   <g id="line2d_14">
    <path d="M 97.968125 173.097321 
L 97.968125 137.650929 
" clip-path="url(#p5a51aa5fa0)" style="fill: none; stroke: #3f3f3f; stroke-width: 1.5; stroke-linecap: square"/>
   </g>
   <g id="line2d_15">
    <path d="M 97.968125 156.915273 
L 97.968125 139.192076 
" clip-path="url(#p5a51aa5fa0)" style="fill: none; stroke: #3f3f3f; stroke-width: 4.5; stroke-linecap: square"/>
   </g>
   <g id="line2d_16">
    <path d="M 187.248125 163.850436 
L 187.248125 116.074863 
" clip-path="url(#p5a51aa5fa0)" style="fill: none; stroke: #3f3f3f; stroke-width: 1.5; stroke-linecap: square"/>
   </g>
   <g id="line2d_17">
    <path d="M 187.248125 156.144699 
L 187.248125 132.256912 
" clip-path="url(#p5a51aa5fa0)" style="fill: none; stroke: #3f3f3f; stroke-width: 4.5; stroke-linecap: square"/>
   </g>
   <g id="line2d_18">
    <path d="M 276.528125 174.638469 
L 276.528125 146.897814 
" clip-path="url(#p5a51aa5fa0)" style="fill: none; stroke: #3f3f3f; stroke-width: 1.5; stroke-linecap: square"/>
   </g>
   <g id="line2d_19">
    <path d="M 276.528125 165.391584 
L 276.528125 151.521256 
" clip-path="url(#p5a51aa5fa0)" style="fill: none; stroke: #3f3f3f; stroke-width: 4.5; stroke-linecap: square"/>
   </g>
   <g id="line2d_20">
    <path d="M 365.808125 200.837977 
L 365.808125 109.910273 
" clip-path="url(#p5a51aa5fa0)" style="fill: none; stroke: #3f3f3f; stroke-width: 1.5; stroke-linecap: square"/>
   </g>
   <g id="line2d_21">
    <path d="M 365.808125 188.508797 
L 365.808125 143.044945 
" clip-path="url(#p5a51aa5fa0)" style="fill: none; stroke: #3f3f3f; stroke-width: 4.5; stroke-linecap: square"/>
   </g>
   <g id="patch_3">
    <path d="M 53.328125 274.813057 
L 53.328125 28.229455 
" style="fill: none; stroke: #000000; stroke-width: 0.8; stroke-linejoin: miter; stroke-linecap: square"/>
   </g>
   <g id="patch_4">
    <path d="M 97.968125 288.430125 
L 365.808125 288.430125 
" style="fill: none; stroke: #000000; stroke-width: 0.8; stroke-linejoin: miter; stroke-linecap: square"/>
   </g>
   <g id="PathCollection_1">
    <defs>
     <path id="me08ff6c33a" d="M 0 1.5 
C 0.397805 1.5 0.77937 1.341951 1.06066 1.06066 
C 1.341951 0.77937 1.5 0.397805 1.5 0 
C 1.5 -0.397805 1.341951 -0.77937 1.06066 -1.06066 
C 0.77937 -1.341951 0.397805 -1.5 0 -1.5 
C -0.397805 -1.5 -0.77937 -1.341951 -1.06066 -1.06066 
C -1.341951 -0.77937 -1.5 -0.397805 -1.5 0 
C -1.5 0.397805 -1.341951 0.77937 -1.06066 1.06066 
C -0.77937 1.341951 -0.397805 1.5 0 1.5 
z
" style="stroke: #3f3f3f"/>
    </defs>
    <g clip-path="url(#p5a51aa5fa0)">
     <use xlink:href="#me08ff6c33a" x="97.968125" y="140.733224" style="fill: #ffffff; stroke: #3f3f3f"/>
    </g>
   </g>
   <g id="PathCollection_2">
    <g clip-path="url(#p5a51aa5fa0)">
     <use xlink:href="#me08ff6c33a" x="187.248125" y="148.438961" style="fill: #ffffff; stroke: #3f3f3f"/>
    </g>
   </g>
   <g id="PathCollection_3">
    <g clip-path="url(#p5a51aa5fa0)">
     <use xlink:href="#me08ff6c33a" x="276.528125" y="156.144699" style="fill: #ffffff; stroke: #3f3f3f"/>
    </g>
   </g>
   <g id="PathCollection_4">
    <g clip-path="url(#p5a51aa5fa0)">
     <use xlink:href="#me08ff6c33a" x="365.808125" y="176.179616" style="fill: #ffffff; stroke: #3f3f3f"/>
    </g>
   </g>
   <g id="text_16">
    <!-- woff2-2016-05-06 (4h, 3 trials/fuzzer) -->
    <g transform="translate(119.139688 16.318125)scale(0.12 -0.12)">
     <defs>
      <path id="DejaVuSans-77" d="M 269 3500 
L 844 3500 
L 1563 769 
L 2278 3500 
L 2956 3500 
L 3675 769 
L 4391 3500 
L 4966 3500 
L 4050 0 
L 3372 0 
L 2619 2869 
L 1863 0 
L 1184 0 
L 269 3500 
z
" transform="scale(0.015625)"/>
      <path id="DejaVuSans-2d" d="M 313 2009 
L 1997 2009 
L 1997 1497 
L 313 1497 
L 313 2009 
z
" transform="scale(0.015625)"/>
      <path id="DejaVuSans-35" d="M 691 4666 
L 3169 4666 
L 3169 4134 
L 1269 4134 
L 1269 2991 
Q 1406 3038 1543 3061 
Q 1681 3084 1819 3084 
Q 2600 3084 3056 2656 
Q 3513 2228 3513 1497 
Q 3513 744 3044 326 
Q 2575 -91 1722 -91 
Q 1428 -91 1123 -41 
Q 819 9 494 109 
L 494 744 
Q 775 591 1075 516 
Q 1375 441 1709 441 
Q 2250 441 2565 725 
Q 2881 1009 2881 1497 
Q 2881 1984 2565 2268 
Q 2250 2553 1709 2553 
Q 1456 2553 1204 2497 
Q 953 2441 691 2322 
L 691 4666 
z
" transform="scale(0.015625)"/>
      <path id="DejaVuSans-2c" d="M 750 794 
L 1409 794 
L 1409 256 
L 897 -744 
L 494 -744 
L 750 256 
L 750 794 
z
" transform="scale(0.015625)"/>
      <path id="DejaVuSans-2f" d="M 1625 4666 
L 2156 4666 
L 531 -594 
L 0 -594 
L 1625 4666 
z
" transform="scale(0.015625)"/>
     </defs>
     <use xlink:href="#DejaVuSans-77"/>
     <use xlink:href="#DejaVuSans-6f" x="81.787109"/>
     <use xlink:href="#DejaVuSans-66" x="142.96875"/>
     <use xlink:href="#DejaVuSans-66" x="178.173828"/>
     <use xlink:href="#DejaVuSans-32" x="213.378906"/>
     <use xlink:href="#DejaVuSans-2d" x="277.001953"/>
     <use xlink:href="#DejaVuSans-32" x="313.085938"/>
     <use xlink:href="#DejaVuSans-30" x="376.708984"/>
     <use xlink:href="#DejaVuSans-31" x="440.332031"/>
     <use xlink:href="#DejaVuSans-36" x="503.955078"/>
     <use xlink:href="#DejaVuSans-2d" x="567.578125"/>
     <use xlink:href="#DejaVuSans-30" x="603.662109"/>
     <use xlink:href="#DejaVuSans-35" x="667.285156"/>
     <use xlink:href="#DejaVuSans-2d" x="730.908203"/>
     <use xlink:href="#DejaVuSans-30" x="766.992188"/>
     <use xlink:href="#DejaVuSans-36" x="830.615234"/>
     <use xlink:href="#DejaVuSans-20" x="894.238281"/>
     <use xlink:href="#DejaVuSans-28" x="926.025391"/>
     <use xlink:href="#DejaVuSans-34" x="965.039062"/>
     <use xlink:href="#DejaVuSans-68" x="1028.662109"/>
     <use xlink:href="#DejaVuSans-2c" x="1092.041016"/>
     <use xlink:href="#DejaVuSans-20" x="1123.828125"/>
     <use xlink:href="#DejaVuSans-33" x="1155.615234"/>
     <use xlink:href="#DejaVuSans-20" x="1219.238281"/>
     <use xlink:href="#DejaVuSans-74" x="1251.025391"/>
     <use xlink:href="#DejaVuSans-72" x="1290.234375"/>
     <use xlink:href="#DejaVuSans-69" x="1331.347656"/>
     <use xlink:href="#DejaVuSans-61" x="1359.130859"/>
     <use xlink:href="#DejaVuSans-6c" x="1420.410156"/>
     <use xlink:href="#DejaVuSans-73" x="1448.193359"/>
     <use xlink:href="#DejaVuSans-2f" x="1500.292969"/>
     <use xlink:href="#DejaVuSans-66" x="1533.984375"/>
     <use xlink:href="#DejaVuSans-75" x="1569.189453"/>
     <use xlink:href="#DejaVuSans-7a" x="1632.568359"/>
     <use xlink:href="#DejaVuSans-7a" x="1685.058594"/>
     <use xlink:href="#DejaVuSans-65" x="1737.548828"/>
     <use xlink:href="#DejaVuSans-72" x="1799.072266"/>
     <use xlink:href="#DejaVuSans-29" x="1840.185547"/>
    </g>
   </g>
  </g>
 </g>
 <defs>
  <clipPath id="p5a51aa5fa0">
   <rect x="53.328125" y="22.318125" width="357.12" height="266.112"/>
  </clipPath>
 </defs>
</svg>
