<?xml version="1.0" encoding="utf-8" standalone="no"?>
<!DOCTYPE svg PUBLIC "-//W3C//DTD SVG 1.1//EN"
  "http://www.w3.org/Graphics/SVG/1.1/DTD/svg11.dtd">
<svg xmlns:xlink="http://www.w3.org/1999/xlink" width="474.578309pt" height="393.011865pt" viewBox="0 0 474.578309 393.011865" xmlns="http://www.w3.org/2000/svg" version="1.1">
 <metadata>
  <rdf:RDF xmlns:dc="http://purl.org/dc/elements/1.1/" xmlns:cc="http://creativecommons.org/ns#" xmlns:rdf="http://www.w3.org/1999/02/22-rdf-syntax-ns#">
   <cc:Work>
    <dc:type rdf:resource="http://purl.org/dc/dcmitype/StillImage"/>
    <dc:date>2022-06-05T16:09:09.020496</dc:date>
    <dc:format>image/svg+xml</dc:format>
    <dc:creator>
     <cc:Agent>
      <dc:title>Matplotlib v3.5.1, https://matplotlib.org/</dc:title>
     </cc:Agent>
    </dc:creator>
   </cc:Work>
  </rdf:RDF>
 </metadata>
 <defs>
  <style type="text/css">*{stroke-linejoin: round; stroke-linecap: butt}</style>
 </defs>
 <g id="figure_1">
  <g id="patch_1">
   <path d="M 0 393.011865 
L 474.578309 393.011865 
L 474.578309 -0 
L 0 -0 
z
" style="fill: #ffffff"/>
  </g>
  <g id="axes_1">
   <g id="patch_2">
    <path d="M 110.258309 288.430125 
L 467.378309 288.430125 
L 467.378309 22.318125 
L 110.258309 22.318125 
z
" style="fill: #ffffff"/>
   </g>
   <g id="PolyCollection_1">
    <defs>
     <path id="me3284b468f" d="M 130.809969 -288.481388 
L 129.386649 -288.481388 
L 129.284384 -289.189634 
L 129.171076 -289.89788 
L 129.046137 -290.606126 
L 128.909039 -291.314372 
L 128.759335 -292.022618 
L 128.596678 -292.730864 
L 128.420833 -293.43911 
L 128.2317 -294.147356 
L 128.029325 -294.855602 
L 127.81392 -295.563848 
L 127.585874 -296.272094 
L 127.34576 -296.98034 
L 127.094352 -297.688586 
L 126.832621 -298.396832 
L 126.56174 -299.105078 
L 126.283079 -299.813324 
L 125.9982 -300.52157 
L 125.708841 -301.229816 
L 125.4169 -301.938062 
L 125.124415 -302.646308 
L 124.833536 -303.354554 
L 124.546495 -304.0628 
L 124.265572 -304.771046 
L 123.993059 -305.479292 
L 123.731223 -306.187538 
L 123.48226 -306.895784 
L 123.248263 -307.60403 
L 123.031174 -308.312276 
L 122.832755 -309.020522 
L 122.654544 -309.728768 
L 122.497829 -310.437014 
L 122.363622 -311.14526 
L 122.252636 -311.853506 
L 122.16527 -312.561752 
L 122.101604 -313.269998 
L 122.061398 -313.978244 
L 122.044096 -314.68649 
L 122.048842 -315.394736 
L 122.074504 -316.102982 
L 122.119697 -316.811228 
L 122.182819 -317.519474 
L 122.262088 -318.22772 
L 122.355588 -318.935966 
L 122.461309 -319.644212 
L 122.577198 -320.352457 
L 122.701204 -321.060703 
L 122.831324 -321.768949 
L 122.965647 -322.477195 
L 123.102393 -323.185441 
L 123.239951 -323.893687 
L 123.376908 -324.601933 
L 123.51207 -325.310179 
L 123.644484 -326.018425 
L 123.773443 -326.726671 
L 123.898492 -327.434917 
L 124.019424 -328.143163 
L 124.136265 -328.851409 
L 124.249259 -329.559655 
L 124.358846 -330.267901 
L 124.465631 -330.976147 
L 124.570357 -331.684393 
L 124.673866 -332.392639 
L 124.777068 -333.100885 
L 124.8809 -333.809131 
L 124.986298 -334.517377 
L 125.094154 -335.225623 
L 125.205296 -335.933869 
L 125.320451 -336.642115 
L 125.44023 -337.350361 
L 125.565102 -338.058607 
L 125.695387 -338.766853 
L 125.831246 -339.475099 
L 125.972675 -340.183345 
L 126.119511 -340.891591 
L 126.271438 -341.599837 
L 126.427993 -342.308083 
L 126.588586 -343.016329 
L 126.752518 -343.724575 
L 126.918994 -344.432821 
L 127.08715 -345.141067 
L 127.256074 -345.849313 
L 127.424826 -346.557559 
L 127.592463 -347.265805 
L 127.758057 -347.974051 
L 127.920714 -348.682297 
L 128.079592 -349.390543 
L 128.233915 -350.098789 
L 128.382985 -350.807035 
L 128.526191 -351.515281 
L 128.663015 -352.223527 
L 128.793038 -352.931773 
L 128.915938 -353.640019 
L 129.03149 -354.348265 
L 129.139564 -355.056511 
L 129.24012 -355.764757 
L 129.333199 -356.473002 
L 129.418918 -357.181248 
L 129.497459 -357.889494 
L 129.569064 -358.59774 
L 130.627554 -358.59774 
L 130.627554 -358.59774 
L 130.699159 -357.889494 
L 130.7777 -357.181248 
L 130.863419 -356.473002 
L 130.956498 -355.764757 
L 131.057054 -355.056511 
L 131.165128 -354.348265 
L 131.28068 -353.640019 
L 131.40358 -352.931773 
L 131.533603 -352.223527 
L 131.670427 -351.515281 
L 131.813633 -350.807035 
L 131.962703 -350.098789 
L 132.117026 -349.390543 
L 132.275904 -348.682297 
L 132.438561 -347.974051 
L 132.604155 -347.265805 
L 132.771792 -346.557559 
L 132.940544 -345.849313 
L 133.109468 -345.141067 
L 133.277624 -344.432821 
L 133.4441 -343.724575 
L 133.608032 -343.016329 
L 133.768626 -342.308083 
L 133.925181 -341.599837 
L 134.077107 -340.891591 
L 134.223943 -340.183345 
L 134.365372 -339.475099 
L 134.501231 -338.766853 
L 134.631517 -338.058607 
L 134.756389 -337.350361 
L 134.876167 -336.642115 
L 134.991322 -335.933869 
L 135.102464 -335.225623 
L 135.21032 -334.517377 
L 135.315718 -333.809131 
L 135.41955 -333.100885 
L 135.522752 -332.392639 
L 135.626261 -331.684393 
L 135.730987 -330.976147 
L 135.837772 -330.267901 
L 135.947359 -329.559655 
L 136.060353 -328.851409 
L 136.177194 -328.143163 
L 136.298126 -327.434917 
L 136.423175 -326.726671 
L 136.552134 -326.018425 
L 136.684548 -325.310179 
L 136.81971 -324.601933 
L 136.956667 -323.893687 
L 137.094225 -323.185441 
L 137.230971 -322.477195 
L 137.365294 -321.768949 
L 137.495414 -321.060703 
L 137.61942 -320.352457 
L 137.735309 -319.644212 
L 137.84103 -318.935966 
L 137.93453 -318.22772 
L 138.013799 -317.519474 
L 138.076921 -316.811228 
L 138.122114 -316.102982 
L 138.147776 -315.394736 
L 138.152522 -314.68649 
L 138.13522 -313.978244 
L 138.095014 -313.269998 
L 138.031348 -312.561752 
L 137.943982 -311.853506 
L 137.832996 -311.14526 
L 137.698789 -310.437014 
L 137.542074 -309.728768 
L 137.363863 -309.020522 
L 137.165444 -308.312276 
L 136.948356 -307.60403 
L 136.714358 -306.895784 
L 136.465396 -306.187538 
L 136.203559 -305.479292 
L 135.931046 -304.771046 
L 135.650123 -304.0628 
L 135.363082 -303.354554 
L 135.072203 -302.646308 
L 134.779718 -301.938062 
L 134.487777 -301.229816 
L 134.198418 -300.52157 
L 133.913539 -299.813324 
L 133.634879 -299.105078 
L 133.363997 -298.396832 
L 133.102266 -297.688586 
L 132.850858 -296.98034 
L 132.610745 -296.272094 
L 132.382698 -295.563848 
L 132.167293 -294.855602 
L 131.964918 -294.147356 
L 131.775785 -293.43911 
L 131.59994 -292.730864 
L 131.437283 -292.022618 
L 131.287579 -291.314372 
L 131.150481 -290.606126 
L 131.025542 -289.89788 
L 130.912235 -289.189634 
L 130.809969 -288.481388 
z
" style="stroke: #3d3d3d; stroke-width: 1.5"/>
    </defs>
    <g clip-path="url(#p5519a81fb6)">
     <use xlink:href="#me3284b468f" x="0" y="393.011865" style="fill: #d1d197; stroke: #3d3d3d; stroke-width: 1.5"/>
    </g>
   </g>
   <g id="PolyCollection_2">
    <defs>
     <path id="me81b4d7ffb" d="M 170.852789 -290.491104 
L 168.703829 -290.491104 
L 168.556232 -290.845324 
L 168.394045 -291.199543 
L 168.216723 -291.553762 
L 168.02384 -291.907982 
L 167.815101 -292.262201 
L 167.590365 -292.616421 
L 167.34966 -292.97064 
L 167.093195 -293.32486 
L 166.821374 -293.679079 
L 166.534798 -294.033298 
L 166.234273 -294.387518 
L 165.920803 -294.741737 
L 165.595586 -295.095957 
L 165.259999 -295.450176 
L 164.915581 -295.804396 
L 164.564009 -296.158615 
L 164.207068 -296.512834 
L 163.846618 -296.867054 
L 163.484559 -297.221273 
L 163.122787 -297.575493 
L 162.763156 -297.929712 
L 162.407432 -298.283931 
L 162.057253 -298.638151 
L 161.71409 -298.99237 
L 161.379208 -299.34659 
L 161.053637 -299.700809 
L 160.738148 -300.055029 
L 160.433231 -300.409248 
L 160.139091 -300.763467 
L 159.855645 -301.117687 
L 159.582529 -301.471906 
L 159.319121 -301.826126 
L 159.064568 -302.180345 
L 158.817818 -302.534565 
L 158.577673 -302.888784 
L 158.342831 -303.243003 
L 158.11195 -303.597223 
L 157.883704 -303.951442 
L 157.656843 -304.305662 
L 157.430258 -304.659881 
L 157.203039 -305.0141 
L 156.974524 -305.36832 
L 156.744356 -305.722539 
L 156.512512 -306.076759 
L 156.279344 -306.430978 
L 156.045589 -306.785198 
L 155.812386 -307.139417 
L 155.581264 -307.493636 
L 155.354133 -307.847856 
L 155.133248 -308.202075 
L 154.921178 -308.556295 
L 154.720751 -308.910514 
L 154.534997 -309.264734 
L 154.367083 -309.618953 
L 154.220241 -309.973172 
L 154.097693 -310.327392 
L 154.002577 -310.681611 
L 153.937868 -311.035831 
L 153.906309 -311.39005 
L 153.910342 -311.74427 
L 153.952046 -312.098489 
L 154.033084 -312.452708 
L 154.154661 -312.806928 
L 154.317486 -313.161147 
L 154.521756 -313.515367 
L 154.767142 -313.869586 
L 155.052791 -314.223805 
L 155.377337 -314.578025 
L 155.738929 -314.932244 
L 156.135258 -315.286464 
L 156.563604 -315.640683 
L 157.020885 -315.994903 
L 157.503712 -316.349122 
L 158.008451 -316.703341 
L 158.531288 -317.057561 
L 159.06829 -317.41178 
L 159.615478 -317.766 
L 160.168881 -318.120219 
L 160.724606 -318.474439 
L 161.278889 -318.828658 
L 161.828146 -319.182877 
L 162.369022 -319.537097 
L 162.898426 -319.891316 
L 163.41356 -320.245536 
L 163.911949 -320.599755 
L 164.391452 -320.953974 
L 164.85027 -321.308194 
L 165.286952 -321.662413 
L 165.700386 -322.016633 
L 166.08979 -322.370852 
L 166.454698 -322.725072 
L 166.794936 -323.079291 
L 167.1106 -323.43351 
L 167.402032 -323.78773 
L 167.669787 -324.141949 
L 167.914608 -324.496169 
L 168.137392 -324.850388 
L 168.339166 -325.204608 
L 168.521053 -325.558827 
L 171.035565 -325.558827 
L 171.035565 -325.558827 
L 171.217452 -325.204608 
L 171.419226 -324.850388 
L 171.64201 -324.496169 
L 171.886831 -324.141949 
L 172.154586 -323.78773 
L 172.446018 -323.43351 
L 172.761682 -323.079291 
L 173.10192 -322.725072 
L 173.466828 -322.370852 
L 173.856232 -322.016633 
L 174.269666 -321.662413 
L 174.706348 -321.308194 
L 175.165166 -320.953974 
L 175.644669 -320.599755 
L 176.143058 -320.245536 
L 176.658193 -319.891316 
L 177.187596 -319.537097 
L 177.728472 -319.182877 
L 178.277729 -318.828658 
L 178.832012 -318.474439 
L 179.387737 -318.120219 
L 179.94114 -317.766 
L 180.488328 -317.41178 
L 181.02533 -317.057561 
L 181.548167 -316.703341 
L 182.052906 -316.349122 
L 182.535733 -315.994903 
L 182.993014 -315.640683 
L 183.42136 -315.286464 
L 183.817689 -314.932244 
L 184.179281 -314.578025 
L 184.503827 -314.223805 
L 184.789476 -313.869586 
L 185.034862 -313.515367 
L 185.239132 -313.161147 
L 185.401957 -312.806928 
L 185.523534 -312.452708 
L 185.604572 -312.098489 
L 185.646276 -311.74427 
L 185.650309 -311.39005 
L 185.61875 -311.035831 
L 185.554041 -310.681611 
L 185.458925 -310.327392 
L 185.336377 -309.973172 
L 185.189535 -309.618953 
L 185.021621 -309.264734 
L 184.835867 -308.910514 
L 184.63544 -308.556295 
L 184.42337 -308.202075 
L 184.202486 -307.847856 
L 183.975354 -307.493636 
L 183.744232 -307.139417 
L 183.511029 -306.785198 
L 183.277275 -306.430978 
L 183.044106 -306.076759 
L 182.812262 -305.722539 
L 182.582094 -305.36832 
L 182.35358 -305.0141 
L 182.12636 -304.659881 
L 181.899775 -304.305662 
L 181.672914 -303.951442 
L 181.444668 -303.597223 
L 181.213787 -303.243003 
L 180.978945 -302.888784 
L 180.7388 -302.534565 
L 180.49205 -302.180345 
L 180.237497 -301.826126 
L 179.974089 -301.471906 
L 179.700973 -301.117687 
L 179.417527 -300.763467 
L 179.123387 -300.409248 
L 178.81847 -300.055029 
L 178.502981 -299.700809 
L 178.17741 -299.34659 
L 177.842528 -298.99237 
L 177.499365 -298.638151 
L 177.149186 -298.283931 
L 176.793462 -297.929712 
L 176.433831 -297.575493 
L 176.072059 -297.221273 
L 175.71 -296.867054 
L 175.34955 -296.512834 
L 174.992609 -296.158615 
L 174.641037 -295.804396 
L 174.296619 -295.450176 
L 173.961032 -295.095957 
L 173.635815 -294.741737 
L 173.322345 -294.387518 
L 173.02182 -294.033298 
L 172.735244 -293.679079 
L 172.463423 -293.32486 
L 172.206958 -292.97064 
L 171.966253 -292.616421 
L 171.741517 -292.262201 
L 171.532778 -291.907982 
L 171.339895 -291.553762 
L 171.162573 -291.199543 
L 171.000386 -290.845324 
L 170.852789 -290.491104 
z
" style="stroke: #3d3d3d; stroke-width: 1.5"/>
    </defs>
    <g clip-path="url(#p5519a81fb6)">
     <use xlink:href="#me81b4d7ffb" x="0" y="393.011865" style="fill: #3a923a; stroke: #3d3d3d; stroke-width: 1.5"/>
    </g>
   </g>
   <g id="PolyCollection_3">
    <defs>
     <path id="mde03738971" d="M 209.818941 -163.528616 
L 209.097677 -163.528616 
L 209.046258 -164.651835 
L 208.989379 -165.775053 
L 208.926758 -166.898271 
L 208.858142 -168.021489 
L 208.783317 -169.144707 
L 208.702111 -170.267925 
L 208.614404 -171.391143 
L 208.520131 -172.514361 
L 208.419291 -173.63758 
L 208.311952 -174.760798 
L 208.198253 -175.884016 
L 208.078409 -177.007234 
L 207.952713 -178.130452 
L 207.821534 -179.25367 
L 207.68532 -180.376888 
L 207.544594 -181.500106 
L 207.399947 -182.623325 
L 207.252038 -183.746543 
L 207.101583 -184.869761 
L 206.949347 -185.992979 
L 206.796138 -187.116197 
L 206.642793 -188.239415 
L 206.490166 -189.362633 
L 206.339123 -190.485851 
L 206.19052 -191.60907 
L 206.0452 -192.732288 
L 205.903976 -193.855506 
L 205.767622 -194.978724 
L 205.636862 -196.101942 
L 205.512358 -197.22516 
L 205.394707 -198.348378 
L 205.284429 -199.471597 
L 205.181965 -200.594815 
L 205.08767 -201.718033 
L 205.001815 -202.841251 
L 204.924582 -203.964469 
L 204.856067 -205.087687 
L 204.796286 -206.210905 
L 204.745173 -207.334123 
L 204.702591 -208.457342 
L 204.668337 -209.58056 
L 204.642151 -210.703778 
L 204.623725 -211.826996 
L 204.612712 -212.950214 
L 204.608739 -214.073432 
L 204.611414 -215.19665 
L 204.620341 -216.319868 
L 204.635126 -217.443087 
L 204.655392 -218.566305 
L 204.680783 -219.689523 
L 204.710976 -220.812741 
L 204.745685 -221.935959 
L 204.78467 -223.059177 
L 204.827737 -224.182395 
L 204.874741 -225.305613 
L 204.925588 -226.428832 
L 204.980232 -227.55205 
L 205.03867 -228.675268 
L 205.100939 -229.798486 
L 205.167109 -230.921704 
L 205.237272 -232.044922 
L 205.311536 -233.16814 
L 205.390013 -234.291358 
L 205.472808 -235.414577 
L 205.560011 -236.537795 
L 205.651681 -237.661013 
L 205.747844 -238.784231 
L 205.848477 -239.907449 
L 205.953504 -241.030667 
L 206.06279 -242.153885 
L 206.176137 -243.277104 
L 206.293282 -244.400322 
L 206.413894 -245.52354 
L 206.537581 -246.646758 
L 206.663891 -247.769976 
L 206.792317 -248.893194 
L 206.922309 -250.016412 
L 207.053277 -251.13963 
L 207.184605 -252.262849 
L 207.315662 -253.386067 
L 207.445808 -254.509285 
L 207.574415 -255.632503 
L 207.700866 -256.755721 
L 207.824576 -257.878939 
L 207.944995 -259.002157 
L 208.061619 -260.125375 
L 208.173997 -261.248594 
L 208.281736 -262.371812 
L 208.384503 -263.49503 
L 208.482035 -264.618248 
L 208.574129 -265.741466 
L 208.660651 -266.864684 
L 208.74153 -267.987902 
L 208.816756 -269.11112 
L 208.886373 -270.234339 
L 208.950479 -271.357557 
L 209.009217 -272.480775 
L 209.062771 -273.603993 
L 209.111358 -274.727211 
L 209.80526 -274.727211 
L 209.80526 -274.727211 
L 209.853847 -273.603993 
L 209.907401 -272.480775 
L 209.966139 -271.357557 
L 210.030245 -270.234339 
L 210.099862 -269.11112 
L 210.175088 -267.987902 
L 210.255967 -266.864684 
L 210.342489 -265.741466 
L 210.434584 -264.618248 
L 210.532115 -263.49503 
L 210.634883 -262.371812 
L 210.742621 -261.248594 
L 210.854999 -260.125375 
L 210.971623 -259.002157 
L 211.092042 -257.878939 
L 211.215752 -256.755721 
L 211.342204 -255.632503 
L 211.47081 -254.509285 
L 211.600956 -253.386067 
L 211.732013 -252.262849 
L 211.863341 -251.13963 
L 211.994309 -250.016412 
L 212.124301 -248.893194 
L 212.252728 -247.769976 
L 212.379037 -246.646758 
L 212.502724 -245.52354 
L 212.623337 -244.400322 
L 212.740481 -243.277104 
L 212.853828 -242.153885 
L 212.963115 -241.030667 
L 213.068142 -239.907449 
L 213.168774 -238.784231 
L 213.264937 -237.661013 
L 213.356607 -236.537795 
L 213.44381 -235.414577 
L 213.526605 -234.291358 
L 213.605082 -233.16814 
L 213.679346 -232.044922 
L 213.749509 -230.921704 
L 213.815679 -229.798486 
L 213.877948 -228.675268 
L 213.936386 -227.55205 
L 213.99103 -226.428832 
L 214.041877 -225.305613 
L 214.088881 -224.182395 
L 214.131948 -223.059177 
L 214.170933 -221.935959 
L 214.205642 -220.812741 
L 214.235835 -219.689523 
L 214.261226 -218.566305 
L 214.281492 -217.443087 
L 214.296277 -216.319868 
L 214.305204 -215.19665 
L 214.307879 -214.073432 
L 214.303906 -212.950214 
L 214.292893 -211.826996 
L 214.274467 -210.703778 
L 214.248281 -209.58056 
L 214.214027 -208.457342 
L 214.171445 -207.334123 
L 214.120332 -206.210905 
L 214.060551 -205.087687 
L 213.992036 -203.964469 
L 213.914803 -202.841251 
L 213.828948 -201.718033 
L 213.734653 -200.594815 
L 213.632189 -199.471597 
L 213.521911 -198.348378 
L 213.40426 -197.22516 
L 213.279756 -196.101942 
L 213.148996 -194.978724 
L 213.012642 -193.855506 
L 212.871418 -192.732288 
L 212.726098 -191.60907 
L 212.577496 -190.485851 
L 212.426452 -189.362633 
L 212.273825 -188.239415 
L 212.12048 -187.116197 
L 211.967271 -185.992979 
L 211.815035 -184.869761 
L 211.66458 -183.746543 
L 211.516671 -182.623325 
L 211.372024 -181.500106 
L 211.231298 -180.376888 
L 211.095084 -179.25367 
L 210.963906 -178.130452 
L 210.838209 -177.007234 
L 210.718365 -175.884016 
L 210.604666 -174.760798 
L 210.497327 -173.63758 
L 210.396488 -172.514361 
L 210.302214 -171.391143 
L 210.214507 -170.267925 
L 210.133301 -169.144707 
L 210.058476 -168.021489 
L 209.98986 -166.898271 
L 209.927239 -165.775053 
L 209.87036 -164.651835 
L 209.818941 -163.528616 
z
" style="stroke: #3d3d3d; stroke-width: 1.5"/>
    </defs>
    <g clip-path="url(#p5519a81fb6)">
     <use xlink:href="#mde03738971" x="0" y="393.011865" style="fill: #c7c7c7; stroke: #3d3d3d; stroke-width: 1.5"/>
    </g>
   </g>
   <g id="PolyCollection_4">
    <defs>
     <path id="m47b1657a9a" d="M 249.908673 -178.14224 
L 248.367945 -178.14224 
L 248.26568 -178.619971 
L 248.153712 -179.097703 
L 248.031719 -179.575434 
L 247.899461 -180.053166 
L 247.756789 -180.530897 
L 247.603658 -181.008629 
L 247.440138 -181.48636 
L 247.266422 -181.964092 
L 247.082834 -182.441823 
L 246.889834 -182.919555 
L 246.688017 -183.397286 
L 246.478117 -183.875018 
L 246.260998 -184.352749 
L 246.037645 -184.830481 
L 245.809157 -185.308212 
L 245.576727 -185.785944 
L 245.341622 -186.263675 
L 245.105162 -186.741407 
L 244.868695 -187.219138 
L 244.633567 -187.69687 
L 244.40109 -188.174602 
L 244.172514 -188.652333 
L 243.948995 -189.130065 
L 243.73156 -189.607796 
L 243.521082 -190.085528 
L 243.318254 -190.563259 
L 243.12356 -191.040991 
L 242.937264 -191.518722 
L 242.759392 -191.996454 
L 242.589727 -192.474185 
L 242.427808 -192.951917 
L 242.27294 -193.429648 
L 242.124204 -193.90738 
L 241.980486 -194.385111 
L 241.840497 -194.862843 
L 241.702818 -195.340574 
L 241.565935 -195.818306 
L 241.42829 -196.296037 
L 241.28833 -196.773769 
L 241.144559 -197.2515 
L 240.995595 -197.729232 
L 240.84022 -198.206963 
L 240.677434 -198.684695 
L 240.506501 -199.162426 
L 240.326991 -199.640158 
L 240.138819 -200.117889 
L 239.942265 -200.595621 
L 239.737999 -201.073352 
L 239.527086 -201.551084 
L 239.310983 -202.028815 
L 239.091524 -202.506547 
L 238.870902 -202.984279 
L 238.651627 -203.46201 
L 238.436485 -203.939742 
L 238.228486 -204.417473 
L 238.030802 -204.895205 
L 237.846699 -205.372936 
L 237.679474 -205.850668 
L 237.532372 -206.328399 
L 237.408524 -206.806131 
L 237.310868 -207.283862 
L 237.242085 -207.761594 
L 237.204538 -208.239325 
L 237.200214 -208.717057 
L 237.230681 -209.194788 
L 237.297049 -209.67252 
L 237.399944 -210.150251 
L 237.539495 -210.627983 
L 237.715328 -211.105714 
L 237.926575 -211.583446 
L 238.171894 -212.061177 
L 238.449493 -212.538909 
L 238.757172 -213.01664 
L 239.092369 -213.494372 
L 239.452209 -213.972103 
L 239.833566 -214.449835 
L 240.233118 -214.927566 
L 240.647415 -215.405298 
L 241.072937 -215.883029 
L 241.506161 -216.360761 
L 241.943614 -216.838492 
L 242.381928 -217.316224 
L 242.817892 -217.793955 
L 243.248494 -218.271687 
L 243.670957 -218.749419 
L 244.082768 -219.22715 
L 244.481699 -219.704882 
L 244.865825 -220.182613 
L 245.23353 -220.660345 
L 245.583506 -221.138076 
L 245.914752 -221.615808 
L 246.226558 -222.093539 
L 246.518497 -222.571271 
L 246.790396 -223.049002 
L 247.042323 -223.526734 
L 247.274557 -224.004465 
L 247.487564 -224.482197 
L 247.681966 -224.959928 
L 247.858521 -225.43766 
L 250.418097 -225.43766 
L 250.418097 -225.43766 
L 250.594652 -224.959928 
L 250.789054 -224.482197 
L 251.002061 -224.004465 
L 251.234295 -223.526734 
L 251.486222 -223.049002 
L 251.758122 -222.571271 
L 252.05006 -222.093539 
L 252.361866 -221.615808 
L 252.693112 -221.138076 
L 253.043088 -220.660345 
L 253.410793 -220.182613 
L 253.794919 -219.704882 
L 254.19385 -219.22715 
L 254.605661 -218.749419 
L 255.028124 -218.271687 
L 255.458726 -217.793955 
L 255.894691 -217.316224 
L 256.333004 -216.838492 
L 256.770457 -216.360761 
L 257.203681 -215.883029 
L 257.629203 -215.405298 
L 258.0435 -214.927566 
L 258.443052 -214.449835 
L 258.824409 -213.972103 
L 259.184249 -213.494372 
L 259.519446 -213.01664 
L 259.827125 -212.538909 
L 260.104724 -212.061177 
L 260.350043 -211.583446 
L 260.56129 -211.105714 
L 260.737123 -210.627983 
L 260.876674 -210.150251 
L 260.979569 -209.67252 
L 261.045937 -209.194788 
L 261.076404 -208.717057 
L 261.07208 -208.239325 
L 261.034533 -207.761594 
L 260.96575 -207.283862 
L 260.868094 -206.806131 
L 260.744246 -206.328399 
L 260.597145 -205.850668 
L 260.429919 -205.372936 
L 260.245817 -204.895205 
L 260.048132 -204.417473 
L 259.840133 -203.939742 
L 259.624991 -203.46201 
L 259.405716 -202.984279 
L 259.185094 -202.506547 
L 258.965636 -202.028815 
L 258.749532 -201.551084 
L 258.538619 -201.073352 
L 258.334353 -200.595621 
L 258.137799 -200.117889 
L 257.949627 -199.640158 
L 257.770118 -199.162426 
L 257.599184 -198.684695 
L 257.436398 -198.206963 
L 257.281023 -197.729232 
L 257.132059 -197.2515 
L 256.988288 -196.773769 
L 256.848328 -196.296037 
L 256.710683 -195.818306 
L 256.5738 -195.340574 
L 256.436121 -194.862843 
L 256.296132 -194.385111 
L 256.152414 -193.90738 
L 256.003678 -193.429648 
L 255.84881 -192.951917 
L 255.686891 -192.474185 
L 255.517226 -191.996454 
L 255.339354 -191.518722 
L 255.153058 -191.040991 
L 254.958364 -190.563259 
L 254.755536 -190.085528 
L 254.545058 -189.607796 
L 254.327623 -189.130065 
L 254.104104 -188.652333 
L 253.875528 -188.174602 
L 253.643051 -187.69687 
L 253.407923 -187.219138 
L 253.171456 -186.741407 
L 252.934996 -186.263675 
L 252.699891 -185.785944 
L 252.467461 -185.308212 
L 252.238973 -184.830481 
L 252.015621 -184.352749 
L 251.798501 -183.875018 
L 251.588601 -183.397286 
L 251.386784 -182.919555 
L 251.193784 -182.441823 
L 251.010196 -181.964092 
L 250.83648 -181.48636 
L 250.67296 -181.008629 
L 250.519829 -180.530897 
L 250.377157 -180.053166 
L 250.244899 -179.575434 
L 250.122906 -179.097703 
L 250.010938 -178.619971 
L 249.908673 -178.14224 
z
" style="stroke: #3d3d3d; stroke-width: 1.5"/>
    </defs>
    <g clip-path="url(#p5519a81fb6)">
     <use xlink:href="#m47b1657a9a" x="0" y="393.011865" style="fill: #c03d3e; stroke: #3d3d3d; stroke-width: 1.5"/>
    </g>
   </g>
   <g id="PolyCollection_5">
    <defs>
     <path id="meba31391f2" d="M 289.4657 -176.353319 
L 288.170919 -176.353319 
L 288.078441 -176.982867 
L 287.976103 -177.612416 
L 287.863388 -178.241964 
L 287.739833 -178.871512 
L 287.60504 -179.50106 
L 287.458688 -180.130609 
L 287.300547 -180.760157 
L 287.13049 -181.389705 
L 286.948503 -182.019253 
L 286.754697 -182.648801 
L 286.549313 -183.27835 
L 286.332729 -183.907898 
L 286.105466 -184.537446 
L 285.868189 -185.166994 
L 285.621705 -185.796543 
L 285.366958 -186.426091 
L 285.105027 -187.055639 
L 284.837111 -187.685187 
L 284.564522 -188.314735 
L 284.288667 -188.944284 
L 284.011032 -189.573832 
L 283.733165 -190.20338 
L 283.456653 -190.832928 
L 283.183101 -191.462477 
L 282.914113 -192.092025 
L 282.651264 -192.721573 
L 282.396081 -193.351121 
L 282.150022 -193.980669 
L 281.914452 -194.610218 
L 281.690631 -195.239766 
L 281.479687 -195.869314 
L 281.282613 -196.498862 
L 281.100248 -197.128411 
L 280.93327 -197.757959 
L 280.782191 -198.387507 
L 280.647355 -199.017055 
L 280.528939 -199.646603 
L 280.426958 -200.276152 
L 280.341268 -200.9057 
L 280.271583 -201.535248 
L 280.217484 -202.164796 
L 280.178434 -202.794345 
L 280.153799 -203.423893 
L 280.142864 -204.053441 
L 280.144857 -204.682989 
L 280.158967 -205.312538 
L 280.184365 -205.942086 
L 280.220232 -206.571634 
L 280.265769 -207.201182 
L 280.320226 -207.83073 
L 280.382912 -208.460279 
L 280.453213 -209.089827 
L 280.530601 -209.719375 
L 280.614647 -210.348923 
L 280.70502 -210.978472 
L 280.801494 -211.60802 
L 280.903943 -212.237568 
L 281.012334 -212.867116 
L 281.12672 -213.496664 
L 281.247224 -214.126213 
L 281.374028 -214.755761 
L 281.507351 -215.385309 
L 281.647431 -216.014857 
L 281.794504 -216.644406 
L 281.948787 -217.273954 
L 282.110451 -217.903502 
L 282.279607 -218.53305 
L 282.456285 -219.162598 
L 282.640424 -219.792147 
L 282.831853 -220.421695 
L 283.030289 -221.051243 
L 283.235328 -221.680791 
L 283.446446 -222.31034 
L 283.663001 -222.939888 
L 283.884238 -223.569436 
L 284.109303 -224.198984 
L 284.337252 -224.828532 
L 284.56707 -225.458081 
L 284.797686 -226.087629 
L 285.027995 -226.717177 
L 285.256877 -227.346725 
L 285.483219 -227.976274 
L 285.705932 -228.605822 
L 285.923974 -229.23537 
L 286.136362 -229.864918 
L 286.342195 -230.494466 
L 286.540661 -231.124015 
L 286.731049 -231.753563 
L 286.91276 -232.383111 
L 287.085307 -233.012659 
L 287.248321 -233.642208 
L 287.401549 -234.271756 
L 287.544851 -234.901304 
L 287.678194 -235.530852 
L 287.801649 -236.160401 
L 287.915377 -236.789949 
L 288.019621 -237.419497 
L 288.114699 -238.049045 
L 288.200987 -238.678593 
L 289.435631 -238.678593 
L 289.435631 -238.678593 
L 289.521919 -238.049045 
L 289.616997 -237.419497 
L 289.721241 -236.789949 
L 289.834969 -236.160401 
L 289.958424 -235.530852 
L 290.091767 -234.901304 
L 290.235069 -234.271756 
L 290.388297 -233.642208 
L 290.551311 -233.012659 
L 290.723858 -232.383111 
L 290.905569 -231.753563 
L 291.095957 -231.124015 
L 291.294423 -230.494466 
L 291.500256 -229.864918 
L 291.712644 -229.23537 
L 291.930686 -228.605822 
L 292.153399 -227.976274 
L 292.379741 -227.346725 
L 292.608623 -226.717177 
L 292.838932 -226.087629 
L 293.069548 -225.458081 
L 293.299366 -224.828532 
L 293.527315 -224.198984 
L 293.75238 -223.569436 
L 293.973618 -222.939888 
L 294.190172 -222.31034 
L 294.40129 -221.680791 
L 294.606329 -221.051243 
L 294.804765 -220.421695 
L 294.996195 -219.792147 
L 295.180333 -219.162598 
L 295.357011 -218.53305 
L 295.526167 -217.903502 
L 295.687831 -217.273954 
L 295.842114 -216.644406 
L 295.989188 -216.014857 
L 296.129267 -215.385309 
L 296.26259 -214.755761 
L 296.389394 -214.126213 
L 296.509898 -213.496664 
L 296.624284 -212.867116 
L 296.732675 -212.237568 
L 296.835124 -211.60802 
L 296.931598 -210.978472 
L 297.021972 -210.348923 
L 297.106017 -209.719375 
L 297.183405 -209.089827 
L 297.253706 -208.460279 
L 297.316392 -207.83073 
L 297.370849 -207.201182 
L 297.416386 -206.571634 
L 297.452253 -205.942086 
L 297.477652 -205.312538 
L 297.491761 -204.682989 
L 297.493754 -204.053441 
L 297.482819 -203.423893 
L 297.458184 -202.794345 
L 297.419134 -202.164796 
L 297.365035 -201.535248 
L 297.29535 -200.9057 
L 297.20966 -200.276152 
L 297.107679 -199.646603 
L 296.989263 -199.017055 
L 296.854427 -198.387507 
L 296.703348 -197.757959 
L 296.53637 -197.128411 
L 296.354005 -196.498862 
L 296.156931 -195.869314 
L 295.945988 -195.239766 
L 295.722166 -194.610218 
L 295.486596 -193.980669 
L 295.240537 -193.351121 
L 294.985354 -192.721573 
L 294.722505 -192.092025 
L 294.453517 -191.462477 
L 294.179966 -190.832928 
L 293.903453 -190.20338 
L 293.625586 -189.573832 
L 293.347952 -188.944284 
L 293.072096 -188.314735 
L 292.799507 -187.685187 
L 292.531591 -187.055639 
L 292.26966 -186.426091 
L 292.014913 -185.796543 
L 291.768429 -185.166994 
L 291.531152 -184.537446 
L 291.303889 -183.907898 
L 291.087305 -183.27835 
L 290.881921 -182.648801 
L 290.688115 -182.019253 
L 290.506128 -181.389705 
L 290.336071 -180.760157 
L 290.17793 -180.130609 
L 290.031578 -179.50106 
L 289.896785 -178.871512 
L 289.77323 -178.241964 
L 289.660515 -177.612416 
L 289.558177 -176.982867 
L 289.4657 -176.353319 
z
" style="stroke: #3d3d3d; stroke-width: 1.5"/>
    </defs>
    <g clip-path="url(#p5519a81fb6)">
     <use xlink:href="#meba31391f2" x="0" y="393.011865" style="fill: #9fd495; stroke: #3d3d3d; stroke-width: 1.5"/>
    </g>
   </g>
   <g id="PolyCollection_6">
    <defs>
     <path id="m82fb49fb14" d="M 328.756938 -120.995315 
L 328.23968 -120.995315 
L 328.203045 -122.534471 
L 328.162574 -124.073627 
L 328.11808 -125.612784 
L 328.069398 -127.15194 
L 328.016391 -128.691096 
L 327.958956 -130.230253 
L 327.897023 -131.769409 
L 327.830567 -133.308565 
L 327.759606 -134.847722 
L 327.684204 -136.386878 
L 327.604479 -137.926034 
L 327.520596 -139.465191 
L 327.432776 -141.004347 
L 327.34129 -142.543503 
L 327.246459 -144.08266 
L 327.148653 -145.621816 
L 327.048282 -147.160972 
L 326.945799 -148.700129 
L 326.841688 -150.239285 
L 326.736461 -151.778441 
L 326.630649 -153.317598 
L 326.524797 -154.856754 
L 326.419453 -156.39591 
L 326.315162 -157.935067 
L 326.212457 -159.474223 
L 326.111854 -161.013379 
L 326.013841 -162.552536 
L 325.918876 -164.091692 
L 325.827378 -165.630848 
L 325.739725 -167.170005 
L 325.656247 -168.709161 
L 325.577228 -170.248317 
L 325.502902 -171.787474 
L 325.433454 -173.32663 
L 325.369018 -174.865786 
L 325.309683 -176.404943 
L 325.255494 -177.944099 
L 325.206455 -179.483255 
L 325.162534 -181.022412 
L 325.123669 -182.561568 
L 325.089769 -184.100724 
L 325.060727 -185.639881 
L 325.036417 -187.179037 
L 325.016707 -188.718194 
L 325.001459 -190.25735 
L 324.990539 -191.796506 
L 324.983818 -193.335663 
L 324.981177 -194.874819 
L 324.982512 -196.413975 
L 324.987736 -197.953132 
L 324.996783 -199.492288 
L 325.009606 -201.031444 
L 325.02618 -202.570601 
L 325.046503 -204.109757 
L 325.07059 -205.648913 
L 325.098477 -207.18807 
L 325.130213 -208.727226 
L 325.16586 -210.266382 
L 325.205485 -211.805539 
L 325.249161 -213.344695 
L 325.296952 -214.883851 
L 325.348918 -216.423008 
L 325.4051 -217.962164 
L 325.465521 -219.50132 
L 325.530174 -221.040477 
L 325.599024 -222.579633 
L 325.671995 -224.118789 
L 325.748974 -225.657946 
L 325.829803 -227.197102 
L 325.914279 -228.736258 
L 326.002153 -230.275415 
L 326.093132 -231.814571 
L 326.186877 -233.353727 
L 326.28301 -234.892884 
L 326.381117 -236.43204 
L 326.480751 -237.971196 
L 326.581441 -239.510353 
L 326.6827 -241.049509 
L 326.784027 -242.588665 
L 326.884919 -244.127822 
L 326.98488 -245.666978 
L 327.083425 -247.206134 
L 327.180089 -248.745291 
L 327.274435 -250.284447 
L 327.366057 -251.823603 
L 327.454592 -253.36276 
L 327.539716 -254.901916 
L 327.621151 -256.441072 
L 327.698671 -257.980229 
L 327.772097 -259.519385 
L 327.8413 -261.058541 
L 327.9062 -262.597698 
L 327.966764 -264.136854 
L 328.023003 -265.67601 
L 328.07497 -267.215167 
L 328.122753 -268.754323 
L 328.166475 -270.293479 
L 328.206286 -271.832636 
L 328.24236 -273.371792 
L 328.754258 -273.371792 
L 328.754258 -273.371792 
L 328.790332 -271.832636 
L 328.830143 -270.293479 
L 328.873865 -268.754323 
L 328.921648 -267.215167 
L 328.973615 -265.67601 
L 329.029854 -264.136854 
L 329.090418 -262.597698 
L 329.155318 -261.058541 
L 329.224521 -259.519385 
L 329.297947 -257.980229 
L 329.375467 -256.441072 
L 329.456902 -254.901916 
L 329.542026 -253.36276 
L 329.630561 -251.823603 
L 329.722184 -250.284447 
L 329.816529 -248.745291 
L 329.913193 -247.206134 
L 330.011738 -245.666978 
L 330.111699 -244.127822 
L 330.212592 -242.588665 
L 330.313918 -241.049509 
L 330.415177 -239.510353 
L 330.515867 -237.971196 
L 330.615501 -236.43204 
L 330.713608 -234.892884 
L 330.809741 -233.353727 
L 330.903486 -231.814571 
L 330.994465 -230.275415 
L 331.082339 -228.736258 
L 331.166815 -227.197102 
L 331.247644 -225.657946 
L 331.324623 -224.118789 
L 331.397594 -222.579633 
L 331.466444 -221.040477 
L 331.531097 -219.50132 
L 331.591518 -217.962164 
L 331.6477 -216.423008 
L 331.699666 -214.883851 
L 331.747457 -213.344695 
L 331.791133 -211.805539 
L 331.830759 -210.266382 
L 331.866405 -208.727226 
L 331.898141 -207.18807 
L 331.926028 -205.648913 
L 331.950115 -204.109757 
L 331.970438 -202.570601 
L 331.987012 -201.031444 
L 331.999835 -199.492288 
L 332.008882 -197.953132 
L 332.014106 -196.413975 
L 332.015441 -194.874819 
L 332.0128 -193.335663 
L 332.006079 -191.796506 
L 331.995159 -190.25735 
L 331.979912 -188.718194 
L 331.960201 -187.179037 
L 331.935892 -185.639881 
L 331.906849 -184.100724 
L 331.87295 -182.561568 
L 331.834084 -181.022412 
L 331.790163 -179.483255 
L 331.741124 -177.944099 
L 331.686935 -176.404943 
L 331.6276 -174.865786 
L 331.563164 -173.32663 
L 331.493716 -171.787474 
L 331.41939 -170.248317 
L 331.340371 -168.709161 
L 331.256893 -167.170005 
L 331.16924 -165.630848 
L 331.077742 -164.091692 
L 330.982777 -162.552536 
L 330.884764 -161.013379 
L 330.784161 -159.474223 
L 330.681456 -157.935067 
L 330.577165 -156.39591 
L 330.471821 -154.856754 
L 330.365969 -153.317598 
L 330.260157 -151.778441 
L 330.15493 -150.239285 
L 330.050819 -148.700129 
L 329.948336 -147.160972 
L 329.847966 -145.621816 
L 329.750159 -144.08266 
L 329.655328 -142.543503 
L 329.563842 -141.004347 
L 329.476022 -139.465191 
L 329.39214 -137.926034 
L 329.312414 -136.386878 
L 329.237012 -134.847722 
L 329.166051 -133.308565 
L 329.099595 -131.769409 
L 329.037662 -130.230253 
L 328.980227 -128.691096 
L 328.92722 -127.15194 
L 328.878538 -125.612784 
L 328.834044 -124.073627 
L 328.793573 -122.534471 
L 328.756938 -120.995315 
z
" style="stroke: #3d3d3d; stroke-width: 1.5"/>
    </defs>
    <g clip-path="url(#p5519a81fb6)">
     <use xlink:href="#m82fb49fb14" x="0" y="393.011865" style="fill: #3274a1; stroke: #3d3d3d; stroke-width: 1.5"/>
    </g>
   </g>
   <g id="PolyCollection_7">
    <defs>
     <path id="m7fde3ba837" d="M 368.465609 -116.67774 
L 367.891009 -116.67774 
L 367.851476 -118.004912 
L 367.808024 -119.332083 
L 367.760507 -120.659254 
L 367.708807 -121.986425 
L 367.652844 -123.313596 
L 367.592577 -124.640767 
L 367.52801 -125.967938 
L 367.459197 -127.295109 
L 367.386243 -128.62228 
L 367.309306 -129.949451 
L 367.228598 -131.276622 
L 367.144385 -132.603794 
L 367.056985 -133.930965 
L 366.966763 -135.258136 
L 366.874128 -136.585307 
L 366.779526 -137.912478 
L 366.683433 -139.239649 
L 366.586344 -140.56682 
L 366.488768 -141.893991 
L 366.39121 -143.221162 
L 366.294166 -144.548333 
L 366.198111 -145.875504 
L 366.103485 -147.202676 
L 366.010684 -148.529847 
L 365.920053 -149.857018 
L 365.831874 -151.184189 
L 365.74636 -152.51136 
L 365.663652 -153.838531 
L 365.583819 -155.165702 
L 365.506849 -156.492873 
L 365.432664 -157.820044 
L 365.361112 -159.147215 
L 365.291985 -160.474387 
L 365.225023 -161.801558 
L 365.159926 -163.128729 
L 365.096368 -164.4559 
L 365.034015 -165.783071 
L 364.972534 -167.110242 
L 364.911613 -168.437413 
L 364.850978 -169.764584 
L 364.790404 -171.091755 
L 364.729733 -172.418926 
L 364.668883 -173.746097 
L 364.607859 -175.073269 
L 364.546762 -176.40044 
L 364.485792 -177.727611 
L 364.425252 -179.054782 
L 364.365544 -180.381953 
L 364.307165 -181.709124 
L 364.250702 -183.036295 
L 364.196818 -184.363466 
L 364.146242 -185.690637 
L 364.099754 -187.017808 
L 364.058164 -188.344979 
L 364.022298 -189.672151 
L 363.992976 -190.999322 
L 363.970995 -192.326493 
L 363.957107 -193.653664 
L 363.952003 -194.980835 
L 363.956295 -196.308006 
L 363.970497 -197.635177 
L 363.995019 -198.962348 
L 364.030149 -200.289519 
L 364.076049 -201.61669 
L 364.132748 -202.943861 
L 364.200138 -204.271033 
L 364.277979 -205.598204 
L 364.365898 -206.925375 
L 364.463399 -208.252546 
L 364.569867 -209.579717 
L 364.684584 -210.906888 
L 364.806738 -212.234059 
L 364.935442 -213.56123 
L 365.069744 -214.888401 
L 365.208647 -216.215572 
L 365.351128 -217.542744 
L 365.496148 -218.869915 
L 365.642675 -220.197086 
L 365.789697 -221.524257 
L 365.936234 -222.851428 
L 366.081356 -224.178599 
L 366.224193 -225.50577 
L 366.36394 -226.832941 
L 366.499874 -228.160112 
L 366.631352 -229.487283 
L 366.757818 -230.814454 
L 366.878807 -232.141626 
L 366.993943 -233.468797 
L 367.102938 -234.795968 
L 367.205593 -236.123139 
L 367.301786 -237.45031 
L 367.391476 -238.777481 
L 367.474689 -240.104652 
L 367.551516 -241.431823 
L 367.622106 -242.758994 
L 367.686653 -244.086165 
L 367.745396 -245.413336 
L 367.798602 -246.740508 
L 367.846569 -248.067679 
L 368.510049 -248.067679 
L 368.510049 -248.067679 
L 368.558016 -246.740508 
L 368.611223 -245.413336 
L 368.669965 -244.086165 
L 368.734512 -242.758994 
L 368.805102 -241.431823 
L 368.881929 -240.104652 
L 368.965142 -238.777481 
L 369.054832 -237.45031 
L 369.151025 -236.123139 
L 369.25368 -234.795968 
L 369.362675 -233.468797 
L 369.477811 -232.141626 
L 369.5988 -230.814454 
L 369.725267 -229.487283 
L 369.856744 -228.160112 
L 369.992678 -226.832941 
L 370.132426 -225.50577 
L 370.275262 -224.178599 
L 370.420384 -222.851428 
L 370.566921 -221.524257 
L 370.713943 -220.197086 
L 370.86047 -218.869915 
L 371.00549 -217.542744 
L 371.147971 -216.215572 
L 371.286874 -214.888401 
L 371.421176 -213.56123 
L 371.54988 -212.234059 
L 371.672034 -210.906888 
L 371.786751 -209.579717 
L 371.893219 -208.252546 
L 371.99072 -206.925375 
L 372.078639 -205.598204 
L 372.15648 -204.271033 
L 372.22387 -202.943861 
L 372.280569 -201.61669 
L 372.326469 -200.289519 
L 372.361599 -198.962348 
L 372.386121 -197.635177 
L 372.400324 -196.308006 
L 372.404615 -194.980835 
L 372.399511 -193.653664 
L 372.385623 -192.326493 
L 372.363642 -190.999322 
L 372.334321 -189.672151 
L 372.298454 -188.344979 
L 372.256864 -187.017808 
L 372.210376 -185.690637 
L 372.1598 -184.363466 
L 372.105916 -183.036295 
L 372.049453 -181.709124 
L 371.991074 -180.381953 
L 371.931366 -179.054782 
L 371.870826 -177.727611 
L 371.809856 -176.40044 
L 371.748759 -175.073269 
L 371.687735 -173.746097 
L 371.626885 -172.418926 
L 371.566214 -171.091755 
L 371.50564 -169.764584 
L 371.445005 -168.437413 
L 371.384085 -167.110242 
L 371.322603 -165.783071 
L 371.26025 -164.4559 
L 371.196693 -163.128729 
L 371.131595 -161.801558 
L 371.064633 -160.474387 
L 370.995506 -159.147215 
L 370.923954 -157.820044 
L 370.849769 -156.492873 
L 370.7728 -155.165702 
L 370.692966 -153.838531 
L 370.610259 -152.51136 
L 370.524744 -151.184189 
L 370.436565 -149.857018 
L 370.345934 -148.529847 
L 370.253133 -147.202676 
L 370.158507 -145.875504 
L 370.062452 -144.548333 
L 369.965408 -143.221162 
L 369.86785 -141.893991 
L 369.770274 -140.56682 
L 369.673185 -139.239649 
L 369.577092 -137.912478 
L 369.48249 -136.585307 
L 369.389855 -135.258136 
L 369.299633 -133.930965 
L 369.212233 -132.603794 
L 369.12802 -131.276622 
L 369.047312 -129.949451 
L 368.970375 -128.62228 
L 368.897421 -127.295109 
L 368.828608 -125.967938 
L 368.764041 -124.640767 
L 368.703774 -123.313596 
L 368.647811 -121.986425 
L 368.596111 -120.659254 
L 368.548594 -119.332083 
L 368.505142 -118.004912 
L 368.465609 -116.67774 
z
" style="stroke: #3d3d3d; stroke-width: 1.5"/>
    </defs>
    <g clip-path="url(#p5519a81fb6)">
     <use xlink:href="#m7fde3ba837" x="0" y="393.011865" style="fill: #d684bd; stroke: #3d3d3d; stroke-width: 1.5"/>
    </g>
   </g>
   <g id="PolyCollection_8">
    <defs>
     <path id="m2b686a537a" d="M 408.153598 -126.65777 
L 407.56302 -126.65777 
L 407.520724 -128.05216 
L 407.473892 -129.44655 
L 407.422282 -130.84094 
L 407.365675 -132.23533 
L 407.303882 -133.62972 
L 407.236748 -135.02411 
L 407.164161 -136.4185 
L 407.086056 -137.81289 
L 407.002418 -139.20728 
L 406.913291 -140.60167 
L 406.818782 -141.99606 
L 406.719058 -143.390451 
L 406.614357 -144.784841 
L 406.504983 -146.179231 
L 406.391308 -147.573621 
L 406.27377 -148.968011 
L 406.152871 -150.362401 
L 406.029175 -151.756791 
L 405.903297 -153.151181 
L 405.775904 -154.545571 
L 405.647699 -155.939961 
L 405.519421 -157.334351 
L 405.391827 -158.728741 
L 405.26569 -160.123131 
L 405.14178 -161.517521 
L 405.02086 -162.911911 
L 404.903669 -164.306301 
L 404.790918 -165.700691 
L 404.683272 -167.095081 
L 404.581346 -168.489471 
L 404.485694 -169.883861 
L 404.396801 -171.278251 
L 404.315077 -172.672641 
L 404.240854 -174.067031 
L 404.174379 -175.461421 
L 404.115812 -176.855811 
L 404.06523 -178.250201 
L 404.022627 -179.644591 
L 403.987914 -181.038981 
L 403.960927 -182.433371 
L 403.941434 -183.827761 
L 403.929139 -185.222152 
L 403.923694 -186.616542 
L 403.92471 -188.010932 
L 403.931764 -189.405322 
L 403.944411 -190.799712 
L 403.962199 -192.194102 
L 403.984677 -193.588492 
L 404.011405 -194.982882 
L 404.041966 -196.377272 
L 404.075978 -197.771662 
L 404.113096 -199.166052 
L 404.153022 -200.560442 
L 404.195512 -201.954832 
L 404.240373 -203.349222 
L 404.287471 -204.743612 
L 404.336726 -206.138002 
L 404.388109 -207.532392 
L 404.441642 -208.926782 
L 404.497387 -210.321172 
L 404.555439 -211.715562 
L 404.61592 -213.109952 
L 404.678967 -214.504342 
L 404.744722 -215.898732 
L 404.813321 -217.293122 
L 404.884886 -218.687512 
L 404.959513 -220.081902 
L 405.037262 -221.476292 
L 405.118152 -222.870682 
L 405.202154 -224.265072 
L 405.289184 -225.659463 
L 405.379102 -227.053853 
L 405.471712 -228.448243 
L 405.56676 -229.842633 
L 405.663939 -231.237023 
L 405.76289 -232.631413 
L 405.863214 -234.025803 
L 405.964472 -235.420193 
L 406.066198 -236.814583 
L 406.167907 -238.208973 
L 406.269103 -239.603363 
L 406.36929 -240.997753 
L 406.467979 -242.392143 
L 406.564702 -243.786533 
L 406.659015 -245.180923 
L 406.750506 -246.575313 
L 406.838806 -247.969703 
L 406.923587 -249.364093 
L 407.004573 -250.758483 
L 407.081536 -252.152873 
L 407.154302 -253.547263 
L 407.222749 -254.941653 
L 407.286806 -256.336043 
L 407.346449 -257.730433 
L 407.401702 -259.124823 
L 407.452631 -260.519213 
L 407.499339 -261.913603 
L 407.541962 -263.307993 
L 407.580664 -264.702383 
L 408.135955 -264.702383 
L 408.135955 -264.702383 
L 408.174656 -263.307993 
L 408.217279 -261.913603 
L 408.263987 -260.519213 
L 408.314916 -259.124823 
L 408.370169 -257.730433 
L 408.429813 -256.336043 
L 408.493869 -254.941653 
L 408.562316 -253.547263 
L 408.635082 -252.152873 
L 408.712045 -250.758483 
L 408.793031 -249.364093 
L 408.877813 -247.969703 
L 408.966112 -246.575313 
L 409.057604 -245.180923 
L 409.151916 -243.786533 
L 409.248639 -242.392143 
L 409.347328 -240.997753 
L 409.447515 -239.603363 
L 409.548711 -238.208973 
L 409.65042 -236.814583 
L 409.752146 -235.420193 
L 409.853404 -234.025803 
L 409.953728 -232.631413 
L 410.052679 -231.237023 
L 410.149858 -229.842633 
L 410.244906 -228.448243 
L 410.337516 -227.053853 
L 410.427434 -225.659463 
L 410.514464 -224.265072 
L 410.598466 -222.870682 
L 410.679356 -221.476292 
L 410.757105 -220.081902 
L 410.831732 -218.687512 
L 410.903297 -217.293122 
L 410.971897 -215.898732 
L 411.037651 -214.504342 
L 411.100698 -213.109952 
L 411.161179 -211.715562 
L 411.219231 -210.321172 
L 411.274976 -208.926782 
L 411.328509 -207.532392 
L 411.379892 -206.138002 
L 411.429147 -204.743612 
L 411.476245 -203.349222 
L 411.521106 -201.954832 
L 411.563596 -200.560442 
L 411.603522 -199.166052 
L 411.64064 -197.771662 
L 411.674652 -196.377272 
L 411.705213 -194.982882 
L 411.731941 -193.588492 
L 411.754419 -192.194102 
L 411.772207 -190.799712 
L 411.784854 -189.405322 
L 411.791908 -188.010932 
L 411.792924 -186.616542 
L 411.787479 -185.222152 
L 411.775184 -183.827761 
L 411.755691 -182.433371 
L 411.728704 -181.038981 
L 411.693991 -179.644591 
L 411.651388 -178.250201 
L 411.600806 -176.855811 
L 411.54224 -175.461421 
L 411.475764 -174.067031 
L 411.401541 -172.672641 
L 411.319817 -171.278251 
L 411.230925 -169.883861 
L 411.135273 -168.489471 
L 411.033347 -167.095081 
L 410.9257 -165.700691 
L 410.812949 -164.306301 
L 410.695759 -162.911911 
L 410.574838 -161.517521 
L 410.450928 -160.123131 
L 410.324791 -158.728741 
L 410.197197 -157.334351 
L 410.068919 -155.939961 
L 409.940715 -154.545571 
L 409.813321 -153.151181 
L 409.687443 -151.756791 
L 409.563747 -150.362401 
L 409.442848 -148.968011 
L 409.32531 -147.573621 
L 409.211635 -146.179231 
L 409.102261 -144.784841 
L 408.99756 -143.390451 
L 408.897836 -141.99606 
L 408.803327 -140.60167 
L 408.7142 -139.20728 
L 408.630563 -137.81289 
L 408.552457 -136.4185 
L 408.47987 -135.02411 
L 408.412736 -133.62972 
L 408.350943 -132.23533 
L 408.294336 -130.84094 
L 408.242726 -129.44655 
L 408.195894 -128.05216 
L 408.153598 -126.65777 
z
" style="stroke: #3d3d3d; stroke-width: 1.5"/>
    </defs>
    <g clip-path="url(#p5519a81fb6)">
     <use xlink:href="#m2b686a537a" x="0" y="393.011865" style="fill: #f2a5a3; stroke: #3d3d3d; stroke-width: 1.5"/>
    </g>
   </g>
   <g id="PolyCollection_9">
    <defs>
     <path id="m67d94aea51" d="M 448.291684 -154.916675 
L 446.784934 -154.916675 
L 446.694802 -155.581203 
L 446.596841 -156.245731 
L 446.490782 -156.910259 
L 446.376398 -157.574787 
L 446.253518 -158.239315 
L 446.122029 -158.903844 
L 445.981883 -159.568372 
L 445.833104 -160.2329 
L 445.675793 -160.897428 
L 445.510134 -161.561956 
L 445.336392 -162.226484 
L 445.15492 -162.891012 
L 444.966159 -163.55554 
L 444.770635 -164.220068 
L 444.568958 -164.884597 
L 444.361816 -165.549125 
L 444.149976 -166.213653 
L 443.934267 -166.878181 
L 443.715579 -167.542709 
L 443.494851 -168.207237 
L 443.273058 -168.871765 
L 443.051201 -169.536293 
L 442.830294 -170.200821 
L 442.611351 -170.86535 
L 442.395369 -171.529878 
L 442.183319 -172.194406 
L 441.976134 -172.858934 
L 441.774691 -173.523462 
L 441.579807 -174.18799 
L 441.392226 -174.852518 
L 441.212611 -175.517046 
L 441.041539 -176.181574 
L 440.879498 -176.846103 
L 440.726886 -177.510631 
L 440.584008 -178.175159 
L 440.451083 -178.839687 
L 440.328246 -179.504215 
L 440.215554 -180.168743 
L 440.113001 -180.833271 
L 440.020518 -181.497799 
L 439.937992 -182.162327 
L 439.865273 -182.826856 
L 439.802192 -183.491384 
L 439.748564 -184.155912 
L 439.704209 -184.82044 
L 439.668956 -185.484968 
L 439.642658 -186.149496 
L 439.625196 -186.814024 
L 439.616485 -187.478552 
L 439.616485 -188.14308 
L 439.625196 -188.807609 
L 439.642658 -189.472137 
L 439.668956 -190.136665 
L 439.704209 -190.801193 
L 439.748564 -191.465721 
L 439.802192 -192.130249 
L 439.865273 -192.794777 
L 439.937992 -193.459305 
L 440.020518 -194.123833 
L 440.113001 -194.788361 
L 440.215554 -195.45289 
L 440.328246 -196.117418 
L 440.451083 -196.781946 
L 440.584008 -197.446474 
L 440.726886 -198.111002 
L 440.879498 -198.77553 
L 441.041539 -199.440058 
L 441.212611 -200.104586 
L 441.392226 -200.769114 
L 441.579807 -201.433643 
L 441.774691 -202.098171 
L 441.976134 -202.762699 
L 442.183319 -203.427227 
L 442.395369 -204.091755 
L 442.611351 -204.756283 
L 442.830294 -205.420811 
L 443.051201 -206.085339 
L 443.273058 -206.749867 
L 443.494851 -207.414396 
L 443.715579 -208.078924 
L 443.934267 -208.743452 
L 444.149976 -209.40798 
L 444.361816 -210.072508 
L 444.568958 -210.737036 
L 444.770635 -211.401564 
L 444.966159 -212.066092 
L 445.15492 -212.73062 
L 445.336392 -213.395149 
L 445.510134 -214.059677 
L 445.675793 -214.724205 
L 445.833104 -215.388733 
L 445.981883 -216.053261 
L 446.122029 -216.717789 
L 446.253518 -217.382317 
L 446.376398 -218.046845 
L 446.490782 -218.711373 
L 446.596841 -219.375902 
L 446.694802 -220.04043 
L 446.784934 -220.704958 
L 448.291684 -220.704958 
L 448.291684 -220.704958 
L 448.381816 -220.04043 
L 448.479777 -219.375902 
L 448.585836 -218.711373 
L 448.70022 -218.046845 
L 448.8231 -217.382317 
L 448.954589 -216.717789 
L 449.094735 -216.053261 
L 449.243514 -215.388733 
L 449.400825 -214.724205 
L 449.566484 -214.059677 
L 449.740226 -213.395149 
L 449.921698 -212.73062 
L 450.110459 -212.066092 
L 450.305983 -211.401564 
L 450.507661 -210.737036 
L 450.714802 -210.072508 
L 450.926642 -209.40798 
L 451.142351 -208.743452 
L 451.361039 -208.078924 
L 451.581768 -207.414396 
L 451.803561 -206.749867 
L 452.025417 -206.085339 
L 452.246324 -205.420811 
L 452.465267 -204.756283 
L 452.68125 -204.091755 
L 452.893299 -203.427227 
L 453.100484 -202.762699 
L 453.301927 -202.098171 
L 453.496811 -201.433643 
L 453.684392 -200.769114 
L 453.864008 -200.104586 
L 454.03508 -199.440058 
L 454.19712 -198.77553 
L 454.349732 -198.111002 
L 454.49261 -197.446474 
L 454.625535 -196.781946 
L 454.748373 -196.117418 
L 454.861064 -195.45289 
L 454.963617 -194.788361 
L 455.0561 -194.123833 
L 455.138627 -193.459305 
L 455.211345 -192.794777 
L 455.274426 -192.130249 
L 455.328054 -191.465721 
L 455.372409 -190.801193 
L 455.407662 -190.136665 
L 455.43396 -189.472137 
L 455.451423 -188.807609 
L 455.460133 -188.14308 
L 455.460133 -187.478552 
L 455.451423 -186.814024 
L 455.43396 -186.149496 
L 455.407662 -185.484968 
L 455.372409 -184.82044 
L 455.328054 -184.155912 
L 455.274426 -183.491384 
L 455.211345 -182.826856 
L 455.138627 -182.162327 
L 455.0561 -181.497799 
L 454.963617 -180.833271 
L 454.861064 -180.168743 
L 454.748373 -179.504215 
L 454.625535 -178.839687 
L 454.49261 -178.175159 
L 454.349732 -177.510631 
L 454.19712 -176.846103 
L 454.03508 -176.181574 
L 453.864008 -175.517046 
L 453.684392 -174.852518 
L 453.496811 -174.18799 
L 453.301927 -173.523462 
L 453.100484 -172.858934 
L 452.893299 -172.194406 
L 452.68125 -171.529878 
L 452.465267 -170.86535 
L 452.246324 -170.200821 
L 452.025417 -169.536293 
L 451.803561 -168.871765 
L 451.581768 -168.207237 
L 451.361039 -167.542709 
L 451.142351 -166.878181 
L 450.926642 -166.213653 
L 450.714802 -165.549125 
L 450.507661 -164.884597 
L 450.305983 -164.220068 
L 450.110459 -163.55554 
L 449.921698 -162.891012 
L 449.740226 -162.226484 
L 449.566484 -161.561956 
L 449.400825 -160.897428 
L 449.243514 -160.2329 
L 449.094735 -159.568372 
L 448.954589 -158.903844 
L 448.8231 -158.239315 
L 448.70022 -157.574787 
L 448.585836 -156.910259 
L 448.479777 -156.245731 
L 448.381816 -155.581203 
L 448.291684 -154.916675 
z
" style="stroke: #3d3d3d; stroke-width: 1.5"/>
    </defs>
    <g clip-path="url(#p5519a81fb6)">
     <use xlink:href="#m67d94aea51" x="0" y="393.011865" style="fill: #e1812c; stroke: #3d3d3d; stroke-width: 1.5"/>
    </g>
   </g>
   <g id="matplotlib.axis_1">
    <g id="xtick_1">
     <g id="line2d_1">
      <defs>
       <path id="ma08971d2c3" d="M 0 0 
L 0 3.5 
" style="stroke: #000000; stroke-width: 0.8"/>
      </defs>
      <g>
       <use xlink:href="#ma08971d2c3" x="130.098309" y="288.430125" style="stroke: #000000; stroke-width: 0.8"/>
      </g>
     </g>
     <g id="text_1">
      <!-- aflplusplus_ast_opt_disable -->
      <g transform="translate(10.999219 370.091815)rotate(-30)scale(0.1 -0.1)">
       <defs>
        <path id="DejaVuSans-61" d="M 2194 1759 
Q 1497 1759 1228 1600 
Q 959 1441 959 1056 
Q 959 750 1161 570 
Q 1363 391 1709 391 
Q 2188 391 2477 730 
Q 2766 1069 2766 1631 
L 2766 1759 
L 2194 1759 
z
M 3341 1997 
L 3341 0 
L 2766 0 
L 2766 531 
Q 2569 213 2275 61 
Q 1981 -91 1556 -91 
Q 1019 -91 701 211 
Q 384 513 384 1019 
Q 384 1609 779 1909 
Q 1175 2209 1959 2209 
L 2766 2209 
L 2766 2266 
Q 2766 2663 2505 2880 
Q 2244 3097 1772 3097 
Q 1472 3097 1187 3025 
Q 903 2953 641 2809 
L 641 3341 
Q 956 3463 1253 3523 
Q 1550 3584 1831 3584 
Q 2591 3584 2966 3190 
Q 3341 2797 3341 1997 
z
" transform="scale(0.015625)"/>
        <path id="DejaVuSans-66" d="M 2375 4863 
L 2375 4384 
L 1825 4384 
Q 1516 4384 1395 4259 
Q 1275 4134 1275 3809 
L 1275 3500 
L 2222 3500 
L 2222 3053 
L 1275 3053 
L 1275 0 
L 697 0 
L 697 3053 
L 147 3053 
L 147 3500 
L 697 3500 
L 697 3744 
Q 697 4328 969 4595 
Q 1241 4863 1831 4863 
L 2375 4863 
z
" transform="scale(0.015625)"/>
        <path id="DejaVuSans-6c" d="M 603 4863 
L 1178 4863 
L 1178 0 
L 603 0 
L 603 4863 
z
" transform="scale(0.015625)"/>
        <path id="DejaVuSans-70" d="M 1159 525 
L 1159 -1331 
L 581 -1331 
L 581 3500 
L 1159 3500 
L 1159 2969 
Q 1341 3281 1617 3432 
Q 1894 3584 2278 3584 
Q 2916 3584 3314 3078 
Q 3713 2572 3713 1747 
Q 3713 922 3314 415 
Q 2916 -91 2278 -91 
Q 1894 -91 1617 61 
Q 1341 213 1159 525 
z
M 3116 1747 
Q 3116 2381 2855 2742 
Q 2594 3103 2138 3103 
Q 1681 3103 1420 2742 
Q 1159 2381 1159 1747 
Q 1159 1113 1420 752 
Q 1681 391 2138 391 
Q 2594 391 2855 752 
Q 3116 1113 3116 1747 
z
" transform="scale(0.015625)"/>
        <path id="DejaVuSans-75" d="M 544 1381 
L 544 3500 
L 1119 3500 
L 1119 1403 
Q 1119 906 1312 657 
Q 1506 409 1894 409 
Q 2359 409 2629 706 
Q 2900 1003 2900 1516 
L 2900 3500 
L 3475 3500 
L 3475 0 
L 2900 0 
L 2900 538 
Q 2691 219 2414 64 
Q 2138 -91 1772 -91 
Q 1169 -91 856 284 
Q 544 659 544 1381 
z
M 1991 3584 
L 1991 3584 
z
" transform="scale(0.015625)"/>
        <path id="DejaVuSans-73" d="M 2834 3397 
L 2834 2853 
Q 2591 2978 2328 3040 
Q 2066 3103 1784 3103 
Q 1356 3103 1142 2972 
Q 928 2841 928 2578 
Q 928 2378 1081 2264 
Q 1234 2150 1697 2047 
L 1894 2003 
Q 2506 1872 2764 1633 
Q 3022 1394 3022 966 
Q 3022 478 2636 193 
Q 2250 -91 1575 -91 
Q 1294 -91 989 -36 
Q 684 19 347 128 
L 347 722 
Q 666 556 975 473 
Q 1284 391 1588 391 
Q 1994 391 2212 530 
Q 2431 669 2431 922 
Q 2431 1156 2273 1281 
Q 2116 1406 1581 1522 
L 1381 1569 
Q 847 1681 609 1914 
Q 372 2147 372 2553 
Q 372 3047 722 3315 
Q 1072 3584 1716 3584 
Q 2034 3584 2315 3537 
Q 2597 3491 2834 3397 
z
" transform="scale(0.015625)"/>
        <path id="DejaVuSans-5f" d="M 3263 -1063 
L 3263 -1509 
L -63 -1509 
L -63 -1063 
L 3263 -1063 
z
" transform="scale(0.015625)"/>
        <path id="DejaVuSans-74" d="M 1172 4494 
L 1172 3500 
L 2356 3500 
L 2356 3053 
L 1172 3053 
L 1172 1153 
Q 1172 725 1289 603 
Q 1406 481 1766 481 
L 2356 481 
L 2356 0 
L 1766 0 
Q 1100 0 847 248 
Q 594 497 594 1153 
L 594 3053 
L 172 3053 
L 172 3500 
L 594 3500 
L 594 4494 
L 1172 4494 
z
" transform="scale(0.015625)"/>
        <path id="DejaVuSans-6f" d="M 1959 3097 
Q 1497 3097 1228 2736 
Q 959 2375 959 1747 
Q 959 1119 1226 758 
Q 1494 397 1959 397 
Q 2419 397 2687 759 
Q 2956 1122 2956 1747 
Q 2956 2369 2687 2733 
Q 2419 3097 1959 3097 
z
M 1959 3584 
Q 2709 3584 3137 3096 
Q 3566 2609 3566 1747 
Q 3566 888 3137 398 
Q 2709 -91 1959 -91 
Q 1206 -91 779 398 
Q 353 888 353 1747 
Q 353 2609 779 3096 
Q 1206 3584 1959 3584 
z
" transform="scale(0.015625)"/>
        <path id="DejaVuSans-64" d="M 2906 2969 
L 2906 4863 
L 3481 4863 
L 3481 0 
L 2906 0 
L 2906 525 
Q 2725 213 2448 61 
Q 2172 -91 1784 -91 
Q 1150 -91 751 415 
Q 353 922 353 1747 
Q 353 2572 751 3078 
Q 1150 3584 1784 3584 
Q 2172 3584 2448 3432 
Q 2725 3281 2906 2969 
z
M 947 1747 
Q 947 1113 1208 752 
Q 1469 391 1925 391 
Q 2381 391 2643 752 
Q 2906 1113 2906 1747 
Q 2906 2381 2643 2742 
Q 2381 3103 1925 3103 
Q 1469 3103 1208 2742 
Q 947 2381 947 1747 
z
" transform="scale(0.015625)"/>
        <path id="DejaVuSans-69" d="M 603 3500 
L 1178 3500 
L 1178 0 
L 603 0 
L 603 3500 
z
M 603 4863 
L 1178 4863 
L 1178 4134 
L 603 4134 
L 603 4863 
z
" transform="scale(0.015625)"/>
        <path id="DejaVuSans-62" d="M 3116 1747 
Q 3116 2381 2855 2742 
Q 2594 3103 2138 3103 
Q 1681 3103 1420 2742 
Q 1159 2381 1159 1747 
Q 1159 1113 1420 752 
Q 1681 391 2138 391 
Q 2594 391 2855 752 
Q 3116 1113 3116 1747 
z
M 1159 2969 
Q 1341 3281 1617 3432 
Q 1894 3584 2278 3584 
Q 2916 3584 3314 3078 
Q 3713 2572 3713 1747 
Q 3713 922 3314 415 
Q 2916 -91 2278 -91 
Q 1894 -91 1617 61 
Q 1341 213 1159 525 
L 1159 0 
L 581 0 
L 581 4863 
L 1159 4863 
L 1159 2969 
z
" transform="scale(0.015625)"/>
        <path id="DejaVuSans-65" d="M 3597 1894 
L 3597 1613 
L 953 1613 
Q 991 1019 1311 708 
Q 1631 397 2203 397 
Q 2534 397 2845 478 
Q 3156 559 3463 722 
L 3463 178 
Q 3153 47 2828 -22 
Q 2503 -91 2169 -91 
Q 1331 -91 842 396 
Q 353 884 353 1716 
Q 353 2575 817 3079 
Q 1281 3584 2069 3584 
Q 2775 3584 3186 3129 
Q 3597 2675 3597 1894 
z
M 3022 2063 
Q 3016 2534 2758 2815 
Q 2500 3097 2075 3097 
Q 1594 3097 1305 2825 
Q 1016 2553 972 2059 
L 3022 2063 
z
" transform="scale(0.015625)"/>
       </defs>
       <use xlink:href="#DejaVuSans-61"/>
       <use xlink:href="#DejaVuSans-66" x="61.279297"/>
       <use xlink:href="#DejaVuSans-6c" x="96.484375"/>
       <use xlink:href="#DejaVuSans-70" x="124.267578"/>
       <use xlink:href="#DejaVuSans-6c" x="187.744141"/>
       <use xlink:href="#DejaVuSans-75" x="215.527344"/>
       <use xlink:href="#DejaVuSans-73" x="278.90625"/>
       <use xlink:href="#DejaVuSans-70" x="331.005859"/>
       <use xlink:href="#DejaVuSans-6c" x="394.482422"/>
       <use xlink:href="#DejaVuSans-75" x="422.265625"/>
       <use xlink:href="#DejaVuSans-73" x="485.644531"/>
       <use xlink:href="#DejaVuSans-5f" x="537.744141"/>
       <use xlink:href="#DejaVuSans-61" x="587.744141"/>
       <use xlink:href="#DejaVuSans-73" x="649.023438"/>
       <use xlink:href="#DejaVuSans-74" x="701.123047"/>
       <use xlink:href="#DejaVuSans-5f" x="740.332031"/>
       <use xlink:href="#DejaVuSans-6f" x="790.332031"/>
       <use xlink:href="#DejaVuSans-70" x="851.513672"/>
       <use xlink:href="#DejaVuSans-74" x="914.990234"/>
       <use xlink:href="#DejaVuSans-5f" x="954.199219"/>
       <use xlink:href="#DejaVuSans-64" x="1004.199219"/>
       <use xlink:href="#DejaVuSans-69" x="1067.675781"/>
       <use xlink:href="#DejaVuSans-73" x="1095.458984"/>
       <use xlink:href="#DejaVuSans-61" x="1147.558594"/>
       <use xlink:href="#DejaVuSans-62" x="1208.837891"/>
       <use xlink:href="#DejaVuSans-6c" x="1272.314453"/>
       <use xlink:href="#DejaVuSans-65" x="1300.097656"/>
      </g>
     </g>
    </g>
    <g id="xtick_2">
     <g id="line2d_2">
      <g>
       <use xlink:href="#ma08971d2c3" x="169.778309" y="288.430125" style="stroke: #000000; stroke-width: 0.8"/>
      </g>
     </g>
     <g id="text_2">
      <!-- aflplusplus_ast_opt_l1 -->
      <g transform="translate(73.718201 356.790252)rotate(-30)scale(0.1 -0.1)">
       <defs>
        <path id="DejaVuSans-31" d="M 794 531 
L 1825 531 
L 1825 4091 
L 703 3866 
L 703 4441 
L 1819 4666 
L 2450 4666 
L 2450 531 
L 3481 531 
L 3481 0 
L 794 0 
L 794 531 
z
" transform="scale(0.015625)"/>
       </defs>
       <use xlink:href="#DejaVuSans-61"/>
       <use xlink:href="#DejaVuSans-66" x="61.279297"/>
       <use xlink:href="#DejaVuSans-6c" x="96.484375"/>
       <use xlink:href="#DejaVuSans-70" x="124.267578"/>
       <use xlink:href="#DejaVuSans-6c" x="187.744141"/>
       <use xlink:href="#DejaVuSans-75" x="215.527344"/>
       <use xlink:href="#DejaVuSans-73" x="278.90625"/>
       <use xlink:href="#DejaVuSans-70" x="331.005859"/>
       <use xlink:href="#DejaVuSans-6c" x="394.482422"/>
       <use xlink:href="#DejaVuSans-75" x="422.265625"/>
       <use xlink:href="#DejaVuSans-73" x="485.644531"/>
       <use xlink:href="#DejaVuSans-5f" x="537.744141"/>
       <use xlink:href="#DejaVuSans-61" x="587.744141"/>
       <use xlink:href="#DejaVuSans-73" x="649.023438"/>
       <use xlink:href="#DejaVuSans-74" x="701.123047"/>
       <use xlink:href="#DejaVuSans-5f" x="740.332031"/>
       <use xlink:href="#DejaVuSans-6f" x="790.332031"/>
       <use xlink:href="#DejaVuSans-70" x="851.513672"/>
       <use xlink:href="#DejaVuSans-74" x="914.990234"/>
       <use xlink:href="#DejaVuSans-5f" x="954.199219"/>
       <use xlink:href="#DejaVuSans-6c" x="1004.199219"/>
       <use xlink:href="#DejaVuSans-31" x="1031.982422"/>
      </g>
     </g>
    </g>
    <g id="xtick_3">
     <g id="line2d_3">
      <g>
       <use xlink:href="#ma08971d2c3" x="209.458309" y="288.430125" style="stroke: #000000; stroke-width: 0.8"/>
      </g>
     </g>
     <g id="text_3">
      <!-- aflplusplus_ast_o1 -->
      <g transform="translate(129.027253 347.766815)rotate(-30)scale(0.1 -0.1)">
       <use xlink:href="#DejaVuSans-61"/>
       <use xlink:href="#DejaVuSans-66" x="61.279297"/>
       <use xlink:href="#DejaVuSans-6c" x="96.484375"/>
       <use xlink:href="#DejaVuSans-70" x="124.267578"/>
       <use xlink:href="#DejaVuSans-6c" x="187.744141"/>
       <use xlink:href="#DejaVuSans-75" x="215.527344"/>
       <use xlink:href="#DejaVuSans-73" x="278.90625"/>
       <use xlink:href="#DejaVuSans-70" x="331.005859"/>
       <use xlink:href="#DejaVuSans-6c" x="394.482422"/>
       <use xlink:href="#DejaVuSans-75" x="422.265625"/>
       <use xlink:href="#DejaVuSans-73" x="485.644531"/>
       <use xlink:href="#DejaVuSans-5f" x="537.744141"/>
       <use xlink:href="#DejaVuSans-61" x="587.744141"/>
       <use xlink:href="#DejaVuSans-73" x="649.023438"/>
       <use xlink:href="#DejaVuSans-74" x="701.123047"/>
       <use xlink:href="#DejaVuSans-5f" x="740.332031"/>
       <use xlink:href="#DejaVuSans-6f" x="790.332031"/>
       <use xlink:href="#DejaVuSans-31" x="851.513672"/>
      </g>
     </g>
    </g>
    <g id="xtick_4">
     <g id="line2d_4">
      <g>
       <use xlink:href="#ma08971d2c3" x="249.138309" y="288.430125" style="stroke: #000000; stroke-width: 0.8"/>
      </g>
     </g>
     <g id="text_4">
      <!-- aflplusplus_ast_o0 -->
      <g transform="translate(168.707253 347.766815)rotate(-30)scale(0.1 -0.1)">
       <defs>
        <path id="DejaVuSans-30" d="M 2034 4250 
Q 1547 4250 1301 3770 
Q 1056 3291 1056 2328 
Q 1056 1369 1301 889 
Q 1547 409 2034 409 
Q 2525 409 2770 889 
Q 3016 1369 3016 2328 
Q 3016 3291 2770 3770 
Q 2525 4250 2034 4250 
z
M 2034 4750 
Q 2819 4750 3233 4129 
Q 3647 3509 3647 2328 
Q 3647 1150 3233 529 
Q 2819 -91 2034 -91 
Q 1250 -91 836 529 
Q 422 1150 422 2328 
Q 422 3509 836 4129 
Q 1250 4750 2034 4750 
z
" transform="scale(0.015625)"/>
       </defs>
       <use xlink:href="#DejaVuSans-61"/>
       <use xlink:href="#DejaVuSans-66" x="61.279297"/>
       <use xlink:href="#DejaVuSans-6c" x="96.484375"/>
       <use xlink:href="#DejaVuSans-70" x="124.267578"/>
       <use xlink:href="#DejaVuSans-6c" x="187.744141"/>
       <use xlink:href="#DejaVuSans-75" x="215.527344"/>
       <use xlink:href="#DejaVuSans-73" x="278.90625"/>
       <use xlink:href="#DejaVuSans-70" x="331.005859"/>
       <use xlink:href="#DejaVuSans-6c" x="394.482422"/>
       <use xlink:href="#DejaVuSans-75" x="422.265625"/>
       <use xlink:href="#DejaVuSans-73" x="485.644531"/>
       <use xlink:href="#DejaVuSans-5f" x="537.744141"/>
       <use xlink:href="#DejaVuSans-61" x="587.744141"/>
       <use xlink:href="#DejaVuSans-73" x="649.023438"/>
       <use xlink:href="#DejaVuSans-74" x="701.123047"/>
       <use xlink:href="#DejaVuSans-5f" x="740.332031"/>
       <use xlink:href="#DejaVuSans-6f" x="790.332031"/>
       <use xlink:href="#DejaVuSans-30" x="851.513672"/>
      </g>
     </g>
    </g>
    <g id="xtick_5">
     <g id="line2d_5">
      <g>
       <use xlink:href="#ma08971d2c3" x="288.818309" y="288.430125" style="stroke: #000000; stroke-width: 0.8"/>
      </g>
     </g>
     <g id="text_5">
      <!-- aflplusplus_ast_f1 -->
      <g transform="translate(210.637566 346.467596)rotate(-30)scale(0.1 -0.1)">
       <use xlink:href="#DejaVuSans-61"/>
       <use xlink:href="#DejaVuSans-66" x="61.279297"/>
       <use xlink:href="#DejaVuSans-6c" x="96.484375"/>
       <use xlink:href="#DejaVuSans-70" x="124.267578"/>
       <use xlink:href="#DejaVuSans-6c" x="187.744141"/>
       <use xlink:href="#DejaVuSans-75" x="215.527344"/>
       <use xlink:href="#DejaVuSans-73" x="278.90625"/>
       <use xlink:href="#DejaVuSans-70" x="331.005859"/>
       <use xlink:href="#DejaVuSans-6c" x="394.482422"/>
       <use xlink:href="#DejaVuSans-75" x="422.265625"/>
       <use xlink:href="#DejaVuSans-73" x="485.644531"/>
       <use xlink:href="#DejaVuSans-5f" x="537.744141"/>
       <use xlink:href="#DejaVuSans-61" x="587.744141"/>
       <use xlink:href="#DejaVuSans-73" x="649.023438"/>
       <use xlink:href="#DejaVuSans-74" x="701.123047"/>
       <use xlink:href="#DejaVuSans-5f" x="740.332031"/>
       <use xlink:href="#DejaVuSans-66" x="790.332031"/>
       <use xlink:href="#DejaVuSans-31" x="825.537109"/>
      </g>
     </g>
    </g>
    <g id="xtick_6">
     <g id="line2d_6">
      <g>
       <use xlink:href="#ma08971d2c3" x="328.498309" y="288.430125" style="stroke: #000000; stroke-width: 0.8"/>
      </g>
     </g>
     <g id="text_6">
      <!-- aflplusplus_ast_f0 -->
      <g transform="translate(250.317566 346.467596)rotate(-30)scale(0.1 -0.1)">
       <use xlink:href="#DejaVuSans-61"/>
       <use xlink:href="#DejaVuSans-66" x="61.279297"/>
       <use xlink:href="#DejaVuSans-6c" x="96.484375"/>
       <use xlink:href="#DejaVuSans-70" x="124.267578"/>
       <use xlink:href="#DejaVuSans-6c" x="187.744141"/>
       <use xlink:href="#DejaVuSans-75" x="215.527344"/>
       <use xlink:href="#DejaVuSans-73" x="278.90625"/>
       <use xlink:href="#DejaVuSans-70" x="331.005859"/>
       <use xlink:href="#DejaVuSans-6c" x="394.482422"/>
       <use xlink:href="#DejaVuSans-75" x="422.265625"/>
       <use xlink:href="#DejaVuSans-73" x="485.644531"/>
       <use xlink:href="#DejaVuSans-5f" x="537.744141"/>
       <use xlink:href="#DejaVuSans-61" x="587.744141"/>
       <use xlink:href="#DejaVuSans-73" x="649.023438"/>
       <use xlink:href="#DejaVuSans-74" x="701.123047"/>
       <use xlink:href="#DejaVuSans-5f" x="740.332031"/>
       <use xlink:href="#DejaVuSans-66" x="790.332031"/>
       <use xlink:href="#DejaVuSans-30" x="825.537109"/>
      </g>
     </g>
    </g>
    <g id="xtick_7">
     <g id="line2d_7">
      <g>
       <use xlink:href="#ma08971d2c3" x="368.178309" y="288.430125" style="stroke: #000000; stroke-width: 0.8"/>
      </g>
     </g>
     <g id="text_7">
      <!-- aflplusplus_ast_o3_native -->
      <g transform="translate(256.366011 365.884784)rotate(-30)scale(0.1 -0.1)">
       <defs>
        <path id="DejaVuSans-33" d="M 2597 2516 
Q 3050 2419 3304 2112 
Q 3559 1806 3559 1356 
Q 3559 666 3084 287 
Q 2609 -91 1734 -91 
Q 1441 -91 1130 -33 
Q 819 25 488 141 
L 488 750 
Q 750 597 1062 519 
Q 1375 441 1716 441 
Q 2309 441 2620 675 
Q 2931 909 2931 1356 
Q 2931 1769 2642 2001 
Q 2353 2234 1838 2234 
L 1294 2234 
L 1294 2753 
L 1863 2753 
Q 2328 2753 2575 2939 
Q 2822 3125 2822 3475 
Q 2822 3834 2567 4026 
Q 2313 4219 1838 4219 
Q 1578 4219 1281 4162 
Q 984 4106 628 3988 
L 628 4550 
Q 988 4650 1302 4700 
Q 1616 4750 1894 4750 
Q 2613 4750 3031 4423 
Q 3450 4097 3450 3541 
Q 3450 3153 3228 2886 
Q 3006 2619 2597 2516 
z
" transform="scale(0.015625)"/>
        <path id="DejaVuSans-6e" d="M 3513 2113 
L 3513 0 
L 2938 0 
L 2938 2094 
Q 2938 2591 2744 2837 
Q 2550 3084 2163 3084 
Q 1697 3084 1428 2787 
Q 1159 2491 1159 1978 
L 1159 0 
L 581 0 
L 581 3500 
L 1159 3500 
L 1159 2956 
Q 1366 3272 1645 3428 
Q 1925 3584 2291 3584 
Q 2894 3584 3203 3211 
Q 3513 2838 3513 2113 
z
" transform="scale(0.015625)"/>
        <path id="DejaVuSans-76" d="M 191 3500 
L 800 3500 
L 1894 563 
L 2988 3500 
L 3597 3500 
L 2284 0 
L 1503 0 
L 191 3500 
z
" transform="scale(0.015625)"/>
       </defs>
       <use xlink:href="#DejaVuSans-61"/>
       <use xlink:href="#DejaVuSans-66" x="61.279297"/>
       <use xlink:href="#DejaVuSans-6c" x="96.484375"/>
       <use xlink:href="#DejaVuSans-70" x="124.267578"/>
       <use xlink:href="#DejaVuSans-6c" x="187.744141"/>
       <use xlink:href="#DejaVuSans-75" x="215.527344"/>
       <use xlink:href="#DejaVuSans-73" x="278.90625"/>
       <use xlink:href="#DejaVuSans-70" x="331.005859"/>
       <use xlink:href="#DejaVuSans-6c" x="394.482422"/>
       <use xlink:href="#DejaVuSans-75" x="422.265625"/>
       <use xlink:href="#DejaVuSans-73" x="485.644531"/>
       <use xlink:href="#DejaVuSans-5f" x="537.744141"/>
       <use xlink:href="#DejaVuSans-61" x="587.744141"/>
       <use xlink:href="#DejaVuSans-73" x="649.023438"/>
       <use xlink:href="#DejaVuSans-74" x="701.123047"/>
       <use xlink:href="#DejaVuSans-5f" x="740.332031"/>
       <use xlink:href="#DejaVuSans-6f" x="790.332031"/>
       <use xlink:href="#DejaVuSans-33" x="851.513672"/>
       <use xlink:href="#DejaVuSans-5f" x="915.136719"/>
       <use xlink:href="#DejaVuSans-6e" x="965.136719"/>
       <use xlink:href="#DejaVuSans-61" x="1028.515625"/>
       <use xlink:href="#DejaVuSans-74" x="1089.794922"/>
       <use xlink:href="#DejaVuSans-69" x="1129.003906"/>
       <use xlink:href="#DejaVuSans-76" x="1156.787109"/>
       <use xlink:href="#DejaVuSans-65" x="1215.966797"/>
      </g>
     </g>
    </g>
    <g id="xtick_8">
     <g id="line2d_8">
      <g>
       <use xlink:href="#ma08971d2c3" x="407.858309" y="288.430125" style="stroke: #000000; stroke-width: 0.8"/>
      </g>
     </g>
     <g id="text_8">
      <!-- aflplusplus_ast_o3 -->
      <g transform="translate(327.427253 347.766815)rotate(-30)scale(0.1 -0.1)">
       <use xlink:href="#DejaVuSans-61"/>
       <use xlink:href="#DejaVuSans-66" x="61.279297"/>
       <use xlink:href="#DejaVuSans-6c" x="96.484375"/>
       <use xlink:href="#DejaVuSans-70" x="124.267578"/>
       <use xlink:href="#DejaVuSans-6c" x="187.744141"/>
       <use xlink:href="#DejaVuSans-75" x="215.527344"/>
       <use xlink:href="#DejaVuSans-73" x="278.90625"/>
       <use xlink:href="#DejaVuSans-70" x="331.005859"/>
       <use xlink:href="#DejaVuSans-6c" x="394.482422"/>
       <use xlink:href="#DejaVuSans-75" x="422.265625"/>
       <use xlink:href="#DejaVuSans-73" x="485.644531"/>
       <use xlink:href="#DejaVuSans-5f" x="537.744141"/>
       <use xlink:href="#DejaVuSans-61" x="587.744141"/>
       <use xlink:href="#DejaVuSans-73" x="649.023438"/>
       <use xlink:href="#DejaVuSans-74" x="701.123047"/>
       <use xlink:href="#DejaVuSans-5f" x="740.332031"/>
       <use xlink:href="#DejaVuSans-6f" x="790.332031"/>
       <use xlink:href="#DejaVuSans-33" x="851.513672"/>
      </g>
     </g>
    </g>
    <g id="xtick_9">
     <g id="line2d_9">
      <g>
       <use xlink:href="#ma08971d2c3" x="447.538309" y="288.430125" style="stroke: #000000; stroke-width: 0.8"/>
      </g>
     </g>
     <g id="text_9">
      <!-- aflplusplus_ast_o2 -->
      <g transform="translate(367.107253 347.766815)rotate(-30)scale(0.1 -0.1)">
       <defs>
        <path id="DejaVuSans-32" d="M 1228 531 
L 3431 531 
L 3431 0 
L 469 0 
L 469 531 
Q 828 903 1448 1529 
Q 2069 2156 2228 2338 
Q 2531 2678 2651 2914 
Q 2772 3150 2772 3378 
Q 2772 3750 2511 3984 
Q 2250 4219 1831 4219 
Q 1534 4219 1204 4116 
Q 875 4013 500 3803 
L 500 4441 
Q 881 4594 1212 4672 
Q 1544 4750 1819 4750 
Q 2544 4750 2975 4387 
Q 3406 4025 3406 3419 
Q 3406 3131 3298 2873 
Q 3191 2616 2906 2266 
Q 2828 2175 2409 1742 
Q 1991 1309 1228 531 
z
" transform="scale(0.015625)"/>
       </defs>
       <use xlink:href="#DejaVuSans-61"/>
       <use xlink:href="#DejaVuSans-66" x="61.279297"/>
       <use xlink:href="#DejaVuSans-6c" x="96.484375"/>
       <use xlink:href="#DejaVuSans-70" x="124.267578"/>
       <use xlink:href="#DejaVuSans-6c" x="187.744141"/>
       <use xlink:href="#DejaVuSans-75" x="215.527344"/>
       <use xlink:href="#DejaVuSans-73" x="278.90625"/>
       <use xlink:href="#DejaVuSans-70" x="331.005859"/>
       <use xlink:href="#DejaVuSans-6c" x="394.482422"/>
       <use xlink:href="#DejaVuSans-75" x="422.265625"/>
       <use xlink:href="#DejaVuSans-73" x="485.644531"/>
       <use xlink:href="#DejaVuSans-5f" x="537.744141"/>
       <use xlink:href="#DejaVuSans-61" x="587.744141"/>
       <use xlink:href="#DejaVuSans-73" x="649.023438"/>
       <use xlink:href="#DejaVuSans-74" x="701.123047"/>
       <use xlink:href="#DejaVuSans-5f" x="740.332031"/>
       <use xlink:href="#DejaVuSans-6f" x="790.332031"/>
       <use xlink:href="#DejaVuSans-32" x="851.513672"/>
      </g>
     </g>
    </g>
    <g id="text_10">
     <!-- Fuzzer (highest median coverage on the left) -->
     <g transform="translate(176.20034 383.732178)scale(0.1 -0.1)">
      <defs>
       <path id="DejaVuSans-46" d="M 628 4666 
L 3309 4666 
L 3309 4134 
L 1259 4134 
L 1259 2759 
L 3109 2759 
L 3109 2228 
L 1259 2228 
L 1259 0 
L 628 0 
L 628 4666 
z
" transform="scale(0.015625)"/>
       <path id="DejaVuSans-7a" d="M 353 3500 
L 3084 3500 
L 3084 2975 
L 922 459 
L 3084 459 
L 3084 0 
L 275 0 
L 275 525 
L 2438 3041 
L 353 3041 
L 353 3500 
z
" transform="scale(0.015625)"/>
       <path id="DejaVuSans-72" d="M 2631 2963 
Q 2534 3019 2420 3045 
Q 2306 3072 2169 3072 
Q 1681 3072 1420 2755 
Q 1159 2438 1159 1844 
L 1159 0 
L 581 0 
L 581 3500 
L 1159 3500 
L 1159 2956 
Q 1341 3275 1631 3429 
Q 1922 3584 2338 3584 
Q 2397 3584 2469 3576 
Q 2541 3569 2628 3553 
L 2631 2963 
z
" transform="scale(0.015625)"/>
       <path id="DejaVuSans-20" transform="scale(0.015625)"/>
       <path id="DejaVuSans-28" d="M 1984 4856 
Q 1566 4138 1362 3434 
Q 1159 2731 1159 2009 
Q 1159 1288 1364 580 
Q 1569 -128 1984 -844 
L 1484 -844 
Q 1016 -109 783 600 
Q 550 1309 550 2009 
Q 550 2706 781 3412 
Q 1013 4119 1484 4856 
L 1984 4856 
z
" transform="scale(0.015625)"/>
       <path id="DejaVuSans-68" d="M 3513 2113 
L 3513 0 
L 2938 0 
L 2938 2094 
Q 2938 2591 2744 2837 
Q 2550 3084 2163 3084 
Q 1697 3084 1428 2787 
Q 1159 2491 1159 1978 
L 1159 0 
L 581 0 
L 581 4863 
L 1159 4863 
L 1159 2956 
Q 1366 3272 1645 3428 
Q 1925 3584 2291 3584 
Q 2894 3584 3203 3211 
Q 3513 2838 3513 2113 
z
" transform="scale(0.015625)"/>
       <path id="DejaVuSans-67" d="M 2906 1791 
Q 2906 2416 2648 2759 
Q 2391 3103 1925 3103 
Q 1463 3103 1205 2759 
Q 947 2416 947 1791 
Q 947 1169 1205 825 
Q 1463 481 1925 481 
Q 2391 481 2648 825 
Q 2906 1169 2906 1791 
z
M 3481 434 
Q 3481 -459 3084 -895 
Q 2688 -1331 1869 -1331 
Q 1566 -1331 1297 -1286 
Q 1028 -1241 775 -1147 
L 775 -588 
Q 1028 -725 1275 -790 
Q 1522 -856 1778 -856 
Q 2344 -856 2625 -561 
Q 2906 -266 2906 331 
L 2906 616 
Q 2728 306 2450 153 
Q 2172 0 1784 0 
Q 1141 0 747 490 
Q 353 981 353 1791 
Q 353 2603 747 3093 
Q 1141 3584 1784 3584 
Q 2172 3584 2450 3431 
Q 2728 3278 2906 2969 
L 2906 3500 
L 3481 3500 
L 3481 434 
z
" transform="scale(0.015625)"/>
       <path id="DejaVuSans-6d" d="M 3328 2828 
Q 3544 3216 3844 3400 
Q 4144 3584 4550 3584 
Q 5097 3584 5394 3201 
Q 5691 2819 5691 2113 
L 5691 0 
L 5113 0 
L 5113 2094 
Q 5113 2597 4934 2840 
Q 4756 3084 4391 3084 
Q 3944 3084 3684 2787 
Q 3425 2491 3425 1978 
L 3425 0 
L 2847 0 
L 2847 2094 
Q 2847 2600 2669 2842 
Q 2491 3084 2119 3084 
Q 1678 3084 1418 2786 
Q 1159 2488 1159 1978 
L 1159 0 
L 581 0 
L 581 3500 
L 1159 3500 
L 1159 2956 
Q 1356 3278 1631 3431 
Q 1906 3584 2284 3584 
Q 2666 3584 2933 3390 
Q 3200 3197 3328 2828 
z
" transform="scale(0.015625)"/>
       <path id="DejaVuSans-63" d="M 3122 3366 
L 3122 2828 
Q 2878 2963 2633 3030 
Q 2388 3097 2138 3097 
Q 1578 3097 1268 2742 
Q 959 2388 959 1747 
Q 959 1106 1268 751 
Q 1578 397 2138 397 
Q 2388 397 2633 464 
Q 2878 531 3122 666 
L 3122 134 
Q 2881 22 2623 -34 
Q 2366 -91 2075 -91 
Q 1284 -91 818 406 
Q 353 903 353 1747 
Q 353 2603 823 3093 
Q 1294 3584 2113 3584 
Q 2378 3584 2631 3529 
Q 2884 3475 3122 3366 
z
" transform="scale(0.015625)"/>
       <path id="DejaVuSans-29" d="M 513 4856 
L 1013 4856 
Q 1481 4119 1714 3412 
Q 1947 2706 1947 2009 
Q 1947 1309 1714 600 
Q 1481 -109 1013 -844 
L 513 -844 
Q 928 -128 1133 580 
Q 1338 1288 1338 2009 
Q 1338 2731 1133 3434 
Q 928 4138 513 4856 
z
" transform="scale(0.015625)"/>
      </defs>
      <use xlink:href="#DejaVuSans-46"/>
      <use xlink:href="#DejaVuSans-75" x="52.019531"/>
      <use xlink:href="#DejaVuSans-7a" x="115.398438"/>
      <use xlink:href="#DejaVuSans-7a" x="167.888672"/>
      <use xlink:href="#DejaVuSans-65" x="220.378906"/>
      <use xlink:href="#DejaVuSans-72" x="281.902344"/>
      <use xlink:href="#DejaVuSans-20" x="323.015625"/>
      <use xlink:href="#DejaVuSans-28" x="354.802734"/>
      <use xlink:href="#DejaVuSans-68" x="393.816406"/>
      <use xlink:href="#DejaVuSans-69" x="457.195312"/>
      <use xlink:href="#DejaVuSans-67" x="484.978516"/>
      <use xlink:href="#DejaVuSans-68" x="548.455078"/>
      <use xlink:href="#DejaVuSans-65" x="611.833984"/>
      <use xlink:href="#DejaVuSans-73" x="673.357422"/>
      <use xlink:href="#DejaVuSans-74" x="725.457031"/>
      <use xlink:href="#DejaVuSans-20" x="764.666016"/>
      <use xlink:href="#DejaVuSans-6d" x="796.453125"/>
      <use xlink:href="#DejaVuSans-65" x="893.865234"/>
      <use xlink:href="#DejaVuSans-64" x="955.388672"/>
      <use xlink:href="#DejaVuSans-69" x="1018.865234"/>
      <use xlink:href="#DejaVuSans-61" x="1046.648438"/>
      <use xlink:href="#DejaVuSans-6e" x="1107.927734"/>
      <use xlink:href="#DejaVuSans-20" x="1171.306641"/>
      <use xlink:href="#DejaVuSans-63" x="1203.09375"/>
      <use xlink:href="#DejaVuSans-6f" x="1258.074219"/>
      <use xlink:href="#DejaVuSans-76" x="1319.255859"/>
      <use xlink:href="#DejaVuSans-65" x="1378.435547"/>
      <use xlink:href="#DejaVuSans-72" x="1439.958984"/>
      <use xlink:href="#DejaVuSans-61" x="1481.072266"/>
      <use xlink:href="#DejaVuSans-67" x="1542.351562"/>
      <use xlink:href="#DejaVuSans-65" x="1605.828125"/>
      <use xlink:href="#DejaVuSans-20" x="1667.351562"/>
      <use xlink:href="#DejaVuSans-6f" x="1699.138672"/>
      <use xlink:href="#DejaVuSans-6e" x="1760.320312"/>
      <use xlink:href="#DejaVuSans-20" x="1823.699219"/>
      <use xlink:href="#DejaVuSans-74" x="1855.486328"/>
      <use xlink:href="#DejaVuSans-68" x="1894.695312"/>
      <use xlink:href="#DejaVuSans-65" x="1958.074219"/>
      <use xlink:href="#DejaVuSans-20" x="2019.597656"/>
      <use xlink:href="#DejaVuSans-6c" x="2051.384766"/>
      <use xlink:href="#DejaVuSans-65" x="2079.167969"/>
      <use xlink:href="#DejaVuSans-66" x="2140.691406"/>
      <use xlink:href="#DejaVuSans-74" x="2174.146484"/>
      <use xlink:href="#DejaVuSans-29" x="2213.355469"/>
     </g>
    </g>
   </g>
   <g id="matplotlib.axis_2">
    <g id="ytick_1">
     <g id="line2d_10">
      <defs>
       <path id="m7266a6f421" d="M 0 0 
L -3.5 0 
" style="stroke: #000000; stroke-width: 0.8"/>
      </defs>
      <g>
       <use xlink:href="#m7266a6f421" x="110.258309" y="287.764306" style="stroke: #000000; stroke-width: 0.8"/>
      </g>
     </g>
     <g id="text_11">
      <!-- 7000 -->
      <g transform="translate(77.808309 291.563525)scale(0.1 -0.1)">
       <defs>
        <path id="DejaVuSans-37" d="M 525 4666 
L 3525 4666 
L 3525 4397 
L 1831 0 
L 1172 0 
L 2766 4134 
L 525 4134 
L 525 4666 
z
" transform="scale(0.015625)"/>
       </defs>
       <use xlink:href="#DejaVuSans-37"/>
       <use xlink:href="#DejaVuSans-30" x="63.623047"/>
       <use xlink:href="#DejaVuSans-30" x="127.246094"/>
       <use xlink:href="#DejaVuSans-30" x="190.869141"/>
      </g>
     </g>
    </g>
    <g id="ytick_2">
     <g id="line2d_11">
      <g>
       <use xlink:href="#m7266a6f421" x="110.258309" y="255.775442" style="stroke: #000000; stroke-width: 0.8"/>
      </g>
     </g>
     <g id="text_12">
      <!-- 7500 -->
      <g transform="translate(77.808309 259.574661)scale(0.1 -0.1)">
       <defs>
        <path id="DejaVuSans-35" d="M 691 4666 
L 3169 4666 
L 3169 4134 
L 1269 4134 
L 1269 2991 
Q 1406 3038 1543 3061 
Q 1681 3084 1819 3084 
Q 2600 3084 3056 2656 
Q 3513 2228 3513 1497 
Q 3513 744 3044 326 
Q 2575 -91 1722 -91 
Q 1428 -91 1123 -41 
Q 819 9 494 109 
L 494 744 
Q 775 591 1075 516 
Q 1375 441 1709 441 
Q 2250 441 2565 725 
Q 2881 1009 2881 1497 
Q 2881 1984 2565 2268 
Q 2250 2553 1709 2553 
Q 1456 2553 1204 2497 
Q 953 2441 691 2322 
L 691 4666 
z
" transform="scale(0.015625)"/>
       </defs>
       <use xlink:href="#DejaVuSans-37"/>
       <use xlink:href="#DejaVuSans-35" x="63.623047"/>
       <use xlink:href="#DejaVuSans-30" x="127.246094"/>
       <use xlink:href="#DejaVuSans-30" x="190.869141"/>
      </g>
     </g>
    </g>
    <g id="ytick_3">
     <g id="line2d_12">
      <g>
       <use xlink:href="#m7266a6f421" x="110.258309" y="223.786579" style="stroke: #000000; stroke-width: 0.8"/>
      </g>
     </g>
     <g id="text_13">
      <!-- 8000 -->
      <g transform="translate(77.808309 227.585798)scale(0.1 -0.1)">
       <defs>
        <path id="DejaVuSans-38" d="M 2034 2216 
Q 1584 2216 1326 1975 
Q 1069 1734 1069 1313 
Q 1069 891 1326 650 
Q 1584 409 2034 409 
Q 2484 409 2743 651 
Q 3003 894 3003 1313 
Q 3003 1734 2745 1975 
Q 2488 2216 2034 2216 
z
M 1403 2484 
Q 997 2584 770 2862 
Q 544 3141 544 3541 
Q 544 4100 942 4425 
Q 1341 4750 2034 4750 
Q 2731 4750 3128 4425 
Q 3525 4100 3525 3541 
Q 3525 3141 3298 2862 
Q 3072 2584 2669 2484 
Q 3125 2378 3379 2068 
Q 3634 1759 3634 1313 
Q 3634 634 3220 271 
Q 2806 -91 2034 -91 
Q 1263 -91 848 271 
Q 434 634 434 1313 
Q 434 1759 690 2068 
Q 947 2378 1403 2484 
z
M 1172 3481 
Q 1172 3119 1398 2916 
Q 1625 2713 2034 2713 
Q 2441 2713 2670 2916 
Q 2900 3119 2900 3481 
Q 2900 3844 2670 4047 
Q 2441 4250 2034 4250 
Q 1625 4250 1398 4047 
Q 1172 3844 1172 3481 
z
" transform="scale(0.015625)"/>
       </defs>
       <use xlink:href="#DejaVuSans-38"/>
       <use xlink:href="#DejaVuSans-30" x="63.623047"/>
       <use xlink:href="#DejaVuSans-30" x="127.246094"/>
       <use xlink:href="#DejaVuSans-30" x="190.869141"/>
      </g>
     </g>
    </g>
    <g id="ytick_4">
     <g id="line2d_13">
      <g>
       <use xlink:href="#m7266a6f421" x="110.258309" y="191.797715" style="stroke: #000000; stroke-width: 0.8"/>
      </g>
     </g>
     <g id="text_14">
      <!-- 8500 -->
      <g transform="translate(77.808309 195.596934)scale(0.1 -0.1)">
       <use xlink:href="#DejaVuSans-38"/>
       <use xlink:href="#DejaVuSans-35" x="63.623047"/>
       <use xlink:href="#DejaVuSans-30" x="127.246094"/>
       <use xlink:href="#DejaVuSans-30" x="190.869141"/>
      </g>
     </g>
    </g>
    <g id="ytick_5">
     <g id="line2d_14">
      <g>
       <use xlink:href="#m7266a6f421" x="110.258309" y="159.808852" style="stroke: #000000; stroke-width: 0.8"/>
      </g>
     </g>
     <g id="text_15">
      <!-- 9000 -->
      <g transform="translate(77.808309 163.60807)scale(0.1 -0.1)">
       <defs>
        <path id="DejaVuSans-39" d="M 703 97 
L 703 672 
Q 941 559 1184 500 
Q 1428 441 1663 441 
Q 2288 441 2617 861 
Q 2947 1281 2994 2138 
Q 2813 1869 2534 1725 
Q 2256 1581 1919 1581 
Q 1219 1581 811 2004 
Q 403 2428 403 3163 
Q 403 3881 828 4315 
Q 1253 4750 1959 4750 
Q 2769 4750 3195 4129 
Q 3622 3509 3622 2328 
Q 3622 1225 3098 567 
Q 2575 -91 1691 -91 
Q 1453 -91 1209 -44 
Q 966 3 703 97 
z
M 1959 2075 
Q 2384 2075 2632 2365 
Q 2881 2656 2881 3163 
Q 2881 3666 2632 3958 
Q 2384 4250 1959 4250 
Q 1534 4250 1286 3958 
Q 1038 3666 1038 3163 
Q 1038 2656 1286 2365 
Q 1534 2075 1959 2075 
z
" transform="scale(0.015625)"/>
       </defs>
       <use xlink:href="#DejaVuSans-39"/>
       <use xlink:href="#DejaVuSans-30" x="63.623047"/>
       <use xlink:href="#DejaVuSans-30" x="127.246094"/>
       <use xlink:href="#DejaVuSans-30" x="190.869141"/>
      </g>
     </g>
    </g>
    <g id="ytick_6">
     <g id="line2d_15">
      <g>
       <use xlink:href="#m7266a6f421" x="110.258309" y="127.819988" style="stroke: #000000; stroke-width: 0.8"/>
      </g>
     </g>
     <g id="text_16">
      <!-- 9500 -->
      <g transform="translate(77.808309 131.619207)scale(0.1 -0.1)">
       <use xlink:href="#DejaVuSans-39"/>
       <use xlink:href="#DejaVuSans-35" x="63.623047"/>
       <use xlink:href="#DejaVuSans-30" x="127.246094"/>
       <use xlink:href="#DejaVuSans-30" x="190.869141"/>
      </g>
     </g>
    </g>
    <g id="ytick_7">
     <g id="line2d_16">
      <g>
       <use xlink:href="#m7266a6f421" x="110.258309" y="95.831125" style="stroke: #000000; stroke-width: 0.8"/>
      </g>
     </g>
     <g id="text_17">
      <!-- 10000 -->
      <g transform="translate(71.445809 99.630343)scale(0.1 -0.1)">
       <use xlink:href="#DejaVuSans-31"/>
       <use xlink:href="#DejaVuSans-30" x="63.623047"/>
       <use xlink:href="#DejaVuSans-30" x="127.246094"/>
       <use xlink:href="#DejaVuSans-30" x="190.869141"/>
       <use xlink:href="#DejaVuSans-30" x="254.492188"/>
      </g>
     </g>
    </g>
    <g id="ytick_8">
     <g id="line2d_17">
      <g>
       <use xlink:href="#m7266a6f421" x="110.258309" y="63.842261" style="stroke: #000000; stroke-width: 0.8"/>
      </g>
     </g>
     <g id="text_18">
      <!-- 10500 -->
      <g transform="translate(71.445809 67.64148)scale(0.1 -0.1)">
       <use xlink:href="#DejaVuSans-31"/>
       <use xlink:href="#DejaVuSans-30" x="63.623047"/>
       <use xlink:href="#DejaVuSans-35" x="127.246094"/>
       <use xlink:href="#DejaVuSans-30" x="190.869141"/>
       <use xlink:href="#DejaVuSans-30" x="254.492188"/>
      </g>
     </g>
    </g>
    <g id="ytick_9">
     <g id="line2d_18">
      <g>
       <use xlink:href="#m7266a6f421" x="110.258309" y="31.853397" style="stroke: #000000; stroke-width: 0.8"/>
      </g>
     </g>
     <g id="text_19">
      <!-- 11000 -->
      <g transform="translate(71.445809 35.652616)scale(0.1 -0.1)">
       <use xlink:href="#DejaVuSans-31"/>
       <use xlink:href="#DejaVuSans-31" x="63.623047"/>
       <use xlink:href="#DejaVuSans-30" x="127.246094"/>
       <use xlink:href="#DejaVuSans-30" x="190.869141"/>
       <use xlink:href="#DejaVuSans-30" x="254.492188"/>
      </g>
     </g>
    </g>
    <g id="text_20">
     <!-- Reached region coverage -->
     <g transform="translate(65.366122 219.136625)rotate(-90)scale(0.1 -0.1)">
      <defs>
       <path id="DejaVuSans-52" d="M 2841 2188 
Q 3044 2119 3236 1894 
Q 3428 1669 3622 1275 
L 4263 0 
L 3584 0 
L 2988 1197 
Q 2756 1666 2539 1819 
Q 2322 1972 1947 1972 
L 1259 1972 
L 1259 0 
L 628 0 
L 628 4666 
L 2053 4666 
Q 2853 4666 3247 4331 
Q 3641 3997 3641 3322 
Q 3641 2881 3436 2590 
Q 3231 2300 2841 2188 
z
M 1259 4147 
L 1259 2491 
L 2053 2491 
Q 2509 2491 2742 2702 
Q 2975 2913 2975 3322 
Q 2975 3731 2742 3939 
Q 2509 4147 2053 4147 
L 1259 4147 
z
" transform="scale(0.015625)"/>
      </defs>
      <use xlink:href="#DejaVuSans-52"/>
      <use xlink:href="#DejaVuSans-65" x="64.982422"/>
      <use xlink:href="#DejaVuSans-61" x="126.505859"/>
      <use xlink:href="#DejaVuSans-63" x="187.785156"/>
      <use xlink:href="#DejaVuSans-68" x="242.765625"/>
      <use xlink:href="#DejaVuSans-65" x="306.144531"/>
      <use xlink:href="#DejaVuSans-64" x="367.667969"/>
      <use xlink:href="#DejaVuSans-20" x="431.144531"/>
      <use xlink:href="#DejaVuSans-72" x="462.931641"/>
      <use xlink:href="#DejaVuSans-65" x="501.794922"/>
      <use xlink:href="#DejaVuSans-67" x="563.318359"/>
      <use xlink:href="#DejaVuSans-69" x="626.794922"/>
      <use xlink:href="#DejaVuSans-6f" x="654.578125"/>
      <use xlink:href="#DejaVuSans-6e" x="715.759766"/>
      <use xlink:href="#DejaVuSans-20" x="779.138672"/>
      <use xlink:href="#DejaVuSans-63" x="810.925781"/>
      <use xlink:href="#DejaVuSans-6f" x="865.90625"/>
      <use xlink:href="#DejaVuSans-76" x="927.087891"/>
      <use xlink:href="#DejaVuSans-65" x="986.267578"/>
      <use xlink:href="#DejaVuSans-72" x="1047.791016"/>
      <use xlink:href="#DejaVuSans-61" x="1088.904297"/>
      <use xlink:href="#DejaVuSans-67" x="1150.183594"/>
      <use xlink:href="#DejaVuSans-65" x="1213.660156"/>
     </g>
    </g>
   </g>
   <g id="line2d_19">
    <path d="M 130.098309 82.45978 
L 130.098309 56.484822 
" clip-path="url(#p5519a81fb6)" style="fill: none; stroke: #3d3d3d; stroke-width: 1.5; stroke-linecap: square"/>
   </g>
   <g id="line2d_20">
    <path d="M 130.098309 79.868682 
L 130.098309 66.881203 
" clip-path="url(#p5519a81fb6)" style="fill: none; stroke: #3d3d3d; stroke-width: 4.5; stroke-linecap: square"/>
   </g>
   <g id="line2d_21">
    <path d="M 169.778309 91.608595 
L 169.778309 78.365205 
" clip-path="url(#p5519a81fb6)" style="fill: none; stroke: #3d3d3d; stroke-width: 1.5; stroke-linecap: square"/>
   </g>
   <g id="line2d_22">
    <path d="M 169.778309 86.970209 
L 169.778309 80.348515 
" clip-path="url(#p5519a81fb6)" style="fill: none; stroke: #3d3d3d; stroke-width: 4.5; stroke-linecap: square"/>
   </g>
   <g id="line2d_23">
    <path d="M 209.458309 195.188535 
L 209.458309 152.579369 
" clip-path="url(#p5519a81fb6)" style="fill: none; stroke: #3d3d3d; stroke-width: 1.5; stroke-linecap: square"/>
   </g>
   <g id="line2d_24">
    <path d="M 209.458309 185.879775 
L 209.458309 164.575192 
" clip-path="url(#p5519a81fb6)" style="fill: none; stroke: #3d3d3d; stroke-width: 4.5; stroke-linecap: square"/>
   </g>
   <g id="line2d_25">
    <path d="M 249.138309 199.730953 
L 249.138309 182.712878 
" clip-path="url(#p5519a81fb6)" style="fill: none; stroke: #3d3d3d; stroke-width: 1.5; stroke-linecap: square"/>
   </g>
   <g id="line2d_26">
    <path d="M 249.138309 191.95766 
L 249.138309 183.448622 
" clip-path="url(#p5519a81fb6)" style="fill: none; stroke: #3d3d3d; stroke-width: 4.5; stroke-linecap: square"/>
   </g>
   <g id="line2d_27">
    <path d="M 288.818309 197.427755 
L 288.818309 173.564063 
" clip-path="url(#p5519a81fb6)" style="fill: none; stroke: #3d3d3d; stroke-width: 1.5; stroke-linecap: square"/>
   </g>
   <g id="line2d_28">
    <path d="M 288.818309 192.373515 
L 288.818309 180.441669 
" clip-path="url(#p5519a81fb6)" style="fill: none; stroke: #3d3d3d; stroke-width: 4.5; stroke-linecap: square"/>
   </g>
   <g id="line2d_29">
    <path d="M 328.498309 225.066133 
L 328.498309 166.590491 
" clip-path="url(#p5519a81fb6)" style="fill: none; stroke: #3d3d3d; stroke-width: 1.5; stroke-linecap: square"/>
   </g>
   <g id="line2d_30">
    <path d="M 328.498309 210.959045 
L 328.498309 181.721223 
" clip-path="url(#p5519a81fb6)" style="fill: none; stroke: #3d3d3d; stroke-width: 4.5; stroke-linecap: square"/>
   </g>
   <g id="line2d_31">
    <path d="M 368.178309 235.494503 
L 368.178309 185.783809 
" clip-path="url(#p5519a81fb6)" style="fill: none; stroke: #3d3d3d; stroke-width: 1.5; stroke-linecap: square"/>
   </g>
   <g id="line2d_32">
    <path d="M 368.178309 218.380461 
L 368.178309 193.525114 
" clip-path="url(#p5519a81fb6)" style="fill: none; stroke: #3d3d3d; stroke-width: 4.5; stroke-linecap: square"/>
   </g>
   <g id="line2d_33">
    <path d="M 407.858309 223.722601 
L 407.858309 170.940976 
" clip-path="url(#p5519a81fb6)" style="fill: none; stroke: #3d3d3d; stroke-width: 1.5; stroke-linecap: square"/>
   </g>
   <g id="line2d_34">
    <path d="M 407.858309 213.07031 
L 407.858309 186.679497 
" clip-path="url(#p5519a81fb6)" style="fill: none; stroke: #3d3d3d; stroke-width: 4.5; stroke-linecap: square"/>
   </g>
   <g id="line2d_35">
    <path d="M 447.538309 214.701742 
L 447.538309 195.700357 
" clip-path="url(#p5519a81fb6)" style="fill: none; stroke: #3d3d3d; stroke-width: 1.5; stroke-linecap: square"/>
   </g>
   <g id="line2d_36">
    <path d="M 447.538309 209.951395 
L 447.538309 200.450703 
" clip-path="url(#p5519a81fb6)" style="fill: none; stroke: #3d3d3d; stroke-width: 4.5; stroke-linecap: square"/>
   </g>
   <g id="patch_3">
    <path d="M 110.258309 287.764306 
L 110.258309 31.853397 
" style="fill: none; stroke: #000000; stroke-width: 0.8; stroke-linejoin: miter; stroke-linecap: square"/>
   </g>
   <g id="patch_4">
    <path d="M 130.098309 288.430125 
L 447.538309 288.430125 
" style="fill: none; stroke: #000000; stroke-width: 0.8; stroke-linejoin: miter; stroke-linecap: square"/>
   </g>
   <g id="PathCollection_1">
    <defs>
     <path id="ma03d2ab571" d="M 0 1.5 
C 0.397805 1.5 0.77937 1.341951 1.06066 1.06066 
C 1.341951 0.77937 1.5 0.397805 1.5 0 
C 1.5 -0.397805 1.341951 -0.77937 1.06066 -1.06066 
C 0.77937 -1.341951 0.397805 -1.5 0 -1.5 
C -0.397805 -1.5 -0.77937 -1.341951 -1.06066 -1.06066 
C -1.341951 -0.77937 -1.5 -0.397805 -1.5 0 
C -1.5 0.397805 -1.341951 0.77937 -1.06066 1.06066 
C -0.77937 1.341951 -0.397805 1.5 0 1.5 
z
" style="stroke: #3d3d3d"/>
    </defs>
    <g clip-path="url(#p5519a81fb6)">
     <use xlink:href="#ma03d2ab571" x="130.098309" y="77.277584" style="fill: #ffffff; stroke: #3d3d3d"/>
    </g>
   </g>
   <g id="PathCollection_2">
    <g clip-path="url(#p5519a81fb6)">
     <use xlink:href="#ma03d2ab571" x="169.778309" y="82.331824" style="fill: #ffffff; stroke: #3d3d3d"/>
    </g>
   </g>
   <g id="PathCollection_3">
    <g clip-path="url(#p5519a81fb6)">
     <use xlink:href="#ma03d2ab571" x="209.458309" y="176.571016" style="fill: #ffffff; stroke: #3d3d3d"/>
    </g>
   </g>
   <g id="PathCollection_4">
    <g clip-path="url(#p5519a81fb6)">
     <use xlink:href="#ma03d2ab571" x="249.138309" y="184.184366" style="fill: #ffffff; stroke: #3d3d3d"/>
    </g>
   </g>
   <g id="PathCollection_5">
    <g clip-path="url(#p5519a81fb6)">
     <use xlink:href="#ma03d2ab571" x="288.818309" y="187.319274" style="fill: #ffffff; stroke: #3d3d3d"/>
    </g>
   </g>
   <g id="PathCollection_6">
    <g clip-path="url(#p5519a81fb6)">
     <use xlink:href="#ma03d2ab571" x="328.498309" y="196.851956" style="fill: #ffffff; stroke: #3d3d3d"/>
    </g>
   </g>
   <g id="PathCollection_7">
    <g clip-path="url(#p5519a81fb6)">
     <use xlink:href="#ma03d2ab571" x="368.178309" y="201.266419" style="fill: #ffffff; stroke: #3d3d3d"/>
    </g>
   </g>
   <g id="PathCollection_8">
    <g clip-path="url(#p5519a81fb6)">
     <use xlink:href="#ma03d2ab571" x="407.858309" y="202.418018" style="fill: #ffffff; stroke: #3d3d3d"/>
    </g>
   </g>
   <g id="PathCollection_9">
    <g clip-path="url(#p5519a81fb6)">
     <use xlink:href="#ma03d2ab571" x="447.538309" y="205.201049" style="fill: #ffffff; stroke: #3d3d3d"/>
    </g>
   </g>
   <g id="text_21">
    <!-- bloaty_fuzz_target (4h:15m, 2 trials/fuzzer) -->
    <g transform="translate(159.039247 16.318125)scale(0.12 -0.12)">
     <defs>
      <path id="DejaVuSans-79" d="M 2059 -325 
Q 1816 -950 1584 -1140 
Q 1353 -1331 966 -1331 
L 506 -1331 
L 506 -850 
L 844 -850 
Q 1081 -850 1212 -737 
Q 1344 -625 1503 -206 
L 1606 56 
L 191 3500 
L 800 3500 
L 1894 763 
L 2988 3500 
L 3597 3500 
L 2059 -325 
z
" transform="scale(0.015625)"/>
      <path id="DejaVuSans-34" d="M 2419 4116 
L 825 1625 
L 2419 1625 
L 2419 4116 
z
M 2253 4666 
L 3047 4666 
L 3047 1625 
L 3713 1625 
L 3713 1100 
L 3047 1100 
L 3047 0 
L 2419 0 
L 2419 1100 
L 313 1100 
L 313 1709 
L 2253 4666 
z
" transform="scale(0.015625)"/>
      <path id="DejaVuSans-3a" d="M 750 794 
L 1409 794 
L 1409 0 
L 750 0 
L 750 794 
z
M 750 3309 
L 1409 3309 
L 1409 2516 
L 750 2516 
L 750 3309 
z
" transform="scale(0.015625)"/>
      <path id="DejaVuSans-2c" d="M 750 794 
L 1409 794 
L 1409 256 
L 897 -744 
L 494 -744 
L 750 256 
L 750 794 
z
" transform="scale(0.015625)"/>
      <path id="DejaVuSans-2f" d="M 1625 4666 
L 2156 4666 
L 531 -594 
L 0 -594 
L 1625 4666 
z
" transform="scale(0.015625)"/>
     </defs>
     <use xlink:href="#DejaVuSans-62"/>
     <use xlink:href="#DejaVuSans-6c" x="63.476562"/>
     <use xlink:href="#DejaVuSans-6f" x="91.259766"/>
     <use xlink:href="#DejaVuSans-61" x="152.441406"/>
     <use xlink:href="#DejaVuSans-74" x="213.720703"/>
     <use xlink:href="#DejaVuSans-79" x="252.929688"/>
     <use xlink:href="#DejaVuSans-5f" x="312.109375"/>
     <use xlink:href="#DejaVuSans-66" x="362.109375"/>
     <use xlink:href="#DejaVuSans-75" x="397.314453"/>
     <use xlink:href="#DejaVuSans-7a" x="460.693359"/>
     <use xlink:href="#DejaVuSans-7a" x="513.183594"/>
     <use xlink:href="#DejaVuSans-5f" x="565.673828"/>
     <use xlink:href="#DejaVuSans-74" x="615.673828"/>
     <use xlink:href="#DejaVuSans-61" x="654.882812"/>
     <use xlink:href="#DejaVuSans-72" x="716.162109"/>
     <use xlink:href="#DejaVuSans-67" x="755.525391"/>
     <use xlink:href="#DejaVuSans-65" x="819.001953"/>
     <use xlink:href="#DejaVuSans-74" x="880.525391"/>
     <use xlink:href="#DejaVuSans-20" x="919.734375"/>
     <use xlink:href="#DejaVuSans-28" x="951.521484"/>
     <use xlink:href="#DejaVuSans-34" x="990.535156"/>
     <use xlink:href="#DejaVuSans-68" x="1054.158203"/>
     <use xlink:href="#DejaVuSans-3a" x="1117.537109"/>
     <use xlink:href="#DejaVuSans-31" x="1151.228516"/>
     <use xlink:href="#DejaVuSans-35" x="1214.851562"/>
     <use xlink:href="#DejaVuSans-6d" x="1278.474609"/>
     <use xlink:href="#DejaVuSans-2c" x="1375.886719"/>
     <use xlink:href="#DejaVuSans-20" x="1407.673828"/>
     <use xlink:href="#DejaVuSans-32" x="1439.460938"/>
     <use xlink:href="#DejaVuSans-20" x="1503.083984"/>
     <use xlink:href="#DejaVuSans-74" x="1534.871094"/>
     <use xlink:href="#DejaVuSans-72" x="1574.080078"/>
     <use xlink:href="#DejaVuSans-69" x="1615.193359"/>
     <use xlink:href="#DejaVuSans-61" x="1642.976562"/>
     <use xlink:href="#DejaVuSans-6c" x="1704.255859"/>
     <use xlink:href="#DejaVuSans-73" x="1732.039062"/>
     <use xlink:href="#DejaVuSans-2f" x="1784.138672"/>
     <use xlink:href="#DejaVuSans-66" x="1817.830078"/>
     <use xlink:href="#DejaVuSans-75" x="1853.035156"/>
     <use xlink:href="#DejaVuSans-7a" x="1916.414062"/>
     <use xlink:href="#DejaVuSans-7a" x="1968.904297"/>
     <use xlink:href="#DejaVuSans-65" x="2021.394531"/>
     <use xlink:href="#DejaVuSans-72" x="2082.917969"/>
     <use xlink:href="#DejaVuSans-29" x="2124.03125"/>
    </g>
   </g>
  </g>
 </g>
 <defs>
  <clipPath id="p5519a81fb6">
   <rect x="110.258309" y="22.318125" width="357.12" height="266.112"/>
  </clipPath>
 </defs>
</svg>
