<?xml version="1.0" encoding="utf-8" standalone="no"?>
<!DOCTYPE svg PUBLIC "-//W3C//DTD SVG 1.1//EN"
  "http://www.w3.org/Graphics/SVG/1.1/DTD/svg11.dtd">
<svg xmlns:xlink="http://www.w3.org/1999/xlink" width="467.291517pt" height="393.011865pt" viewBox="0 0 467.291517 393.011865" xmlns="http://www.w3.org/2000/svg" version="1.1">
 <metadata>
  <rdf:RDF xmlns:dc="http://purl.org/dc/elements/1.1/" xmlns:cc="http://creativecommons.org/ns#" xmlns:rdf="http://www.w3.org/1999/02/22-rdf-syntax-ns#">
   <cc:Work>
    <dc:type rdf:resource="http://purl.org/dc/dcmitype/StillImage"/>
    <dc:date>2022-06-05T16:10:08.164473</dc:date>
    <dc:format>image/svg+xml</dc:format>
    <dc:creator>
     <cc:Agent>
      <dc:title>Matplotlib v3.5.1, https://matplotlib.org/</dc:title>
     </cc:Agent>
    </dc:creator>
   </cc:Work>
  </rdf:RDF>
 </metadata>
 <defs>
  <style type="text/css">*{stroke-linejoin: round; stroke-linecap: butt}</style>
 </defs>
 <g id="figure_1">
  <g id="patch_1">
   <path d="M 0 393.011865 
L 467.291517 393.011865 
L 467.291517 -0 
L 0 -0 
z
" style="fill: #ffffff"/>
  </g>
  <g id="axes_1">
   <g id="patch_2">
    <path d="M 102.971517 288.430125 
L 460.091517 288.430125 
L 460.091517 22.318125 
L 102.971517 22.318125 
z
" style="fill: #ffffff"/>
   </g>
   <g id="PolyCollection_1">
    <defs>
     <path id="m8f7ac6e4ac" d="M 123.206793 -250.693563 
L 122.416241 -250.693563 
L 122.361217 -251.783504 
L 122.300631 -252.873445 
L 122.234254 -253.963386 
L 122.161897 -255.053328 
L 122.083417 -256.143269 
L 121.998726 -257.23321 
L 121.907795 -258.323151 
L 121.810663 -259.413092 
L 121.707435 -260.503034 
L 121.598291 -261.592975 
L 121.483485 -262.682916 
L 121.363347 -263.772857 
L 121.238275 -264.862798 
L 121.108739 -265.952739 
L 120.975272 -267.042681 
L 120.83846 -268.132622 
L 120.698938 -269.222563 
L 120.557376 -270.312504 
L 120.414466 -271.402445 
L 120.270913 -272.492387 
L 120.127418 -273.582328 
L 119.984666 -274.672269 
L 119.843311 -275.76221 
L 119.703965 -276.852151 
L 119.567184 -277.942093 
L 119.43346 -279.032034 
L 119.30321 -280.121975 
L 119.176774 -281.211916 
L 119.054407 -282.301857 
L 118.93628 -283.391798 
L 118.822482 -284.48174 
L 118.713027 -285.571681 
L 118.607854 -286.661622 
L 118.506846 -287.751563 
L 118.409836 -288.841504 
L 118.316619 -289.931446 
L 118.226975 -291.021387 
L 118.140674 -292.111328 
L 118.0575 -293.201269 
L 117.977261 -294.29121 
L 117.899809 -295.381152 
L 117.825048 -296.471093 
L 117.752947 -297.561034 
L 117.683551 -298.650975 
L 117.616987 -299.740916 
L 117.553466 -300.830857 
L 117.493285 -301.920799 
L 117.436827 -303.01074 
L 117.384552 -304.100681 
L 117.336995 -305.190622 
L 117.294749 -306.280563 
L 117.258459 -307.370505 
L 117.228804 -308.460446 
L 117.206481 -309.550387 
L 117.192192 -310.640328 
L 117.186623 -311.730269 
L 117.190428 -312.820211 
L 117.204212 -313.910152 
L 117.228515 -315.000093 
L 117.263795 -316.090034 
L 117.31042 -317.179975 
L 117.368648 -318.269916 
L 117.438626 -319.359858 
L 117.520377 -320.449799 
L 117.613797 -321.53974 
L 117.718656 -322.629681 
L 117.834593 -323.719622 
L 117.961124 -324.809564 
L 118.097645 -325.899505 
L 118.243439 -326.989446 
L 118.39769 -328.079387 
L 118.55949 -329.169328 
L 118.727856 -330.25927 
L 118.901743 -331.349211 
L 119.08006 -332.439152 
L 119.261686 -333.529093 
L 119.445487 -334.619034 
L 119.630331 -335.708975 
L 119.815107 -336.798917 
L 119.998734 -337.888858 
L 120.180184 -338.978799 
L 120.358485 -340.06874 
L 120.53274 -341.158681 
L 120.702131 -342.248623 
L 120.865928 -343.338564 
L 121.023498 -344.428505 
L 121.174302 -345.518446 
L 121.317903 -346.608387 
L 121.453962 -347.698329 
L 121.582237 -348.78827 
L 121.70258 -349.878211 
L 121.814932 -350.968152 
L 121.919316 -352.058093 
L 122.015831 -353.148034 
L 122.104643 -354.237976 
L 122.185979 -355.327917 
L 122.260116 -356.417858 
L 122.327371 -357.507799 
L 122.388098 -358.59774 
L 123.234937 -358.59774 
L 123.234937 -358.59774 
L 123.295663 -357.507799 
L 123.362918 -356.417858 
L 123.437055 -355.327917 
L 123.518391 -354.237976 
L 123.607204 -353.148034 
L 123.703719 -352.058093 
L 123.808103 -350.968152 
L 123.920454 -349.878211 
L 124.040797 -348.78827 
L 124.169072 -347.698329 
L 124.305131 -346.608387 
L 124.448732 -345.518446 
L 124.599537 -344.428505 
L 124.757106 -343.338564 
L 124.920904 -342.248623 
L 125.090294 -341.158681 
L 125.264549 -340.06874 
L 125.442851 -338.978799 
L 125.6243 -337.888858 
L 125.807928 -336.798917 
L 125.992703 -335.708975 
L 126.177547 -334.619034 
L 126.361348 -333.529093 
L 126.542974 -332.439152 
L 126.721291 -331.349211 
L 126.895178 -330.25927 
L 127.063544 -329.169328 
L 127.225345 -328.079387 
L 127.379595 -326.989446 
L 127.52539 -325.899505 
L 127.66191 -324.809564 
L 127.788441 -323.719622 
L 127.904378 -322.629681 
L 128.009237 -321.53974 
L 128.102658 -320.449799 
L 128.184408 -319.359858 
L 128.254386 -318.269916 
L 128.312615 -317.179975 
L 128.359239 -316.090034 
L 128.39452 -315.000093 
L 128.418822 -313.910152 
L 128.432606 -312.820211 
L 128.436411 -311.730269 
L 128.430842 -310.640328 
L 128.416553 -309.550387 
L 128.39423 -308.460446 
L 128.364575 -307.370505 
L 128.328285 -306.280563 
L 128.286039 -305.190622 
L 128.238482 -304.100681 
L 128.186208 -303.01074 
L 128.129749 -301.920799 
L 128.069569 -300.830857 
L 128.006048 -299.740916 
L 127.939483 -298.650975 
L 127.870088 -297.561034 
L 127.797987 -296.471093 
L 127.723225 -295.381152 
L 127.645773 -294.29121 
L 127.565535 -293.201269 
L 127.48236 -292.111328 
L 127.396059 -291.021387 
L 127.306415 -289.931446 
L 127.213199 -288.841504 
L 127.116188 -287.751563 
L 127.01518 -286.661622 
L 126.910008 -285.571681 
L 126.800552 -284.48174 
L 126.686754 -283.391798 
L 126.568627 -282.301857 
L 126.44626 -281.211916 
L 126.319824 -280.121975 
L 126.189575 -279.032034 
L 126.055851 -277.942093 
L 125.91907 -276.852151 
L 125.779724 -275.76221 
L 125.638369 -274.672269 
L 125.495617 -273.582328 
L 125.352122 -272.492387 
L 125.208568 -271.402445 
L 125.065659 -270.312504 
L 124.924096 -269.222563 
L 124.784574 -268.132622 
L 124.647762 -267.042681 
L 124.514295 -265.952739 
L 124.384759 -264.862798 
L 124.259688 -263.772857 
L 124.139549 -262.682916 
L 124.024744 -261.592975 
L 123.9156 -260.503034 
L 123.812372 -259.413092 
L 123.715239 -258.323151 
L 123.624308 -257.23321 
L 123.539617 -256.143269 
L 123.461137 -255.053328 
L 123.38878 -253.963386 
L 123.322403 -252.873445 
L 123.261818 -251.783504 
L 123.206793 -250.693563 
z
" style="stroke: #3d3d3d; stroke-width: 1.5"/>
    </defs>
    <g clip-path="url(#p47a5e0de3a)">
     <use xlink:href="#m8f7ac6e4ac" x="0" y="393.011865" style="fill: #d684bd; stroke: #3d3d3d; stroke-width: 1.5"/>
    </g>
   </g>
   <g id="PolyCollection_2">
    <defs>
     <path id="mb727c21984" d="M 163.098158 -204.311891 
L 161.884877 -204.311891 
L 161.802442 -205.003664 
L 161.711977 -205.695438 
L 161.613201 -206.387211 
L 161.505895 -207.078985 
L 161.38992 -207.770758 
L 161.265221 -208.462531 
L 161.13184 -209.154305 
L 160.989919 -209.846078 
L 160.839711 -210.537852 
L 160.681581 -211.229625 
L 160.516007 -211.921399 
L 160.343579 -212.613172 
L 160.164995 -213.304945 
L 159.981054 -213.996719 
L 159.792643 -214.688492 
L 159.600726 -215.380266 
L 159.406327 -216.072039 
L 159.210508 -216.763812 
L 159.014351 -217.455586 
L 158.818932 -218.147359 
L 158.625297 -218.839133 
L 158.434435 -219.530906 
L 158.247258 -220.22268 
L 158.06457 -220.914453 
L 157.887052 -221.606226 
L 157.715237 -222.298 
L 157.549498 -222.989773 
L 157.390033 -223.681547 
L 157.236861 -224.37332 
L 157.089818 -225.065094 
L 156.948566 -225.756867 
L 156.812596 -226.44864 
L 156.681249 -227.140414 
L 156.553736 -227.832187 
L 156.429165 -228.523961 
L 156.306569 -229.215734 
L 156.184947 -229.907507 
L 156.063297 -230.599281 
L 155.940655 -231.291054 
L 155.81614 -231.982828 
L 155.688988 -232.674601 
L 155.558589 -233.366375 
L 155.424528 -234.058148 
L 155.286604 -234.749921 
L 155.144863 -235.441695 
L 154.99961 -236.133468 
L 154.851424 -236.825242 
L 154.701156 -237.517015 
L 154.549926 -238.208789 
L 154.399111 -238.900562 
L 154.250322 -239.592335 
L 154.105378 -240.284109 
L 153.966267 -240.975882 
L 153.835108 -241.667656 
L 153.714108 -242.359429 
L 153.605507 -243.051203 
L 153.511533 -243.742976 
L 153.434346 -244.434749 
L 153.375989 -245.126523 
L 153.338341 -245.818296 
L 153.323067 -246.51007 
L 153.331584 -247.201843 
L 153.365019 -247.893616 
L 153.424187 -248.58539 
L 153.509567 -249.277163 
L 153.621289 -249.968937 
L 153.75913 -250.66071 
L 153.922519 -251.352484 
L 154.110543 -252.044257 
L 154.321969 -252.73603 
L 154.555268 -253.427804 
L 154.808644 -254.119577 
L 155.080074 -254.811351 
L 155.367341 -255.503124 
L 155.668082 -256.194898 
L 155.979829 -256.886671 
L 156.300052 -257.578444 
L 156.626207 -258.270218 
L 156.955774 -258.961991 
L 157.286298 -259.653765 
L 157.615425 -260.345538 
L 157.940933 -261.037311 
L 158.260762 -261.729085 
L 158.573033 -262.420858 
L 158.87607 -263.112632 
L 159.168407 -263.804405 
L 159.448802 -264.496179 
L 159.716232 -265.187952 
L 159.969897 -265.879725 
L 160.209212 -266.571499 
L 160.433798 -267.263272 
L 160.643467 -267.955046 
L 160.83821 -268.646819 
L 161.018178 -269.338593 
L 161.183666 -270.030366 
L 161.335092 -270.722139 
L 161.472977 -271.413913 
L 161.597929 -272.105686 
L 161.710621 -272.79746 
L 163.272414 -272.79746 
L 163.272414 -272.79746 
L 163.385106 -272.105686 
L 163.510057 -271.413913 
L 163.647942 -270.722139 
L 163.799368 -270.030366 
L 163.964856 -269.338593 
L 164.144825 -268.646819 
L 164.339568 -267.955046 
L 164.549236 -267.263272 
L 164.773822 -266.571499 
L 165.013137 -265.879725 
L 165.266803 -265.187952 
L 165.534233 -264.496179 
L 165.814627 -263.804405 
L 166.106965 -263.112632 
L 166.410001 -262.420858 
L 166.722273 -261.729085 
L 167.042101 -261.037311 
L 167.36761 -260.345538 
L 167.696736 -259.653765 
L 168.02726 -258.961991 
L 168.356827 -258.270218 
L 168.682982 -257.578444 
L 169.003206 -256.886671 
L 169.314952 -256.194898 
L 169.615693 -255.503124 
L 169.90296 -254.811351 
L 170.17439 -254.119577 
L 170.427767 -253.427804 
L 170.661066 -252.73603 
L 170.872492 -252.044257 
L 171.060515 -251.352484 
L 171.223904 -250.66071 
L 171.361746 -249.968937 
L 171.473468 -249.277163 
L 171.558847 -248.58539 
L 171.618015 -247.893616 
L 171.65145 -247.201843 
L 171.659967 -246.51007 
L 171.644694 -245.818296 
L 171.607045 -245.126523 
L 171.548689 -244.434749 
L 171.471501 -243.742976 
L 171.377527 -243.051203 
L 171.268926 -242.359429 
L 171.147926 -241.667656 
L 171.016768 -240.975882 
L 170.877656 -240.284109 
L 170.732712 -239.592335 
L 170.583923 -238.900562 
L 170.433108 -238.208789 
L 170.281879 -237.517015 
L 170.13161 -236.825242 
L 169.983424 -236.133468 
L 169.838172 -235.441695 
L 169.696431 -234.749921 
L 169.558507 -234.058148 
L 169.424445 -233.366375 
L 169.294047 -232.674601 
L 169.166894 -231.982828 
L 169.042379 -231.291054 
L 168.919738 -230.599281 
L 168.798087 -229.907507 
L 168.676465 -229.215734 
L 168.55387 -228.523961 
L 168.429298 -227.832187 
L 168.301785 -227.140414 
L 168.170438 -226.44864 
L 168.034468 -225.756867 
L 167.893216 -225.065094 
L 167.746174 -224.37332 
L 167.593002 -223.681547 
L 167.433536 -222.989773 
L 167.267797 -222.298 
L 167.095982 -221.606226 
L 166.918464 -220.914453 
L 166.735776 -220.22268 
L 166.548599 -219.530906 
L 166.357737 -218.839133 
L 166.164102 -218.147359 
L 165.968683 -217.455586 
L 165.772526 -216.763812 
L 165.576708 -216.072039 
L 165.382308 -215.380266 
L 165.190392 -214.688492 
L 165.001981 -213.996719 
L 164.818039 -213.304945 
L 164.639455 -212.613172 
L 164.467027 -211.921399 
L 164.301453 -211.229625 
L 164.143323 -210.537852 
L 163.993115 -209.846078 
L 163.851195 -209.154305 
L 163.717813 -208.462531 
L 163.593114 -207.770758 
L 163.477139 -207.078985 
L 163.369833 -206.387211 
L 163.271057 -205.695438 
L 163.180593 -205.003664 
L 163.098158 -204.311891 
z
" style="stroke: #3d3d3d; stroke-width: 1.5"/>
    </defs>
    <g clip-path="url(#p47a5e0de3a)">
     <use xlink:href="#mb727c21984" x="0" y="393.011865" style="fill: #9fd495; stroke: #3d3d3d; stroke-width: 1.5"/>
    </g>
   </g>
   <g id="PolyCollection_3">
    <defs>
     <path id="md908fcda61" d="M 202.423832 -142.457972 
L 201.919203 -142.457972 
L 201.884521 -144.140723 
L 201.846407 -145.823474 
L 201.804732 -147.506225 
L 201.759397 -149.188976 
L 201.71033 -150.871727 
L 201.657498 -152.554478 
L 201.600906 -154.237228 
L 201.540603 -155.919979 
L 201.476682 -157.60273 
L 201.409284 -159.285481 
L 201.338596 -160.968232 
L 201.264855 -162.650983 
L 201.18834 -164.333734 
L 201.109374 -166.016485 
L 201.028317 -167.699236 
L 200.945563 -169.381986 
L 200.861529 -171.064737 
L 200.776653 -172.747488 
L 200.691381 -174.430239 
L 200.606156 -176.11299 
L 200.521415 -177.795741 
L 200.437574 -179.478492 
L 200.355016 -181.161243 
L 200.27409 -182.843993 
L 200.195093 -184.526744 
L 200.11827 -186.209495 
L 200.043805 -187.892246 
L 199.971815 -189.574997 
L 199.902353 -191.257748 
L 199.835403 -192.940499 
L 199.770885 -194.62325 
L 199.708659 -196.306001 
L 199.648531 -197.988751 
L 199.590259 -199.671502 
L 199.533571 -201.354253 
L 199.478167 -203.037004 
L 199.423741 -204.719755 
L 199.369987 -206.402506 
L 199.316621 -208.085257 
L 199.263388 -209.768008 
L 199.210082 -211.450758 
L 199.156554 -213.133509 
L 199.102724 -214.81626 
L 199.048591 -216.499011 
L 198.994239 -218.181762 
L 198.939844 -219.864513 
L 198.885672 -221.547264 
L 198.83208 -223.230015 
L 198.779513 -224.912765 
L 198.728495 -226.595516 
L 198.679622 -228.278267 
L 198.633549 -229.961018 
L 198.590977 -231.643769 
L 198.552638 -233.32652 
L 198.51928 -235.009271 
L 198.491644 -236.692022 
L 198.470454 -238.374773 
L 198.456394 -240.057523 
L 198.450094 -241.740274 
L 198.452114 -243.423025 
L 198.462928 -245.105776 
L 198.482914 -246.788527 
L 198.512345 -248.471278 
L 198.551377 -250.154029 
L 198.600049 -251.83678 
L 198.658276 -253.51953 
L 198.725855 -255.202281 
L 198.80246 -256.885032 
L 198.887658 -258.567783 
L 198.980906 -260.250534 
L 199.081568 -261.933285 
L 199.188925 -263.616036 
L 199.302186 -265.298787 
L 199.420505 -266.981538 
L 199.542995 -268.664288 
L 199.668739 -270.347039 
L 199.796813 -272.02979 
L 199.926293 -273.712541 
L 200.056275 -275.395292 
L 200.185884 -277.078043 
L 200.314289 -278.760794 
L 200.440708 -280.443545 
L 200.564426 -282.126295 
L 200.684792 -283.809046 
L 200.801232 -285.491797 
L 200.913249 -287.174548 
L 201.020426 -288.857299 
L 201.122425 -290.54005 
L 201.218991 -292.222801 
L 201.309941 -293.905552 
L 201.395167 -295.588302 
L 201.474632 -297.271053 
L 201.548357 -298.953804 
L 201.616422 -300.636555 
L 201.678959 -302.319306 
L 201.73614 -304.002057 
L 201.788176 -305.684808 
L 201.835306 -307.367559 
L 201.877791 -309.05031 
L 202.465243 -309.05031 
L 202.465243 -309.05031 
L 202.507729 -307.367559 
L 202.554858 -305.684808 
L 202.606894 -304.002057 
L 202.664075 -302.319306 
L 202.726612 -300.636555 
L 202.794678 -298.953804 
L 202.868403 -297.271053 
L 202.947867 -295.588302 
L 203.033094 -293.905552 
L 203.124044 -292.222801 
L 203.220609 -290.54005 
L 203.322609 -288.857299 
L 203.429785 -287.174548 
L 203.541802 -285.491797 
L 203.658242 -283.809046 
L 203.778608 -282.126295 
L 203.902326 -280.443545 
L 204.028746 -278.760794 
L 204.15715 -277.078043 
L 204.286759 -275.395292 
L 204.416741 -273.712541 
L 204.546222 -272.02979 
L 204.674295 -270.347039 
L 204.80004 -268.664288 
L 204.922529 -266.981538 
L 205.040848 -265.298787 
L 205.15411 -263.616036 
L 205.261467 -261.933285 
L 205.362129 -260.250534 
L 205.455377 -258.567783 
L 205.540574 -256.885032 
L 205.61718 -255.202281 
L 205.684758 -253.51953 
L 205.742985 -251.83678 
L 205.791657 -250.154029 
L 205.830689 -248.471278 
L 205.86012 -246.788527 
L 205.880107 -245.105776 
L 205.890921 -243.423025 
L 205.89294 -241.740274 
L 205.88664 -240.057523 
L 205.87258 -238.374773 
L 205.85139 -236.692022 
L 205.823755 -235.009271 
L 205.790396 -233.32652 
L 205.752058 -231.643769 
L 205.709486 -229.961018 
L 205.663413 -228.278267 
L 205.614539 -226.595516 
L 205.563521 -224.912765 
L 205.510954 -223.230015 
L 205.457362 -221.547264 
L 205.40319 -219.864513 
L 205.348795 -218.181762 
L 205.294444 -216.499011 
L 205.24031 -214.81626 
L 205.18648 -213.133509 
L 205.132952 -211.450758 
L 205.079646 -209.768008 
L 205.026414 -208.085257 
L 204.973047 -206.402506 
L 204.919294 -204.719755 
L 204.864867 -203.037004 
L 204.809463 -201.354253 
L 204.752775 -199.671502 
L 204.694504 -197.988751 
L 204.634375 -196.306001 
L 204.572149 -194.62325 
L 204.507632 -192.940499 
L 204.440682 -191.257748 
L 204.371219 -189.574997 
L 204.29923 -187.892246 
L 204.224764 -186.209495 
L 204.147941 -184.526744 
L 204.068944 -182.843993 
L 203.988018 -181.161243 
L 203.905461 -179.478492 
L 203.821619 -177.795741 
L 203.736878 -176.11299 
L 203.651654 -174.430239 
L 203.566381 -172.747488 
L 203.481505 -171.064737 
L 203.397472 -169.381986 
L 203.314717 -167.699236 
L 203.23366 -166.016485 
L 203.154694 -164.333734 
L 203.078179 -162.650983 
L 203.004438 -160.968232 
L 202.933751 -159.285481 
L 202.866353 -157.60273 
L 202.802432 -155.919979 
L 202.742128 -154.237228 
L 202.685537 -152.554478 
L 202.632704 -150.871727 
L 202.583638 -149.188976 
L 202.538302 -147.506225 
L 202.496628 -145.823474 
L 202.458514 -144.140723 
L 202.423832 -142.457972 
z
" style="stroke: #3d3d3d; stroke-width: 1.5"/>
    </defs>
    <g clip-path="url(#p47a5e0de3a)">
     <use xlink:href="#md908fcda61" x="0" y="393.011865" style="fill: #e1812c; stroke: #3d3d3d; stroke-width: 1.5"/>
    </g>
   </g>
   <g id="PolyCollection_4">
    <defs>
     <path id="m0d64a1c2f5" d="M 242.237966 -172.565339 
L 241.465068 -172.565339 
L 241.409161 -173.850019 
L 241.347141 -175.134698 
L 241.278662 -176.419378 
L 241.20341 -177.704058 
L 241.121109 -178.988738 
L 241.03153 -180.273418 
L 240.934503 -181.558098 
L 240.829923 -182.842778 
L 240.717759 -184.127458 
L 240.598066 -185.412137 
L 240.470987 -186.696817 
L 240.336762 -187.981497 
L 240.195733 -189.266177 
L 240.048346 -190.550857 
L 239.895153 -191.835537 
L 239.736814 -193.120217 
L 239.574089 -194.404896 
L 239.407837 -195.689576 
L 239.239009 -196.974256 
L 239.068637 -198.258936 
L 238.897821 -199.543616 
L 238.727718 -200.828296 
L 238.559527 -202.112976 
L 238.394465 -203.397656 
L 238.233759 -204.682335 
L 238.078615 -205.967015 
L 237.930206 -207.251695 
L 237.789649 -208.536375 
L 237.657986 -209.821055 
L 237.536165 -211.105735 
L 237.42502 -212.390415 
L 237.325263 -213.675094 
L 237.237462 -214.959774 
L 237.162036 -216.244454 
L 237.099249 -217.529134 
L 237.0492 -218.813814 
L 237.011831 -220.098494 
L 236.986922 -221.383174 
L 236.974103 -222.667854 
L 236.972863 -223.952533 
L 236.982564 -225.237213 
L 237.002454 -226.521893 
L 237.03169 -227.806573 
L 237.069358 -229.091253 
L 237.114494 -230.375933 
L 237.166106 -231.660613 
L 237.223202 -232.945292 
L 237.284809 -234.229972 
L 237.349994 -235.514652 
L 237.417888 -236.799332 
L 237.487702 -238.084012 
L 237.558743 -239.368692 
L 237.630424 -240.653372 
L 237.702274 -241.938051 
L 237.773945 -243.222731 
L 237.845208 -244.507411 
L 237.915956 -245.792091 
L 237.986195 -247.076771 
L 238.056037 -248.361451 
L 238.125683 -249.646131 
L 238.195414 -250.930811 
L 238.265572 -252.21549 
L 238.336539 -253.50017 
L 238.408723 -254.78485 
L 238.482538 -256.06953 
L 238.558382 -257.35421 
L 238.636626 -258.63889 
L 238.717591 -259.92357 
L 238.80154 -261.208249 
L 238.888664 -262.492929 
L 238.979075 -263.777609 
L 239.072799 -265.062289 
L 239.169772 -266.346969 
L 239.269845 -267.631649 
L 239.372779 -268.916329 
L 239.478259 -270.201009 
L 239.585895 -271.485688 
L 239.695235 -272.770368 
L 239.805777 -274.055048 
L 239.916977 -275.339728 
L 240.028264 -276.624408 
L 240.139058 -277.909088 
L 240.248772 -279.193768 
L 240.356837 -280.478447 
L 240.462702 -281.763127 
L 240.565853 -283.047807 
L 240.665817 -284.332487 
L 240.762169 -285.617167 
L 240.854543 -286.901847 
L 240.94263 -288.186527 
L 241.026181 -289.471207 
L 241.105012 -290.755886 
L 241.178998 -292.040566 
L 241.248076 -293.325246 
L 241.312237 -294.609926 
L 241.371525 -295.894606 
L 241.426029 -297.179286 
L 241.475881 -298.463966 
L 241.521249 -299.748645 
L 242.181785 -299.748645 
L 242.181785 -299.748645 
L 242.227153 -298.463966 
L 242.277005 -297.179286 
L 242.331509 -295.894606 
L 242.390797 -294.609926 
L 242.454958 -293.325246 
L 242.524036 -292.040566 
L 242.598023 -290.755886 
L 242.676854 -289.471207 
L 242.760405 -288.186527 
L 242.848491 -286.901847 
L 242.940865 -285.617167 
L 243.037218 -284.332487 
L 243.137181 -283.047807 
L 243.240332 -281.763127 
L 243.346197 -280.478447 
L 243.454262 -279.193768 
L 243.563977 -277.909088 
L 243.67477 -276.624408 
L 243.786058 -275.339728 
L 243.897257 -274.055048 
L 244.007799 -272.770368 
L 244.11714 -271.485688 
L 244.224776 -270.201009 
L 244.330255 -268.916329 
L 244.43319 -267.631649 
L 244.533262 -266.346969 
L 244.630236 -265.062289 
L 244.723959 -263.777609 
L 244.81437 -262.492929 
L 244.901495 -261.208249 
L 244.985444 -259.92357 
L 245.066409 -258.63889 
L 245.144652 -257.35421 
L 245.220496 -256.06953 
L 245.294311 -254.78485 
L 245.366496 -253.50017 
L 245.437463 -252.21549 
L 245.50762 -250.930811 
L 245.577351 -249.646131 
L 245.646998 -248.361451 
L 245.716839 -247.076771 
L 245.787079 -245.792091 
L 245.857827 -244.507411 
L 245.92909 -243.222731 
L 246.00076 -241.938051 
L 246.07261 -240.653372 
L 246.144291 -239.368692 
L 246.215332 -238.084012 
L 246.285146 -236.799332 
L 246.353041 -235.514652 
L 246.418226 -234.229972 
L 246.479832 -232.945292 
L 246.536928 -231.660613 
L 246.588541 -230.375933 
L 246.633676 -229.091253 
L 246.671344 -227.806573 
L 246.700581 -226.521893 
L 246.720471 -225.237213 
L 246.730171 -223.952533 
L 246.728931 -222.667854 
L 246.716113 -221.383174 
L 246.691203 -220.098494 
L 246.653834 -218.813814 
L 246.603786 -217.529134 
L 246.540998 -216.244454 
L 246.465573 -214.959774 
L 246.377771 -213.675094 
L 246.278014 -212.390415 
L 246.16687 -211.105735 
L 246.045048 -209.821055 
L 245.913385 -208.536375 
L 245.772829 -207.251695 
L 245.62442 -205.967015 
L 245.469276 -204.682335 
L 245.308569 -203.397656 
L 245.143508 -202.112976 
L 244.975316 -200.828296 
L 244.805214 -199.543616 
L 244.634398 -198.258936 
L 244.464025 -196.974256 
L 244.295197 -195.689576 
L 244.128946 -194.404896 
L 243.96622 -193.120217 
L 243.807881 -191.835537 
L 243.654689 -190.550857 
L 243.507302 -189.266177 
L 243.366272 -187.981497 
L 243.232047 -186.696817 
L 243.104968 -185.412137 
L 242.985275 -184.127458 
L 242.873112 -182.842778 
L 242.768531 -181.558098 
L 242.671504 -180.273418 
L 242.581925 -178.988738 
L 242.499624 -177.704058 
L 242.424372 -176.419378 
L 242.355894 -175.134698 
L 242.293874 -173.850019 
L 242.237966 -172.565339 
z
" style="stroke: #3d3d3d; stroke-width: 1.5"/>
    </defs>
    <g clip-path="url(#p47a5e0de3a)">
     <use xlink:href="#m0d64a1c2f5" x="0" y="393.011865" style="fill: #c7c7c7; stroke: #3d3d3d; stroke-width: 1.5"/>
    </g>
   </g>
   <g id="PolyCollection_5">
    <defs>
     <path id="ma8018918b1" d="M 282.216371 -193.39473 
L 280.846664 -193.39473 
L 280.7489 -194.056659 
L 280.640726 -194.718587 
L 280.521601 -195.380516 
L 280.391039 -196.042445 
L 280.248622 -196.704374 
L 280.094016 -197.366302 
L 279.926983 -198.028231 
L 279.747393 -198.69016 
L 279.555236 -199.352088 
L 279.350631 -200.014017 
L 279.133839 -200.675946 
L 278.905261 -201.337874 
L 278.66545 -201.999803 
L 278.415109 -202.661732 
L 278.155089 -203.32366 
L 277.886388 -203.985589 
L 277.61014 -204.647518 
L 277.327607 -205.309446 
L 277.040165 -205.971375 
L 276.749293 -206.633304 
L 276.456546 -207.295233 
L 276.163546 -207.957161 
L 275.871952 -208.61909 
L 275.583441 -209.281019 
L 275.299686 -209.942947 
L 275.02233 -210.604876 
L 274.752962 -211.266805 
L 274.493099 -211.928733 
L 274.244161 -212.590662 
L 274.007455 -213.252591 
L 273.784153 -213.914519 
L 273.575284 -214.576448 
L 273.381717 -215.238377 
L 273.204157 -215.900305 
L 273.043135 -216.562234 
L 272.89901 -217.224163 
L 272.771969 -217.886092 
L 272.662032 -218.54802 
L 272.56906 -219.209949 
L 272.492763 -219.871878 
L 272.432721 -220.533806 
L 272.388393 -221.195735 
L 272.359139 -221.857664 
L 272.344238 -222.519592 
L 272.342911 -223.181521 
L 272.354341 -223.84345 
L 272.377696 -224.505378 
L 272.41215 -225.167307 
L 272.456906 -225.829236 
L 272.51121 -226.491165 
L 272.574371 -227.153093 
L 272.645779 -227.815022 
L 272.724911 -228.476951 
L 272.81134 -229.138879 
L 272.904744 -229.800808 
L 273.004904 -230.462737 
L 273.111702 -231.124665 
L 273.225112 -231.786594 
L 273.345195 -232.448523 
L 273.472081 -233.110451 
L 273.605956 -233.77238 
L 273.74704 -234.434309 
L 273.895572 -235.096237 
L 274.051784 -235.758166 
L 274.215881 -236.420095 
L 274.388024 -237.082024 
L 274.568303 -237.743952 
L 274.756724 -238.405881 
L 274.953194 -239.06781 
L 275.157507 -239.729738 
L 275.369335 -240.391667 
L 275.588226 -241.053596 
L 275.8136 -241.715524 
L 276.044754 -242.377453 
L 276.280869 -243.039382 
L 276.521021 -243.70131 
L 276.764196 -244.363239 
L 277.009303 -245.025168 
L 277.255197 -245.687096 
L 277.500697 -246.349025 
L 277.744611 -247.010954 
L 277.985754 -247.672883 
L 278.222967 -248.334811 
L 278.455145 -248.99674 
L 278.681248 -249.658669 
L 278.90032 -250.320597 
L 279.111503 -250.982526 
L 279.314047 -251.644455 
L 279.507319 -252.306383 
L 279.690809 -252.968312 
L 279.864128 -253.630241 
L 280.027014 -254.292169 
L 280.179323 -254.954098 
L 280.321026 -255.616027 
L 280.4522 -256.277956 
L 280.573022 -256.939884 
L 280.683754 -257.601813 
L 280.784737 -258.263742 
L 280.876372 -258.92567 
L 282.186662 -258.92567 
L 282.186662 -258.92567 
L 282.278298 -258.263742 
L 282.37928 -257.601813 
L 282.490012 -256.939884 
L 282.610834 -256.277956 
L 282.742008 -255.616027 
L 282.883711 -254.954098 
L 283.03602 -254.292169 
L 283.198906 -253.630241 
L 283.372226 -252.968312 
L 283.555715 -252.306383 
L 283.748988 -251.644455 
L 283.951532 -250.982526 
L 284.162714 -250.320597 
L 284.381786 -249.658669 
L 284.607889 -248.99674 
L 284.840067 -248.334811 
L 285.077281 -247.672883 
L 285.318423 -247.010954 
L 285.562337 -246.349025 
L 285.807838 -245.687096 
L 286.053732 -245.025168 
L 286.298838 -244.363239 
L 286.542013 -243.70131 
L 286.782166 -243.039382 
L 287.018281 -242.377453 
L 287.249435 -241.715524 
L 287.474808 -241.053596 
L 287.693699 -240.391667 
L 287.905527 -239.729738 
L 288.10984 -239.06781 
L 288.30631 -238.405881 
L 288.494731 -237.743952 
L 288.67501 -237.082024 
L 288.847153 -236.420095 
L 289.011251 -235.758166 
L 289.167463 -235.096237 
L 289.315994 -234.434309 
L 289.457079 -233.77238 
L 289.590953 -233.110451 
L 289.717839 -232.448523 
L 289.837922 -231.786594 
L 289.951332 -231.124665 
L 290.05813 -230.462737 
L 290.15829 -229.800808 
L 290.251695 -229.138879 
L 290.338124 -228.476951 
L 290.417255 -227.815022 
L 290.488663 -227.153093 
L 290.551825 -226.491165 
L 290.606128 -225.829236 
L 290.650884 -225.167307 
L 290.685339 -224.505378 
L 290.708694 -223.84345 
L 290.720124 -223.181521 
L 290.718796 -222.519592 
L 290.703895 -221.857664 
L 290.674641 -221.195735 
L 290.630313 -220.533806 
L 290.570271 -219.871878 
L 290.493975 -219.209949 
L 290.401002 -218.54802 
L 290.291065 -217.886092 
L 290.164024 -217.224163 
L 290.019899 -216.562234 
L 289.858877 -215.900305 
L 289.681317 -215.238377 
L 289.487751 -214.576448 
L 289.278881 -213.914519 
L 289.05558 -213.252591 
L 288.818873 -212.590662 
L 288.569935 -211.928733 
L 288.310073 -211.266805 
L 288.040705 -210.604876 
L 287.763348 -209.942947 
L 287.479593 -209.281019 
L 287.191082 -208.61909 
L 286.899488 -207.957161 
L 286.606488 -207.295233 
L 286.313742 -206.633304 
L 286.022869 -205.971375 
L 285.735428 -205.309446 
L 285.452895 -204.647518 
L 285.176646 -203.985589 
L 284.907945 -203.32366 
L 284.647926 -202.661732 
L 284.397585 -201.999803 
L 284.157774 -201.337874 
L 283.929196 -200.675946 
L 283.712403 -200.014017 
L 283.507799 -199.352088 
L 283.315642 -198.69016 
L 283.136052 -198.028231 
L 282.969019 -197.366302 
L 282.814413 -196.704374 
L 282.671996 -196.042445 
L 282.541433 -195.380516 
L 282.422308 -194.718587 
L 282.314135 -194.056659 
L 282.216371 -193.39473 
z
" style="stroke: #3d3d3d; stroke-width: 1.5"/>
    </defs>
    <g clip-path="url(#p47a5e0de3a)">
     <use xlink:href="#ma8018918b1" x="0" y="393.011865" style="fill: #f2a5a3; stroke: #3d3d3d; stroke-width: 1.5"/>
    </g>
   </g>
   <g id="PolyCollection_6">
    <defs>
     <path id="m5b5661b46e" d="M 321.985575 -171.91343 
L 320.43746 -171.91343 
L 320.335368 -172.440177 
L 320.223653 -172.966924 
L 320.101997 -173.493672 
L 319.970165 -174.020419 
L 319.828009 -174.547166 
L 319.675485 -175.073914 
L 319.512661 -175.600661 
L 319.339726 -176.127408 
L 319.156999 -176.654156 
L 318.96493 -177.180903 
L 318.764104 -177.70765 
L 318.555242 -178.234398 
L 318.339194 -178.761145 
L 318.116929 -179.287892 
L 317.88953 -179.81464 
L 317.658173 -180.341387 
L 317.424109 -180.868134 
L 317.188643 -181.394882 
L 316.953112 -181.921629 
L 316.718849 -182.448377 
L 316.487162 -182.975124 
L 316.259298 -183.501871 
L 316.036414 -184.028619 
L 315.819546 -184.555366 
L 315.609578 -185.082113 
L 315.407221 -185.608861 
L 315.212981 -186.135608 
L 315.027147 -186.662355 
L 314.849777 -187.189103 
L 314.680683 -187.71585 
L 314.519439 -188.242597 
L 314.365382 -188.769345 
L 314.217623 -189.296092 
L 314.075073 -189.822839 
L 313.936463 -190.349587 
L 313.800386 -190.876334 
L 313.665331 -191.403081 
L 313.529729 -191.929829 
L 313.392005 -192.456576 
L 313.250629 -192.983323 
L 313.104166 -193.510071 
L 312.951335 -194.036818 
L 312.791055 -194.563565 
L 312.622499 -195.090313 
L 312.445131 -195.61706 
L 312.258751 -196.143807 
L 312.063516 -196.670555 
L 311.859968 -197.197302 
L 311.649043 -197.724049 
L 311.43207 -198.250797 
L 311.210765 -198.777544 
L 310.987205 -199.304291 
L 310.763805 -199.831039 
L 310.543269 -200.357786 
L 310.328548 -200.884533 
L 310.122776 -201.411281 
L 309.929211 -201.938028 
L 309.751166 -202.464775 
L 309.591934 -202.991523 
L 309.45472 -203.51827 
L 309.342568 -204.045017 
L 309.258291 -204.571765 
L 309.204408 -205.098512 
L 309.183087 -205.625259 
L 309.196094 -206.152007 
L 309.244753 -206.678754 
L 309.329915 -207.205501 
L 309.45194 -207.732249 
L 309.610682 -208.258996 
L 309.805502 -208.785743 
L 310.035273 -209.312491 
L 310.298407 -209.839238 
L 310.59289 -210.365985 
L 310.916322 -210.892733 
L 311.265967 -211.41948 
L 311.638809 -211.946227 
L 312.031608 -212.472975 
L 312.440965 -212.999722 
L 312.863382 -213.526469 
L 313.295327 -214.053217 
L 313.733288 -214.579964 
L 314.173837 -215.106711 
L 314.613673 -215.633459 
L 315.049675 -216.160206 
L 315.478938 -216.686953 
L 315.898806 -217.213701 
L 316.306902 -217.740448 
L 316.701138 -218.267195 
L 317.079733 -218.793943 
L 317.441217 -219.32069 
L 317.784425 -219.847437 
L 318.108492 -220.374185 
L 318.412841 -220.900932 
L 318.697164 -221.427679 
L 318.961401 -221.954427 
L 319.205718 -222.481174 
L 319.430481 -223.007921 
L 319.636228 -223.534669 
L 319.823647 -224.061416 
L 322.599387 -224.061416 
L 322.599387 -224.061416 
L 322.786806 -223.534669 
L 322.992554 -223.007921 
L 323.217316 -222.481174 
L 323.461633 -221.954427 
L 323.72587 -221.427679 
L 324.010193 -220.900932 
L 324.314542 -220.374185 
L 324.63861 -219.847437 
L 324.981817 -219.32069 
L 325.343301 -218.793943 
L 325.721897 -218.267195 
L 326.116133 -217.740448 
L 326.524228 -217.213701 
L 326.944097 -216.686953 
L 327.37336 -216.160206 
L 327.809362 -215.633459 
L 328.249198 -215.106711 
L 328.689746 -214.579964 
L 329.127708 -214.053217 
L 329.559652 -213.526469 
L 329.98207 -212.999722 
L 330.391427 -212.472975 
L 330.784225 -211.946227 
L 331.157067 -211.41948 
L 331.506712 -210.892733 
L 331.830144 -210.365985 
L 332.124627 -209.839238 
L 332.387761 -209.312491 
L 332.617532 -208.785743 
L 332.812352 -208.258996 
L 332.971095 -207.732249 
L 333.093119 -207.205501 
L 333.178281 -206.678754 
L 333.226941 -206.152007 
L 333.239948 -205.625259 
L 333.218627 -205.098512 
L 333.164744 -204.571765 
L 333.080466 -204.045017 
L 332.968314 -203.51827 
L 332.8311 -202.991523 
L 332.671868 -202.464775 
L 332.493823 -201.938028 
L 332.300259 -201.411281 
L 332.094487 -200.884533 
L 331.879765 -200.357786 
L 331.65923 -199.831039 
L 331.435829 -199.304291 
L 331.21227 -198.777544 
L 330.990964 -198.250797 
L 330.773991 -197.724049 
L 330.563066 -197.197302 
L 330.359519 -196.670555 
L 330.164284 -196.143807 
L 329.977903 -195.61706 
L 329.800535 -195.090313 
L 329.631979 -194.563565 
L 329.471699 -194.036818 
L 329.318868 -193.510071 
L 329.172405 -192.983323 
L 329.031029 -192.456576 
L 328.893305 -191.929829 
L 328.757704 -191.403081 
L 328.622648 -190.876334 
L 328.486571 -190.349587 
L 328.347961 -189.822839 
L 328.205411 -189.296092 
L 328.057652 -188.769345 
L 327.903595 -188.242597 
L 327.742351 -187.71585 
L 327.573258 -187.189103 
L 327.395887 -186.662355 
L 327.210054 -186.135608 
L 327.015814 -185.608861 
L 326.813456 -185.082113 
L 326.603489 -184.555366 
L 326.38662 -184.028619 
L 326.163736 -183.501871 
L 325.935872 -182.975124 
L 325.704185 -182.448377 
L 325.469922 -181.921629 
L 325.234391 -181.394882 
L 324.998926 -180.868134 
L 324.764862 -180.341387 
L 324.533504 -179.81464 
L 324.306105 -179.287892 
L 324.083841 -178.761145 
L 323.867792 -178.234398 
L 323.65893 -177.70765 
L 323.458105 -177.180903 
L 323.266035 -176.654156 
L 323.083308 -176.127408 
L 322.910374 -175.600661 
L 322.74755 -175.073914 
L 322.595026 -174.547166 
L 322.45287 -174.020419 
L 322.321037 -173.493672 
L 322.199382 -172.966924 
L 322.087666 -172.440177 
L 321.985575 -171.91343 
z
" style="stroke: #3d3d3d; stroke-width: 1.5"/>
    </defs>
    <g clip-path="url(#p47a5e0de3a)">
     <use xlink:href="#m5b5661b46e" x="0" y="393.011865" style="fill: #3a923a; stroke: #3d3d3d; stroke-width: 1.5"/>
    </g>
   </g>
   <g id="PolyCollection_7">
    <defs>
     <path id="md7f9c71522" d="M 361.273726 -141.38209 
L 360.509308 -141.38209 
L 360.454471 -142.869386 
L 360.393729 -144.356682 
L 360.326769 -145.843978 
L 360.253313 -147.331274 
L 360.173127 -148.81857 
L 360.086029 -150.305866 
L 359.9919 -151.793162 
L 359.890691 -153.280458 
L 359.782435 -154.767753 
L 359.667251 -156.255049 
L 359.545353 -157.742345 
L 359.417059 -159.229641 
L 359.282788 -160.716937 
L 359.143068 -162.204233 
L 358.998534 -163.691529 
L 358.849928 -165.178825 
L 358.69809 -166.666121 
L 358.543957 -168.153417 
L 358.388549 -169.640713 
L 358.232962 -171.128009 
L 358.078348 -172.615305 
L 357.925901 -174.102601 
L 357.776842 -175.589897 
L 357.632396 -177.077193 
L 357.493769 -178.564488 
L 357.362132 -180.051784 
L 357.238595 -181.53908 
L 357.12419 -183.026376 
L 357.019844 -184.513672 
L 356.926369 -186.000968 
L 356.844439 -187.488264 
L 356.774578 -188.97556 
L 356.717151 -190.462856 
L 356.672353 -191.950152 
L 356.64021 -193.437448 
L 356.620574 -194.924744 
L 356.613129 -196.41204 
L 356.617403 -197.899336 
L 356.632771 -199.386632 
L 356.65848 -200.873928 
L 356.693659 -202.361224 
L 356.737344 -203.848519 
L 356.7885 -205.335815 
L 356.846048 -206.823111 
L 356.908883 -208.310407 
L 356.975907 -209.797703 
L 357.046049 -211.284999 
L 357.118288 -212.772295 
L 357.191677 -214.259591 
L 357.265361 -215.746887 
L 357.33859 -217.234183 
L 357.410735 -218.721479 
L 357.481295 -220.208775 
L 357.549904 -221.696071 
L 357.616327 -223.183367 
L 357.680464 -224.670663 
L 357.742338 -226.157959 
L 357.802091 -227.645254 
L 357.859966 -229.13255 
L 357.916294 -230.619846 
L 357.97148 -232.107142 
L 358.02598 -233.594438 
L 358.080285 -235.081734 
L 358.134901 -236.56903 
L 358.190332 -238.056326 
L 358.247057 -239.543622 
L 358.30552 -241.030918 
L 358.366112 -242.518214 
L 358.429161 -244.00551 
L 358.494917 -245.492806 
L 358.563555 -246.980102 
L 358.635159 -248.467398 
L 358.70973 -249.954694 
L 358.787181 -251.441989 
L 358.867346 -252.929285 
L 358.949979 -254.416581 
L 359.034769 -255.903877 
L 359.121344 -257.391173 
L 359.209282 -258.878469 
L 359.298126 -260.365765 
L 359.387391 -261.853061 
L 359.476581 -263.340357 
L 359.565195 -264.827653 
L 359.65274 -266.314949 
L 359.738743 -267.802245 
L 359.822757 -269.289541 
L 359.904373 -270.776837 
L 359.983218 -272.264133 
L 360.058969 -273.751429 
L 360.131353 -275.238724 
L 360.200144 -276.72602 
L 360.265174 -278.213316 
L 360.326323 -279.700612 
L 360.38352 -281.187908 
L 360.436744 -282.675204 
L 360.486016 -284.1625 
L 360.531398 -285.649796 
L 360.572985 -287.137092 
L 360.610903 -288.624388 
L 361.172131 -288.624388 
L 361.172131 -288.624388 
L 361.21005 -287.137092 
L 361.251636 -285.649796 
L 361.297018 -284.1625 
L 361.34629 -282.675204 
L 361.399514 -281.187908 
L 361.456712 -279.700612 
L 361.51786 -278.213316 
L 361.58289 -276.72602 
L 361.651682 -275.238724 
L 361.724065 -273.751429 
L 361.799816 -272.264133 
L 361.878662 -270.776837 
L 361.960277 -269.289541 
L 362.044292 -267.802245 
L 362.130295 -266.314949 
L 362.21784 -264.827653 
L 362.306453 -263.340357 
L 362.395643 -261.853061 
L 362.484909 -260.365765 
L 362.573753 -258.878469 
L 362.661691 -257.391173 
L 362.748265 -255.903877 
L 362.833055 -254.416581 
L 362.915688 -252.929285 
L 362.995853 -251.441989 
L 363.073305 -249.954694 
L 363.147876 -248.467398 
L 363.21948 -246.980102 
L 363.288117 -245.492806 
L 363.353874 -244.00551 
L 363.416922 -242.518214 
L 363.477514 -241.030918 
L 363.535977 -239.543622 
L 363.592703 -238.056326 
L 363.648133 -236.56903 
L 363.702749 -235.081734 
L 363.757055 -233.594438 
L 363.811554 -232.107142 
L 363.86674 -230.619846 
L 363.923069 -229.13255 
L 363.980943 -227.645254 
L 364.040696 -226.157959 
L 364.102571 -224.670663 
L 364.166707 -223.183367 
L 364.233131 -221.696071 
L 364.301739 -220.208775 
L 364.3723 -218.721479 
L 364.444445 -217.234183 
L 364.517674 -215.746887 
L 364.591357 -214.259591 
L 364.664747 -212.772295 
L 364.736986 -211.284999 
L 364.807127 -209.797703 
L 364.874151 -208.310407 
L 364.936986 -206.823111 
L 364.994534 -205.335815 
L 365.045691 -203.848519 
L 365.089376 -202.361224 
L 365.124554 -200.873928 
L 365.150263 -199.386632 
L 365.165632 -197.899336 
L 365.169905 -196.41204 
L 365.162461 -194.924744 
L 365.142824 -193.437448 
L 365.110681 -191.950152 
L 365.065884 -190.462856 
L 365.008456 -188.97556 
L 364.938596 -187.488264 
L 364.856665 -186.000968 
L 364.76319 -184.513672 
L 364.658845 -183.026376 
L 364.544439 -181.53908 
L 364.420903 -180.051784 
L 364.289265 -178.564488 
L 364.150639 -177.077193 
L 364.006192 -175.589897 
L 363.857133 -174.102601 
L 363.704687 -172.615305 
L 363.550072 -171.128009 
L 363.394485 -169.640713 
L 363.239078 -168.153417 
L 363.084945 -166.666121 
L 362.933107 -165.178825 
L 362.7845 -163.691529 
L 362.639966 -162.204233 
L 362.500246 -160.716937 
L 362.365975 -159.229641 
L 362.237681 -157.742345 
L 362.115784 -156.255049 
L 362.0006 -154.767753 
L 361.892343 -153.280458 
L 361.791134 -151.793162 
L 361.697005 -150.305866 
L 361.609907 -148.81857 
L 361.529721 -147.331274 
L 361.456266 -145.843978 
L 361.389306 -144.356682 
L 361.328563 -142.869386 
L 361.273726 -141.38209 
z
" style="stroke: #3d3d3d; stroke-width: 1.5"/>
    </defs>
    <g clip-path="url(#p47a5e0de3a)">
     <use xlink:href="#md7f9c71522" x="0" y="393.011865" style="fill: #3274a1; stroke: #3d3d3d; stroke-width: 1.5"/>
    </g>
   </g>
   <g id="PolyCollection_8">
    <defs>
     <path id="mf1e91e2fd4" d="M 401.596689 -160.55467 
L 399.546346 -160.55467 
L 399.410062 -160.955414 
L 399.260827 -161.356159 
L 399.098213 -161.756903 
L 398.921898 -162.157648 
L 398.731681 -162.558392 
L 398.527503 -162.959137 
L 398.309456 -163.359881 
L 398.0778 -163.760626 
L 397.832967 -164.16137 
L 397.57557 -164.562115 
L 397.306408 -164.962859 
L 397.026458 -165.363604 
L 396.736876 -165.764348 
L 396.43898 -166.165093 
L 396.134235 -166.565837 
L 395.824235 -166.966582 
L 395.510672 -167.367326 
L 395.19531 -167.768071 
L 394.879945 -168.168815 
L 394.566372 -168.56956 
L 394.256341 -168.970304 
L 393.951519 -169.371049 
L 393.653441 -169.771793 
L 393.363475 -170.172538 
L 393.082783 -170.573282 
L 392.812278 -170.974027 
L 392.552604 -171.374771 
L 392.304102 -171.775516 
L 392.066801 -172.17626 
L 391.840403 -172.577005 
L 391.624289 -172.977749 
L 391.417523 -173.378494 
L 391.218879 -173.779238 
L 391.026864 -174.179983 
L 390.839764 -174.580727 
L 390.655686 -174.981472 
L 390.472619 -175.382216 
L 390.288494 -175.782961 
L 390.101254 -176.183705 
L 389.908922 -176.58445 
L 389.709676 -176.985194 
L 389.501917 -177.385939 
L 389.28434 -177.786683 
L 389.055997 -178.187428 
L 388.816349 -178.588172 
L 388.565317 -178.988917 
L 388.303313 -179.389661 
L 388.031268 -179.790406 
L 387.750636 -180.19115 
L 387.463393 -180.591895 
L 387.172019 -180.992639 
L 386.879459 -181.393384 
L 386.589081 -181.794128 
L 386.304616 -182.194873 
L 386.030081 -182.595617 
L 385.769704 -182.996361 
L 385.527833 -183.397106 
L 385.308841 -183.79785 
L 385.117032 -184.198595 
L 384.956541 -184.599339 
L 384.831243 -185.000084 
L 384.744662 -185.400828 
L 384.699891 -185.801573 
L 384.699517 -186.202317 
L 384.745563 -186.603062 
L 384.839441 -187.003806 
L 384.981914 -187.404551 
L 385.173084 -187.805295 
L 385.412385 -188.20604 
L 385.698594 -188.606784 
L 386.029861 -189.007529 
L 386.403744 -189.408273 
L 386.817262 -189.809018 
L 387.26696 -190.209762 
L 387.748975 -190.610507 
L 388.259116 -191.011251 
L 388.792943 -191.411996 
L 389.345854 -191.81274 
L 389.913162 -192.213485 
L 390.490183 -192.614229 
L 391.072311 -193.014974 
L 391.655086 -193.415718 
L 392.234264 -193.816463 
L 392.80587 -194.217207 
L 393.366248 -194.617952 
L 393.912095 -195.018696 
L 394.440494 -195.419441 
L 394.948931 -195.820185 
L 395.4353 -196.22093 
L 395.89791 -196.621674 
L 396.335475 -197.022419 
L 396.747094 -197.423163 
L 397.132239 -197.823908 
L 397.49072 -198.224652 
L 397.822661 -198.625397 
L 398.128465 -199.026141 
L 398.408777 -199.426886 
L 398.664449 -199.82763 
L 398.896508 -200.228375 
L 402.246526 -200.228375 
L 402.246526 -200.228375 
L 402.478585 -199.82763 
L 402.734258 -199.426886 
L 403.014569 -199.026141 
L 403.320373 -198.625397 
L 403.652315 -198.224652 
L 404.010796 -197.823908 
L 404.39594 -197.423163 
L 404.80756 -197.022419 
L 405.245124 -196.621674 
L 405.707734 -196.22093 
L 406.194104 -195.820185 
L 406.70254 -195.419441 
L 407.230939 -195.018696 
L 407.776787 -194.617952 
L 408.337164 -194.217207 
L 408.908771 -193.816463 
L 409.487949 -193.415718 
L 410.070724 -193.014974 
L 410.652851 -192.614229 
L 411.229873 -192.213485 
L 411.797181 -191.81274 
L 412.350091 -191.411996 
L 412.883918 -191.011251 
L 413.394059 -190.610507 
L 413.876074 -190.209762 
L 414.325772 -189.809018 
L 414.73929 -189.408273 
L 415.113173 -189.007529 
L 415.44444 -188.606784 
L 415.73065 -188.20604 
L 415.96995 -187.805295 
L 416.161121 -187.404551 
L 416.303594 -187.003806 
L 416.397471 -186.603062 
L 416.443517 -186.202317 
L 416.443143 -185.801573 
L 416.398372 -185.400828 
L 416.311792 -185.000084 
L 416.186494 -184.599339 
L 416.026003 -184.198595 
L 415.834193 -183.79785 
L 415.615201 -183.397106 
L 415.37333 -182.996361 
L 415.112954 -182.595617 
L 414.838419 -182.194873 
L 414.553953 -181.794128 
L 414.263576 -181.393384 
L 413.971016 -180.992639 
L 413.679641 -180.591895 
L 413.392398 -180.19115 
L 413.111766 -179.790406 
L 412.839721 -179.389661 
L 412.577717 -178.988917 
L 412.326685 -178.588172 
L 412.087037 -178.187428 
L 411.858694 -177.786683 
L 411.641118 -177.385939 
L 411.433359 -176.985194 
L 411.234112 -176.58445 
L 411.04178 -176.183705 
L 410.85454 -175.782961 
L 410.670415 -175.382216 
L 410.487348 -174.981472 
L 410.30327 -174.580727 
L 410.11617 -174.179983 
L 409.924155 -173.779238 
L 409.725511 -173.378494 
L 409.518746 -172.977749 
L 409.302631 -172.577005 
L 409.076234 -172.17626 
L 408.838933 -171.775516 
L 408.590431 -171.374771 
L 408.330756 -170.974027 
L 408.060252 -170.573282 
L 407.779559 -170.172538 
L 407.489594 -169.771793 
L 407.191516 -169.371049 
L 406.886693 -168.970304 
L 406.576663 -168.56956 
L 406.263089 -168.168815 
L 405.947725 -167.768071 
L 405.632362 -167.367326 
L 405.318799 -166.966582 
L 405.008799 -166.565837 
L 404.704055 -166.165093 
L 404.406158 -165.764348 
L 404.116576 -165.363604 
L 403.836627 -164.962859 
L 403.567464 -164.562115 
L 403.310068 -164.16137 
L 403.065234 -163.760626 
L 402.833578 -163.359881 
L 402.615532 -162.959137 
L 402.411354 -162.558392 
L 402.221137 -162.157648 
L 402.044821 -161.756903 
L 401.882207 -161.356159 
L 401.732973 -160.955414 
L 401.596689 -160.55467 
z
" style="stroke: #3d3d3d; stroke-width: 1.5"/>
    </defs>
    <g clip-path="url(#p47a5e0de3a)">
     <use xlink:href="#mf1e91e2fd4" x="0" y="393.011865" style="fill: #c03d3e; stroke: #3d3d3d; stroke-width: 1.5"/>
    </g>
   </g>
   <g id="PolyCollection_9">
    <defs>
     <path id="mb296d2ce5d" d="M 440.734002 -116.67774 
L 439.769033 -116.67774 
L 439.702742 -118.110592 
L 439.629792 -119.543444 
L 439.549908 -120.976296 
L 439.462865 -122.409148 
L 439.368495 -123.842 
L 439.266705 -125.274852 
L 439.157478 -126.707704 
L 439.040889 -128.140555 
L 438.917106 -129.573407 
L 438.786405 -131.006259 
L 438.64917 -132.439111 
L 438.505897 -133.871963 
L 438.3572 -135.304815 
L 438.203804 -136.737667 
L 438.046549 -138.170518 
L 437.886376 -139.60337 
L 437.724328 -141.036222 
L 437.561531 -142.469074 
L 437.399183 -143.901926 
L 437.238539 -145.334778 
L 437.080891 -146.76763 
L 436.927548 -148.200482 
L 436.779816 -149.633333 
L 436.63897 -151.066185 
L 436.506239 -152.499037 
L 436.382775 -153.931889 
L 436.269633 -155.364741 
L 436.167754 -156.797593 
L 436.07794 -158.230445 
L 436.000839 -159.663296 
L 435.936935 -161.096148 
L 435.886531 -162.529 
L 435.849749 -163.961852 
L 435.826523 -165.394704 
L 435.816603 -166.827556 
L 435.819561 -168.260408 
L 435.834798 -169.69326 
L 435.861564 -171.126111 
L 435.898968 -172.558963 
L 435.946004 -173.991815 
L 436.001574 -175.424667 
L 436.064509 -176.857519 
L 436.1336 -178.290371 
L 436.207622 -179.723223 
L 436.285364 -181.156075 
L 436.365649 -182.588926 
L 436.447365 -184.021778 
L 436.529484 -185.45463 
L 436.611082 -186.887482 
L 436.691353 -188.320334 
L 436.769625 -189.753186 
L 436.845368 -191.186038 
L 436.918196 -192.618889 
L 436.987872 -194.051741 
L 437.054299 -195.484593 
L 437.117519 -196.917445 
L 437.177701 -198.350297 
L 437.235124 -199.783149 
L 437.290166 -201.216001 
L 437.343284 -202.648853 
L 437.394997 -204.081704 
L 437.445861 -205.514556 
L 437.496456 -206.947408 
L 437.54736 -208.38026 
L 437.599136 -209.813112 
L 437.652311 -211.245964 
L 437.707359 -212.678816 
L 437.764695 -214.111668 
L 437.824657 -215.544519 
L 437.8875 -216.977371 
L 437.953393 -218.410223 
L 438.022415 -219.843075 
L 438.094554 -221.275927 
L 438.169711 -222.708779 
L 438.247703 -224.141631 
L 438.328273 -225.574482 
L 438.411097 -227.007334 
L 438.495793 -228.440186 
L 438.581931 -229.873038 
L 438.669048 -231.30589 
L 438.756659 -232.738742 
L 438.844264 -234.171594 
L 438.931364 -235.604446 
L 439.017472 -237.037297 
L 439.102118 -238.470149 
L 439.184861 -239.903001 
L 439.265294 -241.335853 
L 439.343053 -242.768705 
L 439.417819 -244.201557 
L 439.489321 -245.634409 
L 439.557337 -247.067261 
L 439.6217 -248.500112 
L 439.682288 -249.932964 
L 439.73903 -251.365816 
L 439.7919 -252.798668 
L 439.840916 -254.23152 
L 439.886131 -255.664372 
L 439.927636 -257.097224 
L 439.965548 -258.530075 
L 440.537487 -258.530075 
L 440.537487 -258.530075 
L 440.575399 -257.097224 
L 440.616903 -255.664372 
L 440.662119 -254.23152 
L 440.711134 -252.798668 
L 440.764005 -251.365816 
L 440.820747 -249.932964 
L 440.881335 -248.500112 
L 440.945697 -247.067261 
L 441.013714 -245.634409 
L 441.085215 -244.201557 
L 441.159981 -242.768705 
L 441.23774 -241.335853 
L 441.318174 -239.903001 
L 441.400916 -238.470149 
L 441.485562 -237.037297 
L 441.57167 -235.604446 
L 441.658771 -234.171594 
L 441.746376 -232.738742 
L 441.833986 -231.30589 
L 441.921104 -229.873038 
L 442.007242 -228.440186 
L 442.091937 -227.007334 
L 442.174761 -225.574482 
L 442.255331 -224.141631 
L 442.333323 -222.708779 
L 442.40848 -221.275927 
L 442.480619 -219.843075 
L 442.549641 -218.410223 
L 442.615534 -216.977371 
L 442.678378 -215.544519 
L 442.738339 -214.111668 
L 442.795675 -212.678816 
L 442.850724 -211.245964 
L 442.903898 -209.813112 
L 442.955674 -208.38026 
L 443.006579 -206.947408 
L 443.057173 -205.514556 
L 443.108038 -204.081704 
L 443.15975 -202.648853 
L 443.212868 -201.216001 
L 443.267911 -199.783149 
L 443.325333 -198.350297 
L 443.385515 -196.917445 
L 443.448736 -195.484593 
L 443.515163 -194.051741 
L 443.584838 -192.618889 
L 443.657666 -191.186038 
L 443.733409 -189.753186 
L 443.811682 -188.320334 
L 443.891953 -186.887482 
L 443.97355 -185.45463 
L 444.055669 -184.021778 
L 444.137386 -182.588926 
L 444.217671 -181.156075 
L 444.295412 -179.723223 
L 444.369434 -178.290371 
L 444.438525 -176.857519 
L 444.501461 -175.424667 
L 444.55703 -173.991815 
L 444.604067 -172.558963 
L 444.641471 -171.126111 
L 444.668236 -169.69326 
L 444.683473 -168.260408 
L 444.686431 -166.827556 
L 444.676511 -165.394704 
L 444.653285 -163.961852 
L 444.616503 -162.529 
L 444.566099 -161.096148 
L 444.502195 -159.663296 
L 444.425094 -158.230445 
L 444.33528 -156.797593 
L 444.233401 -155.364741 
L 444.12026 -153.931889 
L 443.996795 -152.499037 
L 443.864064 -151.066185 
L 443.723219 -149.633333 
L 443.575486 -148.200482 
L 443.422144 -146.76763 
L 443.264496 -145.334778 
L 443.103852 -143.901926 
L 442.941503 -142.469074 
L 442.778706 -141.036222 
L 442.616658 -139.60337 
L 442.456486 -138.170518 
L 442.29923 -136.737667 
L 442.145835 -135.304815 
L 441.997137 -133.871963 
L 441.853865 -132.439111 
L 441.716629 -131.006259 
L 441.585928 -129.573407 
L 441.462146 -128.140555 
L 441.345556 -126.707704 
L 441.236329 -125.274852 
L 441.134539 -123.842 
L 441.04017 -122.409148 
L 440.953126 -120.976296 
L 440.873242 -119.543444 
L 440.800292 -118.110592 
L 440.734002 -116.67774 
z
" style="stroke: #3d3d3d; stroke-width: 1.5"/>
    </defs>
    <g clip-path="url(#p47a5e0de3a)">
     <use xlink:href="#mb296d2ce5d" x="0" y="393.011865" style="fill: #d1d197; stroke: #3d3d3d; stroke-width: 1.5"/>
    </g>
   </g>
   <g id="matplotlib.axis_1">
    <g id="xtick_1">
     <g id="line2d_1">
      <defs>
       <path id="m4813a189d2" d="M 0 0 
L 0 3.5 
" style="stroke: #000000; stroke-width: 0.8"/>
      </defs>
      <g>
       <use xlink:href="#m4813a189d2" x="122.811517" y="288.430125" style="stroke: #000000; stroke-width: 0.8"/>
      </g>
     </g>
     <g id="text_1">
      <!-- aflplusplus_ast_o3_native -->
      <g transform="translate(10.999219 365.884784)rotate(-30)scale(0.1 -0.1)">
       <defs>
        <path id="DejaVuSans-61" d="M 2194 1759 
Q 1497 1759 1228 1600 
Q 959 1441 959 1056 
Q 959 750 1161 570 
Q 1363 391 1709 391 
Q 2188 391 2477 730 
Q 2766 1069 2766 1631 
L 2766 1759 
L 2194 1759 
z
M 3341 1997 
L 3341 0 
L 2766 0 
L 2766 531 
Q 2569 213 2275 61 
Q 1981 -91 1556 -91 
Q 1019 -91 701 211 
Q 384 513 384 1019 
Q 384 1609 779 1909 
Q 1175 2209 1959 2209 
L 2766 2209 
L 2766 2266 
Q 2766 2663 2505 2880 
Q 2244 3097 1772 3097 
Q 1472 3097 1187 3025 
Q 903 2953 641 2809 
L 641 3341 
Q 956 3463 1253 3523 
Q 1550 3584 1831 3584 
Q 2591 3584 2966 3190 
Q 3341 2797 3341 1997 
z
" transform="scale(0.015625)"/>
        <path id="DejaVuSans-66" d="M 2375 4863 
L 2375 4384 
L 1825 4384 
Q 1516 4384 1395 4259 
Q 1275 4134 1275 3809 
L 1275 3500 
L 2222 3500 
L 2222 3053 
L 1275 3053 
L 1275 0 
L 697 0 
L 697 3053 
L 147 3053 
L 147 3500 
L 697 3500 
L 697 3744 
Q 697 4328 969 4595 
Q 1241 4863 1831 4863 
L 2375 4863 
z
" transform="scale(0.015625)"/>
        <path id="DejaVuSans-6c" d="M 603 4863 
L 1178 4863 
L 1178 0 
L 603 0 
L 603 4863 
z
" transform="scale(0.015625)"/>
        <path id="DejaVuSans-70" d="M 1159 525 
L 1159 -1331 
L 581 -1331 
L 581 3500 
L 1159 3500 
L 1159 2969 
Q 1341 3281 1617 3432 
Q 1894 3584 2278 3584 
Q 2916 3584 3314 3078 
Q 3713 2572 3713 1747 
Q 3713 922 3314 415 
Q 2916 -91 2278 -91 
Q 1894 -91 1617 61 
Q 1341 213 1159 525 
z
M 3116 1747 
Q 3116 2381 2855 2742 
Q 2594 3103 2138 3103 
Q 1681 3103 1420 2742 
Q 1159 2381 1159 1747 
Q 1159 1113 1420 752 
Q 1681 391 2138 391 
Q 2594 391 2855 752 
Q 3116 1113 3116 1747 
z
" transform="scale(0.015625)"/>
        <path id="DejaVuSans-75" d="M 544 1381 
L 544 3500 
L 1119 3500 
L 1119 1403 
Q 1119 906 1312 657 
Q 1506 409 1894 409 
Q 2359 409 2629 706 
Q 2900 1003 2900 1516 
L 2900 3500 
L 3475 3500 
L 3475 0 
L 2900 0 
L 2900 538 
Q 2691 219 2414 64 
Q 2138 -91 1772 -91 
Q 1169 -91 856 284 
Q 544 659 544 1381 
z
M 1991 3584 
L 1991 3584 
z
" transform="scale(0.015625)"/>
        <path id="DejaVuSans-73" d="M 2834 3397 
L 2834 2853 
Q 2591 2978 2328 3040 
Q 2066 3103 1784 3103 
Q 1356 3103 1142 2972 
Q 928 2841 928 2578 
Q 928 2378 1081 2264 
Q 1234 2150 1697 2047 
L 1894 2003 
Q 2506 1872 2764 1633 
Q 3022 1394 3022 966 
Q 3022 478 2636 193 
Q 2250 -91 1575 -91 
Q 1294 -91 989 -36 
Q 684 19 347 128 
L 347 722 
Q 666 556 975 473 
Q 1284 391 1588 391 
Q 1994 391 2212 530 
Q 2431 669 2431 922 
Q 2431 1156 2273 1281 
Q 2116 1406 1581 1522 
L 1381 1569 
Q 847 1681 609 1914 
Q 372 2147 372 2553 
Q 372 3047 722 3315 
Q 1072 3584 1716 3584 
Q 2034 3584 2315 3537 
Q 2597 3491 2834 3397 
z
" transform="scale(0.015625)"/>
        <path id="DejaVuSans-5f" d="M 3263 -1063 
L 3263 -1509 
L -63 -1509 
L -63 -1063 
L 3263 -1063 
z
" transform="scale(0.015625)"/>
        <path id="DejaVuSans-74" d="M 1172 4494 
L 1172 3500 
L 2356 3500 
L 2356 3053 
L 1172 3053 
L 1172 1153 
Q 1172 725 1289 603 
Q 1406 481 1766 481 
L 2356 481 
L 2356 0 
L 1766 0 
Q 1100 0 847 248 
Q 594 497 594 1153 
L 594 3053 
L 172 3053 
L 172 3500 
L 594 3500 
L 594 4494 
L 1172 4494 
z
" transform="scale(0.015625)"/>
        <path id="DejaVuSans-6f" d="M 1959 3097 
Q 1497 3097 1228 2736 
Q 959 2375 959 1747 
Q 959 1119 1226 758 
Q 1494 397 1959 397 
Q 2419 397 2687 759 
Q 2956 1122 2956 1747 
Q 2956 2369 2687 2733 
Q 2419 3097 1959 3097 
z
M 1959 3584 
Q 2709 3584 3137 3096 
Q 3566 2609 3566 1747 
Q 3566 888 3137 398 
Q 2709 -91 1959 -91 
Q 1206 -91 779 398 
Q 353 888 353 1747 
Q 353 2609 779 3096 
Q 1206 3584 1959 3584 
z
" transform="scale(0.015625)"/>
        <path id="DejaVuSans-33" d="M 2597 2516 
Q 3050 2419 3304 2112 
Q 3559 1806 3559 1356 
Q 3559 666 3084 287 
Q 2609 -91 1734 -91 
Q 1441 -91 1130 -33 
Q 819 25 488 141 
L 488 750 
Q 750 597 1062 519 
Q 1375 441 1716 441 
Q 2309 441 2620 675 
Q 2931 909 2931 1356 
Q 2931 1769 2642 2001 
Q 2353 2234 1838 2234 
L 1294 2234 
L 1294 2753 
L 1863 2753 
Q 2328 2753 2575 2939 
Q 2822 3125 2822 3475 
Q 2822 3834 2567 4026 
Q 2313 4219 1838 4219 
Q 1578 4219 1281 4162 
Q 984 4106 628 3988 
L 628 4550 
Q 988 4650 1302 4700 
Q 1616 4750 1894 4750 
Q 2613 4750 3031 4423 
Q 3450 4097 3450 3541 
Q 3450 3153 3228 2886 
Q 3006 2619 2597 2516 
z
" transform="scale(0.015625)"/>
        <path id="DejaVuSans-6e" d="M 3513 2113 
L 3513 0 
L 2938 0 
L 2938 2094 
Q 2938 2591 2744 2837 
Q 2550 3084 2163 3084 
Q 1697 3084 1428 2787 
Q 1159 2491 1159 1978 
L 1159 0 
L 581 0 
L 581 3500 
L 1159 3500 
L 1159 2956 
Q 1366 3272 1645 3428 
Q 1925 3584 2291 3584 
Q 2894 3584 3203 3211 
Q 3513 2838 3513 2113 
z
" transform="scale(0.015625)"/>
        <path id="DejaVuSans-69" d="M 603 3500 
L 1178 3500 
L 1178 0 
L 603 0 
L 603 3500 
z
M 603 4863 
L 1178 4863 
L 1178 4134 
L 603 4134 
L 603 4863 
z
" transform="scale(0.015625)"/>
        <path id="DejaVuSans-76" d="M 191 3500 
L 800 3500 
L 1894 563 
L 2988 3500 
L 3597 3500 
L 2284 0 
L 1503 0 
L 191 3500 
z
" transform="scale(0.015625)"/>
        <path id="DejaVuSans-65" d="M 3597 1894 
L 3597 1613 
L 953 1613 
Q 991 1019 1311 708 
Q 1631 397 2203 397 
Q 2534 397 2845 478 
Q 3156 559 3463 722 
L 3463 178 
Q 3153 47 2828 -22 
Q 2503 -91 2169 -91 
Q 1331 -91 842 396 
Q 353 884 353 1716 
Q 353 2575 817 3079 
Q 1281 3584 2069 3584 
Q 2775 3584 3186 3129 
Q 3597 2675 3597 1894 
z
M 3022 2063 
Q 3016 2534 2758 2815 
Q 2500 3097 2075 3097 
Q 1594 3097 1305 2825 
Q 1016 2553 972 2059 
L 3022 2063 
z
" transform="scale(0.015625)"/>
       </defs>
       <use xlink:href="#DejaVuSans-61"/>
       <use xlink:href="#DejaVuSans-66" x="61.279297"/>
       <use xlink:href="#DejaVuSans-6c" x="96.484375"/>
       <use xlink:href="#DejaVuSans-70" x="124.267578"/>
       <use xlink:href="#DejaVuSans-6c" x="187.744141"/>
       <use xlink:href="#DejaVuSans-75" x="215.527344"/>
       <use xlink:href="#DejaVuSans-73" x="278.90625"/>
       <use xlink:href="#DejaVuSans-70" x="331.005859"/>
       <use xlink:href="#DejaVuSans-6c" x="394.482422"/>
       <use xlink:href="#DejaVuSans-75" x="422.265625"/>
       <use xlink:href="#DejaVuSans-73" x="485.644531"/>
       <use xlink:href="#DejaVuSans-5f" x="537.744141"/>
       <use xlink:href="#DejaVuSans-61" x="587.744141"/>
       <use xlink:href="#DejaVuSans-73" x="649.023438"/>
       <use xlink:href="#DejaVuSans-74" x="701.123047"/>
       <use xlink:href="#DejaVuSans-5f" x="740.332031"/>
       <use xlink:href="#DejaVuSans-6f" x="790.332031"/>
       <use xlink:href="#DejaVuSans-33" x="851.513672"/>
       <use xlink:href="#DejaVuSans-5f" x="915.136719"/>
       <use xlink:href="#DejaVuSans-6e" x="965.136719"/>
       <use xlink:href="#DejaVuSans-61" x="1028.515625"/>
       <use xlink:href="#DejaVuSans-74" x="1089.794922"/>
       <use xlink:href="#DejaVuSans-69" x="1129.003906"/>
       <use xlink:href="#DejaVuSans-76" x="1156.787109"/>
       <use xlink:href="#DejaVuSans-65" x="1215.966797"/>
      </g>
     </g>
    </g>
    <g id="xtick_2">
     <g id="line2d_2">
      <g>
       <use xlink:href="#m4813a189d2" x="162.491517" y="288.430125" style="stroke: #000000; stroke-width: 0.8"/>
      </g>
     </g>
     <g id="text_2">
      <!-- aflplusplus_ast_f1 -->
      <g transform="translate(84.310774 346.467596)rotate(-30)scale(0.1 -0.1)">
       <defs>
        <path id="DejaVuSans-31" d="M 794 531 
L 1825 531 
L 1825 4091 
L 703 3866 
L 703 4441 
L 1819 4666 
L 2450 4666 
L 2450 531 
L 3481 531 
L 3481 0 
L 794 0 
L 794 531 
z
" transform="scale(0.015625)"/>
       </defs>
       <use xlink:href="#DejaVuSans-61"/>
       <use xlink:href="#DejaVuSans-66" x="61.279297"/>
       <use xlink:href="#DejaVuSans-6c" x="96.484375"/>
       <use xlink:href="#DejaVuSans-70" x="124.267578"/>
       <use xlink:href="#DejaVuSans-6c" x="187.744141"/>
       <use xlink:href="#DejaVuSans-75" x="215.527344"/>
       <use xlink:href="#DejaVuSans-73" x="278.90625"/>
       <use xlink:href="#DejaVuSans-70" x="331.005859"/>
       <use xlink:href="#DejaVuSans-6c" x="394.482422"/>
       <use xlink:href="#DejaVuSans-75" x="422.265625"/>
       <use xlink:href="#DejaVuSans-73" x="485.644531"/>
       <use xlink:href="#DejaVuSans-5f" x="537.744141"/>
       <use xlink:href="#DejaVuSans-61" x="587.744141"/>
       <use xlink:href="#DejaVuSans-73" x="649.023438"/>
       <use xlink:href="#DejaVuSans-74" x="701.123047"/>
       <use xlink:href="#DejaVuSans-5f" x="740.332031"/>
       <use xlink:href="#DejaVuSans-66" x="790.332031"/>
       <use xlink:href="#DejaVuSans-31" x="825.537109"/>
      </g>
     </g>
    </g>
    <g id="xtick_3">
     <g id="line2d_3">
      <g>
       <use xlink:href="#m4813a189d2" x="202.171517" y="288.430125" style="stroke: #000000; stroke-width: 0.8"/>
      </g>
     </g>
     <g id="text_3">
      <!-- aflplusplus_ast_o2 -->
      <g transform="translate(121.740461 347.766815)rotate(-30)scale(0.1 -0.1)">
       <defs>
        <path id="DejaVuSans-32" d="M 1228 531 
L 3431 531 
L 3431 0 
L 469 0 
L 469 531 
Q 828 903 1448 1529 
Q 2069 2156 2228 2338 
Q 2531 2678 2651 2914 
Q 2772 3150 2772 3378 
Q 2772 3750 2511 3984 
Q 2250 4219 1831 4219 
Q 1534 4219 1204 4116 
Q 875 4013 500 3803 
L 500 4441 
Q 881 4594 1212 4672 
Q 1544 4750 1819 4750 
Q 2544 4750 2975 4387 
Q 3406 4025 3406 3419 
Q 3406 3131 3298 2873 
Q 3191 2616 2906 2266 
Q 2828 2175 2409 1742 
Q 1991 1309 1228 531 
z
" transform="scale(0.015625)"/>
       </defs>
       <use xlink:href="#DejaVuSans-61"/>
       <use xlink:href="#DejaVuSans-66" x="61.279297"/>
       <use xlink:href="#DejaVuSans-6c" x="96.484375"/>
       <use xlink:href="#DejaVuSans-70" x="124.267578"/>
       <use xlink:href="#DejaVuSans-6c" x="187.744141"/>
       <use xlink:href="#DejaVuSans-75" x="215.527344"/>
       <use xlink:href="#DejaVuSans-73" x="278.90625"/>
       <use xlink:href="#DejaVuSans-70" x="331.005859"/>
       <use xlink:href="#DejaVuSans-6c" x="394.482422"/>
       <use xlink:href="#DejaVuSans-75" x="422.265625"/>
       <use xlink:href="#DejaVuSans-73" x="485.644531"/>
       <use xlink:href="#DejaVuSans-5f" x="537.744141"/>
       <use xlink:href="#DejaVuSans-61" x="587.744141"/>
       <use xlink:href="#DejaVuSans-73" x="649.023438"/>
       <use xlink:href="#DejaVuSans-74" x="701.123047"/>
       <use xlink:href="#DejaVuSans-5f" x="740.332031"/>
       <use xlink:href="#DejaVuSans-6f" x="790.332031"/>
       <use xlink:href="#DejaVuSans-32" x="851.513672"/>
      </g>
     </g>
    </g>
    <g id="xtick_4">
     <g id="line2d_4">
      <g>
       <use xlink:href="#m4813a189d2" x="241.851517" y="288.430125" style="stroke: #000000; stroke-width: 0.8"/>
      </g>
     </g>
     <g id="text_4">
      <!-- aflplusplus_ast_o1 -->
      <g transform="translate(161.420461 347.766815)rotate(-30)scale(0.1 -0.1)">
       <use xlink:href="#DejaVuSans-61"/>
       <use xlink:href="#DejaVuSans-66" x="61.279297"/>
       <use xlink:href="#DejaVuSans-6c" x="96.484375"/>
       <use xlink:href="#DejaVuSans-70" x="124.267578"/>
       <use xlink:href="#DejaVuSans-6c" x="187.744141"/>
       <use xlink:href="#DejaVuSans-75" x="215.527344"/>
       <use xlink:href="#DejaVuSans-73" x="278.90625"/>
       <use xlink:href="#DejaVuSans-70" x="331.005859"/>
       <use xlink:href="#DejaVuSans-6c" x="394.482422"/>
       <use xlink:href="#DejaVuSans-75" x="422.265625"/>
       <use xlink:href="#DejaVuSans-73" x="485.644531"/>
       <use xlink:href="#DejaVuSans-5f" x="537.744141"/>
       <use xlink:href="#DejaVuSans-61" x="587.744141"/>
       <use xlink:href="#DejaVuSans-73" x="649.023438"/>
       <use xlink:href="#DejaVuSans-74" x="701.123047"/>
       <use xlink:href="#DejaVuSans-5f" x="740.332031"/>
       <use xlink:href="#DejaVuSans-6f" x="790.332031"/>
       <use xlink:href="#DejaVuSans-31" x="851.513672"/>
      </g>
     </g>
    </g>
    <g id="xtick_5">
     <g id="line2d_5">
      <g>
       <use xlink:href="#m4813a189d2" x="281.531517" y="288.430125" style="stroke: #000000; stroke-width: 0.8"/>
      </g>
     </g>
     <g id="text_5">
      <!-- aflplusplus_ast_o3 -->
      <g transform="translate(201.100461 347.766815)rotate(-30)scale(0.1 -0.1)">
       <use xlink:href="#DejaVuSans-61"/>
       <use xlink:href="#DejaVuSans-66" x="61.279297"/>
       <use xlink:href="#DejaVuSans-6c" x="96.484375"/>
       <use xlink:href="#DejaVuSans-70" x="124.267578"/>
       <use xlink:href="#DejaVuSans-6c" x="187.744141"/>
       <use xlink:href="#DejaVuSans-75" x="215.527344"/>
       <use xlink:href="#DejaVuSans-73" x="278.90625"/>
       <use xlink:href="#DejaVuSans-70" x="331.005859"/>
       <use xlink:href="#DejaVuSans-6c" x="394.482422"/>
       <use xlink:href="#DejaVuSans-75" x="422.265625"/>
       <use xlink:href="#DejaVuSans-73" x="485.644531"/>
       <use xlink:href="#DejaVuSans-5f" x="537.744141"/>
       <use xlink:href="#DejaVuSans-61" x="587.744141"/>
       <use xlink:href="#DejaVuSans-73" x="649.023438"/>
       <use xlink:href="#DejaVuSans-74" x="701.123047"/>
       <use xlink:href="#DejaVuSans-5f" x="740.332031"/>
       <use xlink:href="#DejaVuSans-6f" x="790.332031"/>
       <use xlink:href="#DejaVuSans-33" x="851.513672"/>
      </g>
     </g>
    </g>
    <g id="xtick_6">
     <g id="line2d_6">
      <g>
       <use xlink:href="#m4813a189d2" x="321.211517" y="288.430125" style="stroke: #000000; stroke-width: 0.8"/>
      </g>
     </g>
     <g id="text_6">
      <!-- aflplusplus_ast_opt_l1 -->
      <g transform="translate(225.151409 356.790252)rotate(-30)scale(0.1 -0.1)">
       <use xlink:href="#DejaVuSans-61"/>
       <use xlink:href="#DejaVuSans-66" x="61.279297"/>
       <use xlink:href="#DejaVuSans-6c" x="96.484375"/>
       <use xlink:href="#DejaVuSans-70" x="124.267578"/>
       <use xlink:href="#DejaVuSans-6c" x="187.744141"/>
       <use xlink:href="#DejaVuSans-75" x="215.527344"/>
       <use xlink:href="#DejaVuSans-73" x="278.90625"/>
       <use xlink:href="#DejaVuSans-70" x="331.005859"/>
       <use xlink:href="#DejaVuSans-6c" x="394.482422"/>
       <use xlink:href="#DejaVuSans-75" x="422.265625"/>
       <use xlink:href="#DejaVuSans-73" x="485.644531"/>
       <use xlink:href="#DejaVuSans-5f" x="537.744141"/>
       <use xlink:href="#DejaVuSans-61" x="587.744141"/>
       <use xlink:href="#DejaVuSans-73" x="649.023438"/>
       <use xlink:href="#DejaVuSans-74" x="701.123047"/>
       <use xlink:href="#DejaVuSans-5f" x="740.332031"/>
       <use xlink:href="#DejaVuSans-6f" x="790.332031"/>
       <use xlink:href="#DejaVuSans-70" x="851.513672"/>
       <use xlink:href="#DejaVuSans-74" x="914.990234"/>
       <use xlink:href="#DejaVuSans-5f" x="954.199219"/>
       <use xlink:href="#DejaVuSans-6c" x="1004.199219"/>
       <use xlink:href="#DejaVuSans-31" x="1031.982422"/>
      </g>
     </g>
    </g>
    <g id="xtick_7">
     <g id="line2d_7">
      <g>
       <use xlink:href="#m4813a189d2" x="360.891517" y="288.430125" style="stroke: #000000; stroke-width: 0.8"/>
      </g>
     </g>
     <g id="text_7">
      <!-- aflplusplus_ast_f0 -->
      <g transform="translate(282.710774 346.467596)rotate(-30)scale(0.1 -0.1)">
       <defs>
        <path id="DejaVuSans-30" d="M 2034 4250 
Q 1547 4250 1301 3770 
Q 1056 3291 1056 2328 
Q 1056 1369 1301 889 
Q 1547 409 2034 409 
Q 2525 409 2770 889 
Q 3016 1369 3016 2328 
Q 3016 3291 2770 3770 
Q 2525 4250 2034 4250 
z
M 2034 4750 
Q 2819 4750 3233 4129 
Q 3647 3509 3647 2328 
Q 3647 1150 3233 529 
Q 2819 -91 2034 -91 
Q 1250 -91 836 529 
Q 422 1150 422 2328 
Q 422 3509 836 4129 
Q 1250 4750 2034 4750 
z
" transform="scale(0.015625)"/>
       </defs>
       <use xlink:href="#DejaVuSans-61"/>
       <use xlink:href="#DejaVuSans-66" x="61.279297"/>
       <use xlink:href="#DejaVuSans-6c" x="96.484375"/>
       <use xlink:href="#DejaVuSans-70" x="124.267578"/>
       <use xlink:href="#DejaVuSans-6c" x="187.744141"/>
       <use xlink:href="#DejaVuSans-75" x="215.527344"/>
       <use xlink:href="#DejaVuSans-73" x="278.90625"/>
       <use xlink:href="#DejaVuSans-70" x="331.005859"/>
       <use xlink:href="#DejaVuSans-6c" x="394.482422"/>
       <use xlink:href="#DejaVuSans-75" x="422.265625"/>
       <use xlink:href="#DejaVuSans-73" x="485.644531"/>
       <use xlink:href="#DejaVuSans-5f" x="537.744141"/>
       <use xlink:href="#DejaVuSans-61" x="587.744141"/>
       <use xlink:href="#DejaVuSans-73" x="649.023438"/>
       <use xlink:href="#DejaVuSans-74" x="701.123047"/>
       <use xlink:href="#DejaVuSans-5f" x="740.332031"/>
       <use xlink:href="#DejaVuSans-66" x="790.332031"/>
       <use xlink:href="#DejaVuSans-30" x="825.537109"/>
      </g>
     </g>
    </g>
    <g id="xtick_8">
     <g id="line2d_8">
      <g>
       <use xlink:href="#m4813a189d2" x="400.571517" y="288.430125" style="stroke: #000000; stroke-width: 0.8"/>
      </g>
     </g>
     <g id="text_8">
      <!-- aflplusplus_ast_o0 -->
      <g transform="translate(320.140461 347.766815)rotate(-30)scale(0.1 -0.1)">
       <use xlink:href="#DejaVuSans-61"/>
       <use xlink:href="#DejaVuSans-66" x="61.279297"/>
       <use xlink:href="#DejaVuSans-6c" x="96.484375"/>
       <use xlink:href="#DejaVuSans-70" x="124.267578"/>
       <use xlink:href="#DejaVuSans-6c" x="187.744141"/>
       <use xlink:href="#DejaVuSans-75" x="215.527344"/>
       <use xlink:href="#DejaVuSans-73" x="278.90625"/>
       <use xlink:href="#DejaVuSans-70" x="331.005859"/>
       <use xlink:href="#DejaVuSans-6c" x="394.482422"/>
       <use xlink:href="#DejaVuSans-75" x="422.265625"/>
       <use xlink:href="#DejaVuSans-73" x="485.644531"/>
       <use xlink:href="#DejaVuSans-5f" x="537.744141"/>
       <use xlink:href="#DejaVuSans-61" x="587.744141"/>
       <use xlink:href="#DejaVuSans-73" x="649.023438"/>
       <use xlink:href="#DejaVuSans-74" x="701.123047"/>
       <use xlink:href="#DejaVuSans-5f" x="740.332031"/>
       <use xlink:href="#DejaVuSans-6f" x="790.332031"/>
       <use xlink:href="#DejaVuSans-30" x="851.513672"/>
      </g>
     </g>
    </g>
    <g id="xtick_9">
     <g id="line2d_9">
      <g>
       <use xlink:href="#m4813a189d2" x="440.251517" y="288.430125" style="stroke: #000000; stroke-width: 0.8"/>
      </g>
     </g>
     <g id="text_9">
      <!-- aflplusplus_ast_opt_disable -->
      <g transform="translate(321.152427 370.091815)rotate(-30)scale(0.1 -0.1)">
       <defs>
        <path id="DejaVuSans-64" d="M 2906 2969 
L 2906 4863 
L 3481 4863 
L 3481 0 
L 2906 0 
L 2906 525 
Q 2725 213 2448 61 
Q 2172 -91 1784 -91 
Q 1150 -91 751 415 
Q 353 922 353 1747 
Q 353 2572 751 3078 
Q 1150 3584 1784 3584 
Q 2172 3584 2448 3432 
Q 2725 3281 2906 2969 
z
M 947 1747 
Q 947 1113 1208 752 
Q 1469 391 1925 391 
Q 2381 391 2643 752 
Q 2906 1113 2906 1747 
Q 2906 2381 2643 2742 
Q 2381 3103 1925 3103 
Q 1469 3103 1208 2742 
Q 947 2381 947 1747 
z
" transform="scale(0.015625)"/>
        <path id="DejaVuSans-62" d="M 3116 1747 
Q 3116 2381 2855 2742 
Q 2594 3103 2138 3103 
Q 1681 3103 1420 2742 
Q 1159 2381 1159 1747 
Q 1159 1113 1420 752 
Q 1681 391 2138 391 
Q 2594 391 2855 752 
Q 3116 1113 3116 1747 
z
M 1159 2969 
Q 1341 3281 1617 3432 
Q 1894 3584 2278 3584 
Q 2916 3584 3314 3078 
Q 3713 2572 3713 1747 
Q 3713 922 3314 415 
Q 2916 -91 2278 -91 
Q 1894 -91 1617 61 
Q 1341 213 1159 525 
L 1159 0 
L 581 0 
L 581 4863 
L 1159 4863 
L 1159 2969 
z
" transform="scale(0.015625)"/>
       </defs>
       <use xlink:href="#DejaVuSans-61"/>
       <use xlink:href="#DejaVuSans-66" x="61.279297"/>
       <use xlink:href="#DejaVuSans-6c" x="96.484375"/>
       <use xlink:href="#DejaVuSans-70" x="124.267578"/>
       <use xlink:href="#DejaVuSans-6c" x="187.744141"/>
       <use xlink:href="#DejaVuSans-75" x="215.527344"/>
       <use xlink:href="#DejaVuSans-73" x="278.90625"/>
       <use xlink:href="#DejaVuSans-70" x="331.005859"/>
       <use xlink:href="#DejaVuSans-6c" x="394.482422"/>
       <use xlink:href="#DejaVuSans-75" x="422.265625"/>
       <use xlink:href="#DejaVuSans-73" x="485.644531"/>
       <use xlink:href="#DejaVuSans-5f" x="537.744141"/>
       <use xlink:href="#DejaVuSans-61" x="587.744141"/>
       <use xlink:href="#DejaVuSans-73" x="649.023438"/>
       <use xlink:href="#DejaVuSans-74" x="701.123047"/>
       <use xlink:href="#DejaVuSans-5f" x="740.332031"/>
       <use xlink:href="#DejaVuSans-6f" x="790.332031"/>
       <use xlink:href="#DejaVuSans-70" x="851.513672"/>
       <use xlink:href="#DejaVuSans-74" x="914.990234"/>
       <use xlink:href="#DejaVuSans-5f" x="954.199219"/>
       <use xlink:href="#DejaVuSans-64" x="1004.199219"/>
       <use xlink:href="#DejaVuSans-69" x="1067.675781"/>
       <use xlink:href="#DejaVuSans-73" x="1095.458984"/>
       <use xlink:href="#DejaVuSans-61" x="1147.558594"/>
       <use xlink:href="#DejaVuSans-62" x="1208.837891"/>
       <use xlink:href="#DejaVuSans-6c" x="1272.314453"/>
       <use xlink:href="#DejaVuSans-65" x="1300.097656"/>
      </g>
     </g>
    </g>
    <g id="text_10">
     <!-- Fuzzer (highest median coverage on the left) -->
     <g transform="translate(168.913548 383.732178)scale(0.1 -0.1)">
      <defs>
       <path id="DejaVuSans-46" d="M 628 4666 
L 3309 4666 
L 3309 4134 
L 1259 4134 
L 1259 2759 
L 3109 2759 
L 3109 2228 
L 1259 2228 
L 1259 0 
L 628 0 
L 628 4666 
z
" transform="scale(0.015625)"/>
       <path id="DejaVuSans-7a" d="M 353 3500 
L 3084 3500 
L 3084 2975 
L 922 459 
L 3084 459 
L 3084 0 
L 275 0 
L 275 525 
L 2438 3041 
L 353 3041 
L 353 3500 
z
" transform="scale(0.015625)"/>
       <path id="DejaVuSans-72" d="M 2631 2963 
Q 2534 3019 2420 3045 
Q 2306 3072 2169 3072 
Q 1681 3072 1420 2755 
Q 1159 2438 1159 1844 
L 1159 0 
L 581 0 
L 581 3500 
L 1159 3500 
L 1159 2956 
Q 1341 3275 1631 3429 
Q 1922 3584 2338 3584 
Q 2397 3584 2469 3576 
Q 2541 3569 2628 3553 
L 2631 2963 
z
" transform="scale(0.015625)"/>
       <path id="DejaVuSans-20" transform="scale(0.015625)"/>
       <path id="DejaVuSans-28" d="M 1984 4856 
Q 1566 4138 1362 3434 
Q 1159 2731 1159 2009 
Q 1159 1288 1364 580 
Q 1569 -128 1984 -844 
L 1484 -844 
Q 1016 -109 783 600 
Q 550 1309 550 2009 
Q 550 2706 781 3412 
Q 1013 4119 1484 4856 
L 1984 4856 
z
" transform="scale(0.015625)"/>
       <path id="DejaVuSans-68" d="M 3513 2113 
L 3513 0 
L 2938 0 
L 2938 2094 
Q 2938 2591 2744 2837 
Q 2550 3084 2163 3084 
Q 1697 3084 1428 2787 
Q 1159 2491 1159 1978 
L 1159 0 
L 581 0 
L 581 4863 
L 1159 4863 
L 1159 2956 
Q 1366 3272 1645 3428 
Q 1925 3584 2291 3584 
Q 2894 3584 3203 3211 
Q 3513 2838 3513 2113 
z
" transform="scale(0.015625)"/>
       <path id="DejaVuSans-67" d="M 2906 1791 
Q 2906 2416 2648 2759 
Q 2391 3103 1925 3103 
Q 1463 3103 1205 2759 
Q 947 2416 947 1791 
Q 947 1169 1205 825 
Q 1463 481 1925 481 
Q 2391 481 2648 825 
Q 2906 1169 2906 1791 
z
M 3481 434 
Q 3481 -459 3084 -895 
Q 2688 -1331 1869 -1331 
Q 1566 -1331 1297 -1286 
Q 1028 -1241 775 -1147 
L 775 -588 
Q 1028 -725 1275 -790 
Q 1522 -856 1778 -856 
Q 2344 -856 2625 -561 
Q 2906 -266 2906 331 
L 2906 616 
Q 2728 306 2450 153 
Q 2172 0 1784 0 
Q 1141 0 747 490 
Q 353 981 353 1791 
Q 353 2603 747 3093 
Q 1141 3584 1784 3584 
Q 2172 3584 2450 3431 
Q 2728 3278 2906 2969 
L 2906 3500 
L 3481 3500 
L 3481 434 
z
" transform="scale(0.015625)"/>
       <path id="DejaVuSans-6d" d="M 3328 2828 
Q 3544 3216 3844 3400 
Q 4144 3584 4550 3584 
Q 5097 3584 5394 3201 
Q 5691 2819 5691 2113 
L 5691 0 
L 5113 0 
L 5113 2094 
Q 5113 2597 4934 2840 
Q 4756 3084 4391 3084 
Q 3944 3084 3684 2787 
Q 3425 2491 3425 1978 
L 3425 0 
L 2847 0 
L 2847 2094 
Q 2847 2600 2669 2842 
Q 2491 3084 2119 3084 
Q 1678 3084 1418 2786 
Q 1159 2488 1159 1978 
L 1159 0 
L 581 0 
L 581 3500 
L 1159 3500 
L 1159 2956 
Q 1356 3278 1631 3431 
Q 1906 3584 2284 3584 
Q 2666 3584 2933 3390 
Q 3200 3197 3328 2828 
z
" transform="scale(0.015625)"/>
       <path id="DejaVuSans-63" d="M 3122 3366 
L 3122 2828 
Q 2878 2963 2633 3030 
Q 2388 3097 2138 3097 
Q 1578 3097 1268 2742 
Q 959 2388 959 1747 
Q 959 1106 1268 751 
Q 1578 397 2138 397 
Q 2388 397 2633 464 
Q 2878 531 3122 666 
L 3122 134 
Q 2881 22 2623 -34 
Q 2366 -91 2075 -91 
Q 1284 -91 818 406 
Q 353 903 353 1747 
Q 353 2603 823 3093 
Q 1294 3584 2113 3584 
Q 2378 3584 2631 3529 
Q 2884 3475 3122 3366 
z
" transform="scale(0.015625)"/>
       <path id="DejaVuSans-29" d="M 513 4856 
L 1013 4856 
Q 1481 4119 1714 3412 
Q 1947 2706 1947 2009 
Q 1947 1309 1714 600 
Q 1481 -109 1013 -844 
L 513 -844 
Q 928 -128 1133 580 
Q 1338 1288 1338 2009 
Q 1338 2731 1133 3434 
Q 928 4138 513 4856 
z
" transform="scale(0.015625)"/>
      </defs>
      <use xlink:href="#DejaVuSans-46"/>
      <use xlink:href="#DejaVuSans-75" x="52.019531"/>
      <use xlink:href="#DejaVuSans-7a" x="115.398438"/>
      <use xlink:href="#DejaVuSans-7a" x="167.888672"/>
      <use xlink:href="#DejaVuSans-65" x="220.378906"/>
      <use xlink:href="#DejaVuSans-72" x="281.902344"/>
      <use xlink:href="#DejaVuSans-20" x="323.015625"/>
      <use xlink:href="#DejaVuSans-28" x="354.802734"/>
      <use xlink:href="#DejaVuSans-68" x="393.816406"/>
      <use xlink:href="#DejaVuSans-69" x="457.195312"/>
      <use xlink:href="#DejaVuSans-67" x="484.978516"/>
      <use xlink:href="#DejaVuSans-68" x="548.455078"/>
      <use xlink:href="#DejaVuSans-65" x="611.833984"/>
      <use xlink:href="#DejaVuSans-73" x="673.357422"/>
      <use xlink:href="#DejaVuSans-74" x="725.457031"/>
      <use xlink:href="#DejaVuSans-20" x="764.666016"/>
      <use xlink:href="#DejaVuSans-6d" x="796.453125"/>
      <use xlink:href="#DejaVuSans-65" x="893.865234"/>
      <use xlink:href="#DejaVuSans-64" x="955.388672"/>
      <use xlink:href="#DejaVuSans-69" x="1018.865234"/>
      <use xlink:href="#DejaVuSans-61" x="1046.648438"/>
      <use xlink:href="#DejaVuSans-6e" x="1107.927734"/>
      <use xlink:href="#DejaVuSans-20" x="1171.306641"/>
      <use xlink:href="#DejaVuSans-63" x="1203.09375"/>
      <use xlink:href="#DejaVuSans-6f" x="1258.074219"/>
      <use xlink:href="#DejaVuSans-76" x="1319.255859"/>
      <use xlink:href="#DejaVuSans-65" x="1378.435547"/>
      <use xlink:href="#DejaVuSans-72" x="1439.958984"/>
      <use xlink:href="#DejaVuSans-61" x="1481.072266"/>
      <use xlink:href="#DejaVuSans-67" x="1542.351562"/>
      <use xlink:href="#DejaVuSans-65" x="1605.828125"/>
      <use xlink:href="#DejaVuSans-20" x="1667.351562"/>
      <use xlink:href="#DejaVuSans-6f" x="1699.138672"/>
      <use xlink:href="#DejaVuSans-6e" x="1760.320312"/>
      <use xlink:href="#DejaVuSans-20" x="1823.699219"/>
      <use xlink:href="#DejaVuSans-74" x="1855.486328"/>
      <use xlink:href="#DejaVuSans-68" x="1894.695312"/>
      <use xlink:href="#DejaVuSans-65" x="1958.074219"/>
      <use xlink:href="#DejaVuSans-20" x="2019.597656"/>
      <use xlink:href="#DejaVuSans-6c" x="2051.384766"/>
      <use xlink:href="#DejaVuSans-65" x="2079.167969"/>
      <use xlink:href="#DejaVuSans-66" x="2140.691406"/>
      <use xlink:href="#DejaVuSans-74" x="2174.146484"/>
      <use xlink:href="#DejaVuSans-29" x="2213.355469"/>
     </g>
    </g>
   </g>
   <g id="matplotlib.axis_2">
    <g id="ytick_1">
     <g id="line2d_10">
      <defs>
       <path id="ma087a38366" d="M 0 0 
L -3.5 0 
" style="stroke: #000000; stroke-width: 0.8"/>
      </defs>
      <g>
       <use xlink:href="#ma087a38366" x="102.971517" y="272.175699" style="stroke: #000000; stroke-width: 0.8"/>
      </g>
     </g>
     <g id="text_11">
      <!-- 15000 -->
      <g transform="translate(64.159017 275.974918)scale(0.1 -0.1)">
       <defs>
        <path id="DejaVuSans-35" d="M 691 4666 
L 3169 4666 
L 3169 4134 
L 1269 4134 
L 1269 2991 
Q 1406 3038 1543 3061 
Q 1681 3084 1819 3084 
Q 2600 3084 3056 2656 
Q 3513 2228 3513 1497 
Q 3513 744 3044 326 
Q 2575 -91 1722 -91 
Q 1428 -91 1123 -41 
Q 819 9 494 109 
L 494 744 
Q 775 591 1075 516 
Q 1375 441 1709 441 
Q 2250 441 2565 725 
Q 2881 1009 2881 1497 
Q 2881 1984 2565 2268 
Q 2250 2553 1709 2553 
Q 1456 2553 1204 2497 
Q 953 2441 691 2322 
L 691 4666 
z
" transform="scale(0.015625)"/>
       </defs>
       <use xlink:href="#DejaVuSans-31"/>
       <use xlink:href="#DejaVuSans-35" x="63.623047"/>
       <use xlink:href="#DejaVuSans-30" x="127.246094"/>
       <use xlink:href="#DejaVuSans-30" x="190.869141"/>
       <use xlink:href="#DejaVuSans-30" x="254.492188"/>
      </g>
     </g>
    </g>
    <g id="ytick_2">
     <g id="line2d_11">
      <g>
       <use xlink:href="#ma087a38366" x="102.971517" y="233.50339" style="stroke: #000000; stroke-width: 0.8"/>
      </g>
     </g>
     <g id="text_12">
      <!-- 16000 -->
      <g transform="translate(64.159017 237.302609)scale(0.1 -0.1)">
       <defs>
        <path id="DejaVuSans-36" d="M 2113 2584 
Q 1688 2584 1439 2293 
Q 1191 2003 1191 1497 
Q 1191 994 1439 701 
Q 1688 409 2113 409 
Q 2538 409 2786 701 
Q 3034 994 3034 1497 
Q 3034 2003 2786 2293 
Q 2538 2584 2113 2584 
z
M 3366 4563 
L 3366 3988 
Q 3128 4100 2886 4159 
Q 2644 4219 2406 4219 
Q 1781 4219 1451 3797 
Q 1122 3375 1075 2522 
Q 1259 2794 1537 2939 
Q 1816 3084 2150 3084 
Q 2853 3084 3261 2657 
Q 3669 2231 3669 1497 
Q 3669 778 3244 343 
Q 2819 -91 2113 -91 
Q 1303 -91 875 529 
Q 447 1150 447 2328 
Q 447 3434 972 4092 
Q 1497 4750 2381 4750 
Q 2619 4750 2861 4703 
Q 3103 4656 3366 4563 
z
" transform="scale(0.015625)"/>
       </defs>
       <use xlink:href="#DejaVuSans-31"/>
       <use xlink:href="#DejaVuSans-36" x="63.623047"/>
       <use xlink:href="#DejaVuSans-30" x="127.246094"/>
       <use xlink:href="#DejaVuSans-30" x="190.869141"/>
       <use xlink:href="#DejaVuSans-30" x="254.492188"/>
      </g>
     </g>
    </g>
    <g id="ytick_3">
     <g id="line2d_12">
      <g>
       <use xlink:href="#ma087a38366" x="102.971517" y="194.831081" style="stroke: #000000; stroke-width: 0.8"/>
      </g>
     </g>
     <g id="text_13">
      <!-- 17000 -->
      <g transform="translate(64.159017 198.6303)scale(0.1 -0.1)">
       <defs>
        <path id="DejaVuSans-37" d="M 525 4666 
L 3525 4666 
L 3525 4397 
L 1831 0 
L 1172 0 
L 2766 4134 
L 525 4134 
L 525 4666 
z
" transform="scale(0.015625)"/>
       </defs>
       <use xlink:href="#DejaVuSans-31"/>
       <use xlink:href="#DejaVuSans-37" x="63.623047"/>
       <use xlink:href="#DejaVuSans-30" x="127.246094"/>
       <use xlink:href="#DejaVuSans-30" x="190.869141"/>
       <use xlink:href="#DejaVuSans-30" x="254.492188"/>
      </g>
     </g>
    </g>
    <g id="ytick_4">
     <g id="line2d_13">
      <g>
       <use xlink:href="#ma087a38366" x="102.971517" y="156.158772" style="stroke: #000000; stroke-width: 0.8"/>
      </g>
     </g>
     <g id="text_14">
      <!-- 18000 -->
      <g transform="translate(64.159017 159.957991)scale(0.1 -0.1)">
       <defs>
        <path id="DejaVuSans-38" d="M 2034 2216 
Q 1584 2216 1326 1975 
Q 1069 1734 1069 1313 
Q 1069 891 1326 650 
Q 1584 409 2034 409 
Q 2484 409 2743 651 
Q 3003 894 3003 1313 
Q 3003 1734 2745 1975 
Q 2488 2216 2034 2216 
z
M 1403 2484 
Q 997 2584 770 2862 
Q 544 3141 544 3541 
Q 544 4100 942 4425 
Q 1341 4750 2034 4750 
Q 2731 4750 3128 4425 
Q 3525 4100 3525 3541 
Q 3525 3141 3298 2862 
Q 3072 2584 2669 2484 
Q 3125 2378 3379 2068 
Q 3634 1759 3634 1313 
Q 3634 634 3220 271 
Q 2806 -91 2034 -91 
Q 1263 -91 848 271 
Q 434 634 434 1313 
Q 434 1759 690 2068 
Q 947 2378 1403 2484 
z
M 1172 3481 
Q 1172 3119 1398 2916 
Q 1625 2713 2034 2713 
Q 2441 2713 2670 2916 
Q 2900 3119 2900 3481 
Q 2900 3844 2670 4047 
Q 2441 4250 2034 4250 
Q 1625 4250 1398 4047 
Q 1172 3844 1172 3481 
z
" transform="scale(0.015625)"/>
       </defs>
       <use xlink:href="#DejaVuSans-31"/>
       <use xlink:href="#DejaVuSans-38" x="63.623047"/>
       <use xlink:href="#DejaVuSans-30" x="127.246094"/>
       <use xlink:href="#DejaVuSans-30" x="190.869141"/>
       <use xlink:href="#DejaVuSans-30" x="254.492188"/>
      </g>
     </g>
    </g>
    <g id="ytick_5">
     <g id="line2d_14">
      <g>
       <use xlink:href="#ma087a38366" x="102.971517" y="117.486463" style="stroke: #000000; stroke-width: 0.8"/>
      </g>
     </g>
     <g id="text_15">
      <!-- 19000 -->
      <g transform="translate(64.159017 121.285681)scale(0.1 -0.1)">
       <defs>
        <path id="DejaVuSans-39" d="M 703 97 
L 703 672 
Q 941 559 1184 500 
Q 1428 441 1663 441 
Q 2288 441 2617 861 
Q 2947 1281 2994 2138 
Q 2813 1869 2534 1725 
Q 2256 1581 1919 1581 
Q 1219 1581 811 2004 
Q 403 2428 403 3163 
Q 403 3881 828 4315 
Q 1253 4750 1959 4750 
Q 2769 4750 3195 4129 
Q 3622 3509 3622 2328 
Q 3622 1225 3098 567 
Q 2575 -91 1691 -91 
Q 1453 -91 1209 -44 
Q 966 3 703 97 
z
M 1959 2075 
Q 2384 2075 2632 2365 
Q 2881 2656 2881 3163 
Q 2881 3666 2632 3958 
Q 2384 4250 1959 4250 
Q 1534 4250 1286 3958 
Q 1038 3666 1038 3163 
Q 1038 2656 1286 2365 
Q 1534 2075 1959 2075 
z
" transform="scale(0.015625)"/>
       </defs>
       <use xlink:href="#DejaVuSans-31"/>
       <use xlink:href="#DejaVuSans-39" x="63.623047"/>
       <use xlink:href="#DejaVuSans-30" x="127.246094"/>
       <use xlink:href="#DejaVuSans-30" x="190.869141"/>
       <use xlink:href="#DejaVuSans-30" x="254.492188"/>
      </g>
     </g>
    </g>
    <g id="ytick_6">
     <g id="line2d_15">
      <g>
       <use xlink:href="#ma087a38366" x="102.971517" y="78.814153" style="stroke: #000000; stroke-width: 0.8"/>
      </g>
     </g>
     <g id="text_16">
      <!-- 20000 -->
      <g transform="translate(64.159017 82.613372)scale(0.1 -0.1)">
       <use xlink:href="#DejaVuSans-32"/>
       <use xlink:href="#DejaVuSans-30" x="63.623047"/>
       <use xlink:href="#DejaVuSans-30" x="127.246094"/>
       <use xlink:href="#DejaVuSans-30" x="190.869141"/>
       <use xlink:href="#DejaVuSans-30" x="254.492188"/>
      </g>
     </g>
    </g>
    <g id="ytick_7">
     <g id="line2d_16">
      <g>
       <use xlink:href="#ma087a38366" x="102.971517" y="40.141844" style="stroke: #000000; stroke-width: 0.8"/>
      </g>
     </g>
     <g id="text_17">
      <!-- 21000 -->
      <g transform="translate(64.159017 43.941063)scale(0.1 -0.1)">
       <use xlink:href="#DejaVuSans-32"/>
       <use xlink:href="#DejaVuSans-31" x="63.623047"/>
       <use xlink:href="#DejaVuSans-30" x="127.246094"/>
       <use xlink:href="#DejaVuSans-30" x="190.869141"/>
       <use xlink:href="#DejaVuSans-30" x="254.492188"/>
      </g>
     </g>
    </g>
    <g id="text_18">
     <!-- Reached region coverage -->
     <g transform="translate(58.07933 219.136625)rotate(-90)scale(0.1 -0.1)">
      <defs>
       <path id="DejaVuSans-52" d="M 2841 2188 
Q 3044 2119 3236 1894 
Q 3428 1669 3622 1275 
L 4263 0 
L 3584 0 
L 2988 1197 
Q 2756 1666 2539 1819 
Q 2322 1972 1947 1972 
L 1259 1972 
L 1259 0 
L 628 0 
L 628 4666 
L 2053 4666 
Q 2853 4666 3247 4331 
Q 3641 3997 3641 3322 
Q 3641 2881 3436 2590 
Q 3231 2300 2841 2188 
z
M 1259 4147 
L 1259 2491 
L 2053 2491 
Q 2509 2491 2742 2702 
Q 2975 2913 2975 3322 
Q 2975 3731 2742 3939 
Q 2509 4147 2053 4147 
L 1259 4147 
z
" transform="scale(0.015625)"/>
      </defs>
      <use xlink:href="#DejaVuSans-52"/>
      <use xlink:href="#DejaVuSans-65" x="64.982422"/>
      <use xlink:href="#DejaVuSans-61" x="126.505859"/>
      <use xlink:href="#DejaVuSans-63" x="187.785156"/>
      <use xlink:href="#DejaVuSans-68" x="242.765625"/>
      <use xlink:href="#DejaVuSans-65" x="306.144531"/>
      <use xlink:href="#DejaVuSans-64" x="367.667969"/>
      <use xlink:href="#DejaVuSans-20" x="431.144531"/>
      <use xlink:href="#DejaVuSans-72" x="462.931641"/>
      <use xlink:href="#DejaVuSans-65" x="501.794922"/>
      <use xlink:href="#DejaVuSans-67" x="563.318359"/>
      <use xlink:href="#DejaVuSans-69" x="626.794922"/>
      <use xlink:href="#DejaVuSans-6f" x="654.578125"/>
      <use xlink:href="#DejaVuSans-6e" x="715.759766"/>
      <use xlink:href="#DejaVuSans-20" x="779.138672"/>
      <use xlink:href="#DejaVuSans-63" x="810.925781"/>
      <use xlink:href="#DejaVuSans-6f" x="865.90625"/>
      <use xlink:href="#DejaVuSans-76" x="927.087891"/>
      <use xlink:href="#DejaVuSans-65" x="986.267578"/>
      <use xlink:href="#DejaVuSans-72" x="1047.791016"/>
      <use xlink:href="#DejaVuSans-61" x="1088.904297"/>
      <use xlink:href="#DejaVuSans-67" x="1150.183594"/>
      <use xlink:href="#DejaVuSans-65" x="1213.660156"/>
     </g>
    </g>
   </g>
   <g id="line2d_17">
    <path d="M 122.811517 108.978555 
L 122.811517 67.753873 
" clip-path="url(#p47a5e0de3a)" style="fill: none; stroke: #3d3d3d; stroke-width: 1.5; stroke-linecap: square"/>
   </g>
   <g id="line2d_18">
    <path d="M 122.811517 96.487399 
L 122.811517 75.875058 
" clip-path="url(#p47a5e0de3a)" style="fill: none; stroke: #3d3d3d; stroke-width: 4.5; stroke-linecap: square"/>
   </g>
   <g id="line2d_19">
    <path d="M 162.491517 167.219052 
L 162.491517 141.695328 
" clip-path="url(#p47a5e0de3a)" style="fill: none; stroke: #3d3d3d; stroke-width: 1.5; stroke-linecap: square"/>
   </g>
   <g id="line2d_20">
    <path d="M 162.491517 157.357613 
L 162.491517 144.595751 
" clip-path="url(#p47a5e0de3a)" style="fill: none; stroke: #3d3d3d; stroke-width: 4.5; stroke-linecap: square"/>
   </g>
   <g id="line2d_21">
    <path d="M 202.171517 198.736984 
L 202.171517 135.778465 
" clip-path="url(#p47a5e0de3a)" style="fill: none; stroke: #3d3d3d; stroke-width: 1.5; stroke-linecap: square"/>
   </g>
   <g id="line2d_22">
    <path d="M 202.171517 176.829121 
L 202.171517 145.349861 
" clip-path="url(#p47a5e0de3a)" style="fill: none; stroke: #3d3d3d; stroke-width: 4.5; stroke-linecap: square"/>
   </g>
   <g id="line2d_23">
    <path d="M 241.851517 180.870377 
L 241.851517 132.839369 
" clip-path="url(#p47a5e0de3a)" style="fill: none; stroke: #3d3d3d; stroke-width: 1.5; stroke-linecap: square"/>
   </g>
   <g id="line2d_24">
    <path d="M 241.851517 173.677328 
L 241.851517 149.661824 
" clip-path="url(#p47a5e0de3a)" style="fill: none; stroke: #3d3d3d; stroke-width: 4.5; stroke-linecap: square"/>
   </g>
   <g id="line2d_25">
    <path d="M 281.531517 179.40083 
L 281.531517 154.302501 
" clip-path="url(#p47a5e0de3a)" style="fill: none; stroke: #3d3d3d; stroke-width: 1.5; stroke-linecap: square"/>
   </g>
   <g id="line2d_26">
    <path d="M 281.531517 174.025379 
L 281.531517 161.476214 
" clip-path="url(#p47a5e0de3a)" style="fill: none; stroke: #3d3d3d; stroke-width: 4.5; stroke-linecap: square"/>
   </g>
   <g id="line2d_27">
    <path d="M 321.211517 204.305797 
L 321.211517 185.743088 
" clip-path="url(#p47a5e0de3a)" style="fill: none; stroke: #3d3d3d; stroke-width: 1.5; stroke-linecap: square"/>
   </g>
   <g id="line2d_28">
    <path d="M 321.211517 195.48851 
L 321.211517 186.207156 
" clip-path="url(#p47a5e0de3a)" style="fill: none; stroke: #3d3d3d; stroke-width: 4.5; stroke-linecap: square"/>
   </g>
   <g id="line2d_29">
    <path d="M 360.891517 205.233932 
L 360.891517 150.783321 
" clip-path="url(#p47a5e0de3a)" style="fill: none; stroke: #3d3d3d; stroke-width: 1.5; stroke-linecap: square"/>
   </g>
   <g id="line2d_30">
    <path d="M 360.891517 200.01317 
L 360.891517 172.787865 
" clip-path="url(#p47a5e0de3a)" style="fill: none; stroke: #3d3d3d; stroke-width: 4.5; stroke-linecap: square"/>
   </g>
   <g id="line2d_31">
    <path d="M 400.571517 219.77472 
L 400.571517 205.465966 
" clip-path="url(#p47a5e0de3a)" style="fill: none; stroke: #3d3d3d; stroke-width: 1.5; stroke-linecap: square"/>
   </g>
   <g id="line2d_32">
    <path d="M 400.571517 213.297109 
L 400.571517 206.142731 
" clip-path="url(#p47a5e0de3a)" style="fill: none; stroke: #3d3d3d; stroke-width: 4.5; stroke-linecap: square"/>
   </g>
   <g id="line2d_33">
    <path d="M 440.251517 230.873673 
L 440.251517 179.942242 
" clip-path="url(#p47a5e0de3a)" style="fill: none; stroke: #3d3d3d; stroke-width: 1.5; stroke-linecap: square"/>
   </g>
   <g id="line2d_34">
    <path d="M 440.251517 228.862713 
L 440.251517 203.396997 
" clip-path="url(#p47a5e0de3a)" style="fill: none; stroke: #3d3d3d; stroke-width: 4.5; stroke-linecap: square"/>
   </g>
   <g id="patch_3">
    <path d="M 102.971517 272.175699 
L 102.971517 40.141844 
" style="fill: none; stroke: #000000; stroke-width: 0.8; stroke-linejoin: miter; stroke-linecap: square"/>
   </g>
   <g id="patch_4">
    <path d="M 122.811517 288.430125 
L 440.251517 288.430125 
" style="fill: none; stroke: #000000; stroke-width: 0.8; stroke-linejoin: miter; stroke-linecap: square"/>
   </g>
   <g id="PathCollection_1">
    <defs>
     <path id="mdc448e0b8d" d="M 0 1.5 
C 0.397805 1.5 0.77937 1.341951 1.06066 1.06066 
C 1.341951 0.77937 1.5 0.397805 1.5 0 
C 1.5 -0.397805 1.341951 -0.77937 1.06066 -1.06066 
C 0.77937 -1.341951 0.397805 -1.5 0 -1.5 
C -0.397805 -1.5 -0.77937 -1.341951 -1.06066 -1.06066 
C -1.341951 -0.77937 -1.5 -0.397805 -1.5 0 
C -1.5 0.397805 -1.341951 0.77937 -1.06066 1.06066 
C -0.77937 1.341951 -0.397805 1.5 0 1.5 
z
" style="stroke: #3d3d3d"/>
    </defs>
    <g clip-path="url(#p47a5e0de3a)">
     <use xlink:href="#mdc448e0b8d" x="122.811517" y="83.996243" style="fill: #ffffff; stroke: #3d3d3d"/>
    </g>
   </g>
   <g id="PathCollection_2">
    <g clip-path="url(#p47a5e0de3a)">
     <use xlink:href="#mdc448e0b8d" x="162.491517" y="147.496175" style="fill: #ffffff; stroke: #3d3d3d"/>
    </g>
   </g>
   <g id="PathCollection_3">
    <g clip-path="url(#p47a5e0de3a)">
     <use xlink:href="#mdc448e0b8d" x="202.171517" y="154.921258" style="fill: #ffffff; stroke: #3d3d3d"/>
    </g>
   </g>
   <g id="PathCollection_4">
    <g clip-path="url(#p47a5e0de3a)">
     <use xlink:href="#mdc448e0b8d" x="241.851517" y="166.484278" style="fill: #ffffff; stroke: #3d3d3d"/>
    </g>
   </g>
   <g id="PathCollection_5">
    <g clip-path="url(#p47a5e0de3a)">
     <use xlink:href="#mdc448e0b8d" x="281.531517" y="168.649928" style="fill: #ffffff; stroke: #3d3d3d"/>
    </g>
   </g>
   <g id="PathCollection_6">
    <g clip-path="url(#p47a5e0de3a)">
     <use xlink:href="#mdc448e0b8d" x="321.211517" y="186.671224" style="fill: #ffffff; stroke: #3d3d3d"/>
    </g>
   </g>
   <g id="PathCollection_7">
    <g clip-path="url(#p47a5e0de3a)">
     <use xlink:href="#mdc448e0b8d" x="360.891517" y="194.792409" style="fill: #ffffff; stroke: #3d3d3d"/>
    </g>
   </g>
   <g id="PathCollection_8">
    <g clip-path="url(#p47a5e0de3a)">
     <use xlink:href="#mdc448e0b8d" x="400.571517" y="206.819497" style="fill: #ffffff; stroke: #3d3d3d"/>
    </g>
   </g>
   <g id="PathCollection_9">
    <g clip-path="url(#p47a5e0de3a)">
     <use xlink:href="#mdc448e0b8d" x="440.251517" y="226.851753" style="fill: #ffffff; stroke: #3d3d3d"/>
    </g>
   </g>
   <g id="text_19">
    <!-- freetype2-2017 (4h:15m, 3 trials/fuzzer) -->
    <g transform="translate(160.452455 16.318125)scale(0.12 -0.12)">
     <defs>
      <path id="DejaVuSans-79" d="M 2059 -325 
Q 1816 -950 1584 -1140 
Q 1353 -1331 966 -1331 
L 506 -1331 
L 506 -850 
L 844 -850 
Q 1081 -850 1212 -737 
Q 1344 -625 1503 -206 
L 1606 56 
L 191 3500 
L 800 3500 
L 1894 763 
L 2988 3500 
L 3597 3500 
L 2059 -325 
z
" transform="scale(0.015625)"/>
      <path id="DejaVuSans-2d" d="M 313 2009 
L 1997 2009 
L 1997 1497 
L 313 1497 
L 313 2009 
z
" transform="scale(0.015625)"/>
      <path id="DejaVuSans-34" d="M 2419 4116 
L 825 1625 
L 2419 1625 
L 2419 4116 
z
M 2253 4666 
L 3047 4666 
L 3047 1625 
L 3713 1625 
L 3713 1100 
L 3047 1100 
L 3047 0 
L 2419 0 
L 2419 1100 
L 313 1100 
L 313 1709 
L 2253 4666 
z
" transform="scale(0.015625)"/>
      <path id="DejaVuSans-3a" d="M 750 794 
L 1409 794 
L 1409 0 
L 750 0 
L 750 794 
z
M 750 3309 
L 1409 3309 
L 1409 2516 
L 750 2516 
L 750 3309 
z
" transform="scale(0.015625)"/>
      <path id="DejaVuSans-2c" d="M 750 794 
L 1409 794 
L 1409 256 
L 897 -744 
L 494 -744 
L 750 256 
L 750 794 
z
" transform="scale(0.015625)"/>
      <path id="DejaVuSans-2f" d="M 1625 4666 
L 2156 4666 
L 531 -594 
L 0 -594 
L 1625 4666 
z
" transform="scale(0.015625)"/>
     </defs>
     <use xlink:href="#DejaVuSans-66"/>
     <use xlink:href="#DejaVuSans-72" x="35.205078"/>
     <use xlink:href="#DejaVuSans-65" x="74.068359"/>
     <use xlink:href="#DejaVuSans-65" x="135.591797"/>
     <use xlink:href="#DejaVuSans-74" x="197.115234"/>
     <use xlink:href="#DejaVuSans-79" x="236.324219"/>
     <use xlink:href="#DejaVuSans-70" x="295.503906"/>
     <use xlink:href="#DejaVuSans-65" x="358.980469"/>
     <use xlink:href="#DejaVuSans-32" x="420.503906"/>
     <use xlink:href="#DejaVuSans-2d" x="484.126953"/>
     <use xlink:href="#DejaVuSans-32" x="520.210938"/>
     <use xlink:href="#DejaVuSans-30" x="583.833984"/>
     <use xlink:href="#DejaVuSans-31" x="647.457031"/>
     <use xlink:href="#DejaVuSans-37" x="711.080078"/>
     <use xlink:href="#DejaVuSans-20" x="774.703125"/>
     <use xlink:href="#DejaVuSans-28" x="806.490234"/>
     <use xlink:href="#DejaVuSans-34" x="845.503906"/>
     <use xlink:href="#DejaVuSans-68" x="909.126953"/>
     <use xlink:href="#DejaVuSans-3a" x="972.505859"/>
     <use xlink:href="#DejaVuSans-31" x="1006.197266"/>
     <use xlink:href="#DejaVuSans-35" x="1069.820312"/>
     <use xlink:href="#DejaVuSans-6d" x="1133.443359"/>
     <use xlink:href="#DejaVuSans-2c" x="1230.855469"/>
     <use xlink:href="#DejaVuSans-20" x="1262.642578"/>
     <use xlink:href="#DejaVuSans-33" x="1294.429688"/>
     <use xlink:href="#DejaVuSans-20" x="1358.052734"/>
     <use xlink:href="#DejaVuSans-74" x="1389.839844"/>
     <use xlink:href="#DejaVuSans-72" x="1429.048828"/>
     <use xlink:href="#DejaVuSans-69" x="1470.162109"/>
     <use xlink:href="#DejaVuSans-61" x="1497.945312"/>
     <use xlink:href="#DejaVuSans-6c" x="1559.224609"/>
     <use xlink:href="#DejaVuSans-73" x="1587.007812"/>
     <use xlink:href="#DejaVuSans-2f" x="1639.107422"/>
     <use xlink:href="#DejaVuSans-66" x="1672.798828"/>
     <use xlink:href="#DejaVuSans-75" x="1708.003906"/>
     <use xlink:href="#DejaVuSans-7a" x="1771.382812"/>
     <use xlink:href="#DejaVuSans-7a" x="1823.873047"/>
     <use xlink:href="#DejaVuSans-65" x="1876.363281"/>
     <use xlink:href="#DejaVuSans-72" x="1937.886719"/>
     <use xlink:href="#DejaVuSans-29" x="1979"/>
    </g>
   </g>
  </g>
 </g>
 <defs>
  <clipPath id="p47a5e0de3a">
   <rect x="102.971517" y="22.318125" width="357.12" height="266.112"/>
  </clipPath>
 </defs>
</svg>
