<?xml version="1.0" encoding="utf-8" standalone="no"?>
<!DOCTYPE svg PUBLIC "-//W3C//DTD SVG 1.1//EN"
  "http://www.w3.org/Graphics/SVG/1.1/DTD/svg11.dtd">
<svg xmlns:xlink="http://www.w3.org/1999/xlink" width="427.18875pt" height="316.30825pt" viewBox="0 0 427.18875 316.30825" xmlns="http://www.w3.org/2000/svg" version="1.1">
 <metadata>
  <rdf:RDF xmlns:dc="http://purl.org/dc/elements/1.1/" xmlns:cc="http://creativecommons.org/ns#" xmlns:rdf="http://www.w3.org/1999/02/22-rdf-syntax-ns#">
   <cc:Work>
    <dc:type rdf:resource="http://purl.org/dc/dcmitype/StillImage"/>
    <dc:date>2022-06-05T16:10:10.308848</dc:date>
    <dc:format>image/svg+xml</dc:format>
    <dc:creator>
     <cc:Agent>
      <dc:title>Matplotlib v3.5.1, https://matplotlib.org/</dc:title>
     </cc:Agent>
    </dc:creator>
   </cc:Work>
  </rdf:RDF>
 </metadata>
 <defs>
  <style type="text/css">*{stroke-linejoin: round; stroke-linecap: butt}</style>
 </defs>
 <g id="figure_1">
  <g id="patch_1">
   <path d="M 0 316.30825 
L 427.18875 316.30825 
L 427.18875 0 
L 0 0 
z
" style="fill: #ffffff"/>
  </g>
  <g id="axes_1">
   <g id="patch_2">
    <path d="M 62.86875 288.430125 
L 419.98875 288.430125 
L 419.98875 22.318125 
L 62.86875 22.318125 
z
" style="fill: #ffffff"/>
   </g>
   <g id="matplotlib.axis_1">
    <g id="xtick_1">
     <g id="line2d_1">
      <defs>
       <path id="md74d1bf83b" d="M 0 0 
L 0 3.5 
" style="stroke: #000000; stroke-width: 0.8"/>
      </defs>
      <g>
       <use xlink:href="#md74d1bf83b" x="65.50267" y="288.430125" style="stroke: #000000; stroke-width: 0.8"/>
      </g>
     </g>
    </g>
    <g id="xtick_2">
     <g id="line2d_2">
      <g>
       <use xlink:href="#md74d1bf83b" x="110.132047" y="288.430125" style="stroke: #000000; stroke-width: 0.8"/>
      </g>
     </g>
    </g>
    <g id="xtick_3">
     <g id="line2d_3">
      <g>
       <use xlink:href="#md74d1bf83b" x="154.761425" y="288.430125" style="stroke: #000000; stroke-width: 0.8"/>
      </g>
     </g>
    </g>
    <g id="xtick_4">
     <g id="line2d_4">
      <g>
       <use xlink:href="#md74d1bf83b" x="199.390802" y="288.430125" style="stroke: #000000; stroke-width: 0.8"/>
      </g>
     </g>
    </g>
    <g id="xtick_5">
     <g id="line2d_5">
      <g>
       <use xlink:href="#md74d1bf83b" x="244.02018" y="288.430125" style="stroke: #000000; stroke-width: 0.8"/>
      </g>
     </g>
    </g>
    <g id="xtick_6">
     <g id="line2d_6">
      <g>
       <use xlink:href="#md74d1bf83b" x="288.649557" y="288.430125" style="stroke: #000000; stroke-width: 0.8"/>
      </g>
     </g>
    </g>
    <g id="xtick_7">
     <g id="line2d_7">
      <g>
       <use xlink:href="#md74d1bf83b" x="333.278935" y="288.430125" style="stroke: #000000; stroke-width: 0.8"/>
      </g>
     </g>
    </g>
    <g id="xtick_8">
     <g id="line2d_8">
      <g>
       <use xlink:href="#md74d1bf83b" x="377.908312" y="288.430125" style="stroke: #000000; stroke-width: 0.8"/>
      </g>
     </g>
    </g>
    <g id="text_1">
     <!-- Code region coverage -->
     <g transform="translate(186.423281 307.028562)scale(0.1 -0.1)">
      <defs>
       <path id="DejaVuSans-43" d="M 4122 4306 
L 4122 3641 
Q 3803 3938 3442 4084 
Q 3081 4231 2675 4231 
Q 1875 4231 1450 3742 
Q 1025 3253 1025 2328 
Q 1025 1406 1450 917 
Q 1875 428 2675 428 
Q 3081 428 3442 575 
Q 3803 722 4122 1019 
L 4122 359 
Q 3791 134 3420 21 
Q 3050 -91 2638 -91 
Q 1578 -91 968 557 
Q 359 1206 359 2328 
Q 359 3453 968 4101 
Q 1578 4750 2638 4750 
Q 3056 4750 3426 4639 
Q 3797 4528 4122 4306 
z
" transform="scale(0.015625)"/>
       <path id="DejaVuSans-6f" d="M 1959 3097 
Q 1497 3097 1228 2736 
Q 959 2375 959 1747 
Q 959 1119 1226 758 
Q 1494 397 1959 397 
Q 2419 397 2687 759 
Q 2956 1122 2956 1747 
Q 2956 2369 2687 2733 
Q 2419 3097 1959 3097 
z
M 1959 3584 
Q 2709 3584 3137 3096 
Q 3566 2609 3566 1747 
Q 3566 888 3137 398 
Q 2709 -91 1959 -91 
Q 1206 -91 779 398 
Q 353 888 353 1747 
Q 353 2609 779 3096 
Q 1206 3584 1959 3584 
z
" transform="scale(0.015625)"/>
       <path id="DejaVuSans-64" d="M 2906 2969 
L 2906 4863 
L 3481 4863 
L 3481 0 
L 2906 0 
L 2906 525 
Q 2725 213 2448 61 
Q 2172 -91 1784 -91 
Q 1150 -91 751 415 
Q 353 922 353 1747 
Q 353 2572 751 3078 
Q 1150 3584 1784 3584 
Q 2172 3584 2448 3432 
Q 2725 3281 2906 2969 
z
M 947 1747 
Q 947 1113 1208 752 
Q 1469 391 1925 391 
Q 2381 391 2643 752 
Q 2906 1113 2906 1747 
Q 2906 2381 2643 2742 
Q 2381 3103 1925 3103 
Q 1469 3103 1208 2742 
Q 947 2381 947 1747 
z
" transform="scale(0.015625)"/>
       <path id="DejaVuSans-65" d="M 3597 1894 
L 3597 1613 
L 953 1613 
Q 991 1019 1311 708 
Q 1631 397 2203 397 
Q 2534 397 2845 478 
Q 3156 559 3463 722 
L 3463 178 
Q 3153 47 2828 -22 
Q 2503 -91 2169 -91 
Q 1331 -91 842 396 
Q 353 884 353 1716 
Q 353 2575 817 3079 
Q 1281 3584 2069 3584 
Q 2775 3584 3186 3129 
Q 3597 2675 3597 1894 
z
M 3022 2063 
Q 3016 2534 2758 2815 
Q 2500 3097 2075 3097 
Q 1594 3097 1305 2825 
Q 1016 2553 972 2059 
L 3022 2063 
z
" transform="scale(0.015625)"/>
       <path id="DejaVuSans-20" transform="scale(0.015625)"/>
       <path id="DejaVuSans-72" d="M 2631 2963 
Q 2534 3019 2420 3045 
Q 2306 3072 2169 3072 
Q 1681 3072 1420 2755 
Q 1159 2438 1159 1844 
L 1159 0 
L 581 0 
L 581 3500 
L 1159 3500 
L 1159 2956 
Q 1341 3275 1631 3429 
Q 1922 3584 2338 3584 
Q 2397 3584 2469 3576 
Q 2541 3569 2628 3553 
L 2631 2963 
z
" transform="scale(0.015625)"/>
       <path id="DejaVuSans-67" d="M 2906 1791 
Q 2906 2416 2648 2759 
Q 2391 3103 1925 3103 
Q 1463 3103 1205 2759 
Q 947 2416 947 1791 
Q 947 1169 1205 825 
Q 1463 481 1925 481 
Q 2391 481 2648 825 
Q 2906 1169 2906 1791 
z
M 3481 434 
Q 3481 -459 3084 -895 
Q 2688 -1331 1869 -1331 
Q 1566 -1331 1297 -1286 
Q 1028 -1241 775 -1147 
L 775 -588 
Q 1028 -725 1275 -790 
Q 1522 -856 1778 -856 
Q 2344 -856 2625 -561 
Q 2906 -266 2906 331 
L 2906 616 
Q 2728 306 2450 153 
Q 2172 0 1784 0 
Q 1141 0 747 490 
Q 353 981 353 1791 
Q 353 2603 747 3093 
Q 1141 3584 1784 3584 
Q 2172 3584 2450 3431 
Q 2728 3278 2906 2969 
L 2906 3500 
L 3481 3500 
L 3481 434 
z
" transform="scale(0.015625)"/>
       <path id="DejaVuSans-69" d="M 603 3500 
L 1178 3500 
L 1178 0 
L 603 0 
L 603 3500 
z
M 603 4863 
L 1178 4863 
L 1178 4134 
L 603 4134 
L 603 4863 
z
" transform="scale(0.015625)"/>
       <path id="DejaVuSans-6e" d="M 3513 2113 
L 3513 0 
L 2938 0 
L 2938 2094 
Q 2938 2591 2744 2837 
Q 2550 3084 2163 3084 
Q 1697 3084 1428 2787 
Q 1159 2491 1159 1978 
L 1159 0 
L 581 0 
L 581 3500 
L 1159 3500 
L 1159 2956 
Q 1366 3272 1645 3428 
Q 1925 3584 2291 3584 
Q 2894 3584 3203 3211 
Q 3513 2838 3513 2113 
z
" transform="scale(0.015625)"/>
       <path id="DejaVuSans-63" d="M 3122 3366 
L 3122 2828 
Q 2878 2963 2633 3030 
Q 2388 3097 2138 3097 
Q 1578 3097 1268 2742 
Q 959 2388 959 1747 
Q 959 1106 1268 751 
Q 1578 397 2138 397 
Q 2388 397 2633 464 
Q 2878 531 3122 666 
L 3122 134 
Q 2881 22 2623 -34 
Q 2366 -91 2075 -91 
Q 1284 -91 818 406 
Q 353 903 353 1747 
Q 353 2603 823 3093 
Q 1294 3584 2113 3584 
Q 2378 3584 2631 3529 
Q 2884 3475 3122 3366 
z
" transform="scale(0.015625)"/>
       <path id="DejaVuSans-76" d="M 191 3500 
L 800 3500 
L 1894 563 
L 2988 3500 
L 3597 3500 
L 2284 0 
L 1503 0 
L 191 3500 
z
" transform="scale(0.015625)"/>
       <path id="DejaVuSans-61" d="M 2194 1759 
Q 1497 1759 1228 1600 
Q 959 1441 959 1056 
Q 959 750 1161 570 
Q 1363 391 1709 391 
Q 2188 391 2477 730 
Q 2766 1069 2766 1631 
L 2766 1759 
L 2194 1759 
z
M 3341 1997 
L 3341 0 
L 2766 0 
L 2766 531 
Q 2569 213 2275 61 
Q 1981 -91 1556 -91 
Q 1019 -91 701 211 
Q 384 513 384 1019 
Q 384 1609 779 1909 
Q 1175 2209 1959 2209 
L 2766 2209 
L 2766 2266 
Q 2766 2663 2505 2880 
Q 2244 3097 1772 3097 
Q 1472 3097 1187 3025 
Q 903 2953 641 2809 
L 641 3341 
Q 956 3463 1253 3523 
Q 1550 3584 1831 3584 
Q 2591 3584 2966 3190 
Q 3341 2797 3341 1997 
z
" transform="scale(0.015625)"/>
      </defs>
      <use xlink:href="#DejaVuSans-43"/>
      <use xlink:href="#DejaVuSans-6f" x="69.824219"/>
      <use xlink:href="#DejaVuSans-64" x="131.005859"/>
      <use xlink:href="#DejaVuSans-65" x="194.482422"/>
      <use xlink:href="#DejaVuSans-20" x="256.005859"/>
      <use xlink:href="#DejaVuSans-72" x="287.792969"/>
      <use xlink:href="#DejaVuSans-65" x="326.65625"/>
      <use xlink:href="#DejaVuSans-67" x="388.179688"/>
      <use xlink:href="#DejaVuSans-69" x="451.65625"/>
      <use xlink:href="#DejaVuSans-6f" x="479.439453"/>
      <use xlink:href="#DejaVuSans-6e" x="540.621094"/>
      <use xlink:href="#DejaVuSans-20" x="604"/>
      <use xlink:href="#DejaVuSans-63" x="635.787109"/>
      <use xlink:href="#DejaVuSans-6f" x="690.767578"/>
      <use xlink:href="#DejaVuSans-76" x="751.949219"/>
      <use xlink:href="#DejaVuSans-65" x="811.128906"/>
      <use xlink:href="#DejaVuSans-72" x="872.652344"/>
      <use xlink:href="#DejaVuSans-61" x="913.765625"/>
      <use xlink:href="#DejaVuSans-67" x="975.044922"/>
      <use xlink:href="#DejaVuSans-65" x="1038.521484"/>
     </g>
    </g>
   </g>
   <g id="matplotlib.axis_2">
    <g id="ytick_1">
     <g id="line2d_9">
      <defs>
       <path id="mfb56b8f513" d="M 0 0 
L -3.5 0 
" style="stroke: #000000; stroke-width: 0.8"/>
      </defs>
      <g>
       <use xlink:href="#mfb56b8f513" x="62.86875" y="288.430125" style="stroke: #000000; stroke-width: 0.8"/>
      </g>
     </g>
     <g id="text_2">
      <!-- 0.0000 -->
      <g transform="translate(20.878125 292.229344)scale(0.1 -0.1)">
       <defs>
        <path id="DejaVuSans-30" d="M 2034 4250 
Q 1547 4250 1301 3770 
Q 1056 3291 1056 2328 
Q 1056 1369 1301 889 
Q 1547 409 2034 409 
Q 2525 409 2770 889 
Q 3016 1369 3016 2328 
Q 3016 3291 2770 3770 
Q 2525 4250 2034 4250 
z
M 2034 4750 
Q 2819 4750 3233 4129 
Q 3647 3509 3647 2328 
Q 3647 1150 3233 529 
Q 2819 -91 2034 -91 
Q 1250 -91 836 529 
Q 422 1150 422 2328 
Q 422 3509 836 4129 
Q 1250 4750 2034 4750 
z
" transform="scale(0.015625)"/>
        <path id="DejaVuSans-2e" d="M 684 794 
L 1344 794 
L 1344 0 
L 684 0 
L 684 794 
z
" transform="scale(0.015625)"/>
       </defs>
       <use xlink:href="#DejaVuSans-30"/>
       <use xlink:href="#DejaVuSans-2e" x="63.623047"/>
       <use xlink:href="#DejaVuSans-30" x="95.410156"/>
       <use xlink:href="#DejaVuSans-30" x="159.033203"/>
       <use xlink:href="#DejaVuSans-30" x="222.65625"/>
       <use xlink:href="#DejaVuSans-30" x="286.279297"/>
      </g>
     </g>
    </g>
    <g id="ytick_2">
     <g id="line2d_10">
      <g>
       <use xlink:href="#mfb56b8f513" x="62.86875" y="258.696346" style="stroke: #000000; stroke-width: 0.8"/>
      </g>
     </g>
     <g id="text_3">
      <!-- 0.0002 -->
      <g transform="translate(20.878125 262.495565)scale(0.1 -0.1)">
       <defs>
        <path id="DejaVuSans-32" d="M 1228 531 
L 3431 531 
L 3431 0 
L 469 0 
L 469 531 
Q 828 903 1448 1529 
Q 2069 2156 2228 2338 
Q 2531 2678 2651 2914 
Q 2772 3150 2772 3378 
Q 2772 3750 2511 3984 
Q 2250 4219 1831 4219 
Q 1534 4219 1204 4116 
Q 875 4013 500 3803 
L 500 4441 
Q 881 4594 1212 4672 
Q 1544 4750 1819 4750 
Q 2544 4750 2975 4387 
Q 3406 4025 3406 3419 
Q 3406 3131 3298 2873 
Q 3191 2616 2906 2266 
Q 2828 2175 2409 1742 
Q 1991 1309 1228 531 
z
" transform="scale(0.015625)"/>
       </defs>
       <use xlink:href="#DejaVuSans-30"/>
       <use xlink:href="#DejaVuSans-2e" x="63.623047"/>
       <use xlink:href="#DejaVuSans-30" x="95.410156"/>
       <use xlink:href="#DejaVuSans-30" x="159.033203"/>
       <use xlink:href="#DejaVuSans-30" x="222.65625"/>
       <use xlink:href="#DejaVuSans-32" x="286.279297"/>
      </g>
     </g>
    </g>
    <g id="ytick_3">
     <g id="line2d_11">
      <g>
       <use xlink:href="#mfb56b8f513" x="62.86875" y="228.962567" style="stroke: #000000; stroke-width: 0.8"/>
      </g>
     </g>
     <g id="text_4">
      <!-- 0.0004 -->
      <g transform="translate(20.878125 232.761786)scale(0.1 -0.1)">
       <defs>
        <path id="DejaVuSans-34" d="M 2419 4116 
L 825 1625 
L 2419 1625 
L 2419 4116 
z
M 2253 4666 
L 3047 4666 
L 3047 1625 
L 3713 1625 
L 3713 1100 
L 3047 1100 
L 3047 0 
L 2419 0 
L 2419 1100 
L 313 1100 
L 313 1709 
L 2253 4666 
z
" transform="scale(0.015625)"/>
       </defs>
       <use xlink:href="#DejaVuSans-30"/>
       <use xlink:href="#DejaVuSans-2e" x="63.623047"/>
       <use xlink:href="#DejaVuSans-30" x="95.410156"/>
       <use xlink:href="#DejaVuSans-30" x="159.033203"/>
       <use xlink:href="#DejaVuSans-30" x="222.65625"/>
       <use xlink:href="#DejaVuSans-34" x="286.279297"/>
      </g>
     </g>
    </g>
    <g id="ytick_4">
     <g id="line2d_12">
      <g>
       <use xlink:href="#mfb56b8f513" x="62.86875" y="199.228788" style="stroke: #000000; stroke-width: 0.8"/>
      </g>
     </g>
     <g id="text_5">
      <!-- 0.0006 -->
      <g transform="translate(20.878125 203.028007)scale(0.1 -0.1)">
       <defs>
        <path id="DejaVuSans-36" d="M 2113 2584 
Q 1688 2584 1439 2293 
Q 1191 2003 1191 1497 
Q 1191 994 1439 701 
Q 1688 409 2113 409 
Q 2538 409 2786 701 
Q 3034 994 3034 1497 
Q 3034 2003 2786 2293 
Q 2538 2584 2113 2584 
z
M 3366 4563 
L 3366 3988 
Q 3128 4100 2886 4159 
Q 2644 4219 2406 4219 
Q 1781 4219 1451 3797 
Q 1122 3375 1075 2522 
Q 1259 2794 1537 2939 
Q 1816 3084 2150 3084 
Q 2853 3084 3261 2657 
Q 3669 2231 3669 1497 
Q 3669 778 3244 343 
Q 2819 -91 2113 -91 
Q 1303 -91 875 529 
Q 447 1150 447 2328 
Q 447 3434 972 4092 
Q 1497 4750 2381 4750 
Q 2619 4750 2861 4703 
Q 3103 4656 3366 4563 
z
" transform="scale(0.015625)"/>
       </defs>
       <use xlink:href="#DejaVuSans-30"/>
       <use xlink:href="#DejaVuSans-2e" x="63.623047"/>
       <use xlink:href="#DejaVuSans-30" x="95.410156"/>
       <use xlink:href="#DejaVuSans-30" x="159.033203"/>
       <use xlink:href="#DejaVuSans-30" x="222.65625"/>
       <use xlink:href="#DejaVuSans-36" x="286.279297"/>
      </g>
     </g>
    </g>
    <g id="ytick_5">
     <g id="line2d_13">
      <g>
       <use xlink:href="#mfb56b8f513" x="62.86875" y="169.495009" style="stroke: #000000; stroke-width: 0.8"/>
      </g>
     </g>
     <g id="text_6">
      <!-- 0.0008 -->
      <g transform="translate(20.878125 173.294228)scale(0.1 -0.1)">
       <defs>
        <path id="DejaVuSans-38" d="M 2034 2216 
Q 1584 2216 1326 1975 
Q 1069 1734 1069 1313 
Q 1069 891 1326 650 
Q 1584 409 2034 409 
Q 2484 409 2743 651 
Q 3003 894 3003 1313 
Q 3003 1734 2745 1975 
Q 2488 2216 2034 2216 
z
M 1403 2484 
Q 997 2584 770 2862 
Q 544 3141 544 3541 
Q 544 4100 942 4425 
Q 1341 4750 2034 4750 
Q 2731 4750 3128 4425 
Q 3525 4100 3525 3541 
Q 3525 3141 3298 2862 
Q 3072 2584 2669 2484 
Q 3125 2378 3379 2068 
Q 3634 1759 3634 1313 
Q 3634 634 3220 271 
Q 2806 -91 2034 -91 
Q 1263 -91 848 271 
Q 434 634 434 1313 
Q 434 1759 690 2068 
Q 947 2378 1403 2484 
z
M 1172 3481 
Q 1172 3119 1398 2916 
Q 1625 2713 2034 2713 
Q 2441 2713 2670 2916 
Q 2900 3119 2900 3481 
Q 2900 3844 2670 4047 
Q 2441 4250 2034 4250 
Q 1625 4250 1398 4047 
Q 1172 3844 1172 3481 
z
" transform="scale(0.015625)"/>
       </defs>
       <use xlink:href="#DejaVuSans-30"/>
       <use xlink:href="#DejaVuSans-2e" x="63.623047"/>
       <use xlink:href="#DejaVuSans-30" x="95.410156"/>
       <use xlink:href="#DejaVuSans-30" x="159.033203"/>
       <use xlink:href="#DejaVuSans-30" x="222.65625"/>
       <use xlink:href="#DejaVuSans-38" x="286.279297"/>
      </g>
     </g>
    </g>
    <g id="ytick_6">
     <g id="line2d_14">
      <g>
       <use xlink:href="#mfb56b8f513" x="62.86875" y="139.76123" style="stroke: #000000; stroke-width: 0.8"/>
      </g>
     </g>
     <g id="text_7">
      <!-- 0.0010 -->
      <g transform="translate(20.878125 143.560449)scale(0.1 -0.1)">
       <defs>
        <path id="DejaVuSans-31" d="M 794 531 
L 1825 531 
L 1825 4091 
L 703 3866 
L 703 4441 
L 1819 4666 
L 2450 4666 
L 2450 531 
L 3481 531 
L 3481 0 
L 794 0 
L 794 531 
z
" transform="scale(0.015625)"/>
       </defs>
       <use xlink:href="#DejaVuSans-30"/>
       <use xlink:href="#DejaVuSans-2e" x="63.623047"/>
       <use xlink:href="#DejaVuSans-30" x="95.410156"/>
       <use xlink:href="#DejaVuSans-30" x="159.033203"/>
       <use xlink:href="#DejaVuSans-31" x="222.65625"/>
       <use xlink:href="#DejaVuSans-30" x="286.279297"/>
      </g>
     </g>
    </g>
    <g id="ytick_7">
     <g id="line2d_15">
      <g>
       <use xlink:href="#mfb56b8f513" x="62.86875" y="110.027452" style="stroke: #000000; stroke-width: 0.8"/>
      </g>
     </g>
     <g id="text_8">
      <!-- 0.0012 -->
      <g transform="translate(20.878125 113.82667)scale(0.1 -0.1)">
       <use xlink:href="#DejaVuSans-30"/>
       <use xlink:href="#DejaVuSans-2e" x="63.623047"/>
       <use xlink:href="#DejaVuSans-30" x="95.410156"/>
       <use xlink:href="#DejaVuSans-30" x="159.033203"/>
       <use xlink:href="#DejaVuSans-31" x="222.65625"/>
       <use xlink:href="#DejaVuSans-32" x="286.279297"/>
      </g>
     </g>
    </g>
    <g id="ytick_8">
     <g id="line2d_16">
      <g>
       <use xlink:href="#mfb56b8f513" x="62.86875" y="80.293673" style="stroke: #000000; stroke-width: 0.8"/>
      </g>
     </g>
     <g id="text_9">
      <!-- 0.0014 -->
      <g transform="translate(20.878125 84.092891)scale(0.1 -0.1)">
       <use xlink:href="#DejaVuSans-30"/>
       <use xlink:href="#DejaVuSans-2e" x="63.623047"/>
       <use xlink:href="#DejaVuSans-30" x="95.410156"/>
       <use xlink:href="#DejaVuSans-30" x="159.033203"/>
       <use xlink:href="#DejaVuSans-31" x="222.65625"/>
       <use xlink:href="#DejaVuSans-34" x="286.279297"/>
      </g>
     </g>
    </g>
    <g id="ytick_9">
     <g id="line2d_17">
      <g>
       <use xlink:href="#mfb56b8f513" x="62.86875" y="50.559894" style="stroke: #000000; stroke-width: 0.8"/>
      </g>
     </g>
     <g id="text_10">
      <!-- 0.0016 -->
      <g transform="translate(20.878125 54.359113)scale(0.1 -0.1)">
       <use xlink:href="#DejaVuSans-30"/>
       <use xlink:href="#DejaVuSans-2e" x="63.623047"/>
       <use xlink:href="#DejaVuSans-30" x="95.410156"/>
       <use xlink:href="#DejaVuSans-30" x="159.033203"/>
       <use xlink:href="#DejaVuSans-31" x="222.65625"/>
       <use xlink:href="#DejaVuSans-36" x="286.279297"/>
      </g>
     </g>
    </g>
    <g id="text_11">
     <!-- Density -->
     <g transform="translate(14.798438 174.382719)rotate(-90)scale(0.1 -0.1)">
      <defs>
       <path id="DejaVuSans-44" d="M 1259 4147 
L 1259 519 
L 2022 519 
Q 2988 519 3436 956 
Q 3884 1394 3884 2338 
Q 3884 3275 3436 3711 
Q 2988 4147 2022 4147 
L 1259 4147 
z
M 628 4666 
L 1925 4666 
Q 3281 4666 3915 4102 
Q 4550 3538 4550 2338 
Q 4550 1131 3912 565 
Q 3275 0 1925 0 
L 628 0 
L 628 4666 
z
" transform="scale(0.015625)"/>
       <path id="DejaVuSans-73" d="M 2834 3397 
L 2834 2853 
Q 2591 2978 2328 3040 
Q 2066 3103 1784 3103 
Q 1356 3103 1142 2972 
Q 928 2841 928 2578 
Q 928 2378 1081 2264 
Q 1234 2150 1697 2047 
L 1894 2003 
Q 2506 1872 2764 1633 
Q 3022 1394 3022 966 
Q 3022 478 2636 193 
Q 2250 -91 1575 -91 
Q 1294 -91 989 -36 
Q 684 19 347 128 
L 347 722 
Q 666 556 975 473 
Q 1284 391 1588 391 
Q 1994 391 2212 530 
Q 2431 669 2431 922 
Q 2431 1156 2273 1281 
Q 2116 1406 1581 1522 
L 1381 1569 
Q 847 1681 609 1914 
Q 372 2147 372 2553 
Q 372 3047 722 3315 
Q 1072 3584 1716 3584 
Q 2034 3584 2315 3537 
Q 2597 3491 2834 3397 
z
" transform="scale(0.015625)"/>
       <path id="DejaVuSans-74" d="M 1172 4494 
L 1172 3500 
L 2356 3500 
L 2356 3053 
L 1172 3053 
L 1172 1153 
Q 1172 725 1289 603 
Q 1406 481 1766 481 
L 2356 481 
L 2356 0 
L 1766 0 
Q 1100 0 847 248 
Q 594 497 594 1153 
L 594 3053 
L 172 3053 
L 172 3500 
L 594 3500 
L 594 4494 
L 1172 4494 
z
" transform="scale(0.015625)"/>
       <path id="DejaVuSans-79" d="M 2059 -325 
Q 1816 -950 1584 -1140 
Q 1353 -1331 966 -1331 
L 506 -1331 
L 506 -850 
L 844 -850 
Q 1081 -850 1212 -737 
Q 1344 -625 1503 -206 
L 1606 56 
L 191 3500 
L 800 3500 
L 1894 763 
L 2988 3500 
L 3597 3500 
L 2059 -325 
z
" transform="scale(0.015625)"/>
      </defs>
      <use xlink:href="#DejaVuSans-44"/>
      <use xlink:href="#DejaVuSans-65" x="77.001953"/>
      <use xlink:href="#DejaVuSans-6e" x="138.525391"/>
      <use xlink:href="#DejaVuSans-73" x="201.904297"/>
      <use xlink:href="#DejaVuSans-69" x="254.003906"/>
      <use xlink:href="#DejaVuSans-74" x="281.787109"/>
      <use xlink:href="#DejaVuSans-79" x="320.996094"/>
     </g>
    </g>
   </g>
   <g id="line2d_18">
    <path d="M 240.754934 287.918753 
L 244.850439 287.482004 
L 248.126843 286.925763 
L 251.403247 286.110432 
L 253.860549 285.279644 
L 256.317852 284.218969 
L 258.775155 282.889755 
L 261.232458 281.254972 
L 263.689761 279.282054 
L 266.147064 276.946069 
L 268.604367 274.232927 
L 271.061669 271.142284 
L 273.518972 267.689742 
L 275.976275 263.907963 
L 279.252679 258.441064 
L 284.167285 249.66298 
L 290.720092 237.881009 
L 293.996496 232.356554 
L 297.2729 227.241873 
L 300.549303 222.589504 
L 303.825707 218.395493 
L 307.102111 214.614814 
L 310.378515 211.186331 
L 313.654919 208.06171 
L 316.931322 205.231653 
L 320.207726 202.743358 
L 322.665029 201.164478 
L 325.122332 199.903391 
L 326.760534 199.277184 
L 328.398736 198.851089 
L 330.036938 198.649702 
L 331.675139 198.69664 
L 333.313341 199.013511 
L 334.951543 199.618936 
L 336.589745 200.527671 
L 338.227947 201.749845 
L 339.866149 203.290368 
L 341.504351 205.148511 
L 343.142553 207.317683 
L 344.780755 209.78541 
L 347.238057 214.005553 
L 349.69536 218.771985 
L 352.971764 225.791651 
L 357.067269 235.215189 
L 363.620076 250.35215 
L 366.89648 257.347023 
L 369.353783 262.162552 
L 371.811086 266.541974 
L 374.268389 270.449749 
L 376.725691 273.872061 
L 379.182994 276.81443 
L 381.640297 279.298423 
L 384.0976 281.357875 
L 386.554903 283.034981 
L 389.012206 284.376592 
L 391.469509 285.430961 
L 393.926811 286.245092 
L 396.384114 286.862773 
L 399.660518 287.447886 
L 403.756023 287.90356 
L 403.756023 287.90356 
" clip-path="url(#pdc13eac2db)" style="fill: none; stroke: #e377c2; stroke-width: 1.5; stroke-linecap: square"/>
   </g>
   <g id="line2d_19">
    <path d="M 194.071424 287.638704 
L 196.158357 287.136685 
L 198.245289 286.375081 
L 199.810489 285.575233 
L 201.375688 284.526397 
L 202.940888 283.175964 
L 204.506087 281.469033 
L 206.071286 279.351466 
L 207.636486 276.773778 
L 209.201685 273.695721 
L 210.766885 270.091196 
L 212.332084 265.953048 
L 214.419017 259.636527 
L 216.505949 252.511646 
L 219.114615 242.766147 
L 225.897146 216.789879 
L 228.505812 207.981694 
L 230.592744 201.69451 
L 232.679677 196.019528 
L 235.810076 188.228297 
L 239.462208 179.155644 
L 242.070874 172.06769 
L 245.201273 162.815095 
L 248.331671 153.565979 
L 249.896871 149.447099 
L 251.46207 146.006892 
L 252.505537 144.222493 
L 253.549003 142.933392 
L 254.070736 142.496165 
L 254.592469 142.207546 
L 255.114202 142.074482 
L 255.635936 142.103154 
L 256.157669 142.298916 
L 256.679402 142.666234 
L 257.201135 143.208639 
L 258.244601 144.82794 
L 259.288068 147.165153 
L 260.331534 150.212214 
L 261.375 153.944844 
L 262.9402 160.738527 
L 264.505399 168.790863 
L 266.592332 181.051865 
L 269.722731 201.303214 
L 273.374863 224.942007 
L 275.461795 237.305359 
L 277.548728 248.327404 
L 279.113927 255.57835 
L 280.679127 261.916572 
L 282.244326 267.349742 
L 283.809526 271.919254 
L 285.374725 275.691474 
L 286.939924 278.749103 
L 288.505124 281.183319 
L 290.070323 283.087142 
L 291.635523 284.550251 
L 293.200722 285.655315 
L 294.765922 286.47571 
L 296.331121 287.074453 
L 297.896321 287.504078 
L 297.896321 287.504078 
" clip-path="url(#pdc13eac2db)" style="fill: none; stroke: #98df8a; stroke-width: 1.5; stroke-linecap: square"/>
   </g>
   <g id="line2d_20">
    <path d="M 105.185085 288.101797 
L 112.784671 287.748104 
L 119.117659 287.235896 
L 124.184049 286.619497 
L 129.25044 285.76161 
L 133.050233 284.92615 
L 136.850026 283.901191 
L 140.649818 282.667593 
L 144.449611 281.211385 
L 148.249404 279.525813 
L 152.049197 277.613172 
L 155.84899 275.486148 
L 160.91538 272.359095 
L 167.248368 268.107055 
L 182.44754 257.645828 
L 187.51393 254.466611 
L 192.580321 251.552876 
L 197.646711 248.904377 
L 203.979699 245.895162 
L 214.11248 241.415298 
L 234.378042 232.588652 
L 238.177835 231.216116 
L 241.977628 230.10646 
L 244.510823 229.556585 
L 247.044019 229.188341 
L 249.577214 229.025038 
L 252.110409 229.086981 
L 254.643604 229.390605 
L 257.1768 229.947761 
L 259.709995 230.765162 
L 262.24319 231.84405 
L 264.776385 233.18005 
L 267.309581 234.763249 
L 269.842776 236.578468 
L 272.375971 238.605724 
L 276.175764 241.990343 
L 279.975557 245.701652 
L 285.041947 250.974162 
L 295.174728 261.670275 
L 300.241119 266.640096 
L 304.040912 270.059743 
L 307.840704 273.164076 
L 311.640497 275.926628 
L 315.44029 278.337945 
L 319.240083 280.403323 
L 323.039876 282.139954 
L 326.839669 283.573824 
L 330.639462 284.736652 
L 334.439254 285.663084 
L 338.239047 286.388317 
L 343.305438 287.10052 
L 348.371828 287.587554 
L 354.704816 287.971732 
L 357.238012 288.075096 
L 357.238012 288.075096 
" clip-path="url(#pdc13eac2db)" style="fill: none; stroke: #ff7f0e; stroke-width: 1.5; stroke-linecap: square"/>
   </g>
   <g id="line2d_21">
    <path d="M 146.99334 287.963676 
L 151.828692 287.557797 
L 155.696974 287.034469 
L 159.565256 286.257284 
L 162.466467 285.455188 
L 165.367679 284.418434 
L 168.26889 283.101592 
L 171.170102 281.458231 
L 174.071313 279.44361 
L 176.005454 277.874348 
L 177.939595 276.112513 
L 180.840806 273.093162 
L 183.742018 269.611849 
L 186.643229 265.674281 
L 189.54444 261.30778 
L 192.445652 256.563534 
L 196.313934 249.784795 
L 207.918779 228.955483 
L 210.81999 224.362724 
L 213.721202 220.290581 
L 215.655343 217.920965 
L 217.589484 215.858903 
L 219.523625 214.124229 
L 221.457766 212.729775 
L 223.391906 211.681007 
L 225.326047 210.975937 
L 227.260188 210.605306 
L 229.194329 210.55306 
L 231.12847 210.797073 
L 233.062611 211.310112 
L 234.996752 212.061 
L 236.930893 213.015913 
L 239.832104 214.754077 
L 242.733316 216.756 
L 247.568668 220.400026 
L 259.173514 229.245213 
L 265.943007 234.445848 
L 269.811289 237.669936 
L 273.67957 241.199745 
L 277.547852 245.082592 
L 281.416134 249.304354 
L 286.251486 254.936588 
L 295.922191 266.343197 
L 299.790473 270.522928 
L 302.691684 273.38955 
L 305.592896 275.985193 
L 308.494107 278.288367 
L 311.395318 280.291573 
L 314.29653 281.999839 
L 317.197741 283.428498 
L 320.098953 284.600564 
L 323.000164 285.544031 
L 325.901375 286.28936 
L 329.769657 287.027935 
L 333.637939 287.537442 
L 338.473291 287.942425 
L 339.440362 288.000273 
L 339.440362 288.000273 
" clip-path="url(#pdc13eac2db)" style="fill: none; stroke: #c7c7c7; stroke-width: 1.5; stroke-linecap: square"/>
   </g>
   <g id="line2d_22">
    <path d="M 182.202297 287.57021 
L 184.191356 287.010176 
L 185.683151 286.399654 
L 187.174946 285.572121 
L 188.666741 284.470039 
L 190.158535 283.028056 
L 191.65033 281.174542 
L 193.142125 278.83415 
L 194.63392 275.93143 
L 196.125715 272.395475 
L 197.617509 268.16538 
L 199.109304 263.196193 
L 200.601099 257.464885 
L 202.092894 250.97577 
L 204.081953 241.211795 
L 206.071013 230.348195 
L 209.054603 212.642991 
L 214.027252 182.823925 
L 216.016312 172.119457 
L 218.005371 162.731211 
L 219.497166 156.736056 
L 220.988961 151.732074 
L 221.983491 148.969188 
L 222.978021 146.669085 
L 223.97255 144.827116 
L 224.96708 143.431914 
L 225.96161 142.466251 
L 226.95614 141.90807 
L 227.95067 141.731662 
L 228.9452 141.90893 
L 229.93973 142.410689 
L 230.934259 143.20796 
L 231.928789 144.273189 
L 233.420584 146.319607 
L 234.912379 148.844152 
L 236.404174 151.799494 
L 237.895968 155.161935 
L 239.885028 160.278231 
L 241.874088 166.158032 
L 243.863148 172.86408 
L 245.852207 180.442365 
L 247.841267 188.885062 
L 250.327592 200.510992 
L 253.808446 218.075949 
L 258.28383 240.51049 
L 260.770155 251.695352 
L 262.759215 259.570743 
L 264.25101 264.758773 
L 265.742804 269.303825 
L 267.234599 273.210022 
L 268.726394 276.503862 
L 270.218189 279.229329 
L 271.709983 281.442571 
L 273.201778 283.206676 
L 274.693573 284.587012 
L 276.185368 285.647403 
L 277.677163 286.447272 
L 279.666222 287.199355 
L 281.158017 287.585504 
L 281.158017 287.585504 
" clip-path="url(#pdc13eac2db)" style="fill: none; stroke: #ff9896; stroke-width: 1.5; stroke-linecap: square"/>
   </g>
   <g id="line2d_23">
    <path d="M 159.387548 287.418237 
L 160.986748 286.792156 
L 162.186149 286.12105 
L 163.385549 285.22434 
L 164.584949 284.046838 
L 165.784349 282.527543 
L 166.98375 280.601783 
L 168.18315 278.204371 
L 169.38255 275.273805 
L 170.58195 271.757363 
L 171.78135 267.616808 
L 173.380551 261.09789 
L 174.979751 253.471212 
L 176.978751 242.583811 
L 179.777352 225.708014 
L 183.375552 203.99989 
L 185.374553 193.252435 
L 186.973753 185.669764 
L 188.572953 178.970981 
L 190.571954 171.510405 
L 194.170154 158.339475 
L 195.769355 151.568606 
L 197.368555 143.84605 
L 199.367555 132.915041 
L 203.765356 108.137534 
L 204.964756 102.855197 
L 205.764356 100.073224 
L 206.563957 98.011185 
L 207.363557 96.765927 
L 207.763357 96.475604 
L 208.163157 96.418411 
L 208.562957 96.601459 
L 208.962757 97.030503 
L 209.362557 97.709887 
L 210.162157 99.829747 
L 210.961757 102.966254 
L 211.761358 107.10074 
L 212.560958 112.191341 
L 213.760358 121.475623 
L 214.959758 132.470765 
L 216.558958 149.150605 
L 219.757359 185.697156 
L 222.156159 212.156283 
L 224.15516 231.596316 
L 225.75436 244.854796 
L 227.35356 255.910064 
L 228.552961 262.777725 
L 229.752361 268.500836 
L 230.951761 273.181253 
L 232.151161 276.939016 
L 233.350561 279.901844 
L 234.549962 282.196594 
L 235.749362 283.942897 
L 236.948762 285.248917 
L 238.148162 286.20899 
L 238.947762 286.696803 
L 238.947762 286.696803 
" clip-path="url(#pdc13eac2db)" style="fill: none; stroke: #2ca02c; stroke-width: 1.5; stroke-linecap: square"/>
   </g>
   <g id="line2d_24">
    <path d="M 107.071537 287.978231 
L 112.686262 287.585172 
L 117.178043 287.07814 
L 121.669824 286.324829 
L 125.038659 285.547162 
L 128.407495 284.541918 
L 131.77633 283.265321 
L 135.145166 281.672986 
L 138.514001 279.722749 
L 140.759892 278.205405 
L 143.005782 276.504026 
L 145.251672 274.612531 
L 148.620508 271.413167 
L 151.989344 267.785571 
L 155.358179 263.757002 
L 158.727015 259.379005 
L 163.218795 253.134398 
L 174.448247 237.183997 
L 177.817083 232.873092 
L 180.062973 230.253177 
L 182.308863 227.880733 
L 184.554754 225.788614 
L 186.800644 224.003909 
L 189.046534 222.547 
L 191.292425 221.430836 
L 193.538315 220.660488 
L 195.784205 220.232989 
L 198.030096 220.137493 
L 200.275986 220.355748 
L 202.521876 220.862857 
L 204.767767 221.628308 
L 207.013657 222.617228 
L 210.382493 224.436432 
L 213.751328 226.540866 
L 221.611944 231.870563 
L 227.22667 235.522202 
L 231.718451 238.181487 
L 237.333177 241.196823 
L 249.685574 247.61975 
L 254.177354 250.288999 
L 258.669135 253.270093 
L 263.160916 256.565206 
L 268.775642 261.031729 
L 282.250984 271.979807 
L 286.742764 275.236415 
L 290.1116 277.440988 
L 293.480436 279.414562 
L 296.849271 281.145838 
L 300.218107 282.634594 
L 303.586942 283.889978 
L 306.955778 284.928377 
L 310.324613 285.77116 
L 314.816394 286.63253 
L 319.308175 287.248348 
L 324.9229 287.757557 
L 330.537626 288.063771 
L 330.537626 288.063771 
" clip-path="url(#pdc13eac2db)" style="fill: none; stroke: #1f77b4; stroke-width: 1.5; stroke-linecap: square"/>
   </g>
   <g id="line2d_25">
    <path d="M 148.650735 287.090244 
L 149.561606 286.498523 
L 150.472477 285.688205 
L 151.383348 284.597631 
L 152.294219 283.155356 
L 153.20509 281.281415 
L 154.115961 278.889798 
L 155.026832 275.892301 
L 155.937703 272.203811 
L 156.848574 267.748891 
L 158.063068 260.519643 
L 159.277563 251.762466 
L 160.795681 238.748553 
L 162.617423 220.641812 
L 168.082649 163.749794 
L 169.600767 150.923425 
L 171.118885 139.88413 
L 173.851498 122.290211 
L 175.369616 111.890477 
L 176.887735 99.861063 
L 178.405853 85.951771 
L 182.352961 48.097192 
L 183.263831 41.668301 
L 183.871079 38.430891 
L 184.478326 36.194881 
L 184.78195 35.49068 
L 185.085573 35.080086 
L 185.389197 34.97449 
L 185.692821 35.18361 
L 185.996444 35.715394 
L 186.603692 37.76943 
L 187.210939 41.162173 
L 187.818186 45.887676 
L 188.729057 55.384979 
L 189.639928 67.540146 
L 190.854423 87.209302 
L 192.676165 121.694974 
L 196.319649 192.617007 
L 197.837767 217.593192 
L 199.052261 234.462904 
L 200.266756 248.41384 
L 201.481251 259.55266 
L 202.392122 266.219635 
L 203.302993 271.606666 
L 204.213864 275.880614 
L 205.124734 279.211 
L 206.035605 281.760497 
L 206.946476 283.678299 
L 207.857347 285.096131 
L 208.768218 286.126494 
L 209.071842 286.400497 
L 209.071842 286.400497 
" clip-path="url(#pdc13eac2db)" style="fill: none; stroke: #d62728; stroke-width: 1.5; stroke-linecap: square"/>
   </g>
   <g id="line2d_26">
    <path d="M 79.101477 287.84008 
L 84.532793 287.340546 
L 88.877846 286.704063 
L 92.136636 286.035995 
L 95.395426 285.159791 
L 98.654215 284.030746 
L 101.913005 282.601741 
L 105.171794 280.825712 
L 107.344321 279.427047 
L 109.516847 277.843222 
L 111.689374 276.064922 
L 113.8619 274.085468 
L 117.12069 270.732688 
L 120.37948 266.925862 
L 123.638269 262.693786 
L 126.897059 258.091548 
L 131.242112 251.525919 
L 142.104744 234.798473 
L 145.363534 230.30824 
L 147.53606 227.593447 
L 149.708586 225.149401 
L 151.881113 223.011477 
L 154.053639 221.208711 
L 156.226166 219.762754 
L 158.398692 218.687083 
L 160.571219 217.986503 
L 162.743745 217.656983 
L 164.916271 217.68582 
L 167.088798 218.052163 
L 169.261324 218.727845 
L 171.433851 219.678515 
L 173.606377 220.865002 
L 176.865167 222.993561 
L 181.21022 226.251912 
L 190.986589 233.817062 
L 195.331642 236.790151 
L 199.676694 239.412561 
L 204.021747 241.738142 
L 218.143169 248.940829 
L 222.488222 251.583128 
L 226.833275 254.564728 
L 231.178328 257.866154 
L 236.609644 262.318568 
L 247.472276 271.34928 
L 251.817329 274.634347 
L 255.076119 276.875279 
L 258.334908 278.89465 
L 261.593698 280.678006 
L 264.852487 282.222123 
L 268.111277 283.533457 
L 271.370067 284.626138 
L 274.628856 285.519772 
L 278.973909 286.44154 
L 283.318962 287.10793 
L 288.750278 287.666212 
L 295.267858 288.056334 
L 295.267858 288.056334 
" clip-path="url(#pdc13eac2db)" style="fill: none; stroke: #dbdb8d; stroke-width: 1.5; stroke-linecap: square"/>
   </g>
   <g id="patch_3">
    <path d="M 62.86875 288.430125 
L 62.86875 22.318125 
" style="fill: none; stroke: #000000; stroke-width: 0.8; stroke-linejoin: miter; stroke-linecap: square"/>
   </g>
   <g id="patch_4">
    <path d="M 419.98875 288.430125 
L 419.98875 22.318125 
" style="fill: none; stroke: #000000; stroke-width: 0.8; stroke-linejoin: miter; stroke-linecap: square"/>
   </g>
   <g id="patch_5">
    <path d="M 62.86875 288.430125 
L 419.98875 288.430125 
" style="fill: none; stroke: #000000; stroke-width: 0.8; stroke-linejoin: miter; stroke-linecap: square"/>
   </g>
   <g id="patch_6">
    <path d="M 62.86875 22.318125 
L 419.98875 22.318125 
" style="fill: none; stroke: #000000; stroke-width: 0.8; stroke-linejoin: miter; stroke-linecap: square"/>
   </g>
   <g id="text_12">
    <!-- freetype2-2017 (4h:15m, 3 trials/fuzzer) -->
    <g transform="translate(120.349688 16.318125)scale(0.12 -0.12)">
     <defs>
      <path id="DejaVuSans-66" d="M 2375 4863 
L 2375 4384 
L 1825 4384 
Q 1516 4384 1395 4259 
Q 1275 4134 1275 3809 
L 1275 3500 
L 2222 3500 
L 2222 3053 
L 1275 3053 
L 1275 0 
L 697 0 
L 697 3053 
L 147 3053 
L 147 3500 
L 697 3500 
L 697 3744 
Q 697 4328 969 4595 
Q 1241 4863 1831 4863 
L 2375 4863 
z
" transform="scale(0.015625)"/>
      <path id="DejaVuSans-70" d="M 1159 525 
L 1159 -1331 
L 581 -1331 
L 581 3500 
L 1159 3500 
L 1159 2969 
Q 1341 3281 1617 3432 
Q 1894 3584 2278 3584 
Q 2916 3584 3314 3078 
Q 3713 2572 3713 1747 
Q 3713 922 3314 415 
Q 2916 -91 2278 -91 
Q 1894 -91 1617 61 
Q 1341 213 1159 525 
z
M 3116 1747 
Q 3116 2381 2855 2742 
Q 2594 3103 2138 3103 
Q 1681 3103 1420 2742 
Q 1159 2381 1159 1747 
Q 1159 1113 1420 752 
Q 1681 391 2138 391 
Q 2594 391 2855 752 
Q 3116 1113 3116 1747 
z
" transform="scale(0.015625)"/>
      <path id="DejaVuSans-2d" d="M 313 2009 
L 1997 2009 
L 1997 1497 
L 313 1497 
L 313 2009 
z
" transform="scale(0.015625)"/>
      <path id="DejaVuSans-37" d="M 525 4666 
L 3525 4666 
L 3525 4397 
L 1831 0 
L 1172 0 
L 2766 4134 
L 525 4134 
L 525 4666 
z
" transform="scale(0.015625)"/>
      <path id="DejaVuSans-28" d="M 1984 4856 
Q 1566 4138 1362 3434 
Q 1159 2731 1159 2009 
Q 1159 1288 1364 580 
Q 1569 -128 1984 -844 
L 1484 -844 
Q 1016 -109 783 600 
Q 550 1309 550 2009 
Q 550 2706 781 3412 
Q 1013 4119 1484 4856 
L 1984 4856 
z
" transform="scale(0.015625)"/>
      <path id="DejaVuSans-68" d="M 3513 2113 
L 3513 0 
L 2938 0 
L 2938 2094 
Q 2938 2591 2744 2837 
Q 2550 3084 2163 3084 
Q 1697 3084 1428 2787 
Q 1159 2491 1159 1978 
L 1159 0 
L 581 0 
L 581 4863 
L 1159 4863 
L 1159 2956 
Q 1366 3272 1645 3428 
Q 1925 3584 2291 3584 
Q 2894 3584 3203 3211 
Q 3513 2838 3513 2113 
z
" transform="scale(0.015625)"/>
      <path id="DejaVuSans-3a" d="M 750 794 
L 1409 794 
L 1409 0 
L 750 0 
L 750 794 
z
M 750 3309 
L 1409 3309 
L 1409 2516 
L 750 2516 
L 750 3309 
z
" transform="scale(0.015625)"/>
      <path id="DejaVuSans-35" d="M 691 4666 
L 3169 4666 
L 3169 4134 
L 1269 4134 
L 1269 2991 
Q 1406 3038 1543 3061 
Q 1681 3084 1819 3084 
Q 2600 3084 3056 2656 
Q 3513 2228 3513 1497 
Q 3513 744 3044 326 
Q 2575 -91 1722 -91 
Q 1428 -91 1123 -41 
Q 819 9 494 109 
L 494 744 
Q 775 591 1075 516 
Q 1375 441 1709 441 
Q 2250 441 2565 725 
Q 2881 1009 2881 1497 
Q 2881 1984 2565 2268 
Q 2250 2553 1709 2553 
Q 1456 2553 1204 2497 
Q 953 2441 691 2322 
L 691 4666 
z
" transform="scale(0.015625)"/>
      <path id="DejaVuSans-6d" d="M 3328 2828 
Q 3544 3216 3844 3400 
Q 4144 3584 4550 3584 
Q 5097 3584 5394 3201 
Q 5691 2819 5691 2113 
L 5691 0 
L 5113 0 
L 5113 2094 
Q 5113 2597 4934 2840 
Q 4756 3084 4391 3084 
Q 3944 3084 3684 2787 
Q 3425 2491 3425 1978 
L 3425 0 
L 2847 0 
L 2847 2094 
Q 2847 2600 2669 2842 
Q 2491 3084 2119 3084 
Q 1678 3084 1418 2786 
Q 1159 2488 1159 1978 
L 1159 0 
L 581 0 
L 581 3500 
L 1159 3500 
L 1159 2956 
Q 1356 3278 1631 3431 
Q 1906 3584 2284 3584 
Q 2666 3584 2933 3390 
Q 3200 3197 3328 2828 
z
" transform="scale(0.015625)"/>
      <path id="DejaVuSans-2c" d="M 750 794 
L 1409 794 
L 1409 256 
L 897 -744 
L 494 -744 
L 750 256 
L 750 794 
z
" transform="scale(0.015625)"/>
      <path id="DejaVuSans-33" d="M 2597 2516 
Q 3050 2419 3304 2112 
Q 3559 1806 3559 1356 
Q 3559 666 3084 287 
Q 2609 -91 1734 -91 
Q 1441 -91 1130 -33 
Q 819 25 488 141 
L 488 750 
Q 750 597 1062 519 
Q 1375 441 1716 441 
Q 2309 441 2620 675 
Q 2931 909 2931 1356 
Q 2931 1769 2642 2001 
Q 2353 2234 1838 2234 
L 1294 2234 
L 1294 2753 
L 1863 2753 
Q 2328 2753 2575 2939 
Q 2822 3125 2822 3475 
Q 2822 3834 2567 4026 
Q 2313 4219 1838 4219 
Q 1578 4219 1281 4162 
Q 984 4106 628 3988 
L 628 4550 
Q 988 4650 1302 4700 
Q 1616 4750 1894 4750 
Q 2613 4750 3031 4423 
Q 3450 4097 3450 3541 
Q 3450 3153 3228 2886 
Q 3006 2619 2597 2516 
z
" transform="scale(0.015625)"/>
      <path id="DejaVuSans-6c" d="M 603 4863 
L 1178 4863 
L 1178 0 
L 603 0 
L 603 4863 
z
" transform="scale(0.015625)"/>
      <path id="DejaVuSans-2f" d="M 1625 4666 
L 2156 4666 
L 531 -594 
L 0 -594 
L 1625 4666 
z
" transform="scale(0.015625)"/>
      <path id="DejaVuSans-75" d="M 544 1381 
L 544 3500 
L 1119 3500 
L 1119 1403 
Q 1119 906 1312 657 
Q 1506 409 1894 409 
Q 2359 409 2629 706 
Q 2900 1003 2900 1516 
L 2900 3500 
L 3475 3500 
L 3475 0 
L 2900 0 
L 2900 538 
Q 2691 219 2414 64 
Q 2138 -91 1772 -91 
Q 1169 -91 856 284 
Q 544 659 544 1381 
z
M 1991 3584 
L 1991 3584 
z
" transform="scale(0.015625)"/>
      <path id="DejaVuSans-7a" d="M 353 3500 
L 3084 3500 
L 3084 2975 
L 922 459 
L 3084 459 
L 3084 0 
L 275 0 
L 275 525 
L 2438 3041 
L 353 3041 
L 353 3500 
z
" transform="scale(0.015625)"/>
      <path id="DejaVuSans-29" d="M 513 4856 
L 1013 4856 
Q 1481 4119 1714 3412 
Q 1947 2706 1947 2009 
Q 1947 1309 1714 600 
Q 1481 -109 1013 -844 
L 513 -844 
Q 928 -128 1133 580 
Q 1338 1288 1338 2009 
Q 1338 2731 1133 3434 
Q 928 4138 513 4856 
z
" transform="scale(0.015625)"/>
     </defs>
     <use xlink:href="#DejaVuSans-66"/>
     <use xlink:href="#DejaVuSans-72" x="35.205078"/>
     <use xlink:href="#DejaVuSans-65" x="74.068359"/>
     <use xlink:href="#DejaVuSans-65" x="135.591797"/>
     <use xlink:href="#DejaVuSans-74" x="197.115234"/>
     <use xlink:href="#DejaVuSans-79" x="236.324219"/>
     <use xlink:href="#DejaVuSans-70" x="295.503906"/>
     <use xlink:href="#DejaVuSans-65" x="358.980469"/>
     <use xlink:href="#DejaVuSans-32" x="420.503906"/>
     <use xlink:href="#DejaVuSans-2d" x="484.126953"/>
     <use xlink:href="#DejaVuSans-32" x="520.210938"/>
     <use xlink:href="#DejaVuSans-30" x="583.833984"/>
     <use xlink:href="#DejaVuSans-31" x="647.457031"/>
     <use xlink:href="#DejaVuSans-37" x="711.080078"/>
     <use xlink:href="#DejaVuSans-20" x="774.703125"/>
     <use xlink:href="#DejaVuSans-28" x="806.490234"/>
     <use xlink:href="#DejaVuSans-34" x="845.503906"/>
     <use xlink:href="#DejaVuSans-68" x="909.126953"/>
     <use xlink:href="#DejaVuSans-3a" x="972.505859"/>
     <use xlink:href="#DejaVuSans-31" x="1006.197266"/>
     <use xlink:href="#DejaVuSans-35" x="1069.820312"/>
     <use xlink:href="#DejaVuSans-6d" x="1133.443359"/>
     <use xlink:href="#DejaVuSans-2c" x="1230.855469"/>
     <use xlink:href="#DejaVuSans-20" x="1262.642578"/>
     <use xlink:href="#DejaVuSans-33" x="1294.429688"/>
     <use xlink:href="#DejaVuSans-20" x="1358.052734"/>
     <use xlink:href="#DejaVuSans-74" x="1389.839844"/>
     <use xlink:href="#DejaVuSans-72" x="1429.048828"/>
     <use xlink:href="#DejaVuSans-69" x="1470.162109"/>
     <use xlink:href="#DejaVuSans-61" x="1497.945312"/>
     <use xlink:href="#DejaVuSans-6c" x="1559.224609"/>
     <use xlink:href="#DejaVuSans-73" x="1587.007812"/>
     <use xlink:href="#DejaVuSans-2f" x="1639.107422"/>
     <use xlink:href="#DejaVuSans-66" x="1672.798828"/>
     <use xlink:href="#DejaVuSans-75" x="1708.003906"/>
     <use xlink:href="#DejaVuSans-7a" x="1771.382812"/>
     <use xlink:href="#DejaVuSans-7a" x="1823.873047"/>
     <use xlink:href="#DejaVuSans-65" x="1876.363281"/>
     <use xlink:href="#DejaVuSans-72" x="1937.886719"/>
     <use xlink:href="#DejaVuSans-29" x="1979"/>
    </g>
   </g>
   <g id="legend_1">
    <g id="line2d_27">
     <path d="M 246.82625 35.416562 
L 256.82625 35.416562 
L 266.82625 35.416562 
" style="fill: none; stroke: #e377c2; stroke-width: 1.5; stroke-linecap: square"/>
    </g>
    <g id="text_13">
     <!-- aflplusplus_ast_o3_native -->
     <g transform="translate(274.82625 38.916562)scale(0.1 -0.1)">
      <defs>
       <path id="DejaVuSans-5f" d="M 3263 -1063 
L 3263 -1509 
L -63 -1509 
L -63 -1063 
L 3263 -1063 
z
" transform="scale(0.015625)"/>
      </defs>
      <use xlink:href="#DejaVuSans-61"/>
      <use xlink:href="#DejaVuSans-66" x="61.279297"/>
      <use xlink:href="#DejaVuSans-6c" x="96.484375"/>
      <use xlink:href="#DejaVuSans-70" x="124.267578"/>
      <use xlink:href="#DejaVuSans-6c" x="187.744141"/>
      <use xlink:href="#DejaVuSans-75" x="215.527344"/>
      <use xlink:href="#DejaVuSans-73" x="278.90625"/>
      <use xlink:href="#DejaVuSans-70" x="331.005859"/>
      <use xlink:href="#DejaVuSans-6c" x="394.482422"/>
      <use xlink:href="#DejaVuSans-75" x="422.265625"/>
      <use xlink:href="#DejaVuSans-73" x="485.644531"/>
      <use xlink:href="#DejaVuSans-5f" x="537.744141"/>
      <use xlink:href="#DejaVuSans-61" x="587.744141"/>
      <use xlink:href="#DejaVuSans-73" x="649.023438"/>
      <use xlink:href="#DejaVuSans-74" x="701.123047"/>
      <use xlink:href="#DejaVuSans-5f" x="740.332031"/>
      <use xlink:href="#DejaVuSans-6f" x="790.332031"/>
      <use xlink:href="#DejaVuSans-33" x="851.513672"/>
      <use xlink:href="#DejaVuSans-5f" x="915.136719"/>
      <use xlink:href="#DejaVuSans-6e" x="965.136719"/>
      <use xlink:href="#DejaVuSans-61" x="1028.515625"/>
      <use xlink:href="#DejaVuSans-74" x="1089.794922"/>
      <use xlink:href="#DejaVuSans-69" x="1129.003906"/>
      <use xlink:href="#DejaVuSans-76" x="1156.787109"/>
      <use xlink:href="#DejaVuSans-65" x="1215.966797"/>
     </g>
    </g>
    <g id="line2d_28">
     <path d="M 246.82625 50.372813 
L 256.82625 50.372813 
L 266.82625 50.372813 
" style="fill: none; stroke: #98df8a; stroke-width: 1.5; stroke-linecap: square"/>
    </g>
    <g id="text_14">
     <!-- aflplusplus_ast_f1 -->
     <g transform="translate(274.82625 53.872813)scale(0.1 -0.1)">
      <use xlink:href="#DejaVuSans-61"/>
      <use xlink:href="#DejaVuSans-66" x="61.279297"/>
      <use xlink:href="#DejaVuSans-6c" x="96.484375"/>
      <use xlink:href="#DejaVuSans-70" x="124.267578"/>
      <use xlink:href="#DejaVuSans-6c" x="187.744141"/>
      <use xlink:href="#DejaVuSans-75" x="215.527344"/>
      <use xlink:href="#DejaVuSans-73" x="278.90625"/>
      <use xlink:href="#DejaVuSans-70" x="331.005859"/>
      <use xlink:href="#DejaVuSans-6c" x="394.482422"/>
      <use xlink:href="#DejaVuSans-75" x="422.265625"/>
      <use xlink:href="#DejaVuSans-73" x="485.644531"/>
      <use xlink:href="#DejaVuSans-5f" x="537.744141"/>
      <use xlink:href="#DejaVuSans-61" x="587.744141"/>
      <use xlink:href="#DejaVuSans-73" x="649.023438"/>
      <use xlink:href="#DejaVuSans-74" x="701.123047"/>
      <use xlink:href="#DejaVuSans-5f" x="740.332031"/>
      <use xlink:href="#DejaVuSans-66" x="790.332031"/>
      <use xlink:href="#DejaVuSans-31" x="825.537109"/>
     </g>
    </g>
    <g id="line2d_29">
     <path d="M 246.82625 65.329063 
L 256.82625 65.329063 
L 266.82625 65.329063 
" style="fill: none; stroke: #ff7f0e; stroke-width: 1.5; stroke-linecap: square"/>
    </g>
    <g id="text_15">
     <!-- aflplusplus_ast_o2 -->
     <g transform="translate(274.82625 68.829063)scale(0.1 -0.1)">
      <use xlink:href="#DejaVuSans-61"/>
      <use xlink:href="#DejaVuSans-66" x="61.279297"/>
      <use xlink:href="#DejaVuSans-6c" x="96.484375"/>
      <use xlink:href="#DejaVuSans-70" x="124.267578"/>
      <use xlink:href="#DejaVuSans-6c" x="187.744141"/>
      <use xlink:href="#DejaVuSans-75" x="215.527344"/>
      <use xlink:href="#DejaVuSans-73" x="278.90625"/>
      <use xlink:href="#DejaVuSans-70" x="331.005859"/>
      <use xlink:href="#DejaVuSans-6c" x="394.482422"/>
      <use xlink:href="#DejaVuSans-75" x="422.265625"/>
      <use xlink:href="#DejaVuSans-73" x="485.644531"/>
      <use xlink:href="#DejaVuSans-5f" x="537.744141"/>
      <use xlink:href="#DejaVuSans-61" x="587.744141"/>
      <use xlink:href="#DejaVuSans-73" x="649.023438"/>
      <use xlink:href="#DejaVuSans-74" x="701.123047"/>
      <use xlink:href="#DejaVuSans-5f" x="740.332031"/>
      <use xlink:href="#DejaVuSans-6f" x="790.332031"/>
      <use xlink:href="#DejaVuSans-32" x="851.513672"/>
     </g>
    </g>
    <g id="line2d_30">
     <path d="M 246.82625 80.285313 
L 256.82625 80.285313 
L 266.82625 80.285313 
" style="fill: none; stroke: #c7c7c7; stroke-width: 1.5; stroke-linecap: square"/>
    </g>
    <g id="text_16">
     <!-- aflplusplus_ast_o1 -->
     <g transform="translate(274.82625 83.785313)scale(0.1 -0.1)">
      <use xlink:href="#DejaVuSans-61"/>
      <use xlink:href="#DejaVuSans-66" x="61.279297"/>
      <use xlink:href="#DejaVuSans-6c" x="96.484375"/>
      <use xlink:href="#DejaVuSans-70" x="124.267578"/>
      <use xlink:href="#DejaVuSans-6c" x="187.744141"/>
      <use xlink:href="#DejaVuSans-75" x="215.527344"/>
      <use xlink:href="#DejaVuSans-73" x="278.90625"/>
      <use xlink:href="#DejaVuSans-70" x="331.005859"/>
      <use xlink:href="#DejaVuSans-6c" x="394.482422"/>
      <use xlink:href="#DejaVuSans-75" x="422.265625"/>
      <use xlink:href="#DejaVuSans-73" x="485.644531"/>
      <use xlink:href="#DejaVuSans-5f" x="537.744141"/>
      <use xlink:href="#DejaVuSans-61" x="587.744141"/>
      <use xlink:href="#DejaVuSans-73" x="649.023438"/>
      <use xlink:href="#DejaVuSans-74" x="701.123047"/>
      <use xlink:href="#DejaVuSans-5f" x="740.332031"/>
      <use xlink:href="#DejaVuSans-6f" x="790.332031"/>
      <use xlink:href="#DejaVuSans-31" x="851.513672"/>
     </g>
    </g>
    <g id="line2d_31">
     <path d="M 246.82625 95.241562 
L 256.82625 95.241562 
L 266.82625 95.241562 
" style="fill: none; stroke: #ff9896; stroke-width: 1.5; stroke-linecap: square"/>
    </g>
    <g id="text_17">
     <!-- aflplusplus_ast_o3 -->
     <g transform="translate(274.82625 98.741562)scale(0.1 -0.1)">
      <use xlink:href="#DejaVuSans-61"/>
      <use xlink:href="#DejaVuSans-66" x="61.279297"/>
      <use xlink:href="#DejaVuSans-6c" x="96.484375"/>
      <use xlink:href="#DejaVuSans-70" x="124.267578"/>
      <use xlink:href="#DejaVuSans-6c" x="187.744141"/>
      <use xlink:href="#DejaVuSans-75" x="215.527344"/>
      <use xlink:href="#DejaVuSans-73" x="278.90625"/>
      <use xlink:href="#DejaVuSans-70" x="331.005859"/>
      <use xlink:href="#DejaVuSans-6c" x="394.482422"/>
      <use xlink:href="#DejaVuSans-75" x="422.265625"/>
      <use xlink:href="#DejaVuSans-73" x="485.644531"/>
      <use xlink:href="#DejaVuSans-5f" x="537.744141"/>
      <use xlink:href="#DejaVuSans-61" x="587.744141"/>
      <use xlink:href="#DejaVuSans-73" x="649.023438"/>
      <use xlink:href="#DejaVuSans-74" x="701.123047"/>
      <use xlink:href="#DejaVuSans-5f" x="740.332031"/>
      <use xlink:href="#DejaVuSans-6f" x="790.332031"/>
      <use xlink:href="#DejaVuSans-33" x="851.513672"/>
     </g>
    </g>
    <g id="line2d_32">
     <path d="M 246.82625 110.197812 
L 256.82625 110.197812 
L 266.82625 110.197812 
" style="fill: none; stroke: #2ca02c; stroke-width: 1.5; stroke-linecap: square"/>
    </g>
    <g id="text_18">
     <!-- aflplusplus_ast_opt_l1 -->
     <g transform="translate(274.82625 113.697812)scale(0.1 -0.1)">
      <use xlink:href="#DejaVuSans-61"/>
      <use xlink:href="#DejaVuSans-66" x="61.279297"/>
      <use xlink:href="#DejaVuSans-6c" x="96.484375"/>
      <use xlink:href="#DejaVuSans-70" x="124.267578"/>
      <use xlink:href="#DejaVuSans-6c" x="187.744141"/>
      <use xlink:href="#DejaVuSans-75" x="215.527344"/>
      <use xlink:href="#DejaVuSans-73" x="278.90625"/>
      <use xlink:href="#DejaVuSans-70" x="331.005859"/>
      <use xlink:href="#DejaVuSans-6c" x="394.482422"/>
      <use xlink:href="#DejaVuSans-75" x="422.265625"/>
      <use xlink:href="#DejaVuSans-73" x="485.644531"/>
      <use xlink:href="#DejaVuSans-5f" x="537.744141"/>
      <use xlink:href="#DejaVuSans-61" x="587.744141"/>
      <use xlink:href="#DejaVuSans-73" x="649.023438"/>
      <use xlink:href="#DejaVuSans-74" x="701.123047"/>
      <use xlink:href="#DejaVuSans-5f" x="740.332031"/>
      <use xlink:href="#DejaVuSans-6f" x="790.332031"/>
      <use xlink:href="#DejaVuSans-70" x="851.513672"/>
      <use xlink:href="#DejaVuSans-74" x="914.990234"/>
      <use xlink:href="#DejaVuSans-5f" x="954.199219"/>
      <use xlink:href="#DejaVuSans-6c" x="1004.199219"/>
      <use xlink:href="#DejaVuSans-31" x="1031.982422"/>
     </g>
    </g>
    <g id="line2d_33">
     <path d="M 246.82625 125.154063 
L 256.82625 125.154063 
L 266.82625 125.154063 
" style="fill: none; stroke: #1f77b4; stroke-width: 1.5; stroke-linecap: square"/>
    </g>
    <g id="text_19">
     <!-- aflplusplus_ast_f0 -->
     <g transform="translate(274.82625 128.654063)scale(0.1 -0.1)">
      <use xlink:href="#DejaVuSans-61"/>
      <use xlink:href="#DejaVuSans-66" x="61.279297"/>
      <use xlink:href="#DejaVuSans-6c" x="96.484375"/>
      <use xlink:href="#DejaVuSans-70" x="124.267578"/>
      <use xlink:href="#DejaVuSans-6c" x="187.744141"/>
      <use xlink:href="#DejaVuSans-75" x="215.527344"/>
      <use xlink:href="#DejaVuSans-73" x="278.90625"/>
      <use xlink:href="#DejaVuSans-70" x="331.005859"/>
      <use xlink:href="#DejaVuSans-6c" x="394.482422"/>
      <use xlink:href="#DejaVuSans-75" x="422.265625"/>
      <use xlink:href="#DejaVuSans-73" x="485.644531"/>
      <use xlink:href="#DejaVuSans-5f" x="537.744141"/>
      <use xlink:href="#DejaVuSans-61" x="587.744141"/>
      <use xlink:href="#DejaVuSans-73" x="649.023438"/>
      <use xlink:href="#DejaVuSans-74" x="701.123047"/>
      <use xlink:href="#DejaVuSans-5f" x="740.332031"/>
      <use xlink:href="#DejaVuSans-66" x="790.332031"/>
      <use xlink:href="#DejaVuSans-30" x="825.537109"/>
     </g>
    </g>
    <g id="line2d_34">
     <path d="M 246.82625 140.110312 
L 256.82625 140.110312 
L 266.82625 140.110312 
" style="fill: none; stroke: #d62728; stroke-width: 1.5; stroke-linecap: square"/>
    </g>
    <g id="text_20">
     <!-- aflplusplus_ast_o0 -->
     <g transform="translate(274.82625 143.610312)scale(0.1 -0.1)">
      <use xlink:href="#DejaVuSans-61"/>
      <use xlink:href="#DejaVuSans-66" x="61.279297"/>
      <use xlink:href="#DejaVuSans-6c" x="96.484375"/>
      <use xlink:href="#DejaVuSans-70" x="124.267578"/>
      <use xlink:href="#DejaVuSans-6c" x="187.744141"/>
      <use xlink:href="#DejaVuSans-75" x="215.527344"/>
      <use xlink:href="#DejaVuSans-73" x="278.90625"/>
      <use xlink:href="#DejaVuSans-70" x="331.005859"/>
      <use xlink:href="#DejaVuSans-6c" x="394.482422"/>
      <use xlink:href="#DejaVuSans-75" x="422.265625"/>
      <use xlink:href="#DejaVuSans-73" x="485.644531"/>
      <use xlink:href="#DejaVuSans-5f" x="537.744141"/>
      <use xlink:href="#DejaVuSans-61" x="587.744141"/>
      <use xlink:href="#DejaVuSans-73" x="649.023438"/>
      <use xlink:href="#DejaVuSans-74" x="701.123047"/>
      <use xlink:href="#DejaVuSans-5f" x="740.332031"/>
      <use xlink:href="#DejaVuSans-6f" x="790.332031"/>
      <use xlink:href="#DejaVuSans-30" x="851.513672"/>
     </g>
    </g>
    <g id="line2d_35">
     <path d="M 246.82625 155.066562 
L 256.82625 155.066562 
L 266.82625 155.066562 
" style="fill: none; stroke: #dbdb8d; stroke-width: 1.5; stroke-linecap: square"/>
    </g>
    <g id="text_21">
     <!-- aflplusplus_ast_opt_disable -->
     <g transform="translate(274.82625 158.566562)scale(0.1 -0.1)">
      <defs>
       <path id="DejaVuSans-62" d="M 3116 1747 
Q 3116 2381 2855 2742 
Q 2594 3103 2138 3103 
Q 1681 3103 1420 2742 
Q 1159 2381 1159 1747 
Q 1159 1113 1420 752 
Q 1681 391 2138 391 
Q 2594 391 2855 752 
Q 3116 1113 3116 1747 
z
M 1159 2969 
Q 1341 3281 1617 3432 
Q 1894 3584 2278 3584 
Q 2916 3584 3314 3078 
Q 3713 2572 3713 1747 
Q 3713 922 3314 415 
Q 2916 -91 2278 -91 
Q 1894 -91 1617 61 
Q 1341 213 1159 525 
L 1159 0 
L 581 0 
L 581 4863 
L 1159 4863 
L 1159 2969 
z
" transform="scale(0.015625)"/>
      </defs>
      <use xlink:href="#DejaVuSans-61"/>
      <use xlink:href="#DejaVuSans-66" x="61.279297"/>
      <use xlink:href="#DejaVuSans-6c" x="96.484375"/>
      <use xlink:href="#DejaVuSans-70" x="124.267578"/>
      <use xlink:href="#DejaVuSans-6c" x="187.744141"/>
      <use xlink:href="#DejaVuSans-75" x="215.527344"/>
      <use xlink:href="#DejaVuSans-73" x="278.90625"/>
      <use xlink:href="#DejaVuSans-70" x="331.005859"/>
      <use xlink:href="#DejaVuSans-6c" x="394.482422"/>
      <use xlink:href="#DejaVuSans-75" x="422.265625"/>
      <use xlink:href="#DejaVuSans-73" x="485.644531"/>
      <use xlink:href="#DejaVuSans-5f" x="537.744141"/>
      <use xlink:href="#DejaVuSans-61" x="587.744141"/>
      <use xlink:href="#DejaVuSans-73" x="649.023438"/>
      <use xlink:href="#DejaVuSans-74" x="701.123047"/>
      <use xlink:href="#DejaVuSans-5f" x="740.332031"/>
      <use xlink:href="#DejaVuSans-6f" x="790.332031"/>
      <use xlink:href="#DejaVuSans-70" x="851.513672"/>
      <use xlink:href="#DejaVuSans-74" x="914.990234"/>
      <use xlink:href="#DejaVuSans-5f" x="954.199219"/>
      <use xlink:href="#DejaVuSans-64" x="1004.199219"/>
      <use xlink:href="#DejaVuSans-69" x="1067.675781"/>
      <use xlink:href="#DejaVuSans-73" x="1095.458984"/>
      <use xlink:href="#DejaVuSans-61" x="1147.558594"/>
      <use xlink:href="#DejaVuSans-62" x="1208.837891"/>
      <use xlink:href="#DejaVuSans-6c" x="1272.314453"/>
      <use xlink:href="#DejaVuSans-65" x="1300.097656"/>
     </g>
    </g>
   </g>
  </g>
 </g>
 <defs>
  <clipPath id="pdc13eac2db">
   <rect x="62.86875" y="22.318125" width="357.12" height="266.112"/>
  </clipPath>
 </defs>
</svg>
