<?xml version="1.0" encoding="utf-8" standalone="no"?>
<!DOCTYPE svg PUBLIC "-//W3C//DTD SVG 1.1//EN"
  "http://www.w3.org/Graphics/SVG/1.1/DTD/svg11.dtd">
<svg xmlns:xlink="http://www.w3.org/1999/xlink" width="424.010625pt" height="393.011865pt" viewBox="0 0 424.010625 393.011865" xmlns="http://www.w3.org/2000/svg" version="1.1">
 <metadata>
  <rdf:RDF xmlns:dc="http://purl.org/dc/elements/1.1/" xmlns:cc="http://creativecommons.org/ns#" xmlns:rdf="http://www.w3.org/1999/02/22-rdf-syntax-ns#">
   <cc:Work>
    <dc:type rdf:resource="http://purl.org/dc/dcmitype/StillImage"/>
    <dc:date>2022-06-05T16:10:23.291806</dc:date>
    <dc:format>image/svg+xml</dc:format>
    <dc:creator>
     <cc:Agent>
      <dc:title>Matplotlib v3.5.1, https://matplotlib.org/</dc:title>
     </cc:Agent>
    </dc:creator>
   </cc:Work>
  </rdf:RDF>
 </metadata>
 <defs>
  <style type="text/css">*{stroke-linejoin: round; stroke-linecap: butt}</style>
 </defs>
 <g id="figure_1">
  <g id="patch_1">
   <path d="M 0 393.011865 
L 424.010625 393.011865 
L 424.010625 -0 
L 0 -0 
z
" style="fill: #ffffff"/>
  </g>
  <g id="axes_1">
   <g id="patch_2">
    <path d="M 59.690625 288.430125 
L 416.810625 288.430125 
L 416.810625 22.318125 
L 59.690625 22.318125 
z
" style="fill: #ffffff"/>
   </g>
   <g id="PolyCollection_1">
    <defs>
     <path id="m75ef0abe46" d="M 154.286777 -188.719172 
L 143.654473 -188.719172 
L 142.896116 -189.91329 
L 142.057133 -191.107408 
L 141.133349 -192.301526 
L 140.121025 -193.495644 
L 139.016962 -194.689762 
L 137.818605 -195.88388 
L 136.524143 -197.077998 
L 135.132605 -198.272116 
L 133.64395 -199.466234 
L 132.059144 -200.660352 
L 130.38022 -201.85447 
L 128.610331 -203.048587 
L 126.753778 -204.242705 
L 124.816016 -205.436823 
L 122.803648 -206.630941 
L 120.724384 -207.825059 
L 118.58699 -209.019177 
L 116.401204 -210.213295 
L 114.177638 -211.407413 
L 111.927653 -212.601531 
L 109.663226 -213.795649 
L 107.396792 -214.989767 
L 105.141081 -216.183884 
L 102.908942 -217.378002 
L 100.713166 -218.57212 
L 98.566308 -219.766238 
L 96.480507 -220.960356 
L 94.46732 -222.154474 
L 92.537564 -223.348592 
L 90.701173 -224.54271 
L 88.967069 -225.736828 
L 87.343056 -226.930946 
L 85.835737 -228.125064 
L 84.450454 -229.319181 
L 83.19125 -230.513299 
L 82.060859 -231.707417 
L 81.060722 -232.901535 
L 80.191025 -234.095653 
L 79.450765 -235.289771 
L 78.837833 -236.483889 
L 78.34912 -237.678007 
L 77.980642 -238.872125 
L 77.727678 -240.066243 
L 77.584918 -241.260361 
L 77.546625 -242.454479 
L 77.606794 -243.648596 
L 77.759319 -244.842714 
L 77.998148 -246.036832 
L 78.31744 -247.23095 
L 78.711704 -248.425068 
L 79.175923 -249.619186 
L 79.705661 -250.813304 
L 80.297147 -252.007422 
L 80.947337 -253.20154 
L 81.65394 -254.395658 
L 82.415432 -255.589776 
L 83.231024 -256.783893 
L 84.100614 -257.978011 
L 85.024709 -259.172129 
L 86.004324 -260.366247 
L 87.040856 -261.560365 
L 88.135943 -262.754483 
L 89.291317 -263.948601 
L 90.508636 -265.142719 
L 91.78933 -266.336837 
L 93.134438 -267.530955 
L 94.544464 -268.725073 
L 96.019238 -269.919191 
L 97.55781 -271.113308 
L 99.158354 -272.307426 
L 100.818107 -273.501544 
L 102.53334 -274.695662 
L 104.299348 -275.88978 
L 106.110483 -277.083898 
L 107.960211 -278.278016 
L 109.841195 -279.472134 
L 111.74541 -280.666252 
L 113.664268 -281.86037 
L 115.588771 -283.054488 
L 117.509666 -284.248605 
L 119.417612 -285.442723 
L 121.30335 -286.636841 
L 123.157858 -287.830959 
L 124.972513 -289.025077 
L 126.739227 -290.219195 
L 128.450576 -291.413313 
L 130.099901 -292.607431 
L 131.681395 -293.801549 
L 133.190166 -294.995667 
L 134.622272 -296.189785 
L 135.974738 -297.383902 
L 137.24555 -298.57802 
L 138.433631 -299.772138 
L 139.538794 -300.966256 
L 140.561682 -302.160374 
L 141.503701 -303.354492 
L 142.366932 -304.54861 
L 143.154049 -305.742728 
L 143.868221 -306.936846 
L 154.073029 -306.936846 
L 154.073029 -306.936846 
L 154.787201 -305.742728 
L 155.574318 -304.54861 
L 156.437549 -303.354492 
L 157.379568 -302.160374 
L 158.402456 -300.966256 
L 159.507619 -299.772138 
L 160.6957 -298.57802 
L 161.966512 -297.383902 
L 163.318978 -296.189785 
L 164.751084 -294.995667 
L 166.259855 -293.801549 
L 167.841349 -292.607431 
L 169.490674 -291.413313 
L 171.202023 -290.219195 
L 172.968737 -289.025077 
L 174.783392 -287.830959 
L 176.6379 -286.636841 
L 178.523638 -285.442723 
L 180.431584 -284.248605 
L 182.352479 -283.054488 
L 184.276982 -281.86037 
L 186.19584 -280.666252 
L 188.100055 -279.472134 
L 189.981039 -278.278016 
L 191.830767 -277.083898 
L 193.641902 -275.88978 
L 195.40791 -274.695662 
L 197.123143 -273.501544 
L 198.782896 -272.307426 
L 200.38344 -271.113308 
L 201.922012 -269.919191 
L 203.396786 -268.725073 
L 204.806812 -267.530955 
L 206.15192 -266.336837 
L 207.432614 -265.142719 
L 208.649933 -263.948601 
L 209.805307 -262.754483 
L 210.900394 -261.560365 
L 211.936926 -260.366247 
L 212.916541 -259.172129 
L 213.840636 -257.978011 
L 214.710226 -256.783893 
L 215.525818 -255.589776 
L 216.28731 -254.395658 
L 216.993913 -253.20154 
L 217.644103 -252.007422 
L 218.235589 -250.813304 
L 218.765327 -249.619186 
L 219.229546 -248.425068 
L 219.62381 -247.23095 
L 219.943102 -246.036832 
L 220.181931 -244.842714 
L 220.334456 -243.648596 
L 220.394625 -242.454479 
L 220.356332 -241.260361 
L 220.213572 -240.066243 
L 219.960608 -238.872125 
L 219.59213 -237.678007 
L 219.103417 -236.483889 
L 218.490485 -235.289771 
L 217.750225 -234.095653 
L 216.880528 -232.901535 
L 215.880391 -231.707417 
L 214.75 -230.513299 
L 213.490796 -229.319181 
L 212.105513 -228.125064 
L 210.598194 -226.930946 
L 208.974181 -225.736828 
L 207.240077 -224.54271 
L 205.403686 -223.348592 
L 203.47393 -222.154474 
L 201.460743 -220.960356 
L 199.374942 -219.766238 
L 197.228084 -218.57212 
L 195.032308 -217.378002 
L 192.800169 -216.183884 
L 190.544458 -214.989767 
L 188.278024 -213.795649 
L 186.013597 -212.601531 
L 183.763612 -211.407413 
L 181.540046 -210.213295 
L 179.35426 -209.019177 
L 177.216866 -207.825059 
L 175.137602 -206.630941 
L 173.125234 -205.436823 
L 171.187472 -204.242705 
L 169.330919 -203.048587 
L 167.56103 -201.85447 
L 165.882106 -200.660352 
L 164.2973 -199.466234 
L 162.808645 -198.272116 
L 161.417107 -197.077998 
L 160.122645 -195.88388 
L 158.924288 -194.689762 
L 157.820225 -193.495644 
L 156.807901 -192.301526 
L 155.884117 -191.107408 
L 155.045134 -189.91329 
L 154.286777 -188.719172 
z
" style="stroke: #3d3d3d; stroke-width: 1.5"/>
    </defs>
    <g clip-path="url(#p2b31bc4fc9)">
     <use xlink:href="#m75ef0abe46" x="0" y="393.011865" style="fill: #d1d197; stroke: #3d3d3d; stroke-width: 1.5"/>
    </g>
   </g>
   <g id="PolyCollection_2">
    <defs>
     <path id="mf8c3d3949b" d="M 330.056697 -116.67774 
L 325.004553 -116.67774 
L 324.64826 -119.121377 
L 324.254992 -121.565013 
L 323.82302 -124.00865 
L 323.350843 -126.452286 
L 322.837237 -128.895922 
L 322.281302 -131.339559 
L 321.682499 -133.783195 
L 321.040694 -136.226831 
L 320.356192 -138.670468 
L 319.629757 -141.114104 
L 318.86264 -143.55774 
L 318.056581 -146.001377 
L 317.213813 -148.445013 
L 316.337054 -150.88865 
L 315.429478 -153.332286 
L 314.494691 -155.775922 
L 313.536687 -158.219559 
L 312.559793 -160.663195 
L 311.568615 -163.106831 
L 310.567962 -165.550468 
L 309.562785 -167.994104 
L 308.558091 -170.43774 
L 307.558869 -172.881377 
L 306.570017 -175.325013 
L 305.596262 -177.76865 
L 304.642097 -180.212286 
L 303.711716 -182.655922 
L 302.80896 -185.099559 
L 301.937278 -187.543195 
L 301.099692 -189.986831 
L 300.298777 -192.430468 
L 299.536654 -194.874104 
L 298.814995 -197.31774 
L 298.135033 -199.761377 
L 297.497595 -202.205013 
L 296.903131 -204.64865 
L 296.35176 -207.092286 
L 295.84332 -209.535922 
L 295.377418 -211.979559 
L 294.95349 -214.423195 
L 294.570857 -216.866831 
L 294.22878 -219.310468 
L 293.926515 -221.754104 
L 293.663363 -224.19774 
L 293.438715 -226.641377 
L 293.252088 -229.085013 
L 293.103158 -231.52865 
L 292.991783 -233.972286 
L 292.918019 -236.415922 
L 292.882126 -238.859559 
L 292.884564 -241.303195 
L 292.925988 -243.746831 
L 293.007228 -246.190468 
L 293.129261 -248.634104 
L 293.293183 -251.07774 
L 293.500166 -253.521377 
L 293.751418 -255.965013 
L 294.048132 -258.40865 
L 294.391435 -260.852286 
L 294.782332 -263.295922 
L 295.221655 -265.739559 
L 295.710004 -268.183195 
L 296.247696 -270.626831 
L 296.834719 -273.070468 
L 297.470681 -275.514104 
L 298.154779 -277.95774 
L 298.885762 -280.401377 
L 299.661915 -282.845013 
L 300.481042 -285.28865 
L 301.340472 -287.732286 
L 302.237058 -290.175922 
L 303.167211 -292.619559 
L 304.126919 -295.063195 
L 305.111801 -297.506831 
L 306.11715 -299.950468 
L 307.138001 -302.394104 
L 308.169191 -304.83774 
L 309.205441 -307.281377 
L 310.241424 -309.725013 
L 311.271846 -312.16865 
L 312.291527 -314.612286 
L 313.295469 -317.055922 
L 314.278928 -319.499559 
L 315.237483 -321.943195 
L 316.167084 -324.386831 
L 317.064107 -326.830468 
L 317.925386 -329.274104 
L 318.748242 -331.71774 
L 319.5305 -334.161377 
L 320.270496 -336.605013 
L 320.96707 -339.04865 
L 321.619552 -341.492286 
L 322.227745 -343.935922 
L 322.79189 -346.379559 
L 323.31263 -348.823195 
L 323.790972 -351.266831 
L 324.228243 -353.710468 
L 324.626038 -356.154104 
L 324.986181 -358.59774 
L 330.075069 -358.59774 
L 330.075069 -358.59774 
L 330.435212 -356.154104 
L 330.833007 -353.710468 
L 331.270278 -351.266831 
L 331.74862 -348.823195 
L 332.26936 -346.379559 
L 332.833505 -343.935922 
L 333.441698 -341.492286 
L 334.09418 -339.04865 
L 334.790754 -336.605013 
L 335.53075 -334.161377 
L 336.313008 -331.71774 
L 337.135864 -329.274104 
L 337.997143 -326.830468 
L 338.894166 -324.386831 
L 339.823767 -321.943195 
L 340.782322 -319.499559 
L 341.765781 -317.055922 
L 342.769723 -314.612286 
L 343.789404 -312.16865 
L 344.819826 -309.725013 
L 345.855809 -307.281377 
L 346.892059 -304.83774 
L 347.923249 -302.394104 
L 348.9441 -299.950468 
L 349.949449 -297.506831 
L 350.934331 -295.063195 
L 351.894039 -292.619559 
L 352.824192 -290.175922 
L 353.720778 -287.732286 
L 354.580208 -285.28865 
L 355.399335 -282.845013 
L 356.175488 -280.401377 
L 356.906471 -277.95774 
L 357.590569 -275.514104 
L 358.226531 -273.070468 
L 358.813554 -270.626831 
L 359.351246 -268.183195 
L 359.839595 -265.739559 
L 360.278918 -263.295922 
L 360.669815 -260.852286 
L 361.013118 -258.40865 
L 361.309832 -255.965013 
L 361.561084 -253.521377 
L 361.768067 -251.07774 
L 361.931989 -248.634104 
L 362.054022 -246.190468 
L 362.135262 -243.746831 
L 362.176686 -241.303195 
L 362.179124 -238.859559 
L 362.143231 -236.415922 
L 362.069467 -233.972286 
L 361.958092 -231.52865 
L 361.809162 -229.085013 
L 361.622535 -226.641377 
L 361.397887 -224.19774 
L 361.134735 -221.754104 
L 360.83247 -219.310468 
L 360.490393 -216.866831 
L 360.10776 -214.423195 
L 359.683832 -211.979559 
L 359.21793 -209.535922 
L 358.70949 -207.092286 
L 358.158119 -204.64865 
L 357.563655 -202.205013 
L 356.926217 -199.761377 
L 356.246255 -197.31774 
L 355.524596 -194.874104 
L 354.762473 -192.430468 
L 353.961558 -189.986831 
L 353.123972 -187.543195 
L 352.25229 -185.099559 
L 351.349534 -182.655922 
L 350.419153 -180.212286 
L 349.464988 -177.76865 
L 348.491233 -175.325013 
L 347.502381 -172.881377 
L 346.503159 -170.43774 
L 345.498465 -167.994104 
L 344.493288 -165.550468 
L 343.492635 -163.106831 
L 342.501457 -160.663195 
L 341.524563 -158.219559 
L 340.566559 -155.775922 
L 339.631772 -153.332286 
L 338.724196 -150.88865 
L 337.847437 -148.445013 
L 337.004669 -146.001377 
L 336.19861 -143.55774 
L 335.431493 -141.114104 
L 334.705058 -138.670468 
L 334.020556 -136.226831 
L 333.378751 -133.783195 
L 332.779948 -131.339559 
L 332.224013 -128.895922 
L 331.710407 -126.452286 
L 331.23823 -124.00865 
L 330.806258 -121.565013 
L 330.41299 -119.121377 
L 330.056697 -116.67774 
z
" style="stroke: #3d3d3d; stroke-width: 1.5"/>
    </defs>
    <g clip-path="url(#p2b31bc4fc9)">
     <use xlink:href="#mf8c3d3949b" x="0" y="393.011865" style="fill: #3a923a; stroke: #3d3d3d; stroke-width: 1.5"/>
    </g>
   </g>
   <g id="matplotlib.axis_1">
    <g id="xtick_1">
     <g id="line2d_1">
      <defs>
       <path id="m49474dc687" d="M 0 0 
L 0 3.5 
" style="stroke: #000000; stroke-width: 0.8"/>
      </defs>
      <g>
       <use xlink:href="#m49474dc687" x="148.970625" y="288.430125" style="stroke: #000000; stroke-width: 0.8"/>
      </g>
     </g>
     <g id="text_1">
      <!-- aflplusplus_ast_opt_disable -->
      <g transform="translate(29.871535 370.091815)rotate(-30)scale(0.1 -0.1)">
       <defs>
        <path id="DejaVuSans-61" d="M 2194 1759 
Q 1497 1759 1228 1600 
Q 959 1441 959 1056 
Q 959 750 1161 570 
Q 1363 391 1709 391 
Q 2188 391 2477 730 
Q 2766 1069 2766 1631 
L 2766 1759 
L 2194 1759 
z
M 3341 1997 
L 3341 0 
L 2766 0 
L 2766 531 
Q 2569 213 2275 61 
Q 1981 -91 1556 -91 
Q 1019 -91 701 211 
Q 384 513 384 1019 
Q 384 1609 779 1909 
Q 1175 2209 1959 2209 
L 2766 2209 
L 2766 2266 
Q 2766 2663 2505 2880 
Q 2244 3097 1772 3097 
Q 1472 3097 1187 3025 
Q 903 2953 641 2809 
L 641 3341 
Q 956 3463 1253 3523 
Q 1550 3584 1831 3584 
Q 2591 3584 2966 3190 
Q 3341 2797 3341 1997 
z
" transform="scale(0.015625)"/>
        <path id="DejaVuSans-66" d="M 2375 4863 
L 2375 4384 
L 1825 4384 
Q 1516 4384 1395 4259 
Q 1275 4134 1275 3809 
L 1275 3500 
L 2222 3500 
L 2222 3053 
L 1275 3053 
L 1275 0 
L 697 0 
L 697 3053 
L 147 3053 
L 147 3500 
L 697 3500 
L 697 3744 
Q 697 4328 969 4595 
Q 1241 4863 1831 4863 
L 2375 4863 
z
" transform="scale(0.015625)"/>
        <path id="DejaVuSans-6c" d="M 603 4863 
L 1178 4863 
L 1178 0 
L 603 0 
L 603 4863 
z
" transform="scale(0.015625)"/>
        <path id="DejaVuSans-70" d="M 1159 525 
L 1159 -1331 
L 581 -1331 
L 581 3500 
L 1159 3500 
L 1159 2969 
Q 1341 3281 1617 3432 
Q 1894 3584 2278 3584 
Q 2916 3584 3314 3078 
Q 3713 2572 3713 1747 
Q 3713 922 3314 415 
Q 2916 -91 2278 -91 
Q 1894 -91 1617 61 
Q 1341 213 1159 525 
z
M 3116 1747 
Q 3116 2381 2855 2742 
Q 2594 3103 2138 3103 
Q 1681 3103 1420 2742 
Q 1159 2381 1159 1747 
Q 1159 1113 1420 752 
Q 1681 391 2138 391 
Q 2594 391 2855 752 
Q 3116 1113 3116 1747 
z
" transform="scale(0.015625)"/>
        <path id="DejaVuSans-75" d="M 544 1381 
L 544 3500 
L 1119 3500 
L 1119 1403 
Q 1119 906 1312 657 
Q 1506 409 1894 409 
Q 2359 409 2629 706 
Q 2900 1003 2900 1516 
L 2900 3500 
L 3475 3500 
L 3475 0 
L 2900 0 
L 2900 538 
Q 2691 219 2414 64 
Q 2138 -91 1772 -91 
Q 1169 -91 856 284 
Q 544 659 544 1381 
z
M 1991 3584 
L 1991 3584 
z
" transform="scale(0.015625)"/>
        <path id="DejaVuSans-73" d="M 2834 3397 
L 2834 2853 
Q 2591 2978 2328 3040 
Q 2066 3103 1784 3103 
Q 1356 3103 1142 2972 
Q 928 2841 928 2578 
Q 928 2378 1081 2264 
Q 1234 2150 1697 2047 
L 1894 2003 
Q 2506 1872 2764 1633 
Q 3022 1394 3022 966 
Q 3022 478 2636 193 
Q 2250 -91 1575 -91 
Q 1294 -91 989 -36 
Q 684 19 347 128 
L 347 722 
Q 666 556 975 473 
Q 1284 391 1588 391 
Q 1994 391 2212 530 
Q 2431 669 2431 922 
Q 2431 1156 2273 1281 
Q 2116 1406 1581 1522 
L 1381 1569 
Q 847 1681 609 1914 
Q 372 2147 372 2553 
Q 372 3047 722 3315 
Q 1072 3584 1716 3584 
Q 2034 3584 2315 3537 
Q 2597 3491 2834 3397 
z
" transform="scale(0.015625)"/>
        <path id="DejaVuSans-5f" d="M 3263 -1063 
L 3263 -1509 
L -63 -1509 
L -63 -1063 
L 3263 -1063 
z
" transform="scale(0.015625)"/>
        <path id="DejaVuSans-74" d="M 1172 4494 
L 1172 3500 
L 2356 3500 
L 2356 3053 
L 1172 3053 
L 1172 1153 
Q 1172 725 1289 603 
Q 1406 481 1766 481 
L 2356 481 
L 2356 0 
L 1766 0 
Q 1100 0 847 248 
Q 594 497 594 1153 
L 594 3053 
L 172 3053 
L 172 3500 
L 594 3500 
L 594 4494 
L 1172 4494 
z
" transform="scale(0.015625)"/>
        <path id="DejaVuSans-6f" d="M 1959 3097 
Q 1497 3097 1228 2736 
Q 959 2375 959 1747 
Q 959 1119 1226 758 
Q 1494 397 1959 397 
Q 2419 397 2687 759 
Q 2956 1122 2956 1747 
Q 2956 2369 2687 2733 
Q 2419 3097 1959 3097 
z
M 1959 3584 
Q 2709 3584 3137 3096 
Q 3566 2609 3566 1747 
Q 3566 888 3137 398 
Q 2709 -91 1959 -91 
Q 1206 -91 779 398 
Q 353 888 353 1747 
Q 353 2609 779 3096 
Q 1206 3584 1959 3584 
z
" transform="scale(0.015625)"/>
        <path id="DejaVuSans-64" d="M 2906 2969 
L 2906 4863 
L 3481 4863 
L 3481 0 
L 2906 0 
L 2906 525 
Q 2725 213 2448 61 
Q 2172 -91 1784 -91 
Q 1150 -91 751 415 
Q 353 922 353 1747 
Q 353 2572 751 3078 
Q 1150 3584 1784 3584 
Q 2172 3584 2448 3432 
Q 2725 3281 2906 2969 
z
M 947 1747 
Q 947 1113 1208 752 
Q 1469 391 1925 391 
Q 2381 391 2643 752 
Q 2906 1113 2906 1747 
Q 2906 2381 2643 2742 
Q 2381 3103 1925 3103 
Q 1469 3103 1208 2742 
Q 947 2381 947 1747 
z
" transform="scale(0.015625)"/>
        <path id="DejaVuSans-69" d="M 603 3500 
L 1178 3500 
L 1178 0 
L 603 0 
L 603 3500 
z
M 603 4863 
L 1178 4863 
L 1178 4134 
L 603 4134 
L 603 4863 
z
" transform="scale(0.015625)"/>
        <path id="DejaVuSans-62" d="M 3116 1747 
Q 3116 2381 2855 2742 
Q 2594 3103 2138 3103 
Q 1681 3103 1420 2742 
Q 1159 2381 1159 1747 
Q 1159 1113 1420 752 
Q 1681 391 2138 391 
Q 2594 391 2855 752 
Q 3116 1113 3116 1747 
z
M 1159 2969 
Q 1341 3281 1617 3432 
Q 1894 3584 2278 3584 
Q 2916 3584 3314 3078 
Q 3713 2572 3713 1747 
Q 3713 922 3314 415 
Q 2916 -91 2278 -91 
Q 1894 -91 1617 61 
Q 1341 213 1159 525 
L 1159 0 
L 581 0 
L 581 4863 
L 1159 4863 
L 1159 2969 
z
" transform="scale(0.015625)"/>
        <path id="DejaVuSans-65" d="M 3597 1894 
L 3597 1613 
L 953 1613 
Q 991 1019 1311 708 
Q 1631 397 2203 397 
Q 2534 397 2845 478 
Q 3156 559 3463 722 
L 3463 178 
Q 3153 47 2828 -22 
Q 2503 -91 2169 -91 
Q 1331 -91 842 396 
Q 353 884 353 1716 
Q 353 2575 817 3079 
Q 1281 3584 2069 3584 
Q 2775 3584 3186 3129 
Q 3597 2675 3597 1894 
z
M 3022 2063 
Q 3016 2534 2758 2815 
Q 2500 3097 2075 3097 
Q 1594 3097 1305 2825 
Q 1016 2553 972 2059 
L 3022 2063 
z
" transform="scale(0.015625)"/>
       </defs>
       <use xlink:href="#DejaVuSans-61"/>
       <use xlink:href="#DejaVuSans-66" x="61.279297"/>
       <use xlink:href="#DejaVuSans-6c" x="96.484375"/>
       <use xlink:href="#DejaVuSans-70" x="124.267578"/>
       <use xlink:href="#DejaVuSans-6c" x="187.744141"/>
       <use xlink:href="#DejaVuSans-75" x="215.527344"/>
       <use xlink:href="#DejaVuSans-73" x="278.90625"/>
       <use xlink:href="#DejaVuSans-70" x="331.005859"/>
       <use xlink:href="#DejaVuSans-6c" x="394.482422"/>
       <use xlink:href="#DejaVuSans-75" x="422.265625"/>
       <use xlink:href="#DejaVuSans-73" x="485.644531"/>
       <use xlink:href="#DejaVuSans-5f" x="537.744141"/>
       <use xlink:href="#DejaVuSans-61" x="587.744141"/>
       <use xlink:href="#DejaVuSans-73" x="649.023438"/>
       <use xlink:href="#DejaVuSans-74" x="701.123047"/>
       <use xlink:href="#DejaVuSans-5f" x="740.332031"/>
       <use xlink:href="#DejaVuSans-6f" x="790.332031"/>
       <use xlink:href="#DejaVuSans-70" x="851.513672"/>
       <use xlink:href="#DejaVuSans-74" x="914.990234"/>
       <use xlink:href="#DejaVuSans-5f" x="954.199219"/>
       <use xlink:href="#DejaVuSans-64" x="1004.199219"/>
       <use xlink:href="#DejaVuSans-69" x="1067.675781"/>
       <use xlink:href="#DejaVuSans-73" x="1095.458984"/>
       <use xlink:href="#DejaVuSans-61" x="1147.558594"/>
       <use xlink:href="#DejaVuSans-62" x="1208.837891"/>
       <use xlink:href="#DejaVuSans-6c" x="1272.314453"/>
       <use xlink:href="#DejaVuSans-65" x="1300.097656"/>
      </g>
     </g>
    </g>
    <g id="xtick_2">
     <g id="line2d_2">
      <g>
       <use xlink:href="#m49474dc687" x="327.530625" y="288.430125" style="stroke: #000000; stroke-width: 0.8"/>
      </g>
     </g>
     <g id="text_2">
      <!-- aflplusplus_ast_opt_l1 -->
      <g transform="translate(231.470517 356.790252)rotate(-30)scale(0.1 -0.1)">
       <defs>
        <path id="DejaVuSans-31" d="M 794 531 
L 1825 531 
L 1825 4091 
L 703 3866 
L 703 4441 
L 1819 4666 
L 2450 4666 
L 2450 531 
L 3481 531 
L 3481 0 
L 794 0 
L 794 531 
z
" transform="scale(0.015625)"/>
       </defs>
       <use xlink:href="#DejaVuSans-61"/>
       <use xlink:href="#DejaVuSans-66" x="61.279297"/>
       <use xlink:href="#DejaVuSans-6c" x="96.484375"/>
       <use xlink:href="#DejaVuSans-70" x="124.267578"/>
       <use xlink:href="#DejaVuSans-6c" x="187.744141"/>
       <use xlink:href="#DejaVuSans-75" x="215.527344"/>
       <use xlink:href="#DejaVuSans-73" x="278.90625"/>
       <use xlink:href="#DejaVuSans-70" x="331.005859"/>
       <use xlink:href="#DejaVuSans-6c" x="394.482422"/>
       <use xlink:href="#DejaVuSans-75" x="422.265625"/>
       <use xlink:href="#DejaVuSans-73" x="485.644531"/>
       <use xlink:href="#DejaVuSans-5f" x="537.744141"/>
       <use xlink:href="#DejaVuSans-61" x="587.744141"/>
       <use xlink:href="#DejaVuSans-73" x="649.023438"/>
       <use xlink:href="#DejaVuSans-74" x="701.123047"/>
       <use xlink:href="#DejaVuSans-5f" x="740.332031"/>
       <use xlink:href="#DejaVuSans-6f" x="790.332031"/>
       <use xlink:href="#DejaVuSans-70" x="851.513672"/>
       <use xlink:href="#DejaVuSans-74" x="914.990234"/>
       <use xlink:href="#DejaVuSans-5f" x="954.199219"/>
       <use xlink:href="#DejaVuSans-6c" x="1004.199219"/>
       <use xlink:href="#DejaVuSans-31" x="1031.982422"/>
      </g>
     </g>
    </g>
    <g id="text_3">
     <!-- Fuzzer (highest median coverage on the left) -->
     <g transform="translate(125.632656 383.732178)scale(0.1 -0.1)">
      <defs>
       <path id="DejaVuSans-46" d="M 628 4666 
L 3309 4666 
L 3309 4134 
L 1259 4134 
L 1259 2759 
L 3109 2759 
L 3109 2228 
L 1259 2228 
L 1259 0 
L 628 0 
L 628 4666 
z
" transform="scale(0.015625)"/>
       <path id="DejaVuSans-7a" d="M 353 3500 
L 3084 3500 
L 3084 2975 
L 922 459 
L 3084 459 
L 3084 0 
L 275 0 
L 275 525 
L 2438 3041 
L 353 3041 
L 353 3500 
z
" transform="scale(0.015625)"/>
       <path id="DejaVuSans-72" d="M 2631 2963 
Q 2534 3019 2420 3045 
Q 2306 3072 2169 3072 
Q 1681 3072 1420 2755 
Q 1159 2438 1159 1844 
L 1159 0 
L 581 0 
L 581 3500 
L 1159 3500 
L 1159 2956 
Q 1341 3275 1631 3429 
Q 1922 3584 2338 3584 
Q 2397 3584 2469 3576 
Q 2541 3569 2628 3553 
L 2631 2963 
z
" transform="scale(0.015625)"/>
       <path id="DejaVuSans-20" transform="scale(0.015625)"/>
       <path id="DejaVuSans-28" d="M 1984 4856 
Q 1566 4138 1362 3434 
Q 1159 2731 1159 2009 
Q 1159 1288 1364 580 
Q 1569 -128 1984 -844 
L 1484 -844 
Q 1016 -109 783 600 
Q 550 1309 550 2009 
Q 550 2706 781 3412 
Q 1013 4119 1484 4856 
L 1984 4856 
z
" transform="scale(0.015625)"/>
       <path id="DejaVuSans-68" d="M 3513 2113 
L 3513 0 
L 2938 0 
L 2938 2094 
Q 2938 2591 2744 2837 
Q 2550 3084 2163 3084 
Q 1697 3084 1428 2787 
Q 1159 2491 1159 1978 
L 1159 0 
L 581 0 
L 581 4863 
L 1159 4863 
L 1159 2956 
Q 1366 3272 1645 3428 
Q 1925 3584 2291 3584 
Q 2894 3584 3203 3211 
Q 3513 2838 3513 2113 
z
" transform="scale(0.015625)"/>
       <path id="DejaVuSans-67" d="M 2906 1791 
Q 2906 2416 2648 2759 
Q 2391 3103 1925 3103 
Q 1463 3103 1205 2759 
Q 947 2416 947 1791 
Q 947 1169 1205 825 
Q 1463 481 1925 481 
Q 2391 481 2648 825 
Q 2906 1169 2906 1791 
z
M 3481 434 
Q 3481 -459 3084 -895 
Q 2688 -1331 1869 -1331 
Q 1566 -1331 1297 -1286 
Q 1028 -1241 775 -1147 
L 775 -588 
Q 1028 -725 1275 -790 
Q 1522 -856 1778 -856 
Q 2344 -856 2625 -561 
Q 2906 -266 2906 331 
L 2906 616 
Q 2728 306 2450 153 
Q 2172 0 1784 0 
Q 1141 0 747 490 
Q 353 981 353 1791 
Q 353 2603 747 3093 
Q 1141 3584 1784 3584 
Q 2172 3584 2450 3431 
Q 2728 3278 2906 2969 
L 2906 3500 
L 3481 3500 
L 3481 434 
z
" transform="scale(0.015625)"/>
       <path id="DejaVuSans-6d" d="M 3328 2828 
Q 3544 3216 3844 3400 
Q 4144 3584 4550 3584 
Q 5097 3584 5394 3201 
Q 5691 2819 5691 2113 
L 5691 0 
L 5113 0 
L 5113 2094 
Q 5113 2597 4934 2840 
Q 4756 3084 4391 3084 
Q 3944 3084 3684 2787 
Q 3425 2491 3425 1978 
L 3425 0 
L 2847 0 
L 2847 2094 
Q 2847 2600 2669 2842 
Q 2491 3084 2119 3084 
Q 1678 3084 1418 2786 
Q 1159 2488 1159 1978 
L 1159 0 
L 581 0 
L 581 3500 
L 1159 3500 
L 1159 2956 
Q 1356 3278 1631 3431 
Q 1906 3584 2284 3584 
Q 2666 3584 2933 3390 
Q 3200 3197 3328 2828 
z
" transform="scale(0.015625)"/>
       <path id="DejaVuSans-6e" d="M 3513 2113 
L 3513 0 
L 2938 0 
L 2938 2094 
Q 2938 2591 2744 2837 
Q 2550 3084 2163 3084 
Q 1697 3084 1428 2787 
Q 1159 2491 1159 1978 
L 1159 0 
L 581 0 
L 581 3500 
L 1159 3500 
L 1159 2956 
Q 1366 3272 1645 3428 
Q 1925 3584 2291 3584 
Q 2894 3584 3203 3211 
Q 3513 2838 3513 2113 
z
" transform="scale(0.015625)"/>
       <path id="DejaVuSans-63" d="M 3122 3366 
L 3122 2828 
Q 2878 2963 2633 3030 
Q 2388 3097 2138 3097 
Q 1578 3097 1268 2742 
Q 959 2388 959 1747 
Q 959 1106 1268 751 
Q 1578 397 2138 397 
Q 2388 397 2633 464 
Q 2878 531 3122 666 
L 3122 134 
Q 2881 22 2623 -34 
Q 2366 -91 2075 -91 
Q 1284 -91 818 406 
Q 353 903 353 1747 
Q 353 2603 823 3093 
Q 1294 3584 2113 3584 
Q 2378 3584 2631 3529 
Q 2884 3475 3122 3366 
z
" transform="scale(0.015625)"/>
       <path id="DejaVuSans-76" d="M 191 3500 
L 800 3500 
L 1894 563 
L 2988 3500 
L 3597 3500 
L 2284 0 
L 1503 0 
L 191 3500 
z
" transform="scale(0.015625)"/>
       <path id="DejaVuSans-29" d="M 513 4856 
L 1013 4856 
Q 1481 4119 1714 3412 
Q 1947 2706 1947 2009 
Q 1947 1309 1714 600 
Q 1481 -109 1013 -844 
L 513 -844 
Q 928 -128 1133 580 
Q 1338 1288 1338 2009 
Q 1338 2731 1133 3434 
Q 928 4138 513 4856 
z
" transform="scale(0.015625)"/>
      </defs>
      <use xlink:href="#DejaVuSans-46"/>
      <use xlink:href="#DejaVuSans-75" x="52.019531"/>
      <use xlink:href="#DejaVuSans-7a" x="115.398438"/>
      <use xlink:href="#DejaVuSans-7a" x="167.888672"/>
      <use xlink:href="#DejaVuSans-65" x="220.378906"/>
      <use xlink:href="#DejaVuSans-72" x="281.902344"/>
      <use xlink:href="#DejaVuSans-20" x="323.015625"/>
      <use xlink:href="#DejaVuSans-28" x="354.802734"/>
      <use xlink:href="#DejaVuSans-68" x="393.816406"/>
      <use xlink:href="#DejaVuSans-69" x="457.195312"/>
      <use xlink:href="#DejaVuSans-67" x="484.978516"/>
      <use xlink:href="#DejaVuSans-68" x="548.455078"/>
      <use xlink:href="#DejaVuSans-65" x="611.833984"/>
      <use xlink:href="#DejaVuSans-73" x="673.357422"/>
      <use xlink:href="#DejaVuSans-74" x="725.457031"/>
      <use xlink:href="#DejaVuSans-20" x="764.666016"/>
      <use xlink:href="#DejaVuSans-6d" x="796.453125"/>
      <use xlink:href="#DejaVuSans-65" x="893.865234"/>
      <use xlink:href="#DejaVuSans-64" x="955.388672"/>
      <use xlink:href="#DejaVuSans-69" x="1018.865234"/>
      <use xlink:href="#DejaVuSans-61" x="1046.648438"/>
      <use xlink:href="#DejaVuSans-6e" x="1107.927734"/>
      <use xlink:href="#DejaVuSans-20" x="1171.306641"/>
      <use xlink:href="#DejaVuSans-63" x="1203.09375"/>
      <use xlink:href="#DejaVuSans-6f" x="1258.074219"/>
      <use xlink:href="#DejaVuSans-76" x="1319.255859"/>
      <use xlink:href="#DejaVuSans-65" x="1378.435547"/>
      <use xlink:href="#DejaVuSans-72" x="1439.958984"/>
      <use xlink:href="#DejaVuSans-61" x="1481.072266"/>
      <use xlink:href="#DejaVuSans-67" x="1542.351562"/>
      <use xlink:href="#DejaVuSans-65" x="1605.828125"/>
      <use xlink:href="#DejaVuSans-20" x="1667.351562"/>
      <use xlink:href="#DejaVuSans-6f" x="1699.138672"/>
      <use xlink:href="#DejaVuSans-6e" x="1760.320312"/>
      <use xlink:href="#DejaVuSans-20" x="1823.699219"/>
      <use xlink:href="#DejaVuSans-74" x="1855.486328"/>
      <use xlink:href="#DejaVuSans-68" x="1894.695312"/>
      <use xlink:href="#DejaVuSans-65" x="1958.074219"/>
      <use xlink:href="#DejaVuSans-20" x="2019.597656"/>
      <use xlink:href="#DejaVuSans-6c" x="2051.384766"/>
      <use xlink:href="#DejaVuSans-65" x="2079.167969"/>
      <use xlink:href="#DejaVuSans-66" x="2140.691406"/>
      <use xlink:href="#DejaVuSans-74" x="2174.146484"/>
      <use xlink:href="#DejaVuSans-29" x="2213.355469"/>
     </g>
    </g>
   </g>
   <g id="matplotlib.axis_2">
    <g id="ytick_1">
     <g id="line2d_3">
      <defs>
       <path id="mf28ca7fc24" d="M 0 0 
L -3.5 0 
" style="stroke: #000000; stroke-width: 0.8"/>
      </defs>
      <g>
       <use xlink:href="#mf28ca7fc24" x="59.690625" y="278.789601" style="stroke: #000000; stroke-width: 0.8"/>
      </g>
     </g>
     <g id="text_4">
      <!-- 10700 -->
      <g transform="translate(20.878125 282.58882)scale(0.1 -0.1)">
       <defs>
        <path id="DejaVuSans-30" d="M 2034 4250 
Q 1547 4250 1301 3770 
Q 1056 3291 1056 2328 
Q 1056 1369 1301 889 
Q 1547 409 2034 409 
Q 2525 409 2770 889 
Q 3016 1369 3016 2328 
Q 3016 3291 2770 3770 
Q 2525 4250 2034 4250 
z
M 2034 4750 
Q 2819 4750 3233 4129 
Q 3647 3509 3647 2328 
Q 3647 1150 3233 529 
Q 2819 -91 2034 -91 
Q 1250 -91 836 529 
Q 422 1150 422 2328 
Q 422 3509 836 4129 
Q 1250 4750 2034 4750 
z
" transform="scale(0.015625)"/>
        <path id="DejaVuSans-37" d="M 525 4666 
L 3525 4666 
L 3525 4397 
L 1831 0 
L 1172 0 
L 2766 4134 
L 525 4134 
L 525 4666 
z
" transform="scale(0.015625)"/>
       </defs>
       <use xlink:href="#DejaVuSans-31"/>
       <use xlink:href="#DejaVuSans-30" x="63.623047"/>
       <use xlink:href="#DejaVuSans-37" x="127.246094"/>
       <use xlink:href="#DejaVuSans-30" x="190.869141"/>
       <use xlink:href="#DejaVuSans-30" x="254.492188"/>
      </g>
     </g>
    </g>
    <g id="ytick_2">
     <g id="line2d_4">
      <g>
       <use xlink:href="#mf28ca7fc24" x="59.690625" y="241.047866" style="stroke: #000000; stroke-width: 0.8"/>
      </g>
     </g>
     <g id="text_5">
      <!-- 10750 -->
      <g transform="translate(20.878125 244.847084)scale(0.1 -0.1)">
       <defs>
        <path id="DejaVuSans-35" d="M 691 4666 
L 3169 4666 
L 3169 4134 
L 1269 4134 
L 1269 2991 
Q 1406 3038 1543 3061 
Q 1681 3084 1819 3084 
Q 2600 3084 3056 2656 
Q 3513 2228 3513 1497 
Q 3513 744 3044 326 
Q 2575 -91 1722 -91 
Q 1428 -91 1123 -41 
Q 819 9 494 109 
L 494 744 
Q 775 591 1075 516 
Q 1375 441 1709 441 
Q 2250 441 2565 725 
Q 2881 1009 2881 1497 
Q 2881 1984 2565 2268 
Q 2250 2553 1709 2553 
Q 1456 2553 1204 2497 
Q 953 2441 691 2322 
L 691 4666 
z
" transform="scale(0.015625)"/>
       </defs>
       <use xlink:href="#DejaVuSans-31"/>
       <use xlink:href="#DejaVuSans-30" x="63.623047"/>
       <use xlink:href="#DejaVuSans-37" x="127.246094"/>
       <use xlink:href="#DejaVuSans-35" x="190.869141"/>
       <use xlink:href="#DejaVuSans-30" x="254.492188"/>
      </g>
     </g>
    </g>
    <g id="ytick_3">
     <g id="line2d_5">
      <g>
       <use xlink:href="#mf28ca7fc24" x="59.690625" y="203.30613" style="stroke: #000000; stroke-width: 0.8"/>
      </g>
     </g>
     <g id="text_6">
      <!-- 10800 -->
      <g transform="translate(20.878125 207.105348)scale(0.1 -0.1)">
       <defs>
        <path id="DejaVuSans-38" d="M 2034 2216 
Q 1584 2216 1326 1975 
Q 1069 1734 1069 1313 
Q 1069 891 1326 650 
Q 1584 409 2034 409 
Q 2484 409 2743 651 
Q 3003 894 3003 1313 
Q 3003 1734 2745 1975 
Q 2488 2216 2034 2216 
z
M 1403 2484 
Q 997 2584 770 2862 
Q 544 3141 544 3541 
Q 544 4100 942 4425 
Q 1341 4750 2034 4750 
Q 2731 4750 3128 4425 
Q 3525 4100 3525 3541 
Q 3525 3141 3298 2862 
Q 3072 2584 2669 2484 
Q 3125 2378 3379 2068 
Q 3634 1759 3634 1313 
Q 3634 634 3220 271 
Q 2806 -91 2034 -91 
Q 1263 -91 848 271 
Q 434 634 434 1313 
Q 434 1759 690 2068 
Q 947 2378 1403 2484 
z
M 1172 3481 
Q 1172 3119 1398 2916 
Q 1625 2713 2034 2713 
Q 2441 2713 2670 2916 
Q 2900 3119 2900 3481 
Q 2900 3844 2670 4047 
Q 2441 4250 2034 4250 
Q 1625 4250 1398 4047 
Q 1172 3844 1172 3481 
z
" transform="scale(0.015625)"/>
       </defs>
       <use xlink:href="#DejaVuSans-31"/>
       <use xlink:href="#DejaVuSans-30" x="63.623047"/>
       <use xlink:href="#DejaVuSans-38" x="127.246094"/>
       <use xlink:href="#DejaVuSans-30" x="190.869141"/>
       <use xlink:href="#DejaVuSans-30" x="254.492188"/>
      </g>
     </g>
    </g>
    <g id="ytick_4">
     <g id="line2d_6">
      <g>
       <use xlink:href="#mf28ca7fc24" x="59.690625" y="165.564394" style="stroke: #000000; stroke-width: 0.8"/>
      </g>
     </g>
     <g id="text_7">
      <!-- 10850 -->
      <g transform="translate(20.878125 169.363612)scale(0.1 -0.1)">
       <use xlink:href="#DejaVuSans-31"/>
       <use xlink:href="#DejaVuSans-30" x="63.623047"/>
       <use xlink:href="#DejaVuSans-38" x="127.246094"/>
       <use xlink:href="#DejaVuSans-35" x="190.869141"/>
       <use xlink:href="#DejaVuSans-30" x="254.492188"/>
      </g>
     </g>
    </g>
    <g id="ytick_5">
     <g id="line2d_7">
      <g>
       <use xlink:href="#mf28ca7fc24" x="59.690625" y="127.822658" style="stroke: #000000; stroke-width: 0.8"/>
      </g>
     </g>
     <g id="text_8">
      <!-- 10900 -->
      <g transform="translate(20.878125 131.621877)scale(0.1 -0.1)">
       <defs>
        <path id="DejaVuSans-39" d="M 703 97 
L 703 672 
Q 941 559 1184 500 
Q 1428 441 1663 441 
Q 2288 441 2617 861 
Q 2947 1281 2994 2138 
Q 2813 1869 2534 1725 
Q 2256 1581 1919 1581 
Q 1219 1581 811 2004 
Q 403 2428 403 3163 
Q 403 3881 828 4315 
Q 1253 4750 1959 4750 
Q 2769 4750 3195 4129 
Q 3622 3509 3622 2328 
Q 3622 1225 3098 567 
Q 2575 -91 1691 -91 
Q 1453 -91 1209 -44 
Q 966 3 703 97 
z
M 1959 2075 
Q 2384 2075 2632 2365 
Q 2881 2656 2881 3163 
Q 2881 3666 2632 3958 
Q 2384 4250 1959 4250 
Q 1534 4250 1286 3958 
Q 1038 3666 1038 3163 
Q 1038 2656 1286 2365 
Q 1534 2075 1959 2075 
z
" transform="scale(0.015625)"/>
       </defs>
       <use xlink:href="#DejaVuSans-31"/>
       <use xlink:href="#DejaVuSans-30" x="63.623047"/>
       <use xlink:href="#DejaVuSans-39" x="127.246094"/>
       <use xlink:href="#DejaVuSans-30" x="190.869141"/>
       <use xlink:href="#DejaVuSans-30" x="254.492188"/>
      </g>
     </g>
    </g>
    <g id="ytick_6">
     <g id="line2d_8">
      <g>
       <use xlink:href="#mf28ca7fc24" x="59.690625" y="90.080922" style="stroke: #000000; stroke-width: 0.8"/>
      </g>
     </g>
     <g id="text_9">
      <!-- 10950 -->
      <g transform="translate(20.878125 93.880141)scale(0.1 -0.1)">
       <use xlink:href="#DejaVuSans-31"/>
       <use xlink:href="#DejaVuSans-30" x="63.623047"/>
       <use xlink:href="#DejaVuSans-39" x="127.246094"/>
       <use xlink:href="#DejaVuSans-35" x="190.869141"/>
       <use xlink:href="#DejaVuSans-30" x="254.492188"/>
      </g>
     </g>
    </g>
    <g id="ytick_7">
     <g id="line2d_9">
      <g>
       <use xlink:href="#mf28ca7fc24" x="59.690625" y="52.339186" style="stroke: #000000; stroke-width: 0.8"/>
      </g>
     </g>
     <g id="text_10">
      <!-- 11000 -->
      <g transform="translate(20.878125 56.138405)scale(0.1 -0.1)">
       <use xlink:href="#DejaVuSans-31"/>
       <use xlink:href="#DejaVuSans-31" x="63.623047"/>
       <use xlink:href="#DejaVuSans-30" x="127.246094"/>
       <use xlink:href="#DejaVuSans-30" x="190.869141"/>
       <use xlink:href="#DejaVuSans-30" x="254.492188"/>
      </g>
     </g>
    </g>
    <g id="text_11">
     <!-- Reached region coverage -->
     <g transform="translate(14.798438 219.136625)rotate(-90)scale(0.1 -0.1)">
      <defs>
       <path id="DejaVuSans-52" d="M 2841 2188 
Q 3044 2119 3236 1894 
Q 3428 1669 3622 1275 
L 4263 0 
L 3584 0 
L 2988 1197 
Q 2756 1666 2539 1819 
Q 2322 1972 1947 1972 
L 1259 1972 
L 1259 0 
L 628 0 
L 628 4666 
L 2053 4666 
Q 2853 4666 3247 4331 
Q 3641 3997 3641 3322 
Q 3641 2881 3436 2590 
Q 3231 2300 2841 2188 
z
M 1259 4147 
L 1259 2491 
L 2053 2491 
Q 2509 2491 2742 2702 
Q 2975 2913 2975 3322 
Q 2975 3731 2742 3939 
Q 2509 4147 2053 4147 
L 1259 4147 
z
" transform="scale(0.015625)"/>
      </defs>
      <use xlink:href="#DejaVuSans-52"/>
      <use xlink:href="#DejaVuSans-65" x="64.982422"/>
      <use xlink:href="#DejaVuSans-61" x="126.505859"/>
      <use xlink:href="#DejaVuSans-63" x="187.785156"/>
      <use xlink:href="#DejaVuSans-68" x="242.765625"/>
      <use xlink:href="#DejaVuSans-65" x="306.144531"/>
      <use xlink:href="#DejaVuSans-64" x="367.667969"/>
      <use xlink:href="#DejaVuSans-20" x="431.144531"/>
      <use xlink:href="#DejaVuSans-72" x="462.931641"/>
      <use xlink:href="#DejaVuSans-65" x="501.794922"/>
      <use xlink:href="#DejaVuSans-67" x="563.318359"/>
      <use xlink:href="#DejaVuSans-69" x="626.794922"/>
      <use xlink:href="#DejaVuSans-6f" x="654.578125"/>
      <use xlink:href="#DejaVuSans-6e" x="715.759766"/>
      <use xlink:href="#DejaVuSans-20" x="779.138672"/>
      <use xlink:href="#DejaVuSans-63" x="810.925781"/>
      <use xlink:href="#DejaVuSans-6f" x="865.90625"/>
      <use xlink:href="#DejaVuSans-76" x="927.087891"/>
      <use xlink:href="#DejaVuSans-65" x="986.267578"/>
      <use xlink:href="#DejaVuSans-72" x="1047.791016"/>
      <use xlink:href="#DejaVuSans-61" x="1088.904297"/>
      <use xlink:href="#DejaVuSans-67" x="1150.183594"/>
      <use xlink:href="#DejaVuSans-65" x="1213.660156"/>
     </g>
    </g>
   </g>
   <g id="line2d_10">
    <path d="M 148.970625 167.828898 
L 148.970625 122.538815 
" clip-path="url(#p2b31bc4fc9)" style="fill: none; stroke: #3d3d3d; stroke-width: 1.5; stroke-linecap: square"/>
   </g>
   <g id="line2d_11">
    <path d="M 148.970625 158.016047 
L 148.970625 135.371005 
" clip-path="url(#p2b31bc4fc9)" style="fill: none; stroke: #3d3d3d; stroke-width: 4.5; stroke-linecap: square"/>
   </g>
   <g id="line2d_12">
    <path d="M 327.530625 201.79646 
L 327.530625 108.95179 
" clip-path="url(#p2b31bc4fc9)" style="fill: none; stroke: #3d3d3d; stroke-width: 1.5; stroke-linecap: square"/>
   </g>
   <g id="line2d_13">
    <path d="M 327.530625 178.019167 
L 327.530625 131.596831 
" clip-path="url(#p2b31bc4fc9)" style="fill: none; stroke: #3d3d3d; stroke-width: 4.5; stroke-linecap: square"/>
   </g>
   <g id="patch_3">
    <path d="M 59.690625 278.789601 
L 59.690625 52.339186 
" style="fill: none; stroke: #000000; stroke-width: 0.8; stroke-linejoin: miter; stroke-linecap: square"/>
   </g>
   <g id="patch_4">
    <path d="M 148.970625 288.430125 
L 327.530625 288.430125 
" style="fill: none; stroke: #000000; stroke-width: 0.8; stroke-linejoin: miter; stroke-linecap: square"/>
   </g>
   <g id="PathCollection_1">
    <defs>
     <path id="m9247165513" d="M 0 1.5 
C 0.397805 1.5 0.77937 1.341951 1.06066 1.06066 
C 1.341951 0.77937 1.5 0.397805 1.5 0 
C 1.5 -0.397805 1.341951 -0.77937 1.06066 -1.06066 
C 0.77937 -1.341951 0.397805 -1.5 0 -1.5 
C -0.397805 -1.5 -0.77937 -1.341951 -1.06066 -1.06066 
C -1.341951 -0.77937 -1.5 -0.397805 -1.5 0 
C -1.5 0.397805 -1.341951 0.77937 -1.06066 1.06066 
C -0.77937 1.341951 -0.397805 1.5 0 1.5 
z
" style="stroke: #3d3d3d"/>
    </defs>
    <g clip-path="url(#p2b31bc4fc9)">
     <use xlink:href="#m9247165513" x="148.970625" y="148.203195" style="fill: #ffffff; stroke: #3d3d3d"/>
    </g>
   </g>
   <g id="PathCollection_2">
    <g clip-path="url(#p2b31bc4fc9)">
     <use xlink:href="#m9247165513" x="327.530625" y="154.241873" style="fill: #ffffff; stroke: #3d3d3d"/>
    </g>
   </g>
   <g id="text_12">
    <!-- harfbuzz-1.3.2 (4h:30m, 3 trials/fuzzer) -->
    <g transform="translate(120.256875 16.318125)scale(0.12 -0.12)">
     <defs>
      <path id="DejaVuSans-2d" d="M 313 2009 
L 1997 2009 
L 1997 1497 
L 313 1497 
L 313 2009 
z
" transform="scale(0.015625)"/>
      <path id="DejaVuSans-2e" d="M 684 794 
L 1344 794 
L 1344 0 
L 684 0 
L 684 794 
z
" transform="scale(0.015625)"/>
      <path id="DejaVuSans-33" d="M 2597 2516 
Q 3050 2419 3304 2112 
Q 3559 1806 3559 1356 
Q 3559 666 3084 287 
Q 2609 -91 1734 -91 
Q 1441 -91 1130 -33 
Q 819 25 488 141 
L 488 750 
Q 750 597 1062 519 
Q 1375 441 1716 441 
Q 2309 441 2620 675 
Q 2931 909 2931 1356 
Q 2931 1769 2642 2001 
Q 2353 2234 1838 2234 
L 1294 2234 
L 1294 2753 
L 1863 2753 
Q 2328 2753 2575 2939 
Q 2822 3125 2822 3475 
Q 2822 3834 2567 4026 
Q 2313 4219 1838 4219 
Q 1578 4219 1281 4162 
Q 984 4106 628 3988 
L 628 4550 
Q 988 4650 1302 4700 
Q 1616 4750 1894 4750 
Q 2613 4750 3031 4423 
Q 3450 4097 3450 3541 
Q 3450 3153 3228 2886 
Q 3006 2619 2597 2516 
z
" transform="scale(0.015625)"/>
      <path id="DejaVuSans-32" d="M 1228 531 
L 3431 531 
L 3431 0 
L 469 0 
L 469 531 
Q 828 903 1448 1529 
Q 2069 2156 2228 2338 
Q 2531 2678 2651 2914 
Q 2772 3150 2772 3378 
Q 2772 3750 2511 3984 
Q 2250 4219 1831 4219 
Q 1534 4219 1204 4116 
Q 875 4013 500 3803 
L 500 4441 
Q 881 4594 1212 4672 
Q 1544 4750 1819 4750 
Q 2544 4750 2975 4387 
Q 3406 4025 3406 3419 
Q 3406 3131 3298 2873 
Q 3191 2616 2906 2266 
Q 2828 2175 2409 1742 
Q 1991 1309 1228 531 
z
" transform="scale(0.015625)"/>
      <path id="DejaVuSans-34" d="M 2419 4116 
L 825 1625 
L 2419 1625 
L 2419 4116 
z
M 2253 4666 
L 3047 4666 
L 3047 1625 
L 3713 1625 
L 3713 1100 
L 3047 1100 
L 3047 0 
L 2419 0 
L 2419 1100 
L 313 1100 
L 313 1709 
L 2253 4666 
z
" transform="scale(0.015625)"/>
      <path id="DejaVuSans-3a" d="M 750 794 
L 1409 794 
L 1409 0 
L 750 0 
L 750 794 
z
M 750 3309 
L 1409 3309 
L 1409 2516 
L 750 2516 
L 750 3309 
z
" transform="scale(0.015625)"/>
      <path id="DejaVuSans-2c" d="M 750 794 
L 1409 794 
L 1409 256 
L 897 -744 
L 494 -744 
L 750 256 
L 750 794 
z
" transform="scale(0.015625)"/>
      <path id="DejaVuSans-2f" d="M 1625 4666 
L 2156 4666 
L 531 -594 
L 0 -594 
L 1625 4666 
z
" transform="scale(0.015625)"/>
     </defs>
     <use xlink:href="#DejaVuSans-68"/>
     <use xlink:href="#DejaVuSans-61" x="63.378906"/>
     <use xlink:href="#DejaVuSans-72" x="124.658203"/>
     <use xlink:href="#DejaVuSans-66" x="165.771484"/>
     <use xlink:href="#DejaVuSans-62" x="200.976562"/>
     <use xlink:href="#DejaVuSans-75" x="264.453125"/>
     <use xlink:href="#DejaVuSans-7a" x="327.832031"/>
     <use xlink:href="#DejaVuSans-7a" x="380.322266"/>
     <use xlink:href="#DejaVuSans-2d" x="432.8125"/>
     <use xlink:href="#DejaVuSans-31" x="468.896484"/>
     <use xlink:href="#DejaVuSans-2e" x="532.519531"/>
     <use xlink:href="#DejaVuSans-33" x="564.306641"/>
     <use xlink:href="#DejaVuSans-2e" x="627.929688"/>
     <use xlink:href="#DejaVuSans-32" x="659.716797"/>
     <use xlink:href="#DejaVuSans-20" x="723.339844"/>
     <use xlink:href="#DejaVuSans-28" x="755.126953"/>
     <use xlink:href="#DejaVuSans-34" x="794.140625"/>
     <use xlink:href="#DejaVuSans-68" x="857.763672"/>
     <use xlink:href="#DejaVuSans-3a" x="921.142578"/>
     <use xlink:href="#DejaVuSans-33" x="954.833984"/>
     <use xlink:href="#DejaVuSans-30" x="1018.457031"/>
     <use xlink:href="#DejaVuSans-6d" x="1082.080078"/>
     <use xlink:href="#DejaVuSans-2c" x="1179.492188"/>
     <use xlink:href="#DejaVuSans-20" x="1211.279297"/>
     <use xlink:href="#DejaVuSans-33" x="1243.066406"/>
     <use xlink:href="#DejaVuSans-20" x="1306.689453"/>
     <use xlink:href="#DejaVuSans-74" x="1338.476562"/>
     <use xlink:href="#DejaVuSans-72" x="1377.685547"/>
     <use xlink:href="#DejaVuSans-69" x="1418.798828"/>
     <use xlink:href="#DejaVuSans-61" x="1446.582031"/>
     <use xlink:href="#DejaVuSans-6c" x="1507.861328"/>
     <use xlink:href="#DejaVuSans-73" x="1535.644531"/>
     <use xlink:href="#DejaVuSans-2f" x="1587.744141"/>
     <use xlink:href="#DejaVuSans-66" x="1621.435547"/>
     <use xlink:href="#DejaVuSans-75" x="1656.640625"/>
     <use xlink:href="#DejaVuSans-7a" x="1720.019531"/>
     <use xlink:href="#DejaVuSans-7a" x="1772.509766"/>
     <use xlink:href="#DejaVuSans-65" x="1825"/>
     <use xlink:href="#DejaVuSans-72" x="1886.523438"/>
     <use xlink:href="#DejaVuSans-29" x="1927.636719"/>
    </g>
   </g>
  </g>
 </g>
 <defs>
  <clipPath id="p2b31bc4fc9">
   <rect x="59.690625" y="22.318125" width="357.12" height="266.112"/>
  </clipPath>
 </defs>
</svg>
