<?xml version="1.0" encoding="utf-8" standalone="no"?>
<!DOCTYPE svg PUBLIC "-//W3C//DTD SVG 1.1//EN"
  "http://www.w3.org/Graphics/SVG/1.1/DTD/svg11.dtd">
<svg xmlns:xlink="http://www.w3.org/1999/xlink" width="427.611517pt" height="393.011865pt" viewBox="0 0 427.611517 393.011865" xmlns="http://www.w3.org/2000/svg" version="1.1">
 <metadata>
  <rdf:RDF xmlns:dc="http://purl.org/dc/elements/1.1/" xmlns:cc="http://creativecommons.org/ns#" xmlns:rdf="http://www.w3.org/1999/02/22-rdf-syntax-ns#">
   <cc:Work>
    <dc:type rdf:resource="http://purl.org/dc/dcmitype/StillImage"/>
    <dc:date>2022-06-05T16:10:36.820250</dc:date>
    <dc:format>image/svg+xml</dc:format>
    <dc:creator>
     <cc:Agent>
      <dc:title>Matplotlib v3.5.1, https://matplotlib.org/</dc:title>
     </cc:Agent>
    </dc:creator>
   </cc:Work>
  </rdf:RDF>
 </metadata>
 <defs>
  <style type="text/css">*{stroke-linejoin: round; stroke-linecap: butt}</style>
 </defs>
 <g id="figure_1">
  <g id="patch_1">
   <path d="M 0 393.011865 
L 427.611517 393.011865 
L 427.611517 -0 
L 0 -0 
z
" style="fill: #ffffff"/>
  </g>
  <g id="axes_1">
   <g id="patch_2">
    <path d="M 63.291517 288.430125 
L 420.411517 288.430125 
L 420.411517 22.318125 
L 63.291517 22.318125 
z
" style="fill: #ffffff"/>
   </g>
   <g id="PolyCollection_1">
    <defs>
     <path id="m7bf4e146d6" d="M 126.388878 -237.439198 
L 119.234156 -237.439198 
L 118.721498 -238.663022 
L 118.15381 -239.886846 
L 117.528142 -241.110669 
L 116.841826 -242.334493 
L 116.092551 -243.558317 
L 115.278433 -244.78214 
L 114.398091 -246.005964 
L 113.450713 -247.229788 
L 112.436124 -248.453611 
L 111.354843 -249.677435 
L 110.208134 -250.901259 
L 108.998045 -252.125082 
L 107.72744 -253.348906 
L 106.400007 -254.57273 
L 105.020266 -255.796553 
L 103.593549 -257.020377 
L 102.125969 -258.244201 
L 100.624374 -259.468024 
L 99.09628 -260.691848 
L 97.549796 -261.915672 
L 95.993527 -263.139495 
L 94.436472 -264.363319 
L 92.887901 -265.587142 
L 91.357236 -266.810966 
L 89.853916 -268.03479 
L 88.38726 -269.258613 
L 86.966337 -270.482437 
L 85.599825 -271.706261 
L 84.29589 -272.930084 
L 83.062062 -274.153908 
L 81.905126 -275.377732 
L 80.831027 -276.601555 
L 79.84479 -277.825379 
L 78.950455 -279.049203 
L 78.151035 -280.273026 
L 77.448492 -281.49685 
L 76.843735 -282.720674 
L 76.336634 -283.944497 
L 75.926064 -285.168321 
L 75.609962 -286.392145 
L 75.385404 -287.615968 
L 75.248704 -288.839792 
L 75.195517 -290.063616 
L 75.220971 -291.287439 
L 75.319791 -292.511263 
L 75.486444 -293.735087 
L 75.715273 -294.95891 
L 76.000645 -296.182734 
L 76.337082 -297.406558 
L 76.719389 -298.630381 
L 77.142771 -299.854205 
L 77.602929 -301.078029 
L 78.096148 -302.301852 
L 78.619354 -303.525676 
L 79.170154 -304.7495 
L 79.74685 -305.973323 
L 80.348436 -307.197147 
L 80.974556 -308.42097 
L 81.625457 -309.644794 
L 82.301911 -310.868618 
L 83.005119 -312.092441 
L 83.736604 -313.316265 
L 84.498089 -314.540089 
L 85.291372 -315.763912 
L 86.118198 -316.987736 
L 86.980124 -318.21156 
L 87.878408 -319.435383 
L 88.813888 -320.659207 
L 89.786894 -321.883031 
L 90.797163 -323.106854 
L 91.843784 -324.330678 
L 92.925158 -325.554502 
L 94.038987 -326.778325 
L 95.18228 -328.002149 
L 96.351386 -329.225973 
L 97.542043 -330.449796 
L 98.749453 -331.67362 
L 99.968367 -332.897444 
L 101.193183 -334.121267 
L 102.418054 -335.345091 
L 103.637006 -336.568915 
L 104.844051 -337.792738 
L 106.033301 -339.016562 
L 107.199077 -340.240386 
L 108.336012 -341.464209 
L 109.439134 -342.688033 
L 110.503951 -343.911857 
L 111.526505 -345.13568 
L 112.503425 -346.359504 
L 113.431954 -347.583328 
L 114.309965 -348.807151 
L 115.135962 -350.030975 
L 115.909066 -351.254798 
L 116.628989 -352.478622 
L 117.295998 -353.702446 
L 117.910868 -354.926269 
L 118.474829 -356.150093 
L 118.989511 -357.373917 
L 119.456883 -358.59774 
L 126.166151 -358.59774 
L 126.166151 -358.59774 
L 126.633523 -357.373917 
L 127.148206 -356.150093 
L 127.712167 -354.926269 
L 128.327036 -353.702446 
L 128.994045 -352.478622 
L 129.713968 -351.254798 
L 130.487073 -350.030975 
L 131.31307 -348.807151 
L 132.19108 -347.583328 
L 133.119609 -346.359504 
L 134.096529 -345.13568 
L 135.119083 -343.911857 
L 136.1839 -342.688033 
L 137.287022 -341.464209 
L 138.423957 -340.240386 
L 139.589734 -339.016562 
L 140.778984 -337.792738 
L 141.986028 -336.568915 
L 143.204981 -335.345091 
L 144.429852 -334.121267 
L 145.654667 -332.897444 
L 146.873581 -331.67362 
L 148.080992 -330.449796 
L 149.271649 -329.225973 
L 150.440754 -328.002149 
L 151.584047 -326.778325 
L 152.697876 -325.554502 
L 153.779251 -324.330678 
L 154.825871 -323.106854 
L 155.836141 -321.883031 
L 156.809146 -320.659207 
L 157.744627 -319.435383 
L 158.64291 -318.21156 
L 159.504837 -316.987736 
L 160.331662 -315.763912 
L 161.124946 -314.540089 
L 161.886431 -313.316265 
L 162.617915 -312.092441 
L 163.321123 -310.868618 
L 163.997577 -309.644794 
L 164.648479 -308.42097 
L 165.274599 -307.197147 
L 165.876184 -305.973323 
L 166.452881 -304.7495 
L 167.00368 -303.525676 
L 167.526886 -302.301852 
L 168.020105 -301.078029 
L 168.480264 -299.854205 
L 168.903645 -298.630381 
L 169.285952 -297.406558 
L 169.622389 -296.182734 
L 169.907761 -294.95891 
L 170.136591 -293.735087 
L 170.303243 -292.511263 
L 170.402063 -291.287439 
L 170.427517 -290.063616 
L 170.374331 -288.839792 
L 170.23763 -287.615968 
L 170.013073 -286.392145 
L 169.69697 -285.168321 
L 169.286401 -283.944497 
L 168.779299 -282.720674 
L 168.174542 -281.49685 
L 167.471999 -280.273026 
L 166.67258 -279.049203 
L 165.778245 -277.825379 
L 164.792007 -276.601555 
L 163.717909 -275.377732 
L 162.560973 -274.153908 
L 161.327144 -272.930084 
L 160.02321 -271.706261 
L 158.656698 -270.482437 
L 157.235774 -269.258613 
L 155.769118 -268.03479 
L 154.265798 -266.810966 
L 152.735133 -265.587142 
L 151.186563 -264.363319 
L 149.629507 -263.139495 
L 148.073239 -261.915672 
L 146.526754 -260.691848 
L 144.99866 -259.468024 
L 143.497065 -258.244201 
L 142.029485 -257.020377 
L 140.602768 -255.796553 
L 139.223027 -254.57273 
L 137.895595 -253.348906 
L 136.624989 -252.125082 
L 135.4149 -250.901259 
L 134.268191 -249.677435 
L 133.18691 -248.453611 
L 132.172321 -247.229788 
L 131.224944 -246.005964 
L 130.344602 -244.78214 
L 129.530484 -243.558317 
L 128.781208 -242.334493 
L 128.094893 -241.110669 
L 127.469224 -239.886846 
L 126.901537 -238.663022 
L 126.388878 -237.439198 
z
" style="stroke: #3d3d3d; stroke-width: 1.5"/>
    </defs>
    <g clip-path="url(#p29d5a63ef7)">
     <use xlink:href="#m7bf4e146d6" x="0" y="393.011865" style="fill: #d684bd; stroke: #3d3d3d; stroke-width: 1.5"/>
    </g>
   </g>
   <g id="PolyCollection_2">
    <defs>
     <path id="m15ad4ec7fa" d="M 244.050934 -116.67774 
L 239.6521 -116.67774 
L 239.357283 -118.470007 
L 239.034203 -120.262274 
L 238.68191 -122.054541 
L 238.299685 -123.846808 
L 237.88708 -125.639075 
L 237.443955 -127.431343 
L 236.970504 -129.22361 
L 236.467286 -131.015877 
L 235.935241 -132.808144 
L 235.375711 -134.600411 
L 234.790435 -136.392678 
L 234.181553 -138.184945 
L 233.551588 -139.977212 
L 232.903419 -141.769479 
L 232.240245 -143.561746 
L 231.565541 -145.354013 
L 230.882993 -147.14628 
L 230.196435 -148.938547 
L 229.509769 -150.730814 
L 228.826883 -152.523081 
L 228.151559 -154.315348 
L 227.487386 -156.107615 
L 226.83766 -157.899882 
L 226.205306 -159.692149 
L 225.592783 -161.484416 
L 225.002016 -163.276683 
L 224.434332 -165.06895 
L 223.890406 -166.861217 
L 223.370234 -168.653484 
L 222.873117 -170.445751 
L 222.397665 -172.238018 
L 221.941827 -174.030285 
L 221.502944 -175.822552 
L 221.07781 -177.614819 
L 220.662775 -179.407086 
L 220.253844 -181.199353 
L 219.846809 -182.99162 
L 219.437389 -184.783887 
L 219.02137 -186.576154 
L 218.594768 -188.368421 
L 218.153978 -190.160688 
L 217.695923 -191.952955 
L 217.2182 -193.745222 
L 216.719206 -195.537489 
L 216.198248 -197.329756 
L 215.655634 -199.122023 
L 215.092735 -200.91429 
L 214.512023 -202.706557 
L 213.917074 -204.498824 
L 213.312549 -206.291091 
L 212.704132 -208.083358 
L 212.098449 -209.875625 
L 211.502948 -211.667892 
L 210.925767 -213.460159 
L 210.37556 -215.252426 
L 209.861326 -217.044693 
L 209.392209 -218.83696 
L 208.977293 -220.629227 
L 208.625404 -222.421494 
L 208.344897 -224.213761 
L 208.143471 -226.006028 
L 208.027984 -227.798295 
L 208.004289 -229.590562 
L 208.077099 -231.382829 
L 208.249873 -233.175096 
L 208.524731 -234.967363 
L 208.902404 -236.75963 
L 209.382212 -238.551897 
L 209.96208 -240.344164 
L 210.638575 -242.136431 
L 211.406985 -243.928698 
L 212.261413 -245.720965 
L 213.194904 -247.513232 
L 214.199586 -249.305499 
L 215.26683 -251.097766 
L 216.387413 -252.890033 
L 217.551704 -254.6823 
L 218.749829 -256.474567 
L 219.971853 -258.266834 
L 221.207947 -260.059101 
L 222.448539 -261.851368 
L 223.684463 -263.643636 
L 224.907083 -265.435903 
L 226.108399 -267.22817 
L 227.281137 -269.020437 
L 228.418819 -270.812704 
L 229.515804 -272.604971 
L 230.567321 -274.397238 
L 231.569472 -276.189505 
L 232.519224 -277.981772 
L 233.414383 -279.774039 
L 234.253552 -281.566306 
L 235.036082 -283.358573 
L 235.76201 -285.15084 
L 236.431986 -286.943107 
L 237.047209 -288.735374 
L 237.609344 -290.527641 
L 238.120448 -292.319908 
L 238.582895 -294.112175 
L 245.120139 -294.112175 
L 245.120139 -294.112175 
L 245.582587 -292.319908 
L 246.09369 -290.527641 
L 246.655825 -288.735374 
L 247.271048 -286.943107 
L 247.941025 -285.15084 
L 248.666952 -283.358573 
L 249.449482 -281.566306 
L 250.288652 -279.774039 
L 251.18381 -277.981772 
L 252.133562 -276.189505 
L 253.135713 -274.397238 
L 254.18723 -272.604971 
L 255.284215 -270.812704 
L 256.421897 -269.020437 
L 257.594636 -267.22817 
L 258.795951 -265.435903 
L 260.018571 -263.643636 
L 261.254495 -261.851368 
L 262.495088 -260.059101 
L 263.731181 -258.266834 
L 264.953206 -256.474567 
L 266.151331 -254.6823 
L 267.315621 -252.890033 
L 268.436205 -251.097766 
L 269.503448 -249.305499 
L 270.50813 -247.513232 
L 271.441622 -245.720965 
L 272.296049 -243.928698 
L 273.064459 -242.136431 
L 273.740954 -240.344164 
L 274.320822 -238.551897 
L 274.800631 -236.75963 
L 275.178304 -234.967363 
L 275.453161 -233.175096 
L 275.625935 -231.382829 
L 275.698745 -229.590562 
L 275.67505 -227.798295 
L 275.559563 -226.006028 
L 275.358137 -224.213761 
L 275.077631 -222.421494 
L 274.725741 -220.629227 
L 274.310826 -218.83696 
L 273.841708 -217.044693 
L 273.327474 -215.252426 
L 272.777268 -213.460159 
L 272.200086 -211.667892 
L 271.604586 -209.875625 
L 270.998902 -208.083358 
L 270.390485 -206.291091 
L 269.78596 -204.498824 
L 269.191011 -202.706557 
L 268.610299 -200.91429 
L 268.0474 -199.122023 
L 267.504786 -197.329756 
L 266.983829 -195.537489 
L 266.484834 -193.745222 
L 266.007112 -191.952955 
L 265.549057 -190.160688 
L 265.108266 -188.368421 
L 264.681664 -186.576154 
L 264.265646 -184.783887 
L 263.856225 -182.99162 
L 263.449191 -181.199353 
L 263.04026 -179.407086 
L 262.625224 -177.614819 
L 262.200091 -175.822552 
L 261.761207 -174.030285 
L 261.30537 -172.238018 
L 260.829918 -170.445751 
L 260.3328 -168.653484 
L 259.812629 -166.861217 
L 259.268703 -165.06895 
L 258.701018 -163.276683 
L 258.110252 -161.484416 
L 257.497729 -159.692149 
L 256.865374 -157.899882 
L 256.215649 -156.107615 
L 255.551475 -154.315348 
L 254.876151 -152.523081 
L 254.193265 -150.730814 
L 253.506599 -148.938547 
L 252.820041 -147.14628 
L 252.137494 -145.354013 
L 251.462789 -143.561746 
L 250.799616 -141.769479 
L 250.151446 -139.977212 
L 249.521481 -138.184945 
L 248.912599 -136.392678 
L 248.327324 -134.600411 
L 247.767793 -132.808144 
L 247.235749 -131.015877 
L 246.73253 -129.22361 
L 246.259079 -127.431343 
L 245.815954 -125.639075 
L 245.40335 -123.846808 
L 245.021124 -122.054541 
L 244.668831 -120.262274 
L 244.345752 -118.470007 
L 244.050934 -116.67774 
z
" style="stroke: #3d3d3d; stroke-width: 1.5"/>
    </defs>
    <g clip-path="url(#p29d5a63ef7)">
     <use xlink:href="#m15ad4ec7fa" x="0" y="393.011865" style="fill: #d1d197; stroke: #3d3d3d; stroke-width: 1.5"/>
    </g>
   </g>
   <g id="PolyCollection_3">
    <defs>
     <path id="m6a64db6c17" d="M 363.389122 -138.852752 
L 358.393912 -138.852752 
L 358.032757 -140.851952 
L 357.632167 -142.851153 
L 357.189939 -144.850354 
L 356.704078 -146.849554 
L 356.172855 -148.848755 
L 355.594865 -150.847956 
L 354.96909 -152.847157 
L 354.294962 -154.846357 
L 353.572415 -156.845558 
L 352.801949 -158.844759 
L 351.984669 -160.843959 
L 351.122333 -162.84316 
L 350.21738 -164.842361 
L 349.272953 -166.841561 
L 348.292905 -168.840762 
L 347.281796 -170.839963 
L 346.244869 -172.839164 
L 345.188015 -174.838364 
L 344.11772 -176.837565 
L 343.040998 -178.836766 
L 341.965301 -180.835966 
L 340.898428 -182.835167 
L 339.848408 -184.834368 
L 338.823379 -186.833569 
L 337.831455 -188.832769 
L 336.880591 -190.83197 
L 335.978446 -192.831171 
L 335.132236 -194.830371 
L 334.348607 -196.829572 
L 333.633506 -198.828773 
L 332.992062 -200.827974 
L 332.428493 -202.827174 
L 331.946014 -204.826375 
L 331.546781 -206.825576 
L 331.231848 -208.824776 
L 331.001153 -210.823977 
L 330.853525 -212.823178 
L 330.786721 -214.822379 
L 330.797483 -216.821579 
L 330.881623 -218.82078 
L 331.034125 -220.819981 
L 331.249273 -222.819181 
L 331.520783 -224.818382 
L 331.841963 -226.817583 
L 332.205864 -228.816784 
L 332.605449 -230.815984 
L 333.033753 -232.815185 
L 333.484038 -234.814386 
L 333.94994 -236.813586 
L 334.425605 -238.812787 
L 334.9058 -240.811988 
L 335.386012 -242.811188 
L 335.862519 -244.810389 
L 336.332435 -246.80959 
L 336.793736 -248.808791 
L 337.245258 -250.807991 
L 337.686663 -252.807192 
L 338.118393 -254.806393 
L 338.541598 -256.805593 
L 338.958041 -258.804794 
L 339.369996 -260.803995 
L 339.780131 -262.803196 
L 340.191382 -264.802396 
L 340.606828 -266.801597 
L 341.02956 -268.800798 
L 341.462566 -270.799998 
L 341.908611 -272.799199 
L 342.37014 -274.7984 
L 342.849187 -276.797601 
L 343.347307 -278.796801 
L 343.865519 -280.796002 
L 344.404276 -282.795203 
L 344.963447 -284.794403 
L 345.54232 -286.793604 
L 346.139623 -288.792805 
L 346.753562 -290.792006 
L 347.381871 -292.791206 
L 348.021873 -294.790407 
L 348.670552 -296.789608 
L 349.324631 -298.788808 
L 349.980657 -300.788009 
L 350.635077 -302.78721 
L 351.284325 -304.786411 
L 351.924894 -306.785611 
L 352.553413 -308.784812 
L 353.166706 -310.784013 
L 353.761851 -312.783213 
L 354.336223 -314.782414 
L 354.887528 -316.781615 
L 355.413831 -318.780815 
L 355.913569 -320.780016 
L 356.385556 -322.779217 
L 356.828975 -324.778418 
L 357.243373 -326.777618 
L 357.628635 -328.776819 
L 357.984962 -330.77602 
L 358.312841 -332.77522 
L 358.613011 -334.774421 
L 358.886429 -336.773622 
L 362.896605 -336.773622 
L 362.896605 -336.773622 
L 363.170023 -334.774421 
L 363.470193 -332.77522 
L 363.798072 -330.77602 
L 364.154399 -328.776819 
L 364.539661 -326.777618 
L 364.954059 -324.778418 
L 365.397479 -322.779217 
L 365.869465 -320.780016 
L 366.369203 -318.780815 
L 366.895507 -316.781615 
L 367.446812 -314.782414 
L 368.021183 -312.783213 
L 368.616328 -310.784013 
L 369.229622 -308.784812 
L 369.858141 -306.785611 
L 370.49871 -304.786411 
L 371.147957 -302.78721 
L 371.802377 -300.788009 
L 372.458403 -298.788808 
L 373.112483 -296.789608 
L 373.761161 -294.790407 
L 374.401163 -292.791206 
L 375.029472 -290.792006 
L 375.643411 -288.792805 
L 376.240715 -286.793604 
L 376.819588 -284.794403 
L 377.378758 -282.795203 
L 377.917515 -280.796002 
L 378.435728 -278.796801 
L 378.933847 -276.797601 
L 379.412894 -274.7984 
L 379.874423 -272.799199 
L 380.320469 -270.799998 
L 380.753474 -268.800798 
L 381.176207 -266.801597 
L 381.591652 -264.802396 
L 382.002903 -262.803196 
L 382.413038 -260.803995 
L 382.824994 -258.804794 
L 383.241437 -256.805593 
L 383.664641 -254.806393 
L 384.096372 -252.807192 
L 384.537777 -250.807991 
L 384.989298 -248.808791 
L 385.4506 -246.80959 
L 385.920516 -244.810389 
L 386.397022 -242.811188 
L 386.877234 -240.811988 
L 387.35743 -238.812787 
L 387.833094 -236.813586 
L 388.298996 -234.814386 
L 388.749281 -232.815185 
L 389.177585 -230.815984 
L 389.57717 -228.816784 
L 389.941072 -226.817583 
L 390.262251 -224.818382 
L 390.533762 -222.819181 
L 390.748909 -220.819981 
L 390.901412 -218.82078 
L 390.985551 -216.821579 
L 390.996314 -214.822379 
L 390.929509 -212.823178 
L 390.781882 -210.823977 
L 390.551187 -208.824776 
L 390.236254 -206.825576 
L 389.837021 -204.826375 
L 389.354542 -202.827174 
L 388.790972 -200.827974 
L 388.149529 -198.828773 
L 387.434427 -196.829572 
L 386.650799 -194.830371 
L 385.804589 -192.831171 
L 384.902443 -190.83197 
L 383.95158 -188.832769 
L 382.959656 -186.833569 
L 381.934626 -184.834368 
L 380.884606 -182.835167 
L 379.817733 -180.835966 
L 378.742037 -178.836766 
L 377.665314 -176.837565 
L 376.59502 -174.838364 
L 375.538165 -172.839164 
L 374.501238 -170.839963 
L 373.490129 -168.840762 
L 372.510081 -166.841561 
L 371.565654 -164.842361 
L 370.660701 -162.84316 
L 369.798365 -160.843959 
L 368.981085 -158.844759 
L 368.210619 -156.845558 
L 367.488073 -154.846357 
L 366.813944 -152.847157 
L 366.18817 -150.847956 
L 365.610179 -148.848755 
L 365.078956 -146.849554 
L 364.593096 -144.850354 
L 364.150868 -142.851153 
L 363.750277 -140.851952 
L 363.389122 -138.852752 
z
" style="stroke: #3d3d3d; stroke-width: 1.5"/>
    </defs>
    <g clip-path="url(#p29d5a63ef7)">
     <use xlink:href="#m6a64db6c17" x="0" y="393.011865" style="fill: #3a923a; stroke: #3d3d3d; stroke-width: 1.5"/>
    </g>
   </g>
   <g id="matplotlib.axis_1">
    <g id="xtick_1">
     <g id="line2d_1">
      <defs>
       <path id="me354952636" d="M 0 0 
L 0 3.5 
" style="stroke: #000000; stroke-width: 0.8"/>
      </defs>
      <g>
       <use xlink:href="#me354952636" x="122.811517" y="288.430125" style="stroke: #000000; stroke-width: 0.8"/>
      </g>
     </g>
     <g id="text_1">
      <!-- aflplusplus_ast_o3_native -->
      <g transform="translate(10.999219 365.884784)rotate(-30)scale(0.1 -0.1)">
       <defs>
        <path id="DejaVuSans-61" d="M 2194 1759 
Q 1497 1759 1228 1600 
Q 959 1441 959 1056 
Q 959 750 1161 570 
Q 1363 391 1709 391 
Q 2188 391 2477 730 
Q 2766 1069 2766 1631 
L 2766 1759 
L 2194 1759 
z
M 3341 1997 
L 3341 0 
L 2766 0 
L 2766 531 
Q 2569 213 2275 61 
Q 1981 -91 1556 -91 
Q 1019 -91 701 211 
Q 384 513 384 1019 
Q 384 1609 779 1909 
Q 1175 2209 1959 2209 
L 2766 2209 
L 2766 2266 
Q 2766 2663 2505 2880 
Q 2244 3097 1772 3097 
Q 1472 3097 1187 3025 
Q 903 2953 641 2809 
L 641 3341 
Q 956 3463 1253 3523 
Q 1550 3584 1831 3584 
Q 2591 3584 2966 3190 
Q 3341 2797 3341 1997 
z
" transform="scale(0.015625)"/>
        <path id="DejaVuSans-66" d="M 2375 4863 
L 2375 4384 
L 1825 4384 
Q 1516 4384 1395 4259 
Q 1275 4134 1275 3809 
L 1275 3500 
L 2222 3500 
L 2222 3053 
L 1275 3053 
L 1275 0 
L 697 0 
L 697 3053 
L 147 3053 
L 147 3500 
L 697 3500 
L 697 3744 
Q 697 4328 969 4595 
Q 1241 4863 1831 4863 
L 2375 4863 
z
" transform="scale(0.015625)"/>
        <path id="DejaVuSans-6c" d="M 603 4863 
L 1178 4863 
L 1178 0 
L 603 0 
L 603 4863 
z
" transform="scale(0.015625)"/>
        <path id="DejaVuSans-70" d="M 1159 525 
L 1159 -1331 
L 581 -1331 
L 581 3500 
L 1159 3500 
L 1159 2969 
Q 1341 3281 1617 3432 
Q 1894 3584 2278 3584 
Q 2916 3584 3314 3078 
Q 3713 2572 3713 1747 
Q 3713 922 3314 415 
Q 2916 -91 2278 -91 
Q 1894 -91 1617 61 
Q 1341 213 1159 525 
z
M 3116 1747 
Q 3116 2381 2855 2742 
Q 2594 3103 2138 3103 
Q 1681 3103 1420 2742 
Q 1159 2381 1159 1747 
Q 1159 1113 1420 752 
Q 1681 391 2138 391 
Q 2594 391 2855 752 
Q 3116 1113 3116 1747 
z
" transform="scale(0.015625)"/>
        <path id="DejaVuSans-75" d="M 544 1381 
L 544 3500 
L 1119 3500 
L 1119 1403 
Q 1119 906 1312 657 
Q 1506 409 1894 409 
Q 2359 409 2629 706 
Q 2900 1003 2900 1516 
L 2900 3500 
L 3475 3500 
L 3475 0 
L 2900 0 
L 2900 538 
Q 2691 219 2414 64 
Q 2138 -91 1772 -91 
Q 1169 -91 856 284 
Q 544 659 544 1381 
z
M 1991 3584 
L 1991 3584 
z
" transform="scale(0.015625)"/>
        <path id="DejaVuSans-73" d="M 2834 3397 
L 2834 2853 
Q 2591 2978 2328 3040 
Q 2066 3103 1784 3103 
Q 1356 3103 1142 2972 
Q 928 2841 928 2578 
Q 928 2378 1081 2264 
Q 1234 2150 1697 2047 
L 1894 2003 
Q 2506 1872 2764 1633 
Q 3022 1394 3022 966 
Q 3022 478 2636 193 
Q 2250 -91 1575 -91 
Q 1294 -91 989 -36 
Q 684 19 347 128 
L 347 722 
Q 666 556 975 473 
Q 1284 391 1588 391 
Q 1994 391 2212 530 
Q 2431 669 2431 922 
Q 2431 1156 2273 1281 
Q 2116 1406 1581 1522 
L 1381 1569 
Q 847 1681 609 1914 
Q 372 2147 372 2553 
Q 372 3047 722 3315 
Q 1072 3584 1716 3584 
Q 2034 3584 2315 3537 
Q 2597 3491 2834 3397 
z
" transform="scale(0.015625)"/>
        <path id="DejaVuSans-5f" d="M 3263 -1063 
L 3263 -1509 
L -63 -1509 
L -63 -1063 
L 3263 -1063 
z
" transform="scale(0.015625)"/>
        <path id="DejaVuSans-74" d="M 1172 4494 
L 1172 3500 
L 2356 3500 
L 2356 3053 
L 1172 3053 
L 1172 1153 
Q 1172 725 1289 603 
Q 1406 481 1766 481 
L 2356 481 
L 2356 0 
L 1766 0 
Q 1100 0 847 248 
Q 594 497 594 1153 
L 594 3053 
L 172 3053 
L 172 3500 
L 594 3500 
L 594 4494 
L 1172 4494 
z
" transform="scale(0.015625)"/>
        <path id="DejaVuSans-6f" d="M 1959 3097 
Q 1497 3097 1228 2736 
Q 959 2375 959 1747 
Q 959 1119 1226 758 
Q 1494 397 1959 397 
Q 2419 397 2687 759 
Q 2956 1122 2956 1747 
Q 2956 2369 2687 2733 
Q 2419 3097 1959 3097 
z
M 1959 3584 
Q 2709 3584 3137 3096 
Q 3566 2609 3566 1747 
Q 3566 888 3137 398 
Q 2709 -91 1959 -91 
Q 1206 -91 779 398 
Q 353 888 353 1747 
Q 353 2609 779 3096 
Q 1206 3584 1959 3584 
z
" transform="scale(0.015625)"/>
        <path id="DejaVuSans-33" d="M 2597 2516 
Q 3050 2419 3304 2112 
Q 3559 1806 3559 1356 
Q 3559 666 3084 287 
Q 2609 -91 1734 -91 
Q 1441 -91 1130 -33 
Q 819 25 488 141 
L 488 750 
Q 750 597 1062 519 
Q 1375 441 1716 441 
Q 2309 441 2620 675 
Q 2931 909 2931 1356 
Q 2931 1769 2642 2001 
Q 2353 2234 1838 2234 
L 1294 2234 
L 1294 2753 
L 1863 2753 
Q 2328 2753 2575 2939 
Q 2822 3125 2822 3475 
Q 2822 3834 2567 4026 
Q 2313 4219 1838 4219 
Q 1578 4219 1281 4162 
Q 984 4106 628 3988 
L 628 4550 
Q 988 4650 1302 4700 
Q 1616 4750 1894 4750 
Q 2613 4750 3031 4423 
Q 3450 4097 3450 3541 
Q 3450 3153 3228 2886 
Q 3006 2619 2597 2516 
z
" transform="scale(0.015625)"/>
        <path id="DejaVuSans-6e" d="M 3513 2113 
L 3513 0 
L 2938 0 
L 2938 2094 
Q 2938 2591 2744 2837 
Q 2550 3084 2163 3084 
Q 1697 3084 1428 2787 
Q 1159 2491 1159 1978 
L 1159 0 
L 581 0 
L 581 3500 
L 1159 3500 
L 1159 2956 
Q 1366 3272 1645 3428 
Q 1925 3584 2291 3584 
Q 2894 3584 3203 3211 
Q 3513 2838 3513 2113 
z
" transform="scale(0.015625)"/>
        <path id="DejaVuSans-69" d="M 603 3500 
L 1178 3500 
L 1178 0 
L 603 0 
L 603 3500 
z
M 603 4863 
L 1178 4863 
L 1178 4134 
L 603 4134 
L 603 4863 
z
" transform="scale(0.015625)"/>
        <path id="DejaVuSans-76" d="M 191 3500 
L 800 3500 
L 1894 563 
L 2988 3500 
L 3597 3500 
L 2284 0 
L 1503 0 
L 191 3500 
z
" transform="scale(0.015625)"/>
        <path id="DejaVuSans-65" d="M 3597 1894 
L 3597 1613 
L 953 1613 
Q 991 1019 1311 708 
Q 1631 397 2203 397 
Q 2534 397 2845 478 
Q 3156 559 3463 722 
L 3463 178 
Q 3153 47 2828 -22 
Q 2503 -91 2169 -91 
Q 1331 -91 842 396 
Q 353 884 353 1716 
Q 353 2575 817 3079 
Q 1281 3584 2069 3584 
Q 2775 3584 3186 3129 
Q 3597 2675 3597 1894 
z
M 3022 2063 
Q 3016 2534 2758 2815 
Q 2500 3097 2075 3097 
Q 1594 3097 1305 2825 
Q 1016 2553 972 2059 
L 3022 2063 
z
" transform="scale(0.015625)"/>
       </defs>
       <use xlink:href="#DejaVuSans-61"/>
       <use xlink:href="#DejaVuSans-66" x="61.279297"/>
       <use xlink:href="#DejaVuSans-6c" x="96.484375"/>
       <use xlink:href="#DejaVuSans-70" x="124.267578"/>
       <use xlink:href="#DejaVuSans-6c" x="187.744141"/>
       <use xlink:href="#DejaVuSans-75" x="215.527344"/>
       <use xlink:href="#DejaVuSans-73" x="278.90625"/>
       <use xlink:href="#DejaVuSans-70" x="331.005859"/>
       <use xlink:href="#DejaVuSans-6c" x="394.482422"/>
       <use xlink:href="#DejaVuSans-75" x="422.265625"/>
       <use xlink:href="#DejaVuSans-73" x="485.644531"/>
       <use xlink:href="#DejaVuSans-5f" x="537.744141"/>
       <use xlink:href="#DejaVuSans-61" x="587.744141"/>
       <use xlink:href="#DejaVuSans-73" x="649.023438"/>
       <use xlink:href="#DejaVuSans-74" x="701.123047"/>
       <use xlink:href="#DejaVuSans-5f" x="740.332031"/>
       <use xlink:href="#DejaVuSans-6f" x="790.332031"/>
       <use xlink:href="#DejaVuSans-33" x="851.513672"/>
       <use xlink:href="#DejaVuSans-5f" x="915.136719"/>
       <use xlink:href="#DejaVuSans-6e" x="965.136719"/>
       <use xlink:href="#DejaVuSans-61" x="1028.515625"/>
       <use xlink:href="#DejaVuSans-74" x="1089.794922"/>
       <use xlink:href="#DejaVuSans-69" x="1129.003906"/>
       <use xlink:href="#DejaVuSans-76" x="1156.787109"/>
       <use xlink:href="#DejaVuSans-65" x="1215.966797"/>
      </g>
     </g>
    </g>
    <g id="xtick_2">
     <g id="line2d_2">
      <g>
       <use xlink:href="#me354952636" x="241.851517" y="288.430125" style="stroke: #000000; stroke-width: 0.8"/>
      </g>
     </g>
     <g id="text_2">
      <!-- aflplusplus_ast_opt_disable -->
      <g transform="translate(122.752427 370.091815)rotate(-30)scale(0.1 -0.1)">
       <defs>
        <path id="DejaVuSans-64" d="M 2906 2969 
L 2906 4863 
L 3481 4863 
L 3481 0 
L 2906 0 
L 2906 525 
Q 2725 213 2448 61 
Q 2172 -91 1784 -91 
Q 1150 -91 751 415 
Q 353 922 353 1747 
Q 353 2572 751 3078 
Q 1150 3584 1784 3584 
Q 2172 3584 2448 3432 
Q 2725 3281 2906 2969 
z
M 947 1747 
Q 947 1113 1208 752 
Q 1469 391 1925 391 
Q 2381 391 2643 752 
Q 2906 1113 2906 1747 
Q 2906 2381 2643 2742 
Q 2381 3103 1925 3103 
Q 1469 3103 1208 2742 
Q 947 2381 947 1747 
z
" transform="scale(0.015625)"/>
        <path id="DejaVuSans-62" d="M 3116 1747 
Q 3116 2381 2855 2742 
Q 2594 3103 2138 3103 
Q 1681 3103 1420 2742 
Q 1159 2381 1159 1747 
Q 1159 1113 1420 752 
Q 1681 391 2138 391 
Q 2594 391 2855 752 
Q 3116 1113 3116 1747 
z
M 1159 2969 
Q 1341 3281 1617 3432 
Q 1894 3584 2278 3584 
Q 2916 3584 3314 3078 
Q 3713 2572 3713 1747 
Q 3713 922 3314 415 
Q 2916 -91 2278 -91 
Q 1894 -91 1617 61 
Q 1341 213 1159 525 
L 1159 0 
L 581 0 
L 581 4863 
L 1159 4863 
L 1159 2969 
z
" transform="scale(0.015625)"/>
       </defs>
       <use xlink:href="#DejaVuSans-61"/>
       <use xlink:href="#DejaVuSans-66" x="61.279297"/>
       <use xlink:href="#DejaVuSans-6c" x="96.484375"/>
       <use xlink:href="#DejaVuSans-70" x="124.267578"/>
       <use xlink:href="#DejaVuSans-6c" x="187.744141"/>
       <use xlink:href="#DejaVuSans-75" x="215.527344"/>
       <use xlink:href="#DejaVuSans-73" x="278.90625"/>
       <use xlink:href="#DejaVuSans-70" x="331.005859"/>
       <use xlink:href="#DejaVuSans-6c" x="394.482422"/>
       <use xlink:href="#DejaVuSans-75" x="422.265625"/>
       <use xlink:href="#DejaVuSans-73" x="485.644531"/>
       <use xlink:href="#DejaVuSans-5f" x="537.744141"/>
       <use xlink:href="#DejaVuSans-61" x="587.744141"/>
       <use xlink:href="#DejaVuSans-73" x="649.023438"/>
       <use xlink:href="#DejaVuSans-74" x="701.123047"/>
       <use xlink:href="#DejaVuSans-5f" x="740.332031"/>
       <use xlink:href="#DejaVuSans-6f" x="790.332031"/>
       <use xlink:href="#DejaVuSans-70" x="851.513672"/>
       <use xlink:href="#DejaVuSans-74" x="914.990234"/>
       <use xlink:href="#DejaVuSans-5f" x="954.199219"/>
       <use xlink:href="#DejaVuSans-64" x="1004.199219"/>
       <use xlink:href="#DejaVuSans-69" x="1067.675781"/>
       <use xlink:href="#DejaVuSans-73" x="1095.458984"/>
       <use xlink:href="#DejaVuSans-61" x="1147.558594"/>
       <use xlink:href="#DejaVuSans-62" x="1208.837891"/>
       <use xlink:href="#DejaVuSans-6c" x="1272.314453"/>
       <use xlink:href="#DejaVuSans-65" x="1300.097656"/>
      </g>
     </g>
    </g>
    <g id="xtick_3">
     <g id="line2d_3">
      <g>
       <use xlink:href="#me354952636" x="360.891517" y="288.430125" style="stroke: #000000; stroke-width: 0.8"/>
      </g>
     </g>
     <g id="text_3">
      <!-- aflplusplus_ast_opt_l1 -->
      <g transform="translate(264.831409 356.790252)rotate(-30)scale(0.1 -0.1)">
       <defs>
        <path id="DejaVuSans-31" d="M 794 531 
L 1825 531 
L 1825 4091 
L 703 3866 
L 703 4441 
L 1819 4666 
L 2450 4666 
L 2450 531 
L 3481 531 
L 3481 0 
L 794 0 
L 794 531 
z
" transform="scale(0.015625)"/>
       </defs>
       <use xlink:href="#DejaVuSans-61"/>
       <use xlink:href="#DejaVuSans-66" x="61.279297"/>
       <use xlink:href="#DejaVuSans-6c" x="96.484375"/>
       <use xlink:href="#DejaVuSans-70" x="124.267578"/>
       <use xlink:href="#DejaVuSans-6c" x="187.744141"/>
       <use xlink:href="#DejaVuSans-75" x="215.527344"/>
       <use xlink:href="#DejaVuSans-73" x="278.90625"/>
       <use xlink:href="#DejaVuSans-70" x="331.005859"/>
       <use xlink:href="#DejaVuSans-6c" x="394.482422"/>
       <use xlink:href="#DejaVuSans-75" x="422.265625"/>
       <use xlink:href="#DejaVuSans-73" x="485.644531"/>
       <use xlink:href="#DejaVuSans-5f" x="537.744141"/>
       <use xlink:href="#DejaVuSans-61" x="587.744141"/>
       <use xlink:href="#DejaVuSans-73" x="649.023438"/>
       <use xlink:href="#DejaVuSans-74" x="701.123047"/>
       <use xlink:href="#DejaVuSans-5f" x="740.332031"/>
       <use xlink:href="#DejaVuSans-6f" x="790.332031"/>
       <use xlink:href="#DejaVuSans-70" x="851.513672"/>
       <use xlink:href="#DejaVuSans-74" x="914.990234"/>
       <use xlink:href="#DejaVuSans-5f" x="954.199219"/>
       <use xlink:href="#DejaVuSans-6c" x="1004.199219"/>
       <use xlink:href="#DejaVuSans-31" x="1031.982422"/>
      </g>
     </g>
    </g>
    <g id="text_4">
     <!-- Fuzzer (highest median coverage on the left) -->
     <g transform="translate(129.233548 383.732178)scale(0.1 -0.1)">
      <defs>
       <path id="DejaVuSans-46" d="M 628 4666 
L 3309 4666 
L 3309 4134 
L 1259 4134 
L 1259 2759 
L 3109 2759 
L 3109 2228 
L 1259 2228 
L 1259 0 
L 628 0 
L 628 4666 
z
" transform="scale(0.015625)"/>
       <path id="DejaVuSans-7a" d="M 353 3500 
L 3084 3500 
L 3084 2975 
L 922 459 
L 3084 459 
L 3084 0 
L 275 0 
L 275 525 
L 2438 3041 
L 353 3041 
L 353 3500 
z
" transform="scale(0.015625)"/>
       <path id="DejaVuSans-72" d="M 2631 2963 
Q 2534 3019 2420 3045 
Q 2306 3072 2169 3072 
Q 1681 3072 1420 2755 
Q 1159 2438 1159 1844 
L 1159 0 
L 581 0 
L 581 3500 
L 1159 3500 
L 1159 2956 
Q 1341 3275 1631 3429 
Q 1922 3584 2338 3584 
Q 2397 3584 2469 3576 
Q 2541 3569 2628 3553 
L 2631 2963 
z
" transform="scale(0.015625)"/>
       <path id="DejaVuSans-20" transform="scale(0.015625)"/>
       <path id="DejaVuSans-28" d="M 1984 4856 
Q 1566 4138 1362 3434 
Q 1159 2731 1159 2009 
Q 1159 1288 1364 580 
Q 1569 -128 1984 -844 
L 1484 -844 
Q 1016 -109 783 600 
Q 550 1309 550 2009 
Q 550 2706 781 3412 
Q 1013 4119 1484 4856 
L 1984 4856 
z
" transform="scale(0.015625)"/>
       <path id="DejaVuSans-68" d="M 3513 2113 
L 3513 0 
L 2938 0 
L 2938 2094 
Q 2938 2591 2744 2837 
Q 2550 3084 2163 3084 
Q 1697 3084 1428 2787 
Q 1159 2491 1159 1978 
L 1159 0 
L 581 0 
L 581 4863 
L 1159 4863 
L 1159 2956 
Q 1366 3272 1645 3428 
Q 1925 3584 2291 3584 
Q 2894 3584 3203 3211 
Q 3513 2838 3513 2113 
z
" transform="scale(0.015625)"/>
       <path id="DejaVuSans-67" d="M 2906 1791 
Q 2906 2416 2648 2759 
Q 2391 3103 1925 3103 
Q 1463 3103 1205 2759 
Q 947 2416 947 1791 
Q 947 1169 1205 825 
Q 1463 481 1925 481 
Q 2391 481 2648 825 
Q 2906 1169 2906 1791 
z
M 3481 434 
Q 3481 -459 3084 -895 
Q 2688 -1331 1869 -1331 
Q 1566 -1331 1297 -1286 
Q 1028 -1241 775 -1147 
L 775 -588 
Q 1028 -725 1275 -790 
Q 1522 -856 1778 -856 
Q 2344 -856 2625 -561 
Q 2906 -266 2906 331 
L 2906 616 
Q 2728 306 2450 153 
Q 2172 0 1784 0 
Q 1141 0 747 490 
Q 353 981 353 1791 
Q 353 2603 747 3093 
Q 1141 3584 1784 3584 
Q 2172 3584 2450 3431 
Q 2728 3278 2906 2969 
L 2906 3500 
L 3481 3500 
L 3481 434 
z
" transform="scale(0.015625)"/>
       <path id="DejaVuSans-6d" d="M 3328 2828 
Q 3544 3216 3844 3400 
Q 4144 3584 4550 3584 
Q 5097 3584 5394 3201 
Q 5691 2819 5691 2113 
L 5691 0 
L 5113 0 
L 5113 2094 
Q 5113 2597 4934 2840 
Q 4756 3084 4391 3084 
Q 3944 3084 3684 2787 
Q 3425 2491 3425 1978 
L 3425 0 
L 2847 0 
L 2847 2094 
Q 2847 2600 2669 2842 
Q 2491 3084 2119 3084 
Q 1678 3084 1418 2786 
Q 1159 2488 1159 1978 
L 1159 0 
L 581 0 
L 581 3500 
L 1159 3500 
L 1159 2956 
Q 1356 3278 1631 3431 
Q 1906 3584 2284 3584 
Q 2666 3584 2933 3390 
Q 3200 3197 3328 2828 
z
" transform="scale(0.015625)"/>
       <path id="DejaVuSans-63" d="M 3122 3366 
L 3122 2828 
Q 2878 2963 2633 3030 
Q 2388 3097 2138 3097 
Q 1578 3097 1268 2742 
Q 959 2388 959 1747 
Q 959 1106 1268 751 
Q 1578 397 2138 397 
Q 2388 397 2633 464 
Q 2878 531 3122 666 
L 3122 134 
Q 2881 22 2623 -34 
Q 2366 -91 2075 -91 
Q 1284 -91 818 406 
Q 353 903 353 1747 
Q 353 2603 823 3093 
Q 1294 3584 2113 3584 
Q 2378 3584 2631 3529 
Q 2884 3475 3122 3366 
z
" transform="scale(0.015625)"/>
       <path id="DejaVuSans-29" d="M 513 4856 
L 1013 4856 
Q 1481 4119 1714 3412 
Q 1947 2706 1947 2009 
Q 1947 1309 1714 600 
Q 1481 -109 1013 -844 
L 513 -844 
Q 928 -128 1133 580 
Q 1338 1288 1338 2009 
Q 1338 2731 1133 3434 
Q 928 4138 513 4856 
z
" transform="scale(0.015625)"/>
      </defs>
      <use xlink:href="#DejaVuSans-46"/>
      <use xlink:href="#DejaVuSans-75" x="52.019531"/>
      <use xlink:href="#DejaVuSans-7a" x="115.398438"/>
      <use xlink:href="#DejaVuSans-7a" x="167.888672"/>
      <use xlink:href="#DejaVuSans-65" x="220.378906"/>
      <use xlink:href="#DejaVuSans-72" x="281.902344"/>
      <use xlink:href="#DejaVuSans-20" x="323.015625"/>
      <use xlink:href="#DejaVuSans-28" x="354.802734"/>
      <use xlink:href="#DejaVuSans-68" x="393.816406"/>
      <use xlink:href="#DejaVuSans-69" x="457.195312"/>
      <use xlink:href="#DejaVuSans-67" x="484.978516"/>
      <use xlink:href="#DejaVuSans-68" x="548.455078"/>
      <use xlink:href="#DejaVuSans-65" x="611.833984"/>
      <use xlink:href="#DejaVuSans-73" x="673.357422"/>
      <use xlink:href="#DejaVuSans-74" x="725.457031"/>
      <use xlink:href="#DejaVuSans-20" x="764.666016"/>
      <use xlink:href="#DejaVuSans-6d" x="796.453125"/>
      <use xlink:href="#DejaVuSans-65" x="893.865234"/>
      <use xlink:href="#DejaVuSans-64" x="955.388672"/>
      <use xlink:href="#DejaVuSans-69" x="1018.865234"/>
      <use xlink:href="#DejaVuSans-61" x="1046.648438"/>
      <use xlink:href="#DejaVuSans-6e" x="1107.927734"/>
      <use xlink:href="#DejaVuSans-20" x="1171.306641"/>
      <use xlink:href="#DejaVuSans-63" x="1203.09375"/>
      <use xlink:href="#DejaVuSans-6f" x="1258.074219"/>
      <use xlink:href="#DejaVuSans-76" x="1319.255859"/>
      <use xlink:href="#DejaVuSans-65" x="1378.435547"/>
      <use xlink:href="#DejaVuSans-72" x="1439.958984"/>
      <use xlink:href="#DejaVuSans-61" x="1481.072266"/>
      <use xlink:href="#DejaVuSans-67" x="1542.351562"/>
      <use xlink:href="#DejaVuSans-65" x="1605.828125"/>
      <use xlink:href="#DejaVuSans-20" x="1667.351562"/>
      <use xlink:href="#DejaVuSans-6f" x="1699.138672"/>
      <use xlink:href="#DejaVuSans-6e" x="1760.320312"/>
      <use xlink:href="#DejaVuSans-20" x="1823.699219"/>
      <use xlink:href="#DejaVuSans-74" x="1855.486328"/>
      <use xlink:href="#DejaVuSans-68" x="1894.695312"/>
      <use xlink:href="#DejaVuSans-65" x="1958.074219"/>
      <use xlink:href="#DejaVuSans-20" x="2019.597656"/>
      <use xlink:href="#DejaVuSans-6c" x="2051.384766"/>
      <use xlink:href="#DejaVuSans-65" x="2079.167969"/>
      <use xlink:href="#DejaVuSans-66" x="2140.691406"/>
      <use xlink:href="#DejaVuSans-74" x="2174.146484"/>
      <use xlink:href="#DejaVuSans-29" x="2213.355469"/>
     </g>
    </g>
   </g>
   <g id="matplotlib.axis_2">
    <g id="ytick_1">
     <g id="line2d_4">
      <defs>
       <path id="m57f19554a2" d="M 0 0 
L -3.5 0 
" style="stroke: #000000; stroke-width: 0.8"/>
      </defs>
      <g>
       <use xlink:href="#m57f19554a2" x="63.291517" y="275.609244" style="stroke: #000000; stroke-width: 0.8"/>
      </g>
     </g>
     <g id="text_5">
      <!-- 1510 -->
      <g transform="translate(30.841517 279.408463)scale(0.1 -0.1)">
       <defs>
        <path id="DejaVuSans-35" d="M 691 4666 
L 3169 4666 
L 3169 4134 
L 1269 4134 
L 1269 2991 
Q 1406 3038 1543 3061 
Q 1681 3084 1819 3084 
Q 2600 3084 3056 2656 
Q 3513 2228 3513 1497 
Q 3513 744 3044 326 
Q 2575 -91 1722 -91 
Q 1428 -91 1123 -41 
Q 819 9 494 109 
L 494 744 
Q 775 591 1075 516 
Q 1375 441 1709 441 
Q 2250 441 2565 725 
Q 2881 1009 2881 1497 
Q 2881 1984 2565 2268 
Q 2250 2553 1709 2553 
Q 1456 2553 1204 2497 
Q 953 2441 691 2322 
L 691 4666 
z
" transform="scale(0.015625)"/>
        <path id="DejaVuSans-30" d="M 2034 4250 
Q 1547 4250 1301 3770 
Q 1056 3291 1056 2328 
Q 1056 1369 1301 889 
Q 1547 409 2034 409 
Q 2525 409 2770 889 
Q 3016 1369 3016 2328 
Q 3016 3291 2770 3770 
Q 2525 4250 2034 4250 
z
M 2034 4750 
Q 2819 4750 3233 4129 
Q 3647 3509 3647 2328 
Q 3647 1150 3233 529 
Q 2819 -91 2034 -91 
Q 1250 -91 836 529 
Q 422 1150 422 2328 
Q 422 3509 836 4129 
Q 1250 4750 2034 4750 
z
" transform="scale(0.015625)"/>
       </defs>
       <use xlink:href="#DejaVuSans-31"/>
       <use xlink:href="#DejaVuSans-35" x="63.623047"/>
       <use xlink:href="#DejaVuSans-31" x="127.246094"/>
       <use xlink:href="#DejaVuSans-30" x="190.869141"/>
      </g>
     </g>
    </g>
    <g id="ytick_2">
     <g id="line2d_5">
      <g>
       <use xlink:href="#m57f19554a2" x="63.291517" y="229.297488" style="stroke: #000000; stroke-width: 0.8"/>
      </g>
     </g>
     <g id="text_6">
      <!-- 1515 -->
      <g transform="translate(30.841517 233.096707)scale(0.1 -0.1)">
       <use xlink:href="#DejaVuSans-31"/>
       <use xlink:href="#DejaVuSans-35" x="63.623047"/>
       <use xlink:href="#DejaVuSans-31" x="127.246094"/>
       <use xlink:href="#DejaVuSans-35" x="190.869141"/>
      </g>
     </g>
    </g>
    <g id="ytick_3">
     <g id="line2d_6">
      <g>
       <use xlink:href="#m57f19554a2" x="63.291517" y="182.985732" style="stroke: #000000; stroke-width: 0.8"/>
      </g>
     </g>
     <g id="text_7">
      <!-- 1520 -->
      <g transform="translate(30.841517 186.784951)scale(0.1 -0.1)">
       <defs>
        <path id="DejaVuSans-32" d="M 1228 531 
L 3431 531 
L 3431 0 
L 469 0 
L 469 531 
Q 828 903 1448 1529 
Q 2069 2156 2228 2338 
Q 2531 2678 2651 2914 
Q 2772 3150 2772 3378 
Q 2772 3750 2511 3984 
Q 2250 4219 1831 4219 
Q 1534 4219 1204 4116 
Q 875 4013 500 3803 
L 500 4441 
Q 881 4594 1212 4672 
Q 1544 4750 1819 4750 
Q 2544 4750 2975 4387 
Q 3406 4025 3406 3419 
Q 3406 3131 3298 2873 
Q 3191 2616 2906 2266 
Q 2828 2175 2409 1742 
Q 1991 1309 1228 531 
z
" transform="scale(0.015625)"/>
       </defs>
       <use xlink:href="#DejaVuSans-31"/>
       <use xlink:href="#DejaVuSans-35" x="63.623047"/>
       <use xlink:href="#DejaVuSans-32" x="127.246094"/>
       <use xlink:href="#DejaVuSans-30" x="190.869141"/>
      </g>
     </g>
    </g>
    <g id="ytick_4">
     <g id="line2d_7">
      <g>
       <use xlink:href="#m57f19554a2" x="63.291517" y="136.673976" style="stroke: #000000; stroke-width: 0.8"/>
      </g>
     </g>
     <g id="text_8">
      <!-- 1525 -->
      <g transform="translate(30.841517 140.473195)scale(0.1 -0.1)">
       <use xlink:href="#DejaVuSans-31"/>
       <use xlink:href="#DejaVuSans-35" x="63.623047"/>
       <use xlink:href="#DejaVuSans-32" x="127.246094"/>
       <use xlink:href="#DejaVuSans-35" x="190.869141"/>
      </g>
     </g>
    </g>
    <g id="ytick_5">
     <g id="line2d_8">
      <g>
       <use xlink:href="#m57f19554a2" x="63.291517" y="90.36222" style="stroke: #000000; stroke-width: 0.8"/>
      </g>
     </g>
     <g id="text_9">
      <!-- 1530 -->
      <g transform="translate(30.841517 94.161439)scale(0.1 -0.1)">
       <use xlink:href="#DejaVuSans-31"/>
       <use xlink:href="#DejaVuSans-35" x="63.623047"/>
       <use xlink:href="#DejaVuSans-33" x="127.246094"/>
       <use xlink:href="#DejaVuSans-30" x="190.869141"/>
      </g>
     </g>
    </g>
    <g id="ytick_6">
     <g id="line2d_9">
      <g>
       <use xlink:href="#m57f19554a2" x="63.291517" y="44.050465" style="stroke: #000000; stroke-width: 0.8"/>
      </g>
     </g>
     <g id="text_10">
      <!-- 1535 -->
      <g transform="translate(30.841517 47.849683)scale(0.1 -0.1)">
       <use xlink:href="#DejaVuSans-31"/>
       <use xlink:href="#DejaVuSans-35" x="63.623047"/>
       <use xlink:href="#DejaVuSans-33" x="127.246094"/>
       <use xlink:href="#DejaVuSans-35" x="190.869141"/>
      </g>
     </g>
    </g>
    <g id="text_11">
     <!-- Reached region coverage -->
     <g transform="translate(24.76183 219.136625)rotate(-90)scale(0.1 -0.1)">
      <defs>
       <path id="DejaVuSans-52" d="M 2841 2188 
Q 3044 2119 3236 1894 
Q 3428 1669 3622 1275 
L 4263 0 
L 3584 0 
L 2988 1197 
Q 2756 1666 2539 1819 
Q 2322 1972 1947 1972 
L 1259 1972 
L 1259 0 
L 628 0 
L 628 4666 
L 2053 4666 
Q 2853 4666 3247 4331 
Q 3641 3997 3641 3322 
Q 3641 2881 3436 2590 
Q 3231 2300 2841 2188 
z
M 1259 4147 
L 1259 2491 
L 2053 2491 
Q 2509 2491 2742 2702 
Q 2975 2913 2975 3322 
Q 2975 3731 2742 3939 
Q 2509 4147 2053 4147 
L 1259 4147 
z
" transform="scale(0.015625)"/>
      </defs>
      <use xlink:href="#DejaVuSans-52"/>
      <use xlink:href="#DejaVuSans-65" x="64.982422"/>
      <use xlink:href="#DejaVuSans-61" x="126.505859"/>
      <use xlink:href="#DejaVuSans-63" x="187.785156"/>
      <use xlink:href="#DejaVuSans-68" x="242.765625"/>
      <use xlink:href="#DejaVuSans-65" x="306.144531"/>
      <use xlink:href="#DejaVuSans-64" x="367.667969"/>
      <use xlink:href="#DejaVuSans-20" x="431.144531"/>
      <use xlink:href="#DejaVuSans-72" x="462.931641"/>
      <use xlink:href="#DejaVuSans-65" x="501.794922"/>
      <use xlink:href="#DejaVuSans-67" x="563.318359"/>
      <use xlink:href="#DejaVuSans-69" x="626.794922"/>
      <use xlink:href="#DejaVuSans-6f" x="654.578125"/>
      <use xlink:href="#DejaVuSans-6e" x="715.759766"/>
      <use xlink:href="#DejaVuSans-20" x="779.138672"/>
      <use xlink:href="#DejaVuSans-63" x="810.925781"/>
      <use xlink:href="#DejaVuSans-6f" x="865.90625"/>
      <use xlink:href="#DejaVuSans-76" x="927.087891"/>
      <use xlink:href="#DejaVuSans-65" x="986.267578"/>
      <use xlink:href="#DejaVuSans-72" x="1047.791016"/>
      <use xlink:href="#DejaVuSans-61" x="1088.904297"/>
      <use xlink:href="#DejaVuSans-67" x="1150.183594"/>
      <use xlink:href="#DejaVuSans-65" x="1213.660156"/>
     </g>
    </g>
   </g>
   <g id="line2d_10">
    <path d="M 122.811517 118.149274 
L 122.811517 71.837518 
" clip-path="url(#p29d5a63ef7)" style="fill: none; stroke: #3d3d3d; stroke-width: 1.5; stroke-linecap: square"/>
   </g>
   <g id="line2d_11">
    <path d="M 122.811517 108.886923 
L 122.811517 85.731045 
" clip-path="url(#p29d5a63ef7)" style="fill: none; stroke: #3d3d3d; stroke-width: 4.5; stroke-linecap: square"/>
   </g>
   <g id="line2d_12">
    <path d="M 241.851517 220.035137 
L 241.851517 155.198679 
" clip-path="url(#p29d5a63ef7)" style="fill: none; stroke: #3d3d3d; stroke-width: 1.5; stroke-linecap: square"/>
   </g>
   <g id="line2d_13">
    <path d="M 241.851517 192.248083 
L 241.851517 159.829854 
" clip-path="url(#p29d5a63ef7)" style="fill: none; stroke: #3d3d3d; stroke-width: 4.5; stroke-linecap: square"/>
   </g>
   <g id="line2d_14">
    <path d="M 360.891517 192.248083 
L 360.891517 118.149274 
" clip-path="url(#p29d5a63ef7)" style="fill: none; stroke: #3d3d3d; stroke-width: 1.5; stroke-linecap: square"/>
   </g>
   <g id="line2d_15">
    <path d="M 360.891517 182.985732 
L 360.891517 145.936328 
" clip-path="url(#p29d5a63ef7)" style="fill: none; stroke: #3d3d3d; stroke-width: 4.5; stroke-linecap: square"/>
   </g>
   <g id="patch_3">
    <path d="M 63.291517 275.609244 
L 63.291517 44.050465 
" style="fill: none; stroke: #000000; stroke-width: 0.8; stroke-linejoin: miter; stroke-linecap: square"/>
   </g>
   <g id="patch_4">
    <path d="M 122.811517 288.430125 
L 360.891517 288.430125 
" style="fill: none; stroke: #000000; stroke-width: 0.8; stroke-linejoin: miter; stroke-linecap: square"/>
   </g>
   <g id="PathCollection_1">
    <defs>
     <path id="m4cb497db8c" d="M 0 1.5 
C 0.397805 1.5 0.77937 1.341951 1.06066 1.06066 
C 1.341951 0.77937 1.5 0.397805 1.5 0 
C 1.5 -0.397805 1.341951 -0.77937 1.06066 -1.06066 
C 0.77937 -1.341951 0.397805 -1.5 0 -1.5 
C -0.397805 -1.5 -0.77937 -1.341951 -1.06066 -1.06066 
C -1.341951 -0.77937 -1.5 -0.397805 -1.5 0 
C -1.5 0.397805 -1.341951 0.77937 -1.06066 1.06066 
C -0.77937 1.341951 -0.397805 1.5 0 1.5 
z
" style="stroke: #3d3d3d"/>
    </defs>
    <g clip-path="url(#p29d5a63ef7)">
     <use xlink:href="#m4cb497db8c" x="122.811517" y="99.624572" style="fill: #ffffff; stroke: #3d3d3d"/>
    </g>
   </g>
   <g id="PathCollection_2">
    <g clip-path="url(#p29d5a63ef7)">
     <use xlink:href="#m4cb497db8c" x="241.851517" y="164.46103" style="fill: #ffffff; stroke: #3d3d3d"/>
    </g>
   </g>
   <g id="PathCollection_3">
    <g clip-path="url(#p29d5a63ef7)">
     <use xlink:href="#m4cb497db8c" x="360.891517" y="173.723381" style="fill: #ffffff; stroke: #3d3d3d"/>
    </g>
   </g>
   <g id="text_12">
    <!-- jsoncpp_jsoncpp_fuzzer (4h:15m, 3 trials/fuzzer) -->
    <g transform="translate(96.518392 16.318125)scale(0.12 -0.12)">
     <defs>
      <path id="DejaVuSans-6a" d="M 603 3500 
L 1178 3500 
L 1178 -63 
Q 1178 -731 923 -1031 
Q 669 -1331 103 -1331 
L -116 -1331 
L -116 -844 
L 38 -844 
Q 366 -844 484 -692 
Q 603 -541 603 -63 
L 603 3500 
z
M 603 4863 
L 1178 4863 
L 1178 4134 
L 603 4134 
L 603 4863 
z
" transform="scale(0.015625)"/>
      <path id="DejaVuSans-34" d="M 2419 4116 
L 825 1625 
L 2419 1625 
L 2419 4116 
z
M 2253 4666 
L 3047 4666 
L 3047 1625 
L 3713 1625 
L 3713 1100 
L 3047 1100 
L 3047 0 
L 2419 0 
L 2419 1100 
L 313 1100 
L 313 1709 
L 2253 4666 
z
" transform="scale(0.015625)"/>
      <path id="DejaVuSans-3a" d="M 750 794 
L 1409 794 
L 1409 0 
L 750 0 
L 750 794 
z
M 750 3309 
L 1409 3309 
L 1409 2516 
L 750 2516 
L 750 3309 
z
" transform="scale(0.015625)"/>
      <path id="DejaVuSans-2c" d="M 750 794 
L 1409 794 
L 1409 256 
L 897 -744 
L 494 -744 
L 750 256 
L 750 794 
z
" transform="scale(0.015625)"/>
      <path id="DejaVuSans-2f" d="M 1625 4666 
L 2156 4666 
L 531 -594 
L 0 -594 
L 1625 4666 
z
" transform="scale(0.015625)"/>
     </defs>
     <use xlink:href="#DejaVuSans-6a"/>
     <use xlink:href="#DejaVuSans-73" x="27.783203"/>
     <use xlink:href="#DejaVuSans-6f" x="79.882812"/>
     <use xlink:href="#DejaVuSans-6e" x="141.064453"/>
     <use xlink:href="#DejaVuSans-63" x="204.443359"/>
     <use xlink:href="#DejaVuSans-70" x="259.423828"/>
     <use xlink:href="#DejaVuSans-70" x="322.900391"/>
     <use xlink:href="#DejaVuSans-5f" x="386.376953"/>
     <use xlink:href="#DejaVuSans-6a" x="436.376953"/>
     <use xlink:href="#DejaVuSans-73" x="464.160156"/>
     <use xlink:href="#DejaVuSans-6f" x="516.259766"/>
     <use xlink:href="#DejaVuSans-6e" x="577.441406"/>
     <use xlink:href="#DejaVuSans-63" x="640.820312"/>
     <use xlink:href="#DejaVuSans-70" x="695.800781"/>
     <use xlink:href="#DejaVuSans-70" x="759.277344"/>
     <use xlink:href="#DejaVuSans-5f" x="822.753906"/>
     <use xlink:href="#DejaVuSans-66" x="872.753906"/>
     <use xlink:href="#DejaVuSans-75" x="907.958984"/>
     <use xlink:href="#DejaVuSans-7a" x="971.337891"/>
     <use xlink:href="#DejaVuSans-7a" x="1023.828125"/>
     <use xlink:href="#DejaVuSans-65" x="1076.318359"/>
     <use xlink:href="#DejaVuSans-72" x="1137.841797"/>
     <use xlink:href="#DejaVuSans-20" x="1178.955078"/>
     <use xlink:href="#DejaVuSans-28" x="1210.742188"/>
     <use xlink:href="#DejaVuSans-34" x="1249.755859"/>
     <use xlink:href="#DejaVuSans-68" x="1313.378906"/>
     <use xlink:href="#DejaVuSans-3a" x="1376.757812"/>
     <use xlink:href="#DejaVuSans-31" x="1410.449219"/>
     <use xlink:href="#DejaVuSans-35" x="1474.072266"/>
     <use xlink:href="#DejaVuSans-6d" x="1537.695312"/>
     <use xlink:href="#DejaVuSans-2c" x="1635.107422"/>
     <use xlink:href="#DejaVuSans-20" x="1666.894531"/>
     <use xlink:href="#DejaVuSans-33" x="1698.681641"/>
     <use xlink:href="#DejaVuSans-20" x="1762.304688"/>
     <use xlink:href="#DejaVuSans-74" x="1794.091797"/>
     <use xlink:href="#DejaVuSans-72" x="1833.300781"/>
     <use xlink:href="#DejaVuSans-69" x="1874.414062"/>
     <use xlink:href="#DejaVuSans-61" x="1902.197266"/>
     <use xlink:href="#DejaVuSans-6c" x="1963.476562"/>
     <use xlink:href="#DejaVuSans-73" x="1991.259766"/>
     <use xlink:href="#DejaVuSans-2f" x="2043.359375"/>
     <use xlink:href="#DejaVuSans-66" x="2077.050781"/>
     <use xlink:href="#DejaVuSans-75" x="2112.255859"/>
     <use xlink:href="#DejaVuSans-7a" x="2175.634766"/>
     <use xlink:href="#DejaVuSans-7a" x="2228.125"/>
     <use xlink:href="#DejaVuSans-65" x="2280.615234"/>
     <use xlink:href="#DejaVuSans-72" x="2342.138672"/>
     <use xlink:href="#DejaVuSans-29" x="2383.251953"/>
    </g>
   </g>
  </g>
 </g>
 <defs>
  <clipPath id="p29d5a63ef7">
   <rect x="63.291517" y="22.318125" width="357.12" height="266.112"/>
  </clipPath>
 </defs>
</svg>
