<?xml version="1.0" encoding="utf-8" standalone="no"?>
<!DOCTYPE svg PUBLIC "-//W3C//DTD SVG 1.1//EN"
  "http://www.w3.org/Graphics/SVG/1.1/DTD/svg11.dtd">
<svg xmlns:xlink="http://www.w3.org/1999/xlink" width="435.910275pt" height="393.011865pt" viewBox="0 0 435.910275 393.011865" xmlns="http://www.w3.org/2000/svg" version="1.1">
 <metadata>
  <rdf:RDF xmlns:dc="http://purl.org/dc/elements/1.1/" xmlns:cc="http://creativecommons.org/ns#" xmlns:rdf="http://www.w3.org/1999/02/22-rdf-syntax-ns#">
   <cc:Work>
    <dc:type rdf:resource="http://purl.org/dc/dcmitype/StillImage"/>
    <dc:date>2022-06-05T16:11:08.275396</dc:date>
    <dc:format>image/svg+xml</dc:format>
    <dc:creator>
     <cc:Agent>
      <dc:title>Matplotlib v3.5.1, https://matplotlib.org/</dc:title>
     </cc:Agent>
    </dc:creator>
   </cc:Work>
  </rdf:RDF>
 </metadata>
 <defs>
  <style type="text/css">*{stroke-linejoin: round; stroke-linecap: butt}</style>
 </defs>
 <g id="figure_1">
  <g id="patch_1">
   <path d="M 0 393.011865 
L 435.910275 393.011865 
L 435.910275 -0 
L 0 -0 
z
" style="fill: #ffffff"/>
  </g>
  <g id="axes_1">
   <g id="patch_2">
    <path d="M 71.590275 288.430125 
L 428.710275 288.430125 
L 428.710275 22.318125 
L 71.590275 22.318125 
z
" style="fill: #ffffff"/>
   </g>
   <g id="PolyCollection_1">
    <defs>
     <path id="mf7a34b0d17" d="M 91.476374 -118.097235 
L 91.384176 -118.097235 
L 91.378051 -120.526533 
L 91.371345 -122.955831 
L 91.364038 -125.385129 
L 91.356116 -127.814427 
L 91.347569 -130.243725 
L 91.338396 -132.673023 
L 91.328599 -135.102321 
L 91.318192 -137.531619 
L 91.307193 -139.960917 
L 91.295629 -142.390215 
L 91.283537 -144.819513 
L 91.270961 -147.248811 
L 91.257952 -149.678109 
L 91.24457 -152.107407 
L 91.23088 -154.536705 
L 91.216953 -156.966003 
L 91.202867 -159.395301 
L 91.1887 -161.824599 
L 91.174532 -164.253897 
L 91.160445 -166.683195 
L 91.146517 -169.112493 
L 91.132823 -171.541791 
L 91.119432 -173.971089 
L 91.106405 -176.400387 
L 91.093795 -178.829685 
L 91.081643 -181.258984 
L 91.069978 -183.688282 
L 91.058815 -186.11758 
L 91.048157 -188.546878 
L 91.037989 -190.976176 
L 91.028284 -193.405474 
L 91.019 -195.834772 
L 91.010082 -198.26407 
L 91.001462 -200.693368 
L 90.993065 -203.122666 
L 90.984805 -205.551964 
L 90.976591 -207.981262 
L 90.968331 -210.41056 
L 90.959931 -212.839858 
L 90.951302 -215.269156 
L 90.942362 -217.698454 
L 90.933039 -220.127752 
L 90.923274 -222.55705 
L 90.913023 -224.986348 
L 90.902261 -227.415646 
L 90.890985 -229.844944 
L 90.879211 -232.274242 
L 90.866982 -234.70354 
L 90.854361 -237.132838 
L 90.841437 -239.562136 
L 90.82832 -241.991435 
L 90.815144 -244.420733 
L 90.802057 -246.850031 
L 90.789228 -249.279329 
L 90.776838 -251.708627 
L 90.765075 -254.137925 
L 90.754136 -256.567223 
L 90.744218 -258.996521 
L 90.735515 -261.425819 
L 90.728212 -263.855117 
L 90.722485 -266.284415 
L 90.718494 -268.713713 
L 90.716378 -271.143011 
L 90.716255 -273.572309 
L 90.718217 -276.001607 
L 90.722329 -278.430905 
L 90.728627 -280.860203 
L 90.737116 -283.289501 
L 90.747773 -285.718799 
L 90.760544 -288.148097 
L 90.775346 -290.577395 
L 90.792071 -293.006693 
L 90.810587 -295.435991 
L 90.830738 -297.865289 
L 90.852352 -300.294587 
L 90.875241 -302.723886 
L 90.899205 -305.153184 
L 90.924038 -307.582482 
L 90.949529 -310.01178 
L 90.975467 -312.441078 
L 91.001645 -314.870376 
L 91.027862 -317.299674 
L 91.053926 -319.728972 
L 91.079658 -322.15827 
L 91.104893 -324.587568 
L 91.129482 -327.016866 
L 91.153292 -329.446164 
L 91.176209 -331.875462 
L 91.198138 -334.30476 
L 91.219002 -336.734058 
L 91.238742 -339.163356 
L 91.257317 -341.592654 
L 91.274702 -344.021952 
L 91.290888 -346.45125 
L 91.305879 -348.880548 
L 91.319694 -351.309846 
L 91.33236 -353.739144 
L 91.343916 -356.168442 
L 91.354408 -358.59774 
L 91.506142 -358.59774 
L 91.506142 -358.59774 
L 91.516633 -356.168442 
L 91.528189 -353.739144 
L 91.540856 -351.309846 
L 91.554671 -348.880548 
L 91.569662 -346.45125 
L 91.585848 -344.021952 
L 91.603233 -341.592654 
L 91.621807 -339.163356 
L 91.641547 -336.734058 
L 91.662411 -334.30476 
L 91.68434 -331.875462 
L 91.707258 -329.446164 
L 91.731068 -327.016866 
L 91.755656 -324.587568 
L 91.780891 -322.15827 
L 91.806624 -319.728972 
L 91.832688 -317.299674 
L 91.858905 -314.870376 
L 91.885083 -312.441078 
L 91.911021 -310.01178 
L 91.936512 -307.582482 
L 91.961345 -305.153184 
L 91.985309 -302.723886 
L 92.008198 -300.294587 
L 92.029811 -297.865289 
L 92.049963 -295.435991 
L 92.068478 -293.006693 
L 92.085204 -290.577395 
L 92.100006 -288.148097 
L 92.112776 -285.718799 
L 92.123433 -283.289501 
L 92.131922 -280.860203 
L 92.13822 -278.430905 
L 92.142332 -276.001607 
L 92.144294 -273.572309 
L 92.144171 -271.143011 
L 92.142055 -268.713713 
L 92.138064 -266.284415 
L 92.132338 -263.855117 
L 92.125035 -261.425819 
L 92.116331 -258.996521 
L 92.106413 -256.567223 
L 92.095474 -254.137925 
L 92.083712 -251.708627 
L 92.071321 -249.279329 
L 92.058492 -246.850031 
L 92.045406 -244.420733 
L 92.032229 -241.991435 
L 92.019113 -239.562136 
L 92.006189 -237.132838 
L 91.993568 -234.70354 
L 91.981338 -232.274242 
L 91.969565 -229.844944 
L 91.958288 -227.415646 
L 91.947527 -224.986348 
L 91.937276 -222.55705 
L 91.92751 -220.127752 
L 91.918187 -217.698454 
L 91.909248 -215.269156 
L 91.900619 -212.839858 
L 91.892219 -210.41056 
L 91.883958 -207.981262 
L 91.875744 -205.551964 
L 91.867484 -203.122666 
L 91.859087 -200.693368 
L 91.850468 -198.26407 
L 91.84155 -195.834772 
L 91.832266 -193.405474 
L 91.822561 -190.976176 
L 91.812393 -188.546878 
L 91.801734 -186.11758 
L 91.790572 -183.688282 
L 91.778907 -181.258984 
L 91.766755 -178.829685 
L 91.754145 -176.400387 
L 91.741118 -173.971089 
L 91.727727 -171.541791 
L 91.714033 -169.112493 
L 91.700104 -166.683195 
L 91.686017 -164.253897 
L 91.67185 -161.824599 
L 91.657683 -159.395301 
L 91.643596 -156.966003 
L 91.62967 -154.536705 
L 91.61598 -152.107407 
L 91.602597 -149.678109 
L 91.589589 -147.248811 
L 91.577012 -144.819513 
L 91.56492 -142.390215 
L 91.553357 -139.960917 
L 91.542358 -137.531619 
L 91.53195 -135.102321 
L 91.522154 -132.673023 
L 91.51298 -130.243725 
L 91.504434 -127.814427 
L 91.496512 -125.385129 
L 91.489205 -122.955831 
L 91.482498 -120.526533 
L 91.476374 -118.097235 
z
" style="stroke: #3d3d3d; stroke-width: 1.5"/>
    </defs>
    <g clip-path="url(#p2c1db27246)">
     <use xlink:href="#mf7a34b0d17" x="0" y="393.011865" style="fill: #e1812c; stroke: #3d3d3d; stroke-width: 1.5"/>
    </g>
   </g>
   <g id="PolyCollection_2">
    <defs>
     <path id="m3ef47bed3d" d="M 131.351131 -243.793535 
L 130.869419 -243.793535 
L 130.83786 -244.695503 
L 130.803355 -245.597471 
L 130.765813 -246.499438 
L 130.725167 -247.401406 
L 130.681383 -248.303373 
L 130.634459 -249.205341 
L 130.58443 -250.107309 
L 130.531372 -251.009276 
L 130.475406 -251.911244 
L 130.416697 -252.813212 
L 130.355457 -253.715179 
L 130.291948 -254.617147 
L 130.226477 -255.519114 
L 130.159399 -256.421082 
L 130.091112 -257.32305 
L 130.022055 -258.225017 
L 129.952701 -259.126985 
L 129.883553 -260.028952 
L 129.81514 -260.93092 
L 129.748003 -261.832888 
L 129.682692 -262.734855 
L 129.619755 -263.636823 
L 129.559729 -264.538791 
L 129.503128 -265.440758 
L 129.450439 -266.342726 
L 129.402107 -267.244693 
L 129.358529 -268.146661 
L 129.320047 -269.048629 
L 129.286938 -269.950596 
L 129.25941 -270.852564 
L 129.237599 -271.754531 
L 129.221562 -272.656499 
L 129.211281 -273.558467 
L 129.20666 -274.460434 
L 129.207528 -275.362402 
L 129.213642 -276.264369 
L 129.224694 -277.166337 
L 129.24032 -278.068305 
L 129.260102 -278.970272 
L 129.283583 -279.87224 
L 129.310276 -280.774208 
L 129.339673 -281.676175 
L 129.371257 -282.578143 
L 129.404514 -283.48011 
L 129.438943 -284.382078 
L 129.474067 -285.284046 
L 129.50944 -286.186013 
L 129.544658 -287.087981 
L 129.579367 -287.989948 
L 129.613263 -288.891916 
L 129.646103 -289.793884 
L 129.677703 -290.695851 
L 129.707941 -291.597819 
L 129.736755 -292.499787 
L 129.76414 -293.401754 
L 129.790148 -294.303722 
L 129.814878 -295.205689 
L 129.838474 -296.107657 
L 129.861117 -297.009625 
L 129.883014 -297.911592 
L 129.904397 -298.81356 
L 129.925506 -299.715527 
L 129.946588 -300.617495 
L 129.967888 -301.519463 
L 129.989637 -302.42143 
L 130.01205 -303.323398 
L 130.035319 -304.225365 
L 130.059606 -305.127333 
L 130.085044 -306.029301 
L 130.111727 -306.931268 
L 130.139714 -307.833236 
L 130.169027 -308.735204 
L 130.199651 -309.637171 
L 130.231534 -310.539139 
L 130.264592 -311.441106 
L 130.29871 -312.343074 
L 130.333747 -313.245042 
L 130.369538 -314.147009 
L 130.405903 -315.048977 
L 130.442647 -315.950944 
L 130.479566 -316.852912 
L 130.516452 -317.75488 
L 130.5531 -318.656847 
L 130.589308 -319.558815 
L 130.624883 -320.460783 
L 130.659645 -321.36275 
L 130.693426 -322.264718 
L 130.726079 -323.166685 
L 130.757473 -324.068653 
L 130.787499 -324.970621 
L 130.816066 -325.872588 
L 130.843107 -326.774556 
L 130.868572 -327.676523 
L 130.892434 -328.578491 
L 130.914682 -329.480459 
L 130.935323 -330.382426 
L 130.954381 -331.284394 
L 130.971892 -332.186361 
L 130.987904 -333.088329 
L 131.232645 -333.088329 
L 131.232645 -333.088329 
L 131.248658 -332.186361 
L 131.266169 -331.284394 
L 131.285226 -330.382426 
L 131.305868 -329.480459 
L 131.328116 -328.578491 
L 131.351977 -327.676523 
L 131.377443 -326.774556 
L 131.404483 -325.872588 
L 131.433051 -324.970621 
L 131.463076 -324.068653 
L 131.49447 -323.166685 
L 131.527123 -322.264718 
L 131.560905 -321.36275 
L 131.595666 -320.460783 
L 131.631241 -319.558815 
L 131.667449 -318.656847 
L 131.704097 -317.75488 
L 131.740984 -316.852912 
L 131.777902 -315.950944 
L 131.814646 -315.048977 
L 131.851011 -314.147009 
L 131.886803 -313.245042 
L 131.92184 -312.343074 
L 131.955958 -311.441106 
L 131.989016 -310.539139 
L 132.020899 -309.637171 
L 132.051522 -308.735204 
L 132.080836 -307.833236 
L 132.108823 -306.931268 
L 132.135506 -306.029301 
L 132.160943 -305.127333 
L 132.185231 -304.225365 
L 132.2085 -303.323398 
L 132.230913 -302.42143 
L 132.252662 -301.519463 
L 132.273961 -300.617495 
L 132.295044 -299.715527 
L 132.316153 -298.81356 
L 132.337535 -297.911592 
L 132.359433 -297.009625 
L 132.382075 -296.107657 
L 132.405672 -295.205689 
L 132.430402 -294.303722 
L 132.45641 -293.401754 
L 132.483795 -292.499787 
L 132.512608 -291.597819 
L 132.542846 -290.695851 
L 132.574446 -289.793884 
L 132.607286 -288.891916 
L 132.641183 -287.989948 
L 132.675891 -287.087981 
L 132.71111 -286.186013 
L 132.746483 -285.284046 
L 132.781606 -284.382078 
L 132.816036 -283.48011 
L 132.849293 -282.578143 
L 132.880877 -281.676175 
L 132.910273 -280.774208 
L 132.936966 -279.87224 
L 132.960448 -278.970272 
L 132.98023 -278.068305 
L 132.995855 -277.166337 
L 133.006908 -276.264369 
L 133.013022 -275.362402 
L 133.013889 -274.460434 
L 133.009268 -273.558467 
L 132.998987 -272.656499 
L 132.982951 -271.754531 
L 132.961139 -270.852564 
L 132.933612 -269.950596 
L 132.900502 -269.048629 
L 132.86202 -268.146661 
L 132.818443 -267.244693 
L 132.770111 -266.342726 
L 132.717421 -265.440758 
L 132.660821 -264.538791 
L 132.600794 -263.636823 
L 132.537857 -262.734855 
L 132.472546 -261.832888 
L 132.405409 -260.93092 
L 132.336996 -260.028952 
L 132.267849 -259.126985 
L 132.198495 -258.225017 
L 132.129437 -257.32305 
L 132.06115 -256.421082 
L 131.994072 -255.519114 
L 131.928602 -254.617147 
L 131.865092 -253.715179 
L 131.803853 -252.813212 
L 131.745143 -251.911244 
L 131.689177 -251.009276 
L 131.63612 -250.107309 
L 131.586091 -249.205341 
L 131.539166 -248.303373 
L 131.495383 -247.401406 
L 131.454737 -246.499438 
L 131.417194 -245.597471 
L 131.382689 -244.695503 
L 131.351131 -243.793535 
z
" style="stroke: #3d3d3d; stroke-width: 1.5"/>
    </defs>
    <g clip-path="url(#p2c1db27246)">
     <use xlink:href="#m3ef47bed3d" x="0" y="393.011865" style="fill: #d684bd; stroke: #3d3d3d; stroke-width: 1.5"/>
    </g>
   </g>
   <g id="PolyCollection_3">
    <defs>
     <path id="mf63f68d67f" d="M 170.840025 -122.335582 
L 170.740524 -122.335582 
L 170.733993 -124.561089 
L 170.726848 -126.786595 
L 170.719071 -129.012102 
L 170.710645 -131.237608 
L 170.701562 -133.463115 
L 170.691819 -135.688621 
L 170.68142 -137.914128 
L 170.670377 -140.139634 
L 170.658709 -142.36514 
L 170.646446 -144.590647 
L 170.633624 -146.816153 
L 170.620288 -149.04166 
L 170.606492 -151.267166 
L 170.592298 -153.492673 
L 170.577774 -155.718179 
L 170.562993 -157.943685 
L 170.548037 -160.169192 
L 170.532987 -162.394698 
L 170.517928 -164.620205 
L 170.502944 -166.845711 
L 170.488121 -169.071218 
L 170.473536 -171.296724 
L 170.459264 -173.522231 
L 170.445372 -175.747737 
L 170.431916 -177.973243 
L 170.418944 -180.19875 
L 170.406488 -182.424256 
L 170.394569 -184.649763 
L 170.383192 -186.875269 
L 170.372346 -189.100776 
L 170.362006 -191.326282 
L 170.352132 -193.551788 
L 170.342668 -195.777295 
L 170.333547 -198.002801 
L 170.324689 -200.228308 
L 170.316005 -202.453814 
L 170.307399 -204.679321 
L 170.298771 -206.904827 
L 170.290021 -209.130333 
L 170.28105 -211.35584 
L 170.271764 -213.581346 
L 170.26208 -215.806853 
L 170.251926 -218.032359 
L 170.241244 -220.257866 
L 170.229997 -222.483372 
L 170.218168 -224.708879 
L 170.205761 -226.934385 
L 170.192805 -229.159891 
L 170.179354 -231.385398 
L 170.165488 -233.610904 
L 170.15131 -235.836411 
L 170.136948 -238.061917 
L 170.122551 -240.287424 
L 170.108287 -242.51293 
L 170.094341 -244.738436 
L 170.080911 -246.963943 
L 170.068204 -249.189449 
L 170.056429 -251.414956 
L 170.0458 -253.640462 
L 170.036521 -255.865969 
L 170.028792 -258.091475 
L 170.022796 -260.316982 
L 170.0187 -262.542488 
L 170.01665 -264.767994 
L 170.016765 -266.993501 
L 170.019141 -269.219007 
L 170.023839 -271.444514 
L 170.030894 -273.67002 
L 170.040305 -275.895527 
L 170.052042 -278.121033 
L 170.066043 -280.346539 
L 170.082216 -282.572046 
L 170.100441 -284.797552 
L 170.120572 -287.023059 
L 170.142443 -289.248565 
L 170.165866 -291.474072 
L 170.190639 -293.699578 
L 170.216548 -295.925085 
L 170.243372 -298.150591 
L 170.270886 -300.376097 
L 170.298865 -302.601604 
L 170.327088 -304.82711 
L 170.355341 -307.052617 
L 170.383422 -309.278123 
L 170.411138 -311.50363 
L 170.438316 -313.729136 
L 170.464795 -315.954642 
L 170.490437 -318.180149 
L 170.515121 -320.405655 
L 170.538744 -322.631162 
L 170.561225 -324.856668 
L 170.582501 -327.082175 
L 170.60253 -329.307681 
L 170.621283 -331.533187 
L 170.638752 -333.758694 
L 170.654941 -335.9842 
L 170.669869 -338.209707 
L 170.683566 -340.435213 
L 170.696071 -342.66072 
L 170.884479 -342.66072 
L 170.884479 -342.66072 
L 170.896984 -340.435213 
L 170.910681 -338.209707 
L 170.925608 -335.9842 
L 170.941797 -333.758694 
L 170.959266 -331.533187 
L 170.97802 -329.307681 
L 170.998048 -327.082175 
L 171.019325 -324.856668 
L 171.041806 -322.631162 
L 171.065429 -320.405655 
L 171.090112 -318.180149 
L 171.115754 -315.954642 
L 171.142234 -313.729136 
L 171.169411 -311.50363 
L 171.197128 -309.278123 
L 171.225208 -307.052617 
L 171.253462 -304.82711 
L 171.281685 -302.601604 
L 171.309664 -300.376097 
L 171.337178 -298.150591 
L 171.364002 -295.925085 
L 171.389911 -293.699578 
L 171.414684 -291.474072 
L 171.438106 -289.248565 
L 171.459977 -287.023059 
L 171.480109 -284.797552 
L 171.498334 -282.572046 
L 171.514507 -280.346539 
L 171.528508 -278.121033 
L 171.540245 -275.895527 
L 171.549656 -273.67002 
L 171.55671 -271.444514 
L 171.561409 -269.219007 
L 171.563784 -266.993501 
L 171.5639 -264.767994 
L 171.56185 -262.542488 
L 171.557754 -260.316982 
L 171.551758 -258.091475 
L 171.544028 -255.865969 
L 171.53475 -253.640462 
L 171.52412 -251.414956 
L 171.512346 -249.189449 
L 171.499638 -246.963943 
L 171.486208 -244.738436 
L 171.472263 -242.51293 
L 171.457999 -240.287424 
L 171.443602 -238.061917 
L 171.429239 -235.836411 
L 171.415062 -233.610904 
L 171.401195 -231.385398 
L 171.387745 -229.159891 
L 171.374789 -226.934385 
L 171.362381 -224.708879 
L 171.350552 -222.483372 
L 171.339305 -220.257866 
L 171.328624 -218.032359 
L 171.318469 -215.806853 
L 171.308785 -213.581346 
L 171.299499 -211.35584 
L 171.290528 -209.130333 
L 171.281778 -206.904827 
L 171.273151 -204.679321 
L 171.264545 -202.453814 
L 171.255861 -200.228308 
L 171.247003 -198.002801 
L 171.237881 -195.777295 
L 171.228418 -193.551788 
L 171.218543 -191.326282 
L 171.208204 -189.100776 
L 171.197358 -186.875269 
L 171.18598 -184.649763 
L 171.174061 -182.424256 
L 171.161606 -180.19875 
L 171.148633 -177.973243 
L 171.135178 -175.747737 
L 171.121286 -173.522231 
L 171.107014 -171.296724 
L 171.092429 -169.071218 
L 171.077605 -166.845711 
L 171.062622 -164.620205 
L 171.047563 -162.394698 
L 171.032513 -160.169192 
L 171.017556 -157.943685 
L 171.002776 -155.718179 
L 170.988252 -153.492673 
L 170.974057 -151.267166 
L 170.960262 -149.04166 
L 170.946926 -146.816153 
L 170.934104 -144.590647 
L 170.92184 -142.36514 
L 170.910173 -140.139634 
L 170.899129 -137.914128 
L 170.88873 -135.688621 
L 170.878987 -133.463115 
L 170.869904 -131.237608 
L 170.861479 -129.012102 
L 170.853701 -126.786595 
L 170.846557 -124.561089 
L 170.840025 -122.335582 
z
" style="stroke: #3d3d3d; stroke-width: 1.5"/>
    </defs>
    <g clip-path="url(#p2c1db27246)">
     <use xlink:href="#mf63f68d67f" x="0" y="393.011865" style="fill: #f2a5a3; stroke: #3d3d3d; stroke-width: 1.5"/>
    </g>
   </g>
   <g id="PolyCollection_4">
    <defs>
     <path id="m9873159443" d="M 210.519213 -121.06098 
L 210.421336 -121.06098 
L 210.414828 -123.351396 
L 210.407702 -125.641813 
L 210.399936 -127.932229 
L 210.391516 -130.222646 
L 210.382432 -132.513062 
L 210.372681 -134.803478 
L 210.362267 -137.093895 
L 210.351204 -139.384311 
L 210.339511 -141.674728 
L 210.327217 -143.965144 
L 210.314362 -146.255561 
L 210.300991 -148.545977 
L 210.28716 -150.836394 
L 210.272933 -153.12681 
L 210.258378 -155.417227 
L 210.243572 -157.707643 
L 210.228596 -159.998059 
L 210.213534 -162.288476 
L 210.198471 -164.578892 
L 210.183495 -166.869309 
L 210.168688 -169.159725 
L 210.154129 -171.450142 
L 210.139893 -173.740558 
L 210.126044 -176.030975 
L 210.112638 -178.321391 
L 210.099718 -180.611807 
L 210.087315 -182.902224 
L 210.075446 -185.19264 
L 210.064111 -187.483057 
L 210.053296 -189.773473 
L 210.042972 -192.06389 
L 210.033094 -194.354306 
L 210.023603 -196.644723 
L 210.014428 -198.935139 
L 210.005488 -201.225555 
L 209.996691 -203.515972 
L 209.987941 -205.806388 
L 209.979141 -208.096805 
L 209.970192 -210.387221 
L 209.961 -212.677638 
L 209.951477 -214.968054 
L 209.941549 -217.258471 
L 209.931153 -219.548887 
L 209.920243 -221.839303 
L 209.908795 -224.12972 
L 209.896805 -226.420136 
L 209.884294 -228.710553 
L 209.871306 -231.000969 
L 209.857911 -233.291386 
L 209.844204 -235.581802 
L 209.830303 -237.872219 
L 209.816349 -240.162635 
L 209.802504 -242.453052 
L 209.788946 -244.743468 
L 209.775866 -247.033884 
L 209.763467 -249.324301 
L 209.751956 -251.614717 
L 209.741541 -253.905134 
L 209.732429 -256.19555 
L 209.724815 -258.485967 
L 209.718885 -260.776383 
L 209.714807 -263.0668 
L 209.712726 -265.357216 
L 209.712767 -267.647632 
L 209.715025 -269.938049 
L 209.719567 -272.228465 
L 209.726428 -274.518882 
L 209.735612 -276.809298 
L 209.747093 -279.099715 
L 209.76081 -281.390131 
L 209.776675 -283.680548 
L 209.79457 -285.970964 
L 209.814354 -288.26138 
L 209.835859 -290.551797 
L 209.858902 -292.842213 
L 209.883282 -295.13263 
L 209.908787 -297.423046 
L 209.935197 -299.713463 
L 209.962288 -302.003879 
L 209.989837 -304.294296 
L 210.017625 -306.584712 
L 210.045438 -308.875129 
L 210.073074 -311.165545 
L 210.100345 -313.455961 
L 210.127075 -315.746378 
L 210.153108 -318.036794 
L 210.178304 -320.327211 
L 210.202545 -322.617627 
L 210.225731 -324.908044 
L 210.24778 -327.19846 
L 210.268633 -329.488877 
L 210.288246 -331.779293 
L 210.306595 -334.069709 
L 210.323672 -336.360126 
L 210.339482 -338.650542 
L 210.354045 -340.940959 
L 210.367393 -343.231375 
L 210.379565 -345.521792 
L 210.390612 -347.812208 
L 210.549937 -347.812208 
L 210.549937 -347.812208 
L 210.560984 -345.521792 
L 210.573157 -343.231375 
L 210.586504 -340.940959 
L 210.601067 -338.650542 
L 210.616878 -336.360126 
L 210.633954 -334.069709 
L 210.652303 -331.779293 
L 210.671917 -329.488877 
L 210.692769 -327.19846 
L 210.714819 -324.908044 
L 210.738004 -322.617627 
L 210.762245 -320.327211 
L 210.787442 -318.036794 
L 210.813475 -315.746378 
L 210.840205 -313.455961 
L 210.867475 -311.165545 
L 210.895111 -308.875129 
L 210.922925 -306.584712 
L 210.950712 -304.294296 
L 210.978262 -302.003879 
L 211.005353 -299.713463 
L 211.031763 -297.423046 
L 211.057268 -295.13263 
L 211.081648 -292.842213 
L 211.104691 -290.551797 
L 211.126196 -288.26138 
L 211.145979 -285.970964 
L 211.163874 -283.680548 
L 211.179739 -281.390131 
L 211.193457 -279.099715 
L 211.204937 -276.809298 
L 211.214122 -274.518882 
L 211.220983 -272.228465 
L 211.225525 -269.938049 
L 211.227783 -267.647632 
L 211.227823 -265.357216 
L 211.225743 -263.0668 
L 211.221664 -260.776383 
L 211.215734 -258.485967 
L 211.208121 -256.19555 
L 211.199008 -253.905134 
L 211.188594 -251.614717 
L 211.177083 -249.324301 
L 211.164684 -247.033884 
L 211.151604 -244.743468 
L 211.138046 -242.453052 
L 211.1242 -240.162635 
L 211.110247 -237.872219 
L 211.096346 -235.581802 
L 211.082639 -233.291386 
L 211.069244 -231.000969 
L 211.056255 -228.710553 
L 211.043744 -226.420136 
L 211.031754 -224.12972 
L 211.020307 -221.839303 
L 211.009397 -219.548887 
L 210.999001 -217.258471 
L 210.989072 -214.968054 
L 210.97955 -212.677638 
L 210.970357 -210.387221 
L 210.961408 -208.096805 
L 210.952608 -205.806388 
L 210.943859 -203.515972 
L 210.935062 -201.225555 
L 210.926121 -198.935139 
L 210.916946 -196.644723 
L 210.907455 -194.354306 
L 210.897577 -192.06389 
L 210.887253 -189.773473 
L 210.876439 -187.483057 
L 210.865104 -185.19264 
L 210.853234 -182.902224 
L 210.840831 -180.611807 
L 210.827912 -178.321391 
L 210.814506 -176.030975 
L 210.800657 -173.740558 
L 210.78642 -171.450142 
L 210.771862 -169.159725 
L 210.757055 -166.869309 
L 210.742078 -164.578892 
L 210.727016 -162.288476 
L 210.711954 -159.998059 
L 210.696978 -157.707643 
L 210.682172 -155.417227 
L 210.667617 -153.12681 
L 210.653389 -150.836394 
L 210.639558 -148.545977 
L 210.626188 -146.255561 
L 210.613332 -143.965144 
L 210.601039 -141.674728 
L 210.589346 -139.384311 
L 210.578282 -137.093895 
L 210.567868 -134.803478 
L 210.558117 -132.513062 
L 210.549033 -130.222646 
L 210.540613 -127.932229 
L 210.532848 -125.641813 
L 210.525721 -123.351396 
L 210.519213 -121.06098 
z
" style="stroke: #3d3d3d; stroke-width: 1.5"/>
    </defs>
    <g clip-path="url(#p2c1db27246)">
     <use xlink:href="#m9873159443" x="0" y="393.011865" style="fill: #c03d3e; stroke: #3d3d3d; stroke-width: 1.5"/>
    </g>
   </g>
   <g id="PolyCollection_5">
    <defs>
     <path id="ma88ddc037c" d="M 250.196869 -116.67774 
L 250.10368 -116.67774 
L 250.097416 -119.108921 
L 250.090549 -121.540102 
L 250.083059 -123.971282 
L 250.07493 -126.402463 
L 250.066154 -128.833644 
L 250.056726 -131.264825 
L 250.04665 -133.696005 
L 250.03594 -136.127186 
L 250.024613 -138.558367 
L 250.0127 -140.989547 
L 250.000236 -143.420728 
L 249.987268 -145.851909 
L 249.973849 -148.283089 
L 249.96004 -150.71427 
L 249.945909 -153.145451 
L 249.931531 -155.576631 
L 249.916983 -158.007812 
L 249.902347 -160.438993 
L 249.887706 -162.870173 
L 249.873143 -165.301354 
L 249.858737 -167.732535 
L 249.844565 -170.163716 
L 249.830697 -172.594896 
L 249.817194 -175.026077 
L 249.804109 -177.457258 
L 249.791481 -179.888438 
L 249.77934 -182.319619 
L 249.767698 -184.7508 
L 249.756556 -187.18198 
L 249.745899 -189.613161 
L 249.735698 -192.044342 
L 249.725909 -194.475522 
L 249.716476 -196.906703 
L 249.707332 -199.337884 
L 249.698401 -201.769064 
L 249.6896 -204.200245 
L 249.680841 -206.631426 
L 249.672035 -209.062607 
L 249.663095 -211.493787 
L 249.653941 -213.924968 
L 249.644498 -216.356149 
L 249.634706 -218.787329 
L 249.624516 -221.21851 
L 249.613899 -223.649691 
L 249.602843 -226.080871 
L 249.59136 -228.512052 
L 249.579482 -230.943233 
L 249.567265 -233.374413 
L 249.554787 -235.805594 
L 249.54215 -238.236775 
L 249.529477 -240.667955 
L 249.516909 -243.099136 
L 249.504604 -245.530317 
L 249.492735 -247.961498 
L 249.481483 -250.392678 
L 249.471037 -252.823859 
L 249.461587 -255.25504 
L 249.453323 -257.68622 
L 249.446426 -260.117401 
L 249.441067 -262.548582 
L 249.437404 -264.979762 
L 249.435574 -267.410943 
L 249.435695 -269.842124 
L 249.437859 -272.273304 
L 249.442132 -274.704485 
L 249.448551 -277.135666 
L 249.457124 -279.566846 
L 249.46783 -281.998027 
L 249.480619 -284.429208 
L 249.495412 -286.860389 
L 249.512104 -289.291569 
L 249.530566 -291.72275 
L 249.550647 -294.153931 
L 249.572179 -296.585111 
L 249.594977 -299.016292 
L 249.618846 -301.447473 
L 249.643583 -303.878653 
L 249.668978 -306.309834 
L 249.694826 -308.741015 
L 249.720919 -311.172195 
L 249.747059 -313.603376 
L 249.773057 -316.034557 
L 249.798733 -318.465737 
L 249.823923 -320.896918 
L 249.848478 -323.328099 
L 249.872267 -325.75928 
L 249.895174 -328.19046 
L 249.917104 -330.621641 
L 249.937979 -333.052822 
L 249.95774 -335.484002 
L 249.976343 -337.915183 
L 249.993763 -340.346364 
L 250.00999 -342.777544 
L 250.025028 -345.208725 
L 250.038892 -347.639906 
L 250.05161 -350.071086 
L 250.06322 -352.502267 
L 250.073766 -354.933448 
L 250.083299 -357.364628 
L 250.217251 -357.364628 
L 250.217251 -357.364628 
L 250.226784 -354.933448 
L 250.237329 -352.502267 
L 250.248939 -350.071086 
L 250.261658 -347.639906 
L 250.275522 -345.208725 
L 250.29056 -342.777544 
L 250.306787 -340.346364 
L 250.324207 -337.915183 
L 250.34281 -335.484002 
L 250.36257 -333.052822 
L 250.383445 -330.621641 
L 250.405375 -328.19046 
L 250.428283 -325.75928 
L 250.452071 -323.328099 
L 250.476627 -320.896918 
L 250.501817 -318.465737 
L 250.527493 -316.034557 
L 250.55349 -313.603376 
L 250.579631 -311.172195 
L 250.605724 -308.741015 
L 250.631571 -306.309834 
L 250.656967 -303.878653 
L 250.681703 -301.447473 
L 250.705572 -299.016292 
L 250.72837 -296.585111 
L 250.749902 -294.153931 
L 250.769984 -291.72275 
L 250.788446 -289.291569 
L 250.805138 -286.860389 
L 250.81993 -284.429208 
L 250.832719 -281.998027 
L 250.843425 -279.566846 
L 250.851998 -277.135666 
L 250.858417 -274.704485 
L 250.86269 -272.273304 
L 250.864854 -269.842124 
L 250.864975 -267.410943 
L 250.863146 -264.979762 
L 250.859483 -262.548582 
L 250.854124 -260.117401 
L 250.847227 -257.68622 
L 250.838962 -255.25504 
L 250.829513 -252.823859 
L 250.819067 -250.392678 
L 250.807815 -247.961498 
L 250.795945 -245.530317 
L 250.783641 -243.099136 
L 250.771072 -240.667955 
L 250.758399 -238.236775 
L 250.745762 -235.805594 
L 250.733285 -233.374413 
L 250.721067 -230.943233 
L 250.709189 -228.512052 
L 250.697706 -226.080871 
L 250.686651 -223.649691 
L 250.676033 -221.21851 
L 250.665844 -218.787329 
L 250.656051 -216.356149 
L 250.646608 -213.924968 
L 250.637454 -211.493787 
L 250.628515 -209.062607 
L 250.619709 -206.631426 
L 250.61095 -204.200245 
L 250.602148 -201.769064 
L 250.593217 -199.337884 
L 250.584074 -196.906703 
L 250.574641 -194.475522 
L 250.564852 -192.044342 
L 250.55465 -189.613161 
L 250.543993 -187.18198 
L 250.532852 -184.7508 
L 250.52121 -182.319619 
L 250.509068 -179.888438 
L 250.496441 -177.457258 
L 250.483355 -175.026077 
L 250.469853 -172.594896 
L 250.455984 -170.163716 
L 250.441812 -167.732535 
L 250.427407 -165.301354 
L 250.412843 -162.870173 
L 250.398202 -160.438993 
L 250.383566 -158.007812 
L 250.369019 -155.576631 
L 250.35464 -153.145451 
L 250.34051 -150.71427 
L 250.326701 -148.283089 
L 250.313281 -145.851909 
L 250.300313 -143.420728 
L 250.28785 -140.989547 
L 250.275936 -138.558367 
L 250.26461 -136.127186 
L 250.253899 -133.696005 
L 250.243824 -131.264825 
L 250.234396 -128.833644 
L 250.225619 -126.402463 
L 250.217491 -123.971282 
L 250.210001 -121.540102 
L 250.203134 -119.108921 
L 250.196869 -116.67774 
z
" style="stroke: #3d3d3d; stroke-width: 1.5"/>
    </defs>
    <g clip-path="url(#p2c1db27246)">
     <use xlink:href="#ma88ddc037c" x="0" y="393.011865" style="fill: #3274a1; stroke: #3d3d3d; stroke-width: 1.5"/>
    </g>
   </g>
   <g id="PolyCollection_6">
    <defs>
     <path id="mfa16641a53" d="M 290.190152 -244.802197 
L 289.470397 -244.802197 
L 289.418494 -245.163709 
L 289.360948 -245.525221 
L 289.297443 -245.886733 
L 289.227694 -246.248246 
L 289.151447 -246.609758 
L 289.068495 -246.97127 
L 288.978681 -247.332782 
L 288.881907 -247.694294 
L 288.778143 -248.055807 
L 288.667431 -248.417319 
L 288.549895 -248.778831 
L 288.425743 -249.140343 
L 288.295271 -249.501855 
L 288.158869 -249.863368 
L 288.017018 -250.22488 
L 287.870291 -250.586392 
L 287.719352 -250.947904 
L 287.564949 -251.309416 
L 287.407909 -251.670929 
L 287.24913 -252.032441 
L 287.089571 -252.393953 
L 286.930239 -252.755465 
L 286.772178 -253.116977 
L 286.616453 -253.47849 
L 286.464135 -253.840002 
L 286.316283 -254.201514 
L 286.173931 -254.563026 
L 286.038068 -254.924538 
L 285.909624 -255.286051 
L 285.789454 -255.647563 
L 285.67832 -256.009075 
L 285.576886 -256.370587 
L 285.485699 -256.732099 
L 285.405185 -257.093612 
L 285.335641 -257.455124 
L 285.277231 -257.816636 
L 285.229985 -258.178148 
L 285.193803 -258.53966 
L 285.168455 -258.901172 
L 285.153595 -259.262685 
L 285.148763 -259.624197 
L 285.153407 -259.985709 
L 285.166888 -260.347221 
L 285.188503 -260.708733 
L 285.217502 -261.070246 
L 285.253103 -261.431758 
L 285.294514 -261.79327 
L 285.34095 -262.154782 
L 285.391654 -262.516294 
L 285.445911 -262.877807 
L 285.503063 -263.239319 
L 285.562526 -263.600831 
L 285.623796 -263.962343 
L 285.68646 -264.323855 
L 285.750203 -264.685368 
L 285.814802 -265.04688 
L 285.880135 -265.408392 
L 285.94617 -265.769904 
L 286.01296 -266.131416 
L 286.080633 -266.492929 
L 286.149383 -266.854441 
L 286.219451 -267.215953 
L 286.291115 -267.577465 
L 286.364672 -267.938977 
L 286.440422 -268.30049 
L 286.518653 -268.662002 
L 286.599626 -269.023514 
L 286.68356 -269.385026 
L 286.770623 -269.746538 
L 286.860917 -270.108051 
L 286.954478 -270.469563 
L 287.051262 -270.831075 
L 287.151151 -271.192587 
L 287.253945 -271.554099 
L 287.359373 -271.915612 
L 287.467089 -272.277124 
L 287.576689 -272.638636 
L 287.68771 -273.000148 
L 287.799646 -273.36166 
L 287.911959 -273.723173 
L 288.024089 -274.084685 
L 288.135467 -274.446197 
L 288.245526 -274.807709 
L 288.353715 -275.169221 
L 288.459506 -275.530734 
L 288.562407 -275.892246 
L 288.661969 -276.253758 
L 288.75779 -276.61527 
L 288.849526 -276.976782 
L 288.936888 -277.338295 
L 289.01965 -277.699807 
L 289.097644 -278.061319 
L 289.170764 -278.422831 
L 289.23896 -278.784343 
L 289.302236 -279.145856 
L 289.360649 -279.507368 
L 289.414297 -279.86888 
L 289.46332 -280.230392 
L 289.507893 -280.591904 
L 290.152657 -280.591904 
L 290.152657 -280.591904 
L 290.197229 -280.230392 
L 290.246253 -279.86888 
L 290.299901 -279.507368 
L 290.358313 -279.145856 
L 290.42159 -278.784343 
L 290.489786 -278.422831 
L 290.562905 -278.061319 
L 290.6409 -277.699807 
L 290.723661 -277.338295 
L 290.811024 -276.976782 
L 290.902759 -276.61527 
L 290.998581 -276.253758 
L 291.098142 -275.892246 
L 291.201044 -275.530734 
L 291.306835 -275.169221 
L 291.415024 -274.807709 
L 291.525083 -274.446197 
L 291.63646 -274.084685 
L 291.74859 -273.723173 
L 291.860903 -273.36166 
L 291.97284 -273.000148 
L 292.083861 -272.638636 
L 292.19346 -272.277124 
L 292.301177 -271.915612 
L 292.406604 -271.554099 
L 292.509399 -271.192587 
L 292.609287 -270.831075 
L 292.706072 -270.469563 
L 292.799632 -270.108051 
L 292.889927 -269.746538 
L 292.976989 -269.385026 
L 293.060923 -269.023514 
L 293.141896 -268.662002 
L 293.220127 -268.30049 
L 293.295878 -267.938977 
L 293.369434 -267.577465 
L 293.441099 -267.215953 
L 293.511167 -266.854441 
L 293.579916 -266.492929 
L 293.64759 -266.131416 
L 293.71438 -265.769904 
L 293.780414 -265.408392 
L 293.845747 -265.04688 
L 293.910347 -264.685368 
L 293.974089 -264.323855 
L 294.036754 -263.962343 
L 294.098024 -263.600831 
L 294.157487 -263.239319 
L 294.214639 -262.877807 
L 294.268896 -262.516294 
L 294.3196 -262.154782 
L 294.366036 -261.79327 
L 294.407447 -261.431758 
L 294.443047 -261.070246 
L 294.472046 -260.708733 
L 294.493662 -260.347221 
L 294.507143 -259.985709 
L 294.511786 -259.624197 
L 294.506955 -259.262685 
L 294.492094 -258.901172 
L 294.466747 -258.53966 
L 294.430565 -258.178148 
L 294.383319 -257.816636 
L 294.324909 -257.455124 
L 294.255365 -257.093612 
L 294.174851 -256.732099 
L 294.083664 -256.370587 
L 293.982229 -256.009075 
L 293.871096 -255.647563 
L 293.750925 -255.286051 
L 293.622481 -254.924538 
L 293.486619 -254.563026 
L 293.344267 -254.201514 
L 293.196415 -253.840002 
L 293.044096 -253.47849 
L 292.888371 -253.116977 
L 292.73031 -252.755465 
L 292.570979 -252.393953 
L 292.41142 -252.032441 
L 292.252641 -251.670929 
L 292.095601 -251.309416 
L 291.941198 -250.947904 
L 291.790259 -250.586392 
L 291.643532 -250.22488 
L 291.501681 -249.863368 
L 291.365278 -249.501855 
L 291.234807 -249.140343 
L 291.110654 -248.778831 
L 290.993118 -248.417319 
L 290.882407 -248.055807 
L 290.778643 -247.694294 
L 290.681869 -247.332782 
L 290.592055 -246.97127 
L 290.509103 -246.609758 
L 290.432856 -246.248246 
L 290.363106 -245.886733 
L 290.299602 -245.525221 
L 290.242056 -245.163709 
L 290.190152 -244.802197 
z
" style="stroke: #3d3d3d; stroke-width: 1.5"/>
    </defs>
    <g clip-path="url(#p2c1db27246)">
     <use xlink:href="#mfa16641a53" x="0" y="393.011865" style="fill: #c7c7c7; stroke: #3d3d3d; stroke-width: 1.5"/>
    </g>
   </g>
   <g id="PolyCollection_7">
    <defs>
     <path id="mc041b0d518" d="M 330.658451 -250.889832 
L 328.362098 -250.889832 
L 328.200663 -250.993704 
L 328.022587 -251.097577 
L 327.827114 -251.20145 
L 327.613596 -251.305322 
L 327.381514 -251.409195 
L 327.130498 -251.513067 
L 326.860346 -251.61694 
L 326.57104 -251.720813 
L 326.262761 -251.824685 
L 325.935902 -251.928558 
L 325.591071 -252.032431 
L 325.229099 -252.136303 
L 324.851036 -252.240176 
L 324.458144 -252.344049 
L 324.051885 -252.447921 
L 323.633908 -252.551794 
L 323.206026 -252.655667 
L 322.77019 -252.759539 
L 322.328459 -252.863412 
L 321.88297 -252.967285 
L 321.435905 -253.071157 
L 320.98945 -253.17503 
L 320.545763 -253.278903 
L 320.106941 -253.382775 
L 319.67498 -253.486648 
L 319.251753 -253.59052 
L 318.838977 -253.694393 
L 318.438196 -253.798266 
L 318.050761 -253.902138 
L 317.677821 -254.006011 
L 317.32032 -254.109884 
L 316.978994 -254.213756 
L 316.654381 -254.317629 
L 316.346834 -254.421502 
L 316.056536 -254.525374 
L 315.783525 -254.629247 
L 315.527715 -254.73312 
L 315.288928 -254.836992 
L 315.06692 -254.940865 
L 314.861411 -255.044738 
L 314.672116 -255.14861 
L 314.498768 -255.252483 
L 314.341148 -255.356355 
L 314.199105 -255.460228 
L 314.072572 -255.564101 
L 313.961585 -255.667973 
L 313.86629 -255.771846 
L 313.786948 -255.875719 
L 313.723935 -255.979591 
L 313.677742 -256.083464 
L 313.648961 -256.187337 
L 313.638275 -256.291209 
L 313.646442 -256.395082 
L 313.674276 -256.498955 
L 313.72262 -256.602827 
L 313.792328 -256.7067 
L 313.884232 -256.810573 
L 313.999119 -256.914445 
L 314.137702 -257.018318 
L 314.300592 -257.122191 
L 314.488271 -257.226063 
L 314.701068 -257.329936 
L 314.939132 -257.433808 
L 315.202419 -257.537681 
L 315.490668 -257.641554 
L 315.803388 -257.745426 
L 316.139854 -257.849299 
L 316.499098 -257.953172 
L 316.879909 -258.057044 
L 317.280844 -258.160917 
L 317.70023 -258.26479 
L 318.136185 -258.368662 
L 318.586637 -258.472535 
L 319.049348 -258.576408 
L 319.521942 -258.68028 
L 320.001936 -258.784153 
L 320.486775 -258.888026 
L 320.973868 -258.991898 
L 321.460623 -259.095771 
L 321.944485 -259.199644 
L 322.42297 -259.303516 
L 322.8937 -259.407389 
L 323.354435 -259.511261 
L 323.803101 -259.615134 
L 324.237811 -259.719007 
L 324.656891 -259.822879 
L 325.058888 -259.926752 
L 325.442587 -260.030625 
L 325.807012 -260.134497 
L 326.15143 -260.23837 
L 326.475346 -260.342243 
L 326.778492 -260.446115 
L 327.06082 -260.549988 
L 327.322486 -260.653861 
L 327.563829 -260.757733 
L 327.785355 -260.861606 
L 327.987713 -260.965479 
L 328.171677 -261.069351 
L 328.338118 -261.173224 
L 330.682431 -261.173224 
L 330.682431 -261.173224 
L 330.848873 -261.069351 
L 331.032836 -260.965479 
L 331.235195 -260.861606 
L 331.456721 -260.757733 
L 331.698064 -260.653861 
L 331.959729 -260.549988 
L 332.242058 -260.446115 
L 332.545204 -260.342243 
L 332.869119 -260.23837 
L 333.213537 -260.134497 
L 333.577963 -260.030625 
L 333.961662 -259.926752 
L 334.363659 -259.822879 
L 334.782738 -259.719007 
L 335.217449 -259.615134 
L 335.666114 -259.511261 
L 336.12685 -259.407389 
L 336.59758 -259.303516 
L 337.076065 -259.199644 
L 337.559926 -259.095771 
L 338.046681 -258.991898 
L 338.533774 -258.888026 
L 339.018614 -258.784153 
L 339.498608 -258.68028 
L 339.971201 -258.576408 
L 340.433912 -258.472535 
L 340.884365 -258.368662 
L 341.32032 -258.26479 
L 341.739706 -258.160917 
L 342.14064 -258.057044 
L 342.521452 -257.953172 
L 342.880696 -257.849299 
L 343.217162 -257.745426 
L 343.529882 -257.641554 
L 343.81813 -257.537681 
L 344.081417 -257.433808 
L 344.319482 -257.329936 
L 344.532278 -257.226063 
L 344.719957 -257.122191 
L 344.882847 -257.018318 
L 345.021431 -256.914445 
L 345.136318 -256.810573 
L 345.228222 -256.7067 
L 345.297929 -256.602827 
L 345.346273 -256.498955 
L 345.374107 -256.395082 
L 345.382275 -256.291209 
L 345.371589 -256.187337 
L 345.342808 -256.083464 
L 345.296614 -255.979591 
L 345.233602 -255.875719 
L 345.154259 -255.771846 
L 345.058964 -255.667973 
L 344.947977 -255.564101 
L 344.821445 -255.460228 
L 344.679401 -255.356355 
L 344.521782 -255.252483 
L 344.348434 -255.14861 
L 344.159138 -255.044738 
L 343.95363 -254.940865 
L 343.731622 -254.836992 
L 343.492835 -254.73312 
L 343.237025 -254.629247 
L 342.964013 -254.525374 
L 342.673715 -254.421502 
L 342.366168 -254.317629 
L 342.041556 -254.213756 
L 341.70023 -254.109884 
L 341.342728 -254.006011 
L 340.969789 -253.902138 
L 340.582354 -253.798266 
L 340.181573 -253.694393 
L 339.768797 -253.59052 
L 339.345569 -253.486648 
L 338.913609 -253.382775 
L 338.474786 -253.278903 
L 338.0311 -253.17503 
L 337.584645 -253.071157 
L 337.137579 -252.967285 
L 336.692091 -252.863412 
L 336.25036 -252.759539 
L 335.814523 -252.655667 
L 335.386641 -252.551794 
L 334.968665 -252.447921 
L 334.562406 -252.344049 
L 334.169513 -252.240176 
L 333.79145 -252.136303 
L 333.429479 -252.032431 
L 333.084648 -251.928558 
L 332.757789 -251.824685 
L 332.44951 -251.720813 
L 332.160204 -251.61694 
L 331.890052 -251.513067 
L 331.639036 -251.409195 
L 331.406954 -251.305322 
L 331.193436 -251.20145 
L 330.997963 -251.097577 
L 330.819886 -250.993704 
L 330.658451 -250.889832 
z
" style="stroke: #3d3d3d; stroke-width: 1.5"/>
    </defs>
    <g clip-path="url(#p2c1db27246)">
     <use xlink:href="#mc041b0d518" x="0" y="393.011865" style="fill: #d1d197; stroke: #3d3d3d; stroke-width: 1.5"/>
    </g>
   </g>
   <g id="PolyCollection_8">
    <defs>
     <path id="m2c289e9a49" d="M 370.841217 -251.489258 
L 367.539333 -251.489258 
L 367.31424 -251.606441 
L 367.066807 -251.723624 
L 366.796147 -251.840807 
L 366.501549 -251.95799 
L 366.182507 -252.075173 
L 365.838755 -252.192356 
L 365.470298 -252.309539 
L 365.07744 -252.426722 
L 364.660814 -252.543905 
L 364.221403 -252.661088 
L 363.760554 -252.778271 
L 363.279994 -252.895454 
L 362.781833 -253.012637 
L 362.268557 -253.12982 
L 361.74302 -253.247003 
L 361.208422 -253.364186 
L 360.668278 -253.481369 
L 360.126382 -253.598552 
L 359.586757 -253.715734 
L 359.053602 -253.832917 
L 358.531228 -253.9501 
L 358.02399 -254.067283 
L 357.536215 -254.184466 
L 357.072123 -254.301649 
L 356.635755 -254.418832 
L 356.230892 -254.536015 
L 355.860981 -254.653198 
L 355.529071 -254.770381 
L 355.237743 -254.887564 
L 354.989064 -255.004747 
L 354.784537 -255.12193 
L 354.625072 -255.239113 
L 354.510966 -255.356296 
L 354.441897 -255.473479 
L 354.416931 -255.590662 
L 354.434546 -255.707845 
L 354.492666 -255.825028 
L 354.588709 -255.942211 
L 354.719648 -256.059394 
L 354.88208 -256.176577 
L 355.072302 -256.29376 
L 355.2864 -256.410943 
L 355.520331 -256.528126 
L 355.770018 -256.645309 
L 356.031436 -256.762492 
L 356.300695 -256.879675 
L 356.574126 -256.996858 
L 356.848347 -257.114041 
L 357.12033 -257.231224 
L 357.387452 -257.348407 
L 357.647533 -257.46559 
L 357.898868 -257.582773 
L 358.140236 -257.699956 
L 358.370903 -257.817139 
L 358.590608 -257.934322 
L 358.799543 -258.051505 
L 358.998312 -258.168688 
L 359.18789 -258.28587 
L 359.369569 -258.403053 
L 359.544897 -258.520236 
L 359.715619 -258.637419 
L 359.883604 -258.754602 
L 360.050787 -258.871785 
L 360.219097 -258.988968 
L 360.390401 -259.106151 
L 360.566442 -259.223334 
L 360.748797 -259.340517 
L 360.938823 -259.4577 
L 361.137634 -259.574883 
L 361.346065 -259.692066 
L 361.564662 -259.809249 
L 361.793672 -259.926432 
L 362.033042 -260.043615 
L 362.282431 -260.160798 
L 362.541225 -260.277981 
L 362.80856 -260.395164 
L 363.083354 -260.512347 
L 363.364332 -260.62953 
L 363.650071 -260.746713 
L 363.939032 -260.863896 
L 364.229602 -260.981079 
L 364.520129 -261.098262 
L 364.808963 -261.215445 
L 365.094487 -261.332628 
L 365.375149 -261.449811 
L 365.649491 -261.566994 
L 365.916172 -261.684177 
L 366.173987 -261.80136 
L 366.421881 -261.918543 
L 366.658961 -262.035726 
L 366.884498 -262.152909 
L 367.097932 -262.270092 
L 367.298869 -262.387275 
L 367.487071 -262.504458 
L 367.662455 -262.621641 
L 367.825076 -262.738824 
L 367.975113 -262.856006 
L 368.112863 -262.973189 
L 368.238715 -263.090372 
L 370.141835 -263.090372 
L 370.141835 -263.090372 
L 370.267687 -262.973189 
L 370.405436 -262.856006 
L 370.555474 -262.738824 
L 370.718094 -262.621641 
L 370.893478 -262.504458 
L 371.081681 -262.387275 
L 371.282617 -262.270092 
L 371.496052 -262.152909 
L 371.721589 -262.035726 
L 371.958668 -261.918543 
L 372.206562 -261.80136 
L 372.464377 -261.684177 
L 372.731058 -261.566994 
L 373.005401 -261.449811 
L 373.286062 -261.332628 
L 373.571586 -261.215445 
L 373.86042 -261.098262 
L 374.150948 -260.981079 
L 374.441518 -260.863896 
L 374.730479 -260.746713 
L 375.016218 -260.62953 
L 375.297196 -260.512347 
L 375.571989 -260.395164 
L 375.839325 -260.277981 
L 376.098119 -260.160798 
L 376.347508 -260.043615 
L 376.586878 -259.926432 
L 376.815887 -259.809249 
L 377.034485 -259.692066 
L 377.242916 -259.574883 
L 377.441726 -259.4577 
L 377.631753 -259.340517 
L 377.814107 -259.223334 
L 377.990149 -259.106151 
L 378.161452 -258.988968 
L 378.329762 -258.871785 
L 378.496945 -258.754602 
L 378.664931 -258.637419 
L 378.835652 -258.520236 
L 379.010981 -258.403053 
L 379.19266 -258.28587 
L 379.382238 -258.168688 
L 379.581007 -258.051505 
L 379.789941 -257.934322 
L 380.009647 -257.817139 
L 380.240313 -257.699956 
L 380.481681 -257.582773 
L 380.733016 -257.46559 
L 380.993098 -257.348407 
L 381.26022 -257.231224 
L 381.532203 -257.114041 
L 381.806424 -256.996858 
L 382.079854 -256.879675 
L 382.349114 -256.762492 
L 382.610531 -256.645309 
L 382.860219 -256.528126 
L 383.09415 -256.410943 
L 383.308247 -256.29376 
L 383.49847 -256.176577 
L 383.660901 -256.059394 
L 383.79184 -255.942211 
L 383.887883 -255.825028 
L 383.946003 -255.707845 
L 383.963619 -255.590662 
L 383.938653 -255.473479 
L 383.869583 -255.356296 
L 383.755477 -255.239113 
L 383.596012 -255.12193 
L 383.391485 -255.004747 
L 383.142806 -254.887564 
L 382.851479 -254.770381 
L 382.519568 -254.653198 
L 382.149658 -254.536015 
L 381.744794 -254.418832 
L 381.308427 -254.301649 
L 380.844335 -254.184466 
L 380.356559 -254.067283 
L 379.849321 -253.9501 
L 379.326947 -253.832917 
L 378.793792 -253.715734 
L 378.254167 -253.598552 
L 377.712271 -253.481369 
L 377.172128 -253.364186 
L 376.637529 -253.247003 
L 376.111992 -253.12982 
L 375.598716 -253.012637 
L 375.100555 -252.895454 
L 374.619996 -252.778271 
L 374.159147 -252.661088 
L 373.719735 -252.543905 
L 373.30311 -252.426722 
L 372.910252 -252.309539 
L 372.541794 -252.192356 
L 372.198042 -252.075173 
L 371.879 -251.95799 
L 371.584402 -251.840807 
L 371.313743 -251.723624 
L 371.066309 -251.606441 
L 370.841217 -251.489258 
z
" style="stroke: #3d3d3d; stroke-width: 1.5"/>
    </defs>
    <g clip-path="url(#p2c1db27246)">
     <use xlink:href="#m2c289e9a49" x="0" y="393.011865" style="fill: #3a923a; stroke: #3d3d3d; stroke-width: 1.5"/>
    </g>
   </g>
   <g id="PolyCollection_9">
    <defs>
     <path id="mee55858fe8" d="M 408.985305 -133.445492 
L 408.755244 -133.445492 
L 408.740129 -135.319456 
L 408.723595 -137.19342 
L 408.705599 -139.067384 
L 408.686108 -140.941348 
L 408.665105 -142.815313 
L 408.642586 -144.689277 
L 408.618569 -146.563241 
L 408.593088 -148.437205 
L 408.566201 -150.311169 
L 408.537985 -152.185133 
L 408.508542 -154.059097 
L 408.477996 -155.933061 
L 408.446494 -157.807025 
L 408.414207 -159.680989 
L 408.381326 -161.554953 
L 408.34806 -163.428917 
L 408.314637 -165.302881 
L 408.2813 -167.176845 
L 408.248303 -169.05081 
L 408.215907 -170.924774 
L 408.184377 -172.798738 
L 408.153977 -174.672702 
L 408.124968 -176.546666 
L 408.097598 -178.42063 
L 408.072102 -180.294594 
L 408.048698 -182.168558 
L 408.027576 -184.042522 
L 408.008905 -185.916486 
L 407.992819 -187.79045 
L 407.97942 -189.664414 
L 407.968775 -191.538378 
L 407.960915 -193.412342 
L 407.955832 -195.286307 
L 407.953481 -197.160271 
L 407.953781 -199.034235 
L 407.956616 -200.908199 
L 407.961841 -202.782163 
L 407.969279 -204.656127 
L 407.978731 -206.530091 
L 407.989975 -208.404055 
L 408.002779 -210.278019 
L 408.016896 -212.151983 
L 408.032079 -214.025947 
L 408.048078 -215.899911 
L 408.064651 -217.773875 
L 408.081568 -219.647839 
L 408.098612 -221.521804 
L 408.11559 -223.395768 
L 408.132327 -225.269732 
L 408.148677 -227.143696 
L 408.164522 -229.01766 
L 408.179771 -230.891624 
L 408.194366 -232.765588 
L 408.208274 -234.639552 
L 408.221493 -236.513516 
L 408.234048 -238.38748 
L 408.245984 -240.261444 
L 408.257372 -242.135408 
L 408.268298 -244.009372 
L 408.278861 -245.883336 
L 408.289174 -247.7573 
L 408.299351 -249.631265 
L 408.309513 -251.505229 
L 408.319776 -253.379193 
L 408.330254 -255.253157 
L 408.34105 -257.127121 
L 408.352257 -259.001085 
L 408.363953 -260.875049 
L 408.376203 -262.749013 
L 408.389053 -264.622977 
L 408.402531 -266.496941 
L 408.416649 -268.370905 
L 408.431399 -270.244869 
L 408.446757 -272.118833 
L 408.462682 -273.992797 
L 408.479119 -275.866762 
L 408.496001 -277.740726 
L 408.513248 -279.61469 
L 408.530772 -281.488654 
L 408.548481 -283.362618 
L 408.566275 -285.236582 
L 408.584054 -287.110546 
L 408.60172 -288.98451 
L 408.619174 -290.858474 
L 408.636324 -292.732438 
L 408.653083 -294.606402 
L 408.669369 -296.480366 
L 408.685112 -298.35433 
L 408.700248 -300.228294 
L 408.714724 -302.102259 
L 408.728497 -303.976223 
L 408.741534 -305.850187 
L 408.753811 -307.724151 
L 408.765315 -309.598115 
L 408.77604 -311.472079 
L 408.78599 -313.346043 
L 408.795177 -315.220007 
L 408.803618 -317.093971 
L 408.811336 -318.967935 
L 408.929214 -318.967935 
L 408.929214 -318.967935 
L 408.936932 -317.093971 
L 408.945372 -315.220007 
L 408.954559 -313.346043 
L 408.96451 -311.472079 
L 408.975235 -309.598115 
L 408.986739 -307.724151 
L 408.999016 -305.850187 
L 409.012052 -303.976223 
L 409.025825 -302.102259 
L 409.040302 -300.228294 
L 409.055438 -298.35433 
L 409.07118 -296.480366 
L 409.087467 -294.606402 
L 409.104225 -292.732438 
L 409.121375 -290.858474 
L 409.13883 -288.98451 
L 409.156495 -287.110546 
L 409.174275 -285.236582 
L 409.192069 -283.362618 
L 409.209777 -281.488654 
L 409.227302 -279.61469 
L 409.244549 -277.740726 
L 409.26143 -275.866762 
L 409.277868 -273.992797 
L 409.293793 -272.118833 
L 409.309151 -270.244869 
L 409.323901 -268.370905 
L 409.338018 -266.496941 
L 409.351497 -264.622977 
L 409.364347 -262.749013 
L 409.376596 -260.875049 
L 409.388293 -259.001085 
L 409.399499 -257.127121 
L 409.410295 -255.253157 
L 409.420773 -253.379193 
L 409.431037 -251.505229 
L 409.441199 -249.631265 
L 409.451376 -247.7573 
L 409.461688 -245.883336 
L 409.472252 -244.009372 
L 409.483177 -242.135408 
L 409.494565 -240.261444 
L 409.506502 -238.38748 
L 409.519056 -236.513516 
L 409.532276 -234.639552 
L 409.546184 -232.765588 
L 409.560778 -230.891624 
L 409.576028 -229.01766 
L 409.591873 -227.143696 
L 409.608223 -225.269732 
L 409.62496 -223.395768 
L 409.641937 -221.521804 
L 409.658982 -219.647839 
L 409.675899 -217.773875 
L 409.692472 -215.899911 
L 409.708471 -214.025947 
L 409.723653 -212.151983 
L 409.737771 -210.278019 
L 409.750574 -208.404055 
L 409.761819 -206.530091 
L 409.77127 -204.656127 
L 409.778708 -202.782163 
L 409.783933 -200.908199 
L 409.786769 -199.034235 
L 409.787069 -197.160271 
L 409.784718 -195.286307 
L 409.779634 -193.412342 
L 409.771774 -191.538378 
L 409.76113 -189.664414 
L 409.747731 -187.79045 
L 409.731645 -185.916486 
L 409.712973 -184.042522 
L 409.691852 -182.168558 
L 409.668447 -180.294594 
L 409.642952 -178.42063 
L 409.615582 -176.546666 
L 409.586572 -174.672702 
L 409.556173 -172.798738 
L 409.524643 -170.924774 
L 409.492246 -169.05081 
L 409.459249 -167.176845 
L 409.425912 -165.302881 
L 409.39249 -163.428917 
L 409.359224 -161.554953 
L 409.326342 -159.680989 
L 409.294055 -157.807025 
L 409.262554 -155.933061 
L 409.232008 -154.059097 
L 409.202565 -152.185133 
L 409.174349 -150.311169 
L 409.147461 -148.437205 
L 409.12198 -146.563241 
L 409.097963 -144.689277 
L 409.075445 -142.815313 
L 409.054441 -140.941348 
L 409.034951 -139.067384 
L 409.016955 -137.19342 
L 409.000421 -135.319456 
L 408.985305 -133.445492 
z
" style="stroke: #3d3d3d; stroke-width: 1.5"/>
    </defs>
    <g clip-path="url(#p2c1db27246)">
     <use xlink:href="#mee55858fe8" x="0" y="393.011865" style="fill: #9fd495; stroke: #3d3d3d; stroke-width: 1.5"/>
    </g>
   </g>
   <g id="matplotlib.axis_1">
    <g id="xtick_1">
     <g id="line2d_1">
      <defs>
       <path id="m8d4374a544" d="M 0 0 
L 0 3.5 
" style="stroke: #000000; stroke-width: 0.8"/>
      </defs>
      <g>
       <use xlink:href="#m8d4374a544" x="91.430275" y="288.430125" style="stroke: #000000; stroke-width: 0.8"/>
      </g>
     </g>
     <g id="text_1">
      <!-- aflplusplus_ast_o2 -->
      <g transform="translate(10.999219 347.766815)rotate(-30)scale(0.1 -0.1)">
       <defs>
        <path id="DejaVuSans-61" d="M 2194 1759 
Q 1497 1759 1228 1600 
Q 959 1441 959 1056 
Q 959 750 1161 570 
Q 1363 391 1709 391 
Q 2188 391 2477 730 
Q 2766 1069 2766 1631 
L 2766 1759 
L 2194 1759 
z
M 3341 1997 
L 3341 0 
L 2766 0 
L 2766 531 
Q 2569 213 2275 61 
Q 1981 -91 1556 -91 
Q 1019 -91 701 211 
Q 384 513 384 1019 
Q 384 1609 779 1909 
Q 1175 2209 1959 2209 
L 2766 2209 
L 2766 2266 
Q 2766 2663 2505 2880 
Q 2244 3097 1772 3097 
Q 1472 3097 1187 3025 
Q 903 2953 641 2809 
L 641 3341 
Q 956 3463 1253 3523 
Q 1550 3584 1831 3584 
Q 2591 3584 2966 3190 
Q 3341 2797 3341 1997 
z
" transform="scale(0.015625)"/>
        <path id="DejaVuSans-66" d="M 2375 4863 
L 2375 4384 
L 1825 4384 
Q 1516 4384 1395 4259 
Q 1275 4134 1275 3809 
L 1275 3500 
L 2222 3500 
L 2222 3053 
L 1275 3053 
L 1275 0 
L 697 0 
L 697 3053 
L 147 3053 
L 147 3500 
L 697 3500 
L 697 3744 
Q 697 4328 969 4595 
Q 1241 4863 1831 4863 
L 2375 4863 
z
" transform="scale(0.015625)"/>
        <path id="DejaVuSans-6c" d="M 603 4863 
L 1178 4863 
L 1178 0 
L 603 0 
L 603 4863 
z
" transform="scale(0.015625)"/>
        <path id="DejaVuSans-70" d="M 1159 525 
L 1159 -1331 
L 581 -1331 
L 581 3500 
L 1159 3500 
L 1159 2969 
Q 1341 3281 1617 3432 
Q 1894 3584 2278 3584 
Q 2916 3584 3314 3078 
Q 3713 2572 3713 1747 
Q 3713 922 3314 415 
Q 2916 -91 2278 -91 
Q 1894 -91 1617 61 
Q 1341 213 1159 525 
z
M 3116 1747 
Q 3116 2381 2855 2742 
Q 2594 3103 2138 3103 
Q 1681 3103 1420 2742 
Q 1159 2381 1159 1747 
Q 1159 1113 1420 752 
Q 1681 391 2138 391 
Q 2594 391 2855 752 
Q 3116 1113 3116 1747 
z
" transform="scale(0.015625)"/>
        <path id="DejaVuSans-75" d="M 544 1381 
L 544 3500 
L 1119 3500 
L 1119 1403 
Q 1119 906 1312 657 
Q 1506 409 1894 409 
Q 2359 409 2629 706 
Q 2900 1003 2900 1516 
L 2900 3500 
L 3475 3500 
L 3475 0 
L 2900 0 
L 2900 538 
Q 2691 219 2414 64 
Q 2138 -91 1772 -91 
Q 1169 -91 856 284 
Q 544 659 544 1381 
z
M 1991 3584 
L 1991 3584 
z
" transform="scale(0.015625)"/>
        <path id="DejaVuSans-73" d="M 2834 3397 
L 2834 2853 
Q 2591 2978 2328 3040 
Q 2066 3103 1784 3103 
Q 1356 3103 1142 2972 
Q 928 2841 928 2578 
Q 928 2378 1081 2264 
Q 1234 2150 1697 2047 
L 1894 2003 
Q 2506 1872 2764 1633 
Q 3022 1394 3022 966 
Q 3022 478 2636 193 
Q 2250 -91 1575 -91 
Q 1294 -91 989 -36 
Q 684 19 347 128 
L 347 722 
Q 666 556 975 473 
Q 1284 391 1588 391 
Q 1994 391 2212 530 
Q 2431 669 2431 922 
Q 2431 1156 2273 1281 
Q 2116 1406 1581 1522 
L 1381 1569 
Q 847 1681 609 1914 
Q 372 2147 372 2553 
Q 372 3047 722 3315 
Q 1072 3584 1716 3584 
Q 2034 3584 2315 3537 
Q 2597 3491 2834 3397 
z
" transform="scale(0.015625)"/>
        <path id="DejaVuSans-5f" d="M 3263 -1063 
L 3263 -1509 
L -63 -1509 
L -63 -1063 
L 3263 -1063 
z
" transform="scale(0.015625)"/>
        <path id="DejaVuSans-74" d="M 1172 4494 
L 1172 3500 
L 2356 3500 
L 2356 3053 
L 1172 3053 
L 1172 1153 
Q 1172 725 1289 603 
Q 1406 481 1766 481 
L 2356 481 
L 2356 0 
L 1766 0 
Q 1100 0 847 248 
Q 594 497 594 1153 
L 594 3053 
L 172 3053 
L 172 3500 
L 594 3500 
L 594 4494 
L 1172 4494 
z
" transform="scale(0.015625)"/>
        <path id="DejaVuSans-6f" d="M 1959 3097 
Q 1497 3097 1228 2736 
Q 959 2375 959 1747 
Q 959 1119 1226 758 
Q 1494 397 1959 397 
Q 2419 397 2687 759 
Q 2956 1122 2956 1747 
Q 2956 2369 2687 2733 
Q 2419 3097 1959 3097 
z
M 1959 3584 
Q 2709 3584 3137 3096 
Q 3566 2609 3566 1747 
Q 3566 888 3137 398 
Q 2709 -91 1959 -91 
Q 1206 -91 779 398 
Q 353 888 353 1747 
Q 353 2609 779 3096 
Q 1206 3584 1959 3584 
z
" transform="scale(0.015625)"/>
        <path id="DejaVuSans-32" d="M 1228 531 
L 3431 531 
L 3431 0 
L 469 0 
L 469 531 
Q 828 903 1448 1529 
Q 2069 2156 2228 2338 
Q 2531 2678 2651 2914 
Q 2772 3150 2772 3378 
Q 2772 3750 2511 3984 
Q 2250 4219 1831 4219 
Q 1534 4219 1204 4116 
Q 875 4013 500 3803 
L 500 4441 
Q 881 4594 1212 4672 
Q 1544 4750 1819 4750 
Q 2544 4750 2975 4387 
Q 3406 4025 3406 3419 
Q 3406 3131 3298 2873 
Q 3191 2616 2906 2266 
Q 2828 2175 2409 1742 
Q 1991 1309 1228 531 
z
" transform="scale(0.015625)"/>
       </defs>
       <use xlink:href="#DejaVuSans-61"/>
       <use xlink:href="#DejaVuSans-66" x="61.279297"/>
       <use xlink:href="#DejaVuSans-6c" x="96.484375"/>
       <use xlink:href="#DejaVuSans-70" x="124.267578"/>
       <use xlink:href="#DejaVuSans-6c" x="187.744141"/>
       <use xlink:href="#DejaVuSans-75" x="215.527344"/>
       <use xlink:href="#DejaVuSans-73" x="278.90625"/>
       <use xlink:href="#DejaVuSans-70" x="331.005859"/>
       <use xlink:href="#DejaVuSans-6c" x="394.482422"/>
       <use xlink:href="#DejaVuSans-75" x="422.265625"/>
       <use xlink:href="#DejaVuSans-73" x="485.644531"/>
       <use xlink:href="#DejaVuSans-5f" x="537.744141"/>
       <use xlink:href="#DejaVuSans-61" x="587.744141"/>
       <use xlink:href="#DejaVuSans-73" x="649.023438"/>
       <use xlink:href="#DejaVuSans-74" x="701.123047"/>
       <use xlink:href="#DejaVuSans-5f" x="740.332031"/>
       <use xlink:href="#DejaVuSans-6f" x="790.332031"/>
       <use xlink:href="#DejaVuSans-32" x="851.513672"/>
      </g>
     </g>
    </g>
    <g id="xtick_2">
     <g id="line2d_2">
      <g>
       <use xlink:href="#m8d4374a544" x="131.110275" y="288.430125" style="stroke: #000000; stroke-width: 0.8"/>
      </g>
     </g>
     <g id="text_2">
      <!-- aflplusplus_ast_o3_native -->
      <g transform="translate(19.297976 365.884784)rotate(-30)scale(0.1 -0.1)">
       <defs>
        <path id="DejaVuSans-33" d="M 2597 2516 
Q 3050 2419 3304 2112 
Q 3559 1806 3559 1356 
Q 3559 666 3084 287 
Q 2609 -91 1734 -91 
Q 1441 -91 1130 -33 
Q 819 25 488 141 
L 488 750 
Q 750 597 1062 519 
Q 1375 441 1716 441 
Q 2309 441 2620 675 
Q 2931 909 2931 1356 
Q 2931 1769 2642 2001 
Q 2353 2234 1838 2234 
L 1294 2234 
L 1294 2753 
L 1863 2753 
Q 2328 2753 2575 2939 
Q 2822 3125 2822 3475 
Q 2822 3834 2567 4026 
Q 2313 4219 1838 4219 
Q 1578 4219 1281 4162 
Q 984 4106 628 3988 
L 628 4550 
Q 988 4650 1302 4700 
Q 1616 4750 1894 4750 
Q 2613 4750 3031 4423 
Q 3450 4097 3450 3541 
Q 3450 3153 3228 2886 
Q 3006 2619 2597 2516 
z
" transform="scale(0.015625)"/>
        <path id="DejaVuSans-6e" d="M 3513 2113 
L 3513 0 
L 2938 0 
L 2938 2094 
Q 2938 2591 2744 2837 
Q 2550 3084 2163 3084 
Q 1697 3084 1428 2787 
Q 1159 2491 1159 1978 
L 1159 0 
L 581 0 
L 581 3500 
L 1159 3500 
L 1159 2956 
Q 1366 3272 1645 3428 
Q 1925 3584 2291 3584 
Q 2894 3584 3203 3211 
Q 3513 2838 3513 2113 
z
" transform="scale(0.015625)"/>
        <path id="DejaVuSans-69" d="M 603 3500 
L 1178 3500 
L 1178 0 
L 603 0 
L 603 3500 
z
M 603 4863 
L 1178 4863 
L 1178 4134 
L 603 4134 
L 603 4863 
z
" transform="scale(0.015625)"/>
        <path id="DejaVuSans-76" d="M 191 3500 
L 800 3500 
L 1894 563 
L 2988 3500 
L 3597 3500 
L 2284 0 
L 1503 0 
L 191 3500 
z
" transform="scale(0.015625)"/>
        <path id="DejaVuSans-65" d="M 3597 1894 
L 3597 1613 
L 953 1613 
Q 991 1019 1311 708 
Q 1631 397 2203 397 
Q 2534 397 2845 478 
Q 3156 559 3463 722 
L 3463 178 
Q 3153 47 2828 -22 
Q 2503 -91 2169 -91 
Q 1331 -91 842 396 
Q 353 884 353 1716 
Q 353 2575 817 3079 
Q 1281 3584 2069 3584 
Q 2775 3584 3186 3129 
Q 3597 2675 3597 1894 
z
M 3022 2063 
Q 3016 2534 2758 2815 
Q 2500 3097 2075 3097 
Q 1594 3097 1305 2825 
Q 1016 2553 972 2059 
L 3022 2063 
z
" transform="scale(0.015625)"/>
       </defs>
       <use xlink:href="#DejaVuSans-61"/>
       <use xlink:href="#DejaVuSans-66" x="61.279297"/>
       <use xlink:href="#DejaVuSans-6c" x="96.484375"/>
       <use xlink:href="#DejaVuSans-70" x="124.267578"/>
       <use xlink:href="#DejaVuSans-6c" x="187.744141"/>
       <use xlink:href="#DejaVuSans-75" x="215.527344"/>
       <use xlink:href="#DejaVuSans-73" x="278.90625"/>
       <use xlink:href="#DejaVuSans-70" x="331.005859"/>
       <use xlink:href="#DejaVuSans-6c" x="394.482422"/>
       <use xlink:href="#DejaVuSans-75" x="422.265625"/>
       <use xlink:href="#DejaVuSans-73" x="485.644531"/>
       <use xlink:href="#DejaVuSans-5f" x="537.744141"/>
       <use xlink:href="#DejaVuSans-61" x="587.744141"/>
       <use xlink:href="#DejaVuSans-73" x="649.023438"/>
       <use xlink:href="#DejaVuSans-74" x="701.123047"/>
       <use xlink:href="#DejaVuSans-5f" x="740.332031"/>
       <use xlink:href="#DejaVuSans-6f" x="790.332031"/>
       <use xlink:href="#DejaVuSans-33" x="851.513672"/>
       <use xlink:href="#DejaVuSans-5f" x="915.136719"/>
       <use xlink:href="#DejaVuSans-6e" x="965.136719"/>
       <use xlink:href="#DejaVuSans-61" x="1028.515625"/>
       <use xlink:href="#DejaVuSans-74" x="1089.794922"/>
       <use xlink:href="#DejaVuSans-69" x="1129.003906"/>
       <use xlink:href="#DejaVuSans-76" x="1156.787109"/>
       <use xlink:href="#DejaVuSans-65" x="1215.966797"/>
      </g>
     </g>
    </g>
    <g id="xtick_3">
     <g id="line2d_3">
      <g>
       <use xlink:href="#m8d4374a544" x="170.790275" y="288.430125" style="stroke: #000000; stroke-width: 0.8"/>
      </g>
     </g>
     <g id="text_3">
      <!-- aflplusplus_ast_o3 -->
      <g transform="translate(90.359219 347.766815)rotate(-30)scale(0.1 -0.1)">
       <use xlink:href="#DejaVuSans-61"/>
       <use xlink:href="#DejaVuSans-66" x="61.279297"/>
       <use xlink:href="#DejaVuSans-6c" x="96.484375"/>
       <use xlink:href="#DejaVuSans-70" x="124.267578"/>
       <use xlink:href="#DejaVuSans-6c" x="187.744141"/>
       <use xlink:href="#DejaVuSans-75" x="215.527344"/>
       <use xlink:href="#DejaVuSans-73" x="278.90625"/>
       <use xlink:href="#DejaVuSans-70" x="331.005859"/>
       <use xlink:href="#DejaVuSans-6c" x="394.482422"/>
       <use xlink:href="#DejaVuSans-75" x="422.265625"/>
       <use xlink:href="#DejaVuSans-73" x="485.644531"/>
       <use xlink:href="#DejaVuSans-5f" x="537.744141"/>
       <use xlink:href="#DejaVuSans-61" x="587.744141"/>
       <use xlink:href="#DejaVuSans-73" x="649.023438"/>
       <use xlink:href="#DejaVuSans-74" x="701.123047"/>
       <use xlink:href="#DejaVuSans-5f" x="740.332031"/>
       <use xlink:href="#DejaVuSans-6f" x="790.332031"/>
       <use xlink:href="#DejaVuSans-33" x="851.513672"/>
      </g>
     </g>
    </g>
    <g id="xtick_4">
     <g id="line2d_4">
      <g>
       <use xlink:href="#m8d4374a544" x="210.470275" y="288.430125" style="stroke: #000000; stroke-width: 0.8"/>
      </g>
     </g>
     <g id="text_4">
      <!-- aflplusplus_ast_o0 -->
      <g transform="translate(130.039219 347.766815)rotate(-30)scale(0.1 -0.1)">
       <defs>
        <path id="DejaVuSans-30" d="M 2034 4250 
Q 1547 4250 1301 3770 
Q 1056 3291 1056 2328 
Q 1056 1369 1301 889 
Q 1547 409 2034 409 
Q 2525 409 2770 889 
Q 3016 1369 3016 2328 
Q 3016 3291 2770 3770 
Q 2525 4250 2034 4250 
z
M 2034 4750 
Q 2819 4750 3233 4129 
Q 3647 3509 3647 2328 
Q 3647 1150 3233 529 
Q 2819 -91 2034 -91 
Q 1250 -91 836 529 
Q 422 1150 422 2328 
Q 422 3509 836 4129 
Q 1250 4750 2034 4750 
z
" transform="scale(0.015625)"/>
       </defs>
       <use xlink:href="#DejaVuSans-61"/>
       <use xlink:href="#DejaVuSans-66" x="61.279297"/>
       <use xlink:href="#DejaVuSans-6c" x="96.484375"/>
       <use xlink:href="#DejaVuSans-70" x="124.267578"/>
       <use xlink:href="#DejaVuSans-6c" x="187.744141"/>
       <use xlink:href="#DejaVuSans-75" x="215.527344"/>
       <use xlink:href="#DejaVuSans-73" x="278.90625"/>
       <use xlink:href="#DejaVuSans-70" x="331.005859"/>
       <use xlink:href="#DejaVuSans-6c" x="394.482422"/>
       <use xlink:href="#DejaVuSans-75" x="422.265625"/>
       <use xlink:href="#DejaVuSans-73" x="485.644531"/>
       <use xlink:href="#DejaVuSans-5f" x="537.744141"/>
       <use xlink:href="#DejaVuSans-61" x="587.744141"/>
       <use xlink:href="#DejaVuSans-73" x="649.023438"/>
       <use xlink:href="#DejaVuSans-74" x="701.123047"/>
       <use xlink:href="#DejaVuSans-5f" x="740.332031"/>
       <use xlink:href="#DejaVuSans-6f" x="790.332031"/>
       <use xlink:href="#DejaVuSans-30" x="851.513672"/>
      </g>
     </g>
    </g>
    <g id="xtick_5">
     <g id="line2d_5">
      <g>
       <use xlink:href="#m8d4374a544" x="250.150275" y="288.430125" style="stroke: #000000; stroke-width: 0.8"/>
      </g>
     </g>
     <g id="text_5">
      <!-- aflplusplus_ast_f0 -->
      <g transform="translate(171.969532 346.467596)rotate(-30)scale(0.1 -0.1)">
       <use xlink:href="#DejaVuSans-61"/>
       <use xlink:href="#DejaVuSans-66" x="61.279297"/>
       <use xlink:href="#DejaVuSans-6c" x="96.484375"/>
       <use xlink:href="#DejaVuSans-70" x="124.267578"/>
       <use xlink:href="#DejaVuSans-6c" x="187.744141"/>
       <use xlink:href="#DejaVuSans-75" x="215.527344"/>
       <use xlink:href="#DejaVuSans-73" x="278.90625"/>
       <use xlink:href="#DejaVuSans-70" x="331.005859"/>
       <use xlink:href="#DejaVuSans-6c" x="394.482422"/>
       <use xlink:href="#DejaVuSans-75" x="422.265625"/>
       <use xlink:href="#DejaVuSans-73" x="485.644531"/>
       <use xlink:href="#DejaVuSans-5f" x="537.744141"/>
       <use xlink:href="#DejaVuSans-61" x="587.744141"/>
       <use xlink:href="#DejaVuSans-73" x="649.023438"/>
       <use xlink:href="#DejaVuSans-74" x="701.123047"/>
       <use xlink:href="#DejaVuSans-5f" x="740.332031"/>
       <use xlink:href="#DejaVuSans-66" x="790.332031"/>
       <use xlink:href="#DejaVuSans-30" x="825.537109"/>
      </g>
     </g>
    </g>
    <g id="xtick_6">
     <g id="line2d_6">
      <g>
       <use xlink:href="#m8d4374a544" x="289.830275" y="288.430125" style="stroke: #000000; stroke-width: 0.8"/>
      </g>
     </g>
     <g id="text_6">
      <!-- aflplusplus_ast_o1 -->
      <g transform="translate(209.399219 347.766815)rotate(-30)scale(0.1 -0.1)">
       <defs>
        <path id="DejaVuSans-31" d="M 794 531 
L 1825 531 
L 1825 4091 
L 703 3866 
L 703 4441 
L 1819 4666 
L 2450 4666 
L 2450 531 
L 3481 531 
L 3481 0 
L 794 0 
L 794 531 
z
" transform="scale(0.015625)"/>
       </defs>
       <use xlink:href="#DejaVuSans-61"/>
       <use xlink:href="#DejaVuSans-66" x="61.279297"/>
       <use xlink:href="#DejaVuSans-6c" x="96.484375"/>
       <use xlink:href="#DejaVuSans-70" x="124.267578"/>
       <use xlink:href="#DejaVuSans-6c" x="187.744141"/>
       <use xlink:href="#DejaVuSans-75" x="215.527344"/>
       <use xlink:href="#DejaVuSans-73" x="278.90625"/>
       <use xlink:href="#DejaVuSans-70" x="331.005859"/>
       <use xlink:href="#DejaVuSans-6c" x="394.482422"/>
       <use xlink:href="#DejaVuSans-75" x="422.265625"/>
       <use xlink:href="#DejaVuSans-73" x="485.644531"/>
       <use xlink:href="#DejaVuSans-5f" x="537.744141"/>
       <use xlink:href="#DejaVuSans-61" x="587.744141"/>
       <use xlink:href="#DejaVuSans-73" x="649.023438"/>
       <use xlink:href="#DejaVuSans-74" x="701.123047"/>
       <use xlink:href="#DejaVuSans-5f" x="740.332031"/>
       <use xlink:href="#DejaVuSans-6f" x="790.332031"/>
       <use xlink:href="#DejaVuSans-31" x="851.513672"/>
      </g>
     </g>
    </g>
    <g id="xtick_7">
     <g id="line2d_7">
      <g>
       <use xlink:href="#m8d4374a544" x="329.510275" y="288.430125" style="stroke: #000000; stroke-width: 0.8"/>
      </g>
     </g>
     <g id="text_7">
      <!-- aflplusplus_ast_opt_disable -->
      <g transform="translate(210.411184 370.091815)rotate(-30)scale(0.1 -0.1)">
       <defs>
        <path id="DejaVuSans-64" d="M 2906 2969 
L 2906 4863 
L 3481 4863 
L 3481 0 
L 2906 0 
L 2906 525 
Q 2725 213 2448 61 
Q 2172 -91 1784 -91 
Q 1150 -91 751 415 
Q 353 922 353 1747 
Q 353 2572 751 3078 
Q 1150 3584 1784 3584 
Q 2172 3584 2448 3432 
Q 2725 3281 2906 2969 
z
M 947 1747 
Q 947 1113 1208 752 
Q 1469 391 1925 391 
Q 2381 391 2643 752 
Q 2906 1113 2906 1747 
Q 2906 2381 2643 2742 
Q 2381 3103 1925 3103 
Q 1469 3103 1208 2742 
Q 947 2381 947 1747 
z
" transform="scale(0.015625)"/>
        <path id="DejaVuSans-62" d="M 3116 1747 
Q 3116 2381 2855 2742 
Q 2594 3103 2138 3103 
Q 1681 3103 1420 2742 
Q 1159 2381 1159 1747 
Q 1159 1113 1420 752 
Q 1681 391 2138 391 
Q 2594 391 2855 752 
Q 3116 1113 3116 1747 
z
M 1159 2969 
Q 1341 3281 1617 3432 
Q 1894 3584 2278 3584 
Q 2916 3584 3314 3078 
Q 3713 2572 3713 1747 
Q 3713 922 3314 415 
Q 2916 -91 2278 -91 
Q 1894 -91 1617 61 
Q 1341 213 1159 525 
L 1159 0 
L 581 0 
L 581 4863 
L 1159 4863 
L 1159 2969 
z
" transform="scale(0.015625)"/>
       </defs>
       <use xlink:href="#DejaVuSans-61"/>
       <use xlink:href="#DejaVuSans-66" x="61.279297"/>
       <use xlink:href="#DejaVuSans-6c" x="96.484375"/>
       <use xlink:href="#DejaVuSans-70" x="124.267578"/>
       <use xlink:href="#DejaVuSans-6c" x="187.744141"/>
       <use xlink:href="#DejaVuSans-75" x="215.527344"/>
       <use xlink:href="#DejaVuSans-73" x="278.90625"/>
       <use xlink:href="#DejaVuSans-70" x="331.005859"/>
       <use xlink:href="#DejaVuSans-6c" x="394.482422"/>
       <use xlink:href="#DejaVuSans-75" x="422.265625"/>
       <use xlink:href="#DejaVuSans-73" x="485.644531"/>
       <use xlink:href="#DejaVuSans-5f" x="537.744141"/>
       <use xlink:href="#DejaVuSans-61" x="587.744141"/>
       <use xlink:href="#DejaVuSans-73" x="649.023438"/>
       <use xlink:href="#DejaVuSans-74" x="701.123047"/>
       <use xlink:href="#DejaVuSans-5f" x="740.332031"/>
       <use xlink:href="#DejaVuSans-6f" x="790.332031"/>
       <use xlink:href="#DejaVuSans-70" x="851.513672"/>
       <use xlink:href="#DejaVuSans-74" x="914.990234"/>
       <use xlink:href="#DejaVuSans-5f" x="954.199219"/>
       <use xlink:href="#DejaVuSans-64" x="1004.199219"/>
       <use xlink:href="#DejaVuSans-69" x="1067.675781"/>
       <use xlink:href="#DejaVuSans-73" x="1095.458984"/>
       <use xlink:href="#DejaVuSans-61" x="1147.558594"/>
       <use xlink:href="#DejaVuSans-62" x="1208.837891"/>
       <use xlink:href="#DejaVuSans-6c" x="1272.314453"/>
       <use xlink:href="#DejaVuSans-65" x="1300.097656"/>
      </g>
     </g>
    </g>
    <g id="xtick_8">
     <g id="line2d_8">
      <g>
       <use xlink:href="#m8d4374a544" x="369.190275" y="288.430125" style="stroke: #000000; stroke-width: 0.8"/>
      </g>
     </g>
     <g id="text_8">
      <!-- aflplusplus_ast_opt_l1 -->
      <g transform="translate(273.130167 356.790252)rotate(-30)scale(0.1 -0.1)">
       <use xlink:href="#DejaVuSans-61"/>
       <use xlink:href="#DejaVuSans-66" x="61.279297"/>
       <use xlink:href="#DejaVuSans-6c" x="96.484375"/>
       <use xlink:href="#DejaVuSans-70" x="124.267578"/>
       <use xlink:href="#DejaVuSans-6c" x="187.744141"/>
       <use xlink:href="#DejaVuSans-75" x="215.527344"/>
       <use xlink:href="#DejaVuSans-73" x="278.90625"/>
       <use xlink:href="#DejaVuSans-70" x="331.005859"/>
       <use xlink:href="#DejaVuSans-6c" x="394.482422"/>
       <use xlink:href="#DejaVuSans-75" x="422.265625"/>
       <use xlink:href="#DejaVuSans-73" x="485.644531"/>
       <use xlink:href="#DejaVuSans-5f" x="537.744141"/>
       <use xlink:href="#DejaVuSans-61" x="587.744141"/>
       <use xlink:href="#DejaVuSans-73" x="649.023438"/>
       <use xlink:href="#DejaVuSans-74" x="701.123047"/>
       <use xlink:href="#DejaVuSans-5f" x="740.332031"/>
       <use xlink:href="#DejaVuSans-6f" x="790.332031"/>
       <use xlink:href="#DejaVuSans-70" x="851.513672"/>
       <use xlink:href="#DejaVuSans-74" x="914.990234"/>
       <use xlink:href="#DejaVuSans-5f" x="954.199219"/>
       <use xlink:href="#DejaVuSans-6c" x="1004.199219"/>
       <use xlink:href="#DejaVuSans-31" x="1031.982422"/>
      </g>
     </g>
    </g>
    <g id="xtick_9">
     <g id="line2d_9">
      <g>
       <use xlink:href="#m8d4374a544" x="408.870275" y="288.430125" style="stroke: #000000; stroke-width: 0.8"/>
      </g>
     </g>
     <g id="text_9">
      <!-- aflplusplus_ast_f1 -->
      <g transform="translate(330.689532 346.467596)rotate(-30)scale(0.1 -0.1)">
       <use xlink:href="#DejaVuSans-61"/>
       <use xlink:href="#DejaVuSans-66" x="61.279297"/>
       <use xlink:href="#DejaVuSans-6c" x="96.484375"/>
       <use xlink:href="#DejaVuSans-70" x="124.267578"/>
       <use xlink:href="#DejaVuSans-6c" x="187.744141"/>
       <use xlink:href="#DejaVuSans-75" x="215.527344"/>
       <use xlink:href="#DejaVuSans-73" x="278.90625"/>
       <use xlink:href="#DejaVuSans-70" x="331.005859"/>
       <use xlink:href="#DejaVuSans-6c" x="394.482422"/>
       <use xlink:href="#DejaVuSans-75" x="422.265625"/>
       <use xlink:href="#DejaVuSans-73" x="485.644531"/>
       <use xlink:href="#DejaVuSans-5f" x="537.744141"/>
       <use xlink:href="#DejaVuSans-61" x="587.744141"/>
       <use xlink:href="#DejaVuSans-73" x="649.023438"/>
       <use xlink:href="#DejaVuSans-74" x="701.123047"/>
       <use xlink:href="#DejaVuSans-5f" x="740.332031"/>
       <use xlink:href="#DejaVuSans-66" x="790.332031"/>
       <use xlink:href="#DejaVuSans-31" x="825.537109"/>
      </g>
     </g>
    </g>
    <g id="text_10">
     <!-- Fuzzer (highest median coverage on the left) -->
     <g transform="translate(137.532306 383.732178)scale(0.1 -0.1)">
      <defs>
       <path id="DejaVuSans-46" d="M 628 4666 
L 3309 4666 
L 3309 4134 
L 1259 4134 
L 1259 2759 
L 3109 2759 
L 3109 2228 
L 1259 2228 
L 1259 0 
L 628 0 
L 628 4666 
z
" transform="scale(0.015625)"/>
       <path id="DejaVuSans-7a" d="M 353 3500 
L 3084 3500 
L 3084 2975 
L 922 459 
L 3084 459 
L 3084 0 
L 275 0 
L 275 525 
L 2438 3041 
L 353 3041 
L 353 3500 
z
" transform="scale(0.015625)"/>
       <path id="DejaVuSans-72" d="M 2631 2963 
Q 2534 3019 2420 3045 
Q 2306 3072 2169 3072 
Q 1681 3072 1420 2755 
Q 1159 2438 1159 1844 
L 1159 0 
L 581 0 
L 581 3500 
L 1159 3500 
L 1159 2956 
Q 1341 3275 1631 3429 
Q 1922 3584 2338 3584 
Q 2397 3584 2469 3576 
Q 2541 3569 2628 3553 
L 2631 2963 
z
" transform="scale(0.015625)"/>
       <path id="DejaVuSans-20" transform="scale(0.015625)"/>
       <path id="DejaVuSans-28" d="M 1984 4856 
Q 1566 4138 1362 3434 
Q 1159 2731 1159 2009 
Q 1159 1288 1364 580 
Q 1569 -128 1984 -844 
L 1484 -844 
Q 1016 -109 783 600 
Q 550 1309 550 2009 
Q 550 2706 781 3412 
Q 1013 4119 1484 4856 
L 1984 4856 
z
" transform="scale(0.015625)"/>
       <path id="DejaVuSans-68" d="M 3513 2113 
L 3513 0 
L 2938 0 
L 2938 2094 
Q 2938 2591 2744 2837 
Q 2550 3084 2163 3084 
Q 1697 3084 1428 2787 
Q 1159 2491 1159 1978 
L 1159 0 
L 581 0 
L 581 4863 
L 1159 4863 
L 1159 2956 
Q 1366 3272 1645 3428 
Q 1925 3584 2291 3584 
Q 2894 3584 3203 3211 
Q 3513 2838 3513 2113 
z
" transform="scale(0.015625)"/>
       <path id="DejaVuSans-67" d="M 2906 1791 
Q 2906 2416 2648 2759 
Q 2391 3103 1925 3103 
Q 1463 3103 1205 2759 
Q 947 2416 947 1791 
Q 947 1169 1205 825 
Q 1463 481 1925 481 
Q 2391 481 2648 825 
Q 2906 1169 2906 1791 
z
M 3481 434 
Q 3481 -459 3084 -895 
Q 2688 -1331 1869 -1331 
Q 1566 -1331 1297 -1286 
Q 1028 -1241 775 -1147 
L 775 -588 
Q 1028 -725 1275 -790 
Q 1522 -856 1778 -856 
Q 2344 -856 2625 -561 
Q 2906 -266 2906 331 
L 2906 616 
Q 2728 306 2450 153 
Q 2172 0 1784 0 
Q 1141 0 747 490 
Q 353 981 353 1791 
Q 353 2603 747 3093 
Q 1141 3584 1784 3584 
Q 2172 3584 2450 3431 
Q 2728 3278 2906 2969 
L 2906 3500 
L 3481 3500 
L 3481 434 
z
" transform="scale(0.015625)"/>
       <path id="DejaVuSans-6d" d="M 3328 2828 
Q 3544 3216 3844 3400 
Q 4144 3584 4550 3584 
Q 5097 3584 5394 3201 
Q 5691 2819 5691 2113 
L 5691 0 
L 5113 0 
L 5113 2094 
Q 5113 2597 4934 2840 
Q 4756 3084 4391 3084 
Q 3944 3084 3684 2787 
Q 3425 2491 3425 1978 
L 3425 0 
L 2847 0 
L 2847 2094 
Q 2847 2600 2669 2842 
Q 2491 3084 2119 3084 
Q 1678 3084 1418 2786 
Q 1159 2488 1159 1978 
L 1159 0 
L 581 0 
L 581 3500 
L 1159 3500 
L 1159 2956 
Q 1356 3278 1631 3431 
Q 1906 3584 2284 3584 
Q 2666 3584 2933 3390 
Q 3200 3197 3328 2828 
z
" transform="scale(0.015625)"/>
       <path id="DejaVuSans-63" d="M 3122 3366 
L 3122 2828 
Q 2878 2963 2633 3030 
Q 2388 3097 2138 3097 
Q 1578 3097 1268 2742 
Q 959 2388 959 1747 
Q 959 1106 1268 751 
Q 1578 397 2138 397 
Q 2388 397 2633 464 
Q 2878 531 3122 666 
L 3122 134 
Q 2881 22 2623 -34 
Q 2366 -91 2075 -91 
Q 1284 -91 818 406 
Q 353 903 353 1747 
Q 353 2603 823 3093 
Q 1294 3584 2113 3584 
Q 2378 3584 2631 3529 
Q 2884 3475 3122 3366 
z
" transform="scale(0.015625)"/>
       <path id="DejaVuSans-29" d="M 513 4856 
L 1013 4856 
Q 1481 4119 1714 3412 
Q 1947 2706 1947 2009 
Q 1947 1309 1714 600 
Q 1481 -109 1013 -844 
L 513 -844 
Q 928 -128 1133 580 
Q 1338 1288 1338 2009 
Q 1338 2731 1133 3434 
Q 928 4138 513 4856 
z
" transform="scale(0.015625)"/>
      </defs>
      <use xlink:href="#DejaVuSans-46"/>
      <use xlink:href="#DejaVuSans-75" x="52.019531"/>
      <use xlink:href="#DejaVuSans-7a" x="115.398438"/>
      <use xlink:href="#DejaVuSans-7a" x="167.888672"/>
      <use xlink:href="#DejaVuSans-65" x="220.378906"/>
      <use xlink:href="#DejaVuSans-72" x="281.902344"/>
      <use xlink:href="#DejaVuSans-20" x="323.015625"/>
      <use xlink:href="#DejaVuSans-28" x="354.802734"/>
      <use xlink:href="#DejaVuSans-68" x="393.816406"/>
      <use xlink:href="#DejaVuSans-69" x="457.195312"/>
      <use xlink:href="#DejaVuSans-67" x="484.978516"/>
      <use xlink:href="#DejaVuSans-68" x="548.455078"/>
      <use xlink:href="#DejaVuSans-65" x="611.833984"/>
      <use xlink:href="#DejaVuSans-73" x="673.357422"/>
      <use xlink:href="#DejaVuSans-74" x="725.457031"/>
      <use xlink:href="#DejaVuSans-20" x="764.666016"/>
      <use xlink:href="#DejaVuSans-6d" x="796.453125"/>
      <use xlink:href="#DejaVuSans-65" x="893.865234"/>
      <use xlink:href="#DejaVuSans-64" x="955.388672"/>
      <use xlink:href="#DejaVuSans-69" x="1018.865234"/>
      <use xlink:href="#DejaVuSans-61" x="1046.648438"/>
      <use xlink:href="#DejaVuSans-6e" x="1107.927734"/>
      <use xlink:href="#DejaVuSans-20" x="1171.306641"/>
      <use xlink:href="#DejaVuSans-63" x="1203.09375"/>
      <use xlink:href="#DejaVuSans-6f" x="1258.074219"/>
      <use xlink:href="#DejaVuSans-76" x="1319.255859"/>
      <use xlink:href="#DejaVuSans-65" x="1378.435547"/>
      <use xlink:href="#DejaVuSans-72" x="1439.958984"/>
      <use xlink:href="#DejaVuSans-61" x="1481.072266"/>
      <use xlink:href="#DejaVuSans-67" x="1542.351562"/>
      <use xlink:href="#DejaVuSans-65" x="1605.828125"/>
      <use xlink:href="#DejaVuSans-20" x="1667.351562"/>
      <use xlink:href="#DejaVuSans-6f" x="1699.138672"/>
      <use xlink:href="#DejaVuSans-6e" x="1760.320312"/>
      <use xlink:href="#DejaVuSans-20" x="1823.699219"/>
      <use xlink:href="#DejaVuSans-74" x="1855.486328"/>
      <use xlink:href="#DejaVuSans-68" x="1894.695312"/>
      <use xlink:href="#DejaVuSans-65" x="1958.074219"/>
      <use xlink:href="#DejaVuSans-20" x="2019.597656"/>
      <use xlink:href="#DejaVuSans-6c" x="2051.384766"/>
      <use xlink:href="#DejaVuSans-65" x="2079.167969"/>
      <use xlink:href="#DejaVuSans-66" x="2140.691406"/>
      <use xlink:href="#DejaVuSans-74" x="2174.146484"/>
      <use xlink:href="#DejaVuSans-29" x="2213.355469"/>
     </g>
    </g>
   </g>
   <g id="matplotlib.axis_2">
    <g id="ytick_1">
     <g id="line2d_10">
      <defs>
       <path id="m8a9c1d53c3" d="M 0 0 
L -3.5 0 
" style="stroke: #000000; stroke-width: 0.8"/>
      </defs>
      <g>
       <use xlink:href="#m8a9c1d53c3" x="71.590275" y="284.09795" style="stroke: #000000; stroke-width: 0.8"/>
      </g>
     </g>
     <g id="text_11">
      <!-- 0 -->
      <g transform="translate(58.227775 287.897168)scale(0.1 -0.1)">
       <use xlink:href="#DejaVuSans-30"/>
      </g>
     </g>
    </g>
    <g id="ytick_2">
     <g id="line2d_11">
      <g>
       <use xlink:href="#m8a9c1d53c3" x="71.590275" y="250.09018" style="stroke: #000000; stroke-width: 0.8"/>
      </g>
     </g>
     <g id="text_12">
      <!-- 500 -->
      <g transform="translate(45.502775 253.889399)scale(0.1 -0.1)">
       <defs>
        <path id="DejaVuSans-35" d="M 691 4666 
L 3169 4666 
L 3169 4134 
L 1269 4134 
L 1269 2991 
Q 1406 3038 1543 3061 
Q 1681 3084 1819 3084 
Q 2600 3084 3056 2656 
Q 3513 2228 3513 1497 
Q 3513 744 3044 326 
Q 2575 -91 1722 -91 
Q 1428 -91 1123 -41 
Q 819 9 494 109 
L 494 744 
Q 775 591 1075 516 
Q 1375 441 1709 441 
Q 2250 441 2565 725 
Q 2881 1009 2881 1497 
Q 2881 1984 2565 2268 
Q 2250 2553 1709 2553 
Q 1456 2553 1204 2497 
Q 953 2441 691 2322 
L 691 4666 
z
" transform="scale(0.015625)"/>
       </defs>
       <use xlink:href="#DejaVuSans-35"/>
       <use xlink:href="#DejaVuSans-30" x="63.623047"/>
       <use xlink:href="#DejaVuSans-30" x="127.246094"/>
      </g>
     </g>
    </g>
    <g id="ytick_3">
     <g id="line2d_12">
      <g>
       <use xlink:href="#m8a9c1d53c3" x="71.590275" y="216.08241" style="stroke: #000000; stroke-width: 0.8"/>
      </g>
     </g>
     <g id="text_13">
      <!-- 1000 -->
      <g transform="translate(39.140275 219.881629)scale(0.1 -0.1)">
       <use xlink:href="#DejaVuSans-31"/>
       <use xlink:href="#DejaVuSans-30" x="63.623047"/>
       <use xlink:href="#DejaVuSans-30" x="127.246094"/>
       <use xlink:href="#DejaVuSans-30" x="190.869141"/>
      </g>
     </g>
    </g>
    <g id="ytick_4">
     <g id="line2d_13">
      <g>
       <use xlink:href="#m8a9c1d53c3" x="71.590275" y="182.07464" style="stroke: #000000; stroke-width: 0.8"/>
      </g>
     </g>
     <g id="text_14">
      <!-- 1500 -->
      <g transform="translate(39.140275 185.873859)scale(0.1 -0.1)">
       <use xlink:href="#DejaVuSans-31"/>
       <use xlink:href="#DejaVuSans-35" x="63.623047"/>
       <use xlink:href="#DejaVuSans-30" x="127.246094"/>
       <use xlink:href="#DejaVuSans-30" x="190.869141"/>
      </g>
     </g>
    </g>
    <g id="ytick_5">
     <g id="line2d_14">
      <g>
       <use xlink:href="#m8a9c1d53c3" x="71.590275" y="148.066871" style="stroke: #000000; stroke-width: 0.8"/>
      </g>
     </g>
     <g id="text_15">
      <!-- 2000 -->
      <g transform="translate(39.140275 151.866089)scale(0.1 -0.1)">
       <use xlink:href="#DejaVuSans-32"/>
       <use xlink:href="#DejaVuSans-30" x="63.623047"/>
       <use xlink:href="#DejaVuSans-30" x="127.246094"/>
       <use xlink:href="#DejaVuSans-30" x="190.869141"/>
      </g>
     </g>
    </g>
    <g id="ytick_6">
     <g id="line2d_15">
      <g>
       <use xlink:href="#m8a9c1d53c3" x="71.590275" y="114.059101" style="stroke: #000000; stroke-width: 0.8"/>
      </g>
     </g>
     <g id="text_16">
      <!-- 2500 -->
      <g transform="translate(39.140275 117.85832)scale(0.1 -0.1)">
       <use xlink:href="#DejaVuSans-32"/>
       <use xlink:href="#DejaVuSans-35" x="63.623047"/>
       <use xlink:href="#DejaVuSans-30" x="127.246094"/>
       <use xlink:href="#DejaVuSans-30" x="190.869141"/>
      </g>
     </g>
    </g>
    <g id="ytick_7">
     <g id="line2d_16">
      <g>
       <use xlink:href="#m8a9c1d53c3" x="71.590275" y="80.051331" style="stroke: #000000; stroke-width: 0.8"/>
      </g>
     </g>
     <g id="text_17">
      <!-- 3000 -->
      <g transform="translate(39.140275 83.85055)scale(0.1 -0.1)">
       <use xlink:href="#DejaVuSans-33"/>
       <use xlink:href="#DejaVuSans-30" x="63.623047"/>
       <use xlink:href="#DejaVuSans-30" x="127.246094"/>
       <use xlink:href="#DejaVuSans-30" x="190.869141"/>
      </g>
     </g>
    </g>
    <g id="ytick_8">
     <g id="line2d_17">
      <g>
       <use xlink:href="#m8a9c1d53c3" x="71.590275" y="46.043561" style="stroke: #000000; stroke-width: 0.8"/>
      </g>
     </g>
     <g id="text_18">
      <!-- 3500 -->
      <g transform="translate(39.140275 49.84278)scale(0.1 -0.1)">
       <use xlink:href="#DejaVuSans-33"/>
       <use xlink:href="#DejaVuSans-35" x="63.623047"/>
       <use xlink:href="#DejaVuSans-30" x="127.246094"/>
       <use xlink:href="#DejaVuSans-30" x="190.869141"/>
      </g>
     </g>
    </g>
    <g id="text_19">
     <!-- Reached region coverage -->
     <g transform="translate(33.060587 219.136625)rotate(-90)scale(0.1 -0.1)">
      <defs>
       <path id="DejaVuSans-52" d="M 2841 2188 
Q 3044 2119 3236 1894 
Q 3428 1669 3622 1275 
L 4263 0 
L 3584 0 
L 2988 1197 
Q 2756 1666 2539 1819 
Q 2322 1972 1947 1972 
L 1259 1972 
L 1259 0 
L 628 0 
L 628 4666 
L 2053 4666 
Q 2853 4666 3247 4331 
Q 3641 3997 3641 3322 
Q 3641 2881 3436 2590 
Q 3231 2300 2841 2188 
z
M 1259 4147 
L 1259 2491 
L 2053 2491 
Q 2509 2491 2742 2702 
Q 2975 2913 2975 3322 
Q 2975 3731 2742 3939 
Q 2509 4147 2053 4147 
L 1259 4147 
z
" transform="scale(0.015625)"/>
      </defs>
      <use xlink:href="#DejaVuSans-52"/>
      <use xlink:href="#DejaVuSans-65" x="64.982422"/>
      <use xlink:href="#DejaVuSans-61" x="126.505859"/>
      <use xlink:href="#DejaVuSans-63" x="187.785156"/>
      <use xlink:href="#DejaVuSans-68" x="242.765625"/>
      <use xlink:href="#DejaVuSans-65" x="306.144531"/>
      <use xlink:href="#DejaVuSans-64" x="367.667969"/>
      <use xlink:href="#DejaVuSans-20" x="431.144531"/>
      <use xlink:href="#DejaVuSans-72" x="462.931641"/>
      <use xlink:href="#DejaVuSans-65" x="501.794922"/>
      <use xlink:href="#DejaVuSans-67" x="563.318359"/>
      <use xlink:href="#DejaVuSans-69" x="626.794922"/>
      <use xlink:href="#DejaVuSans-6f" x="654.578125"/>
      <use xlink:href="#DejaVuSans-6e" x="715.759766"/>
      <use xlink:href="#DejaVuSans-20" x="779.138672"/>
      <use xlink:href="#DejaVuSans-63" x="810.925781"/>
      <use xlink:href="#DejaVuSans-6f" x="865.90625"/>
      <use xlink:href="#DejaVuSans-76" x="927.087891"/>
      <use xlink:href="#DejaVuSans-65" x="986.267578"/>
      <use xlink:href="#DejaVuSans-72" x="1047.791016"/>
      <use xlink:href="#DejaVuSans-61" x="1088.904297"/>
      <use xlink:href="#DejaVuSans-67" x="1150.183594"/>
      <use xlink:href="#DejaVuSans-65" x="1213.660156"/>
     </g>
    </g>
   </g>
   <g id="line2d_18">
    <path d="M 91.430275 197.990277 
L 91.430275 111.338479 
" clip-path="url(#p2c1db27246)" style="fill: none; stroke: #3d3d3d; stroke-width: 1.5; stroke-linecap: square"/>
   </g>
   <g id="line2d_19">
    <path d="M 91.430275 158.609279 
L 91.430275 115.283381 
" clip-path="url(#p2c1db27246)" style="fill: none; stroke: #3d3d3d; stroke-width: 4.5; stroke-linecap: square"/>
   </g>
   <g id="line2d_20">
    <path d="M 131.110275 120.248515 
L 131.110275 88.893351 
" clip-path="url(#p2c1db27246)" style="fill: none; stroke: #3d3d3d; stroke-width: 1.5; stroke-linecap: square"/>
   </g>
   <g id="line2d_21">
    <path d="M 131.110275 120.146492 
L 131.110275 104.46891 
" clip-path="url(#p2c1db27246)" style="fill: none; stroke: #3d3d3d; stroke-width: 4.5; stroke-linecap: square"/>
   </g>
   <g id="line2d_22">
    <path d="M 170.790275 199.418603 
L 170.790275 121.608826 
" clip-path="url(#p2c1db27246)" style="fill: none; stroke: #3d3d3d; stroke-width: 1.5; stroke-linecap: square"/>
   </g>
   <g id="line2d_23">
    <path d="M 170.790275 161.465932 
L 170.790275 122.561043 
" clip-path="url(#p2c1db27246)" style="fill: none; stroke: #3d3d3d; stroke-width: 4.5; stroke-linecap: square"/>
   </g>
   <g id="line2d_24">
    <path d="M 210.470275 199.486618 
L 210.470275 117.663925 
" clip-path="url(#p2c1db27246)" style="fill: none; stroke: #3d3d3d; stroke-width: 1.5; stroke-linecap: square"/>
   </g>
   <g id="line2d_25">
    <path d="M 210.470275 162.520173 
L 210.470275 121.608826 
" clip-path="url(#p2c1db27246)" style="fill: none; stroke: #3d3d3d; stroke-width: 4.5; stroke-linecap: square"/>
   </g>
   <g id="line2d_26">
    <path d="M 250.150275 200.166774 
L 250.150275 111.814588 
" clip-path="url(#p2c1db27246)" style="fill: none; stroke: #3d3d3d; stroke-width: 1.5; stroke-linecap: square"/>
   </g>
   <g id="line2d_27">
    <path d="M 250.150275 163.098305 
L 250.150275 118.922212 
" clip-path="url(#p2c1db27246)" style="fill: none; stroke: #3d3d3d; stroke-width: 4.5; stroke-linecap: square"/>
   </g>
   <g id="line2d_28">
    <path d="M 289.830275 137.116369 
L 289.830275 123.513261 
" clip-path="url(#p2c1db27246)" style="fill: none; stroke: #3d3d3d; stroke-width: 1.5; stroke-linecap: square"/>
   </g>
   <g id="line2d_29">
    <path d="M 289.830275 134.769833 
L 289.830275 127.968279 
" clip-path="url(#p2c1db27246)" style="fill: none; stroke: #3d3d3d; stroke-width: 4.5; stroke-linecap: square"/>
   </g>
   <g id="line2d_30">
    <path d="M 329.510275 138.952788 
L 329.510275 135.007887 
" clip-path="url(#p2c1db27246)" style="fill: none; stroke: #3d3d3d; stroke-width: 1.5; stroke-linecap: square"/>
   </g>
   <g id="line2d_31">
    <path d="M 329.510275 137.898547 
L 329.510275 135.926097 
" clip-path="url(#p2c1db27246)" style="fill: none; stroke: #3d3d3d; stroke-width: 4.5; stroke-linecap: square"/>
   </g>
   <g id="line2d_32">
    <path d="M 369.190275 137.796524 
L 369.190275 133.647576 
" clip-path="url(#p2c1db27246)" style="fill: none; stroke: #3d3d3d; stroke-width: 1.5; stroke-linecap: square"/>
   </g>
   <g id="line2d_33">
    <path d="M 369.190275 137.660493 
L 369.190275 135.586019 
" clip-path="url(#p2c1db27246)" style="fill: none; stroke: #3d3d3d; stroke-width: 4.5; stroke-linecap: square"/>
   </g>
   <g id="line2d_34">
    <path d="M 408.870275 199.418603 
L 408.870275 134.191701 
" clip-path="url(#p2c1db27246)" style="fill: none; stroke: #3d3d3d; stroke-width: 1.5; stroke-linecap: square"/>
   </g>
   <g id="line2d_35">
    <path d="M 408.870275 199.078525 
L 408.870275 166.465074 
" clip-path="url(#p2c1db27246)" style="fill: none; stroke: #3d3d3d; stroke-width: 4.5; stroke-linecap: square"/>
   </g>
   <g id="patch_3">
    <path d="M 71.590275 284.09795 
L 71.590275 46.043561 
" style="fill: none; stroke: #000000; stroke-width: 0.8; stroke-linejoin: miter; stroke-linecap: square"/>
   </g>
   <g id="patch_4">
    <path d="M 91.430275 288.430125 
L 408.870275 288.430125 
" style="fill: none; stroke: #000000; stroke-width: 0.8; stroke-linejoin: miter; stroke-linecap: square"/>
   </g>
   <g id="PathCollection_1">
    <defs>
     <path id="m62e1b4e5e8" d="M 0 1.5 
C 0.397805 1.5 0.77937 1.341951 1.06066 1.06066 
C 1.341951 0.77937 1.5 0.397805 1.5 0 
C 1.5 -0.397805 1.341951 -0.77937 1.06066 -1.06066 
C 0.77937 -1.341951 0.397805 -1.5 0 -1.5 
C -0.397805 -1.5 -0.77937 -1.341951 -1.06066 -1.06066 
C -1.341951 -0.77937 -1.5 -0.397805 -1.5 0 
C -1.5 0.397805 -1.341951 0.77937 -1.06066 1.06066 
C -0.77937 1.341951 -0.397805 1.5 0 1.5 
z
" style="stroke: #3d3d3d"/>
    </defs>
    <g clip-path="url(#p2c1db27246)">
     <use xlink:href="#m62e1b4e5e8" x="91.430275" y="119.228282" style="fill: #ffffff; stroke: #3d3d3d"/>
    </g>
   </g>
   <g id="PathCollection_2">
    <g clip-path="url(#p2c1db27246)">
     <use xlink:href="#m62e1b4e5e8" x="131.110275" y="120.044468" style="fill: #ffffff; stroke: #3d3d3d"/>
    </g>
   </g>
   <g id="PathCollection_3">
    <g clip-path="url(#p2c1db27246)">
     <use xlink:href="#m62e1b4e5e8" x="170.790275" y="123.513261" style="fill: #ffffff; stroke: #3d3d3d"/>
    </g>
   </g>
   <g id="PathCollection_4">
    <g clip-path="url(#p2c1db27246)">
     <use xlink:href="#m62e1b4e5e8" x="210.470275" y="125.553727" style="fill: #ffffff; stroke: #3d3d3d"/>
    </g>
   </g>
   <g id="PathCollection_5">
    <g clip-path="url(#p2c1db27246)">
     <use xlink:href="#m62e1b4e5e8" x="250.150275" y="126.029836" style="fill: #ffffff; stroke: #3d3d3d"/>
    </g>
   </g>
   <g id="PathCollection_6">
    <g clip-path="url(#p2c1db27246)">
     <use xlink:href="#m62e1b4e5e8" x="289.830275" y="132.423297" style="fill: #ffffff; stroke: #3d3d3d"/>
    </g>
   </g>
   <g id="PathCollection_7">
    <g clip-path="url(#p2c1db27246)">
     <use xlink:href="#m62e1b4e5e8" x="329.510275" y="136.844307" style="fill: #ffffff; stroke: #3d3d3d"/>
    </g>
   </g>
   <g id="PathCollection_8">
    <g clip-path="url(#p2c1db27246)">
     <use xlink:href="#m62e1b4e5e8" x="369.190275" y="137.524462" style="fill: #ffffff; stroke: #3d3d3d"/>
    </g>
   </g>
   <g id="PathCollection_9">
    <g clip-path="url(#p2c1db27246)">
     <use xlink:href="#m62e1b4e5e8" x="408.870275" y="198.738448" style="fill: #ffffff; stroke: #3d3d3d"/>
    </g>
   </g>
   <g id="text_20">
    <!-- lcms-2017-03-21 (4h:15m, 3 trials/fuzzer) -->
    <g transform="translate(124.585275 16.318125)scale(0.12 -0.12)">
     <defs>
      <path id="DejaVuSans-2d" d="M 313 2009 
L 1997 2009 
L 1997 1497 
L 313 1497 
L 313 2009 
z
" transform="scale(0.015625)"/>
      <path id="DejaVuSans-37" d="M 525 4666 
L 3525 4666 
L 3525 4397 
L 1831 0 
L 1172 0 
L 2766 4134 
L 525 4134 
L 525 4666 
z
" transform="scale(0.015625)"/>
      <path id="DejaVuSans-34" d="M 2419 4116 
L 825 1625 
L 2419 1625 
L 2419 4116 
z
M 2253 4666 
L 3047 4666 
L 3047 1625 
L 3713 1625 
L 3713 1100 
L 3047 1100 
L 3047 0 
L 2419 0 
L 2419 1100 
L 313 1100 
L 313 1709 
L 2253 4666 
z
" transform="scale(0.015625)"/>
      <path id="DejaVuSans-3a" d="M 750 794 
L 1409 794 
L 1409 0 
L 750 0 
L 750 794 
z
M 750 3309 
L 1409 3309 
L 1409 2516 
L 750 2516 
L 750 3309 
z
" transform="scale(0.015625)"/>
      <path id="DejaVuSans-2c" d="M 750 794 
L 1409 794 
L 1409 256 
L 897 -744 
L 494 -744 
L 750 256 
L 750 794 
z
" transform="scale(0.015625)"/>
      <path id="DejaVuSans-2f" d="M 1625 4666 
L 2156 4666 
L 531 -594 
L 0 -594 
L 1625 4666 
z
" transform="scale(0.015625)"/>
     </defs>
     <use xlink:href="#DejaVuSans-6c"/>
     <use xlink:href="#DejaVuSans-63" x="27.783203"/>
     <use xlink:href="#DejaVuSans-6d" x="82.763672"/>
     <use xlink:href="#DejaVuSans-73" x="180.175781"/>
     <use xlink:href="#DejaVuSans-2d" x="232.275391"/>
     <use xlink:href="#DejaVuSans-32" x="268.359375"/>
     <use xlink:href="#DejaVuSans-30" x="331.982422"/>
     <use xlink:href="#DejaVuSans-31" x="395.605469"/>
     <use xlink:href="#DejaVuSans-37" x="459.228516"/>
     <use xlink:href="#DejaVuSans-2d" x="522.851562"/>
     <use xlink:href="#DejaVuSans-30" x="558.935547"/>
     <use xlink:href="#DejaVuSans-33" x="622.558594"/>
     <use xlink:href="#DejaVuSans-2d" x="686.181641"/>
     <use xlink:href="#DejaVuSans-32" x="722.265625"/>
     <use xlink:href="#DejaVuSans-31" x="785.888672"/>
     <use xlink:href="#DejaVuSans-20" x="849.511719"/>
     <use xlink:href="#DejaVuSans-28" x="881.298828"/>
     <use xlink:href="#DejaVuSans-34" x="920.3125"/>
     <use xlink:href="#DejaVuSans-68" x="983.935547"/>
     <use xlink:href="#DejaVuSans-3a" x="1047.314453"/>
     <use xlink:href="#DejaVuSans-31" x="1081.005859"/>
     <use xlink:href="#DejaVuSans-35" x="1144.628906"/>
     <use xlink:href="#DejaVuSans-6d" x="1208.251953"/>
     <use xlink:href="#DejaVuSans-2c" x="1305.664062"/>
     <use xlink:href="#DejaVuSans-20" x="1337.451172"/>
     <use xlink:href="#DejaVuSans-33" x="1369.238281"/>
     <use xlink:href="#DejaVuSans-20" x="1432.861328"/>
     <use xlink:href="#DejaVuSans-74" x="1464.648438"/>
     <use xlink:href="#DejaVuSans-72" x="1503.857422"/>
     <use xlink:href="#DejaVuSans-69" x="1544.970703"/>
     <use xlink:href="#DejaVuSans-61" x="1572.753906"/>
     <use xlink:href="#DejaVuSans-6c" x="1634.033203"/>
     <use xlink:href="#DejaVuSans-73" x="1661.816406"/>
     <use xlink:href="#DejaVuSans-2f" x="1713.916016"/>
     <use xlink:href="#DejaVuSans-66" x="1747.607422"/>
     <use xlink:href="#DejaVuSans-75" x="1782.8125"/>
     <use xlink:href="#DejaVuSans-7a" x="1846.191406"/>
     <use xlink:href="#DejaVuSans-7a" x="1898.681641"/>
     <use xlink:href="#DejaVuSans-65" x="1951.171875"/>
     <use xlink:href="#DejaVuSans-72" x="2012.695312"/>
     <use xlink:href="#DejaVuSans-29" x="2053.808594"/>
    </g>
   </g>
  </g>
 </g>
 <defs>
  <clipPath id="p2c1db27246">
   <rect x="71.590275" y="22.318125" width="357.12" height="266.112"/>
  </clipPath>
 </defs>
</svg>
