<?xml version="1.0" encoding="utf-8" standalone="no"?>
<!DOCTYPE svg PUBLIC "-//W3C//DTD SVG 1.1//EN"
  "http://www.w3.org/Graphics/SVG/1.1/DTD/svg11.dtd">
<svg xmlns:xlink="http://www.w3.org/1999/xlink" width="425.990275pt" height="370.686865pt" viewBox="0 0 425.990275 370.686865" xmlns="http://www.w3.org/2000/svg" version="1.1">
 <metadata>
  <rdf:RDF xmlns:dc="http://purl.org/dc/elements/1.1/" xmlns:cc="http://creativecommons.org/ns#" xmlns:rdf="http://www.w3.org/1999/02/22-rdf-syntax-ns#">
   <cc:Work>
    <dc:type rdf:resource="http://purl.org/dc/dcmitype/StillImage"/>
    <dc:date>2022-06-05T16:11:32.968618</dc:date>
    <dc:format>image/svg+xml</dc:format>
    <dc:creator>
     <cc:Agent>
      <dc:title>Matplotlib v3.5.1, https://matplotlib.org/</dc:title>
     </cc:Agent>
    </dc:creator>
   </cc:Work>
  </rdf:RDF>
 </metadata>
 <defs>
  <style type="text/css">*{stroke-linejoin: round; stroke-linecap: butt}</style>
 </defs>
 <g id="figure_1">
  <g id="patch_1">
   <path d="M 0 370.686865 
L 425.990275 370.686865 
L 425.990275 0 
L 0 0 
z
" style="fill: #ffffff"/>
  </g>
  <g id="axes_1">
   <g id="patch_2">
    <path d="M 61.670275 288.430125 
L 418.790275 288.430125 
L 418.790275 22.318125 
L 61.670275 22.318125 
z
" style="fill: #ffffff"/>
   </g>
   <g id="PolyCollection_1">
    <defs>
     <path id="md2c9dee8ee" d="M 91.809758 -221.61731 
L 91.050791 -221.61731 
L 90.985994 -222.357141 
L 90.913486 -223.096972 
L 90.833019 -223.836803 
L 90.74447 -224.576634 
L 90.647866 -225.316465 
L 90.543403 -226.056295 
L 90.431466 -226.796126 
L 90.312638 -227.535957 
L 90.187716 -228.275788 
L 90.057707 -229.015619 
L 89.923828 -229.75545 
L 89.787489 -230.495281 
L 89.650273 -231.235112 
L 89.513908 -231.974943 
L 89.380227 -232.714774 
L 89.251125 -233.454605 
L 89.128504 -234.194436 
L 89.014218 -234.934267 
L 88.910014 -235.674098 
L 88.817467 -236.413929 
L 88.737921 -237.15376 
L 88.672431 -237.893591 
L 88.621709 -238.633422 
L 88.586074 -239.373253 
L 88.565418 -240.113084 
L 88.559175 -240.852915 
L 88.566305 -241.592745 
L 88.585285 -242.332576 
L 88.614119 -243.072407 
L 88.650353 -243.812238 
L 88.691107 -244.552069 
L 88.733115 -245.2919 
L 88.772777 -246.031731 
L 88.806219 -246.771562 
L 88.829363 -247.511393 
L 88.838001 -248.251224 
L 88.827883 -248.991055 
L 88.7948 -249.730886 
L 88.734678 -250.470717 
L 88.643676 -251.210548 
L 88.518277 -251.950379 
L 88.355393 -252.69021 
L 88.152456 -253.430041 
L 87.907514 -254.169872 
L 87.619319 -254.909703 
L 87.287406 -255.649534 
L 86.912169 -256.389365 
L 86.494909 -257.129196 
L 86.037884 -257.869026 
L 85.544324 -258.608857 
L 85.018434 -259.348688 
L 84.465367 -260.088519 
L 83.891172 -260.82835 
L 83.302717 -261.568181 
L 82.707578 -262.308012 
L 82.113915 -263.047843 
L 81.530304 -263.787674 
L 80.965569 -264.527505 
L 80.428583 -265.267336 
L 79.928064 -266.007167 
L 79.472367 -266.746998 
L 79.069279 -267.486829 
L 78.725817 -268.22666 
L 78.448053 -268.966491 
L 78.240955 -269.706322 
L 78.108255 -270.446153 
L 78.052364 -271.185984 
L 78.074303 -271.925815 
L 78.173697 -272.665646 
L 78.348792 -273.405476 
L 78.596515 -274.145307 
L 78.912579 -274.885138 
L 79.291604 -275.624969 
L 79.727281 -276.3648 
L 80.212547 -277.104631 
L 80.739778 -277.844462 
L 81.300988 -278.584293 
L 81.888027 -279.324124 
L 82.492775 -280.063955 
L 83.107323 -280.803786 
L 83.724135 -281.543617 
L 84.336187 -282.283448 
L 84.937085 -283.023279 
L 85.521154 -283.76311 
L 86.0835 -284.502941 
L 86.620043 -285.242772 
L 87.127531 -285.982603 
L 87.603522 -286.722434 
L 88.046352 -287.462265 
L 88.455082 -288.202096 
L 88.829438 -288.941927 
L 89.169729 -289.681757 
L 89.476772 -290.421588 
L 89.751806 -291.161419 
L 89.996409 -291.90125 
L 90.212416 -292.641081 
L 90.401841 -293.380912 
L 90.566814 -294.120743 
L 90.709512 -294.860574 
L 92.151038 -294.860574 
L 92.151038 -294.860574 
L 92.293735 -294.120743 
L 92.458708 -293.380912 
L 92.648134 -292.641081 
L 92.86414 -291.90125 
L 93.108743 -291.161419 
L 93.383778 -290.421588 
L 93.690821 -289.681757 
L 94.031112 -288.941927 
L 94.405467 -288.202096 
L 94.814198 -287.462265 
L 95.257027 -286.722434 
L 95.733018 -285.982603 
L 96.240506 -285.242772 
L 96.77705 -284.502941 
L 97.339396 -283.76311 
L 97.923465 -283.023279 
L 98.524363 -282.283448 
L 99.136415 -281.543617 
L 99.753226 -280.803786 
L 100.367775 -280.063955 
L 100.972523 -279.324124 
L 101.559562 -278.584293 
L 102.120771 -277.844462 
L 102.648003 -277.104631 
L 103.133269 -276.3648 
L 103.568946 -275.624969 
L 103.947971 -274.885138 
L 104.264034 -274.145307 
L 104.511758 -273.405476 
L 104.686852 -272.665646 
L 104.786247 -271.925815 
L 104.808186 -271.185984 
L 104.752294 -270.446153 
L 104.619595 -269.706322 
L 104.412496 -268.966491 
L 104.134733 -268.22666 
L 103.791271 -267.486829 
L 103.388182 -266.746998 
L 102.932486 -266.007167 
L 102.431967 -265.267336 
L 101.894981 -264.527505 
L 101.330246 -263.787674 
L 100.746635 -263.047843 
L 100.152971 -262.308012 
L 99.557833 -261.568181 
L 98.969377 -260.82835 
L 98.395182 -260.088519 
L 97.842115 -259.348688 
L 97.316226 -258.608857 
L 96.822666 -257.869026 
L 96.365641 -257.129196 
L 95.948381 -256.389365 
L 95.573143 -255.649534 
L 95.241231 -254.909703 
L 94.953035 -254.169872 
L 94.708093 -253.430041 
L 94.505156 -252.69021 
L 94.342272 -251.950379 
L 94.216874 -251.210548 
L 94.125871 -250.470717 
L 94.06575 -249.730886 
L 94.032666 -248.991055 
L 94.022548 -248.251224 
L 94.031187 -247.511393 
L 94.05433 -246.771562 
L 94.087772 -246.031731 
L 94.127434 -245.2919 
L 94.169443 -244.552069 
L 94.210197 -243.812238 
L 94.246431 -243.072407 
L 94.275265 -242.332576 
L 94.294245 -241.592745 
L 94.301375 -240.852915 
L 94.295132 -240.113084 
L 94.274476 -239.373253 
L 94.238841 -238.633422 
L 94.188118 -237.893591 
L 94.122629 -237.15376 
L 94.043083 -236.413929 
L 93.950536 -235.674098 
L 93.846332 -234.934267 
L 93.732046 -234.194436 
L 93.609425 -233.454605 
L 93.480322 -232.714774 
L 93.346642 -231.974943 
L 93.210277 -231.235112 
L 93.073061 -230.495281 
L 92.936721 -229.75545 
L 92.802842 -229.015619 
L 92.672834 -228.275788 
L 92.547912 -227.535957 
L 92.429084 -226.796126 
L 92.317146 -226.056295 
L 92.212683 -225.316465 
L 92.11608 -224.576634 
L 92.027531 -223.836803 
L 91.947063 -223.096972 
L 91.874555 -222.357141 
L 91.809758 -221.61731 
z
" style="stroke: #3f3f3f; stroke-width: 1.5"/>
    </defs>
    <g clip-path="url(#p1a549237b1)">
     <use xlink:href="#md2c9dee8ee" x="0" y="370.686865" style="fill: #e1812c; stroke: #3f3f3f; stroke-width: 1.5"/>
    </g>
   </g>
   <g id="PolyCollection_2">
    <defs>
     <path id="m84f3dc3cad" d="M 152.009531 -250.202265 
L 149.891018 -250.202265 
L 149.706029 -250.480895 
L 149.496888 -250.759525 
L 149.261978 -251.038155 
L 148.999828 -251.316785 
L 148.709162 -251.595416 
L 148.388936 -251.874046 
L 148.038389 -252.152676 
L 147.657069 -252.431306 
L 147.244867 -252.709936 
L 146.802044 -252.988566 
L 146.329239 -253.267197 
L 145.827476 -253.545827 
L 145.298164 -253.824457 
L 144.743073 -254.103087 
L 144.164319 -254.381717 
L 143.564327 -254.660347 
L 142.945789 -254.938977 
L 142.311625 -255.217608 
L 141.664928 -255.496238 
L 141.008913 -255.774868 
L 140.346872 -256.053498 
L 139.682114 -256.332128 
L 139.01793 -256.610758 
L 138.357539 -256.889389 
L 137.704061 -257.168019 
L 137.060474 -257.446649 
L 136.429594 -257.725279 
L 135.814046 -258.003909 
L 135.216242 -258.282539 
L 134.638366 -258.56117 
L 134.082351 -258.8398 
L 133.549867 -259.11843 
L 133.042297 -259.39706 
L 132.560727 -259.67569 
L 132.105924 -259.95432 
L 131.678321 -260.23295 
L 131.27801 -260.511581 
L 130.904728 -260.790211 
L 130.557866 -261.068841 
L 130.236472 -261.347471 
L 129.939277 -261.626101 
L 129.664729 -261.904731 
L 129.411046 -262.183362 
L 129.176274 -262.461992 
L 128.958372 -262.740622 
L 128.755301 -263.019252 
L 128.565122 -263.297882 
L 128.386109 -263.576512 
L 128.21685 -263.855143 
L 128.056355 -264.133773 
L 127.904153 -264.412403 
L 127.760369 -264.691033 
L 127.62579 -264.969663 
L 127.501899 -265.248293 
L 127.390889 -265.526923 
L 127.295638 -265.805554 
L 127.219663 -266.084184 
L 127.167036 -266.362814 
L 127.142275 -266.641444 
L 127.150211 -266.920074 
L 127.19583 -267.198704 
L 127.284106 -267.477335 
L 127.41982 -267.755965 
L 127.607381 -268.034595 
L 127.850656 -268.313225 
L 128.152807 -268.591855 
L 128.516149 -268.870485 
L 128.942035 -269.149115 
L 129.430774 -269.427746 
L 129.981569 -269.706376 
L 130.592507 -269.985006 
L 131.26057 -270.263636 
L 131.981693 -270.542266 
L 132.750838 -270.820896 
L 133.562116 -271.099527 
L 134.408918 -271.378157 
L 135.284072 -271.656787 
L 136.180011 -271.935417 
L 137.088949 -272.214047 
L 138.003058 -272.492677 
L 138.914636 -272.771308 
L 139.816272 -273.049938 
L 140.700986 -273.328568 
L 141.562362 -273.607198 
L 142.394647 -273.885828 
L 143.192833 -274.164458 
L 143.952713 -274.443088 
L 144.670911 -274.721719 
L 145.344887 -275.000349 
L 145.972923 -275.278979 
L 146.554089 -275.557609 
L 147.088185 -275.836239 
L 147.575681 -276.114869 
L 148.017636 -276.3935 
L 148.415617 -276.67213 
L 148.771611 -276.95076 
L 149.087937 -277.22939 
L 149.367163 -277.50802 
L 149.612023 -277.78665 
L 152.288526 -277.78665 
L 152.288526 -277.78665 
L 152.533386 -277.50802 
L 152.812612 -277.22939 
L 153.128939 -276.95076 
L 153.484932 -276.67213 
L 153.882913 -276.3935 
L 154.324868 -276.114869 
L 154.812364 -275.836239 
L 155.346461 -275.557609 
L 155.927626 -275.278979 
L 156.555663 -275.000349 
L 157.229639 -274.721719 
L 157.947836 -274.443088 
L 158.707716 -274.164458 
L 159.505902 -273.885828 
L 160.338187 -273.607198 
L 161.199563 -273.328568 
L 162.084278 -273.049938 
L 162.985913 -272.771308 
L 163.897492 -272.492677 
L 164.8116 -272.214047 
L 165.720539 -271.935417 
L 166.616478 -271.656787 
L 167.491632 -271.378157 
L 168.338434 -271.099527 
L 169.149712 -270.820896 
L 169.918857 -270.542266 
L 170.639979 -270.263636 
L 171.308043 -269.985006 
L 171.918981 -269.706376 
L 172.469776 -269.427746 
L 172.958514 -269.149115 
L 173.384401 -268.870485 
L 173.747742 -268.591855 
L 174.049893 -268.313225 
L 174.293169 -268.034595 
L 174.48073 -267.755965 
L 174.616443 -267.477335 
L 174.704719 -267.198704 
L 174.750339 -266.920074 
L 174.758275 -266.641444 
L 174.733514 -266.362814 
L 174.680887 -266.084184 
L 174.604911 -265.805554 
L 174.50966 -265.526923 
L 174.39865 -265.248293 
L 174.27476 -264.969663 
L 174.140181 -264.691033 
L 173.996397 -264.412403 
L 173.844195 -264.133773 
L 173.6837 -263.855143 
L 173.51444 -263.576512 
L 173.335427 -263.297882 
L 173.145249 -263.019252 
L 172.942178 -262.740622 
L 172.724276 -262.461992 
L 172.489504 -262.183362 
L 172.23582 -261.904731 
L 171.961273 -261.626101 
L 171.664078 -261.347471 
L 171.342684 -261.068841 
L 170.995821 -260.790211 
L 170.62254 -260.511581 
L 170.222228 -260.23295 
L 169.794626 -259.95432 
L 169.339822 -259.67569 
L 168.858252 -259.39706 
L 168.350683 -259.11843 
L 167.818198 -258.8398 
L 167.262183 -258.56117 
L 166.684307 -258.282539 
L 166.086503 -258.003909 
L 165.470955 -257.725279 
L 164.840075 -257.446649 
L 164.196489 -257.168019 
L 163.54301 -256.889389 
L 162.88262 -256.610758 
L 162.218435 -256.332128 
L 161.553678 -256.053498 
L 160.891636 -255.774868 
L 160.235622 -255.496238 
L 159.588924 -255.217608 
L 158.95476 -254.938977 
L 158.336223 -254.660347 
L 157.73623 -254.381717 
L 157.157477 -254.103087 
L 156.602386 -253.824457 
L 156.073073 -253.545827 
L 155.571311 -253.267197 
L 155.098505 -252.988566 
L 154.655682 -252.709936 
L 154.243481 -252.431306 
L 153.86216 -252.152676 
L 153.511613 -251.874046 
L 153.191388 -251.595416 
L 152.900721 -251.316785 
L 152.638571 -251.038155 
L 152.403661 -250.759525 
L 152.194521 -250.480895 
L 152.009531 -250.202265 
z
" style="stroke: #3f3f3f; stroke-width: 1.5"/>
    </defs>
    <g clip-path="url(#p1a549237b1)">
     <use xlink:href="#m84f3dc3cad" x="0" y="370.686865" style="fill: #f2a5a3; stroke: #3f3f3f; stroke-width: 1.5"/>
    </g>
   </g>
   <g id="PolyCollection_3">
    <defs>
     <path id="m6e48b6fa33" d="M 210.666233 -173.488947 
L 210.274317 -173.488947 
L 210.240063 -174.987901 
L 210.201386 -176.486855 
L 210.158014 -177.985809 
L 210.109709 -179.484763 
L 210.056277 -180.983717 
L 209.997575 -182.482671 
L 209.933522 -183.981624 
L 209.864102 -185.480578 
L 209.789373 -186.979532 
L 209.709465 -188.478486 
L 209.624586 -189.97744 
L 209.535018 -191.476394 
L 209.441115 -192.975348 
L 209.343295 -194.474301 
L 209.24203 -195.973255 
L 209.13784 -197.472209 
L 209.031276 -198.971163 
L 208.922908 -200.470117 
L 208.81331 -201.969071 
L 208.703043 -203.468025 
L 208.592643 -204.966978 
L 208.482608 -206.465932 
L 208.373383 -207.964886 
L 208.265352 -209.46384 
L 208.158831 -210.962794 
L 208.054063 -212.461748 
L 207.951217 -213.960702 
L 207.850389 -215.459655 
L 207.75161 -216.958609 
L 207.65485 -218.457563 
L 207.560026 -219.956517 
L 207.467021 -221.455471 
L 207.37569 -222.954425 
L 207.285875 -224.453379 
L 207.197423 -225.952332 
L 207.110192 -227.451286 
L 207.024071 -228.95024 
L 206.938985 -230.449194 
L 206.854908 -231.948148 
L 206.771866 -233.447102 
L 206.689946 -234.946055 
L 206.609295 -236.445009 
L 206.530121 -237.943963 
L 206.452692 -239.442917 
L 206.377332 -240.941871 
L 206.304416 -242.440825 
L 206.234362 -243.939779 
L 206.167628 -245.438732 
L 206.104701 -246.937686 
L 206.046092 -248.43664 
L 205.992328 -249.935594 
L 205.943944 -251.434548 
L 205.901481 -252.933502 
L 205.865476 -254.432456 
L 205.836459 -255.931409 
L 205.81495 -257.430363 
L 205.801449 -258.929317 
L 205.796439 -260.428271 
L 205.800372 -261.927225 
L 205.813672 -263.426179 
L 205.836719 -264.925133 
L 205.869851 -266.424086 
L 205.913349 -267.92304 
L 205.967426 -269.421994 
L 206.032224 -270.920948 
L 206.107798 -272.419902 
L 206.194106 -273.918856 
L 206.291 -275.41781 
L 206.398219 -276.916763 
L 206.51538 -278.415717 
L 206.641978 -279.914671 
L 206.777378 -281.413625 
L 206.920824 -282.912579 
L 207.071443 -284.411533 
L 207.228252 -285.910487 
L 207.390176 -287.40944 
L 207.556061 -288.908394 
L 207.724695 -290.407348 
L 207.89483 -291.906302 
L 208.065207 -293.405256 
L 208.234577 -294.90421 
L 208.401728 -296.403164 
L 208.565506 -297.902117 
L 208.724839 -299.401071 
L 208.878751 -300.900025 
L 209.026384 -302.398979 
L 209.167005 -303.897933 
L 209.300017 -305.396887 
L 209.424959 -306.895841 
L 209.541513 -308.394794 
L 209.649495 -309.893748 
L 209.748851 -311.392702 
L 209.839647 -312.891656 
L 209.922056 -314.39061 
L 209.996344 -315.889564 
L 210.062861 -317.388518 
L 210.122017 -318.887471 
L 210.174272 -320.386425 
L 210.220123 -321.885379 
L 210.720426 -321.885379 
L 210.720426 -321.885379 
L 210.766277 -320.386425 
L 210.818533 -318.887471 
L 210.877689 -317.388518 
L 210.944205 -315.889564 
L 211.018494 -314.39061 
L 211.100902 -312.891656 
L 211.191698 -311.392702 
L 211.291054 -309.893748 
L 211.399037 -308.394794 
L 211.515591 -306.895841 
L 211.640533 -305.396887 
L 211.773544 -303.897933 
L 211.914165 -302.398979 
L 212.061798 -300.900025 
L 212.215711 -299.401071 
L 212.375043 -297.902117 
L 212.538821 -296.403164 
L 212.705972 -294.90421 
L 212.875342 -293.405256 
L 213.045719 -291.906302 
L 213.215855 -290.407348 
L 213.384489 -288.908394 
L 213.550373 -287.40944 
L 213.712297 -285.910487 
L 213.869107 -284.411533 
L 214.019725 -282.912579 
L 214.163172 -281.413625 
L 214.298572 -279.914671 
L 214.425169 -278.415717 
L 214.542331 -276.916763 
L 214.64955 -275.41781 
L 214.746444 -273.918856 
L 214.832751 -272.419902 
L 214.908325 -270.920948 
L 214.973123 -269.421994 
L 215.027201 -267.92304 
L 215.070698 -266.424086 
L 215.10383 -264.925133 
L 215.126878 -263.426179 
L 215.140177 -261.927225 
L 215.144111 -260.428271 
L 215.1391 -258.929317 
L 215.1256 -257.430363 
L 215.10409 -255.931409 
L 215.075074 -254.432456 
L 215.039069 -252.933502 
L 214.996605 -251.434548 
L 214.948222 -249.935594 
L 214.894457 -248.43664 
L 214.835848 -246.937686 
L 214.772921 -245.438732 
L 214.706187 -243.939779 
L 214.636134 -242.440825 
L 214.563217 -240.941871 
L 214.487858 -239.442917 
L 214.410429 -237.943963 
L 214.331255 -236.445009 
L 214.250603 -234.946055 
L 214.168683 -233.447102 
L 214.085642 -231.948148 
L 214.001564 -230.449194 
L 213.916479 -228.95024 
L 213.830358 -227.451286 
L 213.743127 -225.952332 
L 213.654674 -224.453379 
L 213.56486 -222.954425 
L 213.473528 -221.455471 
L 213.380523 -219.956517 
L 213.2857 -218.457563 
L 213.188939 -216.958609 
L 213.09016 -215.459655 
L 212.989333 -213.960702 
L 212.886487 -212.461748 
L 212.781718 -210.962794 
L 212.675197 -209.46384 
L 212.567166 -207.964886 
L 212.457941 -206.465932 
L 212.347906 -204.966978 
L 212.237507 -203.468025 
L 212.12724 -201.969071 
L 212.017641 -200.470117 
L 211.909273 -198.971163 
L 211.80271 -197.472209 
L 211.69852 -195.973255 
L 211.597255 -194.474301 
L 211.499434 -192.975348 
L 211.405531 -191.476394 
L 211.315964 -189.97744 
L 211.231085 -188.478486 
L 211.151177 -186.979532 
L 211.076447 -185.480578 
L 211.007028 -183.981624 
L 210.942975 -182.482671 
L 210.884273 -180.983717 
L 210.83084 -179.484763 
L 210.782535 -177.985809 
L 210.739163 -176.486855 
L 210.700486 -174.987901 
L 210.666233 -173.488947 
z
" style="stroke: #3f3f3f; stroke-width: 1.5"/>
    </defs>
    <g clip-path="url(#p1a549237b1)">
     <use xlink:href="#m6e48b6fa33" x="0" y="370.686865" style="fill: #3274a1; stroke: #3f3f3f; stroke-width: 1.5"/>
    </g>
   </g>
   <g id="PolyCollection_4">
    <defs>
     <path id="m9e8840ef19" d="M 270.153044 -139.441109 
L 269.827506 -139.441109 
L 269.798762 -141.220942 
L 269.766458 -143.000776 
L 269.730459 -144.780609 
L 269.690688 -146.560442 
L 269.647128 -148.340276 
L 269.599842 -150.120109 
L 269.548969 -151.899942 
L 269.494735 -153.679776 
L 269.437454 -155.459609 
L 269.377525 -157.239442 
L 269.315425 -159.019275 
L 269.251705 -160.799109 
L 269.186969 -162.578942 
L 269.121861 -164.358775 
L 269.057044 -166.138609 
L 268.993171 -167.918442 
L 268.930863 -169.698275 
L 268.870681 -171.478109 
L 268.813095 -173.257942 
L 268.758461 -175.037775 
L 268.706995 -176.817609 
L 268.658753 -178.597442 
L 268.613618 -180.377275 
L 268.57129 -182.157109 
L 268.531282 -183.936942 
L 268.492927 -185.716775 
L 268.455394 -187.496609 
L 268.417702 -189.276442 
L 268.378751 -191.056275 
L 268.337355 -192.836109 
L 268.292278 -194.615942 
L 268.242281 -196.395775 
L 268.186159 -198.175609 
L 268.122793 -199.955442 
L 268.051189 -201.735275 
L 267.970521 -203.515109 
L 267.880166 -205.294942 
L 267.779742 -207.074775 
L 267.669127 -208.854609 
L 267.548476 -210.634442 
L 267.418239 -212.414275 
L 267.279154 -214.194109 
L 267.132245 -215.973942 
L 266.978803 -217.753775 
L 266.820368 -219.533609 
L 266.658695 -221.313442 
L 266.495719 -223.093275 
L 266.333513 -224.873109 
L 266.174243 -226.652942 
L 266.020117 -228.432775 
L 265.873341 -230.212609 
L 265.736062 -231.992442 
L 265.610327 -233.772275 
L 265.498032 -235.552108 
L 265.400884 -237.331942 
L 265.320364 -239.111775 
L 265.257699 -240.891608 
L 265.213838 -242.671442 
L 265.189438 -244.451275 
L 265.184857 -246.231108 
L 265.200156 -248.010942 
L 265.235107 -249.790775 
L 265.289206 -251.570608 
L 265.361697 -253.350442 
L 265.451598 -255.130275 
L 265.557729 -256.910108 
L 265.678747 -258.689942 
L 265.813178 -260.469775 
L 265.959453 -262.249608 
L 266.11594 -264.029442 
L 266.280975 -265.809275 
L 266.45289 -267.589108 
L 266.630041 -269.368942 
L 266.81083 -271.148775 
L 266.993721 -272.928608 
L 267.177256 -274.708442 
L 267.360071 -276.488275 
L 267.5409 -278.268108 
L 267.718584 -280.047942 
L 267.892077 -281.827775 
L 268.060447 -283.607608 
L 268.222878 -285.387442 
L 268.37867 -287.167275 
L 268.527237 -288.947108 
L 268.66811 -290.726942 
L 268.800929 -292.506775 
L 268.925443 -294.286608 
L 269.041503 -296.066442 
L 269.149059 -297.846275 
L 269.248154 -299.626108 
L 269.338917 -301.405942 
L 269.421552 -303.185775 
L 269.496332 -304.965608 
L 269.563592 -306.745441 
L 269.623711 -308.525275 
L 269.677112 -310.305108 
L 269.724244 -312.084941 
L 269.765577 -313.864775 
L 269.801589 -315.644608 
L 270.17896 -315.644608 
L 270.17896 -315.644608 
L 270.214972 -313.864775 
L 270.256305 -312.084941 
L 270.303438 -310.305108 
L 270.356838 -308.525275 
L 270.416958 -306.745441 
L 270.484217 -304.965608 
L 270.558998 -303.185775 
L 270.641633 -301.405942 
L 270.732395 -299.626108 
L 270.831491 -297.846275 
L 270.939047 -296.066442 
L 271.055107 -294.286608 
L 271.17962 -292.506775 
L 271.312439 -290.726942 
L 271.453312 -288.947108 
L 271.60188 -287.167275 
L 271.757672 -285.387442 
L 271.920102 -283.607608 
L 272.088472 -281.827775 
L 272.261966 -280.047942 
L 272.43965 -278.268108 
L 272.620478 -276.488275 
L 272.803293 -274.708442 
L 272.986829 -272.928608 
L 273.169719 -271.148775 
L 273.350508 -269.368942 
L 273.52766 -267.589108 
L 273.699575 -265.809275 
L 273.864609 -264.029442 
L 274.021096 -262.249608 
L 274.167371 -260.469775 
L 274.301803 -258.689942 
L 274.422821 -256.910108 
L 274.528952 -255.130275 
L 274.618852 -253.350442 
L 274.691344 -251.570608 
L 274.745443 -249.790775 
L 274.780393 -248.010942 
L 274.795693 -246.231108 
L 274.791112 -244.451275 
L 274.766712 -242.671442 
L 274.72285 -240.891608 
L 274.660185 -239.111775 
L 274.579665 -237.331942 
L 274.482517 -235.552108 
L 274.370222 -233.772275 
L 274.244487 -231.992442 
L 274.107209 -230.212609 
L 273.960433 -228.432775 
L 273.806307 -226.652942 
L 273.647036 -224.873109 
L 273.48483 -223.093275 
L 273.321854 -221.313442 
L 273.160181 -219.533609 
L 273.001746 -217.753775 
L 272.848305 -215.973942 
L 272.701395 -214.194109 
L 272.56231 -212.414275 
L 272.432073 -210.634442 
L 272.311423 -208.854609 
L 272.200807 -207.074775 
L 272.100383 -205.294942 
L 272.010029 -203.515109 
L 271.92936 -201.735275 
L 271.857756 -199.955442 
L 271.79439 -198.175609 
L 271.738269 -196.395775 
L 271.688271 -194.615942 
L 271.643195 -192.836109 
L 271.601799 -191.056275 
L 271.562848 -189.276442 
L 271.525155 -187.496609 
L 271.487622 -185.716775 
L 271.449268 -183.936942 
L 271.40926 -182.157109 
L 271.366931 -180.377275 
L 271.321796 -178.597442 
L 271.273554 -176.817609 
L 271.222088 -175.037775 
L 271.167454 -173.257942 
L 271.109868 -171.478109 
L 271.049686 -169.698275 
L 270.987379 -167.918442 
L 270.923506 -166.138609 
L 270.858688 -164.358775 
L 270.793581 -162.578942 
L 270.728845 -160.799109 
L 270.665124 -159.019275 
L 270.603025 -157.239442 
L 270.543096 -155.459609 
L 270.485815 -153.679776 
L 270.431581 -151.899942 
L 270.380708 -150.120109 
L 270.333421 -148.340276 
L 270.289862 -146.560442 
L 270.25009 -144.780609 
L 270.214091 -143.000776 
L 270.181787 -141.220942 
L 270.153044 -139.441109 
z
" style="stroke: #3f3f3f; stroke-width: 1.5"/>
    </defs>
    <g clip-path="url(#p1a549237b1)">
     <use xlink:href="#m9e8840ef19" x="0" y="370.686865" style="fill: #9fd495; stroke: #3f3f3f; stroke-width: 1.5"/>
    </g>
   </g>
   <g id="PolyCollection_5">
    <defs>
     <path id="mfb6b177eb9" d="M 329.636078 -94.35274 
L 329.384472 -94.35274 
L 329.363053 -96.578358 
L 329.339092 -98.803975 
L 329.312507 -101.029592 
L 329.283258 -103.25521 
L 329.251352 -105.480827 
L 329.216855 -107.706444 
L 329.179891 -109.932061 
L 329.140652 -112.157679 
L 329.099397 -114.383296 
L 329.056458 -116.608913 
L 329.012232 -118.834531 
L 328.967183 -121.060148 
L 328.92183 -123.285765 
L 328.87674 -125.511382 
L 328.832516 -127.737 
L 328.789784 -129.962617 
L 328.749169 -132.188234 
L 328.711285 -134.413852 
L 328.676711 -136.639469 
L 328.645972 -138.865086 
L 328.619518 -141.090703 
L 328.597707 -143.316321 
L 328.580784 -145.541938 
L 328.568869 -147.767555 
L 328.561944 -149.993173 
L 328.559839 -152.21879 
L 328.562232 -154.444407 
L 328.568643 -156.670024 
L 328.578436 -158.895642 
L 328.590827 -161.121259 
L 328.604887 -163.346876 
L 328.619564 -165.572493 
L 328.633689 -167.798111 
L 328.646003 -170.023728 
L 328.655175 -172.249345 
L 328.659826 -174.474963 
L 328.658558 -176.70058 
L 328.649979 -178.926197 
L 328.632733 -181.151814 
L 328.605531 -183.377432 
L 328.567184 -185.603049 
L 328.516632 -187.828666 
L 328.452975 -190.054284 
L 328.375507 -192.279901 
L 328.283745 -194.505518 
L 328.177454 -196.731135 
L 328.056672 -198.956753 
L 327.921735 -201.18237 
L 327.773287 -203.407987 
L 327.612293 -205.633605 
L 327.440043 -207.859222 
L 327.258144 -210.084839 
L 327.068507 -212.310456 
L 326.873327 -214.536074 
L 326.67505 -216.761691 
L 326.476331 -218.987308 
L 326.279989 -221.212926 
L 326.088943 -223.438543 
L 325.906158 -225.66416 
L 325.734571 -227.889777 
L 325.577026 -230.115395 
L 325.436202 -232.341012 
L 325.314545 -234.566629 
L 325.214205 -236.792247 
L 325.136983 -239.017864 
L 325.084279 -241.243481 
L 325.057059 -243.469098 
L 325.055831 -245.694716 
L 325.080633 -247.920333 
L 325.131032 -250.14595 
L 325.206149 -252.371568 
L 325.304676 -254.597185 
L 325.424926 -256.822802 
L 325.564877 -259.048419 
L 325.722231 -261.274037 
L 325.89448 -263.499654 
L 326.078968 -265.725271 
L 326.272963 -267.950889 
L 326.473723 -270.176506 
L 326.678556 -272.402123 
L 326.88488 -274.62774 
L 327.090272 -276.853358 
L 327.29251 -279.078975 
L 327.489608 -281.304592 
L 327.679839 -283.530209 
L 327.861748 -285.755827 
L 328.034162 -287.981444 
L 328.196184 -290.207061 
L 328.347184 -292.432679 
L 328.486783 -294.658296 
L 328.614833 -296.883913 
L 328.731394 -299.10953 
L 328.836701 -301.335148 
L 328.931141 -303.560765 
L 329.015224 -305.786382 
L 329.089551 -308.012 
L 329.154793 -310.237617 
L 329.21166 -312.463234 
L 329.260888 -314.688851 
L 329.759661 -314.688851 
L 329.759661 -314.688851 
L 329.808889 -312.463234 
L 329.865757 -310.237617 
L 329.930998 -308.012 
L 330.005326 -305.786382 
L 330.089408 -303.560765 
L 330.183849 -301.335148 
L 330.289156 -299.10953 
L 330.405716 -296.883913 
L 330.533767 -294.658296 
L 330.673366 -292.432679 
L 330.824365 -290.207061 
L 330.986387 -287.981444 
L 331.158801 -285.755827 
L 331.340711 -283.530209 
L 331.530942 -281.304592 
L 331.72804 -279.078975 
L 331.930278 -276.853358 
L 332.135669 -274.62774 
L 332.341993 -272.402123 
L 332.546826 -270.176506 
L 332.747586 -267.950889 
L 332.941582 -265.725271 
L 333.12607 -263.499654 
L 333.298318 -261.274037 
L 333.455673 -259.048419 
L 333.595623 -256.822802 
L 333.715873 -254.597185 
L 333.814401 -252.371568 
L 333.889517 -250.14595 
L 333.939917 -247.920333 
L 333.964718 -245.694716 
L 333.96349 -243.469098 
L 333.936271 -241.243481 
L 333.883567 -239.017864 
L 333.806344 -236.792247 
L 333.706005 -234.566629 
L 333.584347 -232.341012 
L 333.443523 -230.115395 
L 333.285978 -227.889777 
L 333.114392 -225.66416 
L 332.931607 -223.438543 
L 332.740561 -221.212926 
L 332.544218 -218.987308 
L 332.3455 -216.761691 
L 332.147223 -214.536074 
L 331.952043 -212.310456 
L 331.762406 -210.084839 
L 331.580506 -207.859222 
L 331.408256 -205.633605 
L 331.247263 -203.407987 
L 331.098815 -201.18237 
L 330.963878 -198.956753 
L 330.843096 -196.731135 
L 330.736804 -194.505518 
L 330.645042 -192.279901 
L 330.567575 -190.054284 
L 330.503918 -187.828666 
L 330.453365 -185.603049 
L 330.415018 -183.377432 
L 330.387817 -181.151814 
L 330.370571 -178.926197 
L 330.361991 -176.70058 
L 330.360723 -174.474963 
L 330.365375 -172.249345 
L 330.374547 -170.023728 
L 330.386861 -167.798111 
L 330.400986 -165.572493 
L 330.415662 -163.346876 
L 330.429723 -161.121259 
L 330.442113 -158.895642 
L 330.451907 -156.670024 
L 330.458318 -154.444407 
L 330.460711 -152.21879 
L 330.458606 -149.993173 
L 330.45168 -147.767555 
L 330.439766 -145.541938 
L 330.422843 -143.316321 
L 330.401031 -141.090703 
L 330.374578 -138.865086 
L 330.343839 -136.639469 
L 330.309265 -134.413852 
L 330.271381 -132.188234 
L 330.230766 -129.962617 
L 330.188033 -127.737 
L 330.14381 -125.511382 
L 330.09872 -123.285765 
L 330.053367 -121.060148 
L 330.008317 -118.834531 
L 329.964091 -116.608913 
L 329.921152 -114.383296 
L 329.879898 -112.157679 
L 329.840658 -109.932061 
L 329.803694 -107.706444 
L 329.769197 -105.480827 
L 329.737292 -103.25521 
L 329.708043 -101.029592 
L 329.681458 -98.803975 
L 329.657497 -96.578358 
L 329.636078 -94.35274 
z
" style="stroke: #3f3f3f; stroke-width: 1.5"/>
    </defs>
    <g clip-path="url(#p1a549237b1)">
     <use xlink:href="#mfb6b177eb9" x="0" y="370.686865" style="fill: #c7c7c7; stroke: #3f3f3f; stroke-width: 1.5"/>
    </g>
   </g>
   <g id="PolyCollection_6">
    <defs>
     <path id="mbeb5857662" d="M 389.154357 -105.38344 
L 388.906193 -105.38344 
L 388.884913 -107.715655 
L 388.860939 -110.04787 
L 388.83411 -112.380086 
L 388.804285 -114.712301 
L 388.771354 -117.044516 
L 388.735236 -119.376731 
L 388.695889 -121.708946 
L 388.653313 -124.041161 
L 388.607554 -126.373376 
L 388.558705 -128.705592 
L 388.506909 -131.037807 
L 388.452359 -133.370022 
L 388.395296 -135.702237 
L 388.336006 -138.034452 
L 388.274814 -140.366667 
L 388.212081 -142.698883 
L 388.148193 -145.031098 
L 388.083558 -147.363313 
L 388.018586 -149.695528 
L 387.953692 -152.027743 
L 387.889275 -154.359958 
L 387.82571 -156.692174 
L 387.763344 -159.024389 
L 387.702476 -161.356604 
L 387.643358 -163.688819 
L 387.586181 -166.021034 
L 387.531076 -168.353249 
L 387.478104 -170.685464 
L 387.427259 -173.01768 
L 387.378466 -175.349895 
L 387.331584 -177.68211 
L 387.28641 -180.014325 
L 387.242688 -182.34654 
L 387.200112 -184.678755 
L 387.158343 -187.010971 
L 387.117012 -189.343186 
L 387.075742 -191.675401 
L 387.034151 -194.007616 
L 386.991874 -196.339831 
L 386.94857 -198.672046 
L 386.903941 -201.004261 
L 386.857741 -203.336477 
L 386.809788 -205.668692 
L 386.759976 -208.000907 
L 386.708281 -210.333122 
L 386.65477 -212.665337 
L 386.599603 -214.997552 
L 386.543038 -217.329768 
L 386.485426 -219.661983 
L 386.427215 -221.994198 
L 386.368935 -224.326413 
L 386.311201 -226.658628 
L 386.254694 -228.990843 
L 386.200157 -231.323058 
L 386.148373 -233.655274 
L 386.100161 -235.987489 
L 386.056348 -238.319704 
L 386.017764 -240.651919 
L 385.985216 -242.984134 
L 385.959478 -245.316349 
L 385.941269 -247.648565 
L 385.931242 -249.98078 
L 385.929965 -252.312995 
L 385.93791 -254.64521 
L 385.955443 -256.977425 
L 385.982808 -259.30964 
L 386.020126 -261.641855 
L 386.067385 -263.974071 
L 386.124439 -266.306286 
L 386.191008 -268.638501 
L 386.266679 -270.970716 
L 386.350915 -273.302931 
L 386.443058 -275.635146 
L 386.542345 -277.967362 
L 386.647918 -280.299577 
L 386.758841 -282.631792 
L 386.874119 -284.964007 
L 386.992713 -287.296222 
L 387.113562 -289.628437 
L 387.235602 -291.960652 
L 387.357788 -294.292868 
L 387.479109 -296.625083 
L 387.598609 -298.957298 
L 387.7154 -301.289513 
L 387.828678 -303.621728 
L 387.937732 -305.953943 
L 388.041953 -308.286159 
L 388.140839 -310.618374 
L 388.233998 -312.950589 
L 388.321145 -315.282804 
L 388.402103 -317.615019 
L 388.476792 -319.947234 
L 388.545229 -322.279449 
L 388.607511 -324.611665 
L 388.663808 -326.94388 
L 388.714356 -329.276095 
L 388.759439 -331.60831 
L 388.799379 -333.940525 
L 388.834531 -336.27274 
L 389.226019 -336.27274 
L 389.226019 -336.27274 
L 389.26117 -333.940525 
L 389.301111 -331.60831 
L 389.346193 -329.276095 
L 389.396741 -326.94388 
L 389.453039 -324.611665 
L 389.515321 -322.279449 
L 389.583757 -319.947234 
L 389.658447 -317.615019 
L 389.739404 -315.282804 
L 389.826552 -312.950589 
L 389.91971 -310.618374 
L 390.018597 -308.286159 
L 390.122818 -305.953943 
L 390.231872 -303.621728 
L 390.34515 -301.289513 
L 390.461941 -298.957298 
L 390.581441 -296.625083 
L 390.702762 -294.292868 
L 390.824947 -291.960652 
L 390.946988 -289.628437 
L 391.067837 -287.296222 
L 391.18643 -284.964007 
L 391.301708 -282.631792 
L 391.412632 -280.299577 
L 391.518205 -277.967362 
L 391.617492 -275.635146 
L 391.709635 -273.302931 
L 391.79387 -270.970716 
L 391.869542 -268.638501 
L 391.936111 -266.306286 
L 391.993165 -263.974071 
L 392.040424 -261.641855 
L 392.077742 -259.30964 
L 392.105107 -256.977425 
L 392.122639 -254.64521 
L 392.130585 -252.312995 
L 392.129308 -249.98078 
L 392.11928 -247.648565 
L 392.101072 -245.316349 
L 392.075333 -242.984134 
L 392.042786 -240.651919 
L 392.004201 -238.319704 
L 391.960389 -235.987489 
L 391.912176 -233.655274 
L 391.860393 -231.323058 
L 391.805855 -228.990843 
L 391.749349 -226.658628 
L 391.691614 -224.326413 
L 391.633335 -221.994198 
L 391.575123 -219.661983 
L 391.517512 -217.329768 
L 391.460947 -214.997552 
L 391.40578 -212.665337 
L 391.352269 -210.333122 
L 391.300574 -208.000907 
L 391.250762 -205.668692 
L 391.202809 -203.336477 
L 391.156609 -201.004261 
L 391.11198 -198.672046 
L 391.068676 -196.339831 
L 391.026398 -194.007616 
L 390.984808 -191.675401 
L 390.943537 -189.343186 
L 390.902207 -187.010971 
L 390.860437 -184.678755 
L 390.817862 -182.34654 
L 390.774139 -180.014325 
L 390.728965 -177.68211 
L 390.682083 -175.349895 
L 390.63329 -173.01768 
L 390.582445 -170.685464 
L 390.529473 -168.353249 
L 390.474368 -166.021034 
L 390.417192 -163.688819 
L 390.358074 -161.356604 
L 390.297206 -159.024389 
L 390.234839 -156.692174 
L 390.171275 -154.359958 
L 390.106857 -152.027743 
L 390.041963 -149.695528 
L 389.976992 -147.363313 
L 389.912356 -145.031098 
L 389.848469 -142.698883 
L 389.785736 -140.366667 
L 389.724544 -138.034452 
L 389.665253 -135.702237 
L 389.60819 -133.370022 
L 389.553641 -131.037807 
L 389.501845 -128.705592 
L 389.452995 -126.373376 
L 389.407236 -124.041161 
L 389.36466 -121.708946 
L 389.325313 -119.376731 
L 389.289195 -117.044516 
L 389.256264 -114.712301 
L 389.22644 -112.380086 
L 389.19961 -110.04787 
L 389.175636 -107.715655 
L 389.154357 -105.38344 
z
" style="stroke: #3f3f3f; stroke-width: 1.5"/>
    </defs>
    <g clip-path="url(#p1a549237b1)">
     <use xlink:href="#mbeb5857662" x="0" y="370.686865" style="fill: #c03d3e; stroke: #3f3f3f; stroke-width: 1.5"/>
    </g>
   </g>
   <g id="matplotlib.axis_1">
    <g id="xtick_1">
     <g id="line2d_1">
      <defs>
       <path id="mcfc364af31" d="M 0 0 
L 0 3.5 
" style="stroke: #000000; stroke-width: 0.8"/>
      </defs>
      <g>
       <use xlink:href="#mcfc364af31" x="91.430275" y="288.430125" style="stroke: #000000; stroke-width: 0.8"/>
      </g>
     </g>
     <g id="text_1">
      <!-- aflplusplus_ast_o2 -->
      <g transform="translate(10.999219 347.766815)rotate(-30)scale(0.1 -0.1)">
       <defs>
        <path id="DejaVuSans-61" d="M 2194 1759 
Q 1497 1759 1228 1600 
Q 959 1441 959 1056 
Q 959 750 1161 570 
Q 1363 391 1709 391 
Q 2188 391 2477 730 
Q 2766 1069 2766 1631 
L 2766 1759 
L 2194 1759 
z
M 3341 1997 
L 3341 0 
L 2766 0 
L 2766 531 
Q 2569 213 2275 61 
Q 1981 -91 1556 -91 
Q 1019 -91 701 211 
Q 384 513 384 1019 
Q 384 1609 779 1909 
Q 1175 2209 1959 2209 
L 2766 2209 
L 2766 2266 
Q 2766 2663 2505 2880 
Q 2244 3097 1772 3097 
Q 1472 3097 1187 3025 
Q 903 2953 641 2809 
L 641 3341 
Q 956 3463 1253 3523 
Q 1550 3584 1831 3584 
Q 2591 3584 2966 3190 
Q 3341 2797 3341 1997 
z
" transform="scale(0.015625)"/>
        <path id="DejaVuSans-66" d="M 2375 4863 
L 2375 4384 
L 1825 4384 
Q 1516 4384 1395 4259 
Q 1275 4134 1275 3809 
L 1275 3500 
L 2222 3500 
L 2222 3053 
L 1275 3053 
L 1275 0 
L 697 0 
L 697 3053 
L 147 3053 
L 147 3500 
L 697 3500 
L 697 3744 
Q 697 4328 969 4595 
Q 1241 4863 1831 4863 
L 2375 4863 
z
" transform="scale(0.015625)"/>
        <path id="DejaVuSans-6c" d="M 603 4863 
L 1178 4863 
L 1178 0 
L 603 0 
L 603 4863 
z
" transform="scale(0.015625)"/>
        <path id="DejaVuSans-70" d="M 1159 525 
L 1159 -1331 
L 581 -1331 
L 581 3500 
L 1159 3500 
L 1159 2969 
Q 1341 3281 1617 3432 
Q 1894 3584 2278 3584 
Q 2916 3584 3314 3078 
Q 3713 2572 3713 1747 
Q 3713 922 3314 415 
Q 2916 -91 2278 -91 
Q 1894 -91 1617 61 
Q 1341 213 1159 525 
z
M 3116 1747 
Q 3116 2381 2855 2742 
Q 2594 3103 2138 3103 
Q 1681 3103 1420 2742 
Q 1159 2381 1159 1747 
Q 1159 1113 1420 752 
Q 1681 391 2138 391 
Q 2594 391 2855 752 
Q 3116 1113 3116 1747 
z
" transform="scale(0.015625)"/>
        <path id="DejaVuSans-75" d="M 544 1381 
L 544 3500 
L 1119 3500 
L 1119 1403 
Q 1119 906 1312 657 
Q 1506 409 1894 409 
Q 2359 409 2629 706 
Q 2900 1003 2900 1516 
L 2900 3500 
L 3475 3500 
L 3475 0 
L 2900 0 
L 2900 538 
Q 2691 219 2414 64 
Q 2138 -91 1772 -91 
Q 1169 -91 856 284 
Q 544 659 544 1381 
z
M 1991 3584 
L 1991 3584 
z
" transform="scale(0.015625)"/>
        <path id="DejaVuSans-73" d="M 2834 3397 
L 2834 2853 
Q 2591 2978 2328 3040 
Q 2066 3103 1784 3103 
Q 1356 3103 1142 2972 
Q 928 2841 928 2578 
Q 928 2378 1081 2264 
Q 1234 2150 1697 2047 
L 1894 2003 
Q 2506 1872 2764 1633 
Q 3022 1394 3022 966 
Q 3022 478 2636 193 
Q 2250 -91 1575 -91 
Q 1294 -91 989 -36 
Q 684 19 347 128 
L 347 722 
Q 666 556 975 473 
Q 1284 391 1588 391 
Q 1994 391 2212 530 
Q 2431 669 2431 922 
Q 2431 1156 2273 1281 
Q 2116 1406 1581 1522 
L 1381 1569 
Q 847 1681 609 1914 
Q 372 2147 372 2553 
Q 372 3047 722 3315 
Q 1072 3584 1716 3584 
Q 2034 3584 2315 3537 
Q 2597 3491 2834 3397 
z
" transform="scale(0.015625)"/>
        <path id="DejaVuSans-5f" d="M 3263 -1063 
L 3263 -1509 
L -63 -1509 
L -63 -1063 
L 3263 -1063 
z
" transform="scale(0.015625)"/>
        <path id="DejaVuSans-74" d="M 1172 4494 
L 1172 3500 
L 2356 3500 
L 2356 3053 
L 1172 3053 
L 1172 1153 
Q 1172 725 1289 603 
Q 1406 481 1766 481 
L 2356 481 
L 2356 0 
L 1766 0 
Q 1100 0 847 248 
Q 594 497 594 1153 
L 594 3053 
L 172 3053 
L 172 3500 
L 594 3500 
L 594 4494 
L 1172 4494 
z
" transform="scale(0.015625)"/>
        <path id="DejaVuSans-6f" d="M 1959 3097 
Q 1497 3097 1228 2736 
Q 959 2375 959 1747 
Q 959 1119 1226 758 
Q 1494 397 1959 397 
Q 2419 397 2687 759 
Q 2956 1122 2956 1747 
Q 2956 2369 2687 2733 
Q 2419 3097 1959 3097 
z
M 1959 3584 
Q 2709 3584 3137 3096 
Q 3566 2609 3566 1747 
Q 3566 888 3137 398 
Q 2709 -91 1959 -91 
Q 1206 -91 779 398 
Q 353 888 353 1747 
Q 353 2609 779 3096 
Q 1206 3584 1959 3584 
z
" transform="scale(0.015625)"/>
        <path id="DejaVuSans-32" d="M 1228 531 
L 3431 531 
L 3431 0 
L 469 0 
L 469 531 
Q 828 903 1448 1529 
Q 2069 2156 2228 2338 
Q 2531 2678 2651 2914 
Q 2772 3150 2772 3378 
Q 2772 3750 2511 3984 
Q 2250 4219 1831 4219 
Q 1534 4219 1204 4116 
Q 875 4013 500 3803 
L 500 4441 
Q 881 4594 1212 4672 
Q 1544 4750 1819 4750 
Q 2544 4750 2975 4387 
Q 3406 4025 3406 3419 
Q 3406 3131 3298 2873 
Q 3191 2616 2906 2266 
Q 2828 2175 2409 1742 
Q 1991 1309 1228 531 
z
" transform="scale(0.015625)"/>
       </defs>
       <use xlink:href="#DejaVuSans-61"/>
       <use xlink:href="#DejaVuSans-66" x="61.279297"/>
       <use xlink:href="#DejaVuSans-6c" x="96.484375"/>
       <use xlink:href="#DejaVuSans-70" x="124.267578"/>
       <use xlink:href="#DejaVuSans-6c" x="187.744141"/>
       <use xlink:href="#DejaVuSans-75" x="215.527344"/>
       <use xlink:href="#DejaVuSans-73" x="278.90625"/>
       <use xlink:href="#DejaVuSans-70" x="331.005859"/>
       <use xlink:href="#DejaVuSans-6c" x="394.482422"/>
       <use xlink:href="#DejaVuSans-75" x="422.265625"/>
       <use xlink:href="#DejaVuSans-73" x="485.644531"/>
       <use xlink:href="#DejaVuSans-5f" x="537.744141"/>
       <use xlink:href="#DejaVuSans-61" x="587.744141"/>
       <use xlink:href="#DejaVuSans-73" x="649.023438"/>
       <use xlink:href="#DejaVuSans-74" x="701.123047"/>
       <use xlink:href="#DejaVuSans-5f" x="740.332031"/>
       <use xlink:href="#DejaVuSans-6f" x="790.332031"/>
       <use xlink:href="#DejaVuSans-32" x="851.513672"/>
      </g>
     </g>
    </g>
    <g id="xtick_2">
     <g id="line2d_2">
      <g>
       <use xlink:href="#mcfc364af31" x="150.950275" y="288.430125" style="stroke: #000000; stroke-width: 0.8"/>
      </g>
     </g>
     <g id="text_2">
      <!-- aflplusplus_ast_o3 -->
      <g transform="translate(70.519219 347.766815)rotate(-30)scale(0.1 -0.1)">
       <defs>
        <path id="DejaVuSans-33" d="M 2597 2516 
Q 3050 2419 3304 2112 
Q 3559 1806 3559 1356 
Q 3559 666 3084 287 
Q 2609 -91 1734 -91 
Q 1441 -91 1130 -33 
Q 819 25 488 141 
L 488 750 
Q 750 597 1062 519 
Q 1375 441 1716 441 
Q 2309 441 2620 675 
Q 2931 909 2931 1356 
Q 2931 1769 2642 2001 
Q 2353 2234 1838 2234 
L 1294 2234 
L 1294 2753 
L 1863 2753 
Q 2328 2753 2575 2939 
Q 2822 3125 2822 3475 
Q 2822 3834 2567 4026 
Q 2313 4219 1838 4219 
Q 1578 4219 1281 4162 
Q 984 4106 628 3988 
L 628 4550 
Q 988 4650 1302 4700 
Q 1616 4750 1894 4750 
Q 2613 4750 3031 4423 
Q 3450 4097 3450 3541 
Q 3450 3153 3228 2886 
Q 3006 2619 2597 2516 
z
" transform="scale(0.015625)"/>
       </defs>
       <use xlink:href="#DejaVuSans-61"/>
       <use xlink:href="#DejaVuSans-66" x="61.279297"/>
       <use xlink:href="#DejaVuSans-6c" x="96.484375"/>
       <use xlink:href="#DejaVuSans-70" x="124.267578"/>
       <use xlink:href="#DejaVuSans-6c" x="187.744141"/>
       <use xlink:href="#DejaVuSans-75" x="215.527344"/>
       <use xlink:href="#DejaVuSans-73" x="278.90625"/>
       <use xlink:href="#DejaVuSans-70" x="331.005859"/>
       <use xlink:href="#DejaVuSans-6c" x="394.482422"/>
       <use xlink:href="#DejaVuSans-75" x="422.265625"/>
       <use xlink:href="#DejaVuSans-73" x="485.644531"/>
       <use xlink:href="#DejaVuSans-5f" x="537.744141"/>
       <use xlink:href="#DejaVuSans-61" x="587.744141"/>
       <use xlink:href="#DejaVuSans-73" x="649.023438"/>
       <use xlink:href="#DejaVuSans-74" x="701.123047"/>
       <use xlink:href="#DejaVuSans-5f" x="740.332031"/>
       <use xlink:href="#DejaVuSans-6f" x="790.332031"/>
       <use xlink:href="#DejaVuSans-33" x="851.513672"/>
      </g>
     </g>
    </g>
    <g id="xtick_3">
     <g id="line2d_3">
      <g>
       <use xlink:href="#mcfc364af31" x="210.470275" y="288.430125" style="stroke: #000000; stroke-width: 0.8"/>
      </g>
     </g>
     <g id="text_3">
      <!-- aflplusplus_ast_f0 -->
      <g transform="translate(132.289532 346.467596)rotate(-30)scale(0.1 -0.1)">
       <defs>
        <path id="DejaVuSans-30" d="M 2034 4250 
Q 1547 4250 1301 3770 
Q 1056 3291 1056 2328 
Q 1056 1369 1301 889 
Q 1547 409 2034 409 
Q 2525 409 2770 889 
Q 3016 1369 3016 2328 
Q 3016 3291 2770 3770 
Q 2525 4250 2034 4250 
z
M 2034 4750 
Q 2819 4750 3233 4129 
Q 3647 3509 3647 2328 
Q 3647 1150 3233 529 
Q 2819 -91 2034 -91 
Q 1250 -91 836 529 
Q 422 1150 422 2328 
Q 422 3509 836 4129 
Q 1250 4750 2034 4750 
z
" transform="scale(0.015625)"/>
       </defs>
       <use xlink:href="#DejaVuSans-61"/>
       <use xlink:href="#DejaVuSans-66" x="61.279297"/>
       <use xlink:href="#DejaVuSans-6c" x="96.484375"/>
       <use xlink:href="#DejaVuSans-70" x="124.267578"/>
       <use xlink:href="#DejaVuSans-6c" x="187.744141"/>
       <use xlink:href="#DejaVuSans-75" x="215.527344"/>
       <use xlink:href="#DejaVuSans-73" x="278.90625"/>
       <use xlink:href="#DejaVuSans-70" x="331.005859"/>
       <use xlink:href="#DejaVuSans-6c" x="394.482422"/>
       <use xlink:href="#DejaVuSans-75" x="422.265625"/>
       <use xlink:href="#DejaVuSans-73" x="485.644531"/>
       <use xlink:href="#DejaVuSans-5f" x="537.744141"/>
       <use xlink:href="#DejaVuSans-61" x="587.744141"/>
       <use xlink:href="#DejaVuSans-73" x="649.023438"/>
       <use xlink:href="#DejaVuSans-74" x="701.123047"/>
       <use xlink:href="#DejaVuSans-5f" x="740.332031"/>
       <use xlink:href="#DejaVuSans-66" x="790.332031"/>
       <use xlink:href="#DejaVuSans-30" x="825.537109"/>
      </g>
     </g>
    </g>
    <g id="xtick_4">
     <g id="line2d_4">
      <g>
       <use xlink:href="#mcfc364af31" x="269.990275" y="288.430125" style="stroke: #000000; stroke-width: 0.8"/>
      </g>
     </g>
     <g id="text_4">
      <!-- aflplusplus_ast_f1 -->
      <g transform="translate(191.809532 346.467596)rotate(-30)scale(0.1 -0.1)">
       <defs>
        <path id="DejaVuSans-31" d="M 794 531 
L 1825 531 
L 1825 4091 
L 703 3866 
L 703 4441 
L 1819 4666 
L 2450 4666 
L 2450 531 
L 3481 531 
L 3481 0 
L 794 0 
L 794 531 
z
" transform="scale(0.015625)"/>
       </defs>
       <use xlink:href="#DejaVuSans-61"/>
       <use xlink:href="#DejaVuSans-66" x="61.279297"/>
       <use xlink:href="#DejaVuSans-6c" x="96.484375"/>
       <use xlink:href="#DejaVuSans-70" x="124.267578"/>
       <use xlink:href="#DejaVuSans-6c" x="187.744141"/>
       <use xlink:href="#DejaVuSans-75" x="215.527344"/>
       <use xlink:href="#DejaVuSans-73" x="278.90625"/>
       <use xlink:href="#DejaVuSans-70" x="331.005859"/>
       <use xlink:href="#DejaVuSans-6c" x="394.482422"/>
       <use xlink:href="#DejaVuSans-75" x="422.265625"/>
       <use xlink:href="#DejaVuSans-73" x="485.644531"/>
       <use xlink:href="#DejaVuSans-5f" x="537.744141"/>
       <use xlink:href="#DejaVuSans-61" x="587.744141"/>
       <use xlink:href="#DejaVuSans-73" x="649.023438"/>
       <use xlink:href="#DejaVuSans-74" x="701.123047"/>
       <use xlink:href="#DejaVuSans-5f" x="740.332031"/>
       <use xlink:href="#DejaVuSans-66" x="790.332031"/>
       <use xlink:href="#DejaVuSans-31" x="825.537109"/>
      </g>
     </g>
    </g>
    <g id="xtick_5">
     <g id="line2d_5">
      <g>
       <use xlink:href="#mcfc364af31" x="329.510275" y="288.430125" style="stroke: #000000; stroke-width: 0.8"/>
      </g>
     </g>
     <g id="text_5">
      <!-- aflplusplus_ast_o1 -->
      <g transform="translate(249.079219 347.766815)rotate(-30)scale(0.1 -0.1)">
       <use xlink:href="#DejaVuSans-61"/>
       <use xlink:href="#DejaVuSans-66" x="61.279297"/>
       <use xlink:href="#DejaVuSans-6c" x="96.484375"/>
       <use xlink:href="#DejaVuSans-70" x="124.267578"/>
       <use xlink:href="#DejaVuSans-6c" x="187.744141"/>
       <use xlink:href="#DejaVuSans-75" x="215.527344"/>
       <use xlink:href="#DejaVuSans-73" x="278.90625"/>
       <use xlink:href="#DejaVuSans-70" x="331.005859"/>
       <use xlink:href="#DejaVuSans-6c" x="394.482422"/>
       <use xlink:href="#DejaVuSans-75" x="422.265625"/>
       <use xlink:href="#DejaVuSans-73" x="485.644531"/>
       <use xlink:href="#DejaVuSans-5f" x="537.744141"/>
       <use xlink:href="#DejaVuSans-61" x="587.744141"/>
       <use xlink:href="#DejaVuSans-73" x="649.023438"/>
       <use xlink:href="#DejaVuSans-74" x="701.123047"/>
       <use xlink:href="#DejaVuSans-5f" x="740.332031"/>
       <use xlink:href="#DejaVuSans-6f" x="790.332031"/>
       <use xlink:href="#DejaVuSans-31" x="851.513672"/>
      </g>
     </g>
    </g>
    <g id="xtick_6">
     <g id="line2d_6">
      <g>
       <use xlink:href="#mcfc364af31" x="389.030275" y="288.430125" style="stroke: #000000; stroke-width: 0.8"/>
      </g>
     </g>
     <g id="text_6">
      <!-- aflplusplus_ast_o0 -->
      <g transform="translate(308.599219 347.766815)rotate(-30)scale(0.1 -0.1)">
       <use xlink:href="#DejaVuSans-61"/>
       <use xlink:href="#DejaVuSans-66" x="61.279297"/>
       <use xlink:href="#DejaVuSans-6c" x="96.484375"/>
       <use xlink:href="#DejaVuSans-70" x="124.267578"/>
       <use xlink:href="#DejaVuSans-6c" x="187.744141"/>
       <use xlink:href="#DejaVuSans-75" x="215.527344"/>
       <use xlink:href="#DejaVuSans-73" x="278.90625"/>
       <use xlink:href="#DejaVuSans-70" x="331.005859"/>
       <use xlink:href="#DejaVuSans-6c" x="394.482422"/>
       <use xlink:href="#DejaVuSans-75" x="422.265625"/>
       <use xlink:href="#DejaVuSans-73" x="485.644531"/>
       <use xlink:href="#DejaVuSans-5f" x="537.744141"/>
       <use xlink:href="#DejaVuSans-61" x="587.744141"/>
       <use xlink:href="#DejaVuSans-73" x="649.023438"/>
       <use xlink:href="#DejaVuSans-74" x="701.123047"/>
       <use xlink:href="#DejaVuSans-5f" x="740.332031"/>
       <use xlink:href="#DejaVuSans-6f" x="790.332031"/>
       <use xlink:href="#DejaVuSans-30" x="851.513672"/>
      </g>
     </g>
    </g>
    <g id="text_7">
     <!-- Fuzzer (highest median coverage on the left) -->
     <g transform="translate(127.612306 361.407178)scale(0.1 -0.1)">
      <defs>
       <path id="DejaVuSans-46" d="M 628 4666 
L 3309 4666 
L 3309 4134 
L 1259 4134 
L 1259 2759 
L 3109 2759 
L 3109 2228 
L 1259 2228 
L 1259 0 
L 628 0 
L 628 4666 
z
" transform="scale(0.015625)"/>
       <path id="DejaVuSans-7a" d="M 353 3500 
L 3084 3500 
L 3084 2975 
L 922 459 
L 3084 459 
L 3084 0 
L 275 0 
L 275 525 
L 2438 3041 
L 353 3041 
L 353 3500 
z
" transform="scale(0.015625)"/>
       <path id="DejaVuSans-65" d="M 3597 1894 
L 3597 1613 
L 953 1613 
Q 991 1019 1311 708 
Q 1631 397 2203 397 
Q 2534 397 2845 478 
Q 3156 559 3463 722 
L 3463 178 
Q 3153 47 2828 -22 
Q 2503 -91 2169 -91 
Q 1331 -91 842 396 
Q 353 884 353 1716 
Q 353 2575 817 3079 
Q 1281 3584 2069 3584 
Q 2775 3584 3186 3129 
Q 3597 2675 3597 1894 
z
M 3022 2063 
Q 3016 2534 2758 2815 
Q 2500 3097 2075 3097 
Q 1594 3097 1305 2825 
Q 1016 2553 972 2059 
L 3022 2063 
z
" transform="scale(0.015625)"/>
       <path id="DejaVuSans-72" d="M 2631 2963 
Q 2534 3019 2420 3045 
Q 2306 3072 2169 3072 
Q 1681 3072 1420 2755 
Q 1159 2438 1159 1844 
L 1159 0 
L 581 0 
L 581 3500 
L 1159 3500 
L 1159 2956 
Q 1341 3275 1631 3429 
Q 1922 3584 2338 3584 
Q 2397 3584 2469 3576 
Q 2541 3569 2628 3553 
L 2631 2963 
z
" transform="scale(0.015625)"/>
       <path id="DejaVuSans-20" transform="scale(0.015625)"/>
       <path id="DejaVuSans-28" d="M 1984 4856 
Q 1566 4138 1362 3434 
Q 1159 2731 1159 2009 
Q 1159 1288 1364 580 
Q 1569 -128 1984 -844 
L 1484 -844 
Q 1016 -109 783 600 
Q 550 1309 550 2009 
Q 550 2706 781 3412 
Q 1013 4119 1484 4856 
L 1984 4856 
z
" transform="scale(0.015625)"/>
       <path id="DejaVuSans-68" d="M 3513 2113 
L 3513 0 
L 2938 0 
L 2938 2094 
Q 2938 2591 2744 2837 
Q 2550 3084 2163 3084 
Q 1697 3084 1428 2787 
Q 1159 2491 1159 1978 
L 1159 0 
L 581 0 
L 581 4863 
L 1159 4863 
L 1159 2956 
Q 1366 3272 1645 3428 
Q 1925 3584 2291 3584 
Q 2894 3584 3203 3211 
Q 3513 2838 3513 2113 
z
" transform="scale(0.015625)"/>
       <path id="DejaVuSans-69" d="M 603 3500 
L 1178 3500 
L 1178 0 
L 603 0 
L 603 3500 
z
M 603 4863 
L 1178 4863 
L 1178 4134 
L 603 4134 
L 603 4863 
z
" transform="scale(0.015625)"/>
       <path id="DejaVuSans-67" d="M 2906 1791 
Q 2906 2416 2648 2759 
Q 2391 3103 1925 3103 
Q 1463 3103 1205 2759 
Q 947 2416 947 1791 
Q 947 1169 1205 825 
Q 1463 481 1925 481 
Q 2391 481 2648 825 
Q 2906 1169 2906 1791 
z
M 3481 434 
Q 3481 -459 3084 -895 
Q 2688 -1331 1869 -1331 
Q 1566 -1331 1297 -1286 
Q 1028 -1241 775 -1147 
L 775 -588 
Q 1028 -725 1275 -790 
Q 1522 -856 1778 -856 
Q 2344 -856 2625 -561 
Q 2906 -266 2906 331 
L 2906 616 
Q 2728 306 2450 153 
Q 2172 0 1784 0 
Q 1141 0 747 490 
Q 353 981 353 1791 
Q 353 2603 747 3093 
Q 1141 3584 1784 3584 
Q 2172 3584 2450 3431 
Q 2728 3278 2906 2969 
L 2906 3500 
L 3481 3500 
L 3481 434 
z
" transform="scale(0.015625)"/>
       <path id="DejaVuSans-6d" d="M 3328 2828 
Q 3544 3216 3844 3400 
Q 4144 3584 4550 3584 
Q 5097 3584 5394 3201 
Q 5691 2819 5691 2113 
L 5691 0 
L 5113 0 
L 5113 2094 
Q 5113 2597 4934 2840 
Q 4756 3084 4391 3084 
Q 3944 3084 3684 2787 
Q 3425 2491 3425 1978 
L 3425 0 
L 2847 0 
L 2847 2094 
Q 2847 2600 2669 2842 
Q 2491 3084 2119 3084 
Q 1678 3084 1418 2786 
Q 1159 2488 1159 1978 
L 1159 0 
L 581 0 
L 581 3500 
L 1159 3500 
L 1159 2956 
Q 1356 3278 1631 3431 
Q 1906 3584 2284 3584 
Q 2666 3584 2933 3390 
Q 3200 3197 3328 2828 
z
" transform="scale(0.015625)"/>
       <path id="DejaVuSans-64" d="M 2906 2969 
L 2906 4863 
L 3481 4863 
L 3481 0 
L 2906 0 
L 2906 525 
Q 2725 213 2448 61 
Q 2172 -91 1784 -91 
Q 1150 -91 751 415 
Q 353 922 353 1747 
Q 353 2572 751 3078 
Q 1150 3584 1784 3584 
Q 2172 3584 2448 3432 
Q 2725 3281 2906 2969 
z
M 947 1747 
Q 947 1113 1208 752 
Q 1469 391 1925 391 
Q 2381 391 2643 752 
Q 2906 1113 2906 1747 
Q 2906 2381 2643 2742 
Q 2381 3103 1925 3103 
Q 1469 3103 1208 2742 
Q 947 2381 947 1747 
z
" transform="scale(0.015625)"/>
       <path id="DejaVuSans-6e" d="M 3513 2113 
L 3513 0 
L 2938 0 
L 2938 2094 
Q 2938 2591 2744 2837 
Q 2550 3084 2163 3084 
Q 1697 3084 1428 2787 
Q 1159 2491 1159 1978 
L 1159 0 
L 581 0 
L 581 3500 
L 1159 3500 
L 1159 2956 
Q 1366 3272 1645 3428 
Q 1925 3584 2291 3584 
Q 2894 3584 3203 3211 
Q 3513 2838 3513 2113 
z
" transform="scale(0.015625)"/>
       <path id="DejaVuSans-63" d="M 3122 3366 
L 3122 2828 
Q 2878 2963 2633 3030 
Q 2388 3097 2138 3097 
Q 1578 3097 1268 2742 
Q 959 2388 959 1747 
Q 959 1106 1268 751 
Q 1578 397 2138 397 
Q 2388 397 2633 464 
Q 2878 531 3122 666 
L 3122 134 
Q 2881 22 2623 -34 
Q 2366 -91 2075 -91 
Q 1284 -91 818 406 
Q 353 903 353 1747 
Q 353 2603 823 3093 
Q 1294 3584 2113 3584 
Q 2378 3584 2631 3529 
Q 2884 3475 3122 3366 
z
" transform="scale(0.015625)"/>
       <path id="DejaVuSans-76" d="M 191 3500 
L 800 3500 
L 1894 563 
L 2988 3500 
L 3597 3500 
L 2284 0 
L 1503 0 
L 191 3500 
z
" transform="scale(0.015625)"/>
       <path id="DejaVuSans-29" d="M 513 4856 
L 1013 4856 
Q 1481 4119 1714 3412 
Q 1947 2706 1947 2009 
Q 1947 1309 1714 600 
Q 1481 -109 1013 -844 
L 513 -844 
Q 928 -128 1133 580 
Q 1338 1288 1338 2009 
Q 1338 2731 1133 3434 
Q 928 4138 513 4856 
z
" transform="scale(0.015625)"/>
      </defs>
      <use xlink:href="#DejaVuSans-46"/>
      <use xlink:href="#DejaVuSans-75" x="52.019531"/>
      <use xlink:href="#DejaVuSans-7a" x="115.398438"/>
      <use xlink:href="#DejaVuSans-7a" x="167.888672"/>
      <use xlink:href="#DejaVuSans-65" x="220.378906"/>
      <use xlink:href="#DejaVuSans-72" x="281.902344"/>
      <use xlink:href="#DejaVuSans-20" x="323.015625"/>
      <use xlink:href="#DejaVuSans-28" x="354.802734"/>
      <use xlink:href="#DejaVuSans-68" x="393.816406"/>
      <use xlink:href="#DejaVuSans-69" x="457.195312"/>
      <use xlink:href="#DejaVuSans-67" x="484.978516"/>
      <use xlink:href="#DejaVuSans-68" x="548.455078"/>
      <use xlink:href="#DejaVuSans-65" x="611.833984"/>
      <use xlink:href="#DejaVuSans-73" x="673.357422"/>
      <use xlink:href="#DejaVuSans-74" x="725.457031"/>
      <use xlink:href="#DejaVuSans-20" x="764.666016"/>
      <use xlink:href="#DejaVuSans-6d" x="796.453125"/>
      <use xlink:href="#DejaVuSans-65" x="893.865234"/>
      <use xlink:href="#DejaVuSans-64" x="955.388672"/>
      <use xlink:href="#DejaVuSans-69" x="1018.865234"/>
      <use xlink:href="#DejaVuSans-61" x="1046.648438"/>
      <use xlink:href="#DejaVuSans-6e" x="1107.927734"/>
      <use xlink:href="#DejaVuSans-20" x="1171.306641"/>
      <use xlink:href="#DejaVuSans-63" x="1203.09375"/>
      <use xlink:href="#DejaVuSans-6f" x="1258.074219"/>
      <use xlink:href="#DejaVuSans-76" x="1319.255859"/>
      <use xlink:href="#DejaVuSans-65" x="1378.435547"/>
      <use xlink:href="#DejaVuSans-72" x="1439.958984"/>
      <use xlink:href="#DejaVuSans-61" x="1481.072266"/>
      <use xlink:href="#DejaVuSans-67" x="1542.351562"/>
      <use xlink:href="#DejaVuSans-65" x="1605.828125"/>
      <use xlink:href="#DejaVuSans-20" x="1667.351562"/>
      <use xlink:href="#DejaVuSans-6f" x="1699.138672"/>
      <use xlink:href="#DejaVuSans-6e" x="1760.320312"/>
      <use xlink:href="#DejaVuSans-20" x="1823.699219"/>
      <use xlink:href="#DejaVuSans-74" x="1855.486328"/>
      <use xlink:href="#DejaVuSans-68" x="1894.695312"/>
      <use xlink:href="#DejaVuSans-65" x="1958.074219"/>
      <use xlink:href="#DejaVuSans-20" x="2019.597656"/>
      <use xlink:href="#DejaVuSans-6c" x="2051.384766"/>
      <use xlink:href="#DejaVuSans-65" x="2079.167969"/>
      <use xlink:href="#DejaVuSans-66" x="2140.691406"/>
      <use xlink:href="#DejaVuSans-74" x="2174.146484"/>
      <use xlink:href="#DejaVuSans-29" x="2213.355469"/>
     </g>
    </g>
   </g>
   <g id="matplotlib.axis_2">
    <g id="ytick_1">
     <g id="line2d_7">
      <defs>
       <path id="m6011dac0fc" d="M 0 0 
L -3.5 0 
" style="stroke: #000000; stroke-width: 0.8"/>
      </defs>
      <g>
       <use xlink:href="#m6011dac0fc" x="61.670275" y="253.458057" style="stroke: #000000; stroke-width: 0.8"/>
      </g>
     </g>
     <g id="text_8">
      <!-- 5120 -->
      <g transform="translate(29.220275 257.257275)scale(0.1 -0.1)">
       <defs>
        <path id="DejaVuSans-35" d="M 691 4666 
L 3169 4666 
L 3169 4134 
L 1269 4134 
L 1269 2991 
Q 1406 3038 1543 3061 
Q 1681 3084 1819 3084 
Q 2600 3084 3056 2656 
Q 3513 2228 3513 1497 
Q 3513 744 3044 326 
Q 2575 -91 1722 -91 
Q 1428 -91 1123 -41 
Q 819 9 494 109 
L 494 744 
Q 775 591 1075 516 
Q 1375 441 1709 441 
Q 2250 441 2565 725 
Q 2881 1009 2881 1497 
Q 2881 1984 2565 2268 
Q 2250 2553 1709 2553 
Q 1456 2553 1204 2497 
Q 953 2441 691 2322 
L 691 4666 
z
" transform="scale(0.015625)"/>
       </defs>
       <use xlink:href="#DejaVuSans-35"/>
       <use xlink:href="#DejaVuSans-31" x="63.623047"/>
       <use xlink:href="#DejaVuSans-32" x="127.246094"/>
       <use xlink:href="#DejaVuSans-30" x="190.869141"/>
      </g>
     </g>
    </g>
    <g id="ytick_2">
     <g id="line2d_8">
      <g>
       <use xlink:href="#m6011dac0fc" x="61.670275" y="215.087952" style="stroke: #000000; stroke-width: 0.8"/>
      </g>
     </g>
     <g id="text_9">
      <!-- 5140 -->
      <g transform="translate(29.220275 218.887171)scale(0.1 -0.1)">
       <defs>
        <path id="DejaVuSans-34" d="M 2419 4116 
L 825 1625 
L 2419 1625 
L 2419 4116 
z
M 2253 4666 
L 3047 4666 
L 3047 1625 
L 3713 1625 
L 3713 1100 
L 3047 1100 
L 3047 0 
L 2419 0 
L 2419 1100 
L 313 1100 
L 313 1709 
L 2253 4666 
z
" transform="scale(0.015625)"/>
       </defs>
       <use xlink:href="#DejaVuSans-35"/>
       <use xlink:href="#DejaVuSans-31" x="63.623047"/>
       <use xlink:href="#DejaVuSans-34" x="127.246094"/>
       <use xlink:href="#DejaVuSans-30" x="190.869141"/>
      </g>
     </g>
    </g>
    <g id="ytick_3">
     <g id="line2d_9">
      <g>
       <use xlink:href="#m6011dac0fc" x="61.670275" y="176.717848" style="stroke: #000000; stroke-width: 0.8"/>
      </g>
     </g>
     <g id="text_10">
      <!-- 5160 -->
      <g transform="translate(29.220275 180.517067)scale(0.1 -0.1)">
       <defs>
        <path id="DejaVuSans-36" d="M 2113 2584 
Q 1688 2584 1439 2293 
Q 1191 2003 1191 1497 
Q 1191 994 1439 701 
Q 1688 409 2113 409 
Q 2538 409 2786 701 
Q 3034 994 3034 1497 
Q 3034 2003 2786 2293 
Q 2538 2584 2113 2584 
z
M 3366 4563 
L 3366 3988 
Q 3128 4100 2886 4159 
Q 2644 4219 2406 4219 
Q 1781 4219 1451 3797 
Q 1122 3375 1075 2522 
Q 1259 2794 1537 2939 
Q 1816 3084 2150 3084 
Q 2853 3084 3261 2657 
Q 3669 2231 3669 1497 
Q 3669 778 3244 343 
Q 2819 -91 2113 -91 
Q 1303 -91 875 529 
Q 447 1150 447 2328 
Q 447 3434 972 4092 
Q 1497 4750 2381 4750 
Q 2619 4750 2861 4703 
Q 3103 4656 3366 4563 
z
" transform="scale(0.015625)"/>
       </defs>
       <use xlink:href="#DejaVuSans-35"/>
       <use xlink:href="#DejaVuSans-31" x="63.623047"/>
       <use xlink:href="#DejaVuSans-36" x="127.246094"/>
       <use xlink:href="#DejaVuSans-30" x="190.869141"/>
      </g>
     </g>
    </g>
    <g id="ytick_4">
     <g id="line2d_10">
      <g>
       <use xlink:href="#m6011dac0fc" x="61.670275" y="138.347744" style="stroke: #000000; stroke-width: 0.8"/>
      </g>
     </g>
     <g id="text_11">
      <!-- 5180 -->
      <g transform="translate(29.220275 142.146963)scale(0.1 -0.1)">
       <defs>
        <path id="DejaVuSans-38" d="M 2034 2216 
Q 1584 2216 1326 1975 
Q 1069 1734 1069 1313 
Q 1069 891 1326 650 
Q 1584 409 2034 409 
Q 2484 409 2743 651 
Q 3003 894 3003 1313 
Q 3003 1734 2745 1975 
Q 2488 2216 2034 2216 
z
M 1403 2484 
Q 997 2584 770 2862 
Q 544 3141 544 3541 
Q 544 4100 942 4425 
Q 1341 4750 2034 4750 
Q 2731 4750 3128 4425 
Q 3525 4100 3525 3541 
Q 3525 3141 3298 2862 
Q 3072 2584 2669 2484 
Q 3125 2378 3379 2068 
Q 3634 1759 3634 1313 
Q 3634 634 3220 271 
Q 2806 -91 2034 -91 
Q 1263 -91 848 271 
Q 434 634 434 1313 
Q 434 1759 690 2068 
Q 947 2378 1403 2484 
z
M 1172 3481 
Q 1172 3119 1398 2916 
Q 1625 2713 2034 2713 
Q 2441 2713 2670 2916 
Q 2900 3119 2900 3481 
Q 2900 3844 2670 4047 
Q 2441 4250 2034 4250 
Q 1625 4250 1398 4047 
Q 1172 3844 1172 3481 
z
" transform="scale(0.015625)"/>
       </defs>
       <use xlink:href="#DejaVuSans-35"/>
       <use xlink:href="#DejaVuSans-31" x="63.623047"/>
       <use xlink:href="#DejaVuSans-38" x="127.246094"/>
       <use xlink:href="#DejaVuSans-30" x="190.869141"/>
      </g>
     </g>
    </g>
    <g id="ytick_5">
     <g id="line2d_11">
      <g>
       <use xlink:href="#m6011dac0fc" x="61.670275" y="99.97764" style="stroke: #000000; stroke-width: 0.8"/>
      </g>
     </g>
     <g id="text_12">
      <!-- 5200 -->
      <g transform="translate(29.220275 103.776858)scale(0.1 -0.1)">
       <use xlink:href="#DejaVuSans-35"/>
       <use xlink:href="#DejaVuSans-32" x="63.623047"/>
       <use xlink:href="#DejaVuSans-30" x="127.246094"/>
       <use xlink:href="#DejaVuSans-30" x="190.869141"/>
      </g>
     </g>
    </g>
    <g id="ytick_6">
     <g id="line2d_12">
      <g>
       <use xlink:href="#m6011dac0fc" x="61.670275" y="61.607535" style="stroke: #000000; stroke-width: 0.8"/>
      </g>
     </g>
     <g id="text_13">
      <!-- 5220 -->
      <g transform="translate(29.220275 65.406754)scale(0.1 -0.1)">
       <use xlink:href="#DejaVuSans-35"/>
       <use xlink:href="#DejaVuSans-32" x="63.623047"/>
       <use xlink:href="#DejaVuSans-32" x="127.246094"/>
       <use xlink:href="#DejaVuSans-30" x="190.869141"/>
      </g>
     </g>
    </g>
    <g id="ytick_7">
     <g id="line2d_13">
      <g>
       <use xlink:href="#m6011dac0fc" x="61.670275" y="23.237431" style="stroke: #000000; stroke-width: 0.8"/>
      </g>
     </g>
     <g id="text_14">
      <!-- 5240 -->
      <g transform="translate(29.220275 27.03665)scale(0.1 -0.1)">
       <use xlink:href="#DejaVuSans-35"/>
       <use xlink:href="#DejaVuSans-32" x="63.623047"/>
       <use xlink:href="#DejaVuSans-34" x="127.246094"/>
       <use xlink:href="#DejaVuSans-30" x="190.869141"/>
      </g>
     </g>
    </g>
    <g id="text_15">
     <!-- Reached region coverage -->
     <g transform="translate(23.140587 219.136625)rotate(-90)scale(0.1 -0.1)">
      <defs>
       <path id="DejaVuSans-52" d="M 2841 2188 
Q 3044 2119 3236 1894 
Q 3428 1669 3622 1275 
L 4263 0 
L 3584 0 
L 2988 1197 
Q 2756 1666 2539 1819 
Q 2322 1972 1947 1972 
L 1259 1972 
L 1259 0 
L 628 0 
L 628 4666 
L 2053 4666 
Q 2853 4666 3247 4331 
Q 3641 3997 3641 3322 
Q 3641 2881 3436 2590 
Q 3231 2300 2841 2188 
z
M 1259 4147 
L 1259 2491 
L 2053 2491 
Q 2509 2491 2742 2702 
Q 2975 2913 2975 3322 
Q 2975 3731 2742 3939 
Q 2509 4147 2053 4147 
L 1259 4147 
z
" transform="scale(0.015625)"/>
      </defs>
      <use xlink:href="#DejaVuSans-52"/>
      <use xlink:href="#DejaVuSans-65" x="64.982422"/>
      <use xlink:href="#DejaVuSans-61" x="126.505859"/>
      <use xlink:href="#DejaVuSans-63" x="187.785156"/>
      <use xlink:href="#DejaVuSans-68" x="242.765625"/>
      <use xlink:href="#DejaVuSans-65" x="306.144531"/>
      <use xlink:href="#DejaVuSans-64" x="367.667969"/>
      <use xlink:href="#DejaVuSans-20" x="431.144531"/>
      <use xlink:href="#DejaVuSans-72" x="462.931641"/>
      <use xlink:href="#DejaVuSans-65" x="501.794922"/>
      <use xlink:href="#DejaVuSans-67" x="563.318359"/>
      <use xlink:href="#DejaVuSans-69" x="626.794922"/>
      <use xlink:href="#DejaVuSans-6f" x="654.578125"/>
      <use xlink:href="#DejaVuSans-6e" x="715.759766"/>
      <use xlink:href="#DejaVuSans-20" x="779.138672"/>
      <use xlink:href="#DejaVuSans-63" x="810.925781"/>
      <use xlink:href="#DejaVuSans-6f" x="865.90625"/>
      <use xlink:href="#DejaVuSans-76" x="927.087891"/>
      <use xlink:href="#DejaVuSans-65" x="986.267578"/>
      <use xlink:href="#DejaVuSans-72" x="1047.791016"/>
      <use xlink:href="#DejaVuSans-61" x="1088.904297"/>
      <use xlink:href="#DejaVuSans-67" x="1150.183594"/>
      <use xlink:href="#DejaVuSans-65" x="1213.660156"/>
     </g>
    </g>
   </g>
   <g id="line2d_14">
    <path d="M 91.430275 101.896145 
L 91.430275 94.222124 
" clip-path="url(#p1a549237b1)" style="fill: none; stroke: #3f3f3f; stroke-width: 1.5; stroke-linecap: square"/>
   </g>
   <g id="line2d_15">
    <path d="M 91.430275 101.896145 
L 91.430275 98.538761 
" clip-path="url(#p1a549237b1)" style="fill: none; stroke: #3f3f3f; stroke-width: 4.5; stroke-linecap: square"/>
   </g>
   <g id="line2d_16">
    <path d="M 150.950275 113.407176 
L 150.950275 99.97764 
" clip-path="url(#p1a549237b1)" style="fill: none; stroke: #3f3f3f; stroke-width: 1.5; stroke-linecap: square"/>
   </g>
   <g id="line2d_17">
    <path d="M 150.950275 109.090539 
L 150.950275 102.375771 
" clip-path="url(#p1a549237b1)" style="fill: none; stroke: #3f3f3f; stroke-width: 4.5; stroke-linecap: square"/>
   </g>
   <g id="line2d_18">
    <path d="M 210.470275 159.451301 
L 210.470275 86.548103 
" clip-path="url(#p1a549237b1)" style="fill: none; stroke: #3f3f3f; stroke-width: 1.5; stroke-linecap: square"/>
   </g>
   <g id="line2d_19">
    <path d="M 210.470275 134.031107 
L 210.470275 99.97764 
" clip-path="url(#p1a549237b1)" style="fill: none; stroke: #3f3f3f; stroke-width: 4.5; stroke-linecap: square"/>
   </g>
   <g id="line2d_20">
    <path d="M 269.990275 146.021765 
L 269.990275 98.059134 
" clip-path="url(#p1a549237b1)" style="fill: none; stroke: #3f3f3f; stroke-width: 1.5; stroke-linecap: square"/>
   </g>
   <g id="line2d_21">
    <path d="M 269.990275 141.705128 
L 269.990275 119.642318 
" clip-path="url(#p1a549237b1)" style="fill: none; stroke: #3f3f3f; stroke-width: 4.5; stroke-linecap: square"/>
   </g>
   <g id="line2d_22">
    <path d="M 329.510275 134.510733 
L 329.510275 111.488671 
" clip-path="url(#p1a549237b1)" style="fill: none; stroke: #3f3f3f; stroke-width: 1.5; stroke-linecap: square"/>
   </g>
   <g id="line2d_23">
    <path d="M 329.510275 134.031107 
L 329.510275 123.958955 
" clip-path="url(#p1a549237b1)" style="fill: none; stroke: #3f3f3f; stroke-width: 4.5; stroke-linecap: square"/>
   </g>
   <g id="line2d_24">
    <path d="M 389.030275 205.495426 
L 389.030275 94.222124 
" clip-path="url(#p1a549237b1)" style="fill: none; stroke: #3f3f3f; stroke-width: 1.5; stroke-linecap: square"/>
   </g>
   <g id="line2d_25">
    <path d="M 389.030275 163.767938 
L 389.030275 107.65166 
" clip-path="url(#p1a549237b1)" style="fill: none; stroke: #3f3f3f; stroke-width: 4.5; stroke-linecap: square"/>
   </g>
   <g id="patch_3">
    <path d="M 61.670275 253.458057 
L 61.670275 23.237431 
" style="fill: none; stroke: #000000; stroke-width: 0.8; stroke-linejoin: miter; stroke-linecap: square"/>
   </g>
   <g id="patch_4">
    <path d="M 91.430275 288.430125 
L 389.030275 288.430125 
" style="fill: none; stroke: #000000; stroke-width: 0.8; stroke-linejoin: miter; stroke-linecap: square"/>
   </g>
   <g id="PathCollection_1">
    <defs>
     <path id="m23998689db" d="M 0 1.5 
C 0.397805 1.5 0.77937 1.341951 1.06066 1.06066 
C 1.341951 0.77937 1.5 0.397805 1.5 0 
C 1.5 -0.397805 1.341951 -0.77937 1.06066 -1.06066 
C 0.77937 -1.341951 0.397805 -1.5 0 -1.5 
C -0.397805 -1.5 -0.77937 -1.341951 -1.06066 -1.06066 
C -1.341951 -0.77937 -1.5 -0.397805 -1.5 0 
C -1.5 0.397805 -1.341951 0.77937 -1.06066 1.06066 
C -0.77937 1.341951 -0.397805 1.5 0 1.5 
z
" style="stroke: #3f3f3f"/>
    </defs>
    <g clip-path="url(#p1a549237b1)">
     <use xlink:href="#m23998689db" x="91.430275" y="100.936892" style="fill: #ffffff; stroke: #3f3f3f"/>
    </g>
   </g>
   <g id="PathCollection_2">
    <g clip-path="url(#p1a549237b1)">
     <use xlink:href="#m23998689db" x="150.950275" y="105.733155" style="fill: #ffffff; stroke: #3f3f3f"/>
    </g>
   </g>
   <g id="PathCollection_3">
    <g clip-path="url(#p1a549237b1)">
     <use xlink:href="#m23998689db" x="210.470275" y="116.284934" style="fill: #ffffff; stroke: #3f3f3f"/>
    </g>
   </g>
   <g id="PathCollection_4">
    <g clip-path="url(#p1a549237b1)">
     <use xlink:href="#m23998689db" x="269.990275" y="127.795965" style="fill: #ffffff; stroke: #3f3f3f"/>
    </g>
   </g>
   <g id="PathCollection_5">
    <g clip-path="url(#p1a549237b1)">
     <use xlink:href="#m23998689db" x="329.510275" y="129.71447" style="fill: #ffffff; stroke: #3f3f3f"/>
    </g>
   </g>
   <g id="PathCollection_6">
    <g clip-path="url(#p1a549237b1)">
     <use xlink:href="#m23998689db" x="389.030275" y="130.673723" style="fill: #ffffff; stroke: #3f3f3f"/>
    </g>
   </g>
   <g id="text_16">
    <!-- libhtp_fuzz_htp (4h:15m, 6 trials/fuzzer) -->
    <g transform="translate(120.35215 16.318125)scale(0.12 -0.12)">
     <defs>
      <path id="DejaVuSans-62" d="M 3116 1747 
Q 3116 2381 2855 2742 
Q 2594 3103 2138 3103 
Q 1681 3103 1420 2742 
Q 1159 2381 1159 1747 
Q 1159 1113 1420 752 
Q 1681 391 2138 391 
Q 2594 391 2855 752 
Q 3116 1113 3116 1747 
z
M 1159 2969 
Q 1341 3281 1617 3432 
Q 1894 3584 2278 3584 
Q 2916 3584 3314 3078 
Q 3713 2572 3713 1747 
Q 3713 922 3314 415 
Q 2916 -91 2278 -91 
Q 1894 -91 1617 61 
Q 1341 213 1159 525 
L 1159 0 
L 581 0 
L 581 4863 
L 1159 4863 
L 1159 2969 
z
" transform="scale(0.015625)"/>
      <path id="DejaVuSans-3a" d="M 750 794 
L 1409 794 
L 1409 0 
L 750 0 
L 750 794 
z
M 750 3309 
L 1409 3309 
L 1409 2516 
L 750 2516 
L 750 3309 
z
" transform="scale(0.015625)"/>
      <path id="DejaVuSans-2c" d="M 750 794 
L 1409 794 
L 1409 256 
L 897 -744 
L 494 -744 
L 750 256 
L 750 794 
z
" transform="scale(0.015625)"/>
      <path id="DejaVuSans-2f" d="M 1625 4666 
L 2156 4666 
L 531 -594 
L 0 -594 
L 1625 4666 
z
" transform="scale(0.015625)"/>
     </defs>
     <use xlink:href="#DejaVuSans-6c"/>
     <use xlink:href="#DejaVuSans-69" x="27.783203"/>
     <use xlink:href="#DejaVuSans-62" x="55.566406"/>
     <use xlink:href="#DejaVuSans-68" x="119.042969"/>
     <use xlink:href="#DejaVuSans-74" x="182.421875"/>
     <use xlink:href="#DejaVuSans-70" x="221.630859"/>
     <use xlink:href="#DejaVuSans-5f" x="285.107422"/>
     <use xlink:href="#DejaVuSans-66" x="335.107422"/>
     <use xlink:href="#DejaVuSans-75" x="370.3125"/>
     <use xlink:href="#DejaVuSans-7a" x="433.691406"/>
     <use xlink:href="#DejaVuSans-7a" x="486.181641"/>
     <use xlink:href="#DejaVuSans-5f" x="538.671875"/>
     <use xlink:href="#DejaVuSans-68" x="588.671875"/>
     <use xlink:href="#DejaVuSans-74" x="652.050781"/>
     <use xlink:href="#DejaVuSans-70" x="691.259766"/>
     <use xlink:href="#DejaVuSans-20" x="754.736328"/>
     <use xlink:href="#DejaVuSans-28" x="786.523438"/>
     <use xlink:href="#DejaVuSans-34" x="825.537109"/>
     <use xlink:href="#DejaVuSans-68" x="889.160156"/>
     <use xlink:href="#DejaVuSans-3a" x="952.539062"/>
     <use xlink:href="#DejaVuSans-31" x="986.230469"/>
     <use xlink:href="#DejaVuSans-35" x="1049.853516"/>
     <use xlink:href="#DejaVuSans-6d" x="1113.476562"/>
     <use xlink:href="#DejaVuSans-2c" x="1210.888672"/>
     <use xlink:href="#DejaVuSans-20" x="1242.675781"/>
     <use xlink:href="#DejaVuSans-36" x="1274.462891"/>
     <use xlink:href="#DejaVuSans-20" x="1338.085938"/>
     <use xlink:href="#DejaVuSans-74" x="1369.873047"/>
     <use xlink:href="#DejaVuSans-72" x="1409.082031"/>
     <use xlink:href="#DejaVuSans-69" x="1450.195312"/>
     <use xlink:href="#DejaVuSans-61" x="1477.978516"/>
     <use xlink:href="#DejaVuSans-6c" x="1539.257812"/>
     <use xlink:href="#DejaVuSans-73" x="1567.041016"/>
     <use xlink:href="#DejaVuSans-2f" x="1619.140625"/>
     <use xlink:href="#DejaVuSans-66" x="1652.832031"/>
     <use xlink:href="#DejaVuSans-75" x="1688.037109"/>
     <use xlink:href="#DejaVuSans-7a" x="1751.416016"/>
     <use xlink:href="#DejaVuSans-7a" x="1803.90625"/>
     <use xlink:href="#DejaVuSans-65" x="1856.396484"/>
     <use xlink:href="#DejaVuSans-72" x="1917.919922"/>
     <use xlink:href="#DejaVuSans-29" x="1959.033203"/>
    </g>
   </g>
  </g>
 </g>
 <defs>
  <clipPath id="p1a549237b1">
   <rect x="61.670275" y="22.318125" width="357.12" height="266.112"/>
  </clipPath>
 </defs>
</svg>
