<?xml version="1.0" encoding="utf-8" standalone="no"?>
<!DOCTYPE svg PUBLIC "-//W3C//DTD SVG 1.1//EN"
  "http://www.w3.org/Graphics/SVG/1.1/DTD/svg11.dtd">
<svg xmlns:xlink="http://www.w3.org/1999/xlink" width="427.18875pt" height="316.30825pt" viewBox="0 0 427.18875 316.30825" xmlns="http://www.w3.org/2000/svg" version="1.1">
 <metadata>
  <rdf:RDF xmlns:dc="http://purl.org/dc/elements/1.1/" xmlns:cc="http://creativecommons.org/ns#" xmlns:rdf="http://www.w3.org/1999/02/22-rdf-syntax-ns#">
   <cc:Work>
    <dc:type rdf:resource="http://purl.org/dc/dcmitype/StillImage"/>
    <dc:date>2022-06-05T16:13:02.138690</dc:date>
    <dc:format>image/svg+xml</dc:format>
    <dc:creator>
     <cc:Agent>
      <dc:title>Matplotlib v3.5.1, https://matplotlib.org/</dc:title>
     </cc:Agent>
    </dc:creator>
   </cc:Work>
  </rdf:RDF>
 </metadata>
 <defs>
  <style type="text/css">*{stroke-linejoin: round; stroke-linecap: butt}</style>
 </defs>
 <g id="figure_1">
  <g id="patch_1">
   <path d="M 0 316.30825 
L 427.18875 316.30825 
L 427.18875 0 
L 0 0 
z
" style="fill: #ffffff"/>
  </g>
  <g id="axes_1">
   <g id="patch_2">
    <path d="M 62.86875 288.430125 
L 419.98875 288.430125 
L 419.98875 22.318125 
L 62.86875 22.318125 
z
" style="fill: #ffffff"/>
   </g>
   <g id="matplotlib.axis_1">
    <g id="xtick_1">
     <g id="line2d_1">
      <defs>
       <path id="mc0e9c15fcd" d="M 0 0 
L 0 3.5 
" style="stroke: #000000; stroke-width: 0.8"/>
      </defs>
      <g>
       <use xlink:href="#mc0e9c15fcd" x="99.919587" y="288.430125" style="stroke: #000000; stroke-width: 0.8"/>
      </g>
     </g>
    </g>
    <g id="xtick_2">
     <g id="line2d_2">
      <g>
       <use xlink:href="#mc0e9c15fcd" x="160.961917" y="288.430125" style="stroke: #000000; stroke-width: 0.8"/>
      </g>
     </g>
    </g>
    <g id="xtick_3">
     <g id="line2d_3">
      <g>
       <use xlink:href="#mc0e9c15fcd" x="222.004248" y="288.430125" style="stroke: #000000; stroke-width: 0.8"/>
      </g>
     </g>
    </g>
    <g id="xtick_4">
     <g id="line2d_4">
      <g>
       <use xlink:href="#mc0e9c15fcd" x="283.046579" y="288.430125" style="stroke: #000000; stroke-width: 0.8"/>
      </g>
     </g>
    </g>
    <g id="xtick_5">
     <g id="line2d_5">
      <g>
       <use xlink:href="#mc0e9c15fcd" x="344.088909" y="288.430125" style="stroke: #000000; stroke-width: 0.8"/>
      </g>
     </g>
    </g>
    <g id="xtick_6">
     <g id="line2d_6">
      <g>
       <use xlink:href="#mc0e9c15fcd" x="405.13124" y="288.430125" style="stroke: #000000; stroke-width: 0.8"/>
      </g>
     </g>
    </g>
    <g id="text_1">
     <!-- Code region coverage -->
     <g transform="translate(186.423281 307.028562)scale(0.1 -0.1)">
      <defs>
       <path id="DejaVuSans-43" d="M 4122 4306 
L 4122 3641 
Q 3803 3938 3442 4084 
Q 3081 4231 2675 4231 
Q 1875 4231 1450 3742 
Q 1025 3253 1025 2328 
Q 1025 1406 1450 917 
Q 1875 428 2675 428 
Q 3081 428 3442 575 
Q 3803 722 4122 1019 
L 4122 359 
Q 3791 134 3420 21 
Q 3050 -91 2638 -91 
Q 1578 -91 968 557 
Q 359 1206 359 2328 
Q 359 3453 968 4101 
Q 1578 4750 2638 4750 
Q 3056 4750 3426 4639 
Q 3797 4528 4122 4306 
z
" transform="scale(0.015625)"/>
       <path id="DejaVuSans-6f" d="M 1959 3097 
Q 1497 3097 1228 2736 
Q 959 2375 959 1747 
Q 959 1119 1226 758 
Q 1494 397 1959 397 
Q 2419 397 2687 759 
Q 2956 1122 2956 1747 
Q 2956 2369 2687 2733 
Q 2419 3097 1959 3097 
z
M 1959 3584 
Q 2709 3584 3137 3096 
Q 3566 2609 3566 1747 
Q 3566 888 3137 398 
Q 2709 -91 1959 -91 
Q 1206 -91 779 398 
Q 353 888 353 1747 
Q 353 2609 779 3096 
Q 1206 3584 1959 3584 
z
" transform="scale(0.015625)"/>
       <path id="DejaVuSans-64" d="M 2906 2969 
L 2906 4863 
L 3481 4863 
L 3481 0 
L 2906 0 
L 2906 525 
Q 2725 213 2448 61 
Q 2172 -91 1784 -91 
Q 1150 -91 751 415 
Q 353 922 353 1747 
Q 353 2572 751 3078 
Q 1150 3584 1784 3584 
Q 2172 3584 2448 3432 
Q 2725 3281 2906 2969 
z
M 947 1747 
Q 947 1113 1208 752 
Q 1469 391 1925 391 
Q 2381 391 2643 752 
Q 2906 1113 2906 1747 
Q 2906 2381 2643 2742 
Q 2381 3103 1925 3103 
Q 1469 3103 1208 2742 
Q 947 2381 947 1747 
z
" transform="scale(0.015625)"/>
       <path id="DejaVuSans-65" d="M 3597 1894 
L 3597 1613 
L 953 1613 
Q 991 1019 1311 708 
Q 1631 397 2203 397 
Q 2534 397 2845 478 
Q 3156 559 3463 722 
L 3463 178 
Q 3153 47 2828 -22 
Q 2503 -91 2169 -91 
Q 1331 -91 842 396 
Q 353 884 353 1716 
Q 353 2575 817 3079 
Q 1281 3584 2069 3584 
Q 2775 3584 3186 3129 
Q 3597 2675 3597 1894 
z
M 3022 2063 
Q 3016 2534 2758 2815 
Q 2500 3097 2075 3097 
Q 1594 3097 1305 2825 
Q 1016 2553 972 2059 
L 3022 2063 
z
" transform="scale(0.015625)"/>
       <path id="DejaVuSans-20" transform="scale(0.015625)"/>
       <path id="DejaVuSans-72" d="M 2631 2963 
Q 2534 3019 2420 3045 
Q 2306 3072 2169 3072 
Q 1681 3072 1420 2755 
Q 1159 2438 1159 1844 
L 1159 0 
L 581 0 
L 581 3500 
L 1159 3500 
L 1159 2956 
Q 1341 3275 1631 3429 
Q 1922 3584 2338 3584 
Q 2397 3584 2469 3576 
Q 2541 3569 2628 3553 
L 2631 2963 
z
" transform="scale(0.015625)"/>
       <path id="DejaVuSans-67" d="M 2906 1791 
Q 2906 2416 2648 2759 
Q 2391 3103 1925 3103 
Q 1463 3103 1205 2759 
Q 947 2416 947 1791 
Q 947 1169 1205 825 
Q 1463 481 1925 481 
Q 2391 481 2648 825 
Q 2906 1169 2906 1791 
z
M 3481 434 
Q 3481 -459 3084 -895 
Q 2688 -1331 1869 -1331 
Q 1566 -1331 1297 -1286 
Q 1028 -1241 775 -1147 
L 775 -588 
Q 1028 -725 1275 -790 
Q 1522 -856 1778 -856 
Q 2344 -856 2625 -561 
Q 2906 -266 2906 331 
L 2906 616 
Q 2728 306 2450 153 
Q 2172 0 1784 0 
Q 1141 0 747 490 
Q 353 981 353 1791 
Q 353 2603 747 3093 
Q 1141 3584 1784 3584 
Q 2172 3584 2450 3431 
Q 2728 3278 2906 2969 
L 2906 3500 
L 3481 3500 
L 3481 434 
z
" transform="scale(0.015625)"/>
       <path id="DejaVuSans-69" d="M 603 3500 
L 1178 3500 
L 1178 0 
L 603 0 
L 603 3500 
z
M 603 4863 
L 1178 4863 
L 1178 4134 
L 603 4134 
L 603 4863 
z
" transform="scale(0.015625)"/>
       <path id="DejaVuSans-6e" d="M 3513 2113 
L 3513 0 
L 2938 0 
L 2938 2094 
Q 2938 2591 2744 2837 
Q 2550 3084 2163 3084 
Q 1697 3084 1428 2787 
Q 1159 2491 1159 1978 
L 1159 0 
L 581 0 
L 581 3500 
L 1159 3500 
L 1159 2956 
Q 1366 3272 1645 3428 
Q 1925 3584 2291 3584 
Q 2894 3584 3203 3211 
Q 3513 2838 3513 2113 
z
" transform="scale(0.015625)"/>
       <path id="DejaVuSans-63" d="M 3122 3366 
L 3122 2828 
Q 2878 2963 2633 3030 
Q 2388 3097 2138 3097 
Q 1578 3097 1268 2742 
Q 959 2388 959 1747 
Q 959 1106 1268 751 
Q 1578 397 2138 397 
Q 2388 397 2633 464 
Q 2878 531 3122 666 
L 3122 134 
Q 2881 22 2623 -34 
Q 2366 -91 2075 -91 
Q 1284 -91 818 406 
Q 353 903 353 1747 
Q 353 2603 823 3093 
Q 1294 3584 2113 3584 
Q 2378 3584 2631 3529 
Q 2884 3475 3122 3366 
z
" transform="scale(0.015625)"/>
       <path id="DejaVuSans-76" d="M 191 3500 
L 800 3500 
L 1894 563 
L 2988 3500 
L 3597 3500 
L 2284 0 
L 1503 0 
L 191 3500 
z
" transform="scale(0.015625)"/>
       <path id="DejaVuSans-61" d="M 2194 1759 
Q 1497 1759 1228 1600 
Q 959 1441 959 1056 
Q 959 750 1161 570 
Q 1363 391 1709 391 
Q 2188 391 2477 730 
Q 2766 1069 2766 1631 
L 2766 1759 
L 2194 1759 
z
M 3341 1997 
L 3341 0 
L 2766 0 
L 2766 531 
Q 2569 213 2275 61 
Q 1981 -91 1556 -91 
Q 1019 -91 701 211 
Q 384 513 384 1019 
Q 384 1609 779 1909 
Q 1175 2209 1959 2209 
L 2766 2209 
L 2766 2266 
Q 2766 2663 2505 2880 
Q 2244 3097 1772 3097 
Q 1472 3097 1187 3025 
Q 903 2953 641 2809 
L 641 3341 
Q 956 3463 1253 3523 
Q 1550 3584 1831 3584 
Q 2591 3584 2966 3190 
Q 3341 2797 3341 1997 
z
" transform="scale(0.015625)"/>
      </defs>
      <use xlink:href="#DejaVuSans-43"/>
      <use xlink:href="#DejaVuSans-6f" x="69.824219"/>
      <use xlink:href="#DejaVuSans-64" x="131.005859"/>
      <use xlink:href="#DejaVuSans-65" x="194.482422"/>
      <use xlink:href="#DejaVuSans-20" x="256.005859"/>
      <use xlink:href="#DejaVuSans-72" x="287.792969"/>
      <use xlink:href="#DejaVuSans-65" x="326.65625"/>
      <use xlink:href="#DejaVuSans-67" x="388.179688"/>
      <use xlink:href="#DejaVuSans-69" x="451.65625"/>
      <use xlink:href="#DejaVuSans-6f" x="479.439453"/>
      <use xlink:href="#DejaVuSans-6e" x="540.621094"/>
      <use xlink:href="#DejaVuSans-20" x="604"/>
      <use xlink:href="#DejaVuSans-63" x="635.787109"/>
      <use xlink:href="#DejaVuSans-6f" x="690.767578"/>
      <use xlink:href="#DejaVuSans-76" x="751.949219"/>
      <use xlink:href="#DejaVuSans-65" x="811.128906"/>
      <use xlink:href="#DejaVuSans-72" x="872.652344"/>
      <use xlink:href="#DejaVuSans-61" x="913.765625"/>
      <use xlink:href="#DejaVuSans-67" x="975.044922"/>
      <use xlink:href="#DejaVuSans-65" x="1038.521484"/>
     </g>
    </g>
   </g>
   <g id="matplotlib.axis_2">
    <g id="ytick_1">
     <g id="line2d_7">
      <defs>
       <path id="mec4507f803" d="M 0 0 
L -3.5 0 
" style="stroke: #000000; stroke-width: 0.8"/>
      </defs>
      <g>
       <use xlink:href="#mec4507f803" x="62.86875" y="288.430125" style="stroke: #000000; stroke-width: 0.8"/>
      </g>
     </g>
     <g id="text_2">
      <!-- 0.0000 -->
      <g transform="translate(20.878125 292.229344)scale(0.1 -0.1)">
       <defs>
        <path id="DejaVuSans-30" d="M 2034 4250 
Q 1547 4250 1301 3770 
Q 1056 3291 1056 2328 
Q 1056 1369 1301 889 
Q 1547 409 2034 409 
Q 2525 409 2770 889 
Q 3016 1369 3016 2328 
Q 3016 3291 2770 3770 
Q 2525 4250 2034 4250 
z
M 2034 4750 
Q 2819 4750 3233 4129 
Q 3647 3509 3647 2328 
Q 3647 1150 3233 529 
Q 2819 -91 2034 -91 
Q 1250 -91 836 529 
Q 422 1150 422 2328 
Q 422 3509 836 4129 
Q 1250 4750 2034 4750 
z
" transform="scale(0.015625)"/>
        <path id="DejaVuSans-2e" d="M 684 794 
L 1344 794 
L 1344 0 
L 684 0 
L 684 794 
z
" transform="scale(0.015625)"/>
       </defs>
       <use xlink:href="#DejaVuSans-30"/>
       <use xlink:href="#DejaVuSans-2e" x="63.623047"/>
       <use xlink:href="#DejaVuSans-30" x="95.410156"/>
       <use xlink:href="#DejaVuSans-30" x="159.033203"/>
       <use xlink:href="#DejaVuSans-30" x="222.65625"/>
       <use xlink:href="#DejaVuSans-30" x="286.279297"/>
      </g>
     </g>
    </g>
    <g id="ytick_2">
     <g id="line2d_8">
      <g>
       <use xlink:href="#mec4507f803" x="62.86875" y="234.257716" style="stroke: #000000; stroke-width: 0.8"/>
      </g>
     </g>
     <g id="text_3">
      <!-- 0.0005 -->
      <g transform="translate(20.878125 238.056935)scale(0.1 -0.1)">
       <defs>
        <path id="DejaVuSans-35" d="M 691 4666 
L 3169 4666 
L 3169 4134 
L 1269 4134 
L 1269 2991 
Q 1406 3038 1543 3061 
Q 1681 3084 1819 3084 
Q 2600 3084 3056 2656 
Q 3513 2228 3513 1497 
Q 3513 744 3044 326 
Q 2575 -91 1722 -91 
Q 1428 -91 1123 -41 
Q 819 9 494 109 
L 494 744 
Q 775 591 1075 516 
Q 1375 441 1709 441 
Q 2250 441 2565 725 
Q 2881 1009 2881 1497 
Q 2881 1984 2565 2268 
Q 2250 2553 1709 2553 
Q 1456 2553 1204 2497 
Q 953 2441 691 2322 
L 691 4666 
z
" transform="scale(0.015625)"/>
       </defs>
       <use xlink:href="#DejaVuSans-30"/>
       <use xlink:href="#DejaVuSans-2e" x="63.623047"/>
       <use xlink:href="#DejaVuSans-30" x="95.410156"/>
       <use xlink:href="#DejaVuSans-30" x="159.033203"/>
       <use xlink:href="#DejaVuSans-30" x="222.65625"/>
       <use xlink:href="#DejaVuSans-35" x="286.279297"/>
      </g>
     </g>
    </g>
    <g id="ytick_3">
     <g id="line2d_9">
      <g>
       <use xlink:href="#mec4507f803" x="62.86875" y="180.085308" style="stroke: #000000; stroke-width: 0.8"/>
      </g>
     </g>
     <g id="text_4">
      <!-- 0.0010 -->
      <g transform="translate(20.878125 183.884527)scale(0.1 -0.1)">
       <defs>
        <path id="DejaVuSans-31" d="M 794 531 
L 1825 531 
L 1825 4091 
L 703 3866 
L 703 4441 
L 1819 4666 
L 2450 4666 
L 2450 531 
L 3481 531 
L 3481 0 
L 794 0 
L 794 531 
z
" transform="scale(0.015625)"/>
       </defs>
       <use xlink:href="#DejaVuSans-30"/>
       <use xlink:href="#DejaVuSans-2e" x="63.623047"/>
       <use xlink:href="#DejaVuSans-30" x="95.410156"/>
       <use xlink:href="#DejaVuSans-30" x="159.033203"/>
       <use xlink:href="#DejaVuSans-31" x="222.65625"/>
       <use xlink:href="#DejaVuSans-30" x="286.279297"/>
      </g>
     </g>
    </g>
    <g id="ytick_4">
     <g id="line2d_10">
      <g>
       <use xlink:href="#mec4507f803" x="62.86875" y="125.912899" style="stroke: #000000; stroke-width: 0.8"/>
      </g>
     </g>
     <g id="text_5">
      <!-- 0.0015 -->
      <g transform="translate(20.878125 129.712118)scale(0.1 -0.1)">
       <use xlink:href="#DejaVuSans-30"/>
       <use xlink:href="#DejaVuSans-2e" x="63.623047"/>
       <use xlink:href="#DejaVuSans-30" x="95.410156"/>
       <use xlink:href="#DejaVuSans-30" x="159.033203"/>
       <use xlink:href="#DejaVuSans-31" x="222.65625"/>
       <use xlink:href="#DejaVuSans-35" x="286.279297"/>
      </g>
     </g>
    </g>
    <g id="ytick_5">
     <g id="line2d_11">
      <g>
       <use xlink:href="#mec4507f803" x="62.86875" y="71.740491" style="stroke: #000000; stroke-width: 0.8"/>
      </g>
     </g>
     <g id="text_6">
      <!-- 0.0020 -->
      <g transform="translate(20.878125 75.539709)scale(0.1 -0.1)">
       <defs>
        <path id="DejaVuSans-32" d="M 1228 531 
L 3431 531 
L 3431 0 
L 469 0 
L 469 531 
Q 828 903 1448 1529 
Q 2069 2156 2228 2338 
Q 2531 2678 2651 2914 
Q 2772 3150 2772 3378 
Q 2772 3750 2511 3984 
Q 2250 4219 1831 4219 
Q 1534 4219 1204 4116 
Q 875 4013 500 3803 
L 500 4441 
Q 881 4594 1212 4672 
Q 1544 4750 1819 4750 
Q 2544 4750 2975 4387 
Q 3406 4025 3406 3419 
Q 3406 3131 3298 2873 
Q 3191 2616 2906 2266 
Q 2828 2175 2409 1742 
Q 1991 1309 1228 531 
z
" transform="scale(0.015625)"/>
       </defs>
       <use xlink:href="#DejaVuSans-30"/>
       <use xlink:href="#DejaVuSans-2e" x="63.623047"/>
       <use xlink:href="#DejaVuSans-30" x="95.410156"/>
       <use xlink:href="#DejaVuSans-30" x="159.033203"/>
       <use xlink:href="#DejaVuSans-32" x="222.65625"/>
       <use xlink:href="#DejaVuSans-30" x="286.279297"/>
      </g>
     </g>
    </g>
    <g id="text_7">
     <!-- Density -->
     <g transform="translate(14.798438 174.382719)rotate(-90)scale(0.1 -0.1)">
      <defs>
       <path id="DejaVuSans-44" d="M 1259 4147 
L 1259 519 
L 2022 519 
Q 2988 519 3436 956 
Q 3884 1394 3884 2338 
Q 3884 3275 3436 3711 
Q 2988 4147 2022 4147 
L 1259 4147 
z
M 628 4666 
L 1925 4666 
Q 3281 4666 3915 4102 
Q 4550 3538 4550 2338 
Q 4550 1131 3912 565 
Q 3275 0 1925 0 
L 628 0 
L 628 4666 
z
" transform="scale(0.015625)"/>
       <path id="DejaVuSans-73" d="M 2834 3397 
L 2834 2853 
Q 2591 2978 2328 3040 
Q 2066 3103 1784 3103 
Q 1356 3103 1142 2972 
Q 928 2841 928 2578 
Q 928 2378 1081 2264 
Q 1234 2150 1697 2047 
L 1894 2003 
Q 2506 1872 2764 1633 
Q 3022 1394 3022 966 
Q 3022 478 2636 193 
Q 2250 -91 1575 -91 
Q 1294 -91 989 -36 
Q 684 19 347 128 
L 347 722 
Q 666 556 975 473 
Q 1284 391 1588 391 
Q 1994 391 2212 530 
Q 2431 669 2431 922 
Q 2431 1156 2273 1281 
Q 2116 1406 1581 1522 
L 1381 1569 
Q 847 1681 609 1914 
Q 372 2147 372 2553 
Q 372 3047 722 3315 
Q 1072 3584 1716 3584 
Q 2034 3584 2315 3537 
Q 2597 3491 2834 3397 
z
" transform="scale(0.015625)"/>
       <path id="DejaVuSans-74" d="M 1172 4494 
L 1172 3500 
L 2356 3500 
L 2356 3053 
L 1172 3053 
L 1172 1153 
Q 1172 725 1289 603 
Q 1406 481 1766 481 
L 2356 481 
L 2356 0 
L 1766 0 
Q 1100 0 847 248 
Q 594 497 594 1153 
L 594 3053 
L 172 3053 
L 172 3500 
L 594 3500 
L 594 4494 
L 1172 4494 
z
" transform="scale(0.015625)"/>
       <path id="DejaVuSans-79" d="M 2059 -325 
Q 1816 -950 1584 -1140 
Q 1353 -1331 966 -1331 
L 506 -1331 
L 506 -850 
L 844 -850 
Q 1081 -850 1212 -737 
Q 1344 -625 1503 -206 
L 1606 56 
L 191 3500 
L 800 3500 
L 1894 763 
L 2988 3500 
L 3597 3500 
L 2059 -325 
z
" transform="scale(0.015625)"/>
      </defs>
      <use xlink:href="#DejaVuSans-44"/>
      <use xlink:href="#DejaVuSans-65" x="77.001953"/>
      <use xlink:href="#DejaVuSans-6e" x="138.525391"/>
      <use xlink:href="#DejaVuSans-73" x="201.904297"/>
      <use xlink:href="#DejaVuSans-69" x="254.003906"/>
      <use xlink:href="#DejaVuSans-74" x="281.787109"/>
      <use xlink:href="#DejaVuSans-79" x="320.996094"/>
     </g>
    </g>
   </g>
   <g id="line2d_12">
    <path d="M 223.893934 286.948561 
L 225.600131 286.268704 
L 227.306328 285.327146 
L 229.012525 284.046209 
L 230.14999 282.959125 
L 231.287455 281.650572 
L 232.424919 280.088025 
L 233.562384 278.237147 
L 234.699848 276.062375 
L 235.837313 273.527658 
L 236.974778 270.597357 
L 238.112242 267.237269 
L 239.818439 261.323155 
L 241.524636 254.282607 
L 243.230833 246.055449 
L 244.93703 236.619649 
L 246.643227 225.998945 
L 248.918157 210.131328 
L 251.193086 192.616828 
L 254.60548 164.322124 
L 260.292803 116.90923 
L 262.567732 99.662962 
L 264.842662 84.146903 
L 266.548859 73.837666 
L 268.255056 64.754397 
L 269.961253 56.928807 
L 271.66745 50.357078 
L 272.804914 46.658827 
L 273.942379 43.492614 
L 275.079844 40.844586 
L 276.217308 38.701009 
L 277.354773 37.049524 
L 278.492238 35.880198 
L 279.629702 35.186351 
L 280.198435 35.016675 
L 280.767167 34.965108 
L 281.335899 35.031931 
L 281.904631 35.217683 
L 283.042096 35.949364 
L 284.179561 37.169222 
L 285.317025 38.88954 
L 286.45449 41.124988 
L 287.591955 43.891574 
L 288.729419 47.205401 
L 289.866884 51.081285 
L 291.004349 55.531288 
L 292.710546 63.298332 
L 294.416743 72.374317 
L 296.12294 82.721829 
L 297.829137 94.258013 
L 300.104066 111.253794 
L 302.947728 134.444836 
L 310.90998 201.146082 
L 313.184909 218.002454 
L 315.459839 233.005694 
L 317.166036 242.893563 
L 318.872233 251.564015 
L 320.57843 259.026308 
L 322.284627 265.33059 
L 323.990824 270.55904 
L 325.697021 274.816253 
L 326.834485 277.172613 
L 327.97195 279.185743 
L 329.109414 280.891801 
L 330.246879 282.326035 
L 331.953076 284.040814 
L 333.659273 285.323774 
L 335.36547 286.266633 
L 337.071667 286.947311 
L 337.071667 286.947311 
" clip-path="url(#p6e55ca5670)" style="fill: none; stroke: #98df8a; stroke-width: 1.5; stroke-linecap: square"/>
   </g>
   <g id="line2d_13">
    <path d="M 193.391656 287.176084 
L 195.456176 286.597245 
L 197.520695 285.793026 
L 199.585215 284.694886 
L 200.961561 283.75976 
L 202.337908 282.630692 
L 203.714254 281.278022 
L 205.090601 279.670059 
L 206.466947 277.773514 
L 207.843293 275.554078 
L 209.21964 272.977152 
L 210.595986 270.008714 
L 211.972333 266.616321 
L 213.348679 262.770234 
L 214.725025 258.444619 
L 216.789545 251.013584 
L 218.854065 242.417232 
L 220.918584 232.655675 
L 222.983104 221.778063 
L 225.735797 205.725211 
L 228.488489 188.277843 
L 238.122914 125.388357 
L 240.187434 113.627305 
L 242.251954 103.137973 
L 243.6283 96.965292 
L 245.004646 91.510498 
L 246.380993 86.81096 
L 247.757339 82.889384 
L 249.133686 79.753571 
L 250.510032 77.396696 
L 251.198205 76.504412 
L 251.886378 75.798095 
L 252.574552 75.27321 
L 253.262725 74.924539 
L 253.950898 74.746248 
L 254.639071 74.731953 
L 255.327244 74.874795 
L 256.015418 75.167515 
L 256.703591 75.602535 
L 258.079937 76.868062 
L 259.456284 78.607514 
L 260.83263 80.757228 
L 262.208976 83.256284 
L 264.273496 87.539619 
L 266.338016 92.328019 
L 269.090708 99.314089 
L 271.843401 106.884992 
L 274.596094 115.06601 
L 277.348787 123.985989 
L 280.10148 133.811422 
L 282.854173 144.673727 
L 285.606865 156.606296 
L 288.359558 169.505133 
L 292.488597 190.084948 
L 298.682156 220.99338 
L 301.434849 233.595372 
L 303.499369 242.255398 
L 305.563888 250.116002 
L 307.628408 257.111683 
L 309.692927 263.216875 
L 311.757447 268.442429 
L 313.821967 272.829792 
L 315.198313 275.320325 
L 316.574659 277.490225 
L 317.951006 279.36501 
L 319.327352 280.971391 
L 320.703699 282.336452 
L 322.080045 283.486938 
L 324.144565 284.866463 
L 326.209084 285.901964 
L 328.273604 286.665249 
L 330.338124 287.217823 
L 330.338124 287.217823 
" clip-path="url(#p6e55ca5670)" style="fill: none; stroke: #1f77b4; stroke-width: 1.5; stroke-linecap: square"/>
   </g>
   <g id="line2d_14">
    <path d="M 165.728617 287.38853 
L 168.957815 286.713584 
L 171.379714 285.979837 
L 173.801613 284.988081 
L 176.223512 283.671523 
L 177.838111 282.576611 
L 179.45271 281.280289 
L 181.067309 279.757919 
L 182.681908 277.984593 
L 184.296508 275.935769 
L 185.911107 273.588 
L 187.525706 270.919748 
L 189.140305 267.912247 
L 190.754904 264.550392 
L 192.369503 260.823617 
L 194.791402 254.539479 
L 197.213301 247.432635 
L 199.6352 239.546293 
L 202.057099 230.959827 
L 205.286297 218.624292 
L 210.130094 198.965634 
L 215.781192 175.997604 
L 219.01039 163.674549 
L 221.432289 155.081776 
L 223.854187 147.163101 
L 226.276086 139.988094 
L 228.697985 133.59453 
L 231.119884 127.99307 
L 232.734483 124.694746 
L 234.349082 121.738473 
L 235.963681 119.117037 
L 237.57828 116.823176 
L 239.19288 114.850594 
L 240.807479 113.194835 
L 242.422078 111.853974 
L 244.036677 110.829095 
L 245.651276 110.12455 
L 247.265876 109.747977 
L 248.880475 109.710108 
L 250.495074 110.024352 
L 252.109673 110.706191 
L 253.724272 111.772407 
L 255.338871 113.240173 
L 256.953471 115.126048 
L 258.56807 117.444897 
L 260.182669 120.208804 
L 261.797268 123.425995 
L 263.411867 127.099837 
L 265.026467 131.227944 
L 266.641066 135.80144 
L 269.062964 143.459998 
L 271.484863 151.998475 
L 273.906762 161.295398 
L 277.13596 174.598995 
L 283.594357 202.609215 
L 287.630855 219.663327 
L 290.860053 232.342107 
L 293.281952 241.059359 
L 295.703851 248.983056 
L 298.12575 256.051373 
L 300.547648 262.240013 
L 302.162248 265.880662 
L 303.776847 269.1444 
L 305.391446 272.046386 
L 307.006045 274.605741 
L 308.620644 276.844634 
L 310.235244 278.787374 
L 311.849843 280.459566 
L 313.464442 281.887337 
L 315.079041 283.096661 
L 317.50094 284.555982 
L 319.922839 285.660223 
L 322.344737 286.480984 
L 324.766636 287.08028 
L 326.381235 287.38289 
L 326.381235 287.38289 
" clip-path="url(#p6e55ca5670)" style="fill: none; stroke: #ff9896; stroke-width: 1.5; stroke-linecap: square"/>
   </g>
   <g id="line2d_15">
    <path d="M 79.101477 287.826938 
L 85.896022 287.323132 
L 91.331658 286.686689 
L 95.408384 286.023689 
L 99.485111 285.160372 
L 103.561838 284.056519 
L 107.638564 282.670907 
L 111.715291 280.963815 
L 114.433109 279.629525 
L 117.150927 278.128054 
L 119.868745 276.452974 
L 122.586563 274.600458 
L 126.663289 271.488228 
L 130.740016 267.988105 
L 134.816743 264.131834 
L 138.893469 259.971228 
L 144.329105 254.074701 
L 159.277103 237.487166 
L 163.35383 233.297893 
L 167.430557 229.381662 
L 171.507283 225.764331 
L 175.58401 222.43878 
L 179.660737 219.364857 
L 185.096373 215.534863 
L 195.967644 207.954817 
L 200.044371 204.860811 
L 204.121097 201.538569 
L 209.556733 196.756121 
L 224.504731 183.161446 
L 227.222549 181.066255 
L 229.940367 179.241706 
L 232.658185 177.752204 
L 235.376002 176.658617 
L 236.734911 176.277742 
L 238.09382 176.015836 
L 239.452729 175.87846 
L 240.811638 175.870539 
L 242.170547 175.996308 
L 243.529456 176.259274 
L 244.888365 176.662173 
L 246.247274 177.206945 
L 247.606183 177.894709 
L 248.965092 178.725756 
L 250.324 179.699537 
L 253.041818 182.068956 
L 255.759636 184.982176 
L 258.477454 188.406048 
L 261.195272 192.296238 
L 263.91309 196.598781 
L 266.630907 201.251937 
L 270.707634 208.740474 
L 276.14327 219.298996 
L 284.296723 235.228774 
L 288.37345 242.782608 
L 292.450177 249.843005 
L 295.167995 254.217661 
L 297.885812 258.297881 
L 300.60363 262.068174 
L 303.321448 265.520547 
L 306.039266 268.65382 
L 308.757084 271.4728 
L 311.474902 273.987385 
L 314.192719 276.211616 
L 316.910537 278.162743 
L 319.628355 279.860319 
L 322.346173 281.325373 
L 325.063991 282.579656 
L 327.781809 283.644997 
L 331.858535 284.93525 
L 335.935262 285.916255 
L 340.011989 286.64931 
L 345.447624 287.332 
L 349.524351 287.679514 
L 349.524351 287.679514 
" clip-path="url(#p6e55ca5670)" style="fill: none; stroke: #ff7f0e; stroke-width: 1.5; stroke-linecap: square"/>
   </g>
   <g id="line2d_16">
    <path d="M 91.894285 287.816781 
L 98.162862 287.414054 
L 104.43144 286.792128 
L 109.132873 286.128102 
L 113.834307 285.243846 
L 118.53574 284.086525 
L 121.670029 283.134747 
L 124.804317 282.017753 
L 127.938606 280.717185 
L 131.072895 279.214907 
L 134.207184 277.493562 
L 137.341473 275.53721 
L 140.475762 273.332036 
L 143.61005 270.867095 
L 146.744339 268.135094 
L 149.878628 265.133151 
L 153.012917 261.863523 
L 156.147206 258.334251 
L 159.281495 254.559682 
L 163.982928 248.485769 
L 168.684361 242.008668 
L 176.520083 230.693333 
L 184.355805 219.427079 
L 189.057238 213.068544 
L 192.191527 209.120017 
L 195.325816 205.468913 
L 198.460105 202.165608 
L 201.594394 199.253886 
L 204.728682 196.769464 
L 207.862971 194.738779 
L 210.99726 193.178079 
L 214.131549 192.092889 
L 215.698693 191.727365 
L 217.265838 191.477882 
L 220.400127 191.317163 
L 223.534415 191.584979 
L 226.668704 192.246815 
L 229.802993 193.260838 
L 232.937282 194.579625 
L 236.071571 196.152097 
L 240.773004 198.871281 
L 247.041582 202.90233 
L 259.578737 211.119141 
L 265.847315 214.915625 
L 272.115892 218.458543 
L 289.354481 227.943926 
L 294.055914 230.807079 
L 298.757347 233.900382 
L 303.45878 237.247008 
L 308.160214 240.842263 
L 314.428791 245.964229 
L 323.831658 254.050209 
L 331.66738 260.747422 
L 337.935957 265.802426 
L 342.637391 269.307497 
L 347.338824 272.509315 
L 352.040257 275.374414 
L 356.74169 277.886732 
L 361.443124 280.046208 
L 366.144557 281.866335 
L 370.84599 283.371091 
L 375.547423 284.591662 
L 380.248857 285.563295 
L 384.95029 286.322547 
L 391.218867 287.06577 
L 397.487445 287.571464 
L 403.756023 287.904775 
L 403.756023 287.904775 
" clip-path="url(#p6e55ca5670)" style="fill: none; stroke: #d62728; stroke-width: 1.5; stroke-linecap: square"/>
   </g>
   <g id="line2d_17">
    <path d="M 142.785743 287.181464 
L 144.765655 286.619741 
L 146.745568 285.846773 
L 148.725481 284.801936 
L 150.705394 283.414804 
L 152.025336 282.261172 
L 153.345277 280.895398 
L 154.665219 279.291691 
L 155.985161 277.424119 
L 157.305103 275.267335 
L 158.625045 272.797425 
L 159.944987 269.992845 
L 161.9249 265.119924 
L 163.904812 259.412611 
L 165.884725 252.859282 
L 167.864638 245.484684 
L 169.844551 237.354192 
L 172.484435 225.528572 
L 176.44426 206.445383 
L 181.724028 180.904159 
L 184.363911 169.070854 
L 187.003795 158.240011 
L 189.643679 148.466363 
L 192.283563 139.601267 
L 196.243388 127.279232 
L 200.203214 114.887486 
L 203.503068 103.73444 
L 207.462894 89.324595 
L 211.42272 75.09948 
L 213.402633 68.843758 
L 214.722574 65.258479 
L 216.042516 62.284159 
L 217.362458 60.039051 
L 218.022429 59.22459 
L 218.6824 58.632481 
L 219.342371 58.27426 
L 220.002342 58.160371 
L 220.662313 58.300058 
L 221.322284 58.701266 
L 221.982255 59.370552 
L 222.642226 60.313024 
L 223.302197 61.532272 
L 223.962167 63.030335 
L 225.282109 66.863153 
L 226.602051 71.796096 
L 227.921993 77.788835 
L 229.241935 84.777402 
L 231.221848 96.935367 
L 233.201761 110.774271 
L 235.841644 131.09248 
L 244.421266 199.39491 
L 247.06115 217.696502 
L 249.041063 229.923934 
L 251.020976 240.749798 
L 253.000889 250.146655 
L 254.980801 258.147488 
L 256.300743 262.743987 
L 257.620685 266.787825 
L 258.940627 270.316661 
L 260.260569 273.37143 
L 261.580511 275.994852 
L 262.900453 278.230127 
L 264.220394 280.119831 
L 265.540336 281.70502 
L 266.860278 283.024533 
L 268.18022 284.114497 
L 270.160133 285.390528 
L 272.140046 286.321792 
L 274.119958 286.990004 
L 274.119958 286.990004 
" clip-path="url(#p6e55ca5670)" style="fill: none; stroke: #c7c7c7; stroke-width: 1.5; stroke-linecap: square"/>
   </g>
   <g id="patch_3">
    <path d="M 62.86875 288.430125 
L 62.86875 22.318125 
" style="fill: none; stroke: #000000; stroke-width: 0.8; stroke-linejoin: miter; stroke-linecap: square"/>
   </g>
   <g id="patch_4">
    <path d="M 419.98875 288.430125 
L 419.98875 22.318125 
" style="fill: none; stroke: #000000; stroke-width: 0.8; stroke-linejoin: miter; stroke-linecap: square"/>
   </g>
   <g id="patch_5">
    <path d="M 62.86875 288.430125 
L 419.98875 288.430125 
" style="fill: none; stroke: #000000; stroke-width: 0.8; stroke-linejoin: miter; stroke-linecap: square"/>
   </g>
   <g id="patch_6">
    <path d="M 62.86875 22.318125 
L 419.98875 22.318125 
" style="fill: none; stroke: #000000; stroke-width: 0.8; stroke-linejoin: miter; stroke-linecap: square"/>
   </g>
   <g id="text_8">
    <!-- stb_stbi_read_fuzzer (4h:15m, 3 trials/fuzzer) -->
    <g transform="translate(105.7125 16.318125)scale(0.12 -0.12)">
     <defs>
      <path id="DejaVuSans-62" d="M 3116 1747 
Q 3116 2381 2855 2742 
Q 2594 3103 2138 3103 
Q 1681 3103 1420 2742 
Q 1159 2381 1159 1747 
Q 1159 1113 1420 752 
Q 1681 391 2138 391 
Q 2594 391 2855 752 
Q 3116 1113 3116 1747 
z
M 1159 2969 
Q 1341 3281 1617 3432 
Q 1894 3584 2278 3584 
Q 2916 3584 3314 3078 
Q 3713 2572 3713 1747 
Q 3713 922 3314 415 
Q 2916 -91 2278 -91 
Q 1894 -91 1617 61 
Q 1341 213 1159 525 
L 1159 0 
L 581 0 
L 581 4863 
L 1159 4863 
L 1159 2969 
z
" transform="scale(0.015625)"/>
      <path id="DejaVuSans-5f" d="M 3263 -1063 
L 3263 -1509 
L -63 -1509 
L -63 -1063 
L 3263 -1063 
z
" transform="scale(0.015625)"/>
      <path id="DejaVuSans-66" d="M 2375 4863 
L 2375 4384 
L 1825 4384 
Q 1516 4384 1395 4259 
Q 1275 4134 1275 3809 
L 1275 3500 
L 2222 3500 
L 2222 3053 
L 1275 3053 
L 1275 0 
L 697 0 
L 697 3053 
L 147 3053 
L 147 3500 
L 697 3500 
L 697 3744 
Q 697 4328 969 4595 
Q 1241 4863 1831 4863 
L 2375 4863 
z
" transform="scale(0.015625)"/>
      <path id="DejaVuSans-75" d="M 544 1381 
L 544 3500 
L 1119 3500 
L 1119 1403 
Q 1119 906 1312 657 
Q 1506 409 1894 409 
Q 2359 409 2629 706 
Q 2900 1003 2900 1516 
L 2900 3500 
L 3475 3500 
L 3475 0 
L 2900 0 
L 2900 538 
Q 2691 219 2414 64 
Q 2138 -91 1772 -91 
Q 1169 -91 856 284 
Q 544 659 544 1381 
z
M 1991 3584 
L 1991 3584 
z
" transform="scale(0.015625)"/>
      <path id="DejaVuSans-7a" d="M 353 3500 
L 3084 3500 
L 3084 2975 
L 922 459 
L 3084 459 
L 3084 0 
L 275 0 
L 275 525 
L 2438 3041 
L 353 3041 
L 353 3500 
z
" transform="scale(0.015625)"/>
      <path id="DejaVuSans-28" d="M 1984 4856 
Q 1566 4138 1362 3434 
Q 1159 2731 1159 2009 
Q 1159 1288 1364 580 
Q 1569 -128 1984 -844 
L 1484 -844 
Q 1016 -109 783 600 
Q 550 1309 550 2009 
Q 550 2706 781 3412 
Q 1013 4119 1484 4856 
L 1984 4856 
z
" transform="scale(0.015625)"/>
      <path id="DejaVuSans-34" d="M 2419 4116 
L 825 1625 
L 2419 1625 
L 2419 4116 
z
M 2253 4666 
L 3047 4666 
L 3047 1625 
L 3713 1625 
L 3713 1100 
L 3047 1100 
L 3047 0 
L 2419 0 
L 2419 1100 
L 313 1100 
L 313 1709 
L 2253 4666 
z
" transform="scale(0.015625)"/>
      <path id="DejaVuSans-68" d="M 3513 2113 
L 3513 0 
L 2938 0 
L 2938 2094 
Q 2938 2591 2744 2837 
Q 2550 3084 2163 3084 
Q 1697 3084 1428 2787 
Q 1159 2491 1159 1978 
L 1159 0 
L 581 0 
L 581 4863 
L 1159 4863 
L 1159 2956 
Q 1366 3272 1645 3428 
Q 1925 3584 2291 3584 
Q 2894 3584 3203 3211 
Q 3513 2838 3513 2113 
z
" transform="scale(0.015625)"/>
      <path id="DejaVuSans-3a" d="M 750 794 
L 1409 794 
L 1409 0 
L 750 0 
L 750 794 
z
M 750 3309 
L 1409 3309 
L 1409 2516 
L 750 2516 
L 750 3309 
z
" transform="scale(0.015625)"/>
      <path id="DejaVuSans-6d" d="M 3328 2828 
Q 3544 3216 3844 3400 
Q 4144 3584 4550 3584 
Q 5097 3584 5394 3201 
Q 5691 2819 5691 2113 
L 5691 0 
L 5113 0 
L 5113 2094 
Q 5113 2597 4934 2840 
Q 4756 3084 4391 3084 
Q 3944 3084 3684 2787 
Q 3425 2491 3425 1978 
L 3425 0 
L 2847 0 
L 2847 2094 
Q 2847 2600 2669 2842 
Q 2491 3084 2119 3084 
Q 1678 3084 1418 2786 
Q 1159 2488 1159 1978 
L 1159 0 
L 581 0 
L 581 3500 
L 1159 3500 
L 1159 2956 
Q 1356 3278 1631 3431 
Q 1906 3584 2284 3584 
Q 2666 3584 2933 3390 
Q 3200 3197 3328 2828 
z
" transform="scale(0.015625)"/>
      <path id="DejaVuSans-2c" d="M 750 794 
L 1409 794 
L 1409 256 
L 897 -744 
L 494 -744 
L 750 256 
L 750 794 
z
" transform="scale(0.015625)"/>
      <path id="DejaVuSans-33" d="M 2597 2516 
Q 3050 2419 3304 2112 
Q 3559 1806 3559 1356 
Q 3559 666 3084 287 
Q 2609 -91 1734 -91 
Q 1441 -91 1130 -33 
Q 819 25 488 141 
L 488 750 
Q 750 597 1062 519 
Q 1375 441 1716 441 
Q 2309 441 2620 675 
Q 2931 909 2931 1356 
Q 2931 1769 2642 2001 
Q 2353 2234 1838 2234 
L 1294 2234 
L 1294 2753 
L 1863 2753 
Q 2328 2753 2575 2939 
Q 2822 3125 2822 3475 
Q 2822 3834 2567 4026 
Q 2313 4219 1838 4219 
Q 1578 4219 1281 4162 
Q 984 4106 628 3988 
L 628 4550 
Q 988 4650 1302 4700 
Q 1616 4750 1894 4750 
Q 2613 4750 3031 4423 
Q 3450 4097 3450 3541 
Q 3450 3153 3228 2886 
Q 3006 2619 2597 2516 
z
" transform="scale(0.015625)"/>
      <path id="DejaVuSans-6c" d="M 603 4863 
L 1178 4863 
L 1178 0 
L 603 0 
L 603 4863 
z
" transform="scale(0.015625)"/>
      <path id="DejaVuSans-2f" d="M 1625 4666 
L 2156 4666 
L 531 -594 
L 0 -594 
L 1625 4666 
z
" transform="scale(0.015625)"/>
      <path id="DejaVuSans-29" d="M 513 4856 
L 1013 4856 
Q 1481 4119 1714 3412 
Q 1947 2706 1947 2009 
Q 1947 1309 1714 600 
Q 1481 -109 1013 -844 
L 513 -844 
Q 928 -128 1133 580 
Q 1338 1288 1338 2009 
Q 1338 2731 1133 3434 
Q 928 4138 513 4856 
z
" transform="scale(0.015625)"/>
     </defs>
     <use xlink:href="#DejaVuSans-73"/>
     <use xlink:href="#DejaVuSans-74" x="52.099609"/>
     <use xlink:href="#DejaVuSans-62" x="91.308594"/>
     <use xlink:href="#DejaVuSans-5f" x="154.785156"/>
     <use xlink:href="#DejaVuSans-73" x="204.785156"/>
     <use xlink:href="#DejaVuSans-74" x="256.884766"/>
     <use xlink:href="#DejaVuSans-62" x="296.09375"/>
     <use xlink:href="#DejaVuSans-69" x="359.570312"/>
     <use xlink:href="#DejaVuSans-5f" x="387.353516"/>
     <use xlink:href="#DejaVuSans-72" x="437.353516"/>
     <use xlink:href="#DejaVuSans-65" x="476.216797"/>
     <use xlink:href="#DejaVuSans-61" x="537.740234"/>
     <use xlink:href="#DejaVuSans-64" x="599.019531"/>
     <use xlink:href="#DejaVuSans-5f" x="662.496094"/>
     <use xlink:href="#DejaVuSans-66" x="712.496094"/>
     <use xlink:href="#DejaVuSans-75" x="747.701172"/>
     <use xlink:href="#DejaVuSans-7a" x="811.080078"/>
     <use xlink:href="#DejaVuSans-7a" x="863.570312"/>
     <use xlink:href="#DejaVuSans-65" x="916.060547"/>
     <use xlink:href="#DejaVuSans-72" x="977.583984"/>
     <use xlink:href="#DejaVuSans-20" x="1018.697266"/>
     <use xlink:href="#DejaVuSans-28" x="1050.484375"/>
     <use xlink:href="#DejaVuSans-34" x="1089.498047"/>
     <use xlink:href="#DejaVuSans-68" x="1153.121094"/>
     <use xlink:href="#DejaVuSans-3a" x="1216.5"/>
     <use xlink:href="#DejaVuSans-31" x="1250.191406"/>
     <use xlink:href="#DejaVuSans-35" x="1313.814453"/>
     <use xlink:href="#DejaVuSans-6d" x="1377.4375"/>
     <use xlink:href="#DejaVuSans-2c" x="1474.849609"/>
     <use xlink:href="#DejaVuSans-20" x="1506.636719"/>
     <use xlink:href="#DejaVuSans-33" x="1538.423828"/>
     <use xlink:href="#DejaVuSans-20" x="1602.046875"/>
     <use xlink:href="#DejaVuSans-74" x="1633.833984"/>
     <use xlink:href="#DejaVuSans-72" x="1673.042969"/>
     <use xlink:href="#DejaVuSans-69" x="1714.15625"/>
     <use xlink:href="#DejaVuSans-61" x="1741.939453"/>
     <use xlink:href="#DejaVuSans-6c" x="1803.21875"/>
     <use xlink:href="#DejaVuSans-73" x="1831.001953"/>
     <use xlink:href="#DejaVuSans-2f" x="1883.101562"/>
     <use xlink:href="#DejaVuSans-66" x="1916.792969"/>
     <use xlink:href="#DejaVuSans-75" x="1951.998047"/>
     <use xlink:href="#DejaVuSans-7a" x="2015.376953"/>
     <use xlink:href="#DejaVuSans-7a" x="2067.867188"/>
     <use xlink:href="#DejaVuSans-65" x="2120.357422"/>
     <use xlink:href="#DejaVuSans-72" x="2181.880859"/>
     <use xlink:href="#DejaVuSans-29" x="2222.994141"/>
    </g>
   </g>
   <g id="legend_1">
    <g id="line2d_18">
     <path d="M 291.47625 35.416562 
L 301.47625 35.416562 
L 311.47625 35.416562 
" style="fill: none; stroke: #98df8a; stroke-width: 1.5; stroke-linecap: square"/>
    </g>
    <g id="text_9">
     <!-- aflplusplus_ast_f1 -->
     <g transform="translate(319.47625 38.916562)scale(0.1 -0.1)">
      <defs>
       <path id="DejaVuSans-70" d="M 1159 525 
L 1159 -1331 
L 581 -1331 
L 581 3500 
L 1159 3500 
L 1159 2969 
Q 1341 3281 1617 3432 
Q 1894 3584 2278 3584 
Q 2916 3584 3314 3078 
Q 3713 2572 3713 1747 
Q 3713 922 3314 415 
Q 2916 -91 2278 -91 
Q 1894 -91 1617 61 
Q 1341 213 1159 525 
z
M 3116 1747 
Q 3116 2381 2855 2742 
Q 2594 3103 2138 3103 
Q 1681 3103 1420 2742 
Q 1159 2381 1159 1747 
Q 1159 1113 1420 752 
Q 1681 391 2138 391 
Q 2594 391 2855 752 
Q 3116 1113 3116 1747 
z
" transform="scale(0.015625)"/>
      </defs>
      <use xlink:href="#DejaVuSans-61"/>
      <use xlink:href="#DejaVuSans-66" x="61.279297"/>
      <use xlink:href="#DejaVuSans-6c" x="96.484375"/>
      <use xlink:href="#DejaVuSans-70" x="124.267578"/>
      <use xlink:href="#DejaVuSans-6c" x="187.744141"/>
      <use xlink:href="#DejaVuSans-75" x="215.527344"/>
      <use xlink:href="#DejaVuSans-73" x="278.90625"/>
      <use xlink:href="#DejaVuSans-70" x="331.005859"/>
      <use xlink:href="#DejaVuSans-6c" x="394.482422"/>
      <use xlink:href="#DejaVuSans-75" x="422.265625"/>
      <use xlink:href="#DejaVuSans-73" x="485.644531"/>
      <use xlink:href="#DejaVuSans-5f" x="537.744141"/>
      <use xlink:href="#DejaVuSans-61" x="587.744141"/>
      <use xlink:href="#DejaVuSans-73" x="649.023438"/>
      <use xlink:href="#DejaVuSans-74" x="701.123047"/>
      <use xlink:href="#DejaVuSans-5f" x="740.332031"/>
      <use xlink:href="#DejaVuSans-66" x="790.332031"/>
      <use xlink:href="#DejaVuSans-31" x="825.537109"/>
     </g>
    </g>
    <g id="line2d_19">
     <path d="M 291.47625 50.372813 
L 301.47625 50.372813 
L 311.47625 50.372813 
" style="fill: none; stroke: #1f77b4; stroke-width: 1.5; stroke-linecap: square"/>
    </g>
    <g id="text_10">
     <!-- aflplusplus_ast_f0 -->
     <g transform="translate(319.47625 53.872813)scale(0.1 -0.1)">
      <use xlink:href="#DejaVuSans-61"/>
      <use xlink:href="#DejaVuSans-66" x="61.279297"/>
      <use xlink:href="#DejaVuSans-6c" x="96.484375"/>
      <use xlink:href="#DejaVuSans-70" x="124.267578"/>
      <use xlink:href="#DejaVuSans-6c" x="187.744141"/>
      <use xlink:href="#DejaVuSans-75" x="215.527344"/>
      <use xlink:href="#DejaVuSans-73" x="278.90625"/>
      <use xlink:href="#DejaVuSans-70" x="331.005859"/>
      <use xlink:href="#DejaVuSans-6c" x="394.482422"/>
      <use xlink:href="#DejaVuSans-75" x="422.265625"/>
      <use xlink:href="#DejaVuSans-73" x="485.644531"/>
      <use xlink:href="#DejaVuSans-5f" x="537.744141"/>
      <use xlink:href="#DejaVuSans-61" x="587.744141"/>
      <use xlink:href="#DejaVuSans-73" x="649.023438"/>
      <use xlink:href="#DejaVuSans-74" x="701.123047"/>
      <use xlink:href="#DejaVuSans-5f" x="740.332031"/>
      <use xlink:href="#DejaVuSans-66" x="790.332031"/>
      <use xlink:href="#DejaVuSans-30" x="825.537109"/>
     </g>
    </g>
    <g id="line2d_20">
     <path d="M 291.47625 65.329062 
L 301.47625 65.329062 
L 311.47625 65.329062 
" style="fill: none; stroke: #ff9896; stroke-width: 1.5; stroke-linecap: square"/>
    </g>
    <g id="text_11">
     <!-- aflplusplus_ast_o3 -->
     <g transform="translate(319.47625 68.829062)scale(0.1 -0.1)">
      <use xlink:href="#DejaVuSans-61"/>
      <use xlink:href="#DejaVuSans-66" x="61.279297"/>
      <use xlink:href="#DejaVuSans-6c" x="96.484375"/>
      <use xlink:href="#DejaVuSans-70" x="124.267578"/>
      <use xlink:href="#DejaVuSans-6c" x="187.744141"/>
      <use xlink:href="#DejaVuSans-75" x="215.527344"/>
      <use xlink:href="#DejaVuSans-73" x="278.90625"/>
      <use xlink:href="#DejaVuSans-70" x="331.005859"/>
      <use xlink:href="#DejaVuSans-6c" x="394.482422"/>
      <use xlink:href="#DejaVuSans-75" x="422.265625"/>
      <use xlink:href="#DejaVuSans-73" x="485.644531"/>
      <use xlink:href="#DejaVuSans-5f" x="537.744141"/>
      <use xlink:href="#DejaVuSans-61" x="587.744141"/>
      <use xlink:href="#DejaVuSans-73" x="649.023438"/>
      <use xlink:href="#DejaVuSans-74" x="701.123047"/>
      <use xlink:href="#DejaVuSans-5f" x="740.332031"/>
      <use xlink:href="#DejaVuSans-6f" x="790.332031"/>
      <use xlink:href="#DejaVuSans-33" x="851.513672"/>
     </g>
    </g>
    <g id="line2d_21">
     <path d="M 291.47625 80.285313 
L 301.47625 80.285313 
L 311.47625 80.285313 
" style="fill: none; stroke: #ff7f0e; stroke-width: 1.5; stroke-linecap: square"/>
    </g>
    <g id="text_12">
     <!-- aflplusplus_ast_o2 -->
     <g transform="translate(319.47625 83.785313)scale(0.1 -0.1)">
      <use xlink:href="#DejaVuSans-61"/>
      <use xlink:href="#DejaVuSans-66" x="61.279297"/>
      <use xlink:href="#DejaVuSans-6c" x="96.484375"/>
      <use xlink:href="#DejaVuSans-70" x="124.267578"/>
      <use xlink:href="#DejaVuSans-6c" x="187.744141"/>
      <use xlink:href="#DejaVuSans-75" x="215.527344"/>
      <use xlink:href="#DejaVuSans-73" x="278.90625"/>
      <use xlink:href="#DejaVuSans-70" x="331.005859"/>
      <use xlink:href="#DejaVuSans-6c" x="394.482422"/>
      <use xlink:href="#DejaVuSans-75" x="422.265625"/>
      <use xlink:href="#DejaVuSans-73" x="485.644531"/>
      <use xlink:href="#DejaVuSans-5f" x="537.744141"/>
      <use xlink:href="#DejaVuSans-61" x="587.744141"/>
      <use xlink:href="#DejaVuSans-73" x="649.023438"/>
      <use xlink:href="#DejaVuSans-74" x="701.123047"/>
      <use xlink:href="#DejaVuSans-5f" x="740.332031"/>
      <use xlink:href="#DejaVuSans-6f" x="790.332031"/>
      <use xlink:href="#DejaVuSans-32" x="851.513672"/>
     </g>
    </g>
    <g id="line2d_22">
     <path d="M 291.47625 95.241562 
L 301.47625 95.241562 
L 311.47625 95.241562 
" style="fill: none; stroke: #d62728; stroke-width: 1.5; stroke-linecap: square"/>
    </g>
    <g id="text_13">
     <!-- aflplusplus_ast_o0 -->
     <g transform="translate(319.47625 98.741562)scale(0.1 -0.1)">
      <use xlink:href="#DejaVuSans-61"/>
      <use xlink:href="#DejaVuSans-66" x="61.279297"/>
      <use xlink:href="#DejaVuSans-6c" x="96.484375"/>
      <use xlink:href="#DejaVuSans-70" x="124.267578"/>
      <use xlink:href="#DejaVuSans-6c" x="187.744141"/>
      <use xlink:href="#DejaVuSans-75" x="215.527344"/>
      <use xlink:href="#DejaVuSans-73" x="278.90625"/>
      <use xlink:href="#DejaVuSans-70" x="331.005859"/>
      <use xlink:href="#DejaVuSans-6c" x="394.482422"/>
      <use xlink:href="#DejaVuSans-75" x="422.265625"/>
      <use xlink:href="#DejaVuSans-73" x="485.644531"/>
      <use xlink:href="#DejaVuSans-5f" x="537.744141"/>
      <use xlink:href="#DejaVuSans-61" x="587.744141"/>
      <use xlink:href="#DejaVuSans-73" x="649.023438"/>
      <use xlink:href="#DejaVuSans-74" x="701.123047"/>
      <use xlink:href="#DejaVuSans-5f" x="740.332031"/>
      <use xlink:href="#DejaVuSans-6f" x="790.332031"/>
      <use xlink:href="#DejaVuSans-30" x="851.513672"/>
     </g>
    </g>
    <g id="line2d_23">
     <path d="M 291.47625 110.197812 
L 301.47625 110.197812 
L 311.47625 110.197812 
" style="fill: none; stroke: #c7c7c7; stroke-width: 1.5; stroke-linecap: square"/>
    </g>
    <g id="text_14">
     <!-- aflplusplus_ast_o1 -->
     <g transform="translate(319.47625 113.697812)scale(0.1 -0.1)">
      <use xlink:href="#DejaVuSans-61"/>
      <use xlink:href="#DejaVuSans-66" x="61.279297"/>
      <use xlink:href="#DejaVuSans-6c" x="96.484375"/>
      <use xlink:href="#DejaVuSans-70" x="124.267578"/>
      <use xlink:href="#DejaVuSans-6c" x="187.744141"/>
      <use xlink:href="#DejaVuSans-75" x="215.527344"/>
      <use xlink:href="#DejaVuSans-73" x="278.90625"/>
      <use xlink:href="#DejaVuSans-70" x="331.005859"/>
      <use xlink:href="#DejaVuSans-6c" x="394.482422"/>
      <use xlink:href="#DejaVuSans-75" x="422.265625"/>
      <use xlink:href="#DejaVuSans-73" x="485.644531"/>
      <use xlink:href="#DejaVuSans-5f" x="537.744141"/>
      <use xlink:href="#DejaVuSans-61" x="587.744141"/>
      <use xlink:href="#DejaVuSans-73" x="649.023438"/>
      <use xlink:href="#DejaVuSans-74" x="701.123047"/>
      <use xlink:href="#DejaVuSans-5f" x="740.332031"/>
      <use xlink:href="#DejaVuSans-6f" x="790.332031"/>
      <use xlink:href="#DejaVuSans-31" x="851.513672"/>
     </g>
    </g>
   </g>
  </g>
 </g>
 <defs>
  <clipPath id="p6e55ca5670">
   <rect x="62.86875" y="22.318125" width="357.12" height="266.112"/>
  </clipPath>
 </defs>
</svg>
