<?xml version="1.0" encoding="utf-8" standalone="no"?>
<!DOCTYPE svg PUBLIC "-//W3C//DTD SVG 1.1//EN"
  "http://www.w3.org/Graphics/SVG/1.1/DTD/svg11.dtd">
<svg xmlns:xlink="http://www.w3.org/1999/xlink" width="417.648125pt" height="393.011865pt" viewBox="0 0 417.648125 393.011865" xmlns="http://www.w3.org/2000/svg" version="1.1">
 <metadata>
  <rdf:RDF xmlns:dc="http://purl.org/dc/elements/1.1/" xmlns:cc="http://creativecommons.org/ns#" xmlns:rdf="http://www.w3.org/1999/02/22-rdf-syntax-ns#">
   <cc:Work>
    <dc:type rdf:resource="http://purl.org/dc/dcmitype/StillImage"/>
    <dc:date>2022-06-05T16:13:15.703078</dc:date>
    <dc:format>image/svg+xml</dc:format>
    <dc:creator>
     <cc:Agent>
      <dc:title>Matplotlib v3.5.1, https://matplotlib.org/</dc:title>
     </cc:Agent>
    </dc:creator>
   </cc:Work>
  </rdf:RDF>
 </metadata>
 <defs>
  <style type="text/css">*{stroke-linejoin: round; stroke-linecap: butt}</style>
 </defs>
 <g id="figure_1">
  <g id="patch_1">
   <path d="M 0 393.011865 
L 417.648125 393.011865 
L 417.648125 -0 
L 0 -0 
z
" style="fill: #ffffff"/>
  </g>
  <g id="axes_1">
   <g id="patch_2">
    <path d="M 53.328125 288.430125 
L 410.448125 288.430125 
L 410.448125 22.318125 
L 53.328125 22.318125 
z
" style="fill: #ffffff"/>
   </g>
   <g id="PolyCollection_1">
    <defs>
     <path id="m04d65c8ee8" d="M 114.551784 -178.869817 
L 111.144466 -178.869817 
L 110.903751 -180.685251 
L 110.637963 -182.500684 
L 110.345909 -184.316118 
L 110.026549 -186.131551 
L 109.679026 -187.946985 
L 109.302699 -189.762418 
L 108.897172 -191.577852 
L 108.462318 -193.393286 
L 107.998307 -195.208719 
L 107.50562 -197.024153 
L 106.985066 -198.839586 
L 106.437789 -200.65502 
L 105.86527 -202.470453 
L 105.26932 -204.285887 
L 104.652069 -206.101321 
L 104.015943 -207.916754 
L 103.363644 -209.732188 
L 102.69811 -211.547621 
L 102.022478 -213.363055 
L 101.340042 -215.178488 
L 100.654202 -216.993922 
L 99.968416 -218.809356 
L 99.286148 -220.624789 
L 98.610813 -222.440223 
L 97.945732 -224.255656 
L 97.29408 -226.07109 
L 96.658844 -227.886523 
L 96.042787 -229.701957 
L 95.448413 -231.517391 
L 94.877943 -233.332824 
L 94.3333 -235.148258 
L 93.816096 -236.963691 
L 93.327631 -238.779125 
L 92.868901 -240.594558 
L 92.440606 -242.409992 
L 92.043174 -244.225426 
L 91.676782 -246.040859 
L 91.341387 -247.856293 
L 91.036757 -249.671726 
L 90.762508 -251.48716 
L 90.518143 -253.302593 
L 90.303082 -255.118027 
L 90.116705 -256.933461 
L 89.958385 -258.748894 
L 89.827518 -260.564328 
L 89.723554 -262.379761 
L 89.646021 -264.195195 
L 89.594548 -266.010628 
L 89.568877 -267.826062 
L 89.568877 -269.641495 
L 89.594548 -271.456929 
L 89.646021 -273.272363 
L 89.723554 -275.087796 
L 89.827518 -276.90323 
L 89.958385 -278.718663 
L 90.116705 -280.534097 
L 90.303082 -282.34953 
L 90.518143 -284.164964 
L 90.762508 -285.980398 
L 91.036757 -287.795831 
L 91.341387 -289.611265 
L 91.676782 -291.426698 
L 92.043174 -293.242132 
L 92.440606 -295.057565 
L 92.868901 -296.872999 
L 93.327631 -298.688433 
L 93.816096 -300.503866 
L 94.3333 -302.3193 
L 94.877943 -304.134733 
L 95.448413 -305.950167 
L 96.042787 -307.7656 
L 96.658844 -309.581034 
L 97.29408 -311.396468 
L 97.945732 -313.211901 
L 98.610813 -315.027335 
L 99.286148 -316.842768 
L 99.968416 -318.658202 
L 100.654202 -320.473635 
L 101.340042 -322.289069 
L 102.022478 -324.104503 
L 102.69811 -325.919936 
L 103.363644 -327.73537 
L 104.015943 -329.550803 
L 104.652069 -331.366237 
L 105.26932 -333.18167 
L 105.86527 -334.997104 
L 106.437789 -336.812538 
L 106.985066 -338.627971 
L 107.50562 -340.443405 
L 107.998307 -342.258838 
L 108.462318 -344.074272 
L 108.897172 -345.889705 
L 109.302699 -347.705139 
L 109.679026 -349.520573 
L 110.026549 -351.336006 
L 110.345909 -353.15144 
L 110.637963 -354.966873 
L 110.903751 -356.782307 
L 111.144466 -358.59774 
L 114.551784 -358.59774 
L 114.551784 -358.59774 
L 114.792499 -356.782307 
L 115.058287 -354.966873 
L 115.350341 -353.15144 
L 115.669701 -351.336006 
L 116.017224 -349.520573 
L 116.393551 -347.705139 
L 116.799078 -345.889705 
L 117.233932 -344.074272 
L 117.697943 -342.258838 
L 118.19063 -340.443405 
L 118.711184 -338.627971 
L 119.258461 -336.812538 
L 119.83098 -334.997104 
L 120.42693 -333.18167 
L 121.044181 -331.366237 
L 121.680307 -329.550803 
L 122.332606 -327.73537 
L 122.99814 -325.919936 
L 123.673772 -324.104503 
L 124.356208 -322.289069 
L 125.042048 -320.473635 
L 125.727834 -318.658202 
L 126.410102 -316.842768 
L 127.085437 -315.027335 
L 127.750518 -313.211901 
L 128.40217 -311.396468 
L 129.037406 -309.581034 
L 129.653463 -307.7656 
L 130.247837 -305.950167 
L 130.818307 -304.134733 
L 131.36295 -302.3193 
L 131.880154 -300.503866 
L 132.368619 -298.688433 
L 132.827349 -296.872999 
L 133.255644 -295.057565 
L 133.653076 -293.242132 
L 134.019468 -291.426698 
L 134.354863 -289.611265 
L 134.659493 -287.795831 
L 134.933742 -285.980398 
L 135.178107 -284.164964 
L 135.393168 -282.34953 
L 135.579545 -280.534097 
L 135.737865 -278.718663 
L 135.868732 -276.90323 
L 135.972696 -275.087796 
L 136.050229 -273.272363 
L 136.101702 -271.456929 
L 136.127373 -269.641495 
L 136.127373 -267.826062 
L 136.101702 -266.010628 
L 136.050229 -264.195195 
L 135.972696 -262.379761 
L 135.868732 -260.564328 
L 135.737865 -258.748894 
L 135.579545 -256.933461 
L 135.393168 -255.118027 
L 135.178107 -253.302593 
L 134.933742 -251.48716 
L 134.659493 -249.671726 
L 134.354863 -247.856293 
L 134.019468 -246.040859 
L 133.653076 -244.225426 
L 133.255644 -242.409992 
L 132.827349 -240.594558 
L 132.368619 -238.779125 
L 131.880154 -236.963691 
L 131.36295 -235.148258 
L 130.818307 -233.332824 
L 130.247837 -231.517391 
L 129.653463 -229.701957 
L 129.037406 -227.886523 
L 128.40217 -226.07109 
L 127.750518 -224.255656 
L 127.085437 -222.440223 
L 126.410102 -220.624789 
L 125.727834 -218.809356 
L 125.042048 -216.993922 
L 124.356208 -215.178488 
L 123.673772 -213.363055 
L 122.99814 -211.547621 
L 122.332606 -209.732188 
L 121.680307 -207.916754 
L 121.044181 -206.101321 
L 120.42693 -204.285887 
L 119.83098 -202.470453 
L 119.258461 -200.65502 
L 118.711184 -198.839586 
L 118.19063 -197.024153 
L 117.697943 -195.208719 
L 117.233932 -193.393286 
L 116.799078 -191.577852 
L 116.393551 -189.762418 
L 116.017224 -187.946985 
L 115.669701 -186.131551 
L 115.350341 -184.316118 
L 115.058287 -182.500684 
L 114.792499 -180.685251 
L 114.551784 -178.869817 
z
" style="stroke: #3d3d3d; stroke-width: 1.5"/>
    </defs>
    <g clip-path="url(#pe6afc4c33e)">
     <use xlink:href="#m04d65c8ee8" x="0" y="393.011865" style="fill: #3a923a; stroke: #3d3d3d; stroke-width: 1.5"/>
    </g>
   </g>
   <g id="PolyCollection_2">
    <defs>
     <path id="m6d1fafd5e7" d="M 235.838524 -196.803518 
L 227.937726 -196.803518 
L 227.366496 -197.734074 
L 226.732892 -198.664629 
L 226.033431 -199.595185 
L 225.264958 -200.525741 
L 224.424736 -201.456297 
L 223.510543 -202.386853 
L 222.520771 -203.317409 
L 221.454519 -204.247965 
L 220.311686 -205.178521 
L 219.093059 -206.109077 
L 217.800388 -207.039633 
L 216.436452 -207.970188 
L 215.005111 -208.900744 
L 213.511334 -209.8313 
L 211.961217 -210.761856 
L 210.361971 -211.692412 
L 208.721889 -212.622968 
L 207.05029 -213.553524 
L 205.357432 -214.48408 
L 203.654407 -215.414636 
L 201.953005 -216.345191 
L 200.265559 -217.275747 
L 198.604769 -218.206303 
L 196.983505 -219.136859 
L 195.414603 -220.067415 
L 193.910647 -220.997971 
L 192.483746 -221.928527 
L 191.145317 -222.859083 
L 189.905871 -223.789639 
L 188.774813 -224.720194 
L 187.760258 -225.65075 
L 186.868875 -226.581306 
L 186.105749 -227.511862 
L 185.474292 -228.442418 
L 184.976171 -229.372974 
L 184.611287 -230.30353 
L 184.377787 -231.234086 
L 184.272125 -232.164642 
L 184.289147 -233.095198 
L 184.422229 -234.025753 
L 184.663439 -234.956309 
L 185.003732 -235.886865 
L 185.433173 -236.817421 
L 185.941175 -237.747977 
L 186.516748 -238.678533 
L 187.148762 -239.609089 
L 187.8262 -240.539645 
L 188.538404 -241.470201 
L 189.275309 -242.400756 
L 190.027656 -243.331312 
L 190.787169 -244.261868 
L 191.546709 -245.192424 
L 192.300387 -246.12298 
L 193.043641 -247.053536 
L 193.77327 -247.984092 
L 194.487431 -248.914648 
L 195.18559 -249.845204 
L 195.868447 -250.775759 
L 196.537819 -251.706315 
L 197.196496 -252.636871 
L 197.848076 -253.567427 
L 198.496776 -254.497983 
L 199.147242 -255.428539 
L 199.804341 -256.359095 
L 200.472966 -257.289651 
L 201.157841 -258.220207 
L 201.86334 -259.150763 
L 202.593328 -260.081318 
L 203.351025 -261.011874 
L 204.138888 -261.94243 
L 204.958531 -262.872986 
L 205.81067 -263.803542 
L 206.695096 -264.734098 
L 207.610685 -265.664654 
L 208.555425 -266.59521 
L 209.526477 -267.525766 
L 210.520258 -268.456321 
L 211.532532 -269.386877 
L 212.558531 -270.317433 
L 213.593072 -271.247989 
L 214.630692 -272.178545 
L 215.665772 -273.109101 
L 216.69267 -274.039657 
L 217.705842 -274.970213 
L 218.699954 -275.900769 
L 219.669985 -276.831324 
L 220.611311 -277.76188 
L 221.51978 -278.692436 
L 222.391766 -279.622992 
L 223.224207 -280.553548 
L 224.01463 -281.484104 
L 224.761159 -282.41466 
L 225.462504 -283.345216 
L 226.117947 -284.275772 
L 226.727306 -285.206327 
L 227.2909 -286.136883 
L 227.809498 -287.067439 
L 228.28427 -287.997995 
L 228.716728 -288.928551 
L 235.059522 -288.928551 
L 235.059522 -288.928551 
L 235.49198 -287.997995 
L 235.966752 -287.067439 
L 236.48535 -286.136883 
L 237.048944 -285.206327 
L 237.658303 -284.275772 
L 238.313746 -283.345216 
L 239.015091 -282.41466 
L 239.76162 -281.484104 
L 240.552043 -280.553548 
L 241.384484 -279.622992 
L 242.25647 -278.692436 
L 243.164939 -277.76188 
L 244.106265 -276.831324 
L 245.076296 -275.900769 
L 246.070408 -274.970213 
L 247.08358 -274.039657 
L 248.110478 -273.109101 
L 249.145558 -272.178545 
L 250.183178 -271.247989 
L 251.217719 -270.317433 
L 252.243718 -269.386877 
L 253.255992 -268.456321 
L 254.249773 -267.525766 
L 255.220825 -266.59521 
L 256.165565 -265.664654 
L 257.081154 -264.734098 
L 257.96558 -263.803542 
L 258.817719 -262.872986 
L 259.637362 -261.94243 
L 260.425225 -261.011874 
L 261.182922 -260.081318 
L 261.91291 -259.150763 
L 262.618409 -258.220207 
L 263.303284 -257.289651 
L 263.971909 -256.359095 
L 264.629008 -255.428539 
L 265.279474 -254.497983 
L 265.928174 -253.567427 
L 266.579754 -252.636871 
L 267.238431 -251.706315 
L 267.907803 -250.775759 
L 268.59066 -249.845204 
L 269.288819 -248.914648 
L 270.00298 -247.984092 
L 270.732609 -247.053536 
L 271.475863 -246.12298 
L 272.229541 -245.192424 
L 272.989081 -244.261868 
L 273.748594 -243.331312 
L 274.500941 -242.400756 
L 275.237846 -241.470201 
L 275.95005 -240.539645 
L 276.627488 -239.609089 
L 277.259502 -238.678533 
L 277.835075 -237.747977 
L 278.343077 -236.817421 
L 278.772518 -235.886865 
L 279.112811 -234.956309 
L 279.354021 -234.025753 
L 279.487103 -233.095198 
L 279.504125 -232.164642 
L 279.398463 -231.234086 
L 279.164963 -230.30353 
L 278.800079 -229.372974 
L 278.301958 -228.442418 
L 277.670501 -227.511862 
L 276.907375 -226.581306 
L 276.015992 -225.65075 
L 275.001437 -224.720194 
L 273.870379 -223.789639 
L 272.630933 -222.859083 
L 271.292504 -221.928527 
L 269.865603 -220.997971 
L 268.361647 -220.067415 
L 266.792745 -219.136859 
L 265.171481 -218.206303 
L 263.510691 -217.275747 
L 261.823245 -216.345191 
L 260.121843 -215.414636 
L 258.418818 -214.48408 
L 256.72596 -213.553524 
L 255.054361 -212.622968 
L 253.414279 -211.692412 
L 251.815033 -210.761856 
L 250.264916 -209.8313 
L 248.771139 -208.900744 
L 247.339798 -207.970188 
L 245.975862 -207.039633 
L 244.683191 -206.109077 
L 243.464564 -205.178521 
L 242.321731 -204.247965 
L 241.255479 -203.317409 
L 240.265707 -202.386853 
L 239.351514 -201.456297 
L 238.511292 -200.525741 
L 237.742819 -199.595185 
L 237.043358 -198.664629 
L 236.409754 -197.734074 
L 235.838524 -196.803518 
z
" style="stroke: #3d3d3d; stroke-width: 1.5"/>
    </defs>
    <g clip-path="url(#pe6afc4c33e)">
     <use xlink:href="#m6d1fafd5e7" x="0" y="393.011865" style="fill: #d1d197; stroke: #3d3d3d; stroke-width: 1.5"/>
    </g>
   </g>
   <g id="PolyCollection_3">
    <defs>
     <path id="m08741fc614" d="M 353.207382 -116.67774 
L 348.648868 -116.67774 
L 348.350971 -117.920547 
L 348.025235 -119.163354 
L 347.670755 -120.406161 
L 347.286847 -121.648967 
L 346.873086 -122.891774 
L 346.429337 -124.134581 
L 345.955782 -125.377388 
L 345.45295 -126.620194 
L 344.921733 -127.863001 
L 344.363404 -129.105808 
L 343.779619 -130.348614 
L 343.172416 -131.591421 
L 342.544204 -132.834228 
L 341.897744 -134.077035 
L 341.236112 -135.319841 
L 340.56266 -136.562648 
L 339.880965 -137.805455 
L 339.194766 -139.048262 
L 338.507893 -140.291068 
L 337.824193 -141.533875 
L 337.147444 -142.776682 
L 336.481267 -144.019488 
L 335.829043 -145.262295 
L 335.193821 -146.505102 
L 334.578237 -147.747909 
L 333.984435 -148.990715 
L 333.414 -150.233522 
L 332.8679 -151.476329 
L 332.346445 -152.719136 
L 331.849256 -153.961942 
L 331.375264 -155.204749 
L 330.922714 -156.447556 
L 330.489199 -157.690363 
L 330.07171 -158.933169 
L 329.666711 -160.175976 
L 329.270226 -161.418783 
L 328.87795 -162.661589 
L 328.485373 -163.904396 
L 328.087915 -165.147203 
L 327.681071 -166.39001 
L 327.260563 -167.632816 
L 326.822494 -168.875623 
L 326.363492 -170.11843 
L 325.880856 -171.361237 
L 325.372684 -172.604043 
L 324.837987 -173.84685 
L 324.276781 -175.089657 
L 323.690156 -176.332463 
L 323.080327 -177.57527 
L 322.450639 -178.818077 
L 321.805562 -180.060884 
L 321.15064 -181.30369 
L 320.492424 -182.546497 
L 319.838359 -183.789304 
L 319.196664 -185.032111 
L 318.576176 -186.274917 
L 317.986174 -187.517724 
L 317.436193 -188.760531 
L 316.935826 -190.003337 
L 316.494515 -191.246144 
L 316.121349 -192.488951 
L 315.824862 -193.731758 
L 315.612841 -194.974564 
L 315.492156 -196.217371 
L 315.4686 -197.460178 
L 315.54676 -198.702985 
L 315.729914 -199.945791 
L 316.019956 -201.188598 
L 316.41735 -202.431405 
L 316.921122 -203.674212 
L 317.52888 -204.917018 
L 318.23686 -206.159825 
L 319.04001 -207.402632 
L 319.932095 -208.645438 
L 320.90582 -209.888245 
L 321.95298 -211.131052 
L 323.064623 -212.373859 
L 324.231215 -213.616665 
L 325.442824 -214.859472 
L 326.68929 -216.102279 
L 327.960408 -217.345086 
L 329.246088 -218.587892 
L 330.536514 -219.830699 
L 331.822288 -221.073506 
L 333.094556 -222.316312 
L 334.345112 -223.559119 
L 335.566488 -224.801926 
L 336.752025 -226.044733 
L 337.895914 -227.287539 
L 338.993227 -228.530346 
L 340.039922 -229.773153 
L 341.032838 -231.01596 
L 341.969662 -232.258766 
L 342.848898 -233.501573 
L 343.669808 -234.74438 
L 344.432355 -235.987187 
L 345.137135 -237.229993 
L 345.785303 -238.4728 
L 346.378497 -239.715607 
L 355.477753 -239.715607 
L 355.477753 -239.715607 
L 356.070947 -238.4728 
L 356.719115 -237.229993 
L 357.423895 -235.987187 
L 358.186442 -234.74438 
L 359.007352 -233.501573 
L 359.886588 -232.258766 
L 360.823412 -231.01596 
L 361.816328 -229.773153 
L 362.863023 -228.530346 
L 363.960336 -227.287539 
L 365.104225 -226.044733 
L 366.289762 -224.801926 
L 367.511138 -223.559119 
L 368.761694 -222.316312 
L 370.033962 -221.073506 
L 371.319736 -219.830699 
L 372.610162 -218.587892 
L 373.895842 -217.345086 
L 375.16696 -216.102279 
L 376.413426 -214.859472 
L 377.625035 -213.616665 
L 378.791627 -212.373859 
L 379.90327 -211.131052 
L 380.95043 -209.888245 
L 381.924155 -208.645438 
L 382.81624 -207.402632 
L 383.61939 -206.159825 
L 384.32737 -204.917018 
L 384.935128 -203.674212 
L 385.4389 -202.431405 
L 385.836294 -201.188598 
L 386.126336 -199.945791 
L 386.30949 -198.702985 
L 386.38765 -197.460178 
L 386.364094 -196.217371 
L 386.243409 -194.974564 
L 386.031388 -193.731758 
L 385.734901 -192.488951 
L 385.361735 -191.246144 
L 384.920424 -190.003337 
L 384.420057 -188.760531 
L 383.870076 -187.517724 
L 383.280074 -186.274917 
L 382.659586 -185.032111 
L 382.017891 -183.789304 
L 381.363826 -182.546497 
L 380.70561 -181.30369 
L 380.050688 -180.060884 
L 379.405611 -178.818077 
L 378.775923 -177.57527 
L 378.166094 -176.332463 
L 377.579469 -175.089657 
L 377.018263 -173.84685 
L 376.483566 -172.604043 
L 375.975394 -171.361237 
L 375.492758 -170.11843 
L 375.033756 -168.875623 
L 374.595687 -167.632816 
L 374.175179 -166.39001 
L 373.768335 -165.147203 
L 373.370877 -163.904396 
L 372.9783 -162.661589 
L 372.586024 -161.418783 
L 372.189539 -160.175976 
L 371.78454 -158.933169 
L 371.367051 -157.690363 
L 370.933536 -156.447556 
L 370.480986 -155.204749 
L 370.006994 -153.961942 
L 369.509805 -152.719136 
L 368.98835 -151.476329 
L 368.44225 -150.233522 
L 367.871815 -148.990715 
L 367.278013 -147.747909 
L 366.662429 -146.505102 
L 366.027207 -145.262295 
L 365.374983 -144.019488 
L 364.708806 -142.776682 
L 364.032057 -141.533875 
L 363.348357 -140.291068 
L 362.661484 -139.048262 
L 361.975285 -137.805455 
L 361.29359 -136.562648 
L 360.620138 -135.319841 
L 359.958506 -134.077035 
L 359.312046 -132.834228 
L 358.683834 -131.591421 
L 358.076631 -130.348614 
L 357.492846 -129.105808 
L 356.934517 -127.863001 
L 356.4033 -126.620194 
L 355.900468 -125.377388 
L 355.426913 -124.134581 
L 354.983164 -122.891774 
L 354.569403 -121.648967 
L 354.185495 -120.406161 
L 353.831015 -119.163354 
L 353.505279 -117.920547 
L 353.207382 -116.67774 
z
" style="stroke: #3d3d3d; stroke-width: 1.5"/>
    </defs>
    <g clip-path="url(#pe6afc4c33e)">
     <use xlink:href="#m08741fc614" x="0" y="393.011865" style="fill: #d684bd; stroke: #3d3d3d; stroke-width: 1.5"/>
    </g>
   </g>
   <g id="matplotlib.axis_1">
    <g id="xtick_1">
     <g id="line2d_1">
      <defs>
       <path id="me68d31c827" d="M 0 0 
L 0 3.5 
" style="stroke: #000000; stroke-width: 0.8"/>
      </defs>
      <g>
       <use xlink:href="#me68d31c827" x="112.848125" y="288.430125" style="stroke: #000000; stroke-width: 0.8"/>
      </g>
     </g>
     <g id="text_1">
      <!-- aflplusplus_ast_opt_l1 -->
      <g transform="translate(16.788017 356.790252)rotate(-30)scale(0.1 -0.1)">
       <defs>
        <path id="DejaVuSans-61" d="M 2194 1759 
Q 1497 1759 1228 1600 
Q 959 1441 959 1056 
Q 959 750 1161 570 
Q 1363 391 1709 391 
Q 2188 391 2477 730 
Q 2766 1069 2766 1631 
L 2766 1759 
L 2194 1759 
z
M 3341 1997 
L 3341 0 
L 2766 0 
L 2766 531 
Q 2569 213 2275 61 
Q 1981 -91 1556 -91 
Q 1019 -91 701 211 
Q 384 513 384 1019 
Q 384 1609 779 1909 
Q 1175 2209 1959 2209 
L 2766 2209 
L 2766 2266 
Q 2766 2663 2505 2880 
Q 2244 3097 1772 3097 
Q 1472 3097 1187 3025 
Q 903 2953 641 2809 
L 641 3341 
Q 956 3463 1253 3523 
Q 1550 3584 1831 3584 
Q 2591 3584 2966 3190 
Q 3341 2797 3341 1997 
z
" transform="scale(0.015625)"/>
        <path id="DejaVuSans-66" d="M 2375 4863 
L 2375 4384 
L 1825 4384 
Q 1516 4384 1395 4259 
Q 1275 4134 1275 3809 
L 1275 3500 
L 2222 3500 
L 2222 3053 
L 1275 3053 
L 1275 0 
L 697 0 
L 697 3053 
L 147 3053 
L 147 3500 
L 697 3500 
L 697 3744 
Q 697 4328 969 4595 
Q 1241 4863 1831 4863 
L 2375 4863 
z
" transform="scale(0.015625)"/>
        <path id="DejaVuSans-6c" d="M 603 4863 
L 1178 4863 
L 1178 0 
L 603 0 
L 603 4863 
z
" transform="scale(0.015625)"/>
        <path id="DejaVuSans-70" d="M 1159 525 
L 1159 -1331 
L 581 -1331 
L 581 3500 
L 1159 3500 
L 1159 2969 
Q 1341 3281 1617 3432 
Q 1894 3584 2278 3584 
Q 2916 3584 3314 3078 
Q 3713 2572 3713 1747 
Q 3713 922 3314 415 
Q 2916 -91 2278 -91 
Q 1894 -91 1617 61 
Q 1341 213 1159 525 
z
M 3116 1747 
Q 3116 2381 2855 2742 
Q 2594 3103 2138 3103 
Q 1681 3103 1420 2742 
Q 1159 2381 1159 1747 
Q 1159 1113 1420 752 
Q 1681 391 2138 391 
Q 2594 391 2855 752 
Q 3116 1113 3116 1747 
z
" transform="scale(0.015625)"/>
        <path id="DejaVuSans-75" d="M 544 1381 
L 544 3500 
L 1119 3500 
L 1119 1403 
Q 1119 906 1312 657 
Q 1506 409 1894 409 
Q 2359 409 2629 706 
Q 2900 1003 2900 1516 
L 2900 3500 
L 3475 3500 
L 3475 0 
L 2900 0 
L 2900 538 
Q 2691 219 2414 64 
Q 2138 -91 1772 -91 
Q 1169 -91 856 284 
Q 544 659 544 1381 
z
M 1991 3584 
L 1991 3584 
z
" transform="scale(0.015625)"/>
        <path id="DejaVuSans-73" d="M 2834 3397 
L 2834 2853 
Q 2591 2978 2328 3040 
Q 2066 3103 1784 3103 
Q 1356 3103 1142 2972 
Q 928 2841 928 2578 
Q 928 2378 1081 2264 
Q 1234 2150 1697 2047 
L 1894 2003 
Q 2506 1872 2764 1633 
Q 3022 1394 3022 966 
Q 3022 478 2636 193 
Q 2250 -91 1575 -91 
Q 1294 -91 989 -36 
Q 684 19 347 128 
L 347 722 
Q 666 556 975 473 
Q 1284 391 1588 391 
Q 1994 391 2212 530 
Q 2431 669 2431 922 
Q 2431 1156 2273 1281 
Q 2116 1406 1581 1522 
L 1381 1569 
Q 847 1681 609 1914 
Q 372 2147 372 2553 
Q 372 3047 722 3315 
Q 1072 3584 1716 3584 
Q 2034 3584 2315 3537 
Q 2597 3491 2834 3397 
z
" transform="scale(0.015625)"/>
        <path id="DejaVuSans-5f" d="M 3263 -1063 
L 3263 -1509 
L -63 -1509 
L -63 -1063 
L 3263 -1063 
z
" transform="scale(0.015625)"/>
        <path id="DejaVuSans-74" d="M 1172 4494 
L 1172 3500 
L 2356 3500 
L 2356 3053 
L 1172 3053 
L 1172 1153 
Q 1172 725 1289 603 
Q 1406 481 1766 481 
L 2356 481 
L 2356 0 
L 1766 0 
Q 1100 0 847 248 
Q 594 497 594 1153 
L 594 3053 
L 172 3053 
L 172 3500 
L 594 3500 
L 594 4494 
L 1172 4494 
z
" transform="scale(0.015625)"/>
        <path id="DejaVuSans-6f" d="M 1959 3097 
Q 1497 3097 1228 2736 
Q 959 2375 959 1747 
Q 959 1119 1226 758 
Q 1494 397 1959 397 
Q 2419 397 2687 759 
Q 2956 1122 2956 1747 
Q 2956 2369 2687 2733 
Q 2419 3097 1959 3097 
z
M 1959 3584 
Q 2709 3584 3137 3096 
Q 3566 2609 3566 1747 
Q 3566 888 3137 398 
Q 2709 -91 1959 -91 
Q 1206 -91 779 398 
Q 353 888 353 1747 
Q 353 2609 779 3096 
Q 1206 3584 1959 3584 
z
" transform="scale(0.015625)"/>
        <path id="DejaVuSans-31" d="M 794 531 
L 1825 531 
L 1825 4091 
L 703 3866 
L 703 4441 
L 1819 4666 
L 2450 4666 
L 2450 531 
L 3481 531 
L 3481 0 
L 794 0 
L 794 531 
z
" transform="scale(0.015625)"/>
       </defs>
       <use xlink:href="#DejaVuSans-61"/>
       <use xlink:href="#DejaVuSans-66" x="61.279297"/>
       <use xlink:href="#DejaVuSans-6c" x="96.484375"/>
       <use xlink:href="#DejaVuSans-70" x="124.267578"/>
       <use xlink:href="#DejaVuSans-6c" x="187.744141"/>
       <use xlink:href="#DejaVuSans-75" x="215.527344"/>
       <use xlink:href="#DejaVuSans-73" x="278.90625"/>
       <use xlink:href="#DejaVuSans-70" x="331.005859"/>
       <use xlink:href="#DejaVuSans-6c" x="394.482422"/>
       <use xlink:href="#DejaVuSans-75" x="422.265625"/>
       <use xlink:href="#DejaVuSans-73" x="485.644531"/>
       <use xlink:href="#DejaVuSans-5f" x="537.744141"/>
       <use xlink:href="#DejaVuSans-61" x="587.744141"/>
       <use xlink:href="#DejaVuSans-73" x="649.023438"/>
       <use xlink:href="#DejaVuSans-74" x="701.123047"/>
       <use xlink:href="#DejaVuSans-5f" x="740.332031"/>
       <use xlink:href="#DejaVuSans-6f" x="790.332031"/>
       <use xlink:href="#DejaVuSans-70" x="851.513672"/>
       <use xlink:href="#DejaVuSans-74" x="914.990234"/>
       <use xlink:href="#DejaVuSans-5f" x="954.199219"/>
       <use xlink:href="#DejaVuSans-6c" x="1004.199219"/>
       <use xlink:href="#DejaVuSans-31" x="1031.982422"/>
      </g>
     </g>
    </g>
    <g id="xtick_2">
     <g id="line2d_2">
      <g>
       <use xlink:href="#me68d31c827" x="231.888125" y="288.430125" style="stroke: #000000; stroke-width: 0.8"/>
      </g>
     </g>
     <g id="text_2">
      <!-- aflplusplus_ast_opt_disable -->
      <g transform="translate(112.789035 370.091815)rotate(-30)scale(0.1 -0.1)">
       <defs>
        <path id="DejaVuSans-64" d="M 2906 2969 
L 2906 4863 
L 3481 4863 
L 3481 0 
L 2906 0 
L 2906 525 
Q 2725 213 2448 61 
Q 2172 -91 1784 -91 
Q 1150 -91 751 415 
Q 353 922 353 1747 
Q 353 2572 751 3078 
Q 1150 3584 1784 3584 
Q 2172 3584 2448 3432 
Q 2725 3281 2906 2969 
z
M 947 1747 
Q 947 1113 1208 752 
Q 1469 391 1925 391 
Q 2381 391 2643 752 
Q 2906 1113 2906 1747 
Q 2906 2381 2643 2742 
Q 2381 3103 1925 3103 
Q 1469 3103 1208 2742 
Q 947 2381 947 1747 
z
" transform="scale(0.015625)"/>
        <path id="DejaVuSans-69" d="M 603 3500 
L 1178 3500 
L 1178 0 
L 603 0 
L 603 3500 
z
M 603 4863 
L 1178 4863 
L 1178 4134 
L 603 4134 
L 603 4863 
z
" transform="scale(0.015625)"/>
        <path id="DejaVuSans-62" d="M 3116 1747 
Q 3116 2381 2855 2742 
Q 2594 3103 2138 3103 
Q 1681 3103 1420 2742 
Q 1159 2381 1159 1747 
Q 1159 1113 1420 752 
Q 1681 391 2138 391 
Q 2594 391 2855 752 
Q 3116 1113 3116 1747 
z
M 1159 2969 
Q 1341 3281 1617 3432 
Q 1894 3584 2278 3584 
Q 2916 3584 3314 3078 
Q 3713 2572 3713 1747 
Q 3713 922 3314 415 
Q 2916 -91 2278 -91 
Q 1894 -91 1617 61 
Q 1341 213 1159 525 
L 1159 0 
L 581 0 
L 581 4863 
L 1159 4863 
L 1159 2969 
z
" transform="scale(0.015625)"/>
        <path id="DejaVuSans-65" d="M 3597 1894 
L 3597 1613 
L 953 1613 
Q 991 1019 1311 708 
Q 1631 397 2203 397 
Q 2534 397 2845 478 
Q 3156 559 3463 722 
L 3463 178 
Q 3153 47 2828 -22 
Q 2503 -91 2169 -91 
Q 1331 -91 842 396 
Q 353 884 353 1716 
Q 353 2575 817 3079 
Q 1281 3584 2069 3584 
Q 2775 3584 3186 3129 
Q 3597 2675 3597 1894 
z
M 3022 2063 
Q 3016 2534 2758 2815 
Q 2500 3097 2075 3097 
Q 1594 3097 1305 2825 
Q 1016 2553 972 2059 
L 3022 2063 
z
" transform="scale(0.015625)"/>
       </defs>
       <use xlink:href="#DejaVuSans-61"/>
       <use xlink:href="#DejaVuSans-66" x="61.279297"/>
       <use xlink:href="#DejaVuSans-6c" x="96.484375"/>
       <use xlink:href="#DejaVuSans-70" x="124.267578"/>
       <use xlink:href="#DejaVuSans-6c" x="187.744141"/>
       <use xlink:href="#DejaVuSans-75" x="215.527344"/>
       <use xlink:href="#DejaVuSans-73" x="278.90625"/>
       <use xlink:href="#DejaVuSans-70" x="331.005859"/>
       <use xlink:href="#DejaVuSans-6c" x="394.482422"/>
       <use xlink:href="#DejaVuSans-75" x="422.265625"/>
       <use xlink:href="#DejaVuSans-73" x="485.644531"/>
       <use xlink:href="#DejaVuSans-5f" x="537.744141"/>
       <use xlink:href="#DejaVuSans-61" x="587.744141"/>
       <use xlink:href="#DejaVuSans-73" x="649.023438"/>
       <use xlink:href="#DejaVuSans-74" x="701.123047"/>
       <use xlink:href="#DejaVuSans-5f" x="740.332031"/>
       <use xlink:href="#DejaVuSans-6f" x="790.332031"/>
       <use xlink:href="#DejaVuSans-70" x="851.513672"/>
       <use xlink:href="#DejaVuSans-74" x="914.990234"/>
       <use xlink:href="#DejaVuSans-5f" x="954.199219"/>
       <use xlink:href="#DejaVuSans-64" x="1004.199219"/>
       <use xlink:href="#DejaVuSans-69" x="1067.675781"/>
       <use xlink:href="#DejaVuSans-73" x="1095.458984"/>
       <use xlink:href="#DejaVuSans-61" x="1147.558594"/>
       <use xlink:href="#DejaVuSans-62" x="1208.837891"/>
       <use xlink:href="#DejaVuSans-6c" x="1272.314453"/>
       <use xlink:href="#DejaVuSans-65" x="1300.097656"/>
      </g>
     </g>
    </g>
    <g id="xtick_3">
     <g id="line2d_3">
      <g>
       <use xlink:href="#me68d31c827" x="350.928125" y="288.430125" style="stroke: #000000; stroke-width: 0.8"/>
      </g>
     </g>
     <g id="text_3">
      <!-- aflplusplus_ast_o3_native -->
      <g transform="translate(239.115827 365.884784)rotate(-30)scale(0.1 -0.1)">
       <defs>
        <path id="DejaVuSans-33" d="M 2597 2516 
Q 3050 2419 3304 2112 
Q 3559 1806 3559 1356 
Q 3559 666 3084 287 
Q 2609 -91 1734 -91 
Q 1441 -91 1130 -33 
Q 819 25 488 141 
L 488 750 
Q 750 597 1062 519 
Q 1375 441 1716 441 
Q 2309 441 2620 675 
Q 2931 909 2931 1356 
Q 2931 1769 2642 2001 
Q 2353 2234 1838 2234 
L 1294 2234 
L 1294 2753 
L 1863 2753 
Q 2328 2753 2575 2939 
Q 2822 3125 2822 3475 
Q 2822 3834 2567 4026 
Q 2313 4219 1838 4219 
Q 1578 4219 1281 4162 
Q 984 4106 628 3988 
L 628 4550 
Q 988 4650 1302 4700 
Q 1616 4750 1894 4750 
Q 2613 4750 3031 4423 
Q 3450 4097 3450 3541 
Q 3450 3153 3228 2886 
Q 3006 2619 2597 2516 
z
" transform="scale(0.015625)"/>
        <path id="DejaVuSans-6e" d="M 3513 2113 
L 3513 0 
L 2938 0 
L 2938 2094 
Q 2938 2591 2744 2837 
Q 2550 3084 2163 3084 
Q 1697 3084 1428 2787 
Q 1159 2491 1159 1978 
L 1159 0 
L 581 0 
L 581 3500 
L 1159 3500 
L 1159 2956 
Q 1366 3272 1645 3428 
Q 1925 3584 2291 3584 
Q 2894 3584 3203 3211 
Q 3513 2838 3513 2113 
z
" transform="scale(0.015625)"/>
        <path id="DejaVuSans-76" d="M 191 3500 
L 800 3500 
L 1894 563 
L 2988 3500 
L 3597 3500 
L 2284 0 
L 1503 0 
L 191 3500 
z
" transform="scale(0.015625)"/>
       </defs>
       <use xlink:href="#DejaVuSans-61"/>
       <use xlink:href="#DejaVuSans-66" x="61.279297"/>
       <use xlink:href="#DejaVuSans-6c" x="96.484375"/>
       <use xlink:href="#DejaVuSans-70" x="124.267578"/>
       <use xlink:href="#DejaVuSans-6c" x="187.744141"/>
       <use xlink:href="#DejaVuSans-75" x="215.527344"/>
       <use xlink:href="#DejaVuSans-73" x="278.90625"/>
       <use xlink:href="#DejaVuSans-70" x="331.005859"/>
       <use xlink:href="#DejaVuSans-6c" x="394.482422"/>
       <use xlink:href="#DejaVuSans-75" x="422.265625"/>
       <use xlink:href="#DejaVuSans-73" x="485.644531"/>
       <use xlink:href="#DejaVuSans-5f" x="537.744141"/>
       <use xlink:href="#DejaVuSans-61" x="587.744141"/>
       <use xlink:href="#DejaVuSans-73" x="649.023438"/>
       <use xlink:href="#DejaVuSans-74" x="701.123047"/>
       <use xlink:href="#DejaVuSans-5f" x="740.332031"/>
       <use xlink:href="#DejaVuSans-6f" x="790.332031"/>
       <use xlink:href="#DejaVuSans-33" x="851.513672"/>
       <use xlink:href="#DejaVuSans-5f" x="915.136719"/>
       <use xlink:href="#DejaVuSans-6e" x="965.136719"/>
       <use xlink:href="#DejaVuSans-61" x="1028.515625"/>
       <use xlink:href="#DejaVuSans-74" x="1089.794922"/>
       <use xlink:href="#DejaVuSans-69" x="1129.003906"/>
       <use xlink:href="#DejaVuSans-76" x="1156.787109"/>
       <use xlink:href="#DejaVuSans-65" x="1215.966797"/>
      </g>
     </g>
    </g>
    <g id="text_4">
     <!-- Fuzzer (highest median coverage on the left) -->
     <g transform="translate(119.270156 383.732178)scale(0.1 -0.1)">
      <defs>
       <path id="DejaVuSans-46" d="M 628 4666 
L 3309 4666 
L 3309 4134 
L 1259 4134 
L 1259 2759 
L 3109 2759 
L 3109 2228 
L 1259 2228 
L 1259 0 
L 628 0 
L 628 4666 
z
" transform="scale(0.015625)"/>
       <path id="DejaVuSans-7a" d="M 353 3500 
L 3084 3500 
L 3084 2975 
L 922 459 
L 3084 459 
L 3084 0 
L 275 0 
L 275 525 
L 2438 3041 
L 353 3041 
L 353 3500 
z
" transform="scale(0.015625)"/>
       <path id="DejaVuSans-72" d="M 2631 2963 
Q 2534 3019 2420 3045 
Q 2306 3072 2169 3072 
Q 1681 3072 1420 2755 
Q 1159 2438 1159 1844 
L 1159 0 
L 581 0 
L 581 3500 
L 1159 3500 
L 1159 2956 
Q 1341 3275 1631 3429 
Q 1922 3584 2338 3584 
Q 2397 3584 2469 3576 
Q 2541 3569 2628 3553 
L 2631 2963 
z
" transform="scale(0.015625)"/>
       <path id="DejaVuSans-20" transform="scale(0.015625)"/>
       <path id="DejaVuSans-28" d="M 1984 4856 
Q 1566 4138 1362 3434 
Q 1159 2731 1159 2009 
Q 1159 1288 1364 580 
Q 1569 -128 1984 -844 
L 1484 -844 
Q 1016 -109 783 600 
Q 550 1309 550 2009 
Q 550 2706 781 3412 
Q 1013 4119 1484 4856 
L 1984 4856 
z
" transform="scale(0.015625)"/>
       <path id="DejaVuSans-68" d="M 3513 2113 
L 3513 0 
L 2938 0 
L 2938 2094 
Q 2938 2591 2744 2837 
Q 2550 3084 2163 3084 
Q 1697 3084 1428 2787 
Q 1159 2491 1159 1978 
L 1159 0 
L 581 0 
L 581 4863 
L 1159 4863 
L 1159 2956 
Q 1366 3272 1645 3428 
Q 1925 3584 2291 3584 
Q 2894 3584 3203 3211 
Q 3513 2838 3513 2113 
z
" transform="scale(0.015625)"/>
       <path id="DejaVuSans-67" d="M 2906 1791 
Q 2906 2416 2648 2759 
Q 2391 3103 1925 3103 
Q 1463 3103 1205 2759 
Q 947 2416 947 1791 
Q 947 1169 1205 825 
Q 1463 481 1925 481 
Q 2391 481 2648 825 
Q 2906 1169 2906 1791 
z
M 3481 434 
Q 3481 -459 3084 -895 
Q 2688 -1331 1869 -1331 
Q 1566 -1331 1297 -1286 
Q 1028 -1241 775 -1147 
L 775 -588 
Q 1028 -725 1275 -790 
Q 1522 -856 1778 -856 
Q 2344 -856 2625 -561 
Q 2906 -266 2906 331 
L 2906 616 
Q 2728 306 2450 153 
Q 2172 0 1784 0 
Q 1141 0 747 490 
Q 353 981 353 1791 
Q 353 2603 747 3093 
Q 1141 3584 1784 3584 
Q 2172 3584 2450 3431 
Q 2728 3278 2906 2969 
L 2906 3500 
L 3481 3500 
L 3481 434 
z
" transform="scale(0.015625)"/>
       <path id="DejaVuSans-6d" d="M 3328 2828 
Q 3544 3216 3844 3400 
Q 4144 3584 4550 3584 
Q 5097 3584 5394 3201 
Q 5691 2819 5691 2113 
L 5691 0 
L 5113 0 
L 5113 2094 
Q 5113 2597 4934 2840 
Q 4756 3084 4391 3084 
Q 3944 3084 3684 2787 
Q 3425 2491 3425 1978 
L 3425 0 
L 2847 0 
L 2847 2094 
Q 2847 2600 2669 2842 
Q 2491 3084 2119 3084 
Q 1678 3084 1418 2786 
Q 1159 2488 1159 1978 
L 1159 0 
L 581 0 
L 581 3500 
L 1159 3500 
L 1159 2956 
Q 1356 3278 1631 3431 
Q 1906 3584 2284 3584 
Q 2666 3584 2933 3390 
Q 3200 3197 3328 2828 
z
" transform="scale(0.015625)"/>
       <path id="DejaVuSans-63" d="M 3122 3366 
L 3122 2828 
Q 2878 2963 2633 3030 
Q 2388 3097 2138 3097 
Q 1578 3097 1268 2742 
Q 959 2388 959 1747 
Q 959 1106 1268 751 
Q 1578 397 2138 397 
Q 2388 397 2633 464 
Q 2878 531 3122 666 
L 3122 134 
Q 2881 22 2623 -34 
Q 2366 -91 2075 -91 
Q 1284 -91 818 406 
Q 353 903 353 1747 
Q 353 2603 823 3093 
Q 1294 3584 2113 3584 
Q 2378 3584 2631 3529 
Q 2884 3475 3122 3366 
z
" transform="scale(0.015625)"/>
       <path id="DejaVuSans-29" d="M 513 4856 
L 1013 4856 
Q 1481 4119 1714 3412 
Q 1947 2706 1947 2009 
Q 1947 1309 1714 600 
Q 1481 -109 1013 -844 
L 513 -844 
Q 928 -128 1133 580 
Q 1338 1288 1338 2009 
Q 1338 2731 1133 3434 
Q 928 4138 513 4856 
z
" transform="scale(0.015625)"/>
      </defs>
      <use xlink:href="#DejaVuSans-46"/>
      <use xlink:href="#DejaVuSans-75" x="52.019531"/>
      <use xlink:href="#DejaVuSans-7a" x="115.398438"/>
      <use xlink:href="#DejaVuSans-7a" x="167.888672"/>
      <use xlink:href="#DejaVuSans-65" x="220.378906"/>
      <use xlink:href="#DejaVuSans-72" x="281.902344"/>
      <use xlink:href="#DejaVuSans-20" x="323.015625"/>
      <use xlink:href="#DejaVuSans-28" x="354.802734"/>
      <use xlink:href="#DejaVuSans-68" x="393.816406"/>
      <use xlink:href="#DejaVuSans-69" x="457.195312"/>
      <use xlink:href="#DejaVuSans-67" x="484.978516"/>
      <use xlink:href="#DejaVuSans-68" x="548.455078"/>
      <use xlink:href="#DejaVuSans-65" x="611.833984"/>
      <use xlink:href="#DejaVuSans-73" x="673.357422"/>
      <use xlink:href="#DejaVuSans-74" x="725.457031"/>
      <use xlink:href="#DejaVuSans-20" x="764.666016"/>
      <use xlink:href="#DejaVuSans-6d" x="796.453125"/>
      <use xlink:href="#DejaVuSans-65" x="893.865234"/>
      <use xlink:href="#DejaVuSans-64" x="955.388672"/>
      <use xlink:href="#DejaVuSans-69" x="1018.865234"/>
      <use xlink:href="#DejaVuSans-61" x="1046.648438"/>
      <use xlink:href="#DejaVuSans-6e" x="1107.927734"/>
      <use xlink:href="#DejaVuSans-20" x="1171.306641"/>
      <use xlink:href="#DejaVuSans-63" x="1203.09375"/>
      <use xlink:href="#DejaVuSans-6f" x="1258.074219"/>
      <use xlink:href="#DejaVuSans-76" x="1319.255859"/>
      <use xlink:href="#DejaVuSans-65" x="1378.435547"/>
      <use xlink:href="#DejaVuSans-72" x="1439.958984"/>
      <use xlink:href="#DejaVuSans-61" x="1481.072266"/>
      <use xlink:href="#DejaVuSans-67" x="1542.351562"/>
      <use xlink:href="#DejaVuSans-65" x="1605.828125"/>
      <use xlink:href="#DejaVuSans-20" x="1667.351562"/>
      <use xlink:href="#DejaVuSans-6f" x="1699.138672"/>
      <use xlink:href="#DejaVuSans-6e" x="1760.320312"/>
      <use xlink:href="#DejaVuSans-20" x="1823.699219"/>
      <use xlink:href="#DejaVuSans-74" x="1855.486328"/>
      <use xlink:href="#DejaVuSans-68" x="1894.695312"/>
      <use xlink:href="#DejaVuSans-65" x="1958.074219"/>
      <use xlink:href="#DejaVuSans-20" x="2019.597656"/>
      <use xlink:href="#DejaVuSans-6c" x="2051.384766"/>
      <use xlink:href="#DejaVuSans-65" x="2079.167969"/>
      <use xlink:href="#DejaVuSans-66" x="2140.691406"/>
      <use xlink:href="#DejaVuSans-74" x="2174.146484"/>
      <use xlink:href="#DejaVuSans-29" x="2213.355469"/>
     </g>
    </g>
   </g>
   <g id="matplotlib.axis_2">
    <g id="ytick_1">
     <g id="line2d_4">
      <defs>
       <path id="m364bfef346" d="M 0 0 
L -3.5 0 
" style="stroke: #000000; stroke-width: 0.8"/>
      </defs>
      <g>
       <use xlink:href="#m364bfef346" x="53.328125" y="279.484553" style="stroke: #000000; stroke-width: 0.8"/>
      </g>
     </g>
     <g id="text_5">
      <!-- 2265 -->
      <g transform="translate(20.878125 283.283771)scale(0.1 -0.1)">
       <defs>
        <path id="DejaVuSans-32" d="M 1228 531 
L 3431 531 
L 3431 0 
L 469 0 
L 469 531 
Q 828 903 1448 1529 
Q 2069 2156 2228 2338 
Q 2531 2678 2651 2914 
Q 2772 3150 2772 3378 
Q 2772 3750 2511 3984 
Q 2250 4219 1831 4219 
Q 1534 4219 1204 4116 
Q 875 4013 500 3803 
L 500 4441 
Q 881 4594 1212 4672 
Q 1544 4750 1819 4750 
Q 2544 4750 2975 4387 
Q 3406 4025 3406 3419 
Q 3406 3131 3298 2873 
Q 3191 2616 2906 2266 
Q 2828 2175 2409 1742 
Q 1991 1309 1228 531 
z
" transform="scale(0.015625)"/>
        <path id="DejaVuSans-36" d="M 2113 2584 
Q 1688 2584 1439 2293 
Q 1191 2003 1191 1497 
Q 1191 994 1439 701 
Q 1688 409 2113 409 
Q 2538 409 2786 701 
Q 3034 994 3034 1497 
Q 3034 2003 2786 2293 
Q 2538 2584 2113 2584 
z
M 3366 4563 
L 3366 3988 
Q 3128 4100 2886 4159 
Q 2644 4219 2406 4219 
Q 1781 4219 1451 3797 
Q 1122 3375 1075 2522 
Q 1259 2794 1537 2939 
Q 1816 3084 2150 3084 
Q 2853 3084 3261 2657 
Q 3669 2231 3669 1497 
Q 3669 778 3244 343 
Q 2819 -91 2113 -91 
Q 1303 -91 875 529 
Q 447 1150 447 2328 
Q 447 3434 972 4092 
Q 1497 4750 2381 4750 
Q 2619 4750 2861 4703 
Q 3103 4656 3366 4563 
z
" transform="scale(0.015625)"/>
        <path id="DejaVuSans-35" d="M 691 4666 
L 3169 4666 
L 3169 4134 
L 1269 4134 
L 1269 2991 
Q 1406 3038 1543 3061 
Q 1681 3084 1819 3084 
Q 2600 3084 3056 2656 
Q 3513 2228 3513 1497 
Q 3513 744 3044 326 
Q 2575 -91 1722 -91 
Q 1428 -91 1123 -41 
Q 819 9 494 109 
L 494 744 
Q 775 591 1075 516 
Q 1375 441 1709 441 
Q 2250 441 2565 725 
Q 2881 1009 2881 1497 
Q 2881 1984 2565 2268 
Q 2250 2553 1709 2553 
Q 1456 2553 1204 2497 
Q 953 2441 691 2322 
L 691 4666 
z
" transform="scale(0.015625)"/>
       </defs>
       <use xlink:href="#DejaVuSans-32"/>
       <use xlink:href="#DejaVuSans-32" x="63.623047"/>
       <use xlink:href="#DejaVuSans-36" x="127.246094"/>
       <use xlink:href="#DejaVuSans-35" x="190.869141"/>
      </g>
     </g>
    </g>
    <g id="ytick_2">
     <g id="line2d_5">
      <g>
       <use xlink:href="#m364bfef346" x="53.328125" y="236.371645" style="stroke: #000000; stroke-width: 0.8"/>
      </g>
     </g>
     <g id="text_6">
      <!-- 2270 -->
      <g transform="translate(20.878125 240.170864)scale(0.1 -0.1)">
       <defs>
        <path id="DejaVuSans-37" d="M 525 4666 
L 3525 4666 
L 3525 4397 
L 1831 0 
L 1172 0 
L 2766 4134 
L 525 4134 
L 525 4666 
z
" transform="scale(0.015625)"/>
        <path id="DejaVuSans-30" d="M 2034 4250 
Q 1547 4250 1301 3770 
Q 1056 3291 1056 2328 
Q 1056 1369 1301 889 
Q 1547 409 2034 409 
Q 2525 409 2770 889 
Q 3016 1369 3016 2328 
Q 3016 3291 2770 3770 
Q 2525 4250 2034 4250 
z
M 2034 4750 
Q 2819 4750 3233 4129 
Q 3647 3509 3647 2328 
Q 3647 1150 3233 529 
Q 2819 -91 2034 -91 
Q 1250 -91 836 529 
Q 422 1150 422 2328 
Q 422 3509 836 4129 
Q 1250 4750 2034 4750 
z
" transform="scale(0.015625)"/>
       </defs>
       <use xlink:href="#DejaVuSans-32"/>
       <use xlink:href="#DejaVuSans-32" x="63.623047"/>
       <use xlink:href="#DejaVuSans-37" x="127.246094"/>
       <use xlink:href="#DejaVuSans-30" x="190.869141"/>
      </g>
     </g>
    </g>
    <g id="ytick_3">
     <g id="line2d_6">
      <g>
       <use xlink:href="#m364bfef346" x="53.328125" y="193.258738" style="stroke: #000000; stroke-width: 0.8"/>
      </g>
     </g>
     <g id="text_7">
      <!-- 2275 -->
      <g transform="translate(20.878125 197.057957)scale(0.1 -0.1)">
       <use xlink:href="#DejaVuSans-32"/>
       <use xlink:href="#DejaVuSans-32" x="63.623047"/>
       <use xlink:href="#DejaVuSans-37" x="127.246094"/>
       <use xlink:href="#DejaVuSans-35" x="190.869141"/>
      </g>
     </g>
    </g>
    <g id="ytick_4">
     <g id="line2d_7">
      <g>
       <use xlink:href="#m364bfef346" x="53.328125" y="150.145831" style="stroke: #000000; stroke-width: 0.8"/>
      </g>
     </g>
     <g id="text_8">
      <!-- 2280 -->
      <g transform="translate(20.878125 153.94505)scale(0.1 -0.1)">
       <defs>
        <path id="DejaVuSans-38" d="M 2034 2216 
Q 1584 2216 1326 1975 
Q 1069 1734 1069 1313 
Q 1069 891 1326 650 
Q 1584 409 2034 409 
Q 2484 409 2743 651 
Q 3003 894 3003 1313 
Q 3003 1734 2745 1975 
Q 2488 2216 2034 2216 
z
M 1403 2484 
Q 997 2584 770 2862 
Q 544 3141 544 3541 
Q 544 4100 942 4425 
Q 1341 4750 2034 4750 
Q 2731 4750 3128 4425 
Q 3525 4100 3525 3541 
Q 3525 3141 3298 2862 
Q 3072 2584 2669 2484 
Q 3125 2378 3379 2068 
Q 3634 1759 3634 1313 
Q 3634 634 3220 271 
Q 2806 -91 2034 -91 
Q 1263 -91 848 271 
Q 434 634 434 1313 
Q 434 1759 690 2068 
Q 947 2378 1403 2484 
z
M 1172 3481 
Q 1172 3119 1398 2916 
Q 1625 2713 2034 2713 
Q 2441 2713 2670 2916 
Q 2900 3119 2900 3481 
Q 2900 3844 2670 4047 
Q 2441 4250 2034 4250 
Q 1625 4250 1398 4047 
Q 1172 3844 1172 3481 
z
" transform="scale(0.015625)"/>
       </defs>
       <use xlink:href="#DejaVuSans-32"/>
       <use xlink:href="#DejaVuSans-32" x="63.623047"/>
       <use xlink:href="#DejaVuSans-38" x="127.246094"/>
       <use xlink:href="#DejaVuSans-30" x="190.869141"/>
      </g>
     </g>
    </g>
    <g id="ytick_5">
     <g id="line2d_8">
      <g>
       <use xlink:href="#m364bfef346" x="53.328125" y="107.032924" style="stroke: #000000; stroke-width: 0.8"/>
      </g>
     </g>
     <g id="text_9">
      <!-- 2285 -->
      <g transform="translate(20.878125 110.832143)scale(0.1 -0.1)">
       <use xlink:href="#DejaVuSans-32"/>
       <use xlink:href="#DejaVuSans-32" x="63.623047"/>
       <use xlink:href="#DejaVuSans-38" x="127.246094"/>
       <use xlink:href="#DejaVuSans-35" x="190.869141"/>
      </g>
     </g>
    </g>
    <g id="ytick_6">
     <g id="line2d_9">
      <g>
       <use xlink:href="#m364bfef346" x="53.328125" y="63.920017" style="stroke: #000000; stroke-width: 0.8"/>
      </g>
     </g>
     <g id="text_10">
      <!-- 2290 -->
      <g transform="translate(20.878125 67.719235)scale(0.1 -0.1)">
       <defs>
        <path id="DejaVuSans-39" d="M 703 97 
L 703 672 
Q 941 559 1184 500 
Q 1428 441 1663 441 
Q 2288 441 2617 861 
Q 2947 1281 2994 2138 
Q 2813 1869 2534 1725 
Q 2256 1581 1919 1581 
Q 1219 1581 811 2004 
Q 403 2428 403 3163 
Q 403 3881 828 4315 
Q 1253 4750 1959 4750 
Q 2769 4750 3195 4129 
Q 3622 3509 3622 2328 
Q 3622 1225 3098 567 
Q 2575 -91 1691 -91 
Q 1453 -91 1209 -44 
Q 966 3 703 97 
z
M 1959 2075 
Q 2384 2075 2632 2365 
Q 2881 2656 2881 3163 
Q 2881 3666 2632 3958 
Q 2384 4250 1959 4250 
Q 1534 4250 1286 3958 
Q 1038 3666 1038 3163 
Q 1038 2656 1286 2365 
Q 1534 2075 1959 2075 
z
" transform="scale(0.015625)"/>
       </defs>
       <use xlink:href="#DejaVuSans-32"/>
       <use xlink:href="#DejaVuSans-32" x="63.623047"/>
       <use xlink:href="#DejaVuSans-39" x="127.246094"/>
       <use xlink:href="#DejaVuSans-30" x="190.869141"/>
      </g>
     </g>
    </g>
    <g id="text_11">
     <!-- Reached region coverage -->
     <g transform="translate(14.798438 219.136625)rotate(-90)scale(0.1 -0.1)">
      <defs>
       <path id="DejaVuSans-52" d="M 2841 2188 
Q 3044 2119 3236 1894 
Q 3428 1669 3622 1275 
L 4263 0 
L 3584 0 
L 2988 1197 
Q 2756 1666 2539 1819 
Q 2322 1972 1947 1972 
L 1259 1972 
L 1259 0 
L 628 0 
L 628 4666 
L 2053 4666 
Q 2853 4666 3247 4331 
Q 3641 3997 3641 3322 
Q 3641 2881 3436 2590 
Q 3231 2300 2841 2188 
z
M 1259 4147 
L 1259 2491 
L 2053 2491 
Q 2509 2491 2742 2702 
Q 2975 2913 2975 3322 
Q 2975 3731 2742 3939 
Q 2509 4147 2053 4147 
L 1259 4147 
z
" transform="scale(0.015625)"/>
      </defs>
      <use xlink:href="#DejaVuSans-52"/>
      <use xlink:href="#DejaVuSans-65" x="64.982422"/>
      <use xlink:href="#DejaVuSans-61" x="126.505859"/>
      <use xlink:href="#DejaVuSans-63" x="187.785156"/>
      <use xlink:href="#DejaVuSans-68" x="242.765625"/>
      <use xlink:href="#DejaVuSans-65" x="306.144531"/>
      <use xlink:href="#DejaVuSans-64" x="367.667969"/>
      <use xlink:href="#DejaVuSans-20" x="431.144531"/>
      <use xlink:href="#DejaVuSans-72" x="462.931641"/>
      <use xlink:href="#DejaVuSans-65" x="501.794922"/>
      <use xlink:href="#DejaVuSans-67" x="563.318359"/>
      <use xlink:href="#DejaVuSans-69" x="626.794922"/>
      <use xlink:href="#DejaVuSans-6f" x="654.578125"/>
      <use xlink:href="#DejaVuSans-6e" x="715.759766"/>
      <use xlink:href="#DejaVuSans-20" x="779.138672"/>
      <use xlink:href="#DejaVuSans-63" x="810.925781"/>
      <use xlink:href="#DejaVuSans-6f" x="865.90625"/>
      <use xlink:href="#DejaVuSans-76" x="927.087891"/>
      <use xlink:href="#DejaVuSans-65" x="986.267578"/>
      <use xlink:href="#DejaVuSans-72" x="1047.791016"/>
      <use xlink:href="#DejaVuSans-61" x="1088.904297"/>
      <use xlink:href="#DejaVuSans-67" x="1150.183594"/>
      <use xlink:href="#DejaVuSans-65" x="1213.660156"/>
     </g>
    </g>
   </g>
   <g id="line2d_10">
    <path d="M 112.848125 158.768412 
L 112.848125 89.787761 
" clip-path="url(#pe6afc4c33e)" style="fill: none; stroke: #3d3d3d; stroke-width: 1.5; stroke-linecap: square"/>
   </g>
   <g id="line2d_11">
    <path d="M 112.848125 141.52325 
L 112.848125 107.032924 
" clip-path="url(#pe6afc4c33e)" style="fill: none; stroke: #3d3d3d; stroke-width: 4.5; stroke-linecap: square"/>
   </g>
   <g id="line2d_12">
    <path d="M 231.888125 167.390994 
L 231.888125 132.900668 
" clip-path="url(#pe6afc4c33e)" style="fill: none; stroke: #3d3d3d; stroke-width: 1.5; stroke-linecap: square"/>
   </g>
   <g id="line2d_13">
    <path d="M 231.888125 163.079703 
L 231.888125 145.83454 
" clip-path="url(#pe6afc4c33e)" style="fill: none; stroke: #3d3d3d; stroke-width: 4.5; stroke-linecap: square"/>
   </g>
   <g id="line2d_14">
    <path d="M 350.928125 236.371645 
L 350.928125 193.258738 
" clip-path="url(#pe6afc4c33e)" style="fill: none; stroke: #3d3d3d; stroke-width: 1.5; stroke-linecap: square"/>
   </g>
   <g id="line2d_15">
    <path d="M 350.928125 214.815192 
L 350.928125 193.258738 
" clip-path="url(#pe6afc4c33e)" style="fill: none; stroke: #3d3d3d; stroke-width: 4.5; stroke-linecap: square"/>
   </g>
   <g id="patch_3">
    <path d="M 53.328125 279.484553 
L 53.328125 63.920017 
" style="fill: none; stroke: #000000; stroke-width: 0.8; stroke-linejoin: miter; stroke-linecap: square"/>
   </g>
   <g id="patch_4">
    <path d="M 112.848125 288.430125 
L 350.928125 288.430125 
" style="fill: none; stroke: #000000; stroke-width: 0.8; stroke-linejoin: miter; stroke-linecap: square"/>
   </g>
   <g id="PathCollection_1">
    <defs>
     <path id="m192f1cd39a" d="M 0 1.5 
C 0.397805 1.5 0.77937 1.341951 1.06066 1.06066 
C 1.341951 0.77937 1.5 0.397805 1.5 0 
C 1.5 -0.397805 1.341951 -0.77937 1.06066 -1.06066 
C 0.77937 -1.341951 0.397805 -1.5 0 -1.5 
C -0.397805 -1.5 -0.77937 -1.341951 -1.06066 -1.06066 
C -1.341951 -0.77937 -1.5 -0.397805 -1.5 0 
C -1.5 0.397805 -1.341951 0.77937 -1.06066 1.06066 
C -0.77937 1.341951 -0.397805 1.5 0 1.5 
z
" style="stroke: #3d3d3d"/>
    </defs>
    <g clip-path="url(#pe6afc4c33e)">
     <use xlink:href="#m192f1cd39a" x="112.848125" y="124.278087" style="fill: #ffffff; stroke: #3d3d3d"/>
    </g>
   </g>
   <g id="PathCollection_2">
    <g clip-path="url(#pe6afc4c33e)">
     <use xlink:href="#m192f1cd39a" x="231.888125" y="158.768412" style="fill: #ffffff; stroke: #3d3d3d"/>
    </g>
   </g>
   <g id="PathCollection_3">
    <g clip-path="url(#pe6afc4c33e)">
     <use xlink:href="#m192f1cd39a" x="350.928125" y="193.258738" style="fill: #ffffff; stroke: #3d3d3d"/>
    </g>
   </g>
   <g id="text_12">
    <!-- vorbis-2017-12-11 (4h:15m, 3 trials/fuzzer) -->
    <g transform="translate(101.968438 16.318125)scale(0.12 -0.12)">
     <defs>
      <path id="DejaVuSans-2d" d="M 313 2009 
L 1997 2009 
L 1997 1497 
L 313 1497 
L 313 2009 
z
" transform="scale(0.015625)"/>
      <path id="DejaVuSans-34" d="M 2419 4116 
L 825 1625 
L 2419 1625 
L 2419 4116 
z
M 2253 4666 
L 3047 4666 
L 3047 1625 
L 3713 1625 
L 3713 1100 
L 3047 1100 
L 3047 0 
L 2419 0 
L 2419 1100 
L 313 1100 
L 313 1709 
L 2253 4666 
z
" transform="scale(0.015625)"/>
      <path id="DejaVuSans-3a" d="M 750 794 
L 1409 794 
L 1409 0 
L 750 0 
L 750 794 
z
M 750 3309 
L 1409 3309 
L 1409 2516 
L 750 2516 
L 750 3309 
z
" transform="scale(0.015625)"/>
      <path id="DejaVuSans-2c" d="M 750 794 
L 1409 794 
L 1409 256 
L 897 -744 
L 494 -744 
L 750 256 
L 750 794 
z
" transform="scale(0.015625)"/>
      <path id="DejaVuSans-2f" d="M 1625 4666 
L 2156 4666 
L 531 -594 
L 0 -594 
L 1625 4666 
z
" transform="scale(0.015625)"/>
     </defs>
     <use xlink:href="#DejaVuSans-76"/>
     <use xlink:href="#DejaVuSans-6f" x="59.179688"/>
     <use xlink:href="#DejaVuSans-72" x="120.361328"/>
     <use xlink:href="#DejaVuSans-62" x="161.474609"/>
     <use xlink:href="#DejaVuSans-69" x="224.951172"/>
     <use xlink:href="#DejaVuSans-73" x="252.734375"/>
     <use xlink:href="#DejaVuSans-2d" x="304.833984"/>
     <use xlink:href="#DejaVuSans-32" x="340.917969"/>
     <use xlink:href="#DejaVuSans-30" x="404.541016"/>
     <use xlink:href="#DejaVuSans-31" x="468.164062"/>
     <use xlink:href="#DejaVuSans-37" x="531.787109"/>
     <use xlink:href="#DejaVuSans-2d" x="595.410156"/>
     <use xlink:href="#DejaVuSans-31" x="631.494141"/>
     <use xlink:href="#DejaVuSans-32" x="695.117188"/>
     <use xlink:href="#DejaVuSans-2d" x="758.740234"/>
     <use xlink:href="#DejaVuSans-31" x="794.824219"/>
     <use xlink:href="#DejaVuSans-31" x="858.447266"/>
     <use xlink:href="#DejaVuSans-20" x="922.070312"/>
     <use xlink:href="#DejaVuSans-28" x="953.857422"/>
     <use xlink:href="#DejaVuSans-34" x="992.871094"/>
     <use xlink:href="#DejaVuSans-68" x="1056.494141"/>
     <use xlink:href="#DejaVuSans-3a" x="1119.873047"/>
     <use xlink:href="#DejaVuSans-31" x="1153.564453"/>
     <use xlink:href="#DejaVuSans-35" x="1217.1875"/>
     <use xlink:href="#DejaVuSans-6d" x="1280.810547"/>
     <use xlink:href="#DejaVuSans-2c" x="1378.222656"/>
     <use xlink:href="#DejaVuSans-20" x="1410.009766"/>
     <use xlink:href="#DejaVuSans-33" x="1441.796875"/>
     <use xlink:href="#DejaVuSans-20" x="1505.419922"/>
     <use xlink:href="#DejaVuSans-74" x="1537.207031"/>
     <use xlink:href="#DejaVuSans-72" x="1576.416016"/>
     <use xlink:href="#DejaVuSans-69" x="1617.529297"/>
     <use xlink:href="#DejaVuSans-61" x="1645.3125"/>
     <use xlink:href="#DejaVuSans-6c" x="1706.591797"/>
     <use xlink:href="#DejaVuSans-73" x="1734.375"/>
     <use xlink:href="#DejaVuSans-2f" x="1786.474609"/>
     <use xlink:href="#DejaVuSans-66" x="1820.166016"/>
     <use xlink:href="#DejaVuSans-75" x="1855.371094"/>
     <use xlink:href="#DejaVuSans-7a" x="1918.75"/>
     <use xlink:href="#DejaVuSans-7a" x="1971.240234"/>
     <use xlink:href="#DejaVuSans-65" x="2023.730469"/>
     <use xlink:href="#DejaVuSans-72" x="2085.253906"/>
     <use xlink:href="#DejaVuSans-29" x="2126.367188"/>
    </g>
   </g>
  </g>
 </g>
 <defs>
  <clipPath id="pe6afc4c33e">
   <rect x="53.328125" y="22.318125" width="357.12" height="266.112"/>
  </clipPath>
 </defs>
</svg>
