<?xml version="1.0" encoding="utf-8" standalone="no"?>
<!DOCTYPE svg PUBLIC "-//W3C//DTD SVG 1.1//EN"
  "http://www.w3.org/Graphics/SVG/1.1/DTD/svg11.dtd">
<svg xmlns:xlink="http://www.w3.org/1999/xlink" width="425.990275pt" height="370.686865pt" viewBox="0 0 425.990275 370.686865" xmlns="http://www.w3.org/2000/svg" version="1.1">
 <metadata>
  <rdf:RDF xmlns:dc="http://purl.org/dc/elements/1.1/" xmlns:cc="http://creativecommons.org/ns#" xmlns:rdf="http://www.w3.org/1999/02/22-rdf-syntax-ns#">
   <cc:Work>
    <dc:type rdf:resource="http://purl.org/dc/dcmitype/StillImage"/>
    <dc:date>2022-06-05T19:45:55.678222</dc:date>
    <dc:format>image/svg+xml</dc:format>
    <dc:creator>
     <cc:Agent>
      <dc:title>Matplotlib v3.5.1, https://matplotlib.org/</dc:title>
     </cc:Agent>
    </dc:creator>
   </cc:Work>
  </rdf:RDF>
 </metadata>
 <defs>
  <style type="text/css">*{stroke-linejoin: round; stroke-linecap: butt}</style>
 </defs>
 <g id="figure_1">
  <g id="patch_1">
   <path d="M 0 370.686865 
L 425.990275 370.686865 
L 425.990275 0 
L 0 0 
z
" style="fill: #ffffff"/>
  </g>
  <g id="axes_1">
   <g id="patch_2">
    <path d="M 61.670275 288.430125 
L 418.790275 288.430125 
L 418.790275 22.318125 
L 61.670275 22.318125 
z
" style="fill: #ffffff"/>
   </g>
   <g id="PolyCollection_1">
    <defs>
     <path id="mfbc5785594" d="M 93.666808 -249.921762 
L 89.193741 -249.921762 
L 88.875554 -250.784128 
L 88.523583 -251.646494 
L 88.136128 -252.508859 
L 87.711699 -253.371225 
L 87.249072 -254.233591 
L 86.747337 -255.095956 
L 86.205958 -255.958322 
L 85.624818 -256.820688 
L 85.004272 -257.683054 
L 84.345188 -258.545419 
L 83.648985 -259.407785 
L 82.917665 -260.270151 
L 82.15383 -261.132516 
L 81.360694 -261.994882 
L 80.542077 -262.857248 
L 79.702395 -263.719613 
L 78.846622 -264.581979 
L 77.980253 -265.444345 
L 77.10924 -266.30671 
L 76.239923 -267.169076 
L 75.378943 -268.031442 
L 74.533144 -268.893808 
L 73.709465 -269.756173 
L 72.914827 -270.618539 
L 72.15601 -271.480905 
L 71.439531 -272.34327 
L 70.771521 -273.205636 
L 70.157603 -274.068002 
L 69.602785 -274.930367 
L 69.111356 -275.792733 
L 68.686794 -276.655099 
L 68.331697 -277.517464 
L 68.047727 -278.37983 
L 67.835576 -279.242196 
L 67.694952 -280.104561 
L 67.624587 -280.966927 
L 67.622275 -281.829293 
L 67.684918 -282.691659 
L 67.808607 -283.554024 
L 67.98871 -284.41639 
L 68.219989 -285.278756 
L 68.496717 -286.141121 
L 68.812815 -287.003487 
L 69.161994 -287.865853 
L 69.537896 -288.728218 
L 69.934238 -289.590584 
L 70.344951 -290.45295 
L 70.764304 -291.315315 
L 71.187024 -292.177681 
L 71.608396 -293.040047 
L 72.024348 -293.902413 
L 72.431513 -294.764778 
L 72.827271 -295.627144 
L 73.209774 -296.48951 
L 73.577939 -297.351875 
L 73.931431 -298.214241 
L 74.270621 -299.076607 
L 74.596522 -299.938972 
L 74.910719 -300.801338 
L 75.215276 -301.663704 
L 75.512643 -302.526069 
L 75.805545 -303.388435 
L 76.09688 -304.250801 
L 76.389608 -305.113167 
L 76.686645 -305.975532 
L 76.99077 -306.837898 
L 77.30453 -307.700264 
L 77.630163 -308.562629 
L 77.969535 -309.424995 
L 78.324087 -310.287361 
L 78.694796 -311.149726 
L 79.08216 -312.012092 
L 79.486187 -312.874458 
L 79.906406 -313.736823 
L 80.341888 -314.599189 
L 80.79128 -315.461555 
L 81.252852 -316.323921 
L 81.724543 -317.186286 
L 82.204028 -318.048652 
L 82.688773 -318.911018 
L 83.176107 -319.773383 
L 83.66328 -320.635749 
L 84.147534 -321.498115 
L 84.626156 -322.36048 
L 85.096535 -323.222846 
L 85.556213 -324.085212 
L 86.002922 -324.947577 
L 86.434625 -325.809943 
L 86.849534 -326.672309 
L 87.246135 -327.534674 
L 87.623196 -328.39704 
L 87.97977 -329.259406 
L 88.315192 -330.121772 
L 88.62907 -330.984137 
L 88.92127 -331.846503 
L 89.191897 -332.708869 
L 89.441273 -333.571234 
L 89.669912 -334.4336 
L 89.878494 -335.295966 
L 92.982055 -335.295966 
L 92.982055 -335.295966 
L 93.190638 -334.4336 
L 93.419277 -333.571234 
L 93.668653 -332.708869 
L 93.93928 -331.846503 
L 94.23148 -330.984137 
L 94.545358 -330.121772 
L 94.88078 -329.259406 
L 95.237354 -328.39704 
L 95.614415 -327.534674 
L 96.011016 -326.672309 
L 96.425925 -325.809943 
L 96.857627 -324.947577 
L 97.304337 -324.085212 
L 97.764014 -323.222846 
L 98.234393 -322.36048 
L 98.713015 -321.498115 
L 99.197269 -320.635749 
L 99.684443 -319.773383 
L 100.171776 -318.911018 
L 100.656522 -318.048652 
L 101.136006 -317.186286 
L 101.607698 -316.323921 
L 102.069269 -315.461555 
L 102.518662 -314.599189 
L 102.954144 -313.736823 
L 103.374362 -312.874458 
L 103.778389 -312.012092 
L 104.165753 -311.149726 
L 104.536463 -310.287361 
L 104.891014 -309.424995 
L 105.230387 -308.562629 
L 105.55602 -307.700264 
L 105.869779 -306.837898 
L 106.173904 -305.975532 
L 106.470942 -305.113167 
L 106.763669 -304.250801 
L 107.055005 -303.388435 
L 107.347907 -302.526069 
L 107.645273 -301.663704 
L 107.949831 -300.801338 
L 108.264028 -299.938972 
L 108.589929 -299.076607 
L 108.929118 -298.214241 
L 109.282611 -297.351875 
L 109.650776 -296.48951 
L 110.033278 -295.627144 
L 110.429037 -294.764778 
L 110.836202 -293.902413 
L 111.252154 -293.040047 
L 111.673526 -292.177681 
L 112.096246 -291.315315 
L 112.515598 -290.45295 
L 112.926311 -289.590584 
L 113.322654 -288.728218 
L 113.698556 -287.865853 
L 114.047735 -287.003487 
L 114.363833 -286.141121 
L 114.64056 -285.278756 
L 114.871839 -284.41639 
L 115.051943 -283.554024 
L 115.175632 -282.691659 
L 115.238275 -281.829293 
L 115.235962 -280.966927 
L 115.165598 -280.104561 
L 115.024973 -279.242196 
L 114.812822 -278.37983 
L 114.528852 -277.517464 
L 114.173756 -276.655099 
L 113.749194 -275.792733 
L 113.257764 -274.930367 
L 112.702947 -274.068002 
L 112.089029 -273.205636 
L 111.421018 -272.34327 
L 110.704539 -271.480905 
L 109.945722 -270.618539 
L 109.151085 -269.756173 
L 108.327406 -268.893808 
L 107.481606 -268.031442 
L 106.620626 -267.169076 
L 105.75131 -266.30671 
L 104.880297 -265.444345 
L 104.013928 -264.581979 
L 103.158155 -263.719613 
L 102.318472 -262.857248 
L 101.499856 -261.994882 
L 100.70672 -261.132516 
L 99.942885 -260.270151 
L 99.211565 -259.407785 
L 98.515362 -258.545419 
L 97.856278 -257.683054 
L 97.235732 -256.820688 
L 96.654592 -255.958322 
L 96.113213 -255.095956 
L 95.611478 -254.233591 
L 95.14885 -253.371225 
L 94.724421 -252.508859 
L 94.336966 -251.646494 
L 93.984996 -250.784128 
L 93.666808 -249.921762 
z
" style="stroke: #3f3f3f; stroke-width: 1.5"/>
    </defs>
    <g clip-path="url(#p5d56817101)">
     <use xlink:href="#mfbc5785594" x="0" y="370.686865" style="fill: #c7c7c7; stroke: #3f3f3f; stroke-width: 1.5"/>
    </g>
   </g>
   <g id="PolyCollection_2">
    <defs>
     <path id="mbe3a0eadea" d="M 152.050992 -190.980635 
L 149.849557 -190.980635 
L 149.690274 -192.448232 
L 149.513568 -193.915829 
L 149.318455 -195.383426 
L 149.104038 -196.851023 
L 148.869531 -198.31862 
L 148.614286 -199.786217 
L 148.337819 -201.253814 
L 148.039839 -202.721411 
L 147.720268 -204.189008 
L 147.379266 -205.656605 
L 147.017254 -207.124202 
L 146.634932 -208.591799 
L 146.23329 -210.059396 
L 145.813619 -211.526993 
L 145.377516 -212.99459 
L 144.926884 -214.462187 
L 144.463918 -215.929784 
L 143.991098 -217.397381 
L 143.511164 -218.864978 
L 143.027089 -220.332575 
L 142.542045 -221.800172 
L 142.059363 -223.267769 
L 141.582488 -224.735366 
L 141.114925 -226.202963 
L 140.66019 -227.67056 
L 140.22175 -229.138157 
L 139.802964 -230.605754 
L 139.407029 -232.073351 
L 139.036918 -233.540948 
L 138.695327 -235.008546 
L 138.384629 -236.476143 
L 138.106824 -237.94374 
L 137.863506 -239.411337 
L 137.655832 -240.878934 
L 137.484502 -242.346531 
L 137.349749 -243.814128 
L 137.251338 -245.281725 
L 137.188577 -246.749322 
L 137.160336 -248.216919 
L 137.165079 -249.684516 
L 137.200904 -251.152113 
L 137.265592 -252.61971 
L 137.356658 -254.087307 
L 137.471417 -255.554904 
L 137.607049 -257.022501 
L 137.760661 -258.490098 
L 137.929362 -259.957695 
L 138.110324 -261.425292 
L 138.300849 -262.892889 
L 138.498423 -264.360486 
L 138.700774 -265.828083 
L 138.905906 -267.29568 
L 139.112144 -268.763277 
L 139.318149 -270.230874 
L 139.522936 -271.698471 
L 139.725877 -273.166068 
L 139.926692 -274.633665 
L 140.125429 -276.101262 
L 140.32244 -277.568859 
L 140.518341 -279.036456 
L 140.713974 -280.504053 
L 140.910352 -281.97165 
L 141.108614 -283.439247 
L 141.309966 -284.906844 
L 141.515628 -286.374441 
L 141.72678 -287.842039 
L 141.944514 -289.309636 
L 142.169788 -290.777233 
L 142.403388 -292.24483 
L 142.645894 -293.712427 
L 142.897655 -295.180024 
L 143.158777 -296.647621 
L 143.429111 -298.115218 
L 143.708252 -299.582815 
L 143.995554 -301.050412 
L 144.29014 -302.518009 
L 144.590924 -303.985606 
L 144.896642 -305.453203 
L 145.205881 -306.9208 
L 145.517113 -308.388397 
L 145.828736 -309.855994 
L 146.139106 -311.323591 
L 146.446575 -312.791188 
L 146.74953 -314.258785 
L 147.04642 -315.726382 
L 147.335788 -317.193979 
L 147.616296 -318.661576 
L 147.886745 -320.129173 
L 148.146092 -321.59677 
L 148.39346 -323.064367 
L 148.628145 -324.531964 
L 148.849619 -325.999561 
L 149.057526 -327.467158 
L 149.251679 -328.934755 
L 149.432047 -330.402352 
L 149.598745 -331.869949 
L 149.752022 -333.337546 
L 149.892243 -334.805143 
L 150.019873 -336.27274 
L 151.880677 -336.27274 
L 151.880677 -336.27274 
L 152.008306 -334.805143 
L 152.148527 -333.337546 
L 152.301805 -331.869949 
L 152.468503 -330.402352 
L 152.648871 -328.934755 
L 152.843023 -327.467158 
L 153.05093 -325.999561 
L 153.272404 -324.531964 
L 153.507089 -323.064367 
L 153.754457 -321.59677 
L 154.013804 -320.129173 
L 154.284253 -318.661576 
L 154.564761 -317.193979 
L 154.854129 -315.726382 
L 155.151019 -314.258785 
L 155.453974 -312.791188 
L 155.761444 -311.323591 
L 156.071813 -309.855994 
L 156.383436 -308.388397 
L 156.694669 -306.9208 
L 157.003908 -305.453203 
L 157.309626 -303.985606 
L 157.61041 -302.518009 
L 157.904995 -301.050412 
L 158.192298 -299.582815 
L 158.471439 -298.115218 
L 158.741772 -296.647621 
L 159.002894 -295.180024 
L 159.254656 -293.712427 
L 159.497161 -292.24483 
L 159.730762 -290.777233 
L 159.956036 -289.309636 
L 160.17377 -287.842039 
L 160.384922 -286.374441 
L 160.590583 -284.906844 
L 160.791935 -283.439247 
L 160.990197 -281.97165 
L 161.186576 -280.504053 
L 161.382208 -279.036456 
L 161.57811 -277.568859 
L 161.77512 -276.101262 
L 161.973857 -274.633665 
L 162.174672 -273.166068 
L 162.377614 -271.698471 
L 162.582401 -270.230874 
L 162.788406 -268.763277 
L 162.994643 -267.29568 
L 163.199776 -265.828083 
L 163.402126 -264.360486 
L 163.599701 -262.892889 
L 163.790225 -261.425292 
L 163.971188 -259.957695 
L 164.139888 -258.490098 
L 164.293501 -257.022501 
L 164.429132 -255.554904 
L 164.543892 -254.087307 
L 164.634958 -252.61971 
L 164.699645 -251.152113 
L 164.735471 -249.684516 
L 164.740214 -248.216919 
L 164.711973 -246.749322 
L 164.649211 -245.281725 
L 164.5508 -243.814128 
L 164.416047 -242.346531 
L 164.244718 -240.878934 
L 164.037044 -239.411337 
L 163.793726 -237.94374 
L 163.515921 -236.476143 
L 163.205222 -235.008546 
L 162.863631 -233.540948 
L 162.49352 -232.073351 
L 162.097585 -230.605754 
L 161.6788 -229.138157 
L 161.24036 -227.67056 
L 160.785625 -226.202963 
L 160.318062 -224.735366 
L 159.841186 -223.267769 
L 159.358504 -221.800172 
L 158.873461 -220.332575 
L 158.389386 -218.864978 
L 157.909452 -217.397381 
L 157.436632 -215.929784 
L 156.973666 -214.462187 
L 156.523033 -212.99459 
L 156.086931 -211.526993 
L 155.66726 -210.059396 
L 155.265617 -208.591799 
L 154.883295 -207.124202 
L 154.521284 -205.656605 
L 154.180282 -204.189008 
L 153.86071 -202.721411 
L 153.56273 -201.253814 
L 153.286264 -199.786217 
L 153.031019 -198.31862 
L 152.796511 -196.851023 
L 152.582094 -195.383426 
L 152.386981 -193.915829 
L 152.210276 -192.448232 
L 152.050992 -190.980635 
z
" style="stroke: #3f3f3f; stroke-width: 1.5"/>
    </defs>
    <g clip-path="url(#p5d56817101)">
     <use xlink:href="#mbe3a0eadea" x="0" y="370.686865" style="fill: #9fd495; stroke: #3f3f3f; stroke-width: 1.5"/>
    </g>
   </g>
   <g id="PolyCollection_3">
    <defs>
     <path id="m1793900ffe" d="M 211.332053 -138.713846 
L 209.608497 -138.713846 
L 209.493377 -140.257431 
L 209.367263 -141.801015 
L 209.229786 -143.344599 
L 209.08067 -144.888184 
L 208.919744 -146.431768 
L 208.746954 -147.975352 
L 208.562379 -149.518937 
L 208.366237 -151.062521 
L 208.158895 -152.606105 
L 207.940877 -154.14969 
L 207.712859 -155.693274 
L 207.475676 -157.236858 
L 207.230309 -158.780442 
L 206.977879 -160.324027 
L 206.719633 -161.867611 
L 206.456923 -163.411195 
L 206.191186 -164.95478 
L 205.923918 -166.498364 
L 205.656641 -168.041948 
L 205.390874 -169.585533 
L 205.128094 -171.129117 
L 204.869706 -172.672701 
L 204.617003 -174.216285 
L 204.371131 -175.75987 
L 204.133058 -177.303454 
L 203.903546 -178.847038 
L 203.683119 -180.390623 
L 203.472051 -181.934207 
L 203.270348 -183.477791 
L 203.077742 -185.021376 
L 202.893694 -186.56496 
L 202.717405 -188.108544 
L 202.54783 -189.652129 
L 202.383709 -191.195713 
L 202.2236 -192.739297 
L 202.06592 -194.282881 
L 201.908996 -195.826466 
L 201.751118 -197.37005 
L 201.590594 -198.913634 
L 201.425814 -200.457219 
L 201.255309 -202.000803 
L 201.07781 -203.544387 
L 200.892306 -205.087972 
L 200.698092 -206.631556 
L 200.494819 -208.17514 
L 200.282528 -209.718724 
L 200.061677 -211.262309 
L 199.833157 -212.805893 
L 199.598299 -214.349477 
L 199.358866 -215.893062 
L 199.117031 -217.436646 
L 198.87535 -218.98023 
L 198.636715 -220.523815 
L 198.404303 -222.067399 
L 198.181512 -223.610983 
L 197.971895 -225.154567 
L 197.779077 -226.698152 
L 197.606681 -228.241736 
L 197.458246 -229.78532 
L 197.337145 -231.328905 
L 197.246507 -232.872489 
L 197.189146 -234.416073 
L 197.167495 -235.959658 
L 197.183544 -237.503242 
L 197.238802 -239.046826 
L 197.33425 -240.590411 
L 197.470328 -242.133995 
L 197.646916 -243.677579 
L 197.863339 -245.221163 
L 198.118382 -246.764748 
L 198.410312 -248.308332 
L 198.73692 -249.851916 
L 199.095562 -251.395501 
L 199.48322 -252.939085 
L 199.896555 -254.482669 
L 200.33198 -256.026254 
L 200.785726 -257.569838 
L 201.253911 -259.113422 
L 201.732613 -260.657006 
L 202.21793 -262.200591 
L 202.70605 -263.744175 
L 203.193308 -265.287759 
L 203.676234 -266.831344 
L 204.151599 -268.374928 
L 204.616454 -269.918512 
L 205.068156 -271.462097 
L 205.504392 -273.005681 
L 205.923188 -274.549265 
L 206.322916 -276.09285 
L 206.702289 -277.636434 
L 207.060357 -279.180018 
L 207.396489 -280.723602 
L 207.710354 -282.267187 
L 208.001898 -283.810771 
L 208.271317 -285.354355 
L 208.51903 -286.89794 
L 208.745649 -288.441524 
L 208.951948 -289.985108 
L 209.138834 -291.528693 
L 211.801716 -291.528693 
L 211.801716 -291.528693 
L 211.988601 -289.985108 
L 212.1949 -288.441524 
L 212.421519 -286.89794 
L 212.669233 -285.354355 
L 212.938652 -283.810771 
L 213.230196 -282.267187 
L 213.54406 -280.723602 
L 213.880192 -279.180018 
L 214.238261 -277.636434 
L 214.617634 -276.09285 
L 215.017361 -274.549265 
L 215.436157 -273.005681 
L 215.872393 -271.462097 
L 216.324096 -269.918512 
L 216.788951 -268.374928 
L 217.264316 -266.831344 
L 217.747241 -265.287759 
L 218.234499 -263.744175 
L 218.72262 -262.200591 
L 219.207937 -260.657006 
L 219.686638 -259.113422 
L 220.154824 -257.569838 
L 220.60857 -256.026254 
L 221.043995 -254.482669 
L 221.45733 -252.939085 
L 221.844987 -251.395501 
L 222.20363 -249.851916 
L 222.530238 -248.308332 
L 222.822168 -246.764748 
L 223.07721 -245.221163 
L 223.293634 -243.677579 
L 223.470221 -242.133995 
L 223.606299 -240.590411 
L 223.701748 -239.046826 
L 223.757005 -237.503242 
L 223.773055 -235.959658 
L 223.751403 -234.416073 
L 223.694042 -232.872489 
L 223.603405 -231.328905 
L 223.482303 -229.78532 
L 223.333868 -228.241736 
L 223.161473 -226.698152 
L 222.968655 -225.154567 
L 222.759037 -223.610983 
L 222.536247 -222.067399 
L 222.303835 -220.523815 
L 222.065199 -218.98023 
L 221.823518 -217.436646 
L 221.581683 -215.893062 
L 221.34225 -214.349477 
L 221.107393 -212.805893 
L 220.878873 -211.262309 
L 220.658021 -209.718724 
L 220.44573 -208.17514 
L 220.242458 -206.631556 
L 220.048244 -205.087972 
L 219.862739 -203.544387 
L 219.68524 -202.000803 
L 219.514735 -200.457219 
L 219.349955 -198.913634 
L 219.189432 -197.37005 
L 219.031553 -195.826466 
L 218.87463 -194.282881 
L 218.71695 -192.739297 
L 218.556841 -191.195713 
L 218.39272 -189.652129 
L 218.223145 -188.108544 
L 218.046855 -186.56496 
L 217.862808 -185.021376 
L 217.670202 -183.477791 
L 217.468498 -181.934207 
L 217.25743 -180.390623 
L 217.037004 -178.847038 
L 216.807491 -177.303454 
L 216.569419 -175.75987 
L 216.323547 -174.216285 
L 216.070843 -172.672701 
L 215.812455 -171.129117 
L 215.549676 -169.585533 
L 215.283908 -168.041948 
L 215.016631 -166.498364 
L 214.749363 -164.95478 
L 214.483627 -163.411195 
L 214.220917 -161.867611 
L 213.962671 -160.324027 
L 213.710241 -158.780442 
L 213.464874 -157.236858 
L 213.22769 -155.693274 
L 212.999673 -154.14969 
L 212.781654 -152.606105 
L 212.574313 -151.062521 
L 212.378171 -149.518937 
L 212.193595 -147.975352 
L 212.020806 -146.431768 
L 211.859879 -144.888184 
L 211.710763 -143.344599 
L 211.573287 -141.801015 
L 211.447172 -140.257431 
L 211.332053 -138.713846 
z
" style="stroke: #3f3f3f; stroke-width: 1.5"/>
    </defs>
    <g clip-path="url(#p5d56817101)">
     <use xlink:href="#m1793900ffe" x="0" y="370.686865" style="fill: #3274a1; stroke: #3f3f3f; stroke-width: 1.5"/>
    </g>
   </g>
   <g id="PolyCollection_4">
    <defs>
     <path id="mc25999fc97" d="M 271.286827 -148.864831 
L 268.693723 -148.864831 
L 268.51134 -149.952635 
L 268.310137 -151.04044 
L 268.089257 -152.128244 
L 267.847962 -153.216049 
L 267.58566 -154.303853 
L 267.301926 -155.391657 
L 266.996524 -156.479462 
L 266.669428 -157.567266 
L 266.320834 -158.65507 
L 265.951179 -159.742875 
L 265.561143 -160.830679 
L 265.151657 -161.918483 
L 264.723901 -163.006288 
L 264.279293 -164.094092 
L 263.819484 -165.181897 
L 263.346332 -166.269701 
L 262.861884 -167.357505 
L 262.368346 -168.44531 
L 261.868047 -169.533114 
L 261.36341 -170.620918 
L 260.856907 -171.708723 
L 260.351023 -172.796527 
L 259.848211 -173.884331 
L 259.35086 -174.972136 
L 258.86125 -176.05994 
L 258.381522 -177.147744 
L 257.913647 -178.235549 
L 257.459402 -179.323353 
L 257.020349 -180.411158 
L 256.597824 -181.498962 
L 256.19293 -182.586766 
L 255.806536 -183.674571 
L 255.43929 -184.762375 
L 255.091624 -185.850179 
L 254.763781 -186.937984 
L 254.455831 -188.025788 
L 254.167704 -189.113592 
L 253.899218 -190.201397 
L 253.650111 -191.289201 
L 253.420073 -192.377006 
L 253.208781 -193.46481 
L 253.015925 -194.552614 
L 252.841239 -195.640419 
L 252.684527 -196.728223 
L 252.54568 -197.816027 
L 252.424699 -198.903832 
L 252.3217 -199.991636 
L 252.236924 -201.07944 
L 252.170738 -202.167245 
L 252.123634 -203.255049 
L 252.096215 -204.342854 
L 252.089188 -205.430658 
L 252.103344 -206.518462 
L 252.139536 -207.606267 
L 252.198659 -208.694071 
L 252.281619 -209.781875 
L 252.389307 -210.86968 
L 252.522566 -211.957484 
L 252.682167 -213.045288 
L 252.868768 -214.133093 
L 253.082895 -215.220897 
L 253.324907 -216.308701 
L 253.594969 -217.396506 
L 253.893035 -218.48431 
L 254.21882 -219.572115 
L 254.571793 -220.659919 
L 254.951158 -221.747723 
L 255.355852 -222.835528 
L 255.784545 -223.923332 
L 256.235643 -225.011136 
L 256.707298 -226.098941 
L 257.197429 -227.186745 
L 257.703738 -228.274549 
L 258.223738 -229.362354 
L 258.754789 -230.450158 
L 259.294126 -231.537963 
L 259.838901 -232.625767 
L 260.386219 -233.713571 
L 260.933185 -234.801376 
L 261.476939 -235.88918 
L 262.014701 -236.976984 
L 262.543803 -238.064789 
L 263.061732 -239.152593 
L 263.566157 -240.240397 
L 264.054957 -241.328202 
L 264.526244 -242.416006 
L 264.978383 -243.503811 
L 265.410001 -244.591615 
L 265.819995 -245.679419 
L 266.207533 -246.767224 
L 266.572049 -247.855028 
L 266.913237 -248.942832 
L 267.231036 -250.030637 
L 267.525611 -251.118441 
L 267.79734 -252.206245 
L 268.046786 -253.29405 
L 268.274672 -254.381854 
L 268.481865 -255.469658 
L 268.669342 -256.557463 
L 271.311207 -256.557463 
L 271.311207 -256.557463 
L 271.498684 -255.469658 
L 271.705877 -254.381854 
L 271.933764 -253.29405 
L 272.183209 -252.206245 
L 272.454938 -251.118441 
L 272.749514 -250.030637 
L 273.067312 -248.942832 
L 273.4085 -247.855028 
L 273.773017 -246.767224 
L 274.160554 -245.679419 
L 274.570548 -244.591615 
L 275.002166 -243.503811 
L 275.454306 -242.416006 
L 275.925593 -241.328202 
L 276.414392 -240.240397 
L 276.918817 -239.152593 
L 277.436746 -238.064789 
L 277.965849 -236.976984 
L 278.50361 -235.88918 
L 279.047365 -234.801376 
L 279.594331 -233.713571 
L 280.141649 -232.625767 
L 280.686423 -231.537963 
L 281.22576 -230.450158 
L 281.756811 -229.362354 
L 282.276812 -228.274549 
L 282.78312 -227.186745 
L 283.273251 -226.098941 
L 283.744907 -225.011136 
L 284.196004 -223.923332 
L 284.624697 -222.835528 
L 285.029391 -221.747723 
L 285.408756 -220.659919 
L 285.761729 -219.572115 
L 286.087515 -218.48431 
L 286.38558 -217.396506 
L 286.655643 -216.308701 
L 286.897654 -215.220897 
L 287.111781 -214.133093 
L 287.298383 -213.045288 
L 287.457983 -211.957484 
L 287.591243 -210.86968 
L 287.69893 -209.781875 
L 287.78189 -208.694071 
L 287.841013 -207.606267 
L 287.877206 -206.518462 
L 287.891362 -205.430658 
L 287.884335 -204.342854 
L 287.856916 -203.255049 
L 287.809811 -202.167245 
L 287.743626 -201.07944 
L 287.658849 -199.991636 
L 287.55585 -198.903832 
L 287.434869 -197.816027 
L 287.296023 -196.728223 
L 287.139311 -195.640419 
L 286.964625 -194.552614 
L 286.771769 -193.46481 
L 286.560476 -192.377006 
L 286.330439 -191.289201 
L 286.081332 -190.201397 
L 285.812846 -189.113592 
L 285.524719 -188.025788 
L 285.216769 -186.937984 
L 284.888925 -185.850179 
L 284.54126 -184.762375 
L 284.174013 -183.674571 
L 283.78762 -182.586766 
L 283.382725 -181.498962 
L 282.9602 -180.411158 
L 282.521147 -179.323353 
L 282.066902 -178.235549 
L 281.599028 -177.147744 
L 281.1193 -176.05994 
L 280.62969 -174.972136 
L 280.132338 -173.884331 
L 279.629527 -172.796527 
L 279.123642 -171.708723 
L 278.617139 -170.620918 
L 278.112502 -169.533114 
L 277.612204 -168.44531 
L 277.118665 -167.357505 
L 276.634218 -166.269701 
L 276.161066 -165.181897 
L 275.701256 -164.094092 
L 275.256649 -163.006288 
L 274.828892 -161.918483 
L 274.419406 -160.830679 
L 274.02937 -159.742875 
L 273.659715 -158.65507 
L 273.311122 -157.567266 
L 272.984026 -156.479462 
L 272.678624 -155.391657 
L 272.39489 -154.303853 
L 272.132587 -153.216049 
L 271.891292 -152.128244 
L 271.670412 -151.04044 
L 271.46921 -149.952635 
L 271.286827 -148.864831 
z
" style="stroke: #3f3f3f; stroke-width: 1.5"/>
    </defs>
    <g clip-path="url(#p5d56817101)">
     <use xlink:href="#mc25999fc97" x="0" y="370.686865" style="fill: #c03d3e; stroke: #3f3f3f; stroke-width: 1.5"/>
    </g>
   </g>
   <g id="PolyCollection_5">
    <defs>
     <path id="mf0ce8a5175" d="M 330.24322 -94.35274 
L 328.77733 -94.35274 
L 328.676222 -96.226883 
L 328.565053 -98.101027 
L 328.443439 -99.97517 
L 328.311072 -101.849313 
L 328.167733 -103.723456 
L 328.01331 -105.597599 
L 327.847803 -107.471742 
L 327.671337 -109.345885 
L 327.484166 -111.220028 
L 327.286682 -113.094171 
L 327.079415 -114.968314 
L 326.86303 -116.842457 
L 326.638326 -118.7166 
L 326.406224 -120.590743 
L 326.167758 -122.464886 
L 325.924056 -124.33903 
L 325.676324 -126.213173 
L 325.425821 -128.087316 
L 325.173837 -129.961459 
L 324.921666 -131.835602 
L 324.670576 -133.709745 
L 324.421783 -135.583888 
L 324.176422 -137.458031 
L 323.935525 -139.332174 
L 323.699989 -141.206317 
L 323.470565 -143.08046 
L 323.247834 -144.954603 
L 323.032201 -146.828746 
L 322.823887 -148.702889 
L 322.622926 -150.577032 
L 322.429176 -152.451176 
L 322.242329 -154.325319 
L 322.061928 -156.199462 
L 321.887393 -158.073605 
L 321.718046 -159.947748 
L 321.553147 -161.821891 
L 321.391929 -163.696034 
L 321.233634 -165.570177 
L 321.077554 -167.44432 
L 320.923066 -169.318463 
L 320.769671 -171.192606 
L 320.617024 -173.066749 
L 320.464968 -174.940892 
L 320.313549 -176.815035 
L 320.163045 -178.689178 
L 320.013966 -180.563322 
L 319.867062 -182.437465 
L 319.723322 -184.311608 
L 319.583956 -186.185751 
L 319.450381 -188.059894 
L 319.324191 -189.934037 
L 319.207132 -191.80818 
L 319.101058 -193.682323 
L 319.007895 -195.556466 
L 318.929592 -197.430609 
L 318.868082 -199.304752 
L 318.825229 -201.178895 
L 318.802787 -203.053038 
L 318.802353 -204.927181 
L 318.82533 -206.801325 
L 318.872888 -208.675468 
L 318.945934 -210.549611 
L 319.045087 -212.423754 
L 319.170659 -214.297897 
L 319.322644 -216.17204 
L 319.500709 -218.046183 
L 319.704203 -219.920326 
L 319.93216 -221.794469 
L 320.183315 -223.668612 
L 320.45613 -225.542755 
L 320.748814 -227.416898 
L 321.059359 -229.291041 
L 321.385573 -231.165184 
L 321.725119 -233.039327 
L 322.075551 -234.913471 
L 322.43436 -236.787614 
L 322.799006 -238.661757 
L 323.166967 -240.5359 
L 323.535768 -242.410043 
L 323.903022 -244.284186 
L 324.266455 -246.158329 
L 324.623942 -248.032472 
L 324.973524 -249.906615 
L 325.31343 -251.780758 
L 325.642094 -253.654901 
L 325.958159 -255.529044 
L 326.26049 -257.403187 
L 326.548169 -259.27733 
L 326.820497 -261.151473 
L 327.076983 -263.025617 
L 327.317339 -264.89976 
L 327.541463 -266.773903 
L 327.749428 -268.648046 
L 327.941462 -270.522189 
L 328.117932 -272.396332 
L 328.279326 -274.270475 
L 328.426233 -276.144618 
L 328.559323 -278.018761 
L 328.679331 -279.892904 
L 330.341219 -279.892904 
L 330.341219 -279.892904 
L 330.461227 -278.018761 
L 330.594317 -276.144618 
L 330.741223 -274.270475 
L 330.902617 -272.396332 
L 331.079088 -270.522189 
L 331.271122 -268.648046 
L 331.479086 -266.773903 
L 331.703211 -264.89976 
L 331.943567 -263.025617 
L 332.200053 -261.151473 
L 332.472381 -259.27733 
L 332.76006 -257.403187 
L 333.062391 -255.529044 
L 333.378456 -253.654901 
L 333.707119 -251.780758 
L 334.047026 -249.906615 
L 334.396608 -248.032472 
L 334.754094 -246.158329 
L 335.117528 -244.284186 
L 335.484781 -242.410043 
L 335.853582 -240.5359 
L 336.221543 -238.661757 
L 336.58619 -236.787614 
L 336.944998 -234.913471 
L 337.295431 -233.039327 
L 337.634976 -231.165184 
L 337.961191 -229.291041 
L 338.271736 -227.416898 
L 338.56442 -225.542755 
L 338.837234 -223.668612 
L 339.088389 -221.794469 
L 339.316346 -219.920326 
L 339.51984 -218.046183 
L 339.697906 -216.17204 
L 339.84989 -214.297897 
L 339.975463 -212.423754 
L 340.074616 -210.549611 
L 340.147662 -208.675468 
L 340.19522 -206.801325 
L 340.218196 -204.927181 
L 340.217763 -203.053038 
L 340.19532 -201.178895 
L 340.152468 -199.304752 
L 340.090957 -197.430609 
L 340.012655 -195.556466 
L 339.919491 -193.682323 
L 339.813417 -191.80818 
L 339.696358 -189.934037 
L 339.570169 -188.059894 
L 339.436593 -186.185751 
L 339.297227 -184.311608 
L 339.153487 -182.437465 
L 339.006584 -180.563322 
L 338.857504 -178.689178 
L 338.707 -176.815035 
L 338.555582 -174.940892 
L 338.403525 -173.066749 
L 338.250879 -171.192606 
L 338.097483 -169.318463 
L 337.942995 -167.44432 
L 337.786915 -165.570177 
L 337.628621 -163.696034 
L 337.467403 -161.821891 
L 337.302504 -159.947748 
L 337.133157 -158.073605 
L 336.958621 -156.199462 
L 336.778221 -154.325319 
L 336.591374 -152.451176 
L 336.397624 -150.577032 
L 336.196663 -148.702889 
L 335.988348 -146.828746 
L 335.772715 -144.954603 
L 335.549985 -143.08046 
L 335.32056 -141.206317 
L 335.085025 -139.332174 
L 334.844127 -137.458031 
L 334.598767 -135.583888 
L 334.349974 -133.709745 
L 334.098883 -131.835602 
L 333.846712 -129.961459 
L 333.594728 -128.087316 
L 333.344226 -126.213173 
L 333.096493 -124.33903 
L 332.852791 -122.464886 
L 332.614325 -120.590743 
L 332.382224 -118.7166 
L 332.15752 -116.842457 
L 331.941135 -114.968314 
L 331.733868 -113.094171 
L 331.536384 -111.220028 
L 331.349213 -109.345885 
L 331.172746 -107.471742 
L 331.007239 -105.597599 
L 330.852816 -103.723456 
L 330.709478 -101.849313 
L 330.57711 -99.97517 
L 330.455496 -98.101027 
L 330.344328 -96.226883 
L 330.24322 -94.35274 
z
" style="stroke: #3f3f3f; stroke-width: 1.5"/>
    </defs>
    <g clip-path="url(#p5d56817101)">
     <use xlink:href="#mf0ce8a5175" x="0" y="370.686865" style="fill: #f2a5a3; stroke: #3f3f3f; stroke-width: 1.5"/>
    </g>
   </g>
   <g id="PolyCollection_6">
    <defs>
     <path id="m032fa4400b" d="M 390.061972 -123.230311 
L 387.998577 -123.230311 
L 387.855908 -124.565402 
L 387.698987 -125.900492 
L 387.527257 -127.235583 
L 387.34027 -128.570673 
L 387.137706 -129.905764 
L 386.919387 -131.240855 
L 386.685296 -132.575945 
L 386.435591 -133.911036 
L 386.170611 -135.246126 
L 385.89089 -136.581217 
L 385.597153 -137.916308 
L 385.290318 -139.251398 
L 384.971491 -140.586489 
L 384.641952 -141.921579 
L 384.303138 -143.25667 
L 383.956624 -144.59176 
L 383.604097 -145.926851 
L 383.247321 -147.261942 
L 382.888108 -148.597032 
L 382.52828 -149.932123 
L 382.16963 -151.267213 
L 381.813883 -152.602304 
L 381.462659 -153.937395 
L 381.117437 -155.272485 
L 380.779524 -156.607576 
L 380.450022 -157.942666 
L 380.12981 -159.277757 
L 379.819527 -160.612848 
L 379.519565 -161.947938 
L 379.230065 -163.283029 
L 378.950929 -164.618119 
L 378.681831 -165.95321 
L 378.42225 -167.2883 
L 378.171491 -168.623391 
L 377.928731 -169.958482 
L 377.69306 -171.293572 
L 377.463526 -172.628663 
L 377.239191 -173.963753 
L 377.019175 -175.298844 
L 376.802712 -176.633935 
L 376.589193 -177.969025 
L 376.378211 -179.304116 
L 376.169602 -180.639206 
L 375.963468 -181.974297 
L 375.760207 -183.309388 
L 375.560519 -184.644478 
L 375.365417 -185.979569 
L 375.176214 -187.314659 
L 374.994511 -188.64975 
L 374.822169 -189.98484 
L 374.661277 -191.319931 
L 374.514109 -192.655022 
L 374.383074 -193.990112 
L 374.270663 -195.325203 
L 374.179392 -196.660293 
L 374.111742 -197.995384 
L 374.070099 -199.330475 
L 374.056692 -200.665565 
L 374.073543 -202.000656 
L 374.12241 -203.335746 
L 374.20474 -204.670837 
L 374.321635 -206.005928 
L 374.473812 -207.341018 
L 374.661588 -208.676109 
L 374.884857 -210.011199 
L 375.14309 -211.34629 
L 375.435334 -212.68138 
L 375.760228 -214.016471 
L 376.116021 -215.351562 
L 376.5006 -216.686652 
L 376.911526 -218.021743 
L 377.346074 -219.356833 
L 377.80128 -220.691924 
L 378.273988 -222.027015 
L 378.760903 -223.362105 
L 379.258647 -224.697196 
L 379.763804 -226.032286 
L 380.27298 -227.367377 
L 380.782849 -228.702468 
L 381.290197 -230.037558 
L 381.791967 -231.372649 
L 382.285296 -232.707739 
L 382.767546 -234.04283 
L 383.236331 -235.37792 
L 383.689535 -236.713011 
L 384.125329 -238.048102 
L 384.542176 -239.383192 
L 384.938837 -240.718283 
L 385.314363 -242.053373 
L 385.66809 -243.388464 
L 385.999625 -244.723555 
L 386.308832 -246.058645 
L 386.595807 -247.393736 
L 386.860863 -248.728826 
L 387.104498 -250.063917 
L 387.327379 -251.399008 
L 387.530309 -252.734098 
L 387.714204 -254.069189 
L 387.88007 -255.404279 
L 390.180479 -255.404279 
L 390.180479 -255.404279 
L 390.346346 -254.069189 
L 390.530241 -252.734098 
L 390.73317 -251.399008 
L 390.956051 -250.063917 
L 391.199687 -248.728826 
L 391.464742 -247.393736 
L 391.751718 -246.058645 
L 392.060925 -244.723555 
L 392.39246 -243.388464 
L 392.746187 -242.053373 
L 393.121713 -240.718283 
L 393.518373 -239.383192 
L 393.935221 -238.048102 
L 394.371015 -236.713011 
L 394.824219 -235.37792 
L 395.293004 -234.04283 
L 395.775254 -232.707739 
L 396.268583 -231.372649 
L 396.770353 -230.037558 
L 397.2777 -228.702468 
L 397.787569 -227.367377 
L 398.296746 -226.032286 
L 398.801903 -224.697196 
L 399.299646 -223.362105 
L 399.786562 -222.027015 
L 400.25927 -220.691924 
L 400.714475 -219.356833 
L 401.149023 -218.021743 
L 401.559949 -216.686652 
L 401.944528 -215.351562 
L 402.300321 -214.016471 
L 402.625215 -212.68138 
L 402.91746 -211.34629 
L 403.175692 -210.011199 
L 403.398961 -208.676109 
L 403.586737 -207.341018 
L 403.738915 -206.005928 
L 403.855809 -204.670837 
L 403.93814 -203.335746 
L 403.987006 -202.000656 
L 404.003857 -200.665565 
L 403.990451 -199.330475 
L 403.948807 -197.995384 
L 403.881157 -196.660293 
L 403.789887 -195.325203 
L 403.677476 -193.990112 
L 403.54644 -192.655022 
L 403.399272 -191.319931 
L 403.238381 -189.98484 
L 403.066039 -188.64975 
L 402.884336 -187.314659 
L 402.695133 -185.979569 
L 402.50003 -184.644478 
L 402.300343 -183.309388 
L 402.097081 -181.974297 
L 401.890947 -180.639206 
L 401.682338 -179.304116 
L 401.471357 -177.969025 
L 401.257838 -176.633935 
L 401.041374 -175.298844 
L 400.821359 -173.963753 
L 400.597023 -172.628663 
L 400.36749 -171.293572 
L 400.131819 -169.958482 
L 399.889059 -168.623391 
L 399.6383 -167.2883 
L 399.378718 -165.95321 
L 399.109621 -164.618119 
L 398.830484 -163.283029 
L 398.540984 -161.947938 
L 398.241022 -160.612848 
L 397.93074 -159.277757 
L 397.610528 -157.942666 
L 397.281026 -156.607576 
L 396.943112 -155.272485 
L 396.597891 -153.937395 
L 396.246667 -152.602304 
L 395.890919 -151.267213 
L 395.532269 -149.932123 
L 395.172441 -148.597032 
L 394.813229 -147.261942 
L 394.456453 -145.926851 
L 394.103925 -144.59176 
L 393.757412 -143.25667 
L 393.418598 -141.921579 
L 393.089058 -140.586489 
L 392.770231 -139.251398 
L 392.463397 -137.916308 
L 392.169659 -136.581217 
L 391.889938 -135.246126 
L 391.624959 -133.911036 
L 391.375253 -132.575945 
L 391.141163 -131.240855 
L 390.922844 -129.905764 
L 390.720279 -128.570673 
L 390.533293 -127.235583 
L 390.361563 -125.900492 
L 390.204642 -124.565402 
L 390.061972 -123.230311 
z
" style="stroke: #3f3f3f; stroke-width: 1.5"/>
    </defs>
    <g clip-path="url(#p5d56817101)">
     <use xlink:href="#m032fa4400b" x="0" y="370.686865" style="fill: #e1812c; stroke: #3f3f3f; stroke-width: 1.5"/>
    </g>
   </g>
   <g id="matplotlib.axis_1">
    <g id="xtick_1">
     <g id="line2d_1">
      <defs>
       <path id="mb567392b92" d="M 0 0 
L 0 3.5 
" style="stroke: #000000; stroke-width: 0.8"/>
      </defs>
      <g>
       <use xlink:href="#mb567392b92" x="91.430275" y="288.430125" style="stroke: #000000; stroke-width: 0.8"/>
      </g>
     </g>
     <g id="text_1">
      <!-- aflplusplus_ast_o1 -->
      <g transform="translate(10.999219 347.766815)rotate(-30)scale(0.1 -0.1)">
       <defs>
        <path id="DejaVuSans-61" d="M 2194 1759 
Q 1497 1759 1228 1600 
Q 959 1441 959 1056 
Q 959 750 1161 570 
Q 1363 391 1709 391 
Q 2188 391 2477 730 
Q 2766 1069 2766 1631 
L 2766 1759 
L 2194 1759 
z
M 3341 1997 
L 3341 0 
L 2766 0 
L 2766 531 
Q 2569 213 2275 61 
Q 1981 -91 1556 -91 
Q 1019 -91 701 211 
Q 384 513 384 1019 
Q 384 1609 779 1909 
Q 1175 2209 1959 2209 
L 2766 2209 
L 2766 2266 
Q 2766 2663 2505 2880 
Q 2244 3097 1772 3097 
Q 1472 3097 1187 3025 
Q 903 2953 641 2809 
L 641 3341 
Q 956 3463 1253 3523 
Q 1550 3584 1831 3584 
Q 2591 3584 2966 3190 
Q 3341 2797 3341 1997 
z
" transform="scale(0.015625)"/>
        <path id="DejaVuSans-66" d="M 2375 4863 
L 2375 4384 
L 1825 4384 
Q 1516 4384 1395 4259 
Q 1275 4134 1275 3809 
L 1275 3500 
L 2222 3500 
L 2222 3053 
L 1275 3053 
L 1275 0 
L 697 0 
L 697 3053 
L 147 3053 
L 147 3500 
L 697 3500 
L 697 3744 
Q 697 4328 969 4595 
Q 1241 4863 1831 4863 
L 2375 4863 
z
" transform="scale(0.015625)"/>
        <path id="DejaVuSans-6c" d="M 603 4863 
L 1178 4863 
L 1178 0 
L 603 0 
L 603 4863 
z
" transform="scale(0.015625)"/>
        <path id="DejaVuSans-70" d="M 1159 525 
L 1159 -1331 
L 581 -1331 
L 581 3500 
L 1159 3500 
L 1159 2969 
Q 1341 3281 1617 3432 
Q 1894 3584 2278 3584 
Q 2916 3584 3314 3078 
Q 3713 2572 3713 1747 
Q 3713 922 3314 415 
Q 2916 -91 2278 -91 
Q 1894 -91 1617 61 
Q 1341 213 1159 525 
z
M 3116 1747 
Q 3116 2381 2855 2742 
Q 2594 3103 2138 3103 
Q 1681 3103 1420 2742 
Q 1159 2381 1159 1747 
Q 1159 1113 1420 752 
Q 1681 391 2138 391 
Q 2594 391 2855 752 
Q 3116 1113 3116 1747 
z
" transform="scale(0.015625)"/>
        <path id="DejaVuSans-75" d="M 544 1381 
L 544 3500 
L 1119 3500 
L 1119 1403 
Q 1119 906 1312 657 
Q 1506 409 1894 409 
Q 2359 409 2629 706 
Q 2900 1003 2900 1516 
L 2900 3500 
L 3475 3500 
L 3475 0 
L 2900 0 
L 2900 538 
Q 2691 219 2414 64 
Q 2138 -91 1772 -91 
Q 1169 -91 856 284 
Q 544 659 544 1381 
z
M 1991 3584 
L 1991 3584 
z
" transform="scale(0.015625)"/>
        <path id="DejaVuSans-73" d="M 2834 3397 
L 2834 2853 
Q 2591 2978 2328 3040 
Q 2066 3103 1784 3103 
Q 1356 3103 1142 2972 
Q 928 2841 928 2578 
Q 928 2378 1081 2264 
Q 1234 2150 1697 2047 
L 1894 2003 
Q 2506 1872 2764 1633 
Q 3022 1394 3022 966 
Q 3022 478 2636 193 
Q 2250 -91 1575 -91 
Q 1294 -91 989 -36 
Q 684 19 347 128 
L 347 722 
Q 666 556 975 473 
Q 1284 391 1588 391 
Q 1994 391 2212 530 
Q 2431 669 2431 922 
Q 2431 1156 2273 1281 
Q 2116 1406 1581 1522 
L 1381 1569 
Q 847 1681 609 1914 
Q 372 2147 372 2553 
Q 372 3047 722 3315 
Q 1072 3584 1716 3584 
Q 2034 3584 2315 3537 
Q 2597 3491 2834 3397 
z
" transform="scale(0.015625)"/>
        <path id="DejaVuSans-5f" d="M 3263 -1063 
L 3263 -1509 
L -63 -1509 
L -63 -1063 
L 3263 -1063 
z
" transform="scale(0.015625)"/>
        <path id="DejaVuSans-74" d="M 1172 4494 
L 1172 3500 
L 2356 3500 
L 2356 3053 
L 1172 3053 
L 1172 1153 
Q 1172 725 1289 603 
Q 1406 481 1766 481 
L 2356 481 
L 2356 0 
L 1766 0 
Q 1100 0 847 248 
Q 594 497 594 1153 
L 594 3053 
L 172 3053 
L 172 3500 
L 594 3500 
L 594 4494 
L 1172 4494 
z
" transform="scale(0.015625)"/>
        <path id="DejaVuSans-6f" d="M 1959 3097 
Q 1497 3097 1228 2736 
Q 959 2375 959 1747 
Q 959 1119 1226 758 
Q 1494 397 1959 397 
Q 2419 397 2687 759 
Q 2956 1122 2956 1747 
Q 2956 2369 2687 2733 
Q 2419 3097 1959 3097 
z
M 1959 3584 
Q 2709 3584 3137 3096 
Q 3566 2609 3566 1747 
Q 3566 888 3137 398 
Q 2709 -91 1959 -91 
Q 1206 -91 779 398 
Q 353 888 353 1747 
Q 353 2609 779 3096 
Q 1206 3584 1959 3584 
z
" transform="scale(0.015625)"/>
        <path id="DejaVuSans-31" d="M 794 531 
L 1825 531 
L 1825 4091 
L 703 3866 
L 703 4441 
L 1819 4666 
L 2450 4666 
L 2450 531 
L 3481 531 
L 3481 0 
L 794 0 
L 794 531 
z
" transform="scale(0.015625)"/>
       </defs>
       <use xlink:href="#DejaVuSans-61"/>
       <use xlink:href="#DejaVuSans-66" x="61.279297"/>
       <use xlink:href="#DejaVuSans-6c" x="96.484375"/>
       <use xlink:href="#DejaVuSans-70" x="124.267578"/>
       <use xlink:href="#DejaVuSans-6c" x="187.744141"/>
       <use xlink:href="#DejaVuSans-75" x="215.527344"/>
       <use xlink:href="#DejaVuSans-73" x="278.90625"/>
       <use xlink:href="#DejaVuSans-70" x="331.005859"/>
       <use xlink:href="#DejaVuSans-6c" x="394.482422"/>
       <use xlink:href="#DejaVuSans-75" x="422.265625"/>
       <use xlink:href="#DejaVuSans-73" x="485.644531"/>
       <use xlink:href="#DejaVuSans-5f" x="537.744141"/>
       <use xlink:href="#DejaVuSans-61" x="587.744141"/>
       <use xlink:href="#DejaVuSans-73" x="649.023438"/>
       <use xlink:href="#DejaVuSans-74" x="701.123047"/>
       <use xlink:href="#DejaVuSans-5f" x="740.332031"/>
       <use xlink:href="#DejaVuSans-6f" x="790.332031"/>
       <use xlink:href="#DejaVuSans-31" x="851.513672"/>
      </g>
     </g>
    </g>
    <g id="xtick_2">
     <g id="line2d_2">
      <g>
       <use xlink:href="#mb567392b92" x="150.950275" y="288.430125" style="stroke: #000000; stroke-width: 0.8"/>
      </g>
     </g>
     <g id="text_2">
      <!-- aflplusplus_ast_f1 -->
      <g transform="translate(72.769532 346.467596)rotate(-30)scale(0.1 -0.1)">
       <use xlink:href="#DejaVuSans-61"/>
       <use xlink:href="#DejaVuSans-66" x="61.279297"/>
       <use xlink:href="#DejaVuSans-6c" x="96.484375"/>
       <use xlink:href="#DejaVuSans-70" x="124.267578"/>
       <use xlink:href="#DejaVuSans-6c" x="187.744141"/>
       <use xlink:href="#DejaVuSans-75" x="215.527344"/>
       <use xlink:href="#DejaVuSans-73" x="278.90625"/>
       <use xlink:href="#DejaVuSans-70" x="331.005859"/>
       <use xlink:href="#DejaVuSans-6c" x="394.482422"/>
       <use xlink:href="#DejaVuSans-75" x="422.265625"/>
       <use xlink:href="#DejaVuSans-73" x="485.644531"/>
       <use xlink:href="#DejaVuSans-5f" x="537.744141"/>
       <use xlink:href="#DejaVuSans-61" x="587.744141"/>
       <use xlink:href="#DejaVuSans-73" x="649.023438"/>
       <use xlink:href="#DejaVuSans-74" x="701.123047"/>
       <use xlink:href="#DejaVuSans-5f" x="740.332031"/>
       <use xlink:href="#DejaVuSans-66" x="790.332031"/>
       <use xlink:href="#DejaVuSans-31" x="825.537109"/>
      </g>
     </g>
    </g>
    <g id="xtick_3">
     <g id="line2d_3">
      <g>
       <use xlink:href="#mb567392b92" x="210.470275" y="288.430125" style="stroke: #000000; stroke-width: 0.8"/>
      </g>
     </g>
     <g id="text_3">
      <!-- aflplusplus_ast_f0 -->
      <g transform="translate(132.289532 346.467596)rotate(-30)scale(0.1 -0.1)">
       <defs>
        <path id="DejaVuSans-30" d="M 2034 4250 
Q 1547 4250 1301 3770 
Q 1056 3291 1056 2328 
Q 1056 1369 1301 889 
Q 1547 409 2034 409 
Q 2525 409 2770 889 
Q 3016 1369 3016 2328 
Q 3016 3291 2770 3770 
Q 2525 4250 2034 4250 
z
M 2034 4750 
Q 2819 4750 3233 4129 
Q 3647 3509 3647 2328 
Q 3647 1150 3233 529 
Q 2819 -91 2034 -91 
Q 1250 -91 836 529 
Q 422 1150 422 2328 
Q 422 3509 836 4129 
Q 1250 4750 2034 4750 
z
" transform="scale(0.015625)"/>
       </defs>
       <use xlink:href="#DejaVuSans-61"/>
       <use xlink:href="#DejaVuSans-66" x="61.279297"/>
       <use xlink:href="#DejaVuSans-6c" x="96.484375"/>
       <use xlink:href="#DejaVuSans-70" x="124.267578"/>
       <use xlink:href="#DejaVuSans-6c" x="187.744141"/>
       <use xlink:href="#DejaVuSans-75" x="215.527344"/>
       <use xlink:href="#DejaVuSans-73" x="278.90625"/>
       <use xlink:href="#DejaVuSans-70" x="331.005859"/>
       <use xlink:href="#DejaVuSans-6c" x="394.482422"/>
       <use xlink:href="#DejaVuSans-75" x="422.265625"/>
       <use xlink:href="#DejaVuSans-73" x="485.644531"/>
       <use xlink:href="#DejaVuSans-5f" x="537.744141"/>
       <use xlink:href="#DejaVuSans-61" x="587.744141"/>
       <use xlink:href="#DejaVuSans-73" x="649.023438"/>
       <use xlink:href="#DejaVuSans-74" x="701.123047"/>
       <use xlink:href="#DejaVuSans-5f" x="740.332031"/>
       <use xlink:href="#DejaVuSans-66" x="790.332031"/>
       <use xlink:href="#DejaVuSans-30" x="825.537109"/>
      </g>
     </g>
    </g>
    <g id="xtick_4">
     <g id="line2d_4">
      <g>
       <use xlink:href="#mb567392b92" x="269.990275" y="288.430125" style="stroke: #000000; stroke-width: 0.8"/>
      </g>
     </g>
     <g id="text_4">
      <!-- aflplusplus_ast_o0 -->
      <g transform="translate(189.559219 347.766815)rotate(-30)scale(0.1 -0.1)">
       <use xlink:href="#DejaVuSans-61"/>
       <use xlink:href="#DejaVuSans-66" x="61.279297"/>
       <use xlink:href="#DejaVuSans-6c" x="96.484375"/>
       <use xlink:href="#DejaVuSans-70" x="124.267578"/>
       <use xlink:href="#DejaVuSans-6c" x="187.744141"/>
       <use xlink:href="#DejaVuSans-75" x="215.527344"/>
       <use xlink:href="#DejaVuSans-73" x="278.90625"/>
       <use xlink:href="#DejaVuSans-70" x="331.005859"/>
       <use xlink:href="#DejaVuSans-6c" x="394.482422"/>
       <use xlink:href="#DejaVuSans-75" x="422.265625"/>
       <use xlink:href="#DejaVuSans-73" x="485.644531"/>
       <use xlink:href="#DejaVuSans-5f" x="537.744141"/>
       <use xlink:href="#DejaVuSans-61" x="587.744141"/>
       <use xlink:href="#DejaVuSans-73" x="649.023438"/>
       <use xlink:href="#DejaVuSans-74" x="701.123047"/>
       <use xlink:href="#DejaVuSans-5f" x="740.332031"/>
       <use xlink:href="#DejaVuSans-6f" x="790.332031"/>
       <use xlink:href="#DejaVuSans-30" x="851.513672"/>
      </g>
     </g>
    </g>
    <g id="xtick_5">
     <g id="line2d_5">
      <g>
       <use xlink:href="#mb567392b92" x="329.510275" y="288.430125" style="stroke: #000000; stroke-width: 0.8"/>
      </g>
     </g>
     <g id="text_5">
      <!-- aflplusplus_ast_o3 -->
      <g transform="translate(249.079219 347.766815)rotate(-30)scale(0.1 -0.1)">
       <defs>
        <path id="DejaVuSans-33" d="M 2597 2516 
Q 3050 2419 3304 2112 
Q 3559 1806 3559 1356 
Q 3559 666 3084 287 
Q 2609 -91 1734 -91 
Q 1441 -91 1130 -33 
Q 819 25 488 141 
L 488 750 
Q 750 597 1062 519 
Q 1375 441 1716 441 
Q 2309 441 2620 675 
Q 2931 909 2931 1356 
Q 2931 1769 2642 2001 
Q 2353 2234 1838 2234 
L 1294 2234 
L 1294 2753 
L 1863 2753 
Q 2328 2753 2575 2939 
Q 2822 3125 2822 3475 
Q 2822 3834 2567 4026 
Q 2313 4219 1838 4219 
Q 1578 4219 1281 4162 
Q 984 4106 628 3988 
L 628 4550 
Q 988 4650 1302 4700 
Q 1616 4750 1894 4750 
Q 2613 4750 3031 4423 
Q 3450 4097 3450 3541 
Q 3450 3153 3228 2886 
Q 3006 2619 2597 2516 
z
" transform="scale(0.015625)"/>
       </defs>
       <use xlink:href="#DejaVuSans-61"/>
       <use xlink:href="#DejaVuSans-66" x="61.279297"/>
       <use xlink:href="#DejaVuSans-6c" x="96.484375"/>
       <use xlink:href="#DejaVuSans-70" x="124.267578"/>
       <use xlink:href="#DejaVuSans-6c" x="187.744141"/>
       <use xlink:href="#DejaVuSans-75" x="215.527344"/>
       <use xlink:href="#DejaVuSans-73" x="278.90625"/>
       <use xlink:href="#DejaVuSans-70" x="331.005859"/>
       <use xlink:href="#DejaVuSans-6c" x="394.482422"/>
       <use xlink:href="#DejaVuSans-75" x="422.265625"/>
       <use xlink:href="#DejaVuSans-73" x="485.644531"/>
       <use xlink:href="#DejaVuSans-5f" x="537.744141"/>
       <use xlink:href="#DejaVuSans-61" x="587.744141"/>
       <use xlink:href="#DejaVuSans-73" x="649.023438"/>
       <use xlink:href="#DejaVuSans-74" x="701.123047"/>
       <use xlink:href="#DejaVuSans-5f" x="740.332031"/>
       <use xlink:href="#DejaVuSans-6f" x="790.332031"/>
       <use xlink:href="#DejaVuSans-33" x="851.513672"/>
      </g>
     </g>
    </g>
    <g id="xtick_6">
     <g id="line2d_6">
      <g>
       <use xlink:href="#mb567392b92" x="389.030275" y="288.430125" style="stroke: #000000; stroke-width: 0.8"/>
      </g>
     </g>
     <g id="text_6">
      <!-- aflplusplus_ast_o2 -->
      <g transform="translate(308.599219 347.766815)rotate(-30)scale(0.1 -0.1)">
       <defs>
        <path id="DejaVuSans-32" d="M 1228 531 
L 3431 531 
L 3431 0 
L 469 0 
L 469 531 
Q 828 903 1448 1529 
Q 2069 2156 2228 2338 
Q 2531 2678 2651 2914 
Q 2772 3150 2772 3378 
Q 2772 3750 2511 3984 
Q 2250 4219 1831 4219 
Q 1534 4219 1204 4116 
Q 875 4013 500 3803 
L 500 4441 
Q 881 4594 1212 4672 
Q 1544 4750 1819 4750 
Q 2544 4750 2975 4387 
Q 3406 4025 3406 3419 
Q 3406 3131 3298 2873 
Q 3191 2616 2906 2266 
Q 2828 2175 2409 1742 
Q 1991 1309 1228 531 
z
" transform="scale(0.015625)"/>
       </defs>
       <use xlink:href="#DejaVuSans-61"/>
       <use xlink:href="#DejaVuSans-66" x="61.279297"/>
       <use xlink:href="#DejaVuSans-6c" x="96.484375"/>
       <use xlink:href="#DejaVuSans-70" x="124.267578"/>
       <use xlink:href="#DejaVuSans-6c" x="187.744141"/>
       <use xlink:href="#DejaVuSans-75" x="215.527344"/>
       <use xlink:href="#DejaVuSans-73" x="278.90625"/>
       <use xlink:href="#DejaVuSans-70" x="331.005859"/>
       <use xlink:href="#DejaVuSans-6c" x="394.482422"/>
       <use xlink:href="#DejaVuSans-75" x="422.265625"/>
       <use xlink:href="#DejaVuSans-73" x="485.644531"/>
       <use xlink:href="#DejaVuSans-5f" x="537.744141"/>
       <use xlink:href="#DejaVuSans-61" x="587.744141"/>
       <use xlink:href="#DejaVuSans-73" x="649.023438"/>
       <use xlink:href="#DejaVuSans-74" x="701.123047"/>
       <use xlink:href="#DejaVuSans-5f" x="740.332031"/>
       <use xlink:href="#DejaVuSans-6f" x="790.332031"/>
       <use xlink:href="#DejaVuSans-32" x="851.513672"/>
      </g>
     </g>
    </g>
    <g id="text_7">
     <!-- Fuzzer (highest median coverage on the left) -->
     <g transform="translate(127.612306 361.407178)scale(0.1 -0.1)">
      <defs>
       <path id="DejaVuSans-46" d="M 628 4666 
L 3309 4666 
L 3309 4134 
L 1259 4134 
L 1259 2759 
L 3109 2759 
L 3109 2228 
L 1259 2228 
L 1259 0 
L 628 0 
L 628 4666 
z
" transform="scale(0.015625)"/>
       <path id="DejaVuSans-7a" d="M 353 3500 
L 3084 3500 
L 3084 2975 
L 922 459 
L 3084 459 
L 3084 0 
L 275 0 
L 275 525 
L 2438 3041 
L 353 3041 
L 353 3500 
z
" transform="scale(0.015625)"/>
       <path id="DejaVuSans-65" d="M 3597 1894 
L 3597 1613 
L 953 1613 
Q 991 1019 1311 708 
Q 1631 397 2203 397 
Q 2534 397 2845 478 
Q 3156 559 3463 722 
L 3463 178 
Q 3153 47 2828 -22 
Q 2503 -91 2169 -91 
Q 1331 -91 842 396 
Q 353 884 353 1716 
Q 353 2575 817 3079 
Q 1281 3584 2069 3584 
Q 2775 3584 3186 3129 
Q 3597 2675 3597 1894 
z
M 3022 2063 
Q 3016 2534 2758 2815 
Q 2500 3097 2075 3097 
Q 1594 3097 1305 2825 
Q 1016 2553 972 2059 
L 3022 2063 
z
" transform="scale(0.015625)"/>
       <path id="DejaVuSans-72" d="M 2631 2963 
Q 2534 3019 2420 3045 
Q 2306 3072 2169 3072 
Q 1681 3072 1420 2755 
Q 1159 2438 1159 1844 
L 1159 0 
L 581 0 
L 581 3500 
L 1159 3500 
L 1159 2956 
Q 1341 3275 1631 3429 
Q 1922 3584 2338 3584 
Q 2397 3584 2469 3576 
Q 2541 3569 2628 3553 
L 2631 2963 
z
" transform="scale(0.015625)"/>
       <path id="DejaVuSans-20" transform="scale(0.015625)"/>
       <path id="DejaVuSans-28" d="M 1984 4856 
Q 1566 4138 1362 3434 
Q 1159 2731 1159 2009 
Q 1159 1288 1364 580 
Q 1569 -128 1984 -844 
L 1484 -844 
Q 1016 -109 783 600 
Q 550 1309 550 2009 
Q 550 2706 781 3412 
Q 1013 4119 1484 4856 
L 1984 4856 
z
" transform="scale(0.015625)"/>
       <path id="DejaVuSans-68" d="M 3513 2113 
L 3513 0 
L 2938 0 
L 2938 2094 
Q 2938 2591 2744 2837 
Q 2550 3084 2163 3084 
Q 1697 3084 1428 2787 
Q 1159 2491 1159 1978 
L 1159 0 
L 581 0 
L 581 4863 
L 1159 4863 
L 1159 2956 
Q 1366 3272 1645 3428 
Q 1925 3584 2291 3584 
Q 2894 3584 3203 3211 
Q 3513 2838 3513 2113 
z
" transform="scale(0.015625)"/>
       <path id="DejaVuSans-69" d="M 603 3500 
L 1178 3500 
L 1178 0 
L 603 0 
L 603 3500 
z
M 603 4863 
L 1178 4863 
L 1178 4134 
L 603 4134 
L 603 4863 
z
" transform="scale(0.015625)"/>
       <path id="DejaVuSans-67" d="M 2906 1791 
Q 2906 2416 2648 2759 
Q 2391 3103 1925 3103 
Q 1463 3103 1205 2759 
Q 947 2416 947 1791 
Q 947 1169 1205 825 
Q 1463 481 1925 481 
Q 2391 481 2648 825 
Q 2906 1169 2906 1791 
z
M 3481 434 
Q 3481 -459 3084 -895 
Q 2688 -1331 1869 -1331 
Q 1566 -1331 1297 -1286 
Q 1028 -1241 775 -1147 
L 775 -588 
Q 1028 -725 1275 -790 
Q 1522 -856 1778 -856 
Q 2344 -856 2625 -561 
Q 2906 -266 2906 331 
L 2906 616 
Q 2728 306 2450 153 
Q 2172 0 1784 0 
Q 1141 0 747 490 
Q 353 981 353 1791 
Q 353 2603 747 3093 
Q 1141 3584 1784 3584 
Q 2172 3584 2450 3431 
Q 2728 3278 2906 2969 
L 2906 3500 
L 3481 3500 
L 3481 434 
z
" transform="scale(0.015625)"/>
       <path id="DejaVuSans-6d" d="M 3328 2828 
Q 3544 3216 3844 3400 
Q 4144 3584 4550 3584 
Q 5097 3584 5394 3201 
Q 5691 2819 5691 2113 
L 5691 0 
L 5113 0 
L 5113 2094 
Q 5113 2597 4934 2840 
Q 4756 3084 4391 3084 
Q 3944 3084 3684 2787 
Q 3425 2491 3425 1978 
L 3425 0 
L 2847 0 
L 2847 2094 
Q 2847 2600 2669 2842 
Q 2491 3084 2119 3084 
Q 1678 3084 1418 2786 
Q 1159 2488 1159 1978 
L 1159 0 
L 581 0 
L 581 3500 
L 1159 3500 
L 1159 2956 
Q 1356 3278 1631 3431 
Q 1906 3584 2284 3584 
Q 2666 3584 2933 3390 
Q 3200 3197 3328 2828 
z
" transform="scale(0.015625)"/>
       <path id="DejaVuSans-64" d="M 2906 2969 
L 2906 4863 
L 3481 4863 
L 3481 0 
L 2906 0 
L 2906 525 
Q 2725 213 2448 61 
Q 2172 -91 1784 -91 
Q 1150 -91 751 415 
Q 353 922 353 1747 
Q 353 2572 751 3078 
Q 1150 3584 1784 3584 
Q 2172 3584 2448 3432 
Q 2725 3281 2906 2969 
z
M 947 1747 
Q 947 1113 1208 752 
Q 1469 391 1925 391 
Q 2381 391 2643 752 
Q 2906 1113 2906 1747 
Q 2906 2381 2643 2742 
Q 2381 3103 1925 3103 
Q 1469 3103 1208 2742 
Q 947 2381 947 1747 
z
" transform="scale(0.015625)"/>
       <path id="DejaVuSans-6e" d="M 3513 2113 
L 3513 0 
L 2938 0 
L 2938 2094 
Q 2938 2591 2744 2837 
Q 2550 3084 2163 3084 
Q 1697 3084 1428 2787 
Q 1159 2491 1159 1978 
L 1159 0 
L 581 0 
L 581 3500 
L 1159 3500 
L 1159 2956 
Q 1366 3272 1645 3428 
Q 1925 3584 2291 3584 
Q 2894 3584 3203 3211 
Q 3513 2838 3513 2113 
z
" transform="scale(0.015625)"/>
       <path id="DejaVuSans-63" d="M 3122 3366 
L 3122 2828 
Q 2878 2963 2633 3030 
Q 2388 3097 2138 3097 
Q 1578 3097 1268 2742 
Q 959 2388 959 1747 
Q 959 1106 1268 751 
Q 1578 397 2138 397 
Q 2388 397 2633 464 
Q 2878 531 3122 666 
L 3122 134 
Q 2881 22 2623 -34 
Q 2366 -91 2075 -91 
Q 1284 -91 818 406 
Q 353 903 353 1747 
Q 353 2603 823 3093 
Q 1294 3584 2113 3584 
Q 2378 3584 2631 3529 
Q 2884 3475 3122 3366 
z
" transform="scale(0.015625)"/>
       <path id="DejaVuSans-76" d="M 191 3500 
L 800 3500 
L 1894 563 
L 2988 3500 
L 3597 3500 
L 2284 0 
L 1503 0 
L 191 3500 
z
" transform="scale(0.015625)"/>
       <path id="DejaVuSans-29" d="M 513 4856 
L 1013 4856 
Q 1481 4119 1714 3412 
Q 1947 2706 1947 2009 
Q 1947 1309 1714 600 
Q 1481 -109 1013 -844 
L 513 -844 
Q 928 -128 1133 580 
Q 1338 1288 1338 2009 
Q 1338 2731 1133 3434 
Q 928 4138 513 4856 
z
" transform="scale(0.015625)"/>
      </defs>
      <use xlink:href="#DejaVuSans-46"/>
      <use xlink:href="#DejaVuSans-75" x="52.019531"/>
      <use xlink:href="#DejaVuSans-7a" x="115.398438"/>
      <use xlink:href="#DejaVuSans-7a" x="167.888672"/>
      <use xlink:href="#DejaVuSans-65" x="220.378906"/>
      <use xlink:href="#DejaVuSans-72" x="281.902344"/>
      <use xlink:href="#DejaVuSans-20" x="323.015625"/>
      <use xlink:href="#DejaVuSans-28" x="354.802734"/>
      <use xlink:href="#DejaVuSans-68" x="393.816406"/>
      <use xlink:href="#DejaVuSans-69" x="457.195312"/>
      <use xlink:href="#DejaVuSans-67" x="484.978516"/>
      <use xlink:href="#DejaVuSans-68" x="548.455078"/>
      <use xlink:href="#DejaVuSans-65" x="611.833984"/>
      <use xlink:href="#DejaVuSans-73" x="673.357422"/>
      <use xlink:href="#DejaVuSans-74" x="725.457031"/>
      <use xlink:href="#DejaVuSans-20" x="764.666016"/>
      <use xlink:href="#DejaVuSans-6d" x="796.453125"/>
      <use xlink:href="#DejaVuSans-65" x="893.865234"/>
      <use xlink:href="#DejaVuSans-64" x="955.388672"/>
      <use xlink:href="#DejaVuSans-69" x="1018.865234"/>
      <use xlink:href="#DejaVuSans-61" x="1046.648438"/>
      <use xlink:href="#DejaVuSans-6e" x="1107.927734"/>
      <use xlink:href="#DejaVuSans-20" x="1171.306641"/>
      <use xlink:href="#DejaVuSans-63" x="1203.09375"/>
      <use xlink:href="#DejaVuSans-6f" x="1258.074219"/>
      <use xlink:href="#DejaVuSans-76" x="1319.255859"/>
      <use xlink:href="#DejaVuSans-65" x="1378.435547"/>
      <use xlink:href="#DejaVuSans-72" x="1439.958984"/>
      <use xlink:href="#DejaVuSans-61" x="1481.072266"/>
      <use xlink:href="#DejaVuSans-67" x="1542.351562"/>
      <use xlink:href="#DejaVuSans-65" x="1605.828125"/>
      <use xlink:href="#DejaVuSans-20" x="1667.351562"/>
      <use xlink:href="#DejaVuSans-6f" x="1699.138672"/>
      <use xlink:href="#DejaVuSans-6e" x="1760.320312"/>
      <use xlink:href="#DejaVuSans-20" x="1823.699219"/>
      <use xlink:href="#DejaVuSans-74" x="1855.486328"/>
      <use xlink:href="#DejaVuSans-68" x="1894.695312"/>
      <use xlink:href="#DejaVuSans-65" x="1958.074219"/>
      <use xlink:href="#DejaVuSans-20" x="2019.597656"/>
      <use xlink:href="#DejaVuSans-6c" x="2051.384766"/>
      <use xlink:href="#DejaVuSans-65" x="2079.167969"/>
      <use xlink:href="#DejaVuSans-66" x="2140.691406"/>
      <use xlink:href="#DejaVuSans-74" x="2174.146484"/>
      <use xlink:href="#DejaVuSans-29" x="2213.355469"/>
     </g>
    </g>
   </g>
   <g id="matplotlib.axis_2">
    <g id="ytick_1">
     <g id="line2d_7">
      <defs>
       <path id="m8df9a76162" d="M 0 0 
L -3.5 0 
" style="stroke: #000000; stroke-width: 0.8"/>
      </defs>
      <g>
       <use xlink:href="#m8df9a76162" x="61.670275" y="276.866977" style="stroke: #000000; stroke-width: 0.8"/>
      </g>
     </g>
     <g id="text_8">
      <!-- 7800 -->
      <g transform="translate(29.220275 280.666195)scale(0.1 -0.1)">
       <defs>
        <path id="DejaVuSans-37" d="M 525 4666 
L 3525 4666 
L 3525 4397 
L 1831 0 
L 1172 0 
L 2766 4134 
L 525 4134 
L 525 4666 
z
" transform="scale(0.015625)"/>
        <path id="DejaVuSans-38" d="M 2034 2216 
Q 1584 2216 1326 1975 
Q 1069 1734 1069 1313 
Q 1069 891 1326 650 
Q 1584 409 2034 409 
Q 2484 409 2743 651 
Q 3003 894 3003 1313 
Q 3003 1734 2745 1975 
Q 2488 2216 2034 2216 
z
M 1403 2484 
Q 997 2584 770 2862 
Q 544 3141 544 3541 
Q 544 4100 942 4425 
Q 1341 4750 2034 4750 
Q 2731 4750 3128 4425 
Q 3525 4100 3525 3541 
Q 3525 3141 3298 2862 
Q 3072 2584 2669 2484 
Q 3125 2378 3379 2068 
Q 3634 1759 3634 1313 
Q 3634 634 3220 271 
Q 2806 -91 2034 -91 
Q 1263 -91 848 271 
Q 434 634 434 1313 
Q 434 1759 690 2068 
Q 947 2378 1403 2484 
z
M 1172 3481 
Q 1172 3119 1398 2916 
Q 1625 2713 2034 2713 
Q 2441 2713 2670 2916 
Q 2900 3119 2900 3481 
Q 2900 3844 2670 4047 
Q 2441 4250 2034 4250 
Q 1625 4250 1398 4047 
Q 1172 3844 1172 3481 
z
" transform="scale(0.015625)"/>
       </defs>
       <use xlink:href="#DejaVuSans-37"/>
       <use xlink:href="#DejaVuSans-38" x="63.623047"/>
       <use xlink:href="#DejaVuSans-30" x="127.246094"/>
       <use xlink:href="#DejaVuSans-30" x="190.869141"/>
      </g>
     </g>
    </g>
    <g id="ytick_2">
     <g id="line2d_8">
      <g>
       <use xlink:href="#m8df9a76162" x="61.670275" y="246.598385" style="stroke: #000000; stroke-width: 0.8"/>
      </g>
     </g>
     <g id="text_9">
      <!-- 8000 -->
      <g transform="translate(29.220275 250.397604)scale(0.1 -0.1)">
       <use xlink:href="#DejaVuSans-38"/>
       <use xlink:href="#DejaVuSans-30" x="63.623047"/>
       <use xlink:href="#DejaVuSans-30" x="127.246094"/>
       <use xlink:href="#DejaVuSans-30" x="190.869141"/>
      </g>
     </g>
    </g>
    <g id="ytick_3">
     <g id="line2d_9">
      <g>
       <use xlink:href="#m8df9a76162" x="61.670275" y="216.329794" style="stroke: #000000; stroke-width: 0.8"/>
      </g>
     </g>
     <g id="text_10">
      <!-- 8200 -->
      <g transform="translate(29.220275 220.129012)scale(0.1 -0.1)">
       <use xlink:href="#DejaVuSans-38"/>
       <use xlink:href="#DejaVuSans-32" x="63.623047"/>
       <use xlink:href="#DejaVuSans-30" x="127.246094"/>
       <use xlink:href="#DejaVuSans-30" x="190.869141"/>
      </g>
     </g>
    </g>
    <g id="ytick_4">
     <g id="line2d_10">
      <g>
       <use xlink:href="#m8df9a76162" x="61.670275" y="186.061202" style="stroke: #000000; stroke-width: 0.8"/>
      </g>
     </g>
     <g id="text_11">
      <!-- 8400 -->
      <g transform="translate(29.220275 189.860421)scale(0.1 -0.1)">
       <defs>
        <path id="DejaVuSans-34" d="M 2419 4116 
L 825 1625 
L 2419 1625 
L 2419 4116 
z
M 2253 4666 
L 3047 4666 
L 3047 1625 
L 3713 1625 
L 3713 1100 
L 3047 1100 
L 3047 0 
L 2419 0 
L 2419 1100 
L 313 1100 
L 313 1709 
L 2253 4666 
z
" transform="scale(0.015625)"/>
       </defs>
       <use xlink:href="#DejaVuSans-38"/>
       <use xlink:href="#DejaVuSans-34" x="63.623047"/>
       <use xlink:href="#DejaVuSans-30" x="127.246094"/>
       <use xlink:href="#DejaVuSans-30" x="190.869141"/>
      </g>
     </g>
    </g>
    <g id="ytick_5">
     <g id="line2d_11">
      <g>
       <use xlink:href="#m8df9a76162" x="61.670275" y="155.79261" style="stroke: #000000; stroke-width: 0.8"/>
      </g>
     </g>
     <g id="text_12">
      <!-- 8600 -->
      <g transform="translate(29.220275 159.591829)scale(0.1 -0.1)">
       <defs>
        <path id="DejaVuSans-36" d="M 2113 2584 
Q 1688 2584 1439 2293 
Q 1191 2003 1191 1497 
Q 1191 994 1439 701 
Q 1688 409 2113 409 
Q 2538 409 2786 701 
Q 3034 994 3034 1497 
Q 3034 2003 2786 2293 
Q 2538 2584 2113 2584 
z
M 3366 4563 
L 3366 3988 
Q 3128 4100 2886 4159 
Q 2644 4219 2406 4219 
Q 1781 4219 1451 3797 
Q 1122 3375 1075 2522 
Q 1259 2794 1537 2939 
Q 1816 3084 2150 3084 
Q 2853 3084 3261 2657 
Q 3669 2231 3669 1497 
Q 3669 778 3244 343 
Q 2819 -91 2113 -91 
Q 1303 -91 875 529 
Q 447 1150 447 2328 
Q 447 3434 972 4092 
Q 1497 4750 2381 4750 
Q 2619 4750 2861 4703 
Q 3103 4656 3366 4563 
z
" transform="scale(0.015625)"/>
       </defs>
       <use xlink:href="#DejaVuSans-38"/>
       <use xlink:href="#DejaVuSans-36" x="63.623047"/>
       <use xlink:href="#DejaVuSans-30" x="127.246094"/>
       <use xlink:href="#DejaVuSans-30" x="190.869141"/>
      </g>
     </g>
    </g>
    <g id="ytick_6">
     <g id="line2d_12">
      <g>
       <use xlink:href="#m8df9a76162" x="61.670275" y="125.524019" style="stroke: #000000; stroke-width: 0.8"/>
      </g>
     </g>
     <g id="text_13">
      <!-- 8800 -->
      <g transform="translate(29.220275 129.323237)scale(0.1 -0.1)">
       <use xlink:href="#DejaVuSans-38"/>
       <use xlink:href="#DejaVuSans-38" x="63.623047"/>
       <use xlink:href="#DejaVuSans-30" x="127.246094"/>
       <use xlink:href="#DejaVuSans-30" x="190.869141"/>
      </g>
     </g>
    </g>
    <g id="ytick_7">
     <g id="line2d_13">
      <g>
       <use xlink:href="#m8df9a76162" x="61.670275" y="95.255427" style="stroke: #000000; stroke-width: 0.8"/>
      </g>
     </g>
     <g id="text_14">
      <!-- 9000 -->
      <g transform="translate(29.220275 99.054646)scale(0.1 -0.1)">
       <defs>
        <path id="DejaVuSans-39" d="M 703 97 
L 703 672 
Q 941 559 1184 500 
Q 1428 441 1663 441 
Q 2288 441 2617 861 
Q 2947 1281 2994 2138 
Q 2813 1869 2534 1725 
Q 2256 1581 1919 1581 
Q 1219 1581 811 2004 
Q 403 2428 403 3163 
Q 403 3881 828 4315 
Q 1253 4750 1959 4750 
Q 2769 4750 3195 4129 
Q 3622 3509 3622 2328 
Q 3622 1225 3098 567 
Q 2575 -91 1691 -91 
Q 1453 -91 1209 -44 
Q 966 3 703 97 
z
M 1959 2075 
Q 2384 2075 2632 2365 
Q 2881 2656 2881 3163 
Q 2881 3666 2632 3958 
Q 2384 4250 1959 4250 
Q 1534 4250 1286 3958 
Q 1038 3666 1038 3163 
Q 1038 2656 1286 2365 
Q 1534 2075 1959 2075 
z
" transform="scale(0.015625)"/>
       </defs>
       <use xlink:href="#DejaVuSans-39"/>
       <use xlink:href="#DejaVuSans-30" x="63.623047"/>
       <use xlink:href="#DejaVuSans-30" x="127.246094"/>
       <use xlink:href="#DejaVuSans-30" x="190.869141"/>
      </g>
     </g>
    </g>
    <g id="ytick_8">
     <g id="line2d_14">
      <g>
       <use xlink:href="#m8df9a76162" x="61.670275" y="64.986836" style="stroke: #000000; stroke-width: 0.8"/>
      </g>
     </g>
     <g id="text_15">
      <!-- 9200 -->
      <g transform="translate(29.220275 68.786054)scale(0.1 -0.1)">
       <use xlink:href="#DejaVuSans-39"/>
       <use xlink:href="#DejaVuSans-32" x="63.623047"/>
       <use xlink:href="#DejaVuSans-30" x="127.246094"/>
       <use xlink:href="#DejaVuSans-30" x="190.869141"/>
      </g>
     </g>
    </g>
    <g id="ytick_9">
     <g id="line2d_15">
      <g>
       <use xlink:href="#m8df9a76162" x="61.670275" y="34.718244" style="stroke: #000000; stroke-width: 0.8"/>
      </g>
     </g>
     <g id="text_16">
      <!-- 9400 -->
      <g transform="translate(29.220275 38.517463)scale(0.1 -0.1)">
       <use xlink:href="#DejaVuSans-39"/>
       <use xlink:href="#DejaVuSans-34" x="63.623047"/>
       <use xlink:href="#DejaVuSans-30" x="127.246094"/>
       <use xlink:href="#DejaVuSans-30" x="190.869141"/>
      </g>
     </g>
    </g>
    <g id="text_17">
     <!-- Reached region coverage -->
     <g transform="translate(23.140587 219.136625)rotate(-90)scale(0.1 -0.1)">
      <defs>
       <path id="DejaVuSans-52" d="M 2841 2188 
Q 3044 2119 3236 1894 
Q 3428 1669 3622 1275 
L 4263 0 
L 3584 0 
L 2988 1197 
Q 2756 1666 2539 1819 
Q 2322 1972 1947 1972 
L 1259 1972 
L 1259 0 
L 628 0 
L 628 4666 
L 2053 4666 
Q 2853 4666 3247 4331 
Q 3641 3997 3641 3322 
Q 3641 2881 3436 2590 
Q 3231 2300 2841 2188 
z
M 1259 4147 
L 1259 2491 
L 2053 2491 
Q 2509 2491 2742 2702 
Q 2975 2913 2975 3322 
Q 2975 3731 2742 3939 
Q 2509 4147 2053 4147 
L 1259 4147 
z
" transform="scale(0.015625)"/>
      </defs>
      <use xlink:href="#DejaVuSans-52"/>
      <use xlink:href="#DejaVuSans-65" x="64.982422"/>
      <use xlink:href="#DejaVuSans-61" x="126.505859"/>
      <use xlink:href="#DejaVuSans-63" x="187.785156"/>
      <use xlink:href="#DejaVuSans-68" x="242.765625"/>
      <use xlink:href="#DejaVuSans-65" x="306.144531"/>
      <use xlink:href="#DejaVuSans-64" x="367.667969"/>
      <use xlink:href="#DejaVuSans-20" x="431.144531"/>
      <use xlink:href="#DejaVuSans-72" x="462.931641"/>
      <use xlink:href="#DejaVuSans-65" x="501.794922"/>
      <use xlink:href="#DejaVuSans-67" x="563.318359"/>
      <use xlink:href="#DejaVuSans-69" x="626.794922"/>
      <use xlink:href="#DejaVuSans-6f" x="654.578125"/>
      <use xlink:href="#DejaVuSans-6e" x="715.759766"/>
      <use xlink:href="#DejaVuSans-20" x="779.138672"/>
      <use xlink:href="#DejaVuSans-63" x="810.925781"/>
      <use xlink:href="#DejaVuSans-6f" x="865.90625"/>
      <use xlink:href="#DejaVuSans-76" x="927.087891"/>
      <use xlink:href="#DejaVuSans-65" x="986.267578"/>
      <use xlink:href="#DejaVuSans-72" x="1047.791016"/>
      <use xlink:href="#DejaVuSans-61" x="1088.904297"/>
      <use xlink:href="#DejaVuSans-67" x="1150.183594"/>
      <use xlink:href="#DejaVuSans-65" x="1213.660156"/>
     </g>
    </g>
   </g>
   <g id="line2d_16">
    <path d="M 91.430275 93.741998 
L 91.430275 62.414005 
" clip-path="url(#p5d56817101)" style="fill: none; stroke: #3f3f3f; stroke-width: 1.5; stroke-linecap: square"/>
   </g>
   <g id="line2d_17">
    <path d="M 91.430275 91.244839 
L 91.430275 75.580843 
" clip-path="url(#p5d56817101)" style="fill: none; stroke: #3f3f3f; stroke-width: 4.5; stroke-linecap: square"/>
   </g>
   <g id="line2d_18">
    <path d="M 150.950275 134.453253 
L 150.950275 79.667102 
" clip-path="url(#p5d56817101)" style="fill: none; stroke: #3f3f3f; stroke-width: 1.5; stroke-linecap: square"/>
   </g>
   <g id="line2d_19">
    <path d="M 150.950275 126.507748 
L 150.950275 99.114673 
" clip-path="url(#p5d56817101)" style="fill: none; stroke: #3f3f3f; stroke-width: 4.5; stroke-linecap: square"/>
   </g>
   <g id="line2d_20">
    <path d="M 210.470275 183.337029 
L 210.470275 127.794163 
" clip-path="url(#p5d56817101)" style="fill: none; stroke: #3f3f3f; stroke-width: 1.5; stroke-linecap: square"/>
   </g>
   <g id="line2d_21">
    <path d="M 210.470275 158.970812 
L 210.470275 131.19938 
" clip-path="url(#p5d56817101)" style="fill: none; stroke: #3f3f3f; stroke-width: 4.5; stroke-linecap: square"/>
   </g>
   <g id="line2d_22">
    <path d="M 269.990275 188.634032 
L 269.990275 147.317405 
" clip-path="url(#p5d56817101)" style="fill: none; stroke: #3f3f3f; stroke-width: 1.5; stroke-linecap: square"/>
   </g>
   <g id="line2d_23">
    <path d="M 269.990275 177.661668 
L 269.990275 157.003354 
" clip-path="url(#p5d56817101)" style="fill: none; stroke: #3f3f3f; stroke-width: 4.5; stroke-linecap: square"/>
   </g>
   <g id="line2d_24">
    <path d="M 329.510275 218.751281 
L 329.510275 148.376805 
" clip-path="url(#p5d56817101)" style="fill: none; stroke: #3f3f3f; stroke-width: 1.5; stroke-linecap: square"/>
   </g>
   <g id="line2d_25">
    <path d="M 329.510275 195.141779 
L 329.510275 159.954542 
" clip-path="url(#p5d56817101)" style="fill: none; stroke: #3f3f3f; stroke-width: 4.5; stroke-linecap: square"/>
   </g>
   <g id="line2d_26">
    <path d="M 389.030275 206.492501 
L 389.030275 156.246639 
" clip-path="url(#p5d56817101)" style="fill: none; stroke: #3f3f3f; stroke-width: 1.5; stroke-linecap: square"/>
   </g>
   <g id="line2d_27">
    <path d="M 389.030275 190.07179 
L 389.030275 164.948859 
" clip-path="url(#p5d56817101)" style="fill: none; stroke: #3f3f3f; stroke-width: 4.5; stroke-linecap: square"/>
   </g>
   <g id="patch_3">
    <path d="M 61.670275 276.866977 
L 61.670275 34.718244 
" style="fill: none; stroke: #000000; stroke-width: 0.8; stroke-linejoin: miter; stroke-linecap: square"/>
   </g>
   <g id="patch_4">
    <path d="M 91.430275 288.430125 
L 389.030275 288.430125 
" style="fill: none; stroke: #000000; stroke-width: 0.8; stroke-linejoin: miter; stroke-linecap: square"/>
   </g>
   <g id="PathCollection_1">
    <defs>
     <path id="m6d533e0d4f" d="M 0 1.5 
C 0.397805 1.5 0.77937 1.341951 1.06066 1.06066 
C 1.341951 0.77937 1.5 0.397805 1.5 0 
C 1.5 -0.397805 1.341951 -0.77937 1.06066 -1.06066 
C 0.77937 -1.341951 0.397805 -1.5 0 -1.5 
C -0.397805 -1.5 -0.77937 -1.341951 -1.06066 -1.06066 
C -1.341951 -0.77937 -1.5 -0.397805 -1.5 0 
C -1.5 0.397805 -1.341951 0.77937 -1.06066 1.06066 
C -0.77937 1.341951 -0.397805 1.5 0 1.5 
z
" style="stroke: #3f3f3f"/>
    </defs>
    <g clip-path="url(#p5d56817101)">
     <use xlink:href="#m6d533e0d4f" x="91.430275" y="88.74768" style="fill: #ffffff; stroke: #3f3f3f"/>
    </g>
   </g>
   <g id="PathCollection_2">
    <g clip-path="url(#p5d56817101)">
     <use xlink:href="#m6d533e0d4f" x="150.950275" y="118.562243" style="fill: #ffffff; stroke: #3f3f3f"/>
    </g>
   </g>
   <g id="PathCollection_3">
    <g clip-path="url(#p5d56817101)">
     <use xlink:href="#m6d533e0d4f" x="210.470275" y="134.604596" style="fill: #ffffff; stroke: #3f3f3f"/>
    </g>
   </g>
   <g id="PathCollection_4">
    <g clip-path="url(#p5d56817101)">
     <use xlink:href="#m6d533e0d4f" x="269.990275" y="166.689303" style="fill: #ffffff; stroke: #3f3f3f"/>
    </g>
   </g>
   <g id="PathCollection_5">
    <g clip-path="url(#p5d56817101)">
     <use xlink:href="#m6d533e0d4f" x="329.510275" y="171.532278" style="fill: #ffffff; stroke: #3f3f3f"/>
    </g>
   </g>
   <g id="PathCollection_6">
    <g clip-path="url(#p5d56817101)">
     <use xlink:href="#m6d533e0d4f" x="389.030275" y="173.651079" style="fill: #ffffff; stroke: #3f3f3f"/>
    </g>
   </g>
   <g id="text_18">
    <!-- bloaty_fuzz_target (4h:15m, 3 trials/fuzzer) -->
    <g transform="translate(110.451212 16.318125)scale(0.12 -0.12)">
     <defs>
      <path id="DejaVuSans-62" d="M 3116 1747 
Q 3116 2381 2855 2742 
Q 2594 3103 2138 3103 
Q 1681 3103 1420 2742 
Q 1159 2381 1159 1747 
Q 1159 1113 1420 752 
Q 1681 391 2138 391 
Q 2594 391 2855 752 
Q 3116 1113 3116 1747 
z
M 1159 2969 
Q 1341 3281 1617 3432 
Q 1894 3584 2278 3584 
Q 2916 3584 3314 3078 
Q 3713 2572 3713 1747 
Q 3713 922 3314 415 
Q 2916 -91 2278 -91 
Q 1894 -91 1617 61 
Q 1341 213 1159 525 
L 1159 0 
L 581 0 
L 581 4863 
L 1159 4863 
L 1159 2969 
z
" transform="scale(0.015625)"/>
      <path id="DejaVuSans-79" d="M 2059 -325 
Q 1816 -950 1584 -1140 
Q 1353 -1331 966 -1331 
L 506 -1331 
L 506 -850 
L 844 -850 
Q 1081 -850 1212 -737 
Q 1344 -625 1503 -206 
L 1606 56 
L 191 3500 
L 800 3500 
L 1894 763 
L 2988 3500 
L 3597 3500 
L 2059 -325 
z
" transform="scale(0.015625)"/>
      <path id="DejaVuSans-3a" d="M 750 794 
L 1409 794 
L 1409 0 
L 750 0 
L 750 794 
z
M 750 3309 
L 1409 3309 
L 1409 2516 
L 750 2516 
L 750 3309 
z
" transform="scale(0.015625)"/>
      <path id="DejaVuSans-35" d="M 691 4666 
L 3169 4666 
L 3169 4134 
L 1269 4134 
L 1269 2991 
Q 1406 3038 1543 3061 
Q 1681 3084 1819 3084 
Q 2600 3084 3056 2656 
Q 3513 2228 3513 1497 
Q 3513 744 3044 326 
Q 2575 -91 1722 -91 
Q 1428 -91 1123 -41 
Q 819 9 494 109 
L 494 744 
Q 775 591 1075 516 
Q 1375 441 1709 441 
Q 2250 441 2565 725 
Q 2881 1009 2881 1497 
Q 2881 1984 2565 2268 
Q 2250 2553 1709 2553 
Q 1456 2553 1204 2497 
Q 953 2441 691 2322 
L 691 4666 
z
" transform="scale(0.015625)"/>
      <path id="DejaVuSans-2c" d="M 750 794 
L 1409 794 
L 1409 256 
L 897 -744 
L 494 -744 
L 750 256 
L 750 794 
z
" transform="scale(0.015625)"/>
      <path id="DejaVuSans-2f" d="M 1625 4666 
L 2156 4666 
L 531 -594 
L 0 -594 
L 1625 4666 
z
" transform="scale(0.015625)"/>
     </defs>
     <use xlink:href="#DejaVuSans-62"/>
     <use xlink:href="#DejaVuSans-6c" x="63.476562"/>
     <use xlink:href="#DejaVuSans-6f" x="91.259766"/>
     <use xlink:href="#DejaVuSans-61" x="152.441406"/>
     <use xlink:href="#DejaVuSans-74" x="213.720703"/>
     <use xlink:href="#DejaVuSans-79" x="252.929688"/>
     <use xlink:href="#DejaVuSans-5f" x="312.109375"/>
     <use xlink:href="#DejaVuSans-66" x="362.109375"/>
     <use xlink:href="#DejaVuSans-75" x="397.314453"/>
     <use xlink:href="#DejaVuSans-7a" x="460.693359"/>
     <use xlink:href="#DejaVuSans-7a" x="513.183594"/>
     <use xlink:href="#DejaVuSans-5f" x="565.673828"/>
     <use xlink:href="#DejaVuSans-74" x="615.673828"/>
     <use xlink:href="#DejaVuSans-61" x="654.882812"/>
     <use xlink:href="#DejaVuSans-72" x="716.162109"/>
     <use xlink:href="#DejaVuSans-67" x="755.525391"/>
     <use xlink:href="#DejaVuSans-65" x="819.001953"/>
     <use xlink:href="#DejaVuSans-74" x="880.525391"/>
     <use xlink:href="#DejaVuSans-20" x="919.734375"/>
     <use xlink:href="#DejaVuSans-28" x="951.521484"/>
     <use xlink:href="#DejaVuSans-34" x="990.535156"/>
     <use xlink:href="#DejaVuSans-68" x="1054.158203"/>
     <use xlink:href="#DejaVuSans-3a" x="1117.537109"/>
     <use xlink:href="#DejaVuSans-31" x="1151.228516"/>
     <use xlink:href="#DejaVuSans-35" x="1214.851562"/>
     <use xlink:href="#DejaVuSans-6d" x="1278.474609"/>
     <use xlink:href="#DejaVuSans-2c" x="1375.886719"/>
     <use xlink:href="#DejaVuSans-20" x="1407.673828"/>
     <use xlink:href="#DejaVuSans-33" x="1439.460938"/>
     <use xlink:href="#DejaVuSans-20" x="1503.083984"/>
     <use xlink:href="#DejaVuSans-74" x="1534.871094"/>
     <use xlink:href="#DejaVuSans-72" x="1574.080078"/>
     <use xlink:href="#DejaVuSans-69" x="1615.193359"/>
     <use xlink:href="#DejaVuSans-61" x="1642.976562"/>
     <use xlink:href="#DejaVuSans-6c" x="1704.255859"/>
     <use xlink:href="#DejaVuSans-73" x="1732.039062"/>
     <use xlink:href="#DejaVuSans-2f" x="1784.138672"/>
     <use xlink:href="#DejaVuSans-66" x="1817.830078"/>
     <use xlink:href="#DejaVuSans-75" x="1853.035156"/>
     <use xlink:href="#DejaVuSans-7a" x="1916.414062"/>
     <use xlink:href="#DejaVuSans-7a" x="1968.904297"/>
     <use xlink:href="#DejaVuSans-65" x="2021.394531"/>
     <use xlink:href="#DejaVuSans-72" x="2082.917969"/>
     <use xlink:href="#DejaVuSans-29" x="2124.03125"/>
    </g>
   </g>
  </g>
 </g>
 <defs>
  <clipPath id="p5d56817101">
   <rect x="61.670275" y="22.318125" width="357.12" height="266.112"/>
  </clipPath>
 </defs>
</svg>
