<?xml version="1.0" encoding="utf-8" standalone="no"?>
<!DOCTYPE svg PUBLIC "-//W3C//DTD SVG 1.1//EN"
  "http://www.w3.org/Graphics/SVG/1.1/DTD/svg11.dtd">
<svg xmlns:xlink="http://www.w3.org/1999/xlink" width="435.910275pt" height="393.011865pt" viewBox="0 0 435.910275 393.011865" xmlns="http://www.w3.org/2000/svg" version="1.1">
 <metadata>
  <rdf:RDF xmlns:dc="http://purl.org/dc/elements/1.1/" xmlns:cc="http://creativecommons.org/ns#" xmlns:rdf="http://www.w3.org/1999/02/22-rdf-syntax-ns#">
   <cc:Work>
    <dc:type rdf:resource="http://purl.org/dc/dcmitype/StillImage"/>
    <dc:date>2022-06-05T19:46:14.198143</dc:date>
    <dc:format>image/svg+xml</dc:format>
    <dc:creator>
     <cc:Agent>
      <dc:title>Matplotlib v3.5.1, https://matplotlib.org/</dc:title>
     </cc:Agent>
    </dc:creator>
   </cc:Work>
  </rdf:RDF>
 </metadata>
 <defs>
  <style type="text/css">*{stroke-linejoin: round; stroke-linecap: butt}</style>
 </defs>
 <g id="figure_1">
  <g id="patch_1">
   <path d="M 0 393.011865 
L 435.910275 393.011865 
L 435.910275 -0 
L 0 -0 
z
" style="fill: #ffffff"/>
  </g>
  <g id="axes_1">
   <g id="patch_2">
    <path d="M 71.590275 288.430125 
L 428.710275 288.430125 
L 428.710275 22.318125 
L 71.590275 22.318125 
z
" style="fill: #ffffff"/>
   </g>
   <g id="PolyCollection_1">
    <defs>
     <path id="m70e724a2e2" d="M 91.525638 -153.674565 
L 91.334912 -153.674565 
L 91.317517 -155.725488 
L 91.297731 -157.776412 
L 91.275381 -159.827335 
L 91.25031 -161.878259 
L 91.222384 -163.929183 
L 91.191499 -165.980106 
L 91.157581 -168.03103 
L 91.120598 -170.081953 
L 91.08056 -172.132877 
L 91.037525 -174.1838 
L 90.991601 -176.234724 
L 90.942948 -178.285647 
L 90.891775 -180.336571 
L 90.838343 -182.387494 
L 90.782958 -184.438418 
L 90.725963 -186.489341 
L 90.66774 -188.540265 
L 90.608693 -190.591188 
L 90.549245 -192.642112 
L 90.489825 -194.693035 
L 90.43086 -196.743959 
L 90.372762 -198.794882 
L 90.315924 -200.845806 
L 90.260708 -202.896729 
L 90.207438 -204.947653 
L 90.156397 -206.998576 
L 90.107823 -209.0495 
L 90.061906 -211.100424 
L 90.018791 -213.151347 
L 89.978578 -215.202271 
L 89.941331 -217.253194 
L 89.907078 -219.304118 
L 89.875821 -221.355041 
L 89.847542 -223.405965 
L 89.82221 -225.456888 
L 89.799789 -227.507812 
L 89.780243 -229.558735 
L 89.763539 -231.609659 
L 89.749654 -233.660582 
L 89.738575 -235.711506 
L 89.730298 -237.762429 
L 89.724828 -239.813353 
L 89.722177 -241.864276 
L 89.722358 -243.9152 
L 89.725381 -245.966123 
L 89.731249 -248.017047 
L 89.739954 -250.06797 
L 89.751466 -252.118894 
L 89.765738 -254.169818 
L 89.782698 -256.220741 
L 89.802245 -258.271665 
L 89.824256 -260.322588 
L 89.84858 -262.373512 
L 89.875046 -264.424435 
L 89.903465 -266.475359 
L 89.933633 -268.526282 
L 89.965341 -270.577206 
L 89.998378 -272.628129 
L 90.032538 -274.679053 
L 90.067627 -276.729976 
L 90.103466 -278.7809 
L 90.139899 -280.831823 
L 90.176793 -282.882747 
L 90.214043 -284.93367 
L 90.251567 -286.984594 
L 90.289312 -289.035517 
L 90.327247 -291.086441 
L 90.36536 -293.137364 
L 90.403656 -295.188288 
L 90.442148 -297.239211 
L 90.480853 -299.290135 
L 90.519787 -301.341059 
L 90.558957 -303.391982 
L 90.598358 -305.442906 
L 90.63797 -307.493829 
L 90.677749 -309.544753 
L 90.717633 -311.595676 
L 90.757533 -313.6466 
L 90.797342 -315.697523 
L 90.836927 -317.748447 
L 90.876142 -319.79937 
L 90.914826 -321.850294 
L 90.952806 -323.901217 
L 90.989908 -325.952141 
L 91.025957 -328.003064 
L 91.060786 -330.053988 
L 91.094237 -332.104911 
L 91.126168 -334.155835 
L 91.156459 -336.206758 
L 91.185008 -338.257682 
L 91.211741 -340.308605 
L 91.236606 -342.359529 
L 91.25958 -344.410453 
L 91.280662 -346.461376 
L 91.299876 -348.5123 
L 91.317269 -350.563223 
L 91.332904 -352.614147 
L 91.346862 -354.66507 
L 91.359236 -356.715994 
L 91.501313 -356.715994 
L 91.501313 -356.715994 
L 91.513688 -354.66507 
L 91.527646 -352.614147 
L 91.543281 -350.563223 
L 91.560673 -348.5123 
L 91.579888 -346.461376 
L 91.60097 -344.410453 
L 91.623943 -342.359529 
L 91.648809 -340.308605 
L 91.675541 -338.257682 
L 91.704091 -336.206758 
L 91.734381 -334.155835 
L 91.766313 -332.104911 
L 91.799764 -330.053988 
L 91.834592 -328.003064 
L 91.870642 -325.952141 
L 91.907744 -323.901217 
L 91.945724 -321.850294 
L 91.984407 -319.79937 
L 92.023622 -317.748447 
L 92.063208 -315.697523 
L 92.103016 -313.6466 
L 92.142917 -311.595676 
L 92.1828 -309.544753 
L 92.22258 -307.493829 
L 92.262191 -305.442906 
L 92.301593 -303.391982 
L 92.340763 -301.341059 
L 92.379696 -299.290135 
L 92.418401 -297.239211 
L 92.456893 -295.188288 
L 92.495189 -293.137364 
L 92.533303 -291.086441 
L 92.571238 -289.035517 
L 92.608983 -286.984594 
L 92.646507 -284.93367 
L 92.683756 -282.882747 
L 92.72065 -280.831823 
L 92.757084 -278.7809 
L 92.792923 -276.729976 
L 92.828011 -274.679053 
L 92.862171 -272.628129 
L 92.895208 -270.577206 
L 92.926916 -268.526282 
L 92.957085 -266.475359 
L 92.985503 -264.424435 
L 93.01197 -262.373512 
L 93.036294 -260.322588 
L 93.058305 -258.271665 
L 93.077852 -256.220741 
L 93.094811 -254.169818 
L 93.109083 -252.118894 
L 93.120596 -250.06797 
L 93.1293 -248.017047 
L 93.135169 -245.966123 
L 93.138192 -243.9152 
L 93.138372 -241.864276 
L 93.135721 -239.813353 
L 93.130251 -237.762429 
L 93.121974 -235.711506 
L 93.110895 -233.660582 
L 93.09701 -231.609659 
L 93.080307 -229.558735 
L 93.06076 -227.507812 
L 93.038339 -225.456888 
L 93.013007 -223.405965 
L 92.984728 -221.355041 
L 92.953471 -219.304118 
L 92.919218 -217.253194 
L 92.881971 -215.202271 
L 92.841759 -213.151347 
L 92.798643 -211.100424 
L 92.752726 -209.0495 
L 92.704152 -206.998576 
L 92.653112 -204.947653 
L 92.599842 -202.896729 
L 92.544626 -200.845806 
L 92.487788 -198.794882 
L 92.42969 -196.743959 
L 92.370724 -194.693035 
L 92.311304 -192.642112 
L 92.251856 -190.591188 
L 92.192809 -188.540265 
L 92.134586 -186.489341 
L 92.077592 -184.438418 
L 92.022206 -182.387494 
L 91.968774 -180.336571 
L 91.917602 -178.285647 
L 91.868949 -176.234724 
L 91.823025 -174.1838 
L 91.77999 -172.132877 
L 91.739952 -170.081953 
L 91.702969 -168.03103 
L 91.669051 -165.980106 
L 91.638165 -163.929183 
L 91.61024 -161.878259 
L 91.585169 -159.827335 
L 91.562818 -157.776412 
L 91.543032 -155.725488 
L 91.525638 -153.674565 
z
" style="stroke: #3d3d3d; stroke-width: 1.5"/>
    </defs>
    <g clip-path="url(#pdf4ad066f9)">
     <use xlink:href="#m70e724a2e2" x="0" y="393.011865" style="fill: #c7c7c7; stroke: #3d3d3d; stroke-width: 1.5"/>
    </g>
   </g>
   <g id="PolyCollection_2">
    <defs>
     <path id="maac96335ac" d="M 131.231701 -135.939496 
L 130.988848 -135.939496 
L 130.968458 -137.797526 
L 130.945576 -139.655556 
L 130.920074 -141.513586 
L 130.891854 -143.371616 
L 130.860846 -145.229647 
L 130.827022 -147.087677 
L 130.790394 -148.945707 
L 130.751024 -150.803737 
L 130.709026 -152.661767 
L 130.664566 -154.519797 
L 130.617869 -156.377827 
L 130.569212 -158.235857 
L 130.518925 -160.093887 
L 130.467386 -161.951917 
L 130.415016 -163.809947 
L 130.362267 -165.667977 
L 130.309615 -167.526007 
L 130.257548 -169.384037 
L 130.206554 -171.242067 
L 130.157106 -173.100098 
L 130.109648 -174.958128 
L 130.064583 -176.816158 
L 130.022262 -178.674188 
L 129.982966 -180.532218 
L 129.946904 -182.390248 
L 129.9142 -184.248278 
L 129.884891 -186.106308 
L 129.858924 -187.964338 
L 129.836158 -189.822368 
L 129.816366 -191.680398 
L 129.799244 -193.538428 
L 129.784422 -195.396458 
L 129.771473 -197.254488 
L 129.759932 -199.112519 
L 129.749308 -200.970549 
L 129.739102 -202.828579 
L 129.728828 -204.686609 
L 129.718023 -206.544639 
L 129.706271 -208.402669 
L 129.693209 -210.260699 
L 129.678549 -212.118729 
L 129.662082 -213.976759 
L 129.643686 -215.834789 
L 129.623334 -217.692819 
L 129.601094 -219.550849 
L 129.577128 -221.408879 
L 129.551687 -223.266909 
L 129.525108 -225.124939 
L 129.497801 -226.98297 
L 129.470239 -228.841 
L 129.442948 -230.69903 
L 129.416491 -232.55706 
L 129.391453 -234.41509 
L 129.368429 -236.27312 
L 129.348006 -238.13115 
L 129.330749 -239.98918 
L 129.317193 -241.84721 
L 129.307821 -243.70524 
L 129.303063 -245.56327 
L 129.303281 -247.4213 
L 129.308762 -249.27933 
L 129.319715 -251.13736 
L 129.336267 -252.99539 
L 129.358458 -254.853421 
L 129.386245 -256.711451 
L 129.419505 -258.569481 
L 129.458033 -260.427511 
L 129.501554 -262.285541 
L 129.549725 -264.143571 
L 129.602146 -266.001601 
L 129.658366 -267.859631 
L 129.717893 -269.717661 
L 129.780205 -271.575691 
L 129.844758 -273.433721 
L 129.910999 -275.291751 
L 129.97837 -277.149781 
L 130.046324 -279.007811 
L 130.114327 -280.865841 
L 130.181871 -282.723872 
L 130.248478 -284.581902 
L 130.313709 -286.439932 
L 130.377162 -288.297962 
L 130.438486 -290.155992 
L 130.497373 -292.014022 
L 130.553569 -293.872052 
L 130.606868 -295.730082 
L 130.657112 -297.588112 
L 130.704195 -299.446142 
L 130.748055 -301.304172 
L 130.788673 -303.162202 
L 130.826069 -305.020232 
L 130.8603 -306.878262 
L 130.891452 -308.736293 
L 130.91964 -310.594323 
L 130.944999 -312.452353 
L 130.967683 -314.310383 
L 130.987857 -316.168413 
L 131.005697 -318.026443 
L 131.021382 -319.884473 
L 131.199168 -319.884473 
L 131.199168 -319.884473 
L 131.214853 -318.026443 
L 131.232692 -316.168413 
L 131.252867 -314.310383 
L 131.27555 -312.452353 
L 131.300909 -310.594323 
L 131.329097 -308.736293 
L 131.36025 -306.878262 
L 131.39448 -305.020232 
L 131.431877 -303.162202 
L 131.472494 -301.304172 
L 131.516354 -299.446142 
L 131.563437 -297.588112 
L 131.613682 -295.730082 
L 131.66698 -293.872052 
L 131.723176 -292.014022 
L 131.782064 -290.155992 
L 131.843387 -288.297962 
L 131.906841 -286.439932 
L 131.972071 -284.581902 
L 132.038679 -282.723872 
L 132.106223 -280.865841 
L 132.174226 -279.007811 
L 132.242179 -277.149781 
L 132.309551 -275.291751 
L 132.375791 -273.433721 
L 132.440345 -271.575691 
L 132.502657 -269.717661 
L 132.562184 -267.859631 
L 132.618403 -266.001601 
L 132.670824 -264.143571 
L 132.718996 -262.285541 
L 132.762516 -260.427511 
L 132.801045 -258.569481 
L 132.834304 -256.711451 
L 132.862092 -254.853421 
L 132.884283 -252.99539 
L 132.900834 -251.13736 
L 132.911788 -249.27933 
L 132.917269 -247.4213 
L 132.917486 -245.56327 
L 132.912728 -243.70524 
L 132.903357 -241.84721 
L 132.8898 -239.98918 
L 132.872544 -238.13115 
L 132.85212 -236.27312 
L 132.829096 -234.41509 
L 132.804059 -232.55706 
L 132.777601 -230.69903 
L 132.750311 -228.841 
L 132.722749 -226.98297 
L 132.695441 -225.124939 
L 132.668862 -223.266909 
L 132.643422 -221.408879 
L 132.619455 -219.550849 
L 132.597215 -217.692819 
L 132.576864 -215.834789 
L 132.558468 -213.976759 
L 132.542 -212.118729 
L 132.52734 -210.260699 
L 132.514279 -208.402669 
L 132.502526 -206.544639 
L 132.491722 -204.686609 
L 132.481447 -202.828579 
L 132.471242 -200.970549 
L 132.460618 -199.112519 
L 132.449076 -197.254488 
L 132.436128 -195.396458 
L 132.421306 -193.538428 
L 132.404184 -191.680398 
L 132.384392 -189.822368 
L 132.361625 -187.964338 
L 132.335658 -186.106308 
L 132.30635 -184.248278 
L 132.273646 -182.390248 
L 132.237584 -180.532218 
L 132.198288 -178.674188 
L 132.155966 -176.816158 
L 132.110902 -174.958128 
L 132.063444 -173.100098 
L 132.013995 -171.242067 
L 131.963001 -169.384037 
L 131.910935 -167.526007 
L 131.858283 -165.667977 
L 131.805534 -163.809947 
L 131.753163 -161.951917 
L 131.701625 -160.093887 
L 131.651338 -158.235857 
L 131.602681 -156.377827 
L 131.555984 -154.519797 
L 131.511524 -152.661767 
L 131.469525 -150.803737 
L 131.430155 -148.945707 
L 131.393528 -147.087677 
L 131.359703 -145.229647 
L 131.328696 -143.371616 
L 131.300475 -141.513586 
L 131.274974 -139.655556 
L 131.252091 -137.797526 
L 131.231701 -135.939496 
z
" style="stroke: #3d3d3d; stroke-width: 1.5"/>
    </defs>
    <g clip-path="url(#pdf4ad066f9)">
     <use xlink:href="#maac96335ac" x="0" y="393.011865" style="fill: #f2a5a3; stroke: #3d3d3d; stroke-width: 1.5"/>
    </g>
   </g>
   <g id="PolyCollection_3">
    <defs>
     <path id="mdefc736ce5" d="M 170.91386 -147.238041 
L 170.66669 -147.238041 
L 170.644856 -149.136396 
L 170.620171 -151.034751 
L 170.59246 -152.933107 
L 170.561573 -154.831462 
L 170.527394 -156.729817 
L 170.489846 -158.628172 
L 170.448897 -160.526528 
L 170.404567 -162.424883 
L 170.35693 -164.323238 
L 170.306122 -166.221593 
L 170.252338 -168.119949 
L 170.195833 -170.018304 
L 170.136924 -171.916659 
L 170.07598 -173.815015 
L 170.013418 -175.71337 
L 169.949697 -177.611725 
L 169.885306 -179.51008 
L 169.820753 -181.408436 
L 169.756552 -183.306791 
L 169.693212 -185.205146 
L 169.631223 -187.103501 
L 169.571044 -189.001857 
L 169.513092 -190.900212 
L 169.457731 -192.798567 
L 169.405267 -194.696923 
L 169.35594 -196.595278 
L 169.309923 -198.493633 
L 169.267324 -200.391988 
L 169.228184 -202.290344 
L 169.192487 -204.188699 
L 169.160168 -206.087054 
L 169.131118 -207.985409 
L 169.105199 -209.883765 
L 169.082255 -211.78212 
L 169.062122 -213.680475 
L 169.04464 -215.57883 
L 169.029666 -217.477186 
L 169.017075 -219.375541 
L 169.006773 -221.273896 
L 168.998702 -223.172252 
L 168.992832 -225.070607 
L 168.989173 -226.968962 
L 168.987762 -228.867317 
L 168.988661 -230.765673 
L 168.99195 -232.664028 
L 168.997721 -234.562383 
L 169.006063 -236.460738 
L 169.017059 -238.359094 
L 169.030774 -240.257449 
L 169.04725 -242.155804 
L 169.066496 -244.054159 
L 169.088487 -245.952515 
L 169.113157 -247.85087 
L 169.140404 -249.749225 
L 169.170087 -251.647581 
L 169.202034 -253.545936 
L 169.236043 -255.444291 
L 169.271889 -257.342646 
L 169.309336 -259.241002 
L 169.348141 -261.139357 
L 169.388063 -263.037712 
L 169.428872 -264.936067 
L 169.470354 -266.834423 
L 169.512319 -268.732778 
L 169.554602 -270.631133 
L 169.597068 -272.529489 
L 169.63961 -274.427844 
L 169.682151 -276.326199 
L 169.724639 -278.224554 
L 169.767041 -280.12291 
L 169.809344 -282.021265 
L 169.851542 -283.91962 
L 169.893634 -285.817975 
L 169.935618 -287.716331 
L 169.977482 -289.614686 
L 170.019205 -291.513041 
L 170.060746 -293.411396 
L 170.102049 -295.309752 
L 170.143035 -297.208107 
L 170.183609 -299.106462 
L 170.223654 -301.004818 
L 170.26304 -302.903173 
L 170.301626 -304.801528 
L 170.339262 -306.699883 
L 170.375796 -308.598239 
L 170.411079 -310.496594 
L 170.444967 -312.394949 
L 170.477332 -314.293304 
L 170.508058 -316.19166 
L 170.53705 -318.090015 
L 170.564234 -319.98837 
L 170.589561 -321.886725 
L 170.613003 -323.785081 
L 170.634558 -325.683436 
L 170.654246 -327.581791 
L 170.672107 -329.480147 
L 170.688202 -331.378502 
L 170.702607 -333.276857 
L 170.715411 -335.175212 
L 170.865138 -335.175212 
L 170.865138 -335.175212 
L 170.877943 -333.276857 
L 170.892348 -331.378502 
L 170.908443 -329.480147 
L 170.926304 -327.581791 
L 170.945991 -325.683436 
L 170.967546 -323.785081 
L 170.990988 -321.886725 
L 171.016315 -319.98837 
L 171.0435 -318.090015 
L 171.072492 -316.19166 
L 171.103218 -314.293304 
L 171.135582 -312.394949 
L 171.169471 -310.496594 
L 171.204753 -308.598239 
L 171.241287 -306.699883 
L 171.278923 -304.801528 
L 171.317509 -302.903173 
L 171.356896 -301.004818 
L 171.396941 -299.106462 
L 171.437514 -297.208107 
L 171.478501 -295.309752 
L 171.519803 -293.411396 
L 171.561345 -291.513041 
L 171.603067 -289.614686 
L 171.644932 -287.716331 
L 171.686915 -285.817975 
L 171.729008 -283.91962 
L 171.771206 -282.021265 
L 171.813508 -280.12291 
L 171.855911 -278.224554 
L 171.898398 -276.326199 
L 171.94094 -274.427844 
L 171.983482 -272.529489 
L 172.025948 -270.631133 
L 172.068231 -268.732778 
L 172.110195 -266.834423 
L 172.151678 -264.936067 
L 172.192486 -263.037712 
L 172.232409 -261.139357 
L 172.271213 -259.241002 
L 172.30866 -257.342646 
L 172.344507 -255.444291 
L 172.378515 -253.545936 
L 172.410462 -251.647581 
L 172.440146 -249.749225 
L 172.467393 -247.85087 
L 172.492063 -245.952515 
L 172.514053 -244.054159 
L 172.533299 -242.155804 
L 172.549775 -240.257449 
L 172.563491 -238.359094 
L 172.574487 -236.460738 
L 172.582829 -234.562383 
L 172.588599 -232.664028 
L 172.591889 -230.765673 
L 172.592787 -228.867317 
L 172.591376 -226.968962 
L 172.587717 -225.070607 
L 172.581848 -223.172252 
L 172.573776 -221.273896 
L 172.563475 -219.375541 
L 172.550884 -217.477186 
L 172.535909 -215.57883 
L 172.518428 -213.680475 
L 172.498295 -211.78212 
L 172.475351 -209.883765 
L 172.449432 -207.985409 
L 172.420382 -206.087054 
L 172.388062 -204.188699 
L 172.352366 -202.290344 
L 172.313226 -200.391988 
L 172.270626 -198.493633 
L 172.22461 -196.595278 
L 172.175283 -194.696923 
L 172.122819 -192.798567 
L 172.067458 -190.900212 
L 172.009506 -189.001857 
L 171.949327 -187.103501 
L 171.887338 -185.205146 
L 171.823998 -183.306791 
L 171.759797 -181.408436 
L 171.695243 -179.51008 
L 171.630852 -177.611725 
L 171.567131 -175.71337 
L 171.50457 -173.815015 
L 171.443625 -171.916659 
L 171.384716 -170.018304 
L 171.328212 -168.119949 
L 171.274427 -166.221593 
L 171.223619 -164.323238 
L 171.175983 -162.424883 
L 171.131652 -160.526528 
L 171.090703 -158.628172 
L 171.053155 -156.729817 
L 171.018977 -154.831462 
L 170.98809 -152.933107 
L 170.960378 -151.034751 
L 170.935693 -149.136396 
L 170.91386 -147.238041 
z
" style="stroke: #3d3d3d; stroke-width: 1.5"/>
    </defs>
    <g clip-path="url(#pdf4ad066f9)">
     <use xlink:href="#mdefc736ce5" x="0" y="393.011865" style="fill: #e1812c; stroke: #3d3d3d; stroke-width: 1.5"/>
    </g>
   </g>
   <g id="PolyCollection_4">
    <defs>
     <path id="m0e301094a2" d="M 210.541274 -122.514243 
L 210.399276 -122.514243 
L 210.386122 -124.898925 
L 210.371073 -127.283606 
L 210.353961 -129.668288 
L 210.334623 -132.05297 
L 210.312902 -134.437652 
L 210.288652 -136.822333 
L 210.261742 -139.207015 
L 210.232059 -141.591697 
L 210.199514 -143.976379 
L 210.164043 -146.361061 
L 210.125615 -148.745742 
L 210.084233 -151.130424 
L 210.039935 -153.515106 
L 209.992803 -155.899788 
L 209.942959 -158.28447 
L 209.890571 -160.669151 
L 209.835853 -163.053833 
L 209.779064 -165.438515 
L 209.72051 -167.823197 
L 209.66054 -170.207879 
L 209.599547 -172.59256 
L 209.537963 -174.977242 
L 209.476255 -177.361924 
L 209.414922 -179.746606 
L 209.354486 -182.131288 
L 209.295486 -184.515969 
L 209.238472 -186.900651 
L 209.183994 -189.285333 
L 209.132592 -191.670015 
L 209.084785 -194.054697 
L 209.041062 -196.439378 
L 209.001872 -198.82406 
L 208.967608 -201.208742 
L 208.938602 -203.593424 
L 208.915114 -205.978106 
L 208.897321 -208.362787 
L 208.885316 -210.747469 
L 208.879099 -213.132151 
L 208.878579 -215.516833 
L 208.883569 -217.901515 
L 208.893797 -220.286196 
L 208.908905 -222.670878 
L 208.928462 -225.05556 
L 208.951974 -227.440242 
L 208.978894 -229.824923 
L 209.008645 -232.209605 
L 209.040626 -234.594287 
L 209.074234 -236.978969 
L 209.108881 -239.363651 
L 209.144006 -241.748332 
L 209.179093 -244.133014 
L 209.213682 -246.517696 
L 209.247379 -248.902378 
L 209.279864 -251.28706 
L 209.310898 -253.671741 
L 209.340324 -256.056423 
L 209.368064 -258.441105 
L 209.39412 -260.825787 
L 209.418568 -263.210469 
L 209.441545 -265.59515 
L 209.463246 -267.979832 
L 209.483909 -270.364514 
L 209.503806 -272.749196 
L 209.523227 -275.133878 
L 209.542473 -277.518559 
L 209.561841 -279.903241 
L 209.581615 -282.287923 
L 209.602053 -284.672605 
L 209.623384 -287.057287 
L 209.645796 -289.441968 
L 209.669436 -291.82665 
L 209.694401 -294.211332 
L 209.72074 -296.596014 
L 209.748452 -298.980696 
L 209.77749 -301.365377 
L 209.807759 -303.750059 
L 209.839127 -306.134741 
L 209.871423 -308.519423 
L 209.904448 -310.904105 
L 209.937978 -313.288786 
L 209.971776 -315.673468 
L 210.005594 -318.05815 
L 210.03918 -320.442832 
L 210.072289 -322.827514 
L 210.104687 -325.212195 
L 210.136154 -327.596877 
L 210.166492 -329.981559 
L 210.195526 -332.366241 
L 210.223111 -334.750922 
L 210.249128 -337.135604 
L 210.273489 -339.520286 
L 210.296136 -341.904968 
L 210.317038 -344.28965 
L 210.336192 -346.674331 
L 210.35362 -349.059013 
L 210.369366 -351.443695 
L 210.383491 -353.828377 
L 210.396074 -356.213059 
L 210.407205 -358.59774 
L 210.533344 -358.59774 
L 210.533344 -358.59774 
L 210.544475 -356.213059 
L 210.557058 -353.828377 
L 210.571184 -351.443695 
L 210.586929 -349.059013 
L 210.604358 -346.674331 
L 210.623512 -344.28965 
L 210.644414 -341.904968 
L 210.66706 -339.520286 
L 210.691421 -337.135604 
L 210.717438 -334.750922 
L 210.745023 -332.366241 
L 210.774058 -329.981559 
L 210.804396 -327.596877 
L 210.835863 -325.212195 
L 210.86826 -322.827514 
L 210.90137 -320.442832 
L 210.934956 -318.05815 
L 210.968773 -315.673468 
L 211.002571 -313.288786 
L 211.036102 -310.904105 
L 211.069127 -308.519423 
L 211.101423 -306.134741 
L 211.13279 -303.750059 
L 211.16306 -301.365377 
L 211.192098 -298.980696 
L 211.21981 -296.596014 
L 211.246148 -294.211332 
L 211.271113 -291.82665 
L 211.294753 -289.441968 
L 211.317166 -287.057287 
L 211.338497 -284.672605 
L 211.358935 -282.287923 
L 211.378708 -279.903241 
L 211.398076 -277.518559 
L 211.417323 -275.133878 
L 211.436744 -272.749196 
L 211.45664 -270.364514 
L 211.477304 -267.979832 
L 211.499005 -265.59515 
L 211.521982 -263.210469 
L 211.546429 -260.825787 
L 211.572486 -258.441105 
L 211.600226 -256.056423 
L 211.629651 -253.671741 
L 211.660685 -251.28706 
L 211.69317 -248.902378 
L 211.726867 -246.517696 
L 211.761456 -244.133014 
L 211.796544 -241.748332 
L 211.831669 -239.363651 
L 211.866316 -236.978969 
L 211.899924 -234.594287 
L 211.931905 -232.209605 
L 211.961655 -229.824923 
L 211.988576 -227.440242 
L 212.012087 -225.05556 
L 212.031644 -222.670878 
L 212.046752 -220.286196 
L 212.05698 -217.901515 
L 212.061971 -215.516833 
L 212.06145 -213.132151 
L 212.055234 -210.747469 
L 212.043229 -208.362787 
L 212.025436 -205.978106 
L 212.001947 -203.593424 
L 211.972942 -201.208742 
L 211.938678 -198.82406 
L 211.899487 -196.439378 
L 211.855765 -194.054697 
L 211.807958 -191.670015 
L 211.756555 -189.285333 
L 211.702077 -186.900651 
L 211.645064 -184.515969 
L 211.586064 -182.131288 
L 211.525628 -179.746606 
L 211.464294 -177.361924 
L 211.402586 -174.977242 
L 211.341002 -172.59256 
L 211.280009 -170.207879 
L 211.220039 -167.823197 
L 211.161485 -165.438515 
L 211.104696 -163.053833 
L 211.049978 -160.669151 
L 210.99759 -158.28447 
L 210.947747 -155.899788 
L 210.900614 -153.515106 
L 210.856317 -151.130424 
L 210.814934 -148.745742 
L 210.776506 -146.361061 
L 210.741036 -143.976379 
L 210.70849 -141.591697 
L 210.678807 -139.207015 
L 210.651897 -136.822333 
L 210.627647 -134.437652 
L 210.605926 -132.05297 
L 210.586588 -129.668288 
L 210.569477 -127.283606 
L 210.554427 -124.898925 
L 210.541274 -122.514243 
z
" style="stroke: #3d3d3d; stroke-width: 1.5"/>
    </defs>
    <g clip-path="url(#pdf4ad066f9)">
     <use xlink:href="#m0e301094a2" x="0" y="393.011865" style="fill: #9fd495; stroke: #3d3d3d; stroke-width: 1.5"/>
    </g>
   </g>
   <g id="PolyCollection_5">
    <defs>
     <path id="m992756db52" d="M 250.267572 -116.67774 
L 250.032977 -116.67774 
L 250.01384 -118.357508 
L 249.992352 -120.037276 
L 249.968368 -121.717043 
L 249.941755 -123.396811 
L 249.912401 -125.076579 
L 249.880219 -126.756346 
L 249.84515 -128.436114 
L 249.80717 -130.115882 
L 249.766294 -131.795649 
L 249.722576 -133.475417 
L 249.676118 -135.155185 
L 249.62707 -136.834952 
L 249.575629 -138.51472 
L 249.522041 -140.194488 
L 249.466603 -141.874255 
L 249.409654 -143.554023 
L 249.351578 -145.233791 
L 249.292797 -146.913558 
L 249.233763 -148.593326 
L 249.174951 -150.273094 
L 249.116855 -151.952861 
L 249.059971 -153.632629 
L 249.004794 -155.312397 
L 248.951806 -156.992164 
L 248.901462 -158.671932 
L 248.854185 -160.3517 
L 248.810352 -162.031467 
L 248.770285 -163.711235 
L 248.734247 -165.391003 
L 248.702429 -167.07077 
L 248.674949 -168.750538 
L 248.651846 -170.430306 
L 248.633075 -172.110073 
L 248.618513 -173.789841 
L 248.607956 -175.469609 
L 248.60112 -177.149376 
L 248.597653 -178.829144 
L 248.597137 -180.508912 
L 248.599098 -182.188679 
L 248.603015 -183.868447 
L 248.608337 -185.548215 
L 248.614487 -187.227982 
L 248.620886 -188.90775 
L 248.62696 -190.587518 
L 248.632156 -192.267285 
L 248.635959 -193.947053 
L 248.637905 -195.626821 
L 248.637595 -197.306588 
L 248.634706 -198.986356 
L 248.629002 -200.666124 
L 248.620344 -202.345891 
L 248.608698 -204.025659 
L 248.594134 -205.705427 
L 248.576835 -207.385195 
L 248.557087 -209.064962 
L 248.535284 -210.74473 
L 248.511911 -212.424498 
L 248.487542 -214.104265 
L 248.462822 -215.784033 
L 248.438454 -217.463801 
L 248.415179 -219.143568 
L 248.393761 -220.823336 
L 248.374965 -222.503104 
L 248.359536 -224.182871 
L 248.348181 -225.862639 
L 248.341548 -227.542407 
L 248.340212 -229.222174 
L 248.344652 -230.901942 
L 248.355247 -232.58171 
L 248.372261 -234.261477 
L 248.395835 -235.941245 
L 248.425987 -237.621013 
L 248.462612 -239.30078 
L 248.505482 -240.980548 
L 248.554258 -242.660316 
L 248.608498 -244.340083 
L 248.667665 -246.019851 
L 248.73115 -247.699619 
L 248.798282 -249.379386 
L 248.868347 -251.059154 
L 248.940606 -252.738922 
L 249.014311 -254.418689 
L 249.088722 -256.098457 
L 249.163125 -257.778225 
L 249.236841 -259.457992 
L 249.309243 -261.13776 
L 249.379761 -262.817528 
L 249.447895 -264.497295 
L 249.513214 -266.177063 
L 249.575363 -267.856831 
L 249.634065 -269.536598 
L 249.689114 -271.216366 
L 249.740377 -272.896134 
L 249.787788 -274.575901 
L 249.831343 -276.255669 
L 249.87109 -277.935437 
L 249.907127 -279.615204 
L 249.93959 -281.294972 
L 249.968649 -282.97474 
L 250.3319 -282.97474 
L 250.3319 -282.97474 
L 250.36096 -281.294972 
L 250.393423 -279.615204 
L 250.42946 -277.935437 
L 250.469207 -276.255669 
L 250.512761 -274.575901 
L 250.560172 -272.896134 
L 250.611436 -271.216366 
L 250.666484 -269.536598 
L 250.725186 -267.856831 
L 250.787336 -266.177063 
L 250.852655 -264.497295 
L 250.920788 -262.817528 
L 250.991307 -261.13776 
L 251.063708 -259.457992 
L 251.137425 -257.778225 
L 251.211827 -256.098457 
L 251.286239 -254.418689 
L 251.359943 -252.738922 
L 251.432202 -251.059154 
L 251.502267 -249.379386 
L 251.569399 -247.699619 
L 251.632885 -246.019851 
L 251.692052 -244.340083 
L 251.746291 -242.660316 
L 251.795067 -240.980548 
L 251.837938 -239.30078 
L 251.874563 -237.621013 
L 251.904715 -235.941245 
L 251.928289 -234.261477 
L 251.945302 -232.58171 
L 251.955897 -230.901942 
L 251.960338 -229.222174 
L 251.959001 -227.542407 
L 251.952369 -225.862639 
L 251.941014 -224.182871 
L 251.925585 -222.503104 
L 251.906789 -220.823336 
L 251.885371 -219.143568 
L 251.862096 -217.463801 
L 251.837727 -215.784033 
L 251.813007 -214.104265 
L 251.788638 -212.424498 
L 251.765266 -210.74473 
L 251.743462 -209.064962 
L 251.723715 -207.385195 
L 251.706415 -205.705427 
L 251.691852 -204.025659 
L 251.680205 -202.345891 
L 251.671548 -200.666124 
L 251.665844 -198.986356 
L 251.662954 -197.306588 
L 251.662644 -195.626821 
L 251.664591 -193.947053 
L 251.668394 -192.267285 
L 251.67359 -190.587518 
L 251.679663 -188.90775 
L 251.686062 -187.227982 
L 251.692213 -185.548215 
L 251.697534 -183.868447 
L 251.701452 -182.188679 
L 251.703412 -180.508912 
L 251.702896 -178.829144 
L 251.699429 -177.149376 
L 251.692594 -175.469609 
L 251.682036 -173.789841 
L 251.667475 -172.110073 
L 251.648704 -170.430306 
L 251.6256 -168.750538 
L 251.59812 -167.07077 
L 251.566302 -165.391003 
L 251.530264 -163.711235 
L 251.490198 -162.031467 
L 251.446364 -160.3517 
L 251.399087 -158.671932 
L 251.348744 -156.992164 
L 251.295755 -155.312397 
L 251.240579 -153.632629 
L 251.183695 -151.952861 
L 251.125598 -150.273094 
L 251.066786 -148.593326 
L 251.007752 -146.913558 
L 250.948971 -145.233791 
L 250.890896 -143.554023 
L 250.833947 -141.874255 
L 250.778508 -140.194488 
L 250.724921 -138.51472 
L 250.673479 -136.834952 
L 250.624431 -135.155185 
L 250.577974 -133.475417 
L 250.534256 -131.795649 
L 250.493379 -130.115882 
L 250.455399 -128.436114 
L 250.420331 -126.756346 
L 250.388148 -125.076579 
L 250.358795 -123.396811 
L 250.332182 -121.717043 
L 250.308197 -120.037276 
L 250.28671 -118.357508 
L 250.267572 -116.67774 
z
" style="stroke: #3d3d3d; stroke-width: 1.5"/>
    </defs>
    <g clip-path="url(#pdf4ad066f9)">
     <use xlink:href="#m992756db52" x="0" y="393.011865" style="fill: #c03d3e; stroke: #3d3d3d; stroke-width: 1.5"/>
    </g>
   </g>
   <g id="PolyCollection_6">
    <defs>
     <path id="m58dee267f8" d="M 289.932071 -138.682251 
L 289.728478 -138.682251 
L 289.7097 -140.180804 
L 289.688403 -141.679357 
L 289.664438 -143.17791 
L 289.63768 -144.676463 
L 289.608035 -146.175016 
L 289.575441 -147.673569 
L 289.539876 -149.172123 
L 289.501357 -150.670676 
L 289.459939 -152.169229 
L 289.415719 -153.667782 
L 289.368825 -155.166335 
L 289.319418 -156.664888 
L 289.267678 -158.163441 
L 289.213799 -159.661994 
L 289.157975 -161.160547 
L 289.100394 -162.6591 
L 289.041221 -164.157653 
L 288.980591 -165.656206 
L 288.918602 -167.154759 
L 288.8553 -168.653312 
L 288.790686 -170.151866 
L 288.724709 -171.650419 
L 288.65727 -173.148972 
L 288.588232 -174.647525 
L 288.517435 -176.146078 
L 288.444703 -177.644631 
L 288.369876 -179.143184 
L 288.292822 -180.641737 
L 288.213466 -182.14029 
L 288.131811 -183.638843 
L 288.047965 -185.137396 
L 287.962157 -186.635949 
L 287.874754 -188.134502 
L 287.786276 -189.633055 
L 287.697396 -191.131608 
L 287.608944 -192.630162 
L 287.521888 -194.128715 
L 287.437327 -195.627268 
L 287.356459 -197.125821 
L 287.280551 -198.624374 
L 287.210904 -200.122927 
L 287.148809 -201.62148 
L 287.0955 -203.120033 
L 287.052116 -204.618586 
L 287.019652 -206.117139 
L 286.998919 -207.615692 
L 286.990512 -209.114245 
L 286.99478 -210.612798 
L 287.011806 -212.111351 
L 287.0414 -213.609905 
L 287.0831 -215.108458 
L 287.13618 -216.607011 
L 287.199673 -218.105564 
L 287.272406 -219.604117 
L 287.35303 -221.10267 
L 287.440074 -222.601223 
L 287.531989 -224.099776 
L 287.627202 -225.598329 
L 287.724166 -227.096882 
L 287.821408 -228.595435 
L 287.917578 -230.093988 
L 288.01148 -231.592541 
L 288.102109 -233.091094 
L 288.188668 -234.589648 
L 288.27058 -236.088201 
L 288.347493 -237.586754 
L 288.419268 -239.085307 
L 288.485967 -240.58386 
L 288.547829 -242.082413 
L 288.605238 -243.580966 
L 288.658695 -245.079519 
L 288.708779 -246.578072 
L 288.75611 -248.076625 
L 288.801319 -249.575178 
L 288.845012 -251.073731 
L 288.887742 -252.572284 
L 288.92999 -254.070837 
L 288.972146 -255.569391 
L 289.014495 -257.067944 
L 289.05722 -258.566497 
L 289.100395 -260.06505 
L 289.143997 -261.563603 
L 289.187911 -263.062156 
L 289.231952 -264.560709 
L 289.275871 -266.059262 
L 289.319381 -267.557815 
L 289.362169 -269.056368 
L 289.403917 -270.554921 
L 289.444313 -272.053474 
L 289.483071 -273.552027 
L 289.519933 -275.05058 
L 289.554687 -276.549134 
L 289.587164 -278.047687 
L 289.617246 -279.54624 
L 289.644866 -281.044793 
L 289.670003 -282.543346 
L 289.692682 -284.041899 
L 289.712966 -285.540452 
L 289.730954 -287.039005 
L 289.929596 -287.039005 
L 289.929596 -287.039005 
L 289.947583 -285.540452 
L 289.967867 -284.041899 
L 289.990546 -282.543346 
L 290.015684 -281.044793 
L 290.043303 -279.54624 
L 290.073386 -278.047687 
L 290.105863 -276.549134 
L 290.140616 -275.05058 
L 290.177479 -273.552027 
L 290.216236 -272.053474 
L 290.256633 -270.554921 
L 290.298381 -269.056368 
L 290.341169 -267.557815 
L 290.384679 -266.059262 
L 290.428598 -264.560709 
L 290.472638 -263.062156 
L 290.516553 -261.563603 
L 290.560154 -260.06505 
L 290.603329 -258.566497 
L 290.646054 -257.067944 
L 290.688404 -255.569391 
L 290.730559 -254.070837 
L 290.772807 -252.572284 
L 290.815538 -251.073731 
L 290.85923 -249.575178 
L 290.904439 -248.076625 
L 290.951771 -246.578072 
L 291.001854 -245.079519 
L 291.055311 -243.580966 
L 291.112721 -242.082413 
L 291.174582 -240.58386 
L 291.241282 -239.085307 
L 291.313057 -237.586754 
L 291.389969 -236.088201 
L 291.471882 -234.589648 
L 291.55844 -233.091094 
L 291.649069 -231.592541 
L 291.742972 -230.093988 
L 291.839141 -228.595435 
L 291.936384 -227.096882 
L 292.033347 -225.598329 
L 292.12856 -224.099776 
L 292.220476 -222.601223 
L 292.30752 -221.10267 
L 292.388144 -219.604117 
L 292.460876 -218.105564 
L 292.52437 -216.607011 
L 292.577449 -215.108458 
L 292.619149 -213.609905 
L 292.648744 -212.111351 
L 292.66577 -210.612798 
L 292.670037 -209.114245 
L 292.66163 -207.615692 
L 292.640898 -206.117139 
L 292.608433 -204.618586 
L 292.56505 -203.120033 
L 292.511741 -201.62148 
L 292.449645 -200.122927 
L 292.379998 -198.624374 
L 292.304091 -197.125821 
L 292.223222 -195.627268 
L 292.138661 -194.128715 
L 292.051606 -192.630162 
L 291.963153 -191.131608 
L 291.874274 -189.633055 
L 291.785796 -188.134502 
L 291.698393 -186.635949 
L 291.612584 -185.137396 
L 291.528738 -183.638843 
L 291.447084 -182.14029 
L 291.367727 -180.641737 
L 291.290673 -179.143184 
L 291.215846 -177.644631 
L 291.143115 -176.146078 
L 291.072317 -174.647525 
L 291.00328 -173.148972 
L 290.935841 -171.650419 
L 290.869863 -170.151866 
L 290.805249 -168.653312 
L 290.741948 -167.154759 
L 290.679958 -165.656206 
L 290.619329 -164.157653 
L 290.560156 -162.6591 
L 290.502574 -161.160547 
L 290.446751 -159.661994 
L 290.392871 -158.163441 
L 290.341131 -156.664888 
L 290.291724 -155.166335 
L 290.244831 -153.667782 
L 290.20061 -152.169229 
L 290.159193 -150.670676 
L 290.120673 -149.172123 
L 290.085108 -147.673569 
L 290.052515 -146.175016 
L 290.022869 -144.676463 
L 289.996111 -143.17791 
L 289.972146 -141.679357 
L 289.950849 -140.180804 
L 289.932071 -138.682251 
z
" style="stroke: #3d3d3d; stroke-width: 1.5"/>
    </defs>
    <g clip-path="url(#pdf4ad066f9)">
     <use xlink:href="#m58dee267f8" x="0" y="393.011865" style="fill: #3274a1; stroke: #3d3d3d; stroke-width: 1.5"/>
    </g>
   </g>
   <g id="PolyCollection_7">
    <defs>
     <path id="md068585709" d="M 330.866414 -168.163066 
L 328.154135 -168.163066 
L 327.971988 -168.459225 
L 327.772175 -168.755385 
L 327.554057 -169.051545 
L 327.317136 -169.347705 
L 327.061087 -169.643865 
L 326.785778 -169.940025 
L 326.491294 -170.236185 
L 326.177964 -170.532344 
L 325.846375 -170.828504 
L 325.49739 -171.124664 
L 325.132162 -171.420824 
L 324.752136 -171.716984 
L 324.359054 -172.013144 
L 323.954951 -172.309304 
L 323.542139 -172.605463 
L 323.12319 -172.901623 
L 322.700915 -173.197783 
L 322.278326 -173.493943 
L 321.858601 -173.790103 
L 321.445036 -174.086263 
L 321.041001 -174.382423 
L 320.649878 -174.678582 
L 320.275012 -174.974742 
L 319.919643 -175.270902 
L 319.586855 -175.567062 
L 319.27951 -175.863222 
L 319.000196 -176.159382 
L 318.751176 -176.455542 
L 318.534336 -176.751701 
L 318.351152 -177.047861 
L 318.202656 -177.344021 
L 318.089412 -177.640181 
L 318.011507 -177.936341 
L 317.968551 -178.232501 
L 317.959679 -178.528661 
L 317.983579 -178.82482 
L 318.03852 -179.12098 
L 318.122387 -179.41714 
L 318.232738 -179.7133 
L 318.366851 -180.00946 
L 318.521792 -180.30562 
L 318.694479 -180.60178 
L 318.881749 -180.897939 
L 319.080429 -181.194099 
L 319.287405 -181.490259 
L 319.499683 -181.786419 
L 319.714453 -182.082579 
L 319.929143 -182.378739 
L 320.141464 -182.674898 
L 320.349451 -182.971058 
L 320.551487 -183.267218 
L 320.746327 -183.563378 
L 320.933103 -183.859538 
L 321.111322 -184.155698 
L 321.280859 -184.451858 
L 321.441931 -184.748017 
L 321.59507 -185.044177 
L 321.74109 -185.340337 
L 321.881039 -185.636497 
L 322.016158 -185.932657 
L 322.147831 -186.228817 
L 322.277528 -186.524977 
L 322.406762 -186.821136 
L 322.537036 -187.117296 
L 322.669794 -187.413456 
L 322.806382 -187.709616 
L 322.948007 -188.005776 
L 323.095707 -188.301936 
L 323.250325 -188.598096 
L 323.412489 -188.894255 
L 323.582598 -189.190415 
L 323.760823 -189.486575 
L 323.947103 -189.782735 
L 324.141154 -190.078895 
L 324.342484 -190.375055 
L 324.55041 -190.671215 
L 324.76408 -190.967374 
L 324.982499 -191.263534 
L 325.204558 -191.559694 
L 325.429062 -191.855854 
L 325.654759 -192.152014 
L 325.880373 -192.448174 
L 326.104626 -192.744334 
L 326.326271 -193.040493 
L 326.544111 -193.336653 
L 326.757023 -193.632813 
L 326.963975 -193.928973 
L 327.164038 -194.225133 
L 327.356403 -194.521293 
L 327.540383 -194.817453 
L 327.715417 -195.113612 
L 327.881077 -195.409772 
L 328.037059 -195.705932 
L 328.183182 -196.002092 
L 328.319383 -196.298252 
L 328.445705 -196.594412 
L 328.562286 -196.890572 
L 328.669354 -197.186731 
L 328.767211 -197.482891 
L 330.253339 -197.482891 
L 330.253339 -197.482891 
L 330.351195 -197.186731 
L 330.458264 -196.890572 
L 330.574845 -196.594412 
L 330.701166 -196.298252 
L 330.837367 -196.002092 
L 330.983491 -195.705932 
L 331.139473 -195.409772 
L 331.305133 -195.113612 
L 331.480167 -194.817453 
L 331.664146 -194.521293 
L 331.856511 -194.225133 
L 332.056575 -193.928973 
L 332.263526 -193.632813 
L 332.476438 -193.336653 
L 332.694279 -193.040493 
L 332.915924 -192.744334 
L 333.140177 -192.448174 
L 333.36579 -192.152014 
L 333.591488 -191.855854 
L 333.815992 -191.559694 
L 334.038051 -191.263534 
L 334.25647 -190.967374 
L 334.470139 -190.671215 
L 334.678065 -190.375055 
L 334.879395 -190.078895 
L 335.073446 -189.782735 
L 335.259726 -189.486575 
L 335.437951 -189.190415 
L 335.608061 -188.894255 
L 335.770224 -188.598096 
L 335.924842 -188.301936 
L 336.072543 -188.005776 
L 336.214168 -187.709616 
L 336.350756 -187.413456 
L 336.483514 -187.117296 
L 336.613787 -186.821136 
L 336.743022 -186.524977 
L 336.872719 -186.228817 
L 337.004391 -185.932657 
L 337.139511 -185.636497 
L 337.27946 -185.340337 
L 337.425479 -185.044177 
L 337.578619 -184.748017 
L 337.739691 -184.451858 
L 337.909227 -184.155698 
L 338.087447 -183.859538 
L 338.274222 -183.563378 
L 338.469062 -183.267218 
L 338.671099 -182.971058 
L 338.879085 -182.674898 
L 339.091407 -182.378739 
L 339.306097 -182.082579 
L 339.520867 -181.786419 
L 339.733145 -181.490259 
L 339.94012 -181.194099 
L 340.138801 -180.897939 
L 340.326071 -180.60178 
L 340.498758 -180.30562 
L 340.653699 -180.00946 
L 340.787812 -179.7133 
L 340.898162 -179.41714 
L 340.98203 -179.12098 
L 341.03697 -178.82482 
L 341.060871 -178.528661 
L 341.051999 -178.232501 
L 341.009042 -177.936341 
L 340.931138 -177.640181 
L 340.817894 -177.344021 
L 340.669397 -177.047861 
L 340.486214 -176.751701 
L 340.269374 -176.455542 
L 340.020353 -176.159382 
L 339.74104 -175.863222 
L 339.433695 -175.567062 
L 339.100906 -175.270902 
L 338.745538 -174.974742 
L 338.370671 -174.678582 
L 337.979549 -174.382423 
L 337.575513 -174.086263 
L 337.161949 -173.790103 
L 336.742223 -173.493943 
L 336.319634 -173.197783 
L 335.897359 -172.901623 
L 335.478411 -172.605463 
L 335.065598 -172.309304 
L 334.661495 -172.013144 
L 334.268414 -171.716984 
L 333.888388 -171.420824 
L 333.523159 -171.124664 
L 333.174175 -170.828504 
L 332.842585 -170.532344 
L 332.529255 -170.236185 
L 332.234772 -169.940025 
L 331.959462 -169.643865 
L 331.703413 -169.347705 
L 331.466493 -169.051545 
L 331.248374 -168.755385 
L 331.048562 -168.459225 
L 330.866414 -168.163066 
z
" style="stroke: #3d3d3d; stroke-width: 1.5"/>
    </defs>
    <g clip-path="url(#pdf4ad066f9)">
     <use xlink:href="#md068585709" x="0" y="393.011865" style="fill: #d1d197; stroke: #3d3d3d; stroke-width: 1.5"/>
    </g>
   </g>
   <g id="PolyCollection_8">
    <defs>
     <path id="m0dcbe24d92" d="M 370.499596 -123.50757 
L 367.880953 -123.50757 
L 367.691568 -123.72268 
L 367.481492 -123.937789 
L 367.249565 -124.152898 
L 366.994737 -124.368008 
L 366.716096 -124.583117 
L 366.412898 -124.798226 
L 366.084601 -125.013335 
L 365.7309 -125.228445 
L 365.351749 -125.443554 
L 364.947398 -125.658663 
L 364.518416 -125.873773 
L 364.065709 -126.088882 
L 363.590542 -126.303991 
L 363.094547 -126.5191 
L 362.579728 -126.73421 
L 362.048458 -126.949319 
L 361.503469 -127.164428 
L 360.947833 -127.379537 
L 360.384934 -127.594647 
L 359.818433 -127.809756 
L 359.252223 -128.024865 
L 358.690382 -128.239975 
L 358.137109 -128.455084 
L 357.596664 -128.670193 
L 357.073299 -128.885302 
L 356.571186 -129.100412 
L 356.094344 -129.315521 
L 355.646567 -129.53063 
L 355.231355 -129.74574 
L 354.851844 -129.960849 
L 354.51075 -130.175958 
L 354.210312 -130.391067 
L 353.95225 -130.606177 
L 353.737731 -130.821286 
L 353.567352 -131.036395 
L 353.441121 -131.251504 
L 353.358472 -131.466614 
L 353.318275 -131.681723 
L 353.31887 -131.896832 
L 353.358106 -132.111942 
L 353.433401 -132.327051 
L 353.541798 -132.54216 
L 353.680042 -132.757269 
L 353.844659 -132.972379 
L 354.032035 -133.187488 
L 354.238507 -133.402597 
L 354.460441 -133.617707 
L 354.694318 -133.832816 
L 354.936809 -134.047925 
L 355.184847 -134.263034 
L 355.435686 -134.478144 
L 355.68695 -134.693253 
L 355.936676 -134.908362 
L 356.183335 -135.123471 
L 356.425847 -135.338581 
L 356.663578 -135.55369 
L 356.896329 -135.768799 
L 357.124307 -135.983909 
L 357.34809 -136.199018 
L 357.568578 -136.414127 
L 357.786939 -136.629236 
L 358.004551 -136.844346 
L 358.222929 -137.059455 
L 358.443669 -137.274564 
L 358.668374 -137.489674 
L 358.898592 -137.704783 
L 359.135758 -137.919892 
L 359.38114 -138.135001 
L 359.63579 -138.350111 
L 359.900512 -138.56522 
L 360.175829 -138.780329 
L 360.461966 -138.995438 
L 360.758843 -139.210548 
L 361.066076 -139.425657 
L 361.382987 -139.640766 
L 361.708621 -139.855876 
L 362.04178 -140.070985 
L 362.381046 -140.286094 
L 362.724826 -140.501203 
L 363.071388 -140.716313 
L 363.418908 -140.931422 
L 363.765511 -141.146531 
L 364.109314 -141.361641 
L 364.448467 -141.57675 
L 364.781191 -141.791859 
L 365.10581 -142.006968 
L 365.420782 -142.222078 
L 365.724725 -142.437187 
L 366.016428 -142.652296 
L 366.294873 -142.867406 
L 366.559236 -143.082515 
L 366.808893 -143.297624 
L 367.043417 -143.512733 
L 367.262571 -143.727843 
L 367.466297 -143.942952 
L 367.654704 -144.158061 
L 367.828053 -144.37317 
L 367.986737 -144.58828 
L 368.131265 -144.803389 
L 370.249285 -144.803389 
L 370.249285 -144.803389 
L 370.393812 -144.58828 
L 370.552496 -144.37317 
L 370.725845 -144.158061 
L 370.914253 -143.942952 
L 371.117979 -143.727843 
L 371.337132 -143.512733 
L 371.571657 -143.297624 
L 371.821314 -143.082515 
L 372.085677 -142.867406 
L 372.364122 -142.652296 
L 372.655825 -142.437187 
L 372.959767 -142.222078 
L 373.27474 -142.006968 
L 373.599359 -141.791859 
L 373.932082 -141.57675 
L 374.271235 -141.361641 
L 374.615038 -141.146531 
L 374.961641 -140.931422 
L 375.309161 -140.716313 
L 375.655724 -140.501203 
L 375.999503 -140.286094 
L 376.338769 -140.070985 
L 376.671928 -139.855876 
L 376.997563 -139.640766 
L 377.314473 -139.425657 
L 377.621706 -139.210548 
L 377.918584 -138.995438 
L 378.204721 -138.780329 
L 378.480037 -138.56522 
L 378.744759 -138.350111 
L 378.99941 -138.135001 
L 379.244792 -137.919892 
L 379.481958 -137.704783 
L 379.712176 -137.489674 
L 379.93688 -137.274564 
L 380.15762 -137.059455 
L 380.375999 -136.844346 
L 380.59361 -136.629236 
L 380.811972 -136.414127 
L 381.03246 -136.199018 
L 381.256243 -135.983909 
L 381.484221 -135.768799 
L 381.716972 -135.55369 
L 381.954703 -135.338581 
L 382.197214 -135.123471 
L 382.443873 -134.908362 
L 382.693599 -134.693253 
L 382.944864 -134.478144 
L 383.195702 -134.263034 
L 383.44374 -134.047925 
L 383.686232 -133.832816 
L 383.920109 -133.617707 
L 384.142043 -133.402597 
L 384.348514 -133.187488 
L 384.535891 -132.972379 
L 384.700508 -132.757269 
L 384.838752 -132.54216 
L 384.947148 -132.327051 
L 385.022443 -132.111942 
L 385.06168 -131.896832 
L 385.062275 -131.681723 
L 385.022078 -131.466614 
L 384.939429 -131.251504 
L 384.813198 -131.036395 
L 384.642818 -130.821286 
L 384.4283 -130.606177 
L 384.170238 -130.391067 
L 383.8698 -130.175958 
L 383.528705 -129.960849 
L 383.149195 -129.74574 
L 382.733983 -129.53063 
L 382.286206 -129.315521 
L 381.809364 -129.100412 
L 381.30725 -128.885302 
L 380.783885 -128.670193 
L 380.24344 -128.455084 
L 379.690167 -128.239975 
L 379.128326 -128.024865 
L 378.562117 -127.809756 
L 377.995616 -127.594647 
L 377.432716 -127.379537 
L 376.87708 -127.164428 
L 376.332091 -126.949319 
L 375.800821 -126.73421 
L 375.286002 -126.5191 
L 374.790007 -126.303991 
L 374.31484 -126.088882 
L 373.862134 -125.873773 
L 373.433151 -125.658663 
L 373.028801 -125.443554 
L 372.64965 -125.228445 
L 372.295948 -125.013335 
L 371.967652 -124.798226 
L 371.664454 -124.583117 
L 371.385812 -124.368008 
L 371.130985 -124.152898 
L 370.899058 -123.937789 
L 370.688981 -123.72268 
L 370.499596 -123.50757 
z
" style="stroke: #3d3d3d; stroke-width: 1.5"/>
    </defs>
    <g clip-path="url(#pdf4ad066f9)">
     <use xlink:href="#m0dcbe24d92" x="0" y="393.011865" style="fill: #3a923a; stroke: #3d3d3d; stroke-width: 1.5"/>
    </g>
   </g>
   <g id="PolyCollection_9">
    <defs>
     <path id="m959039afbf" d="M 410.301641 -121.539489 
L 407.438908 -121.539489 
L 407.251697 -121.841677 
L 407.047052 -122.143864 
L 406.824444 -122.446051 
L 406.583492 -122.748239 
L 406.323995 -123.050426 
L 406.045949 -123.352614 
L 405.749574 -123.654801 
L 405.43533 -123.956988 
L 405.103933 -124.259176 
L 404.756372 -124.561363 
L 404.393914 -124.863551 
L 404.018109 -125.165738 
L 403.630787 -125.467926 
L 403.23405 -125.770113 
L 402.830259 -126.0723 
L 402.422009 -126.374488 
L 402.012105 -126.676675 
L 401.60353 -126.978863 
L 401.199397 -127.28105 
L 400.802912 -127.583237 
L 400.417323 -127.885425 
L 400.045862 -128.187612 
L 399.691695 -128.4898 
L 399.357863 -128.791987 
L 399.047225 -129.094174 
L 398.762406 -129.396362 
L 398.505742 -129.698549 
L 398.279236 -130.000737 
L 398.084516 -130.302924 
L 397.9228 -130.605111 
L 397.794872 -130.907299 
L 397.701063 -131.209486 
L 397.64125 -131.511674 
L 397.614851 -131.813861 
L 397.620844 -132.116048 
L 397.657789 -132.418236 
L 397.72386 -132.720423 
L 397.816885 -133.022611 
L 397.9344 -133.324798 
L 398.0737 -133.626985 
L 398.231899 -133.929173 
L 398.405997 -134.23136 
L 398.592944 -134.533548 
L 398.789705 -134.835735 
L 398.993322 -135.137922 
L 399.200979 -135.44011 
L 399.410053 -135.742297 
L 399.618165 -136.044485 
L 399.82322 -136.346672 
L 400.023442 -136.648859 
L 400.217396 -136.951047 
L 400.404007 -137.253234 
L 400.582556 -137.555422 
L 400.752685 -137.857609 
L 400.914379 -138.159796 
L 401.067941 -138.461984 
L 401.213968 -138.764171 
L 401.353313 -139.066359 
L 401.487041 -139.368546 
L 401.616389 -139.670734 
L 401.742714 -139.972921 
L 401.867448 -140.275108 
L 401.992048 -140.577296 
L 402.117949 -140.879483 
L 402.246523 -141.181671 
L 402.379039 -141.483858 
L 402.516624 -141.786045 
L 402.660239 -142.088233 
L 402.810656 -142.39042 
L 402.968437 -142.692608 
L 403.133927 -142.994795 
L 403.30725 -143.296982 
L 403.488313 -143.59917 
L 403.676812 -143.901357 
L 403.872245 -144.203545 
L 404.073934 -144.505732 
L 404.281043 -144.807919 
L 404.492602 -145.110107 
L 404.70754 -145.412294 
L 404.924704 -145.714482 
L 405.142893 -146.016669 
L 405.360883 -146.318856 
L 405.577456 -146.621044 
L 405.791422 -146.923231 
L 406.001643 -147.225419 
L 406.207051 -147.527606 
L 406.406666 -147.829793 
L 406.59961 -148.131981 
L 406.785115 -148.434168 
L 406.962532 -148.736356 
L 407.131333 -149.038543 
L 407.291113 -149.34073 
L 407.441587 -149.642918 
L 407.582587 -149.945105 
L 407.714054 -150.247293 
L 407.83603 -150.54948 
L 407.948651 -150.851667 
L 408.052135 -151.153855 
L 408.146768 -151.456042 
L 409.593782 -151.456042 
L 409.593782 -151.456042 
L 409.688415 -151.153855 
L 409.791898 -150.851667 
L 409.904519 -150.54948 
L 410.026496 -150.247293 
L 410.157962 -149.945105 
L 410.298962 -149.642918 
L 410.449436 -149.34073 
L 410.609216 -149.038543 
L 410.778017 -148.736356 
L 410.955434 -148.434168 
L 411.14094 -148.131981 
L 411.333884 -147.829793 
L 411.533499 -147.527606 
L 411.738907 -147.225419 
L 411.949127 -146.923231 
L 412.163093 -146.621044 
L 412.379667 -146.318856 
L 412.597657 -146.016669 
L 412.815846 -145.714482 
L 413.033009 -145.412294 
L 413.247947 -145.110107 
L 413.459507 -144.807919 
L 413.666615 -144.505732 
L 413.868304 -144.203545 
L 414.063738 -143.901357 
L 414.252236 -143.59917 
L 414.433299 -143.296982 
L 414.606623 -142.994795 
L 414.772113 -142.692608 
L 414.929893 -142.39042 
L 415.08031 -142.088233 
L 415.223926 -141.786045 
L 415.361511 -141.483858 
L 415.494026 -141.181671 
L 415.622601 -140.879483 
L 415.748502 -140.577296 
L 415.873101 -140.275108 
L 415.997835 -139.972921 
L 416.12416 -139.670734 
L 416.253508 -139.368546 
L 416.387236 -139.066359 
L 416.526581 -138.764171 
L 416.672609 -138.461984 
L 416.826171 -138.159796 
L 416.987864 -137.857609 
L 417.157994 -137.555422 
L 417.336543 -137.253234 
L 417.523153 -136.951047 
L 417.717108 -136.648859 
L 417.91733 -136.346672 
L 418.122384 -136.044485 
L 418.330496 -135.742297 
L 418.53957 -135.44011 
L 418.747227 -135.137922 
L 418.950845 -134.835735 
L 419.147605 -134.533548 
L 419.334552 -134.23136 
L 419.508651 -133.929173 
L 419.66685 -133.626985 
L 419.806149 -133.324798 
L 419.923664 -133.022611 
L 420.01669 -132.720423 
L 420.08276 -132.418236 
L 420.119705 -132.116048 
L 420.125698 -131.813861 
L 420.099299 -131.511674 
L 420.039486 -131.209486 
L 419.945678 -130.907299 
L 419.81775 -130.605111 
L 419.656033 -130.302924 
L 419.461313 -130.000737 
L 419.234807 -129.698549 
L 418.978143 -129.396362 
L 418.693324 -129.094174 
L 418.382687 -128.791987 
L 418.048854 -128.4898 
L 417.694687 -128.187612 
L 417.323227 -127.885425 
L 416.937637 -127.583237 
L 416.541153 -127.28105 
L 416.13702 -126.978863 
L 415.728444 -126.676675 
L 415.318541 -126.374488 
L 414.910291 -126.0723 
L 414.506499 -125.770113 
L 414.109762 -125.467926 
L 413.72244 -125.165738 
L 413.346635 -124.863551 
L 412.984178 -124.561363 
L 412.636617 -124.259176 
L 412.30522 -123.956988 
L 411.990975 -123.654801 
L 411.6946 -123.352614 
L 411.416555 -123.050426 
L 411.157058 -122.748239 
L 410.916106 -122.446051 
L 410.693497 -122.143864 
L 410.488853 -121.841677 
L 410.301641 -121.539489 
z
" style="stroke: #3d3d3d; stroke-width: 1.5"/>
    </defs>
    <g clip-path="url(#pdf4ad066f9)">
     <use xlink:href="#m959039afbf" x="0" y="393.011865" style="fill: #c4b5d0; stroke: #3d3d3d; stroke-width: 1.5"/>
    </g>
   </g>
   <g id="matplotlib.axis_1">
    <g id="xtick_1">
     <g id="line2d_1">
      <defs>
       <path id="mbaa6e2eb8c" d="M 0 0 
L 0 3.5 
" style="stroke: #000000; stroke-width: 0.8"/>
      </defs>
      <g>
       <use xlink:href="#mbaa6e2eb8c" x="91.430275" y="288.430125" style="stroke: #000000; stroke-width: 0.8"/>
      </g>
     </g>
     <g id="text_1">
      <!-- aflplusplus_ast_o1 -->
      <g transform="translate(10.999219 347.766815)rotate(-30)scale(0.1 -0.1)">
       <defs>
        <path id="DejaVuSans-61" d="M 2194 1759 
Q 1497 1759 1228 1600 
Q 959 1441 959 1056 
Q 959 750 1161 570 
Q 1363 391 1709 391 
Q 2188 391 2477 730 
Q 2766 1069 2766 1631 
L 2766 1759 
L 2194 1759 
z
M 3341 1997 
L 3341 0 
L 2766 0 
L 2766 531 
Q 2569 213 2275 61 
Q 1981 -91 1556 -91 
Q 1019 -91 701 211 
Q 384 513 384 1019 
Q 384 1609 779 1909 
Q 1175 2209 1959 2209 
L 2766 2209 
L 2766 2266 
Q 2766 2663 2505 2880 
Q 2244 3097 1772 3097 
Q 1472 3097 1187 3025 
Q 903 2953 641 2809 
L 641 3341 
Q 956 3463 1253 3523 
Q 1550 3584 1831 3584 
Q 2591 3584 2966 3190 
Q 3341 2797 3341 1997 
z
" transform="scale(0.015625)"/>
        <path id="DejaVuSans-66" d="M 2375 4863 
L 2375 4384 
L 1825 4384 
Q 1516 4384 1395 4259 
Q 1275 4134 1275 3809 
L 1275 3500 
L 2222 3500 
L 2222 3053 
L 1275 3053 
L 1275 0 
L 697 0 
L 697 3053 
L 147 3053 
L 147 3500 
L 697 3500 
L 697 3744 
Q 697 4328 969 4595 
Q 1241 4863 1831 4863 
L 2375 4863 
z
" transform="scale(0.015625)"/>
        <path id="DejaVuSans-6c" d="M 603 4863 
L 1178 4863 
L 1178 0 
L 603 0 
L 603 4863 
z
" transform="scale(0.015625)"/>
        <path id="DejaVuSans-70" d="M 1159 525 
L 1159 -1331 
L 581 -1331 
L 581 3500 
L 1159 3500 
L 1159 2969 
Q 1341 3281 1617 3432 
Q 1894 3584 2278 3584 
Q 2916 3584 3314 3078 
Q 3713 2572 3713 1747 
Q 3713 922 3314 415 
Q 2916 -91 2278 -91 
Q 1894 -91 1617 61 
Q 1341 213 1159 525 
z
M 3116 1747 
Q 3116 2381 2855 2742 
Q 2594 3103 2138 3103 
Q 1681 3103 1420 2742 
Q 1159 2381 1159 1747 
Q 1159 1113 1420 752 
Q 1681 391 2138 391 
Q 2594 391 2855 752 
Q 3116 1113 3116 1747 
z
" transform="scale(0.015625)"/>
        <path id="DejaVuSans-75" d="M 544 1381 
L 544 3500 
L 1119 3500 
L 1119 1403 
Q 1119 906 1312 657 
Q 1506 409 1894 409 
Q 2359 409 2629 706 
Q 2900 1003 2900 1516 
L 2900 3500 
L 3475 3500 
L 3475 0 
L 2900 0 
L 2900 538 
Q 2691 219 2414 64 
Q 2138 -91 1772 -91 
Q 1169 -91 856 284 
Q 544 659 544 1381 
z
M 1991 3584 
L 1991 3584 
z
" transform="scale(0.015625)"/>
        <path id="DejaVuSans-73" d="M 2834 3397 
L 2834 2853 
Q 2591 2978 2328 3040 
Q 2066 3103 1784 3103 
Q 1356 3103 1142 2972 
Q 928 2841 928 2578 
Q 928 2378 1081 2264 
Q 1234 2150 1697 2047 
L 1894 2003 
Q 2506 1872 2764 1633 
Q 3022 1394 3022 966 
Q 3022 478 2636 193 
Q 2250 -91 1575 -91 
Q 1294 -91 989 -36 
Q 684 19 347 128 
L 347 722 
Q 666 556 975 473 
Q 1284 391 1588 391 
Q 1994 391 2212 530 
Q 2431 669 2431 922 
Q 2431 1156 2273 1281 
Q 2116 1406 1581 1522 
L 1381 1569 
Q 847 1681 609 1914 
Q 372 2147 372 2553 
Q 372 3047 722 3315 
Q 1072 3584 1716 3584 
Q 2034 3584 2315 3537 
Q 2597 3491 2834 3397 
z
" transform="scale(0.015625)"/>
        <path id="DejaVuSans-5f" d="M 3263 -1063 
L 3263 -1509 
L -63 -1509 
L -63 -1063 
L 3263 -1063 
z
" transform="scale(0.015625)"/>
        <path id="DejaVuSans-74" d="M 1172 4494 
L 1172 3500 
L 2356 3500 
L 2356 3053 
L 1172 3053 
L 1172 1153 
Q 1172 725 1289 603 
Q 1406 481 1766 481 
L 2356 481 
L 2356 0 
L 1766 0 
Q 1100 0 847 248 
Q 594 497 594 1153 
L 594 3053 
L 172 3053 
L 172 3500 
L 594 3500 
L 594 4494 
L 1172 4494 
z
" transform="scale(0.015625)"/>
        <path id="DejaVuSans-6f" d="M 1959 3097 
Q 1497 3097 1228 2736 
Q 959 2375 959 1747 
Q 959 1119 1226 758 
Q 1494 397 1959 397 
Q 2419 397 2687 759 
Q 2956 1122 2956 1747 
Q 2956 2369 2687 2733 
Q 2419 3097 1959 3097 
z
M 1959 3584 
Q 2709 3584 3137 3096 
Q 3566 2609 3566 1747 
Q 3566 888 3137 398 
Q 2709 -91 1959 -91 
Q 1206 -91 779 398 
Q 353 888 353 1747 
Q 353 2609 779 3096 
Q 1206 3584 1959 3584 
z
" transform="scale(0.015625)"/>
        <path id="DejaVuSans-31" d="M 794 531 
L 1825 531 
L 1825 4091 
L 703 3866 
L 703 4441 
L 1819 4666 
L 2450 4666 
L 2450 531 
L 3481 531 
L 3481 0 
L 794 0 
L 794 531 
z
" transform="scale(0.015625)"/>
       </defs>
       <use xlink:href="#DejaVuSans-61"/>
       <use xlink:href="#DejaVuSans-66" x="61.279297"/>
       <use xlink:href="#DejaVuSans-6c" x="96.484375"/>
       <use xlink:href="#DejaVuSans-70" x="124.267578"/>
       <use xlink:href="#DejaVuSans-6c" x="187.744141"/>
       <use xlink:href="#DejaVuSans-75" x="215.527344"/>
       <use xlink:href="#DejaVuSans-73" x="278.90625"/>
       <use xlink:href="#DejaVuSans-70" x="331.005859"/>
       <use xlink:href="#DejaVuSans-6c" x="394.482422"/>
       <use xlink:href="#DejaVuSans-75" x="422.265625"/>
       <use xlink:href="#DejaVuSans-73" x="485.644531"/>
       <use xlink:href="#DejaVuSans-5f" x="537.744141"/>
       <use xlink:href="#DejaVuSans-61" x="587.744141"/>
       <use xlink:href="#DejaVuSans-73" x="649.023438"/>
       <use xlink:href="#DejaVuSans-74" x="701.123047"/>
       <use xlink:href="#DejaVuSans-5f" x="740.332031"/>
       <use xlink:href="#DejaVuSans-6f" x="790.332031"/>
       <use xlink:href="#DejaVuSans-31" x="851.513672"/>
      </g>
     </g>
    </g>
    <g id="xtick_2">
     <g id="line2d_2">
      <g>
       <use xlink:href="#mbaa6e2eb8c" x="131.110275" y="288.430125" style="stroke: #000000; stroke-width: 0.8"/>
      </g>
     </g>
     <g id="text_2">
      <!-- aflplusplus_ast_o3 -->
      <g transform="translate(50.679219 347.766815)rotate(-30)scale(0.1 -0.1)">
       <defs>
        <path id="DejaVuSans-33" d="M 2597 2516 
Q 3050 2419 3304 2112 
Q 3559 1806 3559 1356 
Q 3559 666 3084 287 
Q 2609 -91 1734 -91 
Q 1441 -91 1130 -33 
Q 819 25 488 141 
L 488 750 
Q 750 597 1062 519 
Q 1375 441 1716 441 
Q 2309 441 2620 675 
Q 2931 909 2931 1356 
Q 2931 1769 2642 2001 
Q 2353 2234 1838 2234 
L 1294 2234 
L 1294 2753 
L 1863 2753 
Q 2328 2753 2575 2939 
Q 2822 3125 2822 3475 
Q 2822 3834 2567 4026 
Q 2313 4219 1838 4219 
Q 1578 4219 1281 4162 
Q 984 4106 628 3988 
L 628 4550 
Q 988 4650 1302 4700 
Q 1616 4750 1894 4750 
Q 2613 4750 3031 4423 
Q 3450 4097 3450 3541 
Q 3450 3153 3228 2886 
Q 3006 2619 2597 2516 
z
" transform="scale(0.015625)"/>
       </defs>
       <use xlink:href="#DejaVuSans-61"/>
       <use xlink:href="#DejaVuSans-66" x="61.279297"/>
       <use xlink:href="#DejaVuSans-6c" x="96.484375"/>
       <use xlink:href="#DejaVuSans-70" x="124.267578"/>
       <use xlink:href="#DejaVuSans-6c" x="187.744141"/>
       <use xlink:href="#DejaVuSans-75" x="215.527344"/>
       <use xlink:href="#DejaVuSans-73" x="278.90625"/>
       <use xlink:href="#DejaVuSans-70" x="331.005859"/>
       <use xlink:href="#DejaVuSans-6c" x="394.482422"/>
       <use xlink:href="#DejaVuSans-75" x="422.265625"/>
       <use xlink:href="#DejaVuSans-73" x="485.644531"/>
       <use xlink:href="#DejaVuSans-5f" x="537.744141"/>
       <use xlink:href="#DejaVuSans-61" x="587.744141"/>
       <use xlink:href="#DejaVuSans-73" x="649.023438"/>
       <use xlink:href="#DejaVuSans-74" x="701.123047"/>
       <use xlink:href="#DejaVuSans-5f" x="740.332031"/>
       <use xlink:href="#DejaVuSans-6f" x="790.332031"/>
       <use xlink:href="#DejaVuSans-33" x="851.513672"/>
      </g>
     </g>
    </g>
    <g id="xtick_3">
     <g id="line2d_3">
      <g>
       <use xlink:href="#mbaa6e2eb8c" x="170.790275" y="288.430125" style="stroke: #000000; stroke-width: 0.8"/>
      </g>
     </g>
     <g id="text_3">
      <!-- aflplusplus_ast_o2 -->
      <g transform="translate(90.359219 347.766815)rotate(-30)scale(0.1 -0.1)">
       <defs>
        <path id="DejaVuSans-32" d="M 1228 531 
L 3431 531 
L 3431 0 
L 469 0 
L 469 531 
Q 828 903 1448 1529 
Q 2069 2156 2228 2338 
Q 2531 2678 2651 2914 
Q 2772 3150 2772 3378 
Q 2772 3750 2511 3984 
Q 2250 4219 1831 4219 
Q 1534 4219 1204 4116 
Q 875 4013 500 3803 
L 500 4441 
Q 881 4594 1212 4672 
Q 1544 4750 1819 4750 
Q 2544 4750 2975 4387 
Q 3406 4025 3406 3419 
Q 3406 3131 3298 2873 
Q 3191 2616 2906 2266 
Q 2828 2175 2409 1742 
Q 1991 1309 1228 531 
z
" transform="scale(0.015625)"/>
       </defs>
       <use xlink:href="#DejaVuSans-61"/>
       <use xlink:href="#DejaVuSans-66" x="61.279297"/>
       <use xlink:href="#DejaVuSans-6c" x="96.484375"/>
       <use xlink:href="#DejaVuSans-70" x="124.267578"/>
       <use xlink:href="#DejaVuSans-6c" x="187.744141"/>
       <use xlink:href="#DejaVuSans-75" x="215.527344"/>
       <use xlink:href="#DejaVuSans-73" x="278.90625"/>
       <use xlink:href="#DejaVuSans-70" x="331.005859"/>
       <use xlink:href="#DejaVuSans-6c" x="394.482422"/>
       <use xlink:href="#DejaVuSans-75" x="422.265625"/>
       <use xlink:href="#DejaVuSans-73" x="485.644531"/>
       <use xlink:href="#DejaVuSans-5f" x="537.744141"/>
       <use xlink:href="#DejaVuSans-61" x="587.744141"/>
       <use xlink:href="#DejaVuSans-73" x="649.023438"/>
       <use xlink:href="#DejaVuSans-74" x="701.123047"/>
       <use xlink:href="#DejaVuSans-5f" x="740.332031"/>
       <use xlink:href="#DejaVuSans-6f" x="790.332031"/>
       <use xlink:href="#DejaVuSans-32" x="851.513672"/>
      </g>
     </g>
    </g>
    <g id="xtick_4">
     <g id="line2d_4">
      <g>
       <use xlink:href="#mbaa6e2eb8c" x="210.470275" y="288.430125" style="stroke: #000000; stroke-width: 0.8"/>
      </g>
     </g>
     <g id="text_4">
      <!-- aflplusplus_ast_f1 -->
      <g transform="translate(132.289532 346.467596)rotate(-30)scale(0.1 -0.1)">
       <use xlink:href="#DejaVuSans-61"/>
       <use xlink:href="#DejaVuSans-66" x="61.279297"/>
       <use xlink:href="#DejaVuSans-6c" x="96.484375"/>
       <use xlink:href="#DejaVuSans-70" x="124.267578"/>
       <use xlink:href="#DejaVuSans-6c" x="187.744141"/>
       <use xlink:href="#DejaVuSans-75" x="215.527344"/>
       <use xlink:href="#DejaVuSans-73" x="278.90625"/>
       <use xlink:href="#DejaVuSans-70" x="331.005859"/>
       <use xlink:href="#DejaVuSans-6c" x="394.482422"/>
       <use xlink:href="#DejaVuSans-75" x="422.265625"/>
       <use xlink:href="#DejaVuSans-73" x="485.644531"/>
       <use xlink:href="#DejaVuSans-5f" x="537.744141"/>
       <use xlink:href="#DejaVuSans-61" x="587.744141"/>
       <use xlink:href="#DejaVuSans-73" x="649.023438"/>
       <use xlink:href="#DejaVuSans-74" x="701.123047"/>
       <use xlink:href="#DejaVuSans-5f" x="740.332031"/>
       <use xlink:href="#DejaVuSans-66" x="790.332031"/>
       <use xlink:href="#DejaVuSans-31" x="825.537109"/>
      </g>
     </g>
    </g>
    <g id="xtick_5">
     <g id="line2d_5">
      <g>
       <use xlink:href="#mbaa6e2eb8c" x="250.150275" y="288.430125" style="stroke: #000000; stroke-width: 0.8"/>
      </g>
     </g>
     <g id="text_5">
      <!-- aflplusplus_ast_o0 -->
      <g transform="translate(169.719219 347.766815)rotate(-30)scale(0.1 -0.1)">
       <defs>
        <path id="DejaVuSans-30" d="M 2034 4250 
Q 1547 4250 1301 3770 
Q 1056 3291 1056 2328 
Q 1056 1369 1301 889 
Q 1547 409 2034 409 
Q 2525 409 2770 889 
Q 3016 1369 3016 2328 
Q 3016 3291 2770 3770 
Q 2525 4250 2034 4250 
z
M 2034 4750 
Q 2819 4750 3233 4129 
Q 3647 3509 3647 2328 
Q 3647 1150 3233 529 
Q 2819 -91 2034 -91 
Q 1250 -91 836 529 
Q 422 1150 422 2328 
Q 422 3509 836 4129 
Q 1250 4750 2034 4750 
z
" transform="scale(0.015625)"/>
       </defs>
       <use xlink:href="#DejaVuSans-61"/>
       <use xlink:href="#DejaVuSans-66" x="61.279297"/>
       <use xlink:href="#DejaVuSans-6c" x="96.484375"/>
       <use xlink:href="#DejaVuSans-70" x="124.267578"/>
       <use xlink:href="#DejaVuSans-6c" x="187.744141"/>
       <use xlink:href="#DejaVuSans-75" x="215.527344"/>
       <use xlink:href="#DejaVuSans-73" x="278.90625"/>
       <use xlink:href="#DejaVuSans-70" x="331.005859"/>
       <use xlink:href="#DejaVuSans-6c" x="394.482422"/>
       <use xlink:href="#DejaVuSans-75" x="422.265625"/>
       <use xlink:href="#DejaVuSans-73" x="485.644531"/>
       <use xlink:href="#DejaVuSans-5f" x="537.744141"/>
       <use xlink:href="#DejaVuSans-61" x="587.744141"/>
       <use xlink:href="#DejaVuSans-73" x="649.023438"/>
       <use xlink:href="#DejaVuSans-74" x="701.123047"/>
       <use xlink:href="#DejaVuSans-5f" x="740.332031"/>
       <use xlink:href="#DejaVuSans-6f" x="790.332031"/>
       <use xlink:href="#DejaVuSans-30" x="851.513672"/>
      </g>
     </g>
    </g>
    <g id="xtick_6">
     <g id="line2d_6">
      <g>
       <use xlink:href="#mbaa6e2eb8c" x="289.830275" y="288.430125" style="stroke: #000000; stroke-width: 0.8"/>
      </g>
     </g>
     <g id="text_6">
      <!-- aflplusplus_ast_f0 -->
      <g transform="translate(211.649532 346.467596)rotate(-30)scale(0.1 -0.1)">
       <use xlink:href="#DejaVuSans-61"/>
       <use xlink:href="#DejaVuSans-66" x="61.279297"/>
       <use xlink:href="#DejaVuSans-6c" x="96.484375"/>
       <use xlink:href="#DejaVuSans-70" x="124.267578"/>
       <use xlink:href="#DejaVuSans-6c" x="187.744141"/>
       <use xlink:href="#DejaVuSans-75" x="215.527344"/>
       <use xlink:href="#DejaVuSans-73" x="278.90625"/>
       <use xlink:href="#DejaVuSans-70" x="331.005859"/>
       <use xlink:href="#DejaVuSans-6c" x="394.482422"/>
       <use xlink:href="#DejaVuSans-75" x="422.265625"/>
       <use xlink:href="#DejaVuSans-73" x="485.644531"/>
       <use xlink:href="#DejaVuSans-5f" x="537.744141"/>
       <use xlink:href="#DejaVuSans-61" x="587.744141"/>
       <use xlink:href="#DejaVuSans-73" x="649.023438"/>
       <use xlink:href="#DejaVuSans-74" x="701.123047"/>
       <use xlink:href="#DejaVuSans-5f" x="740.332031"/>
       <use xlink:href="#DejaVuSans-66" x="790.332031"/>
       <use xlink:href="#DejaVuSans-30" x="825.537109"/>
      </g>
     </g>
    </g>
    <g id="xtick_7">
     <g id="line2d_7">
      <g>
       <use xlink:href="#mbaa6e2eb8c" x="329.510275" y="288.430125" style="stroke: #000000; stroke-width: 0.8"/>
      </g>
     </g>
     <g id="text_7">
      <!-- aflplusplus_ast_o3_native -->
      <g transform="translate(217.697976 365.884784)rotate(-30)scale(0.1 -0.1)">
       <defs>
        <path id="DejaVuSans-6e" d="M 3513 2113 
L 3513 0 
L 2938 0 
L 2938 2094 
Q 2938 2591 2744 2837 
Q 2550 3084 2163 3084 
Q 1697 3084 1428 2787 
Q 1159 2491 1159 1978 
L 1159 0 
L 581 0 
L 581 3500 
L 1159 3500 
L 1159 2956 
Q 1366 3272 1645 3428 
Q 1925 3584 2291 3584 
Q 2894 3584 3203 3211 
Q 3513 2838 3513 2113 
z
" transform="scale(0.015625)"/>
        <path id="DejaVuSans-69" d="M 603 3500 
L 1178 3500 
L 1178 0 
L 603 0 
L 603 3500 
z
M 603 4863 
L 1178 4863 
L 1178 4134 
L 603 4134 
L 603 4863 
z
" transform="scale(0.015625)"/>
        <path id="DejaVuSans-76" d="M 191 3500 
L 800 3500 
L 1894 563 
L 2988 3500 
L 3597 3500 
L 2284 0 
L 1503 0 
L 191 3500 
z
" transform="scale(0.015625)"/>
        <path id="DejaVuSans-65" d="M 3597 1894 
L 3597 1613 
L 953 1613 
Q 991 1019 1311 708 
Q 1631 397 2203 397 
Q 2534 397 2845 478 
Q 3156 559 3463 722 
L 3463 178 
Q 3153 47 2828 -22 
Q 2503 -91 2169 -91 
Q 1331 -91 842 396 
Q 353 884 353 1716 
Q 353 2575 817 3079 
Q 1281 3584 2069 3584 
Q 2775 3584 3186 3129 
Q 3597 2675 3597 1894 
z
M 3022 2063 
Q 3016 2534 2758 2815 
Q 2500 3097 2075 3097 
Q 1594 3097 1305 2825 
Q 1016 2553 972 2059 
L 3022 2063 
z
" transform="scale(0.015625)"/>
       </defs>
       <use xlink:href="#DejaVuSans-61"/>
       <use xlink:href="#DejaVuSans-66" x="61.279297"/>
       <use xlink:href="#DejaVuSans-6c" x="96.484375"/>
       <use xlink:href="#DejaVuSans-70" x="124.267578"/>
       <use xlink:href="#DejaVuSans-6c" x="187.744141"/>
       <use xlink:href="#DejaVuSans-75" x="215.527344"/>
       <use xlink:href="#DejaVuSans-73" x="278.90625"/>
       <use xlink:href="#DejaVuSans-70" x="331.005859"/>
       <use xlink:href="#DejaVuSans-6c" x="394.482422"/>
       <use xlink:href="#DejaVuSans-75" x="422.265625"/>
       <use xlink:href="#DejaVuSans-73" x="485.644531"/>
       <use xlink:href="#DejaVuSans-5f" x="537.744141"/>
       <use xlink:href="#DejaVuSans-61" x="587.744141"/>
       <use xlink:href="#DejaVuSans-73" x="649.023438"/>
       <use xlink:href="#DejaVuSans-74" x="701.123047"/>
       <use xlink:href="#DejaVuSans-5f" x="740.332031"/>
       <use xlink:href="#DejaVuSans-6f" x="790.332031"/>
       <use xlink:href="#DejaVuSans-33" x="851.513672"/>
       <use xlink:href="#DejaVuSans-5f" x="915.136719"/>
       <use xlink:href="#DejaVuSans-6e" x="965.136719"/>
       <use xlink:href="#DejaVuSans-61" x="1028.515625"/>
       <use xlink:href="#DejaVuSans-74" x="1089.794922"/>
       <use xlink:href="#DejaVuSans-69" x="1129.003906"/>
       <use xlink:href="#DejaVuSans-76" x="1156.787109"/>
       <use xlink:href="#DejaVuSans-65" x="1215.966797"/>
      </g>
     </g>
    </g>
    <g id="xtick_8">
     <g id="line2d_8">
      <g>
       <use xlink:href="#mbaa6e2eb8c" x="369.190275" y="288.430125" style="stroke: #000000; stroke-width: 0.8"/>
      </g>
     </g>
     <g id="text_8">
      <!-- aflplusplus_ast_opt_disable -->
      <g transform="translate(250.091184 370.091815)rotate(-30)scale(0.1 -0.1)">
       <defs>
        <path id="DejaVuSans-64" d="M 2906 2969 
L 2906 4863 
L 3481 4863 
L 3481 0 
L 2906 0 
L 2906 525 
Q 2725 213 2448 61 
Q 2172 -91 1784 -91 
Q 1150 -91 751 415 
Q 353 922 353 1747 
Q 353 2572 751 3078 
Q 1150 3584 1784 3584 
Q 2172 3584 2448 3432 
Q 2725 3281 2906 2969 
z
M 947 1747 
Q 947 1113 1208 752 
Q 1469 391 1925 391 
Q 2381 391 2643 752 
Q 2906 1113 2906 1747 
Q 2906 2381 2643 2742 
Q 2381 3103 1925 3103 
Q 1469 3103 1208 2742 
Q 947 2381 947 1747 
z
" transform="scale(0.015625)"/>
        <path id="DejaVuSans-62" d="M 3116 1747 
Q 3116 2381 2855 2742 
Q 2594 3103 2138 3103 
Q 1681 3103 1420 2742 
Q 1159 2381 1159 1747 
Q 1159 1113 1420 752 
Q 1681 391 2138 391 
Q 2594 391 2855 752 
Q 3116 1113 3116 1747 
z
M 1159 2969 
Q 1341 3281 1617 3432 
Q 1894 3584 2278 3584 
Q 2916 3584 3314 3078 
Q 3713 2572 3713 1747 
Q 3713 922 3314 415 
Q 2916 -91 2278 -91 
Q 1894 -91 1617 61 
Q 1341 213 1159 525 
L 1159 0 
L 581 0 
L 581 4863 
L 1159 4863 
L 1159 2969 
z
" transform="scale(0.015625)"/>
       </defs>
       <use xlink:href="#DejaVuSans-61"/>
       <use xlink:href="#DejaVuSans-66" x="61.279297"/>
       <use xlink:href="#DejaVuSans-6c" x="96.484375"/>
       <use xlink:href="#DejaVuSans-70" x="124.267578"/>
       <use xlink:href="#DejaVuSans-6c" x="187.744141"/>
       <use xlink:href="#DejaVuSans-75" x="215.527344"/>
       <use xlink:href="#DejaVuSans-73" x="278.90625"/>
       <use xlink:href="#DejaVuSans-70" x="331.005859"/>
       <use xlink:href="#DejaVuSans-6c" x="394.482422"/>
       <use xlink:href="#DejaVuSans-75" x="422.265625"/>
       <use xlink:href="#DejaVuSans-73" x="485.644531"/>
       <use xlink:href="#DejaVuSans-5f" x="537.744141"/>
       <use xlink:href="#DejaVuSans-61" x="587.744141"/>
       <use xlink:href="#DejaVuSans-73" x="649.023438"/>
       <use xlink:href="#DejaVuSans-74" x="701.123047"/>
       <use xlink:href="#DejaVuSans-5f" x="740.332031"/>
       <use xlink:href="#DejaVuSans-6f" x="790.332031"/>
       <use xlink:href="#DejaVuSans-70" x="851.513672"/>
       <use xlink:href="#DejaVuSans-74" x="914.990234"/>
       <use xlink:href="#DejaVuSans-5f" x="954.199219"/>
       <use xlink:href="#DejaVuSans-64" x="1004.199219"/>
       <use xlink:href="#DejaVuSans-69" x="1067.675781"/>
       <use xlink:href="#DejaVuSans-73" x="1095.458984"/>
       <use xlink:href="#DejaVuSans-61" x="1147.558594"/>
       <use xlink:href="#DejaVuSans-62" x="1208.837891"/>
       <use xlink:href="#DejaVuSans-6c" x="1272.314453"/>
       <use xlink:href="#DejaVuSans-65" x="1300.097656"/>
      </g>
     </g>
    </g>
    <g id="xtick_9">
     <g id="line2d_9">
      <g>
       <use xlink:href="#mbaa6e2eb8c" x="408.870275" y="288.430125" style="stroke: #000000; stroke-width: 0.8"/>
      </g>
     </g>
     <g id="text_9">
      <!-- aflplusplus_ast_opt_l1 -->
      <g transform="translate(312.810167 356.790252)rotate(-30)scale(0.1 -0.1)">
       <use xlink:href="#DejaVuSans-61"/>
       <use xlink:href="#DejaVuSans-66" x="61.279297"/>
       <use xlink:href="#DejaVuSans-6c" x="96.484375"/>
       <use xlink:href="#DejaVuSans-70" x="124.267578"/>
       <use xlink:href="#DejaVuSans-6c" x="187.744141"/>
       <use xlink:href="#DejaVuSans-75" x="215.527344"/>
       <use xlink:href="#DejaVuSans-73" x="278.90625"/>
       <use xlink:href="#DejaVuSans-70" x="331.005859"/>
       <use xlink:href="#DejaVuSans-6c" x="394.482422"/>
       <use xlink:href="#DejaVuSans-75" x="422.265625"/>
       <use xlink:href="#DejaVuSans-73" x="485.644531"/>
       <use xlink:href="#DejaVuSans-5f" x="537.744141"/>
       <use xlink:href="#DejaVuSans-61" x="587.744141"/>
       <use xlink:href="#DejaVuSans-73" x="649.023438"/>
       <use xlink:href="#DejaVuSans-74" x="701.123047"/>
       <use xlink:href="#DejaVuSans-5f" x="740.332031"/>
       <use xlink:href="#DejaVuSans-6f" x="790.332031"/>
       <use xlink:href="#DejaVuSans-70" x="851.513672"/>
       <use xlink:href="#DejaVuSans-74" x="914.990234"/>
       <use xlink:href="#DejaVuSans-5f" x="954.199219"/>
       <use xlink:href="#DejaVuSans-6c" x="1004.199219"/>
       <use xlink:href="#DejaVuSans-31" x="1031.982422"/>
      </g>
     </g>
    </g>
    <g id="text_10">
     <!-- Fuzzer (highest median coverage on the left) -->
     <g transform="translate(137.532306 383.732178)scale(0.1 -0.1)">
      <defs>
       <path id="DejaVuSans-46" d="M 628 4666 
L 3309 4666 
L 3309 4134 
L 1259 4134 
L 1259 2759 
L 3109 2759 
L 3109 2228 
L 1259 2228 
L 1259 0 
L 628 0 
L 628 4666 
z
" transform="scale(0.015625)"/>
       <path id="DejaVuSans-7a" d="M 353 3500 
L 3084 3500 
L 3084 2975 
L 922 459 
L 3084 459 
L 3084 0 
L 275 0 
L 275 525 
L 2438 3041 
L 353 3041 
L 353 3500 
z
" transform="scale(0.015625)"/>
       <path id="DejaVuSans-72" d="M 2631 2963 
Q 2534 3019 2420 3045 
Q 2306 3072 2169 3072 
Q 1681 3072 1420 2755 
Q 1159 2438 1159 1844 
L 1159 0 
L 581 0 
L 581 3500 
L 1159 3500 
L 1159 2956 
Q 1341 3275 1631 3429 
Q 1922 3584 2338 3584 
Q 2397 3584 2469 3576 
Q 2541 3569 2628 3553 
L 2631 2963 
z
" transform="scale(0.015625)"/>
       <path id="DejaVuSans-20" transform="scale(0.015625)"/>
       <path id="DejaVuSans-28" d="M 1984 4856 
Q 1566 4138 1362 3434 
Q 1159 2731 1159 2009 
Q 1159 1288 1364 580 
Q 1569 -128 1984 -844 
L 1484 -844 
Q 1016 -109 783 600 
Q 550 1309 550 2009 
Q 550 2706 781 3412 
Q 1013 4119 1484 4856 
L 1984 4856 
z
" transform="scale(0.015625)"/>
       <path id="DejaVuSans-68" d="M 3513 2113 
L 3513 0 
L 2938 0 
L 2938 2094 
Q 2938 2591 2744 2837 
Q 2550 3084 2163 3084 
Q 1697 3084 1428 2787 
Q 1159 2491 1159 1978 
L 1159 0 
L 581 0 
L 581 4863 
L 1159 4863 
L 1159 2956 
Q 1366 3272 1645 3428 
Q 1925 3584 2291 3584 
Q 2894 3584 3203 3211 
Q 3513 2838 3513 2113 
z
" transform="scale(0.015625)"/>
       <path id="DejaVuSans-67" d="M 2906 1791 
Q 2906 2416 2648 2759 
Q 2391 3103 1925 3103 
Q 1463 3103 1205 2759 
Q 947 2416 947 1791 
Q 947 1169 1205 825 
Q 1463 481 1925 481 
Q 2391 481 2648 825 
Q 2906 1169 2906 1791 
z
M 3481 434 
Q 3481 -459 3084 -895 
Q 2688 -1331 1869 -1331 
Q 1566 -1331 1297 -1286 
Q 1028 -1241 775 -1147 
L 775 -588 
Q 1028 -725 1275 -790 
Q 1522 -856 1778 -856 
Q 2344 -856 2625 -561 
Q 2906 -266 2906 331 
L 2906 616 
Q 2728 306 2450 153 
Q 2172 0 1784 0 
Q 1141 0 747 490 
Q 353 981 353 1791 
Q 353 2603 747 3093 
Q 1141 3584 1784 3584 
Q 2172 3584 2450 3431 
Q 2728 3278 2906 2969 
L 2906 3500 
L 3481 3500 
L 3481 434 
z
" transform="scale(0.015625)"/>
       <path id="DejaVuSans-6d" d="M 3328 2828 
Q 3544 3216 3844 3400 
Q 4144 3584 4550 3584 
Q 5097 3584 5394 3201 
Q 5691 2819 5691 2113 
L 5691 0 
L 5113 0 
L 5113 2094 
Q 5113 2597 4934 2840 
Q 4756 3084 4391 3084 
Q 3944 3084 3684 2787 
Q 3425 2491 3425 1978 
L 3425 0 
L 2847 0 
L 2847 2094 
Q 2847 2600 2669 2842 
Q 2491 3084 2119 3084 
Q 1678 3084 1418 2786 
Q 1159 2488 1159 1978 
L 1159 0 
L 581 0 
L 581 3500 
L 1159 3500 
L 1159 2956 
Q 1356 3278 1631 3431 
Q 1906 3584 2284 3584 
Q 2666 3584 2933 3390 
Q 3200 3197 3328 2828 
z
" transform="scale(0.015625)"/>
       <path id="DejaVuSans-63" d="M 3122 3366 
L 3122 2828 
Q 2878 2963 2633 3030 
Q 2388 3097 2138 3097 
Q 1578 3097 1268 2742 
Q 959 2388 959 1747 
Q 959 1106 1268 751 
Q 1578 397 2138 397 
Q 2388 397 2633 464 
Q 2878 531 3122 666 
L 3122 134 
Q 2881 22 2623 -34 
Q 2366 -91 2075 -91 
Q 1284 -91 818 406 
Q 353 903 353 1747 
Q 353 2603 823 3093 
Q 1294 3584 2113 3584 
Q 2378 3584 2631 3529 
Q 2884 3475 3122 3366 
z
" transform="scale(0.015625)"/>
       <path id="DejaVuSans-29" d="M 513 4856 
L 1013 4856 
Q 1481 4119 1714 3412 
Q 1947 2706 1947 2009 
Q 1947 1309 1714 600 
Q 1481 -109 1013 -844 
L 513 -844 
Q 928 -128 1133 580 
Q 1338 1288 1338 2009 
Q 1338 2731 1133 3434 
Q 928 4138 513 4856 
z
" transform="scale(0.015625)"/>
      </defs>
      <use xlink:href="#DejaVuSans-46"/>
      <use xlink:href="#DejaVuSans-75" x="52.019531"/>
      <use xlink:href="#DejaVuSans-7a" x="115.398438"/>
      <use xlink:href="#DejaVuSans-7a" x="167.888672"/>
      <use xlink:href="#DejaVuSans-65" x="220.378906"/>
      <use xlink:href="#DejaVuSans-72" x="281.902344"/>
      <use xlink:href="#DejaVuSans-20" x="323.015625"/>
      <use xlink:href="#DejaVuSans-28" x="354.802734"/>
      <use xlink:href="#DejaVuSans-68" x="393.816406"/>
      <use xlink:href="#DejaVuSans-69" x="457.195312"/>
      <use xlink:href="#DejaVuSans-67" x="484.978516"/>
      <use xlink:href="#DejaVuSans-68" x="548.455078"/>
      <use xlink:href="#DejaVuSans-65" x="611.833984"/>
      <use xlink:href="#DejaVuSans-73" x="673.357422"/>
      <use xlink:href="#DejaVuSans-74" x="725.457031"/>
      <use xlink:href="#DejaVuSans-20" x="764.666016"/>
      <use xlink:href="#DejaVuSans-6d" x="796.453125"/>
      <use xlink:href="#DejaVuSans-65" x="893.865234"/>
      <use xlink:href="#DejaVuSans-64" x="955.388672"/>
      <use xlink:href="#DejaVuSans-69" x="1018.865234"/>
      <use xlink:href="#DejaVuSans-61" x="1046.648438"/>
      <use xlink:href="#DejaVuSans-6e" x="1107.927734"/>
      <use xlink:href="#DejaVuSans-20" x="1171.306641"/>
      <use xlink:href="#DejaVuSans-63" x="1203.09375"/>
      <use xlink:href="#DejaVuSans-6f" x="1258.074219"/>
      <use xlink:href="#DejaVuSans-76" x="1319.255859"/>
      <use xlink:href="#DejaVuSans-65" x="1378.435547"/>
      <use xlink:href="#DejaVuSans-72" x="1439.958984"/>
      <use xlink:href="#DejaVuSans-61" x="1481.072266"/>
      <use xlink:href="#DejaVuSans-67" x="1542.351562"/>
      <use xlink:href="#DejaVuSans-65" x="1605.828125"/>
      <use xlink:href="#DejaVuSans-20" x="1667.351562"/>
      <use xlink:href="#DejaVuSans-6f" x="1699.138672"/>
      <use xlink:href="#DejaVuSans-6e" x="1760.320312"/>
      <use xlink:href="#DejaVuSans-20" x="1823.699219"/>
      <use xlink:href="#DejaVuSans-74" x="1855.486328"/>
      <use xlink:href="#DejaVuSans-68" x="1894.695312"/>
      <use xlink:href="#DejaVuSans-65" x="1958.074219"/>
      <use xlink:href="#DejaVuSans-20" x="2019.597656"/>
      <use xlink:href="#DejaVuSans-6c" x="2051.384766"/>
      <use xlink:href="#DejaVuSans-65" x="2079.167969"/>
      <use xlink:href="#DejaVuSans-66" x="2140.691406"/>
      <use xlink:href="#DejaVuSans-74" x="2174.146484"/>
      <use xlink:href="#DejaVuSans-29" x="2213.355469"/>
     </g>
    </g>
   </g>
   <g id="matplotlib.axis_2">
    <g id="ytick_1">
     <g id="line2d_10">
      <defs>
       <path id="m321dced0db" d="M 0 0 
L -3.5 0 
" style="stroke: #000000; stroke-width: 0.8"/>
      </defs>
      <g>
       <use xlink:href="#m321dced0db" x="71.590275" y="247.188331" style="stroke: #000000; stroke-width: 0.8"/>
      </g>
     </g>
     <g id="text_11">
      <!-- 16000 -->
      <g transform="translate(32.777775 250.98755)scale(0.1 -0.1)">
       <defs>
        <path id="DejaVuSans-36" d="M 2113 2584 
Q 1688 2584 1439 2293 
Q 1191 2003 1191 1497 
Q 1191 994 1439 701 
Q 1688 409 2113 409 
Q 2538 409 2786 701 
Q 3034 994 3034 1497 
Q 3034 2003 2786 2293 
Q 2538 2584 2113 2584 
z
M 3366 4563 
L 3366 3988 
Q 3128 4100 2886 4159 
Q 2644 4219 2406 4219 
Q 1781 4219 1451 3797 
Q 1122 3375 1075 2522 
Q 1259 2794 1537 2939 
Q 1816 3084 2150 3084 
Q 2853 3084 3261 2657 
Q 3669 2231 3669 1497 
Q 3669 778 3244 343 
Q 2819 -91 2113 -91 
Q 1303 -91 875 529 
Q 447 1150 447 2328 
Q 447 3434 972 4092 
Q 1497 4750 2381 4750 
Q 2619 4750 2861 4703 
Q 3103 4656 3366 4563 
z
" transform="scale(0.015625)"/>
       </defs>
       <use xlink:href="#DejaVuSans-31"/>
       <use xlink:href="#DejaVuSans-36" x="63.623047"/>
       <use xlink:href="#DejaVuSans-30" x="127.246094"/>
       <use xlink:href="#DejaVuSans-30" x="190.869141"/>
       <use xlink:href="#DejaVuSans-30" x="254.492188"/>
      </g>
     </g>
    </g>
    <g id="ytick_2">
     <g id="line2d_11">
      <g>
       <use xlink:href="#m321dced0db" x="71.590275" y="203.812664" style="stroke: #000000; stroke-width: 0.8"/>
      </g>
     </g>
     <g id="text_12">
      <!-- 17000 -->
      <g transform="translate(32.777775 207.611883)scale(0.1 -0.1)">
       <defs>
        <path id="DejaVuSans-37" d="M 525 4666 
L 3525 4666 
L 3525 4397 
L 1831 0 
L 1172 0 
L 2766 4134 
L 525 4134 
L 525 4666 
z
" transform="scale(0.015625)"/>
       </defs>
       <use xlink:href="#DejaVuSans-31"/>
       <use xlink:href="#DejaVuSans-37" x="63.623047"/>
       <use xlink:href="#DejaVuSans-30" x="127.246094"/>
       <use xlink:href="#DejaVuSans-30" x="190.869141"/>
       <use xlink:href="#DejaVuSans-30" x="254.492188"/>
      </g>
     </g>
    </g>
    <g id="ytick_3">
     <g id="line2d_12">
      <g>
       <use xlink:href="#m321dced0db" x="71.590275" y="160.436997" style="stroke: #000000; stroke-width: 0.8"/>
      </g>
     </g>
     <g id="text_13">
      <!-- 18000 -->
      <g transform="translate(32.777775 164.236215)scale(0.1 -0.1)">
       <defs>
        <path id="DejaVuSans-38" d="M 2034 2216 
Q 1584 2216 1326 1975 
Q 1069 1734 1069 1313 
Q 1069 891 1326 650 
Q 1584 409 2034 409 
Q 2484 409 2743 651 
Q 3003 894 3003 1313 
Q 3003 1734 2745 1975 
Q 2488 2216 2034 2216 
z
M 1403 2484 
Q 997 2584 770 2862 
Q 544 3141 544 3541 
Q 544 4100 942 4425 
Q 1341 4750 2034 4750 
Q 2731 4750 3128 4425 
Q 3525 4100 3525 3541 
Q 3525 3141 3298 2862 
Q 3072 2584 2669 2484 
Q 3125 2378 3379 2068 
Q 3634 1759 3634 1313 
Q 3634 634 3220 271 
Q 2806 -91 2034 -91 
Q 1263 -91 848 271 
Q 434 634 434 1313 
Q 434 1759 690 2068 
Q 947 2378 1403 2484 
z
M 1172 3481 
Q 1172 3119 1398 2916 
Q 1625 2713 2034 2713 
Q 2441 2713 2670 2916 
Q 2900 3119 2900 3481 
Q 2900 3844 2670 4047 
Q 2441 4250 2034 4250 
Q 1625 4250 1398 4047 
Q 1172 3844 1172 3481 
z
" transform="scale(0.015625)"/>
       </defs>
       <use xlink:href="#DejaVuSans-31"/>
       <use xlink:href="#DejaVuSans-38" x="63.623047"/>
       <use xlink:href="#DejaVuSans-30" x="127.246094"/>
       <use xlink:href="#DejaVuSans-30" x="190.869141"/>
       <use xlink:href="#DejaVuSans-30" x="254.492188"/>
      </g>
     </g>
    </g>
    <g id="ytick_4">
     <g id="line2d_13">
      <g>
       <use xlink:href="#m321dced0db" x="71.590275" y="117.061329" style="stroke: #000000; stroke-width: 0.8"/>
      </g>
     </g>
     <g id="text_14">
      <!-- 19000 -->
      <g transform="translate(32.777775 120.860548)scale(0.1 -0.1)">
       <defs>
        <path id="DejaVuSans-39" d="M 703 97 
L 703 672 
Q 941 559 1184 500 
Q 1428 441 1663 441 
Q 2288 441 2617 861 
Q 2947 1281 2994 2138 
Q 2813 1869 2534 1725 
Q 2256 1581 1919 1581 
Q 1219 1581 811 2004 
Q 403 2428 403 3163 
Q 403 3881 828 4315 
Q 1253 4750 1959 4750 
Q 2769 4750 3195 4129 
Q 3622 3509 3622 2328 
Q 3622 1225 3098 567 
Q 2575 -91 1691 -91 
Q 1453 -91 1209 -44 
Q 966 3 703 97 
z
M 1959 2075 
Q 2384 2075 2632 2365 
Q 2881 2656 2881 3163 
Q 2881 3666 2632 3958 
Q 2384 4250 1959 4250 
Q 1534 4250 1286 3958 
Q 1038 3666 1038 3163 
Q 1038 2656 1286 2365 
Q 1534 2075 1959 2075 
z
" transform="scale(0.015625)"/>
       </defs>
       <use xlink:href="#DejaVuSans-31"/>
       <use xlink:href="#DejaVuSans-39" x="63.623047"/>
       <use xlink:href="#DejaVuSans-30" x="127.246094"/>
       <use xlink:href="#DejaVuSans-30" x="190.869141"/>
       <use xlink:href="#DejaVuSans-30" x="254.492188"/>
      </g>
     </g>
    </g>
    <g id="ytick_5">
     <g id="line2d_14">
      <g>
       <use xlink:href="#m321dced0db" x="71.590275" y="73.685662" style="stroke: #000000; stroke-width: 0.8"/>
      </g>
     </g>
     <g id="text_15">
      <!-- 20000 -->
      <g transform="translate(32.777775 77.484881)scale(0.1 -0.1)">
       <use xlink:href="#DejaVuSans-32"/>
       <use xlink:href="#DejaVuSans-30" x="63.623047"/>
       <use xlink:href="#DejaVuSans-30" x="127.246094"/>
       <use xlink:href="#DejaVuSans-30" x="190.869141"/>
       <use xlink:href="#DejaVuSans-30" x="254.492188"/>
      </g>
     </g>
    </g>
    <g id="ytick_6">
     <g id="line2d_15">
      <g>
       <use xlink:href="#m321dced0db" x="71.590275" y="30.309995" style="stroke: #000000; stroke-width: 0.8"/>
      </g>
     </g>
     <g id="text_16">
      <!-- 21000 -->
      <g transform="translate(32.777775 34.109214)scale(0.1 -0.1)">
       <use xlink:href="#DejaVuSans-32"/>
       <use xlink:href="#DejaVuSans-31" x="63.623047"/>
       <use xlink:href="#DejaVuSans-30" x="127.246094"/>
       <use xlink:href="#DejaVuSans-30" x="190.869141"/>
       <use xlink:href="#DejaVuSans-30" x="254.492188"/>
      </g>
     </g>
    </g>
    <g id="text_17">
     <!-- Reached region coverage -->
     <g transform="translate(26.698087 219.136625)rotate(-90)scale(0.1 -0.1)">
      <defs>
       <path id="DejaVuSans-52" d="M 2841 2188 
Q 3044 2119 3236 1894 
Q 3428 1669 3622 1275 
L 4263 0 
L 3584 0 
L 2988 1197 
Q 2756 1666 2539 1819 
Q 2322 1972 1947 1972 
L 1259 1972 
L 1259 0 
L 628 0 
L 628 4666 
L 2053 4666 
Q 2853 4666 3247 4331 
Q 3641 3997 3641 3322 
Q 3641 2881 3436 2590 
Q 3231 2300 2841 2188 
z
M 1259 4147 
L 1259 2491 
L 2053 2491 
Q 2509 2491 2742 2702 
Q 2975 2913 2975 3322 
Q 2975 3731 2742 3939 
Q 2509 4147 2053 4147 
L 1259 4147 
z
" transform="scale(0.015625)"/>
      </defs>
      <use xlink:href="#DejaVuSans-52"/>
      <use xlink:href="#DejaVuSans-65" x="64.982422"/>
      <use xlink:href="#DejaVuSans-61" x="126.505859"/>
      <use xlink:href="#DejaVuSans-63" x="187.785156"/>
      <use xlink:href="#DejaVuSans-68" x="242.765625"/>
      <use xlink:href="#DejaVuSans-65" x="306.144531"/>
      <use xlink:href="#DejaVuSans-64" x="367.667969"/>
      <use xlink:href="#DejaVuSans-20" x="431.144531"/>
      <use xlink:href="#DejaVuSans-72" x="462.931641"/>
      <use xlink:href="#DejaVuSans-65" x="501.794922"/>
      <use xlink:href="#DejaVuSans-67" x="563.318359"/>
      <use xlink:href="#DejaVuSans-69" x="626.794922"/>
      <use xlink:href="#DejaVuSans-6f" x="654.578125"/>
      <use xlink:href="#DejaVuSans-6e" x="715.759766"/>
      <use xlink:href="#DejaVuSans-20" x="779.138672"/>
      <use xlink:href="#DejaVuSans-63" x="810.925781"/>
      <use xlink:href="#DejaVuSans-6f" x="865.90625"/>
      <use xlink:href="#DejaVuSans-76" x="927.087891"/>
      <use xlink:href="#DejaVuSans-65" x="986.267578"/>
      <use xlink:href="#DejaVuSans-72" x="1047.791016"/>
      <use xlink:href="#DejaVuSans-61" x="1088.904297"/>
      <use xlink:href="#DejaVuSans-67" x="1150.183594"/>
      <use xlink:href="#DejaVuSans-65" x="1213.660156"/>
     </g>
    </g>
   </g>
   <g id="line2d_16">
    <path d="M 91.430275 187.807043 
L 91.430275 87.82613 
" clip-path="url(#pdf4ad066f9)" style="fill: none; stroke: #3d3d3d; stroke-width: 1.5; stroke-linecap: square"/>
   </g>
   <g id="line2d_17">
    <path d="M 91.430275 169.751921 
L 91.430275 124.413505 
" clip-path="url(#pdf4ad066f9)" style="fill: none; stroke: #3d3d3d; stroke-width: 4.5; stroke-linecap: square"/>
   </g>
   <g id="line2d_18">
    <path d="M 131.110275 208.150231 
L 131.110275 122.049531 
" clip-path="url(#pdf4ad066f9)" style="fill: none; stroke: #3d3d3d; stroke-width: 1.5; stroke-linecap: square"/>
   </g>
   <g id="line2d_19">
    <path d="M 131.110275 194.378456 
L 131.110275 142.696349 
" clip-path="url(#pdf4ad066f9)" style="fill: none; stroke: #3d3d3d; stroke-width: 4.5; stroke-linecap: square"/>
   </g>
   <g id="line2d_20">
    <path d="M 170.790275 197.523192 
L 170.790275 106.087286 
" clip-path="url(#pdf4ad066f9)" style="fill: none; stroke: #3d3d3d; stroke-width: 1.5; stroke-linecap: square"/>
   </g>
   <g id="line2d_21">
    <path d="M 170.790275 186.234675 
L 170.790275 141.807148 
" clip-path="url(#pdf4ad066f9)" style="fill: none; stroke: #3d3d3d; stroke-width: 4.5; stroke-linecap: square"/>
   </g>
   <g id="line2d_22">
    <path d="M 210.470275 210.752771 
L 210.470275 94.158977 
" clip-path="url(#pdf4ad066f9)" style="fill: none; stroke: #3d3d3d; stroke-width: 1.5; stroke-linecap: square"/>
   </g>
   <g id="line2d_23">
    <path d="M 210.470275 183.577915 
L 210.470275 136.081559 
" clip-path="url(#pdf4ad066f9)" style="fill: none; stroke: #3d3d3d; stroke-width: 4.5; stroke-linecap: square"/>
   </g>
   <g id="line2d_24">
    <path d="M 250.150275 229.621186 
L 250.150275 156.750065 
" clip-path="url(#pdf4ad066f9)" style="fill: none; stroke: #3d3d3d; stroke-width: 1.5; stroke-linecap: square"/>
   </g>
   <g id="line2d_25">
    <path d="M 250.150275 217.302496 
L 250.150275 160.415309 
" clip-path="url(#pdf4ad066f9)" style="fill: none; stroke: #3d3d3d; stroke-width: 4.5; stroke-linecap: square"/>
   </g>
   <g id="line2d_26">
    <path d="M 289.830275 194.877276 
L 289.830275 175.054597 
" clip-path="url(#pdf4ad066f9)" style="fill: none; stroke: #3d3d3d; stroke-width: 1.5; stroke-linecap: square"/>
   </g>
   <g id="line2d_27">
    <path d="M 289.830275 191.775916 
L 289.830275 176.496837 
" clip-path="url(#pdf4ad066f9)" style="fill: none; stroke: #3d3d3d; stroke-width: 4.5; stroke-linecap: square"/>
   </g>
   <g id="line2d_28">
    <path d="M 329.510275 215.393967 
L 329.510275 204.983807 
" clip-path="url(#pdf4ad066f9)" style="fill: none; stroke: #3d3d3d; stroke-width: 1.5; stroke-linecap: square"/>
   </g>
   <g id="line2d_29">
    <path d="M 329.510275 215.177089 
L 329.510275 209.972009 
" clip-path="url(#pdf4ad066f9)" style="fill: none; stroke: #3d3d3d; stroke-width: 4.5; stroke-linecap: square"/>
   </g>
   <g id="line2d_30">
    <path d="M 369.190275 262.846947 
L 369.190275 254.865824 
" clip-path="url(#pdf4ad066f9)" style="fill: none; stroke: #3d3d3d; stroke-width: 1.5; stroke-linecap: square"/>
   </g>
   <g id="line2d_31">
    <path d="M 369.190275 261.827619 
L 369.190275 257.837058 
" clip-path="url(#pdf4ad066f9)" style="fill: none; stroke: #3d3d3d; stroke-width: 4.5; stroke-linecap: square"/>
   </g>
   <g id="line2d_32">
    <path d="M 408.870275 261.762555 
L 408.870275 251.265644 
" clip-path="url(#pdf4ad066f9)" style="fill: none; stroke: #3d3d3d; stroke-width: 1.5; stroke-linecap: square"/>
   </g>
   <g id="line2d_33">
    <path d="M 408.870275 261.740868 
L 408.870275 256.492412 
" clip-path="url(#pdf4ad066f9)" style="fill: none; stroke: #3d3d3d; stroke-width: 4.5; stroke-linecap: square"/>
   </g>
   <g id="patch_3">
    <path d="M 71.590275 247.188331 
L 71.590275 30.309995 
" style="fill: none; stroke: #000000; stroke-width: 0.8; stroke-linejoin: miter; stroke-linecap: square"/>
   </g>
   <g id="patch_4">
    <path d="M 91.430275 288.430125 
L 408.870275 288.430125 
" style="fill: none; stroke: #000000; stroke-width: 0.8; stroke-linejoin: miter; stroke-linecap: square"/>
   </g>
   <g id="PathCollection_1">
    <defs>
     <path id="m328b59cffc" d="M 0 1.5 
C 0.397805 1.5 0.77937 1.341951 1.06066 1.06066 
C 1.341951 0.77937 1.5 0.397805 1.5 0 
C 1.5 -0.397805 1.341951 -0.77937 1.06066 -1.06066 
C 0.77937 -1.341951 0.397805 -1.5 0 -1.5 
C -0.397805 -1.5 -0.77937 -1.341951 -1.06066 -1.06066 
C -1.341951 -0.77937 -1.5 -0.397805 -1.5 0 
C -1.5 0.397805 -1.341951 0.77937 -1.06066 1.06066 
C -0.77937 1.341951 -0.397805 1.5 0 1.5 
z
" style="stroke: #3d3d3d"/>
    </defs>
    <g clip-path="url(#pdf4ad066f9)">
     <use xlink:href="#m328b59cffc" x="91.430275" y="144.756693" style="fill: #ffffff; stroke: #3d3d3d"/>
    </g>
   </g>
   <g id="PathCollection_2">
    <g clip-path="url(#pdf4ad066f9)">
     <use xlink:href="#m328b59cffc" x="131.110275" y="155.947615" style="fill: #ffffff; stroke: #3d3d3d"/>
    </g>
   </g>
   <g id="PathCollection_3">
    <g clip-path="url(#pdf4ad066f9)">
     <use xlink:href="#m328b59cffc" x="170.790275" y="158.506779" style="fill: #ffffff; stroke: #3d3d3d"/>
    </g>
   </g>
   <g id="PathCollection_4">
    <g clip-path="url(#pdf4ad066f9)">
     <use xlink:href="#m328b59cffc" x="210.470275" y="171.21585" style="fill: #ffffff; stroke: #3d3d3d"/>
    </g>
   </g>
   <g id="PathCollection_5">
    <g clip-path="url(#pdf4ad066f9)">
     <use xlink:href="#m328b59cffc" x="250.150275" y="181.344068" style="fill: #ffffff; stroke: #3d3d3d"/>
    </g>
   </g>
   <g id="PathCollection_6">
    <g clip-path="url(#pdf4ad066f9)">
     <use xlink:href="#m328b59cffc" x="289.830275" y="181.647698" style="fill: #ffffff; stroke: #3d3d3d"/>
    </g>
   </g>
   <g id="PathCollection_7">
    <g clip-path="url(#pdf4ad066f9)">
     <use xlink:href="#m328b59cffc" x="329.510275" y="214.96021" style="fill: #ffffff; stroke: #3d3d3d"/>
    </g>
   </g>
   <g id="PathCollection_8">
    <g clip-path="url(#pdf4ad066f9)">
     <use xlink:href="#m328b59cffc" x="369.190275" y="260.808291" style="fill: #ffffff; stroke: #3d3d3d"/>
    </g>
   </g>
   <g id="PathCollection_9">
    <g clip-path="url(#pdf4ad066f9)">
     <use xlink:href="#m328b59cffc" x="408.870275" y="261.71918" style="fill: #ffffff; stroke: #3d3d3d"/>
    </g>
   </g>
   <g id="text_18">
    <!-- freetype2-2017 (4h:15m, 3 trials/fuzzer) -->
    <g transform="translate(129.071212 16.318125)scale(0.12 -0.12)">
     <defs>
      <path id="DejaVuSans-79" d="M 2059 -325 
Q 1816 -950 1584 -1140 
Q 1353 -1331 966 -1331 
L 506 -1331 
L 506 -850 
L 844 -850 
Q 1081 -850 1212 -737 
Q 1344 -625 1503 -206 
L 1606 56 
L 191 3500 
L 800 3500 
L 1894 763 
L 2988 3500 
L 3597 3500 
L 2059 -325 
z
" transform="scale(0.015625)"/>
      <path id="DejaVuSans-2d" d="M 313 2009 
L 1997 2009 
L 1997 1497 
L 313 1497 
L 313 2009 
z
" transform="scale(0.015625)"/>
      <path id="DejaVuSans-34" d="M 2419 4116 
L 825 1625 
L 2419 1625 
L 2419 4116 
z
M 2253 4666 
L 3047 4666 
L 3047 1625 
L 3713 1625 
L 3713 1100 
L 3047 1100 
L 3047 0 
L 2419 0 
L 2419 1100 
L 313 1100 
L 313 1709 
L 2253 4666 
z
" transform="scale(0.015625)"/>
      <path id="DejaVuSans-3a" d="M 750 794 
L 1409 794 
L 1409 0 
L 750 0 
L 750 794 
z
M 750 3309 
L 1409 3309 
L 1409 2516 
L 750 2516 
L 750 3309 
z
" transform="scale(0.015625)"/>
      <path id="DejaVuSans-35" d="M 691 4666 
L 3169 4666 
L 3169 4134 
L 1269 4134 
L 1269 2991 
Q 1406 3038 1543 3061 
Q 1681 3084 1819 3084 
Q 2600 3084 3056 2656 
Q 3513 2228 3513 1497 
Q 3513 744 3044 326 
Q 2575 -91 1722 -91 
Q 1428 -91 1123 -41 
Q 819 9 494 109 
L 494 744 
Q 775 591 1075 516 
Q 1375 441 1709 441 
Q 2250 441 2565 725 
Q 2881 1009 2881 1497 
Q 2881 1984 2565 2268 
Q 2250 2553 1709 2553 
Q 1456 2553 1204 2497 
Q 953 2441 691 2322 
L 691 4666 
z
" transform="scale(0.015625)"/>
      <path id="DejaVuSans-2c" d="M 750 794 
L 1409 794 
L 1409 256 
L 897 -744 
L 494 -744 
L 750 256 
L 750 794 
z
" transform="scale(0.015625)"/>
      <path id="DejaVuSans-2f" d="M 1625 4666 
L 2156 4666 
L 531 -594 
L 0 -594 
L 1625 4666 
z
" transform="scale(0.015625)"/>
     </defs>
     <use xlink:href="#DejaVuSans-66"/>
     <use xlink:href="#DejaVuSans-72" x="35.205078"/>
     <use xlink:href="#DejaVuSans-65" x="74.068359"/>
     <use xlink:href="#DejaVuSans-65" x="135.591797"/>
     <use xlink:href="#DejaVuSans-74" x="197.115234"/>
     <use xlink:href="#DejaVuSans-79" x="236.324219"/>
     <use xlink:href="#DejaVuSans-70" x="295.503906"/>
     <use xlink:href="#DejaVuSans-65" x="358.980469"/>
     <use xlink:href="#DejaVuSans-32" x="420.503906"/>
     <use xlink:href="#DejaVuSans-2d" x="484.126953"/>
     <use xlink:href="#DejaVuSans-32" x="520.210938"/>
     <use xlink:href="#DejaVuSans-30" x="583.833984"/>
     <use xlink:href="#DejaVuSans-31" x="647.457031"/>
     <use xlink:href="#DejaVuSans-37" x="711.080078"/>
     <use xlink:href="#DejaVuSans-20" x="774.703125"/>
     <use xlink:href="#DejaVuSans-28" x="806.490234"/>
     <use xlink:href="#DejaVuSans-34" x="845.503906"/>
     <use xlink:href="#DejaVuSans-68" x="909.126953"/>
     <use xlink:href="#DejaVuSans-3a" x="972.505859"/>
     <use xlink:href="#DejaVuSans-31" x="1006.197266"/>
     <use xlink:href="#DejaVuSans-35" x="1069.820312"/>
     <use xlink:href="#DejaVuSans-6d" x="1133.443359"/>
     <use xlink:href="#DejaVuSans-2c" x="1230.855469"/>
     <use xlink:href="#DejaVuSans-20" x="1262.642578"/>
     <use xlink:href="#DejaVuSans-33" x="1294.429688"/>
     <use xlink:href="#DejaVuSans-20" x="1358.052734"/>
     <use xlink:href="#DejaVuSans-74" x="1389.839844"/>
     <use xlink:href="#DejaVuSans-72" x="1429.048828"/>
     <use xlink:href="#DejaVuSans-69" x="1470.162109"/>
     <use xlink:href="#DejaVuSans-61" x="1497.945312"/>
     <use xlink:href="#DejaVuSans-6c" x="1559.224609"/>
     <use xlink:href="#DejaVuSans-73" x="1587.007812"/>
     <use xlink:href="#DejaVuSans-2f" x="1639.107422"/>
     <use xlink:href="#DejaVuSans-66" x="1672.798828"/>
     <use xlink:href="#DejaVuSans-75" x="1708.003906"/>
     <use xlink:href="#DejaVuSans-7a" x="1771.382812"/>
     <use xlink:href="#DejaVuSans-7a" x="1823.873047"/>
     <use xlink:href="#DejaVuSans-65" x="1876.363281"/>
     <use xlink:href="#DejaVuSans-72" x="1937.886719"/>
     <use xlink:href="#DejaVuSans-29" x="1979"/>
    </g>
   </g>
  </g>
 </g>
 <defs>
  <clipPath id="pdf4ad066f9">
   <rect x="71.590275" y="22.318125" width="357.12" height="266.112"/>
  </clipPath>
 </defs>
</svg>
