<?xml version="1.0" encoding="utf-8" standalone="no"?>
<!DOCTYPE svg PUBLIC "-//W3C//DTD SVG 1.1//EN"
  "http://www.w3.org/Graphics/SVG/1.1/DTD/svg11.dtd">
<svg xmlns:xlink="http://www.w3.org/1999/xlink" width="425.990275pt" height="370.686865pt" viewBox="0 0 425.990275 370.686865" xmlns="http://www.w3.org/2000/svg" version="1.1">
 <metadata>
  <rdf:RDF xmlns:dc="http://purl.org/dc/elements/1.1/" xmlns:cc="http://creativecommons.org/ns#" xmlns:rdf="http://www.w3.org/1999/02/22-rdf-syntax-ns#">
   <cc:Work>
    <dc:type rdf:resource="http://purl.org/dc/dcmitype/StillImage"/>
    <dc:date>2022-06-05T19:46:23.311128</dc:date>
    <dc:format>image/svg+xml</dc:format>
    <dc:creator>
     <cc:Agent>
      <dc:title>Matplotlib v3.5.1, https://matplotlib.org/</dc:title>
     </cc:Agent>
    </dc:creator>
   </cc:Work>
  </rdf:RDF>
 </metadata>
 <defs>
  <style type="text/css">*{stroke-linejoin: round; stroke-linecap: butt}</style>
 </defs>
 <g id="figure_1">
  <g id="patch_1">
   <path d="M 0 370.686865 
L 425.990275 370.686865 
L 425.990275 0 
L 0 0 
z
" style="fill: #ffffff"/>
  </g>
  <g id="axes_1">
   <g id="patch_2">
    <path d="M 61.670275 288.430125 
L 418.790275 288.430125 
L 418.790275 22.318125 
L 61.670275 22.318125 
z
" style="fill: #ffffff"/>
   </g>
   <g id="PolyCollection_1">
    <defs>
     <path id="m4e9d0552f4" d="M 92.983678 -187.950159 
L 89.876872 -187.950159 
L 89.66293 -188.136765 
L 89.427419 -188.323372 
L 89.169432 -188.509978 
L 88.888225 -188.696585 
L 88.583247 -188.883192 
L 88.254173 -189.069798 
L 87.900933 -189.256405 
L 87.523748 -189.443011 
L 87.12315 -189.629618 
L 86.700008 -189.816224 
L 86.255548 -190.002831 
L 85.791361 -190.189437 
L 85.309415 -190.376044 
L 84.812048 -190.56265 
L 84.301961 -190.749257 
L 83.782199 -190.935864 
L 83.256125 -191.12247 
L 82.727384 -191.309077 
L 82.199857 -191.495683 
L 81.677612 -191.68229 
L 81.164841 -191.868896 
L 80.665797 -192.055503 
L 80.184721 -192.242109 
L 79.72577 -192.428716 
L 79.292941 -192.615322 
L 78.889994 -192.801929 
L 78.520382 -192.988536 
L 78.18718 -193.175142 
L 77.893021 -193.361749 
L 77.640043 -193.548355 
L 77.429845 -193.734962 
L 77.26345 -193.921568 
L 77.141283 -194.108175 
L 77.063167 -194.294781 
L 77.028321 -194.481388 
L 77.035383 -194.667994 
L 77.082443 -194.854601 
L 77.167083 -195.041208 
L 77.286438 -195.227814 
L 77.437258 -195.414421 
L 77.615989 -195.601027 
L 77.818848 -195.787634 
L 78.041912 -195.97424 
L 78.281207 -196.160847 
L 78.53279 -196.347453 
L 78.792841 -196.53406 
L 79.057736 -196.720666 
L 79.324121 -196.907273 
L 79.58898 -197.09388 
L 79.849682 -197.280486 
L 80.104025 -197.467093 
L 80.350265 -197.653699 
L 80.587132 -197.840306 
L 80.813833 -198.026912 
L 81.030041 -198.213519 
L 81.235873 -198.400125 
L 81.431858 -198.586732 
L 81.618893 -198.773338 
L 81.798195 -198.959945 
L 81.971237 -199.146552 
L 82.139694 -199.333158 
L 82.305373 -199.519765 
L 82.470151 -199.706371 
L 82.635908 -199.892978 
L 82.804469 -200.079584 
L 82.977547 -200.266191 
L 83.156691 -200.452797 
L 83.343245 -200.639404 
L 83.538314 -200.82601 
L 83.742734 -201.012617 
L 83.957056 -201.199224 
L 84.18154 -201.38583 
L 84.416151 -201.572437 
L 84.66057 -201.759043 
L 84.914209 -201.94565 
L 85.176234 -202.132256 
L 85.44559 -202.318863 
L 85.721036 -202.505469 
L 86.00118 -202.692076 
L 86.284516 -202.878682 
L 86.569461 -203.065289 
L 86.854394 -203.251896 
L 87.137692 -203.438502 
L 87.417764 -203.625109 
L 87.693084 -203.811715 
L 87.962215 -203.998322 
L 88.223836 -204.184928 
L 88.476758 -204.371535 
L 88.719942 -204.558141 
L 88.952505 -204.744748 
L 89.173729 -204.931354 
L 89.383062 -205.117961 
L 89.580112 -205.304568 
L 89.764649 -205.491174 
L 89.936586 -205.677781 
L 90.095979 -205.864387 
L 90.243006 -206.050994 
L 90.377958 -206.2376 
L 90.501221 -206.424207 
L 92.359329 -206.424207 
L 92.359329 -206.424207 
L 92.482591 -206.2376 
L 92.617543 -206.050994 
L 92.76457 -205.864387 
L 92.923963 -205.677781 
L 93.095901 -205.491174 
L 93.280437 -205.304568 
L 93.477488 -205.117961 
L 93.68682 -204.931354 
L 93.908045 -204.744748 
L 94.140608 -204.558141 
L 94.383792 -204.371535 
L 94.636714 -204.184928 
L 94.898334 -203.998322 
L 95.167466 -203.811715 
L 95.442785 -203.625109 
L 95.722858 -203.438502 
L 96.006156 -203.251896 
L 96.291089 -203.065289 
L 96.576034 -202.878682 
L 96.85937 -202.692076 
L 97.139514 -202.505469 
L 97.41496 -202.318863 
L 97.684316 -202.132256 
L 97.94634 -201.94565 
L 98.199979 -201.759043 
L 98.444399 -201.572437 
L 98.67901 -201.38583 
L 98.903493 -201.199224 
L 99.117816 -201.012617 
L 99.322235 -200.82601 
L 99.517304 -200.639404 
L 99.703859 -200.452797 
L 99.883003 -200.266191 
L 100.05608 -200.079584 
L 100.224641 -199.892978 
L 100.390398 -199.706371 
L 100.555176 -199.519765 
L 100.720856 -199.333158 
L 100.889313 -199.146552 
L 101.062355 -198.959945 
L 101.241656 -198.773338 
L 101.428692 -198.586732 
L 101.624677 -198.400125 
L 101.830509 -198.213519 
L 102.046716 -198.026912 
L 102.273417 -197.840306 
L 102.510285 -197.653699 
L 102.756525 -197.467093 
L 103.010867 -197.280486 
L 103.271569 -197.09388 
L 103.536428 -196.907273 
L 103.802814 -196.720666 
L 104.067709 -196.53406 
L 104.327759 -196.347453 
L 104.579343 -196.160847 
L 104.818637 -195.97424 
L 105.041701 -195.787634 
L 105.24456 -195.601027 
L 105.423291 -195.414421 
L 105.574112 -195.227814 
L 105.693466 -195.041208 
L 105.778107 -194.854601 
L 105.825166 -194.667994 
L 105.832229 -194.481388 
L 105.797383 -194.294781 
L 105.719266 -194.108175 
L 105.5971 -193.921568 
L 105.430704 -193.734962 
L 105.220506 -193.548355 
L 104.967529 -193.361749 
L 104.673369 -193.175142 
L 104.340167 -192.988536 
L 103.970555 -192.801929 
L 103.567609 -192.615322 
L 103.13478 -192.428716 
L 102.675829 -192.242109 
L 102.194753 -192.055503 
L 101.695708 -191.868896 
L 101.182937 -191.68229 
L 100.660692 -191.495683 
L 100.133165 -191.309077 
L 99.604424 -191.12247 
L 99.07835 -190.935864 
L 98.558588 -190.749257 
L 98.048501 -190.56265 
L 97.551134 -190.376044 
L 97.069188 -190.189437 
L 96.605002 -190.002831 
L 96.160542 -189.816224 
L 95.7374 -189.629618 
L 95.336801 -189.443011 
L 94.959616 -189.256405 
L 94.606377 -189.069798 
L 94.277302 -188.883192 
L 93.972324 -188.696585 
L 93.691117 -188.509978 
L 93.433131 -188.323372 
L 93.197619 -188.136765 
L 92.983678 -187.950159 
z
" style="stroke: #3f3f3f; stroke-width: 1.5"/>
    </defs>
    <g clip-path="url(#p8cd23adb35)">
     <use xlink:href="#m4e9d0552f4" x="0" y="370.686865" style="fill: #e1812c; stroke: #3f3f3f; stroke-width: 1.5"/>
    </g>
   </g>
   <g id="PolyCollection_2">
    <defs>
     <path id="mca289a3d37" d="M 151.071499 -119.81133 
L 150.82905 -119.81133 
L 150.811517 -121.631638 
L 150.792068 -123.451946 
L 150.770597 -125.272254 
L 150.747007 -127.092562 
L 150.721212 -128.912871 
L 150.693144 -130.733179 
L 150.662754 -132.553487 
L 150.630012 -134.373795 
L 150.594916 -136.194103 
L 150.557489 -138.014411 
L 150.517783 -139.834719 
L 150.475882 -141.655027 
L 150.431905 -143.475336 
L 150.386003 -145.295644 
L 150.338361 -147.115952 
L 150.289199 -148.93626 
L 150.238772 -150.756568 
L 150.187363 -152.576876 
L 150.135286 -154.397184 
L 150.082882 -156.217492 
L 150.03051 -158.0378 
L 149.978548 -159.858109 
L 149.927386 -161.678417 
L 149.877417 -163.498725 
L 149.829036 -165.319033 
L 149.782629 -167.139341 
L 149.738568 -168.959649 
L 149.697204 -170.779957 
L 149.658861 -172.600265 
L 149.623828 -174.420574 
L 149.592357 -176.240882 
L 149.564654 -178.06119 
L 149.540877 -179.881498 
L 149.521135 -181.701806 
L 149.50548 -183.522114 
L 149.493914 -185.342422 
L 149.486382 -187.16273 
L 149.482779 -188.983039 
L 149.48295 -190.803347 
L 149.486694 -192.623655 
L 149.493773 -194.443963 
L 149.50391 -196.264271 
L 149.516804 -198.084579 
L 149.532132 -199.904887 
L 149.54956 -201.725195 
L 149.568746 -203.545504 
L 149.589355 -205.365812 
L 149.61106 -207.18612 
L 149.633552 -209.006428 
L 149.656549 -210.826736 
L 149.679795 -212.647044 
L 149.703071 -214.467352 
L 149.726195 -216.28766 
L 149.749026 -218.107969 
L 149.771465 -219.928277 
L 149.793453 -221.748585 
L 149.814972 -223.568893 
L 149.836043 -225.389201 
L 149.856719 -227.209509 
L 149.877084 -229.029817 
L 149.897246 -230.850125 
L 149.917335 -232.670434 
L 149.93749 -234.490742 
L 149.95786 -236.31105 
L 149.978594 -238.131358 
L 149.999836 -239.951666 
L 150.021718 -241.771974 
L 150.044358 -243.592282 
L 150.067854 -245.41259 
L 150.092282 -247.232899 
L 150.117689 -249.053207 
L 150.144096 -250.873515 
L 150.171497 -252.693823 
L 150.199857 -254.514131 
L 150.229112 -256.334439 
L 150.259174 -258.154747 
L 150.289934 -259.975055 
L 150.321259 -261.795364 
L 150.353003 -263.615672 
L 150.385006 -265.43598 
L 150.4171 -267.256288 
L 150.44911 -269.076596 
L 150.480862 -270.896904 
L 150.512187 -272.717212 
L 150.542919 -274.53752 
L 150.572903 -276.357829 
L 150.601997 -278.178137 
L 150.630074 -279.998445 
L 150.65702 -281.818753 
L 150.682742 -283.639061 
L 150.707164 -285.459369 
L 150.730229 -287.279677 
L 150.751895 -289.099985 
L 150.772142 -290.920294 
L 150.790964 -292.740602 
L 150.808372 -294.56091 
L 150.824388 -296.381218 
L 150.83905 -298.201526 
L 150.852404 -300.021834 
L 151.048145 -300.021834 
L 151.048145 -300.021834 
L 151.0615 -298.201526 
L 151.076161 -296.381218 
L 151.092178 -294.56091 
L 151.109585 -292.740602 
L 151.128407 -290.920294 
L 151.148654 -289.099985 
L 151.170321 -287.279677 
L 151.193385 -285.459369 
L 151.217807 -283.639061 
L 151.24353 -281.818753 
L 151.270476 -279.998445 
L 151.298552 -278.178137 
L 151.327646 -276.357829 
L 151.357631 -274.53752 
L 151.388363 -272.717212 
L 151.419687 -270.896904 
L 151.45144 -269.076596 
L 151.48345 -267.256288 
L 151.515543 -265.43598 
L 151.547546 -263.615672 
L 151.57929 -261.795364 
L 151.610616 -259.975055 
L 151.641375 -258.154747 
L 151.671438 -256.334439 
L 151.700693 -254.514131 
L 151.729052 -252.693823 
L 151.756453 -250.873515 
L 151.782861 -249.053207 
L 151.808268 -247.232899 
L 151.832695 -245.41259 
L 151.856192 -243.592282 
L 151.878832 -241.771974 
L 151.900714 -239.951666 
L 151.921955 -238.131358 
L 151.942689 -236.31105 
L 151.963059 -234.490742 
L 151.983215 -232.670434 
L 152.003303 -230.850125 
L 152.023466 -229.029817 
L 152.043831 -227.209509 
L 152.064507 -225.389201 
L 152.085577 -223.568893 
L 152.107097 -221.748585 
L 152.129085 -219.928277 
L 152.151523 -218.107969 
L 152.174355 -216.28766 
L 152.197479 -214.467352 
L 152.220755 -212.647044 
L 152.244001 -210.826736 
L 152.266997 -209.006428 
L 152.28949 -207.18612 
L 152.311195 -205.365812 
L 152.331804 -203.545504 
L 152.35099 -201.725195 
L 152.368417 -199.904887 
L 152.383746 -198.084579 
L 152.39664 -196.264271 
L 152.406777 -194.443963 
L 152.413855 -192.623655 
L 152.4176 -190.803347 
L 152.417771 -188.983039 
L 152.414167 -187.16273 
L 152.406635 -185.342422 
L 152.395069 -183.522114 
L 152.379415 -181.701806 
L 152.359672 -179.881498 
L 152.335896 -178.06119 
L 152.308193 -176.240882 
L 152.276721 -174.420574 
L 152.241689 -172.600265 
L 152.203345 -170.779957 
L 152.161981 -168.959649 
L 152.11792 -167.139341 
L 152.071513 -165.319033 
L 152.023132 -163.498725 
L 151.973164 -161.678417 
L 151.922002 -159.858109 
L 151.87004 -158.0378 
L 151.817668 -156.217492 
L 151.765263 -154.397184 
L 151.713187 -152.576876 
L 151.661778 -150.756568 
L 151.61135 -148.93626 
L 151.562189 -147.115952 
L 151.514547 -145.295644 
L 151.468644 -143.475336 
L 151.424667 -141.655027 
L 151.382767 -139.834719 
L 151.343061 -138.014411 
L 151.305633 -136.194103 
L 151.270537 -134.373795 
L 151.237796 -132.553487 
L 151.207405 -130.733179 
L 151.179338 -128.912871 
L 151.153543 -127.092562 
L 151.129952 -125.272254 
L 151.108481 -123.451946 
L 151.089032 -121.631638 
L 151.071499 -119.81133 
z
" style="stroke: #3f3f3f; stroke-width: 1.5"/>
    </defs>
    <g clip-path="url(#p8cd23adb35)">
     <use xlink:href="#mca289a3d37" x="0" y="370.686865" style="fill: #c7c7c7; stroke: #3f3f3f; stroke-width: 1.5"/>
    </g>
   </g>
   <g id="PolyCollection_3">
    <defs>
     <path id="m6812e3f483" d="M 210.753865 -155.303349 
L 210.186685 -155.303349 
L 210.147827 -155.934256 
L 210.105141 -156.565163 
L 210.058488 -157.196069 
L 210.007757 -157.826976 
L 209.952875 -158.457883 
L 209.893807 -159.088789 
L 209.830564 -159.719696 
L 209.763205 -160.350603 
L 209.69184 -160.981509 
L 209.616632 -161.612416 
L 209.537796 -162.243323 
L 209.455602 -162.874229 
L 209.370369 -163.505136 
L 209.282463 -164.136043 
L 209.192294 -164.766949 
L 209.100307 -165.397856 
L 209.006976 -166.028763 
L 208.912793 -166.659669 
L 208.818261 -167.290576 
L 208.723882 -167.921483 
L 208.630143 -168.552389 
L 208.537511 -169.183296 
L 208.446413 -169.814203 
L 208.357235 -170.445109 
L 208.270304 -171.076016 
L 208.185885 -171.706923 
L 208.10417 -172.337829 
L 208.025277 -172.968736 
L 207.949246 -173.599643 
L 207.876037 -174.230549 
L 207.805535 -174.861456 
L 207.737554 -175.492363 
L 207.671844 -176.123269 
L 207.608101 -176.754176 
L 207.54598 -177.385083 
L 207.485109 -178.015989 
L 207.4251 -178.646896 
L 207.365575 -179.277803 
L 207.30617 -179.908709 
L 207.246565 -180.539616 
L 207.186489 -181.170523 
L 207.125744 -181.801429 
L 207.064211 -182.432336 
L 207.001869 -183.063243 
L 206.938795 -183.694149 
L 206.875178 -184.325056 
L 206.811318 -184.955962 
L 206.747623 -185.586869 
L 206.684611 -186.217776 
L 206.622896 -186.848682 
L 206.563184 -187.479589 
L 206.506255 -188.110496 
L 206.452948 -188.741402 
L 206.404146 -189.372309 
L 206.360752 -190.003216 
L 206.323672 -190.634122 
L 206.29379 -191.265029 
L 206.271951 -191.895936 
L 206.258939 -192.526842 
L 206.255457 -193.157749 
L 206.262109 -193.788656 
L 206.279388 -194.419562 
L 206.307659 -195.050469 
L 206.347153 -195.681376 
L 206.397959 -196.312282 
L 206.460021 -196.943189 
L 206.533134 -197.574096 
L 206.616953 -198.205002 
L 206.710998 -198.835909 
L 206.814657 -199.466816 
L 206.927207 -200.097722 
L 207.047817 -200.728629 
L 207.175575 -201.359536 
L 207.309494 -201.990442 
L 207.448537 -202.621349 
L 207.591634 -203.252256 
L 207.737696 -203.883162 
L 207.885637 -204.514069 
L 208.034391 -205.144976 
L 208.182925 -205.775882 
L 208.330253 -206.406789 
L 208.475455 -207.037696 
L 208.617679 -207.668602 
L 208.756154 -208.299509 
L 208.890197 -208.930416 
L 209.019217 -209.561322 
L 209.142717 -210.192229 
L 209.260295 -210.823136 
L 209.371639 -211.454042 
L 209.476533 -212.084949 
L 209.574842 -212.715856 
L 209.666516 -213.346762 
L 209.751574 -213.977669 
L 209.830106 -214.608576 
L 209.902259 -215.239482 
L 209.968232 -215.870389 
L 210.028265 -216.501296 
L 210.082634 -217.132202 
L 210.131642 -217.763109 
L 210.808907 -217.763109 
L 210.808907 -217.763109 
L 210.857915 -217.132202 
L 210.912285 -216.501296 
L 210.972318 -215.870389 
L 211.03829 -215.239482 
L 211.110443 -214.608576 
L 211.188976 -213.977669 
L 211.274034 -213.346762 
L 211.365707 -212.715856 
L 211.464017 -212.084949 
L 211.56891 -211.454042 
L 211.680255 -210.823136 
L 211.797832 -210.192229 
L 211.921332 -209.561322 
L 212.050353 -208.930416 
L 212.184396 -208.299509 
L 212.322871 -207.668602 
L 212.465094 -207.037696 
L 212.610296 -206.406789 
L 212.757625 -205.775882 
L 212.906158 -205.144976 
L 213.054912 -204.514069 
L 213.202854 -203.883162 
L 213.348916 -203.252256 
L 213.492012 -202.621349 
L 213.631056 -201.990442 
L 213.764975 -201.359536 
L 213.892732 -200.728629 
L 214.013343 -200.097722 
L 214.125892 -199.466816 
L 214.229552 -198.835909 
L 214.323596 -198.205002 
L 214.407416 -197.574096 
L 214.480529 -196.943189 
L 214.54259 -196.312282 
L 214.593396 -195.681376 
L 214.632891 -195.050469 
L 214.661162 -194.419562 
L 214.67844 -193.788656 
L 214.685093 -193.157749 
L 214.68161 -192.526842 
L 214.668598 -191.895936 
L 214.64676 -191.265029 
L 214.616878 -190.634122 
L 214.579797 -190.003216 
L 214.536403 -189.372309 
L 214.487601 -188.741402 
L 214.434295 -188.110496 
L 214.377366 -187.479589 
L 214.317654 -186.848682 
L 214.255939 -186.217776 
L 214.192926 -185.586869 
L 214.129232 -184.955962 
L 214.065371 -184.325056 
L 214.001754 -183.694149 
L 213.938681 -183.063243 
L 213.876338 -182.432336 
L 213.814806 -181.801429 
L 213.75406 -181.170523 
L 213.693985 -180.539616 
L 213.634379 -179.908709 
L 213.574975 -179.277803 
L 213.515449 -178.646896 
L 213.455441 -178.015989 
L 213.394569 -177.385083 
L 213.332448 -176.754176 
L 213.268706 -176.123269 
L 213.202996 -175.492363 
L 213.135015 -174.861456 
L 213.064513 -174.230549 
L 212.991304 -173.599643 
L 212.915272 -172.968736 
L 212.83638 -172.337829 
L 212.754665 -171.706923 
L 212.670245 -171.076016 
L 212.583314 -170.445109 
L 212.494136 -169.814203 
L 212.403039 -169.183296 
L 212.310406 -168.552389 
L 212.216668 -167.921483 
L 212.122288 -167.290576 
L 212.027757 -166.659669 
L 211.933574 -166.028763 
L 211.840243 -165.397856 
L 211.748256 -164.766949 
L 211.658087 -164.136043 
L 211.570181 -163.505136 
L 211.484947 -162.874229 
L 211.402753 -162.243323 
L 211.323918 -161.612416 
L 211.248709 -160.981509 
L 211.177345 -160.350603 
L 211.109986 -159.719696 
L 211.046743 -159.088789 
L 210.987675 -158.457883 
L 210.932792 -157.826976 
L 210.882062 -157.196069 
L 210.835408 -156.565163 
L 210.792723 -155.934256 
L 210.753865 -155.303349 
z
" style="stroke: #3f3f3f; stroke-width: 1.5"/>
    </defs>
    <g clip-path="url(#p8cd23adb35)">
     <use xlink:href="#m6812e3f483" x="0" y="370.686865" style="fill: #f2a5a3; stroke: #3f3f3f; stroke-width: 1.5"/>
    </g>
   </g>
   <g id="PolyCollection_4">
    <defs>
     <path id="m640d072e25" d="M 270.115176 -111.373112 
L 269.865373 -111.373112 
L 269.847818 -112.852365 
L 269.828455 -114.331618 
L 269.807201 -115.810871 
L 269.783987 -117.290124 
L 269.758757 -118.769378 
L 269.731471 -120.248631 
L 269.702107 -121.727884 
L 269.670664 -123.207137 
L 269.637162 -124.686391 
L 269.601645 -126.165644 
L 269.564179 -127.644897 
L 269.524855 -129.12415 
L 269.483788 -130.603404 
L 269.441114 -132.082657 
L 269.396995 -133.56191 
L 269.351608 -135.041163 
L 269.305152 -136.520417 
L 269.257839 -137.99967 
L 269.209891 -139.478923 
L 269.161542 -140.958176 
L 269.113027 -142.437429 
L 269.064583 -143.916683 
L 269.016445 -145.395936 
L 268.968838 -146.875189 
L 268.921978 -148.354442 
L 268.876067 -149.833696 
L 268.83129 -151.312949 
L 268.787812 -152.792202 
L 268.745777 -154.271455 
L 268.705308 -155.750709 
L 268.666504 -157.229962 
L 268.629444 -158.709215 
L 268.594183 -160.188468 
L 268.560756 -161.667722 
L 268.529181 -163.146975 
L 268.499461 -164.626228 
L 268.471584 -166.105481 
L 268.445529 -167.584734 
L 268.421269 -169.063988 
L 268.398773 -170.543241 
L 268.378009 -172.022494 
L 268.35895 -173.501747 
L 268.341573 -174.981001 
L 268.325862 -176.460254 
L 268.311814 -177.939507 
L 268.299434 -179.41876 
L 268.288743 -180.898014 
L 268.279772 -182.377267 
L 268.272565 -183.85652 
L 268.267182 -185.335773 
L 268.263691 -186.815027 
L 268.262171 -188.29428 
L 268.262709 -189.773533 
L 268.265398 -191.252786 
L 268.270334 -192.732039 
L 268.277614 -194.211293 
L 268.287332 -195.690546 
L 268.299576 -197.169799 
L 268.314428 -198.649052 
L 268.331956 -200.128306 
L 268.352213 -201.607559 
L 268.375237 -203.086812 
L 268.401043 -204.566065 
L 268.429627 -206.045319 
L 268.46096 -207.524572 
L 268.494986 -209.003825 
L 268.531626 -210.483078 
L 268.570772 -211.962332 
L 268.612289 -213.441585 
L 268.656018 -214.920838 
L 268.701775 -216.400091 
L 268.74935 -217.879344 
L 268.798517 -219.358598 
L 268.849028 -220.837851 
L 268.900622 -222.317104 
L 268.953027 -223.796357 
L 269.005961 -225.275611 
L 269.059141 -226.754864 
L 269.112282 -228.234117 
L 269.165104 -229.71337 
L 269.217336 -231.192624 
L 269.268718 -232.671877 
L 269.319005 -234.15113 
L 269.367969 -235.630383 
L 269.415407 -237.109637 
L 269.461134 -238.58889 
L 269.504992 -240.068143 
L 269.546851 -241.547396 
L 269.586602 -243.026649 
L 269.624168 -244.505903 
L 269.659494 -245.985156 
L 269.692551 -247.464409 
L 269.723336 -248.943662 
L 269.751865 -250.422916 
L 269.778176 -251.902169 
L 269.802325 -253.381422 
L 269.824382 -254.860675 
L 269.844433 -256.339929 
L 269.862572 -257.819182 
L 270.117977 -257.819182 
L 270.117977 -257.819182 
L 270.136117 -256.339929 
L 270.156168 -254.860675 
L 270.178225 -253.381422 
L 270.202373 -251.902169 
L 270.228685 -250.422916 
L 270.257214 -248.943662 
L 270.287998 -247.464409 
L 270.321056 -245.985156 
L 270.356382 -244.505903 
L 270.393947 -243.026649 
L 270.433699 -241.547396 
L 270.475557 -240.068143 
L 270.519416 -238.58889 
L 270.565143 -237.109637 
L 270.61258 -235.630383 
L 270.661545 -234.15113 
L 270.711831 -232.671877 
L 270.763213 -231.192624 
L 270.815445 -229.71337 
L 270.868268 -228.234117 
L 270.921409 -226.754864 
L 270.974588 -225.275611 
L 271.027523 -223.796357 
L 271.079927 -222.317104 
L 271.131521 -220.837851 
L 271.182033 -219.358598 
L 271.231199 -217.879344 
L 271.278775 -216.400091 
L 271.324531 -214.920838 
L 271.368261 -213.441585 
L 271.409778 -211.962332 
L 271.448924 -210.483078 
L 271.485563 -209.003825 
L 271.51959 -207.524572 
L 271.550922 -206.045319 
L 271.579507 -204.566065 
L 271.605313 -203.086812 
L 271.628336 -201.607559 
L 271.648593 -200.128306 
L 271.666121 -198.649052 
L 271.680973 -197.169799 
L 271.693218 -195.690546 
L 271.702936 -194.211293 
L 271.710216 -192.732039 
L 271.715152 -191.252786 
L 271.717841 -189.773533 
L 271.718378 -188.29428 
L 271.716858 -186.815027 
L 271.713367 -185.335773 
L 271.707984 -183.85652 
L 271.700778 -182.377267 
L 271.691807 -180.898014 
L 271.681115 -179.41876 
L 271.668736 -177.939507 
L 271.654687 -176.460254 
L 271.638977 -174.981001 
L 271.621599 -173.501747 
L 271.60254 -172.022494 
L 271.581777 -170.543241 
L 271.55928 -169.063988 
L 271.53502 -167.584734 
L 271.508965 -166.105481 
L 271.481088 -164.626228 
L 271.451368 -163.146975 
L 271.419794 -161.667722 
L 271.386367 -160.188468 
L 271.351106 -158.709215 
L 271.314045 -157.229962 
L 271.275242 -155.750709 
L 271.234773 -154.271455 
L 271.192738 -152.792202 
L 271.149259 -151.312949 
L 271.104482 -149.833696 
L 271.058571 -148.354442 
L 271.011711 -146.875189 
L 270.964105 -145.395936 
L 270.915966 -143.916683 
L 270.867523 -142.437429 
L 270.819008 -140.958176 
L 270.770659 -139.478923 
L 270.722711 -137.99967 
L 270.675397 -136.520417 
L 270.628941 -135.041163 
L 270.583555 -133.56191 
L 270.539435 -132.082657 
L 270.496762 -130.603404 
L 270.455694 -129.12415 
L 270.41637 -127.644897 
L 270.378904 -126.165644 
L 270.343387 -124.686391 
L 270.309886 -123.207137 
L 270.278443 -121.727884 
L 270.249079 -120.248631 
L 270.221793 -118.769378 
L 270.196562 -117.290124 
L 270.173348 -115.810871 
L 270.152095 -114.331618 
L 270.132731 -112.852365 
L 270.115176 -111.373112 
z
" style="stroke: #3f3f3f; stroke-width: 1.5"/>
    </defs>
    <g clip-path="url(#p8cd23adb35)">
     <use xlink:href="#m640d072e25" x="0" y="370.686865" style="fill: #c03d3e; stroke: #3f3f3f; stroke-width: 1.5"/>
    </g>
   </g>
   <g id="PolyCollection_5">
    <defs>
     <path id="m6abb302ea1" d="M 329.613377 -94.35274 
L 329.407172 -94.35274 
L 329.392492 -96.796377 
L 329.376252 -99.240013 
L 329.358372 -101.68365 
L 329.338783 -104.127286 
L 329.317429 -106.570922 
L 329.294266 -109.014559 
L 329.269269 -111.458195 
L 329.242433 -113.901831 
L 329.213772 -116.345468 
L 329.183327 -118.789104 
L 329.151162 -121.23274 
L 329.117369 -123.676377 
L 329.082068 -126.120013 
L 329.045405 -128.56365 
L 329.007558 -131.007286 
L 328.968729 -133.450922 
L 328.929147 -135.894559 
L 328.889066 -138.338195 
L 328.848761 -140.781831 
L 328.808524 -143.225468 
L 328.768662 -145.669104 
L 328.729491 -148.11274 
L 328.691331 -150.556377 
L 328.654504 -153.000013 
L 328.619323 -155.44365 
L 328.586089 -157.887286 
L 328.555087 -160.330922 
L 328.526578 -162.774559 
L 328.500794 -165.218195 
L 328.477935 -167.661831 
L 328.458162 -170.105468 
L 328.441598 -172.549104 
L 328.42832 -174.99274 
L 328.418363 -177.436377 
L 328.411714 -179.880013 
L 328.408317 -182.32365 
L 328.40807 -184.767286 
L 328.410832 -187.210922 
L 328.416424 -189.654559 
L 328.424633 -192.098195 
L 328.435217 -194.541831 
L 328.447913 -196.985468 
L 328.462439 -199.429104 
L 328.478507 -201.87274 
L 328.495822 -204.316377 
L 328.514094 -206.760013 
L 328.533042 -209.20365 
L 328.552401 -211.647286 
L 328.571926 -214.090922 
L 328.591399 -216.534559 
L 328.610632 -218.978195 
L 328.629467 -221.421831 
L 328.647782 -223.865468 
L 328.665492 -226.309104 
L 328.682545 -228.75274 
L 328.698926 -231.196377 
L 328.714649 -233.640013 
L 328.729762 -236.08365 
L 328.744336 -238.527286 
L 328.758467 -240.970922 
L 328.772268 -243.414559 
L 328.785864 -245.858195 
L 328.799388 -248.301831 
L 328.812978 -250.745468 
L 328.826767 -253.189104 
L 328.840885 -255.63274 
L 328.855448 -258.076377 
L 328.870561 -260.520013 
L 328.88631 -262.96365 
L 328.90276 -265.407286 
L 328.919959 -267.850922 
L 328.937928 -270.294559 
L 328.956667 -272.738195 
L 328.976156 -275.181831 
L 328.996351 -277.625468 
L 329.01719 -280.069104 
L 329.038592 -282.51274 
L 329.060462 -284.956377 
L 329.082692 -287.400013 
L 329.105165 -289.84365 
L 329.127757 -292.287286 
L 329.150342 -294.730922 
L 329.17279 -297.174559 
L 329.194976 -299.618195 
L 329.21678 -302.061831 
L 329.238087 -304.505468 
L 329.258793 -306.949104 
L 329.278803 -309.39274 
L 329.298034 -311.836377 
L 329.316415 -314.280013 
L 329.333891 -316.72365 
L 329.350417 -319.167286 
L 329.365962 -321.610922 
L 329.380508 -324.054559 
L 329.394049 -326.498195 
L 329.40659 -328.941831 
L 329.418145 -331.385468 
L 329.42874 -333.829104 
L 329.438404 -336.27274 
L 329.582145 -336.27274 
L 329.582145 -336.27274 
L 329.59181 -333.829104 
L 329.602404 -331.385468 
L 329.61396 -328.941831 
L 329.626501 -326.498195 
L 329.640042 -324.054559 
L 329.654588 -321.610922 
L 329.670133 -319.167286 
L 329.686658 -316.72365 
L 329.704134 -314.280013 
L 329.722516 -311.836377 
L 329.741747 -309.39274 
L 329.761756 -306.949104 
L 329.782462 -304.505468 
L 329.803769 -302.061831 
L 329.825573 -299.618195 
L 329.84776 -297.174559 
L 329.870208 -294.730922 
L 329.892792 -292.287286 
L 329.915384 -289.84365 
L 329.937858 -287.400013 
L 329.960088 -284.956377 
L 329.981958 -282.51274 
L 330.00336 -280.069104 
L 330.024198 -277.625468 
L 330.044393 -275.181831 
L 330.063882 -272.738195 
L 330.082622 -270.294559 
L 330.100591 -267.850922 
L 330.117789 -265.407286 
L 330.13424 -262.96365 
L 330.149988 -260.520013 
L 330.165101 -258.076377 
L 330.179665 -255.63274 
L 330.193782 -253.189104 
L 330.207572 -250.745468 
L 330.221161 -248.301831 
L 330.234686 -245.858195 
L 330.248281 -243.414559 
L 330.262082 -240.970922 
L 330.276213 -238.527286 
L 330.290788 -236.08365 
L 330.305901 -233.640013 
L 330.321624 -231.196377 
L 330.338004 -228.75274 
L 330.355057 -226.309104 
L 330.372767 -223.865468 
L 330.391083 -221.421831 
L 330.409918 -218.978195 
L 330.42915 -216.534559 
L 330.448623 -214.090922 
L 330.468149 -211.647286 
L 330.487508 -209.20365 
L 330.506455 -206.760013 
L 330.524727 -204.316377 
L 330.542042 -201.87274 
L 330.55811 -199.429104 
L 330.572637 -196.985468 
L 330.585333 -194.541831 
L 330.595917 -192.098195 
L 330.604125 -189.654559 
L 330.609717 -187.210922 
L 330.61248 -184.767286 
L 330.612233 -182.32365 
L 330.608835 -179.880013 
L 330.602186 -177.436377 
L 330.592229 -174.99274 
L 330.578952 -172.549104 
L 330.562388 -170.105468 
L 330.542615 -167.661831 
L 330.519756 -165.218195 
L 330.493972 -162.774559 
L 330.465462 -160.330922 
L 330.43446 -157.887286 
L 330.401227 -155.44365 
L 330.366045 -153.000013 
L 330.329218 -150.556377 
L 330.291059 -148.11274 
L 330.251888 -145.669104 
L 330.212026 -143.225468 
L 330.171788 -140.781831 
L 330.131483 -138.338195 
L 330.091402 -135.894559 
L 330.051821 -133.450922 
L 330.012992 -131.007286 
L 329.975144 -128.56365 
L 329.938482 -126.120013 
L 329.90318 -123.676377 
L 329.869387 -121.23274 
L 329.837222 -118.789104 
L 329.806777 -116.345468 
L 329.778117 -113.901831 
L 329.75128 -111.458195 
L 329.726284 -109.014559 
L 329.703121 -106.570922 
L 329.681766 -104.127286 
L 329.662177 -101.68365 
L 329.644297 -99.240013 
L 329.628057 -96.796377 
L 329.613377 -94.35274 
z
" style="stroke: #3f3f3f; stroke-width: 1.5"/>
    </defs>
    <g clip-path="url(#p8cd23adb35)">
     <use xlink:href="#m6abb302ea1" x="0" y="370.686865" style="fill: #9fd495; stroke: #3f3f3f; stroke-width: 1.5"/>
    </g>
   </g>
   <g id="PolyCollection_6">
    <defs>
     <path id="mc3a3d298e4" d="M 390.872822 -178.02056 
L 387.187728 -178.02056 
L 386.921711 -178.131038 
L 386.626716 -178.241517 
L 386.301116 -178.351995 
L 385.943427 -178.462473 
L 385.552349 -178.572952 
L 385.126804 -178.68343 
L 384.665979 -178.793909 
L 384.169369 -178.904387 
L 383.636813 -179.014866 
L 383.068535 -179.125344 
L 382.465172 -179.235822 
L 381.827802 -179.346301 
L 381.157969 -179.456779 
L 380.457695 -179.567258 
L 379.729483 -179.677736 
L 378.976321 -179.788215 
L 378.201661 -179.898693 
L 377.409404 -180.009172 
L 376.603865 -180.11965 
L 375.789727 -180.230128 
L 374.971994 -180.340607 
L 374.155926 -180.451085 
L 373.346972 -180.561564 
L 372.550691 -180.672042 
L 371.772674 -180.782521 
L 371.018451 -180.892999 
L 370.293412 -181.003478 
L 369.602711 -181.113956 
L 368.951185 -181.224434 
L 368.343269 -181.334913 
L 367.782917 -181.445391 
L 367.273543 -181.55587 
L 366.81795 -181.666348 
L 366.418295 -181.776827 
L 366.076046 -181.887305 
L 365.791969 -181.997783 
L 365.566119 -182.108262 
L 365.397853 -182.21874 
L 365.285852 -182.329219 
L 365.228169 -182.439697 
L 365.222275 -182.550176 
L 365.265133 -182.660654 
L 365.353274 -182.771133 
L 365.482887 -182.881611 
L 365.649911 -182.992089 
L 365.850138 -183.102568 
L 366.07931 -183.213046 
L 366.333225 -183.323525 
L 366.607828 -183.434003 
L 366.899302 -183.544482 
L 367.204155 -183.65496 
L 367.519279 -183.765438 
L 367.842015 -183.875917 
L 368.170192 -183.986395 
L 368.502153 -184.096874 
L 368.836762 -184.207352 
L 369.173403 -184.317831 
L 369.511949 -184.428309 
L 369.85273 -184.538788 
L 370.196481 -184.649266 
L 370.544276 -184.759744 
L 370.897458 -184.870223 
L 371.257558 -184.980701 
L 371.626213 -185.09118 
L 372.005084 -185.201658 
L 372.395766 -185.312137 
L 372.799719 -185.422615 
L 373.218189 -185.533093 
L 373.652146 -185.643572 
L 374.102236 -185.75405 
L 374.568739 -185.864529 
L 375.05154 -185.975007 
L 375.550119 -186.085486 
L 376.063549 -186.195964 
L 376.590513 -186.306443 
L 377.129324 -186.416921 
L 377.677963 -186.527399 
L 378.234128 -186.637878 
L 378.795281 -186.748356 
L 379.35871 -186.858835 
L 379.921586 -186.969313 
L 380.481031 -187.079792 
L 381.034173 -187.19027 
L 381.57821 -187.300749 
L 382.110461 -187.411227 
L 382.62842 -187.521705 
L 383.12979 -187.632184 
L 383.612527 -187.742662 
L 384.07486 -187.853141 
L 384.515312 -187.963619 
L 384.932712 -188.074098 
L 385.326195 -188.184576 
L 385.6952 -188.295054 
L 386.039457 -188.405533 
L 386.358971 -188.516011 
L 386.654002 -188.62649 
L 386.92504 -188.736968 
L 387.172775 -188.847447 
L 387.398071 -188.957925 
L 390.662479 -188.957925 
L 390.662479 -188.957925 
L 390.887775 -188.847447 
L 391.13551 -188.736968 
L 391.406547 -188.62649 
L 391.701578 -188.516011 
L 392.021092 -188.405533 
L 392.365349 -188.295054 
L 392.734354 -188.184576 
L 393.127838 -188.074098 
L 393.545238 -187.963619 
L 393.98569 -187.853141 
L 394.448023 -187.742662 
L 394.930759 -187.632184 
L 395.43213 -187.521705 
L 395.950088 -187.411227 
L 396.48234 -187.300749 
L 397.026377 -187.19027 
L 397.579519 -187.079792 
L 398.138963 -186.969313 
L 398.70184 -186.858835 
L 399.265268 -186.748356 
L 399.826422 -186.637878 
L 400.382587 -186.527399 
L 400.931226 -186.416921 
L 401.470036 -186.306443 
L 401.997 -186.195964 
L 402.510431 -186.085486 
L 403.00901 -185.975007 
L 403.491811 -185.864529 
L 403.958313 -185.75405 
L 404.408404 -185.643572 
L 404.842361 -185.533093 
L 405.26083 -185.422615 
L 405.664783 -185.312137 
L 406.055466 -185.201658 
L 406.434336 -185.09118 
L 406.802992 -184.980701 
L 407.163092 -184.870223 
L 407.516273 -184.759744 
L 407.864068 -184.649266 
L 408.207819 -184.538788 
L 408.548601 -184.428309 
L 408.887147 -184.317831 
L 409.223787 -184.207352 
L 409.558397 -184.096874 
L 409.890357 -183.986395 
L 410.218535 -183.875917 
L 410.541271 -183.765438 
L 410.856395 -183.65496 
L 411.161247 -183.544482 
L 411.452722 -183.434003 
L 411.727325 -183.323525 
L 411.981239 -183.213046 
L 412.210412 -183.102568 
L 412.410638 -182.992089 
L 412.577662 -182.881611 
L 412.707275 -182.771133 
L 412.795417 -182.660654 
L 412.838275 -182.550176 
L 412.832381 -182.439697 
L 412.774697 -182.329219 
L 412.662697 -182.21874 
L 412.49443 -182.108262 
L 412.26858 -181.997783 
L 411.984503 -181.887305 
L 411.642255 -181.776827 
L 411.242599 -181.666348 
L 410.787007 -181.55587 
L 410.277632 -181.445391 
L 409.717281 -181.334913 
L 409.109364 -181.224434 
L 408.457838 -181.113956 
L 407.767138 -181.003478 
L 407.042098 -180.892999 
L 406.287876 -180.782521 
L 405.509858 -180.672042 
L 404.713578 -180.561564 
L 403.904623 -180.451085 
L 403.088556 -180.340607 
L 402.270823 -180.230128 
L 401.456685 -180.11965 
L 400.651145 -180.009172 
L 399.858889 -179.898693 
L 399.084229 -179.788215 
L 398.331066 -179.677736 
L 397.602855 -179.567258 
L 396.90258 -179.456779 
L 396.232747 -179.346301 
L 395.595378 -179.235822 
L 394.992014 -179.125344 
L 394.423736 -179.014866 
L 393.891181 -178.904387 
L 393.394571 -178.793909 
L 392.933746 -178.68343 
L 392.5082 -178.572952 
L 392.117122 -178.462473 
L 391.759434 -178.351995 
L 391.433834 -178.241517 
L 391.138839 -178.131038 
L 390.872822 -178.02056 
z
" style="stroke: #3f3f3f; stroke-width: 1.5"/>
    </defs>
    <g clip-path="url(#p8cd23adb35)">
     <use xlink:href="#mc3a3d298e4" x="0" y="370.686865" style="fill: #3274a1; stroke: #3f3f3f; stroke-width: 1.5"/>
    </g>
   </g>
   <g id="matplotlib.axis_1">
    <g id="xtick_1">
     <g id="line2d_1">
      <defs>
       <path id="m921d092005" d="M 0 0 
L 0 3.5 
" style="stroke: #000000; stroke-width: 0.8"/>
      </defs>
      <g>
       <use xlink:href="#m921d092005" x="91.430275" y="288.430125" style="stroke: #000000; stroke-width: 0.8"/>
      </g>
     </g>
     <g id="text_1">
      <!-- aflplusplus_ast_o2 -->
      <g transform="translate(10.999219 347.766815)rotate(-30)scale(0.1 -0.1)">
       <defs>
        <path id="DejaVuSans-61" d="M 2194 1759 
Q 1497 1759 1228 1600 
Q 959 1441 959 1056 
Q 959 750 1161 570 
Q 1363 391 1709 391 
Q 2188 391 2477 730 
Q 2766 1069 2766 1631 
L 2766 1759 
L 2194 1759 
z
M 3341 1997 
L 3341 0 
L 2766 0 
L 2766 531 
Q 2569 213 2275 61 
Q 1981 -91 1556 -91 
Q 1019 -91 701 211 
Q 384 513 384 1019 
Q 384 1609 779 1909 
Q 1175 2209 1959 2209 
L 2766 2209 
L 2766 2266 
Q 2766 2663 2505 2880 
Q 2244 3097 1772 3097 
Q 1472 3097 1187 3025 
Q 903 2953 641 2809 
L 641 3341 
Q 956 3463 1253 3523 
Q 1550 3584 1831 3584 
Q 2591 3584 2966 3190 
Q 3341 2797 3341 1997 
z
" transform="scale(0.015625)"/>
        <path id="DejaVuSans-66" d="M 2375 4863 
L 2375 4384 
L 1825 4384 
Q 1516 4384 1395 4259 
Q 1275 4134 1275 3809 
L 1275 3500 
L 2222 3500 
L 2222 3053 
L 1275 3053 
L 1275 0 
L 697 0 
L 697 3053 
L 147 3053 
L 147 3500 
L 697 3500 
L 697 3744 
Q 697 4328 969 4595 
Q 1241 4863 1831 4863 
L 2375 4863 
z
" transform="scale(0.015625)"/>
        <path id="DejaVuSans-6c" d="M 603 4863 
L 1178 4863 
L 1178 0 
L 603 0 
L 603 4863 
z
" transform="scale(0.015625)"/>
        <path id="DejaVuSans-70" d="M 1159 525 
L 1159 -1331 
L 581 -1331 
L 581 3500 
L 1159 3500 
L 1159 2969 
Q 1341 3281 1617 3432 
Q 1894 3584 2278 3584 
Q 2916 3584 3314 3078 
Q 3713 2572 3713 1747 
Q 3713 922 3314 415 
Q 2916 -91 2278 -91 
Q 1894 -91 1617 61 
Q 1341 213 1159 525 
z
M 3116 1747 
Q 3116 2381 2855 2742 
Q 2594 3103 2138 3103 
Q 1681 3103 1420 2742 
Q 1159 2381 1159 1747 
Q 1159 1113 1420 752 
Q 1681 391 2138 391 
Q 2594 391 2855 752 
Q 3116 1113 3116 1747 
z
" transform="scale(0.015625)"/>
        <path id="DejaVuSans-75" d="M 544 1381 
L 544 3500 
L 1119 3500 
L 1119 1403 
Q 1119 906 1312 657 
Q 1506 409 1894 409 
Q 2359 409 2629 706 
Q 2900 1003 2900 1516 
L 2900 3500 
L 3475 3500 
L 3475 0 
L 2900 0 
L 2900 538 
Q 2691 219 2414 64 
Q 2138 -91 1772 -91 
Q 1169 -91 856 284 
Q 544 659 544 1381 
z
M 1991 3584 
L 1991 3584 
z
" transform="scale(0.015625)"/>
        <path id="DejaVuSans-73" d="M 2834 3397 
L 2834 2853 
Q 2591 2978 2328 3040 
Q 2066 3103 1784 3103 
Q 1356 3103 1142 2972 
Q 928 2841 928 2578 
Q 928 2378 1081 2264 
Q 1234 2150 1697 2047 
L 1894 2003 
Q 2506 1872 2764 1633 
Q 3022 1394 3022 966 
Q 3022 478 2636 193 
Q 2250 -91 1575 -91 
Q 1294 -91 989 -36 
Q 684 19 347 128 
L 347 722 
Q 666 556 975 473 
Q 1284 391 1588 391 
Q 1994 391 2212 530 
Q 2431 669 2431 922 
Q 2431 1156 2273 1281 
Q 2116 1406 1581 1522 
L 1381 1569 
Q 847 1681 609 1914 
Q 372 2147 372 2553 
Q 372 3047 722 3315 
Q 1072 3584 1716 3584 
Q 2034 3584 2315 3537 
Q 2597 3491 2834 3397 
z
" transform="scale(0.015625)"/>
        <path id="DejaVuSans-5f" d="M 3263 -1063 
L 3263 -1509 
L -63 -1509 
L -63 -1063 
L 3263 -1063 
z
" transform="scale(0.015625)"/>
        <path id="DejaVuSans-74" d="M 1172 4494 
L 1172 3500 
L 2356 3500 
L 2356 3053 
L 1172 3053 
L 1172 1153 
Q 1172 725 1289 603 
Q 1406 481 1766 481 
L 2356 481 
L 2356 0 
L 1766 0 
Q 1100 0 847 248 
Q 594 497 594 1153 
L 594 3053 
L 172 3053 
L 172 3500 
L 594 3500 
L 594 4494 
L 1172 4494 
z
" transform="scale(0.015625)"/>
        <path id="DejaVuSans-6f" d="M 1959 3097 
Q 1497 3097 1228 2736 
Q 959 2375 959 1747 
Q 959 1119 1226 758 
Q 1494 397 1959 397 
Q 2419 397 2687 759 
Q 2956 1122 2956 1747 
Q 2956 2369 2687 2733 
Q 2419 3097 1959 3097 
z
M 1959 3584 
Q 2709 3584 3137 3096 
Q 3566 2609 3566 1747 
Q 3566 888 3137 398 
Q 2709 -91 1959 -91 
Q 1206 -91 779 398 
Q 353 888 353 1747 
Q 353 2609 779 3096 
Q 1206 3584 1959 3584 
z
" transform="scale(0.015625)"/>
        <path id="DejaVuSans-32" d="M 1228 531 
L 3431 531 
L 3431 0 
L 469 0 
L 469 531 
Q 828 903 1448 1529 
Q 2069 2156 2228 2338 
Q 2531 2678 2651 2914 
Q 2772 3150 2772 3378 
Q 2772 3750 2511 3984 
Q 2250 4219 1831 4219 
Q 1534 4219 1204 4116 
Q 875 4013 500 3803 
L 500 4441 
Q 881 4594 1212 4672 
Q 1544 4750 1819 4750 
Q 2544 4750 2975 4387 
Q 3406 4025 3406 3419 
Q 3406 3131 3298 2873 
Q 3191 2616 2906 2266 
Q 2828 2175 2409 1742 
Q 1991 1309 1228 531 
z
" transform="scale(0.015625)"/>
       </defs>
       <use xlink:href="#DejaVuSans-61"/>
       <use xlink:href="#DejaVuSans-66" x="61.279297"/>
       <use xlink:href="#DejaVuSans-6c" x="96.484375"/>
       <use xlink:href="#DejaVuSans-70" x="124.267578"/>
       <use xlink:href="#DejaVuSans-6c" x="187.744141"/>
       <use xlink:href="#DejaVuSans-75" x="215.527344"/>
       <use xlink:href="#DejaVuSans-73" x="278.90625"/>
       <use xlink:href="#DejaVuSans-70" x="331.005859"/>
       <use xlink:href="#DejaVuSans-6c" x="394.482422"/>
       <use xlink:href="#DejaVuSans-75" x="422.265625"/>
       <use xlink:href="#DejaVuSans-73" x="485.644531"/>
       <use xlink:href="#DejaVuSans-5f" x="537.744141"/>
       <use xlink:href="#DejaVuSans-61" x="587.744141"/>
       <use xlink:href="#DejaVuSans-73" x="649.023438"/>
       <use xlink:href="#DejaVuSans-74" x="701.123047"/>
       <use xlink:href="#DejaVuSans-5f" x="740.332031"/>
       <use xlink:href="#DejaVuSans-6f" x="790.332031"/>
       <use xlink:href="#DejaVuSans-32" x="851.513672"/>
      </g>
     </g>
    </g>
    <g id="xtick_2">
     <g id="line2d_2">
      <g>
       <use xlink:href="#m921d092005" x="150.950275" y="288.430125" style="stroke: #000000; stroke-width: 0.8"/>
      </g>
     </g>
     <g id="text_2">
      <!-- aflplusplus_ast_o1 -->
      <g transform="translate(70.519219 347.766815)rotate(-30)scale(0.1 -0.1)">
       <defs>
        <path id="DejaVuSans-31" d="M 794 531 
L 1825 531 
L 1825 4091 
L 703 3866 
L 703 4441 
L 1819 4666 
L 2450 4666 
L 2450 531 
L 3481 531 
L 3481 0 
L 794 0 
L 794 531 
z
" transform="scale(0.015625)"/>
       </defs>
       <use xlink:href="#DejaVuSans-61"/>
       <use xlink:href="#DejaVuSans-66" x="61.279297"/>
       <use xlink:href="#DejaVuSans-6c" x="96.484375"/>
       <use xlink:href="#DejaVuSans-70" x="124.267578"/>
       <use xlink:href="#DejaVuSans-6c" x="187.744141"/>
       <use xlink:href="#DejaVuSans-75" x="215.527344"/>
       <use xlink:href="#DejaVuSans-73" x="278.90625"/>
       <use xlink:href="#DejaVuSans-70" x="331.005859"/>
       <use xlink:href="#DejaVuSans-6c" x="394.482422"/>
       <use xlink:href="#DejaVuSans-75" x="422.265625"/>
       <use xlink:href="#DejaVuSans-73" x="485.644531"/>
       <use xlink:href="#DejaVuSans-5f" x="537.744141"/>
       <use xlink:href="#DejaVuSans-61" x="587.744141"/>
       <use xlink:href="#DejaVuSans-73" x="649.023438"/>
       <use xlink:href="#DejaVuSans-74" x="701.123047"/>
       <use xlink:href="#DejaVuSans-5f" x="740.332031"/>
       <use xlink:href="#DejaVuSans-6f" x="790.332031"/>
       <use xlink:href="#DejaVuSans-31" x="851.513672"/>
      </g>
     </g>
    </g>
    <g id="xtick_3">
     <g id="line2d_3">
      <g>
       <use xlink:href="#m921d092005" x="210.470275" y="288.430125" style="stroke: #000000; stroke-width: 0.8"/>
      </g>
     </g>
     <g id="text_3">
      <!-- aflplusplus_ast_o3 -->
      <g transform="translate(130.039219 347.766815)rotate(-30)scale(0.1 -0.1)">
       <defs>
        <path id="DejaVuSans-33" d="M 2597 2516 
Q 3050 2419 3304 2112 
Q 3559 1806 3559 1356 
Q 3559 666 3084 287 
Q 2609 -91 1734 -91 
Q 1441 -91 1130 -33 
Q 819 25 488 141 
L 488 750 
Q 750 597 1062 519 
Q 1375 441 1716 441 
Q 2309 441 2620 675 
Q 2931 909 2931 1356 
Q 2931 1769 2642 2001 
Q 2353 2234 1838 2234 
L 1294 2234 
L 1294 2753 
L 1863 2753 
Q 2328 2753 2575 2939 
Q 2822 3125 2822 3475 
Q 2822 3834 2567 4026 
Q 2313 4219 1838 4219 
Q 1578 4219 1281 4162 
Q 984 4106 628 3988 
L 628 4550 
Q 988 4650 1302 4700 
Q 1616 4750 1894 4750 
Q 2613 4750 3031 4423 
Q 3450 4097 3450 3541 
Q 3450 3153 3228 2886 
Q 3006 2619 2597 2516 
z
" transform="scale(0.015625)"/>
       </defs>
       <use xlink:href="#DejaVuSans-61"/>
       <use xlink:href="#DejaVuSans-66" x="61.279297"/>
       <use xlink:href="#DejaVuSans-6c" x="96.484375"/>
       <use xlink:href="#DejaVuSans-70" x="124.267578"/>
       <use xlink:href="#DejaVuSans-6c" x="187.744141"/>
       <use xlink:href="#DejaVuSans-75" x="215.527344"/>
       <use xlink:href="#DejaVuSans-73" x="278.90625"/>
       <use xlink:href="#DejaVuSans-70" x="331.005859"/>
       <use xlink:href="#DejaVuSans-6c" x="394.482422"/>
       <use xlink:href="#DejaVuSans-75" x="422.265625"/>
       <use xlink:href="#DejaVuSans-73" x="485.644531"/>
       <use xlink:href="#DejaVuSans-5f" x="537.744141"/>
       <use xlink:href="#DejaVuSans-61" x="587.744141"/>
       <use xlink:href="#DejaVuSans-73" x="649.023438"/>
       <use xlink:href="#DejaVuSans-74" x="701.123047"/>
       <use xlink:href="#DejaVuSans-5f" x="740.332031"/>
       <use xlink:href="#DejaVuSans-6f" x="790.332031"/>
       <use xlink:href="#DejaVuSans-33" x="851.513672"/>
      </g>
     </g>
    </g>
    <g id="xtick_4">
     <g id="line2d_4">
      <g>
       <use xlink:href="#m921d092005" x="269.990275" y="288.430125" style="stroke: #000000; stroke-width: 0.8"/>
      </g>
     </g>
     <g id="text_4">
      <!-- aflplusplus_ast_o0 -->
      <g transform="translate(189.559219 347.766815)rotate(-30)scale(0.1 -0.1)">
       <defs>
        <path id="DejaVuSans-30" d="M 2034 4250 
Q 1547 4250 1301 3770 
Q 1056 3291 1056 2328 
Q 1056 1369 1301 889 
Q 1547 409 2034 409 
Q 2525 409 2770 889 
Q 3016 1369 3016 2328 
Q 3016 3291 2770 3770 
Q 2525 4250 2034 4250 
z
M 2034 4750 
Q 2819 4750 3233 4129 
Q 3647 3509 3647 2328 
Q 3647 1150 3233 529 
Q 2819 -91 2034 -91 
Q 1250 -91 836 529 
Q 422 1150 422 2328 
Q 422 3509 836 4129 
Q 1250 4750 2034 4750 
z
" transform="scale(0.015625)"/>
       </defs>
       <use xlink:href="#DejaVuSans-61"/>
       <use xlink:href="#DejaVuSans-66" x="61.279297"/>
       <use xlink:href="#DejaVuSans-6c" x="96.484375"/>
       <use xlink:href="#DejaVuSans-70" x="124.267578"/>
       <use xlink:href="#DejaVuSans-6c" x="187.744141"/>
       <use xlink:href="#DejaVuSans-75" x="215.527344"/>
       <use xlink:href="#DejaVuSans-73" x="278.90625"/>
       <use xlink:href="#DejaVuSans-70" x="331.005859"/>
       <use xlink:href="#DejaVuSans-6c" x="394.482422"/>
       <use xlink:href="#DejaVuSans-75" x="422.265625"/>
       <use xlink:href="#DejaVuSans-73" x="485.644531"/>
       <use xlink:href="#DejaVuSans-5f" x="537.744141"/>
       <use xlink:href="#DejaVuSans-61" x="587.744141"/>
       <use xlink:href="#DejaVuSans-73" x="649.023438"/>
       <use xlink:href="#DejaVuSans-74" x="701.123047"/>
       <use xlink:href="#DejaVuSans-5f" x="740.332031"/>
       <use xlink:href="#DejaVuSans-6f" x="790.332031"/>
       <use xlink:href="#DejaVuSans-30" x="851.513672"/>
      </g>
     </g>
    </g>
    <g id="xtick_5">
     <g id="line2d_5">
      <g>
       <use xlink:href="#m921d092005" x="329.510275" y="288.430125" style="stroke: #000000; stroke-width: 0.8"/>
      </g>
     </g>
     <g id="text_5">
      <!-- aflplusplus_ast_f1 -->
      <g transform="translate(251.329532 346.467596)rotate(-30)scale(0.1 -0.1)">
       <use xlink:href="#DejaVuSans-61"/>
       <use xlink:href="#DejaVuSans-66" x="61.279297"/>
       <use xlink:href="#DejaVuSans-6c" x="96.484375"/>
       <use xlink:href="#DejaVuSans-70" x="124.267578"/>
       <use xlink:href="#DejaVuSans-6c" x="187.744141"/>
       <use xlink:href="#DejaVuSans-75" x="215.527344"/>
       <use xlink:href="#DejaVuSans-73" x="278.90625"/>
       <use xlink:href="#DejaVuSans-70" x="331.005859"/>
       <use xlink:href="#DejaVuSans-6c" x="394.482422"/>
       <use xlink:href="#DejaVuSans-75" x="422.265625"/>
       <use xlink:href="#DejaVuSans-73" x="485.644531"/>
       <use xlink:href="#DejaVuSans-5f" x="537.744141"/>
       <use xlink:href="#DejaVuSans-61" x="587.744141"/>
       <use xlink:href="#DejaVuSans-73" x="649.023438"/>
       <use xlink:href="#DejaVuSans-74" x="701.123047"/>
       <use xlink:href="#DejaVuSans-5f" x="740.332031"/>
       <use xlink:href="#DejaVuSans-66" x="790.332031"/>
       <use xlink:href="#DejaVuSans-31" x="825.537109"/>
      </g>
     </g>
    </g>
    <g id="xtick_6">
     <g id="line2d_6">
      <g>
       <use xlink:href="#m921d092005" x="389.030275" y="288.430125" style="stroke: #000000; stroke-width: 0.8"/>
      </g>
     </g>
     <g id="text_6">
      <!-- aflplusplus_ast_f0 -->
      <g transform="translate(310.849532 346.467596)rotate(-30)scale(0.1 -0.1)">
       <use xlink:href="#DejaVuSans-61"/>
       <use xlink:href="#DejaVuSans-66" x="61.279297"/>
       <use xlink:href="#DejaVuSans-6c" x="96.484375"/>
       <use xlink:href="#DejaVuSans-70" x="124.267578"/>
       <use xlink:href="#DejaVuSans-6c" x="187.744141"/>
       <use xlink:href="#DejaVuSans-75" x="215.527344"/>
       <use xlink:href="#DejaVuSans-73" x="278.90625"/>
       <use xlink:href="#DejaVuSans-70" x="331.005859"/>
       <use xlink:href="#DejaVuSans-6c" x="394.482422"/>
       <use xlink:href="#DejaVuSans-75" x="422.265625"/>
       <use xlink:href="#DejaVuSans-73" x="485.644531"/>
       <use xlink:href="#DejaVuSans-5f" x="537.744141"/>
       <use xlink:href="#DejaVuSans-61" x="587.744141"/>
       <use xlink:href="#DejaVuSans-73" x="649.023438"/>
       <use xlink:href="#DejaVuSans-74" x="701.123047"/>
       <use xlink:href="#DejaVuSans-5f" x="740.332031"/>
       <use xlink:href="#DejaVuSans-66" x="790.332031"/>
       <use xlink:href="#DejaVuSans-30" x="825.537109"/>
      </g>
     </g>
    </g>
    <g id="text_7">
     <!-- Fuzzer (highest median coverage on the left) -->
     <g transform="translate(127.612306 361.407178)scale(0.1 -0.1)">
      <defs>
       <path id="DejaVuSans-46" d="M 628 4666 
L 3309 4666 
L 3309 4134 
L 1259 4134 
L 1259 2759 
L 3109 2759 
L 3109 2228 
L 1259 2228 
L 1259 0 
L 628 0 
L 628 4666 
z
" transform="scale(0.015625)"/>
       <path id="DejaVuSans-7a" d="M 353 3500 
L 3084 3500 
L 3084 2975 
L 922 459 
L 3084 459 
L 3084 0 
L 275 0 
L 275 525 
L 2438 3041 
L 353 3041 
L 353 3500 
z
" transform="scale(0.015625)"/>
       <path id="DejaVuSans-65" d="M 3597 1894 
L 3597 1613 
L 953 1613 
Q 991 1019 1311 708 
Q 1631 397 2203 397 
Q 2534 397 2845 478 
Q 3156 559 3463 722 
L 3463 178 
Q 3153 47 2828 -22 
Q 2503 -91 2169 -91 
Q 1331 -91 842 396 
Q 353 884 353 1716 
Q 353 2575 817 3079 
Q 1281 3584 2069 3584 
Q 2775 3584 3186 3129 
Q 3597 2675 3597 1894 
z
M 3022 2063 
Q 3016 2534 2758 2815 
Q 2500 3097 2075 3097 
Q 1594 3097 1305 2825 
Q 1016 2553 972 2059 
L 3022 2063 
z
" transform="scale(0.015625)"/>
       <path id="DejaVuSans-72" d="M 2631 2963 
Q 2534 3019 2420 3045 
Q 2306 3072 2169 3072 
Q 1681 3072 1420 2755 
Q 1159 2438 1159 1844 
L 1159 0 
L 581 0 
L 581 3500 
L 1159 3500 
L 1159 2956 
Q 1341 3275 1631 3429 
Q 1922 3584 2338 3584 
Q 2397 3584 2469 3576 
Q 2541 3569 2628 3553 
L 2631 2963 
z
" transform="scale(0.015625)"/>
       <path id="DejaVuSans-20" transform="scale(0.015625)"/>
       <path id="DejaVuSans-28" d="M 1984 4856 
Q 1566 4138 1362 3434 
Q 1159 2731 1159 2009 
Q 1159 1288 1364 580 
Q 1569 -128 1984 -844 
L 1484 -844 
Q 1016 -109 783 600 
Q 550 1309 550 2009 
Q 550 2706 781 3412 
Q 1013 4119 1484 4856 
L 1984 4856 
z
" transform="scale(0.015625)"/>
       <path id="DejaVuSans-68" d="M 3513 2113 
L 3513 0 
L 2938 0 
L 2938 2094 
Q 2938 2591 2744 2837 
Q 2550 3084 2163 3084 
Q 1697 3084 1428 2787 
Q 1159 2491 1159 1978 
L 1159 0 
L 581 0 
L 581 4863 
L 1159 4863 
L 1159 2956 
Q 1366 3272 1645 3428 
Q 1925 3584 2291 3584 
Q 2894 3584 3203 3211 
Q 3513 2838 3513 2113 
z
" transform="scale(0.015625)"/>
       <path id="DejaVuSans-69" d="M 603 3500 
L 1178 3500 
L 1178 0 
L 603 0 
L 603 3500 
z
M 603 4863 
L 1178 4863 
L 1178 4134 
L 603 4134 
L 603 4863 
z
" transform="scale(0.015625)"/>
       <path id="DejaVuSans-67" d="M 2906 1791 
Q 2906 2416 2648 2759 
Q 2391 3103 1925 3103 
Q 1463 3103 1205 2759 
Q 947 2416 947 1791 
Q 947 1169 1205 825 
Q 1463 481 1925 481 
Q 2391 481 2648 825 
Q 2906 1169 2906 1791 
z
M 3481 434 
Q 3481 -459 3084 -895 
Q 2688 -1331 1869 -1331 
Q 1566 -1331 1297 -1286 
Q 1028 -1241 775 -1147 
L 775 -588 
Q 1028 -725 1275 -790 
Q 1522 -856 1778 -856 
Q 2344 -856 2625 -561 
Q 2906 -266 2906 331 
L 2906 616 
Q 2728 306 2450 153 
Q 2172 0 1784 0 
Q 1141 0 747 490 
Q 353 981 353 1791 
Q 353 2603 747 3093 
Q 1141 3584 1784 3584 
Q 2172 3584 2450 3431 
Q 2728 3278 2906 2969 
L 2906 3500 
L 3481 3500 
L 3481 434 
z
" transform="scale(0.015625)"/>
       <path id="DejaVuSans-6d" d="M 3328 2828 
Q 3544 3216 3844 3400 
Q 4144 3584 4550 3584 
Q 5097 3584 5394 3201 
Q 5691 2819 5691 2113 
L 5691 0 
L 5113 0 
L 5113 2094 
Q 5113 2597 4934 2840 
Q 4756 3084 4391 3084 
Q 3944 3084 3684 2787 
Q 3425 2491 3425 1978 
L 3425 0 
L 2847 0 
L 2847 2094 
Q 2847 2600 2669 2842 
Q 2491 3084 2119 3084 
Q 1678 3084 1418 2786 
Q 1159 2488 1159 1978 
L 1159 0 
L 581 0 
L 581 3500 
L 1159 3500 
L 1159 2956 
Q 1356 3278 1631 3431 
Q 1906 3584 2284 3584 
Q 2666 3584 2933 3390 
Q 3200 3197 3328 2828 
z
" transform="scale(0.015625)"/>
       <path id="DejaVuSans-64" d="M 2906 2969 
L 2906 4863 
L 3481 4863 
L 3481 0 
L 2906 0 
L 2906 525 
Q 2725 213 2448 61 
Q 2172 -91 1784 -91 
Q 1150 -91 751 415 
Q 353 922 353 1747 
Q 353 2572 751 3078 
Q 1150 3584 1784 3584 
Q 2172 3584 2448 3432 
Q 2725 3281 2906 2969 
z
M 947 1747 
Q 947 1113 1208 752 
Q 1469 391 1925 391 
Q 2381 391 2643 752 
Q 2906 1113 2906 1747 
Q 2906 2381 2643 2742 
Q 2381 3103 1925 3103 
Q 1469 3103 1208 2742 
Q 947 2381 947 1747 
z
" transform="scale(0.015625)"/>
       <path id="DejaVuSans-6e" d="M 3513 2113 
L 3513 0 
L 2938 0 
L 2938 2094 
Q 2938 2591 2744 2837 
Q 2550 3084 2163 3084 
Q 1697 3084 1428 2787 
Q 1159 2491 1159 1978 
L 1159 0 
L 581 0 
L 581 3500 
L 1159 3500 
L 1159 2956 
Q 1366 3272 1645 3428 
Q 1925 3584 2291 3584 
Q 2894 3584 3203 3211 
Q 3513 2838 3513 2113 
z
" transform="scale(0.015625)"/>
       <path id="DejaVuSans-63" d="M 3122 3366 
L 3122 2828 
Q 2878 2963 2633 3030 
Q 2388 3097 2138 3097 
Q 1578 3097 1268 2742 
Q 959 2388 959 1747 
Q 959 1106 1268 751 
Q 1578 397 2138 397 
Q 2388 397 2633 464 
Q 2878 531 3122 666 
L 3122 134 
Q 2881 22 2623 -34 
Q 2366 -91 2075 -91 
Q 1284 -91 818 406 
Q 353 903 353 1747 
Q 353 2603 823 3093 
Q 1294 3584 2113 3584 
Q 2378 3584 2631 3529 
Q 2884 3475 3122 3366 
z
" transform="scale(0.015625)"/>
       <path id="DejaVuSans-76" d="M 191 3500 
L 800 3500 
L 1894 563 
L 2988 3500 
L 3597 3500 
L 2284 0 
L 1503 0 
L 191 3500 
z
" transform="scale(0.015625)"/>
       <path id="DejaVuSans-29" d="M 513 4856 
L 1013 4856 
Q 1481 4119 1714 3412 
Q 1947 2706 1947 2009 
Q 1947 1309 1714 600 
Q 1481 -109 1013 -844 
L 513 -844 
Q 928 -128 1133 580 
Q 1338 1288 1338 2009 
Q 1338 2731 1133 3434 
Q 928 4138 513 4856 
z
" transform="scale(0.015625)"/>
      </defs>
      <use xlink:href="#DejaVuSans-46"/>
      <use xlink:href="#DejaVuSans-75" x="52.019531"/>
      <use xlink:href="#DejaVuSans-7a" x="115.398438"/>
      <use xlink:href="#DejaVuSans-7a" x="167.888672"/>
      <use xlink:href="#DejaVuSans-65" x="220.378906"/>
      <use xlink:href="#DejaVuSans-72" x="281.902344"/>
      <use xlink:href="#DejaVuSans-20" x="323.015625"/>
      <use xlink:href="#DejaVuSans-28" x="354.802734"/>
      <use xlink:href="#DejaVuSans-68" x="393.816406"/>
      <use xlink:href="#DejaVuSans-69" x="457.195312"/>
      <use xlink:href="#DejaVuSans-67" x="484.978516"/>
      <use xlink:href="#DejaVuSans-68" x="548.455078"/>
      <use xlink:href="#DejaVuSans-65" x="611.833984"/>
      <use xlink:href="#DejaVuSans-73" x="673.357422"/>
      <use xlink:href="#DejaVuSans-74" x="725.457031"/>
      <use xlink:href="#DejaVuSans-20" x="764.666016"/>
      <use xlink:href="#DejaVuSans-6d" x="796.453125"/>
      <use xlink:href="#DejaVuSans-65" x="893.865234"/>
      <use xlink:href="#DejaVuSans-64" x="955.388672"/>
      <use xlink:href="#DejaVuSans-69" x="1018.865234"/>
      <use xlink:href="#DejaVuSans-61" x="1046.648438"/>
      <use xlink:href="#DejaVuSans-6e" x="1107.927734"/>
      <use xlink:href="#DejaVuSans-20" x="1171.306641"/>
      <use xlink:href="#DejaVuSans-63" x="1203.09375"/>
      <use xlink:href="#DejaVuSans-6f" x="1258.074219"/>
      <use xlink:href="#DejaVuSans-76" x="1319.255859"/>
      <use xlink:href="#DejaVuSans-65" x="1378.435547"/>
      <use xlink:href="#DejaVuSans-72" x="1439.958984"/>
      <use xlink:href="#DejaVuSans-61" x="1481.072266"/>
      <use xlink:href="#DejaVuSans-67" x="1542.351562"/>
      <use xlink:href="#DejaVuSans-65" x="1605.828125"/>
      <use xlink:href="#DejaVuSans-20" x="1667.351562"/>
      <use xlink:href="#DejaVuSans-6f" x="1699.138672"/>
      <use xlink:href="#DejaVuSans-6e" x="1760.320312"/>
      <use xlink:href="#DejaVuSans-20" x="1823.699219"/>
      <use xlink:href="#DejaVuSans-74" x="1855.486328"/>
      <use xlink:href="#DejaVuSans-68" x="1894.695312"/>
      <use xlink:href="#DejaVuSans-65" x="1958.074219"/>
      <use xlink:href="#DejaVuSans-20" x="2019.597656"/>
      <use xlink:href="#DejaVuSans-6c" x="2051.384766"/>
      <use xlink:href="#DejaVuSans-65" x="2079.167969"/>
      <use xlink:href="#DejaVuSans-66" x="2140.691406"/>
      <use xlink:href="#DejaVuSans-74" x="2174.146484"/>
      <use xlink:href="#DejaVuSans-29" x="2213.355469"/>
     </g>
    </g>
   </g>
   <g id="matplotlib.axis_2">
    <g id="ytick_1">
     <g id="line2d_7">
      <defs>
       <path id="mcf37e99ce6" d="M 0 0 
L -3.5 0 
" style="stroke: #000000; stroke-width: 0.8"/>
      </defs>
      <g>
       <use xlink:href="#mcf37e99ce6" x="61.670275" y="274.504698" style="stroke: #000000; stroke-width: 0.8"/>
      </g>
     </g>
     <g id="text_8">
      <!-- 10600 -->
      <g transform="translate(22.857775 278.303917)scale(0.1 -0.1)">
       <defs>
        <path id="DejaVuSans-36" d="M 2113 2584 
Q 1688 2584 1439 2293 
Q 1191 2003 1191 1497 
Q 1191 994 1439 701 
Q 1688 409 2113 409 
Q 2538 409 2786 701 
Q 3034 994 3034 1497 
Q 3034 2003 2786 2293 
Q 2538 2584 2113 2584 
z
M 3366 4563 
L 3366 3988 
Q 3128 4100 2886 4159 
Q 2644 4219 2406 4219 
Q 1781 4219 1451 3797 
Q 1122 3375 1075 2522 
Q 1259 2794 1537 2939 
Q 1816 3084 2150 3084 
Q 2853 3084 3261 2657 
Q 3669 2231 3669 1497 
Q 3669 778 3244 343 
Q 2819 -91 2113 -91 
Q 1303 -91 875 529 
Q 447 1150 447 2328 
Q 447 3434 972 4092 
Q 1497 4750 2381 4750 
Q 2619 4750 2861 4703 
Q 3103 4656 3366 4563 
z
" transform="scale(0.015625)"/>
       </defs>
       <use xlink:href="#DejaVuSans-31"/>
       <use xlink:href="#DejaVuSans-30" x="63.623047"/>
       <use xlink:href="#DejaVuSans-36" x="127.246094"/>
       <use xlink:href="#DejaVuSans-30" x="190.869141"/>
       <use xlink:href="#DejaVuSans-30" x="254.492188"/>
      </g>
     </g>
    </g>
    <g id="ytick_2">
     <g id="line2d_8">
      <g>
       <use xlink:href="#mcf37e99ce6" x="61.670275" y="219.159484" style="stroke: #000000; stroke-width: 0.8"/>
      </g>
     </g>
     <g id="text_9">
      <!-- 10800 -->
      <g transform="translate(22.857775 222.958703)scale(0.1 -0.1)">
       <defs>
        <path id="DejaVuSans-38" d="M 2034 2216 
Q 1584 2216 1326 1975 
Q 1069 1734 1069 1313 
Q 1069 891 1326 650 
Q 1584 409 2034 409 
Q 2484 409 2743 651 
Q 3003 894 3003 1313 
Q 3003 1734 2745 1975 
Q 2488 2216 2034 2216 
z
M 1403 2484 
Q 997 2584 770 2862 
Q 544 3141 544 3541 
Q 544 4100 942 4425 
Q 1341 4750 2034 4750 
Q 2731 4750 3128 4425 
Q 3525 4100 3525 3541 
Q 3525 3141 3298 2862 
Q 3072 2584 2669 2484 
Q 3125 2378 3379 2068 
Q 3634 1759 3634 1313 
Q 3634 634 3220 271 
Q 2806 -91 2034 -91 
Q 1263 -91 848 271 
Q 434 634 434 1313 
Q 434 1759 690 2068 
Q 947 2378 1403 2484 
z
M 1172 3481 
Q 1172 3119 1398 2916 
Q 1625 2713 2034 2713 
Q 2441 2713 2670 2916 
Q 2900 3119 2900 3481 
Q 2900 3844 2670 4047 
Q 2441 4250 2034 4250 
Q 1625 4250 1398 4047 
Q 1172 3844 1172 3481 
z
" transform="scale(0.015625)"/>
       </defs>
       <use xlink:href="#DejaVuSans-31"/>
       <use xlink:href="#DejaVuSans-30" x="63.623047"/>
       <use xlink:href="#DejaVuSans-38" x="127.246094"/>
       <use xlink:href="#DejaVuSans-30" x="190.869141"/>
       <use xlink:href="#DejaVuSans-30" x="254.492188"/>
      </g>
     </g>
    </g>
    <g id="ytick_3">
     <g id="line2d_9">
      <g>
       <use xlink:href="#mcf37e99ce6" x="61.670275" y="163.81427" style="stroke: #000000; stroke-width: 0.8"/>
      </g>
     </g>
     <g id="text_10">
      <!-- 11000 -->
      <g transform="translate(22.857775 167.613489)scale(0.1 -0.1)">
       <use xlink:href="#DejaVuSans-31"/>
       <use xlink:href="#DejaVuSans-31" x="63.623047"/>
       <use xlink:href="#DejaVuSans-30" x="127.246094"/>
       <use xlink:href="#DejaVuSans-30" x="190.869141"/>
       <use xlink:href="#DejaVuSans-30" x="254.492188"/>
      </g>
     </g>
    </g>
    <g id="ytick_4">
     <g id="line2d_10">
      <g>
       <use xlink:href="#mcf37e99ce6" x="61.670275" y="108.469056" style="stroke: #000000; stroke-width: 0.8"/>
      </g>
     </g>
     <g id="text_11">
      <!-- 11200 -->
      <g transform="translate(22.857775 112.268275)scale(0.1 -0.1)">
       <use xlink:href="#DejaVuSans-31"/>
       <use xlink:href="#DejaVuSans-31" x="63.623047"/>
       <use xlink:href="#DejaVuSans-32" x="127.246094"/>
       <use xlink:href="#DejaVuSans-30" x="190.869141"/>
       <use xlink:href="#DejaVuSans-30" x="254.492188"/>
      </g>
     </g>
    </g>
    <g id="ytick_5">
     <g id="line2d_11">
      <g>
       <use xlink:href="#mcf37e99ce6" x="61.670275" y="53.123842" style="stroke: #000000; stroke-width: 0.8"/>
      </g>
     </g>
     <g id="text_12">
      <!-- 11400 -->
      <g transform="translate(22.857775 56.923061)scale(0.1 -0.1)">
       <defs>
        <path id="DejaVuSans-34" d="M 2419 4116 
L 825 1625 
L 2419 1625 
L 2419 4116 
z
M 2253 4666 
L 3047 4666 
L 3047 1625 
L 3713 1625 
L 3713 1100 
L 3047 1100 
L 3047 0 
L 2419 0 
L 2419 1100 
L 313 1100 
L 313 1709 
L 2253 4666 
z
" transform="scale(0.015625)"/>
       </defs>
       <use xlink:href="#DejaVuSans-31"/>
       <use xlink:href="#DejaVuSans-31" x="63.623047"/>
       <use xlink:href="#DejaVuSans-34" x="127.246094"/>
       <use xlink:href="#DejaVuSans-30" x="190.869141"/>
       <use xlink:href="#DejaVuSans-30" x="254.492188"/>
      </g>
     </g>
    </g>
    <g id="text_13">
     <!-- Reached region coverage -->
     <g transform="translate(16.778087 219.136625)rotate(-90)scale(0.1 -0.1)">
      <defs>
       <path id="DejaVuSans-52" d="M 2841 2188 
Q 3044 2119 3236 1894 
Q 3428 1669 3622 1275 
L 4263 0 
L 3584 0 
L 2988 1197 
Q 2756 1666 2539 1819 
Q 2322 1972 1947 1972 
L 1259 1972 
L 1259 0 
L 628 0 
L 628 4666 
L 2053 4666 
Q 2853 4666 3247 4331 
Q 3641 3997 3641 3322 
Q 3641 2881 3436 2590 
Q 3231 2300 2841 2188 
z
M 1259 4147 
L 1259 2491 
L 2053 2491 
Q 2509 2491 2742 2702 
Q 2975 2913 2975 3322 
Q 2975 3731 2742 3939 
Q 2509 4147 2053 4147 
L 1259 4147 
z
" transform="scale(0.015625)"/>
      </defs>
      <use xlink:href="#DejaVuSans-52"/>
      <use xlink:href="#DejaVuSans-65" x="64.982422"/>
      <use xlink:href="#DejaVuSans-61" x="126.505859"/>
      <use xlink:href="#DejaVuSans-63" x="187.785156"/>
      <use xlink:href="#DejaVuSans-68" x="242.765625"/>
      <use xlink:href="#DejaVuSans-65" x="306.144531"/>
      <use xlink:href="#DejaVuSans-64" x="367.667969"/>
      <use xlink:href="#DejaVuSans-20" x="431.144531"/>
      <use xlink:href="#DejaVuSans-72" x="462.931641"/>
      <use xlink:href="#DejaVuSans-65" x="501.794922"/>
      <use xlink:href="#DejaVuSans-67" x="563.318359"/>
      <use xlink:href="#DejaVuSans-69" x="626.794922"/>
      <use xlink:href="#DejaVuSans-6f" x="654.578125"/>
      <use xlink:href="#DejaVuSans-6e" x="715.759766"/>
      <use xlink:href="#DejaVuSans-20" x="779.138672"/>
      <use xlink:href="#DejaVuSans-63" x="810.925781"/>
      <use xlink:href="#DejaVuSans-6f" x="865.90625"/>
      <use xlink:href="#DejaVuSans-76" x="927.087891"/>
      <use xlink:href="#DejaVuSans-65" x="986.267578"/>
      <use xlink:href="#DejaVuSans-72" x="1047.791016"/>
      <use xlink:href="#DejaVuSans-61" x="1088.904297"/>
      <use xlink:href="#DejaVuSans-67" x="1150.183594"/>
      <use xlink:href="#DejaVuSans-65" x="1213.660156"/>
     </g>
    </g>
   </g>
   <g id="line2d_12">
    <path d="M 91.430275 176.820395 
L 91.430275 170.17897 
" clip-path="url(#p8cd23adb35)" style="fill: none; stroke: #3f3f3f; stroke-width: 1.5; stroke-linecap: square"/>
   </g>
   <g id="line2d_13">
    <path d="M 91.430275 176.543669 
L 91.430275 173.222957 
" clip-path="url(#p8cd23adb35)" style="fill: none; stroke: #3f3f3f; stroke-width: 4.5; stroke-linecap: square"/>
   </g>
   <g id="line2d_14">
    <path d="M 150.950275 194.530864 
L 150.950275 127.009703 
" clip-path="url(#p8cd23adb35)" style="fill: none; stroke: #3f3f3f; stroke-width: 1.5; stroke-linecap: square"/>
   </g>
   <g id="line2d_15">
    <path d="M 150.950275 185.952356 
L 150.950275 152.191775 
" clip-path="url(#p8cd23adb35)" style="fill: none; stroke: #3f3f3f; stroke-width: 4.5; stroke-linecap: square"/>
   </g>
   <g id="line2d_16">
    <path d="M 210.470275 195.914494 
L 210.470275 172.392778 
" clip-path="url(#p8cd23adb35)" style="fill: none; stroke: #3f3f3f; stroke-width: 1.5; stroke-linecap: square"/>
   </g>
   <g id="line2d_17">
    <path d="M 210.470275 187.474349 
L 210.470275 175.713491 
" clip-path="url(#p8cd23adb35)" style="fill: none; stroke: #3f3f3f; stroke-width: 4.5; stroke-linecap: square"/>
   </g>
   <g id="line2d_18">
    <path d="M 269.990275 214.178415 
L 269.990275 158.003023 
" clip-path="url(#p8cd23adb35)" style="fill: none; stroke: #3f3f3f; stroke-width: 1.5; stroke-linecap: square"/>
   </g>
   <g id="line2d_19">
    <path d="M 269.990275 199.096844 
L 269.990275 171.009148 
" clip-path="url(#p8cd23adb35)" style="fill: none; stroke: #3f3f3f; stroke-width: 4.5; stroke-linecap: square"/>
   </g>
   <g id="line2d_20">
    <path d="M 329.510275 199.788659 
L 329.510275 110.959591 
" clip-path="url(#p8cd23adb35)" style="fill: none; stroke: #3f3f3f; stroke-width: 1.5; stroke-linecap: square"/>
   </g>
   <g id="line2d_21">
    <path d="M 329.510275 192.593781 
L 329.510275 148.179247 
" clip-path="url(#p8cd23adb35)" style="fill: none; stroke: #3f3f3f; stroke-width: 4.5; stroke-linecap: square"/>
   </g>
   <g id="line2d_22">
    <path d="M 389.030275 189.273069 
L 389.030275 185.122178 
" clip-path="url(#p8cd23adb35)" style="fill: none; stroke: #3f3f3f; stroke-width: 1.5; stroke-linecap: square"/>
   </g>
   <g id="line2d_23">
    <path d="M 389.030275 188.581253 
L 389.030275 186.505808 
" clip-path="url(#p8cd23adb35)" style="fill: none; stroke: #3f3f3f; stroke-width: 4.5; stroke-linecap: square"/>
   </g>
   <g id="patch_3">
    <path d="M 61.670275 274.504698 
L 61.670275 53.123842 
" style="fill: none; stroke: #000000; stroke-width: 0.8; stroke-linejoin: miter; stroke-linecap: square"/>
   </g>
   <g id="patch_4">
    <path d="M 91.430275 288.430125 
L 389.030275 288.430125 
" style="fill: none; stroke: #000000; stroke-width: 0.8; stroke-linejoin: miter; stroke-linecap: square"/>
   </g>
   <g id="PathCollection_1">
    <defs>
     <path id="m2fc3cfa3cf" d="M 0 1.5 
C 0.397805 1.5 0.77937 1.341951 1.06066 1.06066 
C 1.341951 0.77937 1.5 0.397805 1.5 0 
C 1.5 -0.397805 1.341951 -0.77937 1.06066 -1.06066 
C 0.77937 -1.341951 0.397805 -1.5 0 -1.5 
C -0.397805 -1.5 -0.77937 -1.341951 -1.06066 -1.06066 
C -1.341951 -0.77937 -1.5 -0.397805 -1.5 0 
C -1.5 0.397805 -1.341951 0.77937 -1.06066 1.06066 
C -0.77937 1.341951 -0.397805 1.5 0 1.5 
z
" style="stroke: #3f3f3f"/>
    </defs>
    <g clip-path="url(#p8cd23adb35)">
     <use xlink:href="#m2fc3cfa3cf" x="91.430275" y="176.266943" style="fill: #ffffff; stroke: #3f3f3f"/>
    </g>
   </g>
   <g id="PathCollection_2">
    <g clip-path="url(#p8cd23adb35)">
     <use xlink:href="#m2fc3cfa3cf" x="150.950275" y="177.373848" style="fill: #ffffff; stroke: #3f3f3f"/>
    </g>
   </g>
   <g id="PathCollection_3">
    <g clip-path="url(#p8cd23adb35)">
     <use xlink:href="#m2fc3cfa3cf" x="210.470275" y="179.034204" style="fill: #ffffff; stroke: #3f3f3f"/>
    </g>
   </g>
   <g id="PathCollection_4">
    <g clip-path="url(#p8cd23adb35)">
     <use xlink:href="#m2fc3cfa3cf" x="269.990275" y="184.015273" style="fill: #ffffff; stroke: #3f3f3f"/>
    </g>
   </g>
   <g id="PathCollection_5">
    <g clip-path="url(#p8cd23adb35)">
     <use xlink:href="#m2fc3cfa3cf" x="329.510275" y="185.398904" style="fill: #ffffff; stroke: #3f3f3f"/>
    </g>
   </g>
   <g id="PathCollection_6">
    <g clip-path="url(#p8cd23adb35)">
     <use xlink:href="#m2fc3cfa3cf" x="389.030275" y="187.889438" style="fill: #ffffff; stroke: #3f3f3f"/>
    </g>
   </g>
   <g id="text_14">
    <!-- harfbuzz-1.3.2 (4h:15m, 3 trials/fuzzer) -->
    <g transform="translate(122.236525 16.318125)scale(0.12 -0.12)">
     <defs>
      <path id="DejaVuSans-62" d="M 3116 1747 
Q 3116 2381 2855 2742 
Q 2594 3103 2138 3103 
Q 1681 3103 1420 2742 
Q 1159 2381 1159 1747 
Q 1159 1113 1420 752 
Q 1681 391 2138 391 
Q 2594 391 2855 752 
Q 3116 1113 3116 1747 
z
M 1159 2969 
Q 1341 3281 1617 3432 
Q 1894 3584 2278 3584 
Q 2916 3584 3314 3078 
Q 3713 2572 3713 1747 
Q 3713 922 3314 415 
Q 2916 -91 2278 -91 
Q 1894 -91 1617 61 
Q 1341 213 1159 525 
L 1159 0 
L 581 0 
L 581 4863 
L 1159 4863 
L 1159 2969 
z
" transform="scale(0.015625)"/>
      <path id="DejaVuSans-2d" d="M 313 2009 
L 1997 2009 
L 1997 1497 
L 313 1497 
L 313 2009 
z
" transform="scale(0.015625)"/>
      <path id="DejaVuSans-2e" d="M 684 794 
L 1344 794 
L 1344 0 
L 684 0 
L 684 794 
z
" transform="scale(0.015625)"/>
      <path id="DejaVuSans-3a" d="M 750 794 
L 1409 794 
L 1409 0 
L 750 0 
L 750 794 
z
M 750 3309 
L 1409 3309 
L 1409 2516 
L 750 2516 
L 750 3309 
z
" transform="scale(0.015625)"/>
      <path id="DejaVuSans-35" d="M 691 4666 
L 3169 4666 
L 3169 4134 
L 1269 4134 
L 1269 2991 
Q 1406 3038 1543 3061 
Q 1681 3084 1819 3084 
Q 2600 3084 3056 2656 
Q 3513 2228 3513 1497 
Q 3513 744 3044 326 
Q 2575 -91 1722 -91 
Q 1428 -91 1123 -41 
Q 819 9 494 109 
L 494 744 
Q 775 591 1075 516 
Q 1375 441 1709 441 
Q 2250 441 2565 725 
Q 2881 1009 2881 1497 
Q 2881 1984 2565 2268 
Q 2250 2553 1709 2553 
Q 1456 2553 1204 2497 
Q 953 2441 691 2322 
L 691 4666 
z
" transform="scale(0.015625)"/>
      <path id="DejaVuSans-2c" d="M 750 794 
L 1409 794 
L 1409 256 
L 897 -744 
L 494 -744 
L 750 256 
L 750 794 
z
" transform="scale(0.015625)"/>
      <path id="DejaVuSans-2f" d="M 1625 4666 
L 2156 4666 
L 531 -594 
L 0 -594 
L 1625 4666 
z
" transform="scale(0.015625)"/>
     </defs>
     <use xlink:href="#DejaVuSans-68"/>
     <use xlink:href="#DejaVuSans-61" x="63.378906"/>
     <use xlink:href="#DejaVuSans-72" x="124.658203"/>
     <use xlink:href="#DejaVuSans-66" x="165.771484"/>
     <use xlink:href="#DejaVuSans-62" x="200.976562"/>
     <use xlink:href="#DejaVuSans-75" x="264.453125"/>
     <use xlink:href="#DejaVuSans-7a" x="327.832031"/>
     <use xlink:href="#DejaVuSans-7a" x="380.322266"/>
     <use xlink:href="#DejaVuSans-2d" x="432.8125"/>
     <use xlink:href="#DejaVuSans-31" x="468.896484"/>
     <use xlink:href="#DejaVuSans-2e" x="532.519531"/>
     <use xlink:href="#DejaVuSans-33" x="564.306641"/>
     <use xlink:href="#DejaVuSans-2e" x="627.929688"/>
     <use xlink:href="#DejaVuSans-32" x="659.716797"/>
     <use xlink:href="#DejaVuSans-20" x="723.339844"/>
     <use xlink:href="#DejaVuSans-28" x="755.126953"/>
     <use xlink:href="#DejaVuSans-34" x="794.140625"/>
     <use xlink:href="#DejaVuSans-68" x="857.763672"/>
     <use xlink:href="#DejaVuSans-3a" x="921.142578"/>
     <use xlink:href="#DejaVuSans-31" x="954.833984"/>
     <use xlink:href="#DejaVuSans-35" x="1018.457031"/>
     <use xlink:href="#DejaVuSans-6d" x="1082.080078"/>
     <use xlink:href="#DejaVuSans-2c" x="1179.492188"/>
     <use xlink:href="#DejaVuSans-20" x="1211.279297"/>
     <use xlink:href="#DejaVuSans-33" x="1243.066406"/>
     <use xlink:href="#DejaVuSans-20" x="1306.689453"/>
     <use xlink:href="#DejaVuSans-74" x="1338.476562"/>
     <use xlink:href="#DejaVuSans-72" x="1377.685547"/>
     <use xlink:href="#DejaVuSans-69" x="1418.798828"/>
     <use xlink:href="#DejaVuSans-61" x="1446.582031"/>
     <use xlink:href="#DejaVuSans-6c" x="1507.861328"/>
     <use xlink:href="#DejaVuSans-73" x="1535.644531"/>
     <use xlink:href="#DejaVuSans-2f" x="1587.744141"/>
     <use xlink:href="#DejaVuSans-66" x="1621.435547"/>
     <use xlink:href="#DejaVuSans-75" x="1656.640625"/>
     <use xlink:href="#DejaVuSans-7a" x="1720.019531"/>
     <use xlink:href="#DejaVuSans-7a" x="1772.509766"/>
     <use xlink:href="#DejaVuSans-65" x="1825"/>
     <use xlink:href="#DejaVuSans-72" x="1886.523438"/>
     <use xlink:href="#DejaVuSans-29" x="1927.636719"/>
    </g>
   </g>
  </g>
 </g>
 <defs>
  <clipPath id="p8cd23adb35">
   <rect x="61.670275" y="22.318125" width="357.12" height="266.112"/>
  </clipPath>
 </defs>
</svg>
