<?xml version="1.0" encoding="utf-8" standalone="no"?>
<!DOCTYPE svg PUBLIC "-//W3C//DTD SVG 1.1//EN"
  "http://www.w3.org/Graphics/SVG/1.1/DTD/svg11.dtd">
<svg xmlns:xlink="http://www.w3.org/1999/xlink" width="420.82625pt" height="316.30825pt" viewBox="0 0 420.82625 316.30825" xmlns="http://www.w3.org/2000/svg" version="1.1">
 <metadata>
  <rdf:RDF xmlns:dc="http://purl.org/dc/elements/1.1/" xmlns:cc="http://creativecommons.org/ns#" xmlns:rdf="http://www.w3.org/1999/02/22-rdf-syntax-ns#">
   <cc:Work>
    <dc:type rdf:resource="http://purl.org/dc/dcmitype/StillImage"/>
    <dc:date>2022-06-05T19:46:35.139895</dc:date>
    <dc:format>image/svg+xml</dc:format>
    <dc:creator>
     <cc:Agent>
      <dc:title>Matplotlib v3.5.1, https://matplotlib.org/</dc:title>
     </cc:Agent>
    </dc:creator>
   </cc:Work>
  </rdf:RDF>
 </metadata>
 <defs>
  <style type="text/css">*{stroke-linejoin: round; stroke-linecap: butt}</style>
 </defs>
 <g id="figure_1">
  <g id="patch_1">
   <path d="M 0 316.30825 
L 420.82625 316.30825 
L 420.82625 0 
L 0 0 
z
" style="fill: #ffffff"/>
  </g>
  <g id="axes_1">
   <g id="patch_2">
    <path d="M 56.50625 288.430125 
L 413.62625 288.430125 
L 413.62625 22.318125 
L 56.50625 22.318125 
z
" style="fill: #ffffff"/>
   </g>
   <g id="matplotlib.axis_1">
    <g id="xtick_1">
     <g id="line2d_1">
      <defs>
       <path id="maf9e7638f8" d="M 0 0 
L 0 3.5 
" style="stroke: #000000; stroke-width: 0.8"/>
      </defs>
      <g>
       <use xlink:href="#maf9e7638f8" x="65.337122" y="288.430125" style="stroke: #000000; stroke-width: 0.8"/>
      </g>
     </g>
    </g>
    <g id="xtick_2">
     <g id="line2d_2">
      <g>
       <use xlink:href="#maf9e7638f8" x="110.358111" y="288.430125" style="stroke: #000000; stroke-width: 0.8"/>
      </g>
     </g>
    </g>
    <g id="xtick_3">
     <g id="line2d_3">
      <g>
       <use xlink:href="#maf9e7638f8" x="155.3791" y="288.430125" style="stroke: #000000; stroke-width: 0.8"/>
      </g>
     </g>
    </g>
    <g id="xtick_4">
     <g id="line2d_4">
      <g>
       <use xlink:href="#maf9e7638f8" x="200.400088" y="288.430125" style="stroke: #000000; stroke-width: 0.8"/>
      </g>
     </g>
    </g>
    <g id="xtick_5">
     <g id="line2d_5">
      <g>
       <use xlink:href="#maf9e7638f8" x="245.421077" y="288.430125" style="stroke: #000000; stroke-width: 0.8"/>
      </g>
     </g>
    </g>
    <g id="xtick_6">
     <g id="line2d_6">
      <g>
       <use xlink:href="#maf9e7638f8" x="290.442066" y="288.430125" style="stroke: #000000; stroke-width: 0.8"/>
      </g>
     </g>
    </g>
    <g id="xtick_7">
     <g id="line2d_7">
      <g>
       <use xlink:href="#maf9e7638f8" x="335.463055" y="288.430125" style="stroke: #000000; stroke-width: 0.8"/>
      </g>
     </g>
    </g>
    <g id="xtick_8">
     <g id="line2d_8">
      <g>
       <use xlink:href="#maf9e7638f8" x="380.484044" y="288.430125" style="stroke: #000000; stroke-width: 0.8"/>
      </g>
     </g>
    </g>
    <g id="text_1">
     <!-- Code region coverage -->
     <g transform="translate(180.060781 307.028562)scale(0.1 -0.1)">
      <defs>
       <path id="DejaVuSans-43" d="M 4122 4306 
L 4122 3641 
Q 3803 3938 3442 4084 
Q 3081 4231 2675 4231 
Q 1875 4231 1450 3742 
Q 1025 3253 1025 2328 
Q 1025 1406 1450 917 
Q 1875 428 2675 428 
Q 3081 428 3442 575 
Q 3803 722 4122 1019 
L 4122 359 
Q 3791 134 3420 21 
Q 3050 -91 2638 -91 
Q 1578 -91 968 557 
Q 359 1206 359 2328 
Q 359 3453 968 4101 
Q 1578 4750 2638 4750 
Q 3056 4750 3426 4639 
Q 3797 4528 4122 4306 
z
" transform="scale(0.015625)"/>
       <path id="DejaVuSans-6f" d="M 1959 3097 
Q 1497 3097 1228 2736 
Q 959 2375 959 1747 
Q 959 1119 1226 758 
Q 1494 397 1959 397 
Q 2419 397 2687 759 
Q 2956 1122 2956 1747 
Q 2956 2369 2687 2733 
Q 2419 3097 1959 3097 
z
M 1959 3584 
Q 2709 3584 3137 3096 
Q 3566 2609 3566 1747 
Q 3566 888 3137 398 
Q 2709 -91 1959 -91 
Q 1206 -91 779 398 
Q 353 888 353 1747 
Q 353 2609 779 3096 
Q 1206 3584 1959 3584 
z
" transform="scale(0.015625)"/>
       <path id="DejaVuSans-64" d="M 2906 2969 
L 2906 4863 
L 3481 4863 
L 3481 0 
L 2906 0 
L 2906 525 
Q 2725 213 2448 61 
Q 2172 -91 1784 -91 
Q 1150 -91 751 415 
Q 353 922 353 1747 
Q 353 2572 751 3078 
Q 1150 3584 1784 3584 
Q 2172 3584 2448 3432 
Q 2725 3281 2906 2969 
z
M 947 1747 
Q 947 1113 1208 752 
Q 1469 391 1925 391 
Q 2381 391 2643 752 
Q 2906 1113 2906 1747 
Q 2906 2381 2643 2742 
Q 2381 3103 1925 3103 
Q 1469 3103 1208 2742 
Q 947 2381 947 1747 
z
" transform="scale(0.015625)"/>
       <path id="DejaVuSans-65" d="M 3597 1894 
L 3597 1613 
L 953 1613 
Q 991 1019 1311 708 
Q 1631 397 2203 397 
Q 2534 397 2845 478 
Q 3156 559 3463 722 
L 3463 178 
Q 3153 47 2828 -22 
Q 2503 -91 2169 -91 
Q 1331 -91 842 396 
Q 353 884 353 1716 
Q 353 2575 817 3079 
Q 1281 3584 2069 3584 
Q 2775 3584 3186 3129 
Q 3597 2675 3597 1894 
z
M 3022 2063 
Q 3016 2534 2758 2815 
Q 2500 3097 2075 3097 
Q 1594 3097 1305 2825 
Q 1016 2553 972 2059 
L 3022 2063 
z
" transform="scale(0.015625)"/>
       <path id="DejaVuSans-20" transform="scale(0.015625)"/>
       <path id="DejaVuSans-72" d="M 2631 2963 
Q 2534 3019 2420 3045 
Q 2306 3072 2169 3072 
Q 1681 3072 1420 2755 
Q 1159 2438 1159 1844 
L 1159 0 
L 581 0 
L 581 3500 
L 1159 3500 
L 1159 2956 
Q 1341 3275 1631 3429 
Q 1922 3584 2338 3584 
Q 2397 3584 2469 3576 
Q 2541 3569 2628 3553 
L 2631 2963 
z
" transform="scale(0.015625)"/>
       <path id="DejaVuSans-67" d="M 2906 1791 
Q 2906 2416 2648 2759 
Q 2391 3103 1925 3103 
Q 1463 3103 1205 2759 
Q 947 2416 947 1791 
Q 947 1169 1205 825 
Q 1463 481 1925 481 
Q 2391 481 2648 825 
Q 2906 1169 2906 1791 
z
M 3481 434 
Q 3481 -459 3084 -895 
Q 2688 -1331 1869 -1331 
Q 1566 -1331 1297 -1286 
Q 1028 -1241 775 -1147 
L 775 -588 
Q 1028 -725 1275 -790 
Q 1522 -856 1778 -856 
Q 2344 -856 2625 -561 
Q 2906 -266 2906 331 
L 2906 616 
Q 2728 306 2450 153 
Q 2172 0 1784 0 
Q 1141 0 747 490 
Q 353 981 353 1791 
Q 353 2603 747 3093 
Q 1141 3584 1784 3584 
Q 2172 3584 2450 3431 
Q 2728 3278 2906 2969 
L 2906 3500 
L 3481 3500 
L 3481 434 
z
" transform="scale(0.015625)"/>
       <path id="DejaVuSans-69" d="M 603 3500 
L 1178 3500 
L 1178 0 
L 603 0 
L 603 3500 
z
M 603 4863 
L 1178 4863 
L 1178 4134 
L 603 4134 
L 603 4863 
z
" transform="scale(0.015625)"/>
       <path id="DejaVuSans-6e" d="M 3513 2113 
L 3513 0 
L 2938 0 
L 2938 2094 
Q 2938 2591 2744 2837 
Q 2550 3084 2163 3084 
Q 1697 3084 1428 2787 
Q 1159 2491 1159 1978 
L 1159 0 
L 581 0 
L 581 3500 
L 1159 3500 
L 1159 2956 
Q 1366 3272 1645 3428 
Q 1925 3584 2291 3584 
Q 2894 3584 3203 3211 
Q 3513 2838 3513 2113 
z
" transform="scale(0.015625)"/>
       <path id="DejaVuSans-63" d="M 3122 3366 
L 3122 2828 
Q 2878 2963 2633 3030 
Q 2388 3097 2138 3097 
Q 1578 3097 1268 2742 
Q 959 2388 959 1747 
Q 959 1106 1268 751 
Q 1578 397 2138 397 
Q 2388 397 2633 464 
Q 2878 531 3122 666 
L 3122 134 
Q 2881 22 2623 -34 
Q 2366 -91 2075 -91 
Q 1284 -91 818 406 
Q 353 903 353 1747 
Q 353 2603 823 3093 
Q 1294 3584 2113 3584 
Q 2378 3584 2631 3529 
Q 2884 3475 3122 3366 
z
" transform="scale(0.015625)"/>
       <path id="DejaVuSans-76" d="M 191 3500 
L 800 3500 
L 1894 563 
L 2988 3500 
L 3597 3500 
L 2284 0 
L 1503 0 
L 191 3500 
z
" transform="scale(0.015625)"/>
       <path id="DejaVuSans-61" d="M 2194 1759 
Q 1497 1759 1228 1600 
Q 959 1441 959 1056 
Q 959 750 1161 570 
Q 1363 391 1709 391 
Q 2188 391 2477 730 
Q 2766 1069 2766 1631 
L 2766 1759 
L 2194 1759 
z
M 3341 1997 
L 3341 0 
L 2766 0 
L 2766 531 
Q 2569 213 2275 61 
Q 1981 -91 1556 -91 
Q 1019 -91 701 211 
Q 384 513 384 1019 
Q 384 1609 779 1909 
Q 1175 2209 1959 2209 
L 2766 2209 
L 2766 2266 
Q 2766 2663 2505 2880 
Q 2244 3097 1772 3097 
Q 1472 3097 1187 3025 
Q 903 2953 641 2809 
L 641 3341 
Q 956 3463 1253 3523 
Q 1550 3584 1831 3584 
Q 2591 3584 2966 3190 
Q 3341 2797 3341 1997 
z
" transform="scale(0.015625)"/>
      </defs>
      <use xlink:href="#DejaVuSans-43"/>
      <use xlink:href="#DejaVuSans-6f" x="69.824219"/>
      <use xlink:href="#DejaVuSans-64" x="131.005859"/>
      <use xlink:href="#DejaVuSans-65" x="194.482422"/>
      <use xlink:href="#DejaVuSans-20" x="256.005859"/>
      <use xlink:href="#DejaVuSans-72" x="287.792969"/>
      <use xlink:href="#DejaVuSans-65" x="326.65625"/>
      <use xlink:href="#DejaVuSans-67" x="388.179688"/>
      <use xlink:href="#DejaVuSans-69" x="451.65625"/>
      <use xlink:href="#DejaVuSans-6f" x="479.439453"/>
      <use xlink:href="#DejaVuSans-6e" x="540.621094"/>
      <use xlink:href="#DejaVuSans-20" x="604"/>
      <use xlink:href="#DejaVuSans-63" x="635.787109"/>
      <use xlink:href="#DejaVuSans-6f" x="690.767578"/>
      <use xlink:href="#DejaVuSans-76" x="751.949219"/>
      <use xlink:href="#DejaVuSans-65" x="811.128906"/>
      <use xlink:href="#DejaVuSans-72" x="872.652344"/>
      <use xlink:href="#DejaVuSans-61" x="913.765625"/>
      <use xlink:href="#DejaVuSans-67" x="975.044922"/>
      <use xlink:href="#DejaVuSans-65" x="1038.521484"/>
     </g>
    </g>
   </g>
   <g id="matplotlib.axis_2">
    <g id="ytick_1">
     <g id="line2d_9">
      <defs>
       <path id="m422acb9e5f" d="M 0 0 
L -3.5 0 
" style="stroke: #000000; stroke-width: 0.8"/>
      </defs>
      <g>
       <use xlink:href="#m422acb9e5f" x="56.50625" y="288.430125" style="stroke: #000000; stroke-width: 0.8"/>
      </g>
     </g>
     <g id="text_2">
      <!-- 0.000 -->
      <g transform="translate(20.878125 292.229344)scale(0.1 -0.1)">
       <defs>
        <path id="DejaVuSans-30" d="M 2034 4250 
Q 1547 4250 1301 3770 
Q 1056 3291 1056 2328 
Q 1056 1369 1301 889 
Q 1547 409 2034 409 
Q 2525 409 2770 889 
Q 3016 1369 3016 2328 
Q 3016 3291 2770 3770 
Q 2525 4250 2034 4250 
z
M 2034 4750 
Q 2819 4750 3233 4129 
Q 3647 3509 3647 2328 
Q 3647 1150 3233 529 
Q 2819 -91 2034 -91 
Q 1250 -91 836 529 
Q 422 1150 422 2328 
Q 422 3509 836 4129 
Q 1250 4750 2034 4750 
z
" transform="scale(0.015625)"/>
        <path id="DejaVuSans-2e" d="M 684 794 
L 1344 794 
L 1344 0 
L 684 0 
L 684 794 
z
" transform="scale(0.015625)"/>
       </defs>
       <use xlink:href="#DejaVuSans-30"/>
       <use xlink:href="#DejaVuSans-2e" x="63.623047"/>
       <use xlink:href="#DejaVuSans-30" x="95.410156"/>
       <use xlink:href="#DejaVuSans-30" x="159.033203"/>
       <use xlink:href="#DejaVuSans-30" x="222.65625"/>
      </g>
     </g>
    </g>
    <g id="ytick_2">
     <g id="line2d_10">
      <g>
       <use xlink:href="#m422acb9e5f" x="56.50625" y="257.448143" style="stroke: #000000; stroke-width: 0.8"/>
      </g>
     </g>
     <g id="text_3">
      <!-- 0.005 -->
      <g transform="translate(20.878125 261.247362)scale(0.1 -0.1)">
       <defs>
        <path id="DejaVuSans-35" d="M 691 4666 
L 3169 4666 
L 3169 4134 
L 1269 4134 
L 1269 2991 
Q 1406 3038 1543 3061 
Q 1681 3084 1819 3084 
Q 2600 3084 3056 2656 
Q 3513 2228 3513 1497 
Q 3513 744 3044 326 
Q 2575 -91 1722 -91 
Q 1428 -91 1123 -41 
Q 819 9 494 109 
L 494 744 
Q 775 591 1075 516 
Q 1375 441 1709 441 
Q 2250 441 2565 725 
Q 2881 1009 2881 1497 
Q 2881 1984 2565 2268 
Q 2250 2553 1709 2553 
Q 1456 2553 1204 2497 
Q 953 2441 691 2322 
L 691 4666 
z
" transform="scale(0.015625)"/>
       </defs>
       <use xlink:href="#DejaVuSans-30"/>
       <use xlink:href="#DejaVuSans-2e" x="63.623047"/>
       <use xlink:href="#DejaVuSans-30" x="95.410156"/>
       <use xlink:href="#DejaVuSans-30" x="159.033203"/>
       <use xlink:href="#DejaVuSans-35" x="222.65625"/>
      </g>
     </g>
    </g>
    <g id="ytick_3">
     <g id="line2d_11">
      <g>
       <use xlink:href="#m422acb9e5f" x="56.50625" y="226.466161" style="stroke: #000000; stroke-width: 0.8"/>
      </g>
     </g>
     <g id="text_4">
      <!-- 0.010 -->
      <g transform="translate(20.878125 230.26538)scale(0.1 -0.1)">
       <defs>
        <path id="DejaVuSans-31" d="M 794 531 
L 1825 531 
L 1825 4091 
L 703 3866 
L 703 4441 
L 1819 4666 
L 2450 4666 
L 2450 531 
L 3481 531 
L 3481 0 
L 794 0 
L 794 531 
z
" transform="scale(0.015625)"/>
       </defs>
       <use xlink:href="#DejaVuSans-30"/>
       <use xlink:href="#DejaVuSans-2e" x="63.623047"/>
       <use xlink:href="#DejaVuSans-30" x="95.410156"/>
       <use xlink:href="#DejaVuSans-31" x="159.033203"/>
       <use xlink:href="#DejaVuSans-30" x="222.65625"/>
      </g>
     </g>
    </g>
    <g id="ytick_4">
     <g id="line2d_12">
      <g>
       <use xlink:href="#m422acb9e5f" x="56.50625" y="195.484179" style="stroke: #000000; stroke-width: 0.8"/>
      </g>
     </g>
     <g id="text_5">
      <!-- 0.015 -->
      <g transform="translate(20.878125 199.283398)scale(0.1 -0.1)">
       <use xlink:href="#DejaVuSans-30"/>
       <use xlink:href="#DejaVuSans-2e" x="63.623047"/>
       <use xlink:href="#DejaVuSans-30" x="95.410156"/>
       <use xlink:href="#DejaVuSans-31" x="159.033203"/>
       <use xlink:href="#DejaVuSans-35" x="222.65625"/>
      </g>
     </g>
    </g>
    <g id="ytick_5">
     <g id="line2d_13">
      <g>
       <use xlink:href="#m422acb9e5f" x="56.50625" y="164.502198" style="stroke: #000000; stroke-width: 0.8"/>
      </g>
     </g>
     <g id="text_6">
      <!-- 0.020 -->
      <g transform="translate(20.878125 168.301416)scale(0.1 -0.1)">
       <defs>
        <path id="DejaVuSans-32" d="M 1228 531 
L 3431 531 
L 3431 0 
L 469 0 
L 469 531 
Q 828 903 1448 1529 
Q 2069 2156 2228 2338 
Q 2531 2678 2651 2914 
Q 2772 3150 2772 3378 
Q 2772 3750 2511 3984 
Q 2250 4219 1831 4219 
Q 1534 4219 1204 4116 
Q 875 4013 500 3803 
L 500 4441 
Q 881 4594 1212 4672 
Q 1544 4750 1819 4750 
Q 2544 4750 2975 4387 
Q 3406 4025 3406 3419 
Q 3406 3131 3298 2873 
Q 3191 2616 2906 2266 
Q 2828 2175 2409 1742 
Q 1991 1309 1228 531 
z
" transform="scale(0.015625)"/>
       </defs>
       <use xlink:href="#DejaVuSans-30"/>
       <use xlink:href="#DejaVuSans-2e" x="63.623047"/>
       <use xlink:href="#DejaVuSans-30" x="95.410156"/>
       <use xlink:href="#DejaVuSans-32" x="159.033203"/>
       <use xlink:href="#DejaVuSans-30" x="222.65625"/>
      </g>
     </g>
    </g>
    <g id="ytick_6">
     <g id="line2d_14">
      <g>
       <use xlink:href="#m422acb9e5f" x="56.50625" y="133.520216" style="stroke: #000000; stroke-width: 0.8"/>
      </g>
     </g>
     <g id="text_7">
      <!-- 0.025 -->
      <g transform="translate(20.878125 137.319435)scale(0.1 -0.1)">
       <use xlink:href="#DejaVuSans-30"/>
       <use xlink:href="#DejaVuSans-2e" x="63.623047"/>
       <use xlink:href="#DejaVuSans-30" x="95.410156"/>
       <use xlink:href="#DejaVuSans-32" x="159.033203"/>
       <use xlink:href="#DejaVuSans-35" x="222.65625"/>
      </g>
     </g>
    </g>
    <g id="ytick_7">
     <g id="line2d_15">
      <g>
       <use xlink:href="#m422acb9e5f" x="56.50625" y="102.538234" style="stroke: #000000; stroke-width: 0.8"/>
      </g>
     </g>
     <g id="text_8">
      <!-- 0.030 -->
      <g transform="translate(20.878125 106.337453)scale(0.1 -0.1)">
       <defs>
        <path id="DejaVuSans-33" d="M 2597 2516 
Q 3050 2419 3304 2112 
Q 3559 1806 3559 1356 
Q 3559 666 3084 287 
Q 2609 -91 1734 -91 
Q 1441 -91 1130 -33 
Q 819 25 488 141 
L 488 750 
Q 750 597 1062 519 
Q 1375 441 1716 441 
Q 2309 441 2620 675 
Q 2931 909 2931 1356 
Q 2931 1769 2642 2001 
Q 2353 2234 1838 2234 
L 1294 2234 
L 1294 2753 
L 1863 2753 
Q 2328 2753 2575 2939 
Q 2822 3125 2822 3475 
Q 2822 3834 2567 4026 
Q 2313 4219 1838 4219 
Q 1578 4219 1281 4162 
Q 984 4106 628 3988 
L 628 4550 
Q 988 4650 1302 4700 
Q 1616 4750 1894 4750 
Q 2613 4750 3031 4423 
Q 3450 4097 3450 3541 
Q 3450 3153 3228 2886 
Q 3006 2619 2597 2516 
z
" transform="scale(0.015625)"/>
       </defs>
       <use xlink:href="#DejaVuSans-30"/>
       <use xlink:href="#DejaVuSans-2e" x="63.623047"/>
       <use xlink:href="#DejaVuSans-30" x="95.410156"/>
       <use xlink:href="#DejaVuSans-33" x="159.033203"/>
       <use xlink:href="#DejaVuSans-30" x="222.65625"/>
      </g>
     </g>
    </g>
    <g id="ytick_8">
     <g id="line2d_16">
      <g>
       <use xlink:href="#m422acb9e5f" x="56.50625" y="71.556252" style="stroke: #000000; stroke-width: 0.8"/>
      </g>
     </g>
     <g id="text_9">
      <!-- 0.035 -->
      <g transform="translate(20.878125 75.355471)scale(0.1 -0.1)">
       <use xlink:href="#DejaVuSans-30"/>
       <use xlink:href="#DejaVuSans-2e" x="63.623047"/>
       <use xlink:href="#DejaVuSans-30" x="95.410156"/>
       <use xlink:href="#DejaVuSans-33" x="159.033203"/>
       <use xlink:href="#DejaVuSans-35" x="222.65625"/>
      </g>
     </g>
    </g>
    <g id="ytick_9">
     <g id="line2d_17">
      <g>
       <use xlink:href="#m422acb9e5f" x="56.50625" y="40.57427" style="stroke: #000000; stroke-width: 0.8"/>
      </g>
     </g>
     <g id="text_10">
      <!-- 0.040 -->
      <g transform="translate(20.878125 44.373489)scale(0.1 -0.1)">
       <defs>
        <path id="DejaVuSans-34" d="M 2419 4116 
L 825 1625 
L 2419 1625 
L 2419 4116 
z
M 2253 4666 
L 3047 4666 
L 3047 1625 
L 3713 1625 
L 3713 1100 
L 3047 1100 
L 3047 0 
L 2419 0 
L 2419 1100 
L 313 1100 
L 313 1709 
L 2253 4666 
z
" transform="scale(0.015625)"/>
       </defs>
       <use xlink:href="#DejaVuSans-30"/>
       <use xlink:href="#DejaVuSans-2e" x="63.623047"/>
       <use xlink:href="#DejaVuSans-30" x="95.410156"/>
       <use xlink:href="#DejaVuSans-34" x="159.033203"/>
       <use xlink:href="#DejaVuSans-30" x="222.65625"/>
      </g>
     </g>
    </g>
    <g id="text_11">
     <!-- Density -->
     <g transform="translate(14.798437 174.382719)rotate(-90)scale(0.1 -0.1)">
      <defs>
       <path id="DejaVuSans-44" d="M 1259 4147 
L 1259 519 
L 2022 519 
Q 2988 519 3436 956 
Q 3884 1394 3884 2338 
Q 3884 3275 3436 3711 
Q 2988 4147 2022 4147 
L 1259 4147 
z
M 628 4666 
L 1925 4666 
Q 3281 4666 3915 4102 
Q 4550 3538 4550 2338 
Q 4550 1131 3912 565 
Q 3275 0 1925 0 
L 628 0 
L 628 4666 
z
" transform="scale(0.015625)"/>
       <path id="DejaVuSans-73" d="M 2834 3397 
L 2834 2853 
Q 2591 2978 2328 3040 
Q 2066 3103 1784 3103 
Q 1356 3103 1142 2972 
Q 928 2841 928 2578 
Q 928 2378 1081 2264 
Q 1234 2150 1697 2047 
L 1894 2003 
Q 2506 1872 2764 1633 
Q 3022 1394 3022 966 
Q 3022 478 2636 193 
Q 2250 -91 1575 -91 
Q 1294 -91 989 -36 
Q 684 19 347 128 
L 347 722 
Q 666 556 975 473 
Q 1284 391 1588 391 
Q 1994 391 2212 530 
Q 2431 669 2431 922 
Q 2431 1156 2273 1281 
Q 2116 1406 1581 1522 
L 1381 1569 
Q 847 1681 609 1914 
Q 372 2147 372 2553 
Q 372 3047 722 3315 
Q 1072 3584 1716 3584 
Q 2034 3584 2315 3537 
Q 2597 3491 2834 3397 
z
" transform="scale(0.015625)"/>
       <path id="DejaVuSans-74" d="M 1172 4494 
L 1172 3500 
L 2356 3500 
L 2356 3053 
L 1172 3053 
L 1172 1153 
Q 1172 725 1289 603 
Q 1406 481 1766 481 
L 2356 481 
L 2356 0 
L 1766 0 
Q 1100 0 847 248 
Q 594 497 594 1153 
L 594 3053 
L 172 3053 
L 172 3500 
L 594 3500 
L 594 4494 
L 1172 4494 
z
" transform="scale(0.015625)"/>
       <path id="DejaVuSans-79" d="M 2059 -325 
Q 1816 -950 1584 -1140 
Q 1353 -1331 966 -1331 
L 506 -1331 
L 506 -850 
L 844 -850 
Q 1081 -850 1212 -737 
Q 1344 -625 1503 -206 
L 1606 56 
L 191 3500 
L 800 3500 
L 1894 763 
L 2988 3500 
L 3597 3500 
L 2059 -325 
z
" transform="scale(0.015625)"/>
      </defs>
      <use xlink:href="#DejaVuSans-44"/>
      <use xlink:href="#DejaVuSans-65" x="77.001953"/>
      <use xlink:href="#DejaVuSans-6e" x="138.525391"/>
      <use xlink:href="#DejaVuSans-73" x="201.904297"/>
      <use xlink:href="#DejaVuSans-69" x="254.003906"/>
      <use xlink:href="#DejaVuSans-74" x="281.787109"/>
      <use xlink:href="#DejaVuSans-79" x="320.996094"/>
     </g>
    </g>
   </g>
   <g id="line2d_18">
    <path d="M 101.545821 288.370167 
L 119.887727 288.172214 
L 132.58597 287.830314 
L 143.873297 287.296208 
L 153.749708 286.614874 
L 165.037035 285.60977 
L 198.899017 282.387945 
L 211.597259 281.550169 
L 231.350082 280.282304 
L 242.637409 279.301108 
L 262.390231 277.48943 
L 269.44481 277.120962 
L 275.088474 277.041374 
L 280.732137 277.188647 
L 286.375801 277.574542 
L 292.019465 278.188873 
L 299.074044 279.229636 
L 307.539539 280.751133 
L 327.292362 284.422354 
L 335.757857 285.684585 
L 342.812436 286.516968 
L 349.867016 287.151739 
L 358.332511 287.68457 
L 368.208922 288.061966 
L 380.907165 288.298478 
L 382.318081 288.313677 
L 382.318081 288.313677 
" clip-path="url(#pd0485be4df)" style="fill: none; stroke: #e377c2; stroke-width: 1.5; stroke-linecap: square"/>
   </g>
   <g id="line2d_19">
    <path d="M 269.250129 287.481822 
L 269.681267 286.859252 
L 270.112405 285.897874 
L 270.543543 284.457528 
L 271.082466 281.715976 
L 271.621388 277.551189 
L 272.160311 271.528433 
L 272.807018 261.293369 
L 273.453725 247.394242 
L 274.316 223.493605 
L 276.687259 153.348707 
L 277.226182 144.386684 
L 277.65732 140.45221 
L 277.980673 139.405164 
L 278.088458 139.403009 
L 278.304027 139.886904 
L 278.62738 141.725532 
L 279.058518 145.887874 
L 279.81301 156.093916 
L 281.537562 180.312913 
L 283.585467 206.790448 
L 284.555528 223.527803 
L 286.819002 264.081368 
L 287.573493 273.46237 
L 288.2202 279.206131 
L 288.866907 283.090749 
L 289.40583 285.203661 
L 289.944752 286.564249 
L 290.483675 287.397571 
L 290.699244 287.625187 
L 290.699244 287.625187 
" clip-path="url(#pd0485be4df)" style="fill: none; stroke: #1f77b4; stroke-width: 1.5; stroke-linecap: square"/>
   </g>
   <g id="line2d_20">
    <path d="M 272.717359 287.36372 
L 273.042458 286.213625 
L 273.367556 284.076009 
L 273.692655 280.342096 
L 274.082773 272.621528 
L 274.472891 259.859494 
L 274.928029 236.70439 
L 275.513206 192.785714 
L 277.268738 46.353956 
L 277.593837 36.684319 
L 277.788896 34.988349 
L 277.853915 35.081787 
L 277.983955 36.200999 
L 278.244034 41.797712 
L 278.634152 56.545408 
L 280.194625 123.040302 
L 281.560038 166.411014 
L 282.340275 203.830309 
L 283.445609 255.553347 
L 284.030787 272.685781 
L 284.485925 280.563388 
L 284.941063 284.906249 
L 285.331181 286.809788 
L 285.656279 287.634032 
L 285.656279 287.634032 
" clip-path="url(#pd0485be4df)" style="fill: none; stroke: #98df8a; stroke-width: 1.5; stroke-linecap: square"/>
   </g>
   <g id="line2d_21">
    <path d="M 72.738977 288.392838 
L 93.947566 288.223612 
L 106.999005 287.928985 
L 118.419014 287.448439 
L 128.207593 286.811478 
L 137.996172 285.941655 
L 149.416181 284.666078 
L 175.51906 281.597405 
L 183.676209 280.95142 
L 190.201928 280.630732 
L 196.727648 280.492854 
L 204.884797 280.549332 
L 216.304806 280.899305 
L 230.987675 281.337708 
L 239.144825 281.377988 
L 248.933404 281.175465 
L 278.299142 280.229415 
L 284.824861 280.332574 
L 291.350581 280.636497 
L 297.8763 281.137641 
L 306.03345 281.99677 
L 317.453459 283.459611 
L 333.767758 285.535205 
L 343.556337 286.533525 
L 353.344916 287.276617 
L 363.133495 287.778949 
L 374.553504 288.126017 
L 389.236373 288.331724 
L 397.393523 288.381238 
L 397.393523 288.381238 
" clip-path="url(#pd0485be4df)" style="fill: none; stroke: #ff7f0e; stroke-width: 1.5; stroke-linecap: square"/>
   </g>
   <g id="line2d_22">
    <path d="M 117.096673 288.344954 
L 129.19046 288.111427 
L 137.656111 287.717268 
L 143.703004 287.236693 
L 149.749898 286.528977 
L 154.587412 285.767697 
L 159.424927 284.817928 
L 165.47182 283.371186 
L 171.518714 281.686117 
L 187.240637 277.110604 
L 192.078151 276.004112 
L 195.706287 275.368723 
L 199.334423 274.931699 
L 202.96256 274.710133 
L 206.590696 274.708621 
L 210.218832 274.918506 
L 213.846968 275.318302 
L 218.684482 276.088893 
L 225.940754 277.544141 
L 234.406405 279.248092 
L 239.24392 280.039318 
L 244.081435 280.624443 
L 248.918949 280.987895 
L 253.756464 281.150326 
L 261.012736 281.133505 
L 273.106523 281.021246 
L 279.153416 281.197937 
L 285.20031 281.623653 
L 291.247203 282.292751 
L 298.503475 283.333028 
L 316.644156 286.082994 
L 323.900428 286.914892 
L 331.1567 287.521217 
L 339.62235 287.973917 
L 349.29738 288.246596 
L 357.763031 288.355826 
L 357.763031 288.355826 
" clip-path="url(#pd0485be4df)" style="fill: none; stroke: #ff9896; stroke-width: 1.5; stroke-linecap: square"/>
   </g>
   <g id="line2d_23">
    <path d="M 119.508336 288.315336 
L 130.76508 288.065944 
L 138.269576 287.710959 
L 144.523323 287.229517 
L 150.77707 286.522727 
L 155.780067 285.764661 
L 160.783064 284.821601 
L 167.036811 283.390325 
L 174.541307 281.380894 
L 188.29955 277.586463 
L 193.302547 276.472409 
L 197.054795 275.821531 
L 200.807043 275.362376 
L 204.559291 275.114263 
L 208.311539 275.084401 
L 212.063787 275.266914 
L 215.816035 275.643025 
L 220.819033 276.391862 
L 227.072779 277.587057 
L 238.329523 279.814906 
L 243.332521 280.602803 
L 248.335518 281.181239 
L 253.338515 281.535914 
L 258.341513 281.687226 
L 265.846009 281.645241 
L 279.604251 281.45082 
L 285.857998 281.601131 
L 292.111745 281.991194 
L 298.365492 282.612541 
L 305.869988 283.582954 
L 325.881977 286.310575 
L 333.386473 287.06564 
L 340.890969 287.612348 
L 349.646214 288.019037 
L 360.902959 288.283014 
L 368.407455 288.36233 
L 368.407455 288.36233 
" clip-path="url(#pd0485be4df)" style="fill: none; stroke: #d62728; stroke-width: 1.5; stroke-linecap: square"/>
   </g>
   <g id="line2d_24">
    <path d="M 115.174951 288.333569 
L 126.294267 288.115668 
L 134.942624 287.725493 
L 141.120021 287.248966 
L 147.297419 286.5463 
L 152.239337 285.789736 
L 157.181256 284.845287 
L 163.358653 283.406263 
L 169.536051 281.730806 
L 185.597285 277.20032 
L 190.539204 276.117061 
L 194.245642 275.50252 
L 197.952081 275.089071 
L 201.65852 274.893335 
L 205.364958 274.919181 
L 209.071397 275.157024 
L 212.777836 275.584339 
L 217.719754 276.389141 
L 225.132631 277.886259 
L 233.780988 279.620389 
L 238.722907 280.419773 
L 243.664825 281.007215 
L 248.606743 281.367739 
L 253.548661 281.522176 
L 260.961539 281.482966 
L 274.551814 281.307419 
L 280.729212 281.478102 
L 286.906609 281.895425 
L 293.084007 282.547819 
L 301.732364 283.736587 
L 317.793598 286.037804 
L 325.206476 286.865865 
L 332.619353 287.478708 
L 341.26771 287.94411 
L 351.151546 288.230261 
L 361.035383 288.357886 
L 361.035383 288.357886 
" clip-path="url(#pd0485be4df)" style="fill: none; stroke: #c7c7c7; stroke-width: 1.5; stroke-linecap: square"/>
   </g>
   <g id="line2d_25">
    <path d="M 89.13753 288.320999 
L 104.086528 288.084664 
L 114.550827 287.729936 
L 123.520226 287.228688 
L 132.489624 286.489646 
L 139.964124 285.66715 
L 148.933522 284.43471 
L 159.397821 282.734293 
L 177.336619 279.753667 
L 184.811118 278.768676 
L 190.790717 278.186408 
L 196.770317 277.819713 
L 202.749916 277.678421 
L 208.729515 277.751621 
L 216.204014 278.09771 
L 225.173413 278.766987 
L 250.58671 280.835257 
L 264.040809 281.617739 
L 284.969406 282.824684 
L 296.928605 283.748932 
L 337.2909 287.106527 
L 349.250098 287.701622 
L 361.209297 288.069644 
L 376.158295 288.301455 
L 386.622594 288.373518 
L 386.622594 288.373518 
" clip-path="url(#pd0485be4df)" style="fill: none; stroke: #dbdb8d; stroke-width: 1.5; stroke-linecap: square"/>
   </g>
   <g id="patch_3">
    <path d="M 56.50625 288.430125 
L 56.50625 22.318125 
" style="fill: none; stroke: #000000; stroke-width: 0.8; stroke-linejoin: miter; stroke-linecap: square"/>
   </g>
   <g id="patch_4">
    <path d="M 413.62625 288.430125 
L 413.62625 22.318125 
" style="fill: none; stroke: #000000; stroke-width: 0.8; stroke-linejoin: miter; stroke-linecap: square"/>
   </g>
   <g id="patch_5">
    <path d="M 56.50625 288.430125 
L 413.62625 288.430125 
" style="fill: none; stroke: #000000; stroke-width: 0.8; stroke-linejoin: miter; stroke-linecap: square"/>
   </g>
   <g id="patch_6">
    <path d="M 56.50625 22.318125 
L 413.62625 22.318125 
" style="fill: none; stroke: #000000; stroke-width: 0.8; stroke-linejoin: miter; stroke-linecap: square"/>
   </g>
   <g id="text_12">
    <!-- libjpeg-turbo-07-2017 (4h:15m, 3 trials/fuzzer) -->
    <g transform="translate(94.738438 16.318125)scale(0.12 -0.12)">
     <defs>
      <path id="DejaVuSans-6c" d="M 603 4863 
L 1178 4863 
L 1178 0 
L 603 0 
L 603 4863 
z
" transform="scale(0.015625)"/>
      <path id="DejaVuSans-62" d="M 3116 1747 
Q 3116 2381 2855 2742 
Q 2594 3103 2138 3103 
Q 1681 3103 1420 2742 
Q 1159 2381 1159 1747 
Q 1159 1113 1420 752 
Q 1681 391 2138 391 
Q 2594 391 2855 752 
Q 3116 1113 3116 1747 
z
M 1159 2969 
Q 1341 3281 1617 3432 
Q 1894 3584 2278 3584 
Q 2916 3584 3314 3078 
Q 3713 2572 3713 1747 
Q 3713 922 3314 415 
Q 2916 -91 2278 -91 
Q 1894 -91 1617 61 
Q 1341 213 1159 525 
L 1159 0 
L 581 0 
L 581 4863 
L 1159 4863 
L 1159 2969 
z
" transform="scale(0.015625)"/>
      <path id="DejaVuSans-6a" d="M 603 3500 
L 1178 3500 
L 1178 -63 
Q 1178 -731 923 -1031 
Q 669 -1331 103 -1331 
L -116 -1331 
L -116 -844 
L 38 -844 
Q 366 -844 484 -692 
Q 603 -541 603 -63 
L 603 3500 
z
M 603 4863 
L 1178 4863 
L 1178 4134 
L 603 4134 
L 603 4863 
z
" transform="scale(0.015625)"/>
      <path id="DejaVuSans-70" d="M 1159 525 
L 1159 -1331 
L 581 -1331 
L 581 3500 
L 1159 3500 
L 1159 2969 
Q 1341 3281 1617 3432 
Q 1894 3584 2278 3584 
Q 2916 3584 3314 3078 
Q 3713 2572 3713 1747 
Q 3713 922 3314 415 
Q 2916 -91 2278 -91 
Q 1894 -91 1617 61 
Q 1341 213 1159 525 
z
M 3116 1747 
Q 3116 2381 2855 2742 
Q 2594 3103 2138 3103 
Q 1681 3103 1420 2742 
Q 1159 2381 1159 1747 
Q 1159 1113 1420 752 
Q 1681 391 2138 391 
Q 2594 391 2855 752 
Q 3116 1113 3116 1747 
z
" transform="scale(0.015625)"/>
      <path id="DejaVuSans-2d" d="M 313 2009 
L 1997 2009 
L 1997 1497 
L 313 1497 
L 313 2009 
z
" transform="scale(0.015625)"/>
      <path id="DejaVuSans-75" d="M 544 1381 
L 544 3500 
L 1119 3500 
L 1119 1403 
Q 1119 906 1312 657 
Q 1506 409 1894 409 
Q 2359 409 2629 706 
Q 2900 1003 2900 1516 
L 2900 3500 
L 3475 3500 
L 3475 0 
L 2900 0 
L 2900 538 
Q 2691 219 2414 64 
Q 2138 -91 1772 -91 
Q 1169 -91 856 284 
Q 544 659 544 1381 
z
M 1991 3584 
L 1991 3584 
z
" transform="scale(0.015625)"/>
      <path id="DejaVuSans-37" d="M 525 4666 
L 3525 4666 
L 3525 4397 
L 1831 0 
L 1172 0 
L 2766 4134 
L 525 4134 
L 525 4666 
z
" transform="scale(0.015625)"/>
      <path id="DejaVuSans-28" d="M 1984 4856 
Q 1566 4138 1362 3434 
Q 1159 2731 1159 2009 
Q 1159 1288 1364 580 
Q 1569 -128 1984 -844 
L 1484 -844 
Q 1016 -109 783 600 
Q 550 1309 550 2009 
Q 550 2706 781 3412 
Q 1013 4119 1484 4856 
L 1984 4856 
z
" transform="scale(0.015625)"/>
      <path id="DejaVuSans-68" d="M 3513 2113 
L 3513 0 
L 2938 0 
L 2938 2094 
Q 2938 2591 2744 2837 
Q 2550 3084 2163 3084 
Q 1697 3084 1428 2787 
Q 1159 2491 1159 1978 
L 1159 0 
L 581 0 
L 581 4863 
L 1159 4863 
L 1159 2956 
Q 1366 3272 1645 3428 
Q 1925 3584 2291 3584 
Q 2894 3584 3203 3211 
Q 3513 2838 3513 2113 
z
" transform="scale(0.015625)"/>
      <path id="DejaVuSans-3a" d="M 750 794 
L 1409 794 
L 1409 0 
L 750 0 
L 750 794 
z
M 750 3309 
L 1409 3309 
L 1409 2516 
L 750 2516 
L 750 3309 
z
" transform="scale(0.015625)"/>
      <path id="DejaVuSans-6d" d="M 3328 2828 
Q 3544 3216 3844 3400 
Q 4144 3584 4550 3584 
Q 5097 3584 5394 3201 
Q 5691 2819 5691 2113 
L 5691 0 
L 5113 0 
L 5113 2094 
Q 5113 2597 4934 2840 
Q 4756 3084 4391 3084 
Q 3944 3084 3684 2787 
Q 3425 2491 3425 1978 
L 3425 0 
L 2847 0 
L 2847 2094 
Q 2847 2600 2669 2842 
Q 2491 3084 2119 3084 
Q 1678 3084 1418 2786 
Q 1159 2488 1159 1978 
L 1159 0 
L 581 0 
L 581 3500 
L 1159 3500 
L 1159 2956 
Q 1356 3278 1631 3431 
Q 1906 3584 2284 3584 
Q 2666 3584 2933 3390 
Q 3200 3197 3328 2828 
z
" transform="scale(0.015625)"/>
      <path id="DejaVuSans-2c" d="M 750 794 
L 1409 794 
L 1409 256 
L 897 -744 
L 494 -744 
L 750 256 
L 750 794 
z
" transform="scale(0.015625)"/>
      <path id="DejaVuSans-2f" d="M 1625 4666 
L 2156 4666 
L 531 -594 
L 0 -594 
L 1625 4666 
z
" transform="scale(0.015625)"/>
      <path id="DejaVuSans-66" d="M 2375 4863 
L 2375 4384 
L 1825 4384 
Q 1516 4384 1395 4259 
Q 1275 4134 1275 3809 
L 1275 3500 
L 2222 3500 
L 2222 3053 
L 1275 3053 
L 1275 0 
L 697 0 
L 697 3053 
L 147 3053 
L 147 3500 
L 697 3500 
L 697 3744 
Q 697 4328 969 4595 
Q 1241 4863 1831 4863 
L 2375 4863 
z
" transform="scale(0.015625)"/>
      <path id="DejaVuSans-7a" d="M 353 3500 
L 3084 3500 
L 3084 2975 
L 922 459 
L 3084 459 
L 3084 0 
L 275 0 
L 275 525 
L 2438 3041 
L 353 3041 
L 353 3500 
z
" transform="scale(0.015625)"/>
      <path id="DejaVuSans-29" d="M 513 4856 
L 1013 4856 
Q 1481 4119 1714 3412 
Q 1947 2706 1947 2009 
Q 1947 1309 1714 600 
Q 1481 -109 1013 -844 
L 513 -844 
Q 928 -128 1133 580 
Q 1338 1288 1338 2009 
Q 1338 2731 1133 3434 
Q 928 4138 513 4856 
z
" transform="scale(0.015625)"/>
     </defs>
     <use xlink:href="#DejaVuSans-6c"/>
     <use xlink:href="#DejaVuSans-69" x="27.783203"/>
     <use xlink:href="#DejaVuSans-62" x="55.566406"/>
     <use xlink:href="#DejaVuSans-6a" x="119.042969"/>
     <use xlink:href="#DejaVuSans-70" x="146.826172"/>
     <use xlink:href="#DejaVuSans-65" x="210.302734"/>
     <use xlink:href="#DejaVuSans-67" x="271.826172"/>
     <use xlink:href="#DejaVuSans-2d" x="335.302734"/>
     <use xlink:href="#DejaVuSans-74" x="371.386719"/>
     <use xlink:href="#DejaVuSans-75" x="410.595703"/>
     <use xlink:href="#DejaVuSans-72" x="473.974609"/>
     <use xlink:href="#DejaVuSans-62" x="515.087891"/>
     <use xlink:href="#DejaVuSans-6f" x="578.564453"/>
     <use xlink:href="#DejaVuSans-2d" x="641.621094"/>
     <use xlink:href="#DejaVuSans-30" x="677.705078"/>
     <use xlink:href="#DejaVuSans-37" x="741.328125"/>
     <use xlink:href="#DejaVuSans-2d" x="804.951172"/>
     <use xlink:href="#DejaVuSans-32" x="841.035156"/>
     <use xlink:href="#DejaVuSans-30" x="904.658203"/>
     <use xlink:href="#DejaVuSans-31" x="968.28125"/>
     <use xlink:href="#DejaVuSans-37" x="1031.904297"/>
     <use xlink:href="#DejaVuSans-20" x="1095.527344"/>
     <use xlink:href="#DejaVuSans-28" x="1127.314453"/>
     <use xlink:href="#DejaVuSans-34" x="1166.328125"/>
     <use xlink:href="#DejaVuSans-68" x="1229.951172"/>
     <use xlink:href="#DejaVuSans-3a" x="1293.330078"/>
     <use xlink:href="#DejaVuSans-31" x="1327.021484"/>
     <use xlink:href="#DejaVuSans-35" x="1390.644531"/>
     <use xlink:href="#DejaVuSans-6d" x="1454.267578"/>
     <use xlink:href="#DejaVuSans-2c" x="1551.679688"/>
     <use xlink:href="#DejaVuSans-20" x="1583.466797"/>
     <use xlink:href="#DejaVuSans-33" x="1615.253906"/>
     <use xlink:href="#DejaVuSans-20" x="1678.876953"/>
     <use xlink:href="#DejaVuSans-74" x="1710.664062"/>
     <use xlink:href="#DejaVuSans-72" x="1749.873047"/>
     <use xlink:href="#DejaVuSans-69" x="1790.986328"/>
     <use xlink:href="#DejaVuSans-61" x="1818.769531"/>
     <use xlink:href="#DejaVuSans-6c" x="1880.048828"/>
     <use xlink:href="#DejaVuSans-73" x="1907.832031"/>
     <use xlink:href="#DejaVuSans-2f" x="1959.931641"/>
     <use xlink:href="#DejaVuSans-66" x="1993.623047"/>
     <use xlink:href="#DejaVuSans-75" x="2028.828125"/>
     <use xlink:href="#DejaVuSans-7a" x="2092.207031"/>
     <use xlink:href="#DejaVuSans-7a" x="2144.697266"/>
     <use xlink:href="#DejaVuSans-65" x="2197.1875"/>
     <use xlink:href="#DejaVuSans-72" x="2258.710938"/>
     <use xlink:href="#DejaVuSans-29" x="2299.824219"/>
    </g>
   </g>
   <g id="legend_1">
    <g id="line2d_26">
     <path d="M 248.877812 35.416562 
L 258.877813 35.416562 
L 268.877813 35.416562 
" style="fill: none; stroke: #e377c2; stroke-width: 1.5; stroke-linecap: square"/>
    </g>
    <g id="text_13">
     <!-- aflplusplus_ast_o3_lto -->
     <g transform="translate(276.877813 38.916562)scale(0.1 -0.1)">
      <defs>
       <path id="DejaVuSans-5f" d="M 3263 -1063 
L 3263 -1509 
L -63 -1509 
L -63 -1063 
L 3263 -1063 
z
" transform="scale(0.015625)"/>
      </defs>
      <use xlink:href="#DejaVuSans-61"/>
      <use xlink:href="#DejaVuSans-66" x="61.279297"/>
      <use xlink:href="#DejaVuSans-6c" x="96.484375"/>
      <use xlink:href="#DejaVuSans-70" x="124.267578"/>
      <use xlink:href="#DejaVuSans-6c" x="187.744141"/>
      <use xlink:href="#DejaVuSans-75" x="215.527344"/>
      <use xlink:href="#DejaVuSans-73" x="278.90625"/>
      <use xlink:href="#DejaVuSans-70" x="331.005859"/>
      <use xlink:href="#DejaVuSans-6c" x="394.482422"/>
      <use xlink:href="#DejaVuSans-75" x="422.265625"/>
      <use xlink:href="#DejaVuSans-73" x="485.644531"/>
      <use xlink:href="#DejaVuSans-5f" x="537.744141"/>
      <use xlink:href="#DejaVuSans-61" x="587.744141"/>
      <use xlink:href="#DejaVuSans-73" x="649.023438"/>
      <use xlink:href="#DejaVuSans-74" x="701.123047"/>
      <use xlink:href="#DejaVuSans-5f" x="740.332031"/>
      <use xlink:href="#DejaVuSans-6f" x="790.332031"/>
      <use xlink:href="#DejaVuSans-33" x="851.513672"/>
      <use xlink:href="#DejaVuSans-5f" x="915.136719"/>
      <use xlink:href="#DejaVuSans-6c" x="965.136719"/>
      <use xlink:href="#DejaVuSans-74" x="992.919922"/>
      <use xlink:href="#DejaVuSans-6f" x="1032.128906"/>
     </g>
    </g>
    <g id="line2d_27">
     <path d="M 248.877812 50.372813 
L 258.877813 50.372813 
L 268.877813 50.372813 
" style="fill: none; stroke: #1f77b4; stroke-width: 1.5; stroke-linecap: square"/>
    </g>
    <g id="text_14">
     <!-- aflplusplus_ast_f0 -->
     <g transform="translate(276.877813 53.872813)scale(0.1 -0.1)">
      <use xlink:href="#DejaVuSans-61"/>
      <use xlink:href="#DejaVuSans-66" x="61.279297"/>
      <use xlink:href="#DejaVuSans-6c" x="96.484375"/>
      <use xlink:href="#DejaVuSans-70" x="124.267578"/>
      <use xlink:href="#DejaVuSans-6c" x="187.744141"/>
      <use xlink:href="#DejaVuSans-75" x="215.527344"/>
      <use xlink:href="#DejaVuSans-73" x="278.90625"/>
      <use xlink:href="#DejaVuSans-70" x="331.005859"/>
      <use xlink:href="#DejaVuSans-6c" x="394.482422"/>
      <use xlink:href="#DejaVuSans-75" x="422.265625"/>
      <use xlink:href="#DejaVuSans-73" x="485.644531"/>
      <use xlink:href="#DejaVuSans-5f" x="537.744141"/>
      <use xlink:href="#DejaVuSans-61" x="587.744141"/>
      <use xlink:href="#DejaVuSans-73" x="649.023438"/>
      <use xlink:href="#DejaVuSans-74" x="701.123047"/>
      <use xlink:href="#DejaVuSans-5f" x="740.332031"/>
      <use xlink:href="#DejaVuSans-66" x="790.332031"/>
      <use xlink:href="#DejaVuSans-30" x="825.537109"/>
     </g>
    </g>
    <g id="line2d_28">
     <path d="M 248.877812 65.329062 
L 258.877813 65.329062 
L 268.877813 65.329062 
" style="fill: none; stroke: #98df8a; stroke-width: 1.5; stroke-linecap: square"/>
    </g>
    <g id="text_15">
     <!-- aflplusplus_ast_f1 -->
     <g transform="translate(276.877813 68.829062)scale(0.1 -0.1)">
      <use xlink:href="#DejaVuSans-61"/>
      <use xlink:href="#DejaVuSans-66" x="61.279297"/>
      <use xlink:href="#DejaVuSans-6c" x="96.484375"/>
      <use xlink:href="#DejaVuSans-70" x="124.267578"/>
      <use xlink:href="#DejaVuSans-6c" x="187.744141"/>
      <use xlink:href="#DejaVuSans-75" x="215.527344"/>
      <use xlink:href="#DejaVuSans-73" x="278.90625"/>
      <use xlink:href="#DejaVuSans-70" x="331.005859"/>
      <use xlink:href="#DejaVuSans-6c" x="394.482422"/>
      <use xlink:href="#DejaVuSans-75" x="422.265625"/>
      <use xlink:href="#DejaVuSans-73" x="485.644531"/>
      <use xlink:href="#DejaVuSans-5f" x="537.744141"/>
      <use xlink:href="#DejaVuSans-61" x="587.744141"/>
      <use xlink:href="#DejaVuSans-73" x="649.023438"/>
      <use xlink:href="#DejaVuSans-74" x="701.123047"/>
      <use xlink:href="#DejaVuSans-5f" x="740.332031"/>
      <use xlink:href="#DejaVuSans-66" x="790.332031"/>
      <use xlink:href="#DejaVuSans-31" x="825.537109"/>
     </g>
    </g>
    <g id="line2d_29">
     <path d="M 248.877812 80.285313 
L 258.877813 80.285313 
L 268.877813 80.285313 
" style="fill: none; stroke: #ff7f0e; stroke-width: 1.5; stroke-linecap: square"/>
    </g>
    <g id="text_16">
     <!-- aflplusplus_ast_o2 -->
     <g transform="translate(276.877813 83.785313)scale(0.1 -0.1)">
      <use xlink:href="#DejaVuSans-61"/>
      <use xlink:href="#DejaVuSans-66" x="61.279297"/>
      <use xlink:href="#DejaVuSans-6c" x="96.484375"/>
      <use xlink:href="#DejaVuSans-70" x="124.267578"/>
      <use xlink:href="#DejaVuSans-6c" x="187.744141"/>
      <use xlink:href="#DejaVuSans-75" x="215.527344"/>
      <use xlink:href="#DejaVuSans-73" x="278.90625"/>
      <use xlink:href="#DejaVuSans-70" x="331.005859"/>
      <use xlink:href="#DejaVuSans-6c" x="394.482422"/>
      <use xlink:href="#DejaVuSans-75" x="422.265625"/>
      <use xlink:href="#DejaVuSans-73" x="485.644531"/>
      <use xlink:href="#DejaVuSans-5f" x="537.744141"/>
      <use xlink:href="#DejaVuSans-61" x="587.744141"/>
      <use xlink:href="#DejaVuSans-73" x="649.023438"/>
      <use xlink:href="#DejaVuSans-74" x="701.123047"/>
      <use xlink:href="#DejaVuSans-5f" x="740.332031"/>
      <use xlink:href="#DejaVuSans-6f" x="790.332031"/>
      <use xlink:href="#DejaVuSans-32" x="851.513672"/>
     </g>
    </g>
    <g id="line2d_30">
     <path d="M 248.877812 95.241562 
L 258.877813 95.241562 
L 268.877813 95.241562 
" style="fill: none; stroke: #ff9896; stroke-width: 1.5; stroke-linecap: square"/>
    </g>
    <g id="text_17">
     <!-- aflplusplus_ast_o3 -->
     <g transform="translate(276.877813 98.741562)scale(0.1 -0.1)">
      <use xlink:href="#DejaVuSans-61"/>
      <use xlink:href="#DejaVuSans-66" x="61.279297"/>
      <use xlink:href="#DejaVuSans-6c" x="96.484375"/>
      <use xlink:href="#DejaVuSans-70" x="124.267578"/>
      <use xlink:href="#DejaVuSans-6c" x="187.744141"/>
      <use xlink:href="#DejaVuSans-75" x="215.527344"/>
      <use xlink:href="#DejaVuSans-73" x="278.90625"/>
      <use xlink:href="#DejaVuSans-70" x="331.005859"/>
      <use xlink:href="#DejaVuSans-6c" x="394.482422"/>
      <use xlink:href="#DejaVuSans-75" x="422.265625"/>
      <use xlink:href="#DejaVuSans-73" x="485.644531"/>
      <use xlink:href="#DejaVuSans-5f" x="537.744141"/>
      <use xlink:href="#DejaVuSans-61" x="587.744141"/>
      <use xlink:href="#DejaVuSans-73" x="649.023438"/>
      <use xlink:href="#DejaVuSans-74" x="701.123047"/>
      <use xlink:href="#DejaVuSans-5f" x="740.332031"/>
      <use xlink:href="#DejaVuSans-6f" x="790.332031"/>
      <use xlink:href="#DejaVuSans-33" x="851.513672"/>
     </g>
    </g>
    <g id="line2d_31">
     <path d="M 248.877812 110.197812 
L 258.877813 110.197812 
L 268.877813 110.197812 
" style="fill: none; stroke: #d62728; stroke-width: 1.5; stroke-linecap: square"/>
    </g>
    <g id="text_18">
     <!-- aflplusplus_ast_o0 -->
     <g transform="translate(276.877813 113.697812)scale(0.1 -0.1)">
      <use xlink:href="#DejaVuSans-61"/>
      <use xlink:href="#DejaVuSans-66" x="61.279297"/>
      <use xlink:href="#DejaVuSans-6c" x="96.484375"/>
      <use xlink:href="#DejaVuSans-70" x="124.267578"/>
      <use xlink:href="#DejaVuSans-6c" x="187.744141"/>
      <use xlink:href="#DejaVuSans-75" x="215.527344"/>
      <use xlink:href="#DejaVuSans-73" x="278.90625"/>
      <use xlink:href="#DejaVuSans-70" x="331.005859"/>
      <use xlink:href="#DejaVuSans-6c" x="394.482422"/>
      <use xlink:href="#DejaVuSans-75" x="422.265625"/>
      <use xlink:href="#DejaVuSans-73" x="485.644531"/>
      <use xlink:href="#DejaVuSans-5f" x="537.744141"/>
      <use xlink:href="#DejaVuSans-61" x="587.744141"/>
      <use xlink:href="#DejaVuSans-73" x="649.023438"/>
      <use xlink:href="#DejaVuSans-74" x="701.123047"/>
      <use xlink:href="#DejaVuSans-5f" x="740.332031"/>
      <use xlink:href="#DejaVuSans-6f" x="790.332031"/>
      <use xlink:href="#DejaVuSans-30" x="851.513672"/>
     </g>
    </g>
    <g id="line2d_32">
     <path d="M 248.877812 125.154063 
L 258.877813 125.154063 
L 268.877813 125.154063 
" style="fill: none; stroke: #c7c7c7; stroke-width: 1.5; stroke-linecap: square"/>
    </g>
    <g id="text_19">
     <!-- aflplusplus_ast_o1 -->
     <g transform="translate(276.877813 128.654063)scale(0.1 -0.1)">
      <use xlink:href="#DejaVuSans-61"/>
      <use xlink:href="#DejaVuSans-66" x="61.279297"/>
      <use xlink:href="#DejaVuSans-6c" x="96.484375"/>
      <use xlink:href="#DejaVuSans-70" x="124.267578"/>
      <use xlink:href="#DejaVuSans-6c" x="187.744141"/>
      <use xlink:href="#DejaVuSans-75" x="215.527344"/>
      <use xlink:href="#DejaVuSans-73" x="278.90625"/>
      <use xlink:href="#DejaVuSans-70" x="331.005859"/>
      <use xlink:href="#DejaVuSans-6c" x="394.482422"/>
      <use xlink:href="#DejaVuSans-75" x="422.265625"/>
      <use xlink:href="#DejaVuSans-73" x="485.644531"/>
      <use xlink:href="#DejaVuSans-5f" x="537.744141"/>
      <use xlink:href="#DejaVuSans-61" x="587.744141"/>
      <use xlink:href="#DejaVuSans-73" x="649.023438"/>
      <use xlink:href="#DejaVuSans-74" x="701.123047"/>
      <use xlink:href="#DejaVuSans-5f" x="740.332031"/>
      <use xlink:href="#DejaVuSans-6f" x="790.332031"/>
      <use xlink:href="#DejaVuSans-31" x="851.513672"/>
     </g>
    </g>
    <g id="line2d_33">
     <path d="M 248.877812 140.110312 
L 258.877813 140.110312 
L 268.877813 140.110312 
" style="fill: none; stroke: #dbdb8d; stroke-width: 1.5; stroke-linecap: square"/>
    </g>
    <g id="text_20">
     <!-- aflplusplus_ast_o3_native -->
     <g transform="translate(276.877813 143.610312)scale(0.1 -0.1)">
      <use xlink:href="#DejaVuSans-61"/>
      <use xlink:href="#DejaVuSans-66" x="61.279297"/>
      <use xlink:href="#DejaVuSans-6c" x="96.484375"/>
      <use xlink:href="#DejaVuSans-70" x="124.267578"/>
      <use xlink:href="#DejaVuSans-6c" x="187.744141"/>
      <use xlink:href="#DejaVuSans-75" x="215.527344"/>
      <use xlink:href="#DejaVuSans-73" x="278.90625"/>
      <use xlink:href="#DejaVuSans-70" x="331.005859"/>
      <use xlink:href="#DejaVuSans-6c" x="394.482422"/>
      <use xlink:href="#DejaVuSans-75" x="422.265625"/>
      <use xlink:href="#DejaVuSans-73" x="485.644531"/>
      <use xlink:href="#DejaVuSans-5f" x="537.744141"/>
      <use xlink:href="#DejaVuSans-61" x="587.744141"/>
      <use xlink:href="#DejaVuSans-73" x="649.023438"/>
      <use xlink:href="#DejaVuSans-74" x="701.123047"/>
      <use xlink:href="#DejaVuSans-5f" x="740.332031"/>
      <use xlink:href="#DejaVuSans-6f" x="790.332031"/>
      <use xlink:href="#DejaVuSans-33" x="851.513672"/>
      <use xlink:href="#DejaVuSans-5f" x="915.136719"/>
      <use xlink:href="#DejaVuSans-6e" x="965.136719"/>
      <use xlink:href="#DejaVuSans-61" x="1028.515625"/>
      <use xlink:href="#DejaVuSans-74" x="1089.794922"/>
      <use xlink:href="#DejaVuSans-69" x="1129.003906"/>
      <use xlink:href="#DejaVuSans-76" x="1156.787109"/>
      <use xlink:href="#DejaVuSans-65" x="1215.966797"/>
     </g>
    </g>
   </g>
  </g>
 </g>
 <defs>
  <clipPath id="pd0485be4df">
   <rect x="56.50625" y="22.318125" width="357.12" height="266.112"/>
  </clipPath>
 </defs>
</svg>
