<?xml version="1.0" encoding="utf-8" standalone="no"?>
<!DOCTYPE svg PUBLIC "-//W3C//DTD SVG 1.1//EN"
  "http://www.w3.org/Graphics/SVG/1.1/DTD/svg11.dtd">
<svg xmlns:xlink="http://www.w3.org/1999/xlink" width="448.860412pt" height="388.804834pt" viewBox="0 0 448.860412 388.804834" xmlns="http://www.w3.org/2000/svg" version="1.1">
 <metadata>
  <rdf:RDF xmlns:dc="http://purl.org/dc/elements/1.1/" xmlns:cc="http://creativecommons.org/ns#" xmlns:rdf="http://www.w3.org/1999/02/22-rdf-syntax-ns#">
   <cc:Work>
    <dc:type rdf:resource="http://purl.org/dc/dcmitype/StillImage"/>
    <dc:date>2022-06-05T19:46:34.566840</dc:date>
    <dc:format>image/svg+xml</dc:format>
    <dc:creator>
     <cc:Agent>
      <dc:title>Matplotlib v3.5.1, https://matplotlib.org/</dc:title>
     </cc:Agent>
    </dc:creator>
   </cc:Work>
  </rdf:RDF>
 </metadata>
 <defs>
  <style type="text/css">*{stroke-linejoin: round; stroke-linecap: butt}</style>
 </defs>
 <g id="figure_1">
  <g id="patch_1">
   <path d="M 0 388.804834 
L 448.860412 388.804834 
L 448.860412 0 
L 0 0 
z
" style="fill: #ffffff"/>
  </g>
  <g id="axes_1">
   <g id="patch_2">
    <path d="M 84.540412 288.430125 
L 441.660412 288.430125 
L 441.660412 22.318125 
L 84.540412 22.318125 
z
" style="fill: #ffffff"/>
   </g>
   <g id="PolyCollection_1">
    <defs>
     <path id="m5f63f38c1c" d="M 106.911994 -139.04115 
L 106.80883 -139.04115 
L 106.802077 -141.080061 
L 106.794692 -143.118971 
L 106.786654 -145.157881 
L 106.777948 -147.196792 
L 106.768565 -149.235702 
L 106.7585 -151.274612 
L 106.747759 -153.313522 
L 106.736354 -155.352433 
L 106.724304 -157.391343 
L 106.711639 -159.430253 
L 106.698397 -161.469164 
L 106.684624 -163.508074 
L 106.670375 -165.546984 
L 106.655714 -167.585894 
L 106.640709 -169.624805 
L 106.625438 -171.663715 
L 106.609982 -173.702625 
L 106.594425 -175.741536 
L 106.578856 -177.780446 
L 106.563362 -179.819356 
L 106.548028 -181.858266 
L 106.532936 -183.897177 
L 106.518163 -185.936087 
L 106.503779 -187.974997 
L 106.489843 -190.013907 
L 106.476403 -192.052818 
L 106.463494 -194.091728 
L 106.451138 -196.130638 
L 106.439342 -198.169549 
L 106.428096 -200.208459 
L 106.417374 -202.247369 
L 106.407137 -204.286279 
L 106.397329 -206.32519 
L 106.387881 -208.3641 
L 106.378712 -210.40301 
L 106.369731 -212.441921 
L 106.36084 -214.480831 
L 106.351937 -216.519741 
L 106.342916 -218.558651 
L 106.333676 -220.597562 
L 106.32412 -222.636472 
L 106.314161 -224.675382 
L 106.303722 -226.714293 
L 106.292743 -228.753203 
L 106.281183 -230.792113 
L 106.26902 -232.831023 
L 106.256256 -234.869934 
L 106.242919 -236.908844 
L 106.22906 -238.947754 
L 106.214758 -240.986664 
L 106.200116 -243.025575 
L 106.185262 -245.064485 
L 106.170347 -247.103395 
L 106.155542 -249.142306 
L 106.141034 -251.181216 
L 106.127026 -253.220126 
L 106.11373 -255.259036 
L 106.101362 -257.297947 
L 106.09014 -259.336857 
L 106.080279 -261.375767 
L 106.071983 -263.414678 
L 106.065447 -265.453588 
L 106.060844 -267.492498 
L 106.058329 -269.531408 
L 106.05803 -271.570319 
L 106.060049 -273.609229 
L 106.064458 -275.648139 
L 106.071296 -277.68705 
L 106.080569 -279.72596 
L 106.092253 -281.76487 
L 106.106288 -283.80378 
L 106.122588 -285.842691 
L 106.141032 -287.881601 
L 106.161477 -289.920511 
L 106.183754 -291.959421 
L 106.207675 -293.998332 
L 106.233034 -296.037242 
L 106.259613 -298.076152 
L 106.287185 -300.115063 
L 106.315519 -302.153973 
L 106.344384 -304.192883 
L 106.37355 -306.231793 
L 106.402795 -308.270704 
L 106.431907 -310.309614 
L 106.460688 -312.348524 
L 106.488951 -314.387435 
L 106.51653 -316.426345 
L 106.543277 -318.465255 
L 106.569061 -320.504165 
L 106.593773 -322.543076 
L 106.617326 -324.581986 
L 106.639649 -326.620896 
L 106.660692 -328.659806 
L 106.680425 -330.698717 
L 106.698833 -332.737627 
L 106.715917 -334.776537 
L 106.731693 -336.815448 
L 106.746189 -338.854358 
L 106.759443 -340.893268 
L 106.96138 -340.893268 
L 106.96138 -340.893268 
L 106.974635 -338.854358 
L 106.989131 -336.815448 
L 107.004907 -334.776537 
L 107.021991 -332.737627 
L 107.040399 -330.698717 
L 107.060131 -328.659806 
L 107.081175 -326.620896 
L 107.103498 -324.581986 
L 107.12705 -322.543076 
L 107.151763 -320.504165 
L 107.177547 -318.465255 
L 107.204293 -316.426345 
L 107.231873 -314.387435 
L 107.260136 -312.348524 
L 107.288916 -310.309614 
L 107.318028 -308.270704 
L 107.347274 -306.231793 
L 107.37644 -304.192883 
L 107.405304 -302.153973 
L 107.433639 -300.115063 
L 107.461211 -298.076152 
L 107.48779 -296.037242 
L 107.513148 -293.998332 
L 107.537069 -291.959421 
L 107.559346 -289.920511 
L 107.579791 -287.881601 
L 107.598236 -285.842691 
L 107.614535 -283.80378 
L 107.628571 -281.76487 
L 107.640255 -279.72596 
L 107.649528 -277.68705 
L 107.656365 -275.648139 
L 107.660774 -273.609229 
L 107.662793 -271.570319 
L 107.662495 -269.531408 
L 107.65998 -267.492498 
L 107.655377 -265.453588 
L 107.64884 -263.414678 
L 107.640545 -261.375767 
L 107.630684 -259.336857 
L 107.619462 -257.297947 
L 107.607094 -255.259036 
L 107.593797 -253.220126 
L 107.579789 -251.181216 
L 107.565282 -249.142306 
L 107.550476 -247.103395 
L 107.535561 -245.064485 
L 107.520707 -243.025575 
L 107.506065 -240.986664 
L 107.491763 -238.947754 
L 107.477904 -236.908844 
L 107.464567 -234.869934 
L 107.451804 -232.831023 
L 107.439641 -230.792113 
L 107.42808 -228.753203 
L 107.417102 -226.714293 
L 107.406663 -224.675382 
L 107.396703 -222.636472 
L 107.387148 -220.597562 
L 107.377908 -218.558651 
L 107.368887 -216.519741 
L 107.359983 -214.480831 
L 107.351092 -212.441921 
L 107.342111 -210.40301 
L 107.332942 -208.3641 
L 107.323494 -206.32519 
L 107.313686 -204.286279 
L 107.303449 -202.247369 
L 107.292728 -200.208459 
L 107.281482 -198.169549 
L 107.269685 -196.130638 
L 107.25733 -194.091728 
L 107.244421 -192.052818 
L 107.230981 -190.013907 
L 107.217044 -187.974997 
L 107.20266 -185.936087 
L 107.187888 -183.897177 
L 107.172796 -181.858266 
L 107.157462 -179.819356 
L 107.141967 -177.780446 
L 107.126398 -175.741536 
L 107.110842 -173.702625 
L 107.095386 -171.663715 
L 107.080114 -169.624805 
L 107.06511 -167.585894 
L 107.050448 -165.546984 
L 107.036199 -163.508074 
L 107.022426 -161.469164 
L 107.009184 -159.430253 
L 106.99652 -157.391343 
L 106.98447 -155.352433 
L 106.973064 -153.313522 
L 106.962323 -151.274612 
L 106.952259 -149.235702 
L 106.942875 -147.196792 
L 106.934169 -145.157881 
L 106.926132 -143.118971 
L 106.918747 -141.080061 
L 106.911994 -139.04115 
z
" style="stroke: #3f3f3f; stroke-width: 1.5"/>
    </defs>
    <g clip-path="url(#p8b88e9c786)">
     <use xlink:href="#m5f63f38c1c" x="0" y="388.804834" style="fill: #d684bd; stroke: #3f3f3f; stroke-width: 1.5"/>
    </g>
   </g>
   <g id="PolyCollection_2">
    <defs>
     <path id="mb7b8ea52b4" d="M 152.400451 -268.414561 
L 150.600372 -268.414561 
L 150.470567 -268.571557 
L 150.326656 -268.728553 
L 150.167868 -268.885548 
L 149.993508 -269.042544 
L 149.80298 -269.19954 
L 149.595809 -269.356536 
L 149.371665 -269.513531 
L 149.130379 -269.670527 
L 148.87197 -269.827523 
L 148.596664 -269.984519 
L 148.304907 -270.141514 
L 147.997383 -270.29851 
L 147.675024 -270.455506 
L 147.339017 -270.612501 
L 146.990806 -270.769497 
L 146.632088 -270.926493 
L 146.264804 -271.083489 
L 145.891126 -271.240484 
L 145.513436 -271.39748 
L 145.1343 -271.554476 
L 144.756434 -271.711471 
L 144.38267 -271.868467 
L 144.015909 -272.025463 
L 143.659083 -272.182459 
L 143.315099 -272.339454 
L 142.986795 -272.49645 
L 142.676882 -272.653446 
L 142.3879 -272.810442 
L 142.122166 -272.967437 
L 141.881728 -273.124433 
L 141.668327 -273.281429 
L 141.483361 -273.438424 
L 141.327853 -273.59542 
L 141.202437 -273.752416 
L 141.107341 -273.909412 
L 141.042386 -274.066407 
L 141.006992 -274.223403 
L 141.000193 -274.380399 
L 141.020662 -274.537394 
L 141.066744 -274.69439 
L 141.136496 -274.851386 
L 141.227735 -275.008382 
L 141.338088 -275.165377 
L 141.465054 -275.322373 
L 141.606055 -275.479369 
L 141.758504 -275.636365 
L 141.919855 -275.79336 
L 142.087668 -275.950356 
L 142.259654 -276.107352 
L 142.433725 -276.264347 
L 142.608034 -276.421343 
L 142.781008 -276.578339 
L 142.951366 -276.735335 
L 143.118144 -276.89233 
L 143.280691 -277.049326 
L 143.438671 -277.206322 
L 143.592046 -277.363317 
L 143.741062 -277.520313 
L 143.886214 -277.677309 
L 144.028216 -277.834305 
L 144.16796 -277.9913 
L 144.306475 -278.148296 
L 144.444879 -278.305292 
L 144.584335 -278.462288 
L 144.726004 -278.619283 
L 144.871005 -278.776279 
L 145.02037 -278.933275 
L 145.175015 -279.09027 
L 145.335702 -279.247266 
L 145.503019 -279.404262 
L 145.677362 -279.561258 
L 145.858923 -279.718253 
L 146.047685 -279.875249 
L 146.243423 -280.032245 
L 146.445714 -280.18924 
L 146.653949 -280.346236 
L 146.867351 -280.503232 
L 147.085001 -280.660228 
L 147.305857 -280.817223 
L 147.528786 -280.974219 
L 147.752592 -281.131215 
L 147.976044 -281.288211 
L 148.197905 -281.445206 
L 148.41696 -281.602202 
L 148.632036 -281.759198 
L 148.842032 -281.916193 
L 149.045931 -282.073189 
L 149.242819 -282.230185 
L 149.431897 -282.387181 
L 149.612489 -282.544176 
L 149.784047 -282.701172 
L 149.946153 -282.858168 
L 150.098517 -283.015163 
L 150.240974 -283.172159 
L 150.373476 -283.329155 
L 150.496082 -283.486151 
L 150.608953 -283.643146 
L 150.712334 -283.800142 
L 150.806547 -283.957138 
L 152.194276 -283.957138 
L 152.194276 -283.957138 
L 152.28849 -283.800142 
L 152.391871 -283.643146 
L 152.504741 -283.486151 
L 152.627348 -283.329155 
L 152.759849 -283.172159 
L 152.902306 -283.015163 
L 153.054671 -282.858168 
L 153.216777 -282.701172 
L 153.388335 -282.544176 
L 153.568927 -282.387181 
L 153.758004 -282.230185 
L 153.954892 -282.073189 
L 154.158791 -281.916193 
L 154.368787 -281.759198 
L 154.583864 -281.602202 
L 154.802918 -281.445206 
L 155.02478 -281.288211 
L 155.248232 -281.131215 
L 155.472038 -280.974219 
L 155.694967 -280.817223 
L 155.915823 -280.660228 
L 156.133472 -280.503232 
L 156.346875 -280.346236 
L 156.55511 -280.18924 
L 156.757401 -280.032245 
L 156.953139 -279.875249 
L 157.1419 -279.718253 
L 157.323462 -279.561258 
L 157.497805 -279.404262 
L 157.665122 -279.247266 
L 157.825809 -279.09027 
L 157.980453 -278.933275 
L 158.129819 -278.776279 
L 158.27482 -278.619283 
L 158.416489 -278.462288 
L 158.555944 -278.305292 
L 158.694348 -278.148296 
L 158.832863 -277.9913 
L 158.972608 -277.834305 
L 159.11461 -277.677309 
L 159.259762 -277.520313 
L 159.408777 -277.363317 
L 159.562153 -277.206322 
L 159.720132 -277.049326 
L 159.882679 -276.89233 
L 160.049457 -276.735335 
L 160.219816 -276.578339 
L 160.392789 -276.421343 
L 160.567098 -276.264347 
L 160.74117 -276.107352 
L 160.913156 -275.950356 
L 161.080968 -275.79336 
L 161.24232 -275.636365 
L 161.394768 -275.479369 
L 161.53577 -275.322373 
L 161.662735 -275.165377 
L 161.773089 -275.008382 
L 161.864327 -274.851386 
L 161.934079 -274.69439 
L 161.980161 -274.537394 
L 162.00063 -274.380399 
L 161.993831 -274.223403 
L 161.958437 -274.066407 
L 161.893483 -273.909412 
L 161.798387 -273.752416 
L 161.672971 -273.59542 
L 161.517463 -273.438424 
L 161.332496 -273.281429 
L 161.119095 -273.124433 
L 160.878658 -272.967437 
L 160.612923 -272.810442 
L 160.323941 -272.653446 
L 160.014029 -272.49645 
L 159.685724 -272.339454 
L 159.341741 -272.182459 
L 158.984915 -272.025463 
L 158.618154 -271.868467 
L 158.244389 -271.711471 
L 157.866523 -271.554476 
L 157.487387 -271.39748 
L 157.109698 -271.240484 
L 156.73602 -271.083489 
L 156.368736 -270.926493 
L 156.010017 -270.769497 
L 155.661806 -270.612501 
L 155.325799 -270.455506 
L 155.003441 -270.29851 
L 154.695917 -270.141514 
L 154.40416 -269.984519 
L 154.128853 -269.827523 
L 153.870445 -269.670527 
L 153.629159 -269.513531 
L 153.405014 -269.356536 
L 153.197844 -269.19954 
L 153.007316 -269.042544 
L 152.832956 -268.885548 
L 152.674167 -268.728553 
L 152.530257 -268.571557 
L 152.400451 -268.414561 
z
" style="stroke: #3f3f3f; stroke-width: 1.5"/>
    </defs>
    <g clip-path="url(#p8b88e9c786)">
     <use xlink:href="#mb7b8ea52b4" x="0" y="388.804834" style="fill: #3274a1; stroke: #3f3f3f; stroke-width: 1.5"/>
    </g>
   </g>
   <g id="PolyCollection_3">
    <defs>
     <path id="m9dbf361757" d="M 197.193783 -270.543778 
L 195.087041 -270.543778 
L 194.895714 -270.642606 
L 194.677746 -270.741434 
L 194.431039 -270.840262 
L 194.153619 -270.93909 
L 193.843703 -271.037918 
L 193.499758 -271.136746 
L 193.120568 -271.235574 
L 192.7053 -271.334401 
L 192.253566 -271.433229 
L 191.765481 -271.532057 
L 191.241712 -271.630885 
L 190.683523 -271.729713 
L 190.092802 -271.828541 
L 189.472079 -271.927369 
L 188.824526 -272.026197 
L 188.153944 -272.125025 
L 187.464734 -272.223853 
L 186.761843 -272.32268 
L 186.050707 -272.421508 
L 185.33717 -272.520336 
L 184.627388 -272.619164 
L 183.92773 -272.717992 
L 183.244666 -272.81682 
L 182.584642 -272.915648 
L 181.953965 -273.014476 
L 181.358678 -273.113304 
L 180.804444 -273.212132 
L 180.29643 -273.310959 
L 179.839208 -273.409787 
L 179.43666 -273.508615 
L 179.091906 -273.607443 
L 178.807236 -273.706271 
L 178.584074 -273.805099 
L 178.422946 -273.903927 
L 178.323478 -274.002755 
L 178.284412 -274.101583 
L 178.303635 -274.200411 
L 178.378236 -274.299238 
L 178.504575 -274.398066 
L 178.678366 -274.496894 
L 178.894785 -274.595722 
L 179.148576 -274.69455 
L 179.434177 -274.793378 
L 179.745845 -274.892206 
L 180.077791 -274.991034 
L 180.424305 -275.089862 
L 180.779889 -275.18869 
L 181.139368 -275.287518 
L 181.498006 -275.386345 
L 181.851592 -275.485173 
L 182.196527 -275.584001 
L 182.529875 -275.682829 
L 182.849409 -275.781657 
L 183.153628 -275.880485 
L 183.441754 -275.979313 
L 183.713713 -276.078141 
L 183.970092 -276.176969 
L 184.212083 -276.275797 
L 184.441406 -276.374624 
L 184.660226 -276.473452 
L 184.87106 -276.57228 
L 185.076673 -276.671108 
L 185.279974 -276.769936 
L 185.483915 -276.868764 
L 185.691387 -276.967592 
L 185.905132 -277.06642 
L 186.127648 -277.165248 
L 186.361124 -277.264076 
L 186.60737 -277.362903 
L 186.867773 -277.461731 
L 187.14326 -277.560559 
L 187.434278 -277.659387 
L 187.740793 -277.758215 
L 188.062296 -277.857043 
L 188.397826 -277.955871 
L 188.746008 -278.054699 
L 189.105097 -278.153527 
L 189.473032 -278.252355 
L 189.847501 -278.351182 
L 190.226002 -278.45001 
L 190.605917 -278.548838 
L 190.984576 -278.647666 
L 191.35933 -278.746494 
L 191.727608 -278.845322 
L 192.086981 -278.94415 
L 192.435207 -279.042978 
L 192.770278 -279.141806 
L 193.09045 -279.240634 
L 193.394271 -279.339461 
L 193.68059 -279.438289 
L 193.948566 -279.537117 
L 194.197662 -279.635945 
L 194.427635 -279.734773 
L 194.638515 -279.833601 
L 194.830585 -279.932429 
L 195.004345 -280.031257 
L 195.16049 -280.130085 
L 195.299868 -280.228913 
L 195.423451 -280.32774 
L 196.857372 -280.32774 
L 196.857372 -280.32774 
L 196.980956 -280.228913 
L 197.120334 -280.130085 
L 197.276478 -280.031257 
L 197.450239 -279.932429 
L 197.642308 -279.833601 
L 197.853189 -279.734773 
L 198.083162 -279.635945 
L 198.332258 -279.537117 
L 198.600233 -279.438289 
L 198.886552 -279.339461 
L 199.190373 -279.240634 
L 199.510546 -279.141806 
L 199.845617 -279.042978 
L 200.193843 -278.94415 
L 200.553216 -278.845322 
L 200.921494 -278.746494 
L 201.296248 -278.647666 
L 201.674907 -278.548838 
L 202.054821 -278.45001 
L 202.433323 -278.351182 
L 202.807791 -278.252355 
L 203.175727 -278.153527 
L 203.534816 -278.054699 
L 203.882998 -277.955871 
L 204.218528 -277.857043 
L 204.54003 -277.758215 
L 204.846545 -277.659387 
L 205.137564 -277.560559 
L 205.413051 -277.461731 
L 205.673454 -277.362903 
L 205.9197 -277.264076 
L 206.153176 -277.165248 
L 206.375692 -277.06642 
L 206.589436 -276.967592 
L 206.796909 -276.868764 
L 207.000849 -276.769936 
L 207.20415 -276.671108 
L 207.409763 -276.57228 
L 207.620597 -276.473452 
L 207.839418 -276.374624 
L 208.068741 -276.275797 
L 208.310731 -276.176969 
L 208.567111 -276.078141 
L 208.83907 -275.979313 
L 209.127196 -275.880485 
L 209.431415 -275.781657 
L 209.750949 -275.682829 
L 210.084297 -275.584001 
L 210.429231 -275.485173 
L 210.782818 -275.386345 
L 211.141455 -275.287518 
L 211.500935 -275.18869 
L 211.856518 -275.089862 
L 212.203033 -274.991034 
L 212.534978 -274.892206 
L 212.846647 -274.793378 
L 213.132247 -274.69455 
L 213.386038 -274.595722 
L 213.602457 -274.496894 
L 213.776249 -274.398066 
L 213.902587 -274.299238 
L 213.977189 -274.200411 
L 213.996412 -274.101583 
L 213.957345 -274.002755 
L 213.857878 -273.903927 
L 213.696749 -273.805099 
L 213.473587 -273.706271 
L 213.188918 -273.607443 
L 212.844163 -273.508615 
L 212.441616 -273.409787 
L 211.984394 -273.310959 
L 211.476379 -273.212132 
L 210.922145 -273.113304 
L 210.326859 -273.014476 
L 209.696182 -272.915648 
L 209.036158 -272.81682 
L 208.353093 -272.717992 
L 207.653436 -272.619164 
L 206.943654 -272.520336 
L 206.230116 -272.421508 
L 205.518981 -272.32268 
L 204.81609 -272.223853 
L 204.126879 -272.125025 
L 203.456298 -272.026197 
L 202.808745 -271.927369 
L 202.188021 -271.828541 
L 201.5973 -271.729713 
L 201.039111 -271.630885 
L 200.515343 -271.532057 
L 200.027257 -271.433229 
L 199.575523 -271.334401 
L 199.160255 -271.235574 
L 198.781066 -271.136746 
L 198.43712 -271.037918 
L 198.127204 -270.93909 
L 197.849785 -270.840262 
L 197.603077 -270.741434 
L 197.38511 -270.642606 
L 197.193783 -270.543778 
z
" style="stroke: #3f3f3f; stroke-width: 1.5"/>
    </defs>
    <g clip-path="url(#p8b88e9c786)">
     <use xlink:href="#m9dbf361757" x="0" y="388.804834" style="fill: #9fd495; stroke: #3f3f3f; stroke-width: 1.5"/>
    </g>
   </g>
   <g id="PolyCollection_4">
    <defs>
     <path id="m501aea2c2f" d="M 240.818041 -112.470709 
L 240.742783 -112.470709 
L 240.736361 -114.914346 
L 240.729092 -117.357982 
L 240.720915 -119.801618 
L 240.711767 -122.245255 
L 240.701595 -124.688891 
L 240.690352 -127.132527 
L 240.678001 -129.576164 
L 240.664516 -132.0198 
L 240.649884 -134.463436 
L 240.63411 -136.907073 
L 240.617215 -139.350709 
L 240.599239 -141.794346 
L 240.580242 -144.237982 
L 240.560308 -146.681618 
L 240.539538 -149.125255 
L 240.51806 -151.568891 
L 240.496019 -154.012527 
L 240.473582 -156.456164 
L 240.450932 -158.8998 
L 240.42827 -161.343436 
L 240.405806 -163.787073 
L 240.38376 -166.230709 
L 240.362356 -168.674346 
L 240.341816 -171.117982 
L 240.322357 -173.561618 
L 240.304186 -176.005255 
L 240.287491 -178.448891 
L 240.27244 -180.892527 
L 240.259176 -183.336164 
L 240.24781 -185.7798 
L 240.238416 -188.223436 
L 240.231035 -190.667073 
L 240.225666 -193.110709 
L 240.222267 -195.554346 
L 240.220755 -197.997982 
L 240.221008 -200.441618 
L 240.222868 -202.885255 
L 240.22614 -205.328891 
L 240.230601 -207.772527 
L 240.236005 -210.216164 
L 240.242086 -212.6598 
L 240.248569 -215.103436 
L 240.255175 -217.547073 
L 240.261627 -219.990709 
L 240.267663 -222.434346 
L 240.273039 -224.877982 
L 240.277537 -227.321618 
L 240.280973 -229.765255 
L 240.2832 -232.208891 
L 240.284114 -234.652527 
L 240.28366 -237.096164 
L 240.281827 -239.5398 
L 240.278657 -241.983436 
L 240.274236 -244.427073 
L 240.268701 -246.870709 
L 240.262226 -249.314346 
L 240.255026 -251.757982 
L 240.247346 -254.201618 
L 240.239458 -256.645255 
L 240.231648 -259.088891 
L 240.224213 -261.532527 
L 240.217452 -263.976164 
L 240.211653 -266.4198 
L 240.207092 -268.863436 
L 240.204022 -271.307073 
L 240.202665 -273.750709 
L 240.203209 -276.194346 
L 240.205802 -278.637982 
L 240.210549 -281.081618 
L 240.217509 -283.525255 
L 240.226697 -285.968891 
L 240.23808 -288.412527 
L 240.251584 -290.856164 
L 240.267094 -293.2998 
L 240.284457 -295.743436 
L 240.303489 -298.187073 
L 240.323981 -300.630709 
L 240.345703 -303.074346 
L 240.36841 -305.517982 
L 240.391851 -307.961618 
L 240.415773 -310.405255 
L 240.439924 -312.848891 
L 240.464066 -315.292527 
L 240.487972 -317.736164 
L 240.511433 -320.1798 
L 240.534261 -322.623436 
L 240.556292 -325.067073 
L 240.577387 -327.510709 
L 240.59743 -329.954346 
L 240.616333 -332.397982 
L 240.634033 -334.841618 
L 240.650489 -337.285255 
L 240.665683 -339.728891 
L 240.679618 -342.172527 
L 240.692312 -344.616164 
L 240.703801 -347.0598 
L 240.714133 -349.503436 
L 240.723364 -351.947073 
L 240.731561 -354.390709 
L 240.829263 -354.390709 
L 240.829263 -354.390709 
L 240.83746 -351.947073 
L 240.846691 -349.503436 
L 240.857022 -347.0598 
L 240.868512 -344.616164 
L 240.881206 -342.172527 
L 240.89514 -339.728891 
L 240.910335 -337.285255 
L 240.926791 -334.841618 
L 240.944491 -332.397982 
L 240.963394 -329.954346 
L 240.983437 -327.510709 
L 241.004531 -325.067073 
L 241.026562 -322.623436 
L 241.049391 -320.1798 
L 241.072851 -317.736164 
L 241.096757 -315.292527 
L 241.120899 -312.848891 
L 241.145051 -310.405255 
L 241.168972 -307.961618 
L 241.192413 -305.517982 
L 241.21512 -303.074346 
L 241.236842 -300.630709 
L 241.257334 -298.187073 
L 241.276367 -295.743436 
L 241.293729 -293.2998 
L 241.309239 -290.856164 
L 241.322743 -288.412527 
L 241.334127 -285.968891 
L 241.343315 -283.525255 
L 241.350275 -281.081618 
L 241.355022 -278.637982 
L 241.357614 -276.194346 
L 241.358158 -273.750709 
L 241.356801 -271.307073 
L 241.353731 -268.863436 
L 241.349171 -266.4198 
L 241.343372 -263.976164 
L 241.33661 -261.532527 
L 241.329175 -259.088891 
L 241.321366 -256.645255 
L 241.313477 -254.201618 
L 241.305798 -251.757982 
L 241.298598 -249.314346 
L 241.292123 -246.870709 
L 241.286587 -244.427073 
L 241.282167 -241.983436 
L 241.278996 -239.5398 
L 241.277164 -237.096164 
L 241.276709 -234.652527 
L 241.277624 -232.208891 
L 241.27985 -229.765255 
L 241.283286 -227.321618 
L 241.287784 -224.877982 
L 241.29316 -222.434346 
L 241.299196 -219.990709 
L 241.305649 -217.547073 
L 241.312254 -215.103436 
L 241.318737 -212.6598 
L 241.324819 -210.216164 
L 241.330222 -207.772527 
L 241.334684 -205.328891 
L 241.337956 -202.885255 
L 241.339815 -200.441618 
L 241.340069 -197.997982 
L 241.338557 -195.554346 
L 241.335157 -193.110709 
L 241.329788 -190.667073 
L 241.322407 -188.223436 
L 241.313014 -185.7798 
L 241.301647 -183.336164 
L 241.288383 -180.892527 
L 241.273333 -178.448891 
L 241.256638 -176.005255 
L 241.238466 -173.561618 
L 241.219008 -171.117982 
L 241.198468 -168.674346 
L 241.177063 -166.230709 
L 241.155018 -163.787073 
L 241.132554 -161.343436 
L 241.109891 -158.8998 
L 241.087242 -156.456164 
L 241.064805 -154.012527 
L 241.042764 -151.568891 
L 241.021285 -149.125255 
L 241.000516 -146.681618 
L 240.980581 -144.237982 
L 240.961585 -141.794346 
L 240.943608 -139.350709 
L 240.926713 -136.907073 
L 240.910939 -134.463436 
L 240.896308 -132.0198 
L 240.882822 -129.576164 
L 240.870471 -127.132527 
L 240.859228 -124.688891 
L 240.849057 -122.245255 
L 240.839909 -119.801618 
L 240.831731 -117.357982 
L 240.824463 -114.914346 
L 240.818041 -112.470709 
z
" style="stroke: #3f3f3f; stroke-width: 1.5"/>
    </defs>
    <g clip-path="url(#p8b88e9c786)">
     <use xlink:href="#m501aea2c2f" x="0" y="388.804834" style="fill: #e1812c; stroke: #3f3f3f; stroke-width: 1.5"/>
    </g>
   </g>
   <g id="PolyCollection_5">
    <defs>
     <path id="m50da2c7a90" d="M 285.505255 -146.553865 
L 285.335569 -146.553865 
L 285.321771 -148.354413 
L 285.306286 -150.15496 
L 285.289008 -151.955508 
L 285.269848 -153.756056 
L 285.248728 -155.556604 
L 285.225593 -157.357151 
L 285.200409 -159.157699 
L 285.173169 -160.958247 
L 285.143898 -162.758795 
L 285.112653 -164.559343 
L 285.079528 -166.35989 
L 285.044658 -168.160438 
L 285.008213 -169.960986 
L 284.970409 -171.761534 
L 284.931497 -173.562081 
L 284.89177 -175.362629 
L 284.851554 -177.163177 
L 284.811208 -178.963725 
L 284.771119 -180.764273 
L 284.731692 -182.56482 
L 284.693348 -184.365368 
L 284.656513 -186.165916 
L 284.621611 -187.966464 
L 284.589055 -189.767011 
L 284.559236 -191.567559 
L 284.532519 -193.368107 
L 284.509226 -195.168655 
L 284.489638 -196.969203 
L 284.47398 -198.76975 
L 284.462417 -200.570298 
L 284.455052 -202.370846 
L 284.451917 -204.171394 
L 284.452978 -205.971941 
L 284.45813 -207.772489 
L 284.467199 -209.573037 
L 284.479947 -211.373585 
L 284.496076 -213.174133 
L 284.515237 -214.97468 
L 284.537031 -216.775228 
L 284.561025 -218.575776 
L 284.586757 -220.376324 
L 284.61375 -222.176871 
L 284.641518 -223.977419 
L 284.669581 -225.777967 
L 284.697472 -227.578515 
L 284.72475 -229.379063 
L 284.751005 -231.17961 
L 284.775873 -232.980158 
L 284.799033 -234.780706 
L 284.820224 -236.581254 
L 284.83924 -238.381801 
L 284.855938 -240.182349 
L 284.870238 -241.982897 
L 284.882123 -243.783445 
L 284.891636 -245.583992 
L 284.898878 -247.38454 
L 284.904004 -249.185088 
L 284.907217 -250.985636 
L 284.90876 -252.786184 
L 284.908911 -254.586731 
L 284.907973 -256.387279 
L 284.906267 -258.187827 
L 284.904124 -259.988375 
L 284.901873 -261.788922 
L 284.899837 -263.58947 
L 284.898325 -265.390018 
L 284.89762 -267.190566 
L 284.897978 -268.991114 
L 284.899623 -270.791661 
L 284.902738 -272.592209 
L 284.907465 -274.392757 
L 284.913905 -276.193305 
L 284.922114 -277.993852 
L 284.932105 -279.7944 
L 284.943849 -281.594948 
L 284.957278 -283.395496 
L 284.97229 -285.196044 
L 284.98875 -286.996591 
L 285.006498 -288.797139 
L 285.025351 -290.597687 
L 285.045113 -292.398235 
L 285.065576 -294.198782 
L 285.086528 -295.99933 
L 285.107756 -297.799878 
L 285.129054 -299.600426 
L 285.150224 -301.400974 
L 285.171082 -303.201521 
L 285.19146 -305.002069 
L 285.211208 -306.802617 
L 285.230196 -308.603165 
L 285.248317 -310.403712 
L 285.265483 -312.20426 
L 285.281629 -314.004808 
L 285.29671 -315.805356 
L 285.3107 -317.605904 
L 285.323593 -319.406451 
L 285.335396 -321.206999 
L 285.346132 -323.007547 
L 285.355836 -324.808095 
L 285.484987 -324.808095 
L 285.484987 -324.808095 
L 285.494691 -323.007547 
L 285.505427 -321.206999 
L 285.517231 -319.406451 
L 285.530123 -317.605904 
L 285.544114 -315.805356 
L 285.559195 -314.004808 
L 285.575341 -312.20426 
L 285.592507 -310.403712 
L 285.610627 -308.603165 
L 285.629616 -306.802617 
L 285.649364 -305.002069 
L 285.669741 -303.201521 
L 285.690599 -301.400974 
L 285.71177 -299.600426 
L 285.733067 -297.799878 
L 285.754296 -295.99933 
L 285.775247 -294.198782 
L 285.79571 -292.398235 
L 285.815472 -290.597687 
L 285.834326 -288.797139 
L 285.852074 -286.996591 
L 285.868534 -285.196044 
L 285.883545 -283.395496 
L 285.896975 -281.594948 
L 285.908718 -279.7944 
L 285.918709 -277.993852 
L 285.926918 -276.193305 
L 285.933358 -274.392757 
L 285.938086 -272.592209 
L 285.941201 -270.791661 
L 285.942845 -268.991114 
L 285.943204 -267.190566 
L 285.942499 -265.390018 
L 285.940986 -263.58947 
L 285.938951 -261.788922 
L 285.9367 -259.988375 
L 285.934556 -258.187827 
L 285.932851 -256.387279 
L 285.931913 -254.586731 
L 285.932064 -252.786184 
L 285.933607 -250.985636 
L 285.936819 -249.185088 
L 285.941946 -247.38454 
L 285.949188 -245.583992 
L 285.958701 -243.783445 
L 285.970585 -241.982897 
L 285.984886 -240.182349 
L 286.001584 -238.381801 
L 286.0206 -236.581254 
L 286.04179 -234.780706 
L 286.064951 -232.980158 
L 286.089818 -231.17961 
L 286.116074 -229.379063 
L 286.143352 -227.578515 
L 286.171243 -225.777967 
L 286.199306 -223.977419 
L 286.227074 -222.176871 
L 286.254066 -220.376324 
L 286.279799 -218.575776 
L 286.303793 -216.775228 
L 286.325587 -214.97468 
L 286.344747 -213.174133 
L 286.360877 -211.373585 
L 286.373625 -209.573037 
L 286.382694 -207.772489 
L 286.387845 -205.971941 
L 286.388906 -204.171394 
L 286.385772 -202.370846 
L 286.378406 -200.570298 
L 286.366844 -198.76975 
L 286.351185 -196.969203 
L 286.331597 -195.168655 
L 286.308305 -193.368107 
L 286.281587 -191.567559 
L 286.251769 -189.767011 
L 286.219212 -187.966464 
L 286.18431 -186.165916 
L 286.147475 -184.365368 
L 286.109131 -182.56482 
L 286.069705 -180.764273 
L 286.029615 -178.963725 
L 285.98927 -177.163177 
L 285.949054 -175.362629 
L 285.909326 -173.562081 
L 285.870415 -171.761534 
L 285.83261 -169.960986 
L 285.796166 -168.160438 
L 285.761295 -166.35989 
L 285.728171 -164.559343 
L 285.696926 -162.758795 
L 285.667654 -160.958247 
L 285.640415 -159.157699 
L 285.61523 -157.357151 
L 285.592095 -155.556604 
L 285.570976 -153.756056 
L 285.551815 -151.955508 
L 285.534538 -150.15496 
L 285.519052 -148.354413 
L 285.505255 -146.553865 
z
" style="stroke: #3f3f3f; stroke-width: 1.5"/>
    </defs>
    <g clip-path="url(#p8b88e9c786)">
     <use xlink:href="#m50da2c7a90" x="0" y="388.804834" style="fill: #f2a5a3; stroke: #3f3f3f; stroke-width: 1.5"/>
    </g>
   </g>
   <g id="PolyCollection_6">
    <defs>
     <path id="m549d18fccc" d="M 330.166685 -150.08479 
L 329.954139 -150.08479 
L 329.937909 -151.939562 
L 329.91988 -153.794334 
L 329.89997 -155.649107 
L 329.878119 -157.503879 
L 329.854285 -159.358651 
L 329.828453 -161.213423 
L 329.800637 -163.068195 
L 329.77088 -164.922967 
L 329.739261 -166.77774 
L 329.705897 -168.632512 
L 329.670943 -170.487284 
L 329.634592 -172.342056 
L 329.597077 -174.196828 
L 329.558669 -176.0516 
L 329.519676 -177.906373 
L 329.480438 -179.761145 
L 329.441322 -181.615917 
L 329.402718 -183.470689 
L 329.365033 -185.325461 
L 329.328684 -187.180234 
L 329.294086 -189.035006 
L 329.261648 -190.889778 
L 329.231763 -192.74455 
L 329.204798 -194.599322 
L 329.181085 -196.454094 
L 329.160917 -198.308867 
L 329.144534 -200.163639 
L 329.132123 -202.018411 
L 329.123808 -203.873183 
L 329.119649 -205.727955 
L 329.119638 -207.582727 
L 329.1237 -209.4375 
L 329.131691 -211.292272 
L 329.143403 -213.147044 
L 329.158569 -215.001816 
L 329.176866 -216.856588 
L 329.197923 -218.71136 
L 329.22133 -220.566133 
L 329.246646 -222.420905 
L 329.273408 -224.275677 
L 329.301144 -226.130449 
L 329.32938 -227.985221 
L 329.357652 -229.839994 
L 329.385515 -231.694766 
L 329.412553 -233.549538 
L 329.438383 -235.40431 
L 329.462671 -237.259082 
L 329.485127 -239.113854 
L 329.505519 -240.968627 
L 329.52367 -242.823399 
L 329.539465 -244.678171 
L 329.552846 -246.532943 
L 329.563817 -248.387715 
L 329.572435 -250.242487 
L 329.578812 -252.09726 
L 329.583111 -253.952032 
L 329.585534 -255.806804 
L 329.586322 -257.661576 
L 329.585745 -259.516348 
L 329.584098 -261.37112 
L 329.581686 -263.225893 
L 329.578826 -265.080665 
L 329.57583 -266.935437 
L 329.573005 -268.790209 
L 329.570643 -270.644981 
L 329.569014 -272.499754 
L 329.568361 -274.354526 
L 329.568898 -276.209298 
L 329.570801 -278.06407 
L 329.574212 -279.918842 
L 329.579231 -281.773614 
L 329.58592 -283.628387 
L 329.5943 -285.483159 
L 329.604354 -287.337931 
L 329.616031 -289.192703 
L 329.629244 -291.047475 
L 329.643879 -292.902247 
L 329.659796 -294.75702 
L 329.676835 -296.611792 
L 329.694818 -298.466564 
L 329.713559 -300.321336 
L 329.732863 -302.176108 
L 329.752536 -304.030881 
L 329.772385 -305.885653 
L 329.792225 -307.740425 
L 329.81188 -309.595197 
L 329.831188 -311.449969 
L 329.850003 -313.304741 
L 329.868194 -315.159514 
L 329.885652 -317.014286 
L 329.902286 -318.869058 
L 329.918021 -320.72383 
L 329.932806 -322.578602 
L 329.946605 -324.433374 
L 329.959399 -326.288147 
L 329.971186 -328.142919 
L 329.981977 -329.997691 
L 329.991795 -331.852463 
L 330.000672 -333.707235 
L 330.120151 -333.707235 
L 330.120151 -333.707235 
L 330.129029 -331.852463 
L 330.138846 -329.997691 
L 330.149637 -328.142919 
L 330.161424 -326.288147 
L 330.174219 -324.433374 
L 330.188017 -322.578602 
L 330.202802 -320.72383 
L 330.218538 -318.869058 
L 330.235171 -317.014286 
L 330.252629 -315.159514 
L 330.270821 -313.304741 
L 330.289635 -311.449969 
L 330.308943 -309.595197 
L 330.328598 -307.740425 
L 330.348438 -305.885653 
L 330.368287 -304.030881 
L 330.38796 -302.176108 
L 330.407265 -300.321336 
L 330.426006 -298.466564 
L 330.443989 -296.611792 
L 330.461027 -294.75702 
L 330.476945 -292.902247 
L 330.49158 -291.047475 
L 330.504793 -289.192703 
L 330.516469 -287.337931 
L 330.526524 -285.483159 
L 330.534904 -283.628387 
L 330.541592 -281.773614 
L 330.546611 -279.918842 
L 330.550022 -278.06407 
L 330.551926 -276.209298 
L 330.552462 -274.354526 
L 330.55181 -272.499754 
L 330.55018 -270.644981 
L 330.547818 -268.790209 
L 330.544994 -266.935437 
L 330.541998 -265.080665 
L 330.539137 -263.225893 
L 330.536726 -261.37112 
L 330.535078 -259.516348 
L 330.534502 -257.661576 
L 330.53529 -255.806804 
L 330.537713 -253.952032 
L 330.542011 -252.09726 
L 330.548389 -250.242487 
L 330.557007 -248.387715 
L 330.567977 -246.532943 
L 330.581358 -244.678171 
L 330.597153 -242.823399 
L 330.615305 -240.968627 
L 330.635697 -239.113854 
L 330.658153 -237.259082 
L 330.68244 -235.40431 
L 330.708271 -233.549538 
L 330.735308 -231.694766 
L 330.763171 -229.839994 
L 330.791443 -227.985221 
L 330.81968 -226.130449 
L 330.847416 -224.275677 
L 330.874178 -222.420905 
L 330.899493 -220.566133 
L 330.9229 -218.71136 
L 330.943957 -216.856588 
L 330.962254 -215.001816 
L 330.97742 -213.147044 
L 330.989133 -211.292272 
L 330.997124 -209.4375 
L 331.001185 -207.582727 
L 331.001174 -205.727955 
L 330.997015 -203.873183 
L 330.9887 -202.018411 
L 330.976289 -200.163639 
L 330.959907 -198.308867 
L 330.939738 -196.454094 
L 330.916026 -194.599322 
L 330.88906 -192.74455 
L 330.859175 -190.889778 
L 330.826738 -189.035006 
L 330.79214 -187.180234 
L 330.75579 -185.325461 
L 330.718106 -183.470689 
L 330.679502 -181.615917 
L 330.640386 -179.761145 
L 330.601147 -177.906373 
L 330.562154 -176.0516 
L 330.523747 -174.196828 
L 330.486232 -172.342056 
L 330.449881 -170.487284 
L 330.414926 -168.632512 
L 330.381562 -166.77774 
L 330.349944 -164.922967 
L 330.320187 -163.068195 
L 330.29237 -161.213423 
L 330.266539 -159.358651 
L 330.242705 -157.503879 
L 330.220853 -155.649107 
L 330.200944 -153.794334 
L 330.182914 -151.939562 
L 330.166685 -150.08479 
z
" style="stroke: #3f3f3f; stroke-width: 1.5"/>
    </defs>
    <g clip-path="url(#p8b88e9c786)">
     <use xlink:href="#m549d18fccc" x="0" y="388.804834" style="fill: #c03d3e; stroke: #3f3f3f; stroke-width: 1.5"/>
    </g>
   </g>
   <g id="PolyCollection_7">
    <defs>
     <path id="m561a6ecb8e" d="M 374.794504 -145.47702 
L 374.606319 -145.47702 
L 374.59141 -147.312311 
L 374.574749 -149.147602 
L 374.556241 -150.982892 
L 374.535807 -152.818183 
L 374.513386 -154.653474 
L 374.488936 -156.488765 
L 374.462446 -158.324056 
L 374.433932 -160.159346 
L 374.403442 -161.994637 
L 374.371061 -163.829928 
L 374.336913 -165.665219 
L 374.30116 -167.50051 
L 374.264007 -169.3358 
L 374.225696 -171.171091 
L 374.18651 -173.006382 
L 374.146768 -174.841673 
L 374.106823 -176.676963 
L 374.067054 -178.512254 
L 374.027866 -180.347545 
L 373.989675 -182.182836 
L 373.952909 -184.018127 
L 373.917994 -185.853417 
L 373.885346 -187.688708 
L 373.855364 -189.523999 
L 373.82842 -191.35929 
L 373.804847 -193.194581 
L 373.784937 -195.029871 
L 373.768927 -196.865162 
L 373.756996 -198.700453 
L 373.74926 -200.535744 
L 373.745767 -202.371035 
L 373.746495 -204.206325 
L 373.751354 -206.041616 
L 373.760182 -207.876907 
L 373.772753 -209.712198 
L 373.78878 -211.547488 
L 373.80792 -213.382779 
L 373.829783 -215.21807 
L 373.85394 -217.053361 
L 373.879933 -218.888652 
L 373.907284 -220.723942 
L 373.935506 -222.559233 
L 373.964116 -224.394524 
L 373.992641 -226.229815 
L 374.020631 -228.065106 
L 374.047669 -229.900396 
L 374.073374 -231.735687 
L 374.097417 -233.570978 
L 374.119517 -235.406269 
L 374.139453 -237.24156 
L 374.157064 -239.07685 
L 374.172251 -240.912141 
L 374.184976 -242.747432 
L 374.195261 -244.582723 
L 374.203189 -246.418014 
L 374.208892 -248.253304 
L 374.212555 -250.088595 
L 374.214403 -251.923886 
L 374.214698 -253.759177 
L 374.213729 -255.594467 
L 374.211805 -257.429758 
L 374.209248 -259.265049 
L 374.206384 -261.10034 
L 374.203535 -262.935631 
L 374.20101 -264.770921 
L 374.199102 -266.606212 
L 374.198077 -268.441503 
L 374.198173 -270.276794 
L 374.199592 -272.112085 
L 374.202498 -273.947375 
L 374.207015 -275.782666 
L 374.213226 -277.617957 
L 374.221172 -279.453248 
L 374.230853 -281.288539 
L 374.242231 -283.123829 
L 374.255231 -284.95912 
L 374.269746 -286.794411 
L 374.28564 -288.629702 
L 374.302755 -290.464992 
L 374.320914 -292.300283 
L 374.339924 -294.135574 
L 374.359586 -295.970865 
L 374.379698 -297.806156 
L 374.400057 -299.641446 
L 374.420468 -301.476737 
L 374.440744 -303.312028 
L 374.460711 -305.147319 
L 374.480212 -306.98261 
L 374.499105 -308.8179 
L 374.517271 -310.653191 
L 374.534607 -312.488482 
L 374.551032 -314.323773 
L 374.566486 -316.159064 
L 374.580927 -317.994354 
L 374.594331 -319.829645 
L 374.606691 -321.664936 
L 374.618015 -323.500227 
L 374.628325 -325.335518 
L 374.637654 -327.170808 
L 374.76317 -327.170808 
L 374.76317 -327.170808 
L 374.772498 -325.335518 
L 374.782808 -323.500227 
L 374.794133 -321.664936 
L 374.806493 -319.829645 
L 374.819897 -317.994354 
L 374.834337 -316.159064 
L 374.849791 -314.323773 
L 374.866217 -312.488482 
L 374.883553 -310.653191 
L 374.901718 -308.8179 
L 374.920612 -306.98261 
L 374.940112 -305.147319 
L 374.96008 -303.312028 
L 374.980355 -301.476737 
L 375.000766 -299.641446 
L 375.021125 -297.806156 
L 375.041237 -295.970865 
L 375.0609 -294.135574 
L 375.07991 -292.300283 
L 375.098068 -290.464992 
L 375.115183 -288.629702 
L 375.131078 -286.794411 
L 375.145593 -284.95912 
L 375.158592 -283.123829 
L 375.16997 -281.288539 
L 375.179651 -279.453248 
L 375.187597 -277.617957 
L 375.193809 -275.782666 
L 375.198326 -273.947375 
L 375.201232 -272.112085 
L 375.20265 -270.276794 
L 375.202746 -268.441503 
L 375.201722 -266.606212 
L 375.199813 -264.770921 
L 375.197289 -262.935631 
L 375.194439 -261.10034 
L 375.191576 -259.265049 
L 375.189019 -257.429758 
L 375.187095 -255.594467 
L 375.186126 -253.759177 
L 375.18642 -251.923886 
L 375.188268 -250.088595 
L 375.191931 -248.253304 
L 375.197635 -246.418014 
L 375.205562 -244.582723 
L 375.215848 -242.747432 
L 375.228572 -240.912141 
L 375.243759 -239.07685 
L 375.26137 -237.24156 
L 375.281307 -235.406269 
L 375.303407 -233.570978 
L 375.327449 -231.735687 
L 375.353155 -229.900396 
L 375.380192 -228.065106 
L 375.408183 -226.229815 
L 375.436707 -224.394524 
L 375.465317 -222.559233 
L 375.49354 -220.723942 
L 375.52089 -218.888652 
L 375.546883 -217.053361 
L 375.57104 -215.21807 
L 375.592904 -213.382779 
L 375.612044 -211.547488 
L 375.62807 -209.712198 
L 375.640642 -207.876907 
L 375.64947 -206.041616 
L 375.654328 -204.206325 
L 375.655057 -202.371035 
L 375.651564 -200.535744 
L 375.643828 -198.700453 
L 375.631897 -196.865162 
L 375.615886 -195.029871 
L 375.595976 -193.194581 
L 375.572404 -191.35929 
L 375.545459 -189.523999 
L 375.515478 -187.688708 
L 375.48283 -185.853417 
L 375.447915 -184.018127 
L 375.411149 -182.182836 
L 375.372958 -180.347545 
L 375.333769 -178.512254 
L 375.294001 -176.676963 
L 375.254055 -174.841673 
L 375.214314 -173.006382 
L 375.175128 -171.171091 
L 375.136817 -169.3358 
L 375.099663 -167.50051 
L 375.063911 -165.665219 
L 375.029763 -163.829928 
L 374.997382 -161.994637 
L 374.966892 -160.159346 
L 374.938377 -158.324056 
L 374.911887 -156.488765 
L 374.887438 -154.653474 
L 374.865016 -152.818183 
L 374.844582 -150.982892 
L 374.826075 -149.147602 
L 374.809413 -147.312311 
L 374.794504 -145.47702 
z
" style="stroke: #3f3f3f; stroke-width: 1.5"/>
    </defs>
    <g clip-path="url(#p8b88e9c786)">
     <use xlink:href="#m561a6ecb8e" x="0" y="388.804834" style="fill: #c7c7c7; stroke: #3f3f3f; stroke-width: 1.5"/>
    </g>
   </g>
   <g id="PolyCollection_8">
    <defs>
     <path id="me80161495e" d="M 419.435259 -129.165356 
L 419.245565 -129.165356 
L 419.233092 -131.325846 
L 419.219448 -133.486336 
L 419.204597 -135.646825 
L 419.18851 -137.807315 
L 419.171173 -139.967805 
L 419.152584 -142.128295 
L 419.132755 -144.288785 
L 419.111717 -146.449275 
L 419.089514 -148.609764 
L 419.066213 -150.770254 
L 419.041896 -152.930744 
L 419.016666 -155.091234 
L 418.990645 -157.251724 
L 418.963972 -159.412214 
L 418.936805 -161.572703 
L 418.909317 -163.733193 
L 418.881698 -165.893683 
L 418.854147 -168.054173 
L 418.826873 -170.214663 
L 418.800093 -172.375153 
L 418.774026 -174.535642 
L 418.748891 -176.696132 
L 418.724902 -178.856622 
L 418.702265 -181.017112 
L 418.681175 -183.177602 
L 418.661811 -185.338092 
L 418.644332 -187.498581 
L 418.628877 -189.659071 
L 418.615557 -191.819561 
L 418.604457 -193.980051 
L 418.595633 -196.140541 
L 418.589111 -198.301031 
L 418.584883 -200.46152 
L 418.582915 -202.62201 
L 418.583138 -204.7825 
L 418.585459 -206.94299 
L 418.589756 -209.10348 
L 418.595883 -211.26397 
L 418.603677 -213.424459 
L 418.612954 -215.584949 
L 418.623522 -217.745439 
L 418.635178 -219.905929 
L 418.647716 -222.066419 
L 418.660931 -224.226909 
L 418.674623 -226.387398 
L 418.688601 -228.547888 
L 418.702685 -230.708378 
L 418.716716 -232.868868 
L 418.730549 -235.029358 
L 418.744063 -237.189848 
L 418.757161 -239.350337 
L 418.769767 -241.510827 
L 418.781832 -243.671317 
L 418.79333 -245.831807 
L 418.804259 -247.992297 
L 418.814637 -250.152787 
L 418.824506 -252.313276 
L 418.83392 -254.473766 
L 418.842951 -256.634256 
L 418.851683 -258.794746 
L 418.860206 -260.955236 
L 418.868618 -263.115726 
L 418.877016 -265.276215 
L 418.885497 -267.436705 
L 418.894155 -269.597195 
L 418.903076 -271.757685 
L 418.912336 -273.918175 
L 418.922 -276.078665 
L 418.932121 -278.239154 
L 418.942738 -280.399644 
L 418.953874 -282.560134 
L 418.965539 -284.720624 
L 418.977727 -286.881114 
L 418.990417 -289.041604 
L 419.003576 -291.202093 
L 419.017159 -293.362583 
L 419.031108 -295.523073 
L 419.045361 -297.683563 
L 419.059843 -299.844053 
L 419.074477 -302.004543 
L 419.089182 -304.165032 
L 419.103875 -306.325522 
L 419.118475 -308.486012 
L 419.1329 -310.646502 
L 419.147074 -312.806992 
L 419.160924 -314.967482 
L 419.174384 -317.127971 
L 419.187394 -319.288461 
L 419.199904 -321.448951 
L 419.211868 -323.609441 
L 419.223251 -325.769931 
L 419.234025 -327.930421 
L 419.244172 -330.09091 
L 419.253679 -332.2514 
L 419.262543 -334.41189 
L 419.270767 -336.57238 
L 419.278359 -338.73287 
L 419.285334 -340.89336 
L 419.291713 -343.053849 
L 419.389111 -343.053849 
L 419.389111 -343.053849 
L 419.395489 -340.89336 
L 419.402465 -338.73287 
L 419.410057 -336.57238 
L 419.41828 -334.41189 
L 419.427144 -332.2514 
L 419.436652 -330.09091 
L 419.446798 -327.930421 
L 419.457573 -325.769931 
L 419.468956 -323.609441 
L 419.48092 -321.448951 
L 419.493429 -319.288461 
L 419.50644 -317.127971 
L 419.5199 -314.967482 
L 419.53375 -312.806992 
L 419.547924 -310.646502 
L 419.562349 -308.486012 
L 419.576948 -306.325522 
L 419.591642 -304.165032 
L 419.606347 -302.004543 
L 419.620981 -299.844053 
L 419.635463 -297.683563 
L 419.649715 -295.523073 
L 419.663665 -293.362583 
L 419.677248 -291.202093 
L 419.690407 -289.041604 
L 419.703097 -286.881114 
L 419.715284 -284.720624 
L 419.726949 -282.560134 
L 419.738086 -280.399644 
L 419.748702 -278.239154 
L 419.758824 -276.078665 
L 419.768488 -273.918175 
L 419.777748 -271.757685 
L 419.786668 -269.597195 
L 419.795326 -267.436705 
L 419.803808 -265.276215 
L 419.812206 -263.115726 
L 419.820617 -260.955236 
L 419.82914 -258.794746 
L 419.837872 -256.634256 
L 419.846904 -254.473766 
L 419.856318 -252.313276 
L 419.866186 -250.152787 
L 419.876565 -247.992297 
L 419.887494 -245.831807 
L 419.898992 -243.671317 
L 419.911057 -241.510827 
L 419.923663 -239.350337 
L 419.93676 -237.189848 
L 419.950275 -235.029358 
L 419.964108 -232.868868 
L 419.978138 -230.708378 
L 419.992223 -228.547888 
L 420.0062 -226.387398 
L 420.019892 -224.226909 
L 420.033107 -222.066419 
L 420.045645 -219.905929 
L 420.057301 -217.745439 
L 420.067869 -215.584949 
L 420.077147 -213.424459 
L 420.08494 -211.26397 
L 420.091068 -209.10348 
L 420.095364 -206.94299 
L 420.097685 -204.7825 
L 420.097909 -202.62201 
L 420.09594 -200.46152 
L 420.091713 -198.301031 
L 420.08519 -196.140541 
L 420.076367 -193.980051 
L 420.065267 -191.819561 
L 420.051947 -189.659071 
L 420.036492 -187.498581 
L 420.019013 -185.338092 
L 419.999649 -183.177602 
L 419.978559 -181.017112 
L 419.955922 -178.856622 
L 419.931933 -176.696132 
L 419.906797 -174.535642 
L 419.88073 -172.375153 
L 419.85395 -170.214663 
L 419.826677 -168.054173 
L 419.799126 -165.893683 
L 419.771506 -163.733193 
L 419.744019 -161.572703 
L 419.716852 -159.412214 
L 419.690179 -157.251724 
L 419.664157 -155.091234 
L 419.638927 -152.930744 
L 419.61461 -150.770254 
L 419.591309 -148.609764 
L 419.569107 -146.449275 
L 419.548068 -144.288785 
L 419.52824 -142.128295 
L 419.509651 -139.967805 
L 419.492314 -137.807315 
L 419.476227 -135.646825 
L 419.461375 -133.486336 
L 419.447731 -131.325846 
L 419.435259 -129.165356 
z
" style="stroke: #3f3f3f; stroke-width: 1.5"/>
    </defs>
    <g clip-path="url(#p8b88e9c786)">
     <use xlink:href="#me80161495e" x="0" y="388.804834" style="fill: #d1d197; stroke: #3f3f3f; stroke-width: 1.5"/>
    </g>
   </g>
   <g id="matplotlib.axis_1">
    <g id="xtick_1">
     <g id="line2d_1">
      <defs>
       <path id="m5f316aab01" d="M 0 0 
L 0 3.5 
" style="stroke: #000000; stroke-width: 0.8"/>
      </defs>
      <g>
       <use xlink:href="#m5f316aab01" x="106.860412" y="288.430125" style="stroke: #000000; stroke-width: 0.8"/>
      </g>
     </g>
     <g id="text_1">
      <!-- aflplusplus_ast_o3_lto -->
      <g transform="translate(10.999219 356.675409)rotate(-30)scale(0.1 -0.1)">
       <defs>
        <path id="DejaVuSans-61" d="M 2194 1759 
Q 1497 1759 1228 1600 
Q 959 1441 959 1056 
Q 959 750 1161 570 
Q 1363 391 1709 391 
Q 2188 391 2477 730 
Q 2766 1069 2766 1631 
L 2766 1759 
L 2194 1759 
z
M 3341 1997 
L 3341 0 
L 2766 0 
L 2766 531 
Q 2569 213 2275 61 
Q 1981 -91 1556 -91 
Q 1019 -91 701 211 
Q 384 513 384 1019 
Q 384 1609 779 1909 
Q 1175 2209 1959 2209 
L 2766 2209 
L 2766 2266 
Q 2766 2663 2505 2880 
Q 2244 3097 1772 3097 
Q 1472 3097 1187 3025 
Q 903 2953 641 2809 
L 641 3341 
Q 956 3463 1253 3523 
Q 1550 3584 1831 3584 
Q 2591 3584 2966 3190 
Q 3341 2797 3341 1997 
z
" transform="scale(0.015625)"/>
        <path id="DejaVuSans-66" d="M 2375 4863 
L 2375 4384 
L 1825 4384 
Q 1516 4384 1395 4259 
Q 1275 4134 1275 3809 
L 1275 3500 
L 2222 3500 
L 2222 3053 
L 1275 3053 
L 1275 0 
L 697 0 
L 697 3053 
L 147 3053 
L 147 3500 
L 697 3500 
L 697 3744 
Q 697 4328 969 4595 
Q 1241 4863 1831 4863 
L 2375 4863 
z
" transform="scale(0.015625)"/>
        <path id="DejaVuSans-6c" d="M 603 4863 
L 1178 4863 
L 1178 0 
L 603 0 
L 603 4863 
z
" transform="scale(0.015625)"/>
        <path id="DejaVuSans-70" d="M 1159 525 
L 1159 -1331 
L 581 -1331 
L 581 3500 
L 1159 3500 
L 1159 2969 
Q 1341 3281 1617 3432 
Q 1894 3584 2278 3584 
Q 2916 3584 3314 3078 
Q 3713 2572 3713 1747 
Q 3713 922 3314 415 
Q 2916 -91 2278 -91 
Q 1894 -91 1617 61 
Q 1341 213 1159 525 
z
M 3116 1747 
Q 3116 2381 2855 2742 
Q 2594 3103 2138 3103 
Q 1681 3103 1420 2742 
Q 1159 2381 1159 1747 
Q 1159 1113 1420 752 
Q 1681 391 2138 391 
Q 2594 391 2855 752 
Q 3116 1113 3116 1747 
z
" transform="scale(0.015625)"/>
        <path id="DejaVuSans-75" d="M 544 1381 
L 544 3500 
L 1119 3500 
L 1119 1403 
Q 1119 906 1312 657 
Q 1506 409 1894 409 
Q 2359 409 2629 706 
Q 2900 1003 2900 1516 
L 2900 3500 
L 3475 3500 
L 3475 0 
L 2900 0 
L 2900 538 
Q 2691 219 2414 64 
Q 2138 -91 1772 -91 
Q 1169 -91 856 284 
Q 544 659 544 1381 
z
M 1991 3584 
L 1991 3584 
z
" transform="scale(0.015625)"/>
        <path id="DejaVuSans-73" d="M 2834 3397 
L 2834 2853 
Q 2591 2978 2328 3040 
Q 2066 3103 1784 3103 
Q 1356 3103 1142 2972 
Q 928 2841 928 2578 
Q 928 2378 1081 2264 
Q 1234 2150 1697 2047 
L 1894 2003 
Q 2506 1872 2764 1633 
Q 3022 1394 3022 966 
Q 3022 478 2636 193 
Q 2250 -91 1575 -91 
Q 1294 -91 989 -36 
Q 684 19 347 128 
L 347 722 
Q 666 556 975 473 
Q 1284 391 1588 391 
Q 1994 391 2212 530 
Q 2431 669 2431 922 
Q 2431 1156 2273 1281 
Q 2116 1406 1581 1522 
L 1381 1569 
Q 847 1681 609 1914 
Q 372 2147 372 2553 
Q 372 3047 722 3315 
Q 1072 3584 1716 3584 
Q 2034 3584 2315 3537 
Q 2597 3491 2834 3397 
z
" transform="scale(0.015625)"/>
        <path id="DejaVuSans-5f" d="M 3263 -1063 
L 3263 -1509 
L -63 -1509 
L -63 -1063 
L 3263 -1063 
z
" transform="scale(0.015625)"/>
        <path id="DejaVuSans-74" d="M 1172 4494 
L 1172 3500 
L 2356 3500 
L 2356 3053 
L 1172 3053 
L 1172 1153 
Q 1172 725 1289 603 
Q 1406 481 1766 481 
L 2356 481 
L 2356 0 
L 1766 0 
Q 1100 0 847 248 
Q 594 497 594 1153 
L 594 3053 
L 172 3053 
L 172 3500 
L 594 3500 
L 594 4494 
L 1172 4494 
z
" transform="scale(0.015625)"/>
        <path id="DejaVuSans-6f" d="M 1959 3097 
Q 1497 3097 1228 2736 
Q 959 2375 959 1747 
Q 959 1119 1226 758 
Q 1494 397 1959 397 
Q 2419 397 2687 759 
Q 2956 1122 2956 1747 
Q 2956 2369 2687 2733 
Q 2419 3097 1959 3097 
z
M 1959 3584 
Q 2709 3584 3137 3096 
Q 3566 2609 3566 1747 
Q 3566 888 3137 398 
Q 2709 -91 1959 -91 
Q 1206 -91 779 398 
Q 353 888 353 1747 
Q 353 2609 779 3096 
Q 1206 3584 1959 3584 
z
" transform="scale(0.015625)"/>
        <path id="DejaVuSans-33" d="M 2597 2516 
Q 3050 2419 3304 2112 
Q 3559 1806 3559 1356 
Q 3559 666 3084 287 
Q 2609 -91 1734 -91 
Q 1441 -91 1130 -33 
Q 819 25 488 141 
L 488 750 
Q 750 597 1062 519 
Q 1375 441 1716 441 
Q 2309 441 2620 675 
Q 2931 909 2931 1356 
Q 2931 1769 2642 2001 
Q 2353 2234 1838 2234 
L 1294 2234 
L 1294 2753 
L 1863 2753 
Q 2328 2753 2575 2939 
Q 2822 3125 2822 3475 
Q 2822 3834 2567 4026 
Q 2313 4219 1838 4219 
Q 1578 4219 1281 4162 
Q 984 4106 628 3988 
L 628 4550 
Q 988 4650 1302 4700 
Q 1616 4750 1894 4750 
Q 2613 4750 3031 4423 
Q 3450 4097 3450 3541 
Q 3450 3153 3228 2886 
Q 3006 2619 2597 2516 
z
" transform="scale(0.015625)"/>
       </defs>
       <use xlink:href="#DejaVuSans-61"/>
       <use xlink:href="#DejaVuSans-66" x="61.279297"/>
       <use xlink:href="#DejaVuSans-6c" x="96.484375"/>
       <use xlink:href="#DejaVuSans-70" x="124.267578"/>
       <use xlink:href="#DejaVuSans-6c" x="187.744141"/>
       <use xlink:href="#DejaVuSans-75" x="215.527344"/>
       <use xlink:href="#DejaVuSans-73" x="278.90625"/>
       <use xlink:href="#DejaVuSans-70" x="331.005859"/>
       <use xlink:href="#DejaVuSans-6c" x="394.482422"/>
       <use xlink:href="#DejaVuSans-75" x="422.265625"/>
       <use xlink:href="#DejaVuSans-73" x="485.644531"/>
       <use xlink:href="#DejaVuSans-5f" x="537.744141"/>
       <use xlink:href="#DejaVuSans-61" x="587.744141"/>
       <use xlink:href="#DejaVuSans-73" x="649.023438"/>
       <use xlink:href="#DejaVuSans-74" x="701.123047"/>
       <use xlink:href="#DejaVuSans-5f" x="740.332031"/>
       <use xlink:href="#DejaVuSans-6f" x="790.332031"/>
       <use xlink:href="#DejaVuSans-33" x="851.513672"/>
       <use xlink:href="#DejaVuSans-5f" x="915.136719"/>
       <use xlink:href="#DejaVuSans-6c" x="965.136719"/>
       <use xlink:href="#DejaVuSans-74" x="992.919922"/>
       <use xlink:href="#DejaVuSans-6f" x="1032.128906"/>
      </g>
     </g>
    </g>
    <g id="xtick_2">
     <g id="line2d_2">
      <g>
       <use xlink:href="#m5f316aab01" x="151.500412" y="288.430125" style="stroke: #000000; stroke-width: 0.8"/>
      </g>
     </g>
     <g id="text_2">
      <!-- aflplusplus_ast_f0 -->
      <g transform="translate(73.319669 346.467596)rotate(-30)scale(0.1 -0.1)">
       <defs>
        <path id="DejaVuSans-30" d="M 2034 4250 
Q 1547 4250 1301 3770 
Q 1056 3291 1056 2328 
Q 1056 1369 1301 889 
Q 1547 409 2034 409 
Q 2525 409 2770 889 
Q 3016 1369 3016 2328 
Q 3016 3291 2770 3770 
Q 2525 4250 2034 4250 
z
M 2034 4750 
Q 2819 4750 3233 4129 
Q 3647 3509 3647 2328 
Q 3647 1150 3233 529 
Q 2819 -91 2034 -91 
Q 1250 -91 836 529 
Q 422 1150 422 2328 
Q 422 3509 836 4129 
Q 1250 4750 2034 4750 
z
" transform="scale(0.015625)"/>
       </defs>
       <use xlink:href="#DejaVuSans-61"/>
       <use xlink:href="#DejaVuSans-66" x="61.279297"/>
       <use xlink:href="#DejaVuSans-6c" x="96.484375"/>
       <use xlink:href="#DejaVuSans-70" x="124.267578"/>
       <use xlink:href="#DejaVuSans-6c" x="187.744141"/>
       <use xlink:href="#DejaVuSans-75" x="215.527344"/>
       <use xlink:href="#DejaVuSans-73" x="278.90625"/>
       <use xlink:href="#DejaVuSans-70" x="331.005859"/>
       <use xlink:href="#DejaVuSans-6c" x="394.482422"/>
       <use xlink:href="#DejaVuSans-75" x="422.265625"/>
       <use xlink:href="#DejaVuSans-73" x="485.644531"/>
       <use xlink:href="#DejaVuSans-5f" x="537.744141"/>
       <use xlink:href="#DejaVuSans-61" x="587.744141"/>
       <use xlink:href="#DejaVuSans-73" x="649.023438"/>
       <use xlink:href="#DejaVuSans-74" x="701.123047"/>
       <use xlink:href="#DejaVuSans-5f" x="740.332031"/>
       <use xlink:href="#DejaVuSans-66" x="790.332031"/>
       <use xlink:href="#DejaVuSans-30" x="825.537109"/>
      </g>
     </g>
    </g>
    <g id="xtick_3">
     <g id="line2d_3">
      <g>
       <use xlink:href="#m5f316aab01" x="196.140412" y="288.430125" style="stroke: #000000; stroke-width: 0.8"/>
      </g>
     </g>
     <g id="text_3">
      <!-- aflplusplus_ast_f1 -->
      <g transform="translate(117.959669 346.467596)rotate(-30)scale(0.1 -0.1)">
       <defs>
        <path id="DejaVuSans-31" d="M 794 531 
L 1825 531 
L 1825 4091 
L 703 3866 
L 703 4441 
L 1819 4666 
L 2450 4666 
L 2450 531 
L 3481 531 
L 3481 0 
L 794 0 
L 794 531 
z
" transform="scale(0.015625)"/>
       </defs>
       <use xlink:href="#DejaVuSans-61"/>
       <use xlink:href="#DejaVuSans-66" x="61.279297"/>
       <use xlink:href="#DejaVuSans-6c" x="96.484375"/>
       <use xlink:href="#DejaVuSans-70" x="124.267578"/>
       <use xlink:href="#DejaVuSans-6c" x="187.744141"/>
       <use xlink:href="#DejaVuSans-75" x="215.527344"/>
       <use xlink:href="#DejaVuSans-73" x="278.90625"/>
       <use xlink:href="#DejaVuSans-70" x="331.005859"/>
       <use xlink:href="#DejaVuSans-6c" x="394.482422"/>
       <use xlink:href="#DejaVuSans-75" x="422.265625"/>
       <use xlink:href="#DejaVuSans-73" x="485.644531"/>
       <use xlink:href="#DejaVuSans-5f" x="537.744141"/>
       <use xlink:href="#DejaVuSans-61" x="587.744141"/>
       <use xlink:href="#DejaVuSans-73" x="649.023438"/>
       <use xlink:href="#DejaVuSans-74" x="701.123047"/>
       <use xlink:href="#DejaVuSans-5f" x="740.332031"/>
       <use xlink:href="#DejaVuSans-66" x="790.332031"/>
       <use xlink:href="#DejaVuSans-31" x="825.537109"/>
      </g>
     </g>
    </g>
    <g id="xtick_4">
     <g id="line2d_4">
      <g>
       <use xlink:href="#m5f316aab01" x="240.780412" y="288.430125" style="stroke: #000000; stroke-width: 0.8"/>
      </g>
     </g>
     <g id="text_4">
      <!-- aflplusplus_ast_o2 -->
      <g transform="translate(160.349356 347.766815)rotate(-30)scale(0.1 -0.1)">
       <defs>
        <path id="DejaVuSans-32" d="M 1228 531 
L 3431 531 
L 3431 0 
L 469 0 
L 469 531 
Q 828 903 1448 1529 
Q 2069 2156 2228 2338 
Q 2531 2678 2651 2914 
Q 2772 3150 2772 3378 
Q 2772 3750 2511 3984 
Q 2250 4219 1831 4219 
Q 1534 4219 1204 4116 
Q 875 4013 500 3803 
L 500 4441 
Q 881 4594 1212 4672 
Q 1544 4750 1819 4750 
Q 2544 4750 2975 4387 
Q 3406 4025 3406 3419 
Q 3406 3131 3298 2873 
Q 3191 2616 2906 2266 
Q 2828 2175 2409 1742 
Q 1991 1309 1228 531 
z
" transform="scale(0.015625)"/>
       </defs>
       <use xlink:href="#DejaVuSans-61"/>
       <use xlink:href="#DejaVuSans-66" x="61.279297"/>
       <use xlink:href="#DejaVuSans-6c" x="96.484375"/>
       <use xlink:href="#DejaVuSans-70" x="124.267578"/>
       <use xlink:href="#DejaVuSans-6c" x="187.744141"/>
       <use xlink:href="#DejaVuSans-75" x="215.527344"/>
       <use xlink:href="#DejaVuSans-73" x="278.90625"/>
       <use xlink:href="#DejaVuSans-70" x="331.005859"/>
       <use xlink:href="#DejaVuSans-6c" x="394.482422"/>
       <use xlink:href="#DejaVuSans-75" x="422.265625"/>
       <use xlink:href="#DejaVuSans-73" x="485.644531"/>
       <use xlink:href="#DejaVuSans-5f" x="537.744141"/>
       <use xlink:href="#DejaVuSans-61" x="587.744141"/>
       <use xlink:href="#DejaVuSans-73" x="649.023438"/>
       <use xlink:href="#DejaVuSans-74" x="701.123047"/>
       <use xlink:href="#DejaVuSans-5f" x="740.332031"/>
       <use xlink:href="#DejaVuSans-6f" x="790.332031"/>
       <use xlink:href="#DejaVuSans-32" x="851.513672"/>
      </g>
     </g>
    </g>
    <g id="xtick_5">
     <g id="line2d_5">
      <g>
       <use xlink:href="#m5f316aab01" x="285.420412" y="288.430125" style="stroke: #000000; stroke-width: 0.8"/>
      </g>
     </g>
     <g id="text_5">
      <!-- aflplusplus_ast_o3 -->
      <g transform="translate(204.989356 347.766815)rotate(-30)scale(0.1 -0.1)">
       <use xlink:href="#DejaVuSans-61"/>
       <use xlink:href="#DejaVuSans-66" x="61.279297"/>
       <use xlink:href="#DejaVuSans-6c" x="96.484375"/>
       <use xlink:href="#DejaVuSans-70" x="124.267578"/>
       <use xlink:href="#DejaVuSans-6c" x="187.744141"/>
       <use xlink:href="#DejaVuSans-75" x="215.527344"/>
       <use xlink:href="#DejaVuSans-73" x="278.90625"/>
       <use xlink:href="#DejaVuSans-70" x="331.005859"/>
       <use xlink:href="#DejaVuSans-6c" x="394.482422"/>
       <use xlink:href="#DejaVuSans-75" x="422.265625"/>
       <use xlink:href="#DejaVuSans-73" x="485.644531"/>
       <use xlink:href="#DejaVuSans-5f" x="537.744141"/>
       <use xlink:href="#DejaVuSans-61" x="587.744141"/>
       <use xlink:href="#DejaVuSans-73" x="649.023438"/>
       <use xlink:href="#DejaVuSans-74" x="701.123047"/>
       <use xlink:href="#DejaVuSans-5f" x="740.332031"/>
       <use xlink:href="#DejaVuSans-6f" x="790.332031"/>
       <use xlink:href="#DejaVuSans-33" x="851.513672"/>
      </g>
     </g>
    </g>
    <g id="xtick_6">
     <g id="line2d_6">
      <g>
       <use xlink:href="#m5f316aab01" x="330.060412" y="288.430125" style="stroke: #000000; stroke-width: 0.8"/>
      </g>
     </g>
     <g id="text_6">
      <!-- aflplusplus_ast_o0 -->
      <g transform="translate(249.629356 347.766815)rotate(-30)scale(0.1 -0.1)">
       <use xlink:href="#DejaVuSans-61"/>
       <use xlink:href="#DejaVuSans-66" x="61.279297"/>
       <use xlink:href="#DejaVuSans-6c" x="96.484375"/>
       <use xlink:href="#DejaVuSans-70" x="124.267578"/>
       <use xlink:href="#DejaVuSans-6c" x="187.744141"/>
       <use xlink:href="#DejaVuSans-75" x="215.527344"/>
       <use xlink:href="#DejaVuSans-73" x="278.90625"/>
       <use xlink:href="#DejaVuSans-70" x="331.005859"/>
       <use xlink:href="#DejaVuSans-6c" x="394.482422"/>
       <use xlink:href="#DejaVuSans-75" x="422.265625"/>
       <use xlink:href="#DejaVuSans-73" x="485.644531"/>
       <use xlink:href="#DejaVuSans-5f" x="537.744141"/>
       <use xlink:href="#DejaVuSans-61" x="587.744141"/>
       <use xlink:href="#DejaVuSans-73" x="649.023438"/>
       <use xlink:href="#DejaVuSans-74" x="701.123047"/>
       <use xlink:href="#DejaVuSans-5f" x="740.332031"/>
       <use xlink:href="#DejaVuSans-6f" x="790.332031"/>
       <use xlink:href="#DejaVuSans-30" x="851.513672"/>
      </g>
     </g>
    </g>
    <g id="xtick_7">
     <g id="line2d_7">
      <g>
       <use xlink:href="#m5f316aab01" x="374.700412" y="288.430125" style="stroke: #000000; stroke-width: 0.8"/>
      </g>
     </g>
     <g id="text_7">
      <!-- aflplusplus_ast_o1 -->
      <g transform="translate(294.269356 347.766815)rotate(-30)scale(0.1 -0.1)">
       <use xlink:href="#DejaVuSans-61"/>
       <use xlink:href="#DejaVuSans-66" x="61.279297"/>
       <use xlink:href="#DejaVuSans-6c" x="96.484375"/>
       <use xlink:href="#DejaVuSans-70" x="124.267578"/>
       <use xlink:href="#DejaVuSans-6c" x="187.744141"/>
       <use xlink:href="#DejaVuSans-75" x="215.527344"/>
       <use xlink:href="#DejaVuSans-73" x="278.90625"/>
       <use xlink:href="#DejaVuSans-70" x="331.005859"/>
       <use xlink:href="#DejaVuSans-6c" x="394.482422"/>
       <use xlink:href="#DejaVuSans-75" x="422.265625"/>
       <use xlink:href="#DejaVuSans-73" x="485.644531"/>
       <use xlink:href="#DejaVuSans-5f" x="537.744141"/>
       <use xlink:href="#DejaVuSans-61" x="587.744141"/>
       <use xlink:href="#DejaVuSans-73" x="649.023438"/>
       <use xlink:href="#DejaVuSans-74" x="701.123047"/>
       <use xlink:href="#DejaVuSans-5f" x="740.332031"/>
       <use xlink:href="#DejaVuSans-6f" x="790.332031"/>
       <use xlink:href="#DejaVuSans-31" x="851.513672"/>
      </g>
     </g>
    </g>
    <g id="xtick_8">
     <g id="line2d_8">
      <g>
       <use xlink:href="#m5f316aab01" x="419.340412" y="288.430125" style="stroke: #000000; stroke-width: 0.8"/>
      </g>
     </g>
     <g id="text_8">
      <!-- aflplusplus_ast_o3_native -->
      <g transform="translate(307.528113 365.884784)rotate(-30)scale(0.1 -0.1)">
       <defs>
        <path id="DejaVuSans-6e" d="M 3513 2113 
L 3513 0 
L 2938 0 
L 2938 2094 
Q 2938 2591 2744 2837 
Q 2550 3084 2163 3084 
Q 1697 3084 1428 2787 
Q 1159 2491 1159 1978 
L 1159 0 
L 581 0 
L 581 3500 
L 1159 3500 
L 1159 2956 
Q 1366 3272 1645 3428 
Q 1925 3584 2291 3584 
Q 2894 3584 3203 3211 
Q 3513 2838 3513 2113 
z
" transform="scale(0.015625)"/>
        <path id="DejaVuSans-69" d="M 603 3500 
L 1178 3500 
L 1178 0 
L 603 0 
L 603 3500 
z
M 603 4863 
L 1178 4863 
L 1178 4134 
L 603 4134 
L 603 4863 
z
" transform="scale(0.015625)"/>
        <path id="DejaVuSans-76" d="M 191 3500 
L 800 3500 
L 1894 563 
L 2988 3500 
L 3597 3500 
L 2284 0 
L 1503 0 
L 191 3500 
z
" transform="scale(0.015625)"/>
        <path id="DejaVuSans-65" d="M 3597 1894 
L 3597 1613 
L 953 1613 
Q 991 1019 1311 708 
Q 1631 397 2203 397 
Q 2534 397 2845 478 
Q 3156 559 3463 722 
L 3463 178 
Q 3153 47 2828 -22 
Q 2503 -91 2169 -91 
Q 1331 -91 842 396 
Q 353 884 353 1716 
Q 353 2575 817 3079 
Q 1281 3584 2069 3584 
Q 2775 3584 3186 3129 
Q 3597 2675 3597 1894 
z
M 3022 2063 
Q 3016 2534 2758 2815 
Q 2500 3097 2075 3097 
Q 1594 3097 1305 2825 
Q 1016 2553 972 2059 
L 3022 2063 
z
" transform="scale(0.015625)"/>
       </defs>
       <use xlink:href="#DejaVuSans-61"/>
       <use xlink:href="#DejaVuSans-66" x="61.279297"/>
       <use xlink:href="#DejaVuSans-6c" x="96.484375"/>
       <use xlink:href="#DejaVuSans-70" x="124.267578"/>
       <use xlink:href="#DejaVuSans-6c" x="187.744141"/>
       <use xlink:href="#DejaVuSans-75" x="215.527344"/>
       <use xlink:href="#DejaVuSans-73" x="278.90625"/>
       <use xlink:href="#DejaVuSans-70" x="331.005859"/>
       <use xlink:href="#DejaVuSans-6c" x="394.482422"/>
       <use xlink:href="#DejaVuSans-75" x="422.265625"/>
       <use xlink:href="#DejaVuSans-73" x="485.644531"/>
       <use xlink:href="#DejaVuSans-5f" x="537.744141"/>
       <use xlink:href="#DejaVuSans-61" x="587.744141"/>
       <use xlink:href="#DejaVuSans-73" x="649.023438"/>
       <use xlink:href="#DejaVuSans-74" x="701.123047"/>
       <use xlink:href="#DejaVuSans-5f" x="740.332031"/>
       <use xlink:href="#DejaVuSans-6f" x="790.332031"/>
       <use xlink:href="#DejaVuSans-33" x="851.513672"/>
       <use xlink:href="#DejaVuSans-5f" x="915.136719"/>
       <use xlink:href="#DejaVuSans-6e" x="965.136719"/>
       <use xlink:href="#DejaVuSans-61" x="1028.515625"/>
       <use xlink:href="#DejaVuSans-74" x="1089.794922"/>
       <use xlink:href="#DejaVuSans-69" x="1129.003906"/>
       <use xlink:href="#DejaVuSans-76" x="1156.787109"/>
       <use xlink:href="#DejaVuSans-65" x="1215.966797"/>
      </g>
     </g>
    </g>
    <g id="text_9">
     <!-- Fuzzer (highest median coverage on the left) -->
     <g transform="translate(150.482443 379.525147)scale(0.1 -0.1)">
      <defs>
       <path id="DejaVuSans-46" d="M 628 4666 
L 3309 4666 
L 3309 4134 
L 1259 4134 
L 1259 2759 
L 3109 2759 
L 3109 2228 
L 1259 2228 
L 1259 0 
L 628 0 
L 628 4666 
z
" transform="scale(0.015625)"/>
       <path id="DejaVuSans-7a" d="M 353 3500 
L 3084 3500 
L 3084 2975 
L 922 459 
L 3084 459 
L 3084 0 
L 275 0 
L 275 525 
L 2438 3041 
L 353 3041 
L 353 3500 
z
" transform="scale(0.015625)"/>
       <path id="DejaVuSans-72" d="M 2631 2963 
Q 2534 3019 2420 3045 
Q 2306 3072 2169 3072 
Q 1681 3072 1420 2755 
Q 1159 2438 1159 1844 
L 1159 0 
L 581 0 
L 581 3500 
L 1159 3500 
L 1159 2956 
Q 1341 3275 1631 3429 
Q 1922 3584 2338 3584 
Q 2397 3584 2469 3576 
Q 2541 3569 2628 3553 
L 2631 2963 
z
" transform="scale(0.015625)"/>
       <path id="DejaVuSans-20" transform="scale(0.015625)"/>
       <path id="DejaVuSans-28" d="M 1984 4856 
Q 1566 4138 1362 3434 
Q 1159 2731 1159 2009 
Q 1159 1288 1364 580 
Q 1569 -128 1984 -844 
L 1484 -844 
Q 1016 -109 783 600 
Q 550 1309 550 2009 
Q 550 2706 781 3412 
Q 1013 4119 1484 4856 
L 1984 4856 
z
" transform="scale(0.015625)"/>
       <path id="DejaVuSans-68" d="M 3513 2113 
L 3513 0 
L 2938 0 
L 2938 2094 
Q 2938 2591 2744 2837 
Q 2550 3084 2163 3084 
Q 1697 3084 1428 2787 
Q 1159 2491 1159 1978 
L 1159 0 
L 581 0 
L 581 4863 
L 1159 4863 
L 1159 2956 
Q 1366 3272 1645 3428 
Q 1925 3584 2291 3584 
Q 2894 3584 3203 3211 
Q 3513 2838 3513 2113 
z
" transform="scale(0.015625)"/>
       <path id="DejaVuSans-67" d="M 2906 1791 
Q 2906 2416 2648 2759 
Q 2391 3103 1925 3103 
Q 1463 3103 1205 2759 
Q 947 2416 947 1791 
Q 947 1169 1205 825 
Q 1463 481 1925 481 
Q 2391 481 2648 825 
Q 2906 1169 2906 1791 
z
M 3481 434 
Q 3481 -459 3084 -895 
Q 2688 -1331 1869 -1331 
Q 1566 -1331 1297 -1286 
Q 1028 -1241 775 -1147 
L 775 -588 
Q 1028 -725 1275 -790 
Q 1522 -856 1778 -856 
Q 2344 -856 2625 -561 
Q 2906 -266 2906 331 
L 2906 616 
Q 2728 306 2450 153 
Q 2172 0 1784 0 
Q 1141 0 747 490 
Q 353 981 353 1791 
Q 353 2603 747 3093 
Q 1141 3584 1784 3584 
Q 2172 3584 2450 3431 
Q 2728 3278 2906 2969 
L 2906 3500 
L 3481 3500 
L 3481 434 
z
" transform="scale(0.015625)"/>
       <path id="DejaVuSans-6d" d="M 3328 2828 
Q 3544 3216 3844 3400 
Q 4144 3584 4550 3584 
Q 5097 3584 5394 3201 
Q 5691 2819 5691 2113 
L 5691 0 
L 5113 0 
L 5113 2094 
Q 5113 2597 4934 2840 
Q 4756 3084 4391 3084 
Q 3944 3084 3684 2787 
Q 3425 2491 3425 1978 
L 3425 0 
L 2847 0 
L 2847 2094 
Q 2847 2600 2669 2842 
Q 2491 3084 2119 3084 
Q 1678 3084 1418 2786 
Q 1159 2488 1159 1978 
L 1159 0 
L 581 0 
L 581 3500 
L 1159 3500 
L 1159 2956 
Q 1356 3278 1631 3431 
Q 1906 3584 2284 3584 
Q 2666 3584 2933 3390 
Q 3200 3197 3328 2828 
z
" transform="scale(0.015625)"/>
       <path id="DejaVuSans-64" d="M 2906 2969 
L 2906 4863 
L 3481 4863 
L 3481 0 
L 2906 0 
L 2906 525 
Q 2725 213 2448 61 
Q 2172 -91 1784 -91 
Q 1150 -91 751 415 
Q 353 922 353 1747 
Q 353 2572 751 3078 
Q 1150 3584 1784 3584 
Q 2172 3584 2448 3432 
Q 2725 3281 2906 2969 
z
M 947 1747 
Q 947 1113 1208 752 
Q 1469 391 1925 391 
Q 2381 391 2643 752 
Q 2906 1113 2906 1747 
Q 2906 2381 2643 2742 
Q 2381 3103 1925 3103 
Q 1469 3103 1208 2742 
Q 947 2381 947 1747 
z
" transform="scale(0.015625)"/>
       <path id="DejaVuSans-63" d="M 3122 3366 
L 3122 2828 
Q 2878 2963 2633 3030 
Q 2388 3097 2138 3097 
Q 1578 3097 1268 2742 
Q 959 2388 959 1747 
Q 959 1106 1268 751 
Q 1578 397 2138 397 
Q 2388 397 2633 464 
Q 2878 531 3122 666 
L 3122 134 
Q 2881 22 2623 -34 
Q 2366 -91 2075 -91 
Q 1284 -91 818 406 
Q 353 903 353 1747 
Q 353 2603 823 3093 
Q 1294 3584 2113 3584 
Q 2378 3584 2631 3529 
Q 2884 3475 3122 3366 
z
" transform="scale(0.015625)"/>
       <path id="DejaVuSans-29" d="M 513 4856 
L 1013 4856 
Q 1481 4119 1714 3412 
Q 1947 2706 1947 2009 
Q 1947 1309 1714 600 
Q 1481 -109 1013 -844 
L 513 -844 
Q 928 -128 1133 580 
Q 1338 1288 1338 2009 
Q 1338 2731 1133 3434 
Q 928 4138 513 4856 
z
" transform="scale(0.015625)"/>
      </defs>
      <use xlink:href="#DejaVuSans-46"/>
      <use xlink:href="#DejaVuSans-75" x="52.019531"/>
      <use xlink:href="#DejaVuSans-7a" x="115.398438"/>
      <use xlink:href="#DejaVuSans-7a" x="167.888672"/>
      <use xlink:href="#DejaVuSans-65" x="220.378906"/>
      <use xlink:href="#DejaVuSans-72" x="281.902344"/>
      <use xlink:href="#DejaVuSans-20" x="323.015625"/>
      <use xlink:href="#DejaVuSans-28" x="354.802734"/>
      <use xlink:href="#DejaVuSans-68" x="393.816406"/>
      <use xlink:href="#DejaVuSans-69" x="457.195312"/>
      <use xlink:href="#DejaVuSans-67" x="484.978516"/>
      <use xlink:href="#DejaVuSans-68" x="548.455078"/>
      <use xlink:href="#DejaVuSans-65" x="611.833984"/>
      <use xlink:href="#DejaVuSans-73" x="673.357422"/>
      <use xlink:href="#DejaVuSans-74" x="725.457031"/>
      <use xlink:href="#DejaVuSans-20" x="764.666016"/>
      <use xlink:href="#DejaVuSans-6d" x="796.453125"/>
      <use xlink:href="#DejaVuSans-65" x="893.865234"/>
      <use xlink:href="#DejaVuSans-64" x="955.388672"/>
      <use xlink:href="#DejaVuSans-69" x="1018.865234"/>
      <use xlink:href="#DejaVuSans-61" x="1046.648438"/>
      <use xlink:href="#DejaVuSans-6e" x="1107.927734"/>
      <use xlink:href="#DejaVuSans-20" x="1171.306641"/>
      <use xlink:href="#DejaVuSans-63" x="1203.09375"/>
      <use xlink:href="#DejaVuSans-6f" x="1258.074219"/>
      <use xlink:href="#DejaVuSans-76" x="1319.255859"/>
      <use xlink:href="#DejaVuSans-65" x="1378.435547"/>
      <use xlink:href="#DejaVuSans-72" x="1439.958984"/>
      <use xlink:href="#DejaVuSans-61" x="1481.072266"/>
      <use xlink:href="#DejaVuSans-67" x="1542.351562"/>
      <use xlink:href="#DejaVuSans-65" x="1605.828125"/>
      <use xlink:href="#DejaVuSans-20" x="1667.351562"/>
      <use xlink:href="#DejaVuSans-6f" x="1699.138672"/>
      <use xlink:href="#DejaVuSans-6e" x="1760.320312"/>
      <use xlink:href="#DejaVuSans-20" x="1823.699219"/>
      <use xlink:href="#DejaVuSans-74" x="1855.486328"/>
      <use xlink:href="#DejaVuSans-68" x="1894.695312"/>
      <use xlink:href="#DejaVuSans-65" x="1958.074219"/>
      <use xlink:href="#DejaVuSans-20" x="2019.597656"/>
      <use xlink:href="#DejaVuSans-6c" x="2051.384766"/>
      <use xlink:href="#DejaVuSans-65" x="2079.167969"/>
      <use xlink:href="#DejaVuSans-66" x="2140.691406"/>
      <use xlink:href="#DejaVuSans-74" x="2174.146484"/>
      <use xlink:href="#DejaVuSans-29" x="2213.355469"/>
     </g>
    </g>
   </g>
   <g id="matplotlib.axis_2">
    <g id="ytick_1">
     <g id="line2d_9">
      <defs>
       <path id="m8d968bbd46" d="M 0 0 
L -3.5 0 
" style="stroke: #000000; stroke-width: 0.8"/>
      </defs>
      <g>
       <use xlink:href="#m8d968bbd46" x="84.540412" y="274.102685" style="stroke: #000000; stroke-width: 0.8"/>
      </g>
     </g>
     <g id="text_10">
      <!-- 2600 -->
      <g transform="translate(52.090412 277.901904)scale(0.1 -0.1)">
       <defs>
        <path id="DejaVuSans-36" d="M 2113 2584 
Q 1688 2584 1439 2293 
Q 1191 2003 1191 1497 
Q 1191 994 1439 701 
Q 1688 409 2113 409 
Q 2538 409 2786 701 
Q 3034 994 3034 1497 
Q 3034 2003 2786 2293 
Q 2538 2584 2113 2584 
z
M 3366 4563 
L 3366 3988 
Q 3128 4100 2886 4159 
Q 2644 4219 2406 4219 
Q 1781 4219 1451 3797 
Q 1122 3375 1075 2522 
Q 1259 2794 1537 2939 
Q 1816 3084 2150 3084 
Q 2853 3084 3261 2657 
Q 3669 2231 3669 1497 
Q 3669 778 3244 343 
Q 2819 -91 2113 -91 
Q 1303 -91 875 529 
Q 447 1150 447 2328 
Q 447 3434 972 4092 
Q 1497 4750 2381 4750 
Q 2619 4750 2861 4703 
Q 3103 4656 3366 4563 
z
" transform="scale(0.015625)"/>
       </defs>
       <use xlink:href="#DejaVuSans-32"/>
       <use xlink:href="#DejaVuSans-36" x="63.623047"/>
       <use xlink:href="#DejaVuSans-30" x="127.246094"/>
       <use xlink:href="#DejaVuSans-30" x="190.869141"/>
      </g>
     </g>
    </g>
    <g id="ytick_2">
     <g id="line2d_10">
      <g>
       <use xlink:href="#m8d968bbd46" x="84.540412" y="231.240389" style="stroke: #000000; stroke-width: 0.8"/>
      </g>
     </g>
     <g id="text_11">
      <!-- 2800 -->
      <g transform="translate(52.090412 235.039608)scale(0.1 -0.1)">
       <defs>
        <path id="DejaVuSans-38" d="M 2034 2216 
Q 1584 2216 1326 1975 
Q 1069 1734 1069 1313 
Q 1069 891 1326 650 
Q 1584 409 2034 409 
Q 2484 409 2743 651 
Q 3003 894 3003 1313 
Q 3003 1734 2745 1975 
Q 2488 2216 2034 2216 
z
M 1403 2484 
Q 997 2584 770 2862 
Q 544 3141 544 3541 
Q 544 4100 942 4425 
Q 1341 4750 2034 4750 
Q 2731 4750 3128 4425 
Q 3525 4100 3525 3541 
Q 3525 3141 3298 2862 
Q 3072 2584 2669 2484 
Q 3125 2378 3379 2068 
Q 3634 1759 3634 1313 
Q 3634 634 3220 271 
Q 2806 -91 2034 -91 
Q 1263 -91 848 271 
Q 434 634 434 1313 
Q 434 1759 690 2068 
Q 947 2378 1403 2484 
z
M 1172 3481 
Q 1172 3119 1398 2916 
Q 1625 2713 2034 2713 
Q 2441 2713 2670 2916 
Q 2900 3119 2900 3481 
Q 2900 3844 2670 4047 
Q 2441 4250 2034 4250 
Q 1625 4250 1398 4047 
Q 1172 3844 1172 3481 
z
" transform="scale(0.015625)"/>
       </defs>
       <use xlink:href="#DejaVuSans-32"/>
       <use xlink:href="#DejaVuSans-38" x="63.623047"/>
       <use xlink:href="#DejaVuSans-30" x="127.246094"/>
       <use xlink:href="#DejaVuSans-30" x="190.869141"/>
      </g>
     </g>
    </g>
    <g id="ytick_3">
     <g id="line2d_11">
      <g>
       <use xlink:href="#m8d968bbd46" x="84.540412" y="188.378093" style="stroke: #000000; stroke-width: 0.8"/>
      </g>
     </g>
     <g id="text_12">
      <!-- 3000 -->
      <g transform="translate(52.090412 192.177312)scale(0.1 -0.1)">
       <use xlink:href="#DejaVuSans-33"/>
       <use xlink:href="#DejaVuSans-30" x="63.623047"/>
       <use xlink:href="#DejaVuSans-30" x="127.246094"/>
       <use xlink:href="#DejaVuSans-30" x="190.869141"/>
      </g>
     </g>
    </g>
    <g id="ytick_4">
     <g id="line2d_12">
      <g>
       <use xlink:href="#m8d968bbd46" x="84.540412" y="145.515797" style="stroke: #000000; stroke-width: 0.8"/>
      </g>
     </g>
     <g id="text_13">
      <!-- 3200 -->
      <g transform="translate(52.090412 149.315016)scale(0.1 -0.1)">
       <use xlink:href="#DejaVuSans-33"/>
       <use xlink:href="#DejaVuSans-32" x="63.623047"/>
       <use xlink:href="#DejaVuSans-30" x="127.246094"/>
       <use xlink:href="#DejaVuSans-30" x="190.869141"/>
      </g>
     </g>
    </g>
    <g id="ytick_5">
     <g id="line2d_13">
      <g>
       <use xlink:href="#m8d968bbd46" x="84.540412" y="102.653501" style="stroke: #000000; stroke-width: 0.8"/>
      </g>
     </g>
     <g id="text_14">
      <!-- 3400 -->
      <g transform="translate(52.090412 106.45272)scale(0.1 -0.1)">
       <defs>
        <path id="DejaVuSans-34" d="M 2419 4116 
L 825 1625 
L 2419 1625 
L 2419 4116 
z
M 2253 4666 
L 3047 4666 
L 3047 1625 
L 3713 1625 
L 3713 1100 
L 3047 1100 
L 3047 0 
L 2419 0 
L 2419 1100 
L 313 1100 
L 313 1709 
L 2253 4666 
z
" transform="scale(0.015625)"/>
       </defs>
       <use xlink:href="#DejaVuSans-33"/>
       <use xlink:href="#DejaVuSans-34" x="63.623047"/>
       <use xlink:href="#DejaVuSans-30" x="127.246094"/>
       <use xlink:href="#DejaVuSans-30" x="190.869141"/>
      </g>
     </g>
    </g>
    <g id="ytick_6">
     <g id="line2d_14">
      <g>
       <use xlink:href="#m8d968bbd46" x="84.540412" y="59.791205" style="stroke: #000000; stroke-width: 0.8"/>
      </g>
     </g>
     <g id="text_15">
      <!-- 3600 -->
      <g transform="translate(52.090412 63.590423)scale(0.1 -0.1)">
       <use xlink:href="#DejaVuSans-33"/>
       <use xlink:href="#DejaVuSans-36" x="63.623047"/>
       <use xlink:href="#DejaVuSans-30" x="127.246094"/>
       <use xlink:href="#DejaVuSans-30" x="190.869141"/>
      </g>
     </g>
    </g>
    <g id="text_16">
     <!-- Reached region coverage -->
     <g transform="translate(46.010724 219.136625)rotate(-90)scale(0.1 -0.1)">
      <defs>
       <path id="DejaVuSans-52" d="M 2841 2188 
Q 3044 2119 3236 1894 
Q 3428 1669 3622 1275 
L 4263 0 
L 3584 0 
L 2988 1197 
Q 2756 1666 2539 1819 
Q 2322 1972 1947 1972 
L 1259 1972 
L 1259 0 
L 628 0 
L 628 4666 
L 2053 4666 
Q 2853 4666 3247 4331 
Q 3641 3997 3641 3322 
Q 3641 2881 3436 2590 
Q 3231 2300 2841 2188 
z
M 1259 4147 
L 1259 2491 
L 2053 2491 
Q 2509 2491 2742 2702 
Q 2975 2913 2975 3322 
Q 2975 3731 2742 3939 
Q 2509 4147 2053 4147 
L 1259 4147 
z
" transform="scale(0.015625)"/>
      </defs>
      <use xlink:href="#DejaVuSans-52"/>
      <use xlink:href="#DejaVuSans-65" x="64.982422"/>
      <use xlink:href="#DejaVuSans-61" x="126.505859"/>
      <use xlink:href="#DejaVuSans-63" x="187.785156"/>
      <use xlink:href="#DejaVuSans-68" x="242.765625"/>
      <use xlink:href="#DejaVuSans-65" x="306.144531"/>
      <use xlink:href="#DejaVuSans-64" x="367.667969"/>
      <use xlink:href="#DejaVuSans-20" x="431.144531"/>
      <use xlink:href="#DejaVuSans-72" x="462.931641"/>
      <use xlink:href="#DejaVuSans-65" x="501.794922"/>
      <use xlink:href="#DejaVuSans-67" x="563.318359"/>
      <use xlink:href="#DejaVuSans-69" x="626.794922"/>
      <use xlink:href="#DejaVuSans-6f" x="654.578125"/>
      <use xlink:href="#DejaVuSans-6e" x="715.759766"/>
      <use xlink:href="#DejaVuSans-20" x="779.138672"/>
      <use xlink:href="#DejaVuSans-63" x="810.925781"/>
      <use xlink:href="#DejaVuSans-6f" x="865.90625"/>
      <use xlink:href="#DejaVuSans-76" x="927.087891"/>
      <use xlink:href="#DejaVuSans-65" x="986.267578"/>
      <use xlink:href="#DejaVuSans-72" x="1047.791016"/>
      <use xlink:href="#DejaVuSans-61" x="1088.904297"/>
      <use xlink:href="#DejaVuSans-67" x="1150.183594"/>
      <use xlink:href="#DejaVuSans-65" x="1213.660156"/>
     </g>
    </g>
   </g>
   <g id="line2d_15">
    <path d="M 106.860412 184.306175 
L 106.860412 113.369075 
" clip-path="url(#p8b88e9c786)" style="fill: none; stroke: #3f3f3f; stroke-width: 1.5; stroke-linecap: square"/>
   </g>
   <g id="line2d_16">
    <path d="M 106.860412 149.159092 
L 106.860412 113.690542 
" clip-path="url(#p8b88e9c786)" style="fill: none; stroke: #3f3f3f; stroke-width: 4.5; stroke-linecap: square"/>
   </g>
   <g id="line2d_17">
    <path d="M 151.500412 115.51219 
L 151.500412 109.72578 
" clip-path="url(#p8b88e9c786)" style="fill: none; stroke: #3f3f3f; stroke-width: 1.5; stroke-linecap: square"/>
   </g>
   <g id="line2d_18">
    <path d="M 151.500412 114.869255 
L 151.500412 111.97605 
" clip-path="url(#p8b88e9c786)" style="fill: none; stroke: #3f3f3f; stroke-width: 4.5; stroke-linecap: square"/>
   </g>
   <g id="line2d_19">
    <path d="M 196.140412 115.726501 
L 196.140412 111.011649 
" clip-path="url(#p8b88e9c786)" style="fill: none; stroke: #3f3f3f; stroke-width: 1.5; stroke-linecap: square"/>
   </g>
   <g id="line2d_20">
    <path d="M 196.140412 115.083567 
L 196.140412 112.72614 
" clip-path="url(#p8b88e9c786)" style="fill: none; stroke: #3f3f3f; stroke-width: 4.5; stroke-linecap: square"/>
   </g>
   <g id="line2d_21">
    <path d="M 240.780412 209.166307 
L 240.780412 101.581943 
" clip-path="url(#p8b88e9c786)" style="fill: none; stroke: #3f3f3f; stroke-width: 1.5; stroke-linecap: square"/>
   </g>
   <g id="line2d_22">
    <path d="M 240.780412 189.878273 
L 240.780412 112.618985 
" clip-path="url(#p8b88e9c786)" style="fill: none; stroke: #3f3f3f; stroke-width: 4.5; stroke-linecap: square"/>
   </g>
   <g id="line2d_23">
    <path d="M 285.420412 191.378454 
L 285.420412 114.869255 
" clip-path="url(#p8b88e9c786)" style="fill: none; stroke: #3f3f3f; stroke-width: 1.5; stroke-linecap: square"/>
   </g>
   <g id="line2d_24">
    <path d="M 285.420412 186.610023 
L 285.420412 130.781883 
" clip-path="url(#p8b88e9c786)" style="fill: none; stroke: #3f3f3f; stroke-width: 4.5; stroke-linecap: square"/>
   </g>
   <g id="line2d_25">
    <path d="M 330.060412 185.377732 
L 330.060412 108.439911 
" clip-path="url(#p8b88e9c786)" style="fill: none; stroke: #3f3f3f; stroke-width: 1.5; stroke-linecap: square"/>
   </g>
   <g id="line2d_26">
    <path d="M 330.060412 183.609663 
L 330.060412 127.674366 
" clip-path="url(#p8b88e9c786)" style="fill: none; stroke: #3f3f3f; stroke-width: 4.5; stroke-linecap: square"/>
   </g>
   <g id="line2d_27">
    <path d="M 374.700412 190.949831 
L 374.700412 114.012009 
" clip-path="url(#p8b88e9c786)" style="fill: none; stroke: #3f3f3f; stroke-width: 1.5; stroke-linecap: square"/>
   </g>
   <g id="line2d_28">
    <path d="M 374.700412 187.145802 
L 374.700412 131.692706 
" clip-path="url(#p8b88e9c786)" style="fill: none; stroke: #3f3f3f; stroke-width: 4.5; stroke-linecap: square"/>
   </g>
   <g id="line2d_29">
    <path d="M 419.340412 190.306896 
L 419.340412 115.083567 
" clip-path="url(#p8b88e9c786)" style="fill: none; stroke: #3f3f3f; stroke-width: 1.5; stroke-linecap: square"/>
   </g>
   <g id="line2d_30">
    <path d="M 419.340412 189.878273 
L 419.340412 152.266609 
" clip-path="url(#p8b88e9c786)" style="fill: none; stroke: #3f3f3f; stroke-width: 4.5; stroke-linecap: square"/>
   </g>
   <g id="patch_3">
    <path d="M 84.540412 274.102685 
L 84.540412 59.791205 
" style="fill: none; stroke: #000000; stroke-width: 0.8; stroke-linejoin: miter; stroke-linecap: square"/>
   </g>
   <g id="patch_4">
    <path d="M 106.860412 288.430125 
L 419.340412 288.430125 
" style="fill: none; stroke: #000000; stroke-width: 0.8; stroke-linejoin: miter; stroke-linecap: square"/>
   </g>
   <g id="PathCollection_1">
    <defs>
     <path id="mb70b73d879" d="M 0 1.5 
C 0.397805 1.5 0.77937 1.341951 1.06066 1.06066 
C 1.341951 0.77937 1.5 0.397805 1.5 0 
C 1.5 -0.397805 1.341951 -0.77937 1.06066 -1.06066 
C 0.77937 -1.341951 0.397805 -1.5 0 -1.5 
C -0.397805 -1.5 -0.77937 -1.341951 -1.06066 -1.06066 
C -1.341951 -0.77937 -1.5 -0.397805 -1.5 0 
C -1.5 0.397805 -1.341951 0.77937 -1.06066 1.06066 
C -0.77937 1.341951 -0.397805 1.5 0 1.5 
z
" style="stroke: #3f3f3f"/>
    </defs>
    <g clip-path="url(#p8b88e9c786)">
     <use xlink:href="#mb70b73d879" x="106.860412" y="114.012009" style="fill: #ffffff; stroke: #3f3f3f"/>
    </g>
   </g>
   <g id="PathCollection_2">
    <g clip-path="url(#p8b88e9c786)">
     <use xlink:href="#mb70b73d879" x="151.500412" y="114.226321" style="fill: #ffffff; stroke: #3f3f3f"/>
    </g>
   </g>
   <g id="PathCollection_3">
    <g clip-path="url(#p8b88e9c786)">
     <use xlink:href="#mb70b73d879" x="196.140412" y="114.226321" style="fill: #ffffff; stroke: #3f3f3f"/>
    </g>
   </g>
   <g id="PathCollection_4">
    <g clip-path="url(#p8b88e9c786)">
     <use xlink:href="#mb70b73d879" x="240.780412" y="150.444961" style="fill: #ffffff; stroke: #3f3f3f"/>
    </g>
   </g>
   <g id="PathCollection_5">
    <g clip-path="url(#p8b88e9c786)">
     <use xlink:href="#mb70b73d879" x="285.420412" y="180.877191" style="fill: #ffffff; stroke: #3f3f3f"/>
    </g>
   </g>
   <g id="PathCollection_6">
    <g clip-path="url(#p8b88e9c786)">
     <use xlink:href="#mb70b73d879" x="330.060412" y="181.198658" style="fill: #ffffff; stroke: #3f3f3f"/>
    </g>
   </g>
   <g id="PathCollection_7">
    <g clip-path="url(#p8b88e9c786)">
     <use xlink:href="#mb70b73d879" x="374.700412" y="184.091863" style="fill: #ffffff; stroke: #3f3f3f"/>
    </g>
   </g>
   <g id="PathCollection_8">
    <g clip-path="url(#p8b88e9c786)">
     <use xlink:href="#mb70b73d879" x="419.340412" y="189.44965" style="fill: #ffffff; stroke: #3f3f3f"/>
    </g>
   </g>
   <g id="text_17">
    <!-- libjpeg-turbo-07-2017 (4h:15m, 3 trials/fuzzer) -->
    <g transform="translate(122.772599 16.318125)scale(0.12 -0.12)">
     <defs>
      <path id="DejaVuSans-62" d="M 3116 1747 
Q 3116 2381 2855 2742 
Q 2594 3103 2138 3103 
Q 1681 3103 1420 2742 
Q 1159 2381 1159 1747 
Q 1159 1113 1420 752 
Q 1681 391 2138 391 
Q 2594 391 2855 752 
Q 3116 1113 3116 1747 
z
M 1159 2969 
Q 1341 3281 1617 3432 
Q 1894 3584 2278 3584 
Q 2916 3584 3314 3078 
Q 3713 2572 3713 1747 
Q 3713 922 3314 415 
Q 2916 -91 2278 -91 
Q 1894 -91 1617 61 
Q 1341 213 1159 525 
L 1159 0 
L 581 0 
L 581 4863 
L 1159 4863 
L 1159 2969 
z
" transform="scale(0.015625)"/>
      <path id="DejaVuSans-6a" d="M 603 3500 
L 1178 3500 
L 1178 -63 
Q 1178 -731 923 -1031 
Q 669 -1331 103 -1331 
L -116 -1331 
L -116 -844 
L 38 -844 
Q 366 -844 484 -692 
Q 603 -541 603 -63 
L 603 3500 
z
M 603 4863 
L 1178 4863 
L 1178 4134 
L 603 4134 
L 603 4863 
z
" transform="scale(0.015625)"/>
      <path id="DejaVuSans-2d" d="M 313 2009 
L 1997 2009 
L 1997 1497 
L 313 1497 
L 313 2009 
z
" transform="scale(0.015625)"/>
      <path id="DejaVuSans-37" d="M 525 4666 
L 3525 4666 
L 3525 4397 
L 1831 0 
L 1172 0 
L 2766 4134 
L 525 4134 
L 525 4666 
z
" transform="scale(0.015625)"/>
      <path id="DejaVuSans-3a" d="M 750 794 
L 1409 794 
L 1409 0 
L 750 0 
L 750 794 
z
M 750 3309 
L 1409 3309 
L 1409 2516 
L 750 2516 
L 750 3309 
z
" transform="scale(0.015625)"/>
      <path id="DejaVuSans-35" d="M 691 4666 
L 3169 4666 
L 3169 4134 
L 1269 4134 
L 1269 2991 
Q 1406 3038 1543 3061 
Q 1681 3084 1819 3084 
Q 2600 3084 3056 2656 
Q 3513 2228 3513 1497 
Q 3513 744 3044 326 
Q 2575 -91 1722 -91 
Q 1428 -91 1123 -41 
Q 819 9 494 109 
L 494 744 
Q 775 591 1075 516 
Q 1375 441 1709 441 
Q 2250 441 2565 725 
Q 2881 1009 2881 1497 
Q 2881 1984 2565 2268 
Q 2250 2553 1709 2553 
Q 1456 2553 1204 2497 
Q 953 2441 691 2322 
L 691 4666 
z
" transform="scale(0.015625)"/>
      <path id="DejaVuSans-2c" d="M 750 794 
L 1409 794 
L 1409 256 
L 897 -744 
L 494 -744 
L 750 256 
L 750 794 
z
" transform="scale(0.015625)"/>
      <path id="DejaVuSans-2f" d="M 1625 4666 
L 2156 4666 
L 531 -594 
L 0 -594 
L 1625 4666 
z
" transform="scale(0.015625)"/>
     </defs>
     <use xlink:href="#DejaVuSans-6c"/>
     <use xlink:href="#DejaVuSans-69" x="27.783203"/>
     <use xlink:href="#DejaVuSans-62" x="55.566406"/>
     <use xlink:href="#DejaVuSans-6a" x="119.042969"/>
     <use xlink:href="#DejaVuSans-70" x="146.826172"/>
     <use xlink:href="#DejaVuSans-65" x="210.302734"/>
     <use xlink:href="#DejaVuSans-67" x="271.826172"/>
     <use xlink:href="#DejaVuSans-2d" x="335.302734"/>
     <use xlink:href="#DejaVuSans-74" x="371.386719"/>
     <use xlink:href="#DejaVuSans-75" x="410.595703"/>
     <use xlink:href="#DejaVuSans-72" x="473.974609"/>
     <use xlink:href="#DejaVuSans-62" x="515.087891"/>
     <use xlink:href="#DejaVuSans-6f" x="578.564453"/>
     <use xlink:href="#DejaVuSans-2d" x="641.621094"/>
     <use xlink:href="#DejaVuSans-30" x="677.705078"/>
     <use xlink:href="#DejaVuSans-37" x="741.328125"/>
     <use xlink:href="#DejaVuSans-2d" x="804.951172"/>
     <use xlink:href="#DejaVuSans-32" x="841.035156"/>
     <use xlink:href="#DejaVuSans-30" x="904.658203"/>
     <use xlink:href="#DejaVuSans-31" x="968.28125"/>
     <use xlink:href="#DejaVuSans-37" x="1031.904297"/>
     <use xlink:href="#DejaVuSans-20" x="1095.527344"/>
     <use xlink:href="#DejaVuSans-28" x="1127.314453"/>
     <use xlink:href="#DejaVuSans-34" x="1166.328125"/>
     <use xlink:href="#DejaVuSans-68" x="1229.951172"/>
     <use xlink:href="#DejaVuSans-3a" x="1293.330078"/>
     <use xlink:href="#DejaVuSans-31" x="1327.021484"/>
     <use xlink:href="#DejaVuSans-35" x="1390.644531"/>
     <use xlink:href="#DejaVuSans-6d" x="1454.267578"/>
     <use xlink:href="#DejaVuSans-2c" x="1551.679688"/>
     <use xlink:href="#DejaVuSans-20" x="1583.466797"/>
     <use xlink:href="#DejaVuSans-33" x="1615.253906"/>
     <use xlink:href="#DejaVuSans-20" x="1678.876953"/>
     <use xlink:href="#DejaVuSans-74" x="1710.664062"/>
     <use xlink:href="#DejaVuSans-72" x="1749.873047"/>
     <use xlink:href="#DejaVuSans-69" x="1790.986328"/>
     <use xlink:href="#DejaVuSans-61" x="1818.769531"/>
     <use xlink:href="#DejaVuSans-6c" x="1880.048828"/>
     <use xlink:href="#DejaVuSans-73" x="1907.832031"/>
     <use xlink:href="#DejaVuSans-2f" x="1959.931641"/>
     <use xlink:href="#DejaVuSans-66" x="1993.623047"/>
     <use xlink:href="#DejaVuSans-75" x="2028.828125"/>
     <use xlink:href="#DejaVuSans-7a" x="2092.207031"/>
     <use xlink:href="#DejaVuSans-7a" x="2144.697266"/>
     <use xlink:href="#DejaVuSans-65" x="2197.1875"/>
     <use xlink:href="#DejaVuSans-72" x="2258.710938"/>
     <use xlink:href="#DejaVuSans-29" x="2299.824219"/>
    </g>
   </g>
  </g>
 </g>
 <defs>
  <clipPath id="p8b88e9c786">
   <rect x="84.540412" y="22.318125" width="357.12" height="266.112"/>
  </clipPath>
 </defs>
</svg>
