<?xml version="1.0" encoding="utf-8" standalone="no"?>
<!DOCTYPE svg PUBLIC "-//W3C//DTD SVG 1.1//EN"
  "http://www.w3.org/Graphics/SVG/1.1/DTD/svg11.dtd">
<svg xmlns:xlink="http://www.w3.org/1999/xlink" width="427.18875pt" height="316.30825pt" viewBox="0 0 427.18875 316.30825" xmlns="http://www.w3.org/2000/svg" version="1.1">
 <metadata>
  <rdf:RDF xmlns:dc="http://purl.org/dc/elements/1.1/" xmlns:cc="http://creativecommons.org/ns#" xmlns:rdf="http://www.w3.org/1999/02/22-rdf-syntax-ns#">
   <cc:Work>
    <dc:type rdf:resource="http://purl.org/dc/dcmitype/StillImage"/>
    <dc:date>2022-06-05T15:49:41.233078</dc:date>
    <dc:format>image/svg+xml</dc:format>
    <dc:creator>
     <cc:Agent>
      <dc:title>Matplotlib v3.5.1, https://matplotlib.org/</dc:title>
     </cc:Agent>
    </dc:creator>
   </cc:Work>
  </rdf:RDF>
 </metadata>
 <defs>
  <style type="text/css">*{stroke-linejoin: round; stroke-linecap: butt}</style>
 </defs>
 <g id="figure_1">
  <g id="patch_1">
   <path d="M 0 316.30825 
L 427.18875 316.30825 
L 427.18875 0 
L 0 0 
z
" style="fill: #ffffff"/>
  </g>
  <g id="axes_1">
   <g id="patch_2">
    <path d="M 62.86875 288.430125 
L 419.98875 288.430125 
L 419.98875 22.318125 
L 62.86875 22.318125 
z
" style="fill: #ffffff"/>
   </g>
   <g id="matplotlib.axis_1">
    <g id="xtick_1">
     <g id="line2d_1">
      <defs>
       <path id="mc63ea26fc2" d="M 0 0 
L 0 3.5 
" style="stroke: #000000; stroke-width: 0.8"/>
      </defs>
      <g>
       <use xlink:href="#mc63ea26fc2" x="87.553998" y="288.430125" style="stroke: #000000; stroke-width: 0.8"/>
      </g>
     </g>
    </g>
    <g id="xtick_2">
     <g id="line2d_2">
      <g>
       <use xlink:href="#mc63ea26fc2" x="153.70908" y="288.430125" style="stroke: #000000; stroke-width: 0.8"/>
      </g>
     </g>
    </g>
    <g id="xtick_3">
     <g id="line2d_3">
      <g>
       <use xlink:href="#mc63ea26fc2" x="219.864162" y="288.430125" style="stroke: #000000; stroke-width: 0.8"/>
      </g>
     </g>
    </g>
    <g id="xtick_4">
     <g id="line2d_4">
      <g>
       <use xlink:href="#mc63ea26fc2" x="286.019243" y="288.430125" style="stroke: #000000; stroke-width: 0.8"/>
      </g>
     </g>
    </g>
    <g id="xtick_5">
     <g id="line2d_5">
      <g>
       <use xlink:href="#mc63ea26fc2" x="352.174325" y="288.430125" style="stroke: #000000; stroke-width: 0.8"/>
      </g>
     </g>
    </g>
    <g id="xtick_6">
     <g id="line2d_6">
      <g>
       <use xlink:href="#mc63ea26fc2" x="418.329406" y="288.430125" style="stroke: #000000; stroke-width: 0.8"/>
      </g>
     </g>
    </g>
    <g id="text_1">
     <!-- Code region coverage -->
     <g transform="translate(186.423281 307.028562)scale(0.1 -0.1)">
      <defs>
       <path id="DejaVuSans-43" d="M 4122 4306 
L 4122 3641 
Q 3803 3938 3442 4084 
Q 3081 4231 2675 4231 
Q 1875 4231 1450 3742 
Q 1025 3253 1025 2328 
Q 1025 1406 1450 917 
Q 1875 428 2675 428 
Q 3081 428 3442 575 
Q 3803 722 4122 1019 
L 4122 359 
Q 3791 134 3420 21 
Q 3050 -91 2638 -91 
Q 1578 -91 968 557 
Q 359 1206 359 2328 
Q 359 3453 968 4101 
Q 1578 4750 2638 4750 
Q 3056 4750 3426 4639 
Q 3797 4528 4122 4306 
z
" transform="scale(0.015625)"/>
       <path id="DejaVuSans-6f" d="M 1959 3097 
Q 1497 3097 1228 2736 
Q 959 2375 959 1747 
Q 959 1119 1226 758 
Q 1494 397 1959 397 
Q 2419 397 2687 759 
Q 2956 1122 2956 1747 
Q 2956 2369 2687 2733 
Q 2419 3097 1959 3097 
z
M 1959 3584 
Q 2709 3584 3137 3096 
Q 3566 2609 3566 1747 
Q 3566 888 3137 398 
Q 2709 -91 1959 -91 
Q 1206 -91 779 398 
Q 353 888 353 1747 
Q 353 2609 779 3096 
Q 1206 3584 1959 3584 
z
" transform="scale(0.015625)"/>
       <path id="DejaVuSans-64" d="M 2906 2969 
L 2906 4863 
L 3481 4863 
L 3481 0 
L 2906 0 
L 2906 525 
Q 2725 213 2448 61 
Q 2172 -91 1784 -91 
Q 1150 -91 751 415 
Q 353 922 353 1747 
Q 353 2572 751 3078 
Q 1150 3584 1784 3584 
Q 2172 3584 2448 3432 
Q 2725 3281 2906 2969 
z
M 947 1747 
Q 947 1113 1208 752 
Q 1469 391 1925 391 
Q 2381 391 2643 752 
Q 2906 1113 2906 1747 
Q 2906 2381 2643 2742 
Q 2381 3103 1925 3103 
Q 1469 3103 1208 2742 
Q 947 2381 947 1747 
z
" transform="scale(0.015625)"/>
       <path id="DejaVuSans-65" d="M 3597 1894 
L 3597 1613 
L 953 1613 
Q 991 1019 1311 708 
Q 1631 397 2203 397 
Q 2534 397 2845 478 
Q 3156 559 3463 722 
L 3463 178 
Q 3153 47 2828 -22 
Q 2503 -91 2169 -91 
Q 1331 -91 842 396 
Q 353 884 353 1716 
Q 353 2575 817 3079 
Q 1281 3584 2069 3584 
Q 2775 3584 3186 3129 
Q 3597 2675 3597 1894 
z
M 3022 2063 
Q 3016 2534 2758 2815 
Q 2500 3097 2075 3097 
Q 1594 3097 1305 2825 
Q 1016 2553 972 2059 
L 3022 2063 
z
" transform="scale(0.015625)"/>
       <path id="DejaVuSans-20" transform="scale(0.015625)"/>
       <path id="DejaVuSans-72" d="M 2631 2963 
Q 2534 3019 2420 3045 
Q 2306 3072 2169 3072 
Q 1681 3072 1420 2755 
Q 1159 2438 1159 1844 
L 1159 0 
L 581 0 
L 581 3500 
L 1159 3500 
L 1159 2956 
Q 1341 3275 1631 3429 
Q 1922 3584 2338 3584 
Q 2397 3584 2469 3576 
Q 2541 3569 2628 3553 
L 2631 2963 
z
" transform="scale(0.015625)"/>
       <path id="DejaVuSans-67" d="M 2906 1791 
Q 2906 2416 2648 2759 
Q 2391 3103 1925 3103 
Q 1463 3103 1205 2759 
Q 947 2416 947 1791 
Q 947 1169 1205 825 
Q 1463 481 1925 481 
Q 2391 481 2648 825 
Q 2906 1169 2906 1791 
z
M 3481 434 
Q 3481 -459 3084 -895 
Q 2688 -1331 1869 -1331 
Q 1566 -1331 1297 -1286 
Q 1028 -1241 775 -1147 
L 775 -588 
Q 1028 -725 1275 -790 
Q 1522 -856 1778 -856 
Q 2344 -856 2625 -561 
Q 2906 -266 2906 331 
L 2906 616 
Q 2728 306 2450 153 
Q 2172 0 1784 0 
Q 1141 0 747 490 
Q 353 981 353 1791 
Q 353 2603 747 3093 
Q 1141 3584 1784 3584 
Q 2172 3584 2450 3431 
Q 2728 3278 2906 2969 
L 2906 3500 
L 3481 3500 
L 3481 434 
z
" transform="scale(0.015625)"/>
       <path id="DejaVuSans-69" d="M 603 3500 
L 1178 3500 
L 1178 0 
L 603 0 
L 603 3500 
z
M 603 4863 
L 1178 4863 
L 1178 4134 
L 603 4134 
L 603 4863 
z
" transform="scale(0.015625)"/>
       <path id="DejaVuSans-6e" d="M 3513 2113 
L 3513 0 
L 2938 0 
L 2938 2094 
Q 2938 2591 2744 2837 
Q 2550 3084 2163 3084 
Q 1697 3084 1428 2787 
Q 1159 2491 1159 1978 
L 1159 0 
L 581 0 
L 581 3500 
L 1159 3500 
L 1159 2956 
Q 1366 3272 1645 3428 
Q 1925 3584 2291 3584 
Q 2894 3584 3203 3211 
Q 3513 2838 3513 2113 
z
" transform="scale(0.015625)"/>
       <path id="DejaVuSans-63" d="M 3122 3366 
L 3122 2828 
Q 2878 2963 2633 3030 
Q 2388 3097 2138 3097 
Q 1578 3097 1268 2742 
Q 959 2388 959 1747 
Q 959 1106 1268 751 
Q 1578 397 2138 397 
Q 2388 397 2633 464 
Q 2878 531 3122 666 
L 3122 134 
Q 2881 22 2623 -34 
Q 2366 -91 2075 -91 
Q 1284 -91 818 406 
Q 353 903 353 1747 
Q 353 2603 823 3093 
Q 1294 3584 2113 3584 
Q 2378 3584 2631 3529 
Q 2884 3475 3122 3366 
z
" transform="scale(0.015625)"/>
       <path id="DejaVuSans-76" d="M 191 3500 
L 800 3500 
L 1894 563 
L 2988 3500 
L 3597 3500 
L 2284 0 
L 1503 0 
L 191 3500 
z
" transform="scale(0.015625)"/>
       <path id="DejaVuSans-61" d="M 2194 1759 
Q 1497 1759 1228 1600 
Q 959 1441 959 1056 
Q 959 750 1161 570 
Q 1363 391 1709 391 
Q 2188 391 2477 730 
Q 2766 1069 2766 1631 
L 2766 1759 
L 2194 1759 
z
M 3341 1997 
L 3341 0 
L 2766 0 
L 2766 531 
Q 2569 213 2275 61 
Q 1981 -91 1556 -91 
Q 1019 -91 701 211 
Q 384 513 384 1019 
Q 384 1609 779 1909 
Q 1175 2209 1959 2209 
L 2766 2209 
L 2766 2266 
Q 2766 2663 2505 2880 
Q 2244 3097 1772 3097 
Q 1472 3097 1187 3025 
Q 903 2953 641 2809 
L 641 3341 
Q 956 3463 1253 3523 
Q 1550 3584 1831 3584 
Q 2591 3584 2966 3190 
Q 3341 2797 3341 1997 
z
" transform="scale(0.015625)"/>
      </defs>
      <use xlink:href="#DejaVuSans-43"/>
      <use xlink:href="#DejaVuSans-6f" x="69.824219"/>
      <use xlink:href="#DejaVuSans-64" x="131.005859"/>
      <use xlink:href="#DejaVuSans-65" x="194.482422"/>
      <use xlink:href="#DejaVuSans-20" x="256.005859"/>
      <use xlink:href="#DejaVuSans-72" x="287.792969"/>
      <use xlink:href="#DejaVuSans-65" x="326.65625"/>
      <use xlink:href="#DejaVuSans-67" x="388.179688"/>
      <use xlink:href="#DejaVuSans-69" x="451.65625"/>
      <use xlink:href="#DejaVuSans-6f" x="479.439453"/>
      <use xlink:href="#DejaVuSans-6e" x="540.621094"/>
      <use xlink:href="#DejaVuSans-20" x="604"/>
      <use xlink:href="#DejaVuSans-63" x="635.787109"/>
      <use xlink:href="#DejaVuSans-6f" x="690.767578"/>
      <use xlink:href="#DejaVuSans-76" x="751.949219"/>
      <use xlink:href="#DejaVuSans-65" x="811.128906"/>
      <use xlink:href="#DejaVuSans-72" x="872.652344"/>
      <use xlink:href="#DejaVuSans-61" x="913.765625"/>
      <use xlink:href="#DejaVuSans-67" x="975.044922"/>
      <use xlink:href="#DejaVuSans-65" x="1038.521484"/>
     </g>
    </g>
   </g>
   <g id="matplotlib.axis_2">
    <g id="ytick_1">
     <g id="line2d_7">
      <defs>
       <path id="md7f1d8e0b6" d="M 0 0 
L -3.5 0 
" style="stroke: #000000; stroke-width: 0.8"/>
      </defs>
      <g>
       <use xlink:href="#md7f1d8e0b6" x="62.86875" y="288.430125" style="stroke: #000000; stroke-width: 0.8"/>
      </g>
     </g>
     <g id="text_2">
      <!-- 0.0000 -->
      <g transform="translate(20.878125 292.229344)scale(0.1 -0.1)">
       <defs>
        <path id="DejaVuSans-30" d="M 2034 4250 
Q 1547 4250 1301 3770 
Q 1056 3291 1056 2328 
Q 1056 1369 1301 889 
Q 1547 409 2034 409 
Q 2525 409 2770 889 
Q 3016 1369 3016 2328 
Q 3016 3291 2770 3770 
Q 2525 4250 2034 4250 
z
M 2034 4750 
Q 2819 4750 3233 4129 
Q 3647 3509 3647 2328 
Q 3647 1150 3233 529 
Q 2819 -91 2034 -91 
Q 1250 -91 836 529 
Q 422 1150 422 2328 
Q 422 3509 836 4129 
Q 1250 4750 2034 4750 
z
" transform="scale(0.015625)"/>
        <path id="DejaVuSans-2e" d="M 684 794 
L 1344 794 
L 1344 0 
L 684 0 
L 684 794 
z
" transform="scale(0.015625)"/>
       </defs>
       <use xlink:href="#DejaVuSans-30"/>
       <use xlink:href="#DejaVuSans-2e" x="63.623047"/>
       <use xlink:href="#DejaVuSans-30" x="95.410156"/>
       <use xlink:href="#DejaVuSans-30" x="159.033203"/>
       <use xlink:href="#DejaVuSans-30" x="222.65625"/>
       <use xlink:href="#DejaVuSans-30" x="286.279297"/>
      </g>
     </g>
    </g>
    <g id="ytick_2">
     <g id="line2d_8">
      <g>
       <use xlink:href="#md7f1d8e0b6" x="62.86875" y="254.412271" style="stroke: #000000; stroke-width: 0.8"/>
      </g>
     </g>
     <g id="text_3">
      <!-- 0.0005 -->
      <g transform="translate(20.878125 258.21149)scale(0.1 -0.1)">
       <defs>
        <path id="DejaVuSans-35" d="M 691 4666 
L 3169 4666 
L 3169 4134 
L 1269 4134 
L 1269 2991 
Q 1406 3038 1543 3061 
Q 1681 3084 1819 3084 
Q 2600 3084 3056 2656 
Q 3513 2228 3513 1497 
Q 3513 744 3044 326 
Q 2575 -91 1722 -91 
Q 1428 -91 1123 -41 
Q 819 9 494 109 
L 494 744 
Q 775 591 1075 516 
Q 1375 441 1709 441 
Q 2250 441 2565 725 
Q 2881 1009 2881 1497 
Q 2881 1984 2565 2268 
Q 2250 2553 1709 2553 
Q 1456 2553 1204 2497 
Q 953 2441 691 2322 
L 691 4666 
z
" transform="scale(0.015625)"/>
       </defs>
       <use xlink:href="#DejaVuSans-30"/>
       <use xlink:href="#DejaVuSans-2e" x="63.623047"/>
       <use xlink:href="#DejaVuSans-30" x="95.410156"/>
       <use xlink:href="#DejaVuSans-30" x="159.033203"/>
       <use xlink:href="#DejaVuSans-30" x="222.65625"/>
       <use xlink:href="#DejaVuSans-35" x="286.279297"/>
      </g>
     </g>
    </g>
    <g id="ytick_3">
     <g id="line2d_9">
      <g>
       <use xlink:href="#md7f1d8e0b6" x="62.86875" y="220.394417" style="stroke: #000000; stroke-width: 0.8"/>
      </g>
     </g>
     <g id="text_4">
      <!-- 0.0010 -->
      <g transform="translate(20.878125 224.193636)scale(0.1 -0.1)">
       <defs>
        <path id="DejaVuSans-31" d="M 794 531 
L 1825 531 
L 1825 4091 
L 703 3866 
L 703 4441 
L 1819 4666 
L 2450 4666 
L 2450 531 
L 3481 531 
L 3481 0 
L 794 0 
L 794 531 
z
" transform="scale(0.015625)"/>
       </defs>
       <use xlink:href="#DejaVuSans-30"/>
       <use xlink:href="#DejaVuSans-2e" x="63.623047"/>
       <use xlink:href="#DejaVuSans-30" x="95.410156"/>
       <use xlink:href="#DejaVuSans-30" x="159.033203"/>
       <use xlink:href="#DejaVuSans-31" x="222.65625"/>
       <use xlink:href="#DejaVuSans-30" x="286.279297"/>
      </g>
     </g>
    </g>
    <g id="ytick_4">
     <g id="line2d_10">
      <g>
       <use xlink:href="#md7f1d8e0b6" x="62.86875" y="186.376564" style="stroke: #000000; stroke-width: 0.8"/>
      </g>
     </g>
     <g id="text_5">
      <!-- 0.0015 -->
      <g transform="translate(20.878125 190.175782)scale(0.1 -0.1)">
       <use xlink:href="#DejaVuSans-30"/>
       <use xlink:href="#DejaVuSans-2e" x="63.623047"/>
       <use xlink:href="#DejaVuSans-30" x="95.410156"/>
       <use xlink:href="#DejaVuSans-30" x="159.033203"/>
       <use xlink:href="#DejaVuSans-31" x="222.65625"/>
       <use xlink:href="#DejaVuSans-35" x="286.279297"/>
      </g>
     </g>
    </g>
    <g id="ytick_5">
     <g id="line2d_11">
      <g>
       <use xlink:href="#md7f1d8e0b6" x="62.86875" y="152.35871" style="stroke: #000000; stroke-width: 0.8"/>
      </g>
     </g>
     <g id="text_6">
      <!-- 0.0020 -->
      <g transform="translate(20.878125 156.157928)scale(0.1 -0.1)">
       <defs>
        <path id="DejaVuSans-32" d="M 1228 531 
L 3431 531 
L 3431 0 
L 469 0 
L 469 531 
Q 828 903 1448 1529 
Q 2069 2156 2228 2338 
Q 2531 2678 2651 2914 
Q 2772 3150 2772 3378 
Q 2772 3750 2511 3984 
Q 2250 4219 1831 4219 
Q 1534 4219 1204 4116 
Q 875 4013 500 3803 
L 500 4441 
Q 881 4594 1212 4672 
Q 1544 4750 1819 4750 
Q 2544 4750 2975 4387 
Q 3406 4025 3406 3419 
Q 3406 3131 3298 2873 
Q 3191 2616 2906 2266 
Q 2828 2175 2409 1742 
Q 1991 1309 1228 531 
z
" transform="scale(0.015625)"/>
       </defs>
       <use xlink:href="#DejaVuSans-30"/>
       <use xlink:href="#DejaVuSans-2e" x="63.623047"/>
       <use xlink:href="#DejaVuSans-30" x="95.410156"/>
       <use xlink:href="#DejaVuSans-30" x="159.033203"/>
       <use xlink:href="#DejaVuSans-32" x="222.65625"/>
       <use xlink:href="#DejaVuSans-30" x="286.279297"/>
      </g>
     </g>
    </g>
    <g id="ytick_6">
     <g id="line2d_12">
      <g>
       <use xlink:href="#md7f1d8e0b6" x="62.86875" y="118.340856" style="stroke: #000000; stroke-width: 0.8"/>
      </g>
     </g>
     <g id="text_7">
      <!-- 0.0025 -->
      <g transform="translate(20.878125 122.140075)scale(0.1 -0.1)">
       <use xlink:href="#DejaVuSans-30"/>
       <use xlink:href="#DejaVuSans-2e" x="63.623047"/>
       <use xlink:href="#DejaVuSans-30" x="95.410156"/>
       <use xlink:href="#DejaVuSans-30" x="159.033203"/>
       <use xlink:href="#DejaVuSans-32" x="222.65625"/>
       <use xlink:href="#DejaVuSans-35" x="286.279297"/>
      </g>
     </g>
    </g>
    <g id="ytick_7">
     <g id="line2d_13">
      <g>
       <use xlink:href="#md7f1d8e0b6" x="62.86875" y="84.323002" style="stroke: #000000; stroke-width: 0.8"/>
      </g>
     </g>
     <g id="text_8">
      <!-- 0.0030 -->
      <g transform="translate(20.878125 88.122221)scale(0.1 -0.1)">
       <defs>
        <path id="DejaVuSans-33" d="M 2597 2516 
Q 3050 2419 3304 2112 
Q 3559 1806 3559 1356 
Q 3559 666 3084 287 
Q 2609 -91 1734 -91 
Q 1441 -91 1130 -33 
Q 819 25 488 141 
L 488 750 
Q 750 597 1062 519 
Q 1375 441 1716 441 
Q 2309 441 2620 675 
Q 2931 909 2931 1356 
Q 2931 1769 2642 2001 
Q 2353 2234 1838 2234 
L 1294 2234 
L 1294 2753 
L 1863 2753 
Q 2328 2753 2575 2939 
Q 2822 3125 2822 3475 
Q 2822 3834 2567 4026 
Q 2313 4219 1838 4219 
Q 1578 4219 1281 4162 
Q 984 4106 628 3988 
L 628 4550 
Q 988 4650 1302 4700 
Q 1616 4750 1894 4750 
Q 2613 4750 3031 4423 
Q 3450 4097 3450 3541 
Q 3450 3153 3228 2886 
Q 3006 2619 2597 2516 
z
" transform="scale(0.015625)"/>
       </defs>
       <use xlink:href="#DejaVuSans-30"/>
       <use xlink:href="#DejaVuSans-2e" x="63.623047"/>
       <use xlink:href="#DejaVuSans-30" x="95.410156"/>
       <use xlink:href="#DejaVuSans-30" x="159.033203"/>
       <use xlink:href="#DejaVuSans-33" x="222.65625"/>
       <use xlink:href="#DejaVuSans-30" x="286.279297"/>
      </g>
     </g>
    </g>
    <g id="ytick_8">
     <g id="line2d_14">
      <g>
       <use xlink:href="#md7f1d8e0b6" x="62.86875" y="50.305148" style="stroke: #000000; stroke-width: 0.8"/>
      </g>
     </g>
     <g id="text_9">
      <!-- 0.0035 -->
      <g transform="translate(20.878125 54.104367)scale(0.1 -0.1)">
       <use xlink:href="#DejaVuSans-30"/>
       <use xlink:href="#DejaVuSans-2e" x="63.623047"/>
       <use xlink:href="#DejaVuSans-30" x="95.410156"/>
       <use xlink:href="#DejaVuSans-30" x="159.033203"/>
       <use xlink:href="#DejaVuSans-33" x="222.65625"/>
       <use xlink:href="#DejaVuSans-35" x="286.279297"/>
      </g>
     </g>
    </g>
    <g id="text_10">
     <!-- Density -->
     <g transform="translate(14.798438 174.382719)rotate(-90)scale(0.1 -0.1)">
      <defs>
       <path id="DejaVuSans-44" d="M 1259 4147 
L 1259 519 
L 2022 519 
Q 2988 519 3436 956 
Q 3884 1394 3884 2338 
Q 3884 3275 3436 3711 
Q 2988 4147 2022 4147 
L 1259 4147 
z
M 628 4666 
L 1925 4666 
Q 3281 4666 3915 4102 
Q 4550 3538 4550 2338 
Q 4550 1131 3912 565 
Q 3275 0 1925 0 
L 628 0 
L 628 4666 
z
" transform="scale(0.015625)"/>
       <path id="DejaVuSans-73" d="M 2834 3397 
L 2834 2853 
Q 2591 2978 2328 3040 
Q 2066 3103 1784 3103 
Q 1356 3103 1142 2972 
Q 928 2841 928 2578 
Q 928 2378 1081 2264 
Q 1234 2150 1697 2047 
L 1894 2003 
Q 2506 1872 2764 1633 
Q 3022 1394 3022 966 
Q 3022 478 2636 193 
Q 2250 -91 1575 -91 
Q 1294 -91 989 -36 
Q 684 19 347 128 
L 347 722 
Q 666 556 975 473 
Q 1284 391 1588 391 
Q 1994 391 2212 530 
Q 2431 669 2431 922 
Q 2431 1156 2273 1281 
Q 2116 1406 1581 1522 
L 1381 1569 
Q 847 1681 609 1914 
Q 372 2147 372 2553 
Q 372 3047 722 3315 
Q 1072 3584 1716 3584 
Q 2034 3584 2315 3537 
Q 2597 3491 2834 3397 
z
" transform="scale(0.015625)"/>
       <path id="DejaVuSans-74" d="M 1172 4494 
L 1172 3500 
L 2356 3500 
L 2356 3053 
L 1172 3053 
L 1172 1153 
Q 1172 725 1289 603 
Q 1406 481 1766 481 
L 2356 481 
L 2356 0 
L 1766 0 
Q 1100 0 847 248 
Q 594 497 594 1153 
L 594 3053 
L 172 3053 
L 172 3500 
L 594 3500 
L 594 4494 
L 1172 4494 
z
" transform="scale(0.015625)"/>
       <path id="DejaVuSans-79" d="M 2059 -325 
Q 1816 -950 1584 -1140 
Q 1353 -1331 966 -1331 
L 506 -1331 
L 506 -850 
L 844 -850 
Q 1081 -850 1212 -737 
Q 1344 -625 1503 -206 
L 1606 56 
L 191 3500 
L 800 3500 
L 1894 763 
L 2988 3500 
L 3597 3500 
L 2059 -325 
z
" transform="scale(0.015625)"/>
      </defs>
      <use xlink:href="#DejaVuSans-44"/>
      <use xlink:href="#DejaVuSans-65" x="77.001953"/>
      <use xlink:href="#DejaVuSans-6e" x="138.525391"/>
      <use xlink:href="#DejaVuSans-73" x="201.904297"/>
      <use xlink:href="#DejaVuSans-69" x="254.003906"/>
      <use xlink:href="#DejaVuSans-74" x="281.787109"/>
      <use xlink:href="#DejaVuSans-79" x="320.996094"/>
     </g>
    </g>
   </g>
   <g id="line2d_15">
    <path d="M 329.303932 287.682715 
L 330.800457 287.209575 
L 332.296981 286.492262 
L 333.419374 285.739312 
L 334.541768 284.752363 
L 335.664161 283.482059 
L 336.786554 281.876917 
L 337.908948 279.886178 
L 339.031341 277.46348 
L 340.153734 274.57115 
L 341.650259 269.944558 
L 343.146783 264.435186 
L 344.643308 258.107531 
L 346.513963 249.271371 
L 353.248323 216.166354 
L 355.118979 208.554901 
L 356.989634 201.886568 
L 359.982683 192.297709 
L 362.22747 184.896219 
L 364.098125 178.050603 
L 367.091174 166.017427 
L 368.96183 158.788587 
L 370.084223 155.080518 
L 371.206616 152.161117 
L 371.954879 150.778377 
L 372.703141 149.926259 
L 373.077272 149.717877 
L 373.451403 149.663225 
L 373.825534 149.767794 
L 374.199665 150.036224 
L 374.947927 151.078726 
L 375.69619 152.809301 
L 376.444452 155.230789 
L 377.192714 158.330093 
L 378.315107 164.1833 
L 379.437501 171.337311 
L 380.934025 182.516913 
L 383.178812 201.49195 
L 386.920123 233.418682 
L 388.790778 247.276649 
L 390.287303 256.761382 
L 391.783827 264.700317 
L 392.906221 269.65092 
L 394.028614 273.791021 
L 395.151007 277.189494 
L 396.273401 279.928704 
L 397.395794 282.097211 
L 398.518187 283.783751 
L 399.640581 285.072662 
L 400.762974 286.040758 
L 401.885367 286.755499 
L 403.381892 287.412108 
L 403.756023 287.535039 
L 403.756023 287.535039 
" clip-path="url(#p801df87be8)" style="fill: none; stroke: #dbdb8d; stroke-width: 1.5; stroke-linecap: square"/>
   </g>
   <g id="line2d_16">
    <path d="M 289.797058 286.944396 
L 290.578671 285.976588 
L 291.16488 284.921397 
L 291.75109 283.49095 
L 292.337299 281.585643 
L 293.118912 278.10928 
L 293.900525 273.289643 
L 294.682138 266.81615 
L 295.463751 258.394262 
L 296.245364 247.784102 
L 297.22238 231.240646 
L 298.394799 206.680362 
L 299.762621 172.760153 
L 303.279879 82.604122 
L 304.256895 63.58857 
L 305.038508 51.727471 
L 305.820121 43.080014 
L 306.40633 38.702324 
L 306.99254 36.050382 
L 307.383346 35.180407 
L 307.57875 34.99801 
L 307.774153 34.97577 
L 307.969556 35.107245 
L 308.360362 35.805006 
L 308.751169 37.038536 
L 309.337378 39.78198 
L 310.118991 44.870212 
L 311.096007 53.152455 
L 312.073023 63.331897 
L 313.245443 78.099499 
L 314.417862 95.978065 
L 315.590281 117.175267 
L 317.153507 149.858017 
L 320.475361 221.46567 
L 321.64778 241.788419 
L 322.624796 255.454847 
L 323.601813 266.083953 
L 324.383425 272.561708 
L 325.165038 277.472088 
L 325.946651 281.07323 
L 326.728264 283.629081 
L 327.509877 285.385103 
L 328.291489 286.55337 
L 328.682296 286.972522 
L 328.682296 286.972522 
" clip-path="url(#p801df87be8)" style="fill: none; stroke: #7f7f7f; stroke-width: 1.5; stroke-linecap: square"/>
   </g>
   <g id="line2d_17">
    <path d="M 265.17428 287.606062 
L 266.525552 287.087217 
L 267.876824 286.301983 
L 268.890278 285.478828 
L 269.903732 284.400943 
L 270.917186 283.014824 
L 271.93064 281.264677 
L 272.944095 279.095518 
L 273.957549 276.457139 
L 274.971003 273.308766 
L 276.322275 268.274854 
L 277.673547 262.283018 
L 279.362637 253.562211 
L 281.389545 241.746837 
L 286.118998 213.568426 
L 287.808088 204.968118 
L 289.497178 197.489739 
L 291.524086 189.620031 
L 294.564449 178.042779 
L 296.253539 170.67558 
L 298.280447 160.629443 
L 301.658627 143.523992 
L 302.672081 139.41689 
L 303.685535 136.314335 
L 304.361171 134.945752 
L 305.036808 134.223872 
L 305.374626 134.12501 
L 305.712444 134.209516 
L 306.050262 134.482643 
L 306.38808 134.948588 
L 307.063716 136.470182 
L 307.739352 138.785348 
L 308.414988 141.886584 
L 309.428442 147.950988 
L 310.441896 155.562728 
L 311.793168 167.705783 
L 313.482258 185.081223 
L 317.873893 231.409633 
L 319.562983 246.33085 
L 320.914255 256.384205 
L 322.265527 264.684284 
L 323.278981 269.797959 
L 324.292435 274.030869 
L 325.305889 277.470176 
L 326.319344 280.21412 
L 327.332798 282.364309 
L 328.346252 284.019631 
L 329.359706 285.271861 
L 330.37316 286.202887 
L 331.386614 286.883319 
L 332.400068 287.37221 
L 332.400068 287.37221 
" clip-path="url(#p801df87be8)" style="fill: none; stroke: #c5b0d5; stroke-width: 1.5; stroke-linecap: square"/>
   </g>
   <g id="line2d_18">
    <path d="M 241.705905 287.730776 
L 244.777204 287.300303 
L 247.848502 286.653319 
L 250.151976 285.978551 
L 252.45545 285.09832 
L 254.758924 283.970017 
L 257.062398 282.54921 
L 259.365872 280.792097 
L 261.669346 278.658687 
L 263.97282 276.116611 
L 266.276294 273.145363 
L 268.579768 269.740629 
L 270.883242 265.918311 
L 273.186716 261.717736 
L 276.258014 255.644011 
L 286.239735 235.199509 
L 288.543209 231.153147 
L 290.846683 227.656845 
L 292.382332 225.688519 
L 293.917981 224.041671 
L 295.453631 222.735432 
L 296.98928 221.781192 
L 298.524929 221.182185 
L 300.060579 220.933379 
L 301.596228 221.021675 
L 303.131877 221.426428 
L 304.667526 222.120258 
L 306.203176 223.070127 
L 307.738825 224.238627 
L 310.042299 226.312662 
L 313.113598 229.459503 
L 320.024019 236.700694 
L 323.095318 239.527116 
L 326.166617 242.0077 
L 329.237915 244.192715 
L 339.98746 251.43381 
L 343.058759 253.940539 
L 346.130057 256.769102 
L 349.201356 259.893192 
L 353.808304 264.949372 
L 359.950901 271.736313 
L 363.0222 274.865618 
L 366.093498 277.686021 
L 369.164797 280.137819 
L 371.468271 281.71837 
L 373.771745 283.077695 
L 376.075219 284.224896 
L 378.378693 285.175292 
L 381.449991 286.170482 
L 384.52129 286.902793 
L 387.592589 287.425076 
L 391.431712 287.85652 
L 394.50301 288.074799 
L 394.50301 288.074799 
" clip-path="url(#p801df87be8)" style="fill: none; stroke: #c7c7c7; stroke-width: 1.5; stroke-linecap: square"/>
   </g>
   <g id="line2d_19">
    <path d="M 134.755879 287.931907 
L 137.545019 287.517669 
L 139.776331 286.995159 
L 142.007643 286.235331 
L 143.681127 285.466014 
L 145.354611 284.48896 
L 147.028094 283.270725 
L 148.701578 281.779882 
L 150.375062 279.989696 
L 152.048546 277.881104 
L 153.72203 275.445729 
L 155.395514 272.688614 
L 157.626826 268.549814 
L 160.415966 262.773861 
L 169.899041 242.304853 
L 172.130353 238.232091 
L 174.361665 234.600795 
L 177.150805 230.569969 
L 183.844741 221.295449 
L 186.076053 217.697897 
L 188.307365 213.709578 
L 195.559128 200.116911 
L 197.232612 197.705797 
L 198.348268 196.451108 
L 199.463924 195.539186 
L 200.57958 195.015973 
L 201.695236 194.920019 
L 202.253064 195.041898 
L 203.36872 195.639174 
L 204.484376 196.718333 
L 205.600032 198.28214 
L 206.715688 200.321979 
L 207.831344 202.818151 
L 209.504828 207.349665 
L 211.178312 212.698833 
L 213.409624 220.796921 
L 216.756591 234.046196 
L 220.661387 249.29942 
L 222.892699 257.174102 
L 225.124011 264.124383 
L 226.797495 268.654782 
L 228.470979 272.582948 
L 230.144463 275.922329 
L 231.817947 278.70711 
L 233.491431 280.986163 
L 235.164915 282.817277 
L 236.838399 284.262084 
L 238.511882 285.381916 
L 240.185366 286.234711 
L 241.85885 286.872933 
L 244.090162 287.468298 
L 245.763646 287.771865 
L 245.763646 287.771865 
" clip-path="url(#p801df87be8)" style="fill: none; stroke: #98df8a; stroke-width: 1.5; stroke-linecap: square"/>
   </g>
   <g id="line2d_20">
    <path d="M 166.211644 287.305373 
L 167.227603 286.577245 
L 167.989573 285.78604 
L 168.751542 284.717093 
L 169.513512 283.298761 
L 170.275481 281.450723 
L 171.037451 279.086389 
L 171.79942 276.116601 
L 172.815379 271.066323 
L 173.831339 264.608035 
L 174.847298 256.619965 
L 176.117247 244.438875 
L 177.387196 229.991591 
L 179.165125 206.889661 
L 183.228962 152.450324 
L 184.752901 135.410933 
L 186.02285 123.501422 
L 187.292799 113.732651 
L 188.308759 107.400227 
L 189.324718 102.326743 
L 190.340677 98.493404 
L 191.102647 96.454389 
L 191.610627 95.514734 
L 192.118606 94.930784 
L 192.626586 94.723451 
L 193.134565 94.916137 
L 193.642545 95.533705 
L 194.150525 96.601311 
L 194.658504 98.143129 
L 195.420474 101.391915 
L 196.182443 105.813359 
L 196.944413 111.437275 
L 197.960372 120.791053 
L 198.976331 132.14068 
L 200.246281 148.71871 
L 202.278199 178.789433 
L 205.072087 220.266369 
L 206.596026 239.671678 
L 207.865975 253.111872 
L 208.881935 261.927846 
L 209.897894 269.063162 
L 210.913853 274.65333 
L 211.929813 278.893699 
L 212.945772 282.00856 
L 213.707741 283.743059 
L 214.469711 285.062548 
L 215.23168 286.0486 
L 216.24764 286.966312 
L 216.755619 287.294657 
L 216.755619 287.294657 
" clip-path="url(#p801df87be8)" style="fill: none; stroke: #2ca02c; stroke-width: 1.5; stroke-linecap: square"/>
   </g>
   <g id="line2d_21">
    <path d="M 161.970619 287.454705 
L 163.149093 286.821313 
L 164.032949 286.132002 
L 164.916805 285.199304 
L 165.80066 283.959641 
L 166.684516 282.341302 
L 167.568372 280.266364 
L 168.452227 277.65376 
L 169.336083 274.423492 
L 170.219939 270.501913 
L 171.398413 264.094496 
L 172.576887 256.261055 
L 173.755362 246.995704 
L 175.228454 233.559198 
L 176.996166 215.319667 
L 182.004681 162.175656 
L 183.477774 149.433841 
L 184.656249 140.910466 
L 185.834723 133.997103 
L 186.718579 129.881189 
L 187.602434 126.660731 
L 188.48629 124.299589 
L 189.075527 123.181167 
L 189.664764 122.411435 
L 190.254001 121.977505 
L 190.843238 121.867946 
L 191.432476 122.0734 
L 192.021713 122.587027 
L 192.61095 123.404782 
L 193.200187 124.525487 
L 194.084043 126.778679 
L 194.967898 129.732574 
L 195.851754 133.409997 
L 197.030228 139.480719 
L 198.208703 146.920807 
L 199.387177 155.720713 
L 200.86027 168.491562 
L 202.627981 185.883838 
L 207.931115 240.038084 
L 209.404208 252.361759 
L 210.582683 260.732909 
L 211.761157 267.715484 
L 212.939631 273.349148 
L 214.118105 277.746693 
L 215.001961 280.329079 
L 215.885817 282.382878 
L 216.769672 283.986721 
L 217.653528 285.216634 
L 218.537384 286.142901 
L 219.715858 287.012404 
L 220.599714 287.458156 
L 220.599714 287.458156 
" clip-path="url(#p801df87be8)" style="fill: none; stroke: #ff9896; stroke-width: 1.5; stroke-linecap: square"/>
   </g>
   <g id="line2d_22">
    <path d="M 79.101477 288.128671 
L 84.643617 287.809441 
L 89.262067 287.350197 
L 92.956828 286.800117 
L 96.651588 286.03735 
L 100.346348 285.01374 
L 103.117418 284.047956 
L 105.888488 282.895466 
L 108.659558 281.546637 
L 111.430628 279.99894 
L 115.125388 277.637947 
L 118.820148 274.976873 
L 123.438598 271.341433 
L 134.522878 262.395808 
L 138.217638 259.714718 
L 141.912398 257.294981 
L 145.607158 255.134647 
L 150.225608 252.712461 
L 159.462509 248.008203 
L 163.157269 245.879212 
L 166.852029 243.527738 
L 172.394169 239.698065 
L 177.012619 236.548418 
L 179.783689 234.871748 
L 182.554759 233.489713 
L 184.402139 232.786627 
L 186.249519 232.293633 
L 188.096899 232.037371 
L 189.944279 232.039928 
L 191.791659 232.317932 
L 193.639039 232.881864 
L 195.486419 233.735613 
L 197.333799 234.876296 
L 199.181179 236.294341 
L 201.028559 237.973823 
L 202.875939 239.893039 
L 205.647009 243.161772 
L 208.418079 246.802513 
L 212.11284 252.029139 
L 220.42605 263.962339 
L 224.12081 268.784972 
L 226.89188 272.056401 
L 229.66295 274.98708 
L 232.43402 277.558654 
L 235.20509 279.770386 
L 237.97616 281.635981 
L 240.74723 283.180025 
L 243.5183 284.434414 
L 246.28937 285.435064 
L 249.06044 286.219093 
L 252.7552 286.989556 
L 256.44996 287.516702 
L 261.06841 287.932701 
L 262.91579 288.044671 
L 262.91579 288.044671 
" clip-path="url(#p801df87be8)" style="fill: none; stroke: #1f77b4; stroke-width: 1.5; stroke-linecap: square"/>
   </g>
   <g id="line2d_23">
    <path d="M 125.175608 287.933275 
L 128.632334 287.501061 
L 131.397714 286.94349 
L 133.47175 286.352439 
L 135.545785 285.570372 
L 137.61982 284.553452 
L 139.693856 283.254275 
L 141.767891 281.623903 
L 143.841926 279.614693 
L 145.915962 277.18392 
L 147.989997 274.298034 
L 150.064032 270.937308 
L 152.138068 267.10051 
L 154.212103 262.809123 
L 156.977483 256.466078 
L 160.434209 247.819584 
L 166.656315 232.021641 
L 168.73035 227.269761 
L 170.804386 223.035693 
L 172.187076 220.568328 
L 173.569766 218.424836 
L 174.952456 216.631547 
L 176.335147 215.206991 
L 177.717837 214.161243 
L 179.100527 213.495584 
L 180.483217 213.202499 
L 181.865908 213.266013 
L 183.248598 213.662377 
L 184.631288 214.361051 
L 186.013978 215.325966 
L 187.396669 216.516991 
L 189.470704 218.634093 
L 192.236084 221.849115 
L 199.149536 230.085295 
L 201.914916 233.015944 
L 205.371642 236.341362 
L 212.976438 243.429022 
L 215.741818 246.37414 
L 218.507199 249.662662 
L 221.272579 253.29694 
L 224.729305 258.222489 
L 233.025446 270.294022 
L 235.790827 273.884593 
L 238.556207 277.069693 
L 240.630242 279.157296 
L 242.704278 280.97638 
L 244.778313 282.530389 
L 246.852348 283.832345 
L 248.926384 284.902427 
L 251.000419 285.765483 
L 253.7658 286.641304 
L 256.53118 287.262378 
L 259.987906 287.771389 
L 262.753286 288.026397 
L 262.753286 288.026397 
" clip-path="url(#p801df87be8)" style="fill: none; stroke: #d62728; stroke-width: 1.5; stroke-linecap: square"/>
   </g>
   <g id="line2d_24">
    <path d="M 105.98858 287.975156 
L 110.4261 287.585709 
L 113.976116 287.08705 
L 117.526131 286.351326 
L 120.188643 285.596544 
L 122.851155 284.626398 
L 125.513667 283.401641 
L 128.176179 281.883421 
L 130.83869 280.036079 
L 133.501202 277.830534 
L 136.163714 275.248044 
L 138.826226 272.28409 
L 141.488738 268.951971 
L 144.15125 265.285708 
L 147.701265 259.978457 
L 159.238817 242.086567 
L 161.901329 238.54436 
L 163.676336 236.44426 
L 165.451344 234.589539 
L 167.226352 233.00581 
L 169.00136 231.712792 
L 170.776368 230.723594 
L 172.551376 230.044234 
L 174.326384 229.673423 
L 176.101392 229.602637 
L 177.8764 229.816462 
L 179.651407 230.293226 
L 181.426415 231.005876 
L 183.201423 231.923062 
L 185.863935 233.606603 
L 189.413951 236.235824 
L 199.176494 243.760359 
L 202.72651 246.115317 
L 206.276526 248.200678 
L 211.601549 250.99192 
L 217.814077 254.242329 
L 221.364093 256.33499 
L 224.914109 258.694593 
L 228.464124 261.334856 
L 232.901644 264.96401 
L 245.326699 275.481026 
L 248.876715 278.106655 
L 252.426731 280.414311 
L 255.089243 281.91505 
L 257.751755 283.214523 
L 260.414266 284.318011 
L 263.964282 285.505579 
L 267.514298 286.406303 
L 271.064314 287.067518 
L 275.501834 287.630616 
L 280.826857 288.031751 
L 282.601865 288.118625 
L 282.601865 288.118625 
" clip-path="url(#p801df87be8)" style="fill: none; stroke: #ff7f0e; stroke-width: 1.5; stroke-linecap: square"/>
   </g>
   <g id="line2d_25">
    <path d="M 106.208154 288.037393 
L 110.187511 287.695286 
L 113.370997 287.253825 
L 116.554483 286.597685 
L 118.942097 285.920016 
L 121.329712 285.043531 
L 123.717326 283.929567 
L 126.104941 282.538593 
L 128.492555 280.83253 
L 130.880169 278.77765 
L 133.267784 276.34791 
L 135.655398 273.528548 
L 138.043012 270.319614 
L 140.430627 266.7391 
L 143.614113 261.456295 
L 147.59347 254.257478 
L 154.756313 241.024799 
L 157.143927 236.989567 
L 159.531542 233.346689 
L 161.919156 230.203217 
L 163.510899 228.428484 
L 165.102642 226.9333 
L 166.694385 225.730467 
L 168.286128 224.826323 
L 169.877871 224.220579 
L 171.469614 223.906406 
L 173.061357 223.870778 
L 174.653099 224.095053 
L 176.244842 224.555777 
L 177.836585 225.225675 
L 180.2242 226.556737 
L 182.611814 228.184679 
L 185.7953 230.63881 
L 196.141629 238.86615 
L 206.487958 246.723295 
L 209.671443 249.461327 
L 212.854929 252.483011 
L 216.038415 255.796337 
L 220.017772 260.272223 
L 230.364101 272.162923 
L 233.547587 275.401827 
L 236.731073 278.269061 
L 239.118687 280.145477 
L 241.506302 281.778603 
L 243.893916 283.172129 
L 246.28153 284.338233 
L 248.669145 285.295432 
L 251.852631 286.286203 
L 255.036117 287.004624 
L 258.219602 287.508764 
L 262.19896 287.917061 
L 264.586574 288.076653 
L 264.586574 288.076653 
" clip-path="url(#p801df87be8)" style="fill: none; stroke: #e377c2; stroke-width: 1.5; stroke-linecap: square"/>
   </g>
   <g id="patch_3">
    <path d="M 62.86875 288.430125 
L 62.86875 22.318125 
" style="fill: none; stroke: #000000; stroke-width: 0.8; stroke-linejoin: miter; stroke-linecap: square"/>
   </g>
   <g id="patch_4">
    <path d="M 419.98875 288.430125 
L 419.98875 22.318125 
" style="fill: none; stroke: #000000; stroke-width: 0.8; stroke-linejoin: miter; stroke-linecap: square"/>
   </g>
   <g id="patch_5">
    <path d="M 62.86875 288.430125 
L 419.98875 288.430125 
" style="fill: none; stroke: #000000; stroke-width: 0.8; stroke-linejoin: miter; stroke-linecap: square"/>
   </g>
   <g id="patch_6">
    <path d="M 62.86875 22.318125 
L 419.98875 22.318125 
" style="fill: none; stroke: #000000; stroke-width: 0.8; stroke-linejoin: miter; stroke-linecap: square"/>
   </g>
   <g id="text_11">
    <!-- bloaty_fuzz_target (4h:15m, 3 trials/fuzzer) -->
    <g transform="translate(111.649687 16.318125)scale(0.12 -0.12)">
     <defs>
      <path id="DejaVuSans-62" d="M 3116 1747 
Q 3116 2381 2855 2742 
Q 2594 3103 2138 3103 
Q 1681 3103 1420 2742 
Q 1159 2381 1159 1747 
Q 1159 1113 1420 752 
Q 1681 391 2138 391 
Q 2594 391 2855 752 
Q 3116 1113 3116 1747 
z
M 1159 2969 
Q 1341 3281 1617 3432 
Q 1894 3584 2278 3584 
Q 2916 3584 3314 3078 
Q 3713 2572 3713 1747 
Q 3713 922 3314 415 
Q 2916 -91 2278 -91 
Q 1894 -91 1617 61 
Q 1341 213 1159 525 
L 1159 0 
L 581 0 
L 581 4863 
L 1159 4863 
L 1159 2969 
z
" transform="scale(0.015625)"/>
      <path id="DejaVuSans-6c" d="M 603 4863 
L 1178 4863 
L 1178 0 
L 603 0 
L 603 4863 
z
" transform="scale(0.015625)"/>
      <path id="DejaVuSans-5f" d="M 3263 -1063 
L 3263 -1509 
L -63 -1509 
L -63 -1063 
L 3263 -1063 
z
" transform="scale(0.015625)"/>
      <path id="DejaVuSans-66" d="M 2375 4863 
L 2375 4384 
L 1825 4384 
Q 1516 4384 1395 4259 
Q 1275 4134 1275 3809 
L 1275 3500 
L 2222 3500 
L 2222 3053 
L 1275 3053 
L 1275 0 
L 697 0 
L 697 3053 
L 147 3053 
L 147 3500 
L 697 3500 
L 697 3744 
Q 697 4328 969 4595 
Q 1241 4863 1831 4863 
L 2375 4863 
z
" transform="scale(0.015625)"/>
      <path id="DejaVuSans-75" d="M 544 1381 
L 544 3500 
L 1119 3500 
L 1119 1403 
Q 1119 906 1312 657 
Q 1506 409 1894 409 
Q 2359 409 2629 706 
Q 2900 1003 2900 1516 
L 2900 3500 
L 3475 3500 
L 3475 0 
L 2900 0 
L 2900 538 
Q 2691 219 2414 64 
Q 2138 -91 1772 -91 
Q 1169 -91 856 284 
Q 544 659 544 1381 
z
M 1991 3584 
L 1991 3584 
z
" transform="scale(0.015625)"/>
      <path id="DejaVuSans-7a" d="M 353 3500 
L 3084 3500 
L 3084 2975 
L 922 459 
L 3084 459 
L 3084 0 
L 275 0 
L 275 525 
L 2438 3041 
L 353 3041 
L 353 3500 
z
" transform="scale(0.015625)"/>
      <path id="DejaVuSans-28" d="M 1984 4856 
Q 1566 4138 1362 3434 
Q 1159 2731 1159 2009 
Q 1159 1288 1364 580 
Q 1569 -128 1984 -844 
L 1484 -844 
Q 1016 -109 783 600 
Q 550 1309 550 2009 
Q 550 2706 781 3412 
Q 1013 4119 1484 4856 
L 1984 4856 
z
" transform="scale(0.015625)"/>
      <path id="DejaVuSans-34" d="M 2419 4116 
L 825 1625 
L 2419 1625 
L 2419 4116 
z
M 2253 4666 
L 3047 4666 
L 3047 1625 
L 3713 1625 
L 3713 1100 
L 3047 1100 
L 3047 0 
L 2419 0 
L 2419 1100 
L 313 1100 
L 313 1709 
L 2253 4666 
z
" transform="scale(0.015625)"/>
      <path id="DejaVuSans-68" d="M 3513 2113 
L 3513 0 
L 2938 0 
L 2938 2094 
Q 2938 2591 2744 2837 
Q 2550 3084 2163 3084 
Q 1697 3084 1428 2787 
Q 1159 2491 1159 1978 
L 1159 0 
L 581 0 
L 581 4863 
L 1159 4863 
L 1159 2956 
Q 1366 3272 1645 3428 
Q 1925 3584 2291 3584 
Q 2894 3584 3203 3211 
Q 3513 2838 3513 2113 
z
" transform="scale(0.015625)"/>
      <path id="DejaVuSans-3a" d="M 750 794 
L 1409 794 
L 1409 0 
L 750 0 
L 750 794 
z
M 750 3309 
L 1409 3309 
L 1409 2516 
L 750 2516 
L 750 3309 
z
" transform="scale(0.015625)"/>
      <path id="DejaVuSans-6d" d="M 3328 2828 
Q 3544 3216 3844 3400 
Q 4144 3584 4550 3584 
Q 5097 3584 5394 3201 
Q 5691 2819 5691 2113 
L 5691 0 
L 5113 0 
L 5113 2094 
Q 5113 2597 4934 2840 
Q 4756 3084 4391 3084 
Q 3944 3084 3684 2787 
Q 3425 2491 3425 1978 
L 3425 0 
L 2847 0 
L 2847 2094 
Q 2847 2600 2669 2842 
Q 2491 3084 2119 3084 
Q 1678 3084 1418 2786 
Q 1159 2488 1159 1978 
L 1159 0 
L 581 0 
L 581 3500 
L 1159 3500 
L 1159 2956 
Q 1356 3278 1631 3431 
Q 1906 3584 2284 3584 
Q 2666 3584 2933 3390 
Q 3200 3197 3328 2828 
z
" transform="scale(0.015625)"/>
      <path id="DejaVuSans-2c" d="M 750 794 
L 1409 794 
L 1409 256 
L 897 -744 
L 494 -744 
L 750 256 
L 750 794 
z
" transform="scale(0.015625)"/>
      <path id="DejaVuSans-2f" d="M 1625 4666 
L 2156 4666 
L 531 -594 
L 0 -594 
L 1625 4666 
z
" transform="scale(0.015625)"/>
      <path id="DejaVuSans-29" d="M 513 4856 
L 1013 4856 
Q 1481 4119 1714 3412 
Q 1947 2706 1947 2009 
Q 1947 1309 1714 600 
Q 1481 -109 1013 -844 
L 513 -844 
Q 928 -128 1133 580 
Q 1338 1288 1338 2009 
Q 1338 2731 1133 3434 
Q 928 4138 513 4856 
z
" transform="scale(0.015625)"/>
     </defs>
     <use xlink:href="#DejaVuSans-62"/>
     <use xlink:href="#DejaVuSans-6c" x="63.476562"/>
     <use xlink:href="#DejaVuSans-6f" x="91.259766"/>
     <use xlink:href="#DejaVuSans-61" x="152.441406"/>
     <use xlink:href="#DejaVuSans-74" x="213.720703"/>
     <use xlink:href="#DejaVuSans-79" x="252.929688"/>
     <use xlink:href="#DejaVuSans-5f" x="312.109375"/>
     <use xlink:href="#DejaVuSans-66" x="362.109375"/>
     <use xlink:href="#DejaVuSans-75" x="397.314453"/>
     <use xlink:href="#DejaVuSans-7a" x="460.693359"/>
     <use xlink:href="#DejaVuSans-7a" x="513.183594"/>
     <use xlink:href="#DejaVuSans-5f" x="565.673828"/>
     <use xlink:href="#DejaVuSans-74" x="615.673828"/>
     <use xlink:href="#DejaVuSans-61" x="654.882812"/>
     <use xlink:href="#DejaVuSans-72" x="716.162109"/>
     <use xlink:href="#DejaVuSans-67" x="755.525391"/>
     <use xlink:href="#DejaVuSans-65" x="819.001953"/>
     <use xlink:href="#DejaVuSans-74" x="880.525391"/>
     <use xlink:href="#DejaVuSans-20" x="919.734375"/>
     <use xlink:href="#DejaVuSans-28" x="951.521484"/>
     <use xlink:href="#DejaVuSans-34" x="990.535156"/>
     <use xlink:href="#DejaVuSans-68" x="1054.158203"/>
     <use xlink:href="#DejaVuSans-3a" x="1117.537109"/>
     <use xlink:href="#DejaVuSans-31" x="1151.228516"/>
     <use xlink:href="#DejaVuSans-35" x="1214.851562"/>
     <use xlink:href="#DejaVuSans-6d" x="1278.474609"/>
     <use xlink:href="#DejaVuSans-2c" x="1375.886719"/>
     <use xlink:href="#DejaVuSans-20" x="1407.673828"/>
     <use xlink:href="#DejaVuSans-33" x="1439.460938"/>
     <use xlink:href="#DejaVuSans-20" x="1503.083984"/>
     <use xlink:href="#DejaVuSans-74" x="1534.871094"/>
     <use xlink:href="#DejaVuSans-72" x="1574.080078"/>
     <use xlink:href="#DejaVuSans-69" x="1615.193359"/>
     <use xlink:href="#DejaVuSans-61" x="1642.976562"/>
     <use xlink:href="#DejaVuSans-6c" x="1704.255859"/>
     <use xlink:href="#DejaVuSans-73" x="1732.039062"/>
     <use xlink:href="#DejaVuSans-2f" x="1784.138672"/>
     <use xlink:href="#DejaVuSans-66" x="1817.830078"/>
     <use xlink:href="#DejaVuSans-75" x="1853.035156"/>
     <use xlink:href="#DejaVuSans-7a" x="1916.414062"/>
     <use xlink:href="#DejaVuSans-7a" x="1968.904297"/>
     <use xlink:href="#DejaVuSans-65" x="2021.394531"/>
     <use xlink:href="#DejaVuSans-72" x="2082.917969"/>
     <use xlink:href="#DejaVuSans-29" x="2124.03125"/>
    </g>
   </g>
   <g id="legend_1">
    <g id="line2d_26">
     <path d="M 246.82625 35.416562 
L 256.82625 35.416562 
L 266.82625 35.416562 
" style="fill: none; stroke: #dbdb8d; stroke-width: 1.5; stroke-linecap: square"/>
    </g>
    <g id="text_12">
     <!-- aflplusplus_ast_o3_lto -->
     <g transform="translate(274.82625 38.916562)scale(0.1 -0.1)">
      <defs>
       <path id="DejaVuSans-70" d="M 1159 525 
L 1159 -1331 
L 581 -1331 
L 581 3500 
L 1159 3500 
L 1159 2969 
Q 1341 3281 1617 3432 
Q 1894 3584 2278 3584 
Q 2916 3584 3314 3078 
Q 3713 2572 3713 1747 
Q 3713 922 3314 415 
Q 2916 -91 2278 -91 
Q 1894 -91 1617 61 
Q 1341 213 1159 525 
z
M 3116 1747 
Q 3116 2381 2855 2742 
Q 2594 3103 2138 3103 
Q 1681 3103 1420 2742 
Q 1159 2381 1159 1747 
Q 1159 1113 1420 752 
Q 1681 391 2138 391 
Q 2594 391 2855 752 
Q 3116 1113 3116 1747 
z
" transform="scale(0.015625)"/>
      </defs>
      <use xlink:href="#DejaVuSans-61"/>
      <use xlink:href="#DejaVuSans-66" x="61.279297"/>
      <use xlink:href="#DejaVuSans-6c" x="96.484375"/>
      <use xlink:href="#DejaVuSans-70" x="124.267578"/>
      <use xlink:href="#DejaVuSans-6c" x="187.744141"/>
      <use xlink:href="#DejaVuSans-75" x="215.527344"/>
      <use xlink:href="#DejaVuSans-73" x="278.90625"/>
      <use xlink:href="#DejaVuSans-70" x="331.005859"/>
      <use xlink:href="#DejaVuSans-6c" x="394.482422"/>
      <use xlink:href="#DejaVuSans-75" x="422.265625"/>
      <use xlink:href="#DejaVuSans-73" x="485.644531"/>
      <use xlink:href="#DejaVuSans-5f" x="537.744141"/>
      <use xlink:href="#DejaVuSans-61" x="587.744141"/>
      <use xlink:href="#DejaVuSans-73" x="649.023438"/>
      <use xlink:href="#DejaVuSans-74" x="701.123047"/>
      <use xlink:href="#DejaVuSans-5f" x="740.332031"/>
      <use xlink:href="#DejaVuSans-6f" x="790.332031"/>
      <use xlink:href="#DejaVuSans-33" x="851.513672"/>
      <use xlink:href="#DejaVuSans-5f" x="915.136719"/>
      <use xlink:href="#DejaVuSans-6c" x="965.136719"/>
      <use xlink:href="#DejaVuSans-74" x="992.919922"/>
      <use xlink:href="#DejaVuSans-6f" x="1032.128906"/>
     </g>
    </g>
    <g id="line2d_27">
     <path d="M 246.82625 50.372813 
L 256.82625 50.372813 
L 266.82625 50.372813 
" style="fill: none; stroke: #7f7f7f; stroke-width: 1.5; stroke-linecap: square"/>
    </g>
    <g id="text_13">
     <!-- aflplusplus_ast_opt_l1 -->
     <g transform="translate(274.82625 53.872813)scale(0.1 -0.1)">
      <use xlink:href="#DejaVuSans-61"/>
      <use xlink:href="#DejaVuSans-66" x="61.279297"/>
      <use xlink:href="#DejaVuSans-6c" x="96.484375"/>
      <use xlink:href="#DejaVuSans-70" x="124.267578"/>
      <use xlink:href="#DejaVuSans-6c" x="187.744141"/>
      <use xlink:href="#DejaVuSans-75" x="215.527344"/>
      <use xlink:href="#DejaVuSans-73" x="278.90625"/>
      <use xlink:href="#DejaVuSans-70" x="331.005859"/>
      <use xlink:href="#DejaVuSans-6c" x="394.482422"/>
      <use xlink:href="#DejaVuSans-75" x="422.265625"/>
      <use xlink:href="#DejaVuSans-73" x="485.644531"/>
      <use xlink:href="#DejaVuSans-5f" x="537.744141"/>
      <use xlink:href="#DejaVuSans-61" x="587.744141"/>
      <use xlink:href="#DejaVuSans-73" x="649.023438"/>
      <use xlink:href="#DejaVuSans-74" x="701.123047"/>
      <use xlink:href="#DejaVuSans-5f" x="740.332031"/>
      <use xlink:href="#DejaVuSans-6f" x="790.332031"/>
      <use xlink:href="#DejaVuSans-70" x="851.513672"/>
      <use xlink:href="#DejaVuSans-74" x="914.990234"/>
      <use xlink:href="#DejaVuSans-5f" x="954.199219"/>
      <use xlink:href="#DejaVuSans-6c" x="1004.199219"/>
      <use xlink:href="#DejaVuSans-31" x="1031.982422"/>
     </g>
    </g>
    <g id="line2d_28">
     <path d="M 246.82625 65.329063 
L 256.82625 65.329063 
L 266.82625 65.329063 
" style="fill: none; stroke: #c5b0d5; stroke-width: 1.5; stroke-linecap: square"/>
    </g>
    <g id="text_14">
     <!-- aflplusplus_ast_opt_disable -->
     <g transform="translate(274.82625 68.829063)scale(0.1 -0.1)">
      <use xlink:href="#DejaVuSans-61"/>
      <use xlink:href="#DejaVuSans-66" x="61.279297"/>
      <use xlink:href="#DejaVuSans-6c" x="96.484375"/>
      <use xlink:href="#DejaVuSans-70" x="124.267578"/>
      <use xlink:href="#DejaVuSans-6c" x="187.744141"/>
      <use xlink:href="#DejaVuSans-75" x="215.527344"/>
      <use xlink:href="#DejaVuSans-73" x="278.90625"/>
      <use xlink:href="#DejaVuSans-70" x="331.005859"/>
      <use xlink:href="#DejaVuSans-6c" x="394.482422"/>
      <use xlink:href="#DejaVuSans-75" x="422.265625"/>
      <use xlink:href="#DejaVuSans-73" x="485.644531"/>
      <use xlink:href="#DejaVuSans-5f" x="537.744141"/>
      <use xlink:href="#DejaVuSans-61" x="587.744141"/>
      <use xlink:href="#DejaVuSans-73" x="649.023438"/>
      <use xlink:href="#DejaVuSans-74" x="701.123047"/>
      <use xlink:href="#DejaVuSans-5f" x="740.332031"/>
      <use xlink:href="#DejaVuSans-6f" x="790.332031"/>
      <use xlink:href="#DejaVuSans-70" x="851.513672"/>
      <use xlink:href="#DejaVuSans-74" x="914.990234"/>
      <use xlink:href="#DejaVuSans-5f" x="954.199219"/>
      <use xlink:href="#DejaVuSans-64" x="1004.199219"/>
      <use xlink:href="#DejaVuSans-69" x="1067.675781"/>
      <use xlink:href="#DejaVuSans-73" x="1095.458984"/>
      <use xlink:href="#DejaVuSans-61" x="1147.558594"/>
      <use xlink:href="#DejaVuSans-62" x="1208.837891"/>
      <use xlink:href="#DejaVuSans-6c" x="1272.314453"/>
      <use xlink:href="#DejaVuSans-65" x="1300.097656"/>
     </g>
    </g>
    <g id="line2d_29">
     <path d="M 246.82625 80.285313 
L 256.82625 80.285313 
L 266.82625 80.285313 
" style="fill: none; stroke: #c7c7c7; stroke-width: 1.5; stroke-linecap: square"/>
    </g>
    <g id="text_15">
     <!-- aflplusplus_ast_o0_lto -->
     <g transform="translate(274.82625 83.785313)scale(0.1 -0.1)">
      <use xlink:href="#DejaVuSans-61"/>
      <use xlink:href="#DejaVuSans-66" x="61.279297"/>
      <use xlink:href="#DejaVuSans-6c" x="96.484375"/>
      <use xlink:href="#DejaVuSans-70" x="124.267578"/>
      <use xlink:href="#DejaVuSans-6c" x="187.744141"/>
      <use xlink:href="#DejaVuSans-75" x="215.527344"/>
      <use xlink:href="#DejaVuSans-73" x="278.90625"/>
      <use xlink:href="#DejaVuSans-70" x="331.005859"/>
      <use xlink:href="#DejaVuSans-6c" x="394.482422"/>
      <use xlink:href="#DejaVuSans-75" x="422.265625"/>
      <use xlink:href="#DejaVuSans-73" x="485.644531"/>
      <use xlink:href="#DejaVuSans-5f" x="537.744141"/>
      <use xlink:href="#DejaVuSans-61" x="587.744141"/>
      <use xlink:href="#DejaVuSans-73" x="649.023438"/>
      <use xlink:href="#DejaVuSans-74" x="701.123047"/>
      <use xlink:href="#DejaVuSans-5f" x="740.332031"/>
      <use xlink:href="#DejaVuSans-6f" x="790.332031"/>
      <use xlink:href="#DejaVuSans-30" x="851.513672"/>
      <use xlink:href="#DejaVuSans-5f" x="915.136719"/>
      <use xlink:href="#DejaVuSans-6c" x="965.136719"/>
      <use xlink:href="#DejaVuSans-74" x="992.919922"/>
      <use xlink:href="#DejaVuSans-6f" x="1032.128906"/>
     </g>
    </g>
    <g id="line2d_30">
     <path d="M 246.82625 95.241563 
L 256.82625 95.241563 
L 266.82625 95.241563 
" style="fill: none; stroke: #98df8a; stroke-width: 1.5; stroke-linecap: square"/>
    </g>
    <g id="text_16">
     <!-- aflplusplus_ast_f1 -->
     <g transform="translate(274.82625 98.741563)scale(0.1 -0.1)">
      <use xlink:href="#DejaVuSans-61"/>
      <use xlink:href="#DejaVuSans-66" x="61.279297"/>
      <use xlink:href="#DejaVuSans-6c" x="96.484375"/>
      <use xlink:href="#DejaVuSans-70" x="124.267578"/>
      <use xlink:href="#DejaVuSans-6c" x="187.744141"/>
      <use xlink:href="#DejaVuSans-75" x="215.527344"/>
      <use xlink:href="#DejaVuSans-73" x="278.90625"/>
      <use xlink:href="#DejaVuSans-70" x="331.005859"/>
      <use xlink:href="#DejaVuSans-6c" x="394.482422"/>
      <use xlink:href="#DejaVuSans-75" x="422.265625"/>
      <use xlink:href="#DejaVuSans-73" x="485.644531"/>
      <use xlink:href="#DejaVuSans-5f" x="537.744141"/>
      <use xlink:href="#DejaVuSans-61" x="587.744141"/>
      <use xlink:href="#DejaVuSans-73" x="649.023438"/>
      <use xlink:href="#DejaVuSans-74" x="701.123047"/>
      <use xlink:href="#DejaVuSans-5f" x="740.332031"/>
      <use xlink:href="#DejaVuSans-66" x="790.332031"/>
      <use xlink:href="#DejaVuSans-31" x="825.537109"/>
     </g>
    </g>
    <g id="line2d_31">
     <path d="M 246.82625 110.197812 
L 256.82625 110.197812 
L 266.82625 110.197812 
" style="fill: none; stroke: #2ca02c; stroke-width: 1.5; stroke-linecap: square"/>
    </g>
    <g id="text_17">
     <!-- aflplusplus_ast_o3_native -->
     <g transform="translate(274.82625 113.697812)scale(0.1 -0.1)">
      <use xlink:href="#DejaVuSans-61"/>
      <use xlink:href="#DejaVuSans-66" x="61.279297"/>
      <use xlink:href="#DejaVuSans-6c" x="96.484375"/>
      <use xlink:href="#DejaVuSans-70" x="124.267578"/>
      <use xlink:href="#DejaVuSans-6c" x="187.744141"/>
      <use xlink:href="#DejaVuSans-75" x="215.527344"/>
      <use xlink:href="#DejaVuSans-73" x="278.90625"/>
      <use xlink:href="#DejaVuSans-70" x="331.005859"/>
      <use xlink:href="#DejaVuSans-6c" x="394.482422"/>
      <use xlink:href="#DejaVuSans-75" x="422.265625"/>
      <use xlink:href="#DejaVuSans-73" x="485.644531"/>
      <use xlink:href="#DejaVuSans-5f" x="537.744141"/>
      <use xlink:href="#DejaVuSans-61" x="587.744141"/>
      <use xlink:href="#DejaVuSans-73" x="649.023438"/>
      <use xlink:href="#DejaVuSans-74" x="701.123047"/>
      <use xlink:href="#DejaVuSans-5f" x="740.332031"/>
      <use xlink:href="#DejaVuSans-6f" x="790.332031"/>
      <use xlink:href="#DejaVuSans-33" x="851.513672"/>
      <use xlink:href="#DejaVuSans-5f" x="915.136719"/>
      <use xlink:href="#DejaVuSans-6e" x="965.136719"/>
      <use xlink:href="#DejaVuSans-61" x="1028.515625"/>
      <use xlink:href="#DejaVuSans-74" x="1089.794922"/>
      <use xlink:href="#DejaVuSans-69" x="1129.003906"/>
      <use xlink:href="#DejaVuSans-76" x="1156.787109"/>
      <use xlink:href="#DejaVuSans-65" x="1215.966797"/>
     </g>
    </g>
    <g id="line2d_32">
     <path d="M 246.82625 125.154063 
L 256.82625 125.154063 
L 266.82625 125.154063 
" style="fill: none; stroke: #ff9896; stroke-width: 1.5; stroke-linecap: square"/>
    </g>
    <g id="text_18">
     <!-- aflplusplus_ast_o2 -->
     <g transform="translate(274.82625 128.654063)scale(0.1 -0.1)">
      <use xlink:href="#DejaVuSans-61"/>
      <use xlink:href="#DejaVuSans-66" x="61.279297"/>
      <use xlink:href="#DejaVuSans-6c" x="96.484375"/>
      <use xlink:href="#DejaVuSans-70" x="124.267578"/>
      <use xlink:href="#DejaVuSans-6c" x="187.744141"/>
      <use xlink:href="#DejaVuSans-75" x="215.527344"/>
      <use xlink:href="#DejaVuSans-73" x="278.90625"/>
      <use xlink:href="#DejaVuSans-70" x="331.005859"/>
      <use xlink:href="#DejaVuSans-6c" x="394.482422"/>
      <use xlink:href="#DejaVuSans-75" x="422.265625"/>
      <use xlink:href="#DejaVuSans-73" x="485.644531"/>
      <use xlink:href="#DejaVuSans-5f" x="537.744141"/>
      <use xlink:href="#DejaVuSans-61" x="587.744141"/>
      <use xlink:href="#DejaVuSans-73" x="649.023438"/>
      <use xlink:href="#DejaVuSans-74" x="701.123047"/>
      <use xlink:href="#DejaVuSans-5f" x="740.332031"/>
      <use xlink:href="#DejaVuSans-6f" x="790.332031"/>
      <use xlink:href="#DejaVuSans-32" x="851.513672"/>
     </g>
    </g>
    <g id="line2d_33">
     <path d="M 246.82625 140.110313 
L 256.82625 140.110313 
L 266.82625 140.110313 
" style="fill: none; stroke: #1f77b4; stroke-width: 1.5; stroke-linecap: square"/>
    </g>
    <g id="text_19">
     <!-- aflplusplus_ast_f0 -->
     <g transform="translate(274.82625 143.610313)scale(0.1 -0.1)">
      <use xlink:href="#DejaVuSans-61"/>
      <use xlink:href="#DejaVuSans-66" x="61.279297"/>
      <use xlink:href="#DejaVuSans-6c" x="96.484375"/>
      <use xlink:href="#DejaVuSans-70" x="124.267578"/>
      <use xlink:href="#DejaVuSans-6c" x="187.744141"/>
      <use xlink:href="#DejaVuSans-75" x="215.527344"/>
      <use xlink:href="#DejaVuSans-73" x="278.90625"/>
      <use xlink:href="#DejaVuSans-70" x="331.005859"/>
      <use xlink:href="#DejaVuSans-6c" x="394.482422"/>
      <use xlink:href="#DejaVuSans-75" x="422.265625"/>
      <use xlink:href="#DejaVuSans-73" x="485.644531"/>
      <use xlink:href="#DejaVuSans-5f" x="537.744141"/>
      <use xlink:href="#DejaVuSans-61" x="587.744141"/>
      <use xlink:href="#DejaVuSans-73" x="649.023438"/>
      <use xlink:href="#DejaVuSans-74" x="701.123047"/>
      <use xlink:href="#DejaVuSans-5f" x="740.332031"/>
      <use xlink:href="#DejaVuSans-66" x="790.332031"/>
      <use xlink:href="#DejaVuSans-30" x="825.537109"/>
     </g>
    </g>
    <g id="line2d_34">
     <path d="M 246.82625 155.066563 
L 256.82625 155.066563 
L 266.82625 155.066563 
" style="fill: none; stroke: #d62728; stroke-width: 1.5; stroke-linecap: square"/>
    </g>
    <g id="text_20">
     <!-- aflplusplus_ast_o0 -->
     <g transform="translate(274.82625 158.566563)scale(0.1 -0.1)">
      <use xlink:href="#DejaVuSans-61"/>
      <use xlink:href="#DejaVuSans-66" x="61.279297"/>
      <use xlink:href="#DejaVuSans-6c" x="96.484375"/>
      <use xlink:href="#DejaVuSans-70" x="124.267578"/>
      <use xlink:href="#DejaVuSans-6c" x="187.744141"/>
      <use xlink:href="#DejaVuSans-75" x="215.527344"/>
      <use xlink:href="#DejaVuSans-73" x="278.90625"/>
      <use xlink:href="#DejaVuSans-70" x="331.005859"/>
      <use xlink:href="#DejaVuSans-6c" x="394.482422"/>
      <use xlink:href="#DejaVuSans-75" x="422.265625"/>
      <use xlink:href="#DejaVuSans-73" x="485.644531"/>
      <use xlink:href="#DejaVuSans-5f" x="537.744141"/>
      <use xlink:href="#DejaVuSans-61" x="587.744141"/>
      <use xlink:href="#DejaVuSans-73" x="649.023438"/>
      <use xlink:href="#DejaVuSans-74" x="701.123047"/>
      <use xlink:href="#DejaVuSans-5f" x="740.332031"/>
      <use xlink:href="#DejaVuSans-6f" x="790.332031"/>
      <use xlink:href="#DejaVuSans-30" x="851.513672"/>
     </g>
    </g>
    <g id="line2d_35">
     <path d="M 246.82625 170.022812 
L 256.82625 170.022812 
L 266.82625 170.022812 
" style="fill: none; stroke: #ff7f0e; stroke-width: 1.5; stroke-linecap: square"/>
    </g>
    <g id="text_21">
     <!-- aflplusplus_ast_o1 -->
     <g transform="translate(274.82625 173.522812)scale(0.1 -0.1)">
      <use xlink:href="#DejaVuSans-61"/>
      <use xlink:href="#DejaVuSans-66" x="61.279297"/>
      <use xlink:href="#DejaVuSans-6c" x="96.484375"/>
      <use xlink:href="#DejaVuSans-70" x="124.267578"/>
      <use xlink:href="#DejaVuSans-6c" x="187.744141"/>
      <use xlink:href="#DejaVuSans-75" x="215.527344"/>
      <use xlink:href="#DejaVuSans-73" x="278.90625"/>
      <use xlink:href="#DejaVuSans-70" x="331.005859"/>
      <use xlink:href="#DejaVuSans-6c" x="394.482422"/>
      <use xlink:href="#DejaVuSans-75" x="422.265625"/>
      <use xlink:href="#DejaVuSans-73" x="485.644531"/>
      <use xlink:href="#DejaVuSans-5f" x="537.744141"/>
      <use xlink:href="#DejaVuSans-61" x="587.744141"/>
      <use xlink:href="#DejaVuSans-73" x="649.023438"/>
      <use xlink:href="#DejaVuSans-74" x="701.123047"/>
      <use xlink:href="#DejaVuSans-5f" x="740.332031"/>
      <use xlink:href="#DejaVuSans-6f" x="790.332031"/>
      <use xlink:href="#DejaVuSans-31" x="851.513672"/>
     </g>
    </g>
    <g id="line2d_36">
     <path d="M 246.82625 184.979062 
L 256.82625 184.979062 
L 266.82625 184.979062 
" style="fill: none; stroke: #e377c2; stroke-width: 1.5; stroke-linecap: square"/>
    </g>
    <g id="text_22">
     <!-- aflplusplus_ast_o3 -->
     <g transform="translate(274.82625 188.479062)scale(0.1 -0.1)">
      <use xlink:href="#DejaVuSans-61"/>
      <use xlink:href="#DejaVuSans-66" x="61.279297"/>
      <use xlink:href="#DejaVuSans-6c" x="96.484375"/>
      <use xlink:href="#DejaVuSans-70" x="124.267578"/>
      <use xlink:href="#DejaVuSans-6c" x="187.744141"/>
      <use xlink:href="#DejaVuSans-75" x="215.527344"/>
      <use xlink:href="#DejaVuSans-73" x="278.90625"/>
      <use xlink:href="#DejaVuSans-70" x="331.005859"/>
      <use xlink:href="#DejaVuSans-6c" x="394.482422"/>
      <use xlink:href="#DejaVuSans-75" x="422.265625"/>
      <use xlink:href="#DejaVuSans-73" x="485.644531"/>
      <use xlink:href="#DejaVuSans-5f" x="537.744141"/>
      <use xlink:href="#DejaVuSans-61" x="587.744141"/>
      <use xlink:href="#DejaVuSans-73" x="649.023438"/>
      <use xlink:href="#DejaVuSans-74" x="701.123047"/>
      <use xlink:href="#DejaVuSans-5f" x="740.332031"/>
      <use xlink:href="#DejaVuSans-6f" x="790.332031"/>
      <use xlink:href="#DejaVuSans-33" x="851.513672"/>
     </g>
    </g>
   </g>
  </g>
 </g>
 <defs>
  <clipPath id="p801df87be8">
   <rect x="62.86875" y="22.318125" width="357.12" height="266.112"/>
  </clipPath>
 </defs>
</svg>
