<?xml version="1.0" encoding="utf-8" standalone="no"?>
<!DOCTYPE svg PUBLIC "-//W3C//DTD SVG 1.1//EN"
  "http://www.w3.org/Graphics/SVG/1.1/DTD/svg11.dtd">
<svg xmlns:xlink="http://www.w3.org/1999/xlink" width="433.659962pt" height="393.011865pt" viewBox="0 0 433.659962 393.011865" xmlns="http://www.w3.org/2000/svg" version="1.1">
 <metadata>
  <rdf:RDF xmlns:dc="http://purl.org/dc/elements/1.1/" xmlns:cc="http://creativecommons.org/ns#" xmlns:rdf="http://www.w3.org/1999/02/22-rdf-syntax-ns#">
   <cc:Work>
    <dc:type rdf:resource="http://purl.org/dc/dcmitype/StillImage"/>
    <dc:date>2022-06-05T15:49:53.509845</dc:date>
    <dc:format>image/svg+xml</dc:format>
    <dc:creator>
     <cc:Agent>
      <dc:title>Matplotlib v3.5.1, https://matplotlib.org/</dc:title>
     </cc:Agent>
    </dc:creator>
   </cc:Work>
  </rdf:RDF>
 </metadata>
 <defs>
  <style type="text/css">*{stroke-linejoin: round; stroke-linecap: butt}</style>
 </defs>
 <g id="figure_1">
  <g id="patch_1">
   <path d="M 0 393.011865 
L 433.659962 393.011865 
L 433.659962 -0 
L 0 -0 
z
" style="fill: #ffffff"/>
  </g>
  <g id="axes_1">
   <g id="patch_2">
    <path d="M 69.339962 288.430125 
L 426.459962 288.430125 
L 426.459962 22.318125 
L 69.339962 22.318125 
z
" style="fill: #ffffff"/>
   </g>
   <g id="PolyCollection_1">
    <defs>
     <path id="ma4e92fd477" d="M 89.230868 -116.67774 
L 89.129055 -116.67774 
L 89.122396 -119.121377 
L 89.115114 -121.565013 
L 89.107188 -124.00865 
L 89.098605 -126.452286 
L 89.089353 -128.895922 
L 89.07943 -131.339559 
L 89.068841 -133.783195 
L 89.057596 -136.226831 
L 89.045717 -138.670468 
L 89.033231 -141.114104 
L 89.020177 -143.55774 
L 89.006598 -146.001377 
L 88.992551 -148.445013 
L 88.978095 -150.88865 
L 88.963301 -153.332286 
L 88.948244 -155.775922 
L 88.933004 -158.219559 
L 88.917663 -160.663195 
L 88.902309 -163.106831 
L 88.887028 -165.550468 
L 88.871903 -167.994104 
L 88.857016 -170.43774 
L 88.842443 -172.881377 
L 88.828251 -175.325013 
L 88.8145 -177.76865 
L 88.801237 -180.212286 
L 88.788497 -182.655922 
L 88.776303 -185.099559 
L 88.764659 -187.543195 
L 88.753558 -189.986831 
L 88.742975 -192.430468 
L 88.73287 -194.874104 
L 88.72319 -197.31774 
L 88.713866 -199.761377 
L 88.704819 -202.205013 
L 88.69596 -204.64865 
L 88.687192 -207.092286 
L 88.678414 -209.535922 
L 88.669524 -211.979559 
L 88.66042 -214.423195 
L 88.651008 -216.866831 
L 88.641199 -219.310468 
L 88.63092 -221.754104 
L 88.620111 -224.19774 
L 88.608729 -226.641377 
L 88.596754 -229.085013 
L 88.584185 -231.52865 
L 88.57105 -233.972286 
L 88.557399 -236.415922 
L 88.543307 -238.859559 
L 88.528875 -241.303195 
L 88.51423 -243.746831 
L 88.499517 -246.190468 
L 88.484906 -248.634104 
L 88.470581 -251.07774 
L 88.456739 -253.521377 
L 88.44359 -255.965013 
L 88.431347 -258.40865 
L 88.420225 -260.852286 
L 88.410434 -263.295922 
L 88.402178 -265.739559 
L 88.395648 -268.183195 
L 88.391015 -270.626831 
L 88.388434 -273.070468 
L 88.388032 -275.514104 
L 88.38991 -277.95774 
L 88.394141 -280.401377 
L 88.400764 -282.845013 
L 88.409789 -285.28865 
L 88.421191 -287.732286 
L 88.434915 -290.175922 
L 88.450875 -292.619559 
L 88.468957 -295.063195 
L 88.489019 -297.506831 
L 88.510895 -299.950468 
L 88.534403 -302.394104 
L 88.559339 -304.83774 
L 88.58549 -307.281377 
L 88.612633 -309.725013 
L 88.640541 -312.16865 
L 88.668984 -314.612286 
L 88.697737 -317.055922 
L 88.726582 -319.499559 
L 88.755308 -321.943195 
L 88.783718 -324.386831 
L 88.811629 -326.830468 
L 88.838876 -329.274104 
L 88.865311 -331.71774 
L 88.890805 -334.161377 
L 88.91525 -336.605013 
L 88.938556 -339.04865 
L 88.960654 -341.492286 
L 88.981494 -343.935922 
L 89.001043 -346.379559 
L 89.019287 -348.823195 
L 89.036226 -351.266831 
L 89.051875 -353.710468 
L 89.066259 -356.154104 
L 89.079417 -358.59774 
L 89.280507 -358.59774 
L 89.280507 -358.59774 
L 89.293665 -356.154104 
L 89.308049 -353.710468 
L 89.323697 -351.266831 
L 89.340636 -348.823195 
L 89.358881 -346.379559 
L 89.37843 -343.935922 
L 89.39927 -341.492286 
L 89.421368 -339.04865 
L 89.444674 -336.605013 
L 89.469119 -334.161377 
L 89.494613 -331.71774 
L 89.521048 -329.274104 
L 89.548295 -326.830468 
L 89.576206 -324.386831 
L 89.604616 -321.943195 
L 89.633342 -319.499559 
L 89.662186 -317.055922 
L 89.69094 -314.612286 
L 89.719383 -312.16865 
L 89.747291 -309.725013 
L 89.774434 -307.281377 
L 89.800585 -304.83774 
L 89.825521 -302.394104 
L 89.849028 -299.950468 
L 89.870905 -297.506831 
L 89.890967 -295.063195 
L 89.909048 -292.619559 
L 89.925009 -290.175922 
L 89.938733 -287.732286 
L 89.950135 -285.28865 
L 89.95916 -282.845013 
L 89.965783 -280.401377 
L 89.970013 -277.95774 
L 89.971892 -275.514104 
L 89.97149 -273.070468 
L 89.968909 -270.626831 
L 89.964276 -268.183195 
L 89.957745 -265.739559 
L 89.949489 -263.295922 
L 89.939699 -260.852286 
L 89.928576 -258.40865 
L 89.916333 -255.965013 
L 89.903184 -253.521377 
L 89.889343 -251.07774 
L 89.875018 -248.634104 
L 89.860406 -246.190468 
L 89.845694 -243.746831 
L 89.831049 -241.303195 
L 89.816617 -238.859559 
L 89.802525 -236.415922 
L 89.788874 -233.972286 
L 89.775738 -231.52865 
L 89.76317 -229.085013 
L 89.751195 -226.641377 
L 89.739813 -224.19774 
L 89.729003 -221.754104 
L 89.718724 -219.310468 
L 89.708916 -216.866831 
L 89.699504 -214.423195 
L 89.6904 -211.979559 
L 89.68151 -209.535922 
L 89.672732 -207.092286 
L 89.663964 -204.64865 
L 89.655104 -202.205013 
L 89.646057 -199.761377 
L 89.636734 -197.31774 
L 89.627053 -194.874104 
L 89.616949 -192.430468 
L 89.606366 -189.986831 
L 89.595265 -187.543195 
L 89.583621 -185.099559 
L 89.571426 -182.655922 
L 89.558687 -180.212286 
L 89.545424 -177.76865 
L 89.531672 -175.325013 
L 89.517481 -172.881377 
L 89.502907 -170.43774 
L 89.488021 -167.994104 
L 89.472896 -165.550468 
L 89.457614 -163.106831 
L 89.44226 -160.663195 
L 89.42692 -158.219559 
L 89.41168 -155.775922 
L 89.396622 -153.332286 
L 89.381828 -150.88865 
L 89.367373 -148.445013 
L 89.353325 -146.001377 
L 89.339747 -143.55774 
L 89.326692 -141.114104 
L 89.314207 -138.670468 
L 89.302327 -136.226831 
L 89.291083 -133.783195 
L 89.280494 -131.339559 
L 89.270571 -128.895922 
L 89.261319 -126.452286 
L 89.252735 -124.00865 
L 89.24481 -121.565013 
L 89.237528 -119.121377 
L 89.230868 -116.67774 
z
" style="stroke: #3d3d3d; stroke-width: 1.5"/>
    </defs>
    <g clip-path="url(#p4a100f30d5)">
     <use xlink:href="#ma4e92fd477" x="0" y="393.011865" style="fill: #9fd495; stroke: #3d3d3d; stroke-width: 1.5"/>
    </g>
   </g>
   <g id="PolyCollection_2">
    <defs>
     <path id="m8cca414351" d="M 129.138978 -254.354183 
L 128.580946 -254.354183 
L 128.540653 -254.886107 
L 128.495969 -255.418032 
L 128.446648 -255.949957 
L 128.392463 -256.481882 
L 128.333218 -257.013807 
L 128.268749 -257.545732 
L 128.198932 -258.077657 
L 128.123692 -258.609582 
L 128.043004 -259.141507 
L 127.956901 -259.673432 
L 127.86548 -260.205356 
L 127.768907 -260.737281 
L 127.667415 -261.269206 
L 127.561311 -261.801131 
L 127.450977 -262.333056 
L 127.336867 -262.864981 
L 127.219506 -263.396906 
L 127.099487 -263.928831 
L 126.977466 -264.460756 
L 126.854157 -264.992681 
L 126.73032 -265.524605 
L 126.606757 -266.05653 
L 126.484295 -266.588455 
L 126.36378 -267.12038 
L 126.246064 -267.652305 
L 126.131987 -268.18423 
L 126.022369 -268.716155 
L 125.917993 -269.24808 
L 125.819595 -269.780005 
L 125.727848 -270.311929 
L 125.643352 -270.843854 
L 125.566624 -271.375779 
L 125.498089 -271.907704 
L 125.438072 -272.439629 
L 125.386793 -272.971554 
L 125.344364 -273.503479 
L 125.310791 -274.035404 
L 125.285969 -274.567329 
L 125.269695 -275.099254 
L 125.261666 -275.631178 
L 125.261493 -276.163103 
L 125.268708 -276.695028 
L 125.282778 -277.226953 
L 125.303117 -277.758878 
L 125.329104 -278.290803 
L 125.360092 -278.822728 
L 125.395431 -279.354653 
L 125.434476 -279.886578 
L 125.476608 -280.418502 
L 125.521243 -280.950427 
L 125.567848 -281.482352 
L 125.615948 -282.014277 
L 125.665138 -282.546202 
L 125.715087 -283.078127 
L 125.765544 -283.610052 
L 125.816336 -284.141977 
L 125.867372 -284.673902 
L 125.918633 -285.205827 
L 125.970172 -285.737751 
L 126.022103 -286.269676 
L 126.074592 -286.801601 
L 126.127848 -287.333526 
L 126.182104 -287.865451 
L 126.237615 -288.397376 
L 126.294636 -288.929301 
L 126.353413 -289.461226 
L 126.414172 -289.993151 
L 126.477105 -290.525075 
L 126.542365 -291.057 
L 126.610053 -291.588925 
L 126.680215 -292.12085 
L 126.752837 -292.652775 
L 126.827845 -293.1847 
L 126.9051 -293.716625 
L 126.984407 -294.24855 
L 127.065512 -294.780475 
L 127.148113 -295.3124 
L 127.231862 -295.844324 
L 127.316378 -296.376249 
L 127.401251 -296.908174 
L 127.486055 -297.440099 
L 127.570355 -297.972024 
L 127.653717 -298.503949 
L 127.735718 -299.035874 
L 127.815953 -299.567799 
L 127.894042 -300.099724 
L 127.969639 -300.631649 
L 128.042434 -301.163573 
L 128.112158 -301.695498 
L 128.178589 -302.227423 
L 128.241548 -302.759348 
L 128.300905 -303.291273 
L 128.356573 -303.823198 
L 128.408512 -304.355123 
L 128.45672 -304.887048 
L 128.501238 -305.418973 
L 128.542138 -305.950897 
L 128.579524 -306.482822 
L 128.613526 -307.014747 
L 129.106398 -307.014747 
L 129.106398 -307.014747 
L 129.1404 -306.482822 
L 129.177786 -305.950897 
L 129.218686 -305.418973 
L 129.263203 -304.887048 
L 129.311412 -304.355123 
L 129.363351 -303.823198 
L 129.419019 -303.291273 
L 129.478375 -302.759348 
L 129.541335 -302.227423 
L 129.607765 -301.695498 
L 129.67749 -301.163573 
L 129.750284 -300.631649 
L 129.825881 -300.099724 
L 129.903971 -299.567799 
L 129.984205 -299.035874 
L 130.066206 -298.503949 
L 130.149569 -297.972024 
L 130.233868 -297.440099 
L 130.318672 -296.908174 
L 130.403546 -296.376249 
L 130.488061 -295.844324 
L 130.571811 -295.3124 
L 130.654412 -294.780475 
L 130.735517 -294.24855 
L 130.814824 -293.716625 
L 130.892079 -293.1847 
L 130.967087 -292.652775 
L 131.039709 -292.12085 
L 131.109871 -291.588925 
L 131.177559 -291.057 
L 131.242818 -290.525075 
L 131.305752 -289.993151 
L 131.366511 -289.461226 
L 131.425288 -288.929301 
L 131.482308 -288.397376 
L 131.537819 -287.865451 
L 131.592076 -287.333526 
L 131.645331 -286.801601 
L 131.697821 -286.269676 
L 131.749752 -285.737751 
L 131.801291 -285.205827 
L 131.852552 -284.673902 
L 131.903587 -284.141977 
L 131.95438 -283.610052 
L 132.004837 -283.078127 
L 132.054786 -282.546202 
L 132.103976 -282.014277 
L 132.152076 -281.482352 
L 132.19868 -280.950427 
L 132.243315 -280.418502 
L 132.285447 -279.886578 
L 132.324493 -279.354653 
L 132.359831 -278.822728 
L 132.39082 -278.290803 
L 132.416806 -277.758878 
L 132.437146 -277.226953 
L 132.451216 -276.695028 
L 132.458431 -276.163103 
L 132.458257 -275.631178 
L 132.450229 -275.099254 
L 132.433954 -274.567329 
L 132.409133 -274.035404 
L 132.375559 -273.503479 
L 132.333131 -272.971554 
L 132.281852 -272.439629 
L 132.221835 -271.907704 
L 132.1533 -271.375779 
L 132.076572 -270.843854 
L 131.992076 -270.311929 
L 131.900329 -269.780005 
L 131.801931 -269.24808 
L 131.697555 -268.716155 
L 131.587937 -268.18423 
L 131.47386 -267.652305 
L 131.356143 -267.12038 
L 131.235629 -266.588455 
L 131.113167 -266.05653 
L 130.989603 -265.524605 
L 130.865767 -264.992681 
L 130.742457 -264.460756 
L 130.620437 -263.928831 
L 130.500418 -263.396906 
L 130.383057 -262.864981 
L 130.268947 -262.333056 
L 130.158613 -261.801131 
L 130.052509 -261.269206 
L 129.951017 -260.737281 
L 129.854443 -260.205356 
L 129.763023 -259.673432 
L 129.67692 -259.141507 
L 129.596232 -258.609582 
L 129.520991 -258.077657 
L 129.451175 -257.545732 
L 129.386706 -257.013807 
L 129.327461 -256.481882 
L 129.273276 -255.949957 
L 129.223954 -255.418032 
L 129.179271 -254.886107 
L 129.138978 -254.354183 
z
" style="stroke: #3d3d3d; stroke-width: 1.5"/>
    </defs>
    <g clip-path="url(#p4a100f30d5)">
     <use xlink:href="#m8cca414351" x="0" y="393.011865" style="fill: #d684bd; stroke: #3d3d3d; stroke-width: 1.5"/>
    </g>
   </g>
   <g id="PolyCollection_3">
    <defs>
     <path id="m31947a89b1" d="M 168.737253 -228.166819 
L 168.342671 -228.166819 
L 168.314561 -229.092052 
L 168.283459 -230.017285 
L 168.249214 -230.942518 
L 168.211692 -231.867751 
L 168.170782 -232.792983 
L 168.126402 -233.718216 
L 168.078503 -234.643449 
L 168.027073 -235.568682 
L 167.972139 -236.493915 
L 167.913776 -237.419148 
L 167.852108 -238.344381 
L 167.787309 -239.269614 
L 167.719607 -240.194846 
L 167.649283 -241.120079 
L 167.576674 -242.045312 
L 167.502168 -242.970545 
L 167.426204 -243.895778 
L 167.349266 -244.821011 
L 167.271882 -245.746244 
L 167.19461 -246.671477 
L 167.118039 -247.596709 
L 167.042775 -248.521942 
L 166.969434 -249.447175 
L 166.898631 -250.372408 
L 166.830966 -251.297641 
L 166.767021 -252.222874 
L 166.707342 -253.148107 
L 166.652431 -254.07334 
L 166.602735 -254.998572 
L 166.55864 -255.923805 
L 166.520458 -256.849038 
L 166.488426 -257.774271 
L 166.462696 -258.699504 
L 166.443335 -259.624737 
L 166.430324 -260.54997 
L 166.423555 -261.475203 
L 166.422838 -262.400435 
L 166.427904 -263.325668 
L 166.43841 -264.250901 
L 166.453952 -265.176134 
L 166.474066 -266.101367 
L 166.49825 -267.0266 
L 166.525966 -267.951833 
L 166.556658 -268.877066 
L 166.589762 -269.802298 
L 166.624723 -270.727531 
L 166.661002 -271.652764 
L 166.698088 -272.577997 
L 166.735513 -273.50323 
L 166.772856 -274.428463 
L 166.809754 -275.353696 
L 166.845905 -276.278929 
L 166.881073 -277.204161 
L 166.915092 -278.129394 
L 166.947862 -279.054627 
L 166.979351 -279.97986 
L 167.009587 -280.905093 
L 167.038659 -281.830326 
L 167.066703 -282.755559 
L 167.093902 -283.680791 
L 167.12047 -284.606024 
L 167.146647 -285.531257 
L 167.17269 -286.45649 
L 167.198858 -287.381723 
L 167.225412 -288.306956 
L 167.252596 -289.232189 
L 167.280637 -290.157422 
L 167.309732 -291.082654 
L 167.340047 -292.007887 
L 167.371711 -292.93312 
L 167.404809 -293.858353 
L 167.439387 -294.783586 
L 167.475444 -295.708819 
L 167.51294 -296.634052 
L 167.551791 -297.559285 
L 167.591878 -298.484517 
L 167.633045 -299.40975 
L 167.675111 -300.334983 
L 167.717868 -301.260216 
L 167.76109 -302.185449 
L 167.80454 -303.110682 
L 167.847974 -304.035915 
L 167.891144 -304.961148 
L 167.93381 -305.88638 
L 167.975739 -306.811613 
L 168.016713 -307.736846 
L 168.056528 -308.662079 
L 168.095005 -309.587312 
L 168.131983 -310.512545 
L 168.167327 -311.437778 
L 168.200929 -312.363011 
L 168.232703 -313.288243 
L 168.262591 -314.213476 
L 168.290557 -315.138709 
L 168.316591 -316.063942 
L 168.3407 -316.989175 
L 168.362915 -317.914408 
L 168.383281 -318.839641 
L 168.401859 -319.764874 
L 168.678064 -319.764874 
L 168.678064 -319.764874 
L 168.696642 -318.839641 
L 168.717009 -317.914408 
L 168.739223 -316.989175 
L 168.763333 -316.063942 
L 168.789366 -315.138709 
L 168.817333 -314.213476 
L 168.847221 -313.288243 
L 168.878995 -312.363011 
L 168.912596 -311.437778 
L 168.947941 -310.512545 
L 168.984919 -309.587312 
L 169.023395 -308.662079 
L 169.063211 -307.736846 
L 169.104185 -306.811613 
L 169.146114 -305.88638 
L 169.18878 -304.961148 
L 169.23195 -304.035915 
L 169.275383 -303.110682 
L 169.318833 -302.185449 
L 169.362056 -301.260216 
L 169.404813 -300.334983 
L 169.446878 -299.40975 
L 169.488046 -298.484517 
L 169.528133 -297.559285 
L 169.566984 -296.634052 
L 169.604479 -295.708819 
L 169.640537 -294.783586 
L 169.675115 -293.858353 
L 169.708213 -292.93312 
L 169.739877 -292.007887 
L 169.770192 -291.082654 
L 169.799287 -290.157422 
L 169.827328 -289.232189 
L 169.854512 -288.306956 
L 169.881065 -287.381723 
L 169.907234 -286.45649 
L 169.933276 -285.531257 
L 169.959454 -284.606024 
L 169.986022 -283.680791 
L 170.01322 -282.755559 
L 170.041265 -281.830326 
L 170.070337 -280.905093 
L 170.100573 -279.97986 
L 170.132061 -279.054627 
L 170.164832 -278.129394 
L 170.19885 -277.204161 
L 170.234019 -276.278929 
L 170.27017 -275.353696 
L 170.307068 -274.428463 
L 170.344411 -273.50323 
L 170.381836 -272.577997 
L 170.418922 -271.652764 
L 170.4552 -270.727531 
L 170.490161 -269.802298 
L 170.523266 -268.877066 
L 170.553958 -267.951833 
L 170.581674 -267.0266 
L 170.605857 -266.101367 
L 170.625972 -265.176134 
L 170.641513 -264.250901 
L 170.65202 -263.325668 
L 170.657086 -262.400435 
L 170.656369 -261.475203 
L 170.6496 -260.54997 
L 170.636589 -259.624737 
L 170.617228 -258.699504 
L 170.591498 -257.774271 
L 170.559466 -256.849038 
L 170.521284 -255.923805 
L 170.477189 -254.998572 
L 170.427493 -254.07334 
L 170.372582 -253.148107 
L 170.312902 -252.222874 
L 170.248958 -251.297641 
L 170.181293 -250.372408 
L 170.110489 -249.447175 
L 170.037148 -248.521942 
L 169.961885 -247.596709 
L 169.885314 -246.671477 
L 169.808042 -245.746244 
L 169.730657 -244.821011 
L 169.65372 -243.895778 
L 169.577756 -242.970545 
L 169.50325 -242.045312 
L 169.430641 -241.120079 
L 169.360317 -240.194846 
L 169.292614 -239.269614 
L 169.227815 -238.344381 
L 169.166147 -237.419148 
L 169.107785 -236.493915 
L 169.052851 -235.568682 
L 169.00142 -234.643449 
L 168.953521 -233.718216 
L 168.909142 -232.792983 
L 168.868232 -231.867751 
L 168.83071 -230.942518 
L 168.796464 -230.017285 
L 168.765363 -229.092052 
L 168.737253 -228.166819 
z
" style="stroke: #3d3d3d; stroke-width: 1.5"/>
    </defs>
    <g clip-path="url(#p4a100f30d5)">
     <use xlink:href="#m31947a89b1" x="0" y="393.011865" style="fill: #3a923a; stroke: #3d3d3d; stroke-width: 1.5"/>
    </g>
   </g>
   <g id="PolyCollection_4">
    <defs>
     <path id="m41bcf0ace4" d="M 209.082912 -252.620878 
L 207.357011 -252.620878 
L 207.240704 -252.769219 
L 207.113179 -252.91756 
L 206.974053 -253.065902 
L 206.823034 -253.214243 
L 206.659941 -253.362584 
L 206.48471 -253.510925 
L 206.297415 -253.659267 
L 206.098271 -253.807608 
L 205.887646 -253.955949 
L 205.666069 -254.10429 
L 205.434224 -254.252632 
L 205.192956 -254.400973 
L 204.94326 -254.549314 
L 204.686272 -254.697655 
L 204.423258 -254.845997 
L 204.155586 -254.994338 
L 203.884713 -255.142679 
L 203.612149 -255.29102 
L 203.339432 -255.439362 
L 203.068093 -255.587703 
L 202.799617 -255.736044 
L 202.535415 -255.884385 
L 202.276779 -256.032726 
L 202.024854 -256.181068 
L 201.780601 -256.329409 
L 201.54477 -256.47775 
L 201.317877 -256.626091 
L 201.100183 -256.774433 
L 200.891685 -256.922774 
L 200.692108 -257.071115 
L 200.500914 -257.219456 
L 200.317312 -257.367798 
L 200.140276 -257.516139 
L 199.968581 -257.66448 
L 199.800833 -257.812821 
L 199.635517 -257.961163 
L 199.471046 -258.109504 
L 199.305816 -258.257845 
L 199.138264 -258.406186 
L 198.966927 -258.554528 
L 198.790502 -258.702869 
L 198.607903 -258.85121 
L 198.418314 -258.999551 
L 198.221238 -259.147893 
L 198.016536 -259.296234 
L 197.804459 -259.444575 
L 197.585667 -259.592916 
L 197.361243 -259.741258 
L 197.132691 -259.889599 
L 196.901918 -260.03794 
L 196.671215 -260.186281 
L 196.443213 -260.334623 
L 196.220843 -260.482964 
L 196.007271 -260.631305 
L 195.805839 -260.779646 
L 195.619992 -260.927988 
L 195.453197 -261.076329 
L 195.308873 -261.22467 
L 195.190304 -261.373011 
L 195.100569 -261.521353 
L 195.042467 -261.669694 
L 195.018447 -261.818035 
L 195.030555 -261.966376 
L 195.080383 -262.114718 
L 195.169027 -262.263059 
L 195.297063 -262.4114 
L 195.464533 -262.559741 
L 195.670939 -262.708083 
L 195.915253 -262.856424 
L 196.195941 -263.004765 
L 196.510993 -263.153106 
L 196.857965 -263.301448 
L 197.234028 -263.449789 
L 197.636027 -263.59813 
L 198.060544 -263.746471 
L 198.503962 -263.894813 
L 198.962532 -264.043154 
L 199.432443 -264.191495 
L 199.909885 -264.339836 
L 200.391113 -264.488177 
L 200.872505 -264.636519 
L 201.350614 -264.78486 
L 201.822213 -264.933201 
L 202.284335 -265.081542 
L 202.734301 -265.229884 
L 203.169747 -265.378225 
L 203.588634 -265.526566 
L 203.989259 -265.674907 
L 204.370254 -265.823249 
L 204.730581 -265.97159 
L 205.069517 -266.119931 
L 205.386639 -266.268272 
L 205.681803 -266.416614 
L 205.955118 -266.564955 
L 206.206922 -266.713296 
L 206.437747 -266.861637 
L 206.648299 -267.009979 
L 206.839422 -267.15832 
L 207.012071 -267.306661 
L 209.427853 -267.306661 
L 209.427853 -267.306661 
L 209.600502 -267.15832 
L 209.791624 -267.009979 
L 210.002176 -266.861637 
L 210.233002 -266.713296 
L 210.484805 -266.564955 
L 210.758121 -266.416614 
L 211.053285 -266.268272 
L 211.370407 -266.119931 
L 211.709343 -265.97159 
L 212.069669 -265.823249 
L 212.450665 -265.674907 
L 212.85129 -265.526566 
L 213.270177 -265.378225 
L 213.705622 -265.229884 
L 214.155589 -265.081542 
L 214.617711 -264.933201 
L 215.08931 -264.78486 
L 215.567419 -264.636519 
L 216.048811 -264.488177 
L 216.530039 -264.339836 
L 217.00748 -264.191495 
L 217.477391 -264.043154 
L 217.935962 -263.894813 
L 218.379379 -263.746471 
L 218.803897 -263.59813 
L 219.205896 -263.449789 
L 219.581959 -263.301448 
L 219.92893 -263.153106 
L 220.243982 -263.004765 
L 220.524671 -262.856424 
L 220.768985 -262.708083 
L 220.97539 -262.559741 
L 221.14286 -262.4114 
L 221.270897 -262.263059 
L 221.359541 -262.114718 
L 221.409369 -261.966376 
L 221.421477 -261.818035 
L 221.397457 -261.669694 
L 221.339354 -261.521353 
L 221.24962 -261.373011 
L 221.131051 -261.22467 
L 220.986727 -261.076329 
L 220.819932 -260.927988 
L 220.634084 -260.779646 
L 220.432653 -260.631305 
L 220.219081 -260.482964 
L 219.996711 -260.334623 
L 219.768709 -260.186281 
L 219.538005 -260.03794 
L 219.307233 -259.889599 
L 219.078681 -259.741258 
L 218.854257 -259.592916 
L 218.635465 -259.444575 
L 218.423387 -259.296234 
L 218.218685 -259.147893 
L 218.021609 -258.999551 
L 217.832021 -258.85121 
L 217.649422 -258.702869 
L 217.472997 -258.554528 
L 217.30166 -258.406186 
L 217.134108 -258.257845 
L 216.968878 -258.109504 
L 216.804407 -257.961163 
L 216.639091 -257.812821 
L 216.471343 -257.66448 
L 216.299647 -257.516139 
L 216.122612 -257.367798 
L 215.93901 -257.219456 
L 215.747816 -257.071115 
L 215.548239 -256.922774 
L 215.33974 -256.774433 
L 215.122047 -256.626091 
L 214.895154 -256.47775 
L 214.659323 -256.329409 
L 214.41507 -256.181068 
L 214.163145 -256.032726 
L 213.904509 -255.884385 
L 213.640307 -255.736044 
L 213.371831 -255.587703 
L 213.100491 -255.439362 
L 212.827774 -255.29102 
L 212.555211 -255.142679 
L 212.284337 -254.994338 
L 212.016666 -254.845997 
L 211.753651 -254.697655 
L 211.496664 -254.549314 
L 211.246968 -254.400973 
L 211.0057 -254.252632 
L 210.773855 -254.10429 
L 210.552277 -253.955949 
L 210.341653 -253.807608 
L 210.142509 -253.659267 
L 209.955213 -253.510925 
L 209.779983 -253.362584 
L 209.616889 -253.214243 
L 209.465871 -253.065902 
L 209.326745 -252.91756 
L 209.19922 -252.769219 
L 209.082912 -252.620878 
z
" style="stroke: #3d3d3d; stroke-width: 1.5"/>
    </defs>
    <g clip-path="url(#p4a100f30d5)">
     <use xlink:href="#m41bcf0ace4" x="0" y="393.011865" style="fill: #c03d3e; stroke: #3d3d3d; stroke-width: 1.5"/>
    </g>
   </g>
   <g id="PolyCollection_5">
    <defs>
     <path id="mfe0df44278" d="M 248.269232 -241.092607 
L 247.530692 -241.092607 
L 247.480256 -241.67984 
L 247.424801 -242.267072 
L 247.364124 -242.854305 
L 247.298066 -243.441537 
L 247.226508 -244.028769 
L 247.149388 -244.616002 
L 247.066705 -245.203234 
L 246.978525 -245.790467 
L 246.884985 -246.377699 
L 246.786305 -246.964931 
L 246.682783 -247.552164 
L 246.574804 -248.139396 
L 246.462841 -248.726629 
L 246.347449 -249.313861 
L 246.229267 -249.901093 
L 246.109013 -250.488326 
L 245.987475 -251.075558 
L 245.865505 -251.662791 
L 245.744007 -252.250023 
L 245.623925 -252.837255 
L 245.506229 -253.424488 
L 245.3919 -254.01172 
L 245.281911 -254.598952 
L 245.177215 -255.186185 
L 245.078724 -255.773417 
L 244.987291 -256.36065 
L 244.903695 -256.947882 
L 244.828628 -257.535114 
L 244.762674 -258.122347 
L 244.706304 -258.709579 
L 244.65986 -259.296812 
L 244.623554 -259.884044 
L 244.597456 -260.471276 
L 244.581501 -261.058509 
L 244.575482 -261.645741 
L 244.579062 -262.232974 
L 244.591778 -262.820206 
L 244.613052 -263.407438 
L 244.642207 -263.994671 
L 244.678479 -264.581903 
L 244.721037 -265.169136 
L 244.769001 -265.756368 
L 244.821462 -266.3436 
L 244.877503 -266.930833 
L 244.936215 -267.518065 
L 244.996724 -268.105298 
L 245.058201 -268.69253 
L 245.119882 -269.279762 
L 245.181085 -269.866995 
L 245.241215 -270.454227 
L 245.299779 -271.04146 
L 245.35639 -271.628692 
L 245.41077 -272.215924 
L 245.462751 -272.803157 
L 245.512272 -273.390389 
L 245.559372 -273.977622 
L 245.604187 -274.564854 
L 245.646932 -275.152086 
L 245.687898 -275.739319 
L 245.727431 -276.326551 
L 245.765923 -276.913784 
L 245.803794 -277.501016 
L 245.84148 -278.088248 
L 245.879414 -278.675481 
L 245.918017 -279.262713 
L 245.957682 -279.849946 
L 245.998764 -280.437178 
L 246.04157 -281.02441 
L 246.086351 -281.611643 
L 246.133295 -282.198875 
L 246.182527 -282.786108 
L 246.234103 -283.37334 
L 246.288012 -283.960572 
L 246.344177 -284.547805 
L 246.402461 -285.135037 
L 246.462669 -285.72227 
L 246.524558 -286.309502 
L 246.587842 -286.896734 
L 246.652199 -287.483967 
L 246.717284 -288.071199 
L 246.782733 -288.658432 
L 246.848173 -289.245664 
L 246.913234 -289.832896 
L 246.977549 -290.420129 
L 247.040771 -291.007361 
L 247.102569 -291.594593 
L 247.162642 -292.181826 
L 247.220718 -292.769058 
L 247.276559 -293.356291 
L 247.329963 -293.943523 
L 247.380767 -294.530755 
L 247.428844 -295.117988 
L 247.474105 -295.70522 
L 247.516496 -296.292453 
L 247.555999 -296.879685 
L 247.592626 -297.466917 
L 247.626418 -298.05415 
L 247.657441 -298.641382 
L 247.685783 -299.228615 
L 248.114141 -299.228615 
L 248.114141 -299.228615 
L 248.142483 -298.641382 
L 248.173506 -298.05415 
L 248.207297 -297.466917 
L 248.243924 -296.879685 
L 248.283427 -296.292453 
L 248.325819 -295.70522 
L 248.37108 -295.117988 
L 248.419156 -294.530755 
L 248.46996 -293.943523 
L 248.523365 -293.356291 
L 248.579206 -292.769058 
L 248.637282 -292.181826 
L 248.697355 -291.594593 
L 248.759153 -291.007361 
L 248.822374 -290.420129 
L 248.88669 -289.832896 
L 248.95175 -289.245664 
L 249.017191 -288.658432 
L 249.08264 -288.071199 
L 249.147724 -287.483967 
L 249.212082 -286.896734 
L 249.275366 -286.309502 
L 249.337255 -285.72227 
L 249.397463 -285.135037 
L 249.455747 -284.547805 
L 249.511912 -283.960572 
L 249.56582 -283.37334 
L 249.617396 -282.786108 
L 249.666628 -282.198875 
L 249.713573 -281.611643 
L 249.758354 -281.02441 
L 249.80116 -280.437178 
L 249.842242 -279.849946 
L 249.881907 -279.262713 
L 249.92051 -278.675481 
L 249.958444 -278.088248 
L 249.99613 -277.501016 
L 250.034001 -276.913784 
L 250.072493 -276.326551 
L 250.112026 -275.739319 
L 250.152992 -275.152086 
L 250.195737 -274.564854 
L 250.240552 -273.977622 
L 250.287652 -273.390389 
L 250.337173 -272.803157 
L 250.389154 -272.215924 
L 250.443534 -271.628692 
L 250.500145 -271.04146 
L 250.558709 -270.454227 
L 250.618839 -269.866995 
L 250.680041 -269.279762 
L 250.741723 -268.69253 
L 250.8032 -268.105298 
L 250.863708 -267.518065 
L 250.922421 -266.930833 
L 250.978461 -266.3436 
L 251.030922 -265.756368 
L 251.078887 -265.169136 
L 251.121445 -264.581903 
L 251.157717 -263.994671 
L 251.186872 -263.407438 
L 251.208146 -262.820206 
L 251.220862 -262.232974 
L 251.224442 -261.645741 
L 251.218423 -261.058509 
L 251.202468 -260.471276 
L 251.17637 -259.884044 
L 251.140064 -259.296812 
L 251.09362 -258.709579 
L 251.03725 -258.122347 
L 250.971296 -257.535114 
L 250.896228 -256.947882 
L 250.812633 -256.36065 
L 250.7212 -255.773417 
L 250.622709 -255.186185 
L 250.518013 -254.598952 
L 250.408024 -254.01172 
L 250.293694 -253.424488 
L 250.175998 -252.837255 
L 250.055916 -252.250023 
L 249.934419 -251.662791 
L 249.812449 -251.075558 
L 249.690911 -250.488326 
L 249.570657 -249.901093 
L 249.452475 -249.313861 
L 249.337083 -248.726629 
L 249.225119 -248.139396 
L 249.117141 -247.552164 
L 249.013619 -246.964931 
L 248.914939 -246.377699 
L 248.821399 -245.790467 
L 248.733218 -245.203234 
L 248.650536 -244.616002 
L 248.573416 -244.028769 
L 248.501858 -243.441537 
L 248.435799 -242.854305 
L 248.375123 -242.267072 
L 248.319668 -241.67984 
L 248.269232 -241.092607 
z
" style="stroke: #3d3d3d; stroke-width: 1.5"/>
    </defs>
    <g clip-path="url(#p4a100f30d5)">
     <use xlink:href="#mfe0df44278" x="0" y="393.011865" style="fill: #3274a1; stroke: #3d3d3d; stroke-width: 1.5"/>
    </g>
   </g>
   <g id="PolyCollection_6">
    <defs>
     <path id="ma0c7244764" d="M 287.982512 -232.94941 
L 287.177412 -232.94941 
L 287.119193 -233.348615 
L 287.054614 -233.747819 
L 286.983321 -234.147024 
L 286.904991 -234.546229 
L 286.819343 -234.945433 
L 286.726151 -235.344638 
L 286.625248 -235.743842 
L 286.516542 -236.143047 
L 286.400021 -236.542252 
L 286.275762 -236.941456 
L 286.143943 -237.340661 
L 286.004843 -237.739866 
L 285.858854 -238.13907 
L 285.70648 -238.538275 
L 285.548338 -238.93748 
L 285.385161 -239.336684 
L 285.217791 -239.735889 
L 285.047175 -240.135094 
L 284.874355 -240.534298 
L 284.70046 -240.933503 
L 284.526688 -241.332707 
L 284.354294 -241.731912 
L 284.184571 -242.131117 
L 284.018829 -242.530321 
L 283.858376 -242.929526 
L 283.704495 -243.328731 
L 283.55842 -243.727935 
L 283.421318 -244.12714 
L 283.294261 -244.526345 
L 283.178212 -244.925549 
L 283.074001 -245.324754 
L 282.982314 -245.723958 
L 282.903675 -246.123163 
L 282.838437 -246.522368 
L 282.786778 -246.921572 
L 282.748695 -247.320777 
L 282.724007 -247.719982 
L 282.712361 -248.119186 
L 282.713239 -248.518391 
L 282.725975 -248.917596 
L 282.749767 -249.3168 
L 282.783701 -249.716005 
L 282.826771 -250.11521 
L 282.877904 -250.514414 
L 282.935985 -250.913619 
L 282.999884 -251.312823 
L 283.068481 -251.712028 
L 283.140692 -252.111233 
L 283.215493 -252.510437 
L 283.29194 -252.909642 
L 283.36919 -253.308847 
L 283.446513 -253.708051 
L 283.523307 -254.107256 
L 283.599105 -254.506461 
L 283.673576 -254.905665 
L 283.74653 -255.30487 
L 283.817907 -255.704074 
L 283.887775 -256.103279 
L 283.956316 -256.502484 
L 284.023808 -256.901688 
L 284.090615 -257.300893 
L 284.157163 -257.700098 
L 284.223922 -258.099302 
L 284.291383 -258.498507 
L 284.360044 -258.897712 
L 284.430382 -259.296916 
L 284.50284 -259.696121 
L 284.577811 -260.095326 
L 284.655619 -260.49453 
L 284.736514 -260.893735 
L 284.820657 -261.292939 
L 284.908121 -261.692144 
L 284.998881 -262.091349 
L 285.092822 -262.490553 
L 285.189736 -262.889758 
L 285.289332 -263.288963 
L 285.391242 -263.688167 
L 285.495033 -264.087372 
L 285.600218 -264.486577 
L 285.706264 -264.885781 
L 285.812614 -265.284986 
L 285.918692 -265.68419 
L 286.023921 -266.083395 
L 286.127735 -266.4826 
L 286.229588 -266.881804 
L 286.328965 -267.281009 
L 286.425396 -267.680214 
L 286.518454 -268.079418 
L 286.607769 -268.478623 
L 286.69303 -268.877828 
L 286.773982 -269.277032 
L 286.850434 -269.676237 
L 286.922255 -270.075442 
L 286.989372 -270.474646 
L 287.051767 -270.873851 
L 287.109473 -271.273055 
L 287.162568 -271.67226 
L 287.211174 -272.071465 
L 287.255446 -272.470669 
L 287.904478 -272.470669 
L 287.904478 -272.470669 
L 287.948749 -272.071465 
L 287.997355 -271.67226 
L 288.050451 -271.273055 
L 288.108157 -270.873851 
L 288.170552 -270.474646 
L 288.237669 -270.075442 
L 288.30949 -269.676237 
L 288.385942 -269.277032 
L 288.466894 -268.877828 
L 288.552154 -268.478623 
L 288.64147 -268.079418 
L 288.734528 -267.680214 
L 288.830958 -267.281009 
L 288.930336 -266.881804 
L 289.032189 -266.4826 
L 289.136002 -266.083395 
L 289.241232 -265.68419 
L 289.34731 -265.284986 
L 289.45366 -264.885781 
L 289.559706 -264.486577 
L 289.66489 -264.087372 
L 289.768682 -263.688167 
L 289.870592 -263.288963 
L 289.970188 -262.889758 
L 290.067102 -262.490553 
L 290.161042 -262.091349 
L 290.251803 -261.692144 
L 290.339266 -261.292939 
L 290.42341 -260.893735 
L 290.504305 -260.49453 
L 290.582113 -260.095326 
L 290.657084 -259.696121 
L 290.729542 -259.296916 
L 290.79988 -258.897712 
L 290.86854 -258.498507 
L 290.936002 -258.099302 
L 291.002761 -257.700098 
L 291.069309 -257.300893 
L 291.136116 -256.901688 
L 291.203608 -256.502484 
L 291.272148 -256.103279 
L 291.342017 -255.704074 
L 291.413394 -255.30487 
L 291.486348 -254.905665 
L 291.560819 -254.506461 
L 291.636616 -254.107256 
L 291.713411 -253.708051 
L 291.790734 -253.308847 
L 291.867983 -252.909642 
L 291.944431 -252.510437 
L 292.019232 -252.111233 
L 292.091443 -251.712028 
L 292.16004 -251.312823 
L 292.223938 -250.913619 
L 292.282019 -250.514414 
L 292.333152 -250.11521 
L 292.376222 -249.716005 
L 292.410157 -249.3168 
L 292.433949 -248.917596 
L 292.446684 -248.518391 
L 292.447563 -248.119186 
L 292.435916 -247.719982 
L 292.411229 -247.320777 
L 292.373146 -246.921572 
L 292.321487 -246.522368 
L 292.256249 -246.123163 
L 292.17761 -245.723958 
L 292.085922 -245.324754 
L 291.981712 -244.925549 
L 291.865663 -244.526345 
L 291.738606 -244.12714 
L 291.601503 -243.727935 
L 291.455429 -243.328731 
L 291.301548 -242.929526 
L 291.141095 -242.530321 
L 290.975353 -242.131117 
L 290.80563 -241.731912 
L 290.633236 -241.332707 
L 290.459464 -240.933503 
L 290.285568 -240.534298 
L 290.112749 -240.135094 
L 289.942132 -239.735889 
L 289.774763 -239.336684 
L 289.611586 -238.93748 
L 289.453444 -238.538275 
L 289.301069 -238.13907 
L 289.15508 -237.739866 
L 289.015981 -237.340661 
L 288.884161 -236.941456 
L 288.759903 -236.542252 
L 288.643382 -236.143047 
L 288.534676 -235.743842 
L 288.433773 -235.344638 
L 288.340581 -234.945433 
L 288.254933 -234.546229 
L 288.176603 -234.147024 
L 288.105309 -233.747819 
L 288.040731 -233.348615 
L 287.982512 -232.94941 
z
" style="stroke: #3d3d3d; stroke-width: 1.5"/>
    </defs>
    <g clip-path="url(#p4a100f30d5)">
     <use xlink:href="#ma0c7244764" x="0" y="393.011865" style="fill: #c4b5d0; stroke: #3d3d3d; stroke-width: 1.5"/>
    </g>
   </g>
   <g id="PolyCollection_7">
    <defs>
     <path id="m0bcb5d1ccd" d="M 328.285133 -240.694448 
L 326.23479 -240.694448 
L 326.098506 -240.817673 
L 325.949272 -240.940898 
L 325.786658 -241.064123 
L 325.610342 -241.187348 
L 325.420125 -241.310573 
L 325.215947 -241.433798 
L 324.997901 -241.557023 
L 324.766245 -241.680248 
L 324.521411 -241.803473 
L 324.264015 -241.926698 
L 323.994852 -242.049924 
L 323.714903 -242.173149 
L 323.425321 -242.296374 
L 323.127424 -242.419599 
L 322.82268 -242.542824 
L 322.51268 -242.666049 
L 322.199117 -242.789274 
L 321.883755 -242.912499 
L 321.56839 -243.035724 
L 321.254817 -243.158949 
L 320.944786 -243.282174 
L 320.639963 -243.405399 
L 320.341885 -243.528624 
L 320.05192 -243.651849 
L 319.771227 -243.775074 
L 319.500723 -243.898299 
L 319.241048 -244.021524 
L 318.992547 -244.144749 
L 318.755245 -244.267974 
L 318.528848 -244.391199 
L 318.312733 -244.514425 
L 318.105968 -244.63765 
L 317.907324 -244.760875 
L 317.715309 -244.8841 
L 317.528209 -245.007325 
L 317.344131 -245.13055 
L 317.161064 -245.253775 
L 316.976939 -245.377 
L 316.789699 -245.500225 
L 316.597367 -245.62345 
L 316.39812 -245.746675 
L 316.190361 -245.8699 
L 315.972785 -245.993125 
L 315.744442 -246.11635 
L 315.504794 -246.239575 
L 315.253762 -246.3628 
L 314.991758 -246.486025 
L 314.719713 -246.60925 
L 314.439081 -246.732475 
L 314.151838 -246.8557 
L 313.860463 -246.978925 
L 313.567903 -247.102151 
L 313.277526 -247.225376 
L 312.99306 -247.348601 
L 312.718525 -247.471826 
L 312.458149 -247.595051 
L 312.216278 -247.718276 
L 311.997286 -247.841501 
L 311.805476 -247.964726 
L 311.644985 -248.087951 
L 311.519688 -248.211176 
L 311.433107 -248.334401 
L 311.388336 -248.457626 
L 311.387962 -248.580851 
L 311.434008 -248.704076 
L 311.527885 -248.827301 
L 311.670358 -248.950526 
L 311.861529 -249.073751 
L 312.100829 -249.196976 
L 312.387039 -249.320201 
L 312.718306 -249.443426 
L 313.092189 -249.566651 
L 313.505707 -249.689877 
L 313.955405 -249.813102 
L 314.43742 -249.936327 
L 314.947561 -250.059552 
L 315.481388 -250.182777 
L 316.034298 -250.306002 
L 316.601606 -250.429227 
L 317.178628 -250.552452 
L 317.760755 -250.675677 
L 318.34353 -250.798902 
L 318.922708 -250.922127 
L 319.494315 -251.045352 
L 320.054692 -251.168577 
L 320.60054 -251.291802 
L 321.128939 -251.415027 
L 321.637375 -251.538252 
L 322.123745 -251.661477 
L 322.586355 -251.784702 
L 323.023919 -251.907927 
L 323.435539 -252.031152 
L 323.820683 -252.154378 
L 324.179165 -252.277603 
L 324.511106 -252.400828 
L 324.81691 -252.524053 
L 325.097222 -252.647278 
L 325.352894 -252.770503 
L 325.584953 -252.893728 
L 328.934971 -252.893728 
L 328.934971 -252.893728 
L 329.16703 -252.770503 
L 329.422702 -252.647278 
L 329.703014 -252.524053 
L 330.008818 -252.400828 
L 330.340759 -252.277603 
L 330.699241 -252.154378 
L 331.084385 -252.031152 
L 331.496004 -251.907927 
L 331.933569 -251.784702 
L 332.396179 -251.661477 
L 332.882548 -251.538252 
L 333.390985 -251.415027 
L 333.919384 -251.291802 
L 334.465231 -251.168577 
L 335.025609 -251.045352 
L 335.597215 -250.922127 
L 336.176393 -250.798902 
L 336.759168 -250.675677 
L 337.341296 -250.552452 
L 337.918317 -250.429227 
L 338.485625 -250.306002 
L 339.038536 -250.182777 
L 339.572363 -250.059552 
L 340.082504 -249.936327 
L 340.564519 -249.813102 
L 341.014217 -249.689877 
L 341.427735 -249.566651 
L 341.801618 -249.443426 
L 342.132885 -249.320201 
L 342.419094 -249.196976 
L 342.658395 -249.073751 
L 342.849565 -248.950526 
L 342.992039 -248.827301 
L 343.085916 -248.704076 
L 343.131962 -248.580851 
L 343.131588 -248.457626 
L 343.086817 -248.334401 
L 343.000236 -248.211176 
L 342.874938 -248.087951 
L 342.714447 -247.964726 
L 342.522638 -247.841501 
L 342.303646 -247.718276 
L 342.061775 -247.595051 
L 341.801398 -247.471826 
L 341.526863 -247.348601 
L 341.242398 -247.225376 
L 340.95202 -247.102151 
L 340.65946 -246.978925 
L 340.368086 -246.8557 
L 340.080843 -246.732475 
L 339.800211 -246.60925 
L 339.528166 -246.486025 
L 339.266162 -246.3628 
L 339.01513 -246.239575 
L 338.775482 -246.11635 
L 338.547139 -245.993125 
L 338.329562 -245.8699 
L 338.121803 -245.746675 
L 337.922557 -245.62345 
L 337.730225 -245.500225 
L 337.542985 -245.377 
L 337.35886 -245.253775 
L 337.175793 -245.13055 
L 336.991715 -245.007325 
L 336.804615 -244.8841 
L 336.6126 -244.760875 
L 336.413956 -244.63765 
L 336.20719 -244.514425 
L 335.991076 -244.391199 
L 335.764678 -244.267974 
L 335.527377 -244.144749 
L 335.278876 -244.021524 
L 335.019201 -243.898299 
L 334.748696 -243.775074 
L 334.468004 -243.651849 
L 334.178038 -243.528624 
L 333.87996 -243.405399 
L 333.575138 -243.282174 
L 333.265107 -243.158949 
L 332.951534 -243.035724 
L 332.636169 -242.912499 
L 332.320807 -242.789274 
L 332.007244 -242.666049 
L 331.697244 -242.542824 
L 331.392499 -242.419599 
L 331.094603 -242.296374 
L 330.805021 -242.173149 
L 330.525071 -242.049924 
L 330.255909 -241.926698 
L 329.998512 -241.803473 
L 329.753679 -241.680248 
L 329.522023 -241.557023 
L 329.303976 -241.433798 
L 329.099798 -241.310573 
L 328.909581 -241.187348 
L 328.733266 -241.064123 
L 328.570652 -240.940898 
L 328.421417 -240.817673 
L 328.285133 -240.694448 
z
" style="stroke: #3d3d3d; stroke-width: 1.5"/>
    </defs>
    <g clip-path="url(#p4a100f30d5)">
     <use xlink:href="#m0bcb5d1ccd" x="0" y="393.011865" style="fill: #7f7f7f; stroke: #3d3d3d; stroke-width: 1.5"/>
    </g>
   </g>
   <g id="PolyCollection_8">
    <defs>
     <path id="me146eb25d5" d="M 367.046714 -132.531197 
L 366.83321 -132.531197 
L 366.818351 -134.431148 
L 366.801969 -136.331099 
L 366.783997 -138.231051 
L 366.764376 -140.131002 
L 366.743063 -142.030953 
L 366.72003 -143.930904 
L 366.695267 -145.830855 
L 366.668782 -147.730806 
L 366.640608 -149.630757 
L 366.610798 -151.530708 
L 366.579434 -153.430659 
L 366.546622 -155.33061 
L 366.512494 -157.230561 
L 366.477211 -159.130512 
L 366.440958 -161.030463 
L 366.403947 -162.930414 
L 366.366412 -164.830366 
L 366.328609 -166.730317 
L 366.29081 -168.630268 
L 366.253304 -170.530219 
L 366.216389 -172.43017 
L 366.180368 -174.330121 
L 366.145546 -176.230072 
L 366.112221 -178.130023 
L 366.080685 -180.029974 
L 366.05121 -181.929925 
L 366.024051 -183.829876 
L 365.999434 -185.729827 
L 365.977559 -187.629778 
L 365.958587 -189.529729 
L 365.942643 -191.429681 
L 365.929812 -193.329632 
L 365.920136 -195.229583 
L 365.913613 -197.129534 
L 365.9102 -199.029485 
L 365.909808 -200.929436 
L 365.912313 -202.829387 
L 365.917551 -204.729338 
L 365.925324 -206.629289 
L 365.935407 -208.52924 
L 365.947553 -210.429191 
L 365.961493 -212.329142 
L 365.976951 -214.229093 
L 365.993644 -216.129044 
L 366.01129 -218.028995 
L 366.029613 -219.928947 
L 366.048351 -221.828898 
L 366.067262 -223.728849 
L 366.086125 -225.6288 
L 366.104746 -227.528751 
L 366.122961 -229.428702 
L 366.14064 -231.328653 
L 366.157684 -233.228604 
L 366.174031 -235.128555 
L 366.189652 -237.028506 
L 366.204547 -238.928457 
L 366.218751 -240.828408 
L 366.232321 -242.728359 
L 366.245342 -244.62831 
L 366.257914 -246.528262 
L 366.270155 -248.428213 
L 366.282191 -250.328164 
L 366.294157 -252.228115 
L 366.306185 -254.128066 
L 366.318406 -256.028017 
L 366.330942 -257.927968 
L 366.343906 -259.827919 
L 366.357395 -261.72787 
L 366.371488 -263.627821 
L 366.386248 -265.527772 
L 366.401713 -267.427723 
L 366.417906 -269.327674 
L 366.434824 -271.227625 
L 366.452445 -273.127577 
L 366.470728 -275.027528 
L 366.489615 -276.927479 
L 366.509029 -278.82743 
L 366.528882 -280.727381 
L 366.549074 -282.627332 
L 366.569497 -284.527283 
L 366.590036 -286.427234 
L 366.610576 -288.327185 
L 366.630999 -290.227136 
L 366.65119 -292.127087 
L 366.671038 -294.027038 
L 366.690441 -295.926989 
L 366.709301 -297.82694 
L 366.727534 -299.726891 
L 366.745064 -301.626843 
L 366.761826 -303.526794 
L 366.77777 -305.426745 
L 366.792855 -307.326696 
L 366.807052 -309.226647 
L 366.820345 -311.126598 
L 366.832728 -313.026549 
L 366.844205 -314.9265 
L 366.854789 -316.826451 
L 366.8645 -318.726402 
L 366.873368 -320.626353 
L 367.006556 -320.626353 
L 367.006556 -320.626353 
L 367.015424 -318.726402 
L 367.025135 -316.826451 
L 367.035719 -314.9265 
L 367.047196 -313.026549 
L 367.059579 -311.126598 
L 367.072872 -309.226647 
L 367.087069 -307.326696 
L 367.102154 -305.426745 
L 367.118098 -303.526794 
L 367.13486 -301.626843 
L 367.15239 -299.726891 
L 367.170623 -297.82694 
L 367.189483 -295.926989 
L 367.208886 -294.027038 
L 367.228734 -292.127087 
L 367.248925 -290.227136 
L 367.269348 -288.327185 
L 367.289887 -286.427234 
L 367.310427 -284.527283 
L 367.33085 -282.627332 
L 367.351042 -280.727381 
L 367.370895 -278.82743 
L 367.390309 -276.927479 
L 367.409195 -275.027528 
L 367.427479 -273.127577 
L 367.4451 -271.227625 
L 367.462018 -269.327674 
L 367.47821 -267.427723 
L 367.493676 -265.527772 
L 367.508435 -263.627821 
L 367.522529 -261.72787 
L 367.536017 -259.827919 
L 367.548981 -257.927968 
L 367.561518 -256.028017 
L 367.573739 -254.128066 
L 367.585767 -252.228115 
L 367.597732 -250.328164 
L 367.609769 -248.428213 
L 367.62201 -246.528262 
L 367.634582 -244.62831 
L 367.647602 -242.728359 
L 367.661173 -240.828408 
L 367.675376 -238.928457 
L 367.690272 -237.028506 
L 367.705892 -235.128555 
L 367.72224 -233.228604 
L 367.739284 -231.328653 
L 367.756963 -229.428702 
L 367.775178 -227.528751 
L 367.793799 -225.6288 
L 367.812661 -223.728849 
L 367.831572 -221.828898 
L 367.850311 -219.928947 
L 367.868634 -218.028995 
L 367.88628 -216.129044 
L 367.902972 -214.229093 
L 367.918431 -212.329142 
L 367.932371 -210.429191 
L 367.944516 -208.52924 
L 367.9546 -206.629289 
L 367.962373 -204.729338 
L 367.96761 -202.829387 
L 367.970115 -200.929436 
L 367.969724 -199.029485 
L 367.966311 -197.129534 
L 367.959788 -195.229583 
L 367.950112 -193.329632 
L 367.937281 -191.429681 
L 367.921337 -189.529729 
L 367.902365 -187.629778 
L 367.880489 -185.729827 
L 367.855873 -183.829876 
L 367.828714 -181.929925 
L 367.799239 -180.029974 
L 367.767702 -178.130023 
L 367.734378 -176.230072 
L 367.699555 -174.330121 
L 367.663534 -172.43017 
L 367.626619 -170.530219 
L 367.589113 -168.630268 
L 367.551315 -166.730317 
L 367.513512 -164.830366 
L 367.475977 -162.930414 
L 367.438966 -161.030463 
L 367.402713 -159.130512 
L 367.36743 -157.230561 
L 367.333302 -155.33061 
L 367.30049 -153.430659 
L 367.269126 -151.530708 
L 367.239316 -149.630757 
L 367.211142 -147.730806 
L 367.184657 -145.830855 
L 367.159893 -143.930904 
L 367.13686 -142.030953 
L 367.115548 -140.131002 
L 367.095927 -138.231051 
L 367.077954 -136.331099 
L 367.061572 -134.431148 
L 367.046714 -132.531197 
z
" style="stroke: #3d3d3d; stroke-width: 1.5"/>
    </defs>
    <g clip-path="url(#p4a100f30d5)">
     <use xlink:href="#me146eb25d5" x="0" y="393.011865" style="fill: #f2a5a3; stroke: #3d3d3d; stroke-width: 1.5"/>
    </g>
   </g>
   <g id="PolyCollection_9">
    <defs>
     <path id="m997fc885f1" d="M 406.732758 -124.913493 
L 406.507166 -124.913493 
L 406.492069 -126.96013 
L 406.475516 -129.006767 
L 406.457454 -131.053404 
L 406.437845 -133.100042 
L 406.416663 -135.146679 
L 406.393898 -137.193316 
L 406.369559 -139.239953 
L 406.343675 -141.28659 
L 406.316295 -143.333228 
L 406.287493 -145.379865 
L 406.257364 -147.426502 
L 406.22603 -149.473139 
L 406.193636 -151.519776 
L 406.16035 -153.566414 
L 406.126364 -155.613051 
L 406.09189 -157.659688 
L 406.057162 -159.706325 
L 406.022427 -161.752962 
L 405.987947 -163.7996 
L 405.953993 -165.846237 
L 405.920843 -167.892874 
L 405.888774 -169.939511 
L 405.858061 -171.986148 
L 405.828968 -174.032786 
L 405.801748 -176.079423 
L 405.776635 -178.12606 
L 405.753839 -180.172697 
L 405.733544 -182.219335 
L 405.715903 -184.265972 
L 405.701034 -186.312609 
L 405.689021 -188.359246 
L 405.679907 -190.405883 
L 405.673696 -192.452521 
L 405.670353 -194.499158 
L 405.669806 -196.545795 
L 405.671945 -198.592432 
L 405.676625 -200.639069 
L 405.683671 -202.685707 
L 405.69288 -204.732344 
L 405.704028 -206.778981 
L 405.716873 -208.825618 
L 405.731161 -210.872255 
L 405.746632 -212.918893 
L 405.763027 -214.96553 
L 405.780088 -217.012167 
L 405.797571 -219.058804 
L 405.815247 -221.105441 
L 405.832904 -223.152079 
L 405.850356 -225.198716 
L 405.867444 -227.245353 
L 405.884034 -229.29199 
L 405.900028 -231.338627 
L 405.915355 -233.385265 
L 405.929976 -235.431902 
L 405.943881 -237.478539 
L 405.95709 -239.525176 
L 405.969649 -241.571814 
L 405.981623 -243.618451 
L 405.993101 -245.665088 
L 406.004185 -247.711725 
L 406.014989 -249.758362 
L 406.025633 -251.805 
L 406.036243 -253.851637 
L 406.046942 -255.898274 
L 406.057847 -257.944911 
L 406.06907 -259.991548 
L 406.08071 -262.038186 
L 406.09285 -264.084823 
L 406.105561 -266.13146 
L 406.118892 -268.178097 
L 406.132877 -270.224734 
L 406.147529 -272.271372 
L 406.162842 -274.318009 
L 406.178794 -276.364646 
L 406.195342 -278.411283 
L 406.212432 -280.45792 
L 406.229992 -282.504558 
L 406.247941 -284.551195 
L 406.266187 -286.597832 
L 406.284633 -288.644469 
L 406.303176 -290.691107 
L 406.321711 -292.737744 
L 406.340133 -294.784381 
L 406.35834 -296.831018 
L 406.376234 -298.877655 
L 406.393723 -300.924293 
L 406.410721 -302.97093 
L 406.427154 -305.017567 
L 406.442954 -307.064204 
L 406.458065 -309.110841 
L 406.472442 -311.157479 
L 406.486049 -313.204116 
L 406.498861 -315.250753 
L 406.510864 -317.29739 
L 406.522053 -319.344027 
L 406.532431 -321.390665 
L 406.542009 -323.437302 
L 406.550806 -325.483939 
L 406.558847 -327.530576 
L 406.681077 -327.530576 
L 406.681077 -327.530576 
L 406.689118 -325.483939 
L 406.697915 -323.437302 
L 406.707493 -321.390665 
L 406.717871 -319.344027 
L 406.729059 -317.29739 
L 406.741063 -315.250753 
L 406.753875 -313.204116 
L 406.767482 -311.157479 
L 406.781859 -309.110841 
L 406.79697 -307.064204 
L 406.81277 -305.017567 
L 406.829203 -302.97093 
L 406.846201 -300.924293 
L 406.86369 -298.877655 
L 406.881583 -296.831018 
L 406.89979 -294.784381 
L 406.918212 -292.737744 
L 406.936747 -290.691107 
L 406.95529 -288.644469 
L 406.973736 -286.597832 
L 406.991983 -284.551195 
L 407.009932 -282.504558 
L 407.027492 -280.45792 
L 407.044581 -278.411283 
L 407.06113 -276.364646 
L 407.077081 -274.318009 
L 407.092395 -272.271372 
L 407.107047 -270.224734 
L 407.121032 -268.178097 
L 407.134363 -266.13146 
L 407.147073 -264.084823 
L 407.159214 -262.038186 
L 407.170853 -259.991548 
L 407.182077 -257.944911 
L 407.192982 -255.898274 
L 407.203681 -253.851637 
L 407.214291 -251.805 
L 407.224935 -249.758362 
L 407.235739 -247.711725 
L 407.246823 -245.665088 
L 407.258301 -243.618451 
L 407.270275 -241.571814 
L 407.282833 -239.525176 
L 407.296043 -237.478539 
L 407.309948 -235.431902 
L 407.324569 -233.385265 
L 407.339896 -231.338627 
L 407.355889 -229.29199 
L 407.37248 -227.245353 
L 407.389568 -225.198716 
L 407.40702 -223.152079 
L 407.424677 -221.105441 
L 407.442353 -219.058804 
L 407.459836 -217.012167 
L 407.476897 -214.96553 
L 407.493291 -212.918893 
L 407.508763 -210.872255 
L 407.523051 -208.825618 
L 407.535896 -206.778981 
L 407.547044 -204.732344 
L 407.556253 -202.685707 
L 407.563299 -200.639069 
L 407.567979 -198.592432 
L 407.570117 -196.545795 
L 407.56957 -194.499158 
L 407.566228 -192.452521 
L 407.560017 -190.405883 
L 407.550903 -188.359246 
L 407.538889 -186.312609 
L 407.524021 -184.265972 
L 407.50638 -182.219335 
L 407.486085 -180.172697 
L 407.463289 -178.12606 
L 407.438175 -176.079423 
L 407.410956 -174.032786 
L 407.381863 -171.986148 
L 407.351149 -169.939511 
L 407.319081 -167.892874 
L 407.285931 -165.846237 
L 407.251977 -163.7996 
L 407.217497 -161.752962 
L 407.182762 -159.706325 
L 407.148034 -157.659688 
L 407.11356 -155.613051 
L 407.079574 -153.566414 
L 407.046288 -151.519776 
L 407.013894 -149.473139 
L 406.98256 -147.426502 
L 406.952431 -145.379865 
L 406.923629 -143.333228 
L 406.896249 -141.28659 
L 406.870365 -139.239953 
L 406.846026 -137.193316 
L 406.823261 -135.146679 
L 406.802079 -133.100042 
L 406.782469 -131.053404 
L 406.764408 -129.006767 
L 406.747855 -126.96013 
L 406.732758 -124.913493 
z
" style="stroke: #3d3d3d; stroke-width: 1.5"/>
    </defs>
    <g clip-path="url(#p4a100f30d5)">
     <use xlink:href="#m997fc885f1" x="0" y="393.011865" style="fill: #e1812c; stroke: #3d3d3d; stroke-width: 1.5"/>
    </g>
   </g>
   <g id="matplotlib.axis_1">
    <g id="xtick_1">
     <g id="line2d_1">
      <defs>
       <path id="m90c5d97be8" d="M 0 0 
L 0 3.5 
" style="stroke: #000000; stroke-width: 0.8"/>
      </defs>
      <g>
       <use xlink:href="#m90c5d97be8" x="89.179962" y="288.430125" style="stroke: #000000; stroke-width: 0.8"/>
      </g>
     </g>
     <g id="text_1">
      <!-- aflplusplus_ast_f1 -->
      <g transform="translate(10.999219 346.467596)rotate(-30)scale(0.1 -0.1)">
       <defs>
        <path id="DejaVuSans-61" d="M 2194 1759 
Q 1497 1759 1228 1600 
Q 959 1441 959 1056 
Q 959 750 1161 570 
Q 1363 391 1709 391 
Q 2188 391 2477 730 
Q 2766 1069 2766 1631 
L 2766 1759 
L 2194 1759 
z
M 3341 1997 
L 3341 0 
L 2766 0 
L 2766 531 
Q 2569 213 2275 61 
Q 1981 -91 1556 -91 
Q 1019 -91 701 211 
Q 384 513 384 1019 
Q 384 1609 779 1909 
Q 1175 2209 1959 2209 
L 2766 2209 
L 2766 2266 
Q 2766 2663 2505 2880 
Q 2244 3097 1772 3097 
Q 1472 3097 1187 3025 
Q 903 2953 641 2809 
L 641 3341 
Q 956 3463 1253 3523 
Q 1550 3584 1831 3584 
Q 2591 3584 2966 3190 
Q 3341 2797 3341 1997 
z
" transform="scale(0.015625)"/>
        <path id="DejaVuSans-66" d="M 2375 4863 
L 2375 4384 
L 1825 4384 
Q 1516 4384 1395 4259 
Q 1275 4134 1275 3809 
L 1275 3500 
L 2222 3500 
L 2222 3053 
L 1275 3053 
L 1275 0 
L 697 0 
L 697 3053 
L 147 3053 
L 147 3500 
L 697 3500 
L 697 3744 
Q 697 4328 969 4595 
Q 1241 4863 1831 4863 
L 2375 4863 
z
" transform="scale(0.015625)"/>
        <path id="DejaVuSans-6c" d="M 603 4863 
L 1178 4863 
L 1178 0 
L 603 0 
L 603 4863 
z
" transform="scale(0.015625)"/>
        <path id="DejaVuSans-70" d="M 1159 525 
L 1159 -1331 
L 581 -1331 
L 581 3500 
L 1159 3500 
L 1159 2969 
Q 1341 3281 1617 3432 
Q 1894 3584 2278 3584 
Q 2916 3584 3314 3078 
Q 3713 2572 3713 1747 
Q 3713 922 3314 415 
Q 2916 -91 2278 -91 
Q 1894 -91 1617 61 
Q 1341 213 1159 525 
z
M 3116 1747 
Q 3116 2381 2855 2742 
Q 2594 3103 2138 3103 
Q 1681 3103 1420 2742 
Q 1159 2381 1159 1747 
Q 1159 1113 1420 752 
Q 1681 391 2138 391 
Q 2594 391 2855 752 
Q 3116 1113 3116 1747 
z
" transform="scale(0.015625)"/>
        <path id="DejaVuSans-75" d="M 544 1381 
L 544 3500 
L 1119 3500 
L 1119 1403 
Q 1119 906 1312 657 
Q 1506 409 1894 409 
Q 2359 409 2629 706 
Q 2900 1003 2900 1516 
L 2900 3500 
L 3475 3500 
L 3475 0 
L 2900 0 
L 2900 538 
Q 2691 219 2414 64 
Q 2138 -91 1772 -91 
Q 1169 -91 856 284 
Q 544 659 544 1381 
z
M 1991 3584 
L 1991 3584 
z
" transform="scale(0.015625)"/>
        <path id="DejaVuSans-73" d="M 2834 3397 
L 2834 2853 
Q 2591 2978 2328 3040 
Q 2066 3103 1784 3103 
Q 1356 3103 1142 2972 
Q 928 2841 928 2578 
Q 928 2378 1081 2264 
Q 1234 2150 1697 2047 
L 1894 2003 
Q 2506 1872 2764 1633 
Q 3022 1394 3022 966 
Q 3022 478 2636 193 
Q 2250 -91 1575 -91 
Q 1294 -91 989 -36 
Q 684 19 347 128 
L 347 722 
Q 666 556 975 473 
Q 1284 391 1588 391 
Q 1994 391 2212 530 
Q 2431 669 2431 922 
Q 2431 1156 2273 1281 
Q 2116 1406 1581 1522 
L 1381 1569 
Q 847 1681 609 1914 
Q 372 2147 372 2553 
Q 372 3047 722 3315 
Q 1072 3584 1716 3584 
Q 2034 3584 2315 3537 
Q 2597 3491 2834 3397 
z
" transform="scale(0.015625)"/>
        <path id="DejaVuSans-5f" d="M 3263 -1063 
L 3263 -1509 
L -63 -1509 
L -63 -1063 
L 3263 -1063 
z
" transform="scale(0.015625)"/>
        <path id="DejaVuSans-74" d="M 1172 4494 
L 1172 3500 
L 2356 3500 
L 2356 3053 
L 1172 3053 
L 1172 1153 
Q 1172 725 1289 603 
Q 1406 481 1766 481 
L 2356 481 
L 2356 0 
L 1766 0 
Q 1100 0 847 248 
Q 594 497 594 1153 
L 594 3053 
L 172 3053 
L 172 3500 
L 594 3500 
L 594 4494 
L 1172 4494 
z
" transform="scale(0.015625)"/>
        <path id="DejaVuSans-31" d="M 794 531 
L 1825 531 
L 1825 4091 
L 703 3866 
L 703 4441 
L 1819 4666 
L 2450 4666 
L 2450 531 
L 3481 531 
L 3481 0 
L 794 0 
L 794 531 
z
" transform="scale(0.015625)"/>
       </defs>
       <use xlink:href="#DejaVuSans-61"/>
       <use xlink:href="#DejaVuSans-66" x="61.279297"/>
       <use xlink:href="#DejaVuSans-6c" x="96.484375"/>
       <use xlink:href="#DejaVuSans-70" x="124.267578"/>
       <use xlink:href="#DejaVuSans-6c" x="187.744141"/>
       <use xlink:href="#DejaVuSans-75" x="215.527344"/>
       <use xlink:href="#DejaVuSans-73" x="278.90625"/>
       <use xlink:href="#DejaVuSans-70" x="331.005859"/>
       <use xlink:href="#DejaVuSans-6c" x="394.482422"/>
       <use xlink:href="#DejaVuSans-75" x="422.265625"/>
       <use xlink:href="#DejaVuSans-73" x="485.644531"/>
       <use xlink:href="#DejaVuSans-5f" x="537.744141"/>
       <use xlink:href="#DejaVuSans-61" x="587.744141"/>
       <use xlink:href="#DejaVuSans-73" x="649.023438"/>
       <use xlink:href="#DejaVuSans-74" x="701.123047"/>
       <use xlink:href="#DejaVuSans-5f" x="740.332031"/>
       <use xlink:href="#DejaVuSans-66" x="790.332031"/>
       <use xlink:href="#DejaVuSans-31" x="825.537109"/>
      </g>
     </g>
    </g>
    <g id="xtick_2">
     <g id="line2d_2">
      <g>
       <use xlink:href="#m90c5d97be8" x="128.859962" y="288.430125" style="stroke: #000000; stroke-width: 0.8"/>
      </g>
     </g>
     <g id="text_2">
      <!-- aflplusplus_ast_o3 -->
      <g transform="translate(48.428906 347.766815)rotate(-30)scale(0.1 -0.1)">
       <defs>
        <path id="DejaVuSans-6f" d="M 1959 3097 
Q 1497 3097 1228 2736 
Q 959 2375 959 1747 
Q 959 1119 1226 758 
Q 1494 397 1959 397 
Q 2419 397 2687 759 
Q 2956 1122 2956 1747 
Q 2956 2369 2687 2733 
Q 2419 3097 1959 3097 
z
M 1959 3584 
Q 2709 3584 3137 3096 
Q 3566 2609 3566 1747 
Q 3566 888 3137 398 
Q 2709 -91 1959 -91 
Q 1206 -91 779 398 
Q 353 888 353 1747 
Q 353 2609 779 3096 
Q 1206 3584 1959 3584 
z
" transform="scale(0.015625)"/>
        <path id="DejaVuSans-33" d="M 2597 2516 
Q 3050 2419 3304 2112 
Q 3559 1806 3559 1356 
Q 3559 666 3084 287 
Q 2609 -91 1734 -91 
Q 1441 -91 1130 -33 
Q 819 25 488 141 
L 488 750 
Q 750 597 1062 519 
Q 1375 441 1716 441 
Q 2309 441 2620 675 
Q 2931 909 2931 1356 
Q 2931 1769 2642 2001 
Q 2353 2234 1838 2234 
L 1294 2234 
L 1294 2753 
L 1863 2753 
Q 2328 2753 2575 2939 
Q 2822 3125 2822 3475 
Q 2822 3834 2567 4026 
Q 2313 4219 1838 4219 
Q 1578 4219 1281 4162 
Q 984 4106 628 3988 
L 628 4550 
Q 988 4650 1302 4700 
Q 1616 4750 1894 4750 
Q 2613 4750 3031 4423 
Q 3450 4097 3450 3541 
Q 3450 3153 3228 2886 
Q 3006 2619 2597 2516 
z
" transform="scale(0.015625)"/>
       </defs>
       <use xlink:href="#DejaVuSans-61"/>
       <use xlink:href="#DejaVuSans-66" x="61.279297"/>
       <use xlink:href="#DejaVuSans-6c" x="96.484375"/>
       <use xlink:href="#DejaVuSans-70" x="124.267578"/>
       <use xlink:href="#DejaVuSans-6c" x="187.744141"/>
       <use xlink:href="#DejaVuSans-75" x="215.527344"/>
       <use xlink:href="#DejaVuSans-73" x="278.90625"/>
       <use xlink:href="#DejaVuSans-70" x="331.005859"/>
       <use xlink:href="#DejaVuSans-6c" x="394.482422"/>
       <use xlink:href="#DejaVuSans-75" x="422.265625"/>
       <use xlink:href="#DejaVuSans-73" x="485.644531"/>
       <use xlink:href="#DejaVuSans-5f" x="537.744141"/>
       <use xlink:href="#DejaVuSans-61" x="587.744141"/>
       <use xlink:href="#DejaVuSans-73" x="649.023438"/>
       <use xlink:href="#DejaVuSans-74" x="701.123047"/>
       <use xlink:href="#DejaVuSans-5f" x="740.332031"/>
       <use xlink:href="#DejaVuSans-6f" x="790.332031"/>
       <use xlink:href="#DejaVuSans-33" x="851.513672"/>
      </g>
     </g>
    </g>
    <g id="xtick_3">
     <g id="line2d_3">
      <g>
       <use xlink:href="#m90c5d97be8" x="168.539962" y="288.430125" style="stroke: #000000; stroke-width: 0.8"/>
      </g>
     </g>
     <g id="text_3">
      <!-- aflplusplus_ast_o3_native -->
      <g transform="translate(56.727663 365.884784)rotate(-30)scale(0.1 -0.1)">
       <defs>
        <path id="DejaVuSans-6e" d="M 3513 2113 
L 3513 0 
L 2938 0 
L 2938 2094 
Q 2938 2591 2744 2837 
Q 2550 3084 2163 3084 
Q 1697 3084 1428 2787 
Q 1159 2491 1159 1978 
L 1159 0 
L 581 0 
L 581 3500 
L 1159 3500 
L 1159 2956 
Q 1366 3272 1645 3428 
Q 1925 3584 2291 3584 
Q 2894 3584 3203 3211 
Q 3513 2838 3513 2113 
z
" transform="scale(0.015625)"/>
        <path id="DejaVuSans-69" d="M 603 3500 
L 1178 3500 
L 1178 0 
L 603 0 
L 603 3500 
z
M 603 4863 
L 1178 4863 
L 1178 4134 
L 603 4134 
L 603 4863 
z
" transform="scale(0.015625)"/>
        <path id="DejaVuSans-76" d="M 191 3500 
L 800 3500 
L 1894 563 
L 2988 3500 
L 3597 3500 
L 2284 0 
L 1503 0 
L 191 3500 
z
" transform="scale(0.015625)"/>
        <path id="DejaVuSans-65" d="M 3597 1894 
L 3597 1613 
L 953 1613 
Q 991 1019 1311 708 
Q 1631 397 2203 397 
Q 2534 397 2845 478 
Q 3156 559 3463 722 
L 3463 178 
Q 3153 47 2828 -22 
Q 2503 -91 2169 -91 
Q 1331 -91 842 396 
Q 353 884 353 1716 
Q 353 2575 817 3079 
Q 1281 3584 2069 3584 
Q 2775 3584 3186 3129 
Q 3597 2675 3597 1894 
z
M 3022 2063 
Q 3016 2534 2758 2815 
Q 2500 3097 2075 3097 
Q 1594 3097 1305 2825 
Q 1016 2553 972 2059 
L 3022 2063 
z
" transform="scale(0.015625)"/>
       </defs>
       <use xlink:href="#DejaVuSans-61"/>
       <use xlink:href="#DejaVuSans-66" x="61.279297"/>
       <use xlink:href="#DejaVuSans-6c" x="96.484375"/>
       <use xlink:href="#DejaVuSans-70" x="124.267578"/>
       <use xlink:href="#DejaVuSans-6c" x="187.744141"/>
       <use xlink:href="#DejaVuSans-75" x="215.527344"/>
       <use xlink:href="#DejaVuSans-73" x="278.90625"/>
       <use xlink:href="#DejaVuSans-70" x="331.005859"/>
       <use xlink:href="#DejaVuSans-6c" x="394.482422"/>
       <use xlink:href="#DejaVuSans-75" x="422.265625"/>
       <use xlink:href="#DejaVuSans-73" x="485.644531"/>
       <use xlink:href="#DejaVuSans-5f" x="537.744141"/>
       <use xlink:href="#DejaVuSans-61" x="587.744141"/>
       <use xlink:href="#DejaVuSans-73" x="649.023438"/>
       <use xlink:href="#DejaVuSans-74" x="701.123047"/>
       <use xlink:href="#DejaVuSans-5f" x="740.332031"/>
       <use xlink:href="#DejaVuSans-6f" x="790.332031"/>
       <use xlink:href="#DejaVuSans-33" x="851.513672"/>
       <use xlink:href="#DejaVuSans-5f" x="915.136719"/>
       <use xlink:href="#DejaVuSans-6e" x="965.136719"/>
       <use xlink:href="#DejaVuSans-61" x="1028.515625"/>
       <use xlink:href="#DejaVuSans-74" x="1089.794922"/>
       <use xlink:href="#DejaVuSans-69" x="1129.003906"/>
       <use xlink:href="#DejaVuSans-76" x="1156.787109"/>
       <use xlink:href="#DejaVuSans-65" x="1215.966797"/>
      </g>
     </g>
    </g>
    <g id="xtick_4">
     <g id="line2d_4">
      <g>
       <use xlink:href="#m90c5d97be8" x="208.219962" y="288.430125" style="stroke: #000000; stroke-width: 0.8"/>
      </g>
     </g>
     <g id="text_4">
      <!-- aflplusplus_ast_o0 -->
      <g transform="translate(127.788906 347.766815)rotate(-30)scale(0.1 -0.1)">
       <defs>
        <path id="DejaVuSans-30" d="M 2034 4250 
Q 1547 4250 1301 3770 
Q 1056 3291 1056 2328 
Q 1056 1369 1301 889 
Q 1547 409 2034 409 
Q 2525 409 2770 889 
Q 3016 1369 3016 2328 
Q 3016 3291 2770 3770 
Q 2525 4250 2034 4250 
z
M 2034 4750 
Q 2819 4750 3233 4129 
Q 3647 3509 3647 2328 
Q 3647 1150 3233 529 
Q 2819 -91 2034 -91 
Q 1250 -91 836 529 
Q 422 1150 422 2328 
Q 422 3509 836 4129 
Q 1250 4750 2034 4750 
z
" transform="scale(0.015625)"/>
       </defs>
       <use xlink:href="#DejaVuSans-61"/>
       <use xlink:href="#DejaVuSans-66" x="61.279297"/>
       <use xlink:href="#DejaVuSans-6c" x="96.484375"/>
       <use xlink:href="#DejaVuSans-70" x="124.267578"/>
       <use xlink:href="#DejaVuSans-6c" x="187.744141"/>
       <use xlink:href="#DejaVuSans-75" x="215.527344"/>
       <use xlink:href="#DejaVuSans-73" x="278.90625"/>
       <use xlink:href="#DejaVuSans-70" x="331.005859"/>
       <use xlink:href="#DejaVuSans-6c" x="394.482422"/>
       <use xlink:href="#DejaVuSans-75" x="422.265625"/>
       <use xlink:href="#DejaVuSans-73" x="485.644531"/>
       <use xlink:href="#DejaVuSans-5f" x="537.744141"/>
       <use xlink:href="#DejaVuSans-61" x="587.744141"/>
       <use xlink:href="#DejaVuSans-73" x="649.023438"/>
       <use xlink:href="#DejaVuSans-74" x="701.123047"/>
       <use xlink:href="#DejaVuSans-5f" x="740.332031"/>
       <use xlink:href="#DejaVuSans-6f" x="790.332031"/>
       <use xlink:href="#DejaVuSans-30" x="851.513672"/>
      </g>
     </g>
    </g>
    <g id="xtick_5">
     <g id="line2d_5">
      <g>
       <use xlink:href="#m90c5d97be8" x="247.899962" y="288.430125" style="stroke: #000000; stroke-width: 0.8"/>
      </g>
     </g>
     <g id="text_5">
      <!-- aflplusplus_ast_f0 -->
      <g transform="translate(169.719219 346.467596)rotate(-30)scale(0.1 -0.1)">
       <use xlink:href="#DejaVuSans-61"/>
       <use xlink:href="#DejaVuSans-66" x="61.279297"/>
       <use xlink:href="#DejaVuSans-6c" x="96.484375"/>
       <use xlink:href="#DejaVuSans-70" x="124.267578"/>
       <use xlink:href="#DejaVuSans-6c" x="187.744141"/>
       <use xlink:href="#DejaVuSans-75" x="215.527344"/>
       <use xlink:href="#DejaVuSans-73" x="278.90625"/>
       <use xlink:href="#DejaVuSans-70" x="331.005859"/>
       <use xlink:href="#DejaVuSans-6c" x="394.482422"/>
       <use xlink:href="#DejaVuSans-75" x="422.265625"/>
       <use xlink:href="#DejaVuSans-73" x="485.644531"/>
       <use xlink:href="#DejaVuSans-5f" x="537.744141"/>
       <use xlink:href="#DejaVuSans-61" x="587.744141"/>
       <use xlink:href="#DejaVuSans-73" x="649.023438"/>
       <use xlink:href="#DejaVuSans-74" x="701.123047"/>
       <use xlink:href="#DejaVuSans-5f" x="740.332031"/>
       <use xlink:href="#DejaVuSans-66" x="790.332031"/>
       <use xlink:href="#DejaVuSans-30" x="825.537109"/>
      </g>
     </g>
    </g>
    <g id="xtick_6">
     <g id="line2d_6">
      <g>
       <use xlink:href="#m90c5d97be8" x="287.579962" y="288.430125" style="stroke: #000000; stroke-width: 0.8"/>
      </g>
     </g>
     <g id="text_6">
      <!-- aflplusplus_ast_opt_disable -->
      <g transform="translate(168.480872 370.091815)rotate(-30)scale(0.1 -0.1)">
       <defs>
        <path id="DejaVuSans-64" d="M 2906 2969 
L 2906 4863 
L 3481 4863 
L 3481 0 
L 2906 0 
L 2906 525 
Q 2725 213 2448 61 
Q 2172 -91 1784 -91 
Q 1150 -91 751 415 
Q 353 922 353 1747 
Q 353 2572 751 3078 
Q 1150 3584 1784 3584 
Q 2172 3584 2448 3432 
Q 2725 3281 2906 2969 
z
M 947 1747 
Q 947 1113 1208 752 
Q 1469 391 1925 391 
Q 2381 391 2643 752 
Q 2906 1113 2906 1747 
Q 2906 2381 2643 2742 
Q 2381 3103 1925 3103 
Q 1469 3103 1208 2742 
Q 947 2381 947 1747 
z
" transform="scale(0.015625)"/>
        <path id="DejaVuSans-62" d="M 3116 1747 
Q 3116 2381 2855 2742 
Q 2594 3103 2138 3103 
Q 1681 3103 1420 2742 
Q 1159 2381 1159 1747 
Q 1159 1113 1420 752 
Q 1681 391 2138 391 
Q 2594 391 2855 752 
Q 3116 1113 3116 1747 
z
M 1159 2969 
Q 1341 3281 1617 3432 
Q 1894 3584 2278 3584 
Q 2916 3584 3314 3078 
Q 3713 2572 3713 1747 
Q 3713 922 3314 415 
Q 2916 -91 2278 -91 
Q 1894 -91 1617 61 
Q 1341 213 1159 525 
L 1159 0 
L 581 0 
L 581 4863 
L 1159 4863 
L 1159 2969 
z
" transform="scale(0.015625)"/>
       </defs>
       <use xlink:href="#DejaVuSans-61"/>
       <use xlink:href="#DejaVuSans-66" x="61.279297"/>
       <use xlink:href="#DejaVuSans-6c" x="96.484375"/>
       <use xlink:href="#DejaVuSans-70" x="124.267578"/>
       <use xlink:href="#DejaVuSans-6c" x="187.744141"/>
       <use xlink:href="#DejaVuSans-75" x="215.527344"/>
       <use xlink:href="#DejaVuSans-73" x="278.90625"/>
       <use xlink:href="#DejaVuSans-70" x="331.005859"/>
       <use xlink:href="#DejaVuSans-6c" x="394.482422"/>
       <use xlink:href="#DejaVuSans-75" x="422.265625"/>
       <use xlink:href="#DejaVuSans-73" x="485.644531"/>
       <use xlink:href="#DejaVuSans-5f" x="537.744141"/>
       <use xlink:href="#DejaVuSans-61" x="587.744141"/>
       <use xlink:href="#DejaVuSans-73" x="649.023438"/>
       <use xlink:href="#DejaVuSans-74" x="701.123047"/>
       <use xlink:href="#DejaVuSans-5f" x="740.332031"/>
       <use xlink:href="#DejaVuSans-6f" x="790.332031"/>
       <use xlink:href="#DejaVuSans-70" x="851.513672"/>
       <use xlink:href="#DejaVuSans-74" x="914.990234"/>
       <use xlink:href="#DejaVuSans-5f" x="954.199219"/>
       <use xlink:href="#DejaVuSans-64" x="1004.199219"/>
       <use xlink:href="#DejaVuSans-69" x="1067.675781"/>
       <use xlink:href="#DejaVuSans-73" x="1095.458984"/>
       <use xlink:href="#DejaVuSans-61" x="1147.558594"/>
       <use xlink:href="#DejaVuSans-62" x="1208.837891"/>
       <use xlink:href="#DejaVuSans-6c" x="1272.314453"/>
       <use xlink:href="#DejaVuSans-65" x="1300.097656"/>
      </g>
     </g>
    </g>
    <g id="xtick_7">
     <g id="line2d_7">
      <g>
       <use xlink:href="#m90c5d97be8" x="327.259962" y="288.430125" style="stroke: #000000; stroke-width: 0.8"/>
      </g>
     </g>
     <g id="text_7">
      <!-- aflplusplus_ast_opt_l1 -->
      <g transform="translate(231.199854 356.790252)rotate(-30)scale(0.1 -0.1)">
       <use xlink:href="#DejaVuSans-61"/>
       <use xlink:href="#DejaVuSans-66" x="61.279297"/>
       <use xlink:href="#DejaVuSans-6c" x="96.484375"/>
       <use xlink:href="#DejaVuSans-70" x="124.267578"/>
       <use xlink:href="#DejaVuSans-6c" x="187.744141"/>
       <use xlink:href="#DejaVuSans-75" x="215.527344"/>
       <use xlink:href="#DejaVuSans-73" x="278.90625"/>
       <use xlink:href="#DejaVuSans-70" x="331.005859"/>
       <use xlink:href="#DejaVuSans-6c" x="394.482422"/>
       <use xlink:href="#DejaVuSans-75" x="422.265625"/>
       <use xlink:href="#DejaVuSans-73" x="485.644531"/>
       <use xlink:href="#DejaVuSans-5f" x="537.744141"/>
       <use xlink:href="#DejaVuSans-61" x="587.744141"/>
       <use xlink:href="#DejaVuSans-73" x="649.023438"/>
       <use xlink:href="#DejaVuSans-74" x="701.123047"/>
       <use xlink:href="#DejaVuSans-5f" x="740.332031"/>
       <use xlink:href="#DejaVuSans-6f" x="790.332031"/>
       <use xlink:href="#DejaVuSans-70" x="851.513672"/>
       <use xlink:href="#DejaVuSans-74" x="914.990234"/>
       <use xlink:href="#DejaVuSans-5f" x="954.199219"/>
       <use xlink:href="#DejaVuSans-6c" x="1004.199219"/>
       <use xlink:href="#DejaVuSans-31" x="1031.982422"/>
      </g>
     </g>
    </g>
    <g id="xtick_8">
     <g id="line2d_8">
      <g>
       <use xlink:href="#m90c5d97be8" x="366.939962" y="288.430125" style="stroke: #000000; stroke-width: 0.8"/>
      </g>
     </g>
     <g id="text_8">
      <!-- aflplusplus_ast_o2 -->
      <g transform="translate(286.508906 347.766815)rotate(-30)scale(0.1 -0.1)">
       <defs>
        <path id="DejaVuSans-32" d="M 1228 531 
L 3431 531 
L 3431 0 
L 469 0 
L 469 531 
Q 828 903 1448 1529 
Q 2069 2156 2228 2338 
Q 2531 2678 2651 2914 
Q 2772 3150 2772 3378 
Q 2772 3750 2511 3984 
Q 2250 4219 1831 4219 
Q 1534 4219 1204 4116 
Q 875 4013 500 3803 
L 500 4441 
Q 881 4594 1212 4672 
Q 1544 4750 1819 4750 
Q 2544 4750 2975 4387 
Q 3406 4025 3406 3419 
Q 3406 3131 3298 2873 
Q 3191 2616 2906 2266 
Q 2828 2175 2409 1742 
Q 1991 1309 1228 531 
z
" transform="scale(0.015625)"/>
       </defs>
       <use xlink:href="#DejaVuSans-61"/>
       <use xlink:href="#DejaVuSans-66" x="61.279297"/>
       <use xlink:href="#DejaVuSans-6c" x="96.484375"/>
       <use xlink:href="#DejaVuSans-70" x="124.267578"/>
       <use xlink:href="#DejaVuSans-6c" x="187.744141"/>
       <use xlink:href="#DejaVuSans-75" x="215.527344"/>
       <use xlink:href="#DejaVuSans-73" x="278.90625"/>
       <use xlink:href="#DejaVuSans-70" x="331.005859"/>
       <use xlink:href="#DejaVuSans-6c" x="394.482422"/>
       <use xlink:href="#DejaVuSans-75" x="422.265625"/>
       <use xlink:href="#DejaVuSans-73" x="485.644531"/>
       <use xlink:href="#DejaVuSans-5f" x="537.744141"/>
       <use xlink:href="#DejaVuSans-61" x="587.744141"/>
       <use xlink:href="#DejaVuSans-73" x="649.023438"/>
       <use xlink:href="#DejaVuSans-74" x="701.123047"/>
       <use xlink:href="#DejaVuSans-5f" x="740.332031"/>
       <use xlink:href="#DejaVuSans-6f" x="790.332031"/>
       <use xlink:href="#DejaVuSans-32" x="851.513672"/>
      </g>
     </g>
    </g>
    <g id="xtick_9">
     <g id="line2d_9">
      <g>
       <use xlink:href="#m90c5d97be8" x="406.619962" y="288.430125" style="stroke: #000000; stroke-width: 0.8"/>
      </g>
     </g>
     <g id="text_9">
      <!-- aflplusplus_ast_o1 -->
      <g transform="translate(326.188906 347.766815)rotate(-30)scale(0.1 -0.1)">
       <use xlink:href="#DejaVuSans-61"/>
       <use xlink:href="#DejaVuSans-66" x="61.279297"/>
       <use xlink:href="#DejaVuSans-6c" x="96.484375"/>
       <use xlink:href="#DejaVuSans-70" x="124.267578"/>
       <use xlink:href="#DejaVuSans-6c" x="187.744141"/>
       <use xlink:href="#DejaVuSans-75" x="215.527344"/>
       <use xlink:href="#DejaVuSans-73" x="278.90625"/>
       <use xlink:href="#DejaVuSans-70" x="331.005859"/>
       <use xlink:href="#DejaVuSans-6c" x="394.482422"/>
       <use xlink:href="#DejaVuSans-75" x="422.265625"/>
       <use xlink:href="#DejaVuSans-73" x="485.644531"/>
       <use xlink:href="#DejaVuSans-5f" x="537.744141"/>
       <use xlink:href="#DejaVuSans-61" x="587.744141"/>
       <use xlink:href="#DejaVuSans-73" x="649.023438"/>
       <use xlink:href="#DejaVuSans-74" x="701.123047"/>
       <use xlink:href="#DejaVuSans-5f" x="740.332031"/>
       <use xlink:href="#DejaVuSans-6f" x="790.332031"/>
       <use xlink:href="#DejaVuSans-31" x="851.513672"/>
      </g>
     </g>
    </g>
    <g id="text_10">
     <!-- Fuzzer (highest median coverage on the left) -->
     <g transform="translate(135.281993 383.732178)scale(0.1 -0.1)">
      <defs>
       <path id="DejaVuSans-46" d="M 628 4666 
L 3309 4666 
L 3309 4134 
L 1259 4134 
L 1259 2759 
L 3109 2759 
L 3109 2228 
L 1259 2228 
L 1259 0 
L 628 0 
L 628 4666 
z
" transform="scale(0.015625)"/>
       <path id="DejaVuSans-7a" d="M 353 3500 
L 3084 3500 
L 3084 2975 
L 922 459 
L 3084 459 
L 3084 0 
L 275 0 
L 275 525 
L 2438 3041 
L 353 3041 
L 353 3500 
z
" transform="scale(0.015625)"/>
       <path id="DejaVuSans-72" d="M 2631 2963 
Q 2534 3019 2420 3045 
Q 2306 3072 2169 3072 
Q 1681 3072 1420 2755 
Q 1159 2438 1159 1844 
L 1159 0 
L 581 0 
L 581 3500 
L 1159 3500 
L 1159 2956 
Q 1341 3275 1631 3429 
Q 1922 3584 2338 3584 
Q 2397 3584 2469 3576 
Q 2541 3569 2628 3553 
L 2631 2963 
z
" transform="scale(0.015625)"/>
       <path id="DejaVuSans-20" transform="scale(0.015625)"/>
       <path id="DejaVuSans-28" d="M 1984 4856 
Q 1566 4138 1362 3434 
Q 1159 2731 1159 2009 
Q 1159 1288 1364 580 
Q 1569 -128 1984 -844 
L 1484 -844 
Q 1016 -109 783 600 
Q 550 1309 550 2009 
Q 550 2706 781 3412 
Q 1013 4119 1484 4856 
L 1984 4856 
z
" transform="scale(0.015625)"/>
       <path id="DejaVuSans-68" d="M 3513 2113 
L 3513 0 
L 2938 0 
L 2938 2094 
Q 2938 2591 2744 2837 
Q 2550 3084 2163 3084 
Q 1697 3084 1428 2787 
Q 1159 2491 1159 1978 
L 1159 0 
L 581 0 
L 581 4863 
L 1159 4863 
L 1159 2956 
Q 1366 3272 1645 3428 
Q 1925 3584 2291 3584 
Q 2894 3584 3203 3211 
Q 3513 2838 3513 2113 
z
" transform="scale(0.015625)"/>
       <path id="DejaVuSans-67" d="M 2906 1791 
Q 2906 2416 2648 2759 
Q 2391 3103 1925 3103 
Q 1463 3103 1205 2759 
Q 947 2416 947 1791 
Q 947 1169 1205 825 
Q 1463 481 1925 481 
Q 2391 481 2648 825 
Q 2906 1169 2906 1791 
z
M 3481 434 
Q 3481 -459 3084 -895 
Q 2688 -1331 1869 -1331 
Q 1566 -1331 1297 -1286 
Q 1028 -1241 775 -1147 
L 775 -588 
Q 1028 -725 1275 -790 
Q 1522 -856 1778 -856 
Q 2344 -856 2625 -561 
Q 2906 -266 2906 331 
L 2906 616 
Q 2728 306 2450 153 
Q 2172 0 1784 0 
Q 1141 0 747 490 
Q 353 981 353 1791 
Q 353 2603 747 3093 
Q 1141 3584 1784 3584 
Q 2172 3584 2450 3431 
Q 2728 3278 2906 2969 
L 2906 3500 
L 3481 3500 
L 3481 434 
z
" transform="scale(0.015625)"/>
       <path id="DejaVuSans-6d" d="M 3328 2828 
Q 3544 3216 3844 3400 
Q 4144 3584 4550 3584 
Q 5097 3584 5394 3201 
Q 5691 2819 5691 2113 
L 5691 0 
L 5113 0 
L 5113 2094 
Q 5113 2597 4934 2840 
Q 4756 3084 4391 3084 
Q 3944 3084 3684 2787 
Q 3425 2491 3425 1978 
L 3425 0 
L 2847 0 
L 2847 2094 
Q 2847 2600 2669 2842 
Q 2491 3084 2119 3084 
Q 1678 3084 1418 2786 
Q 1159 2488 1159 1978 
L 1159 0 
L 581 0 
L 581 3500 
L 1159 3500 
L 1159 2956 
Q 1356 3278 1631 3431 
Q 1906 3584 2284 3584 
Q 2666 3584 2933 3390 
Q 3200 3197 3328 2828 
z
" transform="scale(0.015625)"/>
       <path id="DejaVuSans-63" d="M 3122 3366 
L 3122 2828 
Q 2878 2963 2633 3030 
Q 2388 3097 2138 3097 
Q 1578 3097 1268 2742 
Q 959 2388 959 1747 
Q 959 1106 1268 751 
Q 1578 397 2138 397 
Q 2388 397 2633 464 
Q 2878 531 3122 666 
L 3122 134 
Q 2881 22 2623 -34 
Q 2366 -91 2075 -91 
Q 1284 -91 818 406 
Q 353 903 353 1747 
Q 353 2603 823 3093 
Q 1294 3584 2113 3584 
Q 2378 3584 2631 3529 
Q 2884 3475 3122 3366 
z
" transform="scale(0.015625)"/>
       <path id="DejaVuSans-29" d="M 513 4856 
L 1013 4856 
Q 1481 4119 1714 3412 
Q 1947 2706 1947 2009 
Q 1947 1309 1714 600 
Q 1481 -109 1013 -844 
L 513 -844 
Q 928 -128 1133 580 
Q 1338 1288 1338 2009 
Q 1338 2731 1133 3434 
Q 928 4138 513 4856 
z
" transform="scale(0.015625)"/>
      </defs>
      <use xlink:href="#DejaVuSans-46"/>
      <use xlink:href="#DejaVuSans-75" x="52.019531"/>
      <use xlink:href="#DejaVuSans-7a" x="115.398438"/>
      <use xlink:href="#DejaVuSans-7a" x="167.888672"/>
      <use xlink:href="#DejaVuSans-65" x="220.378906"/>
      <use xlink:href="#DejaVuSans-72" x="281.902344"/>
      <use xlink:href="#DejaVuSans-20" x="323.015625"/>
      <use xlink:href="#DejaVuSans-28" x="354.802734"/>
      <use xlink:href="#DejaVuSans-68" x="393.816406"/>
      <use xlink:href="#DejaVuSans-69" x="457.195312"/>
      <use xlink:href="#DejaVuSans-67" x="484.978516"/>
      <use xlink:href="#DejaVuSans-68" x="548.455078"/>
      <use xlink:href="#DejaVuSans-65" x="611.833984"/>
      <use xlink:href="#DejaVuSans-73" x="673.357422"/>
      <use xlink:href="#DejaVuSans-74" x="725.457031"/>
      <use xlink:href="#DejaVuSans-20" x="764.666016"/>
      <use xlink:href="#DejaVuSans-6d" x="796.453125"/>
      <use xlink:href="#DejaVuSans-65" x="893.865234"/>
      <use xlink:href="#DejaVuSans-64" x="955.388672"/>
      <use xlink:href="#DejaVuSans-69" x="1018.865234"/>
      <use xlink:href="#DejaVuSans-61" x="1046.648438"/>
      <use xlink:href="#DejaVuSans-6e" x="1107.927734"/>
      <use xlink:href="#DejaVuSans-20" x="1171.306641"/>
      <use xlink:href="#DejaVuSans-63" x="1203.09375"/>
      <use xlink:href="#DejaVuSans-6f" x="1258.074219"/>
      <use xlink:href="#DejaVuSans-76" x="1319.255859"/>
      <use xlink:href="#DejaVuSans-65" x="1378.435547"/>
      <use xlink:href="#DejaVuSans-72" x="1439.958984"/>
      <use xlink:href="#DejaVuSans-61" x="1481.072266"/>
      <use xlink:href="#DejaVuSans-67" x="1542.351562"/>
      <use xlink:href="#DejaVuSans-65" x="1605.828125"/>
      <use xlink:href="#DejaVuSans-20" x="1667.351562"/>
      <use xlink:href="#DejaVuSans-6f" x="1699.138672"/>
      <use xlink:href="#DejaVuSans-6e" x="1760.320312"/>
      <use xlink:href="#DejaVuSans-20" x="1823.699219"/>
      <use xlink:href="#DejaVuSans-74" x="1855.486328"/>
      <use xlink:href="#DejaVuSans-68" x="1894.695312"/>
      <use xlink:href="#DejaVuSans-65" x="1958.074219"/>
      <use xlink:href="#DejaVuSans-20" x="2019.597656"/>
      <use xlink:href="#DejaVuSans-6c" x="2051.384766"/>
      <use xlink:href="#DejaVuSans-65" x="2079.167969"/>
      <use xlink:href="#DejaVuSans-66" x="2140.691406"/>
      <use xlink:href="#DejaVuSans-74" x="2174.146484"/>
      <use xlink:href="#DejaVuSans-29" x="2213.355469"/>
     </g>
    </g>
   </g>
   <g id="matplotlib.axis_2">
    <g id="ytick_1">
     <g id="line2d_10">
      <defs>
       <path id="me33ccea45b" d="M 0 0 
L -3.5 0 
" style="stroke: #000000; stroke-width: 0.8"/>
      </defs>
      <g>
       <use xlink:href="#me33ccea45b" x="69.339962" y="275.833605" style="stroke: #000000; stroke-width: 0.8"/>
      </g>
     </g>
     <g id="text_11">
      <!-- 0 -->
      <g transform="translate(55.977462 279.632824)scale(0.1 -0.1)">
       <use xlink:href="#DejaVuSans-30"/>
      </g>
     </g>
    </g>
    <g id="ytick_2">
     <g id="line2d_11">
      <g>
       <use xlink:href="#me33ccea45b" x="69.339962" y="246.105205" style="stroke: #000000; stroke-width: 0.8"/>
      </g>
     </g>
     <g id="text_12">
      <!-- 500 -->
      <g transform="translate(43.252462 249.904423)scale(0.1 -0.1)">
       <defs>
        <path id="DejaVuSans-35" d="M 691 4666 
L 3169 4666 
L 3169 4134 
L 1269 4134 
L 1269 2991 
Q 1406 3038 1543 3061 
Q 1681 3084 1819 3084 
Q 2600 3084 3056 2656 
Q 3513 2228 3513 1497 
Q 3513 744 3044 326 
Q 2575 -91 1722 -91 
Q 1428 -91 1123 -41 
Q 819 9 494 109 
L 494 744 
Q 775 591 1075 516 
Q 1375 441 1709 441 
Q 2250 441 2565 725 
Q 2881 1009 2881 1497 
Q 2881 1984 2565 2268 
Q 2250 2553 1709 2553 
Q 1456 2553 1204 2497 
Q 953 2441 691 2322 
L 691 4666 
z
" transform="scale(0.015625)"/>
       </defs>
       <use xlink:href="#DejaVuSans-35"/>
       <use xlink:href="#DejaVuSans-30" x="63.623047"/>
       <use xlink:href="#DejaVuSans-30" x="127.246094"/>
      </g>
     </g>
    </g>
    <g id="ytick_3">
     <g id="line2d_12">
      <g>
       <use xlink:href="#me33ccea45b" x="69.339962" y="216.376804" style="stroke: #000000; stroke-width: 0.8"/>
      </g>
     </g>
     <g id="text_13">
      <!-- 1000 -->
      <g transform="translate(36.889962 220.176022)scale(0.1 -0.1)">
       <use xlink:href="#DejaVuSans-31"/>
       <use xlink:href="#DejaVuSans-30" x="63.623047"/>
       <use xlink:href="#DejaVuSans-30" x="127.246094"/>
       <use xlink:href="#DejaVuSans-30" x="190.869141"/>
      </g>
     </g>
    </g>
    <g id="ytick_4">
     <g id="line2d_13">
      <g>
       <use xlink:href="#me33ccea45b" x="69.339962" y="186.648403" style="stroke: #000000; stroke-width: 0.8"/>
      </g>
     </g>
     <g id="text_14">
      <!-- 1500 -->
      <g transform="translate(36.889962 190.447621)scale(0.1 -0.1)">
       <use xlink:href="#DejaVuSans-31"/>
       <use xlink:href="#DejaVuSans-35" x="63.623047"/>
       <use xlink:href="#DejaVuSans-30" x="127.246094"/>
       <use xlink:href="#DejaVuSans-30" x="190.869141"/>
      </g>
     </g>
    </g>
    <g id="ytick_5">
     <g id="line2d_14">
      <g>
       <use xlink:href="#me33ccea45b" x="69.339962" y="156.920002" style="stroke: #000000; stroke-width: 0.8"/>
      </g>
     </g>
     <g id="text_15">
      <!-- 2000 -->
      <g transform="translate(36.889962 160.719221)scale(0.1 -0.1)">
       <use xlink:href="#DejaVuSans-32"/>
       <use xlink:href="#DejaVuSans-30" x="63.623047"/>
       <use xlink:href="#DejaVuSans-30" x="127.246094"/>
       <use xlink:href="#DejaVuSans-30" x="190.869141"/>
      </g>
     </g>
    </g>
    <g id="ytick_6">
     <g id="line2d_15">
      <g>
       <use xlink:href="#me33ccea45b" x="69.339962" y="127.191601" style="stroke: #000000; stroke-width: 0.8"/>
      </g>
     </g>
     <g id="text_16">
      <!-- 2500 -->
      <g transform="translate(36.889962 130.99082)scale(0.1 -0.1)">
       <use xlink:href="#DejaVuSans-32"/>
       <use xlink:href="#DejaVuSans-35" x="63.623047"/>
       <use xlink:href="#DejaVuSans-30" x="127.246094"/>
       <use xlink:href="#DejaVuSans-30" x="190.869141"/>
      </g>
     </g>
    </g>
    <g id="ytick_7">
     <g id="line2d_16">
      <g>
       <use xlink:href="#me33ccea45b" x="69.339962" y="97.4632" style="stroke: #000000; stroke-width: 0.8"/>
      </g>
     </g>
     <g id="text_17">
      <!-- 3000 -->
      <g transform="translate(36.889962 101.262419)scale(0.1 -0.1)">
       <use xlink:href="#DejaVuSans-33"/>
       <use xlink:href="#DejaVuSans-30" x="63.623047"/>
       <use xlink:href="#DejaVuSans-30" x="127.246094"/>
       <use xlink:href="#DejaVuSans-30" x="190.869141"/>
      </g>
     </g>
    </g>
    <g id="ytick_8">
     <g id="line2d_17">
      <g>
       <use xlink:href="#me33ccea45b" x="69.339962" y="67.734799" style="stroke: #000000; stroke-width: 0.8"/>
      </g>
     </g>
     <g id="text_18">
      <!-- 3500 -->
      <g transform="translate(36.889962 71.534018)scale(0.1 -0.1)">
       <use xlink:href="#DejaVuSans-33"/>
       <use xlink:href="#DejaVuSans-35" x="63.623047"/>
       <use xlink:href="#DejaVuSans-30" x="127.246094"/>
       <use xlink:href="#DejaVuSans-30" x="190.869141"/>
      </g>
     </g>
    </g>
    <g id="ytick_9">
     <g id="line2d_18">
      <g>
       <use xlink:href="#me33ccea45b" x="69.339962" y="38.006398" style="stroke: #000000; stroke-width: 0.8"/>
      </g>
     </g>
     <g id="text_19">
      <!-- 4000 -->
      <g transform="translate(36.889962 41.805617)scale(0.1 -0.1)">
       <defs>
        <path id="DejaVuSans-34" d="M 2419 4116 
L 825 1625 
L 2419 1625 
L 2419 4116 
z
M 2253 4666 
L 3047 4666 
L 3047 1625 
L 3713 1625 
L 3713 1100 
L 3047 1100 
L 3047 0 
L 2419 0 
L 2419 1100 
L 313 1100 
L 313 1709 
L 2253 4666 
z
" transform="scale(0.015625)"/>
       </defs>
       <use xlink:href="#DejaVuSans-34"/>
       <use xlink:href="#DejaVuSans-30" x="63.623047"/>
       <use xlink:href="#DejaVuSans-30" x="127.246094"/>
       <use xlink:href="#DejaVuSans-30" x="190.869141"/>
      </g>
     </g>
    </g>
    <g id="text_20">
     <!-- Reached region coverage -->
     <g transform="translate(30.810274 219.136625)rotate(-90)scale(0.1 -0.1)">
      <defs>
       <path id="DejaVuSans-52" d="M 2841 2188 
Q 3044 2119 3236 1894 
Q 3428 1669 3622 1275 
L 4263 0 
L 3584 0 
L 2988 1197 
Q 2756 1666 2539 1819 
Q 2322 1972 1947 1972 
L 1259 1972 
L 1259 0 
L 628 0 
L 628 4666 
L 2053 4666 
Q 2853 4666 3247 4331 
Q 3641 3997 3641 3322 
Q 3641 2881 3436 2590 
Q 3231 2300 2841 2188 
z
M 1259 4147 
L 1259 2491 
L 2053 2491 
Q 2509 2491 2742 2702 
Q 2975 2913 2975 3322 
Q 2975 3731 2742 3939 
Q 2509 4147 2053 4147 
L 1259 4147 
z
" transform="scale(0.015625)"/>
      </defs>
      <use xlink:href="#DejaVuSans-52"/>
      <use xlink:href="#DejaVuSans-65" x="64.982422"/>
      <use xlink:href="#DejaVuSans-61" x="126.505859"/>
      <use xlink:href="#DejaVuSans-63" x="187.785156"/>
      <use xlink:href="#DejaVuSans-68" x="242.765625"/>
      <use xlink:href="#DejaVuSans-65" x="306.144531"/>
      <use xlink:href="#DejaVuSans-64" x="367.667969"/>
      <use xlink:href="#DejaVuSans-20" x="431.144531"/>
      <use xlink:href="#DejaVuSans-72" x="462.931641"/>
      <use xlink:href="#DejaVuSans-65" x="501.794922"/>
      <use xlink:href="#DejaVuSans-67" x="563.318359"/>
      <use xlink:href="#DejaVuSans-69" x="626.794922"/>
      <use xlink:href="#DejaVuSans-6f" x="654.578125"/>
      <use xlink:href="#DejaVuSans-6e" x="715.759766"/>
      <use xlink:href="#DejaVuSans-20" x="779.138672"/>
      <use xlink:href="#DejaVuSans-63" x="810.925781"/>
      <use xlink:href="#DejaVuSans-6f" x="865.90625"/>
      <use xlink:href="#DejaVuSans-76" x="927.087891"/>
      <use xlink:href="#DejaVuSans-65" x="986.267578"/>
      <use xlink:href="#DejaVuSans-72" x="1047.791016"/>
      <use xlink:href="#DejaVuSans-61" x="1088.904297"/>
      <use xlink:href="#DejaVuSans-67" x="1150.183594"/>
      <use xlink:href="#DejaVuSans-65" x="1213.660156"/>
     </g>
    </g>
   </g>
   <g id="line2d_19">
    <path d="M 89.179962 197.826281 
L 89.179962 112.921969 
" clip-path="url(#p4a100f30d5)" style="fill: none; stroke: #3d3d3d; stroke-width: 1.5; stroke-linecap: square"/>
   </g>
   <g id="line2d_20">
    <path d="M 89.179962 155.582224 
L 89.179962 113.130067 
" clip-path="url(#p4a100f30d5)" style="fill: none; stroke: #3d3d3d; stroke-width: 4.5; stroke-linecap: square"/>
   </g>
   <g id="line2d_21">
    <path d="M 128.859962 122.316143 
L 128.859962 102.338658 
" clip-path="url(#p4a100f30d5)" style="fill: none; stroke: #3d3d3d; stroke-width: 1.5; stroke-linecap: square"/>
   </g>
   <g id="line2d_22">
    <path d="M 128.859962 119.016291 
L 128.859962 109.027548 
" clip-path="url(#p4a100f30d5)" style="fill: none; stroke: #3d3d3d; stroke-width: 4.5; stroke-linecap: square"/>
   </g>
   <g id="line2d_23">
    <path d="M 168.539962 135.872294 
L 168.539962 102.219744 
" clip-path="url(#p4a100f30d5)" style="fill: none; stroke: #3d3d3d; stroke-width: 1.5; stroke-linecap: square"/>
   </g>
   <g id="line2d_24">
    <path d="M 168.539962 133.107553 
L 168.539962 116.281278 
" clip-path="url(#p4a100f30d5)" style="fill: none; stroke: #3d3d3d; stroke-width: 4.5; stroke-linecap: square"/>
   </g>
   <g id="line2d_25">
    <path d="M 208.219962 135.75338 
L 208.219962 130.342811 
" clip-path="url(#p4a100f30d5)" style="fill: none; stroke: #3d3d3d; stroke-width: 1.5; stroke-linecap: square"/>
   </g>
   <g id="line2d_26">
    <path d="M 208.219962 133.52375 
L 208.219962 130.818466 
" clip-path="url(#p4a100f30d5)" style="fill: none; stroke: #3d3d3d; stroke-width: 4.5; stroke-linecap: square"/>
   </g>
   <g id="line2d_27">
    <path d="M 247.899962 133.256195 
L 247.899962 112.446314 
" clip-path="url(#p4a100f30d5)" style="fill: none; stroke: #3d3d3d; stroke-width: 1.5; stroke-linecap: square"/>
   </g>
   <g id="line2d_28">
    <path d="M 247.899962 132.542713 
L 247.899962 122.137773 
" clip-path="url(#p4a100f30d5)" style="fill: none; stroke: #3d3d3d; stroke-width: 4.5; stroke-linecap: square"/>
   </g>
   <g id="line2d_29">
    <path d="M 287.579962 147.704198 
L 287.579962 132.899454 
" clip-path="url(#p4a100f30d5)" style="fill: none; stroke: #3d3d3d; stroke-width: 1.5; stroke-linecap: square"/>
   </g>
   <g id="line2d_30">
    <path d="M 287.579962 145.831308 
L 287.579962 138.428936 
" clip-path="url(#p4a100f30d5)" style="fill: none; stroke: #3d3d3d; stroke-width: 4.5; stroke-linecap: square"/>
   </g>
   <g id="line2d_31">
    <path d="M 327.259962 148.417679 
L 327.259962 144.017876 
" clip-path="url(#p4a100f30d5)" style="fill: none; stroke: #3d3d3d; stroke-width: 1.5; stroke-linecap: square"/>
   </g>
   <g id="line2d_32">
    <path d="M 327.259962 146.425876 
L 327.259962 144.225975 
" clip-path="url(#p4a100f30d5)" style="fill: none; stroke: #3d3d3d; stroke-width: 4.5; stroke-linecap: square"/>
   </g>
   <g id="line2d_33">
    <path d="M 366.939962 200.442381 
L 366.939962 132.4238 
" clip-path="url(#p4a100f30d5)" style="fill: none; stroke: #3d3d3d; stroke-width: 1.5; stroke-linecap: square"/>
   </g>
   <g id="line2d_34">
    <path d="M 366.939962 196.904701 
L 366.939962 162.89541 
" clip-path="url(#p4a100f30d5)" style="fill: none; stroke: #3d3d3d; stroke-width: 4.5; stroke-linecap: square"/>
   </g>
   <g id="line2d_35">
    <path d="M 406.619962 202.701739 
L 406.619962 130.877923 
" clip-path="url(#p4a100f30d5)" style="fill: none; stroke: #3d3d3d; stroke-width: 1.5; stroke-linecap: square"/>
   </g>
   <g id="line2d_36">
    <path d="M 406.619962 201.39369 
L 406.619962 165.481781 
" clip-path="url(#p4a100f30d5)" style="fill: none; stroke: #3d3d3d; stroke-width: 4.5; stroke-linecap: square"/>
   </g>
   <g id="patch_3">
    <path d="M 69.339962 275.833605 
L 69.339962 38.006398 
" style="fill: none; stroke: #000000; stroke-width: 0.8; stroke-linejoin: miter; stroke-linecap: square"/>
   </g>
   <g id="patch_4">
    <path d="M 89.179962 288.430125 
L 406.619962 288.430125 
" style="fill: none; stroke: #000000; stroke-width: 0.8; stroke-linejoin: miter; stroke-linecap: square"/>
   </g>
   <g id="PathCollection_1">
    <defs>
     <path id="ma5143ee78b" d="M 0 1.5 
C 0.397805 1.5 0.77937 1.341951 1.06066 1.06066 
C 1.341951 0.77937 1.5 0.397805 1.5 0 
C 1.5 -0.397805 1.341951 -0.77937 1.06066 -1.06066 
C 0.77937 -1.341951 0.397805 -1.5 0 -1.5 
C -0.397805 -1.5 -0.77937 -1.341951 -1.06066 -1.06066 
C -1.341951 -0.77937 -1.5 -0.397805 -1.5 0 
C -1.5 0.397805 -1.341951 0.77937 -1.06066 1.06066 
C -0.77937 1.341951 -0.397805 1.5 0 1.5 
z
" style="stroke: #3d3d3d"/>
    </defs>
    <g clip-path="url(#p4a100f30d5)">
     <use xlink:href="#ma5143ee78b" x="89.179962" y="113.338166" style="fill: #ffffff; stroke: #3d3d3d"/>
    </g>
   </g>
   <g id="PathCollection_2">
    <g clip-path="url(#p4a100f30d5)">
     <use xlink:href="#ma5143ee78b" x="128.859962" y="115.716438" style="fill: #ffffff; stroke: #3d3d3d"/>
    </g>
   </g>
   <g id="PathCollection_3">
    <g clip-path="url(#p4a100f30d5)">
     <use xlink:href="#ma5143ee78b" x="168.539962" y="130.342811" style="fill: #ffffff; stroke: #3d3d3d"/>
    </g>
   </g>
   <g id="PathCollection_4">
    <g clip-path="url(#p4a100f30d5)">
     <use xlink:href="#ma5143ee78b" x="208.219962" y="131.29412" style="fill: #ffffff; stroke: #3d3d3d"/>
    </g>
   </g>
   <g id="PathCollection_5">
    <g clip-path="url(#p4a100f30d5)">
     <use xlink:href="#ma5143ee78b" x="247.899962" y="131.829231" style="fill: #ffffff; stroke: #3d3d3d"/>
    </g>
   </g>
   <g id="PathCollection_6">
    <g clip-path="url(#p4a100f30d5)">
     <use xlink:href="#ma5143ee78b" x="287.579962" y="143.958419" style="fill: #ffffff; stroke: #3d3d3d"/>
    </g>
   </g>
   <g id="PathCollection_7">
    <g clip-path="url(#p4a100f30d5)">
     <use xlink:href="#ma5143ee78b" x="327.259962" y="144.434073" style="fill: #ffffff; stroke: #3d3d3d"/>
    </g>
   </g>
   <g id="PathCollection_8">
    <g clip-path="url(#p4a100f30d5)">
     <use xlink:href="#ma5143ee78b" x="366.939962" y="193.367021" style="fill: #ffffff; stroke: #3d3d3d"/>
    </g>
   </g>
   <g id="PathCollection_9">
    <g clip-path="url(#p4a100f30d5)">
     <use xlink:href="#ma5143ee78b" x="406.619962" y="200.08564" style="fill: #ffffff; stroke: #3d3d3d"/>
    </g>
   </g>
   <g id="text_21">
    <!-- lcms-2017-03-21 (4h:15m, 3 trials/fuzzer) -->
    <g transform="translate(122.334962 16.318125)scale(0.12 -0.12)">
     <defs>
      <path id="DejaVuSans-2d" d="M 313 2009 
L 1997 2009 
L 1997 1497 
L 313 1497 
L 313 2009 
z
" transform="scale(0.015625)"/>
      <path id="DejaVuSans-37" d="M 525 4666 
L 3525 4666 
L 3525 4397 
L 1831 0 
L 1172 0 
L 2766 4134 
L 525 4134 
L 525 4666 
z
" transform="scale(0.015625)"/>
      <path id="DejaVuSans-3a" d="M 750 794 
L 1409 794 
L 1409 0 
L 750 0 
L 750 794 
z
M 750 3309 
L 1409 3309 
L 1409 2516 
L 750 2516 
L 750 3309 
z
" transform="scale(0.015625)"/>
      <path id="DejaVuSans-2c" d="M 750 794 
L 1409 794 
L 1409 256 
L 897 -744 
L 494 -744 
L 750 256 
L 750 794 
z
" transform="scale(0.015625)"/>
      <path id="DejaVuSans-2f" d="M 1625 4666 
L 2156 4666 
L 531 -594 
L 0 -594 
L 1625 4666 
z
" transform="scale(0.015625)"/>
     </defs>
     <use xlink:href="#DejaVuSans-6c"/>
     <use xlink:href="#DejaVuSans-63" x="27.783203"/>
     <use xlink:href="#DejaVuSans-6d" x="82.763672"/>
     <use xlink:href="#DejaVuSans-73" x="180.175781"/>
     <use xlink:href="#DejaVuSans-2d" x="232.275391"/>
     <use xlink:href="#DejaVuSans-32" x="268.359375"/>
     <use xlink:href="#DejaVuSans-30" x="331.982422"/>
     <use xlink:href="#DejaVuSans-31" x="395.605469"/>
     <use xlink:href="#DejaVuSans-37" x="459.228516"/>
     <use xlink:href="#DejaVuSans-2d" x="522.851562"/>
     <use xlink:href="#DejaVuSans-30" x="558.935547"/>
     <use xlink:href="#DejaVuSans-33" x="622.558594"/>
     <use xlink:href="#DejaVuSans-2d" x="686.181641"/>
     <use xlink:href="#DejaVuSans-32" x="722.265625"/>
     <use xlink:href="#DejaVuSans-31" x="785.888672"/>
     <use xlink:href="#DejaVuSans-20" x="849.511719"/>
     <use xlink:href="#DejaVuSans-28" x="881.298828"/>
     <use xlink:href="#DejaVuSans-34" x="920.3125"/>
     <use xlink:href="#DejaVuSans-68" x="983.935547"/>
     <use xlink:href="#DejaVuSans-3a" x="1047.314453"/>
     <use xlink:href="#DejaVuSans-31" x="1081.005859"/>
     <use xlink:href="#DejaVuSans-35" x="1144.628906"/>
     <use xlink:href="#DejaVuSans-6d" x="1208.251953"/>
     <use xlink:href="#DejaVuSans-2c" x="1305.664062"/>
     <use xlink:href="#DejaVuSans-20" x="1337.451172"/>
     <use xlink:href="#DejaVuSans-33" x="1369.238281"/>
     <use xlink:href="#DejaVuSans-20" x="1432.861328"/>
     <use xlink:href="#DejaVuSans-74" x="1464.648438"/>
     <use xlink:href="#DejaVuSans-72" x="1503.857422"/>
     <use xlink:href="#DejaVuSans-69" x="1544.970703"/>
     <use xlink:href="#DejaVuSans-61" x="1572.753906"/>
     <use xlink:href="#DejaVuSans-6c" x="1634.033203"/>
     <use xlink:href="#DejaVuSans-73" x="1661.816406"/>
     <use xlink:href="#DejaVuSans-2f" x="1713.916016"/>
     <use xlink:href="#DejaVuSans-66" x="1747.607422"/>
     <use xlink:href="#DejaVuSans-75" x="1782.8125"/>
     <use xlink:href="#DejaVuSans-7a" x="1846.191406"/>
     <use xlink:href="#DejaVuSans-7a" x="1898.681641"/>
     <use xlink:href="#DejaVuSans-65" x="1951.171875"/>
     <use xlink:href="#DejaVuSans-72" x="2012.695312"/>
     <use xlink:href="#DejaVuSans-29" x="2053.808594"/>
    </g>
   </g>
  </g>
 </g>
 <defs>
  <clipPath id="p4a100f30d5">
   <rect x="69.339962" y="22.318125" width="357.12" height="266.112"/>
  </clipPath>
 </defs>
</svg>
