<?xml version="1.0" encoding="utf-8" standalone="no"?>
<!DOCTYPE svg PUBLIC "-//W3C//DTD SVG 1.1//EN"
  "http://www.w3.org/Graphics/SVG/1.1/DTD/svg11.dtd">
<svg height="312.419812pt" version="1.1" viewBox="0 0 389.881912 312.419812" width="389.881912pt" xmlns="http://www.w3.org/2000/svg" xmlns:xlink="http://www.w3.org/1999/xlink">
 <metadata>
  <rdf:RDF xmlns:cc="http://creativecommons.org/ns#" xmlns:dc="http://purl.org/dc/elements/1.1/" xmlns:rdf="http://www.w3.org/1999/02/22-rdf-syntax-ns#">
   <cc:Work>
    <dc:type rdf:resource="http://purl.org/dc/dcmitype/StillImage"/>
    <dc:date>2022-04-20T14:15:32.045285</dc:date>
    <dc:format>image/svg+xml</dc:format>
    <dc:creator>
     <cc:Agent>
      <dc:title>Matplotlib v3.4.1, https://matplotlib.org/</dc:title>
     </cc:Agent>
    </dc:creator>
   </cc:Work>
  </rdf:RDF>
 </metadata>
 <defs>
  <style type="text/css">*{stroke-linecap:butt;stroke-linejoin:round;}</style>
 </defs>
 <g id="figure_1">
  <g id="patch_1">
   <path d="M -0 312.419812 
L 389.881912 312.419812 
L 389.881912 0 
L -0 0 
z
" style="fill:#ffffff;"/>
  </g>
  <g id="axes_1">
   <g id="patch_2">
    <path d="M 39.107812 273.312 
L 305.219812 273.312 
L 305.219812 7.2 
L 39.107812 7.2 
z
" style="fill:#ffffff;"/>
   </g>
   <g id="QuadMesh_1">
    <path clip-path="url(#pa20aa5f2de)" d="M 39.107812 7.2 
L 105.635812 7.2 
L 105.635812 73.728 
L 39.107812 73.728 
L 39.107812 7.2 
" style="fill:none;stroke:#808080;stroke-width:0.5;"/>
    <path clip-path="url(#pa20aa5f2de)" d="M 105.635812 7.2 
L 172.163812 7.2 
L 172.163812 73.728 
L 105.635812 73.728 
L 105.635812 7.2 
" style="fill:#fbd7d4;stroke:#808080;stroke-width:0.5;"/>
    <path clip-path="url(#pa20aa5f2de)" d="M 172.163812 7.2 
L 238.691812 7.2 
L 238.691812 73.728 
L 172.163812 73.728 
L 172.163812 7.2 
" style="fill:#fbd7d4;stroke:#808080;stroke-width:0.5;"/>
    <path clip-path="url(#pa20aa5f2de)" d="M 238.691812 7.2 
L 305.219812 7.2 
L 305.219812 73.728 
L 238.691812 73.728 
L 238.691812 7.2 
" style="fill:#fbd7d4;stroke:#808080;stroke-width:0.5;"/>
    <path clip-path="url(#pa20aa5f2de)" d="M 39.107812 73.728 
L 105.635812 73.728 
L 105.635812 140.256 
L 39.107812 140.256 
L 39.107812 73.728 
" style="fill:#fbd7d4;stroke:#808080;stroke-width:0.5;"/>
    <path clip-path="url(#pa20aa5f2de)" d="M 105.635812 73.728 
L 172.163812 73.728 
L 172.163812 140.256 
L 105.635812 140.256 
L 105.635812 73.728 
" style="fill:none;stroke:#808080;stroke-width:0.5;"/>
    <path clip-path="url(#pa20aa5f2de)" d="M 172.163812 73.728 
L 238.691812 73.728 
L 238.691812 140.256 
L 172.163812 140.256 
L 172.163812 73.728 
" style="fill:#fbd7d4;stroke:#808080;stroke-width:0.5;"/>
    <path clip-path="url(#pa20aa5f2de)" d="M 238.691812 73.728 
L 305.219812 73.728 
L 305.219812 140.256 
L 238.691812 140.256 
L 238.691812 73.728 
" style="fill:#fbd7d4;stroke:#808080;stroke-width:0.5;"/>
    <path clip-path="url(#pa20aa5f2de)" d="M 39.107812 140.256 
L 105.635812 140.256 
L 105.635812 206.784 
L 39.107812 206.784 
L 39.107812 140.256 
" style="fill:#fbd7d4;stroke:#808080;stroke-width:0.5;"/>
    <path clip-path="url(#pa20aa5f2de)" d="M 105.635812 140.256 
L 172.163812 140.256 
L 172.163812 206.784 
L 105.635812 206.784 
L 105.635812 140.256 
" style="fill:#fbd7d4;stroke:#808080;stroke-width:0.5;"/>
    <path clip-path="url(#pa20aa5f2de)" d="M 172.163812 140.256 
L 238.691812 140.256 
L 238.691812 206.784 
L 172.163812 206.784 
L 172.163812 140.256 
" style="fill:none;stroke:#808080;stroke-width:0.5;"/>
    <path clip-path="url(#pa20aa5f2de)" d="M 238.691812 140.256 
L 305.219812 140.256 
L 305.219812 206.784 
L 238.691812 206.784 
L 238.691812 140.256 
" style="fill:#fbd7d4;stroke:#808080;stroke-width:0.5;"/>
    <path clip-path="url(#pa20aa5f2de)" d="M 39.107812 206.784 
L 105.635812 206.784 
L 105.635812 273.312 
L 39.107812 273.312 
L 39.107812 206.784 
" style="fill:#fbd7d4;stroke:#808080;stroke-width:0.5;"/>
    <path clip-path="url(#pa20aa5f2de)" d="M 105.635812 206.784 
L 172.163812 206.784 
L 172.163812 273.312 
L 105.635812 273.312 
L 105.635812 206.784 
" style="fill:#fbd7d4;stroke:#808080;stroke-width:0.5;"/>
    <path clip-path="url(#pa20aa5f2de)" d="M 172.163812 206.784 
L 238.691812 206.784 
L 238.691812 273.312 
L 172.163812 273.312 
L 172.163812 206.784 
" style="fill:#fbd7d4;stroke:#808080;stroke-width:0.5;"/>
    <path clip-path="url(#pa20aa5f2de)" d="M 238.691812 206.784 
L 305.219812 206.784 
L 305.219812 273.312 
L 238.691812 273.312 
L 238.691812 206.784 
" style="fill:none;stroke:#808080;stroke-width:0.5;"/>
   </g>
   <g id="matplotlib.axis_1">
    <g id="xtick_1">
     <g id="line2d_1">
      <defs>
       <path d="M 0 0 
L 0 3.5 
" id="m3ecb004877" style="stroke:#000000;stroke-width:0.8;"/>
      </defs>
      <g>
       <use style="stroke:#000000;stroke-width:0.8;" x="72.371812" xlink:href="#m3ecb004877" y="273.312"/>
      </g>
     </g>
     <g id="text_1">
      <!-- aflo0 -->
      <g transform="translate(64.773375 280.312)rotate(-270)scale(0.1 -0.1)">
       <defs>
        <path d="M 2194 1759 
Q 1497 1759 1228 1600 
Q 959 1441 959 1056 
Q 959 750 1161 570 
Q 1363 391 1709 391 
Q 2188 391 2477 730 
Q 2766 1069 2766 1631 
L 2766 1759 
L 2194 1759 
z
M 3341 1997 
L 3341 0 
L 2766 0 
L 2766 531 
Q 2569 213 2275 61 
Q 1981 -91 1556 -91 
Q 1019 -91 701 211 
Q 384 513 384 1019 
Q 384 1609 779 1909 
Q 1175 2209 1959 2209 
L 2766 2209 
L 2766 2266 
Q 2766 2663 2505 2880 
Q 2244 3097 1772 3097 
Q 1472 3097 1187 3025 
Q 903 2953 641 2809 
L 641 3341 
Q 956 3463 1253 3523 
Q 1550 3584 1831 3584 
Q 2591 3584 2966 3190 
Q 3341 2797 3341 1997 
z
" id="DejaVuSans-61" transform="scale(0.015625)"/>
        <path d="M 2375 4863 
L 2375 4384 
L 1825 4384 
Q 1516 4384 1395 4259 
Q 1275 4134 1275 3809 
L 1275 3500 
L 2222 3500 
L 2222 3053 
L 1275 3053 
L 1275 0 
L 697 0 
L 697 3053 
L 147 3053 
L 147 3500 
L 697 3500 
L 697 3744 
Q 697 4328 969 4595 
Q 1241 4863 1831 4863 
L 2375 4863 
z
" id="DejaVuSans-66" transform="scale(0.015625)"/>
        <path d="M 603 4863 
L 1178 4863 
L 1178 0 
L 603 0 
L 603 4863 
z
" id="DejaVuSans-6c" transform="scale(0.015625)"/>
        <path d="M 1959 3097 
Q 1497 3097 1228 2736 
Q 959 2375 959 1747 
Q 959 1119 1226 758 
Q 1494 397 1959 397 
Q 2419 397 2687 759 
Q 2956 1122 2956 1747 
Q 2956 2369 2687 2733 
Q 2419 3097 1959 3097 
z
M 1959 3584 
Q 2709 3584 3137 3096 
Q 3566 2609 3566 1747 
Q 3566 888 3137 398 
Q 2709 -91 1959 -91 
Q 1206 -91 779 398 
Q 353 888 353 1747 
Q 353 2609 779 3096 
Q 1206 3584 1959 3584 
z
" id="DejaVuSans-6f" transform="scale(0.015625)"/>
        <path d="M 2034 4250 
Q 1547 4250 1301 3770 
Q 1056 3291 1056 2328 
Q 1056 1369 1301 889 
Q 1547 409 2034 409 
Q 2525 409 2770 889 
Q 3016 1369 3016 2328 
Q 3016 3291 2770 3770 
Q 2525 4250 2034 4250 
z
M 2034 4750 
Q 2819 4750 3233 4129 
Q 3647 3509 3647 2328 
Q 3647 1150 3233 529 
Q 2819 -91 2034 -91 
Q 1250 -91 836 529 
Q 422 1150 422 2328 
Q 422 3509 836 4129 
Q 1250 4750 2034 4750 
z
" id="DejaVuSans-30" transform="scale(0.015625)"/>
       </defs>
       <use xlink:href="#DejaVuSans-61"/>
       <use x="61.279297" xlink:href="#DejaVuSans-66"/>
       <use x="96.484375" xlink:href="#DejaVuSans-6c"/>
       <use x="124.267578" xlink:href="#DejaVuSans-6f"/>
       <use x="185.449219" xlink:href="#DejaVuSans-30"/>
      </g>
     </g>
    </g>
    <g id="xtick_2">
     <g id="line2d_2">
      <g>
       <use style="stroke:#000000;stroke-width:0.8;" x="138.899812" xlink:href="#m3ecb004877" y="273.312"/>
      </g>
     </g>
     <g id="text_2">
      <!-- aflo1 -->
      <g transform="translate(131.301375 280.312)rotate(-270)scale(0.1 -0.1)">
       <defs>
        <path d="M 794 531 
L 1825 531 
L 1825 4091 
L 703 3866 
L 703 4441 
L 1819 4666 
L 2450 4666 
L 2450 531 
L 3481 531 
L 3481 0 
L 794 0 
L 794 531 
z
" id="DejaVuSans-31" transform="scale(0.015625)"/>
       </defs>
       <use xlink:href="#DejaVuSans-61"/>
       <use x="61.279297" xlink:href="#DejaVuSans-66"/>
       <use x="96.484375" xlink:href="#DejaVuSans-6c"/>
       <use x="124.267578" xlink:href="#DejaVuSans-6f"/>
       <use x="185.449219" xlink:href="#DejaVuSans-31"/>
      </g>
     </g>
    </g>
    <g id="xtick_3">
     <g id="line2d_3">
      <g>
       <use style="stroke:#000000;stroke-width:0.8;" x="205.427812" xlink:href="#m3ecb004877" y="273.312"/>
      </g>
     </g>
     <g id="text_3">
      <!-- aflo2 -->
      <g transform="translate(197.829375 280.312)rotate(-270)scale(0.1 -0.1)">
       <defs>
        <path d="M 1228 531 
L 3431 531 
L 3431 0 
L 469 0 
L 469 531 
Q 828 903 1448 1529 
Q 2069 2156 2228 2338 
Q 2531 2678 2651 2914 
Q 2772 3150 2772 3378 
Q 2772 3750 2511 3984 
Q 2250 4219 1831 4219 
Q 1534 4219 1204 4116 
Q 875 4013 500 3803 
L 500 4441 
Q 881 4594 1212 4672 
Q 1544 4750 1819 4750 
Q 2544 4750 2975 4387 
Q 3406 4025 3406 3419 
Q 3406 3131 3298 2873 
Q 3191 2616 2906 2266 
Q 2828 2175 2409 1742 
Q 1991 1309 1228 531 
z
" id="DejaVuSans-32" transform="scale(0.015625)"/>
       </defs>
       <use xlink:href="#DejaVuSans-61"/>
       <use x="61.279297" xlink:href="#DejaVuSans-66"/>
       <use x="96.484375" xlink:href="#DejaVuSans-6c"/>
       <use x="124.267578" xlink:href="#DejaVuSans-6f"/>
       <use x="185.449219" xlink:href="#DejaVuSans-32"/>
      </g>
     </g>
    </g>
    <g id="xtick_4">
     <g id="line2d_4">
      <g>
       <use style="stroke:#000000;stroke-width:0.8;" x="271.955812" xlink:href="#m3ecb004877" y="273.312"/>
      </g>
     </g>
     <g id="text_4">
      <!-- aflo3 -->
      <g transform="translate(264.357375 280.312)rotate(-270)scale(0.1 -0.1)">
       <defs>
        <path d="M 2597 2516 
Q 3050 2419 3304 2112 
Q 3559 1806 3559 1356 
Q 3559 666 3084 287 
Q 2609 -91 1734 -91 
Q 1441 -91 1130 -33 
Q 819 25 488 141 
L 488 750 
Q 750 597 1062 519 
Q 1375 441 1716 441 
Q 2309 441 2620 675 
Q 2931 909 2931 1356 
Q 2931 1769 2642 2001 
Q 2353 2234 1838 2234 
L 1294 2234 
L 1294 2753 
L 1863 2753 
Q 2328 2753 2575 2939 
Q 2822 3125 2822 3475 
Q 2822 3834 2567 4026 
Q 2313 4219 1838 4219 
Q 1578 4219 1281 4162 
Q 984 4106 628 3988 
L 628 4550 
Q 988 4650 1302 4700 
Q 1616 4750 1894 4750 
Q 2613 4750 3031 4423 
Q 3450 4097 3450 3541 
Q 3450 3153 3228 2886 
Q 3006 2619 2597 2516 
z
" id="DejaVuSans-33" transform="scale(0.015625)"/>
       </defs>
       <use xlink:href="#DejaVuSans-61"/>
       <use x="61.279297" xlink:href="#DejaVuSans-66"/>
       <use x="96.484375" xlink:href="#DejaVuSans-6c"/>
       <use x="124.267578" xlink:href="#DejaVuSans-6f"/>
       <use x="185.449219" xlink:href="#DejaVuSans-33"/>
      </g>
     </g>
    </g>
   </g>
   <g id="matplotlib.axis_2">
    <g id="ytick_1">
     <g id="line2d_5">
      <defs>
       <path d="M 0 0 
L -3.5 0 
" id="m0fb0c46d93" style="stroke:#000000;stroke-width:0.8;"/>
      </defs>
      <g>
       <use style="stroke:#000000;stroke-width:0.8;" x="39.107812" xlink:href="#m0fb0c46d93" y="40.464"/>
      </g>
     </g>
     <g id="text_5">
      <!-- aflo0 -->
      <g transform="translate(7.2 44.263219)scale(0.1 -0.1)">
       <use xlink:href="#DejaVuSans-61"/>
       <use x="61.279297" xlink:href="#DejaVuSans-66"/>
       <use x="96.484375" xlink:href="#DejaVuSans-6c"/>
       <use x="124.267578" xlink:href="#DejaVuSans-6f"/>
       <use x="185.449219" xlink:href="#DejaVuSans-30"/>
      </g>
     </g>
    </g>
    <g id="ytick_2">
     <g id="line2d_6">
      <g>
       <use style="stroke:#000000;stroke-width:0.8;" x="39.107812" xlink:href="#m0fb0c46d93" y="106.992"/>
      </g>
     </g>
     <g id="text_6">
      <!-- aflo1 -->
      <g transform="translate(7.2 110.791219)scale(0.1 -0.1)">
       <use xlink:href="#DejaVuSans-61"/>
       <use x="61.279297" xlink:href="#DejaVuSans-66"/>
       <use x="96.484375" xlink:href="#DejaVuSans-6c"/>
       <use x="124.267578" xlink:href="#DejaVuSans-6f"/>
       <use x="185.449219" xlink:href="#DejaVuSans-31"/>
      </g>
     </g>
    </g>
    <g id="ytick_3">
     <g id="line2d_7">
      <g>
       <use style="stroke:#000000;stroke-width:0.8;" x="39.107812" xlink:href="#m0fb0c46d93" y="173.52"/>
      </g>
     </g>
     <g id="text_7">
      <!-- aflo2 -->
      <g transform="translate(7.2 177.319219)scale(0.1 -0.1)">
       <use xlink:href="#DejaVuSans-61"/>
       <use x="61.279297" xlink:href="#DejaVuSans-66"/>
       <use x="96.484375" xlink:href="#DejaVuSans-6c"/>
       <use x="124.267578" xlink:href="#DejaVuSans-6f"/>
       <use x="185.449219" xlink:href="#DejaVuSans-32"/>
      </g>
     </g>
    </g>
    <g id="ytick_4">
     <g id="line2d_8">
      <g>
       <use style="stroke:#000000;stroke-width:0.8;" x="39.107812" xlink:href="#m0fb0c46d93" y="240.048"/>
      </g>
     </g>
     <g id="text_8">
      <!-- aflo3 -->
      <g transform="translate(7.2 243.847219)scale(0.1 -0.1)">
       <use xlink:href="#DejaVuSans-61"/>
       <use x="61.279297" xlink:href="#DejaVuSans-66"/>
       <use x="96.484375" xlink:href="#DejaVuSans-6c"/>
       <use x="124.267578" xlink:href="#DejaVuSans-6f"/>
       <use x="185.449219" xlink:href="#DejaVuSans-33"/>
      </g>
     </g>
    </g>
   </g>
  </g>
  <g id="axes_2">
   <g id="patch_3">
    <path d="M 323.075812 204.192 
L 329.469412 204.192 
L 329.469412 76.32 
L 323.075812 76.32 
z
" style="fill:#ffffff;"/>
   </g>
   <g id="patch_4">
    <path clip-path="url(#p96f0482886)" d="M 323.075812 204.192 
L 323.075812 161.568 
L 323.075812 118.944 
L 323.075812 76.32 
L 329.469412 76.32 
L 329.469412 118.944 
L 329.469412 161.568 
L 329.469412 204.192 
L 329.469412 204.192 
z
" style="fill:#ffffff;stroke:#ffffff;stroke-linejoin:miter;stroke-width:0.01;"/>
   </g>
   <g id="QuadMesh_2">
    <path clip-path="url(#p96f0482886)" d="M 323.075812 204.192 
L 329.469412 204.192 
L 329.469412 161.568 
L 323.075812 161.568 
L 323.075812 204.192 
" style="fill:#005a32;"/>
    <path clip-path="url(#p96f0482886)" d="M 323.075812 161.568 
L 329.469412 161.568 
L 329.469412 118.944 
L 323.075812 118.944 
L 323.075812 161.568 
" style="fill:#238b45;"/>
    <path clip-path="url(#p96f0482886)" d="M 323.075812 118.944 
L 329.469412 118.944 
L 329.469412 76.32 
L 323.075812 76.32 
L 323.075812 118.944 
" style="fill:#fbd7d4;"/>
   </g>
   <g id="matplotlib.axis_3"/>
   <g id="matplotlib.axis_4">
    <g id="ytick_5">
     <g id="line2d_9"/>
     <g id="text_9">
      <!-- p &lt; 0.001 -->
      <g transform="translate(332.969412 186.679219)scale(0.1 -0.1)">
       <defs>
        <path d="M 1159 525 
L 1159 -1331 
L 581 -1331 
L 581 3500 
L 1159 3500 
L 1159 2969 
Q 1341 3281 1617 3432 
Q 1894 3584 2278 3584 
Q 2916 3584 3314 3078 
Q 3713 2572 3713 1747 
Q 3713 922 3314 415 
Q 2916 -91 2278 -91 
Q 1894 -91 1617 61 
Q 1341 213 1159 525 
z
M 3116 1747 
Q 3116 2381 2855 2742 
Q 2594 3103 2138 3103 
Q 1681 3103 1420 2742 
Q 1159 2381 1159 1747 
Q 1159 1113 1420 752 
Q 1681 391 2138 391 
Q 2594 391 2855 752 
Q 3116 1113 3116 1747 
z
" id="DejaVuSans-70" transform="scale(0.015625)"/>
        <path id="DejaVuSans-20" transform="scale(0.015625)"/>
        <path d="M 4684 3150 
L 1459 2003 
L 4684 863 
L 4684 294 
L 678 1747 
L 678 2266 
L 4684 3719 
L 4684 3150 
z
" id="DejaVuSans-3c" transform="scale(0.015625)"/>
        <path d="M 684 794 
L 1344 794 
L 1344 0 
L 684 0 
L 684 794 
z
" id="DejaVuSans-2e" transform="scale(0.015625)"/>
       </defs>
       <use xlink:href="#DejaVuSans-70"/>
       <use x="63.476562" xlink:href="#DejaVuSans-20"/>
       <use x="95.263672" xlink:href="#DejaVuSans-3c"/>
       <use x="179.052734" xlink:href="#DejaVuSans-20"/>
       <use x="210.839844" xlink:href="#DejaVuSans-30"/>
       <use x="274.462891" xlink:href="#DejaVuSans-2e"/>
       <use x="306.25" xlink:href="#DejaVuSans-30"/>
       <use x="369.873047" xlink:href="#DejaVuSans-30"/>
       <use x="433.496094" xlink:href="#DejaVuSans-31"/>
      </g>
     </g>
    </g>
    <g id="ytick_6">
     <g id="line2d_10"/>
     <g id="text_10">
      <!-- p &lt; 0.01 -->
      <g transform="translate(332.969412 146.423219)scale(0.1 -0.1)">
       <use xlink:href="#DejaVuSans-70"/>
       <use x="63.476562" xlink:href="#DejaVuSans-20"/>
       <use x="95.263672" xlink:href="#DejaVuSans-3c"/>
       <use x="179.052734" xlink:href="#DejaVuSans-20"/>
       <use x="210.839844" xlink:href="#DejaVuSans-30"/>
       <use x="274.462891" xlink:href="#DejaVuSans-2e"/>
       <use x="306.25" xlink:href="#DejaVuSans-30"/>
       <use x="369.873047" xlink:href="#DejaVuSans-31"/>
      </g>
     </g>
    </g>
    <g id="ytick_7">
     <g id="line2d_11"/>
     <g id="text_11">
      <!-- p &lt; 0.05 -->
      <g transform="translate(332.969412 101.431219)scale(0.1 -0.1)">
       <defs>
        <path d="M 691 4666 
L 3169 4666 
L 3169 4134 
L 1269 4134 
L 1269 2991 
Q 1406 3038 1543 3061 
Q 1681 3084 1819 3084 
Q 2600 3084 3056 2656 
Q 3513 2228 3513 1497 
Q 3513 744 3044 326 
Q 2575 -91 1722 -91 
Q 1428 -91 1123 -41 
Q 819 9 494 109 
L 494 744 
Q 775 591 1075 516 
Q 1375 441 1709 441 
Q 2250 441 2565 725 
Q 2881 1009 2881 1497 
Q 2881 1984 2565 2268 
Q 2250 2553 1709 2553 
Q 1456 2553 1204 2497 
Q 953 2441 691 2322 
L 691 4666 
z
" id="DejaVuSans-35" transform="scale(0.015625)"/>
       </defs>
       <use xlink:href="#DejaVuSans-70"/>
       <use x="63.476562" xlink:href="#DejaVuSans-20"/>
       <use x="95.263672" xlink:href="#DejaVuSans-3c"/>
       <use x="179.052734" xlink:href="#DejaVuSans-20"/>
       <use x="210.839844" xlink:href="#DejaVuSans-30"/>
       <use x="274.462891" xlink:href="#DejaVuSans-2e"/>
       <use x="306.25" xlink:href="#DejaVuSans-30"/>
       <use x="369.873047" xlink:href="#DejaVuSans-35"/>
      </g>
     </g>
    </g>
   </g>
   <g id="LineCollection_1"/>
   <g id="patch_5">
    <path d="M 323.075812 204.192 
L 323.075812 161.568 
L 323.075812 118.944 
L 323.075812 76.32 
L 329.469412 76.32 
L 329.469412 118.944 
L 329.469412 161.568 
L 329.469412 204.192 
z
" style="fill:none;stroke:#808080;stroke-linecap:square;stroke-linejoin:miter;"/>
   </g>
  </g>
 </g>
 <defs>
  <clipPath id="pa20aa5f2de">
   <rect height="266.112" width="266.112" x="39.107812" y="7.2"/>
  </clipPath>
  <clipPath id="p96f0482886">
   <rect height="127.872" width="6.3936" x="323.075812" y="76.32"/>
  </clipPath>
 </defs>
</svg>
