<?xml version="1.0" encoding="utf-8" standalone="no"?>
<!DOCTYPE svg PUBLIC "-//W3C//DTD SVG 1.1//EN"
  "http://www.w3.org/Graphics/SVG/1.1/DTD/svg11.dtd">
<svg xmlns:xlink="http://www.w3.org/1999/xlink" width="427.18875pt" height="316.30825pt" viewBox="0 0 427.18875 316.30825" xmlns="http://www.w3.org/2000/svg" version="1.1">
 <metadata>
  <rdf:RDF xmlns:dc="http://purl.org/dc/elements/1.1/" xmlns:cc="http://creativecommons.org/ns#" xmlns:rdf="http://www.w3.org/1999/02/22-rdf-syntax-ns#">
   <cc:Work>
    <dc:type rdf:resource="http://purl.org/dc/dcmitype/StillImage"/>
    <dc:date>2022-06-05T20:11:58.654090</dc:date>
    <dc:format>image/svg+xml</dc:format>
    <dc:creator>
     <cc:Agent>
      <dc:title>Matplotlib v3.5.1, https://matplotlib.org/</dc:title>
     </cc:Agent>
    </dc:creator>
   </cc:Work>
  </rdf:RDF>
 </metadata>
 <defs>
  <style type="text/css">*{stroke-linejoin: round; stroke-linecap: butt}</style>
 </defs>
 <g id="figure_1">
  <g id="patch_1">
   <path d="M 0 316.30825 
L 427.18875 316.30825 
L 427.18875 0 
L 0 0 
z
" style="fill: #ffffff"/>
  </g>
  <g id="axes_1">
   <g id="patch_2">
    <path d="M 62.86875 288.430125 
L 419.98875 288.430125 
L 419.98875 22.318125 
L 62.86875 22.318125 
z
" style="fill: #ffffff"/>
   </g>
   <g id="matplotlib.axis_1">
    <g id="xtick_1">
     <g id="line2d_1">
      <defs>
       <path id="m520dc2bd8f" d="M 0 0 
L 0 3.5 
" style="stroke: #000000; stroke-width: 0.8"/>
      </defs>
      <g>
       <use xlink:href="#m520dc2bd8f" x="68.029732" y="288.430125" style="stroke: #000000; stroke-width: 0.8"/>
      </g>
     </g>
    </g>
    <g id="xtick_2">
     <g id="line2d_2">
      <g>
       <use xlink:href="#m520dc2bd8f" x="138.269637" y="288.430125" style="stroke: #000000; stroke-width: 0.8"/>
      </g>
     </g>
    </g>
    <g id="xtick_3">
     <g id="line2d_3">
      <g>
       <use xlink:href="#m520dc2bd8f" x="208.509542" y="288.430125" style="stroke: #000000; stroke-width: 0.8"/>
      </g>
     </g>
    </g>
    <g id="xtick_4">
     <g id="line2d_4">
      <g>
       <use xlink:href="#m520dc2bd8f" x="278.749447" y="288.430125" style="stroke: #000000; stroke-width: 0.8"/>
      </g>
     </g>
    </g>
    <g id="xtick_5">
     <g id="line2d_5">
      <g>
       <use xlink:href="#m520dc2bd8f" x="348.989352" y="288.430125" style="stroke: #000000; stroke-width: 0.8"/>
      </g>
     </g>
    </g>
    <g id="xtick_6">
     <g id="line2d_6">
      <g>
       <use xlink:href="#m520dc2bd8f" x="419.229257" y="288.430125" style="stroke: #000000; stroke-width: 0.8"/>
      </g>
     </g>
    </g>
    <g id="text_1">
     <!-- Code region coverage -->
     <g transform="translate(186.423281 307.028562)scale(0.1 -0.1)">
      <defs>
       <path id="DejaVuSans-43" d="M 4122 4306 
L 4122 3641 
Q 3803 3938 3442 4084 
Q 3081 4231 2675 4231 
Q 1875 4231 1450 3742 
Q 1025 3253 1025 2328 
Q 1025 1406 1450 917 
Q 1875 428 2675 428 
Q 3081 428 3442 575 
Q 3803 722 4122 1019 
L 4122 359 
Q 3791 134 3420 21 
Q 3050 -91 2638 -91 
Q 1578 -91 968 557 
Q 359 1206 359 2328 
Q 359 3453 968 4101 
Q 1578 4750 2638 4750 
Q 3056 4750 3426 4639 
Q 3797 4528 4122 4306 
z
" transform="scale(0.015625)"/>
       <path id="DejaVuSans-6f" d="M 1959 3097 
Q 1497 3097 1228 2736 
Q 959 2375 959 1747 
Q 959 1119 1226 758 
Q 1494 397 1959 397 
Q 2419 397 2687 759 
Q 2956 1122 2956 1747 
Q 2956 2369 2687 2733 
Q 2419 3097 1959 3097 
z
M 1959 3584 
Q 2709 3584 3137 3096 
Q 3566 2609 3566 1747 
Q 3566 888 3137 398 
Q 2709 -91 1959 -91 
Q 1206 -91 779 398 
Q 353 888 353 1747 
Q 353 2609 779 3096 
Q 1206 3584 1959 3584 
z
" transform="scale(0.015625)"/>
       <path id="DejaVuSans-64" d="M 2906 2969 
L 2906 4863 
L 3481 4863 
L 3481 0 
L 2906 0 
L 2906 525 
Q 2725 213 2448 61 
Q 2172 -91 1784 -91 
Q 1150 -91 751 415 
Q 353 922 353 1747 
Q 353 2572 751 3078 
Q 1150 3584 1784 3584 
Q 2172 3584 2448 3432 
Q 2725 3281 2906 2969 
z
M 947 1747 
Q 947 1113 1208 752 
Q 1469 391 1925 391 
Q 2381 391 2643 752 
Q 2906 1113 2906 1747 
Q 2906 2381 2643 2742 
Q 2381 3103 1925 3103 
Q 1469 3103 1208 2742 
Q 947 2381 947 1747 
z
" transform="scale(0.015625)"/>
       <path id="DejaVuSans-65" d="M 3597 1894 
L 3597 1613 
L 953 1613 
Q 991 1019 1311 708 
Q 1631 397 2203 397 
Q 2534 397 2845 478 
Q 3156 559 3463 722 
L 3463 178 
Q 3153 47 2828 -22 
Q 2503 -91 2169 -91 
Q 1331 -91 842 396 
Q 353 884 353 1716 
Q 353 2575 817 3079 
Q 1281 3584 2069 3584 
Q 2775 3584 3186 3129 
Q 3597 2675 3597 1894 
z
M 3022 2063 
Q 3016 2534 2758 2815 
Q 2500 3097 2075 3097 
Q 1594 3097 1305 2825 
Q 1016 2553 972 2059 
L 3022 2063 
z
" transform="scale(0.015625)"/>
       <path id="DejaVuSans-20" transform="scale(0.015625)"/>
       <path id="DejaVuSans-72" d="M 2631 2963 
Q 2534 3019 2420 3045 
Q 2306 3072 2169 3072 
Q 1681 3072 1420 2755 
Q 1159 2438 1159 1844 
L 1159 0 
L 581 0 
L 581 3500 
L 1159 3500 
L 1159 2956 
Q 1341 3275 1631 3429 
Q 1922 3584 2338 3584 
Q 2397 3584 2469 3576 
Q 2541 3569 2628 3553 
L 2631 2963 
z
" transform="scale(0.015625)"/>
       <path id="DejaVuSans-67" d="M 2906 1791 
Q 2906 2416 2648 2759 
Q 2391 3103 1925 3103 
Q 1463 3103 1205 2759 
Q 947 2416 947 1791 
Q 947 1169 1205 825 
Q 1463 481 1925 481 
Q 2391 481 2648 825 
Q 2906 1169 2906 1791 
z
M 3481 434 
Q 3481 -459 3084 -895 
Q 2688 -1331 1869 -1331 
Q 1566 -1331 1297 -1286 
Q 1028 -1241 775 -1147 
L 775 -588 
Q 1028 -725 1275 -790 
Q 1522 -856 1778 -856 
Q 2344 -856 2625 -561 
Q 2906 -266 2906 331 
L 2906 616 
Q 2728 306 2450 153 
Q 2172 0 1784 0 
Q 1141 0 747 490 
Q 353 981 353 1791 
Q 353 2603 747 3093 
Q 1141 3584 1784 3584 
Q 2172 3584 2450 3431 
Q 2728 3278 2906 2969 
L 2906 3500 
L 3481 3500 
L 3481 434 
z
" transform="scale(0.015625)"/>
       <path id="DejaVuSans-69" d="M 603 3500 
L 1178 3500 
L 1178 0 
L 603 0 
L 603 3500 
z
M 603 4863 
L 1178 4863 
L 1178 4134 
L 603 4134 
L 603 4863 
z
" transform="scale(0.015625)"/>
       <path id="DejaVuSans-6e" d="M 3513 2113 
L 3513 0 
L 2938 0 
L 2938 2094 
Q 2938 2591 2744 2837 
Q 2550 3084 2163 3084 
Q 1697 3084 1428 2787 
Q 1159 2491 1159 1978 
L 1159 0 
L 581 0 
L 581 3500 
L 1159 3500 
L 1159 2956 
Q 1366 3272 1645 3428 
Q 1925 3584 2291 3584 
Q 2894 3584 3203 3211 
Q 3513 2838 3513 2113 
z
" transform="scale(0.015625)"/>
       <path id="DejaVuSans-63" d="M 3122 3366 
L 3122 2828 
Q 2878 2963 2633 3030 
Q 2388 3097 2138 3097 
Q 1578 3097 1268 2742 
Q 959 2388 959 1747 
Q 959 1106 1268 751 
Q 1578 397 2138 397 
Q 2388 397 2633 464 
Q 2878 531 3122 666 
L 3122 134 
Q 2881 22 2623 -34 
Q 2366 -91 2075 -91 
Q 1284 -91 818 406 
Q 353 903 353 1747 
Q 353 2603 823 3093 
Q 1294 3584 2113 3584 
Q 2378 3584 2631 3529 
Q 2884 3475 3122 3366 
z
" transform="scale(0.015625)"/>
       <path id="DejaVuSans-76" d="M 191 3500 
L 800 3500 
L 1894 563 
L 2988 3500 
L 3597 3500 
L 2284 0 
L 1503 0 
L 191 3500 
z
" transform="scale(0.015625)"/>
       <path id="DejaVuSans-61" d="M 2194 1759 
Q 1497 1759 1228 1600 
Q 959 1441 959 1056 
Q 959 750 1161 570 
Q 1363 391 1709 391 
Q 2188 391 2477 730 
Q 2766 1069 2766 1631 
L 2766 1759 
L 2194 1759 
z
M 3341 1997 
L 3341 0 
L 2766 0 
L 2766 531 
Q 2569 213 2275 61 
Q 1981 -91 1556 -91 
Q 1019 -91 701 211 
Q 384 513 384 1019 
Q 384 1609 779 1909 
Q 1175 2209 1959 2209 
L 2766 2209 
L 2766 2266 
Q 2766 2663 2505 2880 
Q 2244 3097 1772 3097 
Q 1472 3097 1187 3025 
Q 903 2953 641 2809 
L 641 3341 
Q 956 3463 1253 3523 
Q 1550 3584 1831 3584 
Q 2591 3584 2966 3190 
Q 3341 2797 3341 1997 
z
" transform="scale(0.015625)"/>
      </defs>
      <use xlink:href="#DejaVuSans-43"/>
      <use xlink:href="#DejaVuSans-6f" x="69.824219"/>
      <use xlink:href="#DejaVuSans-64" x="131.005859"/>
      <use xlink:href="#DejaVuSans-65" x="194.482422"/>
      <use xlink:href="#DejaVuSans-20" x="256.005859"/>
      <use xlink:href="#DejaVuSans-72" x="287.792969"/>
      <use xlink:href="#DejaVuSans-65" x="326.65625"/>
      <use xlink:href="#DejaVuSans-67" x="388.179688"/>
      <use xlink:href="#DejaVuSans-69" x="451.65625"/>
      <use xlink:href="#DejaVuSans-6f" x="479.439453"/>
      <use xlink:href="#DejaVuSans-6e" x="540.621094"/>
      <use xlink:href="#DejaVuSans-20" x="604"/>
      <use xlink:href="#DejaVuSans-63" x="635.787109"/>
      <use xlink:href="#DejaVuSans-6f" x="690.767578"/>
      <use xlink:href="#DejaVuSans-76" x="751.949219"/>
      <use xlink:href="#DejaVuSans-65" x="811.128906"/>
      <use xlink:href="#DejaVuSans-72" x="872.652344"/>
      <use xlink:href="#DejaVuSans-61" x="913.765625"/>
      <use xlink:href="#DejaVuSans-67" x="975.044922"/>
      <use xlink:href="#DejaVuSans-65" x="1038.521484"/>
     </g>
    </g>
   </g>
   <g id="matplotlib.axis_2">
    <g id="ytick_1">
     <g id="line2d_7">
      <defs>
       <path id="m8e88486334" d="M 0 0 
L -3.5 0 
" style="stroke: #000000; stroke-width: 0.8"/>
      </defs>
      <g>
       <use xlink:href="#m8e88486334" x="62.86875" y="288.430125" style="stroke: #000000; stroke-width: 0.8"/>
      </g>
     </g>
     <g id="text_2">
      <!-- 0.0000 -->
      <g transform="translate(20.878125 292.229344)scale(0.1 -0.1)">
       <defs>
        <path id="DejaVuSans-30" d="M 2034 4250 
Q 1547 4250 1301 3770 
Q 1056 3291 1056 2328 
Q 1056 1369 1301 889 
Q 1547 409 2034 409 
Q 2525 409 2770 889 
Q 3016 1369 3016 2328 
Q 3016 3291 2770 3770 
Q 2525 4250 2034 4250 
z
M 2034 4750 
Q 2819 4750 3233 4129 
Q 3647 3509 3647 2328 
Q 3647 1150 3233 529 
Q 2819 -91 2034 -91 
Q 1250 -91 836 529 
Q 422 1150 422 2328 
Q 422 3509 836 4129 
Q 1250 4750 2034 4750 
z
" transform="scale(0.015625)"/>
        <path id="DejaVuSans-2e" d="M 684 794 
L 1344 794 
L 1344 0 
L 684 0 
L 684 794 
z
" transform="scale(0.015625)"/>
       </defs>
       <use xlink:href="#DejaVuSans-30"/>
       <use xlink:href="#DejaVuSans-2e" x="63.623047"/>
       <use xlink:href="#DejaVuSans-30" x="95.410156"/>
       <use xlink:href="#DejaVuSans-30" x="159.033203"/>
       <use xlink:href="#DejaVuSans-30" x="222.65625"/>
       <use xlink:href="#DejaVuSans-30" x="286.279297"/>
      </g>
     </g>
    </g>
    <g id="ytick_2">
     <g id="line2d_8">
      <g>
       <use xlink:href="#m8e88486334" x="62.86875" y="244.31231" style="stroke: #000000; stroke-width: 0.8"/>
      </g>
     </g>
     <g id="text_3">
      <!-- 0.0005 -->
      <g transform="translate(20.878125 248.111529)scale(0.1 -0.1)">
       <defs>
        <path id="DejaVuSans-35" d="M 691 4666 
L 3169 4666 
L 3169 4134 
L 1269 4134 
L 1269 2991 
Q 1406 3038 1543 3061 
Q 1681 3084 1819 3084 
Q 2600 3084 3056 2656 
Q 3513 2228 3513 1497 
Q 3513 744 3044 326 
Q 2575 -91 1722 -91 
Q 1428 -91 1123 -41 
Q 819 9 494 109 
L 494 744 
Q 775 591 1075 516 
Q 1375 441 1709 441 
Q 2250 441 2565 725 
Q 2881 1009 2881 1497 
Q 2881 1984 2565 2268 
Q 2250 2553 1709 2553 
Q 1456 2553 1204 2497 
Q 953 2441 691 2322 
L 691 4666 
z
" transform="scale(0.015625)"/>
       </defs>
       <use xlink:href="#DejaVuSans-30"/>
       <use xlink:href="#DejaVuSans-2e" x="63.623047"/>
       <use xlink:href="#DejaVuSans-30" x="95.410156"/>
       <use xlink:href="#DejaVuSans-30" x="159.033203"/>
       <use xlink:href="#DejaVuSans-30" x="222.65625"/>
       <use xlink:href="#DejaVuSans-35" x="286.279297"/>
      </g>
     </g>
    </g>
    <g id="ytick_3">
     <g id="line2d_9">
      <g>
       <use xlink:href="#m8e88486334" x="62.86875" y="200.194495" style="stroke: #000000; stroke-width: 0.8"/>
      </g>
     </g>
     <g id="text_4">
      <!-- 0.0010 -->
      <g transform="translate(20.878125 203.993713)scale(0.1 -0.1)">
       <defs>
        <path id="DejaVuSans-31" d="M 794 531 
L 1825 531 
L 1825 4091 
L 703 3866 
L 703 4441 
L 1819 4666 
L 2450 4666 
L 2450 531 
L 3481 531 
L 3481 0 
L 794 0 
L 794 531 
z
" transform="scale(0.015625)"/>
       </defs>
       <use xlink:href="#DejaVuSans-30"/>
       <use xlink:href="#DejaVuSans-2e" x="63.623047"/>
       <use xlink:href="#DejaVuSans-30" x="95.410156"/>
       <use xlink:href="#DejaVuSans-30" x="159.033203"/>
       <use xlink:href="#DejaVuSans-31" x="222.65625"/>
       <use xlink:href="#DejaVuSans-30" x="286.279297"/>
      </g>
     </g>
    </g>
    <g id="ytick_4">
     <g id="line2d_10">
      <g>
       <use xlink:href="#m8e88486334" x="62.86875" y="156.076679" style="stroke: #000000; stroke-width: 0.8"/>
      </g>
     </g>
     <g id="text_5">
      <!-- 0.0015 -->
      <g transform="translate(20.878125 159.875898)scale(0.1 -0.1)">
       <use xlink:href="#DejaVuSans-30"/>
       <use xlink:href="#DejaVuSans-2e" x="63.623047"/>
       <use xlink:href="#DejaVuSans-30" x="95.410156"/>
       <use xlink:href="#DejaVuSans-30" x="159.033203"/>
       <use xlink:href="#DejaVuSans-31" x="222.65625"/>
       <use xlink:href="#DejaVuSans-35" x="286.279297"/>
      </g>
     </g>
    </g>
    <g id="ytick_5">
     <g id="line2d_11">
      <g>
       <use xlink:href="#m8e88486334" x="62.86875" y="111.958864" style="stroke: #000000; stroke-width: 0.8"/>
      </g>
     </g>
     <g id="text_6">
      <!-- 0.0020 -->
      <g transform="translate(20.878125 115.758083)scale(0.1 -0.1)">
       <defs>
        <path id="DejaVuSans-32" d="M 1228 531 
L 3431 531 
L 3431 0 
L 469 0 
L 469 531 
Q 828 903 1448 1529 
Q 2069 2156 2228 2338 
Q 2531 2678 2651 2914 
Q 2772 3150 2772 3378 
Q 2772 3750 2511 3984 
Q 2250 4219 1831 4219 
Q 1534 4219 1204 4116 
Q 875 4013 500 3803 
L 500 4441 
Q 881 4594 1212 4672 
Q 1544 4750 1819 4750 
Q 2544 4750 2975 4387 
Q 3406 4025 3406 3419 
Q 3406 3131 3298 2873 
Q 3191 2616 2906 2266 
Q 2828 2175 2409 1742 
Q 1991 1309 1228 531 
z
" transform="scale(0.015625)"/>
       </defs>
       <use xlink:href="#DejaVuSans-30"/>
       <use xlink:href="#DejaVuSans-2e" x="63.623047"/>
       <use xlink:href="#DejaVuSans-30" x="95.410156"/>
       <use xlink:href="#DejaVuSans-30" x="159.033203"/>
       <use xlink:href="#DejaVuSans-32" x="222.65625"/>
       <use xlink:href="#DejaVuSans-30" x="286.279297"/>
      </g>
     </g>
    </g>
    <g id="ytick_6">
     <g id="line2d_12">
      <g>
       <use xlink:href="#m8e88486334" x="62.86875" y="67.841049" style="stroke: #000000; stroke-width: 0.8"/>
      </g>
     </g>
     <g id="text_7">
      <!-- 0.0025 -->
      <g transform="translate(20.878125 71.640268)scale(0.1 -0.1)">
       <use xlink:href="#DejaVuSans-30"/>
       <use xlink:href="#DejaVuSans-2e" x="63.623047"/>
       <use xlink:href="#DejaVuSans-30" x="95.410156"/>
       <use xlink:href="#DejaVuSans-30" x="159.033203"/>
       <use xlink:href="#DejaVuSans-32" x="222.65625"/>
       <use xlink:href="#DejaVuSans-35" x="286.279297"/>
      </g>
     </g>
    </g>
    <g id="ytick_7">
     <g id="line2d_13">
      <g>
       <use xlink:href="#m8e88486334" x="62.86875" y="23.723234" style="stroke: #000000; stroke-width: 0.8"/>
      </g>
     </g>
     <g id="text_8">
      <!-- 0.0030 -->
      <g transform="translate(20.878125 27.522453)scale(0.1 -0.1)">
       <defs>
        <path id="DejaVuSans-33" d="M 2597 2516 
Q 3050 2419 3304 2112 
Q 3559 1806 3559 1356 
Q 3559 666 3084 287 
Q 2609 -91 1734 -91 
Q 1441 -91 1130 -33 
Q 819 25 488 141 
L 488 750 
Q 750 597 1062 519 
Q 1375 441 1716 441 
Q 2309 441 2620 675 
Q 2931 909 2931 1356 
Q 2931 1769 2642 2001 
Q 2353 2234 1838 2234 
L 1294 2234 
L 1294 2753 
L 1863 2753 
Q 2328 2753 2575 2939 
Q 2822 3125 2822 3475 
Q 2822 3834 2567 4026 
Q 2313 4219 1838 4219 
Q 1578 4219 1281 4162 
Q 984 4106 628 3988 
L 628 4550 
Q 988 4650 1302 4700 
Q 1616 4750 1894 4750 
Q 2613 4750 3031 4423 
Q 3450 4097 3450 3541 
Q 3450 3153 3228 2886 
Q 3006 2619 2597 2516 
z
" transform="scale(0.015625)"/>
       </defs>
       <use xlink:href="#DejaVuSans-30"/>
       <use xlink:href="#DejaVuSans-2e" x="63.623047"/>
       <use xlink:href="#DejaVuSans-30" x="95.410156"/>
       <use xlink:href="#DejaVuSans-30" x="159.033203"/>
       <use xlink:href="#DejaVuSans-33" x="222.65625"/>
       <use xlink:href="#DejaVuSans-30" x="286.279297"/>
      </g>
     </g>
    </g>
    <g id="text_9">
     <!-- Density -->
     <g transform="translate(14.798438 174.382719)rotate(-90)scale(0.1 -0.1)">
      <defs>
       <path id="DejaVuSans-44" d="M 1259 4147 
L 1259 519 
L 2022 519 
Q 2988 519 3436 956 
Q 3884 1394 3884 2338 
Q 3884 3275 3436 3711 
Q 2988 4147 2022 4147 
L 1259 4147 
z
M 628 4666 
L 1925 4666 
Q 3281 4666 3915 4102 
Q 4550 3538 4550 2338 
Q 4550 1131 3912 565 
Q 3275 0 1925 0 
L 628 0 
L 628 4666 
z
" transform="scale(0.015625)"/>
       <path id="DejaVuSans-73" d="M 2834 3397 
L 2834 2853 
Q 2591 2978 2328 3040 
Q 2066 3103 1784 3103 
Q 1356 3103 1142 2972 
Q 928 2841 928 2578 
Q 928 2378 1081 2264 
Q 1234 2150 1697 2047 
L 1894 2003 
Q 2506 1872 2764 1633 
Q 3022 1394 3022 966 
Q 3022 478 2636 193 
Q 2250 -91 1575 -91 
Q 1294 -91 989 -36 
Q 684 19 347 128 
L 347 722 
Q 666 556 975 473 
Q 1284 391 1588 391 
Q 1994 391 2212 530 
Q 2431 669 2431 922 
Q 2431 1156 2273 1281 
Q 2116 1406 1581 1522 
L 1381 1569 
Q 847 1681 609 1914 
Q 372 2147 372 2553 
Q 372 3047 722 3315 
Q 1072 3584 1716 3584 
Q 2034 3584 2315 3537 
Q 2597 3491 2834 3397 
z
" transform="scale(0.015625)"/>
       <path id="DejaVuSans-74" d="M 1172 4494 
L 1172 3500 
L 2356 3500 
L 2356 3053 
L 1172 3053 
L 1172 1153 
Q 1172 725 1289 603 
Q 1406 481 1766 481 
L 2356 481 
L 2356 0 
L 1766 0 
Q 1100 0 847 248 
Q 594 497 594 1153 
L 594 3053 
L 172 3053 
L 172 3500 
L 594 3500 
L 594 4494 
L 1172 4494 
z
" transform="scale(0.015625)"/>
       <path id="DejaVuSans-79" d="M 2059 -325 
Q 1816 -950 1584 -1140 
Q 1353 -1331 966 -1331 
L 506 -1331 
L 506 -850 
L 844 -850 
Q 1081 -850 1212 -737 
Q 1344 -625 1503 -206 
L 1606 56 
L 191 3500 
L 800 3500 
L 1894 763 
L 2988 3500 
L 3597 3500 
L 2059 -325 
z
" transform="scale(0.015625)"/>
      </defs>
      <use xlink:href="#DejaVuSans-44"/>
      <use xlink:href="#DejaVuSans-65" x="77.001953"/>
      <use xlink:href="#DejaVuSans-6e" x="138.525391"/>
      <use xlink:href="#DejaVuSans-73" x="201.904297"/>
      <use xlink:href="#DejaVuSans-69" x="254.003906"/>
      <use xlink:href="#DejaVuSans-74" x="281.787109"/>
      <use xlink:href="#DejaVuSans-79" x="320.996094"/>
     </g>
    </g>
   </g>
   <g id="line2d_14">
    <path d="M 324.7068 287.460808 
L 326.295729 286.847192 
L 327.487426 286.185292 
L 328.679123 285.296599 
L 329.87082 284.124671 
L 331.062517 282.607055 
L 332.254214 280.677543 
L 333.44591 278.269514 
L 334.637607 275.320356 
L 335.829304 271.776797 
L 337.021001 267.600821 
L 338.60993 261.023817 
L 340.198859 253.331356 
L 342.18502 242.360915 
L 344.965646 225.383851 
L 348.540737 203.533955 
L 350.526898 192.630922 
L 352.513059 183.020882 
L 354.499221 174.57725 
L 360.854937 148.939377 
L 363.238331 137.586949 
L 366.813421 120.297784 
L 368.005118 115.488782 
L 369.196815 111.702606 
L 369.99128 109.909328 
L 370.785744 108.804214 
L 371.182976 108.533963 
L 371.580209 108.463086 
L 371.977441 108.5987 
L 372.374673 108.946829 
L 372.771905 109.51233 
L 373.56637 111.308783 
L 374.360835 114.002026 
L 375.155299 117.585393 
L 375.949764 122.031708 
L 377.14146 130.211917 
L 378.333157 139.992976 
L 379.922086 154.991882 
L 382.702712 184.19825 
L 385.88057 217.085687 
L 387.866732 235.058109 
L 389.455661 247.358875 
L 391.04459 257.654894 
L 392.236287 264.07534 
L 393.427984 269.444645 
L 394.61968 273.852131 
L 395.811377 277.404618 
L 397.003074 280.216958 
L 398.194771 282.404234 
L 399.386468 284.075826 
L 400.578165 285.331351 
L 401.769861 286.258299 
L 402.961558 286.931088 
L 403.756023 287.269286 
L 403.756023 287.269286 
" clip-path="url(#p1c861f983a)" style="fill: none; stroke: #dbdb8d; stroke-width: 1.5; stroke-linecap: square"/>
   </g>
   <g id="line2d_15">
    <path d="M 255.101317 287.918867 
L 256.992292 287.49154 
L 258.410524 286.990167 
L 259.828756 286.272257 
L 261.246988 285.270808 
L 262.665219 283.909775 
L 264.083451 282.107382 
L 265.501683 279.781019 
L 266.919914 276.853382 
L 268.338146 273.259081 
L 269.756378 268.95064 
L 271.17461 263.902643 
L 272.592841 258.11291 
L 274.483817 249.273949 
L 276.374793 239.232879 
L 278.265768 228.083903 
L 280.629488 212.705181 
L 282.993207 195.826207 
L 285.829671 173.878127 
L 291.029854 133.036257 
L 292.448085 123.520246 
L 293.866317 115.601107 
L 294.811805 111.458181 
L 295.757293 108.382595 
L 296.230037 107.281174 
L 296.702781 106.486587 
L 297.175525 106.008305 
L 297.648268 105.853607 
L 298.121012 106.02742 
L 298.593756 106.532194 
L 299.0665 107.367805 
L 299.539244 108.5315 
L 300.484732 111.818874 
L 301.43022 116.319726 
L 302.375708 121.919775 
L 303.793939 132.045914 
L 305.684915 147.783009 
L 309.93961 184.577623 
L 311.357842 195.164905 
L 312.776073 204.299862 
L 314.194305 211.886111 
L 315.612537 218.001009 
L 317.030769 222.862419 
L 318.449 226.781742 
L 320.339976 231.149681 
L 323.649183 238.517423 
L 325.540159 243.392145 
L 327.431135 248.911053 
L 330.740342 259.489573 
L 333.576805 268.265024 
L 335.467781 273.373711 
L 336.886013 276.665219 
L 338.304244 279.4542 
L 339.722476 281.744757 
L 341.140708 283.569647 
L 342.55894 284.981016 
L 343.977171 286.041291 
L 345.395403 286.815395 
L 346.813635 287.364909 
L 348.70461 287.841161 
L 349.177354 287.925684 
L 349.177354 287.925684 
" clip-path="url(#p1c861f983a)" style="fill: none; stroke: #c5b0d5; stroke-width: 1.5; stroke-linecap: square"/>
   </g>
   <g id="line2d_16">
    <path d="M 265.052685 287.679641 
L 266.313473 287.064788 
L 267.259064 286.349844 
L 268.204655 285.334773 
L 269.150246 283.931944 
L 270.095837 282.045346 
L 271.041428 279.577055 
L 271.987019 276.436335 
L 272.93261 272.550766 
L 273.8782 267.878104 
L 275.138988 260.427913 
L 276.714973 249.364106 
L 278.921352 231.690346 
L 285.855685 173.150161 
L 287.43167 156.772272 
L 289.007655 137.33644 
L 290.898836 110.283333 
L 294.050806 64.31287 
L 295.311594 49.884514 
L 296.257185 41.912129 
L 296.887579 38.203517 
L 297.517973 35.878969 
L 297.83317 35.249957 
L 298.148367 34.979007 
L 298.463564 35.064922 
L 298.778761 35.504098 
L 299.093958 36.290622 
L 299.724351 38.871364 
L 300.354745 42.719367 
L 301.300336 50.613 
L 302.245927 60.640277 
L 303.506715 76.469589 
L 305.713094 107.887381 
L 310.441048 176.35616 
L 312.962624 209.46709 
L 314.853806 231.413023 
L 316.429791 247.075549 
L 317.690578 257.586778 
L 318.951366 266.208998 
L 319.896957 271.461424 
L 320.842548 275.742117 
L 321.788139 279.145069 
L 322.73373 281.782877 
L 323.679321 283.776236 
L 324.624912 285.244582 
L 325.570502 286.298839 
L 326.516093 287.036626 
L 327.461684 287.539882 
L 327.776881 287.66735 
L 327.776881 287.66735 
" clip-path="url(#p1c861f983a)" style="fill: none; stroke: #7f7f7f; stroke-width: 1.5; stroke-linecap: square"/>
   </g>
   <g id="line2d_17">
    <path d="M 231.69993 287.523138 
L 234.96087 286.964857 
L 237.406574 286.367193 
L 239.852279 285.56937 
L 242.297983 284.52257 
L 244.743688 283.172855 
L 247.189393 281.463086 
L 248.819863 280.094724 
L 250.450332 278.524353 
L 252.080802 276.736882 
L 253.711272 274.719161 
L 256.156977 271.23884 
L 258.602681 267.197454 
L 261.048386 262.597607 
L 263.494091 257.469657 
L 265.939795 251.875386 
L 269.200735 243.85983 
L 278.168318 221.273342 
L 280.614023 215.825667 
L 283.059728 211.035577 
L 284.690198 208.286592 
L 286.320667 205.938632 
L 287.951137 204.021209 
L 289.581607 202.554205 
L 291.212077 201.547148 
L 292.842546 200.998864 
L 294.473016 200.897537 
L 296.103486 201.221176 
L 297.733956 201.938487 
L 299.364425 203.010097 
L 300.994895 204.390102 
L 302.625365 206.027848 
L 305.07107 208.850521 
L 308.332009 213.016166 
L 314.038653 220.359152 
L 317.299593 224.133464 
L 319.745298 226.670768 
L 323.006237 229.681601 
L 327.082412 233.022391 
L 333.604291 238.260589 
L 336.86523 241.224272 
L 339.310935 243.700519 
L 342.571874 247.368888 
L 345.832814 251.420526 
L 349.908988 256.862412 
L 357.246102 266.77989 
L 360.507042 270.838292 
L 363.767981 274.496077 
L 366.213686 276.928227 
L 368.659391 279.074544 
L 371.105095 280.932253 
L 373.5508 282.509899 
L 375.996505 283.82495 
L 378.442209 284.901205 
L 380.887914 285.76627 
L 384.148854 286.641596 
L 387.409793 287.261064 
L 391.485968 287.768492 
L 393.931672 287.969302 
L 393.931672 287.969302 
" clip-path="url(#p1c861f983a)" style="fill: none; stroke: #c7c7c7; stroke-width: 1.5; stroke-linecap: square"/>
   </g>
   <g id="line2d_18">
    <path d="M 106.081884 288.172392 
L 110.283058 287.877926 
L 113.643997 287.458339 
L 117.004937 286.785734 
L 119.525641 286.052181 
L 122.046345 285.065753 
L 124.56705 283.772575 
L 127.087754 282.120375 
L 128.768224 280.79668 
L 131.288928 278.452286 
L 133.809633 275.662308 
L 136.330337 272.433143 
L 138.851042 268.801498 
L 142.211981 263.459181 
L 152.294799 246.835423 
L 154.815503 243.341417 
L 156.495973 241.305663 
L 158.176442 239.536579 
L 159.856912 238.050614 
L 161.537382 236.853358 
L 163.217851 235.938928 
L 164.898321 235.28988 
L 166.57879 234.877666 
L 168.25926 234.663623 
L 170.779964 234.608758 
L 176.661608 234.722549 
L 178.342078 234.550006 
L 180.022547 234.186473 
L 181.703017 233.588434 
L 183.383487 232.722351 
L 185.063956 231.566382 
L 186.744426 230.111701 
L 188.424896 228.363366 
L 190.105365 226.340695 
L 192.62607 222.869147 
L 195.987009 217.701493 
L 200.188183 211.174142 
L 202.708887 207.718042 
L 204.389357 205.782931 
L 206.069827 204.235472 
L 207.750296 203.145585 
L 208.590531 202.791013 
L 209.430766 202.571712 
L 210.271001 202.492799 
L 211.111235 202.558399 
L 211.95147 202.771606 
L 212.791705 203.134453 
L 213.63194 203.64789 
L 214.472175 204.311776 
L 216.152644 206.084928 
L 217.833114 208.43146 
L 219.513584 211.312977 
L 221.194053 214.676881 
L 222.874523 218.458669 
L 225.395227 224.751975 
L 228.756166 233.875083 
L 234.63781 250.050531 
L 237.158515 256.460689 
L 239.679219 262.312342 
L 242.199923 267.505937 
L 243.880393 270.577016 
L 245.560863 273.330501 
L 247.241332 275.771415 
L 248.921802 277.911293 
L 250.602272 279.766811 
L 252.282741 281.35845 
L 253.963211 282.709211 
L 255.64368 283.843469 
L 257.32415 284.785967 
L 259.844855 285.892999 
L 262.365559 286.699729 
L 264.886263 287.274154 
L 268.247203 287.77663 
L 272.448377 288.126218 
L 273.288612 288.171202 
L 273.288612 288.171202 
" clip-path="url(#p1c861f983a)" style="fill: none; stroke: #ff7f0e; stroke-width: 1.5; stroke-linecap: square"/>
   </g>
   <g id="line2d_19">
    <path d="M 128.645079 288.105945 
L 131.039657 287.799507 
L 133.434235 287.260724 
L 135.230169 286.628927 
L 137.026102 285.728505 
L 138.822036 284.483429 
L 140.019325 283.422222 
L 141.216614 282.148674 
L 142.413903 280.641151 
L 143.611192 278.881187 
L 145.407126 275.739321 
L 147.203059 271.98035 
L 148.998993 267.625097 
L 150.794927 262.740459 
L 153.189505 255.605395 
L 160.373239 233.665899 
L 162.767817 227.357384 
L 165.162395 221.758326 
L 168.754262 214.125659 
L 171.148841 208.856083 
L 172.944774 204.420907 
L 174.740708 199.361389 
L 176.536641 193.577898 
L 178.332575 187.090132 
L 181.325798 175.210861 
L 184.31902 163.45743 
L 186.114954 157.415714 
L 187.312243 154.140865 
L 188.509532 151.641229 
L 189.108177 150.722433 
L 189.706821 150.042489 
L 190.305466 149.612549 
L 190.90411 149.441548 
L 191.502755 149.536055 
L 192.101399 149.900149 
L 192.700044 150.535345 
L 193.298688 151.440553 
L 193.897333 152.61208 
L 195.094622 155.726623 
L 196.291911 159.800125 
L 197.4892 164.719126 
L 199.285134 173.368284 
L 201.679712 186.404204 
L 205.870223 209.689865 
L 208.264802 221.545726 
L 210.060735 229.344693 
L 211.856669 236.17999 
L 213.652602 242.141907 
L 215.448536 247.382926 
L 217.843114 253.545334 
L 220.237692 259.081852 
L 223.230915 265.432139 
L 226.224137 271.209737 
L 228.618716 275.315763 
L 230.414649 278.022065 
L 232.210583 280.369939 
L 234.006516 282.345417 
L 235.80245 283.955754 
L 237.598384 285.226923 
L 239.394317 286.198492 
L 241.190251 286.917541 
L 242.986184 287.432926 
L 245.380762 287.882231 
L 247.775341 288.143717 
L 247.775341 288.143717 
" clip-path="url(#p1c861f983a)" style="fill: none; stroke: #98df8a; stroke-width: 1.5; stroke-linecap: square"/>
   </g>
   <g id="line2d_20">
    <path d="M 135.308411 287.923454 
L 137.145685 287.439613 
L 138.523641 286.839437 
L 139.901598 285.938122 
L 140.820235 285.114441 
L 141.738872 284.066406 
L 142.65751 282.749222 
L 143.576147 281.114131 
L 144.494784 279.109529 
L 145.413422 276.682542 
L 146.332059 273.781096 
L 147.250696 270.356431 
L 148.628652 264.147813 
L 150.006609 256.567927 
L 151.384565 247.588295 
L 152.762521 237.274147 
L 154.599795 221.762327 
L 157.815026 192.003322 
L 160.111619 171.396722 
L 161.948894 156.990751 
L 163.32685 147.984102 
L 164.704806 140.760637 
L 165.623444 136.967472 
L 166.542081 133.970184 
L 167.460718 131.719303 
L 168.379356 130.143763 
L 169.297993 129.157622 
L 170.21663 128.66777 
L 171.135268 128.582014 
L 172.053905 128.816845 
L 172.972543 129.304232 
L 173.89118 129.996846 
L 175.269136 131.37609 
L 176.647092 133.193948 
L 177.565729 134.710823 
L 178.484367 136.537148 
L 179.403004 138.737335 
L 180.321641 141.374605 
L 181.240279 144.503126 
L 182.618235 150.19413 
L 183.996191 157.101766 
L 185.374147 165.122695 
L 187.211422 177.123413 
L 191.804608 208.137614 
L 193.641883 218.68602 
L 195.019839 225.423952 
L 196.397795 231.146324 
L 197.775751 235.969072 
L 199.153707 240.088569 
L 200.990982 244.892488 
L 206.502806 258.720568 
L 212.01463 273.090693 
L 213.851905 277.115729 
L 215.229861 279.688411 
L 216.607817 281.849195 
L 217.985773 283.60432 
L 219.363729 284.983851 
L 220.741685 286.033716 
L 222.119641 286.80773 
L 223.497597 287.360816 
L 225.334872 287.841905 
L 226.712828 288.066019 
L 226.712828 288.066019 
" clip-path="url(#p1c861f983a)" style="fill: none; stroke: #d62728; stroke-width: 1.5; stroke-linecap: square"/>
   </g>
   <g id="line2d_21">
    <path d="M 79.101477 288.133584 
L 82.957163 287.822059 
L 86.041711 287.39749 
L 89.126259 286.745053 
L 91.43967 286.060076 
L 93.753081 285.170555 
L 96.066492 284.046485 
L 98.379903 282.66522 
L 100.693315 281.016204 
L 103.006726 279.10562 
L 106.091274 276.200789 
L 109.946959 272.185077 
L 115.344919 266.570025 
L 117.65833 264.450147 
L 119.971741 262.63679 
L 122.285152 261.19156 
L 123.827426 260.445793 
L 125.3697 259.870184 
L 127.683111 259.290879 
L 129.996522 258.966451 
L 135.394482 258.338522 
L 136.936756 257.932829 
L 138.47903 257.311104 
L 140.021304 256.411722 
L 141.563578 255.177722 
L 143.105852 253.55927 
L 144.648126 251.515917 
L 146.1904 249.018581 
L 147.732675 246.051169 
L 149.274949 242.611799 
L 150.817223 238.713577 
L 153.130634 232.072204 
L 155.444045 224.625094 
L 158.528593 213.848753 
L 163.926553 194.739775 
L 166.239964 187.379911 
L 167.782238 183.02073 
L 169.324512 179.217324 
L 170.866786 176.060578 
L 172.40906 173.629237 
L 173.180197 172.706245 
L 173.951334 171.987352 
L 174.722471 171.47791 
L 175.493608 171.182111 
L 176.264745 171.102939 
L 177.035882 171.242148 
L 177.807019 171.600235 
L 178.578156 172.176436 
L 179.349294 172.968723 
L 180.120431 173.973821 
L 181.662705 176.603254 
L 183.204979 180.014732 
L 184.747253 184.140924 
L 186.289527 188.899437 
L 188.602938 197.013173 
L 191.687486 209.094945 
L 199.398857 240.30277 
L 201.712268 248.686668 
L 204.025679 256.244001 
L 206.33909 262.872558 
L 207.881364 266.754858 
L 209.423638 270.209912 
L 210.965912 273.250311 
L 212.508187 275.896277 
L 214.050461 278.173858 
L 215.592735 280.113175 
L 217.135009 281.746801 
L 218.677283 283.108317 
L 220.219557 284.231089 
L 221.761831 285.147283 
L 224.075242 286.199684 
L 226.388653 286.945957 
L 228.702065 287.462987 
L 231.786613 287.901316 
L 232.55775 287.978052 
L 232.55775 287.978052 
" clip-path="url(#p1c861f983a)" style="fill: none; stroke: #2ca02c; stroke-width: 1.5; stroke-linecap: square"/>
   </g>
   <g id="line2d_22">
    <path d="M 81.633488 288.196648 
L 85.833144 287.920436 
L 89.192868 287.523275 
L 92.552593 286.884389 
L 95.072387 286.188091 
L 97.59218 285.255249 
L 100.111974 284.040591 
L 102.631767 282.504255 
L 105.151561 280.617991 
L 107.671354 278.371845 
L 110.191148 275.780376 
L 112.710942 272.887172 
L 116.070666 268.692486 
L 122.790116 260.151648 
L 125.309909 257.286489 
L 127.829703 254.777326 
L 130.349497 252.685558 
L 132.029359 251.529523 
L 134.549152 250.122683 
L 137.068946 249.023271 
L 143.788396 246.390618 
L 145.468258 245.494179 
L 147.14812 244.392491 
L 148.827983 243.041872 
L 150.507845 241.409731 
L 152.187707 239.476646 
L 153.86757 237.237666 
L 155.547432 234.702779 
L 158.067226 230.403032 
L 160.587019 225.633276 
L 169.826262 207.470154 
L 172.346056 203.331722 
L 174.025918 200.969502 
L 175.705781 198.980166 
L 177.385643 197.403099 
L 179.065505 196.270344 
L 180.745368 195.606735 
L 181.585299 195.456698 
L 182.42523 195.430093 
L 183.265161 195.528079 
L 184.105093 195.751393 
L 184.945024 196.10035 
L 186.624886 197.174326 
L 188.304749 198.743956 
L 189.984611 200.796149 
L 191.664473 203.310575 
L 193.344336 206.259519 
L 195.024198 209.607885 
L 197.543992 215.285095 
L 200.063785 221.594655 
L 203.42351 230.649751 
L 210.982891 251.26508 
L 213.502684 257.520586 
L 216.022478 263.219978 
L 218.542271 268.27528 
L 220.222134 271.264115 
L 221.901996 273.943388 
L 223.581858 276.317537 
L 225.261721 278.397249 
L 226.941583 280.198304 
L 228.621446 281.740361 
L 230.301308 283.045753 
L 231.98117 284.138362 
L 233.661033 285.042604 
L 236.180826 286.098221 
L 238.70062 286.860448 
L 241.220413 287.397135 
L 244.580138 287.859421 
L 248.779794 288.173487 
L 248.779794 288.173487 
" clip-path="url(#p1c861f983a)" style="fill: none; stroke: #1f77b4; stroke-width: 1.5; stroke-linecap: square"/>
   </g>
   <g id="line2d_23">
    <path d="M 123.241121 288.007402 
L 125.031243 287.638271 
L 126.821364 287.011496 
L 128.163956 286.296234 
L 129.506547 285.29863 
L 130.849138 283.945765 
L 132.191729 282.162147 
L 133.534321 279.876318 
L 134.876912 277.029098 
L 136.219503 273.582636 
L 137.562094 269.52902 
L 139.352216 263.234993 
L 141.142338 256.094146 
L 144.275051 242.470679 
L 147.407763 229.051697 
L 149.645416 220.387051 
L 152.330598 211.045421 
L 155.463311 200.337196 
L 157.253433 193.39291 
L 158.596024 187.441902 
L 160.386146 178.310455 
L 162.176267 167.837409 
L 164.86145 150.501726 
L 167.546632 133.584089 
L 168.889223 126.322853 
L 170.231815 120.403593 
L 171.126876 117.370829 
L 172.021936 115.160327 
L 172.469467 114.381529 
L 172.916997 113.827318 
L 173.364528 113.501199 
L 173.812058 113.40533 
L 174.259588 113.540556 
L 174.707119 113.906453 
L 175.154649 114.501389 
L 176.04971 116.366235 
L 176.944771 119.1007 
L 177.839832 122.656179 
L 178.734893 126.972732 
L 180.077484 134.723091 
L 181.420075 143.776491 
L 183.210197 157.410029 
L 185.895379 179.909563 
L 190.370683 217.874482 
L 192.608336 234.936952 
L 194.398457 246.957601 
L 196.188579 257.274955 
L 197.53117 263.833644 
L 198.873761 269.387761 
L 200.216353 273.983433 
L 201.558944 277.696808 
L 202.901535 280.625352 
L 204.244126 282.878571 
L 205.586718 284.569234 
L 206.929309 285.805953 
L 208.2719 286.687665 
L 209.614491 287.300192 
L 211.404613 287.819147 
L 212.299674 287.988058 
L 212.299674 287.988058 
" clip-path="url(#p1c861f983a)" style="fill: none; stroke: #ff9896; stroke-width: 1.5; stroke-linecap: square"/>
   </g>
   <g id="line2d_24">
    <path d="M 97.792023 288.173871 
L 101.285581 287.877354 
L 104.080428 287.45183 
L 106.176563 286.966664 
L 108.272699 286.287435 
L 110.368834 285.358796 
L 112.464969 284.118752 
L 114.561104 282.50126 
L 115.958527 281.180381 
L 117.355951 279.643503 
L 118.753374 277.873602 
L 120.150798 275.856122 
L 122.246933 272.342136 
L 124.343068 268.22661 
L 126.439203 263.51525 
L 128.535338 258.243373 
L 131.330185 250.462205 
L 134.823744 239.884215 
L 141.112149 220.520909 
L 143.906996 212.746225 
L 146.003131 207.582999 
L 148.099266 203.138414 
L 149.496689 200.625392 
L 150.894113 198.498059 
L 152.291536 196.769997 
L 153.68896 195.446893 
L 155.086383 194.526372 
L 156.483807 193.998033 
L 157.88123 193.843701 
L 159.278653 194.03791 
L 160.676077 194.548605 
L 162.0735 195.33808 
L 163.470924 196.364126 
L 165.567059 198.24701 
L 168.361906 201.152598 
L 173.252888 206.357014 
L 176.047734 208.966473 
L 178.14387 210.664351 
L 180.938716 212.626674 
L 186.52841 216.31606 
L 188.624545 218.016277 
L 190.72068 220.104139 
L 192.118104 221.767975 
L 193.515527 223.678283 
L 195.611662 227.034523 
L 197.707797 230.979392 
L 199.803933 235.462642 
L 202.598779 242.098522 
L 211.682032 264.601114 
L 213.778167 269.072807 
L 215.874302 273.040168 
L 217.970437 276.459481 
L 220.066572 279.323727 
L 222.162707 281.656709 
L 224.258842 283.505172 
L 226.354977 284.930302 
L 228.451113 285.999775 
L 230.547248 286.781165 
L 232.643383 287.337129 
L 235.43823 287.821065 
L 236.835653 287.982547 
L 236.835653 287.982547 
" clip-path="url(#p1c861f983a)" style="fill: none; stroke: #e377c2; stroke-width: 1.5; stroke-linecap: square"/>
   </g>
   <g id="patch_3">
    <path d="M 62.86875 288.430125 
L 62.86875 22.318125 
" style="fill: none; stroke: #000000; stroke-width: 0.8; stroke-linejoin: miter; stroke-linecap: square"/>
   </g>
   <g id="patch_4">
    <path d="M 419.98875 288.430125 
L 419.98875 22.318125 
" style="fill: none; stroke: #000000; stroke-width: 0.8; stroke-linejoin: miter; stroke-linecap: square"/>
   </g>
   <g id="patch_5">
    <path d="M 62.86875 288.430125 
L 419.98875 288.430125 
" style="fill: none; stroke: #000000; stroke-width: 0.8; stroke-linejoin: miter; stroke-linecap: square"/>
   </g>
   <g id="patch_6">
    <path d="M 62.86875 22.318125 
L 419.98875 22.318125 
" style="fill: none; stroke: #000000; stroke-width: 0.8; stroke-linejoin: miter; stroke-linecap: square"/>
   </g>
   <g id="text_10">
    <!-- bloaty_fuzz_target (4h:15m, 3 trials/fuzzer) -->
    <g transform="translate(111.649687 16.318125)scale(0.12 -0.12)">
     <defs>
      <path id="DejaVuSans-62" d="M 3116 1747 
Q 3116 2381 2855 2742 
Q 2594 3103 2138 3103 
Q 1681 3103 1420 2742 
Q 1159 2381 1159 1747 
Q 1159 1113 1420 752 
Q 1681 391 2138 391 
Q 2594 391 2855 752 
Q 3116 1113 3116 1747 
z
M 1159 2969 
Q 1341 3281 1617 3432 
Q 1894 3584 2278 3584 
Q 2916 3584 3314 3078 
Q 3713 2572 3713 1747 
Q 3713 922 3314 415 
Q 2916 -91 2278 -91 
Q 1894 -91 1617 61 
Q 1341 213 1159 525 
L 1159 0 
L 581 0 
L 581 4863 
L 1159 4863 
L 1159 2969 
z
" transform="scale(0.015625)"/>
      <path id="DejaVuSans-6c" d="M 603 4863 
L 1178 4863 
L 1178 0 
L 603 0 
L 603 4863 
z
" transform="scale(0.015625)"/>
      <path id="DejaVuSans-5f" d="M 3263 -1063 
L 3263 -1509 
L -63 -1509 
L -63 -1063 
L 3263 -1063 
z
" transform="scale(0.015625)"/>
      <path id="DejaVuSans-66" d="M 2375 4863 
L 2375 4384 
L 1825 4384 
Q 1516 4384 1395 4259 
Q 1275 4134 1275 3809 
L 1275 3500 
L 2222 3500 
L 2222 3053 
L 1275 3053 
L 1275 0 
L 697 0 
L 697 3053 
L 147 3053 
L 147 3500 
L 697 3500 
L 697 3744 
Q 697 4328 969 4595 
Q 1241 4863 1831 4863 
L 2375 4863 
z
" transform="scale(0.015625)"/>
      <path id="DejaVuSans-75" d="M 544 1381 
L 544 3500 
L 1119 3500 
L 1119 1403 
Q 1119 906 1312 657 
Q 1506 409 1894 409 
Q 2359 409 2629 706 
Q 2900 1003 2900 1516 
L 2900 3500 
L 3475 3500 
L 3475 0 
L 2900 0 
L 2900 538 
Q 2691 219 2414 64 
Q 2138 -91 1772 -91 
Q 1169 -91 856 284 
Q 544 659 544 1381 
z
M 1991 3584 
L 1991 3584 
z
" transform="scale(0.015625)"/>
      <path id="DejaVuSans-7a" d="M 353 3500 
L 3084 3500 
L 3084 2975 
L 922 459 
L 3084 459 
L 3084 0 
L 275 0 
L 275 525 
L 2438 3041 
L 353 3041 
L 353 3500 
z
" transform="scale(0.015625)"/>
      <path id="DejaVuSans-28" d="M 1984 4856 
Q 1566 4138 1362 3434 
Q 1159 2731 1159 2009 
Q 1159 1288 1364 580 
Q 1569 -128 1984 -844 
L 1484 -844 
Q 1016 -109 783 600 
Q 550 1309 550 2009 
Q 550 2706 781 3412 
Q 1013 4119 1484 4856 
L 1984 4856 
z
" transform="scale(0.015625)"/>
      <path id="DejaVuSans-34" d="M 2419 4116 
L 825 1625 
L 2419 1625 
L 2419 4116 
z
M 2253 4666 
L 3047 4666 
L 3047 1625 
L 3713 1625 
L 3713 1100 
L 3047 1100 
L 3047 0 
L 2419 0 
L 2419 1100 
L 313 1100 
L 313 1709 
L 2253 4666 
z
" transform="scale(0.015625)"/>
      <path id="DejaVuSans-68" d="M 3513 2113 
L 3513 0 
L 2938 0 
L 2938 2094 
Q 2938 2591 2744 2837 
Q 2550 3084 2163 3084 
Q 1697 3084 1428 2787 
Q 1159 2491 1159 1978 
L 1159 0 
L 581 0 
L 581 4863 
L 1159 4863 
L 1159 2956 
Q 1366 3272 1645 3428 
Q 1925 3584 2291 3584 
Q 2894 3584 3203 3211 
Q 3513 2838 3513 2113 
z
" transform="scale(0.015625)"/>
      <path id="DejaVuSans-3a" d="M 750 794 
L 1409 794 
L 1409 0 
L 750 0 
L 750 794 
z
M 750 3309 
L 1409 3309 
L 1409 2516 
L 750 2516 
L 750 3309 
z
" transform="scale(0.015625)"/>
      <path id="DejaVuSans-6d" d="M 3328 2828 
Q 3544 3216 3844 3400 
Q 4144 3584 4550 3584 
Q 5097 3584 5394 3201 
Q 5691 2819 5691 2113 
L 5691 0 
L 5113 0 
L 5113 2094 
Q 5113 2597 4934 2840 
Q 4756 3084 4391 3084 
Q 3944 3084 3684 2787 
Q 3425 2491 3425 1978 
L 3425 0 
L 2847 0 
L 2847 2094 
Q 2847 2600 2669 2842 
Q 2491 3084 2119 3084 
Q 1678 3084 1418 2786 
Q 1159 2488 1159 1978 
L 1159 0 
L 581 0 
L 581 3500 
L 1159 3500 
L 1159 2956 
Q 1356 3278 1631 3431 
Q 1906 3584 2284 3584 
Q 2666 3584 2933 3390 
Q 3200 3197 3328 2828 
z
" transform="scale(0.015625)"/>
      <path id="DejaVuSans-2c" d="M 750 794 
L 1409 794 
L 1409 256 
L 897 -744 
L 494 -744 
L 750 256 
L 750 794 
z
" transform="scale(0.015625)"/>
      <path id="DejaVuSans-2f" d="M 1625 4666 
L 2156 4666 
L 531 -594 
L 0 -594 
L 1625 4666 
z
" transform="scale(0.015625)"/>
      <path id="DejaVuSans-29" d="M 513 4856 
L 1013 4856 
Q 1481 4119 1714 3412 
Q 1947 2706 1947 2009 
Q 1947 1309 1714 600 
Q 1481 -109 1013 -844 
L 513 -844 
Q 928 -128 1133 580 
Q 1338 1288 1338 2009 
Q 1338 2731 1133 3434 
Q 928 4138 513 4856 
z
" transform="scale(0.015625)"/>
     </defs>
     <use xlink:href="#DejaVuSans-62"/>
     <use xlink:href="#DejaVuSans-6c" x="63.476562"/>
     <use xlink:href="#DejaVuSans-6f" x="91.259766"/>
     <use xlink:href="#DejaVuSans-61" x="152.441406"/>
     <use xlink:href="#DejaVuSans-74" x="213.720703"/>
     <use xlink:href="#DejaVuSans-79" x="252.929688"/>
     <use xlink:href="#DejaVuSans-5f" x="312.109375"/>
     <use xlink:href="#DejaVuSans-66" x="362.109375"/>
     <use xlink:href="#DejaVuSans-75" x="397.314453"/>
     <use xlink:href="#DejaVuSans-7a" x="460.693359"/>
     <use xlink:href="#DejaVuSans-7a" x="513.183594"/>
     <use xlink:href="#DejaVuSans-5f" x="565.673828"/>
     <use xlink:href="#DejaVuSans-74" x="615.673828"/>
     <use xlink:href="#DejaVuSans-61" x="654.882812"/>
     <use xlink:href="#DejaVuSans-72" x="716.162109"/>
     <use xlink:href="#DejaVuSans-67" x="755.525391"/>
     <use xlink:href="#DejaVuSans-65" x="819.001953"/>
     <use xlink:href="#DejaVuSans-74" x="880.525391"/>
     <use xlink:href="#DejaVuSans-20" x="919.734375"/>
     <use xlink:href="#DejaVuSans-28" x="951.521484"/>
     <use xlink:href="#DejaVuSans-34" x="990.535156"/>
     <use xlink:href="#DejaVuSans-68" x="1054.158203"/>
     <use xlink:href="#DejaVuSans-3a" x="1117.537109"/>
     <use xlink:href="#DejaVuSans-31" x="1151.228516"/>
     <use xlink:href="#DejaVuSans-35" x="1214.851562"/>
     <use xlink:href="#DejaVuSans-6d" x="1278.474609"/>
     <use xlink:href="#DejaVuSans-2c" x="1375.886719"/>
     <use xlink:href="#DejaVuSans-20" x="1407.673828"/>
     <use xlink:href="#DejaVuSans-33" x="1439.460938"/>
     <use xlink:href="#DejaVuSans-20" x="1503.083984"/>
     <use xlink:href="#DejaVuSans-74" x="1534.871094"/>
     <use xlink:href="#DejaVuSans-72" x="1574.080078"/>
     <use xlink:href="#DejaVuSans-69" x="1615.193359"/>
     <use xlink:href="#DejaVuSans-61" x="1642.976562"/>
     <use xlink:href="#DejaVuSans-6c" x="1704.255859"/>
     <use xlink:href="#DejaVuSans-73" x="1732.039062"/>
     <use xlink:href="#DejaVuSans-2f" x="1784.138672"/>
     <use xlink:href="#DejaVuSans-66" x="1817.830078"/>
     <use xlink:href="#DejaVuSans-75" x="1853.035156"/>
     <use xlink:href="#DejaVuSans-7a" x="1916.414062"/>
     <use xlink:href="#DejaVuSans-7a" x="1968.904297"/>
     <use xlink:href="#DejaVuSans-65" x="2021.394531"/>
     <use xlink:href="#DejaVuSans-72" x="2082.917969"/>
     <use xlink:href="#DejaVuSans-29" x="2124.03125"/>
    </g>
   </g>
   <g id="legend_1">
    <g id="line2d_25">
     <path d="M 246.82625 35.416562 
L 256.82625 35.416562 
L 266.82625 35.416562 
" style="fill: none; stroke: #dbdb8d; stroke-width: 1.5; stroke-linecap: square"/>
    </g>
    <g id="text_11">
     <!-- aflplusplus_ast_o3_lto -->
     <g transform="translate(274.82625 38.916562)scale(0.1 -0.1)">
      <defs>
       <path id="DejaVuSans-70" d="M 1159 525 
L 1159 -1331 
L 581 -1331 
L 581 3500 
L 1159 3500 
L 1159 2969 
Q 1341 3281 1617 3432 
Q 1894 3584 2278 3584 
Q 2916 3584 3314 3078 
Q 3713 2572 3713 1747 
Q 3713 922 3314 415 
Q 2916 -91 2278 -91 
Q 1894 -91 1617 61 
Q 1341 213 1159 525 
z
M 3116 1747 
Q 3116 2381 2855 2742 
Q 2594 3103 2138 3103 
Q 1681 3103 1420 2742 
Q 1159 2381 1159 1747 
Q 1159 1113 1420 752 
Q 1681 391 2138 391 
Q 2594 391 2855 752 
Q 3116 1113 3116 1747 
z
" transform="scale(0.015625)"/>
      </defs>
      <use xlink:href="#DejaVuSans-61"/>
      <use xlink:href="#DejaVuSans-66" x="61.279297"/>
      <use xlink:href="#DejaVuSans-6c" x="96.484375"/>
      <use xlink:href="#DejaVuSans-70" x="124.267578"/>
      <use xlink:href="#DejaVuSans-6c" x="187.744141"/>
      <use xlink:href="#DejaVuSans-75" x="215.527344"/>
      <use xlink:href="#DejaVuSans-73" x="278.90625"/>
      <use xlink:href="#DejaVuSans-70" x="331.005859"/>
      <use xlink:href="#DejaVuSans-6c" x="394.482422"/>
      <use xlink:href="#DejaVuSans-75" x="422.265625"/>
      <use xlink:href="#DejaVuSans-73" x="485.644531"/>
      <use xlink:href="#DejaVuSans-5f" x="537.744141"/>
      <use xlink:href="#DejaVuSans-61" x="587.744141"/>
      <use xlink:href="#DejaVuSans-73" x="649.023438"/>
      <use xlink:href="#DejaVuSans-74" x="701.123047"/>
      <use xlink:href="#DejaVuSans-5f" x="740.332031"/>
      <use xlink:href="#DejaVuSans-6f" x="790.332031"/>
      <use xlink:href="#DejaVuSans-33" x="851.513672"/>
      <use xlink:href="#DejaVuSans-5f" x="915.136719"/>
      <use xlink:href="#DejaVuSans-6c" x="965.136719"/>
      <use xlink:href="#DejaVuSans-74" x="992.919922"/>
      <use xlink:href="#DejaVuSans-6f" x="1032.128906"/>
     </g>
    </g>
    <g id="line2d_26">
     <path d="M 246.82625 50.372813 
L 256.82625 50.372813 
L 266.82625 50.372813 
" style="fill: none; stroke: #c5b0d5; stroke-width: 1.5; stroke-linecap: square"/>
    </g>
    <g id="text_12">
     <!-- aflplusplus_ast_opt_disable -->
     <g transform="translate(274.82625 53.872813)scale(0.1 -0.1)">
      <use xlink:href="#DejaVuSans-61"/>
      <use xlink:href="#DejaVuSans-66" x="61.279297"/>
      <use xlink:href="#DejaVuSans-6c" x="96.484375"/>
      <use xlink:href="#DejaVuSans-70" x="124.267578"/>
      <use xlink:href="#DejaVuSans-6c" x="187.744141"/>
      <use xlink:href="#DejaVuSans-75" x="215.527344"/>
      <use xlink:href="#DejaVuSans-73" x="278.90625"/>
      <use xlink:href="#DejaVuSans-70" x="331.005859"/>
      <use xlink:href="#DejaVuSans-6c" x="394.482422"/>
      <use xlink:href="#DejaVuSans-75" x="422.265625"/>
      <use xlink:href="#DejaVuSans-73" x="485.644531"/>
      <use xlink:href="#DejaVuSans-5f" x="537.744141"/>
      <use xlink:href="#DejaVuSans-61" x="587.744141"/>
      <use xlink:href="#DejaVuSans-73" x="649.023438"/>
      <use xlink:href="#DejaVuSans-74" x="701.123047"/>
      <use xlink:href="#DejaVuSans-5f" x="740.332031"/>
      <use xlink:href="#DejaVuSans-6f" x="790.332031"/>
      <use xlink:href="#DejaVuSans-70" x="851.513672"/>
      <use xlink:href="#DejaVuSans-74" x="914.990234"/>
      <use xlink:href="#DejaVuSans-5f" x="954.199219"/>
      <use xlink:href="#DejaVuSans-64" x="1004.199219"/>
      <use xlink:href="#DejaVuSans-69" x="1067.675781"/>
      <use xlink:href="#DejaVuSans-73" x="1095.458984"/>
      <use xlink:href="#DejaVuSans-61" x="1147.558594"/>
      <use xlink:href="#DejaVuSans-62" x="1208.837891"/>
      <use xlink:href="#DejaVuSans-6c" x="1272.314453"/>
      <use xlink:href="#DejaVuSans-65" x="1300.097656"/>
     </g>
    </g>
    <g id="line2d_27">
     <path d="M 246.82625 65.329063 
L 256.82625 65.329063 
L 266.82625 65.329063 
" style="fill: none; stroke: #7f7f7f; stroke-width: 1.5; stroke-linecap: square"/>
    </g>
    <g id="text_13">
     <!-- aflplusplus_ast_opt_l1 -->
     <g transform="translate(274.82625 68.829063)scale(0.1 -0.1)">
      <use xlink:href="#DejaVuSans-61"/>
      <use xlink:href="#DejaVuSans-66" x="61.279297"/>
      <use xlink:href="#DejaVuSans-6c" x="96.484375"/>
      <use xlink:href="#DejaVuSans-70" x="124.267578"/>
      <use xlink:href="#DejaVuSans-6c" x="187.744141"/>
      <use xlink:href="#DejaVuSans-75" x="215.527344"/>
      <use xlink:href="#DejaVuSans-73" x="278.90625"/>
      <use xlink:href="#DejaVuSans-70" x="331.005859"/>
      <use xlink:href="#DejaVuSans-6c" x="394.482422"/>
      <use xlink:href="#DejaVuSans-75" x="422.265625"/>
      <use xlink:href="#DejaVuSans-73" x="485.644531"/>
      <use xlink:href="#DejaVuSans-5f" x="537.744141"/>
      <use xlink:href="#DejaVuSans-61" x="587.744141"/>
      <use xlink:href="#DejaVuSans-73" x="649.023438"/>
      <use xlink:href="#DejaVuSans-74" x="701.123047"/>
      <use xlink:href="#DejaVuSans-5f" x="740.332031"/>
      <use xlink:href="#DejaVuSans-6f" x="790.332031"/>
      <use xlink:href="#DejaVuSans-70" x="851.513672"/>
      <use xlink:href="#DejaVuSans-74" x="914.990234"/>
      <use xlink:href="#DejaVuSans-5f" x="954.199219"/>
      <use xlink:href="#DejaVuSans-6c" x="1004.199219"/>
      <use xlink:href="#DejaVuSans-31" x="1031.982422"/>
     </g>
    </g>
    <g id="line2d_28">
     <path d="M 246.82625 80.285313 
L 256.82625 80.285313 
L 266.82625 80.285313 
" style="fill: none; stroke: #c7c7c7; stroke-width: 1.5; stroke-linecap: square"/>
    </g>
    <g id="text_14">
     <!-- aflplusplus_ast_o0_lto -->
     <g transform="translate(274.82625 83.785313)scale(0.1 -0.1)">
      <use xlink:href="#DejaVuSans-61"/>
      <use xlink:href="#DejaVuSans-66" x="61.279297"/>
      <use xlink:href="#DejaVuSans-6c" x="96.484375"/>
      <use xlink:href="#DejaVuSans-70" x="124.267578"/>
      <use xlink:href="#DejaVuSans-6c" x="187.744141"/>
      <use xlink:href="#DejaVuSans-75" x="215.527344"/>
      <use xlink:href="#DejaVuSans-73" x="278.90625"/>
      <use xlink:href="#DejaVuSans-70" x="331.005859"/>
      <use xlink:href="#DejaVuSans-6c" x="394.482422"/>
      <use xlink:href="#DejaVuSans-75" x="422.265625"/>
      <use xlink:href="#DejaVuSans-73" x="485.644531"/>
      <use xlink:href="#DejaVuSans-5f" x="537.744141"/>
      <use xlink:href="#DejaVuSans-61" x="587.744141"/>
      <use xlink:href="#DejaVuSans-73" x="649.023438"/>
      <use xlink:href="#DejaVuSans-74" x="701.123047"/>
      <use xlink:href="#DejaVuSans-5f" x="740.332031"/>
      <use xlink:href="#DejaVuSans-6f" x="790.332031"/>
      <use xlink:href="#DejaVuSans-30" x="851.513672"/>
      <use xlink:href="#DejaVuSans-5f" x="915.136719"/>
      <use xlink:href="#DejaVuSans-6c" x="965.136719"/>
      <use xlink:href="#DejaVuSans-74" x="992.919922"/>
      <use xlink:href="#DejaVuSans-6f" x="1032.128906"/>
     </g>
    </g>
    <g id="line2d_29">
     <path d="M 246.82625 95.241563 
L 256.82625 95.241563 
L 266.82625 95.241563 
" style="fill: none; stroke: #ff7f0e; stroke-width: 1.5; stroke-linecap: square"/>
    </g>
    <g id="text_15">
     <!-- aflplusplus_ast_o1 -->
     <g transform="translate(274.82625 98.741563)scale(0.1 -0.1)">
      <use xlink:href="#DejaVuSans-61"/>
      <use xlink:href="#DejaVuSans-66" x="61.279297"/>
      <use xlink:href="#DejaVuSans-6c" x="96.484375"/>
      <use xlink:href="#DejaVuSans-70" x="124.267578"/>
      <use xlink:href="#DejaVuSans-6c" x="187.744141"/>
      <use xlink:href="#DejaVuSans-75" x="215.527344"/>
      <use xlink:href="#DejaVuSans-73" x="278.90625"/>
      <use xlink:href="#DejaVuSans-70" x="331.005859"/>
      <use xlink:href="#DejaVuSans-6c" x="394.482422"/>
      <use xlink:href="#DejaVuSans-75" x="422.265625"/>
      <use xlink:href="#DejaVuSans-73" x="485.644531"/>
      <use xlink:href="#DejaVuSans-5f" x="537.744141"/>
      <use xlink:href="#DejaVuSans-61" x="587.744141"/>
      <use xlink:href="#DejaVuSans-73" x="649.023438"/>
      <use xlink:href="#DejaVuSans-74" x="701.123047"/>
      <use xlink:href="#DejaVuSans-5f" x="740.332031"/>
      <use xlink:href="#DejaVuSans-6f" x="790.332031"/>
      <use xlink:href="#DejaVuSans-31" x="851.513672"/>
     </g>
    </g>
    <g id="line2d_30">
     <path d="M 246.82625 110.197812 
L 256.82625 110.197812 
L 266.82625 110.197812 
" style="fill: none; stroke: #98df8a; stroke-width: 1.5; stroke-linecap: square"/>
    </g>
    <g id="text_16">
     <!-- aflplusplus_ast_f1 -->
     <g transform="translate(274.82625 113.697812)scale(0.1 -0.1)">
      <use xlink:href="#DejaVuSans-61"/>
      <use xlink:href="#DejaVuSans-66" x="61.279297"/>
      <use xlink:href="#DejaVuSans-6c" x="96.484375"/>
      <use xlink:href="#DejaVuSans-70" x="124.267578"/>
      <use xlink:href="#DejaVuSans-6c" x="187.744141"/>
      <use xlink:href="#DejaVuSans-75" x="215.527344"/>
      <use xlink:href="#DejaVuSans-73" x="278.90625"/>
      <use xlink:href="#DejaVuSans-70" x="331.005859"/>
      <use xlink:href="#DejaVuSans-6c" x="394.482422"/>
      <use xlink:href="#DejaVuSans-75" x="422.265625"/>
      <use xlink:href="#DejaVuSans-73" x="485.644531"/>
      <use xlink:href="#DejaVuSans-5f" x="537.744141"/>
      <use xlink:href="#DejaVuSans-61" x="587.744141"/>
      <use xlink:href="#DejaVuSans-73" x="649.023438"/>
      <use xlink:href="#DejaVuSans-74" x="701.123047"/>
      <use xlink:href="#DejaVuSans-5f" x="740.332031"/>
      <use xlink:href="#DejaVuSans-66" x="790.332031"/>
      <use xlink:href="#DejaVuSans-31" x="825.537109"/>
     </g>
    </g>
    <g id="line2d_31">
     <path d="M 246.82625 125.154063 
L 256.82625 125.154063 
L 266.82625 125.154063 
" style="fill: none; stroke: #d62728; stroke-width: 1.5; stroke-linecap: square"/>
    </g>
    <g id="text_17">
     <!-- aflplusplus_ast_o0 -->
     <g transform="translate(274.82625 128.654063)scale(0.1 -0.1)">
      <use xlink:href="#DejaVuSans-61"/>
      <use xlink:href="#DejaVuSans-66" x="61.279297"/>
      <use xlink:href="#DejaVuSans-6c" x="96.484375"/>
      <use xlink:href="#DejaVuSans-70" x="124.267578"/>
      <use xlink:href="#DejaVuSans-6c" x="187.744141"/>
      <use xlink:href="#DejaVuSans-75" x="215.527344"/>
      <use xlink:href="#DejaVuSans-73" x="278.90625"/>
      <use xlink:href="#DejaVuSans-70" x="331.005859"/>
      <use xlink:href="#DejaVuSans-6c" x="394.482422"/>
      <use xlink:href="#DejaVuSans-75" x="422.265625"/>
      <use xlink:href="#DejaVuSans-73" x="485.644531"/>
      <use xlink:href="#DejaVuSans-5f" x="537.744141"/>
      <use xlink:href="#DejaVuSans-61" x="587.744141"/>
      <use xlink:href="#DejaVuSans-73" x="649.023438"/>
      <use xlink:href="#DejaVuSans-74" x="701.123047"/>
      <use xlink:href="#DejaVuSans-5f" x="740.332031"/>
      <use xlink:href="#DejaVuSans-6f" x="790.332031"/>
      <use xlink:href="#DejaVuSans-30" x="851.513672"/>
     </g>
    </g>
    <g id="line2d_32">
     <path d="M 246.82625 140.110313 
L 256.82625 140.110313 
L 266.82625 140.110313 
" style="fill: none; stroke: #2ca02c; stroke-width: 1.5; stroke-linecap: square"/>
    </g>
    <g id="text_18">
     <!-- aflplusplus_ast_o3_native -->
     <g transform="translate(274.82625 143.610313)scale(0.1 -0.1)">
      <use xlink:href="#DejaVuSans-61"/>
      <use xlink:href="#DejaVuSans-66" x="61.279297"/>
      <use xlink:href="#DejaVuSans-6c" x="96.484375"/>
      <use xlink:href="#DejaVuSans-70" x="124.267578"/>
      <use xlink:href="#DejaVuSans-6c" x="187.744141"/>
      <use xlink:href="#DejaVuSans-75" x="215.527344"/>
      <use xlink:href="#DejaVuSans-73" x="278.90625"/>
      <use xlink:href="#DejaVuSans-70" x="331.005859"/>
      <use xlink:href="#DejaVuSans-6c" x="394.482422"/>
      <use xlink:href="#DejaVuSans-75" x="422.265625"/>
      <use xlink:href="#DejaVuSans-73" x="485.644531"/>
      <use xlink:href="#DejaVuSans-5f" x="537.744141"/>
      <use xlink:href="#DejaVuSans-61" x="587.744141"/>
      <use xlink:href="#DejaVuSans-73" x="649.023438"/>
      <use xlink:href="#DejaVuSans-74" x="701.123047"/>
      <use xlink:href="#DejaVuSans-5f" x="740.332031"/>
      <use xlink:href="#DejaVuSans-6f" x="790.332031"/>
      <use xlink:href="#DejaVuSans-33" x="851.513672"/>
      <use xlink:href="#DejaVuSans-5f" x="915.136719"/>
      <use xlink:href="#DejaVuSans-6e" x="965.136719"/>
      <use xlink:href="#DejaVuSans-61" x="1028.515625"/>
      <use xlink:href="#DejaVuSans-74" x="1089.794922"/>
      <use xlink:href="#DejaVuSans-69" x="1129.003906"/>
      <use xlink:href="#DejaVuSans-76" x="1156.787109"/>
      <use xlink:href="#DejaVuSans-65" x="1215.966797"/>
     </g>
    </g>
    <g id="line2d_33">
     <path d="M 246.82625 155.066563 
L 256.82625 155.066563 
L 266.82625 155.066563 
" style="fill: none; stroke: #1f77b4; stroke-width: 1.5; stroke-linecap: square"/>
    </g>
    <g id="text_19">
     <!-- aflplusplus_ast_f0 -->
     <g transform="translate(274.82625 158.566563)scale(0.1 -0.1)">
      <use xlink:href="#DejaVuSans-61"/>
      <use xlink:href="#DejaVuSans-66" x="61.279297"/>
      <use xlink:href="#DejaVuSans-6c" x="96.484375"/>
      <use xlink:href="#DejaVuSans-70" x="124.267578"/>
      <use xlink:href="#DejaVuSans-6c" x="187.744141"/>
      <use xlink:href="#DejaVuSans-75" x="215.527344"/>
      <use xlink:href="#DejaVuSans-73" x="278.90625"/>
      <use xlink:href="#DejaVuSans-70" x="331.005859"/>
      <use xlink:href="#DejaVuSans-6c" x="394.482422"/>
      <use xlink:href="#DejaVuSans-75" x="422.265625"/>
      <use xlink:href="#DejaVuSans-73" x="485.644531"/>
      <use xlink:href="#DejaVuSans-5f" x="537.744141"/>
      <use xlink:href="#DejaVuSans-61" x="587.744141"/>
      <use xlink:href="#DejaVuSans-73" x="649.023438"/>
      <use xlink:href="#DejaVuSans-74" x="701.123047"/>
      <use xlink:href="#DejaVuSans-5f" x="740.332031"/>
      <use xlink:href="#DejaVuSans-66" x="790.332031"/>
      <use xlink:href="#DejaVuSans-30" x="825.537109"/>
     </g>
    </g>
    <g id="line2d_34">
     <path d="M 246.82625 170.022812 
L 256.82625 170.022812 
L 266.82625 170.022812 
" style="fill: none; stroke: #ff9896; stroke-width: 1.5; stroke-linecap: square"/>
    </g>
    <g id="text_20">
     <!-- aflplusplus_ast_o2 -->
     <g transform="translate(274.82625 173.522812)scale(0.1 -0.1)">
      <use xlink:href="#DejaVuSans-61"/>
      <use xlink:href="#DejaVuSans-66" x="61.279297"/>
      <use xlink:href="#DejaVuSans-6c" x="96.484375"/>
      <use xlink:href="#DejaVuSans-70" x="124.267578"/>
      <use xlink:href="#DejaVuSans-6c" x="187.744141"/>
      <use xlink:href="#DejaVuSans-75" x="215.527344"/>
      <use xlink:href="#DejaVuSans-73" x="278.90625"/>
      <use xlink:href="#DejaVuSans-70" x="331.005859"/>
      <use xlink:href="#DejaVuSans-6c" x="394.482422"/>
      <use xlink:href="#DejaVuSans-75" x="422.265625"/>
      <use xlink:href="#DejaVuSans-73" x="485.644531"/>
      <use xlink:href="#DejaVuSans-5f" x="537.744141"/>
      <use xlink:href="#DejaVuSans-61" x="587.744141"/>
      <use xlink:href="#DejaVuSans-73" x="649.023438"/>
      <use xlink:href="#DejaVuSans-74" x="701.123047"/>
      <use xlink:href="#DejaVuSans-5f" x="740.332031"/>
      <use xlink:href="#DejaVuSans-6f" x="790.332031"/>
      <use xlink:href="#DejaVuSans-32" x="851.513672"/>
     </g>
    </g>
    <g id="line2d_35">
     <path d="M 246.82625 184.979062 
L 256.82625 184.979062 
L 266.82625 184.979062 
" style="fill: none; stroke: #e377c2; stroke-width: 1.5; stroke-linecap: square"/>
    </g>
    <g id="text_21">
     <!-- aflplusplus_ast_o3 -->
     <g transform="translate(274.82625 188.479062)scale(0.1 -0.1)">
      <use xlink:href="#DejaVuSans-61"/>
      <use xlink:href="#DejaVuSans-66" x="61.279297"/>
      <use xlink:href="#DejaVuSans-6c" x="96.484375"/>
      <use xlink:href="#DejaVuSans-70" x="124.267578"/>
      <use xlink:href="#DejaVuSans-6c" x="187.744141"/>
      <use xlink:href="#DejaVuSans-75" x="215.527344"/>
      <use xlink:href="#DejaVuSans-73" x="278.90625"/>
      <use xlink:href="#DejaVuSans-70" x="331.005859"/>
      <use xlink:href="#DejaVuSans-6c" x="394.482422"/>
      <use xlink:href="#DejaVuSans-75" x="422.265625"/>
      <use xlink:href="#DejaVuSans-73" x="485.644531"/>
      <use xlink:href="#DejaVuSans-5f" x="537.744141"/>
      <use xlink:href="#DejaVuSans-61" x="587.744141"/>
      <use xlink:href="#DejaVuSans-73" x="649.023438"/>
      <use xlink:href="#DejaVuSans-74" x="701.123047"/>
      <use xlink:href="#DejaVuSans-5f" x="740.332031"/>
      <use xlink:href="#DejaVuSans-6f" x="790.332031"/>
      <use xlink:href="#DejaVuSans-33" x="851.513672"/>
     </g>
    </g>
   </g>
  </g>
 </g>
 <defs>
  <clipPath id="p1c861f983a">
   <rect x="62.86875" y="22.318125" width="357.12" height="266.112"/>
  </clipPath>
 </defs>
</svg>
