<?xml version="1.0" encoding="utf-8" standalone="no"?>
<!DOCTYPE svg PUBLIC "-//W3C//DTD SVG 1.1//EN"
  "http://www.w3.org/Graphics/SVG/1.1/DTD/svg11.dtd">
<svg xmlns:xlink="http://www.w3.org/1999/xlink" width="427.18875pt" height="316.30825pt" viewBox="0 0 427.18875 316.30825" xmlns="http://www.w3.org/2000/svg" version="1.1">
 <metadata>
  <rdf:RDF xmlns:dc="http://purl.org/dc/elements/1.1/" xmlns:cc="http://creativecommons.org/ns#" xmlns:rdf="http://www.w3.org/1999/02/22-rdf-syntax-ns#">
   <cc:Work>
    <dc:type rdf:resource="http://purl.org/dc/dcmitype/StillImage"/>
    <dc:date>2022-06-05T20:12:20.980160</dc:date>
    <dc:format>image/svg+xml</dc:format>
    <dc:creator>
     <cc:Agent>
      <dc:title>Matplotlib v3.5.1, https://matplotlib.org/</dc:title>
     </cc:Agent>
    </dc:creator>
   </cc:Work>
  </rdf:RDF>
 </metadata>
 <defs>
  <style type="text/css">*{stroke-linejoin: round; stroke-linecap: butt}</style>
 </defs>
 <g id="figure_1">
  <g id="patch_1">
   <path d="M 0 316.30825 
L 427.18875 316.30825 
L 427.18875 0 
L 0 0 
z
" style="fill: #ffffff"/>
  </g>
  <g id="axes_1">
   <g id="patch_2">
    <path d="M 62.86875 288.430125 
L 419.98875 288.430125 
L 419.98875 22.318125 
L 62.86875 22.318125 
z
" style="fill: #ffffff"/>
   </g>
   <g id="matplotlib.axis_1">
    <g id="xtick_1">
     <g id="line2d_1">
      <defs>
       <path id="mf61fd472a7" d="M 0 0 
L 0 3.5 
" style="stroke: #000000; stroke-width: 0.8"/>
      </defs>
      <g>
       <use xlink:href="#mf61fd472a7" x="102.525539" y="288.430125" style="stroke: #000000; stroke-width: 0.8"/>
      </g>
     </g>
    </g>
    <g id="xtick_2">
     <g id="line2d_2">
      <g>
       <use xlink:href="#mf61fd472a7" x="164.130245" y="288.430125" style="stroke: #000000; stroke-width: 0.8"/>
      </g>
     </g>
    </g>
    <g id="xtick_3">
     <g id="line2d_3">
      <g>
       <use xlink:href="#mf61fd472a7" x="225.734951" y="288.430125" style="stroke: #000000; stroke-width: 0.8"/>
      </g>
     </g>
    </g>
    <g id="xtick_4">
     <g id="line2d_4">
      <g>
       <use xlink:href="#mf61fd472a7" x="287.339657" y="288.430125" style="stroke: #000000; stroke-width: 0.8"/>
      </g>
     </g>
    </g>
    <g id="xtick_5">
     <g id="line2d_5">
      <g>
       <use xlink:href="#mf61fd472a7" x="348.944363" y="288.430125" style="stroke: #000000; stroke-width: 0.8"/>
      </g>
     </g>
    </g>
    <g id="xtick_6">
     <g id="line2d_6">
      <g>
       <use xlink:href="#mf61fd472a7" x="410.549069" y="288.430125" style="stroke: #000000; stroke-width: 0.8"/>
      </g>
     </g>
    </g>
    <g id="text_1">
     <!-- Code region coverage -->
     <g transform="translate(186.423281 307.028562)scale(0.1 -0.1)">
      <defs>
       <path id="DejaVuSans-43" d="M 4122 4306 
L 4122 3641 
Q 3803 3938 3442 4084 
Q 3081 4231 2675 4231 
Q 1875 4231 1450 3742 
Q 1025 3253 1025 2328 
Q 1025 1406 1450 917 
Q 1875 428 2675 428 
Q 3081 428 3442 575 
Q 3803 722 4122 1019 
L 4122 359 
Q 3791 134 3420 21 
Q 3050 -91 2638 -91 
Q 1578 -91 968 557 
Q 359 1206 359 2328 
Q 359 3453 968 4101 
Q 1578 4750 2638 4750 
Q 3056 4750 3426 4639 
Q 3797 4528 4122 4306 
z
" transform="scale(0.015625)"/>
       <path id="DejaVuSans-6f" d="M 1959 3097 
Q 1497 3097 1228 2736 
Q 959 2375 959 1747 
Q 959 1119 1226 758 
Q 1494 397 1959 397 
Q 2419 397 2687 759 
Q 2956 1122 2956 1747 
Q 2956 2369 2687 2733 
Q 2419 3097 1959 3097 
z
M 1959 3584 
Q 2709 3584 3137 3096 
Q 3566 2609 3566 1747 
Q 3566 888 3137 398 
Q 2709 -91 1959 -91 
Q 1206 -91 779 398 
Q 353 888 353 1747 
Q 353 2609 779 3096 
Q 1206 3584 1959 3584 
z
" transform="scale(0.015625)"/>
       <path id="DejaVuSans-64" d="M 2906 2969 
L 2906 4863 
L 3481 4863 
L 3481 0 
L 2906 0 
L 2906 525 
Q 2725 213 2448 61 
Q 2172 -91 1784 -91 
Q 1150 -91 751 415 
Q 353 922 353 1747 
Q 353 2572 751 3078 
Q 1150 3584 1784 3584 
Q 2172 3584 2448 3432 
Q 2725 3281 2906 2969 
z
M 947 1747 
Q 947 1113 1208 752 
Q 1469 391 1925 391 
Q 2381 391 2643 752 
Q 2906 1113 2906 1747 
Q 2906 2381 2643 2742 
Q 2381 3103 1925 3103 
Q 1469 3103 1208 2742 
Q 947 2381 947 1747 
z
" transform="scale(0.015625)"/>
       <path id="DejaVuSans-65" d="M 3597 1894 
L 3597 1613 
L 953 1613 
Q 991 1019 1311 708 
Q 1631 397 2203 397 
Q 2534 397 2845 478 
Q 3156 559 3463 722 
L 3463 178 
Q 3153 47 2828 -22 
Q 2503 -91 2169 -91 
Q 1331 -91 842 396 
Q 353 884 353 1716 
Q 353 2575 817 3079 
Q 1281 3584 2069 3584 
Q 2775 3584 3186 3129 
Q 3597 2675 3597 1894 
z
M 3022 2063 
Q 3016 2534 2758 2815 
Q 2500 3097 2075 3097 
Q 1594 3097 1305 2825 
Q 1016 2553 972 2059 
L 3022 2063 
z
" transform="scale(0.015625)"/>
       <path id="DejaVuSans-20" transform="scale(0.015625)"/>
       <path id="DejaVuSans-72" d="M 2631 2963 
Q 2534 3019 2420 3045 
Q 2306 3072 2169 3072 
Q 1681 3072 1420 2755 
Q 1159 2438 1159 1844 
L 1159 0 
L 581 0 
L 581 3500 
L 1159 3500 
L 1159 2956 
Q 1341 3275 1631 3429 
Q 1922 3584 2338 3584 
Q 2397 3584 2469 3576 
Q 2541 3569 2628 3553 
L 2631 2963 
z
" transform="scale(0.015625)"/>
       <path id="DejaVuSans-67" d="M 2906 1791 
Q 2906 2416 2648 2759 
Q 2391 3103 1925 3103 
Q 1463 3103 1205 2759 
Q 947 2416 947 1791 
Q 947 1169 1205 825 
Q 1463 481 1925 481 
Q 2391 481 2648 825 
Q 2906 1169 2906 1791 
z
M 3481 434 
Q 3481 -459 3084 -895 
Q 2688 -1331 1869 -1331 
Q 1566 -1331 1297 -1286 
Q 1028 -1241 775 -1147 
L 775 -588 
Q 1028 -725 1275 -790 
Q 1522 -856 1778 -856 
Q 2344 -856 2625 -561 
Q 2906 -266 2906 331 
L 2906 616 
Q 2728 306 2450 153 
Q 2172 0 1784 0 
Q 1141 0 747 490 
Q 353 981 353 1791 
Q 353 2603 747 3093 
Q 1141 3584 1784 3584 
Q 2172 3584 2450 3431 
Q 2728 3278 2906 2969 
L 2906 3500 
L 3481 3500 
L 3481 434 
z
" transform="scale(0.015625)"/>
       <path id="DejaVuSans-69" d="M 603 3500 
L 1178 3500 
L 1178 0 
L 603 0 
L 603 3500 
z
M 603 4863 
L 1178 4863 
L 1178 4134 
L 603 4134 
L 603 4863 
z
" transform="scale(0.015625)"/>
       <path id="DejaVuSans-6e" d="M 3513 2113 
L 3513 0 
L 2938 0 
L 2938 2094 
Q 2938 2591 2744 2837 
Q 2550 3084 2163 3084 
Q 1697 3084 1428 2787 
Q 1159 2491 1159 1978 
L 1159 0 
L 581 0 
L 581 3500 
L 1159 3500 
L 1159 2956 
Q 1366 3272 1645 3428 
Q 1925 3584 2291 3584 
Q 2894 3584 3203 3211 
Q 3513 2838 3513 2113 
z
" transform="scale(0.015625)"/>
       <path id="DejaVuSans-63" d="M 3122 3366 
L 3122 2828 
Q 2878 2963 2633 3030 
Q 2388 3097 2138 3097 
Q 1578 3097 1268 2742 
Q 959 2388 959 1747 
Q 959 1106 1268 751 
Q 1578 397 2138 397 
Q 2388 397 2633 464 
Q 2878 531 3122 666 
L 3122 134 
Q 2881 22 2623 -34 
Q 2366 -91 2075 -91 
Q 1284 -91 818 406 
Q 353 903 353 1747 
Q 353 2603 823 3093 
Q 1294 3584 2113 3584 
Q 2378 3584 2631 3529 
Q 2884 3475 3122 3366 
z
" transform="scale(0.015625)"/>
       <path id="DejaVuSans-76" d="M 191 3500 
L 800 3500 
L 1894 563 
L 2988 3500 
L 3597 3500 
L 2284 0 
L 1503 0 
L 191 3500 
z
" transform="scale(0.015625)"/>
       <path id="DejaVuSans-61" d="M 2194 1759 
Q 1497 1759 1228 1600 
Q 959 1441 959 1056 
Q 959 750 1161 570 
Q 1363 391 1709 391 
Q 2188 391 2477 730 
Q 2766 1069 2766 1631 
L 2766 1759 
L 2194 1759 
z
M 3341 1997 
L 3341 0 
L 2766 0 
L 2766 531 
Q 2569 213 2275 61 
Q 1981 -91 1556 -91 
Q 1019 -91 701 211 
Q 384 513 384 1019 
Q 384 1609 779 1909 
Q 1175 2209 1959 2209 
L 2766 2209 
L 2766 2266 
Q 2766 2663 2505 2880 
Q 2244 3097 1772 3097 
Q 1472 3097 1187 3025 
Q 903 2953 641 2809 
L 641 3341 
Q 956 3463 1253 3523 
Q 1550 3584 1831 3584 
Q 2591 3584 2966 3190 
Q 3341 2797 3341 1997 
z
" transform="scale(0.015625)"/>
      </defs>
      <use xlink:href="#DejaVuSans-43"/>
      <use xlink:href="#DejaVuSans-6f" x="69.824219"/>
      <use xlink:href="#DejaVuSans-64" x="131.005859"/>
      <use xlink:href="#DejaVuSans-65" x="194.482422"/>
      <use xlink:href="#DejaVuSans-20" x="256.005859"/>
      <use xlink:href="#DejaVuSans-72" x="287.792969"/>
      <use xlink:href="#DejaVuSans-65" x="326.65625"/>
      <use xlink:href="#DejaVuSans-67" x="388.179688"/>
      <use xlink:href="#DejaVuSans-69" x="451.65625"/>
      <use xlink:href="#DejaVuSans-6f" x="479.439453"/>
      <use xlink:href="#DejaVuSans-6e" x="540.621094"/>
      <use xlink:href="#DejaVuSans-20" x="604"/>
      <use xlink:href="#DejaVuSans-63" x="635.787109"/>
      <use xlink:href="#DejaVuSans-6f" x="690.767578"/>
      <use xlink:href="#DejaVuSans-76" x="751.949219"/>
      <use xlink:href="#DejaVuSans-65" x="811.128906"/>
      <use xlink:href="#DejaVuSans-72" x="872.652344"/>
      <use xlink:href="#DejaVuSans-61" x="913.765625"/>
      <use xlink:href="#DejaVuSans-67" x="975.044922"/>
      <use xlink:href="#DejaVuSans-65" x="1038.521484"/>
     </g>
    </g>
   </g>
   <g id="matplotlib.axis_2">
    <g id="ytick_1">
     <g id="line2d_7">
      <defs>
       <path id="m8281331461" d="M 0 0 
L -3.5 0 
" style="stroke: #000000; stroke-width: 0.8"/>
      </defs>
      <g>
       <use xlink:href="#m8281331461" x="62.86875" y="288.430125" style="stroke: #000000; stroke-width: 0.8"/>
      </g>
     </g>
     <g id="text_2">
      <!-- 0.0000 -->
      <g transform="translate(20.878125 292.229344)scale(0.1 -0.1)">
       <defs>
        <path id="DejaVuSans-30" d="M 2034 4250 
Q 1547 4250 1301 3770 
Q 1056 3291 1056 2328 
Q 1056 1369 1301 889 
Q 1547 409 2034 409 
Q 2525 409 2770 889 
Q 3016 1369 3016 2328 
Q 3016 3291 2770 3770 
Q 2525 4250 2034 4250 
z
M 2034 4750 
Q 2819 4750 3233 4129 
Q 3647 3509 3647 2328 
Q 3647 1150 3233 529 
Q 2819 -91 2034 -91 
Q 1250 -91 836 529 
Q 422 1150 422 2328 
Q 422 3509 836 4129 
Q 1250 4750 2034 4750 
z
" transform="scale(0.015625)"/>
        <path id="DejaVuSans-2e" d="M 684 794 
L 1344 794 
L 1344 0 
L 684 0 
L 684 794 
z
" transform="scale(0.015625)"/>
       </defs>
       <use xlink:href="#DejaVuSans-30"/>
       <use xlink:href="#DejaVuSans-2e" x="63.623047"/>
       <use xlink:href="#DejaVuSans-30" x="95.410156"/>
       <use xlink:href="#DejaVuSans-30" x="159.033203"/>
       <use xlink:href="#DejaVuSans-30" x="222.65625"/>
       <use xlink:href="#DejaVuSans-30" x="286.279297"/>
      </g>
     </g>
    </g>
    <g id="ytick_2">
     <g id="line2d_8">
      <g>
       <use xlink:href="#m8281331461" x="62.86875" y="250.029342" style="stroke: #000000; stroke-width: 0.8"/>
      </g>
     </g>
     <g id="text_3">
      <!-- 0.0001 -->
      <g transform="translate(20.878125 253.828561)scale(0.1 -0.1)">
       <defs>
        <path id="DejaVuSans-31" d="M 794 531 
L 1825 531 
L 1825 4091 
L 703 3866 
L 703 4441 
L 1819 4666 
L 2450 4666 
L 2450 531 
L 3481 531 
L 3481 0 
L 794 0 
L 794 531 
z
" transform="scale(0.015625)"/>
       </defs>
       <use xlink:href="#DejaVuSans-30"/>
       <use xlink:href="#DejaVuSans-2e" x="63.623047"/>
       <use xlink:href="#DejaVuSans-30" x="95.410156"/>
       <use xlink:href="#DejaVuSans-30" x="159.033203"/>
       <use xlink:href="#DejaVuSans-30" x="222.65625"/>
       <use xlink:href="#DejaVuSans-31" x="286.279297"/>
      </g>
     </g>
    </g>
    <g id="ytick_3">
     <g id="line2d_9">
      <g>
       <use xlink:href="#m8281331461" x="62.86875" y="211.628559" style="stroke: #000000; stroke-width: 0.8"/>
      </g>
     </g>
     <g id="text_4">
      <!-- 0.0002 -->
      <g transform="translate(20.878125 215.427778)scale(0.1 -0.1)">
       <defs>
        <path id="DejaVuSans-32" d="M 1228 531 
L 3431 531 
L 3431 0 
L 469 0 
L 469 531 
Q 828 903 1448 1529 
Q 2069 2156 2228 2338 
Q 2531 2678 2651 2914 
Q 2772 3150 2772 3378 
Q 2772 3750 2511 3984 
Q 2250 4219 1831 4219 
Q 1534 4219 1204 4116 
Q 875 4013 500 3803 
L 500 4441 
Q 881 4594 1212 4672 
Q 1544 4750 1819 4750 
Q 2544 4750 2975 4387 
Q 3406 4025 3406 3419 
Q 3406 3131 3298 2873 
Q 3191 2616 2906 2266 
Q 2828 2175 2409 1742 
Q 1991 1309 1228 531 
z
" transform="scale(0.015625)"/>
       </defs>
       <use xlink:href="#DejaVuSans-30"/>
       <use xlink:href="#DejaVuSans-2e" x="63.623047"/>
       <use xlink:href="#DejaVuSans-30" x="95.410156"/>
       <use xlink:href="#DejaVuSans-30" x="159.033203"/>
       <use xlink:href="#DejaVuSans-30" x="222.65625"/>
       <use xlink:href="#DejaVuSans-32" x="286.279297"/>
      </g>
     </g>
    </g>
    <g id="ytick_4">
     <g id="line2d_10">
      <g>
       <use xlink:href="#m8281331461" x="62.86875" y="173.227776" style="stroke: #000000; stroke-width: 0.8"/>
      </g>
     </g>
     <g id="text_5">
      <!-- 0.0003 -->
      <g transform="translate(20.878125 177.026995)scale(0.1 -0.1)">
       <defs>
        <path id="DejaVuSans-33" d="M 2597 2516 
Q 3050 2419 3304 2112 
Q 3559 1806 3559 1356 
Q 3559 666 3084 287 
Q 2609 -91 1734 -91 
Q 1441 -91 1130 -33 
Q 819 25 488 141 
L 488 750 
Q 750 597 1062 519 
Q 1375 441 1716 441 
Q 2309 441 2620 675 
Q 2931 909 2931 1356 
Q 2931 1769 2642 2001 
Q 2353 2234 1838 2234 
L 1294 2234 
L 1294 2753 
L 1863 2753 
Q 2328 2753 2575 2939 
Q 2822 3125 2822 3475 
Q 2822 3834 2567 4026 
Q 2313 4219 1838 4219 
Q 1578 4219 1281 4162 
Q 984 4106 628 3988 
L 628 4550 
Q 988 4650 1302 4700 
Q 1616 4750 1894 4750 
Q 2613 4750 3031 4423 
Q 3450 4097 3450 3541 
Q 3450 3153 3228 2886 
Q 3006 2619 2597 2516 
z
" transform="scale(0.015625)"/>
       </defs>
       <use xlink:href="#DejaVuSans-30"/>
       <use xlink:href="#DejaVuSans-2e" x="63.623047"/>
       <use xlink:href="#DejaVuSans-30" x="95.410156"/>
       <use xlink:href="#DejaVuSans-30" x="159.033203"/>
       <use xlink:href="#DejaVuSans-30" x="222.65625"/>
       <use xlink:href="#DejaVuSans-33" x="286.279297"/>
      </g>
     </g>
    </g>
    <g id="ytick_5">
     <g id="line2d_11">
      <g>
       <use xlink:href="#m8281331461" x="62.86875" y="134.826993" style="stroke: #000000; stroke-width: 0.8"/>
      </g>
     </g>
     <g id="text_6">
      <!-- 0.0004 -->
      <g transform="translate(20.878125 138.626212)scale(0.1 -0.1)">
       <defs>
        <path id="DejaVuSans-34" d="M 2419 4116 
L 825 1625 
L 2419 1625 
L 2419 4116 
z
M 2253 4666 
L 3047 4666 
L 3047 1625 
L 3713 1625 
L 3713 1100 
L 3047 1100 
L 3047 0 
L 2419 0 
L 2419 1100 
L 313 1100 
L 313 1709 
L 2253 4666 
z
" transform="scale(0.015625)"/>
       </defs>
       <use xlink:href="#DejaVuSans-30"/>
       <use xlink:href="#DejaVuSans-2e" x="63.623047"/>
       <use xlink:href="#DejaVuSans-30" x="95.410156"/>
       <use xlink:href="#DejaVuSans-30" x="159.033203"/>
       <use xlink:href="#DejaVuSans-30" x="222.65625"/>
       <use xlink:href="#DejaVuSans-34" x="286.279297"/>
      </g>
     </g>
    </g>
    <g id="ytick_6">
     <g id="line2d_12">
      <g>
       <use xlink:href="#m8281331461" x="62.86875" y="96.42621" style="stroke: #000000; stroke-width: 0.8"/>
      </g>
     </g>
     <g id="text_7">
      <!-- 0.0005 -->
      <g transform="translate(20.878125 100.225429)scale(0.1 -0.1)">
       <defs>
        <path id="DejaVuSans-35" d="M 691 4666 
L 3169 4666 
L 3169 4134 
L 1269 4134 
L 1269 2991 
Q 1406 3038 1543 3061 
Q 1681 3084 1819 3084 
Q 2600 3084 3056 2656 
Q 3513 2228 3513 1497 
Q 3513 744 3044 326 
Q 2575 -91 1722 -91 
Q 1428 -91 1123 -41 
Q 819 9 494 109 
L 494 744 
Q 775 591 1075 516 
Q 1375 441 1709 441 
Q 2250 441 2565 725 
Q 2881 1009 2881 1497 
Q 2881 1984 2565 2268 
Q 2250 2553 1709 2553 
Q 1456 2553 1204 2497 
Q 953 2441 691 2322 
L 691 4666 
z
" transform="scale(0.015625)"/>
       </defs>
       <use xlink:href="#DejaVuSans-30"/>
       <use xlink:href="#DejaVuSans-2e" x="63.623047"/>
       <use xlink:href="#DejaVuSans-30" x="95.410156"/>
       <use xlink:href="#DejaVuSans-30" x="159.033203"/>
       <use xlink:href="#DejaVuSans-30" x="222.65625"/>
       <use xlink:href="#DejaVuSans-35" x="286.279297"/>
      </g>
     </g>
    </g>
    <g id="ytick_7">
     <g id="line2d_13">
      <g>
       <use xlink:href="#m8281331461" x="62.86875" y="58.025428" style="stroke: #000000; stroke-width: 0.8"/>
      </g>
     </g>
     <g id="text_8">
      <!-- 0.0006 -->
      <g transform="translate(20.878125 61.824646)scale(0.1 -0.1)">
       <defs>
        <path id="DejaVuSans-36" d="M 2113 2584 
Q 1688 2584 1439 2293 
Q 1191 2003 1191 1497 
Q 1191 994 1439 701 
Q 1688 409 2113 409 
Q 2538 409 2786 701 
Q 3034 994 3034 1497 
Q 3034 2003 2786 2293 
Q 2538 2584 2113 2584 
z
M 3366 4563 
L 3366 3988 
Q 3128 4100 2886 4159 
Q 2644 4219 2406 4219 
Q 1781 4219 1451 3797 
Q 1122 3375 1075 2522 
Q 1259 2794 1537 2939 
Q 1816 3084 2150 3084 
Q 2853 3084 3261 2657 
Q 3669 2231 3669 1497 
Q 3669 778 3244 343 
Q 2819 -91 2113 -91 
Q 1303 -91 875 529 
Q 447 1150 447 2328 
Q 447 3434 972 4092 
Q 1497 4750 2381 4750 
Q 2619 4750 2861 4703 
Q 3103 4656 3366 4563 
z
" transform="scale(0.015625)"/>
       </defs>
       <use xlink:href="#DejaVuSans-30"/>
       <use xlink:href="#DejaVuSans-2e" x="63.623047"/>
       <use xlink:href="#DejaVuSans-30" x="95.410156"/>
       <use xlink:href="#DejaVuSans-30" x="159.033203"/>
       <use xlink:href="#DejaVuSans-30" x="222.65625"/>
       <use xlink:href="#DejaVuSans-36" x="286.279297"/>
      </g>
     </g>
    </g>
    <g id="text_9">
     <!-- Density -->
     <g transform="translate(14.798438 174.382719)rotate(-90)scale(0.1 -0.1)">
      <defs>
       <path id="DejaVuSans-44" d="M 1259 4147 
L 1259 519 
L 2022 519 
Q 2988 519 3436 956 
Q 3884 1394 3884 2338 
Q 3884 3275 3436 3711 
Q 2988 4147 2022 4147 
L 1259 4147 
z
M 628 4666 
L 1925 4666 
Q 3281 4666 3915 4102 
Q 4550 3538 4550 2338 
Q 4550 1131 3912 565 
Q 3275 0 1925 0 
L 628 0 
L 628 4666 
z
" transform="scale(0.015625)"/>
       <path id="DejaVuSans-73" d="M 2834 3397 
L 2834 2853 
Q 2591 2978 2328 3040 
Q 2066 3103 1784 3103 
Q 1356 3103 1142 2972 
Q 928 2841 928 2578 
Q 928 2378 1081 2264 
Q 1234 2150 1697 2047 
L 1894 2003 
Q 2506 1872 2764 1633 
Q 3022 1394 3022 966 
Q 3022 478 2636 193 
Q 2250 -91 1575 -91 
Q 1294 -91 989 -36 
Q 684 19 347 128 
L 347 722 
Q 666 556 975 473 
Q 1284 391 1588 391 
Q 1994 391 2212 530 
Q 2431 669 2431 922 
Q 2431 1156 2273 1281 
Q 2116 1406 1581 1522 
L 1381 1569 
Q 847 1681 609 1914 
Q 372 2147 372 2553 
Q 372 3047 722 3315 
Q 1072 3584 1716 3584 
Q 2034 3584 2315 3537 
Q 2597 3491 2834 3397 
z
" transform="scale(0.015625)"/>
       <path id="DejaVuSans-74" d="M 1172 4494 
L 1172 3500 
L 2356 3500 
L 2356 3053 
L 1172 3053 
L 1172 1153 
Q 1172 725 1289 603 
Q 1406 481 1766 481 
L 2356 481 
L 2356 0 
L 1766 0 
Q 1100 0 847 248 
Q 594 497 594 1153 
L 594 3053 
L 172 3053 
L 172 3500 
L 594 3500 
L 594 4494 
L 1172 4494 
z
" transform="scale(0.015625)"/>
       <path id="DejaVuSans-79" d="M 2059 -325 
Q 1816 -950 1584 -1140 
Q 1353 -1331 966 -1331 
L 506 -1331 
L 506 -850 
L 844 -850 
Q 1081 -850 1212 -737 
Q 1344 -625 1503 -206 
L 1606 56 
L 191 3500 
L 800 3500 
L 1894 763 
L 2988 3500 
L 3597 3500 
L 2059 -325 
z
" transform="scale(0.015625)"/>
      </defs>
      <use xlink:href="#DejaVuSans-44"/>
      <use xlink:href="#DejaVuSans-65" x="77.001953"/>
      <use xlink:href="#DejaVuSans-6e" x="138.525391"/>
      <use xlink:href="#DejaVuSans-73" x="201.904297"/>
      <use xlink:href="#DejaVuSans-69" x="254.003906"/>
      <use xlink:href="#DejaVuSans-74" x="281.787109"/>
      <use xlink:href="#DejaVuSans-79" x="320.996094"/>
     </g>
    </g>
   </g>
   <g id="line2d_14">
    <path d="M 159.405958 287.599535 
L 161.886437 287.089401 
L 164.366915 286.31807 
L 166.020568 285.609006 
L 167.67422 284.702225 
L 169.327873 283.556548 
L 170.981525 282.12654 
L 172.635178 280.363353 
L 174.28883 278.215981 
L 175.942483 275.632978 
L 177.596135 272.564619 
L 179.249788 268.965471 
L 180.90344 264.797284 
L 182.557093 260.032065 
L 184.210745 254.655174 
L 185.864398 248.668218 
L 188.344876 238.593897 
L 190.825355 227.353265 
L 194.13266 211.020209 
L 201.574096 173.324497 
L 204.054575 162.109093 
L 205.708227 155.372365 
L 207.36188 149.334082 
L 209.015532 144.056559 
L 210.669185 139.573808 
L 212.322837 135.891005 
L 213.97649 132.985813 
L 215.630142 130.811505 
L 217.283795 129.301632 
L 218.110621 128.771128 
L 218.937447 128.37589 
L 220.5911 127.9467 
L 222.244752 127.925995 
L 223.898405 128.231654 
L 225.552057 128.793084 
L 227.20571 129.555525 
L 229.686188 131.002225 
L 232.166667 132.783664 
L 234.647146 134.947349 
L 236.300798 136.655118 
L 237.954451 138.62222 
L 239.608103 140.889717 
L 241.261756 143.493682 
L 242.915408 146.460744 
L 244.569061 149.804591 
L 246.222713 153.523689 
L 248.703192 159.762939 
L 251.183671 166.678997 
L 254.490976 176.623445 
L 261.932412 199.420763 
L 265.239717 208.720613 
L 268.547022 217.203316 
L 271.854327 224.91164 
L 275.161632 232.022501 
L 280.122589 242.041695 
L 286.737199 254.84867 
L 290.87133 262.425378 
L 294.178635 268.001947 
L 296.659114 271.782666 
L 299.139593 275.151608 
L 301.620071 278.072337 
L 304.10055 280.534107 
L 306.581029 282.550602 
L 309.061507 284.155608 
L 311.541986 285.39693 
L 314.022465 286.329879 
L 316.502944 287.011366 
L 319.810249 287.621122 
L 323.117553 287.988889 
L 323.94438 288.053577 
L 323.94438 288.053577 
" clip-path="url(#p7a6e9bee6a)" style="fill: none; stroke: #ff7f0e; stroke-width: 1.5; stroke-linecap: square"/>
   </g>
   <g id="line2d_15">
    <path d="M 79.101477 287.820632 
L 85.627197 287.386417 
L 92.152916 286.700622 
L 97.047206 285.958016 
L 101.941496 284.961209 
L 106.835785 283.651496 
L 110.098645 282.574256 
L 113.361505 281.312749 
L 116.624364 279.850054 
L 119.887224 278.171093 
L 123.150084 276.263529 
L 126.412944 274.118724 
L 129.675803 271.732705 
L 132.938663 269.107093 
L 136.201523 266.249927 
L 139.464383 263.17634 
L 144.358672 258.211876 
L 149.252962 252.922179 
L 163.935831 236.700953 
L 167.198691 233.38909 
L 170.46155 230.311674 
L 173.72441 227.522607 
L 176.98727 225.069166 
L 180.25013 222.989881 
L 183.512989 221.312708 
L 186.775849 220.053577 
L 190.038709 219.215447 
L 193.301569 218.787916 
L 196.564428 218.747424 
L 199.827288 219.05808 
L 203.090148 219.673055 
L 206.353008 220.536511 
L 211.247297 222.159728 
L 224.298736 226.835358 
L 227.561596 227.756274 
L 230.824456 228.485274 
L 234.087316 228.994992 
L 237.350175 229.27088 
L 240.613035 229.311572 
L 243.875895 229.128661 
L 247.138755 228.745919 
L 252.033044 227.875501 
L 260.190194 226.034613 
L 265.084483 225.002377 
L 268.347343 224.464232 
L 271.610203 224.108968 
L 274.873062 223.984352 
L 278.135922 224.130753 
L 281.398782 224.579757 
L 284.661642 225.353189 
L 287.924501 226.462572 
L 291.187361 227.909003 
L 294.450221 229.683462 
L 297.713081 231.767483 
L 300.97594 234.134173 
L 304.2388 236.749483 
L 309.13309 241.050566 
L 314.02738 245.67124 
L 330.341678 261.405169 
L 335.235968 265.707194 
L 340.130258 269.641731 
L 343.393117 272.032774 
L 346.655977 274.226844 
L 349.918837 276.219956 
L 353.181697 278.012698 
L 356.444556 279.60962 
L 359.707416 281.018568 
L 362.970276 282.249991 
L 367.864565 283.791715 
L 372.758855 285.008773 
L 377.653145 285.950119 
L 382.547434 286.66366 
L 389.073154 287.336753 
L 395.598873 287.774274 
L 403.756023 288.098913 
L 403.756023 288.098913 
" clip-path="url(#p7a6e9bee6a)" style="fill: none; stroke: #2ca02c; stroke-width: 1.5; stroke-linecap: square"/>
   </g>
   <g id="line2d_16">
    <path d="M 146.388071 287.935465 
L 149.672005 287.476869 
L 152.134955 286.915351 
L 154.597906 286.081619 
L 156.239873 285.326728 
L 157.88184 284.373473 
L 159.523807 283.18448 
L 161.165774 281.719733 
L 162.807741 279.937682 
L 164.449708 277.796719 
L 166.091675 275.257034 
L 167.733642 272.282788 
L 169.375609 268.844539 
L 171.017576 264.921791 
L 172.659543 260.505511 
L 174.30151 255.600419 
L 176.764461 247.375328 
L 179.227411 238.240127 
L 182.511345 225.044011 
L 189.079213 198.051652 
L 191.542164 188.799785 
L 194.005114 180.484047 
L 195.647081 175.547986 
L 197.289048 171.124017 
L 198.931015 167.205091 
L 200.572982 163.758965 
L 202.214949 160.730922 
L 203.856916 158.048178 
L 206.319867 154.483862 
L 214.529702 143.255549 
L 217.813636 138.134646 
L 222.739537 130.367754 
L 224.381504 128.106362 
L 226.023471 126.193333 
L 227.665438 124.743218 
L 228.486422 124.225708 
L 229.307405 123.863152 
L 230.128389 123.666705 
L 230.949372 123.646284 
L 231.770356 123.810424 
L 232.591339 124.166155 
L 233.412323 124.718897 
L 234.233306 125.472389 
L 235.05429 126.428641 
L 235.875273 127.587911 
L 237.51724 130.50785 
L 239.159207 134.200141 
L 240.801174 138.607721 
L 242.443141 143.652144 
L 244.906092 152.201591 
L 247.369042 161.605299 
L 258.862812 206.934724 
L 262.146746 218.348149 
L 265.43068 228.799459 
L 268.714614 238.360708 
L 271.998548 247.109706 
L 275.282482 255.073474 
L 277.745432 260.511239 
L 280.208383 265.456829 
L 282.671333 269.876821 
L 285.134284 273.745794 
L 287.597235 277.05427 
L 289.239202 278.952946 
L 290.881169 280.615123 
L 292.523136 282.05281 
L 294.165103 283.281129 
L 295.80707 284.317571 
L 298.27002 285.554318 
L 300.732971 286.468857 
L 303.195921 287.12603 
L 306.479855 287.702835 
L 309.763789 288.042717 
L 309.763789 288.042717 
" clip-path="url(#p7a6e9bee6a)" style="fill: none; stroke: #ff9896; stroke-width: 1.5; stroke-linecap: square"/>
   </g>
   <g id="line2d_17">
    <path d="M 152.213408 287.770475 
L 154.330301 287.36155 
L 156.447194 286.74173 
L 158.564087 285.827806 
L 159.97535 285.0052 
L 161.386612 283.971645 
L 162.797874 282.689139 
L 164.209136 281.117538 
L 165.620398 279.21578 
L 167.03166 276.94346 
L 168.442922 274.262718 
L 169.854184 271.140373 
L 171.265446 267.550195 
L 172.676709 263.475188 
L 174.793602 256.444802 
L 176.910495 248.351454 
L 179.027388 239.306373 
L 181.849912 226.093438 
L 191.023116 181.492419 
L 193.140009 172.413215 
L 195.256902 164.141282 
L 197.373796 156.696566 
L 199.490689 150.022782 
L 201.607582 144.008407 
L 204.430106 136.775663 
L 207.25263 130.163662 
L 210.780786 122.500468 
L 213.60331 116.867504 
L 215.720203 113.060433 
L 217.837096 109.763344 
L 219.248358 107.928606 
L 220.659621 106.442862 
L 222.070883 105.354826 
L 223.482145 104.709857 
L 224.187776 104.566361 
L 224.893407 104.548284 
L 225.599038 104.659661 
L 226.304669 104.904066 
L 227.0103 105.284581 
L 227.715931 105.803785 
L 229.127193 107.265949 
L 230.538455 109.300576 
L 231.949717 111.909036 
L 233.36098 115.084115 
L 234.772242 118.810303 
L 236.183504 123.064265 
L 238.300397 130.3663 
L 240.41729 138.656966 
L 242.534183 147.782777 
L 245.356708 160.953964 
L 249.590494 181.994378 
L 255.941173 213.665251 
L 258.763698 226.808128 
L 261.586222 238.917197 
L 263.703115 247.16565 
L 265.820008 254.609007 
L 267.936901 261.195569 
L 270.053795 266.904302 
L 272.170688 271.745372 
L 273.58195 274.509062 
L 274.993212 276.922087 
L 276.404474 279.006527 
L 277.815736 280.787618 
L 279.226998 282.292752 
L 280.63826 283.550492 
L 282.049523 284.589638 
L 284.166416 285.799855 
L 286.283309 286.670573 
L 288.400202 287.280795 
L 291.222726 287.802778 
L 292.633988 287.974118 
L 292.633988 287.974118 
" clip-path="url(#p7a6e9bee6a)" style="fill: none; stroke: #e377c2; stroke-width: 1.5; stroke-linecap: square"/>
   </g>
   <g id="line2d_18">
    <path d="M 142.403226 288.052848 
L 145.98109 287.700889 
L 148.664488 287.272144 
L 151.347885 286.64022 
L 154.031283 285.736018 
L 155.820215 284.942841 
L 157.609147 283.967562 
L 159.398079 282.783568 
L 161.18701 281.364126 
L 162.975942 279.683243 
L 164.764874 277.716551 
L 166.553806 275.442152 
L 168.342738 272.841336 
L 170.131669 269.899111 
L 171.920601 266.60448 
L 173.709533 262.95043 
L 175.498465 258.93367 
L 178.181863 252.229035 
L 180.86526 244.718955 
L 183.548658 236.422866 
L 186.232056 227.36816 
L 188.915454 217.59384 
L 192.493317 203.550916 
L 196.965647 184.750863 
L 204.121374 154.146482 
L 206.804772 143.569156 
L 208.593703 137.109073 
L 210.382635 131.262509 
L 212.171567 126.141134 
L 213.960499 121.842975 
L 215.749431 118.447625 
L 216.643897 117.107384 
L 217.538363 116.012481 
L 218.432828 115.166218 
L 219.327294 114.570284 
L 220.22176 114.224761 
L 221.116226 114.128146 
L 222.010692 114.277407 
L 222.905158 114.668048 
L 223.799624 115.294196 
L 224.69409 116.148704 
L 225.588556 117.223267 
L 226.483022 118.508539 
L 228.271953 121.669433 
L 230.060885 125.540903 
L 231.849817 130.024339 
L 233.638749 135.016997 
L 236.322147 143.235267 
L 239.90001 155.036298 
L 247.055737 178.981074 
L 250.633601 190.086579 
L 253.316999 197.762524 
L 256.000397 204.812523 
L 258.683794 211.237943 
L 261.367192 217.092718 
L 264.05059 222.474164 
L 267.628453 229.132132 
L 282.834374 256.201094 
L 287.306703 263.95251 
L 289.990101 268.266277 
L 292.673499 272.202772 
L 295.356896 275.685873 
L 298.040294 278.671439 
L 299.829226 280.3791 
L 301.618158 281.865398 
L 303.40709 283.140501 
L 305.196021 284.21877 
L 307.879419 285.505646 
L 310.562817 286.454421 
L 313.246215 287.131924 
L 315.929612 287.600597 
L 319.507476 287.993099 
L 320.401942 288.060701 
L 320.401942 288.060701 
" clip-path="url(#p7a6e9bee6a)" style="fill: none; stroke: #98df8a; stroke-width: 1.5; stroke-linecap: square"/>
   </g>
   <g id="line2d_19">
    <path d="M 148.309717 287.657914 
L 150.222045 287.179188 
L 152.134374 286.452746 
L 153.40926 285.783025 
L 154.684145 284.924548 
L 155.959031 283.837336 
L 157.233917 282.477035 
L 158.508803 280.795623 
L 159.783688 278.742498 
L 161.058574 276.265987 
L 162.33346 273.315251 
L 163.608346 269.842553 
L 164.883231 265.805816 
L 166.158117 261.171333 
L 167.433003 255.916483 
L 169.345331 246.855597 
L 171.25766 236.420097 
L 173.169988 224.736964 
L 175.71976 207.604905 
L 180.18186 175.493952 
L 183.369074 153.08562 
L 185.918846 136.660396 
L 187.831174 125.573954 
L 189.743503 115.678844 
L 191.655832 107.010113 
L 193.56816 99.545313 
L 195.480489 93.234246 
L 196.755374 89.643892 
L 198.03026 86.537922 
L 199.305146 83.91775 
L 200.580032 81.794411 
L 201.854917 80.188274 
L 203.129803 79.127369 
L 203.767246 78.811538 
L 204.404689 78.644476 
L 205.042132 78.630387 
L 205.679574 78.773248 
L 206.317017 79.076667 
L 206.95446 79.543737 
L 207.591903 80.176896 
L 208.866789 81.947184 
L 210.141675 84.389305 
L 211.41656 87.48777 
L 212.691446 91.208243 
L 213.966332 95.497513 
L 215.87866 102.839726 
L 218.428432 113.855918 
L 226.715189 151.126173 
L 229.902403 163.980782 
L 238.826603 198.927807 
L 242.651261 215.425618 
L 249.025689 243.29648 
L 251.575461 253.317898 
L 253.487789 260.036586 
L 255.400118 265.955404 
L 257.312446 271.026244 
L 259.224775 275.251276 
L 260.499661 277.618729 
L 261.774546 279.65105 
L 263.049432 281.374429 
L 264.324318 282.818092 
L 265.599204 284.012812 
L 266.874089 284.989598 
L 268.786418 286.11168 
L 270.698747 286.904863 
L 272.611075 287.450641 
L 275.160847 287.907606 
L 275.160847 287.907606 
" clip-path="url(#p7a6e9bee6a)" style="fill: none; stroke: #1f77b4; stroke-width: 1.5; stroke-linecap: square"/>
   </g>
   <g id="line2d_20">
    <path d="M 131.882248 287.575878 
L 133.987581 287.090626 
L 136.092914 286.371755 
L 137.496469 285.719616 
L 138.900024 284.892573 
L 140.303579 283.85408 
L 141.707134 282.563011 
L 143.110689 280.973926 
L 144.514244 279.03762 
L 145.9178 276.701985 
L 147.321355 273.913231 
L 148.72491 270.617461 
L 150.128465 266.762628 
L 151.53202 262.300813 
L 152.935575 257.190796 
L 154.33913 251.400816 
L 155.742685 244.911423 
L 157.848018 233.861209 
L 159.953351 221.294008 
L 162.058683 207.376765 
L 164.865794 187.220354 
L 171.883569 135.582658 
L 173.988902 122.083347 
L 175.392457 114.144519 
L 176.796012 107.236355 
L 178.199567 101.491754 
L 179.603123 97.01731 
L 180.3049 95.281443 
L 181.006678 93.889041 
L 181.708455 92.844304 
L 182.410233 92.149184 
L 183.11201 91.803356 
L 183.813788 91.804207 
L 184.515565 92.146844 
L 185.217343 92.824125 
L 185.919121 93.826711 
L 186.620898 95.14314 
L 187.322676 96.759911 
L 188.726231 100.830969 
L 190.129786 105.895705 
L 191.533341 111.785942 
L 193.638674 121.757258 
L 200.656449 156.690051 
L 202.060005 162.589103 
L 203.46356 167.77923 
L 204.867115 172.167042 
L 206.27067 175.692994 
L 207.674225 178.333062 
L 208.376003 179.323222 
L 209.07778 180.099149 
L 209.779558 180.667797 
L 210.481335 181.038178 
L 211.183113 181.221265 
L 211.88489 181.229867 
L 212.586668 181.078498 
L 213.288446 180.783217 
L 214.692001 179.831832 
L 216.095556 178.528222 
L 220.306221 174.173141 
L 221.709776 173.128047 
L 222.411554 172.768022 
L 223.113331 172.538316 
L 223.815109 172.453576 
L 224.516887 172.526815 
L 225.218664 172.769293 
L 225.920442 173.190423 
L 226.622219 173.7977 
L 227.323997 174.59665 
L 228.025774 175.590811 
L 229.42933 178.168998 
L 230.832885 181.521393 
L 232.23644 185.607758 
L 233.639995 190.361668 
L 235.745328 198.546101 
L 238.552438 210.843822 
L 245.570213 242.629987 
L 247.675546 251.05334 
L 249.780879 258.561292 
L 251.886212 265.058385 
L 253.289767 268.815309 
L 254.693322 272.122083 
L 256.096877 274.998127 
L 257.500432 277.470437 
L 258.903987 279.571375 
L 260.307542 281.336604 
L 261.711097 282.803278 
L 263.114653 284.008507 
L 264.518208 284.988137 
L 266.62354 286.107468 
L 268.728873 286.895651 
L 270.834206 287.437622 
L 271.535983 287.575824 
L 271.535983 287.575824 
" clip-path="url(#p7a6e9bee6a)" style="fill: none; stroke: #d62728; stroke-width: 1.5; stroke-linecap: square"/>
   </g>
   <g id="line2d_21">
    <path d="M 105.398097 287.227946 
L 107.586372 286.628543 
L 109.774648 285.778509 
L 111.233498 285.033321 
L 112.692349 284.113362 
L 114.151199 282.987893 
L 115.61005 281.623524 
L 117.0689 279.984701 
L 118.52775 278.03441 
L 119.986601 275.735115 
L 121.445451 273.049929 
L 122.904301 269.944014 
L 124.363152 266.386182 
L 125.822002 262.350657 
L 127.280852 257.81894 
L 129.469128 250.073515 
L 131.657404 241.209635 
L 133.845679 231.310682 
L 136.76338 216.786034 
L 141.139931 193.426613 
L 144.787057 174.31858 
L 146.975332 163.839406 
L 149.163608 154.572291 
L 150.622458 149.231629 
L 152.081309 144.652134 
L 153.540159 140.889047 
L 154.999009 137.974255 
L 155.728435 136.838111 
L 156.45786 135.914599 
L 157.187285 135.200556 
L 157.91671 134.691232 
L 158.646135 134.380332 
L 159.375561 134.260075 
L 160.104986 134.321268 
L 160.834411 134.553398 
L 161.563836 134.944734 
L 163.022687 136.152759 
L 164.481537 137.832034 
L 165.940387 139.858587 
L 168.858088 144.435446 
L 171.775789 148.877477 
L 173.234639 150.773454 
L 174.693489 152.338928 
L 176.15234 153.514889 
L 177.61119 154.266035 
L 179.070041 154.581766 
L 180.528891 154.476137 
L 181.987741 153.986782 
L 183.446592 153.172901 
L 184.905442 152.112417 
L 190.740844 147.40692 
L 192.199694 146.665723 
L 193.658544 146.314083 
L 194.387969 146.31403 
L 195.117395 146.44534 
L 195.84682 146.717445 
L 196.576245 147.138718 
L 197.30567 147.716396 
L 198.035095 148.456521 
L 199.493946 150.442055 
L 200.952796 153.118354 
L 202.411646 156.48772 
L 203.870497 160.532076 
L 205.329347 165.214086 
L 207.517623 173.308689 
L 209.705898 182.465968 
L 212.623599 195.807992 
L 219.917851 230.06693 
L 222.835552 242.359237 
L 225.023827 250.605505 
L 227.212103 257.904687 
L 229.400378 264.21813 
L 230.859229 267.883505 
L 232.318079 271.129098 
L 233.776929 273.975317 
L 235.23578 276.447556 
L 236.69463 278.574736 
L 238.153481 280.387947 
L 239.612331 281.919236 
L 241.071181 283.200569 
L 242.530032 284.262974 
L 244.718307 285.509906 
L 246.906583 286.420158 
L 249.094858 287.071377 
L 250.553709 287.393989 
L 250.553709 287.393989 
" clip-path="url(#p7a6e9bee6a)" style="fill: none; stroke: #7f7f7f; stroke-width: 1.5; stroke-linecap: square"/>
   </g>
   <g id="line2d_22">
    <path d="M 111.029963 287.146989 
L 113.106478 286.414006 
L 114.490822 285.737027 
L 115.875165 284.866227 
L 117.259509 283.757653 
L 118.643852 282.360973 
L 120.028195 280.619572 
L 121.412539 278.471003 
L 122.796882 275.847829 
L 124.181226 272.678937 
L 125.565569 268.891364 
L 126.949913 264.412626 
L 128.334256 259.173565 
L 129.7186 253.111638 
L 131.102943 246.174565 
L 132.487287 238.324193 
L 133.87163 229.54041 
L 135.948145 214.62505 
L 138.02466 197.73382 
L 140.101176 179.126838 
L 143.562034 145.49312 
L 148.407236 97.888306 
L 150.483751 79.460267 
L 152.560267 63.389441 
L 153.94461 54.353374 
L 155.328954 46.88321 
L 156.713297 41.135203 
L 157.405469 38.945667 
L 158.09764 37.227958 
L 158.789812 35.990335 
L 159.481984 35.23826 
L 160.174156 34.974353 
L 160.866327 35.198369 
L 161.558499 35.9072 
L 162.250671 37.094901 
L 162.942843 38.752744 
L 163.635014 40.869294 
L 164.327186 43.430503 
L 165.711529 49.818388 
L 167.095873 57.75681 
L 168.480216 67.053938 
L 170.556732 83.065124 
L 173.325418 106.994352 
L 178.862792 156.260739 
L 180.939307 172.920302 
L 183.015823 187.690447 
L 184.400166 196.304903 
L 185.78451 203.855993 
L 187.168853 210.316365 
L 188.553196 215.69227 
L 189.93754 220.021446 
L 191.321883 223.370112 
L 192.706227 225.829177 
L 194.09057 227.509807 
L 194.782742 228.097288 
L 196.167085 228.850853 
L 197.551429 229.15956 
L 198.935772 229.16517 
L 203.780974 228.716224 
L 205.165318 228.921571 
L 206.549661 229.432004 
L 207.934005 230.299948 
L 209.318348 231.556203 
L 210.702692 233.210475 
L 212.087035 235.252794 
L 213.471379 237.655701 
L 215.547894 241.840764 
L 217.624409 246.552847 
L 226.622641 267.821675 
L 228.699157 271.918093 
L 230.775672 275.487048 
L 232.852187 278.50488 
L 234.928702 280.984492 
L 237.005217 282.966109 
L 239.081733 284.50758 
L 241.158248 285.675474 
L 243.234763 286.537755 
L 245.311278 287.158424 
L 248.079965 287.706773 
L 248.772137 287.805765 
L 248.772137 287.805765 
" clip-path="url(#p7a6e9bee6a)" style="fill: none; stroke: #c5b0d5; stroke-width: 1.5; stroke-linecap: square"/>
   </g>
   <g id="patch_3">
    <path d="M 62.86875 288.430125 
L 62.86875 22.318125 
" style="fill: none; stroke: #000000; stroke-width: 0.8; stroke-linejoin: miter; stroke-linecap: square"/>
   </g>
   <g id="patch_4">
    <path d="M 419.98875 288.430125 
L 419.98875 22.318125 
" style="fill: none; stroke: #000000; stroke-width: 0.8; stroke-linejoin: miter; stroke-linecap: square"/>
   </g>
   <g id="patch_5">
    <path d="M 62.86875 288.430125 
L 419.98875 288.430125 
" style="fill: none; stroke: #000000; stroke-width: 0.8; stroke-linejoin: miter; stroke-linecap: square"/>
   </g>
   <g id="patch_6">
    <path d="M 62.86875 22.318125 
L 419.98875 22.318125 
" style="fill: none; stroke: #000000; stroke-width: 0.8; stroke-linejoin: miter; stroke-linecap: square"/>
   </g>
   <g id="text_10">
    <!-- freetype2-2017 (4h:15m, 6 trials/fuzzer) -->
    <g transform="translate(120.349688 16.318125)scale(0.12 -0.12)">
     <defs>
      <path id="DejaVuSans-66" d="M 2375 4863 
L 2375 4384 
L 1825 4384 
Q 1516 4384 1395 4259 
Q 1275 4134 1275 3809 
L 1275 3500 
L 2222 3500 
L 2222 3053 
L 1275 3053 
L 1275 0 
L 697 0 
L 697 3053 
L 147 3053 
L 147 3500 
L 697 3500 
L 697 3744 
Q 697 4328 969 4595 
Q 1241 4863 1831 4863 
L 2375 4863 
z
" transform="scale(0.015625)"/>
      <path id="DejaVuSans-70" d="M 1159 525 
L 1159 -1331 
L 581 -1331 
L 581 3500 
L 1159 3500 
L 1159 2969 
Q 1341 3281 1617 3432 
Q 1894 3584 2278 3584 
Q 2916 3584 3314 3078 
Q 3713 2572 3713 1747 
Q 3713 922 3314 415 
Q 2916 -91 2278 -91 
Q 1894 -91 1617 61 
Q 1341 213 1159 525 
z
M 3116 1747 
Q 3116 2381 2855 2742 
Q 2594 3103 2138 3103 
Q 1681 3103 1420 2742 
Q 1159 2381 1159 1747 
Q 1159 1113 1420 752 
Q 1681 391 2138 391 
Q 2594 391 2855 752 
Q 3116 1113 3116 1747 
z
" transform="scale(0.015625)"/>
      <path id="DejaVuSans-2d" d="M 313 2009 
L 1997 2009 
L 1997 1497 
L 313 1497 
L 313 2009 
z
" transform="scale(0.015625)"/>
      <path id="DejaVuSans-37" d="M 525 4666 
L 3525 4666 
L 3525 4397 
L 1831 0 
L 1172 0 
L 2766 4134 
L 525 4134 
L 525 4666 
z
" transform="scale(0.015625)"/>
      <path id="DejaVuSans-28" d="M 1984 4856 
Q 1566 4138 1362 3434 
Q 1159 2731 1159 2009 
Q 1159 1288 1364 580 
Q 1569 -128 1984 -844 
L 1484 -844 
Q 1016 -109 783 600 
Q 550 1309 550 2009 
Q 550 2706 781 3412 
Q 1013 4119 1484 4856 
L 1984 4856 
z
" transform="scale(0.015625)"/>
      <path id="DejaVuSans-68" d="M 3513 2113 
L 3513 0 
L 2938 0 
L 2938 2094 
Q 2938 2591 2744 2837 
Q 2550 3084 2163 3084 
Q 1697 3084 1428 2787 
Q 1159 2491 1159 1978 
L 1159 0 
L 581 0 
L 581 4863 
L 1159 4863 
L 1159 2956 
Q 1366 3272 1645 3428 
Q 1925 3584 2291 3584 
Q 2894 3584 3203 3211 
Q 3513 2838 3513 2113 
z
" transform="scale(0.015625)"/>
      <path id="DejaVuSans-3a" d="M 750 794 
L 1409 794 
L 1409 0 
L 750 0 
L 750 794 
z
M 750 3309 
L 1409 3309 
L 1409 2516 
L 750 2516 
L 750 3309 
z
" transform="scale(0.015625)"/>
      <path id="DejaVuSans-6d" d="M 3328 2828 
Q 3544 3216 3844 3400 
Q 4144 3584 4550 3584 
Q 5097 3584 5394 3201 
Q 5691 2819 5691 2113 
L 5691 0 
L 5113 0 
L 5113 2094 
Q 5113 2597 4934 2840 
Q 4756 3084 4391 3084 
Q 3944 3084 3684 2787 
Q 3425 2491 3425 1978 
L 3425 0 
L 2847 0 
L 2847 2094 
Q 2847 2600 2669 2842 
Q 2491 3084 2119 3084 
Q 1678 3084 1418 2786 
Q 1159 2488 1159 1978 
L 1159 0 
L 581 0 
L 581 3500 
L 1159 3500 
L 1159 2956 
Q 1356 3278 1631 3431 
Q 1906 3584 2284 3584 
Q 2666 3584 2933 3390 
Q 3200 3197 3328 2828 
z
" transform="scale(0.015625)"/>
      <path id="DejaVuSans-2c" d="M 750 794 
L 1409 794 
L 1409 256 
L 897 -744 
L 494 -744 
L 750 256 
L 750 794 
z
" transform="scale(0.015625)"/>
      <path id="DejaVuSans-6c" d="M 603 4863 
L 1178 4863 
L 1178 0 
L 603 0 
L 603 4863 
z
" transform="scale(0.015625)"/>
      <path id="DejaVuSans-2f" d="M 1625 4666 
L 2156 4666 
L 531 -594 
L 0 -594 
L 1625 4666 
z
" transform="scale(0.015625)"/>
      <path id="DejaVuSans-75" d="M 544 1381 
L 544 3500 
L 1119 3500 
L 1119 1403 
Q 1119 906 1312 657 
Q 1506 409 1894 409 
Q 2359 409 2629 706 
Q 2900 1003 2900 1516 
L 2900 3500 
L 3475 3500 
L 3475 0 
L 2900 0 
L 2900 538 
Q 2691 219 2414 64 
Q 2138 -91 1772 -91 
Q 1169 -91 856 284 
Q 544 659 544 1381 
z
M 1991 3584 
L 1991 3584 
z
" transform="scale(0.015625)"/>
      <path id="DejaVuSans-7a" d="M 353 3500 
L 3084 3500 
L 3084 2975 
L 922 459 
L 3084 459 
L 3084 0 
L 275 0 
L 275 525 
L 2438 3041 
L 353 3041 
L 353 3500 
z
" transform="scale(0.015625)"/>
      <path id="DejaVuSans-29" d="M 513 4856 
L 1013 4856 
Q 1481 4119 1714 3412 
Q 1947 2706 1947 2009 
Q 1947 1309 1714 600 
Q 1481 -109 1013 -844 
L 513 -844 
Q 928 -128 1133 580 
Q 1338 1288 1338 2009 
Q 1338 2731 1133 3434 
Q 928 4138 513 4856 
z
" transform="scale(0.015625)"/>
     </defs>
     <use xlink:href="#DejaVuSans-66"/>
     <use xlink:href="#DejaVuSans-72" x="35.205078"/>
     <use xlink:href="#DejaVuSans-65" x="74.068359"/>
     <use xlink:href="#DejaVuSans-65" x="135.591797"/>
     <use xlink:href="#DejaVuSans-74" x="197.115234"/>
     <use xlink:href="#DejaVuSans-79" x="236.324219"/>
     <use xlink:href="#DejaVuSans-70" x="295.503906"/>
     <use xlink:href="#DejaVuSans-65" x="358.980469"/>
     <use xlink:href="#DejaVuSans-32" x="420.503906"/>
     <use xlink:href="#DejaVuSans-2d" x="484.126953"/>
     <use xlink:href="#DejaVuSans-32" x="520.210938"/>
     <use xlink:href="#DejaVuSans-30" x="583.833984"/>
     <use xlink:href="#DejaVuSans-31" x="647.457031"/>
     <use xlink:href="#DejaVuSans-37" x="711.080078"/>
     <use xlink:href="#DejaVuSans-20" x="774.703125"/>
     <use xlink:href="#DejaVuSans-28" x="806.490234"/>
     <use xlink:href="#DejaVuSans-34" x="845.503906"/>
     <use xlink:href="#DejaVuSans-68" x="909.126953"/>
     <use xlink:href="#DejaVuSans-3a" x="972.505859"/>
     <use xlink:href="#DejaVuSans-31" x="1006.197266"/>
     <use xlink:href="#DejaVuSans-35" x="1069.820312"/>
     <use xlink:href="#DejaVuSans-6d" x="1133.443359"/>
     <use xlink:href="#DejaVuSans-2c" x="1230.855469"/>
     <use xlink:href="#DejaVuSans-20" x="1262.642578"/>
     <use xlink:href="#DejaVuSans-36" x="1294.429688"/>
     <use xlink:href="#DejaVuSans-20" x="1358.052734"/>
     <use xlink:href="#DejaVuSans-74" x="1389.839844"/>
     <use xlink:href="#DejaVuSans-72" x="1429.048828"/>
     <use xlink:href="#DejaVuSans-69" x="1470.162109"/>
     <use xlink:href="#DejaVuSans-61" x="1497.945312"/>
     <use xlink:href="#DejaVuSans-6c" x="1559.224609"/>
     <use xlink:href="#DejaVuSans-73" x="1587.007812"/>
     <use xlink:href="#DejaVuSans-2f" x="1639.107422"/>
     <use xlink:href="#DejaVuSans-66" x="1672.798828"/>
     <use xlink:href="#DejaVuSans-75" x="1708.003906"/>
     <use xlink:href="#DejaVuSans-7a" x="1771.382812"/>
     <use xlink:href="#DejaVuSans-7a" x="1823.873047"/>
     <use xlink:href="#DejaVuSans-65" x="1876.363281"/>
     <use xlink:href="#DejaVuSans-72" x="1937.886719"/>
     <use xlink:href="#DejaVuSans-29" x="1979"/>
    </g>
   </g>
   <g id="legend_1">
    <g id="line2d_23">
     <path d="M 246.82625 35.416562 
L 256.82625 35.416562 
L 266.82625 35.416562 
" style="fill: none; stroke: #ff7f0e; stroke-width: 1.5; stroke-linecap: square"/>
    </g>
    <g id="text_11">
     <!-- aflplusplus_ast_o1 -->
     <g transform="translate(274.82625 38.916562)scale(0.1 -0.1)">
      <defs>
       <path id="DejaVuSans-5f" d="M 3263 -1063 
L 3263 -1509 
L -63 -1509 
L -63 -1063 
L 3263 -1063 
z
" transform="scale(0.015625)"/>
      </defs>
      <use xlink:href="#DejaVuSans-61"/>
      <use xlink:href="#DejaVuSans-66" x="61.279297"/>
      <use xlink:href="#DejaVuSans-6c" x="96.484375"/>
      <use xlink:href="#DejaVuSans-70" x="124.267578"/>
      <use xlink:href="#DejaVuSans-6c" x="187.744141"/>
      <use xlink:href="#DejaVuSans-75" x="215.527344"/>
      <use xlink:href="#DejaVuSans-73" x="278.90625"/>
      <use xlink:href="#DejaVuSans-70" x="331.005859"/>
      <use xlink:href="#DejaVuSans-6c" x="394.482422"/>
      <use xlink:href="#DejaVuSans-75" x="422.265625"/>
      <use xlink:href="#DejaVuSans-73" x="485.644531"/>
      <use xlink:href="#DejaVuSans-5f" x="537.744141"/>
      <use xlink:href="#DejaVuSans-61" x="587.744141"/>
      <use xlink:href="#DejaVuSans-73" x="649.023438"/>
      <use xlink:href="#DejaVuSans-74" x="701.123047"/>
      <use xlink:href="#DejaVuSans-5f" x="740.332031"/>
      <use xlink:href="#DejaVuSans-6f" x="790.332031"/>
      <use xlink:href="#DejaVuSans-31" x="851.513672"/>
     </g>
    </g>
    <g id="line2d_24">
     <path d="M 246.82625 50.372813 
L 256.82625 50.372813 
L 266.82625 50.372813 
" style="fill: none; stroke: #2ca02c; stroke-width: 1.5; stroke-linecap: square"/>
    </g>
    <g id="text_12">
     <!-- aflplusplus_ast_o3_native -->
     <g transform="translate(274.82625 53.872813)scale(0.1 -0.1)">
      <use xlink:href="#DejaVuSans-61"/>
      <use xlink:href="#DejaVuSans-66" x="61.279297"/>
      <use xlink:href="#DejaVuSans-6c" x="96.484375"/>
      <use xlink:href="#DejaVuSans-70" x="124.267578"/>
      <use xlink:href="#DejaVuSans-6c" x="187.744141"/>
      <use xlink:href="#DejaVuSans-75" x="215.527344"/>
      <use xlink:href="#DejaVuSans-73" x="278.90625"/>
      <use xlink:href="#DejaVuSans-70" x="331.005859"/>
      <use xlink:href="#DejaVuSans-6c" x="394.482422"/>
      <use xlink:href="#DejaVuSans-75" x="422.265625"/>
      <use xlink:href="#DejaVuSans-73" x="485.644531"/>
      <use xlink:href="#DejaVuSans-5f" x="537.744141"/>
      <use xlink:href="#DejaVuSans-61" x="587.744141"/>
      <use xlink:href="#DejaVuSans-73" x="649.023438"/>
      <use xlink:href="#DejaVuSans-74" x="701.123047"/>
      <use xlink:href="#DejaVuSans-5f" x="740.332031"/>
      <use xlink:href="#DejaVuSans-6f" x="790.332031"/>
      <use xlink:href="#DejaVuSans-33" x="851.513672"/>
      <use xlink:href="#DejaVuSans-5f" x="915.136719"/>
      <use xlink:href="#DejaVuSans-6e" x="965.136719"/>
      <use xlink:href="#DejaVuSans-61" x="1028.515625"/>
      <use xlink:href="#DejaVuSans-74" x="1089.794922"/>
      <use xlink:href="#DejaVuSans-69" x="1129.003906"/>
      <use xlink:href="#DejaVuSans-76" x="1156.787109"/>
      <use xlink:href="#DejaVuSans-65" x="1215.966797"/>
     </g>
    </g>
    <g id="line2d_25">
     <path d="M 246.82625 65.329063 
L 256.82625 65.329063 
L 266.82625 65.329063 
" style="fill: none; stroke: #ff9896; stroke-width: 1.5; stroke-linecap: square"/>
    </g>
    <g id="text_13">
     <!-- aflplusplus_ast_o2 -->
     <g transform="translate(274.82625 68.829063)scale(0.1 -0.1)">
      <use xlink:href="#DejaVuSans-61"/>
      <use xlink:href="#DejaVuSans-66" x="61.279297"/>
      <use xlink:href="#DejaVuSans-6c" x="96.484375"/>
      <use xlink:href="#DejaVuSans-70" x="124.267578"/>
      <use xlink:href="#DejaVuSans-6c" x="187.744141"/>
      <use xlink:href="#DejaVuSans-75" x="215.527344"/>
      <use xlink:href="#DejaVuSans-73" x="278.90625"/>
      <use xlink:href="#DejaVuSans-70" x="331.005859"/>
      <use xlink:href="#DejaVuSans-6c" x="394.482422"/>
      <use xlink:href="#DejaVuSans-75" x="422.265625"/>
      <use xlink:href="#DejaVuSans-73" x="485.644531"/>
      <use xlink:href="#DejaVuSans-5f" x="537.744141"/>
      <use xlink:href="#DejaVuSans-61" x="587.744141"/>
      <use xlink:href="#DejaVuSans-73" x="649.023438"/>
      <use xlink:href="#DejaVuSans-74" x="701.123047"/>
      <use xlink:href="#DejaVuSans-5f" x="740.332031"/>
      <use xlink:href="#DejaVuSans-6f" x="790.332031"/>
      <use xlink:href="#DejaVuSans-32" x="851.513672"/>
     </g>
    </g>
    <g id="line2d_26">
     <path d="M 246.82625 80.285313 
L 256.82625 80.285313 
L 266.82625 80.285313 
" style="fill: none; stroke: #e377c2; stroke-width: 1.5; stroke-linecap: square"/>
    </g>
    <g id="text_14">
     <!-- aflplusplus_ast_o3 -->
     <g transform="translate(274.82625 83.785313)scale(0.1 -0.1)">
      <use xlink:href="#DejaVuSans-61"/>
      <use xlink:href="#DejaVuSans-66" x="61.279297"/>
      <use xlink:href="#DejaVuSans-6c" x="96.484375"/>
      <use xlink:href="#DejaVuSans-70" x="124.267578"/>
      <use xlink:href="#DejaVuSans-6c" x="187.744141"/>
      <use xlink:href="#DejaVuSans-75" x="215.527344"/>
      <use xlink:href="#DejaVuSans-73" x="278.90625"/>
      <use xlink:href="#DejaVuSans-70" x="331.005859"/>
      <use xlink:href="#DejaVuSans-6c" x="394.482422"/>
      <use xlink:href="#DejaVuSans-75" x="422.265625"/>
      <use xlink:href="#DejaVuSans-73" x="485.644531"/>
      <use xlink:href="#DejaVuSans-5f" x="537.744141"/>
      <use xlink:href="#DejaVuSans-61" x="587.744141"/>
      <use xlink:href="#DejaVuSans-73" x="649.023438"/>
      <use xlink:href="#DejaVuSans-74" x="701.123047"/>
      <use xlink:href="#DejaVuSans-5f" x="740.332031"/>
      <use xlink:href="#DejaVuSans-6f" x="790.332031"/>
      <use xlink:href="#DejaVuSans-33" x="851.513672"/>
     </g>
    </g>
    <g id="line2d_27">
     <path d="M 246.82625 95.241562 
L 256.82625 95.241562 
L 266.82625 95.241562 
" style="fill: none; stroke: #98df8a; stroke-width: 1.5; stroke-linecap: square"/>
    </g>
    <g id="text_15">
     <!-- aflplusplus_ast_f1 -->
     <g transform="translate(274.82625 98.741562)scale(0.1 -0.1)">
      <use xlink:href="#DejaVuSans-61"/>
      <use xlink:href="#DejaVuSans-66" x="61.279297"/>
      <use xlink:href="#DejaVuSans-6c" x="96.484375"/>
      <use xlink:href="#DejaVuSans-70" x="124.267578"/>
      <use xlink:href="#DejaVuSans-6c" x="187.744141"/>
      <use xlink:href="#DejaVuSans-75" x="215.527344"/>
      <use xlink:href="#DejaVuSans-73" x="278.90625"/>
      <use xlink:href="#DejaVuSans-70" x="331.005859"/>
      <use xlink:href="#DejaVuSans-6c" x="394.482422"/>
      <use xlink:href="#DejaVuSans-75" x="422.265625"/>
      <use xlink:href="#DejaVuSans-73" x="485.644531"/>
      <use xlink:href="#DejaVuSans-5f" x="537.744141"/>
      <use xlink:href="#DejaVuSans-61" x="587.744141"/>
      <use xlink:href="#DejaVuSans-73" x="649.023438"/>
      <use xlink:href="#DejaVuSans-74" x="701.123047"/>
      <use xlink:href="#DejaVuSans-5f" x="740.332031"/>
      <use xlink:href="#DejaVuSans-66" x="790.332031"/>
      <use xlink:href="#DejaVuSans-31" x="825.537109"/>
     </g>
    </g>
    <g id="line2d_28">
     <path d="M 246.82625 110.197812 
L 256.82625 110.197812 
L 266.82625 110.197812 
" style="fill: none; stroke: #1f77b4; stroke-width: 1.5; stroke-linecap: square"/>
    </g>
    <g id="text_16">
     <!-- aflplusplus_ast_f0 -->
     <g transform="translate(274.82625 113.697812)scale(0.1 -0.1)">
      <use xlink:href="#DejaVuSans-61"/>
      <use xlink:href="#DejaVuSans-66" x="61.279297"/>
      <use xlink:href="#DejaVuSans-6c" x="96.484375"/>
      <use xlink:href="#DejaVuSans-70" x="124.267578"/>
      <use xlink:href="#DejaVuSans-6c" x="187.744141"/>
      <use xlink:href="#DejaVuSans-75" x="215.527344"/>
      <use xlink:href="#DejaVuSans-73" x="278.90625"/>
      <use xlink:href="#DejaVuSans-70" x="331.005859"/>
      <use xlink:href="#DejaVuSans-6c" x="394.482422"/>
      <use xlink:href="#DejaVuSans-75" x="422.265625"/>
      <use xlink:href="#DejaVuSans-73" x="485.644531"/>
      <use xlink:href="#DejaVuSans-5f" x="537.744141"/>
      <use xlink:href="#DejaVuSans-61" x="587.744141"/>
      <use xlink:href="#DejaVuSans-73" x="649.023438"/>
      <use xlink:href="#DejaVuSans-74" x="701.123047"/>
      <use xlink:href="#DejaVuSans-5f" x="740.332031"/>
      <use xlink:href="#DejaVuSans-66" x="790.332031"/>
      <use xlink:href="#DejaVuSans-30" x="825.537109"/>
     </g>
    </g>
    <g id="line2d_29">
     <path d="M 246.82625 125.154063 
L 256.82625 125.154063 
L 266.82625 125.154063 
" style="fill: none; stroke: #d62728; stroke-width: 1.5; stroke-linecap: square"/>
    </g>
    <g id="text_17">
     <!-- aflplusplus_ast_o0 -->
     <g transform="translate(274.82625 128.654063)scale(0.1 -0.1)">
      <use xlink:href="#DejaVuSans-61"/>
      <use xlink:href="#DejaVuSans-66" x="61.279297"/>
      <use xlink:href="#DejaVuSans-6c" x="96.484375"/>
      <use xlink:href="#DejaVuSans-70" x="124.267578"/>
      <use xlink:href="#DejaVuSans-6c" x="187.744141"/>
      <use xlink:href="#DejaVuSans-75" x="215.527344"/>
      <use xlink:href="#DejaVuSans-73" x="278.90625"/>
      <use xlink:href="#DejaVuSans-70" x="331.005859"/>
      <use xlink:href="#DejaVuSans-6c" x="394.482422"/>
      <use xlink:href="#DejaVuSans-75" x="422.265625"/>
      <use xlink:href="#DejaVuSans-73" x="485.644531"/>
      <use xlink:href="#DejaVuSans-5f" x="537.744141"/>
      <use xlink:href="#DejaVuSans-61" x="587.744141"/>
      <use xlink:href="#DejaVuSans-73" x="649.023438"/>
      <use xlink:href="#DejaVuSans-74" x="701.123047"/>
      <use xlink:href="#DejaVuSans-5f" x="740.332031"/>
      <use xlink:href="#DejaVuSans-6f" x="790.332031"/>
      <use xlink:href="#DejaVuSans-30" x="851.513672"/>
     </g>
    </g>
    <g id="line2d_30">
     <path d="M 246.82625 140.110312 
L 256.82625 140.110312 
L 266.82625 140.110312 
" style="fill: none; stroke: #7f7f7f; stroke-width: 1.5; stroke-linecap: square"/>
    </g>
    <g id="text_18">
     <!-- aflplusplus_ast_opt_l1 -->
     <g transform="translate(274.82625 143.610312)scale(0.1 -0.1)">
      <use xlink:href="#DejaVuSans-61"/>
      <use xlink:href="#DejaVuSans-66" x="61.279297"/>
      <use xlink:href="#DejaVuSans-6c" x="96.484375"/>
      <use xlink:href="#DejaVuSans-70" x="124.267578"/>
      <use xlink:href="#DejaVuSans-6c" x="187.744141"/>
      <use xlink:href="#DejaVuSans-75" x="215.527344"/>
      <use xlink:href="#DejaVuSans-73" x="278.90625"/>
      <use xlink:href="#DejaVuSans-70" x="331.005859"/>
      <use xlink:href="#DejaVuSans-6c" x="394.482422"/>
      <use xlink:href="#DejaVuSans-75" x="422.265625"/>
      <use xlink:href="#DejaVuSans-73" x="485.644531"/>
      <use xlink:href="#DejaVuSans-5f" x="537.744141"/>
      <use xlink:href="#DejaVuSans-61" x="587.744141"/>
      <use xlink:href="#DejaVuSans-73" x="649.023438"/>
      <use xlink:href="#DejaVuSans-74" x="701.123047"/>
      <use xlink:href="#DejaVuSans-5f" x="740.332031"/>
      <use xlink:href="#DejaVuSans-6f" x="790.332031"/>
      <use xlink:href="#DejaVuSans-70" x="851.513672"/>
      <use xlink:href="#DejaVuSans-74" x="914.990234"/>
      <use xlink:href="#DejaVuSans-5f" x="954.199219"/>
      <use xlink:href="#DejaVuSans-6c" x="1004.199219"/>
      <use xlink:href="#DejaVuSans-31" x="1031.982422"/>
     </g>
    </g>
    <g id="line2d_31">
     <path d="M 246.82625 155.066562 
L 256.82625 155.066562 
L 266.82625 155.066562 
" style="fill: none; stroke: #c5b0d5; stroke-width: 1.5; stroke-linecap: square"/>
    </g>
    <g id="text_19">
     <!-- aflplusplus_ast_opt_disable -->
     <g transform="translate(274.82625 158.566562)scale(0.1 -0.1)">
      <defs>
       <path id="DejaVuSans-62" d="M 3116 1747 
Q 3116 2381 2855 2742 
Q 2594 3103 2138 3103 
Q 1681 3103 1420 2742 
Q 1159 2381 1159 1747 
Q 1159 1113 1420 752 
Q 1681 391 2138 391 
Q 2594 391 2855 752 
Q 3116 1113 3116 1747 
z
M 1159 2969 
Q 1341 3281 1617 3432 
Q 1894 3584 2278 3584 
Q 2916 3584 3314 3078 
Q 3713 2572 3713 1747 
Q 3713 922 3314 415 
Q 2916 -91 2278 -91 
Q 1894 -91 1617 61 
Q 1341 213 1159 525 
L 1159 0 
L 581 0 
L 581 4863 
L 1159 4863 
L 1159 2969 
z
" transform="scale(0.015625)"/>
      </defs>
      <use xlink:href="#DejaVuSans-61"/>
      <use xlink:href="#DejaVuSans-66" x="61.279297"/>
      <use xlink:href="#DejaVuSans-6c" x="96.484375"/>
      <use xlink:href="#DejaVuSans-70" x="124.267578"/>
      <use xlink:href="#DejaVuSans-6c" x="187.744141"/>
      <use xlink:href="#DejaVuSans-75" x="215.527344"/>
      <use xlink:href="#DejaVuSans-73" x="278.90625"/>
      <use xlink:href="#DejaVuSans-70" x="331.005859"/>
      <use xlink:href="#DejaVuSans-6c" x="394.482422"/>
      <use xlink:href="#DejaVuSans-75" x="422.265625"/>
      <use xlink:href="#DejaVuSans-73" x="485.644531"/>
      <use xlink:href="#DejaVuSans-5f" x="537.744141"/>
      <use xlink:href="#DejaVuSans-61" x="587.744141"/>
      <use xlink:href="#DejaVuSans-73" x="649.023438"/>
      <use xlink:href="#DejaVuSans-74" x="701.123047"/>
      <use xlink:href="#DejaVuSans-5f" x="740.332031"/>
      <use xlink:href="#DejaVuSans-6f" x="790.332031"/>
      <use xlink:href="#DejaVuSans-70" x="851.513672"/>
      <use xlink:href="#DejaVuSans-74" x="914.990234"/>
      <use xlink:href="#DejaVuSans-5f" x="954.199219"/>
      <use xlink:href="#DejaVuSans-64" x="1004.199219"/>
      <use xlink:href="#DejaVuSans-69" x="1067.675781"/>
      <use xlink:href="#DejaVuSans-73" x="1095.458984"/>
      <use xlink:href="#DejaVuSans-61" x="1147.558594"/>
      <use xlink:href="#DejaVuSans-62" x="1208.837891"/>
      <use xlink:href="#DejaVuSans-6c" x="1272.314453"/>
      <use xlink:href="#DejaVuSans-65" x="1300.097656"/>
     </g>
    </g>
   </g>
  </g>
 </g>
 <defs>
  <clipPath id="p7a6e9bee6a">
   <rect x="62.86875" y="22.318125" width="357.12" height="266.112"/>
  </clipPath>
 </defs>
</svg>
