<?xml version="1.0" encoding="utf-8" standalone="no"?>
<!DOCTYPE svg PUBLIC "-//W3C//DTD SVG 1.1//EN"
  "http://www.w3.org/Graphics/SVG/1.1/DTD/svg11.dtd">
<svg xmlns:xlink="http://www.w3.org/1999/xlink" width="953.293125pt" height="325.986375pt" viewBox="0 0 953.293125 325.986375" xmlns="http://www.w3.org/2000/svg" version="1.1">
 <metadata>
  <rdf:RDF xmlns:dc="http://purl.org/dc/elements/1.1/" xmlns:cc="http://creativecommons.org/ns#" xmlns:rdf="http://www.w3.org/1999/02/22-rdf-syntax-ns#">
   <cc:Work>
    <dc:type rdf:resource="http://purl.org/dc/dcmitype/StillImage"/>
    <dc:date>2022-06-05T20:12:15.319335</dc:date>
    <dc:format>image/svg+xml</dc:format>
    <dc:creator>
     <cc:Agent>
      <dc:title>Matplotlib v3.5.1, https://matplotlib.org/</dc:title>
     </cc:Agent>
    </dc:creator>
   </cc:Work>
  </rdf:RDF>
 </metadata>
 <defs>
  <style type="text/css">*{stroke-linejoin: round; stroke-linecap: butt}</style>
 </defs>
 <g id="figure_1">
  <g id="patch_1">
   <path d="M 0 325.986375 
L 953.293125 325.986375 
L 953.293125 0 
L 0 0 
z
" style="fill: #ffffff"/>
  </g>
  <g id="axes_1">
   <g id="patch_2">
    <path d="M 59.690625 288.430125 
L 773.930625 288.430125 
L 773.930625 22.318125 
L 59.690625 22.318125 
z
" style="fill: #ffffff"/>
   </g>
   <g id="PolyCollection_1">
    <defs>
     <path id="m5739eccae9" d="M 92.15608 -129.700023 
L 92.15608 -61.797525 
L 132.737898 -94.471785 
L 173.319716 -110.156541 
L 213.901534 -114.292874 
L 254.483352 -124.481025 
L 295.06517 -132.948017 
L 335.646989 -155.212041 
L 376.228807 -163.345905 
L 416.810625 -170.091738 
L 457.392443 -181.251511 
L 497.974261 -182.500739 
L 538.55608 -187.664216 
L 579.137898 -188.968966 
L 619.719716 -192.328002 
L 660.301534 -195.270629 
L 700.883352 -195.936884 
L 741.46517 -198.907271 
L 741.46517 -291.57225 
L 741.46517 -291.57225 
L 700.883352 -267.809152 
L 660.301534 -285.40939 
L 619.719716 -285.298348 
L 579.137898 -285.048502 
L 538.55608 -284.909699 
L 497.974261 -284.743135 
L 457.392443 -281.85603 
L 416.810625 -280.884408 
L 376.228807 -275.582128 
L 335.646989 -253.096018 
L 295.06517 -252.374242 
L 254.483352 -216.368706 
L 213.901534 -211.621639 
L 173.319716 -189.662982 
L 132.737898 -165.76108 
L 92.15608 -129.700023 
z
" style="stroke: #2ca02c; stroke-opacity: 0.2"/>
    </defs>
    <g clip-path="url(#p2ba0bd6b8a)">
     <use xlink:href="#m5739eccae9" x="0" y="325.986375" style="fill: #2ca02c; fill-opacity: 0.2; stroke: #2ca02c; stroke-opacity: 0.2"/>
    </g>
   </g>
   <g id="PolyCollection_2">
    <defs>
     <path id="m815496e0a1" d="M 92.15608 -99.926749 
L 92.15608 -83.629178 
L 132.737898 -102.60565 
L 173.319716 -114.223473 
L 213.901534 -119.872761 
L 254.483352 -128.103787 
L 295.06517 -134.960662 
L 335.646989 -150.659298 
L 376.228807 -158.432274 
L 416.810625 -164.87274 
L 457.392443 -167.162992 
L 497.974261 -170.577549 
L 538.55608 -184.013694 
L 579.137898 -189.662982 
L 619.719716 -199.059954 
L 660.301534 -203.432253 
L 700.883352 -209.956001 
L 741.46517 -216.424228 
L 741.46517 -260.397064 
L 741.46517 -260.397064 
L 700.883352 -248.7376 
L 660.301534 -241.880724 
L 619.719716 -239.673754 
L 579.137898 -236.231436 
L 538.55608 -226.626259 
L 497.974261 -215.535888 
L 457.392443 -211.371793 
L 416.810625 -207.637989 
L 376.228807 -203.29345 
L 335.646989 -198.921151 
L 295.06517 -194.534972 
L 254.483352 -180.154966 
L 213.901534 -171.979461 
L 173.319716 -158.182428 
L 132.737898 -135.835122 
L 92.15608 -99.926749 
z
" style="stroke: #ff7f0e; stroke-opacity: 0.2"/>
    </defs>
    <g clip-path="url(#p2ba0bd6b8a)">
     <use xlink:href="#m815496e0a1" x="0" y="325.986375" style="fill: #ff7f0e; fill-opacity: 0.2; stroke: #ff7f0e; stroke-opacity: 0.2"/>
    </g>
   </g>
   <g id="PolyCollection_3">
    <defs>
     <path id="mfeab1d66c3" d="M 92.15608 -100.606884 
L 92.15608 -60.24293 
L 132.737898 -97.497694 
L 173.319716 -112.835441 
L 213.901534 -127.20122 
L 254.483352 -132.64265 
L 295.06517 -149.271267 
L 335.646989 -166.316293 
L 376.228807 -171.785137 
L 416.810625 -176.393401 
L 457.392443 -182.903268 
L 497.974261 -191.522944 
L 538.55608 -195.117945 
L 579.137898 -198.921151 
L 619.719716 -201.683334 
L 660.301534 -202.918682 
L 700.883352 -203.27957 
L 741.46517 -216.840637 
L 741.46517 -256.67714 
L 741.46517 -256.67714 
L 700.883352 -242.241613 
L 660.301534 -232.678076 
L 619.719716 -226.168208 
L 579.137898 -222.600968 
L 538.55608 -213.925771 
L 497.974261 -212.09357 
L 457.392443 -211.066426 
L 416.810625 -206.860691 
L 376.228807 -202.183025 
L 335.646989 -195.630129 
L 295.06517 -185.471127 
L 254.483352 -176.559965 
L 213.901534 -167.96805 
L 173.319716 -149.354548 
L 132.737898 -123.204036 
L 92.15608 -100.606884 
z
" style="stroke: #98df8a; stroke-opacity: 0.2"/>
    </defs>
    <g clip-path="url(#p2ba0bd6b8a)">
     <use xlink:href="#mfeab1d66c3" x="0" y="325.986375" style="fill: #98df8a; fill-opacity: 0.2; stroke: #98df8a; stroke-opacity: 0.2"/>
    </g>
   </g>
   <g id="PolyCollection_4">
    <defs>
     <path id="ma42c43e4c0" d="M 92.15608 -102.661171 
L 92.15608 -76.246932 
L 132.737898 -104.354569 
L 173.319716 -115.764188 
L 213.901534 -130.463441 
L 254.483352 -138.597305 
L 295.06517 -146.481323 
L 335.646989 -158.737641 
L 376.228807 -169.952935 
L 416.810625 -178.669773 
L 457.392443 -187.456012 
L 497.974261 -192.716651 
L 538.55608 -194.687655 
L 579.137898 -198.86563 
L 619.719716 -207.179938 
L 660.301534 -209.067661 
L 700.883352 -209.192584 
L 741.46517 -210.205847 
L 741.46517 -247.738217 
L 741.46517 -247.738217 
L 700.883352 -243.990532 
L 660.301534 -242.56086 
L 619.719716 -234.232671 
L 579.137898 -226.69566 
L 538.55608 -214.564266 
L 497.974261 -205.084011 
L 457.392443 -199.184877 
L 416.810625 -195.825841 
L 376.228807 -190.384758 
L 335.646989 -185.151879 
L 295.06517 -178.947379 
L 254.483352 -173.70062 
L 213.901534 -163.665153 
L 173.319716 -144.55196 
L 132.737898 -127.118285 
L 92.15608 -102.661171 
z
" style="stroke: #ff9896; stroke-opacity: 0.2"/>
    </defs>
    <g clip-path="url(#p2ba0bd6b8a)">
     <use xlink:href="#ma42c43e4c0" x="0" y="325.986375" style="fill: #ff9896; fill-opacity: 0.2; stroke: #ff9896; stroke-opacity: 0.2"/>
    </g>
   </g>
   <g id="PolyCollection_5">
    <defs>
     <path id="m36e18e9af2" d="M 92.15608 -91.58468 
L 92.15608 -76.288573 
L 132.737898 -96.45667 
L 173.319716 -109.101637 
L 213.901534 -116.083435 
L 254.483352 -125.730253 
L 295.06517 -135.071705 
L 335.646989 -152.158372 
L 376.228807 -163.262624 
L 416.810625 -171.674094 
L 457.392443 -176.032513 
L 497.974261 -184.818752 
L 538.55608 -185.776494 
L 579.137898 -189.510298 
L 619.719716 -198.699066 
L 660.301534 -203.640458 
L 700.883352 -204.806405 
L 741.46517 -206.208316 
L 741.46517 -245.933776 
L 741.46517 -245.933776 
L 700.883352 -239.326747 
L 660.301534 -235.315336 
L 619.719716 -234.885046 
L 579.137898 -230.734832 
L 538.55608 -225.071664 
L 497.974261 -219.394615 
L 457.392443 -216.798996 
L 416.810625 -211.21911 
L 376.228807 -200.850515 
L 335.646989 -192.064276 
L 295.06517 -179.072302 
L 254.483352 -160.639244 
L 213.901534 -153.935052 
L 173.319716 -144.732404 
L 132.737898 -126.535312 
L 92.15608 -91.58468 
z
" style="stroke: #e377c2; stroke-opacity: 0.2"/>
    </defs>
    <g clip-path="url(#p2ba0bd6b8a)">
     <use xlink:href="#m36e18e9af2" x="0" y="325.986375" style="fill: #e377c2; fill-opacity: 0.2; stroke: #e377c2; stroke-opacity: 0.2"/>
    </g>
   </g>
   <g id="PolyCollection_6">
    <defs>
     <path id="m375b3f2ffe" d="M 92.15608 -101.217618 
L 92.15608 -79.009115 
L 132.737898 -103.0637 
L 173.319716 -116.361041 
L 213.901534 -126.340987 
L 254.483352 -135.72408 
L 295.06517 -147.758312 
L 335.646989 -165.080945 
L 376.228807 -168.884151 
L 416.810625 -173.867184 
L 457.392443 -180.390932 
L 497.974261 -184.874273 
L 538.55608 -191.647867 
L 579.137898 -195.131825 
L 619.719716 -196.061806 
L 660.301534 -198.712947 
L 700.883352 -199.948295 
L 741.46517 -206.020932 
L 741.46517 -237.799912 
L 741.46517 -237.799912 
L 700.883352 -222.739771 
L 660.301534 -221.018612 
L 619.719716 -219.644461 
L 579.137898 -219.575059 
L 538.55608 -219.255812 
L 497.974261 -214.883513 
L 457.392443 -211.66328 
L 416.810625 -207.901715 
L 376.228807 -204.542679 
L 335.646989 -191.994874 
L 295.06517 -188.26107 
L 254.483352 -178.669773 
L 213.901534 -163.484709 
L 173.319716 -152.172252 
L 132.737898 -128.131548 
L 92.15608 -101.217618 
z
" style="stroke: #1f77b4; stroke-opacity: 0.2"/>
    </defs>
    <g clip-path="url(#p2ba0bd6b8a)">
     <use xlink:href="#m375b3f2ffe" x="0" y="325.986375" style="fill: #1f77b4; fill-opacity: 0.2; stroke: #1f77b4; stroke-opacity: 0.2"/>
    </g>
   </g>
   <g id="PolyCollection_7">
    <defs>
     <path id="maec1593e2d" d="M 92.15608 -95.776535 
L 92.15608 -49.65225 
L 132.737898 -84.408557 
L 173.319716 -103.716075 
L 213.901534 -109.518046 
L 254.483352 -122.995831 
L 295.06517 -126.285466 
L 335.646989 -126.618593 
L 376.228807 -140.526668 
L 416.810625 -140.193541 
L 457.392443 -160.02851 
L 497.974261 -164.595134 
L 538.55608 -169.425483 
L 579.137898 -175.282976 
L 619.719716 -180.75182 
L 660.301534 -185.790374 
L 700.883352 -188.968966 
L 741.46517 -189.662982 
L 741.46517 -234.079988 
L 741.46517 -234.079988 
L 700.883352 -220.560561 
L 660.301534 -218.603437 
L 619.719716 -216.202143 
L 579.137898 -212.065809 
L 538.55608 -203.73415 
L 497.974261 -192.966496 
L 457.392443 -190.204314 
L 416.810625 -188.108386 
L 376.228807 -183.861357 
L 335.646989 -176.740409 
L 295.06517 -170.577549 
L 254.483352 -154.962195 
L 213.901534 -130.588363 
L 173.319716 -125.119519 
L 132.737898 -117.929517 
L 92.15608 -95.776535 
z
" style="stroke: #d62728; stroke-opacity: 0.2"/>
    </defs>
    <g clip-path="url(#p2ba0bd6b8a)">
     <use xlink:href="#maec1593e2d" x="0" y="325.986375" style="fill: #d62728; fill-opacity: 0.2; stroke: #d62728; stroke-opacity: 0.2"/>
    </g>
   </g>
   <g id="PolyCollection_8">
    <defs>
     <path id="m797c361700" d="M 92.15608 -149.576633 
L 92.15608 -100.690166 
L 132.737898 -117.041177 
L 173.319716 -129.644502 
L 213.901534 -138.777749 
L 254.483352 -149.465591 
L 295.06517 -156.04486 
L 335.646989 -159.737024 
L 376.228807 -161.041773 
L 416.810625 -165.31691 
L 457.392443 -165.705559 
L 497.974261 -165.844362 
L 538.55608 -166.149729 
L 579.137898 -167.621042 
L 619.719716 -168.204015 
L 660.301534 -168.370579 
L 700.883352 -169.092356 
L 741.46517 -169.106236 
L 741.46517 -212.371176 
L 741.46517 -212.371176 
L 700.883352 -199.379202 
L 660.301534 -198.935032 
L 619.719716 -196.908506 
L 579.137898 -196.020166 
L 538.55608 -182.556261 
L 497.974261 -192.494566 
L 457.392443 -191.967114 
L 416.810625 -186.470509 
L 376.228807 -183.999813 
L 335.646989 -172.978844 
L 295.06517 -175.92147 
L 254.483352 -175.44954 
L 213.901534 -172.090503 
L 173.319716 -170.119499 
L 132.737898 -167.06583 
L 92.15608 -149.576633 
z
" style="stroke: #7f7f7f; stroke-opacity: 0.2"/>
    </defs>
    <g clip-path="url(#p2ba0bd6b8a)">
     <use xlink:href="#m797c361700" x="0" y="325.986375" style="fill: #7f7f7f; fill-opacity: 0.2; stroke: #7f7f7f; stroke-opacity: 0.2"/>
    </g>
   </g>
   <g id="PolyCollection_9">
    <defs>
     <path id="m0abc20f5cb" d="M 92.15608 -118.409081 
L 92.15608 -94.943716 
L 132.737898 -112.960364 
L 173.319716 -119.206506 
L 213.901534 -134.336048 
L 254.483352 -150.966747 
L 295.06517 -146.661767 
L 335.646989 -156.04486 
L 376.228807 -158.26571 
L 416.810625 -161.263858 
L 457.392443 -162.318762 
L 497.974261 -163.012778 
L 538.55608 -164.150964 
L 579.137898 -164.761697 
L 619.719716 -167.704324 
L 660.301534 -168.820995 
L 700.883352 -168.39834 
L 741.46517 -169.050715 
L 741.46517 -200.031576 
L 741.46517 -200.031576 
L 700.883352 -183.194755 
L 660.301534 -183.166994 
L 619.719716 -183.166994 
L 579.137898 -183.166994 
L 538.55608 -180.973905 
L 497.974261 -179.391549 
L 457.392443 -179.141703 
L 416.810625 -173.950466 
L 376.228807 -173.395253 
L 335.646989 -172.479152 
L 295.06517 -171.785137 
L 254.483352 -171.47977 
L 213.901534 -170.369344 
L 173.319716 -164.42857 
L 132.737898 -158.543317 
L 92.15608 -118.409081 
z
" style="stroke: #c5b0d5; stroke-opacity: 0.2"/>
    </defs>
    <g clip-path="url(#p2ba0bd6b8a)">
     <use xlink:href="#m0abc20f5cb" x="0" y="325.986375" style="fill: #c5b0d5; fill-opacity: 0.2; stroke: #c5b0d5; stroke-opacity: 0.2"/>
    </g>
   </g>
   <g id="matplotlib.axis_1">
    <g id="xtick_1">
     <g id="line2d_1">
      <defs>
       <path id="mcdb776f729" d="M 0 0 
L 0 3.5 
" style="stroke: #000000; stroke-width: 0.8"/>
      </defs>
      <g>
       <use xlink:href="#mcdb776f729" x="92.15608" y="288.430125" style="stroke: #000000; stroke-width: 0.8"/>
      </g>
     </g>
     <g id="text_1">
      <!-- 15m -->
      <g transform="translate(80.923267 303.028562)scale(0.1 -0.1)">
       <defs>
        <path id="DejaVuSans-31" d="M 794 531 
L 1825 531 
L 1825 4091 
L 703 3866 
L 703 4441 
L 1819 4666 
L 2450 4666 
L 2450 531 
L 3481 531 
L 3481 0 
L 794 0 
L 794 531 
z
" transform="scale(0.015625)"/>
        <path id="DejaVuSans-35" d="M 691 4666 
L 3169 4666 
L 3169 4134 
L 1269 4134 
L 1269 2991 
Q 1406 3038 1543 3061 
Q 1681 3084 1819 3084 
Q 2600 3084 3056 2656 
Q 3513 2228 3513 1497 
Q 3513 744 3044 326 
Q 2575 -91 1722 -91 
Q 1428 -91 1123 -41 
Q 819 9 494 109 
L 494 744 
Q 775 591 1075 516 
Q 1375 441 1709 441 
Q 2250 441 2565 725 
Q 2881 1009 2881 1497 
Q 2881 1984 2565 2268 
Q 2250 2553 1709 2553 
Q 1456 2553 1204 2497 
Q 953 2441 691 2322 
L 691 4666 
z
" transform="scale(0.015625)"/>
        <path id="DejaVuSans-6d" d="M 3328 2828 
Q 3544 3216 3844 3400 
Q 4144 3584 4550 3584 
Q 5097 3584 5394 3201 
Q 5691 2819 5691 2113 
L 5691 0 
L 5113 0 
L 5113 2094 
Q 5113 2597 4934 2840 
Q 4756 3084 4391 3084 
Q 3944 3084 3684 2787 
Q 3425 2491 3425 1978 
L 3425 0 
L 2847 0 
L 2847 2094 
Q 2847 2600 2669 2842 
Q 2491 3084 2119 3084 
Q 1678 3084 1418 2786 
Q 1159 2488 1159 1978 
L 1159 0 
L 581 0 
L 581 3500 
L 1159 3500 
L 1159 2956 
Q 1356 3278 1631 3431 
Q 1906 3584 2284 3584 
Q 2666 3584 2933 3390 
Q 3200 3197 3328 2828 
z
" transform="scale(0.015625)"/>
       </defs>
       <use xlink:href="#DejaVuSans-31"/>
       <use xlink:href="#DejaVuSans-35" x="63.623047"/>
       <use xlink:href="#DejaVuSans-6d" x="127.246094"/>
      </g>
     </g>
    </g>
    <g id="xtick_2">
     <g id="line2d_2">
      <g>
       <use xlink:href="#mcdb776f729" x="149.646989" y="288.430125" style="stroke: #000000; stroke-width: 0.8"/>
      </g>
     </g>
     <g id="text_2">
      <!-- 36m -->
      <g transform="translate(138.414176 303.028562)scale(0.1 -0.1)">
       <defs>
        <path id="DejaVuSans-33" d="M 2597 2516 
Q 3050 2419 3304 2112 
Q 3559 1806 3559 1356 
Q 3559 666 3084 287 
Q 2609 -91 1734 -91 
Q 1441 -91 1130 -33 
Q 819 25 488 141 
L 488 750 
Q 750 597 1062 519 
Q 1375 441 1716 441 
Q 2309 441 2620 675 
Q 2931 909 2931 1356 
Q 2931 1769 2642 2001 
Q 2353 2234 1838 2234 
L 1294 2234 
L 1294 2753 
L 1863 2753 
Q 2328 2753 2575 2939 
Q 2822 3125 2822 3475 
Q 2822 3834 2567 4026 
Q 2313 4219 1838 4219 
Q 1578 4219 1281 4162 
Q 984 4106 628 3988 
L 628 4550 
Q 988 4650 1302 4700 
Q 1616 4750 1894 4750 
Q 2613 4750 3031 4423 
Q 3450 4097 3450 3541 
Q 3450 3153 3228 2886 
Q 3006 2619 2597 2516 
z
" transform="scale(0.015625)"/>
        <path id="DejaVuSans-36" d="M 2113 2584 
Q 1688 2584 1439 2293 
Q 1191 2003 1191 1497 
Q 1191 994 1439 701 
Q 1688 409 2113 409 
Q 2538 409 2786 701 
Q 3034 994 3034 1497 
Q 3034 2003 2786 2293 
Q 2538 2584 2113 2584 
z
M 3366 4563 
L 3366 3988 
Q 3128 4100 2886 4159 
Q 2644 4219 2406 4219 
Q 1781 4219 1451 3797 
Q 1122 3375 1075 2522 
Q 1259 2794 1537 2939 
Q 1816 3084 2150 3084 
Q 2853 3084 3261 2657 
Q 3669 2231 3669 1497 
Q 3669 778 3244 343 
Q 2819 -91 2113 -91 
Q 1303 -91 875 529 
Q 447 1150 447 2328 
Q 447 3434 972 4092 
Q 1497 4750 2381 4750 
Q 2619 4750 2861 4703 
Q 3103 4656 3366 4563 
z
" transform="scale(0.015625)"/>
       </defs>
       <use xlink:href="#DejaVuSans-33"/>
       <use xlink:href="#DejaVuSans-36" x="63.623047"/>
       <use xlink:href="#DejaVuSans-6d" x="127.246094"/>
      </g>
     </g>
    </g>
    <g id="xtick_3">
     <g id="line2d_3">
      <g>
       <use xlink:href="#mcdb776f729" x="207.137898" y="288.430125" style="stroke: #000000; stroke-width: 0.8"/>
      </g>
     </g>
     <g id="text_3">
      <!-- 57m -->
      <g transform="translate(195.905085 303.028562)scale(0.1 -0.1)">
       <defs>
        <path id="DejaVuSans-37" d="M 525 4666 
L 3525 4666 
L 3525 4397 
L 1831 0 
L 1172 0 
L 2766 4134 
L 525 4134 
L 525 4666 
z
" transform="scale(0.015625)"/>
       </defs>
       <use xlink:href="#DejaVuSans-35"/>
       <use xlink:href="#DejaVuSans-37" x="63.623047"/>
       <use xlink:href="#DejaVuSans-6d" x="127.246094"/>
      </g>
     </g>
    </g>
    <g id="xtick_4">
     <g id="line2d_4">
      <g>
       <use xlink:href="#mcdb776f729" x="264.628807" y="288.430125" style="stroke: #000000; stroke-width: 0.8"/>
      </g>
     </g>
     <g id="text_4">
      <!-- 1h:18m -->
      <g transform="translate(245.361619 303.028562)scale(0.1 -0.1)">
       <defs>
        <path id="DejaVuSans-68" d="M 3513 2113 
L 3513 0 
L 2938 0 
L 2938 2094 
Q 2938 2591 2744 2837 
Q 2550 3084 2163 3084 
Q 1697 3084 1428 2787 
Q 1159 2491 1159 1978 
L 1159 0 
L 581 0 
L 581 4863 
L 1159 4863 
L 1159 2956 
Q 1366 3272 1645 3428 
Q 1925 3584 2291 3584 
Q 2894 3584 3203 3211 
Q 3513 2838 3513 2113 
z
" transform="scale(0.015625)"/>
        <path id="DejaVuSans-3a" d="M 750 794 
L 1409 794 
L 1409 0 
L 750 0 
L 750 794 
z
M 750 3309 
L 1409 3309 
L 1409 2516 
L 750 2516 
L 750 3309 
z
" transform="scale(0.015625)"/>
        <path id="DejaVuSans-38" d="M 2034 2216 
Q 1584 2216 1326 1975 
Q 1069 1734 1069 1313 
Q 1069 891 1326 650 
Q 1584 409 2034 409 
Q 2484 409 2743 651 
Q 3003 894 3003 1313 
Q 3003 1734 2745 1975 
Q 2488 2216 2034 2216 
z
M 1403 2484 
Q 997 2584 770 2862 
Q 544 3141 544 3541 
Q 544 4100 942 4425 
Q 1341 4750 2034 4750 
Q 2731 4750 3128 4425 
Q 3525 4100 3525 3541 
Q 3525 3141 3298 2862 
Q 3072 2584 2669 2484 
Q 3125 2378 3379 2068 
Q 3634 1759 3634 1313 
Q 3634 634 3220 271 
Q 2806 -91 2034 -91 
Q 1263 -91 848 271 
Q 434 634 434 1313 
Q 434 1759 690 2068 
Q 947 2378 1403 2484 
z
M 1172 3481 
Q 1172 3119 1398 2916 
Q 1625 2713 2034 2713 
Q 2441 2713 2670 2916 
Q 2900 3119 2900 3481 
Q 2900 3844 2670 4047 
Q 2441 4250 2034 4250 
Q 1625 4250 1398 4047 
Q 1172 3844 1172 3481 
z
" transform="scale(0.015625)"/>
       </defs>
       <use xlink:href="#DejaVuSans-31"/>
       <use xlink:href="#DejaVuSans-68" x="63.623047"/>
       <use xlink:href="#DejaVuSans-3a" x="127.001953"/>
       <use xlink:href="#DejaVuSans-31" x="160.693359"/>
       <use xlink:href="#DejaVuSans-38" x="224.316406"/>
       <use xlink:href="#DejaVuSans-6d" x="287.939453"/>
      </g>
     </g>
    </g>
    <g id="xtick_5">
     <g id="line2d_5">
      <g>
       <use xlink:href="#mcdb776f729" x="322.119716" y="288.430125" style="stroke: #000000; stroke-width: 0.8"/>
      </g>
     </g>
     <g id="text_5">
      <!-- 1h:40m -->
      <g transform="translate(302.852528 303.028562)scale(0.1 -0.1)">
       <defs>
        <path id="DejaVuSans-34" d="M 2419 4116 
L 825 1625 
L 2419 1625 
L 2419 4116 
z
M 2253 4666 
L 3047 4666 
L 3047 1625 
L 3713 1625 
L 3713 1100 
L 3047 1100 
L 3047 0 
L 2419 0 
L 2419 1100 
L 313 1100 
L 313 1709 
L 2253 4666 
z
" transform="scale(0.015625)"/>
        <path id="DejaVuSans-30" d="M 2034 4250 
Q 1547 4250 1301 3770 
Q 1056 3291 1056 2328 
Q 1056 1369 1301 889 
Q 1547 409 2034 409 
Q 2525 409 2770 889 
Q 3016 1369 3016 2328 
Q 3016 3291 2770 3770 
Q 2525 4250 2034 4250 
z
M 2034 4750 
Q 2819 4750 3233 4129 
Q 3647 3509 3647 2328 
Q 3647 1150 3233 529 
Q 2819 -91 2034 -91 
Q 1250 -91 836 529 
Q 422 1150 422 2328 
Q 422 3509 836 4129 
Q 1250 4750 2034 4750 
z
" transform="scale(0.015625)"/>
       </defs>
       <use xlink:href="#DejaVuSans-31"/>
       <use xlink:href="#DejaVuSans-68" x="63.623047"/>
       <use xlink:href="#DejaVuSans-3a" x="127.001953"/>
       <use xlink:href="#DejaVuSans-34" x="160.693359"/>
       <use xlink:href="#DejaVuSans-30" x="224.316406"/>
       <use xlink:href="#DejaVuSans-6d" x="287.939453"/>
      </g>
     </g>
    </g>
    <g id="xtick_6">
     <g id="line2d_6">
      <g>
       <use xlink:href="#mcdb776f729" x="379.610625" y="288.430125" style="stroke: #000000; stroke-width: 0.8"/>
      </g>
     </g>
     <g id="text_6">
      <!-- 2h:1m -->
      <g transform="translate(363.524688 303.028562)scale(0.1 -0.1)">
       <defs>
        <path id="DejaVuSans-32" d="M 1228 531 
L 3431 531 
L 3431 0 
L 469 0 
L 469 531 
Q 828 903 1448 1529 
Q 2069 2156 2228 2338 
Q 2531 2678 2651 2914 
Q 2772 3150 2772 3378 
Q 2772 3750 2511 3984 
Q 2250 4219 1831 4219 
Q 1534 4219 1204 4116 
Q 875 4013 500 3803 
L 500 4441 
Q 881 4594 1212 4672 
Q 1544 4750 1819 4750 
Q 2544 4750 2975 4387 
Q 3406 4025 3406 3419 
Q 3406 3131 3298 2873 
Q 3191 2616 2906 2266 
Q 2828 2175 2409 1742 
Q 1991 1309 1228 531 
z
" transform="scale(0.015625)"/>
       </defs>
       <use xlink:href="#DejaVuSans-32"/>
       <use xlink:href="#DejaVuSans-68" x="63.623047"/>
       <use xlink:href="#DejaVuSans-3a" x="127.001953"/>
       <use xlink:href="#DejaVuSans-31" x="160.693359"/>
       <use xlink:href="#DejaVuSans-6d" x="224.316406"/>
      </g>
     </g>
    </g>
    <g id="xtick_7">
     <g id="line2d_7">
      <g>
       <use xlink:href="#mcdb776f729" x="437.101534" y="288.430125" style="stroke: #000000; stroke-width: 0.8"/>
      </g>
     </g>
     <g id="text_7">
      <!-- 2h:22m -->
      <g transform="translate(417.834347 303.028562)scale(0.1 -0.1)">
       <use xlink:href="#DejaVuSans-32"/>
       <use xlink:href="#DejaVuSans-68" x="63.623047"/>
       <use xlink:href="#DejaVuSans-3a" x="127.001953"/>
       <use xlink:href="#DejaVuSans-32" x="160.693359"/>
       <use xlink:href="#DejaVuSans-32" x="224.316406"/>
       <use xlink:href="#DejaVuSans-6d" x="287.939453"/>
      </g>
     </g>
    </g>
    <g id="xtick_8">
     <g id="line2d_8">
      <g>
       <use xlink:href="#mcdb776f729" x="494.592443" y="288.430125" style="stroke: #000000; stroke-width: 0.8"/>
      </g>
     </g>
     <g id="text_8">
      <!-- 2h:43m -->
      <g transform="translate(475.325256 303.028562)scale(0.1 -0.1)">
       <use xlink:href="#DejaVuSans-32"/>
       <use xlink:href="#DejaVuSans-68" x="63.623047"/>
       <use xlink:href="#DejaVuSans-3a" x="127.001953"/>
       <use xlink:href="#DejaVuSans-34" x="160.693359"/>
       <use xlink:href="#DejaVuSans-33" x="224.316406"/>
       <use xlink:href="#DejaVuSans-6d" x="287.939453"/>
      </g>
     </g>
    </g>
    <g id="xtick_9">
     <g id="line2d_9">
      <g>
       <use xlink:href="#mcdb776f729" x="552.083352" y="288.430125" style="stroke: #000000; stroke-width: 0.8"/>
      </g>
     </g>
     <g id="text_9">
      <!-- 3h:5m -->
      <g transform="translate(535.997415 303.028562)scale(0.1 -0.1)">
       <use xlink:href="#DejaVuSans-33"/>
       <use xlink:href="#DejaVuSans-68" x="63.623047"/>
       <use xlink:href="#DejaVuSans-3a" x="127.001953"/>
       <use xlink:href="#DejaVuSans-35" x="160.693359"/>
       <use xlink:href="#DejaVuSans-6d" x="224.316406"/>
      </g>
     </g>
    </g>
    <g id="xtick_10">
     <g id="line2d_10">
      <g>
       <use xlink:href="#mcdb776f729" x="609.574261" y="288.430125" style="stroke: #000000; stroke-width: 0.8"/>
      </g>
     </g>
     <g id="text_10">
      <!-- 3h:26m -->
      <g transform="translate(590.307074 303.028562)scale(0.1 -0.1)">
       <use xlink:href="#DejaVuSans-33"/>
       <use xlink:href="#DejaVuSans-68" x="63.623047"/>
       <use xlink:href="#DejaVuSans-3a" x="127.001953"/>
       <use xlink:href="#DejaVuSans-32" x="160.693359"/>
       <use xlink:href="#DejaVuSans-36" x="224.316406"/>
       <use xlink:href="#DejaVuSans-6d" x="287.939453"/>
      </g>
     </g>
    </g>
    <g id="xtick_11">
     <g id="line2d_11">
      <g>
       <use xlink:href="#mcdb776f729" x="667.06517" y="288.430125" style="stroke: #000000; stroke-width: 0.8"/>
      </g>
     </g>
     <g id="text_11">
      <!-- 3h:47m -->
      <g transform="translate(647.797983 303.028562)scale(0.1 -0.1)">
       <use xlink:href="#DejaVuSans-33"/>
       <use xlink:href="#DejaVuSans-68" x="63.623047"/>
       <use xlink:href="#DejaVuSans-3a" x="127.001953"/>
       <use xlink:href="#DejaVuSans-34" x="160.693359"/>
       <use xlink:href="#DejaVuSans-37" x="224.316406"/>
       <use xlink:href="#DejaVuSans-6d" x="287.939453"/>
      </g>
     </g>
    </g>
    <g id="xtick_12">
     <g id="line2d_12">
      <g>
       <use xlink:href="#mcdb776f729" x="724.55608" y="288.430125" style="stroke: #000000; stroke-width: 0.8"/>
      </g>
     </g>
     <g id="text_12">
      <!-- 4h:8m -->
      <g transform="translate(708.470142 303.028562)scale(0.1 -0.1)">
       <use xlink:href="#DejaVuSans-34"/>
       <use xlink:href="#DejaVuSans-68" x="63.623047"/>
       <use xlink:href="#DejaVuSans-3a" x="127.001953"/>
       <use xlink:href="#DejaVuSans-38" x="160.693359"/>
       <use xlink:href="#DejaVuSans-6d" x="224.316406"/>
      </g>
     </g>
    </g>
    <g id="text_13">
     <!-- Time (hour:minute) -->
     <g transform="translate(368.403594 316.706687)scale(0.1 -0.1)">
      <defs>
       <path id="DejaVuSans-54" d="M -19 4666 
L 3928 4666 
L 3928 4134 
L 2272 4134 
L 2272 0 
L 1638 0 
L 1638 4134 
L -19 4134 
L -19 4666 
z
" transform="scale(0.015625)"/>
       <path id="DejaVuSans-69" d="M 603 3500 
L 1178 3500 
L 1178 0 
L 603 0 
L 603 3500 
z
M 603 4863 
L 1178 4863 
L 1178 4134 
L 603 4134 
L 603 4863 
z
" transform="scale(0.015625)"/>
       <path id="DejaVuSans-65" d="M 3597 1894 
L 3597 1613 
L 953 1613 
Q 991 1019 1311 708 
Q 1631 397 2203 397 
Q 2534 397 2845 478 
Q 3156 559 3463 722 
L 3463 178 
Q 3153 47 2828 -22 
Q 2503 -91 2169 -91 
Q 1331 -91 842 396 
Q 353 884 353 1716 
Q 353 2575 817 3079 
Q 1281 3584 2069 3584 
Q 2775 3584 3186 3129 
Q 3597 2675 3597 1894 
z
M 3022 2063 
Q 3016 2534 2758 2815 
Q 2500 3097 2075 3097 
Q 1594 3097 1305 2825 
Q 1016 2553 972 2059 
L 3022 2063 
z
" transform="scale(0.015625)"/>
       <path id="DejaVuSans-20" transform="scale(0.015625)"/>
       <path id="DejaVuSans-28" d="M 1984 4856 
Q 1566 4138 1362 3434 
Q 1159 2731 1159 2009 
Q 1159 1288 1364 580 
Q 1569 -128 1984 -844 
L 1484 -844 
Q 1016 -109 783 600 
Q 550 1309 550 2009 
Q 550 2706 781 3412 
Q 1013 4119 1484 4856 
L 1984 4856 
z
" transform="scale(0.015625)"/>
       <path id="DejaVuSans-6f" d="M 1959 3097 
Q 1497 3097 1228 2736 
Q 959 2375 959 1747 
Q 959 1119 1226 758 
Q 1494 397 1959 397 
Q 2419 397 2687 759 
Q 2956 1122 2956 1747 
Q 2956 2369 2687 2733 
Q 2419 3097 1959 3097 
z
M 1959 3584 
Q 2709 3584 3137 3096 
Q 3566 2609 3566 1747 
Q 3566 888 3137 398 
Q 2709 -91 1959 -91 
Q 1206 -91 779 398 
Q 353 888 353 1747 
Q 353 2609 779 3096 
Q 1206 3584 1959 3584 
z
" transform="scale(0.015625)"/>
       <path id="DejaVuSans-75" d="M 544 1381 
L 544 3500 
L 1119 3500 
L 1119 1403 
Q 1119 906 1312 657 
Q 1506 409 1894 409 
Q 2359 409 2629 706 
Q 2900 1003 2900 1516 
L 2900 3500 
L 3475 3500 
L 3475 0 
L 2900 0 
L 2900 538 
Q 2691 219 2414 64 
Q 2138 -91 1772 -91 
Q 1169 -91 856 284 
Q 544 659 544 1381 
z
M 1991 3584 
L 1991 3584 
z
" transform="scale(0.015625)"/>
       <path id="DejaVuSans-72" d="M 2631 2963 
Q 2534 3019 2420 3045 
Q 2306 3072 2169 3072 
Q 1681 3072 1420 2755 
Q 1159 2438 1159 1844 
L 1159 0 
L 581 0 
L 581 3500 
L 1159 3500 
L 1159 2956 
Q 1341 3275 1631 3429 
Q 1922 3584 2338 3584 
Q 2397 3584 2469 3576 
Q 2541 3569 2628 3553 
L 2631 2963 
z
" transform="scale(0.015625)"/>
       <path id="DejaVuSans-6e" d="M 3513 2113 
L 3513 0 
L 2938 0 
L 2938 2094 
Q 2938 2591 2744 2837 
Q 2550 3084 2163 3084 
Q 1697 3084 1428 2787 
Q 1159 2491 1159 1978 
L 1159 0 
L 581 0 
L 581 3500 
L 1159 3500 
L 1159 2956 
Q 1366 3272 1645 3428 
Q 1925 3584 2291 3584 
Q 2894 3584 3203 3211 
Q 3513 2838 3513 2113 
z
" transform="scale(0.015625)"/>
       <path id="DejaVuSans-74" d="M 1172 4494 
L 1172 3500 
L 2356 3500 
L 2356 3053 
L 1172 3053 
L 1172 1153 
Q 1172 725 1289 603 
Q 1406 481 1766 481 
L 2356 481 
L 2356 0 
L 1766 0 
Q 1100 0 847 248 
Q 594 497 594 1153 
L 594 3053 
L 172 3053 
L 172 3500 
L 594 3500 
L 594 4494 
L 1172 4494 
z
" transform="scale(0.015625)"/>
       <path id="DejaVuSans-29" d="M 513 4856 
L 1013 4856 
Q 1481 4119 1714 3412 
Q 1947 2706 1947 2009 
Q 1947 1309 1714 600 
Q 1481 -109 1013 -844 
L 513 -844 
Q 928 -128 1133 580 
Q 1338 1288 1338 2009 
Q 1338 2731 1133 3434 
Q 928 4138 513 4856 
z
" transform="scale(0.015625)"/>
      </defs>
      <use xlink:href="#DejaVuSans-54"/>
      <use xlink:href="#DejaVuSans-69" x="57.958984"/>
      <use xlink:href="#DejaVuSans-6d" x="85.742188"/>
      <use xlink:href="#DejaVuSans-65" x="183.154297"/>
      <use xlink:href="#DejaVuSans-20" x="244.677734"/>
      <use xlink:href="#DejaVuSans-28" x="276.464844"/>
      <use xlink:href="#DejaVuSans-68" x="315.478516"/>
      <use xlink:href="#DejaVuSans-6f" x="378.857422"/>
      <use xlink:href="#DejaVuSans-75" x="440.039062"/>
      <use xlink:href="#DejaVuSans-72" x="503.417969"/>
      <use xlink:href="#DejaVuSans-3a" x="542.78125"/>
      <use xlink:href="#DejaVuSans-6d" x="576.472656"/>
      <use xlink:href="#DejaVuSans-69" x="673.884766"/>
      <use xlink:href="#DejaVuSans-6e" x="701.667969"/>
      <use xlink:href="#DejaVuSans-75" x="765.046875"/>
      <use xlink:href="#DejaVuSans-74" x="828.425781"/>
      <use xlink:href="#DejaVuSans-65" x="867.634766"/>
      <use xlink:href="#DejaVuSans-29" x="929.158203"/>
     </g>
    </g>
   </g>
   <g id="matplotlib.axis_2">
    <g id="ytick_1">
     <g id="line2d_13">
      <defs>
       <path id="m451d27752c" d="M 0 0 
L -3.5 0 
" style="stroke: #000000; stroke-width: 0.8"/>
      </defs>
      <g>
       <use xlink:href="#m451d27752c" x="59.690625" y="258.608963" style="stroke: #000000; stroke-width: 0.8"/>
      </g>
     </g>
     <g id="text_14">
      <!-- 12000 -->
      <g transform="translate(20.878125 262.408182)scale(0.1 -0.1)">
       <use xlink:href="#DejaVuSans-31"/>
       <use xlink:href="#DejaVuSans-32" x="63.623047"/>
       <use xlink:href="#DejaVuSans-30" x="127.246094"/>
       <use xlink:href="#DejaVuSans-30" x="190.869141"/>
       <use xlink:href="#DejaVuSans-30" x="254.492188"/>
      </g>
     </g>
    </g>
    <g id="ytick_2">
     <g id="line2d_14">
      <g>
       <use xlink:href="#m451d27752c" x="59.690625" y="203.087706" style="stroke: #000000; stroke-width: 0.8"/>
      </g>
     </g>
     <g id="text_15">
      <!-- 14000 -->
      <g transform="translate(20.878125 206.886925)scale(0.1 -0.1)">
       <use xlink:href="#DejaVuSans-31"/>
       <use xlink:href="#DejaVuSans-34" x="63.623047"/>
       <use xlink:href="#DejaVuSans-30" x="127.246094"/>
       <use xlink:href="#DejaVuSans-30" x="190.869141"/>
       <use xlink:href="#DejaVuSans-30" x="254.492188"/>
      </g>
     </g>
    </g>
    <g id="ytick_3">
     <g id="line2d_15">
      <g>
       <use xlink:href="#m451d27752c" x="59.690625" y="147.566448" style="stroke: #000000; stroke-width: 0.8"/>
      </g>
     </g>
     <g id="text_16">
      <!-- 16000 -->
      <g transform="translate(20.878125 151.365667)scale(0.1 -0.1)">
       <use xlink:href="#DejaVuSans-31"/>
       <use xlink:href="#DejaVuSans-36" x="63.623047"/>
       <use xlink:href="#DejaVuSans-30" x="127.246094"/>
       <use xlink:href="#DejaVuSans-30" x="190.869141"/>
       <use xlink:href="#DejaVuSans-30" x="254.492188"/>
      </g>
     </g>
    </g>
    <g id="ytick_4">
     <g id="line2d_16">
      <g>
       <use xlink:href="#m451d27752c" x="59.690625" y="92.04519" style="stroke: #000000; stroke-width: 0.8"/>
      </g>
     </g>
     <g id="text_17">
      <!-- 18000 -->
      <g transform="translate(20.878125 95.844409)scale(0.1 -0.1)">
       <use xlink:href="#DejaVuSans-31"/>
       <use xlink:href="#DejaVuSans-38" x="63.623047"/>
       <use xlink:href="#DejaVuSans-30" x="127.246094"/>
       <use xlink:href="#DejaVuSans-30" x="190.869141"/>
       <use xlink:href="#DejaVuSans-30" x="254.492188"/>
      </g>
     </g>
    </g>
    <g id="ytick_5">
     <g id="line2d_17">
      <g>
       <use xlink:href="#m451d27752c" x="59.690625" y="36.523933" style="stroke: #000000; stroke-width: 0.8"/>
      </g>
     </g>
     <g id="text_18">
      <!-- 20000 -->
      <g transform="translate(20.878125 40.323152)scale(0.1 -0.1)">
       <use xlink:href="#DejaVuSans-32"/>
       <use xlink:href="#DejaVuSans-30" x="63.623047"/>
       <use xlink:href="#DejaVuSans-30" x="127.246094"/>
       <use xlink:href="#DejaVuSans-30" x="190.869141"/>
       <use xlink:href="#DejaVuSans-30" x="254.492188"/>
      </g>
     </g>
    </g>
    <g id="text_19">
     <!-- Code region coverage -->
     <g transform="translate(14.798438 210.379594)rotate(-90)scale(0.1 -0.1)">
      <defs>
       <path id="DejaVuSans-43" d="M 4122 4306 
L 4122 3641 
Q 3803 3938 3442 4084 
Q 3081 4231 2675 4231 
Q 1875 4231 1450 3742 
Q 1025 3253 1025 2328 
Q 1025 1406 1450 917 
Q 1875 428 2675 428 
Q 3081 428 3442 575 
Q 3803 722 4122 1019 
L 4122 359 
Q 3791 134 3420 21 
Q 3050 -91 2638 -91 
Q 1578 -91 968 557 
Q 359 1206 359 2328 
Q 359 3453 968 4101 
Q 1578 4750 2638 4750 
Q 3056 4750 3426 4639 
Q 3797 4528 4122 4306 
z
" transform="scale(0.015625)"/>
       <path id="DejaVuSans-64" d="M 2906 2969 
L 2906 4863 
L 3481 4863 
L 3481 0 
L 2906 0 
L 2906 525 
Q 2725 213 2448 61 
Q 2172 -91 1784 -91 
Q 1150 -91 751 415 
Q 353 922 353 1747 
Q 353 2572 751 3078 
Q 1150 3584 1784 3584 
Q 2172 3584 2448 3432 
Q 2725 3281 2906 2969 
z
M 947 1747 
Q 947 1113 1208 752 
Q 1469 391 1925 391 
Q 2381 391 2643 752 
Q 2906 1113 2906 1747 
Q 2906 2381 2643 2742 
Q 2381 3103 1925 3103 
Q 1469 3103 1208 2742 
Q 947 2381 947 1747 
z
" transform="scale(0.015625)"/>
       <path id="DejaVuSans-67" d="M 2906 1791 
Q 2906 2416 2648 2759 
Q 2391 3103 1925 3103 
Q 1463 3103 1205 2759 
Q 947 2416 947 1791 
Q 947 1169 1205 825 
Q 1463 481 1925 481 
Q 2391 481 2648 825 
Q 2906 1169 2906 1791 
z
M 3481 434 
Q 3481 -459 3084 -895 
Q 2688 -1331 1869 -1331 
Q 1566 -1331 1297 -1286 
Q 1028 -1241 775 -1147 
L 775 -588 
Q 1028 -725 1275 -790 
Q 1522 -856 1778 -856 
Q 2344 -856 2625 -561 
Q 2906 -266 2906 331 
L 2906 616 
Q 2728 306 2450 153 
Q 2172 0 1784 0 
Q 1141 0 747 490 
Q 353 981 353 1791 
Q 353 2603 747 3093 
Q 1141 3584 1784 3584 
Q 2172 3584 2450 3431 
Q 2728 3278 2906 2969 
L 2906 3500 
L 3481 3500 
L 3481 434 
z
" transform="scale(0.015625)"/>
       <path id="DejaVuSans-63" d="M 3122 3366 
L 3122 2828 
Q 2878 2963 2633 3030 
Q 2388 3097 2138 3097 
Q 1578 3097 1268 2742 
Q 959 2388 959 1747 
Q 959 1106 1268 751 
Q 1578 397 2138 397 
Q 2388 397 2633 464 
Q 2878 531 3122 666 
L 3122 134 
Q 2881 22 2623 -34 
Q 2366 -91 2075 -91 
Q 1284 -91 818 406 
Q 353 903 353 1747 
Q 353 2603 823 3093 
Q 1294 3584 2113 3584 
Q 2378 3584 2631 3529 
Q 2884 3475 3122 3366 
z
" transform="scale(0.015625)"/>
       <path id="DejaVuSans-76" d="M 191 3500 
L 800 3500 
L 1894 563 
L 2988 3500 
L 3597 3500 
L 2284 0 
L 1503 0 
L 191 3500 
z
" transform="scale(0.015625)"/>
       <path id="DejaVuSans-61" d="M 2194 1759 
Q 1497 1759 1228 1600 
Q 959 1441 959 1056 
Q 959 750 1161 570 
Q 1363 391 1709 391 
Q 2188 391 2477 730 
Q 2766 1069 2766 1631 
L 2766 1759 
L 2194 1759 
z
M 3341 1997 
L 3341 0 
L 2766 0 
L 2766 531 
Q 2569 213 2275 61 
Q 1981 -91 1556 -91 
Q 1019 -91 701 211 
Q 384 513 384 1019 
Q 384 1609 779 1909 
Q 1175 2209 1959 2209 
L 2766 2209 
L 2766 2266 
Q 2766 2663 2505 2880 
Q 2244 3097 1772 3097 
Q 1472 3097 1187 3025 
Q 903 2953 641 2809 
L 641 3341 
Q 956 3463 1253 3523 
Q 1550 3584 1831 3584 
Q 2591 3584 2966 3190 
Q 3341 2797 3341 1997 
z
" transform="scale(0.015625)"/>
      </defs>
      <use xlink:href="#DejaVuSans-43"/>
      <use xlink:href="#DejaVuSans-6f" x="69.824219"/>
      <use xlink:href="#DejaVuSans-64" x="131.005859"/>
      <use xlink:href="#DejaVuSans-65" x="194.482422"/>
      <use xlink:href="#DejaVuSans-20" x="256.005859"/>
      <use xlink:href="#DejaVuSans-72" x="287.792969"/>
      <use xlink:href="#DejaVuSans-65" x="326.65625"/>
      <use xlink:href="#DejaVuSans-67" x="388.179688"/>
      <use xlink:href="#DejaVuSans-69" x="451.65625"/>
      <use xlink:href="#DejaVuSans-6f" x="479.439453"/>
      <use xlink:href="#DejaVuSans-6e" x="540.621094"/>
      <use xlink:href="#DejaVuSans-20" x="604"/>
      <use xlink:href="#DejaVuSans-63" x="635.787109"/>
      <use xlink:href="#DejaVuSans-6f" x="690.767578"/>
      <use xlink:href="#DejaVuSans-76" x="751.949219"/>
      <use xlink:href="#DejaVuSans-65" x="811.128906"/>
      <use xlink:href="#DejaVuSans-72" x="872.652344"/>
      <use xlink:href="#DejaVuSans-61" x="913.765625"/>
      <use xlink:href="#DejaVuSans-67" x="975.044922"/>
      <use xlink:href="#DejaVuSans-65" x="1038.521484"/>
     </g>
    </g>
   </g>
   <g id="line2d_18">
    <path d="M 92.15608 242.341235 
L 132.737898 216.162962 
L 173.319716 194.121023 
L 213.901534 182.766926 
L 254.483352 177.631209 
L 295.06517 168.220356 
L 335.646989 160.169774 
L 376.228807 155.17286 
L 416.810625 147.316602 
L 457.392443 142.652817 
L 497.974261 140.071078 
L 538.55608 133.380767 
L 579.137898 124.441844 
L 619.719716 123.35918 
L 660.301534 121.832345 
L 700.883352 120.555356 
L 741.46517 89.36629 
" clip-path="url(#p2ba0bd6b8a)" style="fill: none; stroke: #2ca02c; stroke-width: 1.5; stroke-linecap: square"/>
    <defs>
     <path id="ma3bf8961f4" d="M 0 -3 
L -0.673542 -0.927051 
L -2.85317 -0.927051 
L -1.089814 0.354102 
L -1.763356 2.427051 
L -0 1.145898 
L 1.763356 2.427051 
L 1.089814 0.354102 
L 2.85317 -0.927051 
L 0.673542 -0.927051 
z
" style="stroke: #ffffff; stroke-width: 0.75; stroke-linejoin: bevel"/>
    </defs>
    <g clip-path="url(#p2ba0bd6b8a)">
     <use xlink:href="#ma3bf8961f4" x="92.15608" y="242.341235" style="fill: #2ca02c; stroke: #ffffff; stroke-width: 0.75; stroke-linejoin: bevel"/>
     <use xlink:href="#ma3bf8961f4" x="132.737898" y="216.162962" style="fill: #2ca02c; stroke: #ffffff; stroke-width: 0.75; stroke-linejoin: bevel"/>
     <use xlink:href="#ma3bf8961f4" x="173.319716" y="194.121023" style="fill: #2ca02c; stroke: #ffffff; stroke-width: 0.75; stroke-linejoin: bevel"/>
     <use xlink:href="#ma3bf8961f4" x="213.901534" y="182.766926" style="fill: #2ca02c; stroke: #ffffff; stroke-width: 0.75; stroke-linejoin: bevel"/>
     <use xlink:href="#ma3bf8961f4" x="254.483352" y="177.631209" style="fill: #2ca02c; stroke: #ffffff; stroke-width: 0.75; stroke-linejoin: bevel"/>
     <use xlink:href="#ma3bf8961f4" x="295.06517" y="168.220356" style="fill: #2ca02c; stroke: #ffffff; stroke-width: 0.75; stroke-linejoin: bevel"/>
     <use xlink:href="#ma3bf8961f4" x="335.646989" y="160.169774" style="fill: #2ca02c; stroke: #ffffff; stroke-width: 0.75; stroke-linejoin: bevel"/>
     <use xlink:href="#ma3bf8961f4" x="376.228807" y="155.17286" style="fill: #2ca02c; stroke: #ffffff; stroke-width: 0.75; stroke-linejoin: bevel"/>
     <use xlink:href="#ma3bf8961f4" x="416.810625" y="147.316602" style="fill: #2ca02c; stroke: #ffffff; stroke-width: 0.75; stroke-linejoin: bevel"/>
     <use xlink:href="#ma3bf8961f4" x="457.392443" y="142.652817" style="fill: #2ca02c; stroke: #ffffff; stroke-width: 0.75; stroke-linejoin: bevel"/>
     <use xlink:href="#ma3bf8961f4" x="497.974261" y="140.071078" style="fill: #2ca02c; stroke: #ffffff; stroke-width: 0.75; stroke-linejoin: bevel"/>
     <use xlink:href="#ma3bf8961f4" x="538.55608" y="133.380767" style="fill: #2ca02c; stroke: #ffffff; stroke-width: 0.75; stroke-linejoin: bevel"/>
     <use xlink:href="#ma3bf8961f4" x="579.137898" y="124.441844" style="fill: #2ca02c; stroke: #ffffff; stroke-width: 0.75; stroke-linejoin: bevel"/>
     <use xlink:href="#ma3bf8961f4" x="619.719716" y="123.35918" style="fill: #2ca02c; stroke: #ffffff; stroke-width: 0.75; stroke-linejoin: bevel"/>
     <use xlink:href="#ma3bf8961f4" x="660.301534" y="121.832345" style="fill: #2ca02c; stroke: #ffffff; stroke-width: 0.75; stroke-linejoin: bevel"/>
     <use xlink:href="#ma3bf8961f4" x="700.883352" y="120.555356" style="fill: #2ca02c; stroke: #ffffff; stroke-width: 0.75; stroke-linejoin: bevel"/>
     <use xlink:href="#ma3bf8961f4" x="741.46517" y="89.36629" style="fill: #2ca02c; stroke: #ffffff; stroke-width: 0.75; stroke-linejoin: bevel"/>
    </g>
   </g>
   <g id="line2d_19">
    <path d="M 92.15608 236.900152 
L 132.737898 207.737611 
L 173.319716 197.729904 
L 213.901534 189.498878 
L 254.483352 178.394626 
L 295.06517 163.820296 
L 335.646989 157.879522 
L 376.228807 140.529129 
L 416.810625 137.433819 
L 457.392443 126.412849 
L 497.974261 121.943388 
L 538.55608 116.641108 
L 579.137898 112.157766 
L 619.719716 104.773439 
L 660.301534 102.802434 
L 700.883352 100.928592 
L 741.46517 84.827427 
" clip-path="url(#p2ba0bd6b8a)" style="fill: none; stroke: #ff7f0e; stroke-width: 1.5; stroke-linecap: square"/>
    <defs>
     <path id="mff27b1007b" d="M 3 0 
L -3 -3 
L -3 3 
z
" style="stroke: #ffffff; stroke-width: 0.75; stroke-linejoin: miter"/>
    </defs>
    <g clip-path="url(#p2ba0bd6b8a)">
     <use xlink:href="#mff27b1007b" x="92.15608" y="236.900152" style="fill: #ff7f0e; stroke: #ffffff; stroke-width: 0.75; stroke-linejoin: miter"/>
     <use xlink:href="#mff27b1007b" x="132.737898" y="207.737611" style="fill: #ff7f0e; stroke: #ffffff; stroke-width: 0.75; stroke-linejoin: miter"/>
     <use xlink:href="#mff27b1007b" x="173.319716" y="197.729904" style="fill: #ff7f0e; stroke: #ffffff; stroke-width: 0.75; stroke-linejoin: miter"/>
     <use xlink:href="#mff27b1007b" x="213.901534" y="189.498878" style="fill: #ff7f0e; stroke: #ffffff; stroke-width: 0.75; stroke-linejoin: miter"/>
     <use xlink:href="#mff27b1007b" x="254.483352" y="178.394626" style="fill: #ff7f0e; stroke: #ffffff; stroke-width: 0.75; stroke-linejoin: miter"/>
     <use xlink:href="#mff27b1007b" x="295.06517" y="163.820296" style="fill: #ff7f0e; stroke: #ffffff; stroke-width: 0.75; stroke-linejoin: miter"/>
     <use xlink:href="#mff27b1007b" x="335.646989" y="157.879522" style="fill: #ff7f0e; stroke: #ffffff; stroke-width: 0.75; stroke-linejoin: miter"/>
     <use xlink:href="#mff27b1007b" x="376.228807" y="140.529129" style="fill: #ff7f0e; stroke: #ffffff; stroke-width: 0.75; stroke-linejoin: miter"/>
     <use xlink:href="#mff27b1007b" x="416.810625" y="137.433819" style="fill: #ff7f0e; stroke: #ffffff; stroke-width: 0.75; stroke-linejoin: miter"/>
     <use xlink:href="#mff27b1007b" x="457.392443" y="126.412849" style="fill: #ff7f0e; stroke: #ffffff; stroke-width: 0.75; stroke-linejoin: miter"/>
     <use xlink:href="#mff27b1007b" x="497.974261" y="121.943388" style="fill: #ff7f0e; stroke: #ffffff; stroke-width: 0.75; stroke-linejoin: miter"/>
     <use xlink:href="#mff27b1007b" x="538.55608" y="116.641108" style="fill: #ff7f0e; stroke: #ffffff; stroke-width: 0.75; stroke-linejoin: miter"/>
     <use xlink:href="#mff27b1007b" x="579.137898" y="112.157766" style="fill: #ff7f0e; stroke: #ffffff; stroke-width: 0.75; stroke-linejoin: miter"/>
     <use xlink:href="#mff27b1007b" x="619.719716" y="104.773439" style="fill: #ff7f0e; stroke: #ffffff; stroke-width: 0.75; stroke-linejoin: miter"/>
     <use xlink:href="#mff27b1007b" x="660.301534" y="102.802434" style="fill: #ff7f0e; stroke: #ffffff; stroke-width: 0.75; stroke-linejoin: miter"/>
     <use xlink:href="#mff27b1007b" x="700.883352" y="100.928592" style="fill: #ff7f0e; stroke: #ffffff; stroke-width: 0.75; stroke-linejoin: miter"/>
     <use xlink:href="#mff27b1007b" x="741.46517" y="84.827427" style="fill: #ff7f0e; stroke: #ffffff; stroke-width: 0.75; stroke-linejoin: miter"/>
    </g>
   </g>
   <g id="line2d_20">
    <path d="M 92.15608 244.714769 
L 132.737898 219.355434 
L 173.319716 198.021391 
L 213.901534 188.860384 
L 254.483352 173.328312 
L 295.06517 162.751512 
L 335.646989 152.591122 
L 376.228807 143.596678 
L 416.810625 135.379532 
L 457.392443 128.716981 
L 497.974261 122.05443 
L 538.55608 119.41717 
L 579.137898 117.140799 
L 619.719716 111.782998 
L 660.301534 103.538091 
L 700.883352 99.98473 
L 741.46517 97.902683 
" clip-path="url(#p2ba0bd6b8a)" style="fill: none; stroke: #98df8a; stroke-width: 1.5; stroke-linecap: square"/>
    <defs>
     <path id="md2ff6933b1" d="M -0 3 
L 3 -3 
L -3 -3 
z
" style="stroke: #ffffff; stroke-width: 0.75; stroke-linejoin: miter"/>
    </defs>
    <g clip-path="url(#p2ba0bd6b8a)">
     <use xlink:href="#md2ff6933b1" x="92.15608" y="244.714769" style="fill: #98df8a; stroke: #ffffff; stroke-width: 0.75; stroke-linejoin: miter"/>
     <use xlink:href="#md2ff6933b1" x="132.737898" y="219.355434" style="fill: #98df8a; stroke: #ffffff; stroke-width: 0.75; stroke-linejoin: miter"/>
     <use xlink:href="#md2ff6933b1" x="173.319716" y="198.021391" style="fill: #98df8a; stroke: #ffffff; stroke-width: 0.75; stroke-linejoin: miter"/>
     <use xlink:href="#md2ff6933b1" x="213.901534" y="188.860384" style="fill: #98df8a; stroke: #ffffff; stroke-width: 0.75; stroke-linejoin: miter"/>
     <use xlink:href="#md2ff6933b1" x="254.483352" y="173.328312" style="fill: #98df8a; stroke: #ffffff; stroke-width: 0.75; stroke-linejoin: miter"/>
     <use xlink:href="#md2ff6933b1" x="295.06517" y="162.751512" style="fill: #98df8a; stroke: #ffffff; stroke-width: 0.75; stroke-linejoin: miter"/>
     <use xlink:href="#md2ff6933b1" x="335.646989" y="152.591122" style="fill: #98df8a; stroke: #ffffff; stroke-width: 0.75; stroke-linejoin: miter"/>
     <use xlink:href="#md2ff6933b1" x="376.228807" y="143.596678" style="fill: #98df8a; stroke: #ffffff; stroke-width: 0.75; stroke-linejoin: miter"/>
     <use xlink:href="#md2ff6933b1" x="416.810625" y="135.379532" style="fill: #98df8a; stroke: #ffffff; stroke-width: 0.75; stroke-linejoin: miter"/>
     <use xlink:href="#md2ff6933b1" x="457.392443" y="128.716981" style="fill: #98df8a; stroke: #ffffff; stroke-width: 0.75; stroke-linejoin: miter"/>
     <use xlink:href="#md2ff6933b1" x="497.974261" y="122.05443" style="fill: #98df8a; stroke: #ffffff; stroke-width: 0.75; stroke-linejoin: miter"/>
     <use xlink:href="#md2ff6933b1" x="538.55608" y="119.41717" style="fill: #98df8a; stroke: #ffffff; stroke-width: 0.75; stroke-linejoin: miter"/>
     <use xlink:href="#md2ff6933b1" x="579.137898" y="117.140799" style="fill: #98df8a; stroke: #ffffff; stroke-width: 0.75; stroke-linejoin: miter"/>
     <use xlink:href="#md2ff6933b1" x="619.719716" y="111.782998" style="fill: #98df8a; stroke: #ffffff; stroke-width: 0.75; stroke-linejoin: miter"/>
     <use xlink:href="#md2ff6933b1" x="660.301534" y="103.538091" style="fill: #98df8a; stroke: #ffffff; stroke-width: 0.75; stroke-linejoin: miter"/>
     <use xlink:href="#md2ff6933b1" x="700.883352" y="99.98473" style="fill: #98df8a; stroke: #ffffff; stroke-width: 0.75; stroke-linejoin: miter"/>
     <use xlink:href="#md2ff6933b1" x="741.46517" y="97.902683" style="fill: #98df8a; stroke: #ffffff; stroke-width: 0.75; stroke-linejoin: miter"/>
    </g>
   </g>
   <g id="line2d_21">
    <path d="M 92.15608 236.095094 
L 132.737898 210.749639 
L 173.319716 194.828919 
L 213.901534 184.30764 
L 254.483352 162.918076 
L 295.06517 149.495812 
L 335.646989 145.123513 
L 376.228807 141.250905 
L 416.810625 139.182738 
L 457.392443 134.463431 
L 497.974261 128.397734 
L 538.55608 120.874604 
L 579.137898 111.311067 
L 619.719716 100.678746 
L 660.301534 93.863512 
L 700.883352 93.752469 
L 741.46517 91.15685 
" clip-path="url(#p2ba0bd6b8a)" style="fill: none; stroke: #ff9896; stroke-width: 1.5; stroke-linecap: square"/>
    <defs>
     <path id="mabb6c05b8b" d="M -1.14805 -2.771639 
L -2.771639 -1.14805 
L -2.771639 1.14805 
L -1.14805 2.771639 
L 1.14805 2.771639 
L 2.771639 1.14805 
L 2.771639 -1.14805 
L 1.14805 -2.771639 
z
" style="stroke: #ffffff; stroke-width: 0.75; stroke-linejoin: miter"/>
    </defs>
    <g clip-path="url(#p2ba0bd6b8a)">
     <use xlink:href="#mabb6c05b8b" x="92.15608" y="236.095094" style="fill: #ff9896; stroke: #ffffff; stroke-width: 0.75; stroke-linejoin: miter"/>
     <use xlink:href="#mabb6c05b8b" x="132.737898" y="210.749639" style="fill: #ff9896; stroke: #ffffff; stroke-width: 0.75; stroke-linejoin: miter"/>
     <use xlink:href="#mabb6c05b8b" x="173.319716" y="194.828919" style="fill: #ff9896; stroke: #ffffff; stroke-width: 0.75; stroke-linejoin: miter"/>
     <use xlink:href="#mabb6c05b8b" x="213.901534" y="184.30764" style="fill: #ff9896; stroke: #ffffff; stroke-width: 0.75; stroke-linejoin: miter"/>
     <use xlink:href="#mabb6c05b8b" x="254.483352" y="162.918076" style="fill: #ff9896; stroke: #ffffff; stroke-width: 0.75; stroke-linejoin: miter"/>
     <use xlink:href="#mabb6c05b8b" x="295.06517" y="149.495812" style="fill: #ff9896; stroke: #ffffff; stroke-width: 0.75; stroke-linejoin: miter"/>
     <use xlink:href="#mabb6c05b8b" x="335.646989" y="145.123513" style="fill: #ff9896; stroke: #ffffff; stroke-width: 0.75; stroke-linejoin: miter"/>
     <use xlink:href="#mabb6c05b8b" x="376.228807" y="141.250905" style="fill: #ff9896; stroke: #ffffff; stroke-width: 0.75; stroke-linejoin: miter"/>
     <use xlink:href="#mabb6c05b8b" x="416.810625" y="139.182738" style="fill: #ff9896; stroke: #ffffff; stroke-width: 0.75; stroke-linejoin: miter"/>
     <use xlink:href="#mabb6c05b8b" x="457.392443" y="134.463431" style="fill: #ff9896; stroke: #ffffff; stroke-width: 0.75; stroke-linejoin: miter"/>
     <use xlink:href="#mabb6c05b8b" x="497.974261" y="128.397734" style="fill: #ff9896; stroke: #ffffff; stroke-width: 0.75; stroke-linejoin: miter"/>
     <use xlink:href="#mabb6c05b8b" x="538.55608" y="120.874604" style="fill: #ff9896; stroke: #ffffff; stroke-width: 0.75; stroke-linejoin: miter"/>
     <use xlink:href="#mabb6c05b8b" x="579.137898" y="111.311067" style="fill: #ff9896; stroke: #ffffff; stroke-width: 0.75; stroke-linejoin: miter"/>
     <use xlink:href="#mabb6c05b8b" x="619.719716" y="100.678746" style="fill: #ff9896; stroke: #ffffff; stroke-width: 0.75; stroke-linejoin: miter"/>
     <use xlink:href="#mabb6c05b8b" x="660.301534" y="93.863512" style="fill: #ff9896; stroke: #ffffff; stroke-width: 0.75; stroke-linejoin: miter"/>
     <use xlink:href="#mabb6c05b8b" x="700.883352" y="93.752469" style="fill: #ff9896; stroke: #ffffff; stroke-width: 0.75; stroke-linejoin: miter"/>
     <use xlink:href="#mabb6c05b8b" x="741.46517" y="91.15685" style="fill: #ff9896; stroke: #ffffff; stroke-width: 0.75; stroke-linejoin: miter"/>
    </g>
   </g>
   <g id="line2d_22">
    <path d="M 92.15608 241.883185 
L 132.737898 220.5075 
L 173.319716 201.158342 
L 213.901534 189.235152 
L 254.483352 183.696907 
L 295.06517 174.369335 
L 335.646989 161.044233 
L 376.228807 151.938747 
L 416.810625 146.150656 
L 457.392443 138.83573 
L 497.974261 131.132156 
L 538.55608 127.120745 
L 579.137898 124.497366 
L 619.719716 115.114273 
L 660.301534 109.964676 
L 700.883352 104.870601 
L 741.46517 95.737354 
" clip-path="url(#p2ba0bd6b8a)" style="fill: none; stroke: #e377c2; stroke-width: 1.5; stroke-linecap: square"/>
    <defs>
     <path id="m7e14bfd58b" d="M -3 3 
L 3 3 
L 3 -3 
L -3 -3 
z
" style="stroke: #ffffff; stroke-width: 0.75; stroke-linejoin: miter"/>
    </defs>
    <g clip-path="url(#p2ba0bd6b8a)">
     <use xlink:href="#m7e14bfd58b" x="92.15608" y="241.883185" style="fill: #e377c2; stroke: #ffffff; stroke-width: 0.75; stroke-linejoin: miter"/>
     <use xlink:href="#m7e14bfd58b" x="132.737898" y="220.5075" style="fill: #e377c2; stroke: #ffffff; stroke-width: 0.75; stroke-linejoin: miter"/>
     <use xlink:href="#m7e14bfd58b" x="173.319716" y="201.158342" style="fill: #e377c2; stroke: #ffffff; stroke-width: 0.75; stroke-linejoin: miter"/>
     <use xlink:href="#m7e14bfd58b" x="213.901534" y="189.235152" style="fill: #e377c2; stroke: #ffffff; stroke-width: 0.75; stroke-linejoin: miter"/>
     <use xlink:href="#m7e14bfd58b" x="254.483352" y="183.696907" style="fill: #e377c2; stroke: #ffffff; stroke-width: 0.75; stroke-linejoin: miter"/>
     <use xlink:href="#m7e14bfd58b" x="295.06517" y="174.369335" style="fill: #e377c2; stroke: #ffffff; stroke-width: 0.75; stroke-linejoin: miter"/>
     <use xlink:href="#m7e14bfd58b" x="335.646989" y="161.044233" style="fill: #e377c2; stroke: #ffffff; stroke-width: 0.75; stroke-linejoin: miter"/>
     <use xlink:href="#m7e14bfd58b" x="376.228807" y="151.938747" style="fill: #e377c2; stroke: #ffffff; stroke-width: 0.75; stroke-linejoin: miter"/>
     <use xlink:href="#m7e14bfd58b" x="416.810625" y="146.150656" style="fill: #e377c2; stroke: #ffffff; stroke-width: 0.75; stroke-linejoin: miter"/>
     <use xlink:href="#m7e14bfd58b" x="457.392443" y="138.83573" style="fill: #e377c2; stroke: #ffffff; stroke-width: 0.75; stroke-linejoin: miter"/>
     <use xlink:href="#m7e14bfd58b" x="497.974261" y="131.132156" style="fill: #e377c2; stroke: #ffffff; stroke-width: 0.75; stroke-linejoin: miter"/>
     <use xlink:href="#m7e14bfd58b" x="538.55608" y="127.120745" style="fill: #e377c2; stroke: #ffffff; stroke-width: 0.75; stroke-linejoin: miter"/>
     <use xlink:href="#m7e14bfd58b" x="579.137898" y="124.497366" style="fill: #e377c2; stroke: #ffffff; stroke-width: 0.75; stroke-linejoin: miter"/>
     <use xlink:href="#m7e14bfd58b" x="619.719716" y="115.114273" style="fill: #e377c2; stroke: #ffffff; stroke-width: 0.75; stroke-linejoin: miter"/>
     <use xlink:href="#m7e14bfd58b" x="660.301534" y="109.964676" style="fill: #e377c2; stroke: #ffffff; stroke-width: 0.75; stroke-linejoin: miter"/>
     <use xlink:href="#m7e14bfd58b" x="700.883352" y="104.870601" style="fill: #e377c2; stroke: #ffffff; stroke-width: 0.75; stroke-linejoin: miter"/>
     <use xlink:href="#m7e14bfd58b" x="741.46517" y="95.737354" style="fill: #e377c2; stroke: #ffffff; stroke-width: 0.75; stroke-linejoin: miter"/>
    </g>
   </g>
   <g id="line2d_23">
    <path d="M 92.15608 230.64013 
L 132.737898 211.637979 
L 173.319716 192.122257 
L 213.901534 183.669146 
L 254.483352 171.898639 
L 295.06517 163.029118 
L 335.646989 158.865024 
L 376.228807 152.646643 
L 416.810625 146.414382 
L 457.392443 138.294398 
L 497.974261 134.171945 
L 538.55608 129.480398 
L 579.137898 123.83111 
L 619.719716 119.444931 
L 660.301534 115.572323 
L 700.883352 111.075102 
L 741.46517 106.14759 
" clip-path="url(#p2ba0bd6b8a)" style="fill: none; stroke: #1f77b4; stroke-width: 1.5; stroke-linecap: square"/>
    <defs>
     <path id="m8e957e7c95" d="M 0 3 
C 0.795609 3 1.55874 2.683901 2.12132 2.12132 
C 2.683901 1.55874 3 0.795609 3 0 
C 3 -0.795609 2.683901 -1.55874 2.12132 -2.12132 
C 1.55874 -2.683901 0.795609 -3 0 -3 
C -0.795609 -3 -1.55874 -2.683901 -2.12132 -2.12132 
C -2.683901 -1.55874 -3 -0.795609 -3 0 
C -3 0.795609 -2.683901 1.55874 -2.12132 2.12132 
C -1.55874 2.683901 -0.795609 3 0 3 
z
" style="stroke: #ffffff; stroke-width: 0.75"/>
    </defs>
    <g clip-path="url(#p2ba0bd6b8a)">
     <use xlink:href="#m8e957e7c95" x="92.15608" y="230.64013" style="fill: #1f77b4; stroke: #ffffff; stroke-width: 0.75"/>
     <use xlink:href="#m8e957e7c95" x="132.737898" y="211.637979" style="fill: #1f77b4; stroke: #ffffff; stroke-width: 0.75"/>
     <use xlink:href="#m8e957e7c95" x="173.319716" y="192.122257" style="fill: #1f77b4; stroke: #ffffff; stroke-width: 0.75"/>
     <use xlink:href="#m8e957e7c95" x="213.901534" y="183.669146" style="fill: #1f77b4; stroke: #ffffff; stroke-width: 0.75"/>
     <use xlink:href="#m8e957e7c95" x="254.483352" y="171.898639" style="fill: #1f77b4; stroke: #ffffff; stroke-width: 0.75"/>
     <use xlink:href="#m8e957e7c95" x="295.06517" y="163.029118" style="fill: #1f77b4; stroke: #ffffff; stroke-width: 0.75"/>
     <use xlink:href="#m8e957e7c95" x="335.646989" y="158.865024" style="fill: #1f77b4; stroke: #ffffff; stroke-width: 0.75"/>
     <use xlink:href="#m8e957e7c95" x="376.228807" y="152.646643" style="fill: #1f77b4; stroke: #ffffff; stroke-width: 0.75"/>
     <use xlink:href="#m8e957e7c95" x="416.810625" y="146.414382" style="fill: #1f77b4; stroke: #ffffff; stroke-width: 0.75"/>
     <use xlink:href="#m8e957e7c95" x="457.392443" y="138.294398" style="fill: #1f77b4; stroke: #ffffff; stroke-width: 0.75"/>
     <use xlink:href="#m8e957e7c95" x="497.974261" y="134.171945" style="fill: #1f77b4; stroke: #ffffff; stroke-width: 0.75"/>
     <use xlink:href="#m8e957e7c95" x="538.55608" y="129.480398" style="fill: #1f77b4; stroke: #ffffff; stroke-width: 0.75"/>
     <use xlink:href="#m8e957e7c95" x="579.137898" y="123.83111" style="fill: #1f77b4; stroke: #ffffff; stroke-width: 0.75"/>
     <use xlink:href="#m8e957e7c95" x="619.719716" y="119.444931" style="fill: #1f77b4; stroke: #ffffff; stroke-width: 0.75"/>
     <use xlink:href="#m8e957e7c95" x="660.301534" y="115.572323" style="fill: #1f77b4; stroke: #ffffff; stroke-width: 0.75"/>
     <use xlink:href="#m8e957e7c95" x="700.883352" y="111.075102" style="fill: #1f77b4; stroke: #ffffff; stroke-width: 0.75"/>
     <use xlink:href="#m8e957e7c95" x="741.46517" y="106.14759" style="fill: #1f77b4; stroke: #ffffff; stroke-width: 0.75"/>
    </g>
   </g>
   <g id="line2d_24">
    <path d="M 92.15608 259.386261 
L 132.737898 227.281094 
L 173.319716 216.357286 
L 213.901534 200.755813 
L 254.483352 190.387218 
L 295.06517 177.992097 
L 335.646989 173.480995 
L 376.228807 166.027266 
L 416.810625 160.516781 
L 457.392443 155.700312 
L 497.974261 149.898341 
L 538.55608 148.052259 
L 579.137898 144.873667 
L 619.719716 142.375211 
L 660.301534 132.922716 
L 700.883352 130.091132 
L 741.46517 127.439992 
" clip-path="url(#p2ba0bd6b8a)" style="fill: none; stroke: #d62728; stroke-width: 1.5; stroke-linecap: square"/>
    <defs>
     <path id="m1e1086bc54" d="M 0 -3 
L -3 3 
L 3 3 
z
" style="stroke: #ffffff; stroke-width: 0.75; stroke-linejoin: miter"/>
    </defs>
    <g clip-path="url(#p2ba0bd6b8a)">
     <use xlink:href="#m1e1086bc54" x="92.15608" y="259.386261" style="fill: #d62728; stroke: #ffffff; stroke-width: 0.75; stroke-linejoin: miter"/>
     <use xlink:href="#m1e1086bc54" x="132.737898" y="227.281094" style="fill: #d62728; stroke: #ffffff; stroke-width: 0.75; stroke-linejoin: miter"/>
     <use xlink:href="#m1e1086bc54" x="173.319716" y="216.357286" style="fill: #d62728; stroke: #ffffff; stroke-width: 0.75; stroke-linejoin: miter"/>
     <use xlink:href="#m1e1086bc54" x="213.901534" y="200.755813" style="fill: #d62728; stroke: #ffffff; stroke-width: 0.75; stroke-linejoin: miter"/>
     <use xlink:href="#m1e1086bc54" x="254.483352" y="190.387218" style="fill: #d62728; stroke: #ffffff; stroke-width: 0.75; stroke-linejoin: miter"/>
     <use xlink:href="#m1e1086bc54" x="295.06517" y="177.992097" style="fill: #d62728; stroke: #ffffff; stroke-width: 0.75; stroke-linejoin: miter"/>
     <use xlink:href="#m1e1086bc54" x="335.646989" y="173.480995" style="fill: #d62728; stroke: #ffffff; stroke-width: 0.75; stroke-linejoin: miter"/>
     <use xlink:href="#m1e1086bc54" x="376.228807" y="166.027266" style="fill: #d62728; stroke: #ffffff; stroke-width: 0.75; stroke-linejoin: miter"/>
     <use xlink:href="#m1e1086bc54" x="416.810625" y="160.516781" style="fill: #d62728; stroke: #ffffff; stroke-width: 0.75; stroke-linejoin: miter"/>
     <use xlink:href="#m1e1086bc54" x="457.392443" y="155.700312" style="fill: #d62728; stroke: #ffffff; stroke-width: 0.75; stroke-linejoin: miter"/>
     <use xlink:href="#m1e1086bc54" x="497.974261" y="149.898341" style="fill: #d62728; stroke: #ffffff; stroke-width: 0.75; stroke-linejoin: miter"/>
     <use xlink:href="#m1e1086bc54" x="538.55608" y="148.052259" style="fill: #d62728; stroke: #ffffff; stroke-width: 0.75; stroke-linejoin: miter"/>
     <use xlink:href="#m1e1086bc54" x="579.137898" y="144.873667" style="fill: #d62728; stroke: #ffffff; stroke-width: 0.75; stroke-linejoin: miter"/>
     <use xlink:href="#m1e1086bc54" x="619.719716" y="142.375211" style="fill: #d62728; stroke: #ffffff; stroke-width: 0.75; stroke-linejoin: miter"/>
     <use xlink:href="#m1e1086bc54" x="660.301534" y="132.922716" style="fill: #d62728; stroke: #ffffff; stroke-width: 0.75; stroke-linejoin: miter"/>
     <use xlink:href="#m1e1086bc54" x="700.883352" y="130.091132" style="fill: #d62728; stroke: #ffffff; stroke-width: 0.75; stroke-linejoin: miter"/>
     <use xlink:href="#m1e1086bc54" x="741.46517" y="127.439992" style="fill: #d62728; stroke: #ffffff; stroke-width: 0.75; stroke-linejoin: miter"/>
    </g>
   </g>
   <g id="line2d_25">
    <path d="M 92.15608 216.190723 
L 132.737898 196.563958 
L 173.319716 183.932872 
L 213.901534 177.048236 
L 254.483352 169.636148 
L 295.06517 166.249351 
L 335.646989 164.916841 
L 376.228807 161.502284 
L 416.810625 158.420854 
L 457.392443 153.146335 
L 497.974261 153.090813 
L 538.55608 151.813824 
L 579.137898 151.369654 
L 619.719716 150.75892 
L 660.301534 150.73116 
L 700.883352 150.73116 
L 741.46517 138.39156 
" clip-path="url(#p2ba0bd6b8a)" style="fill: none; stroke: #7f7f7f; stroke-width: 1.5; stroke-linecap: square"/>
    <defs>
     <path id="m7487968d43" d="M -1.5 -2.598076 
L -3 -0 
L -1.5 2.598076 
L 1.5 2.598076 
L 3 0 
L 1.5 -2.598076 
z
" style="stroke: #ffffff; stroke-width: 0.75; stroke-linejoin: miter"/>
    </defs>
    <g clip-path="url(#p2ba0bd6b8a)">
     <use xlink:href="#m7487968d43" x="92.15608" y="216.190723" style="fill: #7f7f7f; stroke: #ffffff; stroke-width: 0.75; stroke-linejoin: miter"/>
     <use xlink:href="#m7487968d43" x="132.737898" y="196.563958" style="fill: #7f7f7f; stroke: #ffffff; stroke-width: 0.75; stroke-linejoin: miter"/>
     <use xlink:href="#m7487968d43" x="173.319716" y="183.932872" style="fill: #7f7f7f; stroke: #ffffff; stroke-width: 0.75; stroke-linejoin: miter"/>
     <use xlink:href="#m7487968d43" x="213.901534" y="177.048236" style="fill: #7f7f7f; stroke: #ffffff; stroke-width: 0.75; stroke-linejoin: miter"/>
     <use xlink:href="#m7487968d43" x="254.483352" y="169.636148" style="fill: #7f7f7f; stroke: #ffffff; stroke-width: 0.75; stroke-linejoin: miter"/>
     <use xlink:href="#m7487968d43" x="295.06517" y="166.249351" style="fill: #7f7f7f; stroke: #ffffff; stroke-width: 0.75; stroke-linejoin: miter"/>
     <use xlink:href="#m7487968d43" x="335.646989" y="164.916841" style="fill: #7f7f7f; stroke: #ffffff; stroke-width: 0.75; stroke-linejoin: miter"/>
     <use xlink:href="#m7487968d43" x="376.228807" y="161.502284" style="fill: #7f7f7f; stroke: #ffffff; stroke-width: 0.75; stroke-linejoin: miter"/>
     <use xlink:href="#m7487968d43" x="416.810625" y="158.420854" style="fill: #7f7f7f; stroke: #ffffff; stroke-width: 0.75; stroke-linejoin: miter"/>
     <use xlink:href="#m7487968d43" x="457.392443" y="153.146335" style="fill: #7f7f7f; stroke: #ffffff; stroke-width: 0.75; stroke-linejoin: miter"/>
     <use xlink:href="#m7487968d43" x="497.974261" y="153.090813" style="fill: #7f7f7f; stroke: #ffffff; stroke-width: 0.75; stroke-linejoin: miter"/>
     <use xlink:href="#m7487968d43" x="538.55608" y="151.813824" style="fill: #7f7f7f; stroke: #ffffff; stroke-width: 0.75; stroke-linejoin: miter"/>
     <use xlink:href="#m7487968d43" x="579.137898" y="151.369654" style="fill: #7f7f7f; stroke: #ffffff; stroke-width: 0.75; stroke-linejoin: miter"/>
     <use xlink:href="#m7487968d43" x="619.719716" y="150.75892" style="fill: #7f7f7f; stroke: #ffffff; stroke-width: 0.75; stroke-linejoin: miter"/>
     <use xlink:href="#m7487968d43" x="660.301534" y="150.73116" style="fill: #7f7f7f; stroke: #ffffff; stroke-width: 0.75; stroke-linejoin: miter"/>
     <use xlink:href="#m7487968d43" x="700.883352" y="150.73116" style="fill: #7f7f7f; stroke: #ffffff; stroke-width: 0.75; stroke-linejoin: miter"/>
     <use xlink:href="#m7487968d43" x="741.46517" y="138.39156" style="fill: #7f7f7f; stroke: #ffffff; stroke-width: 0.75; stroke-linejoin: miter"/>
    </g>
   </g>
   <g id="line2d_26">
    <path d="M 92.15608 227.54482 
L 132.737898 200.811334 
L 173.319716 192.205539 
L 213.901534 187.930402 
L 254.483352 171.968041 
L 295.06517 167.387537 
L 335.646989 166.027266 
L 376.228807 164.583714 
L 416.810625 163.806416 
L 457.392443 162.418385 
L 497.974261 161.918693 
L 538.55608 158.309811 
L 579.137898 157.393711 
L 619.719716 154.034675 
L 660.301534 153.39618 
L 700.883352 152.480079 
L 741.46517 149.079402 
" clip-path="url(#p2ba0bd6b8a)" style="fill: none; stroke: #c5b0d5; stroke-width: 1.5; stroke-linecap: square"/>
    <defs>
     <path id="m5e4e186449" d="M 0 -3 
L -2.598076 -1.5 
L -2.598076 1.5 
L -0 3 
L 2.598076 1.5 
L 2.598076 -1.5 
z
" style="stroke: #ffffff; stroke-width: 0.75; stroke-linejoin: miter"/>
    </defs>
    <g clip-path="url(#p2ba0bd6b8a)">
     <use xlink:href="#m5e4e186449" x="92.15608" y="227.54482" style="fill: #c5b0d5; stroke: #ffffff; stroke-width: 0.75; stroke-linejoin: miter"/>
     <use xlink:href="#m5e4e186449" x="132.737898" y="200.811334" style="fill: #c5b0d5; stroke: #ffffff; stroke-width: 0.75; stroke-linejoin: miter"/>
     <use xlink:href="#m5e4e186449" x="173.319716" y="192.205539" style="fill: #c5b0d5; stroke: #ffffff; stroke-width: 0.75; stroke-linejoin: miter"/>
     <use xlink:href="#m5e4e186449" x="213.901534" y="187.930402" style="fill: #c5b0d5; stroke: #ffffff; stroke-width: 0.75; stroke-linejoin: miter"/>
     <use xlink:href="#m5e4e186449" x="254.483352" y="171.968041" style="fill: #c5b0d5; stroke: #ffffff; stroke-width: 0.75; stroke-linejoin: miter"/>
     <use xlink:href="#m5e4e186449" x="295.06517" y="167.387537" style="fill: #c5b0d5; stroke: #ffffff; stroke-width: 0.75; stroke-linejoin: miter"/>
     <use xlink:href="#m5e4e186449" x="335.646989" y="166.027266" style="fill: #c5b0d5; stroke: #ffffff; stroke-width: 0.75; stroke-linejoin: miter"/>
     <use xlink:href="#m5e4e186449" x="376.228807" y="164.583714" style="fill: #c5b0d5; stroke: #ffffff; stroke-width: 0.75; stroke-linejoin: miter"/>
     <use xlink:href="#m5e4e186449" x="416.810625" y="163.806416" style="fill: #c5b0d5; stroke: #ffffff; stroke-width: 0.75; stroke-linejoin: miter"/>
     <use xlink:href="#m5e4e186449" x="457.392443" y="162.418385" style="fill: #c5b0d5; stroke: #ffffff; stroke-width: 0.75; stroke-linejoin: miter"/>
     <use xlink:href="#m5e4e186449" x="497.974261" y="161.918693" style="fill: #c5b0d5; stroke: #ffffff; stroke-width: 0.75; stroke-linejoin: miter"/>
     <use xlink:href="#m5e4e186449" x="538.55608" y="158.309811" style="fill: #c5b0d5; stroke: #ffffff; stroke-width: 0.75; stroke-linejoin: miter"/>
     <use xlink:href="#m5e4e186449" x="579.137898" y="157.393711" style="fill: #c5b0d5; stroke: #ffffff; stroke-width: 0.75; stroke-linejoin: miter"/>
     <use xlink:href="#m5e4e186449" x="619.719716" y="154.034675" style="fill: #c5b0d5; stroke: #ffffff; stroke-width: 0.75; stroke-linejoin: miter"/>
     <use xlink:href="#m5e4e186449" x="660.301534" y="153.39618" style="fill: #c5b0d5; stroke: #ffffff; stroke-width: 0.75; stroke-linejoin: miter"/>
     <use xlink:href="#m5e4e186449" x="700.883352" y="152.480079" style="fill: #c5b0d5; stroke: #ffffff; stroke-width: 0.75; stroke-linejoin: miter"/>
     <use xlink:href="#m5e4e186449" x="741.46517" y="149.079402" style="fill: #c5b0d5; stroke: #ffffff; stroke-width: 0.75; stroke-linejoin: miter"/>
    </g>
   </g>
   <g id="line2d_27"/>
   <g id="line2d_28"/>
   <g id="line2d_29"/>
   <g id="line2d_30"/>
   <g id="line2d_31"/>
   <g id="line2d_32"/>
   <g id="line2d_33"/>
   <g id="line2d_34"/>
   <g id="line2d_35"/>
   <g id="line2d_36"/>
   <g id="line2d_37">
    <path d="M 741.46517 288.430125 
L 741.46517 22.318125 
" clip-path="url(#p2ba0bd6b8a)" style="fill: none; stroke: #ff0000; stroke-width: 1.5; stroke-linecap: square"/>
   </g>
   <g id="patch_3">
    <path d="M 59.690625 258.608963 
L 59.690625 36.523933 
" style="fill: none; stroke: #000000; stroke-width: 0.8; stroke-linejoin: miter; stroke-linecap: square"/>
   </g>
   <g id="patch_4">
    <path d="M 92.15608 288.430125 
L 724.55608 288.430125 
" style="fill: none; stroke: #000000; stroke-width: 0.8; stroke-linejoin: miter; stroke-linecap: square"/>
   </g>
   <g id="text_20">
    <!-- freetype2-2017 (4h:15m, 6 trials/fuzzer) -->
    <g transform="translate(295.731562 16.318125)scale(0.12 -0.12)">
     <defs>
      <path id="DejaVuSans-66" d="M 2375 4863 
L 2375 4384 
L 1825 4384 
Q 1516 4384 1395 4259 
Q 1275 4134 1275 3809 
L 1275 3500 
L 2222 3500 
L 2222 3053 
L 1275 3053 
L 1275 0 
L 697 0 
L 697 3053 
L 147 3053 
L 147 3500 
L 697 3500 
L 697 3744 
Q 697 4328 969 4595 
Q 1241 4863 1831 4863 
L 2375 4863 
z
" transform="scale(0.015625)"/>
      <path id="DejaVuSans-79" d="M 2059 -325 
Q 1816 -950 1584 -1140 
Q 1353 -1331 966 -1331 
L 506 -1331 
L 506 -850 
L 844 -850 
Q 1081 -850 1212 -737 
Q 1344 -625 1503 -206 
L 1606 56 
L 191 3500 
L 800 3500 
L 1894 763 
L 2988 3500 
L 3597 3500 
L 2059 -325 
z
" transform="scale(0.015625)"/>
      <path id="DejaVuSans-70" d="M 1159 525 
L 1159 -1331 
L 581 -1331 
L 581 3500 
L 1159 3500 
L 1159 2969 
Q 1341 3281 1617 3432 
Q 1894 3584 2278 3584 
Q 2916 3584 3314 3078 
Q 3713 2572 3713 1747 
Q 3713 922 3314 415 
Q 2916 -91 2278 -91 
Q 1894 -91 1617 61 
Q 1341 213 1159 525 
z
M 3116 1747 
Q 3116 2381 2855 2742 
Q 2594 3103 2138 3103 
Q 1681 3103 1420 2742 
Q 1159 2381 1159 1747 
Q 1159 1113 1420 752 
Q 1681 391 2138 391 
Q 2594 391 2855 752 
Q 3116 1113 3116 1747 
z
" transform="scale(0.015625)"/>
      <path id="DejaVuSans-2d" d="M 313 2009 
L 1997 2009 
L 1997 1497 
L 313 1497 
L 313 2009 
z
" transform="scale(0.015625)"/>
      <path id="DejaVuSans-2c" d="M 750 794 
L 1409 794 
L 1409 256 
L 897 -744 
L 494 -744 
L 750 256 
L 750 794 
z
" transform="scale(0.015625)"/>
      <path id="DejaVuSans-6c" d="M 603 4863 
L 1178 4863 
L 1178 0 
L 603 0 
L 603 4863 
z
" transform="scale(0.015625)"/>
      <path id="DejaVuSans-73" d="M 2834 3397 
L 2834 2853 
Q 2591 2978 2328 3040 
Q 2066 3103 1784 3103 
Q 1356 3103 1142 2972 
Q 928 2841 928 2578 
Q 928 2378 1081 2264 
Q 1234 2150 1697 2047 
L 1894 2003 
Q 2506 1872 2764 1633 
Q 3022 1394 3022 966 
Q 3022 478 2636 193 
Q 2250 -91 1575 -91 
Q 1294 -91 989 -36 
Q 684 19 347 128 
L 347 722 
Q 666 556 975 473 
Q 1284 391 1588 391 
Q 1994 391 2212 530 
Q 2431 669 2431 922 
Q 2431 1156 2273 1281 
Q 2116 1406 1581 1522 
L 1381 1569 
Q 847 1681 609 1914 
Q 372 2147 372 2553 
Q 372 3047 722 3315 
Q 1072 3584 1716 3584 
Q 2034 3584 2315 3537 
Q 2597 3491 2834 3397 
z
" transform="scale(0.015625)"/>
      <path id="DejaVuSans-2f" d="M 1625 4666 
L 2156 4666 
L 531 -594 
L 0 -594 
L 1625 4666 
z
" transform="scale(0.015625)"/>
      <path id="DejaVuSans-7a" d="M 353 3500 
L 3084 3500 
L 3084 2975 
L 922 459 
L 3084 459 
L 3084 0 
L 275 0 
L 275 525 
L 2438 3041 
L 353 3041 
L 353 3500 
z
" transform="scale(0.015625)"/>
     </defs>
     <use xlink:href="#DejaVuSans-66"/>
     <use xlink:href="#DejaVuSans-72" x="35.205078"/>
     <use xlink:href="#DejaVuSans-65" x="74.068359"/>
     <use xlink:href="#DejaVuSans-65" x="135.591797"/>
     <use xlink:href="#DejaVuSans-74" x="197.115234"/>
     <use xlink:href="#DejaVuSans-79" x="236.324219"/>
     <use xlink:href="#DejaVuSans-70" x="295.503906"/>
     <use xlink:href="#DejaVuSans-65" x="358.980469"/>
     <use xlink:href="#DejaVuSans-32" x="420.503906"/>
     <use xlink:href="#DejaVuSans-2d" x="484.126953"/>
     <use xlink:href="#DejaVuSans-32" x="520.210938"/>
     <use xlink:href="#DejaVuSans-30" x="583.833984"/>
     <use xlink:href="#DejaVuSans-31" x="647.457031"/>
     <use xlink:href="#DejaVuSans-37" x="711.080078"/>
     <use xlink:href="#DejaVuSans-20" x="774.703125"/>
     <use xlink:href="#DejaVuSans-28" x="806.490234"/>
     <use xlink:href="#DejaVuSans-34" x="845.503906"/>
     <use xlink:href="#DejaVuSans-68" x="909.126953"/>
     <use xlink:href="#DejaVuSans-3a" x="972.505859"/>
     <use xlink:href="#DejaVuSans-31" x="1006.197266"/>
     <use xlink:href="#DejaVuSans-35" x="1069.820312"/>
     <use xlink:href="#DejaVuSans-6d" x="1133.443359"/>
     <use xlink:href="#DejaVuSans-2c" x="1230.855469"/>
     <use xlink:href="#DejaVuSans-20" x="1262.642578"/>
     <use xlink:href="#DejaVuSans-36" x="1294.429688"/>
     <use xlink:href="#DejaVuSans-20" x="1358.052734"/>
     <use xlink:href="#DejaVuSans-74" x="1389.839844"/>
     <use xlink:href="#DejaVuSans-72" x="1429.048828"/>
     <use xlink:href="#DejaVuSans-69" x="1470.162109"/>
     <use xlink:href="#DejaVuSans-61" x="1497.945312"/>
     <use xlink:href="#DejaVuSans-6c" x="1559.224609"/>
     <use xlink:href="#DejaVuSans-73" x="1587.007812"/>
     <use xlink:href="#DejaVuSans-2f" x="1639.107422"/>
     <use xlink:href="#DejaVuSans-66" x="1672.798828"/>
     <use xlink:href="#DejaVuSans-75" x="1708.003906"/>
     <use xlink:href="#DejaVuSans-7a" x="1771.382812"/>
     <use xlink:href="#DejaVuSans-7a" x="1823.873047"/>
     <use xlink:href="#DejaVuSans-65" x="1876.363281"/>
     <use xlink:href="#DejaVuSans-72" x="1937.886719"/>
     <use xlink:href="#DejaVuSans-29" x="1979"/>
    </g>
   </g>
   <g id="legend_1">
    <g id="line2d_38">
     <path d="M 777.930625 30.416562 
L 787.930625 30.416562 
L 797.930625 30.416562 
" style="fill: none; stroke: #2ca02c; stroke-width: 1.5; stroke-linecap: square"/>
     <defs>
      <path id="m58dd81ea2c" d="M 0 -3 
L -0.673542 -0.927051 
L -2.85317 -0.927051 
L -1.089814 0.354102 
L -1.763356 2.427051 
L -0 1.145898 
L 1.763356 2.427051 
L 1.089814 0.354102 
L 2.85317 -0.927051 
L 0.673542 -0.927051 
z
" style="stroke: #2ca02c; stroke-linejoin: bevel"/>
     </defs>
     <g>
      <use xlink:href="#m58dd81ea2c" x="787.930625" y="30.416562" style="fill: #2ca02c; stroke: #2ca02c; stroke-linejoin: bevel"/>
     </g>
    </g>
    <g id="text_21">
     <!-- aflplusplus_ast_o3_native -->
     <g transform="translate(805.930625 33.916562)scale(0.1 -0.1)">
      <defs>
       <path id="DejaVuSans-5f" d="M 3263 -1063 
L 3263 -1509 
L -63 -1509 
L -63 -1063 
L 3263 -1063 
z
" transform="scale(0.015625)"/>
      </defs>
      <use xlink:href="#DejaVuSans-61"/>
      <use xlink:href="#DejaVuSans-66" x="61.279297"/>
      <use xlink:href="#DejaVuSans-6c" x="96.484375"/>
      <use xlink:href="#DejaVuSans-70" x="124.267578"/>
      <use xlink:href="#DejaVuSans-6c" x="187.744141"/>
      <use xlink:href="#DejaVuSans-75" x="215.527344"/>
      <use xlink:href="#DejaVuSans-73" x="278.90625"/>
      <use xlink:href="#DejaVuSans-70" x="331.005859"/>
      <use xlink:href="#DejaVuSans-6c" x="394.482422"/>
      <use xlink:href="#DejaVuSans-75" x="422.265625"/>
      <use xlink:href="#DejaVuSans-73" x="485.644531"/>
      <use xlink:href="#DejaVuSans-5f" x="537.744141"/>
      <use xlink:href="#DejaVuSans-61" x="587.744141"/>
      <use xlink:href="#DejaVuSans-73" x="649.023438"/>
      <use xlink:href="#DejaVuSans-74" x="701.123047"/>
      <use xlink:href="#DejaVuSans-5f" x="740.332031"/>
      <use xlink:href="#DejaVuSans-6f" x="790.332031"/>
      <use xlink:href="#DejaVuSans-33" x="851.513672"/>
      <use xlink:href="#DejaVuSans-5f" x="915.136719"/>
      <use xlink:href="#DejaVuSans-6e" x="965.136719"/>
      <use xlink:href="#DejaVuSans-61" x="1028.515625"/>
      <use xlink:href="#DejaVuSans-74" x="1089.794922"/>
      <use xlink:href="#DejaVuSans-69" x="1129.003906"/>
      <use xlink:href="#DejaVuSans-76" x="1156.787109"/>
      <use xlink:href="#DejaVuSans-65" x="1215.966797"/>
     </g>
    </g>
    <g id="line2d_39">
     <path d="M 777.930625 45.372813 
L 787.930625 45.372813 
L 797.930625 45.372813 
" style="fill: none; stroke: #ff7f0e; stroke-width: 1.5; stroke-linecap: square"/>
     <defs>
      <path id="mfc996fc716" d="M 3 0 
L -3 -3 
L -3 3 
z
" style="stroke: #ff7f0e; stroke-linejoin: miter"/>
     </defs>
     <g>
      <use xlink:href="#mfc996fc716" x="787.930625" y="45.372813" style="fill: #ff7f0e; stroke: #ff7f0e; stroke-linejoin: miter"/>
     </g>
    </g>
    <g id="text_22">
     <!-- aflplusplus_ast_o1 -->
     <g transform="translate(805.930625 48.872813)scale(0.1 -0.1)">
      <use xlink:href="#DejaVuSans-61"/>
      <use xlink:href="#DejaVuSans-66" x="61.279297"/>
      <use xlink:href="#DejaVuSans-6c" x="96.484375"/>
      <use xlink:href="#DejaVuSans-70" x="124.267578"/>
      <use xlink:href="#DejaVuSans-6c" x="187.744141"/>
      <use xlink:href="#DejaVuSans-75" x="215.527344"/>
      <use xlink:href="#DejaVuSans-73" x="278.90625"/>
      <use xlink:href="#DejaVuSans-70" x="331.005859"/>
      <use xlink:href="#DejaVuSans-6c" x="394.482422"/>
      <use xlink:href="#DejaVuSans-75" x="422.265625"/>
      <use xlink:href="#DejaVuSans-73" x="485.644531"/>
      <use xlink:href="#DejaVuSans-5f" x="537.744141"/>
      <use xlink:href="#DejaVuSans-61" x="587.744141"/>
      <use xlink:href="#DejaVuSans-73" x="649.023438"/>
      <use xlink:href="#DejaVuSans-74" x="701.123047"/>
      <use xlink:href="#DejaVuSans-5f" x="740.332031"/>
      <use xlink:href="#DejaVuSans-6f" x="790.332031"/>
      <use xlink:href="#DejaVuSans-31" x="851.513672"/>
     </g>
    </g>
    <g id="line2d_40">
     <path d="M 777.930625 60.329063 
L 787.930625 60.329063 
L 797.930625 60.329063 
" style="fill: none; stroke: #98df8a; stroke-width: 1.5; stroke-linecap: square"/>
     <defs>
      <path id="mb5f8ee1aec" d="M -0 3 
L 3 -3 
L -3 -3 
z
" style="stroke: #98df8a; stroke-linejoin: miter"/>
     </defs>
     <g>
      <use xlink:href="#mb5f8ee1aec" x="787.930625" y="60.329063" style="fill: #98df8a; stroke: #98df8a; stroke-linejoin: miter"/>
     </g>
    </g>
    <g id="text_23">
     <!-- aflplusplus_ast_f1 -->
     <g transform="translate(805.930625 63.829063)scale(0.1 -0.1)">
      <use xlink:href="#DejaVuSans-61"/>
      <use xlink:href="#DejaVuSans-66" x="61.279297"/>
      <use xlink:href="#DejaVuSans-6c" x="96.484375"/>
      <use xlink:href="#DejaVuSans-70" x="124.267578"/>
      <use xlink:href="#DejaVuSans-6c" x="187.744141"/>
      <use xlink:href="#DejaVuSans-75" x="215.527344"/>
      <use xlink:href="#DejaVuSans-73" x="278.90625"/>
      <use xlink:href="#DejaVuSans-70" x="331.005859"/>
      <use xlink:href="#DejaVuSans-6c" x="394.482422"/>
      <use xlink:href="#DejaVuSans-75" x="422.265625"/>
      <use xlink:href="#DejaVuSans-73" x="485.644531"/>
      <use xlink:href="#DejaVuSans-5f" x="537.744141"/>
      <use xlink:href="#DejaVuSans-61" x="587.744141"/>
      <use xlink:href="#DejaVuSans-73" x="649.023438"/>
      <use xlink:href="#DejaVuSans-74" x="701.123047"/>
      <use xlink:href="#DejaVuSans-5f" x="740.332031"/>
      <use xlink:href="#DejaVuSans-66" x="790.332031"/>
      <use xlink:href="#DejaVuSans-31" x="825.537109"/>
     </g>
    </g>
    <g id="line2d_41">
     <path d="M 777.930625 75.285313 
L 787.930625 75.285313 
L 797.930625 75.285313 
" style="fill: none; stroke: #ff9896; stroke-width: 1.5; stroke-linecap: square"/>
     <defs>
      <path id="mae2c43c0fc" d="M -1.14805 -2.771639 
L -2.771639 -1.14805 
L -2.771639 1.14805 
L -1.14805 2.771639 
L 1.14805 2.771639 
L 2.771639 1.14805 
L 2.771639 -1.14805 
L 1.14805 -2.771639 
z
" style="stroke: #ff9896; stroke-linejoin: miter"/>
     </defs>
     <g>
      <use xlink:href="#mae2c43c0fc" x="787.930625" y="75.285313" style="fill: #ff9896; stroke: #ff9896; stroke-linejoin: miter"/>
     </g>
    </g>
    <g id="text_24">
     <!-- aflplusplus_ast_o2 -->
     <g transform="translate(805.930625 78.785313)scale(0.1 -0.1)">
      <use xlink:href="#DejaVuSans-61"/>
      <use xlink:href="#DejaVuSans-66" x="61.279297"/>
      <use xlink:href="#DejaVuSans-6c" x="96.484375"/>
      <use xlink:href="#DejaVuSans-70" x="124.267578"/>
      <use xlink:href="#DejaVuSans-6c" x="187.744141"/>
      <use xlink:href="#DejaVuSans-75" x="215.527344"/>
      <use xlink:href="#DejaVuSans-73" x="278.90625"/>
      <use xlink:href="#DejaVuSans-70" x="331.005859"/>
      <use xlink:href="#DejaVuSans-6c" x="394.482422"/>
      <use xlink:href="#DejaVuSans-75" x="422.265625"/>
      <use xlink:href="#DejaVuSans-73" x="485.644531"/>
      <use xlink:href="#DejaVuSans-5f" x="537.744141"/>
      <use xlink:href="#DejaVuSans-61" x="587.744141"/>
      <use xlink:href="#DejaVuSans-73" x="649.023438"/>
      <use xlink:href="#DejaVuSans-74" x="701.123047"/>
      <use xlink:href="#DejaVuSans-5f" x="740.332031"/>
      <use xlink:href="#DejaVuSans-6f" x="790.332031"/>
      <use xlink:href="#DejaVuSans-32" x="851.513672"/>
     </g>
    </g>
    <g id="line2d_42">
     <path d="M 777.930625 90.241563 
L 787.930625 90.241563 
L 797.930625 90.241563 
" style="fill: none; stroke: #e377c2; stroke-width: 1.5; stroke-linecap: square"/>
     <defs>
      <path id="ma882d91fc3" d="M -3 3 
L 3 3 
L 3 -3 
L -3 -3 
z
" style="stroke: #e377c2; stroke-linejoin: miter"/>
     </defs>
     <g>
      <use xlink:href="#ma882d91fc3" x="787.930625" y="90.241563" style="fill: #e377c2; stroke: #e377c2; stroke-linejoin: miter"/>
     </g>
    </g>
    <g id="text_25">
     <!-- aflplusplus_ast_o3 -->
     <g transform="translate(805.930625 93.741563)scale(0.1 -0.1)">
      <use xlink:href="#DejaVuSans-61"/>
      <use xlink:href="#DejaVuSans-66" x="61.279297"/>
      <use xlink:href="#DejaVuSans-6c" x="96.484375"/>
      <use xlink:href="#DejaVuSans-70" x="124.267578"/>
      <use xlink:href="#DejaVuSans-6c" x="187.744141"/>
      <use xlink:href="#DejaVuSans-75" x="215.527344"/>
      <use xlink:href="#DejaVuSans-73" x="278.90625"/>
      <use xlink:href="#DejaVuSans-70" x="331.005859"/>
      <use xlink:href="#DejaVuSans-6c" x="394.482422"/>
      <use xlink:href="#DejaVuSans-75" x="422.265625"/>
      <use xlink:href="#DejaVuSans-73" x="485.644531"/>
      <use xlink:href="#DejaVuSans-5f" x="537.744141"/>
      <use xlink:href="#DejaVuSans-61" x="587.744141"/>
      <use xlink:href="#DejaVuSans-73" x="649.023438"/>
      <use xlink:href="#DejaVuSans-74" x="701.123047"/>
      <use xlink:href="#DejaVuSans-5f" x="740.332031"/>
      <use xlink:href="#DejaVuSans-6f" x="790.332031"/>
      <use xlink:href="#DejaVuSans-33" x="851.513672"/>
     </g>
    </g>
    <g id="line2d_43">
     <path d="M 777.930625 105.197812 
L 787.930625 105.197812 
L 797.930625 105.197812 
" style="fill: none; stroke: #1f77b4; stroke-width: 1.5; stroke-linecap: square"/>
     <defs>
      <path id="md11116ab8d" d="M 0 3 
C 0.795609 3 1.55874 2.683901 2.12132 2.12132 
C 2.683901 1.55874 3 0.795609 3 0 
C 3 -0.795609 2.683901 -1.55874 2.12132 -2.12132 
C 1.55874 -2.683901 0.795609 -3 0 -3 
C -0.795609 -3 -1.55874 -2.683901 -2.12132 -2.12132 
C -2.683901 -1.55874 -3 -0.795609 -3 0 
C -3 0.795609 -2.683901 1.55874 -2.12132 2.12132 
C -1.55874 2.683901 -0.795609 3 0 3 
z
" style="stroke: #1f77b4"/>
     </defs>
     <g>
      <use xlink:href="#md11116ab8d" x="787.930625" y="105.197812" style="fill: #1f77b4; stroke: #1f77b4"/>
     </g>
    </g>
    <g id="text_26">
     <!-- aflplusplus_ast_f0 -->
     <g transform="translate(805.930625 108.697812)scale(0.1 -0.1)">
      <use xlink:href="#DejaVuSans-61"/>
      <use xlink:href="#DejaVuSans-66" x="61.279297"/>
      <use xlink:href="#DejaVuSans-6c" x="96.484375"/>
      <use xlink:href="#DejaVuSans-70" x="124.267578"/>
      <use xlink:href="#DejaVuSans-6c" x="187.744141"/>
      <use xlink:href="#DejaVuSans-75" x="215.527344"/>
      <use xlink:href="#DejaVuSans-73" x="278.90625"/>
      <use xlink:href="#DejaVuSans-70" x="331.005859"/>
      <use xlink:href="#DejaVuSans-6c" x="394.482422"/>
      <use xlink:href="#DejaVuSans-75" x="422.265625"/>
      <use xlink:href="#DejaVuSans-73" x="485.644531"/>
      <use xlink:href="#DejaVuSans-5f" x="537.744141"/>
      <use xlink:href="#DejaVuSans-61" x="587.744141"/>
      <use xlink:href="#DejaVuSans-73" x="649.023438"/>
      <use xlink:href="#DejaVuSans-74" x="701.123047"/>
      <use xlink:href="#DejaVuSans-5f" x="740.332031"/>
      <use xlink:href="#DejaVuSans-66" x="790.332031"/>
      <use xlink:href="#DejaVuSans-30" x="825.537109"/>
     </g>
    </g>
    <g id="line2d_44">
     <path d="M 777.930625 120.154063 
L 787.930625 120.154063 
L 797.930625 120.154063 
" style="fill: none; stroke: #d62728; stroke-width: 1.5; stroke-linecap: square"/>
     <defs>
      <path id="mac5e91dca9" d="M 0 -3 
L -3 3 
L 3 3 
z
" style="stroke: #d62728; stroke-linejoin: miter"/>
     </defs>
     <g>
      <use xlink:href="#mac5e91dca9" x="787.930625" y="120.154063" style="fill: #d62728; stroke: #d62728; stroke-linejoin: miter"/>
     </g>
    </g>
    <g id="text_27">
     <!-- aflplusplus_ast_o0 -->
     <g transform="translate(805.930625 123.654063)scale(0.1 -0.1)">
      <use xlink:href="#DejaVuSans-61"/>
      <use xlink:href="#DejaVuSans-66" x="61.279297"/>
      <use xlink:href="#DejaVuSans-6c" x="96.484375"/>
      <use xlink:href="#DejaVuSans-70" x="124.267578"/>
      <use xlink:href="#DejaVuSans-6c" x="187.744141"/>
      <use xlink:href="#DejaVuSans-75" x="215.527344"/>
      <use xlink:href="#DejaVuSans-73" x="278.90625"/>
      <use xlink:href="#DejaVuSans-70" x="331.005859"/>
      <use xlink:href="#DejaVuSans-6c" x="394.482422"/>
      <use xlink:href="#DejaVuSans-75" x="422.265625"/>
      <use xlink:href="#DejaVuSans-73" x="485.644531"/>
      <use xlink:href="#DejaVuSans-5f" x="537.744141"/>
      <use xlink:href="#DejaVuSans-61" x="587.744141"/>
      <use xlink:href="#DejaVuSans-73" x="649.023438"/>
      <use xlink:href="#DejaVuSans-74" x="701.123047"/>
      <use xlink:href="#DejaVuSans-5f" x="740.332031"/>
      <use xlink:href="#DejaVuSans-6f" x="790.332031"/>
      <use xlink:href="#DejaVuSans-30" x="851.513672"/>
     </g>
    </g>
    <g id="line2d_45">
     <path d="M 777.930625 135.110313 
L 787.930625 135.110313 
L 797.930625 135.110313 
" style="fill: none; stroke: #7f7f7f; stroke-width: 1.5; stroke-linecap: square"/>
     <defs>
      <path id="mc8476cbbf6" d="M -1.5 -2.598076 
L -3 -0 
L -1.5 2.598076 
L 1.5 2.598076 
L 3 0 
L 1.5 -2.598076 
z
" style="stroke: #7f7f7f; stroke-linejoin: miter"/>
     </defs>
     <g>
      <use xlink:href="#mc8476cbbf6" x="787.930625" y="135.110313" style="fill: #7f7f7f; stroke: #7f7f7f; stroke-linejoin: miter"/>
     </g>
    </g>
    <g id="text_28">
     <!-- aflplusplus_ast_opt_l1 -->
     <g transform="translate(805.930625 138.610313)scale(0.1 -0.1)">
      <use xlink:href="#DejaVuSans-61"/>
      <use xlink:href="#DejaVuSans-66" x="61.279297"/>
      <use xlink:href="#DejaVuSans-6c" x="96.484375"/>
      <use xlink:href="#DejaVuSans-70" x="124.267578"/>
      <use xlink:href="#DejaVuSans-6c" x="187.744141"/>
      <use xlink:href="#DejaVuSans-75" x="215.527344"/>
      <use xlink:href="#DejaVuSans-73" x="278.90625"/>
      <use xlink:href="#DejaVuSans-70" x="331.005859"/>
      <use xlink:href="#DejaVuSans-6c" x="394.482422"/>
      <use xlink:href="#DejaVuSans-75" x="422.265625"/>
      <use xlink:href="#DejaVuSans-73" x="485.644531"/>
      <use xlink:href="#DejaVuSans-5f" x="537.744141"/>
      <use xlink:href="#DejaVuSans-61" x="587.744141"/>
      <use xlink:href="#DejaVuSans-73" x="649.023438"/>
      <use xlink:href="#DejaVuSans-74" x="701.123047"/>
      <use xlink:href="#DejaVuSans-5f" x="740.332031"/>
      <use xlink:href="#DejaVuSans-6f" x="790.332031"/>
      <use xlink:href="#DejaVuSans-70" x="851.513672"/>
      <use xlink:href="#DejaVuSans-74" x="914.990234"/>
      <use xlink:href="#DejaVuSans-5f" x="954.199219"/>
      <use xlink:href="#DejaVuSans-6c" x="1004.199219"/>
      <use xlink:href="#DejaVuSans-31" x="1031.982422"/>
     </g>
    </g>
    <g id="line2d_46">
     <path d="M 777.930625 150.066563 
L 787.930625 150.066563 
L 797.930625 150.066563 
" style="fill: none; stroke: #c5b0d5; stroke-width: 1.5; stroke-linecap: square"/>
     <defs>
      <path id="mbb0ffd4e3c" d="M 0 -3 
L -2.598076 -1.5 
L -2.598076 1.5 
L -0 3 
L 2.598076 1.5 
L 2.598076 -1.5 
z
" style="stroke: #c5b0d5; stroke-linejoin: miter"/>
     </defs>
     <g>
      <use xlink:href="#mbb0ffd4e3c" x="787.930625" y="150.066563" style="fill: #c5b0d5; stroke: #c5b0d5; stroke-linejoin: miter"/>
     </g>
    </g>
    <g id="text_29">
     <!-- aflplusplus_ast_opt_disable -->
     <g transform="translate(805.930625 153.566563)scale(0.1 -0.1)">
      <defs>
       <path id="DejaVuSans-62" d="M 3116 1747 
Q 3116 2381 2855 2742 
Q 2594 3103 2138 3103 
Q 1681 3103 1420 2742 
Q 1159 2381 1159 1747 
Q 1159 1113 1420 752 
Q 1681 391 2138 391 
Q 2594 391 2855 752 
Q 3116 1113 3116 1747 
z
M 1159 2969 
Q 1341 3281 1617 3432 
Q 1894 3584 2278 3584 
Q 2916 3584 3314 3078 
Q 3713 2572 3713 1747 
Q 3713 922 3314 415 
Q 2916 -91 2278 -91 
Q 1894 -91 1617 61 
Q 1341 213 1159 525 
L 1159 0 
L 581 0 
L 581 4863 
L 1159 4863 
L 1159 2969 
z
" transform="scale(0.015625)"/>
      </defs>
      <use xlink:href="#DejaVuSans-61"/>
      <use xlink:href="#DejaVuSans-66" x="61.279297"/>
      <use xlink:href="#DejaVuSans-6c" x="96.484375"/>
      <use xlink:href="#DejaVuSans-70" x="124.267578"/>
      <use xlink:href="#DejaVuSans-6c" x="187.744141"/>
      <use xlink:href="#DejaVuSans-75" x="215.527344"/>
      <use xlink:href="#DejaVuSans-73" x="278.90625"/>
      <use xlink:href="#DejaVuSans-70" x="331.005859"/>
      <use xlink:href="#DejaVuSans-6c" x="394.482422"/>
      <use xlink:href="#DejaVuSans-75" x="422.265625"/>
      <use xlink:href="#DejaVuSans-73" x="485.644531"/>
      <use xlink:href="#DejaVuSans-5f" x="537.744141"/>
      <use xlink:href="#DejaVuSans-61" x="587.744141"/>
      <use xlink:href="#DejaVuSans-73" x="649.023438"/>
      <use xlink:href="#DejaVuSans-74" x="701.123047"/>
      <use xlink:href="#DejaVuSans-5f" x="740.332031"/>
      <use xlink:href="#DejaVuSans-6f" x="790.332031"/>
      <use xlink:href="#DejaVuSans-70" x="851.513672"/>
      <use xlink:href="#DejaVuSans-74" x="914.990234"/>
      <use xlink:href="#DejaVuSans-5f" x="954.199219"/>
      <use xlink:href="#DejaVuSans-64" x="1004.199219"/>
      <use xlink:href="#DejaVuSans-69" x="1067.675781"/>
      <use xlink:href="#DejaVuSans-73" x="1095.458984"/>
      <use xlink:href="#DejaVuSans-61" x="1147.558594"/>
      <use xlink:href="#DejaVuSans-62" x="1208.837891"/>
      <use xlink:href="#DejaVuSans-6c" x="1272.314453"/>
      <use xlink:href="#DejaVuSans-65" x="1300.097656"/>
     </g>
    </g>
    <g id="line2d_47">
     <path d="M 777.930625 165.022812 
L 787.930625 165.022812 
L 797.930625 165.022812 
" style="fill: none; stroke: #333333; stroke-width: 1.5; stroke-linecap: square"/>
     <defs>
      <path id="m0ae0c4d285" d="M 0 -3 
L -2.85317 -0.927051 
L -1.763356 2.427051 
L 1.763356 2.427051 
L 2.85317 -0.927051 
z
" style="stroke: #333333; stroke-linejoin: miter"/>
     </defs>
     <g>
      <use xlink:href="#m0ae0c4d285" x="787.930625" y="165.022812" style="fill: #333333; stroke: #333333; stroke-linejoin: miter"/>
     </g>
    </g>
    <g id="text_30">
     <!-- aflplusplus_ast_o3_lto -->
     <g transform="translate(805.930625 168.522812)scale(0.1 -0.1)">
      <use xlink:href="#DejaVuSans-61"/>
      <use xlink:href="#DejaVuSans-66" x="61.279297"/>
      <use xlink:href="#DejaVuSans-6c" x="96.484375"/>
      <use xlink:href="#DejaVuSans-70" x="124.267578"/>
      <use xlink:href="#DejaVuSans-6c" x="187.744141"/>
      <use xlink:href="#DejaVuSans-75" x="215.527344"/>
      <use xlink:href="#DejaVuSans-73" x="278.90625"/>
      <use xlink:href="#DejaVuSans-70" x="331.005859"/>
      <use xlink:href="#DejaVuSans-6c" x="394.482422"/>
      <use xlink:href="#DejaVuSans-75" x="422.265625"/>
      <use xlink:href="#DejaVuSans-73" x="485.644531"/>
      <use xlink:href="#DejaVuSans-5f" x="537.744141"/>
      <use xlink:href="#DejaVuSans-61" x="587.744141"/>
      <use xlink:href="#DejaVuSans-73" x="649.023438"/>
      <use xlink:href="#DejaVuSans-74" x="701.123047"/>
      <use xlink:href="#DejaVuSans-5f" x="740.332031"/>
      <use xlink:href="#DejaVuSans-6f" x="790.332031"/>
      <use xlink:href="#DejaVuSans-33" x="851.513672"/>
      <use xlink:href="#DejaVuSans-5f" x="915.136719"/>
      <use xlink:href="#DejaVuSans-6c" x="965.136719"/>
      <use xlink:href="#DejaVuSans-74" x="992.919922"/>
      <use xlink:href="#DejaVuSans-6f" x="1032.128906"/>
     </g>
    </g>
   </g>
  </g>
 </g>
 <defs>
  <clipPath id="p2ba0bd6b8a">
   <rect x="59.690625" y="22.318125" width="714.24" height="266.112"/>
  </clipPath>
 </defs>
</svg>
