<?xml version="1.0" encoding="utf-8" standalone="no"?>
<!DOCTYPE svg PUBLIC "-//W3C//DTD SVG 1.1//EN"
  "http://www.w3.org/Graphics/SVG/1.1/DTD/svg11.dtd">
<svg xmlns:xlink="http://www.w3.org/1999/xlink" width="435.910275pt" height="393.011865pt" viewBox="0 0 435.910275 393.011865" xmlns="http://www.w3.org/2000/svg" version="1.1">
 <metadata>
  <rdf:RDF xmlns:dc="http://purl.org/dc/elements/1.1/" xmlns:cc="http://creativecommons.org/ns#" xmlns:rdf="http://www.w3.org/1999/02/22-rdf-syntax-ns#">
   <cc:Work>
    <dc:type rdf:resource="http://purl.org/dc/dcmitype/StillImage"/>
    <dc:date>2022-06-05T20:12:20.314968</dc:date>
    <dc:format>image/svg+xml</dc:format>
    <dc:creator>
     <cc:Agent>
      <dc:title>Matplotlib v3.5.1, https://matplotlib.org/</dc:title>
     </cc:Agent>
    </dc:creator>
   </cc:Work>
  </rdf:RDF>
 </metadata>
 <defs>
  <style type="text/css">*{stroke-linejoin: round; stroke-linecap: butt}</style>
 </defs>
 <g id="figure_1">
  <g id="patch_1">
   <path d="M 0 393.011865 
L 435.910275 393.011865 
L 435.910275 -0 
L 0 -0 
z
" style="fill: #ffffff"/>
  </g>
  <g id="axes_1">
   <g id="patch_2">
    <path d="M 71.590275 288.430125 
L 428.710275 288.430125 
L 428.710275 22.318125 
L 71.590275 22.318125 
z
" style="fill: #ffffff"/>
   </g>
   <g id="PolyCollection_1">
    <defs>
     <path id="md634e298c7" d="M 92.131707 -174.05395 
L 90.728842 -174.05395 
L 90.589586 -175.343233 
L 90.429696 -176.632516 
L 90.247653 -177.921799 
L 90.042136 -179.211081 
L 89.812098 -180.500364 
L 89.55683 -181.789647 
L 89.276034 -183.07893 
L 88.969881 -184.368212 
L 88.639069 -185.657495 
L 88.28486 -186.946778 
L 87.909102 -188.23606 
L 87.514237 -189.525343 
L 87.103283 -190.814626 
L 86.67979 -192.103909 
L 86.247776 -193.393191 
L 85.811643 -194.682474 
L 85.376063 -195.971757 
L 84.94586 -197.261039 
L 84.525862 -198.550322 
L 84.120766 -199.839605 
L 83.734987 -201.128888 
L 83.372518 -202.41817 
L 83.03681 -203.707453 
L 82.730657 -204.996736 
L 82.456123 -206.286018 
L 82.214488 -207.575301 
L 82.00623 -208.864584 
L 81.831041 -210.153867 
L 81.687884 -211.443149 
L 81.575065 -212.732432 
L 81.490354 -214.021715 
L 81.431108 -215.310998 
L 81.394424 -216.60028 
L 81.377288 -217.889563 
L 81.376729 -219.178846 
L 81.38996 -220.468128 
L 81.414505 -221.757411 
L 81.448304 -223.046694 
L 81.489784 -224.335977 
L 81.537903 -225.625259 
L 81.592162 -226.914542 
L 81.652581 -228.203825 
L 81.71965 -229.493107 
L 81.794251 -230.78239 
L 81.877557 -232.071673 
L 81.970927 -233.360956 
L 82.075781 -234.650238 
L 82.193485 -235.939521 
L 82.325238 -237.228804 
L 82.471973 -238.518087 
L 82.634277 -239.807369 
L 82.81233 -241.096652 
L 83.005876 -242.385935 
L 83.214206 -243.675217 
L 83.436181 -244.9645 
L 83.670268 -246.253783 
L 83.914601 -247.543066 
L 84.167056 -248.832348 
L 84.425338 -250.121631 
L 84.687079 -251.410914 
L 84.949926 -252.700196 
L 85.211638 -253.989479 
L 85.470168 -255.278762 
L 85.723731 -256.568045 
L 85.970861 -257.857327 
L 86.210448 -259.14661 
L 86.441752 -260.435893 
L 86.664406 -261.725175 
L 86.878391 -263.014458 
L 87.084005 -264.303741 
L 87.281809 -265.593024 
L 87.472567 -266.882306 
L 87.657182 -268.171589 
L 87.836624 -269.460872 
L 88.011861 -270.750155 
L 88.183801 -272.039437 
L 88.35323 -273.32872 
L 88.520773 -274.618003 
L 88.686862 -275.907285 
L 88.851716 -277.196568 
L 89.015335 -278.485851 
L 89.177513 -279.775134 
L 89.337853 -281.064416 
L 89.495799 -282.353699 
L 89.65067 -283.642982 
L 89.801701 -284.932264 
L 89.948088 -286.221547 
L 90.089025 -287.51083 
L 90.22375 -288.800113 
L 90.351572 -290.089395 
L 90.471902 -291.378678 
L 90.584275 -292.667961 
L 90.688364 -293.957244 
L 90.783981 -295.246526 
L 90.871084 -296.535809 
L 90.949764 -297.825092 
L 91.020236 -299.114374 
L 91.082822 -300.403657 
L 91.137933 -301.69294 
L 91.722616 -301.69294 
L 91.722616 -301.69294 
L 91.777728 -300.403657 
L 91.840314 -299.114374 
L 91.910785 -297.825092 
L 91.989465 -296.535809 
L 92.076568 -295.246526 
L 92.172186 -293.957244 
L 92.276275 -292.667961 
L 92.388648 -291.378678 
L 92.508978 -290.089395 
L 92.636799 -288.800113 
L 92.771524 -287.51083 
L 92.912462 -286.221547 
L 93.058849 -284.932264 
L 93.20988 -283.642982 
L 93.36475 -282.353699 
L 93.522696 -281.064416 
L 93.683037 -279.775134 
L 93.845215 -278.485851 
L 94.008834 -277.196568 
L 94.173687 -275.907285 
L 94.339776 -274.618003 
L 94.50732 -273.32872 
L 94.676749 -272.039437 
L 94.848688 -270.750155 
L 95.023926 -269.460872 
L 95.203367 -268.171589 
L 95.387983 -266.882306 
L 95.578741 -265.593024 
L 95.776545 -264.303741 
L 95.982159 -263.014458 
L 96.196144 -261.725175 
L 96.418797 -260.435893 
L 96.650102 -259.14661 
L 96.889688 -257.857327 
L 97.136819 -256.568045 
L 97.390382 -255.278762 
L 97.648912 -253.989479 
L 97.910624 -252.700196 
L 98.173471 -251.410914 
L 98.435211 -250.121631 
L 98.693494 -248.832348 
L 98.945949 -247.543066 
L 99.190282 -246.253783 
L 99.424369 -244.9645 
L 99.646344 -243.675217 
L 99.854674 -242.385935 
L 100.048219 -241.096652 
L 100.226273 -239.807369 
L 100.388577 -238.518087 
L 100.535312 -237.228804 
L 100.667065 -235.939521 
L 100.784769 -234.650238 
L 100.889623 -233.360956 
L 100.982992 -232.071673 
L 101.066299 -230.78239 
L 101.140899 -229.493107 
L 101.207968 -228.203825 
L 101.268387 -226.914542 
L 101.322646 -225.625259 
L 101.370765 -224.335977 
L 101.412245 -223.046694 
L 101.446044 -221.757411 
L 101.47059 -220.468128 
L 101.483821 -219.178846 
L 101.483261 -217.889563 
L 101.466125 -216.60028 
L 101.429441 -215.310998 
L 101.370196 -214.021715 
L 101.285485 -212.732432 
L 101.172666 -211.443149 
L 101.029508 -210.153867 
L 100.85432 -208.864584 
L 100.646061 -207.575301 
L 100.404426 -206.286018 
L 100.129893 -204.996736 
L 99.82374 -203.707453 
L 99.488031 -202.41817 
L 99.125563 -201.128888 
L 98.739783 -199.839605 
L 98.334688 -198.550322 
L 97.91469 -197.261039 
L 97.484486 -195.971757 
L 97.048907 -194.682474 
L 96.612774 -193.393191 
L 96.18076 -192.103909 
L 95.757266 -190.814626 
L 95.346312 -189.525343 
L 94.951448 -188.23606 
L 94.57569 -186.946778 
L 94.22148 -185.657495 
L 93.890668 -184.368212 
L 93.584516 -183.07893 
L 93.303719 -181.789647 
L 93.048451 -180.500364 
L 92.818413 -179.211081 
L 92.612897 -177.921799 
L 92.430853 -176.632516 
L 92.270964 -175.343233 
L 92.131707 -174.05395 
z
" style="stroke: #3d3d3d; stroke-width: 1.5"/>
    </defs>
    <g clip-path="url(#p60c41057b1)">
     <use xlink:href="#md634e298c7" x="0" y="393.011865" style="fill: #e1812c; stroke: #3d3d3d; stroke-width: 1.5"/>
    </g>
   </g>
   <g id="PolyCollection_2">
    <defs>
     <path id="mdbb42386a0" d="M 131.599599 -116.67774 
L 130.620951 -116.67774 
L 130.545234 -119.121377 
L 130.461067 -121.565013 
L 130.368093 -124.00865 
L 130.266046 -126.452286 
L 130.154765 -128.895922 
L 130.034212 -131.339559 
L 129.90449 -133.783195 
L 129.765857 -136.226831 
L 129.618738 -138.670468 
L 129.463732 -141.114104 
L 129.301622 -143.55774 
L 129.133371 -146.001377 
L 128.960118 -148.445013 
L 128.783174 -150.88865 
L 128.603999 -153.332286 
L 128.424187 -155.775922 
L 128.245437 -158.219559 
L 128.069525 -160.663195 
L 127.898266 -163.106831 
L 127.733475 -165.550468 
L 127.576927 -167.994104 
L 127.430315 -170.43774 
L 127.295204 -172.881377 
L 127.172994 -175.325013 
L 127.064875 -177.76865 
L 126.9718 -180.212286 
L 126.894449 -182.655922 
L 126.833211 -185.099559 
L 126.788164 -187.543195 
L 126.759073 -189.986831 
L 126.74539 -192.430468 
L 126.746261 -194.874104 
L 126.760552 -197.31774 
L 126.786869 -199.761377 
L 126.8236 -202.205013 
L 126.868951 -204.64865 
L 126.920997 -207.092286 
L 126.97773 -209.535922 
L 127.037112 -211.979559 
L 127.097132 -214.423195 
L 127.155857 -216.866831 
L 127.21148 -219.310468 
L 127.262371 -221.754104 
L 127.307115 -224.19774 
L 127.344548 -226.641377 
L 127.373786 -229.085013 
L 127.39424 -231.52865 
L 127.405631 -233.972286 
L 127.407992 -236.415922 
L 127.40166 -238.859559 
L 127.387263 -241.303195 
L 127.365697 -243.746831 
L 127.338102 -246.190468 
L 127.30582 -248.634104 
L 127.270364 -251.07774 
L 127.233373 -253.521377 
L 127.196566 -255.965013 
L 127.161696 -258.40865 
L 127.13051 -260.852286 
L 127.104699 -263.295922 
L 127.08586 -265.739559 
L 127.075459 -268.183195 
L 127.074796 -270.626831 
L 127.084978 -273.070468 
L 127.106895 -275.514104 
L 127.141206 -277.95774 
L 127.188327 -280.401377 
L 127.248429 -282.845013 
L 127.321438 -285.28865 
L 127.407043 -287.732286 
L 127.504715 -290.175922 
L 127.613715 -292.619559 
L 127.733127 -295.063195 
L 127.861876 -297.506831 
L 127.998759 -299.950468 
L 128.142476 -302.394104 
L 128.291657 -304.83774 
L 128.444897 -307.281377 
L 128.600781 -309.725013 
L 128.757914 -312.16865 
L 128.914949 -314.612286 
L 129.070605 -317.055922 
L 129.223694 -319.499559 
L 129.37313 -321.943195 
L 129.517946 -324.386831 
L 129.657304 -326.830468 
L 129.790497 -329.274104 
L 129.916955 -331.71774 
L 130.036241 -334.161377 
L 130.148047 -336.605013 
L 130.25219 -339.04865 
L 130.348602 -341.492286 
L 130.437318 -343.935922 
L 130.518467 -346.379559 
L 130.592259 -348.823195 
L 130.65897 -351.266831 
L 130.718933 -353.710468 
L 130.772524 -356.154104 
L 130.82015 -358.59774 
L 131.4004 -358.59774 
L 131.4004 -358.59774 
L 131.448025 -356.154104 
L 131.501616 -353.710468 
L 131.56158 -351.266831 
L 131.628291 -348.823195 
L 131.702082 -346.379559 
L 131.783231 -343.935922 
L 131.871948 -341.492286 
L 131.968359 -339.04865 
L 132.072503 -336.605013 
L 132.184309 -334.161377 
L 132.303594 -331.71774 
L 132.430052 -329.274104 
L 132.563245 -326.830468 
L 132.702603 -324.386831 
L 132.847419 -321.943195 
L 132.996855 -319.499559 
L 133.149944 -317.055922 
L 133.305601 -314.612286 
L 133.462636 -312.16865 
L 133.619769 -309.725013 
L 133.775653 -307.281377 
L 133.928892 -304.83774 
L 134.078074 -302.394104 
L 134.221791 -299.950468 
L 134.358674 -297.506831 
L 134.487423 -295.063195 
L 134.606834 -292.619559 
L 134.715835 -290.175922 
L 134.813506 -287.732286 
L 134.899112 -285.28865 
L 134.972121 -282.845013 
L 135.032222 -280.401377 
L 135.079344 -277.95774 
L 135.113655 -275.514104 
L 135.135571 -273.070468 
L 135.145753 -270.626831 
L 135.14509 -268.183195 
L 135.13469 -265.739559 
L 135.115851 -263.295922 
L 135.09004 -260.852286 
L 135.058853 -258.40865 
L 135.023984 -255.965013 
L 134.987176 -253.521377 
L 134.950185 -251.07774 
L 134.91473 -248.634104 
L 134.882448 -246.190468 
L 134.854852 -243.746831 
L 134.833287 -241.303195 
L 134.818889 -238.859559 
L 134.812557 -236.415922 
L 134.814918 -233.972286 
L 134.82631 -231.52865 
L 134.846764 -229.085013 
L 134.876002 -226.641377 
L 134.913435 -224.19774 
L 134.958179 -221.754104 
L 135.00907 -219.310468 
L 135.064693 -216.866831 
L 135.123417 -214.423195 
L 135.183438 -211.979559 
L 135.24282 -209.535922 
L 135.299552 -207.092286 
L 135.351598 -204.64865 
L 135.396949 -202.205013 
L 135.43368 -199.761377 
L 135.459998 -197.31774 
L 135.474288 -194.874104 
L 135.47516 -192.430468 
L 135.461476 -189.986831 
L 135.432386 -187.543195 
L 135.387339 -185.099559 
L 135.3261 -182.655922 
L 135.248749 -180.212286 
L 135.155674 -177.76865 
L 135.047556 -175.325013 
L 134.925345 -172.881377 
L 134.790235 -170.43774 
L 134.643623 -167.994104 
L 134.487075 -165.550468 
L 134.322284 -163.106831 
L 134.151024 -160.663195 
L 133.975112 -158.219559 
L 133.796363 -155.775922 
L 133.616551 -153.332286 
L 133.437376 -150.88865 
L 133.260431 -148.445013 
L 133.087179 -146.001377 
L 132.918927 -143.55774 
L 132.756817 -141.114104 
L 132.601812 -138.670468 
L 132.454692 -136.226831 
L 132.316059 -133.783195 
L 132.186338 -131.339559 
L 132.065785 -128.895922 
L 131.954503 -126.452286 
L 131.852456 -124.00865 
L 131.759483 -121.565013 
L 131.675316 -119.121377 
L 131.599599 -116.67774 
z
" style="stroke: #3d3d3d; stroke-width: 1.5"/>
    </defs>
    <g clip-path="url(#p60c41057b1)">
     <use xlink:href="#mdbb42386a0" x="0" y="393.011865" style="fill: #3a923a; stroke: #3d3d3d; stroke-width: 1.5"/>
    </g>
   </g>
   <g id="PolyCollection_3">
    <defs>
     <path id="m557b62cda2" d="M 171.233686 -161.215381 
L 170.346863 -161.215381 
L 170.253189 -162.501242 
L 170.144372 -163.787103 
L 170.019036 -165.072964 
L 169.875907 -166.358824 
L 169.713869 -167.644685 
L 169.532021 -168.930546 
L 169.329736 -170.216407 
L 169.106721 -171.502268 
L 168.863066 -172.788128 
L 168.599293 -174.073989 
L 168.316385 -175.35985 
L 168.015808 -176.645711 
L 167.699514 -177.931572 
L 167.369919 -179.217432 
L 167.029865 -180.503293 
L 166.682564 -181.789154 
L 166.33151 -183.075015 
L 165.980383 -184.360876 
L 165.632934 -185.646736 
L 165.292858 -186.932597 
L 164.963659 -188.218458 
L 164.648525 -189.504319 
L 164.350199 -190.79018 
L 164.070872 -192.07604 
L 163.812097 -193.361901 
L 163.574721 -194.647762 
L 163.358859 -195.933623 
L 163.163897 -197.219484 
L 162.988527 -198.505344 
L 162.830822 -199.791205 
L 162.688339 -201.077066 
L 162.558252 -202.362927 
L 162.437501 -203.648787 
L 162.322964 -204.934648 
L 162.211618 -206.220509 
L 162.100716 -207.50637 
L 161.987933 -208.792231 
L 161.871504 -210.078091 
L 161.750329 -211.363952 
L 161.624049 -212.649813 
L 161.493079 -213.935674 
L 161.358612 -215.221535 
L 161.222579 -216.507395 
L 161.087576 -217.793256 
L 160.956758 -219.079117 
L 160.83371 -220.364978 
L 160.722298 -221.650839 
L 160.626501 -222.936699 
L 160.55025 -224.22256 
L 160.497263 -225.508421 
L 160.470889 -226.794282 
L 160.473976 -228.080143 
L 160.508751 -229.366003 
L 160.576742 -230.651864 
L 160.678714 -231.937725 
L 160.814649 -233.223586 
L 160.983753 -234.509447 
L 161.184492 -235.795307 
L 161.414664 -237.081168 
L 161.67149 -238.367029 
L 161.951723 -239.65289 
L 162.251776 -240.938751 
L 162.567858 -242.224611 
L 162.896105 -243.510472 
L 163.232715 -244.796333 
L 163.574063 -246.082194 
L 163.916806 -247.368054 
L 164.257967 -248.653915 
L 164.594991 -249.939776 
L 164.925782 -251.225637 
L 165.24871 -252.511498 
L 165.562601 -253.797358 
L 165.866698 -255.083219 
L 166.16061 -256.36908 
L 166.444247 -257.654941 
L 166.717751 -258.940802 
L 166.981418 -260.226662 
L 167.235627 -261.512523 
L 167.480776 -262.798384 
L 167.717226 -264.084245 
L 167.945258 -265.370106 
L 168.165048 -266.655966 
L 168.376648 -267.941827 
L 168.579992 -269.227688 
L 168.774902 -270.513549 
L 168.961113 -271.79941 
L 169.1383 -273.08527 
L 169.306109 -274.371131 
L 169.464193 -275.656992 
L 169.612244 -276.942853 
L 169.750017 -278.228714 
L 169.877358 -279.514574 
L 169.994219 -280.800435 
L 170.100665 -282.086296 
L 170.19688 -283.372157 
L 170.283163 -284.658017 
L 170.359916 -285.943878 
L 170.427634 -287.229739 
L 170.486885 -288.5156 
L 171.093664 -288.5156 
L 171.093664 -288.5156 
L 171.152916 -287.229739 
L 171.220634 -285.943878 
L 171.297387 -284.658017 
L 171.38367 -283.372157 
L 171.479885 -282.086296 
L 171.586331 -280.800435 
L 171.703191 -279.514574 
L 171.830533 -278.228714 
L 171.968306 -276.942853 
L 172.116356 -275.656992 
L 172.274441 -274.371131 
L 172.44225 -273.08527 
L 172.619436 -271.79941 
L 172.805647 -270.513549 
L 173.000557 -269.227688 
L 173.203901 -267.941827 
L 173.415502 -266.655966 
L 173.635291 -265.370106 
L 173.863324 -264.084245 
L 174.099774 -262.798384 
L 174.344923 -261.512523 
L 174.599132 -260.226662 
L 174.862799 -258.940802 
L 175.136303 -257.654941 
L 175.41994 -256.36908 
L 175.713851 -255.083219 
L 176.017948 -253.797358 
L 176.331839 -252.511498 
L 176.654768 -251.225637 
L 176.985559 -249.939776 
L 177.322582 -248.653915 
L 177.663743 -247.368054 
L 178.006486 -246.082194 
L 178.347834 -244.796333 
L 178.684444 -243.510472 
L 179.012692 -242.224611 
L 179.328774 -240.938751 
L 179.628827 -239.65289 
L 179.90906 -238.367029 
L 180.165885 -237.081168 
L 180.396058 -235.795307 
L 180.596797 -234.509447 
L 180.7659 -233.223586 
L 180.901835 -231.937725 
L 181.003807 -230.651864 
L 181.071798 -229.366003 
L 181.106574 -228.080143 
L 181.10966 -226.794282 
L 181.083286 -225.508421 
L 181.030299 -224.22256 
L 180.954049 -222.936699 
L 180.858252 -221.650839 
L 180.746839 -220.364978 
L 180.623792 -219.079117 
L 180.492974 -217.793256 
L 180.357971 -216.507395 
L 180.221938 -215.221535 
L 180.087471 -213.935674 
L 179.956501 -212.649813 
L 179.83022 -211.363952 
L 179.709046 -210.078091 
L 179.592616 -208.792231 
L 179.479833 -207.50637 
L 179.368931 -206.220509 
L 179.257586 -204.934648 
L 179.143048 -203.648787 
L 179.022298 -202.362927 
L 178.89221 -201.077066 
L 178.749727 -199.791205 
L 178.592022 -198.505344 
L 178.416652 -197.219484 
L 178.22169 -195.933623 
L 178.005829 -194.647762 
L 177.768453 -193.361901 
L 177.509677 -192.07604 
L 177.230351 -190.79018 
L 176.932025 -189.504319 
L 176.616891 -188.218458 
L 176.287692 -186.932597 
L 175.947615 -185.646736 
L 175.600167 -184.360876 
L 175.24904 -183.075015 
L 174.897985 -181.789154 
L 174.550684 -180.503293 
L 174.210631 -179.217432 
L 173.881035 -177.931572 
L 173.564741 -176.645711 
L 173.264165 -175.35985 
L 172.981257 -174.073989 
L 172.717483 -172.788128 
L 172.473828 -171.502268 
L 172.250813 -170.216407 
L 172.048529 -168.930546 
L 171.86668 -167.644685 
L 171.704642 -166.358824 
L 171.561514 -165.072964 
L 171.436177 -163.787103 
L 171.32736 -162.501242 
L 171.233686 -161.215381 
z
" style="stroke: #3d3d3d; stroke-width: 1.5"/>
    </defs>
    <g clip-path="url(#p60c41057b1)">
     <use xlink:href="#m557b62cda2" x="0" y="393.011865" style="fill: #f2a5a3; stroke: #3d3d3d; stroke-width: 1.5"/>
    </g>
   </g>
   <g id="PolyCollection_4">
    <defs>
     <path id="mc95cdee0b0" d="M 211.029706 -164.939906 
L 209.910843 -164.939906 
L 209.799272 -166.041303 
L 209.671158 -167.142699 
L 209.525293 -168.244095 
L 209.360632 -169.345491 
L 209.17634 -170.446887 
L 208.97185 -171.548283 
L 208.746902 -172.649679 
L 208.501596 -173.751075 
L 208.236414 -174.852471 
L 207.952247 -175.953867 
L 207.650403 -177.055264 
L 207.332594 -178.15666 
L 207.000914 -179.258056 
L 206.657793 -180.359452 
L 206.305942 -181.460848 
L 205.948278 -182.562244 
L 205.587836 -183.66364 
L 205.227682 -184.765036 
L 204.870807 -185.866432 
L 204.520039 -186.967828 
L 204.177947 -188.069225 
L 203.846759 -189.170621 
L 203.528306 -190.272017 
L 203.223962 -191.373413 
L 202.93463 -192.474809 
L 202.66073 -193.576205 
L 202.402221 -194.677601 
L 202.158642 -195.778997 
L 201.929171 -196.880393 
L 201.712696 -197.981789 
L 201.507905 -199.083186 
L 201.313375 -200.184582 
L 201.127666 -201.285978 
L 200.94941 -202.387374 
L 200.777392 -203.48877 
L 200.610621 -204.590166 
L 200.448382 -205.691562 
L 200.290276 -206.792958 
L 200.13624 -207.894354 
L 199.986548 -208.99575 
L 199.841805 -210.097147 
L 199.702911 -211.198543 
L 199.571033 -212.299939 
L 199.447548 -213.401335 
L 199.334 -214.502731 
L 199.232038 -215.604127 
L 199.143364 -216.705523 
L 199.069677 -217.806919 
L 199.012629 -218.908315 
L 198.973775 -220.009711 
L 198.954534 -221.111108 
L 198.956165 -222.212504 
L 198.979729 -223.3139 
L 199.026081 -224.415296 
L 199.095846 -225.516692 
L 199.189416 -226.618088 
L 199.306941 -227.719484 
L 199.448332 -228.82088 
L 199.613264 -229.922276 
L 199.801184 -231.023672 
L 200.011318 -232.125069 
L 200.242694 -233.226465 
L 200.494152 -234.327861 
L 200.764366 -235.429257 
L 201.051871 -236.530653 
L 201.355078 -237.632049 
L 201.672307 -238.733445 
L 202.001805 -239.834841 
L 202.341772 -240.936237 
L 202.690383 -242.037633 
L 203.045804 -243.13903 
L 203.406211 -244.240426 
L 203.769805 -245.341822 
L 204.134815 -246.443218 
L 204.499517 -247.544614 
L 204.862232 -248.64601 
L 205.221334 -249.747406 
L 205.575256 -250.848802 
L 205.922494 -251.950198 
L 206.261613 -253.051595 
L 206.591257 -254.152991 
L 206.910156 -255.254387 
L 207.21714 -256.355783 
L 207.511148 -257.457179 
L 207.791247 -258.558575 
L 208.05664 -259.659971 
L 208.306679 -260.761367 
L 208.54088 -261.862763 
L 208.758926 -262.964159 
L 208.960671 -264.065556 
L 209.146145 -265.166952 
L 209.315544 -266.268348 
L 209.469225 -267.369744 
L 209.607693 -268.47114 
L 209.731584 -269.572536 
L 209.841647 -270.673932 
L 209.93872 -271.775328 
L 210.023713 -272.876724 
L 210.097577 -273.97812 
L 210.842972 -273.97812 
L 210.842972 -273.97812 
L 210.916837 -272.876724 
L 211.001829 -271.775328 
L 211.098903 -270.673932 
L 211.208965 -269.572536 
L 211.332857 -268.47114 
L 211.471325 -267.369744 
L 211.625006 -266.268348 
L 211.794405 -265.166952 
L 211.979878 -264.065556 
L 212.181624 -262.964159 
L 212.399669 -261.862763 
L 212.63387 -260.761367 
L 212.88391 -259.659971 
L 213.149302 -258.558575 
L 213.429401 -257.457179 
L 213.72341 -256.355783 
L 214.030393 -255.254387 
L 214.349293 -254.152991 
L 214.678936 -253.051595 
L 215.018055 -251.950198 
L 215.365293 -250.848802 
L 215.719215 -249.747406 
L 216.078317 -248.64601 
L 216.441032 -247.544614 
L 216.805734 -246.443218 
L 217.170745 -245.341822 
L 217.534338 -244.240426 
L 217.894746 -243.13903 
L 218.250167 -242.037633 
L 218.598777 -240.936237 
L 218.938745 -239.834841 
L 219.268243 -238.733445 
L 219.585471 -237.632049 
L 219.888679 -236.530653 
L 220.176183 -235.429257 
L 220.446398 -234.327861 
L 220.697855 -233.226465 
L 220.929231 -232.125069 
L 221.139366 -231.023672 
L 221.327285 -229.922276 
L 221.492217 -228.82088 
L 221.633609 -227.719484 
L 221.751134 -226.618088 
L 221.844703 -225.516692 
L 221.914468 -224.415296 
L 221.96082 -223.3139 
L 221.984385 -222.212504 
L 221.986015 -221.111108 
L 221.966775 -220.009711 
L 221.92792 -218.908315 
L 221.870872 -217.806919 
L 221.797186 -216.705523 
L 221.708512 -215.604127 
L 221.606549 -214.502731 
L 221.493001 -213.401335 
L 221.369517 -212.299939 
L 221.237638 -211.198543 
L 221.098745 -210.097147 
L 220.954001 -208.99575 
L 220.80431 -207.894354 
L 220.650273 -206.792958 
L 220.492167 -205.691562 
L 220.329928 -204.590166 
L 220.163157 -203.48877 
L 219.99114 -202.387374 
L 219.812884 -201.285978 
L 219.627174 -200.184582 
L 219.432645 -199.083186 
L 219.227854 -197.981789 
L 219.011379 -196.880393 
L 218.781907 -195.778997 
L 218.538329 -194.677601 
L 218.27982 -193.576205 
L 218.005919 -192.474809 
L 217.716587 -191.373413 
L 217.412244 -190.272017 
L 217.09379 -189.170621 
L 216.762603 -188.069225 
L 216.42051 -186.967828 
L 216.069742 -185.866432 
L 215.712868 -184.765036 
L 215.352713 -183.66364 
L 214.992272 -182.562244 
L 214.634608 -181.460848 
L 214.282757 -180.359452 
L 213.939636 -179.258056 
L 213.607955 -178.15666 
L 213.290146 -177.055264 
L 212.988302 -175.953867 
L 212.704136 -174.852471 
L 212.438954 -173.751075 
L 212.193647 -172.649679 
L 211.9687 -171.548283 
L 211.764209 -170.446887 
L 211.579918 -169.345491 
L 211.415257 -168.244095 
L 211.269392 -167.142699 
L 211.141277 -166.041303 
L 211.029706 -164.939906 
z
" style="stroke: #3d3d3d; stroke-width: 1.5"/>
    </defs>
    <g clip-path="url(#p60c41057b1)">
     <use xlink:href="#mc95cdee0b0" x="0" y="393.011865" style="fill: #d684bd; stroke: #3d3d3d; stroke-width: 1.5"/>
    </g>
   </g>
   <g id="PolyCollection_5">
    <defs>
     <path id="mbf0c7419bd" d="M 250.455572 -158.094883 
L 249.844977 -158.094883 
L 249.78045 -159.508067 
L 249.705643 -160.921251 
L 249.619643 -162.334436 
L 249.521583 -163.74762 
L 249.410668 -165.160804 
L 249.286185 -166.573989 
L 249.147528 -167.987173 
L 248.994199 -169.400357 
L 248.82582 -170.813541 
L 248.642129 -172.226726 
L 248.442974 -173.63991 
L 248.228304 -175.053094 
L 247.998154 -176.466278 
L 247.75263 -177.879463 
L 247.491895 -179.292647 
L 247.216159 -180.705831 
L 246.925673 -182.119016 
L 246.620736 -183.5322 
L 246.301706 -184.945384 
L 245.969027 -186.358568 
L 245.623264 -187.771753 
L 245.26515 -189.184937 
L 244.895634 -190.598121 
L 244.515941 -192.011305 
L 244.127619 -193.42449 
L 243.732589 -194.837674 
L 243.333179 -196.250858 
L 242.932136 -197.664043 
L 242.532626 -199.077227 
L 242.138201 -200.490411 
L 241.752748 -201.903595 
L 241.380407 -203.31678 
L 241.025471 -204.729964 
L 240.692268 -206.143148 
L 240.385029 -207.556332 
L 240.107753 -208.969517 
L 239.864075 -210.382701 
L 239.657145 -211.795885 
L 239.489523 -213.20907 
L 239.363098 -214.622254 
L 239.279033 -216.035438 
L 239.237745 -217.448622 
L 239.238908 -218.861807 
L 239.281486 -220.274991 
L 239.363795 -221.688175 
L 239.483579 -223.101359 
L 239.638104 -224.514544 
L 239.824257 -225.927728 
L 240.038652 -227.340912 
L 240.277725 -228.754097 
L 240.53783 -230.167281 
L 240.815321 -231.580465 
L 241.106617 -232.993649 
L 241.408263 -234.406834 
L 241.716972 -235.820018 
L 242.029658 -237.233202 
L 242.343462 -238.646386 
L 242.655772 -240.059571 
L 242.964233 -241.472755 
L 243.266766 -242.885939 
L 243.561576 -244.299124 
L 243.847162 -245.712308 
L 244.122334 -247.125492 
L 244.386218 -248.538676 
L 244.638266 -249.951861 
L 244.878255 -251.365045 
L 245.106284 -252.778229 
L 245.322763 -254.191413 
L 245.528388 -255.604598 
L 245.724105 -257.017782 
L 245.911071 -258.430966 
L 246.090596 -259.84415 
L 246.264081 -261.257335 
L 246.432955 -262.670519 
L 246.598601 -264.083703 
L 246.762295 -265.496888 
L 246.925138 -266.910072 
L 247.088012 -268.323256 
L 247.251532 -269.73644 
L 247.416029 -271.149625 
L 247.581531 -272.562809 
L 247.74778 -273.975993 
L 247.914248 -275.389177 
L 248.080171 -276.802362 
L 248.244604 -278.215546 
L 248.406465 -279.62873 
L 248.564604 -281.041915 
L 248.717854 -282.455099 
L 248.865092 -283.868283 
L 249.005289 -285.281467 
L 249.13755 -286.694652 
L 249.261148 -288.107836 
L 249.375545 -289.52102 
L 249.480403 -290.934204 
L 249.57558 -292.347389 
L 249.661127 -293.760573 
L 249.737263 -295.173757 
L 249.804362 -296.586942 
L 249.862917 -298.000126 
L 250.437633 -298.000126 
L 250.437633 -298.000126 
L 250.496188 -296.586942 
L 250.563286 -295.173757 
L 250.639423 -293.760573 
L 250.724969 -292.347389 
L 250.820147 -290.934204 
L 250.925004 -289.52102 
L 251.039402 -288.107836 
L 251.163 -286.694652 
L 251.295261 -285.281467 
L 251.435458 -283.868283 
L 251.582696 -282.455099 
L 251.735946 -281.041915 
L 251.894084 -279.62873 
L 252.055946 -278.215546 
L 252.220378 -276.802362 
L 252.386302 -275.389177 
L 252.552769 -273.975993 
L 252.719018 -272.562809 
L 252.884521 -271.149625 
L 253.049017 -269.73644 
L 253.212538 -268.323256 
L 253.375411 -266.910072 
L 253.538255 -265.496888 
L 253.701948 -264.083703 
L 253.867595 -262.670519 
L 254.036468 -261.257335 
L 254.209953 -259.84415 
L 254.389478 -258.430966 
L 254.576444 -257.017782 
L 254.772162 -255.604598 
L 254.977786 -254.191413 
L 255.194266 -252.778229 
L 255.422295 -251.365045 
L 255.662283 -249.951861 
L 255.914331 -248.538676 
L 256.178216 -247.125492 
L 256.453388 -245.712308 
L 256.738974 -244.299124 
L 257.033783 -242.885939 
L 257.336316 -241.472755 
L 257.644778 -240.059571 
L 257.957087 -238.646386 
L 258.270892 -237.233202 
L 258.583578 -235.820018 
L 258.892287 -234.406834 
L 259.193933 -232.993649 
L 259.485229 -231.580465 
L 259.762719 -230.167281 
L 260.022825 -228.754097 
L 260.261898 -227.340912 
L 260.476292 -225.927728 
L 260.662445 -224.514544 
L 260.81697 -223.101359 
L 260.936754 -221.688175 
L 261.019063 -220.274991 
L 261.061642 -218.861807 
L 261.062804 -217.448622 
L 261.021516 -216.035438 
L 260.937452 -214.622254 
L 260.811026 -213.20907 
L 260.643404 -211.795885 
L 260.436474 -210.382701 
L 260.192797 -208.969517 
L 259.915521 -207.556332 
L 259.608282 -206.143148 
L 259.275079 -204.729964 
L 258.920143 -203.31678 
L 258.547802 -201.903595 
L 258.162349 -200.490411 
L 257.767924 -199.077227 
L 257.368413 -197.664043 
L 256.96737 -196.250858 
L 256.56796 -194.837674 
L 256.172931 -193.42449 
L 255.784609 -192.011305 
L 255.404915 -190.598121 
L 255.0354 -189.184937 
L 254.677285 -187.771753 
L 254.331522 -186.358568 
L 253.998843 -184.945384 
L 253.679813 -183.5322 
L 253.374876 -182.119016 
L 253.084391 -180.705831 
L 252.808655 -179.292647 
L 252.54792 -177.879463 
L 252.302396 -176.466278 
L 252.072246 -175.053094 
L 251.857575 -173.63991 
L 251.65842 -172.226726 
L 251.474729 -170.813541 
L 251.30635 -169.400357 
L 251.153022 -167.987173 
L 251.014364 -166.573989 
L 250.889882 -165.160804 
L 250.778966 -163.74762 
L 250.680907 -162.334436 
L 250.594906 -160.921251 
L 250.520099 -159.508067 
L 250.455572 -158.094883 
z
" style="stroke: #3d3d3d; stroke-width: 1.5"/>
    </defs>
    <g clip-path="url(#p60c41057b1)">
     <use xlink:href="#mbf0c7419bd" x="0" y="393.011865" style="fill: #9fd495; stroke: #3d3d3d; stroke-width: 1.5"/>
    </g>
   </g>
   <g id="PolyCollection_6">
    <defs>
     <path id="m1b3705c832" d="M 290.495037 -160.024804 
L 289.165512 -160.024804 
L 289.032024 -161.018956 
L 288.878358 -162.013108 
L 288.702908 -163.00726 
L 288.504227 -164.001412 
L 288.281088 -164.995563 
L 288.032543 -165.989715 
L 287.757987 -166.983867 
L 287.457211 -167.978019 
L 287.130448 -168.972171 
L 286.778407 -169.966323 
L 286.402297 -170.960475 
L 286.00383 -171.954626 
L 285.585206 -172.948778 
L 285.149081 -173.94293 
L 284.698517 -174.937082 
L 284.236914 -175.931234 
L 283.767919 -176.925386 
L 283.295338 -177.919538 
L 282.823027 -178.913689 
L 282.354784 -179.907841 
L 281.894244 -180.901993 
L 281.444783 -181.896145 
L 281.00943 -182.890297 
L 280.590798 -183.884449 
L 280.191038 -184.878601 
L 279.811816 -185.872752 
L 279.454308 -186.866904 
L 279.119231 -187.861056 
L 278.806887 -188.855208 
L 278.517233 -189.84936 
L 278.249959 -190.843512 
L 278.004588 -191.837664 
L 277.780568 -192.831815 
L 277.577372 -193.825967 
L 277.39458 -194.820119 
L 277.23195 -195.814271 
L 277.08948 -196.808423 
L 276.967429 -197.802575 
L 276.866323 -198.796726 
L 276.786939 -199.790878 
L 276.730252 -200.78503 
L 276.697372 -201.779182 
L 276.689453 -202.773334 
L 276.707597 -203.767486 
L 276.752748 -204.761638 
L 276.825591 -205.755789 
L 276.926453 -206.749941 
L 277.055229 -207.744093 
L 277.211321 -208.738245 
L 277.393606 -209.732397 
L 277.600435 -210.726549 
L 277.829655 -211.720701 
L 278.078671 -212.714852 
L 278.344527 -213.709004 
L 278.624008 -214.703156 
L 278.913767 -215.697308 
L 279.210447 -216.69146 
L 279.510824 -217.685612 
L 279.811921 -218.679764 
L 280.111131 -219.673915 
L 280.406303 -220.668067 
L 280.695811 -221.662219 
L 280.978598 -222.656371 
L 281.254177 -223.650523 
L 281.522618 -224.644675 
L 281.784492 -225.638827 
L 282.040805 -226.632978 
L 282.292897 -227.62713 
L 282.542338 -228.621282 
L 282.790815 -229.615434 
L 283.040011 -230.609586 
L 283.291499 -231.603738 
L 283.546641 -232.597889 
L 283.806502 -233.592041 
L 284.071789 -234.586193 
L 284.342807 -235.580345 
L 284.619439 -236.574497 
L 284.90115 -237.568649 
L 285.187011 -238.562801 
L 285.47574 -239.556952 
L 285.76576 -240.551104 
L 286.055268 -241.545256 
L 286.342312 -242.539408 
L 286.624867 -243.53356 
L 286.900917 -244.527712 
L 287.168521 -245.521864 
L 287.425882 -246.516015 
L 287.671403 -247.510167 
L 287.903725 -248.504319 
L 288.12176 -249.498471 
L 288.324709 -250.492623 
L 288.512063 -251.486775 
L 288.683599 -252.480927 
L 288.839364 -253.475078 
L 288.979649 -254.46923 
L 289.10496 -255.463382 
L 289.215983 -256.457534 
L 289.313548 -257.451686 
L 289.398591 -258.445838 
L 290.261959 -258.445838 
L 290.261959 -258.445838 
L 290.347002 -257.451686 
L 290.444566 -256.457534 
L 290.55559 -255.463382 
L 290.680901 -254.46923 
L 290.821186 -253.475078 
L 290.976951 -252.480927 
L 291.148487 -251.486775 
L 291.33584 -250.492623 
L 291.538789 -249.498471 
L 291.756825 -248.504319 
L 291.989147 -247.510167 
L 292.234668 -246.516015 
L 292.492029 -245.521864 
L 292.759633 -244.527712 
L 293.035682 -243.53356 
L 293.318238 -242.539408 
L 293.605282 -241.545256 
L 293.89479 -240.551104 
L 294.184809 -239.556952 
L 294.473538 -238.562801 
L 294.759399 -237.568649 
L 295.041111 -236.574497 
L 295.317743 -235.580345 
L 295.588761 -234.586193 
L 295.854048 -233.592041 
L 296.113909 -232.597889 
L 296.369051 -231.603738 
L 296.620539 -230.609586 
L 296.869735 -229.615434 
L 297.118212 -228.621282 
L 297.367653 -227.62713 
L 297.619745 -226.632978 
L 297.876057 -225.638827 
L 298.137932 -224.644675 
L 298.406372 -223.650523 
L 298.681952 -222.656371 
L 298.964738 -221.662219 
L 299.254247 -220.668067 
L 299.549419 -219.673915 
L 299.848628 -218.679764 
L 300.149726 -217.685612 
L 300.450102 -216.69146 
L 300.746783 -215.697308 
L 301.036541 -214.703156 
L 301.316023 -213.709004 
L 301.581879 -212.714852 
L 301.830895 -211.720701 
L 302.060115 -210.726549 
L 302.266943 -209.732397 
L 302.449228 -208.738245 
L 302.60532 -207.744093 
L 302.734097 -206.749941 
L 302.834959 -205.755789 
L 302.907801 -204.761638 
L 302.952952 -203.767486 
L 302.971096 -202.773334 
L 302.963177 -201.779182 
L 302.930297 -200.78503 
L 302.873611 -199.790878 
L 302.794226 -198.796726 
L 302.693121 -197.802575 
L 302.571069 -196.808423 
L 302.428599 -195.814271 
L 302.26597 -194.820119 
L 302.083177 -193.825967 
L 301.879981 -192.831815 
L 301.655962 -191.837664 
L 301.410591 -190.843512 
L 301.143317 -189.84936 
L 300.853662 -188.855208 
L 300.541318 -187.861056 
L 300.206242 -186.866904 
L 299.848734 -185.872752 
L 299.469511 -184.878601 
L 299.069752 -183.884449 
L 298.65112 -182.890297 
L 298.215766 -181.896145 
L 297.766305 -180.901993 
L 297.305766 -179.907841 
L 296.837522 -178.913689 
L 296.365211 -177.919538 
L 295.892631 -176.925386 
L 295.423636 -175.931234 
L 294.962032 -174.937082 
L 294.511469 -173.94293 
L 294.075344 -172.948778 
L 293.656719 -171.954626 
L 293.258252 -170.960475 
L 292.882143 -169.966323 
L 292.530102 -168.972171 
L 292.203339 -167.978019 
L 291.902563 -166.983867 
L 291.628007 -165.989715 
L 291.379462 -164.995563 
L 291.156322 -164.001412 
L 290.957642 -163.00726 
L 290.782192 -162.013108 
L 290.628526 -161.018956 
L 290.495037 -160.024804 
z
" style="stroke: #3d3d3d; stroke-width: 1.5"/>
    </defs>
    <g clip-path="url(#p60c41057b1)">
     <use xlink:href="#m1b3705c832" x="0" y="393.011865" style="fill: #3274a1; stroke: #3d3d3d; stroke-width: 1.5"/>
    </g>
   </g>
   <g id="PolyCollection_7">
    <defs>
     <path id="medadc2e3ac" d="M 330.286656 -146.622661 
L 328.733894 -146.622661 
L 328.590831 -147.693821 
L 328.427438 -148.764981 
L 328.242049 -149.836141 
L 328.033097 -150.907301 
L 327.79916 -151.978461 
L 327.539016 -153.049621 
L 327.251702 -154.120781 
L 326.936569 -155.191941 
L 326.593342 -156.263101 
L 326.222172 -157.334261 
L 325.823686 -158.405421 
L 325.399029 -159.476582 
L 324.949893 -160.547742 
L 324.47854 -161.618902 
L 323.98781 -162.690062 
L 323.48111 -163.761222 
L 322.962388 -164.832382 
L 322.436098 -165.903542 
L 321.907137 -166.974702 
L 321.380772 -168.045862 
L 320.862554 -169.117022 
L 320.358214 -170.188182 
L 319.873552 -171.259343 
L 319.414315 -172.330503 
L 318.986078 -173.401663 
L 318.594111 -174.472823 
L 318.243265 -175.543983 
L 317.937852 -176.615143 
L 317.681538 -177.686303 
L 317.477253 -178.757463 
L 317.327114 -179.828623 
L 317.232367 -180.899783 
L 317.193347 -181.970943 
L 317.209464 -183.042104 
L 317.279206 -184.113264 
L 317.400163 -185.184424 
L 317.569079 -186.255584 
L 317.781914 -187.326744 
L 318.033929 -188.397904 
L 318.319782 -189.469064 
L 318.633645 -190.540224 
L 318.969324 -191.611384 
L 319.320384 -192.682544 
L 319.680288 -193.753704 
L 320.042531 -194.824864 
L 320.400774 -195.896025 
L 320.74897 -196.967185 
L 321.081497 -198.038345 
L 321.393262 -199.109505 
L 321.679814 -200.180665 
L 321.937424 -201.251825 
L 322.163169 -202.322985 
L 322.354981 -203.394145 
L 322.511688 -204.465305 
L 322.63303 -205.536465 
L 322.71966 -206.607625 
L 322.773114 -207.678786 
L 322.795768 -208.749946 
L 322.790767 -209.821106 
L 322.761946 -210.892266 
L 322.713717 -211.963426 
L 322.650955 -213.034586 
L 322.578863 -214.105746 
L 322.502832 -215.176906 
L 322.428295 -216.248066 
L 322.360581 -217.319226 
L 322.304772 -218.390386 
L 322.26557 -219.461547 
L 322.247172 -220.532707 
L 322.253172 -221.603867 
L 322.28647 -222.675027 
L 322.34921 -223.746187 
L 322.442744 -224.817347 
L 322.56762 -225.888507 
L 322.723586 -226.959667 
L 322.909633 -228.030827 
L 323.124048 -229.101987 
L 323.364493 -230.173147 
L 323.628094 -231.244308 
L 323.911545 -232.315468 
L 324.21122 -233.386628 
L 324.523289 -234.457788 
L 324.843827 -235.528948 
L 325.168929 -236.600108 
L 325.494802 -237.671268 
L 325.817862 -238.742428 
L 326.134805 -239.813588 
L 326.442669 -240.884748 
L 326.738877 -241.955908 
L 327.02127 -243.027068 
L 327.288116 -244.098229 
L 327.538115 -245.169389 
L 327.770377 -246.240549 
L 327.984409 -247.311709 
L 328.180073 -248.382869 
L 328.35755 -249.454029 
L 328.5173 -250.525189 
L 328.660011 -251.596349 
L 328.786553 -252.667509 
L 330.233997 -252.667509 
L 330.233997 -252.667509 
L 330.360539 -251.596349 
L 330.503249 -250.525189 
L 330.662999 -249.454029 
L 330.840477 -248.382869 
L 331.03614 -247.311709 
L 331.250172 -246.240549 
L 331.482435 -245.169389 
L 331.732433 -244.098229 
L 331.99928 -243.027068 
L 332.281673 -241.955908 
L 332.577881 -240.884748 
L 332.885744 -239.813588 
L 333.202687 -238.742428 
L 333.525747 -237.671268 
L 333.851621 -236.600108 
L 334.176722 -235.528948 
L 334.497261 -234.457788 
L 334.80933 -233.386628 
L 335.109005 -232.315468 
L 335.392456 -231.244308 
L 335.656056 -230.173147 
L 335.896501 -229.101987 
L 336.110917 -228.030827 
L 336.296964 -226.959667 
L 336.45293 -225.888507 
L 336.577805 -224.817347 
L 336.67134 -223.746187 
L 336.73408 -222.675027 
L 336.767377 -221.603867 
L 336.773377 -220.532707 
L 336.75498 -219.461547 
L 336.715777 -218.390386 
L 336.659968 -217.319226 
L 336.592254 -216.248066 
L 336.517718 -215.176906 
L 336.441687 -214.105746 
L 336.369595 -213.034586 
L 336.306833 -211.963426 
L 336.258604 -210.892266 
L 336.229782 -209.821106 
L 336.224782 -208.749946 
L 336.247435 -207.678786 
L 336.300889 -206.607625 
L 336.387519 -205.536465 
L 336.508862 -204.465305 
L 336.665568 -203.394145 
L 336.85738 -202.322985 
L 337.083125 -201.251825 
L 337.340736 -200.180665 
L 337.627287 -199.109505 
L 337.939053 -198.038345 
L 338.271579 -196.967185 
L 338.619776 -195.896025 
L 338.978018 -194.824864 
L 339.340261 -193.753704 
L 339.700166 -192.682544 
L 340.051226 -191.611384 
L 340.386904 -190.540224 
L 340.700768 -189.469064 
L 340.986621 -188.397904 
L 341.238635 -187.326744 
L 341.45147 -186.255584 
L 341.620386 -185.184424 
L 341.741344 -184.113264 
L 341.811085 -183.042104 
L 341.827202 -181.970943 
L 341.788183 -180.899783 
L 341.693436 -179.828623 
L 341.543297 -178.757463 
L 341.339012 -177.686303 
L 341.082697 -176.615143 
L 340.777284 -175.543983 
L 340.426438 -174.472823 
L 340.034472 -173.401663 
L 339.606234 -172.330503 
L 339.146998 -171.259343 
L 338.662335 -170.188182 
L 338.157995 -169.117022 
L 337.639777 -168.045862 
L 337.113413 -166.974702 
L 336.584451 -165.903542 
L 336.058161 -164.832382 
L 335.53944 -163.761222 
L 335.032739 -162.690062 
L 334.542009 -161.618902 
L 334.070657 -160.547742 
L 333.621521 -159.476582 
L 333.196863 -158.405421 
L 332.798378 -157.334261 
L 332.427208 -156.263101 
L 332.083981 -155.191941 
L 331.768848 -154.120781 
L 331.481533 -153.049621 
L 331.22139 -151.978461 
L 330.987453 -150.907301 
L 330.778501 -149.836141 
L 330.593112 -148.764981 
L 330.429718 -147.693821 
L 330.286656 -146.622661 
z
" style="stroke: #3d3d3d; stroke-width: 1.5"/>
    </defs>
    <g clip-path="url(#p60c41057b1)">
     <use xlink:href="#medadc2e3ac" x="0" y="393.011865" style="fill: #c03d3e; stroke: #3d3d3d; stroke-width: 1.5"/>
    </g>
   </g>
   <g id="PolyCollection_8">
    <defs>
     <path id="m1ce3fbe571" d="M 370.163576 -122.947901 
L 368.216974 -122.947901 
L 368.066085 -124.038727 
L 367.898077 -125.129553 
L 367.712124 -126.220378 
L 367.507557 -127.311204 
L 367.283894 -128.40203 
L 367.040874 -129.492855 
L 366.778493 -130.583681 
L 366.497032 -131.674507 
L 366.197082 -132.765333 
L 365.879573 -133.856158 
L 365.545779 -134.946984 
L 365.197336 -136.03781 
L 364.836231 -137.128635 
L 364.464799 -138.219461 
L 364.085702 -139.310287 
L 363.701892 -140.401112 
L 363.316578 -141.491938 
L 362.933169 -142.582764 
L 362.555217 -143.67359 
L 362.18635 -144.764415 
L 361.830195 -145.855241 
L 361.4903 -146.946067 
L 361.170057 -148.036892 
L 360.872615 -149.127718 
L 360.600808 -150.218544 
L 360.357077 -151.309369 
L 360.143409 -152.400195 
L 359.961277 -153.491021 
L 359.8116 -154.581847 
L 359.694711 -155.672672 
L 359.61034 -156.763498 
L 359.55762 -157.854324 
L 359.535097 -158.945149 
L 359.540769 -160.035975 
L 359.572127 -161.126801 
L 359.626221 -162.217626 
L 359.699735 -163.308452 
L 359.789063 -164.399278 
L 359.890411 -165.490104 
L 359.999885 -166.580929 
L 360.113595 -167.671755 
L 360.227749 -168.762581 
L 360.338751 -169.853406 
L 360.443289 -170.944232 
L 360.538415 -172.035058 
L 360.621615 -173.125884 
L 360.690866 -174.216709 
L 360.744682 -175.307535 
L 360.782142 -176.398361 
L 360.802907 -177.489186 
L 360.807213 -178.580012 
L 360.795867 -179.670838 
L 360.770206 -180.761663 
L 360.732064 -181.852489 
L 360.683714 -182.943315 
L 360.627804 -184.034141 
L 360.56729 -185.124966 
L 360.505352 -186.215792 
L 360.445318 -187.306618 
L 360.390576 -188.397443 
L 360.344493 -189.488269 
L 360.310333 -190.579095 
L 360.291177 -191.66992 
L 360.289856 -192.760746 
L 360.308885 -193.851572 
L 360.350404 -194.942398 
L 360.41614 -196.033223 
L 360.507368 -197.124049 
L 360.624886 -198.214875 
L 360.769012 -199.3057 
L 360.939575 -200.396526 
L 361.135935 -201.487352 
L 361.357 -202.578177 
L 361.601264 -203.669003 
L 361.866843 -204.759829 
L 362.151528 -205.850655 
L 362.452839 -206.94148 
L 362.768082 -208.032306 
L 363.094414 -209.123132 
L 363.4289 -210.213957 
L 363.76858 -211.304783 
L 364.110525 -212.395609 
L 364.451892 -213.486435 
L 364.789977 -214.57726 
L 365.122252 -215.668086 
L 365.446411 -216.758912 
L 365.760389 -217.849737 
L 366.062395 -218.940563 
L 366.350913 -220.031389 
L 366.624721 -221.122214 
L 366.88288 -222.21304 
L 367.124732 -223.303866 
L 367.349885 -224.394692 
L 367.558198 -225.485517 
L 367.749754 -226.576343 
L 367.92484 -227.667169 
L 368.08392 -228.757994 
L 368.227603 -229.84882 
L 368.356623 -230.939646 
L 370.023926 -230.939646 
L 370.023926 -230.939646 
L 370.152946 -229.84882 
L 370.29663 -228.757994 
L 370.455709 -227.667169 
L 370.630796 -226.576343 
L 370.822352 -225.485517 
L 371.030664 -224.394692 
L 371.255818 -223.303866 
L 371.49767 -222.21304 
L 371.755828 -221.122214 
L 372.029636 -220.031389 
L 372.318155 -218.940563 
L 372.62016 -217.849737 
L 372.934139 -216.758912 
L 373.258297 -215.668086 
L 373.590573 -214.57726 
L 373.928657 -213.486435 
L 374.270025 -212.395609 
L 374.61197 -211.304783 
L 374.95165 -210.213957 
L 375.286136 -209.123132 
L 375.612467 -208.032306 
L 375.927711 -206.94148 
L 376.229022 -205.850655 
L 376.513707 -204.759829 
L 376.779286 -203.669003 
L 377.023549 -202.578177 
L 377.244615 -201.487352 
L 377.440975 -200.396526 
L 377.611538 -199.3057 
L 377.755663 -198.214875 
L 377.873182 -197.124049 
L 377.964409 -196.033223 
L 378.030145 -194.942398 
L 378.071665 -193.851572 
L 378.090693 -192.760746 
L 378.089373 -191.66992 
L 378.070217 -190.579095 
L 378.036056 -189.488269 
L 377.989973 -188.397443 
L 377.935231 -187.306618 
L 377.875197 -186.215792 
L 377.813259 -185.124966 
L 377.752745 -184.034141 
L 377.696836 -182.943315 
L 377.648485 -181.852489 
L 377.610343 -180.761663 
L 377.584683 -179.670838 
L 377.573336 -178.580012 
L 377.577643 -177.489186 
L 377.598407 -176.398361 
L 377.635868 -175.307535 
L 377.689684 -174.216709 
L 377.758935 -173.125884 
L 377.842135 -172.035058 
L 377.937261 -170.944232 
L 378.041799 -169.853406 
L 378.152801 -168.762581 
L 378.266955 -167.671755 
L 378.380664 -166.580929 
L 378.490138 -165.490104 
L 378.591486 -164.399278 
L 378.680815 -163.308452 
L 378.754328 -162.217626 
L 378.808423 -161.126801 
L 378.839781 -160.035975 
L 378.845452 -158.945149 
L 378.82293 -157.854324 
L 378.770209 -156.763498 
L 378.685839 -155.672672 
L 378.568949 -154.581847 
L 378.419272 -153.491021 
L 378.237141 -152.400195 
L 378.023473 -151.309369 
L 377.779742 -150.218544 
L 377.507935 -149.127718 
L 377.210493 -148.036892 
L 376.890249 -146.946067 
L 376.550355 -145.855241 
L 376.194199 -144.764415 
L 375.825332 -143.67359 
L 375.447381 -142.582764 
L 375.063972 -141.491938 
L 374.678657 -140.401112 
L 374.294848 -139.310287 
L 373.91575 -138.219461 
L 373.544319 -137.128635 
L 373.183214 -136.03781 
L 372.83477 -134.946984 
L 372.500977 -133.856158 
L 372.183467 -132.765333 
L 371.883518 -131.674507 
L 371.602056 -130.583681 
L 371.339675 -129.492855 
L 371.096655 -128.40203 
L 370.872992 -127.311204 
L 370.668426 -126.220378 
L 370.482473 -125.129553 
L 370.314464 -124.038727 
L 370.163576 -122.947901 
z
" style="stroke: #3d3d3d; stroke-width: 1.5"/>
    </defs>
    <g clip-path="url(#p60c41057b1)">
     <use xlink:href="#m1ce3fbe571" x="0" y="393.011865" style="fill: #7f7f7f; stroke: #3d3d3d; stroke-width: 1.5"/>
    </g>
   </g>
   <g id="PolyCollection_9">
    <defs>
     <path id="m290cfcb367" d="M 409.996255 -126.293707 
L 407.744294 -126.293707 
L 407.537172 -127.354141 
L 407.30112 -128.414576 
L 407.033963 -129.47501 
L 406.733714 -130.535445 
L 406.398651 -131.595879 
L 406.027398 -132.656314 
L 405.619004 -133.716749 
L 405.173023 -134.777183 
L 404.689593 -135.837618 
L 404.169501 -136.898052 
L 403.614241 -137.958487 
L 403.026061 -139.018921 
L 402.407989 -140.079356 
L 401.763843 -141.13979 
L 401.098219 -142.200225 
L 400.416459 -143.260659 
L 399.724594 -144.321094 
L 399.029264 -145.381529 
L 398.337618 -146.441963 
L 397.657201 -147.502398 
L 396.995809 -148.562832 
L 396.361346 -149.623267 
L 395.761665 -150.683701 
L 395.204404 -151.744136 
L 394.696826 -152.80457 
L 394.245657 -153.865005 
L 393.856938 -154.925439 
L 393.535895 -155.985874 
L 393.286812 -157.046308 
L 393.112944 -158.106743 
L 393.016435 -159.167178 
L 392.998275 -160.227612 
L 393.058276 -161.288047 
L 393.195076 -162.348481 
L 393.406171 -163.408916 
L 393.687968 -164.46935 
L 394.035864 -165.529785 
L 394.444346 -166.590219 
L 394.907103 -167.650654 
L 395.417159 -168.711088 
L 395.967015 -169.771523 
L 396.548795 -170.831958 
L 397.154401 -171.892392 
L 397.775662 -172.952827 
L 398.40449 -174.013261 
L 399.033019 -175.073696 
L 399.65374 -176.13413 
L 400.259628 -177.194565 
L 400.84425 -178.254999 
L 401.401859 -179.315434 
L 401.927476 -180.375868 
L 402.416949 -181.436303 
L 402.866994 -182.496738 
L 403.275224 -183.557172 
L 403.64015 -184.617607 
L 403.961175 -185.678041 
L 404.23856 -186.738476 
L 404.473383 -187.79891 
L 404.667478 -188.859345 
L 404.82336 -189.919779 
L 404.944143 -190.980214 
L 405.033445 -192.040648 
L 405.095284 -193.101083 
L 405.133971 -194.161518 
L 405.154002 -195.221952 
L 405.159945 -196.282387 
L 405.156329 -197.342821 
L 405.147548 -198.403256 
L 405.137753 -199.46369 
L 405.130776 -200.524125 
L 405.130045 -201.584559 
L 405.138527 -202.644994 
L 405.158681 -203.705428 
L 405.192422 -204.765863 
L 405.241109 -205.826298 
L 405.305546 -206.886732 
L 405.385996 -207.947167 
L 405.48221 -209.007601 
L 405.593478 -210.068036 
L 405.718674 -211.12847 
L 405.856328 -212.188905 
L 406.004685 -213.249339 
L 406.161787 -214.309774 
L 406.325541 -215.370208 
L 406.493789 -216.430643 
L 406.66438 -217.491077 
L 406.835226 -218.551512 
L 407.004358 -219.611947 
L 407.169971 -220.672381 
L 407.330458 -221.732816 
L 407.484434 -222.79325 
L 407.630754 -223.853685 
L 407.768518 -224.914119 
L 407.897065 -225.974554 
L 408.015971 -227.034988 
L 408.125026 -228.095423 
L 408.224216 -229.155857 
L 408.313701 -230.216292 
L 408.393786 -231.276727 
L 409.346763 -231.276727 
L 409.346763 -231.276727 
L 409.426849 -230.216292 
L 409.516334 -229.155857 
L 409.615524 -228.095423 
L 409.724578 -227.034988 
L 409.843484 -225.974554 
L 409.972032 -224.914119 
L 410.109795 -223.853685 
L 410.256116 -222.79325 
L 410.410092 -221.732816 
L 410.570579 -220.672381 
L 410.736192 -219.611947 
L 410.905324 -218.551512 
L 411.07617 -217.491077 
L 411.24676 -216.430643 
L 411.415008 -215.370208 
L 411.578762 -214.309774 
L 411.735865 -213.249339 
L 411.884222 -212.188905 
L 412.021875 -211.12847 
L 412.147072 -210.068036 
L 412.258339 -209.007601 
L 412.354554 -207.947167 
L 412.435003 -206.886732 
L 412.49944 -205.826298 
L 412.548128 -204.765863 
L 412.581869 -203.705428 
L 412.602023 -202.644994 
L 412.610505 -201.584559 
L 412.609774 -200.524125 
L 412.602796 -199.46369 
L 412.593002 -198.403256 
L 412.58422 -197.342821 
L 412.580605 -196.282387 
L 412.586547 -195.221952 
L 412.606578 -194.161518 
L 412.645266 -193.101083 
L 412.707104 -192.040648 
L 412.796406 -190.980214 
L 412.91719 -189.919779 
L 413.073072 -188.859345 
L 413.267166 -187.79891 
L 413.50199 -186.738476 
L 413.779375 -185.678041 
L 414.1004 -184.617607 
L 414.465326 -183.557172 
L 414.873555 -182.496738 
L 415.323601 -181.436303 
L 415.813073 -180.375868 
L 416.338691 -179.315434 
L 416.8963 -178.254999 
L 417.480921 -177.194565 
L 418.086809 -176.13413 
L 418.707531 -175.073696 
L 419.336059 -174.013261 
L 419.964887 -172.952827 
L 420.586149 -171.892392 
L 421.191754 -170.831958 
L 421.773535 -169.771523 
L 422.32339 -168.711088 
L 422.833447 -167.650654 
L 423.296204 -166.590219 
L 423.704685 -165.529785 
L 424.052582 -164.46935 
L 424.334379 -163.408916 
L 424.545474 -162.348481 
L 424.682274 -161.288047 
L 424.742275 -160.227612 
L 424.724115 -159.167178 
L 424.627606 -158.106743 
L 424.453737 -157.046308 
L 424.204655 -155.985874 
L 423.883611 -154.925439 
L 423.494893 -153.865005 
L 423.043723 -152.80457 
L 422.536145 -151.744136 
L 421.978885 -150.683701 
L 421.379204 -149.623267 
L 420.744741 -148.562832 
L 420.083348 -147.502398 
L 419.402931 -146.441963 
L 418.711286 -145.381529 
L 418.015955 -144.321094 
L 417.32409 -143.260659 
L 416.642331 -142.200225 
L 415.976707 -141.13979 
L 415.332561 -140.079356 
L 414.714488 -139.018921 
L 414.126308 -137.958487 
L 413.571048 -136.898052 
L 413.050956 -135.837618 
L 412.567526 -134.777183 
L 412.121546 -133.716749 
L 411.713151 -132.656314 
L 411.341898 -131.595879 
L 411.006835 -130.535445 
L 410.706586 -129.47501 
L 410.439429 -128.414576 
L 410.203377 -127.354141 
L 409.996255 -126.293707 
z
" style="stroke: #3d3d3d; stroke-width: 1.5"/>
    </defs>
    <g clip-path="url(#p60c41057b1)">
     <use xlink:href="#m290cfcb367" x="0" y="393.011865" style="fill: #c4b5d0; stroke: #3d3d3d; stroke-width: 1.5"/>
    </g>
   </g>
   <g id="matplotlib.axis_1">
    <g id="xtick_1">
     <g id="line2d_1">
      <defs>
       <path id="md4c88111d9" d="M 0 0 
L 0 3.5 
" style="stroke: #000000; stroke-width: 0.8"/>
      </defs>
      <g>
       <use xlink:href="#md4c88111d9" x="91.430275" y="288.430125" style="stroke: #000000; stroke-width: 0.8"/>
      </g>
     </g>
     <g id="text_1">
      <!-- aflplusplus_ast_o1 -->
      <g transform="translate(10.999219 347.766815)rotate(-30)scale(0.1 -0.1)">
       <defs>
        <path id="DejaVuSans-61" d="M 2194 1759 
Q 1497 1759 1228 1600 
Q 959 1441 959 1056 
Q 959 750 1161 570 
Q 1363 391 1709 391 
Q 2188 391 2477 730 
Q 2766 1069 2766 1631 
L 2766 1759 
L 2194 1759 
z
M 3341 1997 
L 3341 0 
L 2766 0 
L 2766 531 
Q 2569 213 2275 61 
Q 1981 -91 1556 -91 
Q 1019 -91 701 211 
Q 384 513 384 1019 
Q 384 1609 779 1909 
Q 1175 2209 1959 2209 
L 2766 2209 
L 2766 2266 
Q 2766 2663 2505 2880 
Q 2244 3097 1772 3097 
Q 1472 3097 1187 3025 
Q 903 2953 641 2809 
L 641 3341 
Q 956 3463 1253 3523 
Q 1550 3584 1831 3584 
Q 2591 3584 2966 3190 
Q 3341 2797 3341 1997 
z
" transform="scale(0.015625)"/>
        <path id="DejaVuSans-66" d="M 2375 4863 
L 2375 4384 
L 1825 4384 
Q 1516 4384 1395 4259 
Q 1275 4134 1275 3809 
L 1275 3500 
L 2222 3500 
L 2222 3053 
L 1275 3053 
L 1275 0 
L 697 0 
L 697 3053 
L 147 3053 
L 147 3500 
L 697 3500 
L 697 3744 
Q 697 4328 969 4595 
Q 1241 4863 1831 4863 
L 2375 4863 
z
" transform="scale(0.015625)"/>
        <path id="DejaVuSans-6c" d="M 603 4863 
L 1178 4863 
L 1178 0 
L 603 0 
L 603 4863 
z
" transform="scale(0.015625)"/>
        <path id="DejaVuSans-70" d="M 1159 525 
L 1159 -1331 
L 581 -1331 
L 581 3500 
L 1159 3500 
L 1159 2969 
Q 1341 3281 1617 3432 
Q 1894 3584 2278 3584 
Q 2916 3584 3314 3078 
Q 3713 2572 3713 1747 
Q 3713 922 3314 415 
Q 2916 -91 2278 -91 
Q 1894 -91 1617 61 
Q 1341 213 1159 525 
z
M 3116 1747 
Q 3116 2381 2855 2742 
Q 2594 3103 2138 3103 
Q 1681 3103 1420 2742 
Q 1159 2381 1159 1747 
Q 1159 1113 1420 752 
Q 1681 391 2138 391 
Q 2594 391 2855 752 
Q 3116 1113 3116 1747 
z
" transform="scale(0.015625)"/>
        <path id="DejaVuSans-75" d="M 544 1381 
L 544 3500 
L 1119 3500 
L 1119 1403 
Q 1119 906 1312 657 
Q 1506 409 1894 409 
Q 2359 409 2629 706 
Q 2900 1003 2900 1516 
L 2900 3500 
L 3475 3500 
L 3475 0 
L 2900 0 
L 2900 538 
Q 2691 219 2414 64 
Q 2138 -91 1772 -91 
Q 1169 -91 856 284 
Q 544 659 544 1381 
z
M 1991 3584 
L 1991 3584 
z
" transform="scale(0.015625)"/>
        <path id="DejaVuSans-73" d="M 2834 3397 
L 2834 2853 
Q 2591 2978 2328 3040 
Q 2066 3103 1784 3103 
Q 1356 3103 1142 2972 
Q 928 2841 928 2578 
Q 928 2378 1081 2264 
Q 1234 2150 1697 2047 
L 1894 2003 
Q 2506 1872 2764 1633 
Q 3022 1394 3022 966 
Q 3022 478 2636 193 
Q 2250 -91 1575 -91 
Q 1294 -91 989 -36 
Q 684 19 347 128 
L 347 722 
Q 666 556 975 473 
Q 1284 391 1588 391 
Q 1994 391 2212 530 
Q 2431 669 2431 922 
Q 2431 1156 2273 1281 
Q 2116 1406 1581 1522 
L 1381 1569 
Q 847 1681 609 1914 
Q 372 2147 372 2553 
Q 372 3047 722 3315 
Q 1072 3584 1716 3584 
Q 2034 3584 2315 3537 
Q 2597 3491 2834 3397 
z
" transform="scale(0.015625)"/>
        <path id="DejaVuSans-5f" d="M 3263 -1063 
L 3263 -1509 
L -63 -1509 
L -63 -1063 
L 3263 -1063 
z
" transform="scale(0.015625)"/>
        <path id="DejaVuSans-74" d="M 1172 4494 
L 1172 3500 
L 2356 3500 
L 2356 3053 
L 1172 3053 
L 1172 1153 
Q 1172 725 1289 603 
Q 1406 481 1766 481 
L 2356 481 
L 2356 0 
L 1766 0 
Q 1100 0 847 248 
Q 594 497 594 1153 
L 594 3053 
L 172 3053 
L 172 3500 
L 594 3500 
L 594 4494 
L 1172 4494 
z
" transform="scale(0.015625)"/>
        <path id="DejaVuSans-6f" d="M 1959 3097 
Q 1497 3097 1228 2736 
Q 959 2375 959 1747 
Q 959 1119 1226 758 
Q 1494 397 1959 397 
Q 2419 397 2687 759 
Q 2956 1122 2956 1747 
Q 2956 2369 2687 2733 
Q 2419 3097 1959 3097 
z
M 1959 3584 
Q 2709 3584 3137 3096 
Q 3566 2609 3566 1747 
Q 3566 888 3137 398 
Q 2709 -91 1959 -91 
Q 1206 -91 779 398 
Q 353 888 353 1747 
Q 353 2609 779 3096 
Q 1206 3584 1959 3584 
z
" transform="scale(0.015625)"/>
        <path id="DejaVuSans-31" d="M 794 531 
L 1825 531 
L 1825 4091 
L 703 3866 
L 703 4441 
L 1819 4666 
L 2450 4666 
L 2450 531 
L 3481 531 
L 3481 0 
L 794 0 
L 794 531 
z
" transform="scale(0.015625)"/>
       </defs>
       <use xlink:href="#DejaVuSans-61"/>
       <use xlink:href="#DejaVuSans-66" x="61.279297"/>
       <use xlink:href="#DejaVuSans-6c" x="96.484375"/>
       <use xlink:href="#DejaVuSans-70" x="124.267578"/>
       <use xlink:href="#DejaVuSans-6c" x="187.744141"/>
       <use xlink:href="#DejaVuSans-75" x="215.527344"/>
       <use xlink:href="#DejaVuSans-73" x="278.90625"/>
       <use xlink:href="#DejaVuSans-70" x="331.005859"/>
       <use xlink:href="#DejaVuSans-6c" x="394.482422"/>
       <use xlink:href="#DejaVuSans-75" x="422.265625"/>
       <use xlink:href="#DejaVuSans-73" x="485.644531"/>
       <use xlink:href="#DejaVuSans-5f" x="537.744141"/>
       <use xlink:href="#DejaVuSans-61" x="587.744141"/>
       <use xlink:href="#DejaVuSans-73" x="649.023438"/>
       <use xlink:href="#DejaVuSans-74" x="701.123047"/>
       <use xlink:href="#DejaVuSans-5f" x="740.332031"/>
       <use xlink:href="#DejaVuSans-6f" x="790.332031"/>
       <use xlink:href="#DejaVuSans-31" x="851.513672"/>
      </g>
     </g>
    </g>
    <g id="xtick_2">
     <g id="line2d_2">
      <g>
       <use xlink:href="#md4c88111d9" x="131.110275" y="288.430125" style="stroke: #000000; stroke-width: 0.8"/>
      </g>
     </g>
     <g id="text_2">
      <!-- aflplusplus_ast_o3_native -->
      <g transform="translate(19.297976 365.884784)rotate(-30)scale(0.1 -0.1)">
       <defs>
        <path id="DejaVuSans-33" d="M 2597 2516 
Q 3050 2419 3304 2112 
Q 3559 1806 3559 1356 
Q 3559 666 3084 287 
Q 2609 -91 1734 -91 
Q 1441 -91 1130 -33 
Q 819 25 488 141 
L 488 750 
Q 750 597 1062 519 
Q 1375 441 1716 441 
Q 2309 441 2620 675 
Q 2931 909 2931 1356 
Q 2931 1769 2642 2001 
Q 2353 2234 1838 2234 
L 1294 2234 
L 1294 2753 
L 1863 2753 
Q 2328 2753 2575 2939 
Q 2822 3125 2822 3475 
Q 2822 3834 2567 4026 
Q 2313 4219 1838 4219 
Q 1578 4219 1281 4162 
Q 984 4106 628 3988 
L 628 4550 
Q 988 4650 1302 4700 
Q 1616 4750 1894 4750 
Q 2613 4750 3031 4423 
Q 3450 4097 3450 3541 
Q 3450 3153 3228 2886 
Q 3006 2619 2597 2516 
z
" transform="scale(0.015625)"/>
        <path id="DejaVuSans-6e" d="M 3513 2113 
L 3513 0 
L 2938 0 
L 2938 2094 
Q 2938 2591 2744 2837 
Q 2550 3084 2163 3084 
Q 1697 3084 1428 2787 
Q 1159 2491 1159 1978 
L 1159 0 
L 581 0 
L 581 3500 
L 1159 3500 
L 1159 2956 
Q 1366 3272 1645 3428 
Q 1925 3584 2291 3584 
Q 2894 3584 3203 3211 
Q 3513 2838 3513 2113 
z
" transform="scale(0.015625)"/>
        <path id="DejaVuSans-69" d="M 603 3500 
L 1178 3500 
L 1178 0 
L 603 0 
L 603 3500 
z
M 603 4863 
L 1178 4863 
L 1178 4134 
L 603 4134 
L 603 4863 
z
" transform="scale(0.015625)"/>
        <path id="DejaVuSans-76" d="M 191 3500 
L 800 3500 
L 1894 563 
L 2988 3500 
L 3597 3500 
L 2284 0 
L 1503 0 
L 191 3500 
z
" transform="scale(0.015625)"/>
        <path id="DejaVuSans-65" d="M 3597 1894 
L 3597 1613 
L 953 1613 
Q 991 1019 1311 708 
Q 1631 397 2203 397 
Q 2534 397 2845 478 
Q 3156 559 3463 722 
L 3463 178 
Q 3153 47 2828 -22 
Q 2503 -91 2169 -91 
Q 1331 -91 842 396 
Q 353 884 353 1716 
Q 353 2575 817 3079 
Q 1281 3584 2069 3584 
Q 2775 3584 3186 3129 
Q 3597 2675 3597 1894 
z
M 3022 2063 
Q 3016 2534 2758 2815 
Q 2500 3097 2075 3097 
Q 1594 3097 1305 2825 
Q 1016 2553 972 2059 
L 3022 2063 
z
" transform="scale(0.015625)"/>
       </defs>
       <use xlink:href="#DejaVuSans-61"/>
       <use xlink:href="#DejaVuSans-66" x="61.279297"/>
       <use xlink:href="#DejaVuSans-6c" x="96.484375"/>
       <use xlink:href="#DejaVuSans-70" x="124.267578"/>
       <use xlink:href="#DejaVuSans-6c" x="187.744141"/>
       <use xlink:href="#DejaVuSans-75" x="215.527344"/>
       <use xlink:href="#DejaVuSans-73" x="278.90625"/>
       <use xlink:href="#DejaVuSans-70" x="331.005859"/>
       <use xlink:href="#DejaVuSans-6c" x="394.482422"/>
       <use xlink:href="#DejaVuSans-75" x="422.265625"/>
       <use xlink:href="#DejaVuSans-73" x="485.644531"/>
       <use xlink:href="#DejaVuSans-5f" x="537.744141"/>
       <use xlink:href="#DejaVuSans-61" x="587.744141"/>
       <use xlink:href="#DejaVuSans-73" x="649.023438"/>
       <use xlink:href="#DejaVuSans-74" x="701.123047"/>
       <use xlink:href="#DejaVuSans-5f" x="740.332031"/>
       <use xlink:href="#DejaVuSans-6f" x="790.332031"/>
       <use xlink:href="#DejaVuSans-33" x="851.513672"/>
       <use xlink:href="#DejaVuSans-5f" x="915.136719"/>
       <use xlink:href="#DejaVuSans-6e" x="965.136719"/>
       <use xlink:href="#DejaVuSans-61" x="1028.515625"/>
       <use xlink:href="#DejaVuSans-74" x="1089.794922"/>
       <use xlink:href="#DejaVuSans-69" x="1129.003906"/>
       <use xlink:href="#DejaVuSans-76" x="1156.787109"/>
       <use xlink:href="#DejaVuSans-65" x="1215.966797"/>
      </g>
     </g>
    </g>
    <g id="xtick_3">
     <g id="line2d_3">
      <g>
       <use xlink:href="#md4c88111d9" x="170.790275" y="288.430125" style="stroke: #000000; stroke-width: 0.8"/>
      </g>
     </g>
     <g id="text_3">
      <!-- aflplusplus_ast_o2 -->
      <g transform="translate(90.359219 347.766815)rotate(-30)scale(0.1 -0.1)">
       <defs>
        <path id="DejaVuSans-32" d="M 1228 531 
L 3431 531 
L 3431 0 
L 469 0 
L 469 531 
Q 828 903 1448 1529 
Q 2069 2156 2228 2338 
Q 2531 2678 2651 2914 
Q 2772 3150 2772 3378 
Q 2772 3750 2511 3984 
Q 2250 4219 1831 4219 
Q 1534 4219 1204 4116 
Q 875 4013 500 3803 
L 500 4441 
Q 881 4594 1212 4672 
Q 1544 4750 1819 4750 
Q 2544 4750 2975 4387 
Q 3406 4025 3406 3419 
Q 3406 3131 3298 2873 
Q 3191 2616 2906 2266 
Q 2828 2175 2409 1742 
Q 1991 1309 1228 531 
z
" transform="scale(0.015625)"/>
       </defs>
       <use xlink:href="#DejaVuSans-61"/>
       <use xlink:href="#DejaVuSans-66" x="61.279297"/>
       <use xlink:href="#DejaVuSans-6c" x="96.484375"/>
       <use xlink:href="#DejaVuSans-70" x="124.267578"/>
       <use xlink:href="#DejaVuSans-6c" x="187.744141"/>
       <use xlink:href="#DejaVuSans-75" x="215.527344"/>
       <use xlink:href="#DejaVuSans-73" x="278.90625"/>
       <use xlink:href="#DejaVuSans-70" x="331.005859"/>
       <use xlink:href="#DejaVuSans-6c" x="394.482422"/>
       <use xlink:href="#DejaVuSans-75" x="422.265625"/>
       <use xlink:href="#DejaVuSans-73" x="485.644531"/>
       <use xlink:href="#DejaVuSans-5f" x="537.744141"/>
       <use xlink:href="#DejaVuSans-61" x="587.744141"/>
       <use xlink:href="#DejaVuSans-73" x="649.023438"/>
       <use xlink:href="#DejaVuSans-74" x="701.123047"/>
       <use xlink:href="#DejaVuSans-5f" x="740.332031"/>
       <use xlink:href="#DejaVuSans-6f" x="790.332031"/>
       <use xlink:href="#DejaVuSans-32" x="851.513672"/>
      </g>
     </g>
    </g>
    <g id="xtick_4">
     <g id="line2d_4">
      <g>
       <use xlink:href="#md4c88111d9" x="210.470275" y="288.430125" style="stroke: #000000; stroke-width: 0.8"/>
      </g>
     </g>
     <g id="text_4">
      <!-- aflplusplus_ast_o3 -->
      <g transform="translate(130.039219 347.766815)rotate(-30)scale(0.1 -0.1)">
       <use xlink:href="#DejaVuSans-61"/>
       <use xlink:href="#DejaVuSans-66" x="61.279297"/>
       <use xlink:href="#DejaVuSans-6c" x="96.484375"/>
       <use xlink:href="#DejaVuSans-70" x="124.267578"/>
       <use xlink:href="#DejaVuSans-6c" x="187.744141"/>
       <use xlink:href="#DejaVuSans-75" x="215.527344"/>
       <use xlink:href="#DejaVuSans-73" x="278.90625"/>
       <use xlink:href="#DejaVuSans-70" x="331.005859"/>
       <use xlink:href="#DejaVuSans-6c" x="394.482422"/>
       <use xlink:href="#DejaVuSans-75" x="422.265625"/>
       <use xlink:href="#DejaVuSans-73" x="485.644531"/>
       <use xlink:href="#DejaVuSans-5f" x="537.744141"/>
       <use xlink:href="#DejaVuSans-61" x="587.744141"/>
       <use xlink:href="#DejaVuSans-73" x="649.023438"/>
       <use xlink:href="#DejaVuSans-74" x="701.123047"/>
       <use xlink:href="#DejaVuSans-5f" x="740.332031"/>
       <use xlink:href="#DejaVuSans-6f" x="790.332031"/>
       <use xlink:href="#DejaVuSans-33" x="851.513672"/>
      </g>
     </g>
    </g>
    <g id="xtick_5">
     <g id="line2d_5">
      <g>
       <use xlink:href="#md4c88111d9" x="250.150275" y="288.430125" style="stroke: #000000; stroke-width: 0.8"/>
      </g>
     </g>
     <g id="text_5">
      <!-- aflplusplus_ast_f1 -->
      <g transform="translate(171.969532 346.467596)rotate(-30)scale(0.1 -0.1)">
       <use xlink:href="#DejaVuSans-61"/>
       <use xlink:href="#DejaVuSans-66" x="61.279297"/>
       <use xlink:href="#DejaVuSans-6c" x="96.484375"/>
       <use xlink:href="#DejaVuSans-70" x="124.267578"/>
       <use xlink:href="#DejaVuSans-6c" x="187.744141"/>
       <use xlink:href="#DejaVuSans-75" x="215.527344"/>
       <use xlink:href="#DejaVuSans-73" x="278.90625"/>
       <use xlink:href="#DejaVuSans-70" x="331.005859"/>
       <use xlink:href="#DejaVuSans-6c" x="394.482422"/>
       <use xlink:href="#DejaVuSans-75" x="422.265625"/>
       <use xlink:href="#DejaVuSans-73" x="485.644531"/>
       <use xlink:href="#DejaVuSans-5f" x="537.744141"/>
       <use xlink:href="#DejaVuSans-61" x="587.744141"/>
       <use xlink:href="#DejaVuSans-73" x="649.023438"/>
       <use xlink:href="#DejaVuSans-74" x="701.123047"/>
       <use xlink:href="#DejaVuSans-5f" x="740.332031"/>
       <use xlink:href="#DejaVuSans-66" x="790.332031"/>
       <use xlink:href="#DejaVuSans-31" x="825.537109"/>
      </g>
     </g>
    </g>
    <g id="xtick_6">
     <g id="line2d_6">
      <g>
       <use xlink:href="#md4c88111d9" x="289.830275" y="288.430125" style="stroke: #000000; stroke-width: 0.8"/>
      </g>
     </g>
     <g id="text_6">
      <!-- aflplusplus_ast_f0 -->
      <g transform="translate(211.649532 346.467596)rotate(-30)scale(0.1 -0.1)">
       <defs>
        <path id="DejaVuSans-30" d="M 2034 4250 
Q 1547 4250 1301 3770 
Q 1056 3291 1056 2328 
Q 1056 1369 1301 889 
Q 1547 409 2034 409 
Q 2525 409 2770 889 
Q 3016 1369 3016 2328 
Q 3016 3291 2770 3770 
Q 2525 4250 2034 4250 
z
M 2034 4750 
Q 2819 4750 3233 4129 
Q 3647 3509 3647 2328 
Q 3647 1150 3233 529 
Q 2819 -91 2034 -91 
Q 1250 -91 836 529 
Q 422 1150 422 2328 
Q 422 3509 836 4129 
Q 1250 4750 2034 4750 
z
" transform="scale(0.015625)"/>
       </defs>
       <use xlink:href="#DejaVuSans-61"/>
       <use xlink:href="#DejaVuSans-66" x="61.279297"/>
       <use xlink:href="#DejaVuSans-6c" x="96.484375"/>
       <use xlink:href="#DejaVuSans-70" x="124.267578"/>
       <use xlink:href="#DejaVuSans-6c" x="187.744141"/>
       <use xlink:href="#DejaVuSans-75" x="215.527344"/>
       <use xlink:href="#DejaVuSans-73" x="278.90625"/>
       <use xlink:href="#DejaVuSans-70" x="331.005859"/>
       <use xlink:href="#DejaVuSans-6c" x="394.482422"/>
       <use xlink:href="#DejaVuSans-75" x="422.265625"/>
       <use xlink:href="#DejaVuSans-73" x="485.644531"/>
       <use xlink:href="#DejaVuSans-5f" x="537.744141"/>
       <use xlink:href="#DejaVuSans-61" x="587.744141"/>
       <use xlink:href="#DejaVuSans-73" x="649.023438"/>
       <use xlink:href="#DejaVuSans-74" x="701.123047"/>
       <use xlink:href="#DejaVuSans-5f" x="740.332031"/>
       <use xlink:href="#DejaVuSans-66" x="790.332031"/>
       <use xlink:href="#DejaVuSans-30" x="825.537109"/>
      </g>
     </g>
    </g>
    <g id="xtick_7">
     <g id="line2d_7">
      <g>
       <use xlink:href="#md4c88111d9" x="329.510275" y="288.430125" style="stroke: #000000; stroke-width: 0.8"/>
      </g>
     </g>
     <g id="text_7">
      <!-- aflplusplus_ast_o0 -->
      <g transform="translate(249.079219 347.766815)rotate(-30)scale(0.1 -0.1)">
       <use xlink:href="#DejaVuSans-61"/>
       <use xlink:href="#DejaVuSans-66" x="61.279297"/>
       <use xlink:href="#DejaVuSans-6c" x="96.484375"/>
       <use xlink:href="#DejaVuSans-70" x="124.267578"/>
       <use xlink:href="#DejaVuSans-6c" x="187.744141"/>
       <use xlink:href="#DejaVuSans-75" x="215.527344"/>
       <use xlink:href="#DejaVuSans-73" x="278.90625"/>
       <use xlink:href="#DejaVuSans-70" x="331.005859"/>
       <use xlink:href="#DejaVuSans-6c" x="394.482422"/>
       <use xlink:href="#DejaVuSans-75" x="422.265625"/>
       <use xlink:href="#DejaVuSans-73" x="485.644531"/>
       <use xlink:href="#DejaVuSans-5f" x="537.744141"/>
       <use xlink:href="#DejaVuSans-61" x="587.744141"/>
       <use xlink:href="#DejaVuSans-73" x="649.023438"/>
       <use xlink:href="#DejaVuSans-74" x="701.123047"/>
       <use xlink:href="#DejaVuSans-5f" x="740.332031"/>
       <use xlink:href="#DejaVuSans-6f" x="790.332031"/>
       <use xlink:href="#DejaVuSans-30" x="851.513672"/>
      </g>
     </g>
    </g>
    <g id="xtick_8">
     <g id="line2d_8">
      <g>
       <use xlink:href="#md4c88111d9" x="369.190275" y="288.430125" style="stroke: #000000; stroke-width: 0.8"/>
      </g>
     </g>
     <g id="text_8">
      <!-- aflplusplus_ast_opt_l1 -->
      <g transform="translate(273.130167 356.790252)rotate(-30)scale(0.1 -0.1)">
       <use xlink:href="#DejaVuSans-61"/>
       <use xlink:href="#DejaVuSans-66" x="61.279297"/>
       <use xlink:href="#DejaVuSans-6c" x="96.484375"/>
       <use xlink:href="#DejaVuSans-70" x="124.267578"/>
       <use xlink:href="#DejaVuSans-6c" x="187.744141"/>
       <use xlink:href="#DejaVuSans-75" x="215.527344"/>
       <use xlink:href="#DejaVuSans-73" x="278.90625"/>
       <use xlink:href="#DejaVuSans-70" x="331.005859"/>
       <use xlink:href="#DejaVuSans-6c" x="394.482422"/>
       <use xlink:href="#DejaVuSans-75" x="422.265625"/>
       <use xlink:href="#DejaVuSans-73" x="485.644531"/>
       <use xlink:href="#DejaVuSans-5f" x="537.744141"/>
       <use xlink:href="#DejaVuSans-61" x="587.744141"/>
       <use xlink:href="#DejaVuSans-73" x="649.023438"/>
       <use xlink:href="#DejaVuSans-74" x="701.123047"/>
       <use xlink:href="#DejaVuSans-5f" x="740.332031"/>
       <use xlink:href="#DejaVuSans-6f" x="790.332031"/>
       <use xlink:href="#DejaVuSans-70" x="851.513672"/>
       <use xlink:href="#DejaVuSans-74" x="914.990234"/>
       <use xlink:href="#DejaVuSans-5f" x="954.199219"/>
       <use xlink:href="#DejaVuSans-6c" x="1004.199219"/>
       <use xlink:href="#DejaVuSans-31" x="1031.982422"/>
      </g>
     </g>
    </g>
    <g id="xtick_9">
     <g id="line2d_9">
      <g>
       <use xlink:href="#md4c88111d9" x="408.870275" y="288.430125" style="stroke: #000000; stroke-width: 0.8"/>
      </g>
     </g>
     <g id="text_9">
      <!-- aflplusplus_ast_opt_disable -->
      <g transform="translate(289.771184 370.091815)rotate(-30)scale(0.1 -0.1)">
       <defs>
        <path id="DejaVuSans-64" d="M 2906 2969 
L 2906 4863 
L 3481 4863 
L 3481 0 
L 2906 0 
L 2906 525 
Q 2725 213 2448 61 
Q 2172 -91 1784 -91 
Q 1150 -91 751 415 
Q 353 922 353 1747 
Q 353 2572 751 3078 
Q 1150 3584 1784 3584 
Q 2172 3584 2448 3432 
Q 2725 3281 2906 2969 
z
M 947 1747 
Q 947 1113 1208 752 
Q 1469 391 1925 391 
Q 2381 391 2643 752 
Q 2906 1113 2906 1747 
Q 2906 2381 2643 2742 
Q 2381 3103 1925 3103 
Q 1469 3103 1208 2742 
Q 947 2381 947 1747 
z
" transform="scale(0.015625)"/>
        <path id="DejaVuSans-62" d="M 3116 1747 
Q 3116 2381 2855 2742 
Q 2594 3103 2138 3103 
Q 1681 3103 1420 2742 
Q 1159 2381 1159 1747 
Q 1159 1113 1420 752 
Q 1681 391 2138 391 
Q 2594 391 2855 752 
Q 3116 1113 3116 1747 
z
M 1159 2969 
Q 1341 3281 1617 3432 
Q 1894 3584 2278 3584 
Q 2916 3584 3314 3078 
Q 3713 2572 3713 1747 
Q 3713 922 3314 415 
Q 2916 -91 2278 -91 
Q 1894 -91 1617 61 
Q 1341 213 1159 525 
L 1159 0 
L 581 0 
L 581 4863 
L 1159 4863 
L 1159 2969 
z
" transform="scale(0.015625)"/>
       </defs>
       <use xlink:href="#DejaVuSans-61"/>
       <use xlink:href="#DejaVuSans-66" x="61.279297"/>
       <use xlink:href="#DejaVuSans-6c" x="96.484375"/>
       <use xlink:href="#DejaVuSans-70" x="124.267578"/>
       <use xlink:href="#DejaVuSans-6c" x="187.744141"/>
       <use xlink:href="#DejaVuSans-75" x="215.527344"/>
       <use xlink:href="#DejaVuSans-73" x="278.90625"/>
       <use xlink:href="#DejaVuSans-70" x="331.005859"/>
       <use xlink:href="#DejaVuSans-6c" x="394.482422"/>
       <use xlink:href="#DejaVuSans-75" x="422.265625"/>
       <use xlink:href="#DejaVuSans-73" x="485.644531"/>
       <use xlink:href="#DejaVuSans-5f" x="537.744141"/>
       <use xlink:href="#DejaVuSans-61" x="587.744141"/>
       <use xlink:href="#DejaVuSans-73" x="649.023438"/>
       <use xlink:href="#DejaVuSans-74" x="701.123047"/>
       <use xlink:href="#DejaVuSans-5f" x="740.332031"/>
       <use xlink:href="#DejaVuSans-6f" x="790.332031"/>
       <use xlink:href="#DejaVuSans-70" x="851.513672"/>
       <use xlink:href="#DejaVuSans-74" x="914.990234"/>
       <use xlink:href="#DejaVuSans-5f" x="954.199219"/>
       <use xlink:href="#DejaVuSans-64" x="1004.199219"/>
       <use xlink:href="#DejaVuSans-69" x="1067.675781"/>
       <use xlink:href="#DejaVuSans-73" x="1095.458984"/>
       <use xlink:href="#DejaVuSans-61" x="1147.558594"/>
       <use xlink:href="#DejaVuSans-62" x="1208.837891"/>
       <use xlink:href="#DejaVuSans-6c" x="1272.314453"/>
       <use xlink:href="#DejaVuSans-65" x="1300.097656"/>
      </g>
     </g>
    </g>
    <g id="text_10">
     <!-- Fuzzer (highest median coverage on the left) -->
     <g transform="translate(137.532306 383.732178)scale(0.1 -0.1)">
      <defs>
       <path id="DejaVuSans-46" d="M 628 4666 
L 3309 4666 
L 3309 4134 
L 1259 4134 
L 1259 2759 
L 3109 2759 
L 3109 2228 
L 1259 2228 
L 1259 0 
L 628 0 
L 628 4666 
z
" transform="scale(0.015625)"/>
       <path id="DejaVuSans-7a" d="M 353 3500 
L 3084 3500 
L 3084 2975 
L 922 459 
L 3084 459 
L 3084 0 
L 275 0 
L 275 525 
L 2438 3041 
L 353 3041 
L 353 3500 
z
" transform="scale(0.015625)"/>
       <path id="DejaVuSans-72" d="M 2631 2963 
Q 2534 3019 2420 3045 
Q 2306 3072 2169 3072 
Q 1681 3072 1420 2755 
Q 1159 2438 1159 1844 
L 1159 0 
L 581 0 
L 581 3500 
L 1159 3500 
L 1159 2956 
Q 1341 3275 1631 3429 
Q 1922 3584 2338 3584 
Q 2397 3584 2469 3576 
Q 2541 3569 2628 3553 
L 2631 2963 
z
" transform="scale(0.015625)"/>
       <path id="DejaVuSans-20" transform="scale(0.015625)"/>
       <path id="DejaVuSans-28" d="M 1984 4856 
Q 1566 4138 1362 3434 
Q 1159 2731 1159 2009 
Q 1159 1288 1364 580 
Q 1569 -128 1984 -844 
L 1484 -844 
Q 1016 -109 783 600 
Q 550 1309 550 2009 
Q 550 2706 781 3412 
Q 1013 4119 1484 4856 
L 1984 4856 
z
" transform="scale(0.015625)"/>
       <path id="DejaVuSans-68" d="M 3513 2113 
L 3513 0 
L 2938 0 
L 2938 2094 
Q 2938 2591 2744 2837 
Q 2550 3084 2163 3084 
Q 1697 3084 1428 2787 
Q 1159 2491 1159 1978 
L 1159 0 
L 581 0 
L 581 4863 
L 1159 4863 
L 1159 2956 
Q 1366 3272 1645 3428 
Q 1925 3584 2291 3584 
Q 2894 3584 3203 3211 
Q 3513 2838 3513 2113 
z
" transform="scale(0.015625)"/>
       <path id="DejaVuSans-67" d="M 2906 1791 
Q 2906 2416 2648 2759 
Q 2391 3103 1925 3103 
Q 1463 3103 1205 2759 
Q 947 2416 947 1791 
Q 947 1169 1205 825 
Q 1463 481 1925 481 
Q 2391 481 2648 825 
Q 2906 1169 2906 1791 
z
M 3481 434 
Q 3481 -459 3084 -895 
Q 2688 -1331 1869 -1331 
Q 1566 -1331 1297 -1286 
Q 1028 -1241 775 -1147 
L 775 -588 
Q 1028 -725 1275 -790 
Q 1522 -856 1778 -856 
Q 2344 -856 2625 -561 
Q 2906 -266 2906 331 
L 2906 616 
Q 2728 306 2450 153 
Q 2172 0 1784 0 
Q 1141 0 747 490 
Q 353 981 353 1791 
Q 353 2603 747 3093 
Q 1141 3584 1784 3584 
Q 2172 3584 2450 3431 
Q 2728 3278 2906 2969 
L 2906 3500 
L 3481 3500 
L 3481 434 
z
" transform="scale(0.015625)"/>
       <path id="DejaVuSans-6d" d="M 3328 2828 
Q 3544 3216 3844 3400 
Q 4144 3584 4550 3584 
Q 5097 3584 5394 3201 
Q 5691 2819 5691 2113 
L 5691 0 
L 5113 0 
L 5113 2094 
Q 5113 2597 4934 2840 
Q 4756 3084 4391 3084 
Q 3944 3084 3684 2787 
Q 3425 2491 3425 1978 
L 3425 0 
L 2847 0 
L 2847 2094 
Q 2847 2600 2669 2842 
Q 2491 3084 2119 3084 
Q 1678 3084 1418 2786 
Q 1159 2488 1159 1978 
L 1159 0 
L 581 0 
L 581 3500 
L 1159 3500 
L 1159 2956 
Q 1356 3278 1631 3431 
Q 1906 3584 2284 3584 
Q 2666 3584 2933 3390 
Q 3200 3197 3328 2828 
z
" transform="scale(0.015625)"/>
       <path id="DejaVuSans-63" d="M 3122 3366 
L 3122 2828 
Q 2878 2963 2633 3030 
Q 2388 3097 2138 3097 
Q 1578 3097 1268 2742 
Q 959 2388 959 1747 
Q 959 1106 1268 751 
Q 1578 397 2138 397 
Q 2388 397 2633 464 
Q 2878 531 3122 666 
L 3122 134 
Q 2881 22 2623 -34 
Q 2366 -91 2075 -91 
Q 1284 -91 818 406 
Q 353 903 353 1747 
Q 353 2603 823 3093 
Q 1294 3584 2113 3584 
Q 2378 3584 2631 3529 
Q 2884 3475 3122 3366 
z
" transform="scale(0.015625)"/>
       <path id="DejaVuSans-29" d="M 513 4856 
L 1013 4856 
Q 1481 4119 1714 3412 
Q 1947 2706 1947 2009 
Q 1947 1309 1714 600 
Q 1481 -109 1013 -844 
L 513 -844 
Q 928 -128 1133 580 
Q 1338 1288 1338 2009 
Q 1338 2731 1133 3434 
Q 928 4138 513 4856 
z
" transform="scale(0.015625)"/>
      </defs>
      <use xlink:href="#DejaVuSans-46"/>
      <use xlink:href="#DejaVuSans-75" x="52.019531"/>
      <use xlink:href="#DejaVuSans-7a" x="115.398438"/>
      <use xlink:href="#DejaVuSans-7a" x="167.888672"/>
      <use xlink:href="#DejaVuSans-65" x="220.378906"/>
      <use xlink:href="#DejaVuSans-72" x="281.902344"/>
      <use xlink:href="#DejaVuSans-20" x="323.015625"/>
      <use xlink:href="#DejaVuSans-28" x="354.802734"/>
      <use xlink:href="#DejaVuSans-68" x="393.816406"/>
      <use xlink:href="#DejaVuSans-69" x="457.195312"/>
      <use xlink:href="#DejaVuSans-67" x="484.978516"/>
      <use xlink:href="#DejaVuSans-68" x="548.455078"/>
      <use xlink:href="#DejaVuSans-65" x="611.833984"/>
      <use xlink:href="#DejaVuSans-73" x="673.357422"/>
      <use xlink:href="#DejaVuSans-74" x="725.457031"/>
      <use xlink:href="#DejaVuSans-20" x="764.666016"/>
      <use xlink:href="#DejaVuSans-6d" x="796.453125"/>
      <use xlink:href="#DejaVuSans-65" x="893.865234"/>
      <use xlink:href="#DejaVuSans-64" x="955.388672"/>
      <use xlink:href="#DejaVuSans-69" x="1018.865234"/>
      <use xlink:href="#DejaVuSans-61" x="1046.648438"/>
      <use xlink:href="#DejaVuSans-6e" x="1107.927734"/>
      <use xlink:href="#DejaVuSans-20" x="1171.306641"/>
      <use xlink:href="#DejaVuSans-63" x="1203.09375"/>
      <use xlink:href="#DejaVuSans-6f" x="1258.074219"/>
      <use xlink:href="#DejaVuSans-76" x="1319.255859"/>
      <use xlink:href="#DejaVuSans-65" x="1378.435547"/>
      <use xlink:href="#DejaVuSans-72" x="1439.958984"/>
      <use xlink:href="#DejaVuSans-61" x="1481.072266"/>
      <use xlink:href="#DejaVuSans-67" x="1542.351562"/>
      <use xlink:href="#DejaVuSans-65" x="1605.828125"/>
      <use xlink:href="#DejaVuSans-20" x="1667.351562"/>
      <use xlink:href="#DejaVuSans-6f" x="1699.138672"/>
      <use xlink:href="#DejaVuSans-6e" x="1760.320312"/>
      <use xlink:href="#DejaVuSans-20" x="1823.699219"/>
      <use xlink:href="#DejaVuSans-74" x="1855.486328"/>
      <use xlink:href="#DejaVuSans-68" x="1894.695312"/>
      <use xlink:href="#DejaVuSans-65" x="1958.074219"/>
      <use xlink:href="#DejaVuSans-20" x="2019.597656"/>
      <use xlink:href="#DejaVuSans-6c" x="2051.384766"/>
      <use xlink:href="#DejaVuSans-65" x="2079.167969"/>
      <use xlink:href="#DejaVuSans-66" x="2140.691406"/>
      <use xlink:href="#DejaVuSans-74" x="2174.146484"/>
      <use xlink:href="#DejaVuSans-29" x="2213.355469"/>
     </g>
    </g>
   </g>
   <g id="matplotlib.axis_2">
    <g id="ytick_1">
     <g id="line2d_10">
      <defs>
       <path id="m8b9aa50096" d="M 0 0 
L -3.5 0 
" style="stroke: #000000; stroke-width: 0.8"/>
      </defs>
      <g>
       <use xlink:href="#m8b9aa50096" x="71.590275" y="288.237933" style="stroke: #000000; stroke-width: 0.8"/>
      </g>
     </g>
     <g id="text_11">
      <!-- 14000 -->
      <g transform="translate(32.777775 292.037152)scale(0.1 -0.1)">
       <defs>
        <path id="DejaVuSans-34" d="M 2419 4116 
L 825 1625 
L 2419 1625 
L 2419 4116 
z
M 2253 4666 
L 3047 4666 
L 3047 1625 
L 3713 1625 
L 3713 1100 
L 3047 1100 
L 3047 0 
L 2419 0 
L 2419 1100 
L 313 1100 
L 313 1709 
L 2253 4666 
z
" transform="scale(0.015625)"/>
       </defs>
       <use xlink:href="#DejaVuSans-31"/>
       <use xlink:href="#DejaVuSans-34" x="63.623047"/>
       <use xlink:href="#DejaVuSans-30" x="127.246094"/>
       <use xlink:href="#DejaVuSans-30" x="190.869141"/>
       <use xlink:href="#DejaVuSans-30" x="254.492188"/>
      </g>
     </g>
    </g>
    <g id="ytick_2">
     <g id="line2d_11">
      <g>
       <use xlink:href="#m8b9aa50096" x="71.590275" y="229.311751" style="stroke: #000000; stroke-width: 0.8"/>
      </g>
     </g>
     <g id="text_12">
      <!-- 16000 -->
      <g transform="translate(32.777775 233.11097)scale(0.1 -0.1)">
       <defs>
        <path id="DejaVuSans-36" d="M 2113 2584 
Q 1688 2584 1439 2293 
Q 1191 2003 1191 1497 
Q 1191 994 1439 701 
Q 1688 409 2113 409 
Q 2538 409 2786 701 
Q 3034 994 3034 1497 
Q 3034 2003 2786 2293 
Q 2538 2584 2113 2584 
z
M 3366 4563 
L 3366 3988 
Q 3128 4100 2886 4159 
Q 2644 4219 2406 4219 
Q 1781 4219 1451 3797 
Q 1122 3375 1075 2522 
Q 1259 2794 1537 2939 
Q 1816 3084 2150 3084 
Q 2853 3084 3261 2657 
Q 3669 2231 3669 1497 
Q 3669 778 3244 343 
Q 2819 -91 2113 -91 
Q 1303 -91 875 529 
Q 447 1150 447 2328 
Q 447 3434 972 4092 
Q 1497 4750 2381 4750 
Q 2619 4750 2861 4703 
Q 3103 4656 3366 4563 
z
" transform="scale(0.015625)"/>
       </defs>
       <use xlink:href="#DejaVuSans-31"/>
       <use xlink:href="#DejaVuSans-36" x="63.623047"/>
       <use xlink:href="#DejaVuSans-30" x="127.246094"/>
       <use xlink:href="#DejaVuSans-30" x="190.869141"/>
       <use xlink:href="#DejaVuSans-30" x="254.492188"/>
      </g>
     </g>
    </g>
    <g id="ytick_3">
     <g id="line2d_12">
      <g>
       <use xlink:href="#m8b9aa50096" x="71.590275" y="170.38557" style="stroke: #000000; stroke-width: 0.8"/>
      </g>
     </g>
     <g id="text_13">
      <!-- 18000 -->
      <g transform="translate(32.777775 174.184788)scale(0.1 -0.1)">
       <defs>
        <path id="DejaVuSans-38" d="M 2034 2216 
Q 1584 2216 1326 1975 
Q 1069 1734 1069 1313 
Q 1069 891 1326 650 
Q 1584 409 2034 409 
Q 2484 409 2743 651 
Q 3003 894 3003 1313 
Q 3003 1734 2745 1975 
Q 2488 2216 2034 2216 
z
M 1403 2484 
Q 997 2584 770 2862 
Q 544 3141 544 3541 
Q 544 4100 942 4425 
Q 1341 4750 2034 4750 
Q 2731 4750 3128 4425 
Q 3525 4100 3525 3541 
Q 3525 3141 3298 2862 
Q 3072 2584 2669 2484 
Q 3125 2378 3379 2068 
Q 3634 1759 3634 1313 
Q 3634 634 3220 271 
Q 2806 -91 2034 -91 
Q 1263 -91 848 271 
Q 434 634 434 1313 
Q 434 1759 690 2068 
Q 947 2378 1403 2484 
z
M 1172 3481 
Q 1172 3119 1398 2916 
Q 1625 2713 2034 2713 
Q 2441 2713 2670 2916 
Q 2900 3119 2900 3481 
Q 2900 3844 2670 4047 
Q 2441 4250 2034 4250 
Q 1625 4250 1398 4047 
Q 1172 3844 1172 3481 
z
" transform="scale(0.015625)"/>
       </defs>
       <use xlink:href="#DejaVuSans-31"/>
       <use xlink:href="#DejaVuSans-38" x="63.623047"/>
       <use xlink:href="#DejaVuSans-30" x="127.246094"/>
       <use xlink:href="#DejaVuSans-30" x="190.869141"/>
       <use xlink:href="#DejaVuSans-30" x="254.492188"/>
      </g>
     </g>
    </g>
    <g id="ytick_4">
     <g id="line2d_13">
      <g>
       <use xlink:href="#m8b9aa50096" x="71.590275" y="111.459388" style="stroke: #000000; stroke-width: 0.8"/>
      </g>
     </g>
     <g id="text_14">
      <!-- 20000 -->
      <g transform="translate(32.777775 115.258607)scale(0.1 -0.1)">
       <use xlink:href="#DejaVuSans-32"/>
       <use xlink:href="#DejaVuSans-30" x="63.623047"/>
       <use xlink:href="#DejaVuSans-30" x="127.246094"/>
       <use xlink:href="#DejaVuSans-30" x="190.869141"/>
       <use xlink:href="#DejaVuSans-30" x="254.492188"/>
      </g>
     </g>
    </g>
    <g id="ytick_5">
     <g id="line2d_14">
      <g>
       <use xlink:href="#m8b9aa50096" x="71.590275" y="52.533207" style="stroke: #000000; stroke-width: 0.8"/>
      </g>
     </g>
     <g id="text_15">
      <!-- 22000 -->
      <g transform="translate(32.777775 56.332425)scale(0.1 -0.1)">
       <use xlink:href="#DejaVuSans-32"/>
       <use xlink:href="#DejaVuSans-32" x="63.623047"/>
       <use xlink:href="#DejaVuSans-30" x="127.246094"/>
       <use xlink:href="#DejaVuSans-30" x="190.869141"/>
       <use xlink:href="#DejaVuSans-30" x="254.492188"/>
      </g>
     </g>
    </g>
    <g id="text_16">
     <!-- Reached region coverage -->
     <g transform="translate(26.698087 219.136625)rotate(-90)scale(0.1 -0.1)">
      <defs>
       <path id="DejaVuSans-52" d="M 2841 2188 
Q 3044 2119 3236 1894 
Q 3428 1669 3622 1275 
L 4263 0 
L 3584 0 
L 2988 1197 
Q 2756 1666 2539 1819 
Q 2322 1972 1947 1972 
L 1259 1972 
L 1259 0 
L 628 0 
L 628 4666 
L 2053 4666 
Q 2853 4666 3247 4331 
Q 3641 3997 3641 3322 
Q 3641 2881 3436 2590 
Q 3231 2300 2841 2188 
z
M 1259 4147 
L 1259 2491 
L 2053 2491 
Q 2509 2491 2742 2702 
Q 2975 2913 2975 3322 
Q 2975 3731 2742 3939 
Q 2509 4147 2053 4147 
L 1259 4147 
z
" transform="scale(0.015625)"/>
      </defs>
      <use xlink:href="#DejaVuSans-52"/>
      <use xlink:href="#DejaVuSans-65" x="64.982422"/>
      <use xlink:href="#DejaVuSans-61" x="126.505859"/>
      <use xlink:href="#DejaVuSans-63" x="187.785156"/>
      <use xlink:href="#DejaVuSans-68" x="242.765625"/>
      <use xlink:href="#DejaVuSans-65" x="306.144531"/>
      <use xlink:href="#DejaVuSans-64" x="367.667969"/>
      <use xlink:href="#DejaVuSans-20" x="431.144531"/>
      <use xlink:href="#DejaVuSans-72" x="462.931641"/>
      <use xlink:href="#DejaVuSans-65" x="501.794922"/>
      <use xlink:href="#DejaVuSans-67" x="563.318359"/>
      <use xlink:href="#DejaVuSans-69" x="626.794922"/>
      <use xlink:href="#DejaVuSans-6f" x="654.578125"/>
      <use xlink:href="#DejaVuSans-6e" x="715.759766"/>
      <use xlink:href="#DejaVuSans-20" x="779.138672"/>
      <use xlink:href="#DejaVuSans-63" x="810.925781"/>
      <use xlink:href="#DejaVuSans-6f" x="865.90625"/>
      <use xlink:href="#DejaVuSans-76" x="927.087891"/>
      <use xlink:href="#DejaVuSans-65" x="986.267578"/>
      <use xlink:href="#DejaVuSans-72" x="1047.791016"/>
      <use xlink:href="#DejaVuSans-61" x="1088.904297"/>
      <use xlink:href="#DejaVuSans-67" x="1150.183594"/>
      <use xlink:href="#DejaVuSans-65" x="1213.660156"/>
     </g>
    </g>
   </g>
   <g id="line2d_15">
    <path d="M 91.430275 189.212485 
L 91.430275 121.064356 
" clip-path="url(#p60c41057b1)" style="fill: none; stroke: #3d3d3d; stroke-width: 1.5; stroke-linecap: square"/>
   </g>
   <g id="line2d_16">
    <path d="M 91.430275 181.375303 
L 91.430275 152.619326 
" clip-path="url(#p60c41057b1)" style="fill: none; stroke: #3d3d3d; stroke-width: 4.5; stroke-linecap: square"/>
   </g>
   <g id="line2d_17">
    <path d="M 131.110275 207.715306 
L 131.110275 103.032944 
" clip-path="url(#p60c41057b1)" style="fill: none; stroke: #3d3d3d; stroke-width: 1.5; stroke-linecap: square"/>
   </g>
   <g id="line2d_18">
    <path d="M 131.110275 205.726547 
L 131.110275 120.165732 
" clip-path="url(#p60c41057b1)" style="fill: none; stroke: #3d3d3d; stroke-width: 4.5; stroke-linecap: square"/>
   </g>
   <g id="line2d_19">
    <path d="M 170.790275 202.824433 
L 170.790275 133.468317 
" clip-path="url(#p60c41057b1)" style="fill: none; stroke: #3d3d3d; stroke-width: 1.5; stroke-linecap: square"/>
   </g>
   <g id="line2d_20">
    <path d="M 170.790275 192.394499 
L 170.790275 155.742414 
" clip-path="url(#p60c41057b1)" style="fill: none; stroke: #3d3d3d; stroke-width: 4.5; stroke-linecap: square"/>
   </g>
   <g id="line2d_21">
    <path d="M 210.470275 202.79497 
L 210.470275 144.310734 
" clip-path="url(#p60c41057b1)" style="fill: none; stroke: #3d3d3d; stroke-width: 1.5; stroke-linecap: square"/>
   </g>
   <g id="line2d_22">
    <path d="M 210.470275 188.092887 
L 210.470275 160.368119 
" clip-path="url(#p60c41057b1)" style="fill: none; stroke: #3d3d3d; stroke-width: 4.5; stroke-linecap: square"/>
   </g>
   <g id="line2d_23">
    <path d="M 250.150275 204.562755 
L 250.150275 146.255298 
" clip-path="url(#p60c41057b1)" style="fill: none; stroke: #3d3d3d; stroke-width: 1.5; stroke-linecap: square"/>
   </g>
   <g id="line2d_24">
    <path d="M 250.150275 178.812014 
L 250.150275 159.366374 
" clip-path="url(#p60c41057b1)" style="fill: none; stroke: #3d3d3d; stroke-width: 4.5; stroke-linecap: square"/>
   </g>
   <g id="line2d_25">
    <path d="M 289.830275 210.072353 
L 289.830275 157.480736 
" clip-path="url(#p60c41057b1)" style="fill: none; stroke: #3d3d3d; stroke-width: 1.5; stroke-linecap: square"/>
   </g>
   <g id="line2d_26">
    <path d="M 289.830275 199.819197 
L 289.830275 180.314631 
" clip-path="url(#p60c41057b1)" style="fill: none; stroke: #3d3d3d; stroke-width: 4.5; stroke-linecap: square"/>
   </g>
   <g id="line2d_27">
    <path d="M 329.510275 218.852354 
L 329.510275 167.881207 
" clip-path="url(#p60c41057b1)" style="fill: none; stroke: #3d3d3d; stroke-width: 1.5; stroke-linecap: square"/>
   </g>
   <g id="line2d_28">
    <path d="M 329.510275 212.547253 
L 329.510275 170.76859 
" clip-path="url(#p60c41057b1)" style="fill: none; stroke: #3d3d3d; stroke-width: 4.5; stroke-linecap: square"/>
   </g>
   <g id="line2d_29">
    <path d="M 369.190275 239.21135 
L 369.190275 192.924834 
" clip-path="url(#p60c41057b1)" style="fill: none; stroke: #3d3d3d; stroke-width: 1.5; stroke-linecap: square"/>
   </g>
   <g id="line2d_30">
    <path d="M 369.190275 237.406735 
L 369.190275 196.990741 
" clip-path="url(#p60c41057b1)" style="fill: none; stroke: #3d3d3d; stroke-width: 4.5; stroke-linecap: square"/>
   </g>
   <g id="line2d_31">
    <path d="M 408.870275 239.947927 
L 408.870275 224.2441 
" clip-path="url(#p60c41057b1)" style="fill: none; stroke: #3d3d3d; stroke-width: 1.5; stroke-linecap: square"/>
   </g>
   <g id="line2d_32">
    <path d="M 408.870275 237.554051 
L 408.870275 225.01014 
" clip-path="url(#p60c41057b1)" style="fill: none; stroke: #3d3d3d; stroke-width: 4.5; stroke-linecap: square"/>
   </g>
   <g id="patch_3">
    <path d="M 71.590275 288.237933 
L 71.590275 52.533207 
" style="fill: none; stroke: #000000; stroke-width: 0.8; stroke-linejoin: miter; stroke-linecap: square"/>
   </g>
   <g id="patch_4">
    <path d="M 91.430275 288.430125 
L 408.870275 288.430125 
" style="fill: none; stroke: #000000; stroke-width: 0.8; stroke-linejoin: miter; stroke-linecap: square"/>
   </g>
   <g id="PathCollection_1">
    <defs>
     <path id="m0801ddff21" d="M 0 1.5 
C 0.397805 1.5 0.77937 1.341951 1.06066 1.06066 
C 1.341951 0.77937 1.5 0.397805 1.5 0 
C 1.5 -0.397805 1.341951 -0.77937 1.06066 -1.06066 
C 0.77937 -1.341951 0.397805 -1.5 0 -1.5 
C -0.397805 -1.5 -0.77937 -1.341951 -1.06066 -1.06066 
C -1.341951 -0.77937 -1.5 -0.397805 -1.5 0 
C -1.5 0.397805 -1.341951 0.77937 -1.06066 1.06066 
C -0.77937 1.341951 -0.397805 1.5 0 1.5 
z
" style="stroke: #3d3d3d"/>
    </defs>
    <g clip-path="url(#p60c41057b1)">
     <use xlink:href="#m0801ddff21" x="91.430275" y="162.725166" style="fill: #ffffff; stroke: #3d3d3d"/>
    </g>
   </g>
   <g id="PathCollection_2">
    <g clip-path="url(#p60c41057b1)">
     <use xlink:href="#m0801ddff21" x="131.110275" y="167.542381" style="fill: #ffffff; stroke: #3d3d3d"/>
    </g>
   </g>
   <g id="PathCollection_3">
    <g clip-path="url(#p60c41057b1)">
     <use xlink:href="#m0801ddff21" x="170.790275" y="169.442751" style="fill: #ffffff; stroke: #3d3d3d"/>
    </g>
   </g>
   <g id="PathCollection_4">
    <g clip-path="url(#p60c41057b1)">
     <use xlink:href="#m0801ddff21" x="210.470275" y="174.304161" style="fill: #ffffff; stroke: #3d3d3d"/>
    </g>
   </g>
   <g id="PathCollection_5">
    <g clip-path="url(#p60c41057b1)">
     <use xlink:href="#m0801ddff21" x="250.150275" y="176.602282" style="fill: #ffffff; stroke: #3d3d3d"/>
    </g>
   </g>
   <g id="PathCollection_6">
    <g clip-path="url(#p60c41057b1)">
     <use xlink:href="#m0801ddff21" x="289.830275" y="185.35282" style="fill: #ffffff; stroke: #3d3d3d"/>
    </g>
   </g>
   <g id="PathCollection_7">
    <g clip-path="url(#p60c41057b1)">
     <use xlink:href="#m0801ddff21" x="329.510275" y="207.95101" style="fill: #ffffff; stroke: #3d3d3d"/>
    </g>
   </g>
   <g id="PathCollection_8">
    <g clip-path="url(#p60c41057b1)">
     <use xlink:href="#m0801ddff21" x="369.190275" y="219.5742" style="fill: #ffffff; stroke: #3d3d3d"/>
    </g>
   </g>
   <g id="PathCollection_9">
    <g clip-path="url(#p60c41057b1)">
     <use xlink:href="#m0801ddff21" x="408.870275" y="230.91749" style="fill: #ffffff; stroke: #3d3d3d"/>
    </g>
   </g>
   <g id="text_17">
    <!-- freetype2-2017 (4h:15m, 6 trials/fuzzer) -->
    <g transform="translate(129.071212 16.318125)scale(0.12 -0.12)">
     <defs>
      <path id="DejaVuSans-79" d="M 2059 -325 
Q 1816 -950 1584 -1140 
Q 1353 -1331 966 -1331 
L 506 -1331 
L 506 -850 
L 844 -850 
Q 1081 -850 1212 -737 
Q 1344 -625 1503 -206 
L 1606 56 
L 191 3500 
L 800 3500 
L 1894 763 
L 2988 3500 
L 3597 3500 
L 2059 -325 
z
" transform="scale(0.015625)"/>
      <path id="DejaVuSans-2d" d="M 313 2009 
L 1997 2009 
L 1997 1497 
L 313 1497 
L 313 2009 
z
" transform="scale(0.015625)"/>
      <path id="DejaVuSans-37" d="M 525 4666 
L 3525 4666 
L 3525 4397 
L 1831 0 
L 1172 0 
L 2766 4134 
L 525 4134 
L 525 4666 
z
" transform="scale(0.015625)"/>
      <path id="DejaVuSans-3a" d="M 750 794 
L 1409 794 
L 1409 0 
L 750 0 
L 750 794 
z
M 750 3309 
L 1409 3309 
L 1409 2516 
L 750 2516 
L 750 3309 
z
" transform="scale(0.015625)"/>
      <path id="DejaVuSans-35" d="M 691 4666 
L 3169 4666 
L 3169 4134 
L 1269 4134 
L 1269 2991 
Q 1406 3038 1543 3061 
Q 1681 3084 1819 3084 
Q 2600 3084 3056 2656 
Q 3513 2228 3513 1497 
Q 3513 744 3044 326 
Q 2575 -91 1722 -91 
Q 1428 -91 1123 -41 
Q 819 9 494 109 
L 494 744 
Q 775 591 1075 516 
Q 1375 441 1709 441 
Q 2250 441 2565 725 
Q 2881 1009 2881 1497 
Q 2881 1984 2565 2268 
Q 2250 2553 1709 2553 
Q 1456 2553 1204 2497 
Q 953 2441 691 2322 
L 691 4666 
z
" transform="scale(0.015625)"/>
      <path id="DejaVuSans-2c" d="M 750 794 
L 1409 794 
L 1409 256 
L 897 -744 
L 494 -744 
L 750 256 
L 750 794 
z
" transform="scale(0.015625)"/>
      <path id="DejaVuSans-2f" d="M 1625 4666 
L 2156 4666 
L 531 -594 
L 0 -594 
L 1625 4666 
z
" transform="scale(0.015625)"/>
     </defs>
     <use xlink:href="#DejaVuSans-66"/>
     <use xlink:href="#DejaVuSans-72" x="35.205078"/>
     <use xlink:href="#DejaVuSans-65" x="74.068359"/>
     <use xlink:href="#DejaVuSans-65" x="135.591797"/>
     <use xlink:href="#DejaVuSans-74" x="197.115234"/>
     <use xlink:href="#DejaVuSans-79" x="236.324219"/>
     <use xlink:href="#DejaVuSans-70" x="295.503906"/>
     <use xlink:href="#DejaVuSans-65" x="358.980469"/>
     <use xlink:href="#DejaVuSans-32" x="420.503906"/>
     <use xlink:href="#DejaVuSans-2d" x="484.126953"/>
     <use xlink:href="#DejaVuSans-32" x="520.210938"/>
     <use xlink:href="#DejaVuSans-30" x="583.833984"/>
     <use xlink:href="#DejaVuSans-31" x="647.457031"/>
     <use xlink:href="#DejaVuSans-37" x="711.080078"/>
     <use xlink:href="#DejaVuSans-20" x="774.703125"/>
     <use xlink:href="#DejaVuSans-28" x="806.490234"/>
     <use xlink:href="#DejaVuSans-34" x="845.503906"/>
     <use xlink:href="#DejaVuSans-68" x="909.126953"/>
     <use xlink:href="#DejaVuSans-3a" x="972.505859"/>
     <use xlink:href="#DejaVuSans-31" x="1006.197266"/>
     <use xlink:href="#DejaVuSans-35" x="1069.820312"/>
     <use xlink:href="#DejaVuSans-6d" x="1133.443359"/>
     <use xlink:href="#DejaVuSans-2c" x="1230.855469"/>
     <use xlink:href="#DejaVuSans-20" x="1262.642578"/>
     <use xlink:href="#DejaVuSans-36" x="1294.429688"/>
     <use xlink:href="#DejaVuSans-20" x="1358.052734"/>
     <use xlink:href="#DejaVuSans-74" x="1389.839844"/>
     <use xlink:href="#DejaVuSans-72" x="1429.048828"/>
     <use xlink:href="#DejaVuSans-69" x="1470.162109"/>
     <use xlink:href="#DejaVuSans-61" x="1497.945312"/>
     <use xlink:href="#DejaVuSans-6c" x="1559.224609"/>
     <use xlink:href="#DejaVuSans-73" x="1587.007812"/>
     <use xlink:href="#DejaVuSans-2f" x="1639.107422"/>
     <use xlink:href="#DejaVuSans-66" x="1672.798828"/>
     <use xlink:href="#DejaVuSans-75" x="1708.003906"/>
     <use xlink:href="#DejaVuSans-7a" x="1771.382812"/>
     <use xlink:href="#DejaVuSans-7a" x="1823.873047"/>
     <use xlink:href="#DejaVuSans-65" x="1876.363281"/>
     <use xlink:href="#DejaVuSans-72" x="1937.886719"/>
     <use xlink:href="#DejaVuSans-29" x="1979"/>
    </g>
   </g>
  </g>
 </g>
 <defs>
  <clipPath id="p60c41057b1">
   <rect x="71.590275" y="22.318125" width="357.12" height="266.112"/>
  </clipPath>
 </defs>
</svg>
