<?xml version="1.0" encoding="utf-8" standalone="no"?>
<!DOCTYPE svg PUBLIC "-//W3C//DTD SVG 1.1//EN"
  "http://www.w3.org/Graphics/SVG/1.1/DTD/svg11.dtd">
<svg xmlns:xlink="http://www.w3.org/1999/xlink" width="464.811517pt" height="388.804834pt" viewBox="0 0 464.811517 388.804834" xmlns="http://www.w3.org/2000/svg" version="1.1">
 <metadata>
  <rdf:RDF xmlns:dc="http://purl.org/dc/elements/1.1/" xmlns:cc="http://creativecommons.org/ns#" xmlns:rdf="http://www.w3.org/1999/02/22-rdf-syntax-ns#">
   <cc:Work>
    <dc:type rdf:resource="http://purl.org/dc/dcmitype/StillImage"/>
    <dc:date>2022-06-05T20:12:32.563920</dc:date>
    <dc:format>image/svg+xml</dc:format>
    <dc:creator>
     <cc:Agent>
      <dc:title>Matplotlib v3.5.1, https://matplotlib.org/</dc:title>
     </cc:Agent>
    </dc:creator>
   </cc:Work>
  </rdf:RDF>
 </metadata>
 <defs>
  <style type="text/css">*{stroke-linejoin: round; stroke-linecap: butt}</style>
 </defs>
 <g id="figure_1">
  <g id="patch_1">
   <path d="M 0 388.804834 
L 464.811517 388.804834 
L 464.811517 0 
L 0 0 
z
" style="fill: #ffffff"/>
  </g>
  <g id="axes_1">
   <g id="patch_2">
    <path d="M 100.491517 288.430125 
L 457.611517 288.430125 
L 457.611517 22.318125 
L 100.491517 22.318125 
z
" style="fill: #ffffff"/>
   </g>
   <g id="PolyCollection_1">
    <defs>
     <path id="ma52296e525" d="M 122.856782 -120.860816 
L 122.766253 -120.860816 
L 122.760017 -123.219703 
L 122.753163 -125.578591 
L 122.745666 -127.937479 
L 122.737507 -130.296367 
L 122.728675 -132.655255 
L 122.719161 -135.014142 
L 122.708967 -137.37303 
L 122.6981 -139.731918 
L 122.686577 -142.090806 
L 122.674423 -144.449694 
L 122.66167 -146.808582 
L 122.64836 -149.167469 
L 122.634543 -151.526357 
L 122.620276 -153.885245 
L 122.605623 -156.244133 
L 122.590655 -158.603021 
L 122.575445 -160.961908 
L 122.560072 -163.320796 
L 122.544616 -165.679684 
L 122.529157 -168.038572 
L 122.513773 -170.39746 
L 122.498538 -172.756347 
L 122.483522 -175.115235 
L 122.468789 -177.474123 
L 122.454393 -179.833011 
L 122.440379 -182.191899 
L 122.426782 -184.550787 
L 122.413625 -186.909674 
L 122.400921 -189.268562 
L 122.388669 -191.62745 
L 122.376858 -193.986338 
L 122.365467 -196.345226 
L 122.354465 -198.704113 
L 122.343812 -201.063001 
L 122.333465 -203.421889 
L 122.323375 -205.780777 
L 122.31349 -208.139665 
L 122.303761 -210.498553 
L 122.294142 -212.85744 
L 122.28459 -215.216328 
L 122.275074 -217.575216 
L 122.265569 -219.934104 
L 122.256064 -222.292992 
L 122.246562 -224.651879 
L 122.237078 -227.010767 
L 122.227644 -229.369655 
L 122.218307 -231.728543 
L 122.20913 -234.087431 
L 122.20019 -236.446318 
L 122.191577 -238.805206 
L 122.183392 -241.164094 
L 122.175749 -243.522982 
L 122.168765 -245.88187 
L 122.162565 -248.240758 
L 122.157274 -250.599645 
L 122.153018 -252.958533 
L 122.149918 -255.317421 
L 122.148087 -257.676309 
L 122.14763 -260.035197 
L 122.148639 -262.394084 
L 122.15119 -264.752972 
L 122.155345 -267.11186 
L 122.161146 -269.470748 
L 122.168616 -271.829636 
L 122.177756 -274.188523 
L 122.188547 -276.547411 
L 122.200952 -278.906299 
L 122.214911 -281.265187 
L 122.230345 -283.624075 
L 122.247158 -285.982963 
L 122.265238 -288.34185 
L 122.28446 -290.700738 
L 122.304684 -293.059626 
L 122.325764 -295.418514 
L 122.347545 -297.777402 
L 122.369869 -300.136289 
L 122.392574 -302.495177 
L 122.415502 -304.854065 
L 122.438495 -307.212953 
L 122.461403 -309.571841 
L 122.484082 -311.930729 
L 122.506397 -314.289616 
L 122.528224 -316.648504 
L 122.549452 -319.007392 
L 122.56998 -321.36628 
L 122.589724 -323.725168 
L 122.608611 -326.084055 
L 122.626583 -328.442943 
L 122.643596 -330.801831 
L 122.65962 -333.160719 
L 122.674634 -335.519607 
L 122.688634 -337.878494 
L 122.701624 -340.237382 
L 122.713618 -342.59627 
L 122.724638 -344.955158 
L 122.734716 -347.314046 
L 122.743888 -349.672934 
L 122.752196 -352.031821 
L 122.759687 -354.390709 
L 122.863348 -354.390709 
L 122.863348 -354.390709 
L 122.870838 -352.031821 
L 122.879147 -349.672934 
L 122.888319 -347.314046 
L 122.898397 -344.955158 
L 122.909417 -342.59627 
L 122.92141 -340.237382 
L 122.9344 -337.878494 
L 122.9484 -335.519607 
L 122.963415 -333.160719 
L 122.979438 -330.801831 
L 122.996451 -328.442943 
L 123.014424 -326.084055 
L 123.033311 -323.725168 
L 123.053054 -321.36628 
L 123.073582 -319.007392 
L 123.09481 -316.648504 
L 123.116637 -314.289616 
L 123.138952 -311.930729 
L 123.161631 -309.571841 
L 123.184539 -307.212953 
L 123.207533 -304.854065 
L 123.23046 -302.495177 
L 123.253166 -300.136289 
L 123.275489 -297.777402 
L 123.29727 -295.418514 
L 123.31835 -293.059626 
L 123.338574 -290.700738 
L 123.357796 -288.34185 
L 123.375876 -285.982963 
L 123.39269 -283.624075 
L 123.408124 -281.265187 
L 123.422082 -278.906299 
L 123.434487 -276.547411 
L 123.445279 -274.188523 
L 123.454419 -271.829636 
L 123.461888 -269.470748 
L 123.467689 -267.11186 
L 123.471844 -264.752972 
L 123.474396 -262.394084 
L 123.475404 -260.035197 
L 123.474947 -257.676309 
L 123.473116 -255.317421 
L 123.470016 -252.958533 
L 123.46576 -250.599645 
L 123.46047 -248.240758 
L 123.45427 -245.88187 
L 123.447286 -243.522982 
L 123.439642 -241.164094 
L 123.431458 -238.805206 
L 123.422844 -236.446318 
L 123.413904 -234.087431 
L 123.404727 -231.728543 
L 123.39539 -229.369655 
L 123.385957 -227.010767 
L 123.376472 -224.651879 
L 123.36697 -222.292992 
L 123.357465 -219.934104 
L 123.34796 -217.575216 
L 123.338444 -215.216328 
L 123.328893 -212.85744 
L 123.319273 -210.498553 
L 123.309545 -208.139665 
L 123.29966 -205.780777 
L 123.289569 -203.421889 
L 123.279222 -201.063001 
L 123.26857 -198.704113 
L 123.257567 -196.345226 
L 123.246176 -193.986338 
L 123.234365 -191.62745 
L 123.222113 -189.268562 
L 123.209409 -186.909674 
L 123.196252 -184.550787 
L 123.182655 -182.191899 
L 123.168642 -179.833011 
L 123.154245 -177.474123 
L 123.139512 -175.115235 
L 123.124497 -172.756347 
L 123.109262 -170.39746 
L 123.093877 -168.038572 
L 123.078418 -165.679684 
L 123.062962 -163.320796 
L 123.047589 -160.961908 
L 123.03238 -158.603021 
L 123.017411 -156.244133 
L 123.002758 -153.885245 
L 122.988491 -151.526357 
L 122.974674 -149.167469 
L 122.961364 -146.808582 
L 122.948611 -144.449694 
L 122.936457 -142.090806 
L 122.924934 -139.731918 
L 122.914068 -137.37303 
L 122.903873 -135.014142 
L 122.89436 -132.655255 
L 122.885527 -130.296367 
L 122.877369 -127.937479 
L 122.869872 -125.578591 
L 122.863017 -123.219703 
L 122.856782 -120.860816 
z
" style="stroke: #3d3d3d; stroke-width: 1.5"/>
    </defs>
    <g clip-path="url(#p54f30697f6)">
     <use xlink:href="#ma52296e525" x="0" y="388.804834" style="fill: #3a923a; stroke: #3d3d3d; stroke-width: 1.5"/>
    </g>
   </g>
   <g id="PolyCollection_2">
    <defs>
     <path id="mae2f7f1e22" d="M 168.61657 -186.526945 
L 166.286465 -186.526945 
L 166.126009 -186.674592 
L 165.949375 -186.822239 
L 165.755885 -186.969886 
L 165.54498 -187.117533 
L 165.316247 -187.26518 
L 165.069441 -187.412827 
L 164.804511 -187.560474 
L 164.521622 -187.708121 
L 164.221173 -187.855768 
L 163.903817 -188.003415 
L 163.570472 -188.151062 
L 163.222332 -188.298709 
L 162.860873 -188.446356 
L 162.487847 -188.594003 
L 162.105282 -188.74165 
L 161.715461 -188.889297 
L 161.320905 -189.036944 
L 160.924349 -189.184591 
L 160.528704 -189.332238 
L 160.13702 -189.479885 
L 159.752442 -189.627532 
L 159.378159 -189.775179 
L 159.017352 -189.922826 
L 158.673139 -190.070473 
L 158.348517 -190.21812 
L 158.046307 -190.365767 
L 157.769098 -190.513414 
L 157.519196 -190.661061 
L 157.298577 -190.808708 
L 157.108844 -190.956355 
L 156.951195 -191.104002 
L 156.826399 -191.251649 
L 156.734774 -191.399296 
L 156.676186 -191.546943 
L 156.650052 -191.69459 
L 156.655348 -191.842237 
L 156.690643 -191.989884 
L 156.754123 -192.137531 
L 156.843639 -192.285178 
L 156.956755 -192.432825 
L 157.090803 -192.580472 
L 157.242947 -192.728119 
L 157.410245 -192.875766 
L 157.589716 -193.023413 
L 157.778404 -193.17106 
L 157.973442 -193.318707 
L 158.172113 -193.466354 
L 158.371902 -193.614001 
L 158.570546 -193.761648 
L 158.766073 -193.909295 
L 158.95683 -194.056942 
L 159.14151 -194.204589 
L 159.31916 -194.352236 
L 159.489186 -194.499883 
L 159.651342 -194.64753 
L 159.805716 -194.795177 
L 159.952704 -194.942824 
L 160.092981 -195.090471 
L 160.227457 -195.238118 
L 160.357239 -195.385765 
L 160.483582 -195.533412 
L 160.607841 -195.681059 
L 160.731424 -195.828706 
L 160.855742 -195.976353 
L 160.982163 -196.124 
L 161.111971 -196.271647 
L 161.246329 -196.419294 
L 161.386245 -196.566941 
L 161.532547 -196.714588 
L 161.685862 -196.862235 
L 161.846603 -197.009882 
L 162.014966 -197.157529 
L 162.190924 -197.305176 
L 162.374239 -197.452823 
L 162.564468 -197.60047 
L 162.760986 -197.748117 
L 162.963003 -197.895764 
L 163.169588 -198.043411 
L 163.379696 -198.191058 
L 163.592198 -198.338705 
L 163.805907 -198.486352 
L 164.019606 -198.633999 
L 164.23208 -198.781646 
L 164.442134 -198.929293 
L 164.648624 -199.07694 
L 164.850472 -199.224587 
L 165.046688 -199.372234 
L 165.23638 -199.519881 
L 165.418767 -199.667528 
L 165.59319 -199.815175 
L 165.759108 -199.962822 
L 165.916107 -200.110469 
L 166.063895 -200.258116 
L 166.202297 -200.405763 
L 166.331251 -200.55341 
L 166.450795 -200.701057 
L 166.561066 -200.848704 
L 166.66228 -200.996351 
L 166.754727 -201.143998 
L 168.148307 -201.143998 
L 168.148307 -201.143998 
L 168.240754 -200.996351 
L 168.341968 -200.848704 
L 168.452239 -200.701057 
L 168.571784 -200.55341 
L 168.700737 -200.405763 
L 168.839139 -200.258116 
L 168.986927 -200.110469 
L 169.143926 -199.962822 
L 169.309845 -199.815175 
L 169.484267 -199.667528 
L 169.666655 -199.519881 
L 169.856346 -199.372234 
L 170.052562 -199.224587 
L 170.25441 -199.07694 
L 170.4609 -198.929293 
L 170.670955 -198.781646 
L 170.883428 -198.633999 
L 171.097128 -198.486352 
L 171.310836 -198.338705 
L 171.523338 -198.191058 
L 171.733446 -198.043411 
L 171.940031 -197.895764 
L 172.142048 -197.748117 
L 172.338566 -197.60047 
L 172.528796 -197.452823 
L 172.71211 -197.305176 
L 172.888068 -197.157529 
L 173.056431 -197.009882 
L 173.217173 -196.862235 
L 173.370488 -196.714588 
L 173.516789 -196.566941 
L 173.656705 -196.419294 
L 173.791063 -196.271647 
L 173.920871 -196.124 
L 174.047292 -195.976353 
L 174.17161 -195.828706 
L 174.295193 -195.681059 
L 174.419453 -195.533412 
L 174.545796 -195.385765 
L 174.675577 -195.238118 
L 174.810053 -195.090471 
L 174.95033 -194.942824 
L 175.097319 -194.795177 
L 175.251693 -194.64753 
L 175.413848 -194.499883 
L 175.583874 -194.352236 
L 175.761525 -194.204589 
L 175.946205 -194.056942 
L 176.136962 -193.909295 
L 176.332488 -193.761648 
L 176.531132 -193.614001 
L 176.730922 -193.466354 
L 176.929592 -193.318707 
L 177.124631 -193.17106 
L 177.313318 -193.023413 
L 177.492789 -192.875766 
L 177.660087 -192.728119 
L 177.812231 -192.580472 
L 177.946279 -192.432825 
L 178.059395 -192.285178 
L 178.148911 -192.137531 
L 178.212391 -191.989884 
L 178.247686 -191.842237 
L 178.252983 -191.69459 
L 178.226848 -191.546943 
L 178.168261 -191.399296 
L 178.076636 -191.251649 
L 177.951839 -191.104002 
L 177.794191 -190.956355 
L 177.604458 -190.808708 
L 177.383838 -190.661061 
L 177.133936 -190.513414 
L 176.856728 -190.365767 
L 176.554518 -190.21812 
L 176.229896 -190.070473 
L 175.885683 -189.922826 
L 175.524875 -189.775179 
L 175.150592 -189.627532 
L 174.766014 -189.479885 
L 174.37433 -189.332238 
L 173.978685 -189.184591 
L 173.582129 -189.036944 
L 173.187574 -188.889297 
L 172.797752 -188.74165 
L 172.415187 -188.594003 
L 172.042162 -188.446356 
L 171.680702 -188.298709 
L 171.332563 -188.151062 
L 170.999217 -188.003415 
L 170.681861 -187.855768 
L 170.381412 -187.708121 
L 170.098523 -187.560474 
L 169.833594 -187.412827 
L 169.586788 -187.26518 
L 169.358054 -187.117533 
L 169.147149 -186.969886 
L 168.953659 -186.822239 
L 168.777026 -186.674592 
L 168.61657 -186.526945 
z
" style="stroke: #3d3d3d; stroke-width: 1.5"/>
    </defs>
    <g clip-path="url(#p54f30697f6)">
     <use xlink:href="#mae2f7f1e22" x="0" y="388.804834" style="fill: #f2a5a3; stroke: #3d3d3d; stroke-width: 1.5"/>
    </g>
   </g>
   <g id="PolyCollection_3">
    <defs>
     <path id="me1f96661fa" d="M 212.182436 -132.614078 
L 212.000599 -132.614078 
L 211.987449 -134.054344 
L 211.972862 -135.494609 
L 211.956759 -136.934875 
L 211.939066 -138.375141 
L 211.91972 -139.815407 
L 211.898669 -141.255673 
L 211.875876 -142.695939 
L 211.85132 -144.136205 
L 211.824998 -145.576471 
L 211.796928 -147.016736 
L 211.767148 -148.457002 
L 211.735723 -149.897268 
L 211.70274 -151.337534 
L 211.668313 -152.7778 
L 211.632582 -154.218066 
L 211.59571 -155.658332 
L 211.55789 -157.098597 
L 211.519333 -158.538863 
L 211.480276 -159.979129 
L 211.440972 -161.419395 
L 211.401693 -162.859661 
L 211.362722 -164.299927 
L 211.32435 -165.740193 
L 211.286874 -167.180459 
L 211.250588 -168.620724 
L 211.215783 -170.06099 
L 211.182737 -171.501256 
L 211.151714 -172.941522 
L 211.122957 -174.381788 
L 211.096682 -175.822054 
L 211.073079 -177.26232 
L 211.052301 -178.702586 
L 211.034469 -180.142851 
L 211.019662 -181.583117 
L 211.007921 -183.023383 
L 210.999247 -184.463649 
L 210.993598 -185.903915 
L 210.990895 -187.344181 
L 210.991023 -188.784447 
L 210.993832 -190.224712 
L 210.999141 -191.664978 
L 211.006744 -193.105244 
L 211.016414 -194.54551 
L 211.02791 -195.985776 
L 211.040981 -197.426042 
L 211.055371 -198.866308 
L 211.070827 -200.306574 
L 211.087106 -201.746839 
L 211.103975 -203.187105 
L 211.121223 -204.627371 
L 211.138657 -206.067637 
L 211.156114 -207.507903 
L 211.173457 -208.948169 
L 211.190581 -210.388435 
L 211.20741 -211.8287 
L 211.223901 -213.268966 
L 211.24004 -214.709232 
L 211.255843 -216.149498 
L 211.27135 -217.589764 
L 211.286624 -219.03003 
L 211.301746 -220.470296 
L 211.316812 -221.910562 
L 211.331929 -223.350827 
L 211.347206 -224.791093 
L 211.362757 -226.231359 
L 211.378688 -227.671625 
L 211.395099 -229.111891 
L 211.41208 -230.552157 
L 211.429702 -231.992423 
L 211.448022 -233.432689 
L 211.467078 -234.872954 
L 211.486883 -236.31322 
L 211.507434 -237.753486 
L 211.528704 -239.193752 
L 211.550645 -240.634018 
L 211.573192 -242.074284 
L 211.596261 -243.51455 
L 211.619756 -244.954815 
L 211.643564 -246.395081 
L 211.667566 -247.835347 
L 211.691636 -249.275613 
L 211.715643 -250.715879 
L 211.739458 -252.156145 
L 211.762951 -253.596411 
L 211.786 -255.036677 
L 211.808488 -256.476942 
L 211.830309 -257.917208 
L 211.851366 -259.357474 
L 211.871576 -260.79774 
L 211.890868 -262.238006 
L 211.909184 -263.678272 
L 211.926482 -265.118538 
L 211.942732 -266.558803 
L 211.957918 -267.999069 
L 211.972034 -269.439335 
L 211.98509 -270.879601 
L 211.997102 -272.319867 
L 212.008099 -273.760133 
L 212.018114 -275.200399 
L 212.16492 -275.200399 
L 212.16492 -275.200399 
L 212.174936 -273.760133 
L 212.185932 -272.319867 
L 212.197944 -270.879601 
L 212.211 -269.439335 
L 212.225117 -267.999069 
L 212.240302 -266.558803 
L 212.256552 -265.118538 
L 212.27385 -263.678272 
L 212.292167 -262.238006 
L 212.311458 -260.79774 
L 212.331668 -259.357474 
L 212.352725 -257.917208 
L 212.374546 -256.476942 
L 212.397034 -255.036677 
L 212.420083 -253.596411 
L 212.443576 -252.156145 
L 212.467391 -250.715879 
L 212.491399 -249.275613 
L 212.515468 -247.835347 
L 212.539471 -246.395081 
L 212.563279 -244.954815 
L 212.586773 -243.51455 
L 212.609843 -242.074284 
L 212.63239 -240.634018 
L 212.654331 -239.193752 
L 212.6756 -237.753486 
L 212.696151 -236.31322 
L 212.715957 -234.872954 
L 212.735012 -233.432689 
L 212.753332 -231.992423 
L 212.770955 -230.552157 
L 212.787935 -229.111891 
L 212.804347 -227.671625 
L 212.820278 -226.231359 
L 212.835828 -224.791093 
L 212.851106 -223.350827 
L 212.866222 -221.910562 
L 212.881289 -220.470296 
L 212.896411 -219.03003 
L 212.911684 -217.589764 
L 212.927191 -216.149498 
L 212.942994 -214.709232 
L 212.959134 -213.268966 
L 212.975625 -211.8287 
L 212.992454 -210.388435 
L 213.009577 -208.948169 
L 213.02692 -207.507903 
L 213.044377 -206.067637 
L 213.061812 -204.627371 
L 213.079059 -203.187105 
L 213.095929 -201.746839 
L 213.112207 -200.306574 
L 213.127664 -198.866308 
L 213.142054 -197.426042 
L 213.155124 -195.985776 
L 213.16662 -194.54551 
L 213.176291 -193.105244 
L 213.183894 -191.664978 
L 213.189202 -190.224712 
L 213.192011 -188.784447 
L 213.192139 -187.344181 
L 213.189437 -185.903915 
L 213.183788 -184.463649 
L 213.175113 -183.023383 
L 213.163372 -181.583117 
L 213.148565 -180.142851 
L 213.130733 -178.702586 
L 213.109956 -177.26232 
L 213.086352 -175.822054 
L 213.060078 -174.381788 
L 213.03132 -172.941522 
L 213.000297 -171.501256 
L 212.967251 -170.06099 
L 212.932446 -168.620724 
L 212.89616 -167.180459 
L 212.858684 -165.740193 
L 212.820312 -164.299927 
L 212.781341 -162.859661 
L 212.742062 -161.419395 
L 212.702758 -159.979129 
L 212.663701 -158.538863 
L 212.625145 -157.098597 
L 212.587324 -155.658332 
L 212.550453 -154.218066 
L 212.514721 -152.7778 
L 212.480294 -151.337534 
L 212.447311 -149.897268 
L 212.415886 -148.457002 
L 212.386107 -147.016736 
L 212.358036 -145.576471 
L 212.331714 -144.136205 
L 212.307158 -142.695939 
L 212.284365 -141.255673 
L 212.263314 -139.815407 
L 212.243968 -138.375141 
L 212.226275 -136.934875 
L 212.210172 -135.494609 
L 212.195585 -134.054344 
L 212.182436 -132.614078 
z
" style="stroke: #3d3d3d; stroke-width: 1.5"/>
    </defs>
    <g clip-path="url(#p54f30697f6)">
     <use xlink:href="#me1f96661fa" x="0" y="388.804834" style="fill: #e1812c; stroke: #3d3d3d; stroke-width: 1.5"/>
    </g>
   </g>
   <g id="PolyCollection_4">
    <defs>
     <path id="meb3fa87f1a" d="M 256.94421 -160.696106 
L 256.518825 -160.696106 
L 256.489681 -161.195293 
L 256.457667 -161.694479 
L 256.422677 -162.193666 
L 256.384629 -162.692852 
L 256.343467 -163.192039 
L 256.299166 -163.691225 
L 256.251734 -164.190412 
L 256.201215 -164.689598 
L 256.147691 -165.188785 
L 256.091285 -165.687972 
L 256.032158 -166.187158 
L 255.970513 -166.686345 
L 255.906588 -167.185531 
L 255.840658 -167.684718 
L 255.773031 -168.183904 
L 255.704041 -168.683091 
L 255.634043 -169.182277 
L 255.563406 -169.681464 
L 255.492507 -170.18065 
L 255.421722 -170.679837 
L 255.351419 -171.179024 
L 255.281944 -171.67821 
L 255.213621 -172.177397 
L 255.146738 -172.676583 
L 255.081539 -173.17577 
L 255.018225 -173.674956 
L 254.956939 -174.174143 
L 254.897769 -174.673329 
L 254.840745 -175.172516 
L 254.785839 -175.671703 
L 254.732962 -176.170889 
L 254.681977 -176.670076 
L 254.632694 -177.169262 
L 254.584887 -177.668449 
L 254.538296 -178.167635 
L 254.492643 -178.666822 
L 254.447636 -179.166008 
L 254.402992 -179.665195 
L 254.358439 -180.164381 
L 254.313735 -180.663568 
L 254.268678 -181.162755 
L 254.223119 -181.661941 
L 254.17697 -182.161128 
L 254.130213 -182.660314 
L 254.082907 -183.159501 
L 254.035195 -183.658687 
L 253.9873 -184.157874 
L 253.939528 -184.65706 
L 253.892269 -185.156247 
L 253.845983 -185.655433 
L 253.801199 -186.15462 
L 253.758502 -186.653807 
L 253.718522 -187.152993 
L 253.681921 -187.65218 
L 253.649375 -188.151366 
L 253.621565 -188.650553 
L 253.599154 -189.149739 
L 253.582775 -189.648926 
L 253.573016 -190.148112 
L 253.570404 -190.647299 
L 253.575393 -191.146486 
L 253.588352 -191.645672 
L 253.609555 -192.144859 
L 253.639176 -192.644045 
L 253.677281 -193.143232 
L 253.723827 -193.642418 
L 253.778661 -194.141605 
L 253.841526 -194.640791 
L 253.912059 -195.139978 
L 253.989804 -195.639164 
L 254.074216 -196.138351 
L 254.164674 -196.637538 
L 254.260492 -197.136724 
L 254.360932 -197.635911 
L 254.465214 -198.135097 
L 254.572537 -198.634284 
L 254.682083 -199.13347 
L 254.793039 -199.632657 
L 254.904604 -200.131843 
L 255.016005 -200.63103 
L 255.126501 -201.130216 
L 255.235402 -201.629403 
L 255.34207 -202.12859 
L 255.445926 -202.627776 
L 255.546459 -203.126963 
L 255.643224 -203.626149 
L 255.735849 -204.125336 
L 255.824032 -204.624522 
L 255.907541 -205.123709 
L 255.986211 -205.622895 
L 256.059943 -206.122082 
L 256.128698 -206.621269 
L 256.192492 -207.120455 
L 256.251391 -207.619642 
L 256.305506 -208.118828 
L 256.354985 -208.618015 
L 256.40001 -209.117201 
L 256.440787 -209.616388 
L 256.477543 -210.115574 
L 256.985492 -210.115574 
L 256.985492 -210.115574 
L 257.022248 -209.616388 
L 257.063025 -209.117201 
L 257.108049 -208.618015 
L 257.157529 -208.118828 
L 257.211644 -207.619642 
L 257.270543 -207.120455 
L 257.334337 -206.621269 
L 257.403091 -206.122082 
L 257.476824 -205.622895 
L 257.555494 -205.123709 
L 257.639002 -204.624522 
L 257.727185 -204.125336 
L 257.81981 -203.626149 
L 257.916576 -203.126963 
L 258.017108 -202.627776 
L 258.120964 -202.12859 
L 258.227632 -201.629403 
L 258.336533 -201.130216 
L 258.44703 -200.63103 
L 258.55843 -200.131843 
L 258.669995 -199.632657 
L 258.780951 -199.13347 
L 258.890498 -198.634284 
L 258.99782 -198.135097 
L 259.102103 -197.635911 
L 259.202542 -197.136724 
L 259.29836 -196.637538 
L 259.388818 -196.138351 
L 259.47323 -195.639164 
L 259.550975 -195.139978 
L 259.621508 -194.640791 
L 259.684373 -194.141605 
L 259.739208 -193.642418 
L 259.785754 -193.143232 
L 259.823858 -192.644045 
L 259.853479 -192.144859 
L 259.874683 -191.645672 
L 259.887641 -191.146486 
L 259.892631 -190.647299 
L 259.890019 -190.148112 
L 259.88026 -189.648926 
L 259.863881 -189.149739 
L 259.841469 -188.650553 
L 259.813659 -188.151366 
L 259.781114 -187.65218 
L 259.744512 -187.152993 
L 259.704532 -186.653807 
L 259.661835 -186.15462 
L 259.617051 -185.655433 
L 259.570765 -185.156247 
L 259.523506 -184.65706 
L 259.475735 -184.157874 
L 259.427839 -183.658687 
L 259.380127 -183.159501 
L 259.332822 -182.660314 
L 259.286065 -182.161128 
L 259.239915 -181.661941 
L 259.194356 -181.162755 
L 259.1493 -180.663568 
L 259.104596 -180.164381 
L 259.060042 -179.665195 
L 259.015398 -179.166008 
L 258.970392 -178.666822 
L 258.924738 -178.167635 
L 258.878147 -177.668449 
L 258.83034 -177.169262 
L 258.781058 -176.670076 
L 258.730072 -176.170889 
L 258.677196 -175.671703 
L 258.622289 -175.172516 
L 258.565265 -174.673329 
L 258.506096 -174.174143 
L 258.44481 -173.674956 
L 258.381495 -173.17577 
L 258.316297 -172.676583 
L 258.249413 -172.177397 
L 258.18109 -171.67821 
L 258.111616 -171.179024 
L 258.041312 -170.679837 
L 257.970527 -170.18065 
L 257.899629 -169.681464 
L 257.828992 -169.182277 
L 257.758993 -168.683091 
L 257.690003 -168.183904 
L 257.622376 -167.684718 
L 257.556447 -167.185531 
L 257.492522 -166.686345 
L 257.430876 -166.187158 
L 257.371749 -165.687972 
L 257.315343 -165.188785 
L 257.261819 -164.689598 
L 257.2113 -164.190412 
L 257.163868 -163.691225 
L 257.119567 -163.192039 
L 257.078405 -162.692852 
L 257.040357 -162.193666 
L 257.005367 -161.694479 
L 256.973353 -161.195293 
L 256.94421 -160.696106 
z
" style="stroke: #3d3d3d; stroke-width: 1.5"/>
    </defs>
    <g clip-path="url(#p54f30697f6)">
     <use xlink:href="#meb3fa87f1a" x="0" y="388.804834" style="fill: #d684bd; stroke: #3d3d3d; stroke-width: 1.5"/>
    </g>
   </g>
   <g id="PolyCollection_5">
    <defs>
     <path id="m4dad3f9926" d="M 301.465193 -125.937583 
L 301.277841 -125.937583 
L 301.264675 -127.107999 
L 301.250152 -128.278415 
L 301.234212 -129.448831 
L 301.216802 -130.619247 
L 301.197879 -131.789663 
L 301.177414 -132.960079 
L 301.155391 -134.130496 
L 301.131809 -135.300912 
L 301.106683 -136.471328 
L 301.080045 -137.641744 
L 301.051945 -138.81216 
L 301.022452 -139.982576 
L 300.991652 -141.152992 
L 300.959647 -142.323408 
L 300.926557 -143.493824 
L 300.892517 -144.664241 
L 300.857675 -145.834657 
L 300.82219 -147.005073 
L 300.786229 -148.175489 
L 300.749967 -149.345905 
L 300.713581 -150.516321 
L 300.677249 -151.686737 
L 300.641145 -152.857153 
L 300.60544 -154.027569 
L 300.570295 -155.197985 
L 300.535862 -156.368402 
L 300.502279 -157.538818 
L 300.46967 -158.709234 
L 300.438144 -159.87965 
L 300.407792 -161.050066 
L 300.378689 -162.220482 
L 300.350894 -163.390898 
L 300.324448 -164.561314 
L 300.299378 -165.73173 
L 300.275697 -166.902147 
L 300.253407 -168.072563 
L 300.232499 -169.242979 
L 300.212958 -170.413395 
L 300.194763 -171.583811 
L 300.177891 -172.754227 
L 300.162318 -173.924643 
L 300.148024 -175.095059 
L 300.134991 -176.265475 
L 300.123208 -177.435891 
L 300.112672 -178.606308 
L 300.103387 -179.776724 
L 300.095368 -180.94714 
L 300.08864 -182.117556 
L 300.083235 -183.287972 
L 300.079198 -184.458388 
L 300.07658 -185.628804 
L 300.075439 -186.79922 
L 300.075843 -187.969636 
L 300.077859 -189.140053 
L 300.081561 -190.310469 
L 300.087021 -191.480885 
L 300.09431 -192.651301 
L 300.103493 -193.821717 
L 300.114632 -194.992133 
L 300.127778 -196.162549 
L 300.142971 -197.332965 
L 300.160239 -198.503381 
L 300.179593 -199.673797 
L 300.201031 -200.844214 
L 300.224531 -202.01463 
L 300.250051 -203.185046 
L 300.277531 -204.355462 
L 300.30689 -205.525878 
L 300.338028 -206.696294 
L 300.370825 -207.86671 
L 300.405142 -209.037126 
L 300.440824 -210.207542 
L 300.477699 -211.377958 
L 300.515582 -212.548375 
L 300.554278 -213.718791 
L 300.593581 -214.889207 
L 300.633282 -216.059623 
L 300.673167 -217.230039 
L 300.713023 -218.400455 
L 300.752639 -219.570871 
L 300.791813 -220.741287 
L 300.83035 -221.911703 
L 300.868065 -223.08212 
L 300.904788 -224.252536 
L 300.940366 -225.422952 
L 300.974661 -226.593368 
L 301.007555 -227.763784 
L 301.038949 -228.9342 
L 301.068763 -230.104616 
L 301.096937 -231.275032 
L 301.123431 -232.445448 
L 301.148225 -233.615864 
L 301.171313 -234.786281 
L 301.19271 -235.956697 
L 301.212443 -237.127113 
L 301.230555 -238.297529 
L 301.247098 -239.467945 
L 301.262136 -240.638361 
L 301.27574 -241.808777 
L 301.467294 -241.808777 
L 301.467294 -241.808777 
L 301.480899 -240.638361 
L 301.495937 -239.467945 
L 301.51248 -238.297529 
L 301.530591 -237.127113 
L 301.550324 -235.956697 
L 301.571721 -234.786281 
L 301.59481 -233.615864 
L 301.619603 -232.445448 
L 301.646097 -231.275032 
L 301.674271 -230.104616 
L 301.704085 -228.9342 
L 301.735479 -227.763784 
L 301.768373 -226.593368 
L 301.802668 -225.422952 
L 301.838246 -224.252536 
L 301.87497 -223.08212 
L 301.912685 -221.911703 
L 301.951221 -220.741287 
L 301.990395 -219.570871 
L 302.030012 -218.400455 
L 302.069868 -217.230039 
L 302.109752 -216.059623 
L 302.149453 -214.889207 
L 302.188756 -213.718791 
L 302.227452 -212.548375 
L 302.265336 -211.377958 
L 302.302211 -210.207542 
L 302.337892 -209.037126 
L 302.37221 -207.86671 
L 302.405006 -206.696294 
L 302.436145 -205.525878 
L 302.465504 -204.355462 
L 302.492984 -203.185046 
L 302.518504 -202.01463 
L 302.542003 -200.844214 
L 302.563441 -199.673797 
L 302.582796 -198.503381 
L 302.600063 -197.332965 
L 302.615256 -196.162549 
L 302.628402 -194.992133 
L 302.639541 -193.821717 
L 302.648725 -192.651301 
L 302.656013 -191.480885 
L 302.661473 -190.310469 
L 302.665175 -189.140053 
L 302.667192 -187.969636 
L 302.667595 -186.79922 
L 302.666455 -185.628804 
L 302.663836 -184.458388 
L 302.659799 -183.287972 
L 302.654395 -182.117556 
L 302.647666 -180.94714 
L 302.639647 -179.776724 
L 302.630363 -178.606308 
L 302.619827 -177.435891 
L 302.608044 -176.265475 
L 302.595011 -175.095059 
L 302.580716 -173.924643 
L 302.565144 -172.754227 
L 302.548271 -171.583811 
L 302.530076 -170.413395 
L 302.510535 -169.242979 
L 302.489627 -168.072563 
L 302.467337 -166.902147 
L 302.443656 -165.73173 
L 302.418586 -164.561314 
L 302.39214 -163.390898 
L 302.364345 -162.220482 
L 302.335243 -161.050066 
L 302.304891 -159.87965 
L 302.273365 -158.709234 
L 302.240756 -157.538818 
L 302.207173 -156.368402 
L 302.172739 -155.197985 
L 302.137595 -154.027569 
L 302.10189 -152.857153 
L 302.065786 -151.686737 
L 302.029453 -150.516321 
L 301.993067 -149.345905 
L 301.956805 -148.175489 
L 301.920844 -147.005073 
L 301.885359 -145.834657 
L 301.850517 -144.664241 
L 301.816477 -143.493824 
L 301.783387 -142.323408 
L 301.751383 -141.152992 
L 301.720582 -139.982576 
L 301.691089 -138.81216 
L 301.662989 -137.641744 
L 301.636351 -136.471328 
L 301.611225 -135.300912 
L 301.587643 -134.130496 
L 301.56562 -132.960079 
L 301.545155 -131.789663 
L 301.526233 -130.619247 
L 301.508822 -129.448831 
L 301.492882 -128.278415 
L 301.478359 -127.107999 
L 301.465193 -125.937583 
z
" style="stroke: #3d3d3d; stroke-width: 1.5"/>
    </defs>
    <g clip-path="url(#p54f30697f6)">
     <use xlink:href="#m4dad3f9926" x="0" y="388.804834" style="fill: #c03d3e; stroke: #3d3d3d; stroke-width: 1.5"/>
    </g>
   </g>
   <g id="PolyCollection_6">
    <defs>
     <path id="m57ab4575b5" d="M 346.088844 -112.470709 
L 345.93419 -112.470709 
L 345.92318 -114.404165 
L 345.911 -116.337622 
L 345.89759 -118.271078 
L 345.882899 -120.204534 
L 345.866883 -122.13799 
L 345.84951 -124.071446 
L 345.830763 -126.004903 
L 345.810636 -127.938359 
L 345.78914 -129.871815 
L 345.766306 -131.805271 
L 345.742183 -133.738727 
L 345.716838 -135.672184 
L 345.690362 -137.60564 
L 345.662865 -139.539096 
L 345.63448 -141.472552 
L 345.605358 -143.406009 
L 345.575671 -145.339465 
L 345.545611 -147.272921 
L 345.515382 -149.206377 
L 345.485204 -151.139833 
L 345.455307 -153.07329 
L 345.425929 -155.006746 
L 345.39731 -156.940202 
L 345.369689 -158.873658 
L 345.343303 -160.807114 
L 345.318378 -162.740571 
L 345.295127 -164.674027 
L 345.273745 -166.607483 
L 345.254407 -168.540939 
L 345.237262 -170.474395 
L 345.222433 -172.407852 
L 345.210009 -174.341308 
L 345.200051 -176.274764 
L 345.192583 -178.20822 
L 345.187597 -180.141677 
L 345.185049 -182.075133 
L 345.184864 -184.008589 
L 345.186935 -185.942045 
L 345.191129 -187.875501 
L 345.197286 -189.808958 
L 345.205224 -191.742414 
L 345.214745 -193.67587 
L 345.225641 -195.609326 
L 345.237691 -197.542782 
L 345.250678 -199.476239 
L 345.264382 -201.409695 
L 345.278593 -203.343151 
L 345.293112 -205.276607 
L 345.307756 -207.210063 
L 345.322361 -209.14352 
L 345.336785 -211.076976 
L 345.350911 -213.010432 
L 345.364648 -214.943888 
L 345.37793 -216.877345 
L 345.39072 -218.810801 
L 345.403005 -220.744257 
L 345.414798 -222.677713 
L 345.426132 -224.611169 
L 345.437063 -226.544626 
L 345.447662 -228.478082 
L 345.458012 -230.411538 
L 345.468209 -232.344994 
L 345.478352 -234.27845 
L 345.488544 -236.211907 
L 345.498887 -238.145363 
L 345.509475 -240.078819 
L 345.520397 -242.012275 
L 345.531732 -243.945731 
L 345.543543 -245.879188 
L 345.555881 -247.812644 
L 345.56878 -249.7461 
L 345.582257 -251.679556 
L 345.596312 -253.613013 
L 345.610928 -255.546469 
L 345.626075 -257.479925 
L 345.641703 -259.413381 
L 345.657755 -261.346837 
L 345.674157 -263.280294 
L 345.69083 -265.21375 
L 345.707685 -267.147206 
L 345.724629 -269.080662 
L 345.741567 -271.014118 
L 345.758403 -272.947575 
L 345.775043 -274.881031 
L 345.791396 -276.814487 
L 345.807377 -278.747943 
L 345.822906 -280.681399 
L 345.837913 -282.614856 
L 345.852336 -284.548312 
L 345.866123 -286.481768 
L 345.879229 -288.415224 
L 345.891624 -290.348681 
L 345.903282 -292.282137 
L 345.914192 -294.215593 
L 345.924348 -296.149049 
L 345.933753 -298.082505 
L 345.94242 -300.015962 
L 345.950366 -301.949418 
L 345.957614 -303.882874 
L 346.06542 -303.882874 
L 346.06542 -303.882874 
L 346.072668 -301.949418 
L 346.080614 -300.015962 
L 346.089281 -298.082505 
L 346.098687 -296.149049 
L 346.108842 -294.215593 
L 346.119752 -292.282137 
L 346.131411 -290.348681 
L 346.143805 -288.415224 
L 346.156912 -286.481768 
L 346.170698 -284.548312 
L 346.185121 -282.614856 
L 346.200128 -280.681399 
L 346.215658 -278.747943 
L 346.231638 -276.814487 
L 346.247991 -274.881031 
L 346.264631 -272.947575 
L 346.281467 -271.014118 
L 346.298405 -269.080662 
L 346.315349 -267.147206 
L 346.332204 -265.21375 
L 346.348877 -263.280294 
L 346.365279 -261.346837 
L 346.381331 -259.413381 
L 346.39696 -257.479925 
L 346.412106 -255.546469 
L 346.426723 -253.613013 
L 346.440778 -251.679556 
L 346.454254 -249.7461 
L 346.467153 -247.812644 
L 346.479491 -245.879188 
L 346.491302 -243.945731 
L 346.502637 -242.012275 
L 346.51356 -240.078819 
L 346.524148 -238.145363 
L 346.53449 -236.211907 
L 346.544682 -234.27845 
L 346.554825 -232.344994 
L 346.565022 -230.411538 
L 346.575373 -228.478082 
L 346.585971 -226.544626 
L 346.596902 -224.611169 
L 346.608237 -222.677713 
L 346.620029 -220.744257 
L 346.632314 -218.810801 
L 346.645104 -216.877345 
L 346.658386 -214.943888 
L 346.672123 -213.010432 
L 346.686249 -211.076976 
L 346.700674 -209.14352 
L 346.715279 -207.210063 
L 346.729923 -205.276607 
L 346.744442 -203.343151 
L 346.758653 -201.409695 
L 346.772357 -199.476239 
L 346.785343 -197.542782 
L 346.797394 -195.609326 
L 346.808289 -193.67587 
L 346.817811 -191.742414 
L 346.825749 -189.808958 
L 346.831905 -187.875501 
L 346.836099 -185.942045 
L 346.838171 -184.008589 
L 346.837986 -182.075133 
L 346.835438 -180.141677 
L 346.830451 -178.20822 
L 346.822983 -176.274764 
L 346.813025 -174.341308 
L 346.800602 -172.407852 
L 346.785772 -170.474395 
L 346.768628 -168.540939 
L 346.74929 -166.607483 
L 346.727908 -164.674027 
L 346.704656 -162.740571 
L 346.679731 -160.807114 
L 346.653345 -158.873658 
L 346.625725 -156.940202 
L 346.597105 -155.006746 
L 346.567727 -153.07329 
L 346.53783 -151.139833 
L 346.507652 -149.206377 
L 346.477424 -147.272921 
L 346.447363 -145.339465 
L 346.417677 -143.406009 
L 346.388555 -141.472552 
L 346.360169 -139.539096 
L 346.332672 -137.60564 
L 346.306196 -135.672184 
L 346.280852 -133.738727 
L 346.256728 -131.805271 
L 346.233894 -129.871815 
L 346.212399 -127.938359 
L 346.192271 -126.004903 
L 346.173524 -124.071446 
L 346.156152 -122.13799 
L 346.140136 -120.204534 
L 346.125444 -118.271078 
L 346.112034 -116.337622 
L 346.099854 -114.404165 
L 346.088844 -112.470709 
z
" style="stroke: #3d3d3d; stroke-width: 1.5"/>
    </defs>
    <g clip-path="url(#p54f30697f6)">
     <use xlink:href="#m57ab4575b5" x="0" y="388.804834" style="fill: #9fd495; stroke: #3d3d3d; stroke-width: 1.5"/>
    </g>
   </g>
   <g id="PolyCollection_7">
    <defs>
     <path id="m1ec4b427e1" d="M 392.033427 -178.670438 
L 389.269607 -178.670438 
L 389.070094 -178.757851 
L 388.848848 -178.845264 
L 388.604648 -178.932677 
L 388.336382 -179.020089 
L 388.043073 -179.107502 
L 387.723914 -179.194915 
L 387.378295 -179.282328 
L 387.005838 -179.369741 
L 386.606421 -179.457154 
L 386.180213 -179.544567 
L 385.72769 -179.631979 
L 385.249663 -179.719392 
L 384.747288 -179.806805 
L 384.222082 -179.894218 
L 383.675924 -179.981631 
L 383.111052 -180.069044 
L 382.530057 -180.156457 
L 381.935864 -180.243869 
L 381.33171 -180.331282 
L 380.721106 -180.418695 
L 380.107806 -180.506108 
L 379.495756 -180.593521 
L 378.88904 -180.680934 
L 378.29183 -180.768346 
L 377.708316 -180.855759 
L 377.142649 -180.943172 
L 376.59887 -181.030585 
L 376.080845 -181.117998 
L 375.5922 -181.205411 
L 375.136262 -181.292824 
L 374.715999 -181.380236 
L 374.333968 -181.467649 
L 373.992274 -181.555062 
L 373.692532 -181.642475 
L 373.435846 -181.729888 
L 373.222788 -181.817301 
L 373.053401 -181.904714 
L 372.927201 -181.992126 
L 372.8432 -182.079539 
L 372.799938 -182.166952 
L 372.795517 -182.254365 
L 372.827661 -182.341778 
L 372.893767 -182.429191 
L 372.990976 -182.516604 
L 373.116245 -182.604016 
L 373.266414 -182.691429 
L 373.438294 -182.778842 
L 373.62873 -182.866255 
L 373.834682 -182.953668 
L 374.053288 -183.041081 
L 374.281927 -183.128493 
L 374.51827 -183.215906 
L 374.760322 -183.303319 
L 375.006455 -183.390732 
L 375.255426 -183.478145 
L 375.506383 -183.565558 
L 375.758863 -183.652971 
L 376.012773 -183.740383 
L 376.268359 -183.827796 
L 376.526172 -183.915209 
L 376.787018 -184.002622 
L 377.051905 -184.090035 
L 377.321979 -184.177448 
L 377.598471 -184.264861 
L 377.882624 -184.352273 
L 378.175636 -184.439686 
L 378.478601 -184.527099 
L 378.792453 -184.614512 
L 379.11792 -184.701925 
L 379.455488 -184.789338 
L 379.805365 -184.876751 
L 380.167466 -184.964163 
L 380.5414 -185.051576 
L 380.926473 -185.138989 
L 381.321696 -185.226402 
L 381.725804 -185.313815 
L 382.137283 -185.401228 
L 382.554407 -185.48864 
L 382.975272 -185.576053 
L 383.397843 -185.663466 
L 383.820001 -185.750879 
L 384.239584 -185.838292 
L 384.654441 -185.925705 
L 385.062468 -186.013118 
L 385.461657 -186.10053 
L 385.850126 -186.187943 
L 386.226154 -186.275356 
L 386.588206 -186.362769 
L 386.934956 -186.450182 
L 387.265295 -186.537595 
L 387.578345 -186.625008 
L 387.873458 -186.71242 
L 388.150211 -186.799833 
L 388.408404 -186.887246 
L 388.64804 -186.974659 
L 388.869313 -187.062072 
L 389.072591 -187.149485 
L 389.258392 -187.236898 
L 389.427364 -187.32431 
L 391.87567 -187.32431 
L 391.87567 -187.32431 
L 392.044642 -187.236898 
L 392.230443 -187.149485 
L 392.433721 -187.062072 
L 392.654995 -186.974659 
L 392.89463 -186.887246 
L 393.152823 -186.799833 
L 393.429577 -186.71242 
L 393.724689 -186.625008 
L 394.037739 -186.537595 
L 394.368079 -186.450182 
L 394.714828 -186.362769 
L 395.076881 -186.275356 
L 395.452908 -186.187943 
L 395.841377 -186.10053 
L 396.240566 -186.013118 
L 396.648594 -185.925705 
L 397.06345 -185.838292 
L 397.483034 -185.750879 
L 397.905191 -185.663466 
L 398.327762 -185.576053 
L 398.748627 -185.48864 
L 399.165751 -185.401228 
L 399.577231 -185.313815 
L 399.981338 -185.226402 
L 400.376561 -185.138989 
L 400.761634 -185.051576 
L 401.135568 -184.964163 
L 401.497669 -184.876751 
L 401.847546 -184.789338 
L 402.185114 -184.701925 
L 402.510582 -184.614512 
L 402.824434 -184.527099 
L 403.127398 -184.439686 
L 403.420411 -184.352273 
L 403.704563 -184.264861 
L 403.981055 -184.177448 
L 404.25113 -184.090035 
L 404.516016 -184.002622 
L 404.776862 -183.915209 
L 405.034675 -183.827796 
L 405.290262 -183.740383 
L 405.544171 -183.652971 
L 405.796651 -183.565558 
L 406.047609 -183.478145 
L 406.296579 -183.390732 
L 406.542712 -183.303319 
L 406.784764 -183.215906 
L 407.021107 -183.128493 
L 407.249746 -183.041081 
L 407.468353 -182.953668 
L 407.674305 -182.866255 
L 407.864741 -182.778842 
L 408.03662 -182.691429 
L 408.18679 -182.604016 
L 408.312058 -182.516604 
L 408.409268 -182.429191 
L 408.475374 -182.341778 
L 408.507517 -182.254365 
L 408.503097 -182.166952 
L 408.459834 -182.079539 
L 408.375834 -181.992126 
L 408.249634 -181.904714 
L 408.080246 -181.817301 
L 407.867189 -181.729888 
L 407.610502 -181.642475 
L 407.310761 -181.555062 
L 406.969066 -181.467649 
L 406.587035 -181.380236 
L 406.166772 -181.292824 
L 405.710834 -181.205411 
L 405.22219 -181.117998 
L 404.704164 -181.030585 
L 404.160385 -180.943172 
L 403.594718 -180.855759 
L 403.011205 -180.768346 
L 402.413994 -180.680934 
L 401.807279 -180.593521 
L 401.195228 -180.506108 
L 400.581928 -180.418695 
L 399.971325 -180.331282 
L 399.36717 -180.243869 
L 398.772978 -180.156457 
L 398.191983 -180.069044 
L 397.627111 -179.981631 
L 397.080952 -179.894218 
L 396.555746 -179.806805 
L 396.053372 -179.719392 
L 395.575344 -179.631979 
L 395.122822 -179.544567 
L 394.696613 -179.457154 
L 394.297197 -179.369741 
L 393.924739 -179.282328 
L 393.57912 -179.194915 
L 393.259961 -179.107502 
L 392.966653 -179.020089 
L 392.698386 -178.932677 
L 392.454186 -178.845264 
L 392.23294 -178.757851 
L 392.033427 -178.670438 
z
" style="stroke: #3d3d3d; stroke-width: 1.5"/>
    </defs>
    <g clip-path="url(#p54f30697f6)">
     <use xlink:href="#m1ec4b427e1" x="0" y="388.804834" style="fill: #3274a1; stroke: #3d3d3d; stroke-width: 1.5"/>
    </g>
   </g>
   <g id="PolyCollection_8">
    <defs>
     <path id="m125c36f065" d="M 435.596288 -155.766674 
L 434.986746 -155.766674 
L 434.950284 -156.226112 
L 434.910655 -156.685551 
L 434.86775 -157.144989 
L 434.821477 -157.604427 
L 434.771767 -158.063865 
L 434.718574 -158.523304 
L 434.661879 -158.982742 
L 434.601692 -159.44218 
L 434.538054 -159.901619 
L 434.471038 -160.361057 
L 434.400752 -160.820495 
L 434.327339 -161.279934 
L 434.250978 -161.739372 
L 434.17188 -162.19881 
L 434.090293 -162.658248 
L 434.006496 -163.117687 
L 433.920798 -163.577125 
L 433.833535 -164.036563 
L 433.745067 -164.496002 
L 433.655773 -164.95544 
L 433.566049 -165.414878 
L 433.476299 -165.874316 
L 433.386933 -166.333755 
L 433.298362 -166.793193 
L 433.210988 -167.252631 
L 433.125206 -167.71207 
L 433.041391 -168.171508 
L 432.959899 -168.630946 
L 432.88106 -169.090384 
L 432.805176 -169.549823 
L 432.732514 -170.009261 
L 432.663309 -170.468699 
L 432.597757 -170.928138 
L 432.536019 -171.387576 
L 432.478219 -171.847014 
L 432.424445 -172.306452 
L 432.374753 -172.765891 
L 432.329164 -173.225329 
L 432.287677 -173.684767 
L 432.250264 -174.144206 
L 432.216879 -174.603644 
L 432.187461 -175.063082 
L 432.161942 -175.52252 
L 432.140248 -175.981959 
L 432.122304 -176.441397 
L 432.108043 -176.900835 
L 432.097405 -177.360274 
L 432.09034 -177.819712 
L 432.086817 -178.27915 
L 432.086817 -178.738589 
L 432.09034 -179.198027 
L 432.097405 -179.657465 
L 432.108043 -180.116903 
L 432.122304 -180.576342 
L 432.140248 -181.03578 
L 432.161942 -181.495218 
L 432.187461 -181.954657 
L 432.216879 -182.414095 
L 432.250264 -182.873533 
L 432.287677 -183.332971 
L 432.329164 -183.79241 
L 432.374753 -184.251848 
L 432.424445 -184.711286 
L 432.478219 -185.170725 
L 432.536019 -185.630163 
L 432.597757 -186.089601 
L 432.663309 -186.549039 
L 432.732514 -187.008478 
L 432.805176 -187.467916 
L 432.88106 -187.927354 
L 432.959899 -188.386793 
L 433.041391 -188.846231 
L 433.125206 -189.305669 
L 433.210988 -189.765107 
L 433.298362 -190.224546 
L 433.386933 -190.683984 
L 433.476299 -191.143422 
L 433.566049 -191.602861 
L 433.655773 -192.062299 
L 433.745067 -192.521737 
L 433.833535 -192.981175 
L 433.920798 -193.440614 
L 434.006496 -193.900052 
L 434.090293 -194.35949 
L 434.17188 -194.818929 
L 434.250978 -195.278367 
L 434.327339 -195.737805 
L 434.400752 -196.197244 
L 434.471038 -196.656682 
L 434.538054 -197.11612 
L 434.601692 -197.575558 
L 434.661879 -198.034997 
L 434.718574 -198.494435 
L 434.771767 -198.953873 
L 434.821477 -199.413312 
L 434.86775 -199.87275 
L 434.910655 -200.332188 
L 434.950284 -200.791626 
L 434.986746 -201.251065 
L 435.596288 -201.251065 
L 435.596288 -201.251065 
L 435.63275 -200.791626 
L 435.672379 -200.332188 
L 435.715285 -199.87275 
L 435.761558 -199.413312 
L 435.811267 -198.953873 
L 435.86446 -198.494435 
L 435.921155 -198.034997 
L 435.981342 -197.575558 
L 436.044981 -197.11612 
L 436.111997 -196.656682 
L 436.182282 -196.197244 
L 436.255695 -195.737805 
L 436.332057 -195.278367 
L 436.411154 -194.818929 
L 436.492741 -194.35949 
L 436.576538 -193.900052 
L 436.662236 -193.440614 
L 436.749499 -192.981175 
L 436.837967 -192.521737 
L 436.927261 -192.062299 
L 437.016985 -191.602861 
L 437.106735 -191.143422 
L 437.196101 -190.683984 
L 437.284673 -190.224546 
L 437.372046 -189.765107 
L 437.457829 -189.305669 
L 437.541644 -188.846231 
L 437.623135 -188.386793 
L 437.701974 -187.927354 
L 437.777858 -187.467916 
L 437.85052 -187.008478 
L 437.919726 -186.549039 
L 437.985278 -186.089601 
L 438.047015 -185.630163 
L 438.104815 -185.170725 
L 438.158589 -184.711286 
L 438.208282 -184.251848 
L 438.25387 -183.79241 
L 438.295357 -183.332971 
L 438.33277 -182.873533 
L 438.366155 -182.414095 
L 438.395573 -181.954657 
L 438.421092 -181.495218 
L 438.442787 -181.03578 
L 438.46073 -180.576342 
L 438.474991 -180.116903 
L 438.48563 -179.657465 
L 438.492694 -179.198027 
L 438.496218 -178.738589 
L 438.496218 -178.27915 
L 438.492694 -177.819712 
L 438.48563 -177.360274 
L 438.474991 -176.900835 
L 438.46073 -176.441397 
L 438.442787 -175.981959 
L 438.421092 -175.52252 
L 438.395573 -175.063082 
L 438.366155 -174.603644 
L 438.33277 -174.144206 
L 438.295357 -173.684767 
L 438.25387 -173.225329 
L 438.208282 -172.765891 
L 438.158589 -172.306452 
L 438.104815 -171.847014 
L 438.047015 -171.387576 
L 437.985278 -170.928138 
L 437.919726 -170.468699 
L 437.85052 -170.009261 
L 437.777858 -169.549823 
L 437.701974 -169.090384 
L 437.623135 -168.630946 
L 437.541644 -168.171508 
L 437.457829 -167.71207 
L 437.372046 -167.252631 
L 437.284673 -166.793193 
L 437.196101 -166.333755 
L 437.106735 -165.874316 
L 437.016985 -165.414878 
L 436.927261 -164.95544 
L 436.837967 -164.496002 
L 436.749499 -164.036563 
L 436.662236 -163.577125 
L 436.576538 -163.117687 
L 436.492741 -162.658248 
L 436.411154 -162.19881 
L 436.332057 -161.739372 
L 436.255695 -161.279934 
L 436.182282 -160.820495 
L 436.111997 -160.361057 
L 436.044981 -159.901619 
L 435.981342 -159.44218 
L 435.921155 -158.982742 
L 435.86446 -158.523304 
L 435.811267 -158.063865 
L 435.761558 -157.604427 
L 435.715285 -157.144989 
L 435.672379 -156.685551 
L 435.63275 -156.226112 
L 435.596288 -155.766674 
z
" style="stroke: #3d3d3d; stroke-width: 1.5"/>
    </defs>
    <g clip-path="url(#p54f30697f6)">
     <use xlink:href="#m125c36f065" x="0" y="388.804834" style="fill: #7f7f7f; stroke: #3d3d3d; stroke-width: 1.5"/>
    </g>
   </g>
   <g id="matplotlib.axis_1">
    <g id="xtick_1">
     <g id="line2d_1">
      <defs>
       <path id="mfd574a0497" d="M 0 0 
L 0 3.5 
" style="stroke: #000000; stroke-width: 0.8"/>
      </defs>
      <g>
       <use xlink:href="#mfd574a0497" x="122.811517" y="288.430125" style="stroke: #000000; stroke-width: 0.8"/>
      </g>
     </g>
     <g id="text_1">
      <!-- aflplusplus_ast_o3_native -->
      <g transform="translate(10.999219 365.884784)rotate(-30)scale(0.1 -0.1)">
       <defs>
        <path id="DejaVuSans-61" d="M 2194 1759 
Q 1497 1759 1228 1600 
Q 959 1441 959 1056 
Q 959 750 1161 570 
Q 1363 391 1709 391 
Q 2188 391 2477 730 
Q 2766 1069 2766 1631 
L 2766 1759 
L 2194 1759 
z
M 3341 1997 
L 3341 0 
L 2766 0 
L 2766 531 
Q 2569 213 2275 61 
Q 1981 -91 1556 -91 
Q 1019 -91 701 211 
Q 384 513 384 1019 
Q 384 1609 779 1909 
Q 1175 2209 1959 2209 
L 2766 2209 
L 2766 2266 
Q 2766 2663 2505 2880 
Q 2244 3097 1772 3097 
Q 1472 3097 1187 3025 
Q 903 2953 641 2809 
L 641 3341 
Q 956 3463 1253 3523 
Q 1550 3584 1831 3584 
Q 2591 3584 2966 3190 
Q 3341 2797 3341 1997 
z
" transform="scale(0.015625)"/>
        <path id="DejaVuSans-66" d="M 2375 4863 
L 2375 4384 
L 1825 4384 
Q 1516 4384 1395 4259 
Q 1275 4134 1275 3809 
L 1275 3500 
L 2222 3500 
L 2222 3053 
L 1275 3053 
L 1275 0 
L 697 0 
L 697 3053 
L 147 3053 
L 147 3500 
L 697 3500 
L 697 3744 
Q 697 4328 969 4595 
Q 1241 4863 1831 4863 
L 2375 4863 
z
" transform="scale(0.015625)"/>
        <path id="DejaVuSans-6c" d="M 603 4863 
L 1178 4863 
L 1178 0 
L 603 0 
L 603 4863 
z
" transform="scale(0.015625)"/>
        <path id="DejaVuSans-70" d="M 1159 525 
L 1159 -1331 
L 581 -1331 
L 581 3500 
L 1159 3500 
L 1159 2969 
Q 1341 3281 1617 3432 
Q 1894 3584 2278 3584 
Q 2916 3584 3314 3078 
Q 3713 2572 3713 1747 
Q 3713 922 3314 415 
Q 2916 -91 2278 -91 
Q 1894 -91 1617 61 
Q 1341 213 1159 525 
z
M 3116 1747 
Q 3116 2381 2855 2742 
Q 2594 3103 2138 3103 
Q 1681 3103 1420 2742 
Q 1159 2381 1159 1747 
Q 1159 1113 1420 752 
Q 1681 391 2138 391 
Q 2594 391 2855 752 
Q 3116 1113 3116 1747 
z
" transform="scale(0.015625)"/>
        <path id="DejaVuSans-75" d="M 544 1381 
L 544 3500 
L 1119 3500 
L 1119 1403 
Q 1119 906 1312 657 
Q 1506 409 1894 409 
Q 2359 409 2629 706 
Q 2900 1003 2900 1516 
L 2900 3500 
L 3475 3500 
L 3475 0 
L 2900 0 
L 2900 538 
Q 2691 219 2414 64 
Q 2138 -91 1772 -91 
Q 1169 -91 856 284 
Q 544 659 544 1381 
z
M 1991 3584 
L 1991 3584 
z
" transform="scale(0.015625)"/>
        <path id="DejaVuSans-73" d="M 2834 3397 
L 2834 2853 
Q 2591 2978 2328 3040 
Q 2066 3103 1784 3103 
Q 1356 3103 1142 2972 
Q 928 2841 928 2578 
Q 928 2378 1081 2264 
Q 1234 2150 1697 2047 
L 1894 2003 
Q 2506 1872 2764 1633 
Q 3022 1394 3022 966 
Q 3022 478 2636 193 
Q 2250 -91 1575 -91 
Q 1294 -91 989 -36 
Q 684 19 347 128 
L 347 722 
Q 666 556 975 473 
Q 1284 391 1588 391 
Q 1994 391 2212 530 
Q 2431 669 2431 922 
Q 2431 1156 2273 1281 
Q 2116 1406 1581 1522 
L 1381 1569 
Q 847 1681 609 1914 
Q 372 2147 372 2553 
Q 372 3047 722 3315 
Q 1072 3584 1716 3584 
Q 2034 3584 2315 3537 
Q 2597 3491 2834 3397 
z
" transform="scale(0.015625)"/>
        <path id="DejaVuSans-5f" d="M 3263 -1063 
L 3263 -1509 
L -63 -1509 
L -63 -1063 
L 3263 -1063 
z
" transform="scale(0.015625)"/>
        <path id="DejaVuSans-74" d="M 1172 4494 
L 1172 3500 
L 2356 3500 
L 2356 3053 
L 1172 3053 
L 1172 1153 
Q 1172 725 1289 603 
Q 1406 481 1766 481 
L 2356 481 
L 2356 0 
L 1766 0 
Q 1100 0 847 248 
Q 594 497 594 1153 
L 594 3053 
L 172 3053 
L 172 3500 
L 594 3500 
L 594 4494 
L 1172 4494 
z
" transform="scale(0.015625)"/>
        <path id="DejaVuSans-6f" d="M 1959 3097 
Q 1497 3097 1228 2736 
Q 959 2375 959 1747 
Q 959 1119 1226 758 
Q 1494 397 1959 397 
Q 2419 397 2687 759 
Q 2956 1122 2956 1747 
Q 2956 2369 2687 2733 
Q 2419 3097 1959 3097 
z
M 1959 3584 
Q 2709 3584 3137 3096 
Q 3566 2609 3566 1747 
Q 3566 888 3137 398 
Q 2709 -91 1959 -91 
Q 1206 -91 779 398 
Q 353 888 353 1747 
Q 353 2609 779 3096 
Q 1206 3584 1959 3584 
z
" transform="scale(0.015625)"/>
        <path id="DejaVuSans-33" d="M 2597 2516 
Q 3050 2419 3304 2112 
Q 3559 1806 3559 1356 
Q 3559 666 3084 287 
Q 2609 -91 1734 -91 
Q 1441 -91 1130 -33 
Q 819 25 488 141 
L 488 750 
Q 750 597 1062 519 
Q 1375 441 1716 441 
Q 2309 441 2620 675 
Q 2931 909 2931 1356 
Q 2931 1769 2642 2001 
Q 2353 2234 1838 2234 
L 1294 2234 
L 1294 2753 
L 1863 2753 
Q 2328 2753 2575 2939 
Q 2822 3125 2822 3475 
Q 2822 3834 2567 4026 
Q 2313 4219 1838 4219 
Q 1578 4219 1281 4162 
Q 984 4106 628 3988 
L 628 4550 
Q 988 4650 1302 4700 
Q 1616 4750 1894 4750 
Q 2613 4750 3031 4423 
Q 3450 4097 3450 3541 
Q 3450 3153 3228 2886 
Q 3006 2619 2597 2516 
z
" transform="scale(0.015625)"/>
        <path id="DejaVuSans-6e" d="M 3513 2113 
L 3513 0 
L 2938 0 
L 2938 2094 
Q 2938 2591 2744 2837 
Q 2550 3084 2163 3084 
Q 1697 3084 1428 2787 
Q 1159 2491 1159 1978 
L 1159 0 
L 581 0 
L 581 3500 
L 1159 3500 
L 1159 2956 
Q 1366 3272 1645 3428 
Q 1925 3584 2291 3584 
Q 2894 3584 3203 3211 
Q 3513 2838 3513 2113 
z
" transform="scale(0.015625)"/>
        <path id="DejaVuSans-69" d="M 603 3500 
L 1178 3500 
L 1178 0 
L 603 0 
L 603 3500 
z
M 603 4863 
L 1178 4863 
L 1178 4134 
L 603 4134 
L 603 4863 
z
" transform="scale(0.015625)"/>
        <path id="DejaVuSans-76" d="M 191 3500 
L 800 3500 
L 1894 563 
L 2988 3500 
L 3597 3500 
L 2284 0 
L 1503 0 
L 191 3500 
z
" transform="scale(0.015625)"/>
        <path id="DejaVuSans-65" d="M 3597 1894 
L 3597 1613 
L 953 1613 
Q 991 1019 1311 708 
Q 1631 397 2203 397 
Q 2534 397 2845 478 
Q 3156 559 3463 722 
L 3463 178 
Q 3153 47 2828 -22 
Q 2503 -91 2169 -91 
Q 1331 -91 842 396 
Q 353 884 353 1716 
Q 353 2575 817 3079 
Q 1281 3584 2069 3584 
Q 2775 3584 3186 3129 
Q 3597 2675 3597 1894 
z
M 3022 2063 
Q 3016 2534 2758 2815 
Q 2500 3097 2075 3097 
Q 1594 3097 1305 2825 
Q 1016 2553 972 2059 
L 3022 2063 
z
" transform="scale(0.015625)"/>
       </defs>
       <use xlink:href="#DejaVuSans-61"/>
       <use xlink:href="#DejaVuSans-66" x="61.279297"/>
       <use xlink:href="#DejaVuSans-6c" x="96.484375"/>
       <use xlink:href="#DejaVuSans-70" x="124.267578"/>
       <use xlink:href="#DejaVuSans-6c" x="187.744141"/>
       <use xlink:href="#DejaVuSans-75" x="215.527344"/>
       <use xlink:href="#DejaVuSans-73" x="278.90625"/>
       <use xlink:href="#DejaVuSans-70" x="331.005859"/>
       <use xlink:href="#DejaVuSans-6c" x="394.482422"/>
       <use xlink:href="#DejaVuSans-75" x="422.265625"/>
       <use xlink:href="#DejaVuSans-73" x="485.644531"/>
       <use xlink:href="#DejaVuSans-5f" x="537.744141"/>
       <use xlink:href="#DejaVuSans-61" x="587.744141"/>
       <use xlink:href="#DejaVuSans-73" x="649.023438"/>
       <use xlink:href="#DejaVuSans-74" x="701.123047"/>
       <use xlink:href="#DejaVuSans-5f" x="740.332031"/>
       <use xlink:href="#DejaVuSans-6f" x="790.332031"/>
       <use xlink:href="#DejaVuSans-33" x="851.513672"/>
       <use xlink:href="#DejaVuSans-5f" x="915.136719"/>
       <use xlink:href="#DejaVuSans-6e" x="965.136719"/>
       <use xlink:href="#DejaVuSans-61" x="1028.515625"/>
       <use xlink:href="#DejaVuSans-74" x="1089.794922"/>
       <use xlink:href="#DejaVuSans-69" x="1129.003906"/>
       <use xlink:href="#DejaVuSans-76" x="1156.787109"/>
       <use xlink:href="#DejaVuSans-65" x="1215.966797"/>
      </g>
     </g>
    </g>
    <g id="xtick_2">
     <g id="line2d_2">
      <g>
       <use xlink:href="#mfd574a0497" x="167.451517" y="288.430125" style="stroke: #000000; stroke-width: 0.8"/>
      </g>
     </g>
     <g id="text_2">
      <!-- aflplusplus_ast_o2 -->
      <g transform="translate(87.020461 347.766815)rotate(-30)scale(0.1 -0.1)">
       <defs>
        <path id="DejaVuSans-32" d="M 1228 531 
L 3431 531 
L 3431 0 
L 469 0 
L 469 531 
Q 828 903 1448 1529 
Q 2069 2156 2228 2338 
Q 2531 2678 2651 2914 
Q 2772 3150 2772 3378 
Q 2772 3750 2511 3984 
Q 2250 4219 1831 4219 
Q 1534 4219 1204 4116 
Q 875 4013 500 3803 
L 500 4441 
Q 881 4594 1212 4672 
Q 1544 4750 1819 4750 
Q 2544 4750 2975 4387 
Q 3406 4025 3406 3419 
Q 3406 3131 3298 2873 
Q 3191 2616 2906 2266 
Q 2828 2175 2409 1742 
Q 1991 1309 1228 531 
z
" transform="scale(0.015625)"/>
       </defs>
       <use xlink:href="#DejaVuSans-61"/>
       <use xlink:href="#DejaVuSans-66" x="61.279297"/>
       <use xlink:href="#DejaVuSans-6c" x="96.484375"/>
       <use xlink:href="#DejaVuSans-70" x="124.267578"/>
       <use xlink:href="#DejaVuSans-6c" x="187.744141"/>
       <use xlink:href="#DejaVuSans-75" x="215.527344"/>
       <use xlink:href="#DejaVuSans-73" x="278.90625"/>
       <use xlink:href="#DejaVuSans-70" x="331.005859"/>
       <use xlink:href="#DejaVuSans-6c" x="394.482422"/>
       <use xlink:href="#DejaVuSans-75" x="422.265625"/>
       <use xlink:href="#DejaVuSans-73" x="485.644531"/>
       <use xlink:href="#DejaVuSans-5f" x="537.744141"/>
       <use xlink:href="#DejaVuSans-61" x="587.744141"/>
       <use xlink:href="#DejaVuSans-73" x="649.023438"/>
       <use xlink:href="#DejaVuSans-74" x="701.123047"/>
       <use xlink:href="#DejaVuSans-5f" x="740.332031"/>
       <use xlink:href="#DejaVuSans-6f" x="790.332031"/>
       <use xlink:href="#DejaVuSans-32" x="851.513672"/>
      </g>
     </g>
    </g>
    <g id="xtick_3">
     <g id="line2d_3">
      <g>
       <use xlink:href="#mfd574a0497" x="212.091517" y="288.430125" style="stroke: #000000; stroke-width: 0.8"/>
      </g>
     </g>
     <g id="text_3">
      <!-- aflplusplus_ast_o1 -->
      <g transform="translate(131.660461 347.766815)rotate(-30)scale(0.1 -0.1)">
       <defs>
        <path id="DejaVuSans-31" d="M 794 531 
L 1825 531 
L 1825 4091 
L 703 3866 
L 703 4441 
L 1819 4666 
L 2450 4666 
L 2450 531 
L 3481 531 
L 3481 0 
L 794 0 
L 794 531 
z
" transform="scale(0.015625)"/>
       </defs>
       <use xlink:href="#DejaVuSans-61"/>
       <use xlink:href="#DejaVuSans-66" x="61.279297"/>
       <use xlink:href="#DejaVuSans-6c" x="96.484375"/>
       <use xlink:href="#DejaVuSans-70" x="124.267578"/>
       <use xlink:href="#DejaVuSans-6c" x="187.744141"/>
       <use xlink:href="#DejaVuSans-75" x="215.527344"/>
       <use xlink:href="#DejaVuSans-73" x="278.90625"/>
       <use xlink:href="#DejaVuSans-70" x="331.005859"/>
       <use xlink:href="#DejaVuSans-6c" x="394.482422"/>
       <use xlink:href="#DejaVuSans-75" x="422.265625"/>
       <use xlink:href="#DejaVuSans-73" x="485.644531"/>
       <use xlink:href="#DejaVuSans-5f" x="537.744141"/>
       <use xlink:href="#DejaVuSans-61" x="587.744141"/>
       <use xlink:href="#DejaVuSans-73" x="649.023438"/>
       <use xlink:href="#DejaVuSans-74" x="701.123047"/>
       <use xlink:href="#DejaVuSans-5f" x="740.332031"/>
       <use xlink:href="#DejaVuSans-6f" x="790.332031"/>
       <use xlink:href="#DejaVuSans-31" x="851.513672"/>
      </g>
     </g>
    </g>
    <g id="xtick_4">
     <g id="line2d_4">
      <g>
       <use xlink:href="#mfd574a0497" x="256.731517" y="288.430125" style="stroke: #000000; stroke-width: 0.8"/>
      </g>
     </g>
     <g id="text_4">
      <!-- aflplusplus_ast_o3 -->
      <g transform="translate(176.300461 347.766815)rotate(-30)scale(0.1 -0.1)">
       <use xlink:href="#DejaVuSans-61"/>
       <use xlink:href="#DejaVuSans-66" x="61.279297"/>
       <use xlink:href="#DejaVuSans-6c" x="96.484375"/>
       <use xlink:href="#DejaVuSans-70" x="124.267578"/>
       <use xlink:href="#DejaVuSans-6c" x="187.744141"/>
       <use xlink:href="#DejaVuSans-75" x="215.527344"/>
       <use xlink:href="#DejaVuSans-73" x="278.90625"/>
       <use xlink:href="#DejaVuSans-70" x="331.005859"/>
       <use xlink:href="#DejaVuSans-6c" x="394.482422"/>
       <use xlink:href="#DejaVuSans-75" x="422.265625"/>
       <use xlink:href="#DejaVuSans-73" x="485.644531"/>
       <use xlink:href="#DejaVuSans-5f" x="537.744141"/>
       <use xlink:href="#DejaVuSans-61" x="587.744141"/>
       <use xlink:href="#DejaVuSans-73" x="649.023438"/>
       <use xlink:href="#DejaVuSans-74" x="701.123047"/>
       <use xlink:href="#DejaVuSans-5f" x="740.332031"/>
       <use xlink:href="#DejaVuSans-6f" x="790.332031"/>
       <use xlink:href="#DejaVuSans-33" x="851.513672"/>
      </g>
     </g>
    </g>
    <g id="xtick_5">
     <g id="line2d_5">
      <g>
       <use xlink:href="#mfd574a0497" x="301.371517" y="288.430125" style="stroke: #000000; stroke-width: 0.8"/>
      </g>
     </g>
     <g id="text_5">
      <!-- aflplusplus_ast_o0 -->
      <g transform="translate(220.940461 347.766815)rotate(-30)scale(0.1 -0.1)">
       <defs>
        <path id="DejaVuSans-30" d="M 2034 4250 
Q 1547 4250 1301 3770 
Q 1056 3291 1056 2328 
Q 1056 1369 1301 889 
Q 1547 409 2034 409 
Q 2525 409 2770 889 
Q 3016 1369 3016 2328 
Q 3016 3291 2770 3770 
Q 2525 4250 2034 4250 
z
M 2034 4750 
Q 2819 4750 3233 4129 
Q 3647 3509 3647 2328 
Q 3647 1150 3233 529 
Q 2819 -91 2034 -91 
Q 1250 -91 836 529 
Q 422 1150 422 2328 
Q 422 3509 836 4129 
Q 1250 4750 2034 4750 
z
" transform="scale(0.015625)"/>
       </defs>
       <use xlink:href="#DejaVuSans-61"/>
       <use xlink:href="#DejaVuSans-66" x="61.279297"/>
       <use xlink:href="#DejaVuSans-6c" x="96.484375"/>
       <use xlink:href="#DejaVuSans-70" x="124.267578"/>
       <use xlink:href="#DejaVuSans-6c" x="187.744141"/>
       <use xlink:href="#DejaVuSans-75" x="215.527344"/>
       <use xlink:href="#DejaVuSans-73" x="278.90625"/>
       <use xlink:href="#DejaVuSans-70" x="331.005859"/>
       <use xlink:href="#DejaVuSans-6c" x="394.482422"/>
       <use xlink:href="#DejaVuSans-75" x="422.265625"/>
       <use xlink:href="#DejaVuSans-73" x="485.644531"/>
       <use xlink:href="#DejaVuSans-5f" x="537.744141"/>
       <use xlink:href="#DejaVuSans-61" x="587.744141"/>
       <use xlink:href="#DejaVuSans-73" x="649.023438"/>
       <use xlink:href="#DejaVuSans-74" x="701.123047"/>
       <use xlink:href="#DejaVuSans-5f" x="740.332031"/>
       <use xlink:href="#DejaVuSans-6f" x="790.332031"/>
       <use xlink:href="#DejaVuSans-30" x="851.513672"/>
      </g>
     </g>
    </g>
    <g id="xtick_6">
     <g id="line2d_6">
      <g>
       <use xlink:href="#mfd574a0497" x="346.011517" y="288.430125" style="stroke: #000000; stroke-width: 0.8"/>
      </g>
     </g>
     <g id="text_6">
      <!-- aflplusplus_ast_f1 -->
      <g transform="translate(267.830774 346.467596)rotate(-30)scale(0.1 -0.1)">
       <use xlink:href="#DejaVuSans-61"/>
       <use xlink:href="#DejaVuSans-66" x="61.279297"/>
       <use xlink:href="#DejaVuSans-6c" x="96.484375"/>
       <use xlink:href="#DejaVuSans-70" x="124.267578"/>
       <use xlink:href="#DejaVuSans-6c" x="187.744141"/>
       <use xlink:href="#DejaVuSans-75" x="215.527344"/>
       <use xlink:href="#DejaVuSans-73" x="278.90625"/>
       <use xlink:href="#DejaVuSans-70" x="331.005859"/>
       <use xlink:href="#DejaVuSans-6c" x="394.482422"/>
       <use xlink:href="#DejaVuSans-75" x="422.265625"/>
       <use xlink:href="#DejaVuSans-73" x="485.644531"/>
       <use xlink:href="#DejaVuSans-5f" x="537.744141"/>
       <use xlink:href="#DejaVuSans-61" x="587.744141"/>
       <use xlink:href="#DejaVuSans-73" x="649.023438"/>
       <use xlink:href="#DejaVuSans-74" x="701.123047"/>
       <use xlink:href="#DejaVuSans-5f" x="740.332031"/>
       <use xlink:href="#DejaVuSans-66" x="790.332031"/>
       <use xlink:href="#DejaVuSans-31" x="825.537109"/>
      </g>
     </g>
    </g>
    <g id="xtick_7">
     <g id="line2d_7">
      <g>
       <use xlink:href="#mfd574a0497" x="390.651517" y="288.430125" style="stroke: #000000; stroke-width: 0.8"/>
      </g>
     </g>
     <g id="text_7">
      <!-- aflplusplus_ast_f0 -->
      <g transform="translate(312.470774 346.467596)rotate(-30)scale(0.1 -0.1)">
       <use xlink:href="#DejaVuSans-61"/>
       <use xlink:href="#DejaVuSans-66" x="61.279297"/>
       <use xlink:href="#DejaVuSans-6c" x="96.484375"/>
       <use xlink:href="#DejaVuSans-70" x="124.267578"/>
       <use xlink:href="#DejaVuSans-6c" x="187.744141"/>
       <use xlink:href="#DejaVuSans-75" x="215.527344"/>
       <use xlink:href="#DejaVuSans-73" x="278.90625"/>
       <use xlink:href="#DejaVuSans-70" x="331.005859"/>
       <use xlink:href="#DejaVuSans-6c" x="394.482422"/>
       <use xlink:href="#DejaVuSans-75" x="422.265625"/>
       <use xlink:href="#DejaVuSans-73" x="485.644531"/>
       <use xlink:href="#DejaVuSans-5f" x="537.744141"/>
       <use xlink:href="#DejaVuSans-61" x="587.744141"/>
       <use xlink:href="#DejaVuSans-73" x="649.023438"/>
       <use xlink:href="#DejaVuSans-74" x="701.123047"/>
       <use xlink:href="#DejaVuSans-5f" x="740.332031"/>
       <use xlink:href="#DejaVuSans-66" x="790.332031"/>
       <use xlink:href="#DejaVuSans-30" x="825.537109"/>
      </g>
     </g>
    </g>
    <g id="xtick_8">
     <g id="line2d_8">
      <g>
       <use xlink:href="#mfd574a0497" x="435.291517" y="288.430125" style="stroke: #000000; stroke-width: 0.8"/>
      </g>
     </g>
     <g id="text_8">
      <!-- aflplusplus_ast_opt_l1 -->
      <g transform="translate(339.231409 356.790252)rotate(-30)scale(0.1 -0.1)">
       <use xlink:href="#DejaVuSans-61"/>
       <use xlink:href="#DejaVuSans-66" x="61.279297"/>
       <use xlink:href="#DejaVuSans-6c" x="96.484375"/>
       <use xlink:href="#DejaVuSans-70" x="124.267578"/>
       <use xlink:href="#DejaVuSans-6c" x="187.744141"/>
       <use xlink:href="#DejaVuSans-75" x="215.527344"/>
       <use xlink:href="#DejaVuSans-73" x="278.90625"/>
       <use xlink:href="#DejaVuSans-70" x="331.005859"/>
       <use xlink:href="#DejaVuSans-6c" x="394.482422"/>
       <use xlink:href="#DejaVuSans-75" x="422.265625"/>
       <use xlink:href="#DejaVuSans-73" x="485.644531"/>
       <use xlink:href="#DejaVuSans-5f" x="537.744141"/>
       <use xlink:href="#DejaVuSans-61" x="587.744141"/>
       <use xlink:href="#DejaVuSans-73" x="649.023438"/>
       <use xlink:href="#DejaVuSans-74" x="701.123047"/>
       <use xlink:href="#DejaVuSans-5f" x="740.332031"/>
       <use xlink:href="#DejaVuSans-6f" x="790.332031"/>
       <use xlink:href="#DejaVuSans-70" x="851.513672"/>
       <use xlink:href="#DejaVuSans-74" x="914.990234"/>
       <use xlink:href="#DejaVuSans-5f" x="954.199219"/>
       <use xlink:href="#DejaVuSans-6c" x="1004.199219"/>
       <use xlink:href="#DejaVuSans-31" x="1031.982422"/>
      </g>
     </g>
    </g>
    <g id="text_9">
     <!-- Fuzzer (highest median coverage on the left) -->
     <g transform="translate(166.433548 379.525147)scale(0.1 -0.1)">
      <defs>
       <path id="DejaVuSans-46" d="M 628 4666 
L 3309 4666 
L 3309 4134 
L 1259 4134 
L 1259 2759 
L 3109 2759 
L 3109 2228 
L 1259 2228 
L 1259 0 
L 628 0 
L 628 4666 
z
" transform="scale(0.015625)"/>
       <path id="DejaVuSans-7a" d="M 353 3500 
L 3084 3500 
L 3084 2975 
L 922 459 
L 3084 459 
L 3084 0 
L 275 0 
L 275 525 
L 2438 3041 
L 353 3041 
L 353 3500 
z
" transform="scale(0.015625)"/>
       <path id="DejaVuSans-72" d="M 2631 2963 
Q 2534 3019 2420 3045 
Q 2306 3072 2169 3072 
Q 1681 3072 1420 2755 
Q 1159 2438 1159 1844 
L 1159 0 
L 581 0 
L 581 3500 
L 1159 3500 
L 1159 2956 
Q 1341 3275 1631 3429 
Q 1922 3584 2338 3584 
Q 2397 3584 2469 3576 
Q 2541 3569 2628 3553 
L 2631 2963 
z
" transform="scale(0.015625)"/>
       <path id="DejaVuSans-20" transform="scale(0.015625)"/>
       <path id="DejaVuSans-28" d="M 1984 4856 
Q 1566 4138 1362 3434 
Q 1159 2731 1159 2009 
Q 1159 1288 1364 580 
Q 1569 -128 1984 -844 
L 1484 -844 
Q 1016 -109 783 600 
Q 550 1309 550 2009 
Q 550 2706 781 3412 
Q 1013 4119 1484 4856 
L 1984 4856 
z
" transform="scale(0.015625)"/>
       <path id="DejaVuSans-68" d="M 3513 2113 
L 3513 0 
L 2938 0 
L 2938 2094 
Q 2938 2591 2744 2837 
Q 2550 3084 2163 3084 
Q 1697 3084 1428 2787 
Q 1159 2491 1159 1978 
L 1159 0 
L 581 0 
L 581 4863 
L 1159 4863 
L 1159 2956 
Q 1366 3272 1645 3428 
Q 1925 3584 2291 3584 
Q 2894 3584 3203 3211 
Q 3513 2838 3513 2113 
z
" transform="scale(0.015625)"/>
       <path id="DejaVuSans-67" d="M 2906 1791 
Q 2906 2416 2648 2759 
Q 2391 3103 1925 3103 
Q 1463 3103 1205 2759 
Q 947 2416 947 1791 
Q 947 1169 1205 825 
Q 1463 481 1925 481 
Q 2391 481 2648 825 
Q 2906 1169 2906 1791 
z
M 3481 434 
Q 3481 -459 3084 -895 
Q 2688 -1331 1869 -1331 
Q 1566 -1331 1297 -1286 
Q 1028 -1241 775 -1147 
L 775 -588 
Q 1028 -725 1275 -790 
Q 1522 -856 1778 -856 
Q 2344 -856 2625 -561 
Q 2906 -266 2906 331 
L 2906 616 
Q 2728 306 2450 153 
Q 2172 0 1784 0 
Q 1141 0 747 490 
Q 353 981 353 1791 
Q 353 2603 747 3093 
Q 1141 3584 1784 3584 
Q 2172 3584 2450 3431 
Q 2728 3278 2906 2969 
L 2906 3500 
L 3481 3500 
L 3481 434 
z
" transform="scale(0.015625)"/>
       <path id="DejaVuSans-6d" d="M 3328 2828 
Q 3544 3216 3844 3400 
Q 4144 3584 4550 3584 
Q 5097 3584 5394 3201 
Q 5691 2819 5691 2113 
L 5691 0 
L 5113 0 
L 5113 2094 
Q 5113 2597 4934 2840 
Q 4756 3084 4391 3084 
Q 3944 3084 3684 2787 
Q 3425 2491 3425 1978 
L 3425 0 
L 2847 0 
L 2847 2094 
Q 2847 2600 2669 2842 
Q 2491 3084 2119 3084 
Q 1678 3084 1418 2786 
Q 1159 2488 1159 1978 
L 1159 0 
L 581 0 
L 581 3500 
L 1159 3500 
L 1159 2956 
Q 1356 3278 1631 3431 
Q 1906 3584 2284 3584 
Q 2666 3584 2933 3390 
Q 3200 3197 3328 2828 
z
" transform="scale(0.015625)"/>
       <path id="DejaVuSans-64" d="M 2906 2969 
L 2906 4863 
L 3481 4863 
L 3481 0 
L 2906 0 
L 2906 525 
Q 2725 213 2448 61 
Q 2172 -91 1784 -91 
Q 1150 -91 751 415 
Q 353 922 353 1747 
Q 353 2572 751 3078 
Q 1150 3584 1784 3584 
Q 2172 3584 2448 3432 
Q 2725 3281 2906 2969 
z
M 947 1747 
Q 947 1113 1208 752 
Q 1469 391 1925 391 
Q 2381 391 2643 752 
Q 2906 1113 2906 1747 
Q 2906 2381 2643 2742 
Q 2381 3103 1925 3103 
Q 1469 3103 1208 2742 
Q 947 2381 947 1747 
z
" transform="scale(0.015625)"/>
       <path id="DejaVuSans-63" d="M 3122 3366 
L 3122 2828 
Q 2878 2963 2633 3030 
Q 2388 3097 2138 3097 
Q 1578 3097 1268 2742 
Q 959 2388 959 1747 
Q 959 1106 1268 751 
Q 1578 397 2138 397 
Q 2388 397 2633 464 
Q 2878 531 3122 666 
L 3122 134 
Q 2881 22 2623 -34 
Q 2366 -91 2075 -91 
Q 1284 -91 818 406 
Q 353 903 353 1747 
Q 353 2603 823 3093 
Q 1294 3584 2113 3584 
Q 2378 3584 2631 3529 
Q 2884 3475 3122 3366 
z
" transform="scale(0.015625)"/>
       <path id="DejaVuSans-29" d="M 513 4856 
L 1013 4856 
Q 1481 4119 1714 3412 
Q 1947 2706 1947 2009 
Q 1947 1309 1714 600 
Q 1481 -109 1013 -844 
L 513 -844 
Q 928 -128 1133 580 
Q 1338 1288 1338 2009 
Q 1338 2731 1133 3434 
Q 928 4138 513 4856 
z
" transform="scale(0.015625)"/>
      </defs>
      <use xlink:href="#DejaVuSans-46"/>
      <use xlink:href="#DejaVuSans-75" x="52.019531"/>
      <use xlink:href="#DejaVuSans-7a" x="115.398438"/>
      <use xlink:href="#DejaVuSans-7a" x="167.888672"/>
      <use xlink:href="#DejaVuSans-65" x="220.378906"/>
      <use xlink:href="#DejaVuSans-72" x="281.902344"/>
      <use xlink:href="#DejaVuSans-20" x="323.015625"/>
      <use xlink:href="#DejaVuSans-28" x="354.802734"/>
      <use xlink:href="#DejaVuSans-68" x="393.816406"/>
      <use xlink:href="#DejaVuSans-69" x="457.195312"/>
      <use xlink:href="#DejaVuSans-67" x="484.978516"/>
      <use xlink:href="#DejaVuSans-68" x="548.455078"/>
      <use xlink:href="#DejaVuSans-65" x="611.833984"/>
      <use xlink:href="#DejaVuSans-73" x="673.357422"/>
      <use xlink:href="#DejaVuSans-74" x="725.457031"/>
      <use xlink:href="#DejaVuSans-20" x="764.666016"/>
      <use xlink:href="#DejaVuSans-6d" x="796.453125"/>
      <use xlink:href="#DejaVuSans-65" x="893.865234"/>
      <use xlink:href="#DejaVuSans-64" x="955.388672"/>
      <use xlink:href="#DejaVuSans-69" x="1018.865234"/>
      <use xlink:href="#DejaVuSans-61" x="1046.648438"/>
      <use xlink:href="#DejaVuSans-6e" x="1107.927734"/>
      <use xlink:href="#DejaVuSans-20" x="1171.306641"/>
      <use xlink:href="#DejaVuSans-63" x="1203.09375"/>
      <use xlink:href="#DejaVuSans-6f" x="1258.074219"/>
      <use xlink:href="#DejaVuSans-76" x="1319.255859"/>
      <use xlink:href="#DejaVuSans-65" x="1378.435547"/>
      <use xlink:href="#DejaVuSans-72" x="1439.958984"/>
      <use xlink:href="#DejaVuSans-61" x="1481.072266"/>
      <use xlink:href="#DejaVuSans-67" x="1542.351562"/>
      <use xlink:href="#DejaVuSans-65" x="1605.828125"/>
      <use xlink:href="#DejaVuSans-20" x="1667.351562"/>
      <use xlink:href="#DejaVuSans-6f" x="1699.138672"/>
      <use xlink:href="#DejaVuSans-6e" x="1760.320312"/>
      <use xlink:href="#DejaVuSans-20" x="1823.699219"/>
      <use xlink:href="#DejaVuSans-74" x="1855.486328"/>
      <use xlink:href="#DejaVuSans-68" x="1894.695312"/>
      <use xlink:href="#DejaVuSans-65" x="1958.074219"/>
      <use xlink:href="#DejaVuSans-20" x="2019.597656"/>
      <use xlink:href="#DejaVuSans-6c" x="2051.384766"/>
      <use xlink:href="#DejaVuSans-65" x="2079.167969"/>
      <use xlink:href="#DejaVuSans-66" x="2140.691406"/>
      <use xlink:href="#DejaVuSans-74" x="2174.146484"/>
      <use xlink:href="#DejaVuSans-29" x="2213.355469"/>
     </g>
    </g>
   </g>
   <g id="matplotlib.axis_2">
    <g id="ytick_1">
     <g id="line2d_9">
      <defs>
       <path id="m76b634a232" d="M 0 0 
L -3.5 0 
" style="stroke: #000000; stroke-width: 0.8"/>
      </defs>
      <g>
       <use xlink:href="#m76b634a232" x="100.491517" y="274.886644" style="stroke: #000000; stroke-width: 0.8"/>
      </g>
     </g>
     <g id="text_10">
      <!-- 10600 -->
      <g transform="translate(61.679017 278.685863)scale(0.1 -0.1)">
       <defs>
        <path id="DejaVuSans-36" d="M 2113 2584 
Q 1688 2584 1439 2293 
Q 1191 2003 1191 1497 
Q 1191 994 1439 701 
Q 1688 409 2113 409 
Q 2538 409 2786 701 
Q 3034 994 3034 1497 
Q 3034 2003 2786 2293 
Q 2538 2584 2113 2584 
z
M 3366 4563 
L 3366 3988 
Q 3128 4100 2886 4159 
Q 2644 4219 2406 4219 
Q 1781 4219 1451 3797 
Q 1122 3375 1075 2522 
Q 1259 2794 1537 2939 
Q 1816 3084 2150 3084 
Q 2853 3084 3261 2657 
Q 3669 2231 3669 1497 
Q 3669 778 3244 343 
Q 2819 -91 2113 -91 
Q 1303 -91 875 529 
Q 447 1150 447 2328 
Q 447 3434 972 4092 
Q 1497 4750 2381 4750 
Q 2619 4750 2861 4703 
Q 3103 4656 3366 4563 
z
" transform="scale(0.015625)"/>
       </defs>
       <use xlink:href="#DejaVuSans-31"/>
       <use xlink:href="#DejaVuSans-30" x="63.623047"/>
       <use xlink:href="#DejaVuSans-36" x="127.246094"/>
       <use xlink:href="#DejaVuSans-30" x="190.869141"/>
       <use xlink:href="#DejaVuSans-30" x="254.492188"/>
      </g>
     </g>
    </g>
    <g id="ytick_2">
     <g id="line2d_10">
      <g>
       <use xlink:href="#m76b634a232" x="100.491517" y="231.096353" style="stroke: #000000; stroke-width: 0.8"/>
      </g>
     </g>
     <g id="text_11">
      <!-- 10800 -->
      <g transform="translate(61.679017 234.895572)scale(0.1 -0.1)">
       <defs>
        <path id="DejaVuSans-38" d="M 2034 2216 
Q 1584 2216 1326 1975 
Q 1069 1734 1069 1313 
Q 1069 891 1326 650 
Q 1584 409 2034 409 
Q 2484 409 2743 651 
Q 3003 894 3003 1313 
Q 3003 1734 2745 1975 
Q 2488 2216 2034 2216 
z
M 1403 2484 
Q 997 2584 770 2862 
Q 544 3141 544 3541 
Q 544 4100 942 4425 
Q 1341 4750 2034 4750 
Q 2731 4750 3128 4425 
Q 3525 4100 3525 3541 
Q 3525 3141 3298 2862 
Q 3072 2584 2669 2484 
Q 3125 2378 3379 2068 
Q 3634 1759 3634 1313 
Q 3634 634 3220 271 
Q 2806 -91 2034 -91 
Q 1263 -91 848 271 
Q 434 634 434 1313 
Q 434 1759 690 2068 
Q 947 2378 1403 2484 
z
M 1172 3481 
Q 1172 3119 1398 2916 
Q 1625 2713 2034 2713 
Q 2441 2713 2670 2916 
Q 2900 3119 2900 3481 
Q 2900 3844 2670 4047 
Q 2441 4250 2034 4250 
Q 1625 4250 1398 4047 
Q 1172 3844 1172 3481 
z
" transform="scale(0.015625)"/>
       </defs>
       <use xlink:href="#DejaVuSans-31"/>
       <use xlink:href="#DejaVuSans-30" x="63.623047"/>
       <use xlink:href="#DejaVuSans-38" x="127.246094"/>
       <use xlink:href="#DejaVuSans-30" x="190.869141"/>
       <use xlink:href="#DejaVuSans-30" x="254.492188"/>
      </g>
     </g>
    </g>
    <g id="ytick_3">
     <g id="line2d_11">
      <g>
       <use xlink:href="#m76b634a232" x="100.491517" y="187.306062" style="stroke: #000000; stroke-width: 0.8"/>
      </g>
     </g>
     <g id="text_12">
      <!-- 11000 -->
      <g transform="translate(61.679017 191.105281)scale(0.1 -0.1)">
       <use xlink:href="#DejaVuSans-31"/>
       <use xlink:href="#DejaVuSans-31" x="63.623047"/>
       <use xlink:href="#DejaVuSans-30" x="127.246094"/>
       <use xlink:href="#DejaVuSans-30" x="190.869141"/>
       <use xlink:href="#DejaVuSans-30" x="254.492188"/>
      </g>
     </g>
    </g>
    <g id="ytick_4">
     <g id="line2d_12">
      <g>
       <use xlink:href="#m76b634a232" x="100.491517" y="143.515771" style="stroke: #000000; stroke-width: 0.8"/>
      </g>
     </g>
     <g id="text_13">
      <!-- 11200 -->
      <g transform="translate(61.679017 147.31499)scale(0.1 -0.1)">
       <use xlink:href="#DejaVuSans-31"/>
       <use xlink:href="#DejaVuSans-31" x="63.623047"/>
       <use xlink:href="#DejaVuSans-32" x="127.246094"/>
       <use xlink:href="#DejaVuSans-30" x="190.869141"/>
       <use xlink:href="#DejaVuSans-30" x="254.492188"/>
      </g>
     </g>
    </g>
    <g id="ytick_5">
     <g id="line2d_13">
      <g>
       <use xlink:href="#m76b634a232" x="100.491517" y="99.72548" style="stroke: #000000; stroke-width: 0.8"/>
      </g>
     </g>
     <g id="text_14">
      <!-- 11400 -->
      <g transform="translate(61.679017 103.524699)scale(0.1 -0.1)">
       <defs>
        <path id="DejaVuSans-34" d="M 2419 4116 
L 825 1625 
L 2419 1625 
L 2419 4116 
z
M 2253 4666 
L 3047 4666 
L 3047 1625 
L 3713 1625 
L 3713 1100 
L 3047 1100 
L 3047 0 
L 2419 0 
L 2419 1100 
L 313 1100 
L 313 1709 
L 2253 4666 
z
" transform="scale(0.015625)"/>
       </defs>
       <use xlink:href="#DejaVuSans-31"/>
       <use xlink:href="#DejaVuSans-31" x="63.623047"/>
       <use xlink:href="#DejaVuSans-34" x="127.246094"/>
       <use xlink:href="#DejaVuSans-30" x="190.869141"/>
       <use xlink:href="#DejaVuSans-30" x="254.492188"/>
      </g>
     </g>
    </g>
    <g id="ytick_6">
     <g id="line2d_14">
      <g>
       <use xlink:href="#m76b634a232" x="100.491517" y="55.935189" style="stroke: #000000; stroke-width: 0.8"/>
      </g>
     </g>
     <g id="text_15">
      <!-- 11600 -->
      <g transform="translate(61.679017 59.734407)scale(0.1 -0.1)">
       <use xlink:href="#DejaVuSans-31"/>
       <use xlink:href="#DejaVuSans-31" x="63.623047"/>
       <use xlink:href="#DejaVuSans-36" x="127.246094"/>
       <use xlink:href="#DejaVuSans-30" x="190.869141"/>
       <use xlink:href="#DejaVuSans-30" x="254.492188"/>
      </g>
     </g>
    </g>
    <g id="text_16">
     <!-- Reached region coverage -->
     <g transform="translate(55.59933 219.136625)rotate(-90)scale(0.1 -0.1)">
      <defs>
       <path id="DejaVuSans-52" d="M 2841 2188 
Q 3044 2119 3236 1894 
Q 3428 1669 3622 1275 
L 4263 0 
L 3584 0 
L 2988 1197 
Q 2756 1666 2539 1819 
Q 2322 1972 1947 1972 
L 1259 1972 
L 1259 0 
L 628 0 
L 628 4666 
L 2053 4666 
Q 2853 4666 3247 4331 
Q 3641 3997 3641 3322 
Q 3641 2881 3436 2590 
Q 3231 2300 2841 2188 
z
M 1259 4147 
L 1259 2491 
L 2053 2491 
Q 2509 2491 2742 2702 
Q 2975 2913 2975 3322 
Q 2975 3731 2742 3939 
Q 2509 4147 2053 4147 
L 1259 4147 
z
" transform="scale(0.015625)"/>
      </defs>
      <use xlink:href="#DejaVuSans-52"/>
      <use xlink:href="#DejaVuSans-65" x="64.982422"/>
      <use xlink:href="#DejaVuSans-61" x="126.505859"/>
      <use xlink:href="#DejaVuSans-63" x="187.785156"/>
      <use xlink:href="#DejaVuSans-68" x="242.765625"/>
      <use xlink:href="#DejaVuSans-65" x="306.144531"/>
      <use xlink:href="#DejaVuSans-64" x="367.667969"/>
      <use xlink:href="#DejaVuSans-20" x="431.144531"/>
      <use xlink:href="#DejaVuSans-72" x="462.931641"/>
      <use xlink:href="#DejaVuSans-65" x="501.794922"/>
      <use xlink:href="#DejaVuSans-67" x="563.318359"/>
      <use xlink:href="#DejaVuSans-69" x="626.794922"/>
      <use xlink:href="#DejaVuSans-6f" x="654.578125"/>
      <use xlink:href="#DejaVuSans-6e" x="715.759766"/>
      <use xlink:href="#DejaVuSans-20" x="779.138672"/>
      <use xlink:href="#DejaVuSans-63" x="810.925781"/>
      <use xlink:href="#DejaVuSans-6f" x="865.90625"/>
      <use xlink:href="#DejaVuSans-76" x="927.087891"/>
      <use xlink:href="#DejaVuSans-65" x="986.267578"/>
      <use xlink:href="#DejaVuSans-72" x="1047.791016"/>
      <use xlink:href="#DejaVuSans-61" x="1088.904297"/>
      <use xlink:href="#DejaVuSans-67" x="1150.183594"/>
      <use xlink:href="#DejaVuSans-65" x="1213.660156"/>
     </g>
    </g>
   </g>
   <g id="line2d_15">
    <path d="M 122.811517 195.407266 
L 122.811517 106.950878 
" clip-path="url(#p54f30697f6)" style="fill: none; stroke: #3d3d3d; stroke-width: 1.5; stroke-linecap: square"/>
   </g>
   <g id="line2d_16">
    <path d="M 122.811517 165.301441 
L 122.811517 121.073247 
" clip-path="url(#p54f30697f6)" style="fill: none; stroke: #3d3d3d; stroke-width: 4.5; stroke-linecap: square"/>
   </g>
   <g id="line2d_17">
    <path d="M 167.451517 197.59678 
L 167.451517 192.341945 
" clip-path="url(#p54f30697f6)" style="fill: none; stroke: #3d3d3d; stroke-width: 1.5; stroke-linecap: square"/>
   </g>
   <g id="line2d_18">
    <path d="M 167.451517 197.377829 
L 167.451517 194.750411 
" clip-path="url(#p54f30697f6)" style="fill: none; stroke: #3d3d3d; stroke-width: 4.5; stroke-linecap: square"/>
   </g>
   <g id="line2d_19">
    <path d="M 212.091517 211.609674 
L 212.091517 158.185518 
" clip-path="url(#p54f30697f6)" style="fill: none; stroke: #3d3d3d; stroke-width: 1.5; stroke-linecap: square"/>
   </g>
   <g id="line2d_20">
    <path d="M 212.091517 204.822178 
L 212.091517 178.110101 
" clip-path="url(#p54f30697f6)" style="fill: none; stroke: #3d3d3d; stroke-width: 4.5; stroke-linecap: square"/>
   </g>
   <g id="line2d_21">
    <path d="M 256.731517 212.704431 
L 256.731517 194.093557 
" clip-path="url(#p54f30697f6)" style="fill: none; stroke: #3d3d3d; stroke-width: 1.5; stroke-linecap: square"/>
   </g>
   <g id="line2d_22">
    <path d="M 256.731517 206.026411 
L 256.731517 196.720975 
" clip-path="url(#p54f30697f6)" style="fill: none; stroke: #3d3d3d; stroke-width: 4.5; stroke-linecap: square"/>
   </g>
   <g id="line2d_23">
    <path d="M 301.371517 227.155227 
L 301.371517 182.708081 
" clip-path="url(#p54f30697f6)" style="fill: none; stroke: #3d3d3d; stroke-width: 1.5; stroke-linecap: square"/>
   </g>
   <g id="line2d_24">
    <path d="M 301.371517 215.222373 
L 301.371517 192.9988 
" clip-path="url(#p54f30697f6)" style="fill: none; stroke: #3d3d3d; stroke-width: 4.5; stroke-linecap: square"/>
   </g>
   <g id="line2d_25">
    <path d="M 346.011517 215.769751 
L 346.011517 145.486334 
" clip-path="url(#p54f30697f6)" style="fill: none; stroke: #3d3d3d; stroke-width: 1.5; stroke-linecap: square"/>
   </g>
   <g id="line2d_26">
    <path d="M 346.011517 210.077013 
L 346.011517 174.935305 
" clip-path="url(#p54f30697f6)" style="fill: none; stroke: #3d3d3d; stroke-width: 4.5; stroke-linecap: square"/>
   </g>
   <g id="line2d_27">
    <path d="M 390.651517 207.449596 
L 390.651517 204.165324 
" clip-path="url(#p54f30697f6)" style="fill: none; stroke: #3d3d3d; stroke-width: 1.5; stroke-linecap: square"/>
   </g>
   <g id="line2d_28">
    <path d="M 390.651517 206.902217 
L 390.651517 205.260081 
" clip-path="url(#p54f30697f6)" style="fill: none; stroke: #3d3d3d; stroke-width: 4.5; stroke-linecap: square"/>
   </g>
   <g id="line2d_29">
    <path d="M 435.291517 216.864508 
L 435.291517 203.727421 
" clip-path="url(#p54f30697f6)" style="fill: none; stroke: #3d3d3d; stroke-width: 1.5; stroke-linecap: square"/>
   </g>
   <g id="line2d_30">
    <path d="M 435.291517 213.580237 
L 435.291517 207.011693 
" clip-path="url(#p54f30697f6)" style="fill: none; stroke: #3d3d3d; stroke-width: 4.5; stroke-linecap: square"/>
   </g>
   <g id="patch_3">
    <path d="M 100.491517 274.886644 
L 100.491517 55.935189 
" style="fill: none; stroke: #000000; stroke-width: 0.8; stroke-linejoin: miter; stroke-linecap: square"/>
   </g>
   <g id="patch_4">
    <path d="M 122.811517 288.430125 
L 435.291517 288.430125 
" style="fill: none; stroke: #000000; stroke-width: 0.8; stroke-linejoin: miter; stroke-linecap: square"/>
   </g>
   <g id="PathCollection_1">
    <defs>
     <path id="mefe72527f8" d="M 0 1.5 
C 0.397805 1.5 0.77937 1.341951 1.06066 1.06066 
C 1.341951 0.77937 1.5 0.397805 1.5 0 
C 1.5 -0.397805 1.341951 -0.77937 1.06066 -1.06066 
C 0.77937 -1.341951 0.397805 -1.5 0 -1.5 
C -0.397805 -1.5 -0.77937 -1.341951 -1.06066 -1.06066 
C -1.341951 -0.77937 -1.5 -0.397805 -1.5 0 
C -1.5 0.397805 -1.341951 0.77937 -1.06066 1.06066 
C -0.77937 1.341951 -0.397805 1.5 0 1.5 
z
" style="stroke: #3d3d3d"/>
    </defs>
    <g clip-path="url(#p54f30697f6)">
     <use xlink:href="#mefe72527f8" x="122.811517" y="135.195616" style="fill: #ffffff; stroke: #3d3d3d"/>
    </g>
   </g>
   <g id="PathCollection_2">
    <g clip-path="url(#p54f30697f6)">
     <use xlink:href="#mefe72527f8" x="167.451517" y="197.158877" style="fill: #ffffff; stroke: #3d3d3d"/>
    </g>
   </g>
   <g id="PathCollection_3">
    <g clip-path="url(#p54f30697f6)">
     <use xlink:href="#mefe72527f8" x="212.091517" y="198.034683" style="fill: #ffffff; stroke: #3d3d3d"/>
    </g>
   </g>
   <g id="PathCollection_4">
    <g clip-path="url(#p54f30697f6)">
     <use xlink:href="#mefe72527f8" x="256.731517" y="199.348392" style="fill: #ffffff; stroke: #3d3d3d"/>
    </g>
   </g>
   <g id="PathCollection_5">
    <g clip-path="url(#p54f30697f6)">
     <use xlink:href="#mefe72527f8" x="301.371517" y="203.289518" style="fill: #ffffff; stroke: #3d3d3d"/>
    </g>
   </g>
   <g id="PathCollection_6">
    <g clip-path="url(#p54f30697f6)">
     <use xlink:href="#mefe72527f8" x="346.011517" y="204.384276" style="fill: #ffffff; stroke: #3d3d3d"/>
    </g>
   </g>
   <g id="PathCollection_7">
    <g clip-path="url(#p54f30697f6)">
     <use xlink:href="#mefe72527f8" x="390.651517" y="206.354839" style="fill: #ffffff; stroke: #3d3d3d"/>
    </g>
   </g>
   <g id="PathCollection_8">
    <g clip-path="url(#p54f30697f6)">
     <use xlink:href="#mefe72527f8" x="435.291517" y="210.295965" style="fill: #ffffff; stroke: #3d3d3d"/>
    </g>
   </g>
   <g id="text_17">
    <!-- harfbuzz-1.3.2 (4h:15m, 2 trials/fuzzer) -->
    <g transform="translate(161.057767 16.318125)scale(0.12 -0.12)">
     <defs>
      <path id="DejaVuSans-62" d="M 3116 1747 
Q 3116 2381 2855 2742 
Q 2594 3103 2138 3103 
Q 1681 3103 1420 2742 
Q 1159 2381 1159 1747 
Q 1159 1113 1420 752 
Q 1681 391 2138 391 
Q 2594 391 2855 752 
Q 3116 1113 3116 1747 
z
M 1159 2969 
Q 1341 3281 1617 3432 
Q 1894 3584 2278 3584 
Q 2916 3584 3314 3078 
Q 3713 2572 3713 1747 
Q 3713 922 3314 415 
Q 2916 -91 2278 -91 
Q 1894 -91 1617 61 
Q 1341 213 1159 525 
L 1159 0 
L 581 0 
L 581 4863 
L 1159 4863 
L 1159 2969 
z
" transform="scale(0.015625)"/>
      <path id="DejaVuSans-2d" d="M 313 2009 
L 1997 2009 
L 1997 1497 
L 313 1497 
L 313 2009 
z
" transform="scale(0.015625)"/>
      <path id="DejaVuSans-2e" d="M 684 794 
L 1344 794 
L 1344 0 
L 684 0 
L 684 794 
z
" transform="scale(0.015625)"/>
      <path id="DejaVuSans-3a" d="M 750 794 
L 1409 794 
L 1409 0 
L 750 0 
L 750 794 
z
M 750 3309 
L 1409 3309 
L 1409 2516 
L 750 2516 
L 750 3309 
z
" transform="scale(0.015625)"/>
      <path id="DejaVuSans-35" d="M 691 4666 
L 3169 4666 
L 3169 4134 
L 1269 4134 
L 1269 2991 
Q 1406 3038 1543 3061 
Q 1681 3084 1819 3084 
Q 2600 3084 3056 2656 
Q 3513 2228 3513 1497 
Q 3513 744 3044 326 
Q 2575 -91 1722 -91 
Q 1428 -91 1123 -41 
Q 819 9 494 109 
L 494 744 
Q 775 591 1075 516 
Q 1375 441 1709 441 
Q 2250 441 2565 725 
Q 2881 1009 2881 1497 
Q 2881 1984 2565 2268 
Q 2250 2553 1709 2553 
Q 1456 2553 1204 2497 
Q 953 2441 691 2322 
L 691 4666 
z
" transform="scale(0.015625)"/>
      <path id="DejaVuSans-2c" d="M 750 794 
L 1409 794 
L 1409 256 
L 897 -744 
L 494 -744 
L 750 256 
L 750 794 
z
" transform="scale(0.015625)"/>
      <path id="DejaVuSans-2f" d="M 1625 4666 
L 2156 4666 
L 531 -594 
L 0 -594 
L 1625 4666 
z
" transform="scale(0.015625)"/>
     </defs>
     <use xlink:href="#DejaVuSans-68"/>
     <use xlink:href="#DejaVuSans-61" x="63.378906"/>
     <use xlink:href="#DejaVuSans-72" x="124.658203"/>
     <use xlink:href="#DejaVuSans-66" x="165.771484"/>
     <use xlink:href="#DejaVuSans-62" x="200.976562"/>
     <use xlink:href="#DejaVuSans-75" x="264.453125"/>
     <use xlink:href="#DejaVuSans-7a" x="327.832031"/>
     <use xlink:href="#DejaVuSans-7a" x="380.322266"/>
     <use xlink:href="#DejaVuSans-2d" x="432.8125"/>
     <use xlink:href="#DejaVuSans-31" x="468.896484"/>
     <use xlink:href="#DejaVuSans-2e" x="532.519531"/>
     <use xlink:href="#DejaVuSans-33" x="564.306641"/>
     <use xlink:href="#DejaVuSans-2e" x="627.929688"/>
     <use xlink:href="#DejaVuSans-32" x="659.716797"/>
     <use xlink:href="#DejaVuSans-20" x="723.339844"/>
     <use xlink:href="#DejaVuSans-28" x="755.126953"/>
     <use xlink:href="#DejaVuSans-34" x="794.140625"/>
     <use xlink:href="#DejaVuSans-68" x="857.763672"/>
     <use xlink:href="#DejaVuSans-3a" x="921.142578"/>
     <use xlink:href="#DejaVuSans-31" x="954.833984"/>
     <use xlink:href="#DejaVuSans-35" x="1018.457031"/>
     <use xlink:href="#DejaVuSans-6d" x="1082.080078"/>
     <use xlink:href="#DejaVuSans-2c" x="1179.492188"/>
     <use xlink:href="#DejaVuSans-20" x="1211.279297"/>
     <use xlink:href="#DejaVuSans-32" x="1243.066406"/>
     <use xlink:href="#DejaVuSans-20" x="1306.689453"/>
     <use xlink:href="#DejaVuSans-74" x="1338.476562"/>
     <use xlink:href="#DejaVuSans-72" x="1377.685547"/>
     <use xlink:href="#DejaVuSans-69" x="1418.798828"/>
     <use xlink:href="#DejaVuSans-61" x="1446.582031"/>
     <use xlink:href="#DejaVuSans-6c" x="1507.861328"/>
     <use xlink:href="#DejaVuSans-73" x="1535.644531"/>
     <use xlink:href="#DejaVuSans-2f" x="1587.744141"/>
     <use xlink:href="#DejaVuSans-66" x="1621.435547"/>
     <use xlink:href="#DejaVuSans-75" x="1656.640625"/>
     <use xlink:href="#DejaVuSans-7a" x="1720.019531"/>
     <use xlink:href="#DejaVuSans-7a" x="1772.509766"/>
     <use xlink:href="#DejaVuSans-65" x="1825"/>
     <use xlink:href="#DejaVuSans-72" x="1886.523438"/>
     <use xlink:href="#DejaVuSans-29" x="1927.636719"/>
    </g>
   </g>
  </g>
 </g>
 <defs>
  <clipPath id="p54f30697f6">
   <rect x="100.491517" y="22.318125" width="357.12" height="266.112"/>
  </clipPath>
 </defs>
</svg>
