<?xml version="1.0" encoding="utf-8" standalone="no"?>
<!DOCTYPE svg PUBLIC "-//W3C//DTD SVG 1.1//EN"
  "http://www.w3.org/Graphics/SVG/1.1/DTD/svg11.dtd">
<svg xmlns:xlink="http://www.w3.org/1999/xlink" width="435.910275pt" height="393.011865pt" viewBox="0 0 435.910275 393.011865" xmlns="http://www.w3.org/2000/svg" version="1.1">
 <metadata>
  <rdf:RDF xmlns:dc="http://purl.org/dc/elements/1.1/" xmlns:cc="http://creativecommons.org/ns#" xmlns:rdf="http://www.w3.org/1999/02/22-rdf-syntax-ns#">
   <cc:Work>
    <dc:type rdf:resource="http://purl.org/dc/dcmitype/StillImage"/>
    <dc:date>2022-06-05T20:12:51.165750</dc:date>
    <dc:format>image/svg+xml</dc:format>
    <dc:creator>
     <cc:Agent>
      <dc:title>Matplotlib v3.5.1, https://matplotlib.org/</dc:title>
     </cc:Agent>
    </dc:creator>
   </cc:Work>
  </rdf:RDF>
 </metadata>
 <defs>
  <style type="text/css">*{stroke-linejoin: round; stroke-linecap: butt}</style>
 </defs>
 <g id="figure_1">
  <g id="patch_1">
   <path d="M 0 393.011865 
L 435.910275 393.011865 
L 435.910275 -0 
L 0 -0 
z
" style="fill: #ffffff"/>
  </g>
  <g id="axes_1">
   <g id="patch_2">
    <path d="M 71.590275 288.430125 
L 428.710275 288.430125 
L 428.710275 22.318125 
L 71.590275 22.318125 
z
" style="fill: #ffffff"/>
   </g>
   <g id="PolyCollection_1">
    <defs>
     <path id="mfe7dcb83b4" d="M 91.471485 -130.668839 
L 91.389064 -130.668839 
L 91.38191 -132.952628 
L 91.37389 -135.236418 
L 91.364976 -137.520208 
L 91.355155 -139.803997 
L 91.344429 -142.087787 
L 91.332821 -144.371577 
L 91.320374 -146.655366 
L 91.307157 -148.939156 
L 91.293259 -151.222946 
L 91.278795 -153.506735 
L 91.263902 -155.790525 
L 91.248737 -158.074315 
L 91.233478 -160.358104 
L 91.218315 -162.641894 
L 91.203447 -164.925684 
L 91.189077 -167.209473 
L 91.175406 -169.493263 
L 91.162623 -171.777053 
L 91.1509 -174.060842 
L 91.140385 -176.344632 
L 91.131192 -178.628422 
L 91.123398 -180.912211 
L 91.117033 -183.196001 
L 91.112079 -185.479791 
L 91.108462 -187.76358 
L 91.106056 -190.04737 
L 91.104678 -192.33116 
L 91.104088 -194.614949 
L 91.103998 -196.898739 
L 91.104073 -199.182529 
L 91.103938 -201.466318 
L 91.103184 -203.750108 
L 91.101382 -206.033898 
L 91.098092 -208.317687 
L 91.092871 -210.601477 
L 91.085291 -212.885267 
L 91.074945 -215.169056 
L 91.061463 -217.452846 
L 91.044524 -219.736636 
L 91.023866 -222.020425 
L 90.999297 -224.304215 
L 90.970701 -226.588005 
L 90.938049 -228.871794 
L 90.901405 -231.155584 
L 90.860922 -233.439374 
L 90.816854 -235.723163 
L 90.769545 -238.006953 
L 90.719432 -240.290743 
L 90.667035 -242.574532 
L 90.61295 -244.858322 
L 90.55784 -247.142112 
L 90.502419 -249.425901 
L 90.44744 -251.709691 
L 90.393681 -253.993481 
L 90.341924 -256.27727 
L 90.292944 -258.56106 
L 90.247486 -260.84485 
L 90.206255 -263.128639 
L 90.169894 -265.412429 
L 90.138977 -267.696219 
L 90.113992 -269.980008 
L 90.095332 -272.263798 
L 90.083288 -274.547588 
L 90.078044 -276.831377 
L 90.079677 -279.115167 
L 90.088151 -281.398957 
L 90.103326 -283.682746 
L 90.124961 -285.966536 
L 90.152723 -288.250326 
L 90.186193 -290.534115 
L 90.22488 -292.817905 
L 90.268234 -295.101695 
L 90.315655 -297.385484 
L 90.366511 -299.669274 
L 90.420147 -301.953064 
L 90.475905 -304.236853 
L 90.533128 -306.520643 
L 90.591178 -308.804433 
L 90.649447 -311.088222 
L 90.707362 -313.372012 
L 90.764395 -315.655802 
L 90.82007 -317.939591 
L 90.87397 -320.223381 
L 90.925733 -322.507171 
L 90.975061 -324.79096 
L 91.021717 -327.07475 
L 91.065522 -329.35854 
L 91.106358 -331.642329 
L 91.144157 -333.926119 
L 91.178904 -336.209909 
L 91.210626 -338.493698 
L 91.239391 -340.777488 
L 91.265299 -343.061278 
L 91.288479 -345.345067 
L 91.30908 -347.628857 
L 91.327269 -349.912647 
L 91.343222 -352.196436 
L 91.357122 -354.480226 
L 91.369154 -356.764016 
L 91.491396 -356.764016 
L 91.491396 -356.764016 
L 91.503428 -354.480226 
L 91.517328 -352.196436 
L 91.533281 -349.912647 
L 91.551469 -347.628857 
L 91.57207 -345.345067 
L 91.59525 -343.061278 
L 91.621158 -340.777488 
L 91.649923 -338.493698 
L 91.681646 -336.209909 
L 91.716392 -333.926119 
L 91.754192 -331.642329 
L 91.795027 -329.35854 
L 91.838833 -327.07475 
L 91.885489 -324.79096 
L 91.934817 -322.507171 
L 91.98658 -320.223381 
L 92.040479 -317.939591 
L 92.096155 -315.655802 
L 92.153188 -313.372012 
L 92.211102 -311.088222 
L 92.269371 -308.804433 
L 92.327422 -306.520643 
L 92.384645 -304.236853 
L 92.440402 -301.953064 
L 92.494039 -299.669274 
L 92.544895 -297.385484 
L 92.592316 -295.101695 
L 92.635669 -292.817905 
L 92.674357 -290.534115 
L 92.707827 -288.250326 
L 92.735588 -285.966536 
L 92.757224 -283.682746 
L 92.772399 -281.398957 
L 92.780873 -279.115167 
L 92.782505 -276.831377 
L 92.777262 -274.547588 
L 92.765218 -272.263798 
L 92.746557 -269.980008 
L 92.721572 -267.696219 
L 92.690655 -265.412429 
L 92.654295 -263.128639 
L 92.613063 -260.84485 
L 92.567606 -258.56106 
L 92.518625 -256.27727 
L 92.466869 -253.993481 
L 92.413109 -251.709691 
L 92.358131 -249.425901 
L 92.30271 -247.142112 
L 92.247599 -244.858322 
L 92.193515 -242.574532 
L 92.141118 -240.290743 
L 92.091005 -238.006953 
L 92.043696 -235.723163 
L 91.999627 -233.439374 
L 91.959145 -231.155584 
L 91.9225 -228.871794 
L 91.889849 -226.588005 
L 91.861253 -224.304215 
L 91.836683 -222.020425 
L 91.816025 -219.736636 
L 91.799087 -217.452846 
L 91.785605 -215.169056 
L 91.775259 -212.885267 
L 91.767678 -210.601477 
L 91.762458 -208.317687 
L 91.759167 -206.033898 
L 91.757366 -203.750108 
L 91.756612 -201.466318 
L 91.756476 -199.182529 
L 91.756551 -196.898739 
L 91.756462 -194.614949 
L 91.755872 -192.33116 
L 91.754493 -190.04737 
L 91.752087 -187.76358 
L 91.748471 -185.479791 
L 91.743516 -183.196001 
L 91.737151 -180.912211 
L 91.729357 -178.628422 
L 91.720165 -176.344632 
L 91.70965 -174.060842 
L 91.697927 -171.777053 
L 91.685144 -169.493263 
L 91.671473 -167.209473 
L 91.657103 -164.925684 
L 91.642235 -162.641894 
L 91.627071 -160.358104 
L 91.611812 -158.074315 
L 91.596648 -155.790525 
L 91.581754 -153.506735 
L 91.56729 -151.222946 
L 91.553392 -148.939156 
L 91.540175 -146.655366 
L 91.527729 -144.371577 
L 91.516121 -142.087787 
L 91.505395 -139.803997 
L 91.495574 -137.520208 
L 91.48666 -135.236418 
L 91.47864 -132.952628 
L 91.471485 -130.668839 
z
" style="stroke: #3d3d3d; stroke-width: 1.5"/>
    </defs>
    <g clip-path="url(#p873048885f)">
     <use xlink:href="#mfe7dcb83b4" x="0" y="393.011865" style="fill: #d684bd; stroke: #3d3d3d; stroke-width: 1.5"/>
    </g>
   </g>
   <g id="PolyCollection_2">
    <defs>
     <path id="m4dda93427f" d="M 131.329493 -237.984659 
L 130.891056 -237.984659 
L 130.85367 -238.866929 
L 130.811422 -239.749198 
L 130.763976 -240.631468 
L 130.71102 -241.513737 
L 130.652289 -242.396006 
L 130.587568 -243.278276 
L 130.51671 -244.160545 
L 130.439644 -245.042815 
L 130.356393 -245.925084 
L 130.267079 -246.807353 
L 130.171936 -247.689623 
L 130.071319 -248.571892 
L 129.965707 -249.454162 
L 129.855708 -250.336431 
L 129.742058 -251.2187 
L 129.625617 -252.10097 
L 129.507363 -252.983239 
L 129.38838 -253.865509 
L 129.269845 -254.747778 
L 129.153004 -255.630047 
L 129.039156 -256.512317 
L 128.929626 -257.394586 
L 128.825736 -258.276856 
L 128.728778 -259.159125 
L 128.639986 -260.041394 
L 128.560501 -260.923664 
L 128.491348 -261.805933 
L 128.433405 -262.688203 
L 128.387381 -263.570472 
L 128.353795 -264.452741 
L 128.332961 -265.335011 
L 128.324975 -266.21728 
L 128.329709 -267.09955 
L 128.346815 -267.981819 
L 128.375725 -268.864088 
L 128.41567 -269.746358 
L 128.465688 -270.628627 
L 128.524653 -271.510897 
L 128.591299 -272.393166 
L 128.66425 -273.275435 
L 128.742051 -274.157705 
L 128.823204 -275.039974 
L 128.906204 -275.922244 
L 128.989569 -276.804513 
L 129.071879 -277.686782 
L 129.151806 -278.569052 
L 129.228141 -279.451321 
L 129.299818 -280.33359 
L 129.365938 -281.21586 
L 129.425785 -282.098129 
L 129.478831 -282.980399 
L 129.524749 -283.862668 
L 129.56341 -284.744937 
L 129.59488 -285.627207 
L 129.61941 -286.509476 
L 129.637421 -287.391746 
L 129.649491 -288.274015 
L 129.656331 -289.156284 
L 129.65876 -290.038554 
L 129.657687 -290.920823 
L 129.654074 -291.803093 
L 129.648917 -292.685362 
L 129.643217 -293.567631 
L 129.637953 -294.449901 
L 129.634056 -295.33217 
L 129.63239 -296.21444 
L 129.633734 -297.096709 
L 129.63876 -297.978978 
L 129.648023 -298.861248 
L 129.661954 -299.743517 
L 129.680851 -300.625787 
L 129.704879 -301.508056 
L 129.734073 -302.390325 
L 129.768342 -303.272595 
L 129.807477 -304.154864 
L 129.851163 -305.037134 
L 129.898994 -305.919403 
L 129.950486 -306.801672 
L 130.005092 -307.683942 
L 130.062223 -308.566211 
L 130.121262 -309.448481 
L 130.18158 -310.33075 
L 130.242553 -311.213019 
L 130.303577 -312.095289 
L 130.364077 -312.977558 
L 130.423522 -313.859828 
L 130.481431 -314.742097 
L 130.53738 -315.624366 
L 130.591006 -316.506636 
L 130.642011 -317.388905 
L 130.690162 -318.271175 
L 130.735289 -319.153444 
L 130.777282 -320.035713 
L 130.816086 -320.917983 
L 130.851702 -321.800252 
L 130.884171 -322.682522 
L 130.913578 -323.564791 
L 130.940039 -324.44706 
L 130.963698 -325.32933 
L 131.256852 -325.32933 
L 131.256852 -325.32933 
L 131.28051 -324.44706 
L 131.306971 -323.564791 
L 131.336378 -322.682522 
L 131.368848 -321.800252 
L 131.404463 -320.917983 
L 131.443268 -320.035713 
L 131.48526 -319.153444 
L 131.530387 -318.271175 
L 131.578538 -317.388905 
L 131.629544 -316.506636 
L 131.68317 -315.624366 
L 131.739118 -314.742097 
L 131.797027 -313.859828 
L 131.856472 -312.977558 
L 131.916972 -312.095289 
L 131.977996 -311.213019 
L 132.03897 -310.33075 
L 132.099288 -309.448481 
L 132.158327 -308.566211 
L 132.215458 -307.683942 
L 132.270064 -306.801672 
L 132.321555 -305.919403 
L 132.369386 -305.037134 
L 132.413073 -304.154864 
L 132.452208 -303.272595 
L 132.486476 -302.390325 
L 132.515671 -301.508056 
L 132.539699 -300.625787 
L 132.558596 -299.743517 
L 132.572527 -298.861248 
L 132.58179 -297.978978 
L 132.586815 -297.096709 
L 132.588159 -296.21444 
L 132.586494 -295.33217 
L 132.582597 -294.449901 
L 132.577332 -293.567631 
L 132.571632 -292.685362 
L 132.566476 -291.803093 
L 132.562863 -290.920823 
L 132.561789 -290.038554 
L 132.564219 -289.156284 
L 132.571058 -288.274015 
L 132.583128 -287.391746 
L 132.60114 -286.509476 
L 132.625669 -285.627207 
L 132.657139 -284.744937 
L 132.695801 -283.862668 
L 132.741719 -282.980399 
L 132.794765 -282.098129 
L 132.854611 -281.21586 
L 132.920732 -280.33359 
L 132.992409 -279.451321 
L 133.068743 -278.569052 
L 133.14867 -277.686782 
L 133.230981 -276.804513 
L 133.314346 -275.922244 
L 133.397345 -275.039974 
L 133.478498 -274.157705 
L 133.556299 -273.275435 
L 133.62925 -272.393166 
L 133.695897 -271.510897 
L 133.754862 -270.628627 
L 133.80488 -269.746358 
L 133.844824 -268.864088 
L 133.873735 -267.981819 
L 133.89084 -267.09955 
L 133.895575 -266.21728 
L 133.887588 -265.335011 
L 133.866754 -264.452741 
L 133.833168 -263.570472 
L 133.787145 -262.688203 
L 133.729201 -261.805933 
L 133.660048 -260.923664 
L 133.580563 -260.041394 
L 133.491771 -259.159125 
L 133.394814 -258.276856 
L 133.290924 -257.394586 
L 133.181393 -256.512317 
L 133.067546 -255.630047 
L 132.950705 -254.747778 
L 132.832169 -253.865509 
L 132.713187 -252.983239 
L 132.594933 -252.10097 
L 132.478492 -251.2187 
L 132.364841 -250.336431 
L 132.254842 -249.454162 
L 132.14923 -248.571892 
L 132.048613 -247.689623 
L 131.95347 -246.807353 
L 131.864156 -245.925084 
L 131.780905 -245.042815 
L 131.70384 -244.160545 
L 131.632981 -243.278276 
L 131.56826 -242.396006 
L 131.509529 -241.513737 
L 131.456574 -240.631468 
L 131.409127 -239.749198 
L 131.36688 -238.866929 
L 131.329493 -237.984659 
z
" style="stroke: #3d3d3d; stroke-width: 1.5"/>
    </defs>
    <g clip-path="url(#p873048885f)">
     <use xlink:href="#m4dda93427f" x="0" y="393.011865" style="fill: #3a923a; stroke: #3d3d3d; stroke-width: 1.5"/>
    </g>
   </g>
   <g id="PolyCollection_3">
    <defs>
     <path id="m00850385d7" d="M 170.835675 -135.084076 
L 170.744875 -135.084076 
L 170.737006 -137.153798 
L 170.728189 -139.223519 
L 170.718391 -141.293241 
L 170.707597 -143.362962 
L 170.695813 -145.432684 
L 170.683064 -147.502405 
L 170.669399 -149.572127 
L 170.654892 -151.641848 
L 170.639646 -153.71157 
L 170.623787 -155.781291 
L 170.607471 -157.851013 
L 170.590874 -159.920734 
L 170.574195 -161.990456 
L 170.55765 -164.060177 
L 170.541466 -166.129899 
L 170.525877 -168.19962 
L 170.511113 -170.269342 
L 170.497398 -172.339063 
L 170.484937 -174.408785 
L 170.473913 -176.478506 
L 170.464472 -178.548228 
L 170.456723 -180.617949 
L 170.450728 -182.687671 
L 170.446494 -184.757392 
L 170.443973 -186.827114 
L 170.443056 -188.896835 
L 170.443573 -190.966557 
L 170.44529 -193.036278 
L 170.447916 -195.106 
L 170.451103 -197.175721 
L 170.454453 -199.245443 
L 170.457524 -201.315164 
L 170.459837 -203.384886 
L 170.460889 -205.454607 
L 170.46016 -207.524329 
L 170.457129 -209.59405 
L 170.451281 -211.663772 
L 170.442124 -213.733493 
L 170.429201 -215.803215 
L 170.412103 -217.872936 
L 170.390482 -219.942658 
L 170.364061 -222.012379 
L 170.332652 -224.082101 
L 170.296158 -226.151822 
L 170.25459 -228.221544 
L 170.208068 -230.291265 
L 170.156828 -232.360987 
L 170.101224 -234.430708 
L 170.041729 -236.50043 
L 169.978931 -238.570151 
L 169.913521 -240.639873 
L 169.846291 -242.709594 
L 169.778116 -244.779316 
L 169.709938 -246.849037 
L 169.642748 -248.918759 
L 169.577565 -250.98848 
L 169.515411 -253.058202 
L 169.457291 -255.127923 
L 169.404166 -257.197645 
L 169.356929 -259.267366 
L 169.316387 -261.337088 
L 169.283235 -263.406809 
L 169.258045 -265.476531 
L 169.241247 -267.546252 
L 169.233124 -269.615974 
L 169.233802 -271.685695 
L 169.243251 -273.755417 
L 169.26129 -275.825138 
L 169.28759 -277.89486 
L 169.321689 -279.964581 
L 169.363005 -282.034303 
L 169.410853 -284.104024 
L 169.464467 -286.173746 
L 169.523015 -288.243467 
L 169.585626 -290.313189 
L 169.65141 -292.38291 
L 169.719474 -294.452632 
L 169.788948 -296.522353 
L 169.858997 -298.592075 
L 169.928836 -300.661796 
L 169.997747 -302.731518 
L 170.065084 -304.801239 
L 170.13028 -306.870961 
L 170.192856 -308.940682 
L 170.252416 -311.010404 
L 170.308652 -313.080125 
L 170.361339 -315.149847 
L 170.410329 -317.219568 
L 170.455548 -319.28929 
L 170.496988 -321.359011 
L 170.534698 -323.428733 
L 170.568776 -325.498454 
L 170.599363 -327.568176 
L 170.626632 -329.637897 
L 170.650781 -331.707619 
L 170.672026 -333.77734 
L 170.690595 -335.847062 
L 170.706718 -337.916783 
L 170.720628 -339.986505 
L 170.859922 -339.986505 
L 170.859922 -339.986505 
L 170.873832 -337.916783 
L 170.889955 -335.847062 
L 170.908523 -333.77734 
L 170.929769 -331.707619 
L 170.953918 -329.637897 
L 170.981187 -327.568176 
L 171.011773 -325.498454 
L 171.045852 -323.428733 
L 171.083561 -321.359011 
L 171.125001 -319.28929 
L 171.170221 -317.219568 
L 171.219211 -315.149847 
L 171.271897 -313.080125 
L 171.328134 -311.010404 
L 171.387694 -308.940682 
L 171.450269 -306.870961 
L 171.515466 -304.801239 
L 171.582802 -302.731518 
L 171.651713 -300.661796 
L 171.721553 -298.592075 
L 171.791601 -296.522353 
L 171.861075 -294.452632 
L 171.92914 -292.38291 
L 171.994923 -290.313189 
L 172.057535 -288.243467 
L 172.116083 -286.173746 
L 172.169696 -284.104024 
L 172.217545 -282.034303 
L 172.258861 -279.964581 
L 172.29296 -277.89486 
L 172.31926 -275.825138 
L 172.337298 -273.755417 
L 172.346748 -271.685695 
L 172.347425 -269.615974 
L 172.339302 -267.546252 
L 172.322505 -265.476531 
L 172.297314 -263.406809 
L 172.264163 -261.337088 
L 172.22362 -259.267366 
L 172.176384 -257.197645 
L 172.123258 -255.127923 
L 172.065138 -253.058202 
L 172.002985 -250.98848 
L 171.937801 -248.918759 
L 171.870611 -246.849037 
L 171.802434 -244.779316 
L 171.734258 -242.709594 
L 171.667029 -240.639873 
L 171.601619 -238.570151 
L 171.53882 -236.50043 
L 171.479326 -234.430708 
L 171.423722 -232.360987 
L 171.372482 -230.291265 
L 171.325959 -228.221544 
L 171.284391 -226.151822 
L 171.247898 -224.082101 
L 171.216488 -222.012379 
L 171.190068 -219.942658 
L 171.168446 -217.872936 
L 171.151348 -215.803215 
L 171.138425 -213.733493 
L 171.129269 -211.663772 
L 171.123421 -209.59405 
L 171.120389 -207.524329 
L 171.119661 -205.454607 
L 171.120713 -203.384886 
L 171.123026 -201.315164 
L 171.126096 -199.245443 
L 171.129446 -197.175721 
L 171.132634 -195.106 
L 171.13526 -193.036278 
L 171.136977 -190.966557 
L 171.137493 -188.896835 
L 171.136576 -186.827114 
L 171.134055 -184.757392 
L 171.129822 -182.687671 
L 171.123826 -180.617949 
L 171.116078 -178.548228 
L 171.106637 -176.478506 
L 171.095612 -174.408785 
L 171.083152 -172.339063 
L 171.069437 -170.269342 
L 171.054673 -168.19962 
L 171.039083 -166.129899 
L 171.0229 -164.060177 
L 171.006355 -161.990456 
L 170.989676 -159.920734 
L 170.973079 -157.851013 
L 170.956762 -155.781291 
L 170.940904 -153.71157 
L 170.925657 -151.641848 
L 170.911151 -149.572127 
L 170.897485 -147.502405 
L 170.884736 -145.432684 
L 170.872952 -143.362962 
L 170.862159 -141.293241 
L 170.852361 -139.223519 
L 170.843543 -137.153798 
L 170.835675 -135.084076 
z
" style="stroke: #3d3d3d; stroke-width: 1.5"/>
    </defs>
    <g clip-path="url(#p873048885f)">
     <use xlink:href="#m00850385d7" x="0" y="393.011865" style="fill: #3274a1; stroke: #3d3d3d; stroke-width: 1.5"/>
    </g>
   </g>
   <g id="PolyCollection_4">
    <defs>
     <path id="mdeb38d2c8b" d="M 210.521035 -141.128528 
L 210.419514 -141.128528 
L 210.411241 -142.875379 
L 210.402024 -144.62223 
L 210.391835 -146.369081 
L 210.380657 -148.115932 
L 210.36849 -149.862784 
L 210.355355 -151.609635 
L 210.34129 -153.356486 
L 210.326358 -155.103337 
L 210.310645 -156.850188 
L 210.294261 -158.59704 
L 210.277338 -160.343891 
L 210.260035 -162.090742 
L 210.242528 -163.837593 
L 210.225014 -165.584444 
L 210.207702 -167.331296 
L 210.190816 -169.078147 
L 210.174581 -170.824998 
L 210.159226 -172.571849 
L 210.14497 -174.318701 
L 210.132022 -176.065552 
L 210.120572 -177.812403 
L 210.110784 -179.559254 
L 210.10279 -181.306105 
L 210.096686 -183.052957 
L 210.092525 -184.799808 
L 210.090316 -186.546659 
L 210.090017 -188.29351 
L 210.091536 -190.040361 
L 210.094726 -191.787213 
L 210.099392 -193.534064 
L 210.105285 -195.280915 
L 210.112108 -197.027766 
L 210.119519 -198.774617 
L 210.127132 -200.521469 
L 210.134528 -202.26832 
L 210.141254 -204.015171 
L 210.146835 -205.762022 
L 210.150777 -207.508873 
L 210.152575 -209.255725 
L 210.151724 -211.002576 
L 210.147724 -212.749427 
L 210.140089 -214.496278 
L 210.128361 -216.243129 
L 210.112115 -217.989981 
L 210.090969 -219.736832 
L 210.064599 -221.483683 
L 210.032745 -223.230534 
L 209.995224 -224.977385 
L 209.951939 -226.724237 
L 209.902888 -228.471088 
L 209.848176 -230.217939 
L 209.788018 -231.96479 
L 209.722745 -233.711642 
L 209.652811 -235.458493 
L 209.578788 -237.205344 
L 209.50137 -238.952195 
L 209.421362 -240.699046 
L 209.339672 -242.445898 
L 209.257301 -244.192749 
L 209.175326 -245.9396 
L 209.094878 -247.686451 
L 209.017124 -249.433302 
L 208.943239 -251.180154 
L 208.874381 -252.927005 
L 208.811666 -254.673856 
L 208.756137 -256.420707 
L 208.708742 -258.167558 
L 208.670307 -259.91441 
L 208.641512 -261.661261 
L 208.622879 -263.408112 
L 208.614754 -265.154963 
L 208.617298 -266.901814 
L 208.630483 -268.648666 
L 208.654096 -270.395517 
L 208.687743 -272.142368 
L 208.730861 -273.889219 
L 208.782736 -275.63607 
L 208.842522 -277.382922 
L 208.909264 -279.129773 
L 208.981924 -280.876624 
L 209.059409 -282.623475 
L 209.140596 -284.370326 
L 209.224363 -286.117178 
L 209.30961 -287.864029 
L 209.395283 -289.61088 
L 209.480398 -291.357731 
L 209.564052 -293.104582 
L 209.645442 -294.851434 
L 209.723872 -296.598285 
L 209.798758 -298.345136 
L 209.869633 -300.091987 
L 209.936141 -301.838839 
L 209.99804 -303.58569 
L 210.055186 -305.332541 
L 210.107533 -307.079392 
L 210.155118 -308.826243 
L 210.198049 -310.573095 
L 210.236497 -312.319946 
L 210.27068 -314.066797 
L 210.66987 -314.066797 
L 210.66987 -314.066797 
L 210.704053 -312.319946 
L 210.742501 -310.573095 
L 210.785432 -308.826243 
L 210.833016 -307.079392 
L 210.885364 -305.332541 
L 210.94251 -303.58569 
L 211.004408 -301.838839 
L 211.070917 -300.091987 
L 211.141791 -298.345136 
L 211.216678 -296.598285 
L 211.295108 -294.851434 
L 211.376498 -293.104582 
L 211.460152 -291.357731 
L 211.545266 -289.61088 
L 211.63094 -287.864029 
L 211.716186 -286.117178 
L 211.799953 -284.370326 
L 211.881141 -282.623475 
L 211.958626 -280.876624 
L 212.031286 -279.129773 
L 212.098027 -277.382922 
L 212.157813 -275.63607 
L 212.209689 -273.889219 
L 212.252807 -272.142368 
L 212.286454 -270.395517 
L 212.310067 -268.648666 
L 212.323252 -266.901814 
L 212.325795 -265.154963 
L 212.31767 -263.408112 
L 212.299037 -261.661261 
L 212.270243 -259.91441 
L 212.231807 -258.167558 
L 212.184412 -256.420707 
L 212.128884 -254.673856 
L 212.066169 -252.927005 
L 211.997311 -251.180154 
L 211.923426 -249.433302 
L 211.845671 -247.686451 
L 211.765223 -245.9396 
L 211.683248 -244.192749 
L 211.600878 -242.445898 
L 211.519188 -240.699046 
L 211.439179 -238.952195 
L 211.361761 -237.205344 
L 211.287739 -235.458493 
L 211.217805 -233.711642 
L 211.152532 -231.96479 
L 211.092373 -230.217939 
L 211.037661 -228.471088 
L 210.988611 -226.724237 
L 210.945326 -224.977385 
L 210.907804 -223.230534 
L 210.87595 -221.483683 
L 210.84958 -219.736832 
L 210.828435 -217.989981 
L 210.812188 -216.243129 
L 210.80046 -214.496278 
L 210.792826 -212.749427 
L 210.788825 -211.002576 
L 210.787974 -209.255725 
L 210.789772 -207.508873 
L 210.793714 -205.762022 
L 210.799295 -204.015171 
L 210.806022 -202.26832 
L 210.813418 -200.521469 
L 210.821031 -198.774617 
L 210.828441 -197.027766 
L 210.835264 -195.280915 
L 210.841157 -193.534064 
L 210.845823 -191.787213 
L 210.849014 -190.040361 
L 210.850532 -188.29351 
L 210.850233 -186.546659 
L 210.848024 -184.799808 
L 210.843864 -183.052957 
L 210.83776 -181.306105 
L 210.829766 -179.559254 
L 210.819977 -177.812403 
L 210.808527 -176.065552 
L 210.79558 -174.318701 
L 210.781324 -172.571849 
L 210.765968 -170.824998 
L 210.749734 -169.078147 
L 210.732847 -167.331296 
L 210.715536 -165.584444 
L 210.698021 -163.837593 
L 210.680514 -162.090742 
L 210.663211 -160.343891 
L 210.646289 -158.59704 
L 210.629905 -156.850188 
L 210.614192 -155.103337 
L 210.59926 -153.356486 
L 210.585195 -151.609635 
L 210.572059 -149.862784 
L 210.559893 -148.115932 
L 210.548715 -146.369081 
L 210.538525 -144.62223 
L 210.529309 -142.875379 
L 210.521035 -141.128528 
z
" style="stroke: #3d3d3d; stroke-width: 1.5"/>
    </defs>
    <g clip-path="url(#p873048885f)">
     <use xlink:href="#mdeb38d2c8b" x="0" y="393.011865" style="fill: #c03d3e; stroke: #3d3d3d; stroke-width: 1.5"/>
    </g>
   </g>
   <g id="PolyCollection_5">
    <defs>
     <path id="m92a06c43a2" d="M 250.229022 -133.180477 
L 250.071527 -133.180477 
L 250.059187 -135.072027 
L 250.045458 -136.963577 
L 250.030283 -138.855127 
L 250.01362 -140.746678 
L 249.995448 -142.638228 
L 249.975763 -144.529778 
L 249.95459 -146.421328 
L 249.931976 -148.312879 
L 249.908001 -150.204429 
L 249.882771 -152.095979 
L 249.856425 -153.987529 
L 249.829132 -155.87908 
L 249.801089 -157.77063 
L 249.772522 -159.66218 
L 249.743678 -161.55373 
L 249.714826 -163.445281 
L 249.686251 -165.336831 
L 249.658243 -167.228381 
L 249.631098 -169.119931 
L 249.605103 -171.011482 
L 249.580534 -172.903032 
L 249.557647 -174.794582 
L 249.536666 -176.686132 
L 249.51778 -178.577683 
L 249.501136 -180.469233 
L 249.48683 -182.360783 
L 249.474902 -184.252333 
L 249.465335 -186.143884 
L 249.458053 -188.035434 
L 249.452916 -189.926984 
L 249.449725 -191.818534 
L 249.448226 -193.710085 
L 249.44811 -195.601635 
L 249.449024 -197.493185 
L 249.450576 -199.384735 
L 249.452345 -201.276286 
L 249.453895 -203.167836 
L 249.454779 -205.059386 
L 249.454558 -206.950936 
L 249.45281 -208.842487 
L 249.449143 -210.734037 
L 249.443203 -212.625587 
L 249.434693 -214.517137 
L 249.423373 -216.408688 
L 249.409077 -218.300238 
L 249.391713 -220.191788 
L 249.371273 -222.083338 
L 249.347833 -223.974889 
L 249.321556 -225.866439 
L 249.292686 -227.757989 
L 249.261552 -229.649539 
L 249.228555 -231.54109 
L 249.194165 -233.43264 
L 249.15891 -235.32419 
L 249.123363 -237.21574 
L 249.088134 -239.107291 
L 249.053852 -240.998841 
L 249.021153 -242.890391 
L 248.990667 -244.781941 
L 248.963 -246.673492 
L 248.938723 -248.565042 
L 248.91836 -250.456592 
L 248.902373 -252.348142 
L 248.891153 -254.239693 
L 248.885015 -256.131243 
L 248.884186 -258.022793 
L 248.888804 -259.914343 
L 248.898915 -261.805894 
L 248.914476 -263.697444 
L 248.935353 -265.588994 
L 248.961327 -267.480544 
L 248.992105 -269.372095 
L 249.02732 -271.263645 
L 249.066548 -273.155195 
L 249.109314 -275.046745 
L 249.155106 -276.938296 
L 249.203386 -278.829846 
L 249.253601 -280.721396 
L 249.305195 -282.612946 
L 249.35762 -284.504497 
L 249.410349 -286.396047 
L 249.46288 -288.287597 
L 249.514747 -290.179147 
L 249.565524 -292.070698 
L 249.614835 -293.962248 
L 249.662351 -295.853798 
L 249.707797 -297.745348 
L 249.75095 -299.636899 
L 249.791638 -301.528449 
L 249.82974 -303.419999 
L 249.865185 -305.311549 
L 249.897941 -307.2031 
L 249.92802 -309.09465 
L 249.955466 -310.9862 
L 249.980355 -312.87775 
L 250.002787 -314.769301 
L 250.022883 -316.660851 
L 250.040779 -318.552401 
L 250.056621 -320.443951 
L 250.243928 -320.443951 
L 250.243928 -320.443951 
L 250.259771 -318.552401 
L 250.277667 -316.660851 
L 250.297763 -314.769301 
L 250.320195 -312.87775 
L 250.345084 -310.9862 
L 250.37253 -309.09465 
L 250.402608 -307.2031 
L 250.435365 -305.311549 
L 250.470809 -303.419999 
L 250.508912 -301.528449 
L 250.5496 -299.636899 
L 250.592752 -297.745348 
L 250.638198 -295.853798 
L 250.685715 -293.962248 
L 250.735025 -292.070698 
L 250.785803 -290.179147 
L 250.837669 -288.287597 
L 250.8902 -286.396047 
L 250.942929 -284.504497 
L 250.995355 -282.612946 
L 251.046949 -280.721396 
L 251.097163 -278.829846 
L 251.145443 -276.938296 
L 251.191235 -275.046745 
L 251.234002 -273.155195 
L 251.273229 -271.263645 
L 251.308445 -269.372095 
L 251.339222 -267.480544 
L 251.365197 -265.588994 
L 251.386074 -263.697444 
L 251.401634 -261.805894 
L 251.411746 -259.914343 
L 251.416364 -258.022793 
L 251.415534 -256.131243 
L 251.409396 -254.239693 
L 251.398177 -252.348142 
L 251.382189 -250.456592 
L 251.361826 -248.565042 
L 251.33755 -246.673492 
L 251.309882 -244.781941 
L 251.279396 -242.890391 
L 251.246697 -240.998841 
L 251.212415 -239.107291 
L 251.177186 -237.21574 
L 251.14164 -235.32419 
L 251.106385 -233.43264 
L 251.071995 -231.54109 
L 251.038998 -229.649539 
L 251.007864 -227.757989 
L 250.978994 -225.866439 
L 250.952716 -223.974889 
L 250.929276 -222.083338 
L 250.908836 -220.191788 
L 250.891472 -218.300238 
L 250.877176 -216.408688 
L 250.865857 -214.517137 
L 250.857346 -212.625587 
L 250.851407 -210.734037 
L 250.847739 -208.842487 
L 250.845992 -206.950936 
L 250.845771 -205.059386 
L 250.846655 -203.167836 
L 250.848204 -201.276286 
L 250.849974 -199.384735 
L 250.851525 -197.493185 
L 250.852439 -195.601635 
L 250.852323 -193.710085 
L 250.850824 -191.818534 
L 250.847634 -189.926984 
L 250.842497 -188.035434 
L 250.835214 -186.143884 
L 250.825648 -184.252333 
L 250.81372 -182.360783 
L 250.799413 -180.469233 
L 250.782769 -178.577683 
L 250.763884 -176.686132 
L 250.742903 -174.794582 
L 250.720015 -172.903032 
L 250.695447 -171.011482 
L 250.669452 -169.119931 
L 250.642306 -167.228381 
L 250.614299 -165.336831 
L 250.585723 -163.445281 
L 250.556872 -161.55373 
L 250.528028 -159.66218 
L 250.49946 -157.77063 
L 250.471417 -155.87908 
L 250.444124 -153.987529 
L 250.417778 -152.095979 
L 250.392549 -150.204429 
L 250.368573 -148.312879 
L 250.34596 -146.421328 
L 250.324786 -144.529778 
L 250.305102 -142.638228 
L 250.286929 -140.746678 
L 250.270267 -138.855127 
L 250.255092 -136.963577 
L 250.241362 -135.072027 
L 250.229022 -133.180477 
z
" style="stroke: #3d3d3d; stroke-width: 1.5"/>
    </defs>
    <g clip-path="url(#p873048885f)">
     <use xlink:href="#m92a06c43a2" x="0" y="393.011865" style="fill: #e1812c; stroke: #3d3d3d; stroke-width: 1.5"/>
    </g>
   </g>
   <g id="PolyCollection_6">
    <defs>
     <path id="m75a4d768c4" d="M 291.089376 -244.577875 
L 288.571174 -244.577875 
L 288.364206 -244.696381 
L 288.131435 -244.814888 
L 287.87118 -244.933395 
L 287.581921 -245.051902 
L 287.262358 -245.170409 
L 286.911469 -245.288916 
L 286.528566 -245.407422 
L 286.113359 -245.525929 
L 285.666008 -245.644436 
L 285.187177 -245.762943 
L 284.678077 -245.88145 
L 284.140504 -245.999956 
L 283.576864 -246.118463 
L 282.990181 -246.23697 
L 282.384095 -246.355477 
L 281.762841 -246.473984 
L 281.13121 -246.592491 
L 280.494493 -246.710997 
L 279.858403 -246.829504 
L 279.228986 -246.948011 
L 278.61251 -247.066518 
L 278.01534 -247.185025 
L 277.443806 -247.303532 
L 276.90406 -247.422038 
L 276.401928 -247.540545 
L 275.942761 -247.659052 
L 275.531293 -247.777559 
L 275.171511 -247.896066 
L 274.866524 -248.014573 
L 274.618471 -248.133079 
L 274.428433 -248.251586 
L 274.296377 -248.370093 
L 274.22113 -248.4886 
L 274.200377 -248.607107 
L 274.230698 -248.725614 
L 274.307623 -248.84412 
L 274.425733 -248.962627 
L 274.578774 -249.081134 
L 274.759809 -249.199641 
L 274.961381 -249.318148 
L 275.175701 -249.436655 
L 275.394843 -249.555161 
L 275.610953 -249.673668 
L 275.816448 -249.792175 
L 276.004223 -249.910682 
L 276.167837 -250.029189 
L 276.30169 -250.147695 
L 276.401174 -250.266202 
L 276.462803 -250.384709 
L 276.48431 -250.503216 
L 276.464712 -250.621723 
L 276.404341 -250.74023 
L 276.30484 -250.858736 
L 276.169124 -250.977243 
L 276.001302 -251.09575 
L 275.806573 -251.214257 
L 275.591086 -251.332764 
L 275.36178 -251.451271 
L 275.126197 -251.569777 
L 274.892287 -251.688284 
L 274.668195 -251.806791 
L 274.462049 -251.925298 
L 274.281753 -252.043805 
L 274.134778 -252.162312 
L 274.027981 -252.280818 
L 273.967433 -252.399325 
L 273.958275 -252.517832 
L 274.004601 -252.636339 
L 274.109374 -252.754846 
L 274.274372 -252.873353 
L 274.500166 -252.991859 
L 274.786137 -253.110366 
L 275.130514 -253.228873 
L 275.530451 -253.34738 
L 275.982126 -253.465887 
L 276.480857 -253.584393 
L 277.021247 -253.7029 
L 277.597325 -253.821407 
L 278.202711 -253.939914 
L 278.83077 -254.058421 
L 279.474771 -254.176928 
L 280.128035 -254.295434 
L 280.784074 -254.413941 
L 281.436718 -254.532448 
L 282.080217 -254.650955 
L 282.709331 -254.769462 
L 283.319402 -254.887969 
L 283.906397 -255.006475 
L 284.466938 -255.124982 
L 284.998314 -255.243489 
L 285.49847 -255.361996 
L 285.965987 -255.480503 
L 286.40004 -255.59901 
L 286.80036 -255.717516 
L 287.167169 -255.836023 
L 287.50113 -255.95453 
L 287.803272 -256.073037 
L 288.074936 -256.191544 
L 288.317704 -256.310051 
L 291.342846 -256.310051 
L 291.342846 -256.310051 
L 291.585613 -256.191544 
L 291.857277 -256.073037 
L 292.15942 -255.95453 
L 292.49338 -255.836023 
L 292.86019 -255.717516 
L 293.260509 -255.59901 
L 293.694563 -255.480503 
L 294.162079 -255.361996 
L 294.662235 -255.243489 
L 295.193612 -255.124982 
L 295.754153 -255.006475 
L 296.341147 -254.887969 
L 296.951218 -254.769462 
L 297.580333 -254.650955 
L 298.223831 -254.532448 
L 298.876475 -254.413941 
L 299.532515 -254.295434 
L 300.185779 -254.176928 
L 300.829779 -254.058421 
L 301.457838 -253.939914 
L 302.063224 -253.821407 
L 302.639303 -253.7029 
L 303.179692 -253.584393 
L 303.678424 -253.465887 
L 304.130098 -253.34738 
L 304.530036 -253.228873 
L 304.874412 -253.110366 
L 305.160383 -252.991859 
L 305.386178 -252.873353 
L 305.551176 -252.754846 
L 305.655949 -252.636339 
L 305.702275 -252.517832 
L 305.693116 -252.399325 
L 305.632568 -252.280818 
L 305.525771 -252.162312 
L 305.378797 -252.043805 
L 305.1985 -251.925298 
L 304.992355 -251.806791 
L 304.768262 -251.688284 
L 304.534352 -251.569777 
L 304.298769 -251.451271 
L 304.069463 -251.332764 
L 303.853976 -251.214257 
L 303.659247 -251.09575 
L 303.491426 -250.977243 
L 303.355709 -250.858736 
L 303.256209 -250.74023 
L 303.195837 -250.621723 
L 303.176239 -250.503216 
L 303.197746 -250.384709 
L 303.259376 -250.266202 
L 303.35886 -250.147695 
L 303.492713 -250.029189 
L 303.656327 -249.910682 
L 303.844102 -249.792175 
L 304.049597 -249.673668 
L 304.265706 -249.555161 
L 304.484849 -249.436655 
L 304.699168 -249.318148 
L 304.90074 -249.199641 
L 305.081775 -249.081134 
L 305.234817 -248.962627 
L 305.352926 -248.84412 
L 305.429852 -248.725614 
L 305.460172 -248.607107 
L 305.43942 -248.4886 
L 305.364172 -248.370093 
L 305.232116 -248.251586 
L 305.042078 -248.133079 
L 304.794025 -248.014573 
L 304.489039 -247.896066 
L 304.129256 -247.777559 
L 303.717789 -247.659052 
L 303.258622 -247.540545 
L 302.756489 -247.422038 
L 302.216743 -247.303532 
L 301.64521 -247.185025 
L 301.04804 -247.066518 
L 300.431563 -246.948011 
L 299.802146 -246.829504 
L 299.166057 -246.710997 
L 298.529339 -246.592491 
L 297.897708 -246.473984 
L 297.276455 -246.355477 
L 296.670369 -246.23697 
L 296.083685 -246.118463 
L 295.520045 -245.999956 
L 294.982473 -245.88145 
L 294.473373 -245.762943 
L 293.994541 -245.644436 
L 293.54719 -245.525929 
L 293.131983 -245.407422 
L 292.749081 -245.288916 
L 292.398192 -245.170409 
L 292.078629 -245.051902 
L 291.78937 -244.933395 
L 291.529114 -244.814888 
L 291.296343 -244.696381 
L 291.089376 -244.577875 
z
" style="stroke: #3d3d3d; stroke-width: 1.5"/>
    </defs>
    <g clip-path="url(#p873048885f)">
     <use xlink:href="#m75a4d768c4" x="0" y="393.011865" style="fill: #7f7f7f; stroke: #3d3d3d; stroke-width: 1.5"/>
    </g>
   </g>
   <g id="PolyCollection_7">
    <defs>
     <path id="ma58a494703" d="M 330.01361 -237.867659 
L 329.006939 -237.867659 
L 328.910304 -238.244528 
L 328.799297 -238.621396 
L 328.672664 -238.998265 
L 328.529215 -239.375133 
L 328.367863 -239.752001 
L 328.187667 -240.12887 
L 327.987877 -240.505738 
L 327.76798 -240.882607 
L 327.527748 -241.259475 
L 327.26728 -241.636344 
L 326.987041 -242.013212 
L 326.6879 -242.390081 
L 326.371151 -242.766949 
L 326.038536 -243.143818 
L 325.692248 -243.520686 
L 325.334923 -243.897555 
L 324.969627 -244.274423 
L 324.599815 -244.651292 
L 324.229292 -245.02816 
L 323.862147 -245.405029 
L 323.502687 -245.781897 
L 323.155348 -246.158766 
L 322.824611 -246.535634 
L 322.514904 -246.912503 
L 322.2305 -247.289371 
L 321.975419 -247.66624 
L 321.753337 -248.043108 
L 321.567488 -248.419977 
L 321.42059 -248.796845 
L 321.314774 -249.173714 
L 321.25153 -249.550582 
L 321.23167 -249.927451 
L 321.255303 -250.304319 
L 321.321834 -250.681188 
L 321.429977 -251.058056 
L 321.577786 -251.434925 
L 321.7627 -251.811793 
L 321.981607 -252.188662 
L 322.230913 -252.56553 
L 322.506625 -252.942399 
L 322.804445 -253.319267 
L 323.119856 -253.696136 
L 323.448225 -254.073004 
L 323.784895 -254.449873 
L 324.125276 -254.826741 
L 324.464932 -255.20361 
L 324.79966 -255.580478 
L 325.125561 -255.957347 
L 325.439098 -256.334215 
L 325.737151 -256.711084 
L 326.017052 -257.087952 
L 326.276612 -257.464821 
L 326.514143 -257.841689 
L 326.728458 -258.218558 
L 326.918871 -258.595426 
L 327.085183 -258.972295 
L 327.227657 -259.349163 
L 327.346991 -259.726031 
L 327.44428 -260.1029 
L 327.520973 -260.479768 
L 327.578825 -260.856637 
L 327.619843 -261.233505 
L 327.646236 -261.610374 
L 327.660354 -261.987242 
L 327.664628 -262.364111 
L 327.661522 -262.740979 
L 327.653465 -263.117848 
L 327.642807 -263.494716 
L 327.631767 -263.871585 
L 327.622385 -264.248453 
L 327.616487 -264.625322 
L 327.615654 -265.00219 
L 327.621193 -265.379059 
L 327.634125 -265.755927 
L 327.655175 -266.132796 
L 327.684773 -266.509664 
L 327.723062 -266.886533 
L 327.769915 -267.263401 
L 327.824956 -267.64027 
L 327.887588 -268.017138 
L 327.957031 -268.394007 
L 328.032353 -268.770875 
L 328.112511 -269.147744 
L 328.196388 -269.524612 
L 328.282833 -269.901481 
L 328.370697 -270.278349 
L 328.458863 -270.655218 
L 328.546278 -271.032086 
L 328.631975 -271.408955 
L 328.715091 -271.785823 
L 328.794884 -272.162692 
L 328.870737 -272.53956 
L 328.942166 -272.916429 
L 329.008814 -273.293297 
L 329.07045 -273.670166 
L 329.126957 -274.047034 
L 329.178326 -274.423903 
L 329.224636 -274.800771 
L 329.266047 -275.17764 
L 329.754502 -275.17764 
L 329.754502 -275.17764 
L 329.795913 -274.800771 
L 329.842224 -274.423903 
L 329.893592 -274.047034 
L 329.9501 -273.670166 
L 330.011736 -273.293297 
L 330.078384 -272.916429 
L 330.149812 -272.53956 
L 330.225666 -272.162692 
L 330.305458 -271.785823 
L 330.388575 -271.408955 
L 330.474271 -271.032086 
L 330.561686 -270.655218 
L 330.649853 -270.278349 
L 330.737717 -269.901481 
L 330.824162 -269.524612 
L 330.908039 -269.147744 
L 330.988196 -268.770875 
L 331.063518 -268.394007 
L 331.132961 -268.017138 
L 331.195594 -267.64027 
L 331.250634 -267.263401 
L 331.297487 -266.886533 
L 331.335776 -266.509664 
L 331.365374 -266.132796 
L 331.386425 -265.755927 
L 331.399357 -265.379059 
L 331.404895 -265.00219 
L 331.404062 -264.625322 
L 331.398165 -264.248453 
L 331.388783 -263.871585 
L 331.377742 -263.494716 
L 331.367085 -263.117848 
L 331.359028 -262.740979 
L 331.355921 -262.364111 
L 331.360196 -261.987242 
L 331.374313 -261.610374 
L 331.400706 -261.233505 
L 331.441725 -260.856637 
L 331.499576 -260.479768 
L 331.576269 -260.1029 
L 331.673559 -259.726031 
L 331.792893 -259.349163 
L 331.935367 -258.972295 
L 332.101678 -258.595426 
L 332.292092 -258.218558 
L 332.506407 -257.841689 
L 332.743937 -257.464821 
L 333.003498 -257.087952 
L 333.283398 -256.711084 
L 333.581451 -256.334215 
L 333.894989 -255.957347 
L 334.220889 -255.580478 
L 334.555617 -255.20361 
L 334.895273 -254.826741 
L 335.235654 -254.449873 
L 335.572324 -254.073004 
L 335.900694 -253.696136 
L 336.216105 -253.319267 
L 336.513924 -252.942399 
L 336.789637 -252.56553 
L 337.038942 -252.188662 
L 337.257849 -251.811793 
L 337.442764 -251.434925 
L 337.590573 -251.058056 
L 337.698716 -250.681188 
L 337.765247 -250.304319 
L 337.788879 -249.927451 
L 337.769019 -249.550582 
L 337.705776 -249.173714 
L 337.59996 -248.796845 
L 337.453062 -248.419977 
L 337.267213 -248.043108 
L 337.04513 -247.66624 
L 336.79005 -247.289371 
L 336.505646 -246.912503 
L 336.195938 -246.535634 
L 335.865202 -246.158766 
L 335.517863 -245.781897 
L 335.158402 -245.405029 
L 334.791257 -245.02816 
L 334.420734 -244.651292 
L 334.050923 -244.274423 
L 333.685626 -243.897555 
L 333.328302 -243.520686 
L 332.982013 -243.143818 
L 332.649398 -242.766949 
L 332.33265 -242.390081 
L 332.033508 -242.013212 
L 331.753269 -241.636344 
L 331.492801 -241.259475 
L 331.252569 -240.882607 
L 331.032673 -240.505738 
L 330.832882 -240.12887 
L 330.652686 -239.752001 
L 330.491334 -239.375133 
L 330.347885 -238.998265 
L 330.221252 -238.621396 
L 330.110245 -238.244528 
L 330.01361 -237.867659 
z
" style="stroke: #3d3d3d; stroke-width: 1.5"/>
    </defs>
    <g clip-path="url(#p873048885f)">
     <use xlink:href="#ma58a494703" x="0" y="393.011865" style="fill: #c4b5d0; stroke: #3d3d3d; stroke-width: 1.5"/>
    </g>
   </g>
   <g id="PolyCollection_8">
    <defs>
     <path id="m8aa7d98093" d="M 369.287334 -127.506754 
L 369.093215 -127.506754 
L 369.078537 -129.608131 
L 369.062248 -131.709507 
L 369.044282 -133.810884 
L 369.024583 -135.912261 
L 369.003117 -138.013638 
L 368.979872 -140.115014 
L 368.954859 -142.216391 
L 368.928118 -144.317768 
L 368.899719 -146.419145 
L 368.869763 -148.520521 
L 368.838386 -150.621898 
L 368.805755 -152.723275 
L 368.772074 -154.824652 
L 368.737575 -156.926029 
L 368.702524 -159.027405 
L 368.66721 -161.128782 
L 368.631949 -163.230159 
L 368.597071 -165.331536 
L 368.56292 -167.432912 
L 368.529846 -169.534289 
L 368.498194 -171.635666 
L 368.468302 -173.737043 
L 368.44049 -175.838419 
L 368.415052 -177.939796 
L 368.392249 -180.041173 
L 368.372303 -182.14255 
L 368.355389 -184.243926 
L 368.341627 -186.345303 
L 368.331085 -188.44668 
L 368.323769 -190.548057 
L 368.319623 -192.649434 
L 368.31853 -194.75081 
L 368.320316 -196.852187 
L 368.324746 -198.953564 
L 368.331535 -201.054941 
L 368.340354 -203.156317 
L 368.350831 -205.257694 
L 368.362569 -207.359071 
L 368.375148 -209.460448 
L 368.388138 -211.561824 
L 368.40111 -213.663201 
L 368.413646 -215.764578 
L 368.42535 -217.865955 
L 368.435857 -219.967332 
L 368.444844 -222.068708 
L 368.452036 -224.170085 
L 368.457215 -226.271462 
L 368.460224 -228.372839 
L 368.460972 -230.474215 
L 368.459438 -232.575592 
L 368.455668 -234.676969 
L 368.449775 -236.778346 
L 368.441939 -238.879722 
L 368.432397 -240.981099 
L 368.421442 -243.082476 
L 368.409412 -245.183853 
L 368.396686 -247.285229 
L 368.383666 -249.386606 
L 368.370775 -251.487983 
L 368.358445 -253.58936 
L 368.3471 -255.690737 
L 368.337155 -257.792113 
L 368.328998 -259.89349 
L 368.322986 -261.994867 
L 368.319433 -264.096244 
L 368.318608 -266.19762 
L 368.320723 -268.298997 
L 368.325933 -270.400374 
L 368.334334 -272.501751 
L 368.345959 -274.603127 
L 368.360782 -276.704504 
L 368.378717 -278.805881 
L 368.399622 -280.907258 
L 368.423309 -283.008635 
L 368.44954 -285.110011 
L 368.478045 -287.211388 
L 368.508519 -289.312765 
L 368.540637 -291.414142 
L 368.574059 -293.515518 
L 368.608438 -295.616895 
L 368.643427 -297.718272 
L 368.678687 -299.819649 
L 368.713894 -301.921025 
L 368.748741 -304.022402 
L 368.782947 -306.123779 
L 368.81626 -308.225156 
L 368.848455 -310.326532 
L 368.879343 -312.427909 
L 368.908768 -314.529286 
L 368.936605 -316.630663 
L 368.962764 -318.73204 
L 368.987186 -320.833416 
L 369.00984 -322.934793 
L 369.030721 -325.03617 
L 369.049851 -327.137547 
L 369.06727 -329.238923 
L 369.083035 -331.3403 
L 369.097222 -333.441677 
L 369.109912 -335.543054 
L 369.270638 -335.543054 
L 369.270638 -335.543054 
L 369.283328 -333.441677 
L 369.297514 -331.3403 
L 369.31328 -329.238923 
L 369.330699 -327.137547 
L 369.349828 -325.03617 
L 369.37071 -322.934793 
L 369.393364 -320.833416 
L 369.417785 -318.73204 
L 369.443944 -316.630663 
L 369.471782 -314.529286 
L 369.501206 -312.427909 
L 369.532095 -310.326532 
L 369.56429 -308.225156 
L 369.597602 -306.123779 
L 369.631809 -304.022402 
L 369.666656 -301.921025 
L 369.701862 -299.819649 
L 369.737123 -297.718272 
L 369.772112 -295.616895 
L 369.806491 -293.515518 
L 369.839913 -291.414142 
L 369.872031 -289.312765 
L 369.902505 -287.211388 
L 369.931009 -285.110011 
L 369.957241 -283.008635 
L 369.980927 -280.907258 
L 370.001833 -278.805881 
L 370.019767 -276.704504 
L 370.03459 -274.603127 
L 370.046216 -272.501751 
L 370.054617 -270.400374 
L 370.059827 -268.298997 
L 370.061942 -266.19762 
L 370.061116 -264.096244 
L 370.057564 -261.994867 
L 370.051551 -259.89349 
L 370.043395 -257.792113 
L 370.033449 -255.690737 
L 370.022105 -253.58936 
L 370.009774 -251.487983 
L 369.996884 -249.386606 
L 369.983864 -247.285229 
L 369.971137 -245.183853 
L 369.959108 -243.082476 
L 369.948153 -240.981099 
L 369.938611 -238.879722 
L 369.930774 -236.778346 
L 369.924882 -234.676969 
L 369.921111 -232.575592 
L 369.919577 -230.474215 
L 369.920326 -228.372839 
L 369.923335 -226.271462 
L 369.928513 -224.170085 
L 369.935705 -222.068708 
L 369.944692 -219.967332 
L 369.9552 -217.865955 
L 369.966904 -215.764578 
L 369.97944 -213.663201 
L 369.992412 -211.561824 
L 370.005402 -209.460448 
L 370.01798 -207.359071 
L 370.029718 -205.257694 
L 370.040196 -203.156317 
L 370.049014 -201.054941 
L 370.055804 -198.953564 
L 370.060234 -196.852187 
L 370.062019 -194.75081 
L 370.060927 -192.649434 
L 370.056781 -190.548057 
L 370.049464 -188.44668 
L 370.038922 -186.345303 
L 370.025161 -184.243926 
L 370.008246 -182.14255 
L 369.9883 -180.041173 
L 369.965498 -177.939796 
L 369.94006 -175.838419 
L 369.912248 -173.737043 
L 369.882356 -171.635666 
L 369.850704 -169.534289 
L 369.817629 -167.432912 
L 369.783478 -165.331536 
L 369.748601 -163.230159 
L 369.713339 -161.128782 
L 369.678026 -159.027405 
L 369.642974 -156.926029 
L 369.608476 -154.824652 
L 369.574794 -152.723275 
L 369.542164 -150.621898 
L 369.510787 -148.520521 
L 369.480831 -146.419145 
L 369.452432 -144.317768 
L 369.425691 -142.216391 
L 369.400678 -140.115014 
L 369.377432 -138.013638 
L 369.355967 -135.912261 
L 369.336268 -133.810884 
L 369.318301 -131.709507 
L 369.302013 -129.608131 
L 369.287334 -127.506754 
z
" style="stroke: #3d3d3d; stroke-width: 1.5"/>
    </defs>
    <g clip-path="url(#p873048885f)">
     <use xlink:href="#m8aa7d98093" x="0" y="393.011865" style="fill: #f2a5a3; stroke: #3d3d3d; stroke-width: 1.5"/>
    </g>
   </g>
   <g id="PolyCollection_9">
    <defs>
     <path id="m657a1cf2f8" d="M 408.960203 -116.67774 
L 408.780347 -116.67774 
L 408.766766 -119.121377 
L 408.751711 -121.565013 
L 408.735121 -124.00865 
L 408.716953 -126.452286 
L 408.69718 -128.895922 
L 408.675798 -131.339559 
L 408.652825 -133.783195 
L 408.628304 -136.226831 
L 408.602306 -138.670468 
L 408.574933 -141.114104 
L 408.546315 -143.55774 
L 408.516613 -146.001377 
L 408.486015 -148.445013 
L 408.454741 -150.88865 
L 408.423031 -153.332286 
L 408.391152 -155.775922 
L 408.359385 -158.219559 
L 408.328027 -160.663195 
L 408.297381 -163.106831 
L 408.267752 -165.550468 
L 408.239438 -167.994104 
L 408.212727 -170.43774 
L 408.187888 -172.881377 
L 408.165164 -175.325013 
L 408.144767 -177.76865 
L 408.126872 -180.212286 
L 408.111613 -182.655922 
L 408.099078 -185.099559 
L 408.089307 -187.543195 
L 408.082289 -189.986831 
L 408.077967 -192.430468 
L 408.076232 -194.874104 
L 408.076933 -197.31774 
L 408.079873 -199.761377 
L 408.084821 -202.205013 
L 408.091513 -204.64865 
L 408.099662 -207.092286 
L 408.108963 -209.535922 
L 408.119101 -211.979559 
L 408.129759 -214.423195 
L 408.140628 -216.866831 
L 408.151409 -219.310468 
L 408.161827 -221.754104 
L 408.171632 -224.19774 
L 408.180606 -226.641377 
L 408.188567 -229.085013 
L 408.195375 -231.52865 
L 408.200931 -233.972286 
L 408.20518 -236.415922 
L 408.208111 -238.859559 
L 408.209756 -241.303195 
L 408.210188 -243.746831 
L 408.209518 -246.190468 
L 408.207891 -248.634104 
L 408.205484 -251.07774 
L 408.202498 -253.521377 
L 408.199154 -255.965013 
L 408.195687 -258.40865 
L 408.192341 -260.852286 
L 408.189364 -263.295922 
L 408.186999 -265.739559 
L 408.185481 -268.183195 
L 408.185033 -270.626831 
L 408.185857 -273.070468 
L 408.188134 -275.514104 
L 408.192018 -277.95774 
L 408.197634 -280.401377 
L 408.205074 -282.845013 
L 408.214399 -285.28865 
L 408.225633 -287.732286 
L 408.238769 -290.175922 
L 408.253765 -292.619559 
L 408.270548 -295.063195 
L 408.289014 -297.506831 
L 408.309033 -299.950468 
L 408.330451 -302.394104 
L 408.353094 -304.83774 
L 408.376772 -307.281377 
L 408.401284 -309.725013 
L 408.426419 -312.16865 
L 408.451964 -314.612286 
L 408.477709 -317.055922 
L 408.503447 -319.499559 
L 408.528978 -321.943195 
L 408.554117 -324.386831 
L 408.578692 -326.830468 
L 408.602548 -329.274104 
L 408.625548 -331.71774 
L 408.647577 -334.161377 
L 408.668537 -336.605013 
L 408.688354 -339.04865 
L 408.706973 -341.492286 
L 408.724358 -343.935922 
L 408.740492 -346.379559 
L 408.755375 -348.823195 
L 408.769024 -351.266831 
L 408.781466 -353.710468 
L 408.792743 -356.154104 
L 408.802905 -358.59774 
L 408.937644 -358.59774 
L 408.937644 -358.59774 
L 408.947806 -356.154104 
L 408.959083 -353.710468 
L 408.971526 -351.266831 
L 408.985174 -348.823195 
L 409.000058 -346.379559 
L 409.016192 -343.935922 
L 409.033577 -341.492286 
L 409.052195 -339.04865 
L 409.072012 -336.605013 
L 409.092973 -334.161377 
L 409.115001 -331.71774 
L 409.138001 -329.274104 
L 409.161857 -326.830468 
L 409.186432 -324.386831 
L 409.211571 -321.943195 
L 409.237103 -319.499559 
L 409.26284 -317.055922 
L 409.288585 -314.612286 
L 409.314131 -312.16865 
L 409.339266 -309.725013 
L 409.363777 -307.281377 
L 409.387455 -304.83774 
L 409.410099 -302.394104 
L 409.431517 -299.950468 
L 409.451536 -297.506831 
L 409.470002 -295.063195 
L 409.486784 -292.619559 
L 409.50178 -290.175922 
L 409.514916 -287.732286 
L 409.526151 -285.28865 
L 409.535475 -282.845013 
L 409.542916 -280.401377 
L 409.548531 -277.95774 
L 409.552415 -275.514104 
L 409.554692 -273.070468 
L 409.555517 -270.626831 
L 409.555068 -268.183195 
L 409.553551 -265.739559 
L 409.551186 -263.295922 
L 409.548209 -260.852286 
L 409.544863 -258.40865 
L 409.541396 -255.965013 
L 409.538051 -253.521377 
L 409.535065 -251.07774 
L 409.532658 -248.634104 
L 409.531032 -246.190468 
L 409.530361 -243.746831 
L 409.530793 -241.303195 
L 409.532438 -238.859559 
L 409.535369 -236.415922 
L 409.539618 -233.972286 
L 409.545174 -231.52865 
L 409.551982 -229.085013 
L 409.559944 -226.641377 
L 409.568917 -224.19774 
L 409.578722 -221.754104 
L 409.58914 -219.310468 
L 409.599922 -216.866831 
L 409.61079 -214.423195 
L 409.621449 -211.979559 
L 409.631586 -209.535922 
L 409.640887 -207.092286 
L 409.649036 -204.64865 
L 409.655729 -202.205013 
L 409.660677 -199.761377 
L 409.663617 -197.31774 
L 409.664317 -194.874104 
L 409.662583 -192.430468 
L 409.65826 -189.986831 
L 409.651243 -187.543195 
L 409.641471 -185.099559 
L 409.628936 -182.655922 
L 409.613677 -180.212286 
L 409.595783 -177.76865 
L 409.575386 -175.325013 
L 409.552662 -172.881377 
L 409.527823 -170.43774 
L 409.501112 -167.994104 
L 409.472798 -165.550468 
L 409.443168 -163.106831 
L 409.412522 -160.663195 
L 409.381164 -158.219559 
L 409.349398 -155.775922 
L 409.317519 -153.332286 
L 409.285809 -150.88865 
L 409.254534 -148.445013 
L 409.223937 -146.001377 
L 409.194234 -143.55774 
L 409.165616 -141.114104 
L 409.138243 -138.670468 
L 409.112246 -136.226831 
L 409.087725 -133.783195 
L 409.064751 -131.339559 
L 409.043369 -128.895922 
L 409.023597 -126.452286 
L 409.005429 -124.00865 
L 408.988839 -121.565013 
L 408.973783 -119.121377 
L 408.960203 -116.67774 
z
" style="stroke: #3d3d3d; stroke-width: 1.5"/>
    </defs>
    <g clip-path="url(#p873048885f)">
     <use xlink:href="#m657a1cf2f8" x="0" y="393.011865" style="fill: #9fd495; stroke: #3d3d3d; stroke-width: 1.5"/>
    </g>
   </g>
   <g id="matplotlib.axis_1">
    <g id="xtick_1">
     <g id="line2d_1">
      <defs>
       <path id="mf44bfca094" d="M 0 0 
L 0 3.5 
" style="stroke: #000000; stroke-width: 0.8"/>
      </defs>
      <g>
       <use xlink:href="#mf44bfca094" x="91.430275" y="288.430125" style="stroke: #000000; stroke-width: 0.8"/>
      </g>
     </g>
     <g id="text_1">
      <!-- aflplusplus_ast_o3 -->
      <g transform="translate(10.999219 347.766815)rotate(-30)scale(0.1 -0.1)">
       <defs>
        <path id="DejaVuSans-61" d="M 2194 1759 
Q 1497 1759 1228 1600 
Q 959 1441 959 1056 
Q 959 750 1161 570 
Q 1363 391 1709 391 
Q 2188 391 2477 730 
Q 2766 1069 2766 1631 
L 2766 1759 
L 2194 1759 
z
M 3341 1997 
L 3341 0 
L 2766 0 
L 2766 531 
Q 2569 213 2275 61 
Q 1981 -91 1556 -91 
Q 1019 -91 701 211 
Q 384 513 384 1019 
Q 384 1609 779 1909 
Q 1175 2209 1959 2209 
L 2766 2209 
L 2766 2266 
Q 2766 2663 2505 2880 
Q 2244 3097 1772 3097 
Q 1472 3097 1187 3025 
Q 903 2953 641 2809 
L 641 3341 
Q 956 3463 1253 3523 
Q 1550 3584 1831 3584 
Q 2591 3584 2966 3190 
Q 3341 2797 3341 1997 
z
" transform="scale(0.015625)"/>
        <path id="DejaVuSans-66" d="M 2375 4863 
L 2375 4384 
L 1825 4384 
Q 1516 4384 1395 4259 
Q 1275 4134 1275 3809 
L 1275 3500 
L 2222 3500 
L 2222 3053 
L 1275 3053 
L 1275 0 
L 697 0 
L 697 3053 
L 147 3053 
L 147 3500 
L 697 3500 
L 697 3744 
Q 697 4328 969 4595 
Q 1241 4863 1831 4863 
L 2375 4863 
z
" transform="scale(0.015625)"/>
        <path id="DejaVuSans-6c" d="M 603 4863 
L 1178 4863 
L 1178 0 
L 603 0 
L 603 4863 
z
" transform="scale(0.015625)"/>
        <path id="DejaVuSans-70" d="M 1159 525 
L 1159 -1331 
L 581 -1331 
L 581 3500 
L 1159 3500 
L 1159 2969 
Q 1341 3281 1617 3432 
Q 1894 3584 2278 3584 
Q 2916 3584 3314 3078 
Q 3713 2572 3713 1747 
Q 3713 922 3314 415 
Q 2916 -91 2278 -91 
Q 1894 -91 1617 61 
Q 1341 213 1159 525 
z
M 3116 1747 
Q 3116 2381 2855 2742 
Q 2594 3103 2138 3103 
Q 1681 3103 1420 2742 
Q 1159 2381 1159 1747 
Q 1159 1113 1420 752 
Q 1681 391 2138 391 
Q 2594 391 2855 752 
Q 3116 1113 3116 1747 
z
" transform="scale(0.015625)"/>
        <path id="DejaVuSans-75" d="M 544 1381 
L 544 3500 
L 1119 3500 
L 1119 1403 
Q 1119 906 1312 657 
Q 1506 409 1894 409 
Q 2359 409 2629 706 
Q 2900 1003 2900 1516 
L 2900 3500 
L 3475 3500 
L 3475 0 
L 2900 0 
L 2900 538 
Q 2691 219 2414 64 
Q 2138 -91 1772 -91 
Q 1169 -91 856 284 
Q 544 659 544 1381 
z
M 1991 3584 
L 1991 3584 
z
" transform="scale(0.015625)"/>
        <path id="DejaVuSans-73" d="M 2834 3397 
L 2834 2853 
Q 2591 2978 2328 3040 
Q 2066 3103 1784 3103 
Q 1356 3103 1142 2972 
Q 928 2841 928 2578 
Q 928 2378 1081 2264 
Q 1234 2150 1697 2047 
L 1894 2003 
Q 2506 1872 2764 1633 
Q 3022 1394 3022 966 
Q 3022 478 2636 193 
Q 2250 -91 1575 -91 
Q 1294 -91 989 -36 
Q 684 19 347 128 
L 347 722 
Q 666 556 975 473 
Q 1284 391 1588 391 
Q 1994 391 2212 530 
Q 2431 669 2431 922 
Q 2431 1156 2273 1281 
Q 2116 1406 1581 1522 
L 1381 1569 
Q 847 1681 609 1914 
Q 372 2147 372 2553 
Q 372 3047 722 3315 
Q 1072 3584 1716 3584 
Q 2034 3584 2315 3537 
Q 2597 3491 2834 3397 
z
" transform="scale(0.015625)"/>
        <path id="DejaVuSans-5f" d="M 3263 -1063 
L 3263 -1509 
L -63 -1509 
L -63 -1063 
L 3263 -1063 
z
" transform="scale(0.015625)"/>
        <path id="DejaVuSans-74" d="M 1172 4494 
L 1172 3500 
L 2356 3500 
L 2356 3053 
L 1172 3053 
L 1172 1153 
Q 1172 725 1289 603 
Q 1406 481 1766 481 
L 2356 481 
L 2356 0 
L 1766 0 
Q 1100 0 847 248 
Q 594 497 594 1153 
L 594 3053 
L 172 3053 
L 172 3500 
L 594 3500 
L 594 4494 
L 1172 4494 
z
" transform="scale(0.015625)"/>
        <path id="DejaVuSans-6f" d="M 1959 3097 
Q 1497 3097 1228 2736 
Q 959 2375 959 1747 
Q 959 1119 1226 758 
Q 1494 397 1959 397 
Q 2419 397 2687 759 
Q 2956 1122 2956 1747 
Q 2956 2369 2687 2733 
Q 2419 3097 1959 3097 
z
M 1959 3584 
Q 2709 3584 3137 3096 
Q 3566 2609 3566 1747 
Q 3566 888 3137 398 
Q 2709 -91 1959 -91 
Q 1206 -91 779 398 
Q 353 888 353 1747 
Q 353 2609 779 3096 
Q 1206 3584 1959 3584 
z
" transform="scale(0.015625)"/>
        <path id="DejaVuSans-33" d="M 2597 2516 
Q 3050 2419 3304 2112 
Q 3559 1806 3559 1356 
Q 3559 666 3084 287 
Q 2609 -91 1734 -91 
Q 1441 -91 1130 -33 
Q 819 25 488 141 
L 488 750 
Q 750 597 1062 519 
Q 1375 441 1716 441 
Q 2309 441 2620 675 
Q 2931 909 2931 1356 
Q 2931 1769 2642 2001 
Q 2353 2234 1838 2234 
L 1294 2234 
L 1294 2753 
L 1863 2753 
Q 2328 2753 2575 2939 
Q 2822 3125 2822 3475 
Q 2822 3834 2567 4026 
Q 2313 4219 1838 4219 
Q 1578 4219 1281 4162 
Q 984 4106 628 3988 
L 628 4550 
Q 988 4650 1302 4700 
Q 1616 4750 1894 4750 
Q 2613 4750 3031 4423 
Q 3450 4097 3450 3541 
Q 3450 3153 3228 2886 
Q 3006 2619 2597 2516 
z
" transform="scale(0.015625)"/>
       </defs>
       <use xlink:href="#DejaVuSans-61"/>
       <use xlink:href="#DejaVuSans-66" x="61.279297"/>
       <use xlink:href="#DejaVuSans-6c" x="96.484375"/>
       <use xlink:href="#DejaVuSans-70" x="124.267578"/>
       <use xlink:href="#DejaVuSans-6c" x="187.744141"/>
       <use xlink:href="#DejaVuSans-75" x="215.527344"/>
       <use xlink:href="#DejaVuSans-73" x="278.90625"/>
       <use xlink:href="#DejaVuSans-70" x="331.005859"/>
       <use xlink:href="#DejaVuSans-6c" x="394.482422"/>
       <use xlink:href="#DejaVuSans-75" x="422.265625"/>
       <use xlink:href="#DejaVuSans-73" x="485.644531"/>
       <use xlink:href="#DejaVuSans-5f" x="537.744141"/>
       <use xlink:href="#DejaVuSans-61" x="587.744141"/>
       <use xlink:href="#DejaVuSans-73" x="649.023438"/>
       <use xlink:href="#DejaVuSans-74" x="701.123047"/>
       <use xlink:href="#DejaVuSans-5f" x="740.332031"/>
       <use xlink:href="#DejaVuSans-6f" x="790.332031"/>
       <use xlink:href="#DejaVuSans-33" x="851.513672"/>
      </g>
     </g>
    </g>
    <g id="xtick_2">
     <g id="line2d_2">
      <g>
       <use xlink:href="#mf44bfca094" x="131.110275" y="288.430125" style="stroke: #000000; stroke-width: 0.8"/>
      </g>
     </g>
     <g id="text_2">
      <!-- aflplusplus_ast_o3_native -->
      <g transform="translate(19.297976 365.884784)rotate(-30)scale(0.1 -0.1)">
       <defs>
        <path id="DejaVuSans-6e" d="M 3513 2113 
L 3513 0 
L 2938 0 
L 2938 2094 
Q 2938 2591 2744 2837 
Q 2550 3084 2163 3084 
Q 1697 3084 1428 2787 
Q 1159 2491 1159 1978 
L 1159 0 
L 581 0 
L 581 3500 
L 1159 3500 
L 1159 2956 
Q 1366 3272 1645 3428 
Q 1925 3584 2291 3584 
Q 2894 3584 3203 3211 
Q 3513 2838 3513 2113 
z
" transform="scale(0.015625)"/>
        <path id="DejaVuSans-69" d="M 603 3500 
L 1178 3500 
L 1178 0 
L 603 0 
L 603 3500 
z
M 603 4863 
L 1178 4863 
L 1178 4134 
L 603 4134 
L 603 4863 
z
" transform="scale(0.015625)"/>
        <path id="DejaVuSans-76" d="M 191 3500 
L 800 3500 
L 1894 563 
L 2988 3500 
L 3597 3500 
L 2284 0 
L 1503 0 
L 191 3500 
z
" transform="scale(0.015625)"/>
        <path id="DejaVuSans-65" d="M 3597 1894 
L 3597 1613 
L 953 1613 
Q 991 1019 1311 708 
Q 1631 397 2203 397 
Q 2534 397 2845 478 
Q 3156 559 3463 722 
L 3463 178 
Q 3153 47 2828 -22 
Q 2503 -91 2169 -91 
Q 1331 -91 842 396 
Q 353 884 353 1716 
Q 353 2575 817 3079 
Q 1281 3584 2069 3584 
Q 2775 3584 3186 3129 
Q 3597 2675 3597 1894 
z
M 3022 2063 
Q 3016 2534 2758 2815 
Q 2500 3097 2075 3097 
Q 1594 3097 1305 2825 
Q 1016 2553 972 2059 
L 3022 2063 
z
" transform="scale(0.015625)"/>
       </defs>
       <use xlink:href="#DejaVuSans-61"/>
       <use xlink:href="#DejaVuSans-66" x="61.279297"/>
       <use xlink:href="#DejaVuSans-6c" x="96.484375"/>
       <use xlink:href="#DejaVuSans-70" x="124.267578"/>
       <use xlink:href="#DejaVuSans-6c" x="187.744141"/>
       <use xlink:href="#DejaVuSans-75" x="215.527344"/>
       <use xlink:href="#DejaVuSans-73" x="278.90625"/>
       <use xlink:href="#DejaVuSans-70" x="331.005859"/>
       <use xlink:href="#DejaVuSans-6c" x="394.482422"/>
       <use xlink:href="#DejaVuSans-75" x="422.265625"/>
       <use xlink:href="#DejaVuSans-73" x="485.644531"/>
       <use xlink:href="#DejaVuSans-5f" x="537.744141"/>
       <use xlink:href="#DejaVuSans-61" x="587.744141"/>
       <use xlink:href="#DejaVuSans-73" x="649.023438"/>
       <use xlink:href="#DejaVuSans-74" x="701.123047"/>
       <use xlink:href="#DejaVuSans-5f" x="740.332031"/>
       <use xlink:href="#DejaVuSans-6f" x="790.332031"/>
       <use xlink:href="#DejaVuSans-33" x="851.513672"/>
       <use xlink:href="#DejaVuSans-5f" x="915.136719"/>
       <use xlink:href="#DejaVuSans-6e" x="965.136719"/>
       <use xlink:href="#DejaVuSans-61" x="1028.515625"/>
       <use xlink:href="#DejaVuSans-74" x="1089.794922"/>
       <use xlink:href="#DejaVuSans-69" x="1129.003906"/>
       <use xlink:href="#DejaVuSans-76" x="1156.787109"/>
       <use xlink:href="#DejaVuSans-65" x="1215.966797"/>
      </g>
     </g>
    </g>
    <g id="xtick_3">
     <g id="line2d_3">
      <g>
       <use xlink:href="#mf44bfca094" x="170.790275" y="288.430125" style="stroke: #000000; stroke-width: 0.8"/>
      </g>
     </g>
     <g id="text_3">
      <!-- aflplusplus_ast_f0 -->
      <g transform="translate(92.609532 346.467596)rotate(-30)scale(0.1 -0.1)">
       <defs>
        <path id="DejaVuSans-30" d="M 2034 4250 
Q 1547 4250 1301 3770 
Q 1056 3291 1056 2328 
Q 1056 1369 1301 889 
Q 1547 409 2034 409 
Q 2525 409 2770 889 
Q 3016 1369 3016 2328 
Q 3016 3291 2770 3770 
Q 2525 4250 2034 4250 
z
M 2034 4750 
Q 2819 4750 3233 4129 
Q 3647 3509 3647 2328 
Q 3647 1150 3233 529 
Q 2819 -91 2034 -91 
Q 1250 -91 836 529 
Q 422 1150 422 2328 
Q 422 3509 836 4129 
Q 1250 4750 2034 4750 
z
" transform="scale(0.015625)"/>
       </defs>
       <use xlink:href="#DejaVuSans-61"/>
       <use xlink:href="#DejaVuSans-66" x="61.279297"/>
       <use xlink:href="#DejaVuSans-6c" x="96.484375"/>
       <use xlink:href="#DejaVuSans-70" x="124.267578"/>
       <use xlink:href="#DejaVuSans-6c" x="187.744141"/>
       <use xlink:href="#DejaVuSans-75" x="215.527344"/>
       <use xlink:href="#DejaVuSans-73" x="278.90625"/>
       <use xlink:href="#DejaVuSans-70" x="331.005859"/>
       <use xlink:href="#DejaVuSans-6c" x="394.482422"/>
       <use xlink:href="#DejaVuSans-75" x="422.265625"/>
       <use xlink:href="#DejaVuSans-73" x="485.644531"/>
       <use xlink:href="#DejaVuSans-5f" x="537.744141"/>
       <use xlink:href="#DejaVuSans-61" x="587.744141"/>
       <use xlink:href="#DejaVuSans-73" x="649.023438"/>
       <use xlink:href="#DejaVuSans-74" x="701.123047"/>
       <use xlink:href="#DejaVuSans-5f" x="740.332031"/>
       <use xlink:href="#DejaVuSans-66" x="790.332031"/>
       <use xlink:href="#DejaVuSans-30" x="825.537109"/>
      </g>
     </g>
    </g>
    <g id="xtick_4">
     <g id="line2d_4">
      <g>
       <use xlink:href="#mf44bfca094" x="210.470275" y="288.430125" style="stroke: #000000; stroke-width: 0.8"/>
      </g>
     </g>
     <g id="text_4">
      <!-- aflplusplus_ast_o0 -->
      <g transform="translate(130.039219 347.766815)rotate(-30)scale(0.1 -0.1)">
       <use xlink:href="#DejaVuSans-61"/>
       <use xlink:href="#DejaVuSans-66" x="61.279297"/>
       <use xlink:href="#DejaVuSans-6c" x="96.484375"/>
       <use xlink:href="#DejaVuSans-70" x="124.267578"/>
       <use xlink:href="#DejaVuSans-6c" x="187.744141"/>
       <use xlink:href="#DejaVuSans-75" x="215.527344"/>
       <use xlink:href="#DejaVuSans-73" x="278.90625"/>
       <use xlink:href="#DejaVuSans-70" x="331.005859"/>
       <use xlink:href="#DejaVuSans-6c" x="394.482422"/>
       <use xlink:href="#DejaVuSans-75" x="422.265625"/>
       <use xlink:href="#DejaVuSans-73" x="485.644531"/>
       <use xlink:href="#DejaVuSans-5f" x="537.744141"/>
       <use xlink:href="#DejaVuSans-61" x="587.744141"/>
       <use xlink:href="#DejaVuSans-73" x="649.023438"/>
       <use xlink:href="#DejaVuSans-74" x="701.123047"/>
       <use xlink:href="#DejaVuSans-5f" x="740.332031"/>
       <use xlink:href="#DejaVuSans-6f" x="790.332031"/>
       <use xlink:href="#DejaVuSans-30" x="851.513672"/>
      </g>
     </g>
    </g>
    <g id="xtick_5">
     <g id="line2d_5">
      <g>
       <use xlink:href="#mf44bfca094" x="250.150275" y="288.430125" style="stroke: #000000; stroke-width: 0.8"/>
      </g>
     </g>
     <g id="text_5">
      <!-- aflplusplus_ast_o1 -->
      <g transform="translate(169.719219 347.766815)rotate(-30)scale(0.1 -0.1)">
       <defs>
        <path id="DejaVuSans-31" d="M 794 531 
L 1825 531 
L 1825 4091 
L 703 3866 
L 703 4441 
L 1819 4666 
L 2450 4666 
L 2450 531 
L 3481 531 
L 3481 0 
L 794 0 
L 794 531 
z
" transform="scale(0.015625)"/>
       </defs>
       <use xlink:href="#DejaVuSans-61"/>
       <use xlink:href="#DejaVuSans-66" x="61.279297"/>
       <use xlink:href="#DejaVuSans-6c" x="96.484375"/>
       <use xlink:href="#DejaVuSans-70" x="124.267578"/>
       <use xlink:href="#DejaVuSans-6c" x="187.744141"/>
       <use xlink:href="#DejaVuSans-75" x="215.527344"/>
       <use xlink:href="#DejaVuSans-73" x="278.90625"/>
       <use xlink:href="#DejaVuSans-70" x="331.005859"/>
       <use xlink:href="#DejaVuSans-6c" x="394.482422"/>
       <use xlink:href="#DejaVuSans-75" x="422.265625"/>
       <use xlink:href="#DejaVuSans-73" x="485.644531"/>
       <use xlink:href="#DejaVuSans-5f" x="537.744141"/>
       <use xlink:href="#DejaVuSans-61" x="587.744141"/>
       <use xlink:href="#DejaVuSans-73" x="649.023438"/>
       <use xlink:href="#DejaVuSans-74" x="701.123047"/>
       <use xlink:href="#DejaVuSans-5f" x="740.332031"/>
       <use xlink:href="#DejaVuSans-6f" x="790.332031"/>
       <use xlink:href="#DejaVuSans-31" x="851.513672"/>
      </g>
     </g>
    </g>
    <g id="xtick_6">
     <g id="line2d_6">
      <g>
       <use xlink:href="#mf44bfca094" x="289.830275" y="288.430125" style="stroke: #000000; stroke-width: 0.8"/>
      </g>
     </g>
     <g id="text_6">
      <!-- aflplusplus_ast_opt_l1 -->
      <g transform="translate(193.770167 356.790252)rotate(-30)scale(0.1 -0.1)">
       <use xlink:href="#DejaVuSans-61"/>
       <use xlink:href="#DejaVuSans-66" x="61.279297"/>
       <use xlink:href="#DejaVuSans-6c" x="96.484375"/>
       <use xlink:href="#DejaVuSans-70" x="124.267578"/>
       <use xlink:href="#DejaVuSans-6c" x="187.744141"/>
       <use xlink:href="#DejaVuSans-75" x="215.527344"/>
       <use xlink:href="#DejaVuSans-73" x="278.90625"/>
       <use xlink:href="#DejaVuSans-70" x="331.005859"/>
       <use xlink:href="#DejaVuSans-6c" x="394.482422"/>
       <use xlink:href="#DejaVuSans-75" x="422.265625"/>
       <use xlink:href="#DejaVuSans-73" x="485.644531"/>
       <use xlink:href="#DejaVuSans-5f" x="537.744141"/>
       <use xlink:href="#DejaVuSans-61" x="587.744141"/>
       <use xlink:href="#DejaVuSans-73" x="649.023438"/>
       <use xlink:href="#DejaVuSans-74" x="701.123047"/>
       <use xlink:href="#DejaVuSans-5f" x="740.332031"/>
       <use xlink:href="#DejaVuSans-6f" x="790.332031"/>
       <use xlink:href="#DejaVuSans-70" x="851.513672"/>
       <use xlink:href="#DejaVuSans-74" x="914.990234"/>
       <use xlink:href="#DejaVuSans-5f" x="954.199219"/>
       <use xlink:href="#DejaVuSans-6c" x="1004.199219"/>
       <use xlink:href="#DejaVuSans-31" x="1031.982422"/>
      </g>
     </g>
    </g>
    <g id="xtick_7">
     <g id="line2d_7">
      <g>
       <use xlink:href="#mf44bfca094" x="329.510275" y="288.430125" style="stroke: #000000; stroke-width: 0.8"/>
      </g>
     </g>
     <g id="text_7">
      <!-- aflplusplus_ast_opt_disable -->
      <g transform="translate(210.411184 370.091815)rotate(-30)scale(0.1 -0.1)">
       <defs>
        <path id="DejaVuSans-64" d="M 2906 2969 
L 2906 4863 
L 3481 4863 
L 3481 0 
L 2906 0 
L 2906 525 
Q 2725 213 2448 61 
Q 2172 -91 1784 -91 
Q 1150 -91 751 415 
Q 353 922 353 1747 
Q 353 2572 751 3078 
Q 1150 3584 1784 3584 
Q 2172 3584 2448 3432 
Q 2725 3281 2906 2969 
z
M 947 1747 
Q 947 1113 1208 752 
Q 1469 391 1925 391 
Q 2381 391 2643 752 
Q 2906 1113 2906 1747 
Q 2906 2381 2643 2742 
Q 2381 3103 1925 3103 
Q 1469 3103 1208 2742 
Q 947 2381 947 1747 
z
" transform="scale(0.015625)"/>
        <path id="DejaVuSans-62" d="M 3116 1747 
Q 3116 2381 2855 2742 
Q 2594 3103 2138 3103 
Q 1681 3103 1420 2742 
Q 1159 2381 1159 1747 
Q 1159 1113 1420 752 
Q 1681 391 2138 391 
Q 2594 391 2855 752 
Q 3116 1113 3116 1747 
z
M 1159 2969 
Q 1341 3281 1617 3432 
Q 1894 3584 2278 3584 
Q 2916 3584 3314 3078 
Q 3713 2572 3713 1747 
Q 3713 922 3314 415 
Q 2916 -91 2278 -91 
Q 1894 -91 1617 61 
Q 1341 213 1159 525 
L 1159 0 
L 581 0 
L 581 4863 
L 1159 4863 
L 1159 2969 
z
" transform="scale(0.015625)"/>
       </defs>
       <use xlink:href="#DejaVuSans-61"/>
       <use xlink:href="#DejaVuSans-66" x="61.279297"/>
       <use xlink:href="#DejaVuSans-6c" x="96.484375"/>
       <use xlink:href="#DejaVuSans-70" x="124.267578"/>
       <use xlink:href="#DejaVuSans-6c" x="187.744141"/>
       <use xlink:href="#DejaVuSans-75" x="215.527344"/>
       <use xlink:href="#DejaVuSans-73" x="278.90625"/>
       <use xlink:href="#DejaVuSans-70" x="331.005859"/>
       <use xlink:href="#DejaVuSans-6c" x="394.482422"/>
       <use xlink:href="#DejaVuSans-75" x="422.265625"/>
       <use xlink:href="#DejaVuSans-73" x="485.644531"/>
       <use xlink:href="#DejaVuSans-5f" x="537.744141"/>
       <use xlink:href="#DejaVuSans-61" x="587.744141"/>
       <use xlink:href="#DejaVuSans-73" x="649.023438"/>
       <use xlink:href="#DejaVuSans-74" x="701.123047"/>
       <use xlink:href="#DejaVuSans-5f" x="740.332031"/>
       <use xlink:href="#DejaVuSans-6f" x="790.332031"/>
       <use xlink:href="#DejaVuSans-70" x="851.513672"/>
       <use xlink:href="#DejaVuSans-74" x="914.990234"/>
       <use xlink:href="#DejaVuSans-5f" x="954.199219"/>
       <use xlink:href="#DejaVuSans-64" x="1004.199219"/>
       <use xlink:href="#DejaVuSans-69" x="1067.675781"/>
       <use xlink:href="#DejaVuSans-73" x="1095.458984"/>
       <use xlink:href="#DejaVuSans-61" x="1147.558594"/>
       <use xlink:href="#DejaVuSans-62" x="1208.837891"/>
       <use xlink:href="#DejaVuSans-6c" x="1272.314453"/>
       <use xlink:href="#DejaVuSans-65" x="1300.097656"/>
      </g>
     </g>
    </g>
    <g id="xtick_8">
     <g id="line2d_8">
      <g>
       <use xlink:href="#mf44bfca094" x="369.190275" y="288.430125" style="stroke: #000000; stroke-width: 0.8"/>
      </g>
     </g>
     <g id="text_8">
      <!-- aflplusplus_ast_o2 -->
      <g transform="translate(288.759219 347.766815)rotate(-30)scale(0.1 -0.1)">
       <defs>
        <path id="DejaVuSans-32" d="M 1228 531 
L 3431 531 
L 3431 0 
L 469 0 
L 469 531 
Q 828 903 1448 1529 
Q 2069 2156 2228 2338 
Q 2531 2678 2651 2914 
Q 2772 3150 2772 3378 
Q 2772 3750 2511 3984 
Q 2250 4219 1831 4219 
Q 1534 4219 1204 4116 
Q 875 4013 500 3803 
L 500 4441 
Q 881 4594 1212 4672 
Q 1544 4750 1819 4750 
Q 2544 4750 2975 4387 
Q 3406 4025 3406 3419 
Q 3406 3131 3298 2873 
Q 3191 2616 2906 2266 
Q 2828 2175 2409 1742 
Q 1991 1309 1228 531 
z
" transform="scale(0.015625)"/>
       </defs>
       <use xlink:href="#DejaVuSans-61"/>
       <use xlink:href="#DejaVuSans-66" x="61.279297"/>
       <use xlink:href="#DejaVuSans-6c" x="96.484375"/>
       <use xlink:href="#DejaVuSans-70" x="124.267578"/>
       <use xlink:href="#DejaVuSans-6c" x="187.744141"/>
       <use xlink:href="#DejaVuSans-75" x="215.527344"/>
       <use xlink:href="#DejaVuSans-73" x="278.90625"/>
       <use xlink:href="#DejaVuSans-70" x="331.005859"/>
       <use xlink:href="#DejaVuSans-6c" x="394.482422"/>
       <use xlink:href="#DejaVuSans-75" x="422.265625"/>
       <use xlink:href="#DejaVuSans-73" x="485.644531"/>
       <use xlink:href="#DejaVuSans-5f" x="537.744141"/>
       <use xlink:href="#DejaVuSans-61" x="587.744141"/>
       <use xlink:href="#DejaVuSans-73" x="649.023438"/>
       <use xlink:href="#DejaVuSans-74" x="701.123047"/>
       <use xlink:href="#DejaVuSans-5f" x="740.332031"/>
       <use xlink:href="#DejaVuSans-6f" x="790.332031"/>
       <use xlink:href="#DejaVuSans-32" x="851.513672"/>
      </g>
     </g>
    </g>
    <g id="xtick_9">
     <g id="line2d_9">
      <g>
       <use xlink:href="#mf44bfca094" x="408.870275" y="288.430125" style="stroke: #000000; stroke-width: 0.8"/>
      </g>
     </g>
     <g id="text_9">
      <!-- aflplusplus_ast_f1 -->
      <g transform="translate(330.689532 346.467596)rotate(-30)scale(0.1 -0.1)">
       <use xlink:href="#DejaVuSans-61"/>
       <use xlink:href="#DejaVuSans-66" x="61.279297"/>
       <use xlink:href="#DejaVuSans-6c" x="96.484375"/>
       <use xlink:href="#DejaVuSans-70" x="124.267578"/>
       <use xlink:href="#DejaVuSans-6c" x="187.744141"/>
       <use xlink:href="#DejaVuSans-75" x="215.527344"/>
       <use xlink:href="#DejaVuSans-73" x="278.90625"/>
       <use xlink:href="#DejaVuSans-70" x="331.005859"/>
       <use xlink:href="#DejaVuSans-6c" x="394.482422"/>
       <use xlink:href="#DejaVuSans-75" x="422.265625"/>
       <use xlink:href="#DejaVuSans-73" x="485.644531"/>
       <use xlink:href="#DejaVuSans-5f" x="537.744141"/>
       <use xlink:href="#DejaVuSans-61" x="587.744141"/>
       <use xlink:href="#DejaVuSans-73" x="649.023438"/>
       <use xlink:href="#DejaVuSans-74" x="701.123047"/>
       <use xlink:href="#DejaVuSans-5f" x="740.332031"/>
       <use xlink:href="#DejaVuSans-66" x="790.332031"/>
       <use xlink:href="#DejaVuSans-31" x="825.537109"/>
      </g>
     </g>
    </g>
    <g id="text_10">
     <!-- Fuzzer (highest median coverage on the left) -->
     <g transform="translate(137.532306 383.732178)scale(0.1 -0.1)">
      <defs>
       <path id="DejaVuSans-46" d="M 628 4666 
L 3309 4666 
L 3309 4134 
L 1259 4134 
L 1259 2759 
L 3109 2759 
L 3109 2228 
L 1259 2228 
L 1259 0 
L 628 0 
L 628 4666 
z
" transform="scale(0.015625)"/>
       <path id="DejaVuSans-7a" d="M 353 3500 
L 3084 3500 
L 3084 2975 
L 922 459 
L 3084 459 
L 3084 0 
L 275 0 
L 275 525 
L 2438 3041 
L 353 3041 
L 353 3500 
z
" transform="scale(0.015625)"/>
       <path id="DejaVuSans-72" d="M 2631 2963 
Q 2534 3019 2420 3045 
Q 2306 3072 2169 3072 
Q 1681 3072 1420 2755 
Q 1159 2438 1159 1844 
L 1159 0 
L 581 0 
L 581 3500 
L 1159 3500 
L 1159 2956 
Q 1341 3275 1631 3429 
Q 1922 3584 2338 3584 
Q 2397 3584 2469 3576 
Q 2541 3569 2628 3553 
L 2631 2963 
z
" transform="scale(0.015625)"/>
       <path id="DejaVuSans-20" transform="scale(0.015625)"/>
       <path id="DejaVuSans-28" d="M 1984 4856 
Q 1566 4138 1362 3434 
Q 1159 2731 1159 2009 
Q 1159 1288 1364 580 
Q 1569 -128 1984 -844 
L 1484 -844 
Q 1016 -109 783 600 
Q 550 1309 550 2009 
Q 550 2706 781 3412 
Q 1013 4119 1484 4856 
L 1984 4856 
z
" transform="scale(0.015625)"/>
       <path id="DejaVuSans-68" d="M 3513 2113 
L 3513 0 
L 2938 0 
L 2938 2094 
Q 2938 2591 2744 2837 
Q 2550 3084 2163 3084 
Q 1697 3084 1428 2787 
Q 1159 2491 1159 1978 
L 1159 0 
L 581 0 
L 581 4863 
L 1159 4863 
L 1159 2956 
Q 1366 3272 1645 3428 
Q 1925 3584 2291 3584 
Q 2894 3584 3203 3211 
Q 3513 2838 3513 2113 
z
" transform="scale(0.015625)"/>
       <path id="DejaVuSans-67" d="M 2906 1791 
Q 2906 2416 2648 2759 
Q 2391 3103 1925 3103 
Q 1463 3103 1205 2759 
Q 947 2416 947 1791 
Q 947 1169 1205 825 
Q 1463 481 1925 481 
Q 2391 481 2648 825 
Q 2906 1169 2906 1791 
z
M 3481 434 
Q 3481 -459 3084 -895 
Q 2688 -1331 1869 -1331 
Q 1566 -1331 1297 -1286 
Q 1028 -1241 775 -1147 
L 775 -588 
Q 1028 -725 1275 -790 
Q 1522 -856 1778 -856 
Q 2344 -856 2625 -561 
Q 2906 -266 2906 331 
L 2906 616 
Q 2728 306 2450 153 
Q 2172 0 1784 0 
Q 1141 0 747 490 
Q 353 981 353 1791 
Q 353 2603 747 3093 
Q 1141 3584 1784 3584 
Q 2172 3584 2450 3431 
Q 2728 3278 2906 2969 
L 2906 3500 
L 3481 3500 
L 3481 434 
z
" transform="scale(0.015625)"/>
       <path id="DejaVuSans-6d" d="M 3328 2828 
Q 3544 3216 3844 3400 
Q 4144 3584 4550 3584 
Q 5097 3584 5394 3201 
Q 5691 2819 5691 2113 
L 5691 0 
L 5113 0 
L 5113 2094 
Q 5113 2597 4934 2840 
Q 4756 3084 4391 3084 
Q 3944 3084 3684 2787 
Q 3425 2491 3425 1978 
L 3425 0 
L 2847 0 
L 2847 2094 
Q 2847 2600 2669 2842 
Q 2491 3084 2119 3084 
Q 1678 3084 1418 2786 
Q 1159 2488 1159 1978 
L 1159 0 
L 581 0 
L 581 3500 
L 1159 3500 
L 1159 2956 
Q 1356 3278 1631 3431 
Q 1906 3584 2284 3584 
Q 2666 3584 2933 3390 
Q 3200 3197 3328 2828 
z
" transform="scale(0.015625)"/>
       <path id="DejaVuSans-63" d="M 3122 3366 
L 3122 2828 
Q 2878 2963 2633 3030 
Q 2388 3097 2138 3097 
Q 1578 3097 1268 2742 
Q 959 2388 959 1747 
Q 959 1106 1268 751 
Q 1578 397 2138 397 
Q 2388 397 2633 464 
Q 2878 531 3122 666 
L 3122 134 
Q 2881 22 2623 -34 
Q 2366 -91 2075 -91 
Q 1284 -91 818 406 
Q 353 903 353 1747 
Q 353 2603 823 3093 
Q 1294 3584 2113 3584 
Q 2378 3584 2631 3529 
Q 2884 3475 3122 3366 
z
" transform="scale(0.015625)"/>
       <path id="DejaVuSans-29" d="M 513 4856 
L 1013 4856 
Q 1481 4119 1714 3412 
Q 1947 2706 1947 2009 
Q 1947 1309 1714 600 
Q 1481 -109 1013 -844 
L 513 -844 
Q 928 -128 1133 580 
Q 1338 1288 1338 2009 
Q 1338 2731 1133 3434 
Q 928 4138 513 4856 
z
" transform="scale(0.015625)"/>
      </defs>
      <use xlink:href="#DejaVuSans-46"/>
      <use xlink:href="#DejaVuSans-75" x="52.019531"/>
      <use xlink:href="#DejaVuSans-7a" x="115.398438"/>
      <use xlink:href="#DejaVuSans-7a" x="167.888672"/>
      <use xlink:href="#DejaVuSans-65" x="220.378906"/>
      <use xlink:href="#DejaVuSans-72" x="281.902344"/>
      <use xlink:href="#DejaVuSans-20" x="323.015625"/>
      <use xlink:href="#DejaVuSans-28" x="354.802734"/>
      <use xlink:href="#DejaVuSans-68" x="393.816406"/>
      <use xlink:href="#DejaVuSans-69" x="457.195312"/>
      <use xlink:href="#DejaVuSans-67" x="484.978516"/>
      <use xlink:href="#DejaVuSans-68" x="548.455078"/>
      <use xlink:href="#DejaVuSans-65" x="611.833984"/>
      <use xlink:href="#DejaVuSans-73" x="673.357422"/>
      <use xlink:href="#DejaVuSans-74" x="725.457031"/>
      <use xlink:href="#DejaVuSans-20" x="764.666016"/>
      <use xlink:href="#DejaVuSans-6d" x="796.453125"/>
      <use xlink:href="#DejaVuSans-65" x="893.865234"/>
      <use xlink:href="#DejaVuSans-64" x="955.388672"/>
      <use xlink:href="#DejaVuSans-69" x="1018.865234"/>
      <use xlink:href="#DejaVuSans-61" x="1046.648438"/>
      <use xlink:href="#DejaVuSans-6e" x="1107.927734"/>
      <use xlink:href="#DejaVuSans-20" x="1171.306641"/>
      <use xlink:href="#DejaVuSans-63" x="1203.09375"/>
      <use xlink:href="#DejaVuSans-6f" x="1258.074219"/>
      <use xlink:href="#DejaVuSans-76" x="1319.255859"/>
      <use xlink:href="#DejaVuSans-65" x="1378.435547"/>
      <use xlink:href="#DejaVuSans-72" x="1439.958984"/>
      <use xlink:href="#DejaVuSans-61" x="1481.072266"/>
      <use xlink:href="#DejaVuSans-67" x="1542.351562"/>
      <use xlink:href="#DejaVuSans-65" x="1605.828125"/>
      <use xlink:href="#DejaVuSans-20" x="1667.351562"/>
      <use xlink:href="#DejaVuSans-6f" x="1699.138672"/>
      <use xlink:href="#DejaVuSans-6e" x="1760.320312"/>
      <use xlink:href="#DejaVuSans-20" x="1823.699219"/>
      <use xlink:href="#DejaVuSans-74" x="1855.486328"/>
      <use xlink:href="#DejaVuSans-68" x="1894.695312"/>
      <use xlink:href="#DejaVuSans-65" x="1958.074219"/>
      <use xlink:href="#DejaVuSans-20" x="2019.597656"/>
      <use xlink:href="#DejaVuSans-6c" x="2051.384766"/>
      <use xlink:href="#DejaVuSans-65" x="2079.167969"/>
      <use xlink:href="#DejaVuSans-66" x="2140.691406"/>
      <use xlink:href="#DejaVuSans-74" x="2174.146484"/>
      <use xlink:href="#DejaVuSans-29" x="2213.355469"/>
     </g>
    </g>
   </g>
   <g id="matplotlib.axis_2">
    <g id="ytick_1">
     <g id="line2d_10">
      <defs>
       <path id="m69f6f5cbdb" d="M 0 0 
L -3.5 0 
" style="stroke: #000000; stroke-width: 0.8"/>
      </defs>
      <g>
       <use xlink:href="#m69f6f5cbdb" x="71.590275" y="257.311653" style="stroke: #000000; stroke-width: 0.8"/>
      </g>
     </g>
     <g id="text_11">
      <!-- 500 -->
      <g transform="translate(45.502775 261.110872)scale(0.1 -0.1)">
       <defs>
        <path id="DejaVuSans-35" d="M 691 4666 
L 3169 4666 
L 3169 4134 
L 1269 4134 
L 1269 2991 
Q 1406 3038 1543 3061 
Q 1681 3084 1819 3084 
Q 2600 3084 3056 2656 
Q 3513 2228 3513 1497 
Q 3513 744 3044 326 
Q 2575 -91 1722 -91 
Q 1428 -91 1123 -41 
Q 819 9 494 109 
L 494 744 
Q 775 591 1075 516 
Q 1375 441 1709 441 
Q 2250 441 2565 725 
Q 2881 1009 2881 1497 
Q 2881 1984 2565 2268 
Q 2250 2553 1709 2553 
Q 1456 2553 1204 2497 
Q 953 2441 691 2322 
L 691 4666 
z
" transform="scale(0.015625)"/>
       </defs>
       <use xlink:href="#DejaVuSans-35"/>
       <use xlink:href="#DejaVuSans-30" x="63.623047"/>
       <use xlink:href="#DejaVuSans-30" x="127.246094"/>
      </g>
     </g>
    </g>
    <g id="ytick_2">
     <g id="line2d_11">
      <g>
       <use xlink:href="#m69f6f5cbdb" x="71.590275" y="223.161727" style="stroke: #000000; stroke-width: 0.8"/>
      </g>
     </g>
     <g id="text_12">
      <!-- 1000 -->
      <g transform="translate(39.140275 226.960946)scale(0.1 -0.1)">
       <use xlink:href="#DejaVuSans-31"/>
       <use xlink:href="#DejaVuSans-30" x="63.623047"/>
       <use xlink:href="#DejaVuSans-30" x="127.246094"/>
       <use xlink:href="#DejaVuSans-30" x="190.869141"/>
      </g>
     </g>
    </g>
    <g id="ytick_3">
     <g id="line2d_12">
      <g>
       <use xlink:href="#m69f6f5cbdb" x="71.590275" y="189.011802" style="stroke: #000000; stroke-width: 0.8"/>
      </g>
     </g>
     <g id="text_13">
      <!-- 1500 -->
      <g transform="translate(39.140275 192.811021)scale(0.1 -0.1)">
       <use xlink:href="#DejaVuSans-31"/>
       <use xlink:href="#DejaVuSans-35" x="63.623047"/>
       <use xlink:href="#DejaVuSans-30" x="127.246094"/>
       <use xlink:href="#DejaVuSans-30" x="190.869141"/>
      </g>
     </g>
    </g>
    <g id="ytick_4">
     <g id="line2d_13">
      <g>
       <use xlink:href="#m69f6f5cbdb" x="71.590275" y="154.861876" style="stroke: #000000; stroke-width: 0.8"/>
      </g>
     </g>
     <g id="text_14">
      <!-- 2000 -->
      <g transform="translate(39.140275 158.661095)scale(0.1 -0.1)">
       <use xlink:href="#DejaVuSans-32"/>
       <use xlink:href="#DejaVuSans-30" x="63.623047"/>
       <use xlink:href="#DejaVuSans-30" x="127.246094"/>
       <use xlink:href="#DejaVuSans-30" x="190.869141"/>
      </g>
     </g>
    </g>
    <g id="ytick_5">
     <g id="line2d_14">
      <g>
       <use xlink:href="#m69f6f5cbdb" x="71.590275" y="120.71195" style="stroke: #000000; stroke-width: 0.8"/>
      </g>
     </g>
     <g id="text_15">
      <!-- 2500 -->
      <g transform="translate(39.140275 124.511169)scale(0.1 -0.1)">
       <use xlink:href="#DejaVuSans-32"/>
       <use xlink:href="#DejaVuSans-35" x="63.623047"/>
       <use xlink:href="#DejaVuSans-30" x="127.246094"/>
       <use xlink:href="#DejaVuSans-30" x="190.869141"/>
      </g>
     </g>
    </g>
    <g id="ytick_6">
     <g id="line2d_15">
      <g>
       <use xlink:href="#m69f6f5cbdb" x="71.590275" y="86.562025" style="stroke: #000000; stroke-width: 0.8"/>
      </g>
     </g>
     <g id="text_16">
      <!-- 3000 -->
      <g transform="translate(39.140275 90.361244)scale(0.1 -0.1)">
       <use xlink:href="#DejaVuSans-33"/>
       <use xlink:href="#DejaVuSans-30" x="63.623047"/>
       <use xlink:href="#DejaVuSans-30" x="127.246094"/>
       <use xlink:href="#DejaVuSans-30" x="190.869141"/>
      </g>
     </g>
    </g>
    <g id="ytick_7">
     <g id="line2d_16">
      <g>
       <use xlink:href="#m69f6f5cbdb" x="71.590275" y="52.412099" style="stroke: #000000; stroke-width: 0.8"/>
      </g>
     </g>
     <g id="text_17">
      <!-- 3500 -->
      <g transform="translate(39.140275 56.211318)scale(0.1 -0.1)">
       <use xlink:href="#DejaVuSans-33"/>
       <use xlink:href="#DejaVuSans-35" x="63.623047"/>
       <use xlink:href="#DejaVuSans-30" x="127.246094"/>
       <use xlink:href="#DejaVuSans-30" x="190.869141"/>
      </g>
     </g>
    </g>
    <g id="text_18">
     <!-- Reached region coverage -->
     <g transform="translate(33.060587 219.136625)rotate(-90)scale(0.1 -0.1)">
      <defs>
       <path id="DejaVuSans-52" d="M 2841 2188 
Q 3044 2119 3236 1894 
Q 3428 1669 3622 1275 
L 4263 0 
L 3584 0 
L 2988 1197 
Q 2756 1666 2539 1819 
Q 2322 1972 1947 1972 
L 1259 1972 
L 1259 0 
L 628 0 
L 628 4666 
L 2053 4666 
Q 2853 4666 3247 4331 
Q 3641 3997 3641 3322 
Q 3641 2881 3436 2590 
Q 3231 2300 2841 2188 
z
M 1259 4147 
L 1259 2491 
L 2053 2491 
Q 2509 2491 2742 2702 
Q 2975 2913 2975 3322 
Q 2975 3731 2742 3939 
Q 2509 4147 2053 4147 
L 1259 4147 
z
" transform="scale(0.015625)"/>
      </defs>
      <use xlink:href="#DejaVuSans-52"/>
      <use xlink:href="#DejaVuSans-65" x="64.982422"/>
      <use xlink:href="#DejaVuSans-61" x="126.505859"/>
      <use xlink:href="#DejaVuSans-63" x="187.785156"/>
      <use xlink:href="#DejaVuSans-68" x="242.765625"/>
      <use xlink:href="#DejaVuSans-65" x="306.144531"/>
      <use xlink:href="#DejaVuSans-64" x="367.667969"/>
      <use xlink:href="#DejaVuSans-20" x="431.144531"/>
      <use xlink:href="#DejaVuSans-72" x="462.931641"/>
      <use xlink:href="#DejaVuSans-65" x="501.794922"/>
      <use xlink:href="#DejaVuSans-67" x="563.318359"/>
      <use xlink:href="#DejaVuSans-69" x="626.794922"/>
      <use xlink:href="#DejaVuSans-6f" x="654.578125"/>
      <use xlink:href="#DejaVuSans-6e" x="715.759766"/>
      <use xlink:href="#DejaVuSans-20" x="779.138672"/>
      <use xlink:href="#DejaVuSans-63" x="810.925781"/>
      <use xlink:href="#DejaVuSans-6f" x="865.90625"/>
      <use xlink:href="#DejaVuSans-76" x="927.087891"/>
      <use xlink:href="#DejaVuSans-65" x="986.267578"/>
      <use xlink:href="#DejaVuSans-72" x="1047.791016"/>
      <use xlink:href="#DejaVuSans-61" x="1088.904297"/>
      <use xlink:href="#DejaVuSans-67" x="1150.183594"/>
      <use xlink:href="#DejaVuSans-65" x="1213.660156"/>
     </g>
    </g>
   </g>
   <g id="line2d_17">
    <path d="M 91.430275 130.20563 
L 91.430275 92.162613 
" clip-path="url(#p873048885f)" style="fill: none; stroke: #3d3d3d; stroke-width: 1.5; stroke-linecap: square"/>
   </g>
   <g id="line2d_18">
    <path d="M 91.430275 129.727531 
L 91.430275 109.4254 
" clip-path="url(#p873048885f)" style="fill: none; stroke: #3d3d3d; stroke-width: 4.5; stroke-linecap: square"/>
   </g>
   <g id="line2d_19">
    <path d="M 131.110275 130.683729 
L 131.110275 92.026013 
" clip-path="url(#p873048885f)" style="fill: none; stroke: #3d3d3d; stroke-width: 1.5; stroke-linecap: square"/>
   </g>
   <g id="line2d_20">
    <path d="M 131.110275 126.876012 
L 131.110275 102.663715 
" clip-path="url(#p873048885f)" style="fill: none; stroke: #3d3d3d; stroke-width: 4.5; stroke-linecap: square"/>
   </g>
   <g id="line2d_21">
    <path d="M 170.790275 132.732724 
L 170.790275 103.773587 
" clip-path="url(#p873048885f)" style="fill: none; stroke: #3d3d3d; stroke-width: 1.5; stroke-linecap: square"/>
   </g>
   <g id="line2d_22">
    <path d="M 170.790275 131.469177 
L 170.790275 120.353376 
" clip-path="url(#p873048885f)" style="fill: none; stroke: #3d3d3d; stroke-width: 4.5; stroke-linecap: square"/>
   </g>
   <g id="line2d_23">
    <path d="M 210.470275 132.254625 
L 210.470275 124.331843 
" clip-path="url(#p873048885f)" style="fill: none; stroke: #3d3d3d; stroke-width: 1.5; stroke-linecap: square"/>
   </g>
   <g id="line2d_24">
    <path d="M 210.470275 131.827751 
L 210.470275 124.605042 
" clip-path="url(#p873048885f)" style="fill: none; stroke: #3d3d3d; stroke-width: 4.5; stroke-linecap: square"/>
   </g>
   <g id="line2d_25">
    <path d="M 250.150275 207.452762 
L 250.150275 124.946541 
" clip-path="url(#p873048885f)" style="fill: none; stroke: #3d3d3d; stroke-width: 1.5; stroke-linecap: square"/>
   </g>
   <g id="line2d_26">
    <path d="M 250.150275 189.302076 
L 250.150275 132.44245 
" clip-path="url(#p873048885f)" style="fill: none; stroke: #3d3d3d; stroke-width: 4.5; stroke-linecap: square"/>
   </g>
   <g id="line2d_27">
    <path d="M 289.830275 145.094997 
L 289.830275 140.040808 
" clip-path="url(#p873048885f)" style="fill: none; stroke: #3d3d3d; stroke-width: 1.5; stroke-linecap: square"/>
   </g>
   <g id="line2d_28">
    <path d="M 289.830275 144.480299 
L 289.830275 140.416458 
" clip-path="url(#p873048885f)" style="fill: none; stroke: #3d3d3d; stroke-width: 4.5; stroke-linecap: square"/>
   </g>
   <g id="line2d_29">
    <path d="M 329.510275 145.709696 
L 329.510275 139.972509 
" clip-path="url(#p873048885f)" style="fill: none; stroke: #3d3d3d; stroke-width: 1.5; stroke-linecap: square"/>
   </g>
   <g id="line2d_30">
    <path d="M 329.510275 144.10465 
L 329.510275 140.416458 
" clip-path="url(#p873048885f)" style="fill: none; stroke: #3d3d3d; stroke-width: 4.5; stroke-linecap: square"/>
   </g>
   <g id="line2d_31">
    <path d="M 369.190275 204.993967 
L 369.190275 117.979956 
" clip-path="url(#p873048885f)" style="fill: none; stroke: #3d3d3d; stroke-width: 1.5; stroke-linecap: square"/>
   </g>
   <g id="line2d_32">
    <path d="M 369.190275 202.825447 
L 369.190275 126.107639 
" clip-path="url(#p873048885f)" style="fill: none; stroke: #3d3d3d; stroke-width: 4.5; stroke-linecap: square"/>
   </g>
   <g id="line2d_33">
    <path d="M 408.870275 206.428264 
L 408.870275 104.319986 
" clip-path="url(#p873048885f)" style="fill: none; stroke: #3d3d3d; stroke-width: 1.5; stroke-linecap: square"/>
   </g>
   <g id="line2d_34">
    <path d="M 408.870275 204.771992 
L 408.870275 113.83074 
" clip-path="url(#p873048885f)" style="fill: none; stroke: #3d3d3d; stroke-width: 4.5; stroke-linecap: square"/>
   </g>
   <g id="patch_3">
    <path d="M 71.590275 257.311653 
L 71.590275 52.412099 
" style="fill: none; stroke: #000000; stroke-width: 0.8; stroke-linejoin: miter; stroke-linecap: square"/>
   </g>
   <g id="patch_4">
    <path d="M 91.430275 288.430125 
L 408.870275 288.430125 
" style="fill: none; stroke: #000000; stroke-width: 0.8; stroke-linejoin: miter; stroke-linecap: square"/>
   </g>
   <g id="PathCollection_1">
    <defs>
     <path id="m55b4054b3f" d="M 0 1.5 
C 0.397805 1.5 0.77937 1.341951 1.06066 1.06066 
C 1.341951 0.77937 1.5 0.397805 1.5 0 
C 1.5 -0.397805 1.341951 -0.77937 1.06066 -1.06066 
C 0.77937 -1.341951 0.397805 -1.5 0 -1.5 
C -0.397805 -1.5 -0.77937 -1.341951 -1.06066 -1.06066 
C -1.341951 -0.77937 -1.5 -0.397805 -1.5 0 
C -1.5 0.397805 -1.341951 0.77937 -1.06066 1.06066 
C -0.77937 1.341951 -0.397805 1.5 0 1.5 
z
" style="stroke: #3d3d3d"/>
    </defs>
    <g clip-path="url(#p873048885f)">
     <use xlink:href="#m55b4054b3f" x="91.430275" y="121.702298" style="fill: #ffffff; stroke: #3d3d3d"/>
    </g>
   </g>
   <g id="PathCollection_2">
    <g clip-path="url(#p873048885f)">
     <use xlink:href="#m55b4054b3f" x="131.110275" y="125.52709" style="fill: #ffffff; stroke: #3d3d3d"/>
    </g>
   </g>
   <g id="PathCollection_3">
    <g clip-path="url(#p873048885f)">
     <use xlink:href="#m55b4054b3f" x="170.790275" y="126.858937" style="fill: #ffffff; stroke: #3d3d3d"/>
    </g>
   </g>
   <g id="PathCollection_4">
    <g clip-path="url(#p873048885f)">
     <use xlink:href="#m55b4054b3f" x="210.470275" y="127.985885" style="fill: #ffffff; stroke: #3d3d3d"/>
    </g>
   </g>
   <g id="PathCollection_5">
    <g clip-path="url(#p873048885f)">
     <use xlink:href="#m55b4054b3f" x="250.150275" y="141.509255" style="fill: #ffffff; stroke: #3d3d3d"/>
    </g>
   </g>
   <g id="PathCollection_6">
    <g clip-path="url(#p873048885f)">
     <use xlink:href="#m55b4054b3f" x="289.830275" y="142.397153" style="fill: #ffffff; stroke: #3d3d3d"/>
    </g>
   </g>
   <g id="PathCollection_7">
    <g clip-path="url(#p873048885f)">
     <use xlink:href="#m55b4054b3f" x="329.510275" y="142.670353" style="fill: #ffffff; stroke: #3d3d3d"/>
    </g>
   </g>
   <g id="PathCollection_8">
    <g clip-path="url(#p873048885f)">
     <use xlink:href="#m55b4054b3f" x="369.190275" y="161.726011" style="fill: #ffffff; stroke: #3d3d3d"/>
    </g>
   </g>
   <g id="PathCollection_9">
    <g clip-path="url(#p873048885f)">
     <use xlink:href="#m55b4054b3f" x="408.870275" y="171.39044" style="fill: #ffffff; stroke: #3d3d3d"/>
    </g>
   </g>
   <g id="text_19">
    <!-- lcms-2017-03-21 (4h:15m, 6 trials/fuzzer) -->
    <g transform="translate(124.585275 16.318125)scale(0.12 -0.12)">
     <defs>
      <path id="DejaVuSans-2d" d="M 313 2009 
L 1997 2009 
L 1997 1497 
L 313 1497 
L 313 2009 
z
" transform="scale(0.015625)"/>
      <path id="DejaVuSans-37" d="M 525 4666 
L 3525 4666 
L 3525 4397 
L 1831 0 
L 1172 0 
L 2766 4134 
L 525 4134 
L 525 4666 
z
" transform="scale(0.015625)"/>
      <path id="DejaVuSans-34" d="M 2419 4116 
L 825 1625 
L 2419 1625 
L 2419 4116 
z
M 2253 4666 
L 3047 4666 
L 3047 1625 
L 3713 1625 
L 3713 1100 
L 3047 1100 
L 3047 0 
L 2419 0 
L 2419 1100 
L 313 1100 
L 313 1709 
L 2253 4666 
z
" transform="scale(0.015625)"/>
      <path id="DejaVuSans-3a" d="M 750 794 
L 1409 794 
L 1409 0 
L 750 0 
L 750 794 
z
M 750 3309 
L 1409 3309 
L 1409 2516 
L 750 2516 
L 750 3309 
z
" transform="scale(0.015625)"/>
      <path id="DejaVuSans-2c" d="M 750 794 
L 1409 794 
L 1409 256 
L 897 -744 
L 494 -744 
L 750 256 
L 750 794 
z
" transform="scale(0.015625)"/>
      <path id="DejaVuSans-36" d="M 2113 2584 
Q 1688 2584 1439 2293 
Q 1191 2003 1191 1497 
Q 1191 994 1439 701 
Q 1688 409 2113 409 
Q 2538 409 2786 701 
Q 3034 994 3034 1497 
Q 3034 2003 2786 2293 
Q 2538 2584 2113 2584 
z
M 3366 4563 
L 3366 3988 
Q 3128 4100 2886 4159 
Q 2644 4219 2406 4219 
Q 1781 4219 1451 3797 
Q 1122 3375 1075 2522 
Q 1259 2794 1537 2939 
Q 1816 3084 2150 3084 
Q 2853 3084 3261 2657 
Q 3669 2231 3669 1497 
Q 3669 778 3244 343 
Q 2819 -91 2113 -91 
Q 1303 -91 875 529 
Q 447 1150 447 2328 
Q 447 3434 972 4092 
Q 1497 4750 2381 4750 
Q 2619 4750 2861 4703 
Q 3103 4656 3366 4563 
z
" transform="scale(0.015625)"/>
      <path id="DejaVuSans-2f" d="M 1625 4666 
L 2156 4666 
L 531 -594 
L 0 -594 
L 1625 4666 
z
" transform="scale(0.015625)"/>
     </defs>
     <use xlink:href="#DejaVuSans-6c"/>
     <use xlink:href="#DejaVuSans-63" x="27.783203"/>
     <use xlink:href="#DejaVuSans-6d" x="82.763672"/>
     <use xlink:href="#DejaVuSans-73" x="180.175781"/>
     <use xlink:href="#DejaVuSans-2d" x="232.275391"/>
     <use xlink:href="#DejaVuSans-32" x="268.359375"/>
     <use xlink:href="#DejaVuSans-30" x="331.982422"/>
     <use xlink:href="#DejaVuSans-31" x="395.605469"/>
     <use xlink:href="#DejaVuSans-37" x="459.228516"/>
     <use xlink:href="#DejaVuSans-2d" x="522.851562"/>
     <use xlink:href="#DejaVuSans-30" x="558.935547"/>
     <use xlink:href="#DejaVuSans-33" x="622.558594"/>
     <use xlink:href="#DejaVuSans-2d" x="686.181641"/>
     <use xlink:href="#DejaVuSans-32" x="722.265625"/>
     <use xlink:href="#DejaVuSans-31" x="785.888672"/>
     <use xlink:href="#DejaVuSans-20" x="849.511719"/>
     <use xlink:href="#DejaVuSans-28" x="881.298828"/>
     <use xlink:href="#DejaVuSans-34" x="920.3125"/>
     <use xlink:href="#DejaVuSans-68" x="983.935547"/>
     <use xlink:href="#DejaVuSans-3a" x="1047.314453"/>
     <use xlink:href="#DejaVuSans-31" x="1081.005859"/>
     <use xlink:href="#DejaVuSans-35" x="1144.628906"/>
     <use xlink:href="#DejaVuSans-6d" x="1208.251953"/>
     <use xlink:href="#DejaVuSans-2c" x="1305.664062"/>
     <use xlink:href="#DejaVuSans-20" x="1337.451172"/>
     <use xlink:href="#DejaVuSans-36" x="1369.238281"/>
     <use xlink:href="#DejaVuSans-20" x="1432.861328"/>
     <use xlink:href="#DejaVuSans-74" x="1464.648438"/>
     <use xlink:href="#DejaVuSans-72" x="1503.857422"/>
     <use xlink:href="#DejaVuSans-69" x="1544.970703"/>
     <use xlink:href="#DejaVuSans-61" x="1572.753906"/>
     <use xlink:href="#DejaVuSans-6c" x="1634.033203"/>
     <use xlink:href="#DejaVuSans-73" x="1661.816406"/>
     <use xlink:href="#DejaVuSans-2f" x="1713.916016"/>
     <use xlink:href="#DejaVuSans-66" x="1747.607422"/>
     <use xlink:href="#DejaVuSans-75" x="1782.8125"/>
     <use xlink:href="#DejaVuSans-7a" x="1846.191406"/>
     <use xlink:href="#DejaVuSans-7a" x="1898.681641"/>
     <use xlink:href="#DejaVuSans-65" x="1951.171875"/>
     <use xlink:href="#DejaVuSans-72" x="2012.695312"/>
     <use xlink:href="#DejaVuSans-29" x="2053.808594"/>
    </g>
   </g>
  </g>
 </g>
 <defs>
  <clipPath id="p873048885f">
   <rect x="71.590275" y="22.318125" width="357.12" height="266.112"/>
  </clipPath>
 </defs>
</svg>
