<?xml version="1.0" encoding="utf-8" standalone="no"?>
<!DOCTYPE svg PUBLIC "-//W3C//DTD SVG 1.1//EN"
  "http://www.w3.org/Graphics/SVG/1.1/DTD/svg11.dtd">
<svg xmlns:xlink="http://www.w3.org/1999/xlink" width="448.860412pt" height="388.804834pt" viewBox="0 0 448.860412 388.804834" xmlns="http://www.w3.org/2000/svg" version="1.1">
 <metadata>
  <rdf:RDF xmlns:dc="http://purl.org/dc/elements/1.1/" xmlns:cc="http://creativecommons.org/ns#" xmlns:rdf="http://www.w3.org/1999/02/22-rdf-syntax-ns#">
   <cc:Work>
    <dc:type rdf:resource="http://purl.org/dc/dcmitype/StillImage"/>
    <dc:date>2022-06-05T20:13:03.224132</dc:date>
    <dc:format>image/svg+xml</dc:format>
    <dc:creator>
     <cc:Agent>
      <dc:title>Matplotlib v3.5.1, https://matplotlib.org/</dc:title>
     </cc:Agent>
    </dc:creator>
   </cc:Work>
  </rdf:RDF>
 </metadata>
 <defs>
  <style type="text/css">*{stroke-linejoin: round; stroke-linecap: butt}</style>
 </defs>
 <g id="figure_1">
  <g id="patch_1">
   <path d="M 0 388.804834 
L 448.860412 388.804834 
L 448.860412 0 
L 0 0 
z
" style="fill: #ffffff"/>
  </g>
  <g id="axes_1">
   <g id="patch_2">
    <path d="M 84.540412 288.430125 
L 441.660412 288.430125 
L 441.660412 22.318125 
L 84.540412 22.318125 
z
" style="fill: #ffffff"/>
   </g>
   <g id="PolyCollection_1">
    <defs>
     <path id="m545c66440e" d="M 106.911994 -139.04115 
L 106.80883 -139.04115 
L 106.802077 -141.080061 
L 106.794692 -143.118971 
L 106.786654 -145.157881 
L 106.777948 -147.196792 
L 106.768565 -149.235702 
L 106.7585 -151.274612 
L 106.747759 -153.313522 
L 106.736354 -155.352433 
L 106.724304 -157.391343 
L 106.711639 -159.430253 
L 106.698397 -161.469164 
L 106.684624 -163.508074 
L 106.670375 -165.546984 
L 106.655714 -167.585894 
L 106.640709 -169.624805 
L 106.625438 -171.663715 
L 106.609982 -173.702625 
L 106.594425 -175.741536 
L 106.578856 -177.780446 
L 106.563362 -179.819356 
L 106.548028 -181.858266 
L 106.532936 -183.897177 
L 106.518163 -185.936087 
L 106.503779 -187.974997 
L 106.489843 -190.013907 
L 106.476403 -192.052818 
L 106.463494 -194.091728 
L 106.451138 -196.130638 
L 106.439342 -198.169549 
L 106.428096 -200.208459 
L 106.417374 -202.247369 
L 106.407137 -204.286279 
L 106.397329 -206.32519 
L 106.387881 -208.3641 
L 106.378712 -210.40301 
L 106.369731 -212.441921 
L 106.36084 -214.480831 
L 106.351937 -216.519741 
L 106.342916 -218.558651 
L 106.333676 -220.597562 
L 106.32412 -222.636472 
L 106.314161 -224.675382 
L 106.303722 -226.714293 
L 106.292743 -228.753203 
L 106.281183 -230.792113 
L 106.26902 -232.831023 
L 106.256256 -234.869934 
L 106.242919 -236.908844 
L 106.22906 -238.947754 
L 106.214758 -240.986664 
L 106.200116 -243.025575 
L 106.185262 -245.064485 
L 106.170347 -247.103395 
L 106.155542 -249.142306 
L 106.141034 -251.181216 
L 106.127026 -253.220126 
L 106.11373 -255.259036 
L 106.101362 -257.297947 
L 106.09014 -259.336857 
L 106.080279 -261.375767 
L 106.071983 -263.414678 
L 106.065447 -265.453588 
L 106.060844 -267.492498 
L 106.058329 -269.531408 
L 106.05803 -271.570319 
L 106.060049 -273.609229 
L 106.064458 -275.648139 
L 106.071296 -277.68705 
L 106.080569 -279.72596 
L 106.092253 -281.76487 
L 106.106288 -283.80378 
L 106.122588 -285.842691 
L 106.141032 -287.881601 
L 106.161477 -289.920511 
L 106.183754 -291.959421 
L 106.207675 -293.998332 
L 106.233034 -296.037242 
L 106.259613 -298.076152 
L 106.287185 -300.115063 
L 106.315519 -302.153973 
L 106.344384 -304.192883 
L 106.37355 -306.231793 
L 106.402795 -308.270704 
L 106.431907 -310.309614 
L 106.460688 -312.348524 
L 106.488951 -314.387435 
L 106.51653 -316.426345 
L 106.543277 -318.465255 
L 106.569061 -320.504165 
L 106.593773 -322.543076 
L 106.617326 -324.581986 
L 106.639649 -326.620896 
L 106.660692 -328.659806 
L 106.680425 -330.698717 
L 106.698833 -332.737627 
L 106.715917 -334.776537 
L 106.731693 -336.815448 
L 106.746189 -338.854358 
L 106.759443 -340.893268 
L 106.96138 -340.893268 
L 106.96138 -340.893268 
L 106.974635 -338.854358 
L 106.989131 -336.815448 
L 107.004907 -334.776537 
L 107.021991 -332.737627 
L 107.040399 -330.698717 
L 107.060131 -328.659806 
L 107.081175 -326.620896 
L 107.103498 -324.581986 
L 107.12705 -322.543076 
L 107.151763 -320.504165 
L 107.177547 -318.465255 
L 107.204293 -316.426345 
L 107.231873 -314.387435 
L 107.260136 -312.348524 
L 107.288916 -310.309614 
L 107.318028 -308.270704 
L 107.347274 -306.231793 
L 107.37644 -304.192883 
L 107.405304 -302.153973 
L 107.433639 -300.115063 
L 107.461211 -298.076152 
L 107.48779 -296.037242 
L 107.513148 -293.998332 
L 107.537069 -291.959421 
L 107.559346 -289.920511 
L 107.579791 -287.881601 
L 107.598236 -285.842691 
L 107.614535 -283.80378 
L 107.628571 -281.76487 
L 107.640255 -279.72596 
L 107.649528 -277.68705 
L 107.656365 -275.648139 
L 107.660774 -273.609229 
L 107.662793 -271.570319 
L 107.662495 -269.531408 
L 107.65998 -267.492498 
L 107.655377 -265.453588 
L 107.64884 -263.414678 
L 107.640545 -261.375767 
L 107.630684 -259.336857 
L 107.619462 -257.297947 
L 107.607094 -255.259036 
L 107.593797 -253.220126 
L 107.579789 -251.181216 
L 107.565282 -249.142306 
L 107.550476 -247.103395 
L 107.535561 -245.064485 
L 107.520707 -243.025575 
L 107.506065 -240.986664 
L 107.491763 -238.947754 
L 107.477904 -236.908844 
L 107.464567 -234.869934 
L 107.451804 -232.831023 
L 107.439641 -230.792113 
L 107.42808 -228.753203 
L 107.417102 -226.714293 
L 107.406663 -224.675382 
L 107.396703 -222.636472 
L 107.387148 -220.597562 
L 107.377908 -218.558651 
L 107.368887 -216.519741 
L 107.359983 -214.480831 
L 107.351092 -212.441921 
L 107.342111 -210.40301 
L 107.332942 -208.3641 
L 107.323494 -206.32519 
L 107.313686 -204.286279 
L 107.303449 -202.247369 
L 107.292728 -200.208459 
L 107.281482 -198.169549 
L 107.269685 -196.130638 
L 107.25733 -194.091728 
L 107.244421 -192.052818 
L 107.230981 -190.013907 
L 107.217044 -187.974997 
L 107.20266 -185.936087 
L 107.187888 -183.897177 
L 107.172796 -181.858266 
L 107.157462 -179.819356 
L 107.141967 -177.780446 
L 107.126398 -175.741536 
L 107.110842 -173.702625 
L 107.095386 -171.663715 
L 107.080114 -169.624805 
L 107.06511 -167.585894 
L 107.050448 -165.546984 
L 107.036199 -163.508074 
L 107.022426 -161.469164 
L 107.009184 -159.430253 
L 106.99652 -157.391343 
L 106.98447 -155.352433 
L 106.973064 -153.313522 
L 106.962323 -151.274612 
L 106.952259 -149.235702 
L 106.942875 -147.196792 
L 106.934169 -145.157881 
L 106.926132 -143.118971 
L 106.918747 -141.080061 
L 106.911994 -139.04115 
z
" style="stroke: #3d3d3d; stroke-width: 1.5"/>
    </defs>
    <g clip-path="url(#p2b0e0b4beb)">
     <use xlink:href="#m545c66440e" x="0" y="388.804834" style="fill: #d1d197; stroke: #3d3d3d; stroke-width: 1.5"/>
    </g>
   </g>
   <g id="PolyCollection_2">
    <defs>
     <path id="mfa6e0857d2" d="M 152.400451 -268.414561 
L 150.600372 -268.414561 
L 150.470567 -268.571557 
L 150.326656 -268.728553 
L 150.167868 -268.885548 
L 149.993508 -269.042544 
L 149.80298 -269.19954 
L 149.595809 -269.356536 
L 149.371665 -269.513531 
L 149.130379 -269.670527 
L 148.87197 -269.827523 
L 148.596664 -269.984519 
L 148.304907 -270.141514 
L 147.997383 -270.29851 
L 147.675024 -270.455506 
L 147.339017 -270.612501 
L 146.990806 -270.769497 
L 146.632088 -270.926493 
L 146.264804 -271.083489 
L 145.891126 -271.240484 
L 145.513436 -271.39748 
L 145.1343 -271.554476 
L 144.756434 -271.711471 
L 144.38267 -271.868467 
L 144.015909 -272.025463 
L 143.659083 -272.182459 
L 143.315099 -272.339454 
L 142.986795 -272.49645 
L 142.676882 -272.653446 
L 142.3879 -272.810442 
L 142.122166 -272.967437 
L 141.881728 -273.124433 
L 141.668327 -273.281429 
L 141.483361 -273.438424 
L 141.327853 -273.59542 
L 141.202437 -273.752416 
L 141.107341 -273.909412 
L 141.042386 -274.066407 
L 141.006992 -274.223403 
L 141.000193 -274.380399 
L 141.020662 -274.537394 
L 141.066744 -274.69439 
L 141.136496 -274.851386 
L 141.227735 -275.008382 
L 141.338088 -275.165377 
L 141.465054 -275.322373 
L 141.606055 -275.479369 
L 141.758504 -275.636365 
L 141.919855 -275.79336 
L 142.087668 -275.950356 
L 142.259654 -276.107352 
L 142.433725 -276.264347 
L 142.608034 -276.421343 
L 142.781008 -276.578339 
L 142.951366 -276.735335 
L 143.118144 -276.89233 
L 143.280691 -277.049326 
L 143.438671 -277.206322 
L 143.592046 -277.363317 
L 143.741062 -277.520313 
L 143.886214 -277.677309 
L 144.028216 -277.834305 
L 144.16796 -277.9913 
L 144.306475 -278.148296 
L 144.444879 -278.305292 
L 144.584335 -278.462288 
L 144.726004 -278.619283 
L 144.871005 -278.776279 
L 145.02037 -278.933275 
L 145.175015 -279.09027 
L 145.335702 -279.247266 
L 145.503019 -279.404262 
L 145.677362 -279.561258 
L 145.858923 -279.718253 
L 146.047685 -279.875249 
L 146.243423 -280.032245 
L 146.445714 -280.18924 
L 146.653949 -280.346236 
L 146.867351 -280.503232 
L 147.085001 -280.660228 
L 147.305857 -280.817223 
L 147.528786 -280.974219 
L 147.752592 -281.131215 
L 147.976044 -281.288211 
L 148.197905 -281.445206 
L 148.41696 -281.602202 
L 148.632036 -281.759198 
L 148.842032 -281.916193 
L 149.045931 -282.073189 
L 149.242819 -282.230185 
L 149.431897 -282.387181 
L 149.612489 -282.544176 
L 149.784047 -282.701172 
L 149.946153 -282.858168 
L 150.098517 -283.015163 
L 150.240974 -283.172159 
L 150.373476 -283.329155 
L 150.496082 -283.486151 
L 150.608953 -283.643146 
L 150.712334 -283.800142 
L 150.806547 -283.957138 
L 152.194276 -283.957138 
L 152.194276 -283.957138 
L 152.28849 -283.800142 
L 152.391871 -283.643146 
L 152.504741 -283.486151 
L 152.627348 -283.329155 
L 152.759849 -283.172159 
L 152.902306 -283.015163 
L 153.054671 -282.858168 
L 153.216777 -282.701172 
L 153.388335 -282.544176 
L 153.568927 -282.387181 
L 153.758004 -282.230185 
L 153.954892 -282.073189 
L 154.158791 -281.916193 
L 154.368787 -281.759198 
L 154.583864 -281.602202 
L 154.802918 -281.445206 
L 155.02478 -281.288211 
L 155.248232 -281.131215 
L 155.472038 -280.974219 
L 155.694967 -280.817223 
L 155.915823 -280.660228 
L 156.133472 -280.503232 
L 156.346875 -280.346236 
L 156.55511 -280.18924 
L 156.757401 -280.032245 
L 156.953139 -279.875249 
L 157.1419 -279.718253 
L 157.323462 -279.561258 
L 157.497805 -279.404262 
L 157.665122 -279.247266 
L 157.825809 -279.09027 
L 157.980453 -278.933275 
L 158.129819 -278.776279 
L 158.27482 -278.619283 
L 158.416489 -278.462288 
L 158.555944 -278.305292 
L 158.694348 -278.148296 
L 158.832863 -277.9913 
L 158.972608 -277.834305 
L 159.11461 -277.677309 
L 159.259762 -277.520313 
L 159.408777 -277.363317 
L 159.562153 -277.206322 
L 159.720132 -277.049326 
L 159.882679 -276.89233 
L 160.049457 -276.735335 
L 160.219816 -276.578339 
L 160.392789 -276.421343 
L 160.567098 -276.264347 
L 160.74117 -276.107352 
L 160.913156 -275.950356 
L 161.080968 -275.79336 
L 161.24232 -275.636365 
L 161.394768 -275.479369 
L 161.53577 -275.322373 
L 161.662735 -275.165377 
L 161.773089 -275.008382 
L 161.864327 -274.851386 
L 161.934079 -274.69439 
L 161.980161 -274.537394 
L 162.00063 -274.380399 
L 161.993831 -274.223403 
L 161.958437 -274.066407 
L 161.893483 -273.909412 
L 161.798387 -273.752416 
L 161.672971 -273.59542 
L 161.517463 -273.438424 
L 161.332496 -273.281429 
L 161.119095 -273.124433 
L 160.878658 -272.967437 
L 160.612923 -272.810442 
L 160.323941 -272.653446 
L 160.014029 -272.49645 
L 159.685724 -272.339454 
L 159.341741 -272.182459 
L 158.984915 -272.025463 
L 158.618154 -271.868467 
L 158.244389 -271.711471 
L 157.866523 -271.554476 
L 157.487387 -271.39748 
L 157.109698 -271.240484 
L 156.73602 -271.083489 
L 156.368736 -270.926493 
L 156.010017 -270.769497 
L 155.661806 -270.612501 
L 155.325799 -270.455506 
L 155.003441 -270.29851 
L 154.695917 -270.141514 
L 154.40416 -269.984519 
L 154.128853 -269.827523 
L 153.870445 -269.670527 
L 153.629159 -269.513531 
L 153.405014 -269.356536 
L 153.197844 -269.19954 
L 153.007316 -269.042544 
L 152.832956 -268.885548 
L 152.674167 -268.728553 
L 152.530257 -268.571557 
L 152.400451 -268.414561 
z
" style="stroke: #3d3d3d; stroke-width: 1.5"/>
    </defs>
    <g clip-path="url(#p2b0e0b4beb)">
     <use xlink:href="#mfa6e0857d2" x="0" y="388.804834" style="fill: #3274a1; stroke: #3d3d3d; stroke-width: 1.5"/>
    </g>
   </g>
   <g id="PolyCollection_3">
    <defs>
     <path id="m6fc7bd0066" d="M 197.193783 -270.543778 
L 195.087041 -270.543778 
L 194.895714 -270.642606 
L 194.677746 -270.741434 
L 194.431039 -270.840262 
L 194.153619 -270.93909 
L 193.843703 -271.037918 
L 193.499758 -271.136746 
L 193.120568 -271.235574 
L 192.7053 -271.334401 
L 192.253566 -271.433229 
L 191.765481 -271.532057 
L 191.241712 -271.630885 
L 190.683523 -271.729713 
L 190.092802 -271.828541 
L 189.472079 -271.927369 
L 188.824526 -272.026197 
L 188.153944 -272.125025 
L 187.464734 -272.223853 
L 186.761843 -272.32268 
L 186.050707 -272.421508 
L 185.33717 -272.520336 
L 184.627388 -272.619164 
L 183.92773 -272.717992 
L 183.244666 -272.81682 
L 182.584642 -272.915648 
L 181.953965 -273.014476 
L 181.358678 -273.113304 
L 180.804444 -273.212132 
L 180.29643 -273.310959 
L 179.839208 -273.409787 
L 179.43666 -273.508615 
L 179.091906 -273.607443 
L 178.807236 -273.706271 
L 178.584074 -273.805099 
L 178.422946 -273.903927 
L 178.323478 -274.002755 
L 178.284412 -274.101583 
L 178.303635 -274.200411 
L 178.378236 -274.299238 
L 178.504575 -274.398066 
L 178.678366 -274.496894 
L 178.894785 -274.595722 
L 179.148576 -274.69455 
L 179.434177 -274.793378 
L 179.745845 -274.892206 
L 180.077791 -274.991034 
L 180.424305 -275.089862 
L 180.779889 -275.18869 
L 181.139368 -275.287518 
L 181.498006 -275.386345 
L 181.851592 -275.485173 
L 182.196527 -275.584001 
L 182.529875 -275.682829 
L 182.849409 -275.781657 
L 183.153628 -275.880485 
L 183.441754 -275.979313 
L 183.713713 -276.078141 
L 183.970092 -276.176969 
L 184.212083 -276.275797 
L 184.441406 -276.374624 
L 184.660226 -276.473452 
L 184.87106 -276.57228 
L 185.076673 -276.671108 
L 185.279974 -276.769936 
L 185.483915 -276.868764 
L 185.691387 -276.967592 
L 185.905132 -277.06642 
L 186.127648 -277.165248 
L 186.361124 -277.264076 
L 186.60737 -277.362903 
L 186.867773 -277.461731 
L 187.14326 -277.560559 
L 187.434278 -277.659387 
L 187.740793 -277.758215 
L 188.062296 -277.857043 
L 188.397826 -277.955871 
L 188.746008 -278.054699 
L 189.105097 -278.153527 
L 189.473032 -278.252355 
L 189.847501 -278.351182 
L 190.226002 -278.45001 
L 190.605917 -278.548838 
L 190.984576 -278.647666 
L 191.35933 -278.746494 
L 191.727608 -278.845322 
L 192.086981 -278.94415 
L 192.435207 -279.042978 
L 192.770278 -279.141806 
L 193.09045 -279.240634 
L 193.394271 -279.339461 
L 193.68059 -279.438289 
L 193.948566 -279.537117 
L 194.197662 -279.635945 
L 194.427635 -279.734773 
L 194.638515 -279.833601 
L 194.830585 -279.932429 
L 195.004345 -280.031257 
L 195.16049 -280.130085 
L 195.299868 -280.228913 
L 195.423451 -280.32774 
L 196.857372 -280.32774 
L 196.857372 -280.32774 
L 196.980956 -280.228913 
L 197.120334 -280.130085 
L 197.276478 -280.031257 
L 197.450239 -279.932429 
L 197.642308 -279.833601 
L 197.853189 -279.734773 
L 198.083162 -279.635945 
L 198.332258 -279.537117 
L 198.600233 -279.438289 
L 198.886552 -279.339461 
L 199.190373 -279.240634 
L 199.510546 -279.141806 
L 199.845617 -279.042978 
L 200.193843 -278.94415 
L 200.553216 -278.845322 
L 200.921494 -278.746494 
L 201.296248 -278.647666 
L 201.674907 -278.548838 
L 202.054821 -278.45001 
L 202.433323 -278.351182 
L 202.807791 -278.252355 
L 203.175727 -278.153527 
L 203.534816 -278.054699 
L 203.882998 -277.955871 
L 204.218528 -277.857043 
L 204.54003 -277.758215 
L 204.846545 -277.659387 
L 205.137564 -277.560559 
L 205.413051 -277.461731 
L 205.673454 -277.362903 
L 205.9197 -277.264076 
L 206.153176 -277.165248 
L 206.375692 -277.06642 
L 206.589436 -276.967592 
L 206.796909 -276.868764 
L 207.000849 -276.769936 
L 207.20415 -276.671108 
L 207.409763 -276.57228 
L 207.620597 -276.473452 
L 207.839418 -276.374624 
L 208.068741 -276.275797 
L 208.310731 -276.176969 
L 208.567111 -276.078141 
L 208.83907 -275.979313 
L 209.127196 -275.880485 
L 209.431415 -275.781657 
L 209.750949 -275.682829 
L 210.084297 -275.584001 
L 210.429231 -275.485173 
L 210.782818 -275.386345 
L 211.141455 -275.287518 
L 211.500935 -275.18869 
L 211.856518 -275.089862 
L 212.203033 -274.991034 
L 212.534978 -274.892206 
L 212.846647 -274.793378 
L 213.132247 -274.69455 
L 213.386038 -274.595722 
L 213.602457 -274.496894 
L 213.776249 -274.398066 
L 213.902587 -274.299238 
L 213.977189 -274.200411 
L 213.996412 -274.101583 
L 213.957345 -274.002755 
L 213.857878 -273.903927 
L 213.696749 -273.805099 
L 213.473587 -273.706271 
L 213.188918 -273.607443 
L 212.844163 -273.508615 
L 212.441616 -273.409787 
L 211.984394 -273.310959 
L 211.476379 -273.212132 
L 210.922145 -273.113304 
L 210.326859 -273.014476 
L 209.696182 -272.915648 
L 209.036158 -272.81682 
L 208.353093 -272.717992 
L 207.653436 -272.619164 
L 206.943654 -272.520336 
L 206.230116 -272.421508 
L 205.518981 -272.32268 
L 204.81609 -272.223853 
L 204.126879 -272.125025 
L 203.456298 -272.026197 
L 202.808745 -271.927369 
L 202.188021 -271.828541 
L 201.5973 -271.729713 
L 201.039111 -271.630885 
L 200.515343 -271.532057 
L 200.027257 -271.433229 
L 199.575523 -271.334401 
L 199.160255 -271.235574 
L 198.781066 -271.136746 
L 198.43712 -271.037918 
L 198.127204 -270.93909 
L 197.849785 -270.840262 
L 197.603077 -270.741434 
L 197.38511 -270.642606 
L 197.193783 -270.543778 
z
" style="stroke: #3d3d3d; stroke-width: 1.5"/>
    </defs>
    <g clip-path="url(#p2b0e0b4beb)">
     <use xlink:href="#m6fc7bd0066" x="0" y="388.804834" style="fill: #9fd495; stroke: #3d3d3d; stroke-width: 1.5"/>
    </g>
   </g>
   <g id="PolyCollection_4">
    <defs>
     <path id="mffceeace22" d="M 240.838457 -142.196503 
L 240.722366 -142.196503 
L 240.713674 -144.180328 
L 240.70406 -146.164153 
L 240.693492 -148.147978 
L 240.681951 -150.131803 
L 240.669428 -152.115628 
L 240.655929 -154.099452 
L 240.641478 -156.083277 
L 240.626112 -158.067102 
L 240.60989 -160.050927 
L 240.592889 -162.034752 
L 240.575204 -164.018577 
L 240.556951 -166.002401 
L 240.538262 -167.986226 
L 240.519289 -169.970051 
L 240.500194 -171.953876 
L 240.481156 -173.937701 
L 240.46236 -175.921525 
L 240.443996 -177.90535 
L 240.426258 -179.889175 
L 240.409332 -181.873 
L 240.3934 -183.856825 
L 240.378628 -185.84065 
L 240.365164 -187.824474 
L 240.353136 -189.808299 
L 240.34264 -191.792124 
L 240.333745 -193.775949 
L 240.326482 -195.759774 
L 240.320849 -197.743599 
L 240.316801 -199.727423 
L 240.314255 -201.711248 
L 240.313089 -203.695073 
L 240.313143 -205.678898 
L 240.31422 -207.662723 
L 240.316092 -209.646548 
L 240.318503 -211.630372 
L 240.321173 -213.614197 
L 240.323806 -215.598022 
L 240.326098 -217.581847 
L 240.32774 -219.565672 
L 240.32843 -221.549496 
L 240.327878 -223.533321 
L 240.325814 -225.517146 
L 240.321999 -227.500971 
L 240.316226 -229.484796 
L 240.308331 -231.468621 
L 240.298198 -233.452445 
L 240.285763 -235.43627 
L 240.271017 -237.420095 
L 240.254009 -239.40392 
L 240.234849 -241.387745 
L 240.213702 -243.37157 
L 240.190792 -245.355394 
L 240.166398 -247.339219 
L 240.140845 -249.323044 
L 240.114502 -251.306869 
L 240.087773 -253.290694 
L 240.061092 -255.274518 
L 240.034909 -257.258343 
L 240.009682 -259.242168 
L 239.985871 -261.225993 
L 239.963923 -263.209818 
L 239.944262 -265.193643 
L 239.927283 -267.177467 
L 239.913342 -269.161292 
L 239.902744 -271.145117 
L 239.895743 -273.128942 
L 239.892532 -275.112767 
L 239.893238 -277.096592 
L 239.897927 -279.080416 
L 239.906593 -281.064241 
L 239.919168 -283.048066 
L 239.935519 -285.031891 
L 239.955457 -287.015716 
L 239.978735 -288.99954 
L 240.005063 -290.983365 
L 240.034111 -292.96719 
L 240.065517 -294.951015 
L 240.098896 -296.93484 
L 240.133851 -298.918665 
L 240.169977 -300.902489 
L 240.206875 -302.886314 
L 240.244154 -304.870139 
L 240.281444 -306.853964 
L 240.318395 -308.837789 
L 240.354689 -310.821614 
L 240.39004 -312.805438 
L 240.424196 -314.789263 
L 240.456946 -316.773088 
L 240.488115 -318.756913 
L 240.517567 -320.740738 
L 240.545202 -322.724563 
L 240.570956 -324.708387 
L 240.5948 -326.692212 
L 240.61673 -328.676037 
L 240.636772 -330.659862 
L 240.654974 -332.643687 
L 240.671404 -334.627511 
L 240.686142 -336.611336 
L 240.699286 -338.595161 
L 240.861538 -338.595161 
L 240.861538 -338.595161 
L 240.874681 -336.611336 
L 240.88942 -334.627511 
L 240.905849 -332.643687 
L 240.924051 -330.659862 
L 240.944094 -328.676037 
L 240.966024 -326.692212 
L 240.989867 -324.708387 
L 241.015622 -322.724563 
L 241.043257 -320.740738 
L 241.072708 -318.756913 
L 241.103877 -316.773088 
L 241.136627 -314.789263 
L 241.170784 -312.805438 
L 241.206134 -310.821614 
L 241.242428 -308.837789 
L 241.27938 -306.853964 
L 241.316669 -304.870139 
L 241.353949 -302.886314 
L 241.390846 -300.902489 
L 241.426973 -298.918665 
L 241.461927 -296.93484 
L 241.495306 -294.951015 
L 241.526712 -292.96719 
L 241.55576 -290.983365 
L 241.582089 -288.99954 
L 241.605367 -287.015716 
L 241.625304 -285.031891 
L 241.641656 -283.048066 
L 241.654231 -281.064241 
L 241.662897 -279.080416 
L 241.667585 -277.096592 
L 241.668292 -275.112767 
L 241.66508 -273.128942 
L 241.658079 -271.145117 
L 241.647482 -269.161292 
L 241.63354 -267.177467 
L 241.616562 -265.193643 
L 241.596901 -263.209818 
L 241.574952 -261.225993 
L 241.551141 -259.242168 
L 241.525915 -257.258343 
L 241.499731 -255.274518 
L 241.47305 -253.290694 
L 241.446322 -251.306869 
L 241.419979 -249.323044 
L 241.394426 -247.339219 
L 241.370031 -245.355394 
L 241.347122 -243.37157 
L 241.325975 -241.387745 
L 241.306814 -239.40392 
L 241.289807 -237.420095 
L 241.275061 -235.43627 
L 241.262625 -233.452445 
L 241.252493 -231.468621 
L 241.244598 -229.484796 
L 241.238825 -227.500971 
L 241.235009 -225.517146 
L 241.232946 -223.533321 
L 241.232394 -221.549496 
L 241.233083 -219.565672 
L 241.234726 -217.581847 
L 241.237017 -215.598022 
L 241.239651 -213.614197 
L 241.242321 -211.630372 
L 241.244731 -209.646548 
L 241.246603 -207.662723 
L 241.247681 -205.678898 
L 241.247734 -203.695073 
L 241.246569 -201.711248 
L 241.244023 -199.727423 
L 241.239975 -197.743599 
L 241.234341 -195.759774 
L 241.227079 -193.775949 
L 241.218184 -191.792124 
L 241.207688 -189.808299 
L 241.195659 -187.824474 
L 241.182196 -185.84065 
L 241.167424 -183.856825 
L 241.151491 -181.873 
L 241.134566 -179.889175 
L 241.116827 -177.90535 
L 241.098464 -175.921525 
L 241.079667 -173.937701 
L 241.060629 -171.953876 
L 241.041535 -169.970051 
L 241.022561 -167.986226 
L 241.003873 -166.002401 
L 240.98562 -164.018577 
L 240.967935 -162.034752 
L 240.950933 -160.050927 
L 240.934712 -158.067102 
L 240.919346 -156.083277 
L 240.904894 -154.099452 
L 240.891396 -152.115628 
L 240.878872 -150.131803 
L 240.867331 -148.147978 
L 240.856764 -146.164153 
L 240.847149 -144.180328 
L 240.838457 -142.196503 
z
" style="stroke: #3d3d3d; stroke-width: 1.5"/>
    </defs>
    <g clip-path="url(#p2b0e0b4beb)">
     <use xlink:href="#mffceeace22" x="0" y="388.804834" style="fill: #3a923a; stroke: #3d3d3d; stroke-width: 1.5"/>
    </g>
   </g>
   <g id="PolyCollection_5">
    <defs>
     <path id="ma7da895cd8" d="M 285.458041 -112.470709 
L 285.382783 -112.470709 
L 285.376361 -114.914346 
L 285.369092 -117.357982 
L 285.360915 -119.801618 
L 285.351767 -122.245255 
L 285.341595 -124.688891 
L 285.330352 -127.132527 
L 285.318001 -129.576164 
L 285.304516 -132.0198 
L 285.289884 -134.463436 
L 285.27411 -136.907073 
L 285.257215 -139.350709 
L 285.239239 -141.794346 
L 285.220242 -144.237982 
L 285.200308 -146.681618 
L 285.179538 -149.125255 
L 285.15806 -151.568891 
L 285.136019 -154.012527 
L 285.113582 -156.456164 
L 285.090932 -158.8998 
L 285.06827 -161.343436 
L 285.045806 -163.787073 
L 285.02376 -166.230709 
L 285.002356 -168.674346 
L 284.981816 -171.117982 
L 284.962357 -173.561618 
L 284.944186 -176.005255 
L 284.927491 -178.448891 
L 284.91244 -180.892527 
L 284.899176 -183.336164 
L 284.88781 -185.7798 
L 284.878416 -188.223436 
L 284.871035 -190.667073 
L 284.865666 -193.110709 
L 284.862267 -195.554346 
L 284.860755 -197.997982 
L 284.861008 -200.441618 
L 284.862868 -202.885255 
L 284.86614 -205.328891 
L 284.870601 -207.772527 
L 284.876005 -210.216164 
L 284.882086 -212.6598 
L 284.888569 -215.103436 
L 284.895175 -217.547073 
L 284.901627 -219.990709 
L 284.907663 -222.434346 
L 284.913039 -224.877982 
L 284.917537 -227.321618 
L 284.920973 -229.765255 
L 284.9232 -232.208891 
L 284.924114 -234.652527 
L 284.92366 -237.096164 
L 284.921827 -239.5398 
L 284.918657 -241.983436 
L 284.914236 -244.427073 
L 284.908701 -246.870709 
L 284.902226 -249.314346 
L 284.895026 -251.757982 
L 284.887346 -254.201618 
L 284.879458 -256.645255 
L 284.871648 -259.088891 
L 284.864213 -261.532527 
L 284.857452 -263.976164 
L 284.851653 -266.4198 
L 284.847092 -268.863436 
L 284.844022 -271.307073 
L 284.842665 -273.750709 
L 284.843209 -276.194346 
L 284.845802 -278.637982 
L 284.850549 -281.081618 
L 284.857509 -283.525255 
L 284.866697 -285.968891 
L 284.87808 -288.412527 
L 284.891584 -290.856164 
L 284.907094 -293.2998 
L 284.924457 -295.743436 
L 284.943489 -298.187073 
L 284.963981 -300.630709 
L 284.985703 -303.074346 
L 285.00841 -305.517982 
L 285.031851 -307.961618 
L 285.055773 -310.405255 
L 285.079924 -312.848891 
L 285.104066 -315.292527 
L 285.127972 -317.736164 
L 285.151433 -320.1798 
L 285.174261 -322.623436 
L 285.196292 -325.067073 
L 285.217387 -327.510709 
L 285.23743 -329.954346 
L 285.256333 -332.397982 
L 285.274033 -334.841618 
L 285.290489 -337.285255 
L 285.305683 -339.728891 
L 285.319618 -342.172527 
L 285.332312 -344.616164 
L 285.343801 -347.0598 
L 285.354133 -349.503436 
L 285.363364 -351.947073 
L 285.371561 -354.390709 
L 285.469263 -354.390709 
L 285.469263 -354.390709 
L 285.47746 -351.947073 
L 285.486691 -349.503436 
L 285.497022 -347.0598 
L 285.508512 -344.616164 
L 285.521206 -342.172527 
L 285.53514 -339.728891 
L 285.550335 -337.285255 
L 285.566791 -334.841618 
L 285.584491 -332.397982 
L 285.603394 -329.954346 
L 285.623437 -327.510709 
L 285.644531 -325.067073 
L 285.666562 -322.623436 
L 285.689391 -320.1798 
L 285.712851 -317.736164 
L 285.736757 -315.292527 
L 285.760899 -312.848891 
L 285.785051 -310.405255 
L 285.808972 -307.961618 
L 285.832413 -305.517982 
L 285.85512 -303.074346 
L 285.876842 -300.630709 
L 285.897334 -298.187073 
L 285.916367 -295.743436 
L 285.933729 -293.2998 
L 285.949239 -290.856164 
L 285.962743 -288.412527 
L 285.974127 -285.968891 
L 285.983315 -283.525255 
L 285.990275 -281.081618 
L 285.995022 -278.637982 
L 285.997614 -276.194346 
L 285.998158 -273.750709 
L 285.996801 -271.307073 
L 285.993731 -268.863436 
L 285.989171 -266.4198 
L 285.983372 -263.976164 
L 285.97661 -261.532527 
L 285.969175 -259.088891 
L 285.961366 -256.645255 
L 285.953477 -254.201618 
L 285.945798 -251.757982 
L 285.938598 -249.314346 
L 285.932123 -246.870709 
L 285.926587 -244.427073 
L 285.922167 -241.983436 
L 285.918996 -239.5398 
L 285.917164 -237.096164 
L 285.916709 -234.652527 
L 285.917624 -232.208891 
L 285.91985 -229.765255 
L 285.923286 -227.321618 
L 285.927784 -224.877982 
L 285.93316 -222.434346 
L 285.939196 -219.990709 
L 285.945649 -217.547073 
L 285.952254 -215.103436 
L 285.958737 -212.6598 
L 285.964819 -210.216164 
L 285.970222 -207.772527 
L 285.974684 -205.328891 
L 285.977956 -202.885255 
L 285.979815 -200.441618 
L 285.980069 -197.997982 
L 285.978557 -195.554346 
L 285.975157 -193.110709 
L 285.969788 -190.667073 
L 285.962407 -188.223436 
L 285.953014 -185.7798 
L 285.941647 -183.336164 
L 285.928383 -180.892527 
L 285.913333 -178.448891 
L 285.896638 -176.005255 
L 285.878466 -173.561618 
L 285.859008 -171.117982 
L 285.838468 -168.674346 
L 285.817063 -166.230709 
L 285.795018 -163.787073 
L 285.772554 -161.343436 
L 285.749891 -158.8998 
L 285.727242 -156.456164 
L 285.704805 -154.012527 
L 285.682764 -151.568891 
L 285.661285 -149.125255 
L 285.640516 -146.681618 
L 285.620581 -144.237982 
L 285.601585 -141.794346 
L 285.583608 -139.350709 
L 285.566713 -136.907073 
L 285.550939 -134.463436 
L 285.536308 -132.0198 
L 285.522822 -129.576164 
L 285.510471 -127.132527 
L 285.499228 -124.688891 
L 285.489057 -122.245255 
L 285.479909 -119.801618 
L 285.471731 -117.357982 
L 285.464463 -114.914346 
L 285.458041 -112.470709 
z
" style="stroke: #3d3d3d; stroke-width: 1.5"/>
    </defs>
    <g clip-path="url(#p2b0e0b4beb)">
     <use xlink:href="#ma7da895cd8" x="0" y="388.804834" style="fill: #f2a5a3; stroke: #3d3d3d; stroke-width: 1.5"/>
    </g>
   </g>
   <g id="PolyCollection_6">
    <defs>
     <path id="md2cea6fd03" d="M 330.145255 -146.553865 
L 329.975569 -146.553865 
L 329.961771 -148.354413 
L 329.946286 -150.15496 
L 329.929008 -151.955508 
L 329.909848 -153.756056 
L 329.888728 -155.556604 
L 329.865593 -157.357151 
L 329.840409 -159.157699 
L 329.813169 -160.958247 
L 329.783898 -162.758795 
L 329.752653 -164.559343 
L 329.719528 -166.35989 
L 329.684658 -168.160438 
L 329.648213 -169.960986 
L 329.610409 -171.761534 
L 329.571497 -173.562081 
L 329.53177 -175.362629 
L 329.491554 -177.163177 
L 329.451208 -178.963725 
L 329.411119 -180.764273 
L 329.371692 -182.56482 
L 329.333348 -184.365368 
L 329.296513 -186.165916 
L 329.261611 -187.966464 
L 329.229055 -189.767011 
L 329.199236 -191.567559 
L 329.172519 -193.368107 
L 329.149226 -195.168655 
L 329.129638 -196.969203 
L 329.11398 -198.76975 
L 329.102417 -200.570298 
L 329.095052 -202.370846 
L 329.091917 -204.171394 
L 329.092978 -205.971941 
L 329.09813 -207.772489 
L 329.107199 -209.573037 
L 329.119947 -211.373585 
L 329.136076 -213.174133 
L 329.155237 -214.97468 
L 329.177031 -216.775228 
L 329.201025 -218.575776 
L 329.226757 -220.376324 
L 329.25375 -222.176871 
L 329.281518 -223.977419 
L 329.309581 -225.777967 
L 329.337472 -227.578515 
L 329.36475 -229.379063 
L 329.391005 -231.17961 
L 329.415873 -232.980158 
L 329.439033 -234.780706 
L 329.460224 -236.581254 
L 329.47924 -238.381801 
L 329.495938 -240.182349 
L 329.510238 -241.982897 
L 329.522123 -243.783445 
L 329.531636 -245.583992 
L 329.538878 -247.38454 
L 329.544004 -249.185088 
L 329.547217 -250.985636 
L 329.54876 -252.786184 
L 329.548911 -254.586731 
L 329.547973 -256.387279 
L 329.546267 -258.187827 
L 329.544124 -259.988375 
L 329.541873 -261.788922 
L 329.539837 -263.58947 
L 329.538325 -265.390018 
L 329.53762 -267.190566 
L 329.537978 -268.991114 
L 329.539623 -270.791661 
L 329.542738 -272.592209 
L 329.547465 -274.392757 
L 329.553905 -276.193305 
L 329.562114 -277.993852 
L 329.572105 -279.7944 
L 329.583849 -281.594948 
L 329.597278 -283.395496 
L 329.61229 -285.196044 
L 329.62875 -286.996591 
L 329.646498 -288.797139 
L 329.665351 -290.597687 
L 329.685113 -292.398235 
L 329.705576 -294.198782 
L 329.726528 -295.99933 
L 329.747756 -297.799878 
L 329.769054 -299.600426 
L 329.790224 -301.400974 
L 329.811082 -303.201521 
L 329.83146 -305.002069 
L 329.851208 -306.802617 
L 329.870196 -308.603165 
L 329.888317 -310.403712 
L 329.905483 -312.20426 
L 329.921629 -314.004808 
L 329.93671 -315.805356 
L 329.9507 -317.605904 
L 329.963593 -319.406451 
L 329.975396 -321.206999 
L 329.986132 -323.007547 
L 329.995836 -324.808095 
L 330.124987 -324.808095 
L 330.124987 -324.808095 
L 330.134691 -323.007547 
L 330.145427 -321.206999 
L 330.157231 -319.406451 
L 330.170123 -317.605904 
L 330.184114 -315.805356 
L 330.199195 -314.004808 
L 330.215341 -312.20426 
L 330.232507 -310.403712 
L 330.250627 -308.603165 
L 330.269616 -306.802617 
L 330.289364 -305.002069 
L 330.309741 -303.201521 
L 330.330599 -301.400974 
L 330.35177 -299.600426 
L 330.373067 -297.799878 
L 330.394296 -295.99933 
L 330.415247 -294.198782 
L 330.43571 -292.398235 
L 330.455472 -290.597687 
L 330.474326 -288.797139 
L 330.492074 -286.996591 
L 330.508534 -285.196044 
L 330.523545 -283.395496 
L 330.536975 -281.594948 
L 330.548718 -279.7944 
L 330.558709 -277.993852 
L 330.566918 -276.193305 
L 330.573358 -274.392757 
L 330.578086 -272.592209 
L 330.581201 -270.791661 
L 330.582845 -268.991114 
L 330.583204 -267.190566 
L 330.582499 -265.390018 
L 330.580986 -263.58947 
L 330.578951 -261.788922 
L 330.5767 -259.988375 
L 330.574556 -258.187827 
L 330.572851 -256.387279 
L 330.571913 -254.586731 
L 330.572064 -252.786184 
L 330.573607 -250.985636 
L 330.576819 -249.185088 
L 330.581946 -247.38454 
L 330.589188 -245.583992 
L 330.598701 -243.783445 
L 330.610585 -241.982897 
L 330.624886 -240.182349 
L 330.641584 -238.381801 
L 330.6606 -236.581254 
L 330.68179 -234.780706 
L 330.704951 -232.980158 
L 330.729818 -231.17961 
L 330.756074 -229.379063 
L 330.783352 -227.578515 
L 330.811243 -225.777967 
L 330.839306 -223.977419 
L 330.867074 -222.176871 
L 330.894066 -220.376324 
L 330.919799 -218.575776 
L 330.943793 -216.775228 
L 330.965587 -214.97468 
L 330.984747 -213.174133 
L 331.000877 -211.373585 
L 331.013625 -209.573037 
L 331.022694 -207.772489 
L 331.027845 -205.971941 
L 331.028906 -204.171394 
L 331.025772 -202.370846 
L 331.018406 -200.570298 
L 331.006844 -198.76975 
L 330.991185 -196.969203 
L 330.971597 -195.168655 
L 330.948305 -193.368107 
L 330.921587 -191.567559 
L 330.891769 -189.767011 
L 330.859212 -187.966464 
L 330.82431 -186.165916 
L 330.787475 -184.365368 
L 330.749131 -182.56482 
L 330.709705 -180.764273 
L 330.669615 -178.963725 
L 330.62927 -177.163177 
L 330.589054 -175.362629 
L 330.549326 -173.562081 
L 330.510415 -171.761534 
L 330.47261 -169.960986 
L 330.436166 -168.160438 
L 330.401295 -166.35989 
L 330.368171 -164.559343 
L 330.336926 -162.758795 
L 330.307654 -160.958247 
L 330.280415 -159.157699 
L 330.25523 -157.357151 
L 330.232095 -155.556604 
L 330.210976 -153.756056 
L 330.191815 -151.955508 
L 330.174538 -150.15496 
L 330.159052 -148.354413 
L 330.145255 -146.553865 
z
" style="stroke: #3d3d3d; stroke-width: 1.5"/>
    </defs>
    <g clip-path="url(#p2b0e0b4beb)">
     <use xlink:href="#md2cea6fd03" x="0" y="388.804834" style="fill: #d684bd; stroke: #3d3d3d; stroke-width: 1.5"/>
    </g>
   </g>
   <g id="PolyCollection_7">
    <defs>
     <path id="m2e6d7677ae" d="M 374.806685 -150.08479 
L 374.594139 -150.08479 
L 374.577909 -151.939562 
L 374.55988 -153.794334 
L 374.53997 -155.649107 
L 374.518119 -157.503879 
L 374.494285 -159.358651 
L 374.468453 -161.213423 
L 374.440637 -163.068195 
L 374.41088 -164.922967 
L 374.379261 -166.77774 
L 374.345897 -168.632512 
L 374.310943 -170.487284 
L 374.274592 -172.342056 
L 374.237077 -174.196828 
L 374.198669 -176.0516 
L 374.159676 -177.906373 
L 374.120438 -179.761145 
L 374.081322 -181.615917 
L 374.042718 -183.470689 
L 374.005033 -185.325461 
L 373.968684 -187.180234 
L 373.934086 -189.035006 
L 373.901648 -190.889778 
L 373.871763 -192.74455 
L 373.844798 -194.599322 
L 373.821085 -196.454094 
L 373.800917 -198.308867 
L 373.784534 -200.163639 
L 373.772123 -202.018411 
L 373.763808 -203.873183 
L 373.759649 -205.727955 
L 373.759638 -207.582727 
L 373.7637 -209.4375 
L 373.771691 -211.292272 
L 373.783403 -213.147044 
L 373.798569 -215.001816 
L 373.816866 -216.856588 
L 373.837923 -218.71136 
L 373.86133 -220.566133 
L 373.886646 -222.420905 
L 373.913408 -224.275677 
L 373.941144 -226.130449 
L 373.96938 -227.985221 
L 373.997652 -229.839994 
L 374.025515 -231.694766 
L 374.052553 -233.549538 
L 374.078383 -235.40431 
L 374.102671 -237.259082 
L 374.125127 -239.113854 
L 374.145519 -240.968627 
L 374.16367 -242.823399 
L 374.179465 -244.678171 
L 374.192846 -246.532943 
L 374.203817 -248.387715 
L 374.212435 -250.242487 
L 374.218812 -252.09726 
L 374.223111 -253.952032 
L 374.225534 -255.806804 
L 374.226322 -257.661576 
L 374.225745 -259.516348 
L 374.224098 -261.37112 
L 374.221686 -263.225893 
L 374.218826 -265.080665 
L 374.21583 -266.935437 
L 374.213005 -268.790209 
L 374.210643 -270.644981 
L 374.209014 -272.499754 
L 374.208361 -274.354526 
L 374.208898 -276.209298 
L 374.210801 -278.06407 
L 374.214212 -279.918842 
L 374.219231 -281.773614 
L 374.22592 -283.628387 
L 374.2343 -285.483159 
L 374.244354 -287.337931 
L 374.256031 -289.192703 
L 374.269244 -291.047475 
L 374.283879 -292.902247 
L 374.299796 -294.75702 
L 374.316835 -296.611792 
L 374.334818 -298.466564 
L 374.353559 -300.321336 
L 374.372863 -302.176108 
L 374.392536 -304.030881 
L 374.412385 -305.885653 
L 374.432225 -307.740425 
L 374.45188 -309.595197 
L 374.471188 -311.449969 
L 374.490003 -313.304741 
L 374.508194 -315.159514 
L 374.525652 -317.014286 
L 374.542286 -318.869058 
L 374.558021 -320.72383 
L 374.572806 -322.578602 
L 374.586605 -324.433374 
L 374.599399 -326.288147 
L 374.611186 -328.142919 
L 374.621977 -329.997691 
L 374.631795 -331.852463 
L 374.640672 -333.707235 
L 374.760151 -333.707235 
L 374.760151 -333.707235 
L 374.769029 -331.852463 
L 374.778846 -329.997691 
L 374.789637 -328.142919 
L 374.801424 -326.288147 
L 374.814219 -324.433374 
L 374.828017 -322.578602 
L 374.842802 -320.72383 
L 374.858538 -318.869058 
L 374.875171 -317.014286 
L 374.892629 -315.159514 
L 374.910821 -313.304741 
L 374.929635 -311.449969 
L 374.948943 -309.595197 
L 374.968598 -307.740425 
L 374.988438 -305.885653 
L 375.008287 -304.030881 
L 375.02796 -302.176108 
L 375.047265 -300.321336 
L 375.066006 -298.466564 
L 375.083989 -296.611792 
L 375.101027 -294.75702 
L 375.116945 -292.902247 
L 375.13158 -291.047475 
L 375.144793 -289.192703 
L 375.156469 -287.337931 
L 375.166524 -285.483159 
L 375.174904 -283.628387 
L 375.181592 -281.773614 
L 375.186611 -279.918842 
L 375.190022 -278.06407 
L 375.191926 -276.209298 
L 375.192462 -274.354526 
L 375.19181 -272.499754 
L 375.19018 -270.644981 
L 375.187818 -268.790209 
L 375.184994 -266.935437 
L 375.181998 -265.080665 
L 375.179137 -263.225893 
L 375.176726 -261.37112 
L 375.175078 -259.516348 
L 375.174502 -257.661576 
L 375.17529 -255.806804 
L 375.177713 -253.952032 
L 375.182011 -252.09726 
L 375.188389 -250.242487 
L 375.197007 -248.387715 
L 375.207977 -246.532943 
L 375.221358 -244.678171 
L 375.237153 -242.823399 
L 375.255305 -240.968627 
L 375.275697 -239.113854 
L 375.298153 -237.259082 
L 375.32244 -235.40431 
L 375.348271 -233.549538 
L 375.375308 -231.694766 
L 375.403171 -229.839994 
L 375.431443 -227.985221 
L 375.45968 -226.130449 
L 375.487416 -224.275677 
L 375.514178 -222.420905 
L 375.539493 -220.566133 
L 375.5629 -218.71136 
L 375.583957 -216.856588 
L 375.602254 -215.001816 
L 375.61742 -213.147044 
L 375.629133 -211.292272 
L 375.637124 -209.4375 
L 375.641185 -207.582727 
L 375.641174 -205.727955 
L 375.637015 -203.873183 
L 375.6287 -202.018411 
L 375.616289 -200.163639 
L 375.599907 -198.308867 
L 375.579738 -196.454094 
L 375.556026 -194.599322 
L 375.52906 -192.74455 
L 375.499175 -190.889778 
L 375.466738 -189.035006 
L 375.43214 -187.180234 
L 375.39579 -185.325461 
L 375.358106 -183.470689 
L 375.319502 -181.615917 
L 375.280386 -179.761145 
L 375.241147 -177.906373 
L 375.202154 -176.0516 
L 375.163747 -174.196828 
L 375.126232 -172.342056 
L 375.089881 -170.487284 
L 375.054926 -168.632512 
L 375.021562 -166.77774 
L 374.989944 -164.922967 
L 374.960187 -163.068195 
L 374.93237 -161.213423 
L 374.906539 -159.358651 
L 374.882705 -157.503879 
L 374.860853 -155.649107 
L 374.840944 -153.794334 
L 374.822914 -151.939562 
L 374.806685 -150.08479 
z
" style="stroke: #3d3d3d; stroke-width: 1.5"/>
    </defs>
    <g clip-path="url(#p2b0e0b4beb)">
     <use xlink:href="#m2e6d7677ae" x="0" y="388.804834" style="fill: #c03d3e; stroke: #3d3d3d; stroke-width: 1.5"/>
    </g>
   </g>
   <g id="PolyCollection_8">
    <defs>
     <path id="m75ee55ab47" d="M 419.434504 -145.47702 
L 419.246319 -145.47702 
L 419.23141 -147.312311 
L 419.214749 -149.147602 
L 419.196241 -150.982892 
L 419.175807 -152.818183 
L 419.153386 -154.653474 
L 419.128936 -156.488765 
L 419.102446 -158.324056 
L 419.073932 -160.159346 
L 419.043442 -161.994637 
L 419.011061 -163.829928 
L 418.976913 -165.665219 
L 418.94116 -167.50051 
L 418.904007 -169.3358 
L 418.865696 -171.171091 
L 418.82651 -173.006382 
L 418.786768 -174.841673 
L 418.746823 -176.676963 
L 418.707054 -178.512254 
L 418.667866 -180.347545 
L 418.629675 -182.182836 
L 418.592909 -184.018127 
L 418.557994 -185.853417 
L 418.525346 -187.688708 
L 418.495364 -189.523999 
L 418.46842 -191.35929 
L 418.444847 -193.194581 
L 418.424937 -195.029871 
L 418.408927 -196.865162 
L 418.396996 -198.700453 
L 418.38926 -200.535744 
L 418.385767 -202.371035 
L 418.386495 -204.206325 
L 418.391354 -206.041616 
L 418.400182 -207.876907 
L 418.412753 -209.712198 
L 418.42878 -211.547488 
L 418.44792 -213.382779 
L 418.469783 -215.21807 
L 418.49394 -217.053361 
L 418.519933 -218.888652 
L 418.547284 -220.723942 
L 418.575506 -222.559233 
L 418.604116 -224.394524 
L 418.632641 -226.229815 
L 418.660631 -228.065106 
L 418.687669 -229.900396 
L 418.713374 -231.735687 
L 418.737417 -233.570978 
L 418.759517 -235.406269 
L 418.779453 -237.24156 
L 418.797064 -239.07685 
L 418.812251 -240.912141 
L 418.824976 -242.747432 
L 418.835261 -244.582723 
L 418.843189 -246.418014 
L 418.848892 -248.253304 
L 418.852555 -250.088595 
L 418.854403 -251.923886 
L 418.854698 -253.759177 
L 418.853729 -255.594467 
L 418.851805 -257.429758 
L 418.849248 -259.265049 
L 418.846384 -261.10034 
L 418.843535 -262.935631 
L 418.84101 -264.770921 
L 418.839102 -266.606212 
L 418.838077 -268.441503 
L 418.838173 -270.276794 
L 418.839592 -272.112085 
L 418.842498 -273.947375 
L 418.847015 -275.782666 
L 418.853226 -277.617957 
L 418.861172 -279.453248 
L 418.870853 -281.288539 
L 418.882231 -283.123829 
L 418.895231 -284.95912 
L 418.909746 -286.794411 
L 418.92564 -288.629702 
L 418.942755 -290.464992 
L 418.960914 -292.300283 
L 418.979924 -294.135574 
L 418.999586 -295.970865 
L 419.019698 -297.806156 
L 419.040057 -299.641446 
L 419.060468 -301.476737 
L 419.080744 -303.312028 
L 419.100711 -305.147319 
L 419.120212 -306.98261 
L 419.139105 -308.8179 
L 419.157271 -310.653191 
L 419.174607 -312.488482 
L 419.191032 -314.323773 
L 419.206486 -316.159064 
L 419.220927 -317.994354 
L 419.234331 -319.829645 
L 419.246691 -321.664936 
L 419.258015 -323.500227 
L 419.268325 -325.335518 
L 419.277654 -327.170808 
L 419.40317 -327.170808 
L 419.40317 -327.170808 
L 419.412498 -325.335518 
L 419.422808 -323.500227 
L 419.434133 -321.664936 
L 419.446493 -319.829645 
L 419.459897 -317.994354 
L 419.474337 -316.159064 
L 419.489791 -314.323773 
L 419.506217 -312.488482 
L 419.523553 -310.653191 
L 419.541718 -308.8179 
L 419.560612 -306.98261 
L 419.580112 -305.147319 
L 419.60008 -303.312028 
L 419.620355 -301.476737 
L 419.640766 -299.641446 
L 419.661125 -297.806156 
L 419.681237 -295.970865 
L 419.7009 -294.135574 
L 419.71991 -292.300283 
L 419.738068 -290.464992 
L 419.755183 -288.629702 
L 419.771078 -286.794411 
L 419.785593 -284.95912 
L 419.798592 -283.123829 
L 419.80997 -281.288539 
L 419.819651 -279.453248 
L 419.827597 -277.617957 
L 419.833809 -275.782666 
L 419.838326 -273.947375 
L 419.841232 -272.112085 
L 419.84265 -270.276794 
L 419.842746 -268.441503 
L 419.841722 -266.606212 
L 419.839813 -264.770921 
L 419.837289 -262.935631 
L 419.834439 -261.10034 
L 419.831576 -259.265049 
L 419.829019 -257.429758 
L 419.827095 -255.594467 
L 419.826126 -253.759177 
L 419.82642 -251.923886 
L 419.828268 -250.088595 
L 419.831931 -248.253304 
L 419.837635 -246.418014 
L 419.845562 -244.582723 
L 419.855848 -242.747432 
L 419.868572 -240.912141 
L 419.883759 -239.07685 
L 419.90137 -237.24156 
L 419.921307 -235.406269 
L 419.943407 -233.570978 
L 419.967449 -231.735687 
L 419.993155 -229.900396 
L 420.020192 -228.065106 
L 420.048183 -226.229815 
L 420.076707 -224.394524 
L 420.105317 -222.559233 
L 420.13354 -220.723942 
L 420.16089 -218.888652 
L 420.186883 -217.053361 
L 420.21104 -215.21807 
L 420.232904 -213.382779 
L 420.252044 -211.547488 
L 420.26807 -209.712198 
L 420.280642 -207.876907 
L 420.28947 -206.041616 
L 420.294328 -204.206325 
L 420.295057 -202.371035 
L 420.291564 -200.535744 
L 420.283828 -198.700453 
L 420.271897 -196.865162 
L 420.255886 -195.029871 
L 420.235976 -193.194581 
L 420.212404 -191.35929 
L 420.185459 -189.523999 
L 420.155478 -187.688708 
L 420.12283 -185.853417 
L 420.087915 -184.018127 
L 420.051149 -182.182836 
L 420.012958 -180.347545 
L 419.973769 -178.512254 
L 419.934001 -176.676963 
L 419.894055 -174.841673 
L 419.854314 -173.006382 
L 419.815128 -171.171091 
L 419.776817 -169.3358 
L 419.739663 -167.50051 
L 419.703911 -165.665219 
L 419.669763 -163.829928 
L 419.637382 -161.994637 
L 419.606892 -160.159346 
L 419.578377 -158.324056 
L 419.551887 -156.488765 
L 419.527438 -154.653474 
L 419.505016 -152.818183 
L 419.484582 -150.982892 
L 419.466075 -149.147602 
L 419.449413 -147.312311 
L 419.434504 -145.47702 
z
" style="stroke: #3d3d3d; stroke-width: 1.5"/>
    </defs>
    <g clip-path="url(#p2b0e0b4beb)">
     <use xlink:href="#m75ee55ab47" x="0" y="388.804834" style="fill: #e1812c; stroke: #3d3d3d; stroke-width: 1.5"/>
    </g>
   </g>
   <g id="matplotlib.axis_1">
    <g id="xtick_1">
     <g id="line2d_1">
      <defs>
       <path id="m687b4ef16f" d="M 0 0 
L 0 3.5 
" style="stroke: #000000; stroke-width: 0.8"/>
      </defs>
      <g>
       <use xlink:href="#m687b4ef16f" x="106.860412" y="288.430125" style="stroke: #000000; stroke-width: 0.8"/>
      </g>
     </g>
     <g id="text_1">
      <!-- aflplusplus_ast_o3_lto -->
      <g transform="translate(10.999219 356.675409)rotate(-30)scale(0.1 -0.1)">
       <defs>
        <path id="DejaVuSans-61" d="M 2194 1759 
Q 1497 1759 1228 1600 
Q 959 1441 959 1056 
Q 959 750 1161 570 
Q 1363 391 1709 391 
Q 2188 391 2477 730 
Q 2766 1069 2766 1631 
L 2766 1759 
L 2194 1759 
z
M 3341 1997 
L 3341 0 
L 2766 0 
L 2766 531 
Q 2569 213 2275 61 
Q 1981 -91 1556 -91 
Q 1019 -91 701 211 
Q 384 513 384 1019 
Q 384 1609 779 1909 
Q 1175 2209 1959 2209 
L 2766 2209 
L 2766 2266 
Q 2766 2663 2505 2880 
Q 2244 3097 1772 3097 
Q 1472 3097 1187 3025 
Q 903 2953 641 2809 
L 641 3341 
Q 956 3463 1253 3523 
Q 1550 3584 1831 3584 
Q 2591 3584 2966 3190 
Q 3341 2797 3341 1997 
z
" transform="scale(0.015625)"/>
        <path id="DejaVuSans-66" d="M 2375 4863 
L 2375 4384 
L 1825 4384 
Q 1516 4384 1395 4259 
Q 1275 4134 1275 3809 
L 1275 3500 
L 2222 3500 
L 2222 3053 
L 1275 3053 
L 1275 0 
L 697 0 
L 697 3053 
L 147 3053 
L 147 3500 
L 697 3500 
L 697 3744 
Q 697 4328 969 4595 
Q 1241 4863 1831 4863 
L 2375 4863 
z
" transform="scale(0.015625)"/>
        <path id="DejaVuSans-6c" d="M 603 4863 
L 1178 4863 
L 1178 0 
L 603 0 
L 603 4863 
z
" transform="scale(0.015625)"/>
        <path id="DejaVuSans-70" d="M 1159 525 
L 1159 -1331 
L 581 -1331 
L 581 3500 
L 1159 3500 
L 1159 2969 
Q 1341 3281 1617 3432 
Q 1894 3584 2278 3584 
Q 2916 3584 3314 3078 
Q 3713 2572 3713 1747 
Q 3713 922 3314 415 
Q 2916 -91 2278 -91 
Q 1894 -91 1617 61 
Q 1341 213 1159 525 
z
M 3116 1747 
Q 3116 2381 2855 2742 
Q 2594 3103 2138 3103 
Q 1681 3103 1420 2742 
Q 1159 2381 1159 1747 
Q 1159 1113 1420 752 
Q 1681 391 2138 391 
Q 2594 391 2855 752 
Q 3116 1113 3116 1747 
z
" transform="scale(0.015625)"/>
        <path id="DejaVuSans-75" d="M 544 1381 
L 544 3500 
L 1119 3500 
L 1119 1403 
Q 1119 906 1312 657 
Q 1506 409 1894 409 
Q 2359 409 2629 706 
Q 2900 1003 2900 1516 
L 2900 3500 
L 3475 3500 
L 3475 0 
L 2900 0 
L 2900 538 
Q 2691 219 2414 64 
Q 2138 -91 1772 -91 
Q 1169 -91 856 284 
Q 544 659 544 1381 
z
M 1991 3584 
L 1991 3584 
z
" transform="scale(0.015625)"/>
        <path id="DejaVuSans-73" d="M 2834 3397 
L 2834 2853 
Q 2591 2978 2328 3040 
Q 2066 3103 1784 3103 
Q 1356 3103 1142 2972 
Q 928 2841 928 2578 
Q 928 2378 1081 2264 
Q 1234 2150 1697 2047 
L 1894 2003 
Q 2506 1872 2764 1633 
Q 3022 1394 3022 966 
Q 3022 478 2636 193 
Q 2250 -91 1575 -91 
Q 1294 -91 989 -36 
Q 684 19 347 128 
L 347 722 
Q 666 556 975 473 
Q 1284 391 1588 391 
Q 1994 391 2212 530 
Q 2431 669 2431 922 
Q 2431 1156 2273 1281 
Q 2116 1406 1581 1522 
L 1381 1569 
Q 847 1681 609 1914 
Q 372 2147 372 2553 
Q 372 3047 722 3315 
Q 1072 3584 1716 3584 
Q 2034 3584 2315 3537 
Q 2597 3491 2834 3397 
z
" transform="scale(0.015625)"/>
        <path id="DejaVuSans-5f" d="M 3263 -1063 
L 3263 -1509 
L -63 -1509 
L -63 -1063 
L 3263 -1063 
z
" transform="scale(0.015625)"/>
        <path id="DejaVuSans-74" d="M 1172 4494 
L 1172 3500 
L 2356 3500 
L 2356 3053 
L 1172 3053 
L 1172 1153 
Q 1172 725 1289 603 
Q 1406 481 1766 481 
L 2356 481 
L 2356 0 
L 1766 0 
Q 1100 0 847 248 
Q 594 497 594 1153 
L 594 3053 
L 172 3053 
L 172 3500 
L 594 3500 
L 594 4494 
L 1172 4494 
z
" transform="scale(0.015625)"/>
        <path id="DejaVuSans-6f" d="M 1959 3097 
Q 1497 3097 1228 2736 
Q 959 2375 959 1747 
Q 959 1119 1226 758 
Q 1494 397 1959 397 
Q 2419 397 2687 759 
Q 2956 1122 2956 1747 
Q 2956 2369 2687 2733 
Q 2419 3097 1959 3097 
z
M 1959 3584 
Q 2709 3584 3137 3096 
Q 3566 2609 3566 1747 
Q 3566 888 3137 398 
Q 2709 -91 1959 -91 
Q 1206 -91 779 398 
Q 353 888 353 1747 
Q 353 2609 779 3096 
Q 1206 3584 1959 3584 
z
" transform="scale(0.015625)"/>
        <path id="DejaVuSans-33" d="M 2597 2516 
Q 3050 2419 3304 2112 
Q 3559 1806 3559 1356 
Q 3559 666 3084 287 
Q 2609 -91 1734 -91 
Q 1441 -91 1130 -33 
Q 819 25 488 141 
L 488 750 
Q 750 597 1062 519 
Q 1375 441 1716 441 
Q 2309 441 2620 675 
Q 2931 909 2931 1356 
Q 2931 1769 2642 2001 
Q 2353 2234 1838 2234 
L 1294 2234 
L 1294 2753 
L 1863 2753 
Q 2328 2753 2575 2939 
Q 2822 3125 2822 3475 
Q 2822 3834 2567 4026 
Q 2313 4219 1838 4219 
Q 1578 4219 1281 4162 
Q 984 4106 628 3988 
L 628 4550 
Q 988 4650 1302 4700 
Q 1616 4750 1894 4750 
Q 2613 4750 3031 4423 
Q 3450 4097 3450 3541 
Q 3450 3153 3228 2886 
Q 3006 2619 2597 2516 
z
" transform="scale(0.015625)"/>
       </defs>
       <use xlink:href="#DejaVuSans-61"/>
       <use xlink:href="#DejaVuSans-66" x="61.279297"/>
       <use xlink:href="#DejaVuSans-6c" x="96.484375"/>
       <use xlink:href="#DejaVuSans-70" x="124.267578"/>
       <use xlink:href="#DejaVuSans-6c" x="187.744141"/>
       <use xlink:href="#DejaVuSans-75" x="215.527344"/>
       <use xlink:href="#DejaVuSans-73" x="278.90625"/>
       <use xlink:href="#DejaVuSans-70" x="331.005859"/>
       <use xlink:href="#DejaVuSans-6c" x="394.482422"/>
       <use xlink:href="#DejaVuSans-75" x="422.265625"/>
       <use xlink:href="#DejaVuSans-73" x="485.644531"/>
       <use xlink:href="#DejaVuSans-5f" x="537.744141"/>
       <use xlink:href="#DejaVuSans-61" x="587.744141"/>
       <use xlink:href="#DejaVuSans-73" x="649.023438"/>
       <use xlink:href="#DejaVuSans-74" x="701.123047"/>
       <use xlink:href="#DejaVuSans-5f" x="740.332031"/>
       <use xlink:href="#DejaVuSans-6f" x="790.332031"/>
       <use xlink:href="#DejaVuSans-33" x="851.513672"/>
       <use xlink:href="#DejaVuSans-5f" x="915.136719"/>
       <use xlink:href="#DejaVuSans-6c" x="965.136719"/>
       <use xlink:href="#DejaVuSans-74" x="992.919922"/>
       <use xlink:href="#DejaVuSans-6f" x="1032.128906"/>
      </g>
     </g>
    </g>
    <g id="xtick_2">
     <g id="line2d_2">
      <g>
       <use xlink:href="#m687b4ef16f" x="151.500412" y="288.430125" style="stroke: #000000; stroke-width: 0.8"/>
      </g>
     </g>
     <g id="text_2">
      <!-- aflplusplus_ast_f0 -->
      <g transform="translate(73.319669 346.467596)rotate(-30)scale(0.1 -0.1)">
       <defs>
        <path id="DejaVuSans-30" d="M 2034 4250 
Q 1547 4250 1301 3770 
Q 1056 3291 1056 2328 
Q 1056 1369 1301 889 
Q 1547 409 2034 409 
Q 2525 409 2770 889 
Q 3016 1369 3016 2328 
Q 3016 3291 2770 3770 
Q 2525 4250 2034 4250 
z
M 2034 4750 
Q 2819 4750 3233 4129 
Q 3647 3509 3647 2328 
Q 3647 1150 3233 529 
Q 2819 -91 2034 -91 
Q 1250 -91 836 529 
Q 422 1150 422 2328 
Q 422 3509 836 4129 
Q 1250 4750 2034 4750 
z
" transform="scale(0.015625)"/>
       </defs>
       <use xlink:href="#DejaVuSans-61"/>
       <use xlink:href="#DejaVuSans-66" x="61.279297"/>
       <use xlink:href="#DejaVuSans-6c" x="96.484375"/>
       <use xlink:href="#DejaVuSans-70" x="124.267578"/>
       <use xlink:href="#DejaVuSans-6c" x="187.744141"/>
       <use xlink:href="#DejaVuSans-75" x="215.527344"/>
       <use xlink:href="#DejaVuSans-73" x="278.90625"/>
       <use xlink:href="#DejaVuSans-70" x="331.005859"/>
       <use xlink:href="#DejaVuSans-6c" x="394.482422"/>
       <use xlink:href="#DejaVuSans-75" x="422.265625"/>
       <use xlink:href="#DejaVuSans-73" x="485.644531"/>
       <use xlink:href="#DejaVuSans-5f" x="537.744141"/>
       <use xlink:href="#DejaVuSans-61" x="587.744141"/>
       <use xlink:href="#DejaVuSans-73" x="649.023438"/>
       <use xlink:href="#DejaVuSans-74" x="701.123047"/>
       <use xlink:href="#DejaVuSans-5f" x="740.332031"/>
       <use xlink:href="#DejaVuSans-66" x="790.332031"/>
       <use xlink:href="#DejaVuSans-30" x="825.537109"/>
      </g>
     </g>
    </g>
    <g id="xtick_3">
     <g id="line2d_3">
      <g>
       <use xlink:href="#m687b4ef16f" x="196.140412" y="288.430125" style="stroke: #000000; stroke-width: 0.8"/>
      </g>
     </g>
     <g id="text_3">
      <!-- aflplusplus_ast_f1 -->
      <g transform="translate(117.959669 346.467596)rotate(-30)scale(0.1 -0.1)">
       <defs>
        <path id="DejaVuSans-31" d="M 794 531 
L 1825 531 
L 1825 4091 
L 703 3866 
L 703 4441 
L 1819 4666 
L 2450 4666 
L 2450 531 
L 3481 531 
L 3481 0 
L 794 0 
L 794 531 
z
" transform="scale(0.015625)"/>
       </defs>
       <use xlink:href="#DejaVuSans-61"/>
       <use xlink:href="#DejaVuSans-66" x="61.279297"/>
       <use xlink:href="#DejaVuSans-6c" x="96.484375"/>
       <use xlink:href="#DejaVuSans-70" x="124.267578"/>
       <use xlink:href="#DejaVuSans-6c" x="187.744141"/>
       <use xlink:href="#DejaVuSans-75" x="215.527344"/>
       <use xlink:href="#DejaVuSans-73" x="278.90625"/>
       <use xlink:href="#DejaVuSans-70" x="331.005859"/>
       <use xlink:href="#DejaVuSans-6c" x="394.482422"/>
       <use xlink:href="#DejaVuSans-75" x="422.265625"/>
       <use xlink:href="#DejaVuSans-73" x="485.644531"/>
       <use xlink:href="#DejaVuSans-5f" x="537.744141"/>
       <use xlink:href="#DejaVuSans-61" x="587.744141"/>
       <use xlink:href="#DejaVuSans-73" x="649.023438"/>
       <use xlink:href="#DejaVuSans-74" x="701.123047"/>
       <use xlink:href="#DejaVuSans-5f" x="740.332031"/>
       <use xlink:href="#DejaVuSans-66" x="790.332031"/>
       <use xlink:href="#DejaVuSans-31" x="825.537109"/>
      </g>
     </g>
    </g>
    <g id="xtick_4">
     <g id="line2d_4">
      <g>
       <use xlink:href="#m687b4ef16f" x="240.780412" y="288.430125" style="stroke: #000000; stroke-width: 0.8"/>
      </g>
     </g>
     <g id="text_4">
      <!-- aflplusplus_ast_o3_native -->
      <g transform="translate(128.968113 365.884784)rotate(-30)scale(0.1 -0.1)">
       <defs>
        <path id="DejaVuSans-6e" d="M 3513 2113 
L 3513 0 
L 2938 0 
L 2938 2094 
Q 2938 2591 2744 2837 
Q 2550 3084 2163 3084 
Q 1697 3084 1428 2787 
Q 1159 2491 1159 1978 
L 1159 0 
L 581 0 
L 581 3500 
L 1159 3500 
L 1159 2956 
Q 1366 3272 1645 3428 
Q 1925 3584 2291 3584 
Q 2894 3584 3203 3211 
Q 3513 2838 3513 2113 
z
" transform="scale(0.015625)"/>
        <path id="DejaVuSans-69" d="M 603 3500 
L 1178 3500 
L 1178 0 
L 603 0 
L 603 3500 
z
M 603 4863 
L 1178 4863 
L 1178 4134 
L 603 4134 
L 603 4863 
z
" transform="scale(0.015625)"/>
        <path id="DejaVuSans-76" d="M 191 3500 
L 800 3500 
L 1894 563 
L 2988 3500 
L 3597 3500 
L 2284 0 
L 1503 0 
L 191 3500 
z
" transform="scale(0.015625)"/>
        <path id="DejaVuSans-65" d="M 3597 1894 
L 3597 1613 
L 953 1613 
Q 991 1019 1311 708 
Q 1631 397 2203 397 
Q 2534 397 2845 478 
Q 3156 559 3463 722 
L 3463 178 
Q 3153 47 2828 -22 
Q 2503 -91 2169 -91 
Q 1331 -91 842 396 
Q 353 884 353 1716 
Q 353 2575 817 3079 
Q 1281 3584 2069 3584 
Q 2775 3584 3186 3129 
Q 3597 2675 3597 1894 
z
M 3022 2063 
Q 3016 2534 2758 2815 
Q 2500 3097 2075 3097 
Q 1594 3097 1305 2825 
Q 1016 2553 972 2059 
L 3022 2063 
z
" transform="scale(0.015625)"/>
       </defs>
       <use xlink:href="#DejaVuSans-61"/>
       <use xlink:href="#DejaVuSans-66" x="61.279297"/>
       <use xlink:href="#DejaVuSans-6c" x="96.484375"/>
       <use xlink:href="#DejaVuSans-70" x="124.267578"/>
       <use xlink:href="#DejaVuSans-6c" x="187.744141"/>
       <use xlink:href="#DejaVuSans-75" x="215.527344"/>
       <use xlink:href="#DejaVuSans-73" x="278.90625"/>
       <use xlink:href="#DejaVuSans-70" x="331.005859"/>
       <use xlink:href="#DejaVuSans-6c" x="394.482422"/>
       <use xlink:href="#DejaVuSans-75" x="422.265625"/>
       <use xlink:href="#DejaVuSans-73" x="485.644531"/>
       <use xlink:href="#DejaVuSans-5f" x="537.744141"/>
       <use xlink:href="#DejaVuSans-61" x="587.744141"/>
       <use xlink:href="#DejaVuSans-73" x="649.023438"/>
       <use xlink:href="#DejaVuSans-74" x="701.123047"/>
       <use xlink:href="#DejaVuSans-5f" x="740.332031"/>
       <use xlink:href="#DejaVuSans-6f" x="790.332031"/>
       <use xlink:href="#DejaVuSans-33" x="851.513672"/>
       <use xlink:href="#DejaVuSans-5f" x="915.136719"/>
       <use xlink:href="#DejaVuSans-6e" x="965.136719"/>
       <use xlink:href="#DejaVuSans-61" x="1028.515625"/>
       <use xlink:href="#DejaVuSans-74" x="1089.794922"/>
       <use xlink:href="#DejaVuSans-69" x="1129.003906"/>
       <use xlink:href="#DejaVuSans-76" x="1156.787109"/>
       <use xlink:href="#DejaVuSans-65" x="1215.966797"/>
      </g>
     </g>
    </g>
    <g id="xtick_5">
     <g id="line2d_5">
      <g>
       <use xlink:href="#m687b4ef16f" x="285.420412" y="288.430125" style="stroke: #000000; stroke-width: 0.8"/>
      </g>
     </g>
     <g id="text_5">
      <!-- aflplusplus_ast_o2 -->
      <g transform="translate(204.989356 347.766815)rotate(-30)scale(0.1 -0.1)">
       <defs>
        <path id="DejaVuSans-32" d="M 1228 531 
L 3431 531 
L 3431 0 
L 469 0 
L 469 531 
Q 828 903 1448 1529 
Q 2069 2156 2228 2338 
Q 2531 2678 2651 2914 
Q 2772 3150 2772 3378 
Q 2772 3750 2511 3984 
Q 2250 4219 1831 4219 
Q 1534 4219 1204 4116 
Q 875 4013 500 3803 
L 500 4441 
Q 881 4594 1212 4672 
Q 1544 4750 1819 4750 
Q 2544 4750 2975 4387 
Q 3406 4025 3406 3419 
Q 3406 3131 3298 2873 
Q 3191 2616 2906 2266 
Q 2828 2175 2409 1742 
Q 1991 1309 1228 531 
z
" transform="scale(0.015625)"/>
       </defs>
       <use xlink:href="#DejaVuSans-61"/>
       <use xlink:href="#DejaVuSans-66" x="61.279297"/>
       <use xlink:href="#DejaVuSans-6c" x="96.484375"/>
       <use xlink:href="#DejaVuSans-70" x="124.267578"/>
       <use xlink:href="#DejaVuSans-6c" x="187.744141"/>
       <use xlink:href="#DejaVuSans-75" x="215.527344"/>
       <use xlink:href="#DejaVuSans-73" x="278.90625"/>
       <use xlink:href="#DejaVuSans-70" x="331.005859"/>
       <use xlink:href="#DejaVuSans-6c" x="394.482422"/>
       <use xlink:href="#DejaVuSans-75" x="422.265625"/>
       <use xlink:href="#DejaVuSans-73" x="485.644531"/>
       <use xlink:href="#DejaVuSans-5f" x="537.744141"/>
       <use xlink:href="#DejaVuSans-61" x="587.744141"/>
       <use xlink:href="#DejaVuSans-73" x="649.023438"/>
       <use xlink:href="#DejaVuSans-74" x="701.123047"/>
       <use xlink:href="#DejaVuSans-5f" x="740.332031"/>
       <use xlink:href="#DejaVuSans-6f" x="790.332031"/>
       <use xlink:href="#DejaVuSans-32" x="851.513672"/>
      </g>
     </g>
    </g>
    <g id="xtick_6">
     <g id="line2d_6">
      <g>
       <use xlink:href="#m687b4ef16f" x="330.060412" y="288.430125" style="stroke: #000000; stroke-width: 0.8"/>
      </g>
     </g>
     <g id="text_6">
      <!-- aflplusplus_ast_o3 -->
      <g transform="translate(249.629356 347.766815)rotate(-30)scale(0.1 -0.1)">
       <use xlink:href="#DejaVuSans-61"/>
       <use xlink:href="#DejaVuSans-66" x="61.279297"/>
       <use xlink:href="#DejaVuSans-6c" x="96.484375"/>
       <use xlink:href="#DejaVuSans-70" x="124.267578"/>
       <use xlink:href="#DejaVuSans-6c" x="187.744141"/>
       <use xlink:href="#DejaVuSans-75" x="215.527344"/>
       <use xlink:href="#DejaVuSans-73" x="278.90625"/>
       <use xlink:href="#DejaVuSans-70" x="331.005859"/>
       <use xlink:href="#DejaVuSans-6c" x="394.482422"/>
       <use xlink:href="#DejaVuSans-75" x="422.265625"/>
       <use xlink:href="#DejaVuSans-73" x="485.644531"/>
       <use xlink:href="#DejaVuSans-5f" x="537.744141"/>
       <use xlink:href="#DejaVuSans-61" x="587.744141"/>
       <use xlink:href="#DejaVuSans-73" x="649.023438"/>
       <use xlink:href="#DejaVuSans-74" x="701.123047"/>
       <use xlink:href="#DejaVuSans-5f" x="740.332031"/>
       <use xlink:href="#DejaVuSans-6f" x="790.332031"/>
       <use xlink:href="#DejaVuSans-33" x="851.513672"/>
      </g>
     </g>
    </g>
    <g id="xtick_7">
     <g id="line2d_7">
      <g>
       <use xlink:href="#m687b4ef16f" x="374.700412" y="288.430125" style="stroke: #000000; stroke-width: 0.8"/>
      </g>
     </g>
     <g id="text_7">
      <!-- aflplusplus_ast_o0 -->
      <g transform="translate(294.269356 347.766815)rotate(-30)scale(0.1 -0.1)">
       <use xlink:href="#DejaVuSans-61"/>
       <use xlink:href="#DejaVuSans-66" x="61.279297"/>
       <use xlink:href="#DejaVuSans-6c" x="96.484375"/>
       <use xlink:href="#DejaVuSans-70" x="124.267578"/>
       <use xlink:href="#DejaVuSans-6c" x="187.744141"/>
       <use xlink:href="#DejaVuSans-75" x="215.527344"/>
       <use xlink:href="#DejaVuSans-73" x="278.90625"/>
       <use xlink:href="#DejaVuSans-70" x="331.005859"/>
       <use xlink:href="#DejaVuSans-6c" x="394.482422"/>
       <use xlink:href="#DejaVuSans-75" x="422.265625"/>
       <use xlink:href="#DejaVuSans-73" x="485.644531"/>
       <use xlink:href="#DejaVuSans-5f" x="537.744141"/>
       <use xlink:href="#DejaVuSans-61" x="587.744141"/>
       <use xlink:href="#DejaVuSans-73" x="649.023438"/>
       <use xlink:href="#DejaVuSans-74" x="701.123047"/>
       <use xlink:href="#DejaVuSans-5f" x="740.332031"/>
       <use xlink:href="#DejaVuSans-6f" x="790.332031"/>
       <use xlink:href="#DejaVuSans-30" x="851.513672"/>
      </g>
     </g>
    </g>
    <g id="xtick_8">
     <g id="line2d_8">
      <g>
       <use xlink:href="#m687b4ef16f" x="419.340412" y="288.430125" style="stroke: #000000; stroke-width: 0.8"/>
      </g>
     </g>
     <g id="text_8">
      <!-- aflplusplus_ast_o1 -->
      <g transform="translate(338.909356 347.766815)rotate(-30)scale(0.1 -0.1)">
       <use xlink:href="#DejaVuSans-61"/>
       <use xlink:href="#DejaVuSans-66" x="61.279297"/>
       <use xlink:href="#DejaVuSans-6c" x="96.484375"/>
       <use xlink:href="#DejaVuSans-70" x="124.267578"/>
       <use xlink:href="#DejaVuSans-6c" x="187.744141"/>
       <use xlink:href="#DejaVuSans-75" x="215.527344"/>
       <use xlink:href="#DejaVuSans-73" x="278.90625"/>
       <use xlink:href="#DejaVuSans-70" x="331.005859"/>
       <use xlink:href="#DejaVuSans-6c" x="394.482422"/>
       <use xlink:href="#DejaVuSans-75" x="422.265625"/>
       <use xlink:href="#DejaVuSans-73" x="485.644531"/>
       <use xlink:href="#DejaVuSans-5f" x="537.744141"/>
       <use xlink:href="#DejaVuSans-61" x="587.744141"/>
       <use xlink:href="#DejaVuSans-73" x="649.023438"/>
       <use xlink:href="#DejaVuSans-74" x="701.123047"/>
       <use xlink:href="#DejaVuSans-5f" x="740.332031"/>
       <use xlink:href="#DejaVuSans-6f" x="790.332031"/>
       <use xlink:href="#DejaVuSans-31" x="851.513672"/>
      </g>
     </g>
    </g>
    <g id="text_9">
     <!-- Fuzzer (highest median coverage on the left) -->
     <g transform="translate(150.482443 379.525147)scale(0.1 -0.1)">
      <defs>
       <path id="DejaVuSans-46" d="M 628 4666 
L 3309 4666 
L 3309 4134 
L 1259 4134 
L 1259 2759 
L 3109 2759 
L 3109 2228 
L 1259 2228 
L 1259 0 
L 628 0 
L 628 4666 
z
" transform="scale(0.015625)"/>
       <path id="DejaVuSans-7a" d="M 353 3500 
L 3084 3500 
L 3084 2975 
L 922 459 
L 3084 459 
L 3084 0 
L 275 0 
L 275 525 
L 2438 3041 
L 353 3041 
L 353 3500 
z
" transform="scale(0.015625)"/>
       <path id="DejaVuSans-72" d="M 2631 2963 
Q 2534 3019 2420 3045 
Q 2306 3072 2169 3072 
Q 1681 3072 1420 2755 
Q 1159 2438 1159 1844 
L 1159 0 
L 581 0 
L 581 3500 
L 1159 3500 
L 1159 2956 
Q 1341 3275 1631 3429 
Q 1922 3584 2338 3584 
Q 2397 3584 2469 3576 
Q 2541 3569 2628 3553 
L 2631 2963 
z
" transform="scale(0.015625)"/>
       <path id="DejaVuSans-20" transform="scale(0.015625)"/>
       <path id="DejaVuSans-28" d="M 1984 4856 
Q 1566 4138 1362 3434 
Q 1159 2731 1159 2009 
Q 1159 1288 1364 580 
Q 1569 -128 1984 -844 
L 1484 -844 
Q 1016 -109 783 600 
Q 550 1309 550 2009 
Q 550 2706 781 3412 
Q 1013 4119 1484 4856 
L 1984 4856 
z
" transform="scale(0.015625)"/>
       <path id="DejaVuSans-68" d="M 3513 2113 
L 3513 0 
L 2938 0 
L 2938 2094 
Q 2938 2591 2744 2837 
Q 2550 3084 2163 3084 
Q 1697 3084 1428 2787 
Q 1159 2491 1159 1978 
L 1159 0 
L 581 0 
L 581 4863 
L 1159 4863 
L 1159 2956 
Q 1366 3272 1645 3428 
Q 1925 3584 2291 3584 
Q 2894 3584 3203 3211 
Q 3513 2838 3513 2113 
z
" transform="scale(0.015625)"/>
       <path id="DejaVuSans-67" d="M 2906 1791 
Q 2906 2416 2648 2759 
Q 2391 3103 1925 3103 
Q 1463 3103 1205 2759 
Q 947 2416 947 1791 
Q 947 1169 1205 825 
Q 1463 481 1925 481 
Q 2391 481 2648 825 
Q 2906 1169 2906 1791 
z
M 3481 434 
Q 3481 -459 3084 -895 
Q 2688 -1331 1869 -1331 
Q 1566 -1331 1297 -1286 
Q 1028 -1241 775 -1147 
L 775 -588 
Q 1028 -725 1275 -790 
Q 1522 -856 1778 -856 
Q 2344 -856 2625 -561 
Q 2906 -266 2906 331 
L 2906 616 
Q 2728 306 2450 153 
Q 2172 0 1784 0 
Q 1141 0 747 490 
Q 353 981 353 1791 
Q 353 2603 747 3093 
Q 1141 3584 1784 3584 
Q 2172 3584 2450 3431 
Q 2728 3278 2906 2969 
L 2906 3500 
L 3481 3500 
L 3481 434 
z
" transform="scale(0.015625)"/>
       <path id="DejaVuSans-6d" d="M 3328 2828 
Q 3544 3216 3844 3400 
Q 4144 3584 4550 3584 
Q 5097 3584 5394 3201 
Q 5691 2819 5691 2113 
L 5691 0 
L 5113 0 
L 5113 2094 
Q 5113 2597 4934 2840 
Q 4756 3084 4391 3084 
Q 3944 3084 3684 2787 
Q 3425 2491 3425 1978 
L 3425 0 
L 2847 0 
L 2847 2094 
Q 2847 2600 2669 2842 
Q 2491 3084 2119 3084 
Q 1678 3084 1418 2786 
Q 1159 2488 1159 1978 
L 1159 0 
L 581 0 
L 581 3500 
L 1159 3500 
L 1159 2956 
Q 1356 3278 1631 3431 
Q 1906 3584 2284 3584 
Q 2666 3584 2933 3390 
Q 3200 3197 3328 2828 
z
" transform="scale(0.015625)"/>
       <path id="DejaVuSans-64" d="M 2906 2969 
L 2906 4863 
L 3481 4863 
L 3481 0 
L 2906 0 
L 2906 525 
Q 2725 213 2448 61 
Q 2172 -91 1784 -91 
Q 1150 -91 751 415 
Q 353 922 353 1747 
Q 353 2572 751 3078 
Q 1150 3584 1784 3584 
Q 2172 3584 2448 3432 
Q 2725 3281 2906 2969 
z
M 947 1747 
Q 947 1113 1208 752 
Q 1469 391 1925 391 
Q 2381 391 2643 752 
Q 2906 1113 2906 1747 
Q 2906 2381 2643 2742 
Q 2381 3103 1925 3103 
Q 1469 3103 1208 2742 
Q 947 2381 947 1747 
z
" transform="scale(0.015625)"/>
       <path id="DejaVuSans-63" d="M 3122 3366 
L 3122 2828 
Q 2878 2963 2633 3030 
Q 2388 3097 2138 3097 
Q 1578 3097 1268 2742 
Q 959 2388 959 1747 
Q 959 1106 1268 751 
Q 1578 397 2138 397 
Q 2388 397 2633 464 
Q 2878 531 3122 666 
L 3122 134 
Q 2881 22 2623 -34 
Q 2366 -91 2075 -91 
Q 1284 -91 818 406 
Q 353 903 353 1747 
Q 353 2603 823 3093 
Q 1294 3584 2113 3584 
Q 2378 3584 2631 3529 
Q 2884 3475 3122 3366 
z
" transform="scale(0.015625)"/>
       <path id="DejaVuSans-29" d="M 513 4856 
L 1013 4856 
Q 1481 4119 1714 3412 
Q 1947 2706 1947 2009 
Q 1947 1309 1714 600 
Q 1481 -109 1013 -844 
L 513 -844 
Q 928 -128 1133 580 
Q 1338 1288 1338 2009 
Q 1338 2731 1133 3434 
Q 928 4138 513 4856 
z
" transform="scale(0.015625)"/>
      </defs>
      <use xlink:href="#DejaVuSans-46"/>
      <use xlink:href="#DejaVuSans-75" x="52.019531"/>
      <use xlink:href="#DejaVuSans-7a" x="115.398438"/>
      <use xlink:href="#DejaVuSans-7a" x="167.888672"/>
      <use xlink:href="#DejaVuSans-65" x="220.378906"/>
      <use xlink:href="#DejaVuSans-72" x="281.902344"/>
      <use xlink:href="#DejaVuSans-20" x="323.015625"/>
      <use xlink:href="#DejaVuSans-28" x="354.802734"/>
      <use xlink:href="#DejaVuSans-68" x="393.816406"/>
      <use xlink:href="#DejaVuSans-69" x="457.195312"/>
      <use xlink:href="#DejaVuSans-67" x="484.978516"/>
      <use xlink:href="#DejaVuSans-68" x="548.455078"/>
      <use xlink:href="#DejaVuSans-65" x="611.833984"/>
      <use xlink:href="#DejaVuSans-73" x="673.357422"/>
      <use xlink:href="#DejaVuSans-74" x="725.457031"/>
      <use xlink:href="#DejaVuSans-20" x="764.666016"/>
      <use xlink:href="#DejaVuSans-6d" x="796.453125"/>
      <use xlink:href="#DejaVuSans-65" x="893.865234"/>
      <use xlink:href="#DejaVuSans-64" x="955.388672"/>
      <use xlink:href="#DejaVuSans-69" x="1018.865234"/>
      <use xlink:href="#DejaVuSans-61" x="1046.648438"/>
      <use xlink:href="#DejaVuSans-6e" x="1107.927734"/>
      <use xlink:href="#DejaVuSans-20" x="1171.306641"/>
      <use xlink:href="#DejaVuSans-63" x="1203.09375"/>
      <use xlink:href="#DejaVuSans-6f" x="1258.074219"/>
      <use xlink:href="#DejaVuSans-76" x="1319.255859"/>
      <use xlink:href="#DejaVuSans-65" x="1378.435547"/>
      <use xlink:href="#DejaVuSans-72" x="1439.958984"/>
      <use xlink:href="#DejaVuSans-61" x="1481.072266"/>
      <use xlink:href="#DejaVuSans-67" x="1542.351562"/>
      <use xlink:href="#DejaVuSans-65" x="1605.828125"/>
      <use xlink:href="#DejaVuSans-20" x="1667.351562"/>
      <use xlink:href="#DejaVuSans-6f" x="1699.138672"/>
      <use xlink:href="#DejaVuSans-6e" x="1760.320312"/>
      <use xlink:href="#DejaVuSans-20" x="1823.699219"/>
      <use xlink:href="#DejaVuSans-74" x="1855.486328"/>
      <use xlink:href="#DejaVuSans-68" x="1894.695312"/>
      <use xlink:href="#DejaVuSans-65" x="1958.074219"/>
      <use xlink:href="#DejaVuSans-20" x="2019.597656"/>
      <use xlink:href="#DejaVuSans-6c" x="2051.384766"/>
      <use xlink:href="#DejaVuSans-65" x="2079.167969"/>
      <use xlink:href="#DejaVuSans-66" x="2140.691406"/>
      <use xlink:href="#DejaVuSans-74" x="2174.146484"/>
      <use xlink:href="#DejaVuSans-29" x="2213.355469"/>
     </g>
    </g>
   </g>
   <g id="matplotlib.axis_2">
    <g id="ytick_1">
     <g id="line2d_9">
      <defs>
       <path id="m2e47197e57" d="M 0 0 
L -3.5 0 
" style="stroke: #000000; stroke-width: 0.8"/>
      </defs>
      <g>
       <use xlink:href="#m2e47197e57" x="84.540412" y="274.102685" style="stroke: #000000; stroke-width: 0.8"/>
      </g>
     </g>
     <g id="text_10">
      <!-- 2600 -->
      <g transform="translate(52.090412 277.901904)scale(0.1 -0.1)">
       <defs>
        <path id="DejaVuSans-36" d="M 2113 2584 
Q 1688 2584 1439 2293 
Q 1191 2003 1191 1497 
Q 1191 994 1439 701 
Q 1688 409 2113 409 
Q 2538 409 2786 701 
Q 3034 994 3034 1497 
Q 3034 2003 2786 2293 
Q 2538 2584 2113 2584 
z
M 3366 4563 
L 3366 3988 
Q 3128 4100 2886 4159 
Q 2644 4219 2406 4219 
Q 1781 4219 1451 3797 
Q 1122 3375 1075 2522 
Q 1259 2794 1537 2939 
Q 1816 3084 2150 3084 
Q 2853 3084 3261 2657 
Q 3669 2231 3669 1497 
Q 3669 778 3244 343 
Q 2819 -91 2113 -91 
Q 1303 -91 875 529 
Q 447 1150 447 2328 
Q 447 3434 972 4092 
Q 1497 4750 2381 4750 
Q 2619 4750 2861 4703 
Q 3103 4656 3366 4563 
z
" transform="scale(0.015625)"/>
       </defs>
       <use xlink:href="#DejaVuSans-32"/>
       <use xlink:href="#DejaVuSans-36" x="63.623047"/>
       <use xlink:href="#DejaVuSans-30" x="127.246094"/>
       <use xlink:href="#DejaVuSans-30" x="190.869141"/>
      </g>
     </g>
    </g>
    <g id="ytick_2">
     <g id="line2d_10">
      <g>
       <use xlink:href="#m2e47197e57" x="84.540412" y="231.240389" style="stroke: #000000; stroke-width: 0.8"/>
      </g>
     </g>
     <g id="text_11">
      <!-- 2800 -->
      <g transform="translate(52.090412 235.039608)scale(0.1 -0.1)">
       <defs>
        <path id="DejaVuSans-38" d="M 2034 2216 
Q 1584 2216 1326 1975 
Q 1069 1734 1069 1313 
Q 1069 891 1326 650 
Q 1584 409 2034 409 
Q 2484 409 2743 651 
Q 3003 894 3003 1313 
Q 3003 1734 2745 1975 
Q 2488 2216 2034 2216 
z
M 1403 2484 
Q 997 2584 770 2862 
Q 544 3141 544 3541 
Q 544 4100 942 4425 
Q 1341 4750 2034 4750 
Q 2731 4750 3128 4425 
Q 3525 4100 3525 3541 
Q 3525 3141 3298 2862 
Q 3072 2584 2669 2484 
Q 3125 2378 3379 2068 
Q 3634 1759 3634 1313 
Q 3634 634 3220 271 
Q 2806 -91 2034 -91 
Q 1263 -91 848 271 
Q 434 634 434 1313 
Q 434 1759 690 2068 
Q 947 2378 1403 2484 
z
M 1172 3481 
Q 1172 3119 1398 2916 
Q 1625 2713 2034 2713 
Q 2441 2713 2670 2916 
Q 2900 3119 2900 3481 
Q 2900 3844 2670 4047 
Q 2441 4250 2034 4250 
Q 1625 4250 1398 4047 
Q 1172 3844 1172 3481 
z
" transform="scale(0.015625)"/>
       </defs>
       <use xlink:href="#DejaVuSans-32"/>
       <use xlink:href="#DejaVuSans-38" x="63.623047"/>
       <use xlink:href="#DejaVuSans-30" x="127.246094"/>
       <use xlink:href="#DejaVuSans-30" x="190.869141"/>
      </g>
     </g>
    </g>
    <g id="ytick_3">
     <g id="line2d_11">
      <g>
       <use xlink:href="#m2e47197e57" x="84.540412" y="188.378093" style="stroke: #000000; stroke-width: 0.8"/>
      </g>
     </g>
     <g id="text_12">
      <!-- 3000 -->
      <g transform="translate(52.090412 192.177312)scale(0.1 -0.1)">
       <use xlink:href="#DejaVuSans-33"/>
       <use xlink:href="#DejaVuSans-30" x="63.623047"/>
       <use xlink:href="#DejaVuSans-30" x="127.246094"/>
       <use xlink:href="#DejaVuSans-30" x="190.869141"/>
      </g>
     </g>
    </g>
    <g id="ytick_4">
     <g id="line2d_12">
      <g>
       <use xlink:href="#m2e47197e57" x="84.540412" y="145.515797" style="stroke: #000000; stroke-width: 0.8"/>
      </g>
     </g>
     <g id="text_13">
      <!-- 3200 -->
      <g transform="translate(52.090412 149.315016)scale(0.1 -0.1)">
       <use xlink:href="#DejaVuSans-33"/>
       <use xlink:href="#DejaVuSans-32" x="63.623047"/>
       <use xlink:href="#DejaVuSans-30" x="127.246094"/>
       <use xlink:href="#DejaVuSans-30" x="190.869141"/>
      </g>
     </g>
    </g>
    <g id="ytick_5">
     <g id="line2d_13">
      <g>
       <use xlink:href="#m2e47197e57" x="84.540412" y="102.653501" style="stroke: #000000; stroke-width: 0.8"/>
      </g>
     </g>
     <g id="text_14">
      <!-- 3400 -->
      <g transform="translate(52.090412 106.45272)scale(0.1 -0.1)">
       <defs>
        <path id="DejaVuSans-34" d="M 2419 4116 
L 825 1625 
L 2419 1625 
L 2419 4116 
z
M 2253 4666 
L 3047 4666 
L 3047 1625 
L 3713 1625 
L 3713 1100 
L 3047 1100 
L 3047 0 
L 2419 0 
L 2419 1100 
L 313 1100 
L 313 1709 
L 2253 4666 
z
" transform="scale(0.015625)"/>
       </defs>
       <use xlink:href="#DejaVuSans-33"/>
       <use xlink:href="#DejaVuSans-34" x="63.623047"/>
       <use xlink:href="#DejaVuSans-30" x="127.246094"/>
       <use xlink:href="#DejaVuSans-30" x="190.869141"/>
      </g>
     </g>
    </g>
    <g id="ytick_6">
     <g id="line2d_14">
      <g>
       <use xlink:href="#m2e47197e57" x="84.540412" y="59.791205" style="stroke: #000000; stroke-width: 0.8"/>
      </g>
     </g>
     <g id="text_15">
      <!-- 3600 -->
      <g transform="translate(52.090412 63.590423)scale(0.1 -0.1)">
       <use xlink:href="#DejaVuSans-33"/>
       <use xlink:href="#DejaVuSans-36" x="63.623047"/>
       <use xlink:href="#DejaVuSans-30" x="127.246094"/>
       <use xlink:href="#DejaVuSans-30" x="190.869141"/>
      </g>
     </g>
    </g>
    <g id="text_16">
     <!-- Reached region coverage -->
     <g transform="translate(46.010724 219.136625)rotate(-90)scale(0.1 -0.1)">
      <defs>
       <path id="DejaVuSans-52" d="M 2841 2188 
Q 3044 2119 3236 1894 
Q 3428 1669 3622 1275 
L 4263 0 
L 3584 0 
L 2988 1197 
Q 2756 1666 2539 1819 
Q 2322 1972 1947 1972 
L 1259 1972 
L 1259 0 
L 628 0 
L 628 4666 
L 2053 4666 
Q 2853 4666 3247 4331 
Q 3641 3997 3641 3322 
Q 3641 2881 3436 2590 
Q 3231 2300 2841 2188 
z
M 1259 4147 
L 1259 2491 
L 2053 2491 
Q 2509 2491 2742 2702 
Q 2975 2913 2975 3322 
Q 2975 3731 2742 3939 
Q 2509 4147 2053 4147 
L 1259 4147 
z
" transform="scale(0.015625)"/>
      </defs>
      <use xlink:href="#DejaVuSans-52"/>
      <use xlink:href="#DejaVuSans-65" x="64.982422"/>
      <use xlink:href="#DejaVuSans-61" x="126.505859"/>
      <use xlink:href="#DejaVuSans-63" x="187.785156"/>
      <use xlink:href="#DejaVuSans-68" x="242.765625"/>
      <use xlink:href="#DejaVuSans-65" x="306.144531"/>
      <use xlink:href="#DejaVuSans-64" x="367.667969"/>
      <use xlink:href="#DejaVuSans-20" x="431.144531"/>
      <use xlink:href="#DejaVuSans-72" x="462.931641"/>
      <use xlink:href="#DejaVuSans-65" x="501.794922"/>
      <use xlink:href="#DejaVuSans-67" x="563.318359"/>
      <use xlink:href="#DejaVuSans-69" x="626.794922"/>
      <use xlink:href="#DejaVuSans-6f" x="654.578125"/>
      <use xlink:href="#DejaVuSans-6e" x="715.759766"/>
      <use xlink:href="#DejaVuSans-20" x="779.138672"/>
      <use xlink:href="#DejaVuSans-63" x="810.925781"/>
      <use xlink:href="#DejaVuSans-6f" x="865.90625"/>
      <use xlink:href="#DejaVuSans-76" x="927.087891"/>
      <use xlink:href="#DejaVuSans-65" x="986.267578"/>
      <use xlink:href="#DejaVuSans-72" x="1047.791016"/>
      <use xlink:href="#DejaVuSans-61" x="1088.904297"/>
      <use xlink:href="#DejaVuSans-67" x="1150.183594"/>
      <use xlink:href="#DejaVuSans-65" x="1213.660156"/>
     </g>
    </g>
   </g>
   <g id="line2d_15">
    <path d="M 106.860412 184.306175 
L 106.860412 113.369075 
" clip-path="url(#p2b0e0b4beb)" style="fill: none; stroke: #3d3d3d; stroke-width: 1.5; stroke-linecap: square"/>
   </g>
   <g id="line2d_16">
    <path d="M 106.860412 149.159092 
L 106.860412 113.690542 
" clip-path="url(#p2b0e0b4beb)" style="fill: none; stroke: #3d3d3d; stroke-width: 4.5; stroke-linecap: square"/>
   </g>
   <g id="line2d_17">
    <path d="M 151.500412 115.51219 
L 151.500412 109.72578 
" clip-path="url(#p2b0e0b4beb)" style="fill: none; stroke: #3d3d3d; stroke-width: 1.5; stroke-linecap: square"/>
   </g>
   <g id="line2d_18">
    <path d="M 151.500412 114.869255 
L 151.500412 111.97605 
" clip-path="url(#p2b0e0b4beb)" style="fill: none; stroke: #3d3d3d; stroke-width: 4.5; stroke-linecap: square"/>
   </g>
   <g id="line2d_19">
    <path d="M 196.140412 115.726501 
L 196.140412 111.011649 
" clip-path="url(#p2b0e0b4beb)" style="fill: none; stroke: #3d3d3d; stroke-width: 1.5; stroke-linecap: square"/>
   </g>
   <g id="line2d_20">
    <path d="M 196.140412 115.083567 
L 196.140412 112.72614 
" clip-path="url(#p2b0e0b4beb)" style="fill: none; stroke: #3d3d3d; stroke-width: 4.5; stroke-linecap: square"/>
   </g>
   <g id="line2d_21">
    <path d="M 240.780412 190.306896 
L 240.780412 106.511107 
" clip-path="url(#p2b0e0b4beb)" style="fill: none; stroke: #3d3d3d; stroke-width: 1.5; stroke-linecap: square"/>
   </g>
   <g id="line2d_22">
    <path d="M 240.780412 170.858129 
L 240.780412 113.154763 
" clip-path="url(#p2b0e0b4beb)" style="fill: none; stroke: #3d3d3d; stroke-width: 4.5; stroke-linecap: square"/>
   </g>
   <g id="line2d_23">
    <path d="M 285.420412 209.166307 
L 285.420412 101.581943 
" clip-path="url(#p2b0e0b4beb)" style="fill: none; stroke: #3d3d3d; stroke-width: 1.5; stroke-linecap: square"/>
   </g>
   <g id="line2d_24">
    <path d="M 285.420412 189.878273 
L 285.420412 112.618985 
" clip-path="url(#p2b0e0b4beb)" style="fill: none; stroke: #3d3d3d; stroke-width: 4.5; stroke-linecap: square"/>
   </g>
   <g id="line2d_25">
    <path d="M 330.060412 191.378454 
L 330.060412 114.869255 
" clip-path="url(#p2b0e0b4beb)" style="fill: none; stroke: #3d3d3d; stroke-width: 1.5; stroke-linecap: square"/>
   </g>
   <g id="line2d_26">
    <path d="M 330.060412 186.610023 
L 330.060412 130.781883 
" clip-path="url(#p2b0e0b4beb)" style="fill: none; stroke: #3d3d3d; stroke-width: 4.5; stroke-linecap: square"/>
   </g>
   <g id="line2d_27">
    <path d="M 374.700412 185.377732 
L 374.700412 108.439911 
" clip-path="url(#p2b0e0b4beb)" style="fill: none; stroke: #3d3d3d; stroke-width: 1.5; stroke-linecap: square"/>
   </g>
   <g id="line2d_28">
    <path d="M 374.700412 183.609663 
L 374.700412 127.674366 
" clip-path="url(#p2b0e0b4beb)" style="fill: none; stroke: #3d3d3d; stroke-width: 4.5; stroke-linecap: square"/>
   </g>
   <g id="line2d_29">
    <path d="M 419.340412 190.949831 
L 419.340412 114.012009 
" clip-path="url(#p2b0e0b4beb)" style="fill: none; stroke: #3d3d3d; stroke-width: 1.5; stroke-linecap: square"/>
   </g>
   <g id="line2d_30">
    <path d="M 419.340412 187.145802 
L 419.340412 131.692706 
" clip-path="url(#p2b0e0b4beb)" style="fill: none; stroke: #3d3d3d; stroke-width: 4.5; stroke-linecap: square"/>
   </g>
   <g id="patch_3">
    <path d="M 84.540412 274.102685 
L 84.540412 59.791205 
" style="fill: none; stroke: #000000; stroke-width: 0.8; stroke-linejoin: miter; stroke-linecap: square"/>
   </g>
   <g id="patch_4">
    <path d="M 106.860412 288.430125 
L 419.340412 288.430125 
" style="fill: none; stroke: #000000; stroke-width: 0.8; stroke-linejoin: miter; stroke-linecap: square"/>
   </g>
   <g id="PathCollection_1">
    <defs>
     <path id="mebc289306e" d="M 0 1.5 
C 0.397805 1.5 0.77937 1.341951 1.06066 1.06066 
C 1.341951 0.77937 1.5 0.397805 1.5 0 
C 1.5 -0.397805 1.341951 -0.77937 1.06066 -1.06066 
C 0.77937 -1.341951 0.397805 -1.5 0 -1.5 
C -0.397805 -1.5 -0.77937 -1.341951 -1.06066 -1.06066 
C -1.341951 -0.77937 -1.5 -0.397805 -1.5 0 
C -1.5 0.397805 -1.341951 0.77937 -1.06066 1.06066 
C -0.77937 1.341951 -0.397805 1.5 0 1.5 
z
" style="stroke: #3d3d3d"/>
    </defs>
    <g clip-path="url(#p2b0e0b4beb)">
     <use xlink:href="#mebc289306e" x="106.860412" y="114.012009" style="fill: #ffffff; stroke: #3d3d3d"/>
    </g>
   </g>
   <g id="PathCollection_2">
    <g clip-path="url(#p2b0e0b4beb)">
     <use xlink:href="#mebc289306e" x="151.500412" y="114.226321" style="fill: #ffffff; stroke: #3d3d3d"/>
    </g>
   </g>
   <g id="PathCollection_3">
    <g clip-path="url(#p2b0e0b4beb)">
     <use xlink:href="#mebc289306e" x="196.140412" y="114.226321" style="fill: #ffffff; stroke: #3d3d3d"/>
    </g>
   </g>
   <g id="PathCollection_4">
    <g clip-path="url(#p2b0e0b4beb)">
     <use xlink:href="#mebc289306e" x="240.780412" y="114.440632" style="fill: #ffffff; stroke: #3d3d3d"/>
    </g>
   </g>
   <g id="PathCollection_5">
    <g clip-path="url(#p2b0e0b4beb)">
     <use xlink:href="#mebc289306e" x="285.420412" y="150.444961" style="fill: #ffffff; stroke: #3d3d3d"/>
    </g>
   </g>
   <g id="PathCollection_6">
    <g clip-path="url(#p2b0e0b4beb)">
     <use xlink:href="#mebc289306e" x="330.060412" y="180.877191" style="fill: #ffffff; stroke: #3d3d3d"/>
    </g>
   </g>
   <g id="PathCollection_7">
    <g clip-path="url(#p2b0e0b4beb)">
     <use xlink:href="#mebc289306e" x="374.700412" y="181.198658" style="fill: #ffffff; stroke: #3d3d3d"/>
    </g>
   </g>
   <g id="PathCollection_8">
    <g clip-path="url(#p2b0e0b4beb)">
     <use xlink:href="#mebc289306e" x="419.340412" y="184.091863" style="fill: #ffffff; stroke: #3d3d3d"/>
    </g>
   </g>
   <g id="text_17">
    <!-- libjpeg-turbo-07-2017 (4h:15m, 3 trials/fuzzer) -->
    <g transform="translate(122.772599 16.318125)scale(0.12 -0.12)">
     <defs>
      <path id="DejaVuSans-62" d="M 3116 1747 
Q 3116 2381 2855 2742 
Q 2594 3103 2138 3103 
Q 1681 3103 1420 2742 
Q 1159 2381 1159 1747 
Q 1159 1113 1420 752 
Q 1681 391 2138 391 
Q 2594 391 2855 752 
Q 3116 1113 3116 1747 
z
M 1159 2969 
Q 1341 3281 1617 3432 
Q 1894 3584 2278 3584 
Q 2916 3584 3314 3078 
Q 3713 2572 3713 1747 
Q 3713 922 3314 415 
Q 2916 -91 2278 -91 
Q 1894 -91 1617 61 
Q 1341 213 1159 525 
L 1159 0 
L 581 0 
L 581 4863 
L 1159 4863 
L 1159 2969 
z
" transform="scale(0.015625)"/>
      <path id="DejaVuSans-6a" d="M 603 3500 
L 1178 3500 
L 1178 -63 
Q 1178 -731 923 -1031 
Q 669 -1331 103 -1331 
L -116 -1331 
L -116 -844 
L 38 -844 
Q 366 -844 484 -692 
Q 603 -541 603 -63 
L 603 3500 
z
M 603 4863 
L 1178 4863 
L 1178 4134 
L 603 4134 
L 603 4863 
z
" transform="scale(0.015625)"/>
      <path id="DejaVuSans-2d" d="M 313 2009 
L 1997 2009 
L 1997 1497 
L 313 1497 
L 313 2009 
z
" transform="scale(0.015625)"/>
      <path id="DejaVuSans-37" d="M 525 4666 
L 3525 4666 
L 3525 4397 
L 1831 0 
L 1172 0 
L 2766 4134 
L 525 4134 
L 525 4666 
z
" transform="scale(0.015625)"/>
      <path id="DejaVuSans-3a" d="M 750 794 
L 1409 794 
L 1409 0 
L 750 0 
L 750 794 
z
M 750 3309 
L 1409 3309 
L 1409 2516 
L 750 2516 
L 750 3309 
z
" transform="scale(0.015625)"/>
      <path id="DejaVuSans-35" d="M 691 4666 
L 3169 4666 
L 3169 4134 
L 1269 4134 
L 1269 2991 
Q 1406 3038 1543 3061 
Q 1681 3084 1819 3084 
Q 2600 3084 3056 2656 
Q 3513 2228 3513 1497 
Q 3513 744 3044 326 
Q 2575 -91 1722 -91 
Q 1428 -91 1123 -41 
Q 819 9 494 109 
L 494 744 
Q 775 591 1075 516 
Q 1375 441 1709 441 
Q 2250 441 2565 725 
Q 2881 1009 2881 1497 
Q 2881 1984 2565 2268 
Q 2250 2553 1709 2553 
Q 1456 2553 1204 2497 
Q 953 2441 691 2322 
L 691 4666 
z
" transform="scale(0.015625)"/>
      <path id="DejaVuSans-2c" d="M 750 794 
L 1409 794 
L 1409 256 
L 897 -744 
L 494 -744 
L 750 256 
L 750 794 
z
" transform="scale(0.015625)"/>
      <path id="DejaVuSans-2f" d="M 1625 4666 
L 2156 4666 
L 531 -594 
L 0 -594 
L 1625 4666 
z
" transform="scale(0.015625)"/>
     </defs>
     <use xlink:href="#DejaVuSans-6c"/>
     <use xlink:href="#DejaVuSans-69" x="27.783203"/>
     <use xlink:href="#DejaVuSans-62" x="55.566406"/>
     <use xlink:href="#DejaVuSans-6a" x="119.042969"/>
     <use xlink:href="#DejaVuSans-70" x="146.826172"/>
     <use xlink:href="#DejaVuSans-65" x="210.302734"/>
     <use xlink:href="#DejaVuSans-67" x="271.826172"/>
     <use xlink:href="#DejaVuSans-2d" x="335.302734"/>
     <use xlink:href="#DejaVuSans-74" x="371.386719"/>
     <use xlink:href="#DejaVuSans-75" x="410.595703"/>
     <use xlink:href="#DejaVuSans-72" x="473.974609"/>
     <use xlink:href="#DejaVuSans-62" x="515.087891"/>
     <use xlink:href="#DejaVuSans-6f" x="578.564453"/>
     <use xlink:href="#DejaVuSans-2d" x="641.621094"/>
     <use xlink:href="#DejaVuSans-30" x="677.705078"/>
     <use xlink:href="#DejaVuSans-37" x="741.328125"/>
     <use xlink:href="#DejaVuSans-2d" x="804.951172"/>
     <use xlink:href="#DejaVuSans-32" x="841.035156"/>
     <use xlink:href="#DejaVuSans-30" x="904.658203"/>
     <use xlink:href="#DejaVuSans-31" x="968.28125"/>
     <use xlink:href="#DejaVuSans-37" x="1031.904297"/>
     <use xlink:href="#DejaVuSans-20" x="1095.527344"/>
     <use xlink:href="#DejaVuSans-28" x="1127.314453"/>
     <use xlink:href="#DejaVuSans-34" x="1166.328125"/>
     <use xlink:href="#DejaVuSans-68" x="1229.951172"/>
     <use xlink:href="#DejaVuSans-3a" x="1293.330078"/>
     <use xlink:href="#DejaVuSans-31" x="1327.021484"/>
     <use xlink:href="#DejaVuSans-35" x="1390.644531"/>
     <use xlink:href="#DejaVuSans-6d" x="1454.267578"/>
     <use xlink:href="#DejaVuSans-2c" x="1551.679688"/>
     <use xlink:href="#DejaVuSans-20" x="1583.466797"/>
     <use xlink:href="#DejaVuSans-33" x="1615.253906"/>
     <use xlink:href="#DejaVuSans-20" x="1678.876953"/>
     <use xlink:href="#DejaVuSans-74" x="1710.664062"/>
     <use xlink:href="#DejaVuSans-72" x="1749.873047"/>
     <use xlink:href="#DejaVuSans-69" x="1790.986328"/>
     <use xlink:href="#DejaVuSans-61" x="1818.769531"/>
     <use xlink:href="#DejaVuSans-6c" x="1880.048828"/>
     <use xlink:href="#DejaVuSans-73" x="1907.832031"/>
     <use xlink:href="#DejaVuSans-2f" x="1959.931641"/>
     <use xlink:href="#DejaVuSans-66" x="1993.623047"/>
     <use xlink:href="#DejaVuSans-75" x="2028.828125"/>
     <use xlink:href="#DejaVuSans-7a" x="2092.207031"/>
     <use xlink:href="#DejaVuSans-7a" x="2144.697266"/>
     <use xlink:href="#DejaVuSans-65" x="2197.1875"/>
     <use xlink:href="#DejaVuSans-72" x="2258.710938"/>
     <use xlink:href="#DejaVuSans-29" x="2299.824219"/>
    </g>
   </g>
  </g>
 </g>
 <defs>
  <clipPath id="p2b0e0b4beb">
   <rect x="84.540412" y="22.318125" width="357.12" height="266.112"/>
  </clipPath>
 </defs>
</svg>
