<?xml version="1.0" encoding="utf-8" standalone="no"?>
<!DOCTYPE svg PUBLIC "-//W3C//DTD SVG 1.1//EN"
  "http://www.w3.org/Graphics/SVG/1.1/DTD/svg11.dtd">
<svg xmlns:xlink="http://www.w3.org/1999/xlink" width="435.910275pt" height="393.011865pt" viewBox="0 0 435.910275 393.011865" xmlns="http://www.w3.org/2000/svg" version="1.1">
 <metadata>
  <rdf:RDF xmlns:dc="http://purl.org/dc/elements/1.1/" xmlns:cc="http://creativecommons.org/ns#" xmlns:rdf="http://www.w3.org/1999/02/22-rdf-syntax-ns#">
   <cc:Work>
    <dc:type rdf:resource="http://purl.org/dc/dcmitype/StillImage"/>
    <dc:date>2022-06-05T20:13:26.932451</dc:date>
    <dc:format>image/svg+xml</dc:format>
    <dc:creator>
     <cc:Agent>
      <dc:title>Matplotlib v3.5.1, https://matplotlib.org/</dc:title>
     </cc:Agent>
    </dc:creator>
   </cc:Work>
  </rdf:RDF>
 </metadata>
 <defs>
  <style type="text/css">*{stroke-linejoin: round; stroke-linecap: butt}</style>
 </defs>
 <g id="figure_1">
  <g id="patch_1">
   <path d="M 0 393.011865 
L 435.910275 393.011865 
L 435.910275 -0 
L 0 -0 
z
" style="fill: #ffffff"/>
  </g>
  <g id="axes_1">
   <g id="patch_2">
    <path d="M 71.590275 288.430125 
L 428.710275 288.430125 
L 428.710275 22.318125 
L 71.590275 22.318125 
z
" style="fill: #ffffff"/>
   </g>
   <g id="PolyCollection_1">
    <defs>
     <path id="m441604cabc" d="M 91.747015 -220.495833 
L 91.113535 -220.495833 
L 91.068157 -221.386502 
L 91.017905 -222.277171 
L 90.962523 -223.16784 
L 90.901785 -224.058509 
L 90.835499 -224.949179 
L 90.763519 -225.839848 
L 90.685751 -226.730517 
L 90.602159 -227.621186 
L 90.512775 -228.511855 
L 90.417702 -229.402524 
L 90.317123 -230.293193 
L 90.211304 -231.183863 
L 90.100599 -232.074532 
L 89.985447 -232.965201 
L 89.86638 -233.85587 
L 89.744013 -234.746539 
L 89.619047 -235.637208 
L 89.492259 -236.527877 
L 89.364494 -237.418547 
L 89.23666 -238.309216 
L 89.109709 -239.199885 
L 88.984629 -240.090554 
L 88.862427 -240.981223 
L 88.744111 -241.871892 
L 88.630675 -242.762561 
L 88.523081 -243.653231 
L 88.422239 -244.5439 
L 88.328993 -245.434569 
L 88.244102 -246.325238 
L 88.168225 -247.215907 
L 88.101907 -248.106576 
L 88.045571 -248.997245 
L 87.999505 -249.887915 
L 87.963859 -250.778584 
L 87.938639 -251.669253 
L 87.923711 -252.559922 
L 87.918804 -253.450591 
L 87.923513 -254.34126 
L 87.937314 -255.231929 
L 87.959574 -256.122599 
L 87.989566 -257.013268 
L 88.026488 -257.903937 
L 88.069478 -258.794606 
L 88.117642 -259.685275 
L 88.170066 -260.575944 
L 88.225841 -261.466613 
L 88.284085 -262.357283 
L 88.343957 -263.247952 
L 88.40468 -264.138621 
L 88.46555 -265.02929 
L 88.525956 -265.919959 
L 88.585384 -266.810628 
L 88.643428 -267.701297 
L 88.699792 -268.591967 
L 88.75429 -269.482636 
L 88.806847 -270.373305 
L 88.857489 -271.263974 
L 88.906338 -272.154643 
L 88.953602 -273.045312 
L 88.99956 -273.935981 
L 89.04455 -274.826651 
L 89.088952 -275.71732 
L 89.133175 -276.607989 
L 89.17764 -277.498658 
L 89.222763 -278.389327 
L 89.268942 -279.279996 
L 89.316544 -280.170665 
L 89.365892 -281.061335 
L 89.417257 -281.952004 
L 89.470848 -282.842673 
L 89.526807 -283.733342 
L 89.585205 -284.624011 
L 89.646043 -285.51468 
L 89.709251 -286.405349 
L 89.774692 -287.296019 
L 89.842165 -288.186688 
L 89.911415 -289.077357 
L 89.982137 -289.968026 
L 90.053985 -290.858695 
L 90.126586 -291.749364 
L 90.199541 -292.640033 
L 90.272444 -293.530703 
L 90.344884 -294.421372 
L 90.416458 -295.312041 
L 90.486778 -296.20271 
L 90.555479 -297.093379 
L 90.622223 -297.984048 
L 90.686707 -298.874717 
L 90.748666 -299.765387 
L 90.807875 -300.656056 
L 90.864151 -301.546725 
L 90.917353 -302.437394 
L 90.967385 -303.328063 
L 91.014188 -304.218732 
L 91.057743 -305.109401 
L 91.098069 -306.000071 
L 91.135213 -306.89074 
L 91.169256 -307.781409 
L 91.200299 -308.672078 
L 91.660251 -308.672078 
L 91.660251 -308.672078 
L 91.691294 -307.781409 
L 91.725336 -306.89074 
L 91.762481 -306.000071 
L 91.802806 -305.109401 
L 91.846362 -304.218732 
L 91.893165 -303.328063 
L 91.943196 -302.437394 
L 91.996399 -301.546725 
L 92.052674 -300.656056 
L 92.111883 -299.765387 
L 92.173842 -298.874717 
L 92.238327 -297.984048 
L 92.305071 -297.093379 
L 92.373771 -296.20271 
L 92.444092 -295.312041 
L 92.515666 -294.421372 
L 92.588106 -293.530703 
L 92.661008 -292.640033 
L 92.733964 -291.749364 
L 92.806564 -290.858695 
L 92.878413 -289.968026 
L 92.949135 -289.077357 
L 93.018385 -288.186688 
L 93.085858 -287.296019 
L 93.151299 -286.405349 
L 93.214507 -285.51468 
L 93.275345 -284.624011 
L 93.333743 -283.733342 
L 93.389701 -282.842673 
L 93.443292 -281.952004 
L 93.494657 -281.061335 
L 93.544006 -280.170665 
L 93.591608 -279.279996 
L 93.637787 -278.389327 
L 93.68291 -277.498658 
L 93.727374 -276.607989 
L 93.771597 -275.71732 
L 93.816 -274.826651 
L 93.860989 -273.935981 
L 93.906947 -273.045312 
L 93.954211 -272.154643 
L 94.003061 -271.263974 
L 94.053703 -270.373305 
L 94.106259 -269.482636 
L 94.160758 -268.591967 
L 94.217121 -267.701297 
L 94.275165 -266.810628 
L 94.334594 -265.919959 
L 94.395 -265.02929 
L 94.45587 -264.138621 
L 94.516592 -263.247952 
L 94.576465 -262.357283 
L 94.634708 -261.466613 
L 94.690484 -260.575944 
L 94.742908 -259.685275 
L 94.791071 -258.794606 
L 94.834062 -257.903937 
L 94.870983 -257.013268 
L 94.900975 -256.122599 
L 94.923235 -255.231929 
L 94.937037 -254.34126 
L 94.941746 -253.450591 
L 94.936839 -252.559922 
L 94.921911 -251.669253 
L 94.896691 -250.778584 
L 94.861044 -249.887915 
L 94.814978 -248.997245 
L 94.758642 -248.106576 
L 94.692325 -247.215907 
L 94.616448 -246.325238 
L 94.531556 -245.434569 
L 94.438311 -244.5439 
L 94.337469 -243.653231 
L 94.229875 -242.762561 
L 94.116439 -241.871892 
L 93.998122 -240.981223 
L 93.87592 -240.090554 
L 93.75084 -239.199885 
L 93.62389 -238.309216 
L 93.496055 -237.418547 
L 93.368291 -236.527877 
L 93.241502 -235.637208 
L 93.116536 -234.746539 
L 92.99417 -233.85587 
L 92.875102 -232.965201 
L 92.759951 -232.074532 
L 92.649245 -231.183863 
L 92.543426 -230.293193 
L 92.442848 -229.402524 
L 92.347775 -228.511855 
L 92.25839 -227.621186 
L 92.174798 -226.730517 
L 92.09703 -225.839848 
L 92.025051 -224.949179 
L 91.958765 -224.058509 
L 91.898026 -223.16784 
L 91.842644 -222.277171 
L 91.792392 -221.386502 
L 91.747015 -220.495833 
z
" style="stroke: #3d3d3d; stroke-width: 1.5"/>
    </defs>
    <g clip-path="url(#pfdc80ce8bc)">
     <use xlink:href="#m441604cabc" x="0" y="393.011865" style="fill: #e1812c; stroke: #3d3d3d; stroke-width: 1.5"/>
    </g>
   </g>
   <g id="PolyCollection_2">
    <defs>
     <path id="mcc9577c56e" d="M 131.814296 -225.237853 
L 130.406254 -225.237853 
L 130.304369 -225.59423 
L 130.191339 -225.950608 
L 130.066538 -226.306985 
L 129.929394 -226.663362 
L 129.779408 -227.01974 
L 129.616171 -227.376117 
L 129.439383 -227.732494 
L 129.248863 -228.088872 
L 129.044575 -228.445249 
L 128.826634 -228.801626 
L 128.595327 -229.158004 
L 128.35112 -229.514381 
L 128.094669 -229.870758 
L 127.826824 -230.227136 
L 127.548636 -230.583513 
L 127.26135 -230.93989 
L 126.966406 -231.296268 
L 126.665423 -231.652645 
L 126.36019 -232.009022 
L 126.052646 -232.3654 
L 125.744854 -232.721777 
L 125.438982 -233.078154 
L 125.137264 -233.434532 
L 124.841974 -233.790909 
L 124.555384 -234.147286 
L 124.279731 -234.503664 
L 124.017179 -234.860041 
L 123.769774 -235.216418 
L 123.539417 -235.572796 
L 123.32782 -235.929173 
L 123.136477 -236.28555 
L 122.966637 -236.641928 
L 122.819276 -236.998305 
L 122.695082 -237.354682 
L 122.594443 -237.71106 
L 122.517437 -238.067437 
L 122.463839 -238.423814 
L 122.433121 -238.780192 
L 122.424476 -239.136569 
L 122.43683 -239.492946 
L 122.468877 -239.849324 
L 122.519106 -240.205701 
L 122.585842 -240.562078 
L 122.667286 -240.918456 
L 122.761554 -241.274833 
L 122.86673 -241.63121 
L 122.980903 -241.987588 
L 123.102214 -242.343965 
L 123.228896 -242.700342 
L 123.359314 -243.05672 
L 123.491993 -243.413097 
L 123.625652 -243.769474 
L 123.759218 -244.125852 
L 123.891849 -244.482229 
L 124.022934 -244.838606 
L 124.1521 -245.194984 
L 124.279201 -245.551361 
L 124.404308 -245.907738 
L 124.527687 -246.264116 
L 124.649781 -246.620493 
L 124.771172 -246.97687 
L 124.89256 -247.333248 
L 125.014719 -247.689625 
L 125.138466 -248.046002 
L 125.264628 -248.40238 
L 125.394003 -248.758757 
L 125.52733 -249.115134 
L 125.665261 -249.471512 
L 125.808335 -249.827889 
L 125.956957 -250.184266 
L 126.111384 -250.540644 
L 126.271713 -250.897021 
L 126.437878 -251.253398 
L 126.609649 -251.609776 
L 126.78664 -251.966153 
L 126.968315 -252.32253 
L 127.154005 -252.678908 
L 127.342927 -253.035285 
L 127.5342 -253.391662 
L 127.72687 -253.74804 
L 127.919935 -254.104417 
L 128.112363 -254.460794 
L 128.303121 -254.817172 
L 128.491195 -255.173549 
L 128.675609 -255.529926 
L 128.855446 -255.886304 
L 129.029862 -256.242681 
L 129.198101 -256.599058 
L 129.359504 -256.955436 
L 129.513513 -257.311813 
L 129.659683 -257.66819 
L 129.797676 -258.024568 
L 129.927261 -258.380945 
L 130.048316 -258.737322 
L 130.160813 -259.0937 
L 130.264818 -259.450077 
L 130.360481 -259.806454 
L 130.448024 -260.162832 
L 130.527732 -260.519209 
L 131.692817 -260.519209 
L 131.692817 -260.519209 
L 131.772525 -260.162832 
L 131.860068 -259.806454 
L 131.955731 -259.450077 
L 132.059737 -259.0937 
L 132.172234 -258.737322 
L 132.293288 -258.380945 
L 132.422874 -258.024568 
L 132.560866 -257.66819 
L 132.707036 -257.311813 
L 132.861046 -256.955436 
L 133.022448 -256.599058 
L 133.190687 -256.242681 
L 133.365104 -255.886304 
L 133.544941 -255.529926 
L 133.729355 -255.173549 
L 133.917429 -254.817172 
L 134.108187 -254.460794 
L 134.300615 -254.104417 
L 134.493679 -253.74804 
L 134.68635 -253.391662 
L 134.877623 -253.035285 
L 135.066544 -252.678908 
L 135.252235 -252.32253 
L 135.43391 -251.966153 
L 135.6109 -251.609776 
L 135.782672 -251.253398 
L 135.948837 -250.897021 
L 136.109166 -250.540644 
L 136.263593 -250.184266 
L 136.412215 -249.827889 
L 136.555288 -249.471512 
L 136.693219 -249.115134 
L 136.826547 -248.758757 
L 136.955921 -248.40238 
L 137.082083 -248.046002 
L 137.205831 -247.689625 
L 137.32799 -247.333248 
L 137.449377 -246.97687 
L 137.570769 -246.620493 
L 137.692862 -246.264116 
L 137.816242 -245.907738 
L 137.941348 -245.551361 
L 138.068449 -245.194984 
L 138.197615 -244.838606 
L 138.328701 -244.482229 
L 138.461331 -244.125852 
L 138.594898 -243.769474 
L 138.728556 -243.413097 
L 138.861235 -243.05672 
L 138.991653 -242.700342 
L 139.118335 -242.343965 
L 139.239646 -241.987588 
L 139.353819 -241.63121 
L 139.458995 -241.274833 
L 139.553264 -240.918456 
L 139.634707 -240.562078 
L 139.701443 -240.205701 
L 139.751673 -239.849324 
L 139.78372 -239.492946 
L 139.796074 -239.136569 
L 139.787428 -238.780192 
L 139.756711 -238.423814 
L 139.703112 -238.067437 
L 139.626107 -237.71106 
L 139.525467 -237.354682 
L 139.401274 -236.998305 
L 139.253913 -236.641928 
L 139.084072 -236.28555 
L 138.892729 -235.929173 
L 138.681132 -235.572796 
L 138.450775 -235.216418 
L 138.203371 -234.860041 
L 137.940818 -234.503664 
L 137.665166 -234.147286 
L 137.378576 -233.790909 
L 137.083285 -233.434532 
L 136.781568 -233.078154 
L 136.475695 -232.721777 
L 136.167904 -232.3654 
L 135.860359 -232.009022 
L 135.555126 -231.652645 
L 135.254143 -231.296268 
L 134.959199 -230.93989 
L 134.671914 -230.583513 
L 134.393725 -230.227136 
L 134.125881 -229.870758 
L 133.869429 -229.514381 
L 133.625222 -229.158004 
L 133.393915 -228.801626 
L 133.175975 -228.445249 
L 132.971686 -228.088872 
L 132.781167 -227.732494 
L 132.604378 -227.376117 
L 132.441142 -227.01974 
L 132.291156 -226.663362 
L 132.154011 -226.306985 
L 132.02921 -225.950608 
L 131.916181 -225.59423 
L 131.814296 -225.237853 
z
" style="stroke: #3d3d3d; stroke-width: 1.5"/>
    </defs>
    <g clip-path="url(#pfdc80ce8bc)">
     <use xlink:href="#mcc9577c56e" x="0" y="393.011865" style="fill: #c03d3e; stroke: #3d3d3d; stroke-width: 1.5"/>
    </g>
   </g>
   <g id="PolyCollection_3">
    <defs>
     <path id="mce35bf6ac2" d="M 170.947802 -166.9526 
L 170.632747 -166.9526 
L 170.610501 -168.888409 
L 170.58592 -170.824219 
L 170.558893 -172.760028 
L 170.529322 -174.695838 
L 170.497128 -176.631647 
L 170.462257 -178.567457 
L 170.424678 -180.503266 
L 170.384392 -182.439076 
L 170.341431 -184.374885 
L 170.295866 -186.310695 
L 170.247803 -188.246504 
L 170.19739 -190.182314 
L 170.144816 -192.118123 
L 170.090313 -194.053933 
L 170.034152 -195.989742 
L 169.976646 -197.925552 
L 169.918145 -199.861361 
L 169.859034 -201.797171 
L 169.799729 -203.73298 
L 169.740669 -205.66879 
L 169.682313 -207.604599 
L 169.625132 -209.540409 
L 169.569602 -211.476218 
L 169.516195 -213.412028 
L 169.46537 -215.347837 
L 169.417568 -217.283647 
L 169.373199 -219.219456 
L 169.332638 -221.155266 
L 169.296214 -223.091075 
L 169.264206 -225.026885 
L 169.236835 -226.962694 
L 169.214263 -228.898504 
L 169.196583 -230.834313 
L 169.183825 -232.770123 
L 169.175948 -234.705932 
L 169.172847 -236.641742 
L 169.174353 -238.577551 
L 169.180235 -240.513361 
L 169.190209 -242.44917 
L 169.203946 -244.38498 
L 169.221073 -246.320789 
L 169.241188 -248.256599 
L 169.263867 -250.192408 
L 169.288675 -252.128218 
L 169.315173 -254.064027 
L 169.342931 -255.999837 
L 169.371535 -257.935646 
L 169.400597 -259.871456 
L 169.429761 -261.807265 
L 169.458712 -263.743075 
L 169.487181 -265.678884 
L 169.514946 -267.614694 
L 169.541839 -269.550503 
L 169.567744 -271.486313 
L 169.592598 -273.422122 
L 169.616389 -275.357932 
L 169.639151 -277.293741 
L 169.660965 -279.229551 
L 169.681946 -281.16536 
L 169.702243 -283.10117 
L 169.722032 -285.036979 
L 169.741502 -286.972789 
L 169.760857 -288.908598 
L 169.780303 -290.844408 
L 169.800041 -292.780217 
L 169.820262 -294.716027 
L 169.841142 -296.651836 
L 169.862833 -298.587646 
L 169.885462 -300.523455 
L 169.909129 -302.459265 
L 169.933898 -304.395074 
L 169.959803 -306.330884 
L 169.986844 -308.266693 
L 170.014989 -310.202503 
L 170.044174 -312.138312 
L 170.074307 -314.074122 
L 170.10527 -316.009931 
L 170.136925 -317.945741 
L 170.169112 -319.88155 
L 170.201662 -321.81736 
L 170.234394 -323.753169 
L 170.267121 -325.688979 
L 170.299659 -327.624788 
L 170.331824 -329.560598 
L 170.36344 -331.496407 
L 170.394341 -333.432217 
L 170.424376 -335.368026 
L 170.453406 -337.303836 
L 170.481312 -339.239645 
L 170.507992 -341.175455 
L 170.533361 -343.111264 
L 170.557358 -345.047074 
L 170.579936 -346.982883 
L 170.601069 -348.918693 
L 170.620748 -350.854502 
L 170.638978 -352.790312 
L 170.655783 -354.726121 
L 170.671195 -356.661931 
L 170.68526 -358.59774 
L 170.89529 -358.59774 
L 170.89529 -358.59774 
L 170.909355 -356.661931 
L 170.924767 -354.726121 
L 170.941571 -352.790312 
L 170.959802 -350.854502 
L 170.979481 -348.918693 
L 171.000614 -346.982883 
L 171.023192 -345.047074 
L 171.047188 -343.111264 
L 171.072558 -341.175455 
L 171.099237 -339.239645 
L 171.127143 -337.303836 
L 171.156174 -335.368026 
L 171.186208 -333.432217 
L 171.21711 -331.496407 
L 171.248726 -329.560598 
L 171.280891 -327.624788 
L 171.313428 -325.688979 
L 171.346156 -323.753169 
L 171.378887 -321.81736 
L 171.411437 -319.88155 
L 171.443625 -317.945741 
L 171.475279 -316.009931 
L 171.506243 -314.074122 
L 171.536376 -312.138312 
L 171.565561 -310.202503 
L 171.593706 -308.266693 
L 171.620747 -306.330884 
L 171.646652 -304.395074 
L 171.671421 -302.459265 
L 171.695087 -300.523455 
L 171.717717 -298.587646 
L 171.739408 -296.651836 
L 171.760287 -294.716027 
L 171.780509 -292.780217 
L 171.800246 -290.844408 
L 171.819692 -288.908598 
L 171.839047 -286.972789 
L 171.858518 -285.036979 
L 171.878306 -283.10117 
L 171.898604 -281.16536 
L 171.919585 -279.229551 
L 171.941398 -277.293741 
L 171.964161 -275.357932 
L 171.987951 -273.422122 
L 172.012805 -271.486313 
L 172.03871 -269.550503 
L 172.065603 -267.614694 
L 172.093368 -265.678884 
L 172.121837 -263.743075 
L 172.150788 -261.807265 
L 172.179953 -259.871456 
L 172.209014 -257.935646 
L 172.237618 -255.999837 
L 172.265376 -254.064027 
L 172.291874 -252.128218 
L 172.316682 -250.192408 
L 172.339362 -248.256599 
L 172.359477 -246.320789 
L 172.376604 -244.38498 
L 172.39034 -242.44917 
L 172.400315 -240.513361 
L 172.406197 -238.577551 
L 172.407702 -236.641742 
L 172.404601 -234.705932 
L 172.396725 -232.770123 
L 172.383966 -230.834313 
L 172.366287 -228.898504 
L 172.343714 -226.962694 
L 172.316344 -225.026885 
L 172.284336 -223.091075 
L 172.247912 -221.155266 
L 172.20735 -219.219456 
L 172.162981 -217.283647 
L 172.115179 -215.347837 
L 172.064355 -213.412028 
L 172.010947 -211.476218 
L 171.955417 -209.540409 
L 171.898237 -207.604599 
L 171.839881 -205.66879 
L 171.780821 -203.73298 
L 171.721515 -201.797171 
L 171.662405 -199.861361 
L 171.603904 -197.925552 
L 171.546398 -195.989742 
L 171.490237 -194.053933 
L 171.435733 -192.118123 
L 171.38316 -190.182314 
L 171.332747 -188.246504 
L 171.284684 -186.310695 
L 171.239118 -184.374885 
L 171.196158 -182.439076 
L 171.155872 -180.503266 
L 171.118293 -178.567457 
L 171.083421 -176.631647 
L 171.051228 -174.695838 
L 171.021657 -172.760028 
L 170.99463 -170.824219 
L 170.970049 -168.888409 
L 170.947802 -166.9526 
z
" style="stroke: #3d3d3d; stroke-width: 1.5"/>
    </defs>
    <g clip-path="url(#pfdc80ce8bc)">
     <use xlink:href="#mce35bf6ac2" x="0" y="393.011865" style="fill: #3274a1; stroke: #3d3d3d; stroke-width: 1.5"/>
    </g>
   </g>
   <g id="PolyCollection_4">
    <defs>
     <path id="m26b165a81c" d="M 210.640756 -160.202088 
L 210.299794 -160.202088 
L 210.277392 -161.372924 
L 210.252886 -162.54376 
L 210.226207 -163.714596 
L 210.197304 -164.885432 
L 210.166144 -166.056267 
L 210.132718 -167.227103 
L 210.097039 -168.397939 
L 210.059149 -169.568775 
L 210.019117 -170.739611 
L 209.977041 -171.910447 
L 209.933046 -173.081283 
L 209.887291 -174.252119 
L 209.839958 -175.422955 
L 209.791259 -176.59379 
L 209.741429 -177.764626 
L 209.690724 -178.935462 
L 209.639417 -180.106298 
L 209.587791 -181.277134 
L 209.536138 -182.44797 
L 209.48475 -183.618806 
L 209.433912 -184.789642 
L 209.383897 -185.960477 
L 209.334961 -187.131313 
L 209.287331 -188.302149 
L 209.241202 -189.472985 
L 209.196734 -190.643821 
L 209.15404 -191.814657 
L 209.113187 -192.985493 
L 209.074193 -194.156329 
L 209.037021 -195.327165 
L 209.001582 -196.498 
L 208.967736 -197.668836 
L 208.935294 -198.839672 
L 208.90402 -200.010508 
L 208.873641 -201.181344 
L 208.84385 -202.35218 
L 208.814319 -203.523016 
L 208.784705 -204.693852 
L 208.75466 -205.864687 
L 208.723847 -207.035523 
L 208.691947 -208.206359 
L 208.658673 -209.377195 
L 208.62378 -210.548031 
L 208.587076 -211.718867 
L 208.548433 -212.889703 
L 208.507793 -214.060539 
L 208.465176 -215.231375 
L 208.420686 -216.40221 
L 208.374513 -217.573046 
L 208.326931 -218.743882 
L 208.278301 -219.914718 
L 208.229063 -221.085554 
L 208.179734 -222.25639 
L 208.130893 -223.427226 
L 208.083178 -224.598062 
L 208.037269 -225.768898 
L 207.993875 -226.939733 
L 207.953722 -228.110569 
L 207.917533 -229.281405 
L 207.886019 -230.452241 
L 207.859854 -231.623077 
L 207.839668 -232.793913 
L 207.826031 -233.964749 
L 207.819436 -235.135585 
L 207.820293 -236.30642 
L 207.828917 -237.477256 
L 207.84552 -238.648092 
L 207.870207 -239.818928 
L 207.902976 -240.989764 
L 207.943714 -242.1606 
L 207.9922 -243.331436 
L 208.048114 -244.502272 
L 208.111038 -245.673108 
L 208.180468 -246.843943 
L 208.255824 -248.014779 
L 208.33646 -249.185615 
L 208.42168 -250.356451 
L 208.510747 -251.527287 
L 208.6029 -252.698123 
L 208.697367 -253.868959 
L 208.793377 -255.039795 
L 208.890171 -256.21063 
L 208.987019 -257.381466 
L 209.083224 -258.552302 
L 209.178137 -259.723138 
L 209.271158 -260.893974 
L 209.361748 -262.06481 
L 209.44943 -263.235646 
L 209.533795 -264.406482 
L 209.614498 -265.577318 
L 209.691266 -266.748153 
L 209.763887 -267.918989 
L 209.832216 -269.089825 
L 209.896167 -270.260661 
L 209.95571 -271.431497 
L 210.010866 -272.602333 
L 210.061701 -273.773169 
L 210.108322 -274.944005 
L 210.150868 -276.11484 
L 210.789681 -276.11484 
L 210.789681 -276.11484 
L 210.832228 -274.944005 
L 210.878849 -273.773169 
L 210.929684 -272.602333 
L 210.98484 -271.431497 
L 211.044383 -270.260661 
L 211.108334 -269.089825 
L 211.176663 -267.918989 
L 211.249284 -266.748153 
L 211.326051 -265.577318 
L 211.406755 -264.406482 
L 211.491119 -263.235646 
L 211.578802 -262.06481 
L 211.669392 -260.893974 
L 211.762413 -259.723138 
L 211.857325 -258.552302 
L 211.953531 -257.381466 
L 212.050378 -256.21063 
L 212.147173 -255.039795 
L 212.243182 -253.868959 
L 212.337649 -252.698123 
L 212.429803 -251.527287 
L 212.51887 -250.356451 
L 212.604089 -249.185615 
L 212.684725 -248.014779 
L 212.760081 -246.843943 
L 212.829511 -245.673108 
L 212.892435 -244.502272 
L 212.948349 -243.331436 
L 212.996836 -242.1606 
L 213.037574 -240.989764 
L 213.070343 -239.818928 
L 213.09503 -238.648092 
L 213.111633 -237.477256 
L 213.120256 -236.30642 
L 213.121113 -235.135585 
L 213.114519 -233.964749 
L 213.100881 -232.793913 
L 213.080696 -231.623077 
L 213.054531 -230.452241 
L 213.023016 -229.281405 
L 212.986828 -228.110569 
L 212.946675 -226.939733 
L 212.903281 -225.768898 
L 212.857372 -224.598062 
L 212.809657 -223.427226 
L 212.760816 -222.25639 
L 212.711486 -221.085554 
L 212.662249 -219.914718 
L 212.613618 -218.743882 
L 212.566037 -217.573046 
L 212.519863 -216.40221 
L 212.475374 -215.231375 
L 212.432757 -214.060539 
L 212.392117 -212.889703 
L 212.353473 -211.718867 
L 212.31677 -210.548031 
L 212.281876 -209.377195 
L 212.248602 -208.206359 
L 212.216702 -207.035523 
L 212.185889 -205.864687 
L 212.155845 -204.693852 
L 212.12623 -203.523016 
L 212.096699 -202.35218 
L 212.066909 -201.181344 
L 212.036529 -200.010508 
L 212.005256 -198.839672 
L 211.972813 -197.668836 
L 211.938967 -196.498 
L 211.903529 -195.327165 
L 211.866357 -194.156329 
L 211.827362 -192.985493 
L 211.78651 -191.814657 
L 211.743816 -190.643821 
L 211.699347 -189.472985 
L 211.653219 -188.302149 
L 211.605589 -187.131313 
L 211.556652 -185.960477 
L 211.506638 -184.789642 
L 211.4558 -183.618806 
L 211.404412 -182.44797 
L 211.352759 -181.277134 
L 211.301133 -180.106298 
L 211.249825 -178.935462 
L 211.19912 -177.764626 
L 211.14929 -176.59379 
L 211.100592 -175.422955 
L 211.053259 -174.252119 
L 211.007503 -173.081283 
L 210.963509 -171.910447 
L 210.921432 -170.739611 
L 210.8814 -169.568775 
L 210.843511 -168.397939 
L 210.807832 -167.227103 
L 210.774405 -166.056267 
L 210.743245 -164.885432 
L 210.714342 -163.714596 
L 210.687663 -162.54376 
L 210.663158 -161.372924 
L 210.640756 -160.202088 
z
" style="stroke: #3d3d3d; stroke-width: 1.5"/>
    </defs>
    <g clip-path="url(#pfdc80ce8bc)">
     <use xlink:href="#m26b165a81c" x="0" y="393.011865" style="fill: #3a923a; stroke: #3d3d3d; stroke-width: 1.5"/>
    </g>
   </g>
   <g id="PolyCollection_5">
    <defs>
     <path id="m6ec86e5b8b" d="M 251.378639 -225.508365 
L 248.92191 -225.508365 
L 248.744566 -225.700932 
L 248.547902 -225.8935 
L 248.330835 -226.086068 
L 248.092377 -226.278635 
L 247.831658 -226.471203 
L 247.547961 -226.66377 
L 247.240744 -226.856338 
L 246.909671 -227.048906 
L 246.554634 -227.241473 
L 246.175782 -227.434041 
L 245.773539 -227.626608 
L 245.348626 -227.819176 
L 244.902071 -228.011744 
L 244.435221 -228.204311 
L 243.949747 -228.396879 
L 243.447639 -228.589446 
L 242.931199 -228.782014 
L 242.403028 -228.974582 
L 241.866002 -229.167149 
L 241.323243 -229.359717 
L 240.778087 -229.552284 
L 240.234042 -229.744852 
L 239.69474 -229.93742 
L 239.163886 -230.129987 
L 238.645207 -230.322555 
L 238.142392 -230.515122 
L 237.659033 -230.70769 
L 237.198566 -230.900258 
L 236.764215 -231.092825 
L 236.358937 -231.285393 
L 235.98537 -231.47796 
L 235.645787 -231.670528 
L 235.342058 -231.863096 
L 235.075621 -232.055663 
L 234.847456 -232.248231 
L 234.658071 -232.440798 
L 234.507504 -232.633366 
L 234.395327 -232.825934 
L 234.32066 -233.018501 
L 234.282204 -233.211069 
L 234.278275 -233.403636 
L 234.306847 -233.596204 
L 234.365608 -233.788772 
L 234.452016 -233.981339 
L 234.563366 -234.173907 
L 234.69685 -234.366474 
L 234.849632 -234.559042 
L 235.018908 -234.75161 
L 235.201977 -234.944177 
L 235.396293 -235.136745 
L 235.599528 -235.329312 
L 235.809611 -235.52188 
L 236.024768 -235.714448 
L 236.243553 -235.907015 
L 236.46486 -236.099583 
L 236.687933 -236.29215 
L 236.91236 -236.484718 
L 237.138057 -236.677286 
L 237.365245 -236.869853 
L 237.594413 -237.062421 
L 237.826276 -237.254988 
L 238.06173 -237.447556 
L 238.301797 -237.640124 
L 238.547567 -237.832691 
L 238.800147 -238.025259 
L 239.060602 -238.217826 
L 239.329904 -238.410394 
L 239.608884 -238.602962 
L 239.898189 -238.795529 
L 240.198249 -238.988097 
L 240.509251 -239.180664 
L 240.831118 -239.373232 
L 241.163504 -239.5658 
L 241.505791 -239.758367 
L 241.8571 -239.950935 
L 242.216307 -240.143502 
L 242.582067 -240.33607 
L 242.952844 -240.528638 
L 243.326946 -240.721205 
L 243.702565 -240.913773 
L 244.077816 -241.10634 
L 244.450779 -241.298908 
L 244.81954 -241.491476 
L 245.182231 -241.684043 
L 245.537066 -241.876611 
L 245.882371 -242.069178 
L 246.216618 -242.261746 
L 246.538443 -242.454314 
L 246.846665 -242.646881 
L 247.140299 -242.839449 
L 247.418566 -243.032017 
L 247.680889 -243.224584 
L 247.926892 -243.417152 
L 248.156396 -243.609719 
L 248.369406 -243.802287 
L 248.566093 -243.994855 
L 248.746785 -244.187422 
L 248.911941 -244.37999 
L 249.062139 -244.572557 
L 251.238411 -244.572557 
L 251.238411 -244.572557 
L 251.388608 -244.37999 
L 251.553765 -244.187422 
L 251.734456 -243.994855 
L 251.931144 -243.802287 
L 252.144153 -243.609719 
L 252.373658 -243.417152 
L 252.619661 -243.224584 
L 252.881983 -243.032017 
L 253.16025 -242.839449 
L 253.453885 -242.646881 
L 253.762107 -242.454314 
L 254.083931 -242.261746 
L 254.418178 -242.069178 
L 254.763484 -241.876611 
L 255.118318 -241.684043 
L 255.481009 -241.491476 
L 255.849771 -241.298908 
L 256.222734 -241.10634 
L 256.597985 -240.913773 
L 256.973604 -240.721205 
L 257.347706 -240.528638 
L 257.718483 -240.33607 
L 258.084242 -240.143502 
L 258.443449 -239.950935 
L 258.794758 -239.758367 
L 259.137045 -239.5658 
L 259.469431 -239.373232 
L 259.791299 -239.180664 
L 260.1023 -238.988097 
L 260.402361 -238.795529 
L 260.691666 -238.602962 
L 260.970645 -238.410394 
L 261.239947 -238.217826 
L 261.500402 -238.025259 
L 261.752982 -237.832691 
L 261.998753 -237.640124 
L 262.238819 -237.447556 
L 262.474274 -237.254988 
L 262.706137 -237.062421 
L 262.935304 -236.869853 
L 263.162492 -236.677286 
L 263.388189 -236.484718 
L 263.612616 -236.29215 
L 263.835689 -236.099583 
L 264.056997 -235.907015 
L 264.275781 -235.714448 
L 264.490939 -235.52188 
L 264.701022 -235.329312 
L 264.904256 -235.136745 
L 265.098573 -234.944177 
L 265.281641 -234.75161 
L 265.450918 -234.559042 
L 265.603699 -234.366474 
L 265.737184 -234.173907 
L 265.848533 -233.981339 
L 265.934942 -233.788772 
L 265.993703 -233.596204 
L 266.022275 -233.403636 
L 266.018345 -233.211069 
L 265.97989 -233.018501 
L 265.905223 -232.825934 
L 265.793045 -232.633366 
L 265.642478 -232.440798 
L 265.453094 -232.248231 
L 265.224928 -232.055663 
L 264.958491 -231.863096 
L 264.654763 -231.670528 
L 264.31518 -231.47796 
L 263.941612 -231.285393 
L 263.536334 -231.092825 
L 263.101984 -230.900258 
L 262.641517 -230.70769 
L 262.158157 -230.515122 
L 261.655342 -230.322555 
L 261.136664 -230.129987 
L 260.60581 -229.93742 
L 260.066507 -229.744852 
L 259.522462 -229.552284 
L 258.977307 -229.359717 
L 258.434548 -229.167149 
L 257.897522 -228.974582 
L 257.369351 -228.782014 
L 256.852911 -228.589446 
L 256.350802 -228.396879 
L 255.865328 -228.204311 
L 255.398478 -228.011744 
L 254.951923 -227.819176 
L 254.52701 -227.626608 
L 254.124768 -227.434041 
L 253.745916 -227.241473 
L 253.390879 -227.048906 
L 253.059805 -226.856338 
L 252.752589 -226.66377 
L 252.468892 -226.471203 
L 252.208173 -226.278635 
L 251.969714 -226.086068 
L 251.752647 -225.8935 
L 251.555984 -225.700932 
L 251.378639 -225.508365 
z
" style="stroke: #3d3d3d; stroke-width: 1.5"/>
    </defs>
    <g clip-path="url(#pfdc80ce8bc)">
     <use xlink:href="#m6ec86e5b8b" x="0" y="393.011865" style="fill: #9fd495; stroke: #3d3d3d; stroke-width: 1.5"/>
    </g>
   </g>
   <g id="PolyCollection_6">
    <defs>
     <path id="meb05535074" d="M 289.996764 -145.840068 
L 289.663785 -145.840068 
L 289.639712 -147.288865 
L 289.613008 -148.737663 
L 289.583527 -150.18646 
L 289.551132 -151.635257 
L 289.515704 -153.084055 
L 289.477145 -154.532852 
L 289.435382 -155.981649 
L 289.390368 -157.430447 
L 289.34209 -158.879244 
L 289.290569 -160.328041 
L 289.235866 -161.776839 
L 289.178081 -163.225636 
L 289.117358 -164.674433 
L 289.053888 -166.123231 
L 288.987902 -167.572028 
L 288.91968 -169.020825 
L 288.849545 -170.469623 
L 288.777861 -171.91842 
L 288.70503 -173.367217 
L 288.63149 -174.816015 
L 288.557709 -176.264812 
L 288.484178 -177.713609 
L 288.411405 -179.162407 
L 288.339908 -180.611204 
L 288.270209 -182.060001 
L 288.202822 -183.508799 
L 288.138247 -184.957596 
L 288.076961 -186.406393 
L 288.019412 -187.855191 
L 287.966005 -189.303988 
L 287.917102 -190.752785 
L 287.87301 -192.201583 
L 287.833979 -193.65038 
L 287.800195 -195.099177 
L 287.77178 -196.547975 
L 287.748786 -197.996772 
L 287.731199 -199.445569 
L 287.718938 -200.894366 
L 287.711857 -202.343164 
L 287.70975 -203.791961 
L 287.712359 -205.240758 
L 287.719375 -206.689556 
L 287.730453 -208.138353 
L 287.745214 -209.58715 
L 287.763257 -211.035948 
L 287.78417 -212.484745 
L 287.807539 -213.933542 
L 287.832957 -215.38234 
L 287.860031 -216.831137 
L 287.888396 -218.279934 
L 287.917719 -219.728732 
L 287.947705 -221.177529 
L 287.978104 -222.626326 
L 288.008714 -224.075124 
L 288.039384 -225.523921 
L 288.070014 -226.972718 
L 288.100552 -228.421516 
L 288.130997 -229.870313 
L 288.161389 -231.31911 
L 288.191808 -232.767908 
L 288.222367 -234.216705 
L 288.253205 -235.665502 
L 288.284478 -237.1143 
L 288.316353 -238.563097 
L 288.348998 -240.011894 
L 288.382578 -241.460692 
L 288.417242 -242.909489 
L 288.453122 -244.358286 
L 288.490322 -245.807084 
L 288.528919 -247.255881 
L 288.568953 -248.704678 
L 288.610428 -250.153476 
L 288.653312 -251.602273 
L 288.697533 -253.05107 
L 288.742985 -254.499868 
L 288.789526 -255.948665 
L 288.836983 -257.397462 
L 288.885159 -258.84626 
L 288.93383 -260.295057 
L 288.982761 -261.743854 
L 289.031703 -263.192652 
L 289.080399 -264.641449 
L 289.128598 -266.090246 
L 289.176049 -267.539044 
L 289.222514 -268.987841 
L 289.26777 -270.436638 
L 289.311611 -271.885436 
L 289.353853 -273.334233 
L 289.394337 -274.78303 
L 289.432931 -276.231828 
L 289.469526 -277.680625 
L 289.504045 -279.129422 
L 289.536434 -280.57822 
L 289.566666 -282.027017 
L 289.59474 -283.475814 
L 289.620675 -284.924612 
L 289.644512 -286.373409 
L 289.66631 -287.822206 
L 289.686142 -289.271004 
L 289.974408 -289.271004 
L 289.974408 -289.271004 
L 289.99424 -287.822206 
L 290.016038 -286.373409 
L 290.039874 -284.924612 
L 290.065809 -283.475814 
L 290.093883 -282.027017 
L 290.124115 -280.57822 
L 290.156504 -279.129422 
L 290.191023 -277.680625 
L 290.227619 -276.231828 
L 290.266212 -274.78303 
L 290.306697 -273.334233 
L 290.348939 -271.885436 
L 290.39278 -270.436638 
L 290.438035 -268.987841 
L 290.4845 -267.539044 
L 290.531952 -266.090246 
L 290.58015 -264.641449 
L 290.628847 -263.192652 
L 290.677788 -261.743854 
L 290.726719 -260.295057 
L 290.775391 -258.84626 
L 290.823566 -257.397462 
L 290.871024 -255.948665 
L 290.917564 -254.499868 
L 290.963016 -253.05107 
L 291.007238 -251.602273 
L 291.050122 -250.153476 
L 291.091597 -248.704678 
L 291.131631 -247.255881 
L 291.170227 -245.807084 
L 291.207428 -244.358286 
L 291.243308 -242.909489 
L 291.277972 -241.460692 
L 291.311552 -240.011894 
L 291.344197 -238.563097 
L 291.376072 -237.1143 
L 291.407344 -235.665502 
L 291.438182 -234.216705 
L 291.468742 -232.767908 
L 291.499161 -231.31911 
L 291.529553 -229.870313 
L 291.559998 -228.421516 
L 291.590536 -226.972718 
L 291.621165 -225.523921 
L 291.651836 -224.075124 
L 291.682446 -222.626326 
L 291.712845 -221.177529 
L 291.742831 -219.728732 
L 291.772153 -218.279934 
L 291.800519 -216.831137 
L 291.827593 -215.38234 
L 291.85301 -213.933542 
L 291.876379 -212.484745 
L 291.897293 -211.035948 
L 291.915336 -209.58715 
L 291.930096 -208.138353 
L 291.941174 -206.689556 
L 291.948191 -205.240758 
L 291.950799 -203.791961 
L 291.948693 -202.343164 
L 291.941612 -200.894366 
L 291.92935 -199.445569 
L 291.911763 -197.996772 
L 291.88877 -196.547975 
L 291.860355 -195.099177 
L 291.826571 -193.65038 
L 291.78754 -192.201583 
L 291.743448 -190.752785 
L 291.694545 -189.303988 
L 291.641138 -187.855191 
L 291.583588 -186.406393 
L 291.522303 -184.957596 
L 291.457728 -183.508799 
L 291.390341 -182.060001 
L 291.320641 -180.611204 
L 291.249145 -179.162407 
L 291.176372 -177.713609 
L 291.10284 -176.264812 
L 291.029059 -174.816015 
L 290.955519 -173.367217 
L 290.882689 -171.91842 
L 290.811004 -170.469623 
L 290.740869 -169.020825 
L 290.672648 -167.572028 
L 290.606662 -166.123231 
L 290.543191 -164.674433 
L 290.482469 -163.225636 
L 290.424684 -161.776839 
L 290.36998 -160.328041 
L 290.31846 -158.879244 
L 290.270181 -157.430447 
L 290.225168 -155.981649 
L 290.183404 -154.532852 
L 290.144846 -153.084055 
L 290.109418 -151.635257 
L 290.077023 -150.18646 
L 290.047541 -148.737663 
L 290.020838 -147.288865 
L 289.996764 -145.840068 
z
" style="stroke: #3d3d3d; stroke-width: 1.5"/>
    </defs>
    <g clip-path="url(#pfdc80ce8bc)">
     <use xlink:href="#meb05535074" x="0" y="393.011865" style="fill: #f2a5a3; stroke: #3d3d3d; stroke-width: 1.5"/>
    </g>
   </g>
   <g id="PolyCollection_7">
    <defs>
     <path id="mee7c414562" d="M 329.726243 -141.623249 
L 329.294306 -141.623249 
L 329.263751 -143.023251 
L 329.22998 -144.423252 
L 329.192838 -145.823254 
L 329.152188 -147.223255 
L 329.107921 -148.623257 
L 329.059956 -150.023258 
L 329.008252 -151.42326 
L 328.952805 -152.823261 
L 328.893659 -154.223263 
L 328.830906 -155.623264 
L 328.76469 -157.023266 
L 328.695213 -158.423267 
L 328.622732 -159.823269 
L 328.547561 -161.22327 
L 328.470075 -162.623272 
L 328.3907 -164.023273 
L 328.309917 -165.423275 
L 328.228256 -166.823276 
L 328.146285 -168.223278 
L 328.064613 -169.623279 
L 327.983869 -171.02328 
L 327.904705 -172.423282 
L 327.827777 -173.823283 
L 327.753736 -175.223285 
L 327.68322 -176.623286 
L 327.616837 -178.023288 
L 327.555158 -179.423289 
L 327.498703 -180.823291 
L 327.447932 -182.223292 
L 327.403234 -183.623294 
L 327.36492 -185.023295 
L 327.333217 -186.423297 
L 327.308263 -187.823298 
L 327.290103 -189.2233 
L 327.278687 -190.623301 
L 327.273876 -192.023303 
L 327.275442 -193.423304 
L 327.283072 -194.823306 
L 327.296381 -196.223307 
L 327.314915 -197.623309 
L 327.338166 -199.02331 
L 327.36558 -200.423312 
L 327.396577 -201.823313 
L 327.430554 -203.223315 
L 327.466908 -204.623316 
L 327.505044 -206.023318 
L 327.544391 -207.423319 
L 327.58441 -208.823321 
L 327.62461 -210.223322 
L 327.664553 -211.623324 
L 327.703864 -213.023325 
L 327.742233 -214.423326 
L 327.779426 -215.823328 
L 327.815278 -217.223329 
L 327.849699 -218.623331 
L 327.88267 -220.023332 
L 327.914234 -221.423334 
L 327.9445 -222.823335 
L 327.973624 -224.223337 
L 328.001811 -225.623338 
L 328.029299 -227.02334 
L 328.056351 -228.423341 
L 328.083245 -229.823343 
L 328.110264 -231.223344 
L 328.137687 -232.623346 
L 328.165777 -234.023347 
L 328.194775 -235.423349 
L 328.224894 -236.82335 
L 328.256309 -238.223352 
L 328.289155 -239.623353 
L 328.323524 -241.023355 
L 328.359463 -242.423356 
L 328.396972 -243.823358 
L 328.436006 -245.223359 
L 328.476478 -246.623361 
L 328.518259 -248.023362 
L 328.561189 -249.423364 
L 328.605073 -250.823365 
L 328.649694 -252.223367 
L 328.694814 -253.623368 
L 328.740185 -255.02337 
L 328.785548 -256.423371 
L 328.830646 -257.823373 
L 328.875226 -259.223374 
L 328.919044 -260.623375 
L 328.961871 -262.023377 
L 329.003495 -263.423378 
L 329.043726 -264.82338 
L 329.082397 -266.223381 
L 329.119367 -267.623383 
L 329.154521 -269.023384 
L 329.18777 -270.423386 
L 329.219053 -271.823387 
L 329.248331 -273.223389 
L 329.275593 -274.62339 
L 329.300848 -276.023392 
L 329.324125 -277.423393 
L 329.345472 -278.823395 
L 329.364952 -280.223396 
L 329.655598 -280.223396 
L 329.655598 -280.223396 
L 329.675077 -278.823395 
L 329.696424 -277.423393 
L 329.719701 -276.023392 
L 329.744956 -274.62339 
L 329.772218 -273.223389 
L 329.801497 -271.823387 
L 329.83278 -270.423386 
L 329.866029 -269.023384 
L 329.901183 -267.623383 
L 329.938153 -266.223381 
L 329.976824 -264.82338 
L 330.017055 -263.423378 
L 330.058679 -262.023377 
L 330.101505 -260.623375 
L 330.145323 -259.223374 
L 330.189903 -257.823373 
L 330.235002 -256.423371 
L 330.280365 -255.02337 
L 330.325735 -253.623368 
L 330.370856 -252.223367 
L 330.415476 -250.823365 
L 330.459361 -249.423364 
L 330.50229 -248.023362 
L 330.544072 -246.623361 
L 330.584543 -245.223359 
L 330.623577 -243.823358 
L 330.661086 -242.423356 
L 330.697025 -241.023355 
L 330.731395 -239.623353 
L 330.764241 -238.223352 
L 330.795655 -236.82335 
L 330.825774 -235.423349 
L 330.854773 -234.023347 
L 330.882863 -232.623346 
L 330.910285 -231.223344 
L 330.937305 -229.823343 
L 330.964199 -228.423341 
L 330.991251 -227.02334 
L 331.018738 -225.623338 
L 331.046925 -224.223337 
L 331.07605 -222.823335 
L 331.106315 -221.423334 
L 331.13788 -220.023332 
L 331.17085 -218.623331 
L 331.205271 -217.223329 
L 331.241124 -215.823328 
L 331.278316 -214.423326 
L 331.316686 -213.023325 
L 331.355996 -211.623324 
L 331.395939 -210.223322 
L 331.436139 -208.823321 
L 331.476159 -207.423319 
L 331.515506 -206.023318 
L 331.553642 -204.623316 
L 331.589996 -203.223315 
L 331.623973 -201.823313 
L 331.654969 -200.423312 
L 331.682384 -199.02331 
L 331.705634 -197.623309 
L 331.724168 -196.223307 
L 331.737477 -194.823306 
L 331.745108 -193.423304 
L 331.746674 -192.023303 
L 331.741863 -190.623301 
L 331.730447 -189.2233 
L 331.712286 -187.823298 
L 331.687332 -186.423297 
L 331.65563 -185.023295 
L 331.617316 -183.623294 
L 331.572618 -182.223292 
L 331.521846 -180.823291 
L 331.465391 -179.423289 
L 331.403712 -178.023288 
L 331.33733 -176.623286 
L 331.266813 -175.223285 
L 331.192773 -173.823283 
L 331.115844 -172.423282 
L 331.03668 -171.02328 
L 330.955937 -169.623279 
L 330.874264 -168.223278 
L 330.792294 -166.823276 
L 330.710632 -165.423275 
L 330.62985 -164.023273 
L 330.550475 -162.623272 
L 330.472988 -161.22327 
L 330.397818 -159.823269 
L 330.325336 -158.423267 
L 330.255859 -157.023266 
L 330.189644 -155.623264 
L 330.12689 -154.223263 
L 330.067744 -152.823261 
L 330.012298 -151.42326 
L 329.960593 -150.023258 
L 329.912629 -148.623257 
L 329.868361 -147.223255 
L 329.827711 -145.823254 
L 329.790569 -144.423252 
L 329.756799 -143.023251 
L 329.726243 -141.623249 
z
" style="stroke: #3d3d3d; stroke-width: 1.5"/>
    </defs>
    <g clip-path="url(#pfdc80ce8bc)">
     <use xlink:href="#mee7c414562" x="0" y="393.011865" style="fill: #d684bd; stroke: #3d3d3d; stroke-width: 1.5"/>
    </g>
   </g>
   <g id="PolyCollection_8">
    <defs>
     <path id="m28cd7179d1" d="M 369.626243 -116.67774 
L 368.754306 -116.67774 
L 368.695868 -117.144408 
L 368.631827 -117.611075 
L 368.561995 -118.077742 
L 368.486231 -118.544409 
L 368.404444 -119.011076 
L 368.316608 -119.477743 
L 368.222761 -119.944411 
L 368.123013 -120.411078 
L 368.017551 -120.877745 
L 367.906641 -121.344412 
L 367.790627 -121.811079 
L 367.669935 -122.277746 
L 367.545063 -122.744414 
L 367.416583 -123.211081 
L 367.285129 -123.677748 
L 367.151389 -124.144415 
L 367.016094 -124.611082 
L 366.880005 -125.077749 
L 366.743894 -125.544416 
L 366.608532 -126.011084 
L 366.47467 -126.477751 
L 366.343017 -126.944418 
L 366.214229 -127.411085 
L 366.088883 -127.877752 
L 365.967469 -128.344419 
L 365.850367 -128.811087 
L 365.737841 -129.277754 
L 365.630024 -129.744421 
L 365.526916 -130.211088 
L 365.428377 -130.677755 
L 365.334133 -131.144422 
L 365.243777 -131.61109 
L 365.156781 -132.077757 
L 365.072511 -132.544424 
L 364.990243 -133.011091 
L 364.909185 -133.477758 
L 364.828502 -133.944425 
L 364.747347 -134.411093 
L 364.664884 -134.87776 
L 364.580323 -135.344427 
L 364.492949 -135.811094 
L 364.402154 -136.277761 
L 364.307459 -136.744428 
L 364.208549 -137.211096 
L 364.105285 -137.677763 
L 363.997728 -138.14443 
L 363.88615 -138.611097 
L 363.771041 -139.077764 
L 363.65311 -139.544431 
L 363.533282 -140.011099 
L 363.412681 -140.477766 
L 363.292623 -140.944433 
L 363.174583 -141.4111 
L 363.060174 -141.877767 
L 362.951112 -142.344434 
L 362.84918 -142.811101 
L 362.756192 -143.277769 
L 362.673947 -143.744436 
L 362.604196 -144.211103 
L 362.548594 -144.67777 
L 362.508667 -145.144437 
L 362.485775 -145.611104 
L 362.481078 -146.077772 
L 362.495511 -146.544439 
L 362.529758 -147.011106 
L 362.58424 -147.477773 
L 362.659103 -147.94444 
L 362.75421 -148.411107 
L 362.869152 -148.877775 
L 363.003247 -149.344442 
L 363.155561 -149.811109 
L 363.324925 -150.277776 
L 363.509962 -150.744443 
L 363.70911 -151.21111 
L 363.920659 -151.677778 
L 364.142781 -152.144445 
L 364.373567 -152.611112 
L 364.611059 -153.077779 
L 364.853289 -153.544446 
L 365.098307 -154.011113 
L 365.344217 -154.477781 
L 365.589202 -154.944448 
L 365.83155 -155.411115 
L 366.069674 -155.877782 
L 366.302135 -156.344449 
L 366.527646 -156.811116 
L 366.74509 -157.277783 
L 366.953522 -157.744451 
L 367.152168 -158.211118 
L 367.340428 -158.677785 
L 367.517866 -159.144452 
L 367.684206 -159.611119 
L 367.83932 -160.077786 
L 367.983213 -160.544454 
L 368.116016 -161.011121 
L 368.237965 -161.477788 
L 368.349391 -161.944455 
L 368.450702 -162.411122 
L 368.542369 -162.877789 
L 369.838181 -162.877789 
L 369.838181 -162.877789 
L 369.929847 -162.411122 
L 370.031158 -161.944455 
L 370.142584 -161.477788 
L 370.264534 -161.011121 
L 370.397337 -160.544454 
L 370.54123 -160.077786 
L 370.696343 -159.611119 
L 370.862683 -159.144452 
L 371.040122 -158.677785 
L 371.228381 -158.211118 
L 371.427028 -157.744451 
L 371.635459 -157.277783 
L 371.852904 -156.811116 
L 372.078415 -156.344449 
L 372.310875 -155.877782 
L 372.549 -155.411115 
L 372.791348 -154.944448 
L 373.036332 -154.477781 
L 373.282243 -154.011113 
L 373.527261 -153.544446 
L 373.769491 -153.077779 
L 374.006983 -152.611112 
L 374.237769 -152.144445 
L 374.459891 -151.677778 
L 374.67144 -151.21111 
L 374.870588 -150.744443 
L 375.055624 -150.277776 
L 375.224989 -149.811109 
L 375.377303 -149.344442 
L 375.511398 -148.877775 
L 375.626339 -148.411107 
L 375.721447 -147.94444 
L 375.796309 -147.477773 
L 375.850792 -147.011106 
L 375.885039 -146.544439 
L 375.899471 -146.077772 
L 375.894774 -145.611104 
L 375.871882 -145.144437 
L 375.831956 -144.67777 
L 375.776354 -144.211103 
L 375.706602 -143.744436 
L 375.624358 -143.277769 
L 375.531369 -142.811101 
L 375.429438 -142.344434 
L 375.320376 -141.877767 
L 375.205967 -141.4111 
L 375.087927 -140.944433 
L 374.967868 -140.477766 
L 374.847268 -140.011099 
L 374.727439 -139.544431 
L 374.609508 -139.077764 
L 374.4944 -138.611097 
L 374.382822 -138.14443 
L 374.275265 -137.677763 
L 374.172001 -137.211096 
L 374.07309 -136.744428 
L 373.978396 -136.277761 
L 373.8876 -135.811094 
L 373.800227 -135.344427 
L 373.715666 -134.87776 
L 373.633203 -134.411093 
L 373.552047 -133.944425 
L 373.471365 -133.477758 
L 373.390307 -133.011091 
L 373.308038 -132.544424 
L 373.223768 -132.077757 
L 373.136773 -131.61109 
L 373.046417 -131.144422 
L 372.952173 -130.677755 
L 372.853634 -130.211088 
L 372.750526 -129.744421 
L 372.642709 -129.277754 
L 372.530182 -128.811087 
L 372.413081 -128.344419 
L 372.291666 -127.877752 
L 372.166321 -127.411085 
L 372.037532 -126.944418 
L 371.90588 -126.477751 
L 371.772017 -126.011084 
L 371.636656 -125.544416 
L 371.500545 -125.077749 
L 371.364455 -124.611082 
L 371.229161 -124.144415 
L 371.095421 -123.677748 
L 370.963967 -123.211081 
L 370.835486 -122.744414 
L 370.710615 -122.277746 
L 370.589922 -121.811079 
L 370.473909 -121.344412 
L 370.362999 -120.877745 
L 370.257537 -120.411078 
L 370.157789 -119.944411 
L 370.063942 -119.477743 
L 369.976105 -119.011076 
L 369.894319 -118.544409 
L 369.818554 -118.077742 
L 369.748723 -117.611075 
L 369.684682 -117.144408 
L 369.626243 -116.67774 
z
" style="stroke: #3d3d3d; stroke-width: 1.5"/>
    </defs>
    <g clip-path="url(#pfdc80ce8bc)">
     <use xlink:href="#m28cd7179d1" x="0" y="393.011865" style="fill: #7f7f7f; stroke: #3d3d3d; stroke-width: 1.5"/>
    </g>
   </g>
   <g id="PolyCollection_9">
    <defs>
     <path id="m0cc5dbc173" d="M 409.459191 -123.095699 
L 408.281359 -123.095699 
L 408.196518 -123.554514 
L 408.102477 -124.013329 
L 407.998734 -124.472144 
L 407.884842 -124.930959 
L 407.760418 -125.389775 
L 407.625157 -125.84859 
L 407.478852 -126.307405 
L 407.3214 -126.76622 
L 407.152823 -127.225035 
L 406.973278 -127.68385 
L 406.783066 -128.142666 
L 406.582646 -128.601481 
L 406.372637 -129.060296 
L 406.153826 -129.519111 
L 405.927166 -129.977926 
L 405.693778 -130.436741 
L 405.454939 -130.895557 
L 405.212078 -131.354372 
L 404.96676 -131.813187 
L 404.720666 -132.272002 
L 404.475576 -132.730817 
L 404.233343 -133.189632 
L 403.995863 -133.648448 
L 403.765049 -134.107263 
L 403.542795 -134.566078 
L 403.330947 -135.024893 
L 403.131266 -135.483708 
L 402.945397 -135.942523 
L 402.774836 -136.401339 
L 402.620903 -136.860154 
L 402.484712 -137.318969 
L 402.367151 -137.777784 
L 402.268864 -138.236599 
L 402.190235 -138.695414 
L 402.131386 -139.15423 
L 402.09217 -139.613045 
L 402.072178 -140.07186 
L 402.070752 -140.530675 
L 402.086997 -140.98949 
L 402.119807 -141.448305 
L 402.16789 -141.907121 
L 402.229798 -142.365936 
L 402.303966 -142.824751 
L 402.388745 -143.283566 
L 402.482442 -143.742381 
L 402.583359 -144.201196 
L 402.689832 -144.660012 
L 402.800266 -145.118827 
L 402.913172 -145.577642 
L 403.027191 -146.036457 
L 403.141128 -146.495272 
L 403.253966 -146.954087 
L 403.364883 -147.412903 
L 403.473264 -147.871718 
L 403.5787 -148.330533 
L 403.680987 -148.789348 
L 403.780117 -149.248163 
L 403.876266 -149.706978 
L 403.969772 -150.165794 
L 404.061114 -150.624609 
L 404.150889 -151.083424 
L 404.239779 -151.542239 
L 404.328524 -152.001054 
L 404.417892 -152.459869 
L 404.508648 -152.918685 
L 404.601529 -153.3775 
L 404.697214 -153.836315 
L 404.796305 -154.29513 
L 404.899302 -154.753945 
L 405.006595 -155.21276 
L 405.118445 -155.671576 
L 405.23498 -156.130391 
L 405.356193 -156.589206 
L 405.481942 -157.048021 
L 405.611955 -157.506836 
L 405.74584 -157.965651 
L 405.883096 -158.424467 
L 406.023128 -158.883282 
L 406.165264 -159.342097 
L 406.308772 -159.800912 
L 406.452879 -160.259727 
L 406.596788 -160.718542 
L 406.739701 -161.177358 
L 406.88083 -161.636173 
L 407.019419 -162.094988 
L 407.154754 -162.553803 
L 407.286178 -163.012618 
L 407.413101 -163.471433 
L 407.535004 -163.930249 
L 407.65145 -164.389064 
L 407.762085 -164.847879 
L 407.866637 -165.306694 
L 407.964917 -165.765509 
L 408.056818 -166.224324 
L 408.142307 -166.68314 
L 408.221422 -167.141955 
L 408.294264 -167.60077 
L 408.36099 -168.059585 
L 408.421808 -168.5184 
L 409.318742 -168.5184 
L 409.318742 -168.5184 
L 409.379559 -168.059585 
L 409.446286 -167.60077 
L 409.519127 -167.141955 
L 409.598242 -166.68314 
L 409.683731 -166.224324 
L 409.775632 -165.765509 
L 409.873913 -165.306694 
L 409.978465 -164.847879 
L 410.089099 -164.389064 
L 410.205546 -163.930249 
L 410.327449 -163.471433 
L 410.454371 -163.012618 
L 410.585796 -162.553803 
L 410.721131 -162.094988 
L 410.85972 -161.636173 
L 411.000849 -161.177358 
L 411.143761 -160.718542 
L 411.287671 -160.259727 
L 411.431777 -159.800912 
L 411.575285 -159.342097 
L 411.717421 -158.883282 
L 411.857454 -158.424467 
L 411.99471 -157.965651 
L 412.128594 -157.506836 
L 412.258607 -157.048021 
L 412.384356 -156.589206 
L 412.505569 -156.130391 
L 412.622105 -155.671576 
L 412.733954 -155.21276 
L 412.841247 -154.753945 
L 412.944245 -154.29513 
L 413.043335 -153.836315 
L 413.13902 -153.3775 
L 413.231901 -152.918685 
L 413.322657 -152.459869 
L 413.412025 -152.001054 
L 413.50077 -151.542239 
L 413.58966 -151.083424 
L 413.679435 -150.624609 
L 413.770778 -150.165794 
L 413.864284 -149.706978 
L 413.960432 -149.248163 
L 414.059562 -148.789348 
L 414.161849 -148.330533 
L 414.267285 -147.871718 
L 414.375666 -147.412903 
L 414.486584 -146.954087 
L 414.599422 -146.495272 
L 414.713358 -146.036457 
L 414.827378 -145.577642 
L 414.940283 -145.118827 
L 415.050718 -144.660012 
L 415.157191 -144.201196 
L 415.258108 -143.742381 
L 415.351805 -143.283566 
L 415.436583 -142.824751 
L 415.510751 -142.365936 
L 415.57266 -141.907121 
L 415.620742 -141.448305 
L 415.653552 -140.98949 
L 415.669797 -140.530675 
L 415.668371 -140.07186 
L 415.64838 -139.613045 
L 415.609163 -139.15423 
L 415.550314 -138.695414 
L 415.471686 -138.236599 
L 415.373398 -137.777784 
L 415.255838 -137.318969 
L 415.119647 -136.860154 
L 414.965713 -136.401339 
L 414.795153 -135.942523 
L 414.609283 -135.483708 
L 414.409602 -135.024893 
L 414.197754 -134.566078 
L 413.975501 -134.107263 
L 413.744686 -133.648448 
L 413.507207 -133.189632 
L 413.264973 -132.730817 
L 413.019884 -132.272002 
L 412.77379 -131.813187 
L 412.528471 -131.354372 
L 412.28561 -130.895557 
L 412.046772 -130.436741 
L 411.813383 -129.977926 
L 411.586724 -129.519111 
L 411.367912 -129.060296 
L 411.157904 -128.601481 
L 410.957483 -128.142666 
L 410.767272 -127.68385 
L 410.587727 -127.225035 
L 410.41915 -126.76622 
L 410.261698 -126.307405 
L 410.115392 -125.84859 
L 409.980132 -125.389775 
L 409.855707 -124.930959 
L 409.741815 -124.472144 
L 409.638073 -124.013329 
L 409.544031 -123.554514 
L 409.459191 -123.095699 
z
" style="stroke: #3d3d3d; stroke-width: 1.5"/>
    </defs>
    <g clip-path="url(#pfdc80ce8bc)">
     <use xlink:href="#m0cc5dbc173" x="0" y="393.011865" style="fill: #c4b5d0; stroke: #3d3d3d; stroke-width: 1.5"/>
    </g>
   </g>
   <g id="matplotlib.axis_1">
    <g id="xtick_1">
     <g id="line2d_1">
      <defs>
       <path id="m7377cb73ae" d="M 0 0 
L 0 3.5 
" style="stroke: #000000; stroke-width: 0.8"/>
      </defs>
      <g>
       <use xlink:href="#m7377cb73ae" x="91.430275" y="288.430125" style="stroke: #000000; stroke-width: 0.8"/>
      </g>
     </g>
     <g id="text_1">
      <!-- aflplusplus_ast_o1 -->
      <g transform="translate(10.999219 347.766815)rotate(-30)scale(0.1 -0.1)">
       <defs>
        <path id="DejaVuSans-61" d="M 2194 1759 
Q 1497 1759 1228 1600 
Q 959 1441 959 1056 
Q 959 750 1161 570 
Q 1363 391 1709 391 
Q 2188 391 2477 730 
Q 2766 1069 2766 1631 
L 2766 1759 
L 2194 1759 
z
M 3341 1997 
L 3341 0 
L 2766 0 
L 2766 531 
Q 2569 213 2275 61 
Q 1981 -91 1556 -91 
Q 1019 -91 701 211 
Q 384 513 384 1019 
Q 384 1609 779 1909 
Q 1175 2209 1959 2209 
L 2766 2209 
L 2766 2266 
Q 2766 2663 2505 2880 
Q 2244 3097 1772 3097 
Q 1472 3097 1187 3025 
Q 903 2953 641 2809 
L 641 3341 
Q 956 3463 1253 3523 
Q 1550 3584 1831 3584 
Q 2591 3584 2966 3190 
Q 3341 2797 3341 1997 
z
" transform="scale(0.015625)"/>
        <path id="DejaVuSans-66" d="M 2375 4863 
L 2375 4384 
L 1825 4384 
Q 1516 4384 1395 4259 
Q 1275 4134 1275 3809 
L 1275 3500 
L 2222 3500 
L 2222 3053 
L 1275 3053 
L 1275 0 
L 697 0 
L 697 3053 
L 147 3053 
L 147 3500 
L 697 3500 
L 697 3744 
Q 697 4328 969 4595 
Q 1241 4863 1831 4863 
L 2375 4863 
z
" transform="scale(0.015625)"/>
        <path id="DejaVuSans-6c" d="M 603 4863 
L 1178 4863 
L 1178 0 
L 603 0 
L 603 4863 
z
" transform="scale(0.015625)"/>
        <path id="DejaVuSans-70" d="M 1159 525 
L 1159 -1331 
L 581 -1331 
L 581 3500 
L 1159 3500 
L 1159 2969 
Q 1341 3281 1617 3432 
Q 1894 3584 2278 3584 
Q 2916 3584 3314 3078 
Q 3713 2572 3713 1747 
Q 3713 922 3314 415 
Q 2916 -91 2278 -91 
Q 1894 -91 1617 61 
Q 1341 213 1159 525 
z
M 3116 1747 
Q 3116 2381 2855 2742 
Q 2594 3103 2138 3103 
Q 1681 3103 1420 2742 
Q 1159 2381 1159 1747 
Q 1159 1113 1420 752 
Q 1681 391 2138 391 
Q 2594 391 2855 752 
Q 3116 1113 3116 1747 
z
" transform="scale(0.015625)"/>
        <path id="DejaVuSans-75" d="M 544 1381 
L 544 3500 
L 1119 3500 
L 1119 1403 
Q 1119 906 1312 657 
Q 1506 409 1894 409 
Q 2359 409 2629 706 
Q 2900 1003 2900 1516 
L 2900 3500 
L 3475 3500 
L 3475 0 
L 2900 0 
L 2900 538 
Q 2691 219 2414 64 
Q 2138 -91 1772 -91 
Q 1169 -91 856 284 
Q 544 659 544 1381 
z
M 1991 3584 
L 1991 3584 
z
" transform="scale(0.015625)"/>
        <path id="DejaVuSans-73" d="M 2834 3397 
L 2834 2853 
Q 2591 2978 2328 3040 
Q 2066 3103 1784 3103 
Q 1356 3103 1142 2972 
Q 928 2841 928 2578 
Q 928 2378 1081 2264 
Q 1234 2150 1697 2047 
L 1894 2003 
Q 2506 1872 2764 1633 
Q 3022 1394 3022 966 
Q 3022 478 2636 193 
Q 2250 -91 1575 -91 
Q 1294 -91 989 -36 
Q 684 19 347 128 
L 347 722 
Q 666 556 975 473 
Q 1284 391 1588 391 
Q 1994 391 2212 530 
Q 2431 669 2431 922 
Q 2431 1156 2273 1281 
Q 2116 1406 1581 1522 
L 1381 1569 
Q 847 1681 609 1914 
Q 372 2147 372 2553 
Q 372 3047 722 3315 
Q 1072 3584 1716 3584 
Q 2034 3584 2315 3537 
Q 2597 3491 2834 3397 
z
" transform="scale(0.015625)"/>
        <path id="DejaVuSans-5f" d="M 3263 -1063 
L 3263 -1509 
L -63 -1509 
L -63 -1063 
L 3263 -1063 
z
" transform="scale(0.015625)"/>
        <path id="DejaVuSans-74" d="M 1172 4494 
L 1172 3500 
L 2356 3500 
L 2356 3053 
L 1172 3053 
L 1172 1153 
Q 1172 725 1289 603 
Q 1406 481 1766 481 
L 2356 481 
L 2356 0 
L 1766 0 
Q 1100 0 847 248 
Q 594 497 594 1153 
L 594 3053 
L 172 3053 
L 172 3500 
L 594 3500 
L 594 4494 
L 1172 4494 
z
" transform="scale(0.015625)"/>
        <path id="DejaVuSans-6f" d="M 1959 3097 
Q 1497 3097 1228 2736 
Q 959 2375 959 1747 
Q 959 1119 1226 758 
Q 1494 397 1959 397 
Q 2419 397 2687 759 
Q 2956 1122 2956 1747 
Q 2956 2369 2687 2733 
Q 2419 3097 1959 3097 
z
M 1959 3584 
Q 2709 3584 3137 3096 
Q 3566 2609 3566 1747 
Q 3566 888 3137 398 
Q 2709 -91 1959 -91 
Q 1206 -91 779 398 
Q 353 888 353 1747 
Q 353 2609 779 3096 
Q 1206 3584 1959 3584 
z
" transform="scale(0.015625)"/>
        <path id="DejaVuSans-31" d="M 794 531 
L 1825 531 
L 1825 4091 
L 703 3866 
L 703 4441 
L 1819 4666 
L 2450 4666 
L 2450 531 
L 3481 531 
L 3481 0 
L 794 0 
L 794 531 
z
" transform="scale(0.015625)"/>
       </defs>
       <use xlink:href="#DejaVuSans-61"/>
       <use xlink:href="#DejaVuSans-66" x="61.279297"/>
       <use xlink:href="#DejaVuSans-6c" x="96.484375"/>
       <use xlink:href="#DejaVuSans-70" x="124.267578"/>
       <use xlink:href="#DejaVuSans-6c" x="187.744141"/>
       <use xlink:href="#DejaVuSans-75" x="215.527344"/>
       <use xlink:href="#DejaVuSans-73" x="278.90625"/>
       <use xlink:href="#DejaVuSans-70" x="331.005859"/>
       <use xlink:href="#DejaVuSans-6c" x="394.482422"/>
       <use xlink:href="#DejaVuSans-75" x="422.265625"/>
       <use xlink:href="#DejaVuSans-73" x="485.644531"/>
       <use xlink:href="#DejaVuSans-5f" x="537.744141"/>
       <use xlink:href="#DejaVuSans-61" x="587.744141"/>
       <use xlink:href="#DejaVuSans-73" x="649.023438"/>
       <use xlink:href="#DejaVuSans-74" x="701.123047"/>
       <use xlink:href="#DejaVuSans-5f" x="740.332031"/>
       <use xlink:href="#DejaVuSans-6f" x="790.332031"/>
       <use xlink:href="#DejaVuSans-31" x="851.513672"/>
      </g>
     </g>
    </g>
    <g id="xtick_2">
     <g id="line2d_2">
      <g>
       <use xlink:href="#m7377cb73ae" x="131.110275" y="288.430125" style="stroke: #000000; stroke-width: 0.8"/>
      </g>
     </g>
     <g id="text_2">
      <!-- aflplusplus_ast_o0 -->
      <g transform="translate(50.679219 347.766815)rotate(-30)scale(0.1 -0.1)">
       <defs>
        <path id="DejaVuSans-30" d="M 2034 4250 
Q 1547 4250 1301 3770 
Q 1056 3291 1056 2328 
Q 1056 1369 1301 889 
Q 1547 409 2034 409 
Q 2525 409 2770 889 
Q 3016 1369 3016 2328 
Q 3016 3291 2770 3770 
Q 2525 4250 2034 4250 
z
M 2034 4750 
Q 2819 4750 3233 4129 
Q 3647 3509 3647 2328 
Q 3647 1150 3233 529 
Q 2819 -91 2034 -91 
Q 1250 -91 836 529 
Q 422 1150 422 2328 
Q 422 3509 836 4129 
Q 1250 4750 2034 4750 
z
" transform="scale(0.015625)"/>
       </defs>
       <use xlink:href="#DejaVuSans-61"/>
       <use xlink:href="#DejaVuSans-66" x="61.279297"/>
       <use xlink:href="#DejaVuSans-6c" x="96.484375"/>
       <use xlink:href="#DejaVuSans-70" x="124.267578"/>
       <use xlink:href="#DejaVuSans-6c" x="187.744141"/>
       <use xlink:href="#DejaVuSans-75" x="215.527344"/>
       <use xlink:href="#DejaVuSans-73" x="278.90625"/>
       <use xlink:href="#DejaVuSans-70" x="331.005859"/>
       <use xlink:href="#DejaVuSans-6c" x="394.482422"/>
       <use xlink:href="#DejaVuSans-75" x="422.265625"/>
       <use xlink:href="#DejaVuSans-73" x="485.644531"/>
       <use xlink:href="#DejaVuSans-5f" x="537.744141"/>
       <use xlink:href="#DejaVuSans-61" x="587.744141"/>
       <use xlink:href="#DejaVuSans-73" x="649.023438"/>
       <use xlink:href="#DejaVuSans-74" x="701.123047"/>
       <use xlink:href="#DejaVuSans-5f" x="740.332031"/>
       <use xlink:href="#DejaVuSans-6f" x="790.332031"/>
       <use xlink:href="#DejaVuSans-30" x="851.513672"/>
      </g>
     </g>
    </g>
    <g id="xtick_3">
     <g id="line2d_3">
      <g>
       <use xlink:href="#m7377cb73ae" x="170.790275" y="288.430125" style="stroke: #000000; stroke-width: 0.8"/>
      </g>
     </g>
     <g id="text_3">
      <!-- aflplusplus_ast_f0 -->
      <g transform="translate(92.609532 346.467596)rotate(-30)scale(0.1 -0.1)">
       <use xlink:href="#DejaVuSans-61"/>
       <use xlink:href="#DejaVuSans-66" x="61.279297"/>
       <use xlink:href="#DejaVuSans-6c" x="96.484375"/>
       <use xlink:href="#DejaVuSans-70" x="124.267578"/>
       <use xlink:href="#DejaVuSans-6c" x="187.744141"/>
       <use xlink:href="#DejaVuSans-75" x="215.527344"/>
       <use xlink:href="#DejaVuSans-73" x="278.90625"/>
       <use xlink:href="#DejaVuSans-70" x="331.005859"/>
       <use xlink:href="#DejaVuSans-6c" x="394.482422"/>
       <use xlink:href="#DejaVuSans-75" x="422.265625"/>
       <use xlink:href="#DejaVuSans-73" x="485.644531"/>
       <use xlink:href="#DejaVuSans-5f" x="537.744141"/>
       <use xlink:href="#DejaVuSans-61" x="587.744141"/>
       <use xlink:href="#DejaVuSans-73" x="649.023438"/>
       <use xlink:href="#DejaVuSans-74" x="701.123047"/>
       <use xlink:href="#DejaVuSans-5f" x="740.332031"/>
       <use xlink:href="#DejaVuSans-66" x="790.332031"/>
       <use xlink:href="#DejaVuSans-30" x="825.537109"/>
      </g>
     </g>
    </g>
    <g id="xtick_4">
     <g id="line2d_4">
      <g>
       <use xlink:href="#m7377cb73ae" x="210.470275" y="288.430125" style="stroke: #000000; stroke-width: 0.8"/>
      </g>
     </g>
     <g id="text_4">
      <!-- aflplusplus_ast_o3_native -->
      <g transform="translate(98.657976 365.884784)rotate(-30)scale(0.1 -0.1)">
       <defs>
        <path id="DejaVuSans-33" d="M 2597 2516 
Q 3050 2419 3304 2112 
Q 3559 1806 3559 1356 
Q 3559 666 3084 287 
Q 2609 -91 1734 -91 
Q 1441 -91 1130 -33 
Q 819 25 488 141 
L 488 750 
Q 750 597 1062 519 
Q 1375 441 1716 441 
Q 2309 441 2620 675 
Q 2931 909 2931 1356 
Q 2931 1769 2642 2001 
Q 2353 2234 1838 2234 
L 1294 2234 
L 1294 2753 
L 1863 2753 
Q 2328 2753 2575 2939 
Q 2822 3125 2822 3475 
Q 2822 3834 2567 4026 
Q 2313 4219 1838 4219 
Q 1578 4219 1281 4162 
Q 984 4106 628 3988 
L 628 4550 
Q 988 4650 1302 4700 
Q 1616 4750 1894 4750 
Q 2613 4750 3031 4423 
Q 3450 4097 3450 3541 
Q 3450 3153 3228 2886 
Q 3006 2619 2597 2516 
z
" transform="scale(0.015625)"/>
        <path id="DejaVuSans-6e" d="M 3513 2113 
L 3513 0 
L 2938 0 
L 2938 2094 
Q 2938 2591 2744 2837 
Q 2550 3084 2163 3084 
Q 1697 3084 1428 2787 
Q 1159 2491 1159 1978 
L 1159 0 
L 581 0 
L 581 3500 
L 1159 3500 
L 1159 2956 
Q 1366 3272 1645 3428 
Q 1925 3584 2291 3584 
Q 2894 3584 3203 3211 
Q 3513 2838 3513 2113 
z
" transform="scale(0.015625)"/>
        <path id="DejaVuSans-69" d="M 603 3500 
L 1178 3500 
L 1178 0 
L 603 0 
L 603 3500 
z
M 603 4863 
L 1178 4863 
L 1178 4134 
L 603 4134 
L 603 4863 
z
" transform="scale(0.015625)"/>
        <path id="DejaVuSans-76" d="M 191 3500 
L 800 3500 
L 1894 563 
L 2988 3500 
L 3597 3500 
L 2284 0 
L 1503 0 
L 191 3500 
z
" transform="scale(0.015625)"/>
        <path id="DejaVuSans-65" d="M 3597 1894 
L 3597 1613 
L 953 1613 
Q 991 1019 1311 708 
Q 1631 397 2203 397 
Q 2534 397 2845 478 
Q 3156 559 3463 722 
L 3463 178 
Q 3153 47 2828 -22 
Q 2503 -91 2169 -91 
Q 1331 -91 842 396 
Q 353 884 353 1716 
Q 353 2575 817 3079 
Q 1281 3584 2069 3584 
Q 2775 3584 3186 3129 
Q 3597 2675 3597 1894 
z
M 3022 2063 
Q 3016 2534 2758 2815 
Q 2500 3097 2075 3097 
Q 1594 3097 1305 2825 
Q 1016 2553 972 2059 
L 3022 2063 
z
" transform="scale(0.015625)"/>
       </defs>
       <use xlink:href="#DejaVuSans-61"/>
       <use xlink:href="#DejaVuSans-66" x="61.279297"/>
       <use xlink:href="#DejaVuSans-6c" x="96.484375"/>
       <use xlink:href="#DejaVuSans-70" x="124.267578"/>
       <use xlink:href="#DejaVuSans-6c" x="187.744141"/>
       <use xlink:href="#DejaVuSans-75" x="215.527344"/>
       <use xlink:href="#DejaVuSans-73" x="278.90625"/>
       <use xlink:href="#DejaVuSans-70" x="331.005859"/>
       <use xlink:href="#DejaVuSans-6c" x="394.482422"/>
       <use xlink:href="#DejaVuSans-75" x="422.265625"/>
       <use xlink:href="#DejaVuSans-73" x="485.644531"/>
       <use xlink:href="#DejaVuSans-5f" x="537.744141"/>
       <use xlink:href="#DejaVuSans-61" x="587.744141"/>
       <use xlink:href="#DejaVuSans-73" x="649.023438"/>
       <use xlink:href="#DejaVuSans-74" x="701.123047"/>
       <use xlink:href="#DejaVuSans-5f" x="740.332031"/>
       <use xlink:href="#DejaVuSans-6f" x="790.332031"/>
       <use xlink:href="#DejaVuSans-33" x="851.513672"/>
       <use xlink:href="#DejaVuSans-5f" x="915.136719"/>
       <use xlink:href="#DejaVuSans-6e" x="965.136719"/>
       <use xlink:href="#DejaVuSans-61" x="1028.515625"/>
       <use xlink:href="#DejaVuSans-74" x="1089.794922"/>
       <use xlink:href="#DejaVuSans-69" x="1129.003906"/>
       <use xlink:href="#DejaVuSans-76" x="1156.787109"/>
       <use xlink:href="#DejaVuSans-65" x="1215.966797"/>
      </g>
     </g>
    </g>
    <g id="xtick_5">
     <g id="line2d_5">
      <g>
       <use xlink:href="#m7377cb73ae" x="250.150275" y="288.430125" style="stroke: #000000; stroke-width: 0.8"/>
      </g>
     </g>
     <g id="text_5">
      <!-- aflplusplus_ast_f1 -->
      <g transform="translate(171.969532 346.467596)rotate(-30)scale(0.1 -0.1)">
       <use xlink:href="#DejaVuSans-61"/>
       <use xlink:href="#DejaVuSans-66" x="61.279297"/>
       <use xlink:href="#DejaVuSans-6c" x="96.484375"/>
       <use xlink:href="#DejaVuSans-70" x="124.267578"/>
       <use xlink:href="#DejaVuSans-6c" x="187.744141"/>
       <use xlink:href="#DejaVuSans-75" x="215.527344"/>
       <use xlink:href="#DejaVuSans-73" x="278.90625"/>
       <use xlink:href="#DejaVuSans-70" x="331.005859"/>
       <use xlink:href="#DejaVuSans-6c" x="394.482422"/>
       <use xlink:href="#DejaVuSans-75" x="422.265625"/>
       <use xlink:href="#DejaVuSans-73" x="485.644531"/>
       <use xlink:href="#DejaVuSans-5f" x="537.744141"/>
       <use xlink:href="#DejaVuSans-61" x="587.744141"/>
       <use xlink:href="#DejaVuSans-73" x="649.023438"/>
       <use xlink:href="#DejaVuSans-74" x="701.123047"/>
       <use xlink:href="#DejaVuSans-5f" x="740.332031"/>
       <use xlink:href="#DejaVuSans-66" x="790.332031"/>
       <use xlink:href="#DejaVuSans-31" x="825.537109"/>
      </g>
     </g>
    </g>
    <g id="xtick_6">
     <g id="line2d_6">
      <g>
       <use xlink:href="#m7377cb73ae" x="289.830275" y="288.430125" style="stroke: #000000; stroke-width: 0.8"/>
      </g>
     </g>
     <g id="text_6">
      <!-- aflplusplus_ast_o2 -->
      <g transform="translate(209.399219 347.766815)rotate(-30)scale(0.1 -0.1)">
       <defs>
        <path id="DejaVuSans-32" d="M 1228 531 
L 3431 531 
L 3431 0 
L 469 0 
L 469 531 
Q 828 903 1448 1529 
Q 2069 2156 2228 2338 
Q 2531 2678 2651 2914 
Q 2772 3150 2772 3378 
Q 2772 3750 2511 3984 
Q 2250 4219 1831 4219 
Q 1534 4219 1204 4116 
Q 875 4013 500 3803 
L 500 4441 
Q 881 4594 1212 4672 
Q 1544 4750 1819 4750 
Q 2544 4750 2975 4387 
Q 3406 4025 3406 3419 
Q 3406 3131 3298 2873 
Q 3191 2616 2906 2266 
Q 2828 2175 2409 1742 
Q 1991 1309 1228 531 
z
" transform="scale(0.015625)"/>
       </defs>
       <use xlink:href="#DejaVuSans-61"/>
       <use xlink:href="#DejaVuSans-66" x="61.279297"/>
       <use xlink:href="#DejaVuSans-6c" x="96.484375"/>
       <use xlink:href="#DejaVuSans-70" x="124.267578"/>
       <use xlink:href="#DejaVuSans-6c" x="187.744141"/>
       <use xlink:href="#DejaVuSans-75" x="215.527344"/>
       <use xlink:href="#DejaVuSans-73" x="278.90625"/>
       <use xlink:href="#DejaVuSans-70" x="331.005859"/>
       <use xlink:href="#DejaVuSans-6c" x="394.482422"/>
       <use xlink:href="#DejaVuSans-75" x="422.265625"/>
       <use xlink:href="#DejaVuSans-73" x="485.644531"/>
       <use xlink:href="#DejaVuSans-5f" x="537.744141"/>
       <use xlink:href="#DejaVuSans-61" x="587.744141"/>
       <use xlink:href="#DejaVuSans-73" x="649.023438"/>
       <use xlink:href="#DejaVuSans-74" x="701.123047"/>
       <use xlink:href="#DejaVuSans-5f" x="740.332031"/>
       <use xlink:href="#DejaVuSans-6f" x="790.332031"/>
       <use xlink:href="#DejaVuSans-32" x="851.513672"/>
      </g>
     </g>
    </g>
    <g id="xtick_7">
     <g id="line2d_7">
      <g>
       <use xlink:href="#m7377cb73ae" x="329.510275" y="288.430125" style="stroke: #000000; stroke-width: 0.8"/>
      </g>
     </g>
     <g id="text_7">
      <!-- aflplusplus_ast_o3 -->
      <g transform="translate(249.079219 347.766815)rotate(-30)scale(0.1 -0.1)">
       <use xlink:href="#DejaVuSans-61"/>
       <use xlink:href="#DejaVuSans-66" x="61.279297"/>
       <use xlink:href="#DejaVuSans-6c" x="96.484375"/>
       <use xlink:href="#DejaVuSans-70" x="124.267578"/>
       <use xlink:href="#DejaVuSans-6c" x="187.744141"/>
       <use xlink:href="#DejaVuSans-75" x="215.527344"/>
       <use xlink:href="#DejaVuSans-73" x="278.90625"/>
       <use xlink:href="#DejaVuSans-70" x="331.005859"/>
       <use xlink:href="#DejaVuSans-6c" x="394.482422"/>
       <use xlink:href="#DejaVuSans-75" x="422.265625"/>
       <use xlink:href="#DejaVuSans-73" x="485.644531"/>
       <use xlink:href="#DejaVuSans-5f" x="537.744141"/>
       <use xlink:href="#DejaVuSans-61" x="587.744141"/>
       <use xlink:href="#DejaVuSans-73" x="649.023438"/>
       <use xlink:href="#DejaVuSans-74" x="701.123047"/>
       <use xlink:href="#DejaVuSans-5f" x="740.332031"/>
       <use xlink:href="#DejaVuSans-6f" x="790.332031"/>
       <use xlink:href="#DejaVuSans-33" x="851.513672"/>
      </g>
     </g>
    </g>
    <g id="xtick_8">
     <g id="line2d_8">
      <g>
       <use xlink:href="#m7377cb73ae" x="369.190275" y="288.430125" style="stroke: #000000; stroke-width: 0.8"/>
      </g>
     </g>
     <g id="text_8">
      <!-- aflplusplus_ast_opt_l1 -->
      <g transform="translate(273.130167 356.790252)rotate(-30)scale(0.1 -0.1)">
       <use xlink:href="#DejaVuSans-61"/>
       <use xlink:href="#DejaVuSans-66" x="61.279297"/>
       <use xlink:href="#DejaVuSans-6c" x="96.484375"/>
       <use xlink:href="#DejaVuSans-70" x="124.267578"/>
       <use xlink:href="#DejaVuSans-6c" x="187.744141"/>
       <use xlink:href="#DejaVuSans-75" x="215.527344"/>
       <use xlink:href="#DejaVuSans-73" x="278.90625"/>
       <use xlink:href="#DejaVuSans-70" x="331.005859"/>
       <use xlink:href="#DejaVuSans-6c" x="394.482422"/>
       <use xlink:href="#DejaVuSans-75" x="422.265625"/>
       <use xlink:href="#DejaVuSans-73" x="485.644531"/>
       <use xlink:href="#DejaVuSans-5f" x="537.744141"/>
       <use xlink:href="#DejaVuSans-61" x="587.744141"/>
       <use xlink:href="#DejaVuSans-73" x="649.023438"/>
       <use xlink:href="#DejaVuSans-74" x="701.123047"/>
       <use xlink:href="#DejaVuSans-5f" x="740.332031"/>
       <use xlink:href="#DejaVuSans-6f" x="790.332031"/>
       <use xlink:href="#DejaVuSans-70" x="851.513672"/>
       <use xlink:href="#DejaVuSans-74" x="914.990234"/>
       <use xlink:href="#DejaVuSans-5f" x="954.199219"/>
       <use xlink:href="#DejaVuSans-6c" x="1004.199219"/>
       <use xlink:href="#DejaVuSans-31" x="1031.982422"/>
      </g>
     </g>
    </g>
    <g id="xtick_9">
     <g id="line2d_9">
      <g>
       <use xlink:href="#m7377cb73ae" x="408.870275" y="288.430125" style="stroke: #000000; stroke-width: 0.8"/>
      </g>
     </g>
     <g id="text_9">
      <!-- aflplusplus_ast_opt_disable -->
      <g transform="translate(289.771184 370.091815)rotate(-30)scale(0.1 -0.1)">
       <defs>
        <path id="DejaVuSans-64" d="M 2906 2969 
L 2906 4863 
L 3481 4863 
L 3481 0 
L 2906 0 
L 2906 525 
Q 2725 213 2448 61 
Q 2172 -91 1784 -91 
Q 1150 -91 751 415 
Q 353 922 353 1747 
Q 353 2572 751 3078 
Q 1150 3584 1784 3584 
Q 2172 3584 2448 3432 
Q 2725 3281 2906 2969 
z
M 947 1747 
Q 947 1113 1208 752 
Q 1469 391 1925 391 
Q 2381 391 2643 752 
Q 2906 1113 2906 1747 
Q 2906 2381 2643 2742 
Q 2381 3103 1925 3103 
Q 1469 3103 1208 2742 
Q 947 2381 947 1747 
z
" transform="scale(0.015625)"/>
        <path id="DejaVuSans-62" d="M 3116 1747 
Q 3116 2381 2855 2742 
Q 2594 3103 2138 3103 
Q 1681 3103 1420 2742 
Q 1159 2381 1159 1747 
Q 1159 1113 1420 752 
Q 1681 391 2138 391 
Q 2594 391 2855 752 
Q 3116 1113 3116 1747 
z
M 1159 2969 
Q 1341 3281 1617 3432 
Q 1894 3584 2278 3584 
Q 2916 3584 3314 3078 
Q 3713 2572 3713 1747 
Q 3713 922 3314 415 
Q 2916 -91 2278 -91 
Q 1894 -91 1617 61 
Q 1341 213 1159 525 
L 1159 0 
L 581 0 
L 581 4863 
L 1159 4863 
L 1159 2969 
z
" transform="scale(0.015625)"/>
       </defs>
       <use xlink:href="#DejaVuSans-61"/>
       <use xlink:href="#DejaVuSans-66" x="61.279297"/>
       <use xlink:href="#DejaVuSans-6c" x="96.484375"/>
       <use xlink:href="#DejaVuSans-70" x="124.267578"/>
       <use xlink:href="#DejaVuSans-6c" x="187.744141"/>
       <use xlink:href="#DejaVuSans-75" x="215.527344"/>
       <use xlink:href="#DejaVuSans-73" x="278.90625"/>
       <use xlink:href="#DejaVuSans-70" x="331.005859"/>
       <use xlink:href="#DejaVuSans-6c" x="394.482422"/>
       <use xlink:href="#DejaVuSans-75" x="422.265625"/>
       <use xlink:href="#DejaVuSans-73" x="485.644531"/>
       <use xlink:href="#DejaVuSans-5f" x="537.744141"/>
       <use xlink:href="#DejaVuSans-61" x="587.744141"/>
       <use xlink:href="#DejaVuSans-73" x="649.023438"/>
       <use xlink:href="#DejaVuSans-74" x="701.123047"/>
       <use xlink:href="#DejaVuSans-5f" x="740.332031"/>
       <use xlink:href="#DejaVuSans-6f" x="790.332031"/>
       <use xlink:href="#DejaVuSans-70" x="851.513672"/>
       <use xlink:href="#DejaVuSans-74" x="914.990234"/>
       <use xlink:href="#DejaVuSans-5f" x="954.199219"/>
       <use xlink:href="#DejaVuSans-64" x="1004.199219"/>
       <use xlink:href="#DejaVuSans-69" x="1067.675781"/>
       <use xlink:href="#DejaVuSans-73" x="1095.458984"/>
       <use xlink:href="#DejaVuSans-61" x="1147.558594"/>
       <use xlink:href="#DejaVuSans-62" x="1208.837891"/>
       <use xlink:href="#DejaVuSans-6c" x="1272.314453"/>
       <use xlink:href="#DejaVuSans-65" x="1300.097656"/>
      </g>
     </g>
    </g>
    <g id="text_10">
     <!-- Fuzzer (highest median coverage on the left) -->
     <g transform="translate(137.532306 383.732178)scale(0.1 -0.1)">
      <defs>
       <path id="DejaVuSans-46" d="M 628 4666 
L 3309 4666 
L 3309 4134 
L 1259 4134 
L 1259 2759 
L 3109 2759 
L 3109 2228 
L 1259 2228 
L 1259 0 
L 628 0 
L 628 4666 
z
" transform="scale(0.015625)"/>
       <path id="DejaVuSans-7a" d="M 353 3500 
L 3084 3500 
L 3084 2975 
L 922 459 
L 3084 459 
L 3084 0 
L 275 0 
L 275 525 
L 2438 3041 
L 353 3041 
L 353 3500 
z
" transform="scale(0.015625)"/>
       <path id="DejaVuSans-72" d="M 2631 2963 
Q 2534 3019 2420 3045 
Q 2306 3072 2169 3072 
Q 1681 3072 1420 2755 
Q 1159 2438 1159 1844 
L 1159 0 
L 581 0 
L 581 3500 
L 1159 3500 
L 1159 2956 
Q 1341 3275 1631 3429 
Q 1922 3584 2338 3584 
Q 2397 3584 2469 3576 
Q 2541 3569 2628 3553 
L 2631 2963 
z
" transform="scale(0.015625)"/>
       <path id="DejaVuSans-20" transform="scale(0.015625)"/>
       <path id="DejaVuSans-28" d="M 1984 4856 
Q 1566 4138 1362 3434 
Q 1159 2731 1159 2009 
Q 1159 1288 1364 580 
Q 1569 -128 1984 -844 
L 1484 -844 
Q 1016 -109 783 600 
Q 550 1309 550 2009 
Q 550 2706 781 3412 
Q 1013 4119 1484 4856 
L 1984 4856 
z
" transform="scale(0.015625)"/>
       <path id="DejaVuSans-68" d="M 3513 2113 
L 3513 0 
L 2938 0 
L 2938 2094 
Q 2938 2591 2744 2837 
Q 2550 3084 2163 3084 
Q 1697 3084 1428 2787 
Q 1159 2491 1159 1978 
L 1159 0 
L 581 0 
L 581 4863 
L 1159 4863 
L 1159 2956 
Q 1366 3272 1645 3428 
Q 1925 3584 2291 3584 
Q 2894 3584 3203 3211 
Q 3513 2838 3513 2113 
z
" transform="scale(0.015625)"/>
       <path id="DejaVuSans-67" d="M 2906 1791 
Q 2906 2416 2648 2759 
Q 2391 3103 1925 3103 
Q 1463 3103 1205 2759 
Q 947 2416 947 1791 
Q 947 1169 1205 825 
Q 1463 481 1925 481 
Q 2391 481 2648 825 
Q 2906 1169 2906 1791 
z
M 3481 434 
Q 3481 -459 3084 -895 
Q 2688 -1331 1869 -1331 
Q 1566 -1331 1297 -1286 
Q 1028 -1241 775 -1147 
L 775 -588 
Q 1028 -725 1275 -790 
Q 1522 -856 1778 -856 
Q 2344 -856 2625 -561 
Q 2906 -266 2906 331 
L 2906 616 
Q 2728 306 2450 153 
Q 2172 0 1784 0 
Q 1141 0 747 490 
Q 353 981 353 1791 
Q 353 2603 747 3093 
Q 1141 3584 1784 3584 
Q 2172 3584 2450 3431 
Q 2728 3278 2906 2969 
L 2906 3500 
L 3481 3500 
L 3481 434 
z
" transform="scale(0.015625)"/>
       <path id="DejaVuSans-6d" d="M 3328 2828 
Q 3544 3216 3844 3400 
Q 4144 3584 4550 3584 
Q 5097 3584 5394 3201 
Q 5691 2819 5691 2113 
L 5691 0 
L 5113 0 
L 5113 2094 
Q 5113 2597 4934 2840 
Q 4756 3084 4391 3084 
Q 3944 3084 3684 2787 
Q 3425 2491 3425 1978 
L 3425 0 
L 2847 0 
L 2847 2094 
Q 2847 2600 2669 2842 
Q 2491 3084 2119 3084 
Q 1678 3084 1418 2786 
Q 1159 2488 1159 1978 
L 1159 0 
L 581 0 
L 581 3500 
L 1159 3500 
L 1159 2956 
Q 1356 3278 1631 3431 
Q 1906 3584 2284 3584 
Q 2666 3584 2933 3390 
Q 3200 3197 3328 2828 
z
" transform="scale(0.015625)"/>
       <path id="DejaVuSans-63" d="M 3122 3366 
L 3122 2828 
Q 2878 2963 2633 3030 
Q 2388 3097 2138 3097 
Q 1578 3097 1268 2742 
Q 959 2388 959 1747 
Q 959 1106 1268 751 
Q 1578 397 2138 397 
Q 2388 397 2633 464 
Q 2878 531 3122 666 
L 3122 134 
Q 2881 22 2623 -34 
Q 2366 -91 2075 -91 
Q 1284 -91 818 406 
Q 353 903 353 1747 
Q 353 2603 823 3093 
Q 1294 3584 2113 3584 
Q 2378 3584 2631 3529 
Q 2884 3475 3122 3366 
z
" transform="scale(0.015625)"/>
       <path id="DejaVuSans-29" d="M 513 4856 
L 1013 4856 
Q 1481 4119 1714 3412 
Q 1947 2706 1947 2009 
Q 1947 1309 1714 600 
Q 1481 -109 1013 -844 
L 513 -844 
Q 928 -128 1133 580 
Q 1338 1288 1338 2009 
Q 1338 2731 1133 3434 
Q 928 4138 513 4856 
z
" transform="scale(0.015625)"/>
      </defs>
      <use xlink:href="#DejaVuSans-46"/>
      <use xlink:href="#DejaVuSans-75" x="52.019531"/>
      <use xlink:href="#DejaVuSans-7a" x="115.398438"/>
      <use xlink:href="#DejaVuSans-7a" x="167.888672"/>
      <use xlink:href="#DejaVuSans-65" x="220.378906"/>
      <use xlink:href="#DejaVuSans-72" x="281.902344"/>
      <use xlink:href="#DejaVuSans-20" x="323.015625"/>
      <use xlink:href="#DejaVuSans-28" x="354.802734"/>
      <use xlink:href="#DejaVuSans-68" x="393.816406"/>
      <use xlink:href="#DejaVuSans-69" x="457.195312"/>
      <use xlink:href="#DejaVuSans-67" x="484.978516"/>
      <use xlink:href="#DejaVuSans-68" x="548.455078"/>
      <use xlink:href="#DejaVuSans-65" x="611.833984"/>
      <use xlink:href="#DejaVuSans-73" x="673.357422"/>
      <use xlink:href="#DejaVuSans-74" x="725.457031"/>
      <use xlink:href="#DejaVuSans-20" x="764.666016"/>
      <use xlink:href="#DejaVuSans-6d" x="796.453125"/>
      <use xlink:href="#DejaVuSans-65" x="893.865234"/>
      <use xlink:href="#DejaVuSans-64" x="955.388672"/>
      <use xlink:href="#DejaVuSans-69" x="1018.865234"/>
      <use xlink:href="#DejaVuSans-61" x="1046.648438"/>
      <use xlink:href="#DejaVuSans-6e" x="1107.927734"/>
      <use xlink:href="#DejaVuSans-20" x="1171.306641"/>
      <use xlink:href="#DejaVuSans-63" x="1203.09375"/>
      <use xlink:href="#DejaVuSans-6f" x="1258.074219"/>
      <use xlink:href="#DejaVuSans-76" x="1319.255859"/>
      <use xlink:href="#DejaVuSans-65" x="1378.435547"/>
      <use xlink:href="#DejaVuSans-72" x="1439.958984"/>
      <use xlink:href="#DejaVuSans-61" x="1481.072266"/>
      <use xlink:href="#DejaVuSans-67" x="1542.351562"/>
      <use xlink:href="#DejaVuSans-65" x="1605.828125"/>
      <use xlink:href="#DejaVuSans-20" x="1667.351562"/>
      <use xlink:href="#DejaVuSans-6f" x="1699.138672"/>
      <use xlink:href="#DejaVuSans-6e" x="1760.320312"/>
      <use xlink:href="#DejaVuSans-20" x="1823.699219"/>
      <use xlink:href="#DejaVuSans-74" x="1855.486328"/>
      <use xlink:href="#DejaVuSans-68" x="1894.695312"/>
      <use xlink:href="#DejaVuSans-65" x="1958.074219"/>
      <use xlink:href="#DejaVuSans-20" x="2019.597656"/>
      <use xlink:href="#DejaVuSans-6c" x="2051.384766"/>
      <use xlink:href="#DejaVuSans-65" x="2079.167969"/>
      <use xlink:href="#DejaVuSans-66" x="2140.691406"/>
      <use xlink:href="#DejaVuSans-74" x="2174.146484"/>
      <use xlink:href="#DejaVuSans-29" x="2213.355469"/>
     </g>
    </g>
   </g>
   <g id="matplotlib.axis_2">
    <g id="ytick_1">
     <g id="line2d_10">
      <defs>
       <path id="mc663bfbf8f" d="M 0 0 
L -3.5 0 
" style="stroke: #000000; stroke-width: 0.8"/>
      </defs>
      <g>
       <use xlink:href="#mc663bfbf8f" x="71.590275" y="262.880956" style="stroke: #000000; stroke-width: 0.8"/>
      </g>
     </g>
     <g id="text_11">
      <!-- 1675 -->
      <g transform="translate(39.140275 266.680175)scale(0.1 -0.1)">
       <defs>
        <path id="DejaVuSans-36" d="M 2113 2584 
Q 1688 2584 1439 2293 
Q 1191 2003 1191 1497 
Q 1191 994 1439 701 
Q 1688 409 2113 409 
Q 2538 409 2786 701 
Q 3034 994 3034 1497 
Q 3034 2003 2786 2293 
Q 2538 2584 2113 2584 
z
M 3366 4563 
L 3366 3988 
Q 3128 4100 2886 4159 
Q 2644 4219 2406 4219 
Q 1781 4219 1451 3797 
Q 1122 3375 1075 2522 
Q 1259 2794 1537 2939 
Q 1816 3084 2150 3084 
Q 2853 3084 3261 2657 
Q 3669 2231 3669 1497 
Q 3669 778 3244 343 
Q 2819 -91 2113 -91 
Q 1303 -91 875 529 
Q 447 1150 447 2328 
Q 447 3434 972 4092 
Q 1497 4750 2381 4750 
Q 2619 4750 2861 4703 
Q 3103 4656 3366 4563 
z
" transform="scale(0.015625)"/>
        <path id="DejaVuSans-37" d="M 525 4666 
L 3525 4666 
L 3525 4397 
L 1831 0 
L 1172 0 
L 2766 4134 
L 525 4134 
L 525 4666 
z
" transform="scale(0.015625)"/>
        <path id="DejaVuSans-35" d="M 691 4666 
L 3169 4666 
L 3169 4134 
L 1269 4134 
L 1269 2991 
Q 1406 3038 1543 3061 
Q 1681 3084 1819 3084 
Q 2600 3084 3056 2656 
Q 3513 2228 3513 1497 
Q 3513 744 3044 326 
Q 2575 -91 1722 -91 
Q 1428 -91 1123 -41 
Q 819 9 494 109 
L 494 744 
Q 775 591 1075 516 
Q 1375 441 1709 441 
Q 2250 441 2565 725 
Q 2881 1009 2881 1497 
Q 2881 1984 2565 2268 
Q 2250 2553 1709 2553 
Q 1456 2553 1204 2497 
Q 953 2441 691 2322 
L 691 4666 
z
" transform="scale(0.015625)"/>
       </defs>
       <use xlink:href="#DejaVuSans-31"/>
       <use xlink:href="#DejaVuSans-36" x="63.623047"/>
       <use xlink:href="#DejaVuSans-37" x="127.246094"/>
       <use xlink:href="#DejaVuSans-35" x="190.869141"/>
      </g>
     </g>
    </g>
    <g id="ytick_2">
     <g id="line2d_11">
      <g>
       <use xlink:href="#mc663bfbf8f" x="71.590275" y="232.734533" style="stroke: #000000; stroke-width: 0.8"/>
      </g>
     </g>
     <g id="text_12">
      <!-- 1700 -->
      <g transform="translate(39.140275 236.533752)scale(0.1 -0.1)">
       <use xlink:href="#DejaVuSans-31"/>
       <use xlink:href="#DejaVuSans-37" x="63.623047"/>
       <use xlink:href="#DejaVuSans-30" x="127.246094"/>
       <use xlink:href="#DejaVuSans-30" x="190.869141"/>
      </g>
     </g>
    </g>
    <g id="ytick_3">
     <g id="line2d_12">
      <g>
       <use xlink:href="#mc663bfbf8f" x="71.590275" y="202.58811" style="stroke: #000000; stroke-width: 0.8"/>
      </g>
     </g>
     <g id="text_13">
      <!-- 1725 -->
      <g transform="translate(39.140275 206.387329)scale(0.1 -0.1)">
       <use xlink:href="#DejaVuSans-31"/>
       <use xlink:href="#DejaVuSans-37" x="63.623047"/>
       <use xlink:href="#DejaVuSans-32" x="127.246094"/>
       <use xlink:href="#DejaVuSans-35" x="190.869141"/>
      </g>
     </g>
    </g>
    <g id="ytick_4">
     <g id="line2d_13">
      <g>
       <use xlink:href="#mc663bfbf8f" x="71.590275" y="172.441687" style="stroke: #000000; stroke-width: 0.8"/>
      </g>
     </g>
     <g id="text_14">
      <!-- 1750 -->
      <g transform="translate(39.140275 176.240906)scale(0.1 -0.1)">
       <use xlink:href="#DejaVuSans-31"/>
       <use xlink:href="#DejaVuSans-37" x="63.623047"/>
       <use xlink:href="#DejaVuSans-35" x="127.246094"/>
       <use xlink:href="#DejaVuSans-30" x="190.869141"/>
      </g>
     </g>
    </g>
    <g id="ytick_5">
     <g id="line2d_14">
      <g>
       <use xlink:href="#mc663bfbf8f" x="71.590275" y="142.295265" style="stroke: #000000; stroke-width: 0.8"/>
      </g>
     </g>
     <g id="text_15">
      <!-- 1775 -->
      <g transform="translate(39.140275 146.094483)scale(0.1 -0.1)">
       <use xlink:href="#DejaVuSans-31"/>
       <use xlink:href="#DejaVuSans-37" x="63.623047"/>
       <use xlink:href="#DejaVuSans-37" x="127.246094"/>
       <use xlink:href="#DejaVuSans-35" x="190.869141"/>
      </g>
     </g>
    </g>
    <g id="ytick_6">
     <g id="line2d_15">
      <g>
       <use xlink:href="#mc663bfbf8f" x="71.590275" y="112.148842" style="stroke: #000000; stroke-width: 0.8"/>
      </g>
     </g>
     <g id="text_16">
      <!-- 1800 -->
      <g transform="translate(39.140275 115.94806)scale(0.1 -0.1)">
       <defs>
        <path id="DejaVuSans-38" d="M 2034 2216 
Q 1584 2216 1326 1975 
Q 1069 1734 1069 1313 
Q 1069 891 1326 650 
Q 1584 409 2034 409 
Q 2484 409 2743 651 
Q 3003 894 3003 1313 
Q 3003 1734 2745 1975 
Q 2488 2216 2034 2216 
z
M 1403 2484 
Q 997 2584 770 2862 
Q 544 3141 544 3541 
Q 544 4100 942 4425 
Q 1341 4750 2034 4750 
Q 2731 4750 3128 4425 
Q 3525 4100 3525 3541 
Q 3525 3141 3298 2862 
Q 3072 2584 2669 2484 
Q 3125 2378 3379 2068 
Q 3634 1759 3634 1313 
Q 3634 634 3220 271 
Q 2806 -91 2034 -91 
Q 1263 -91 848 271 
Q 434 634 434 1313 
Q 434 1759 690 2068 
Q 947 2378 1403 2484 
z
M 1172 3481 
Q 1172 3119 1398 2916 
Q 1625 2713 2034 2713 
Q 2441 2713 2670 2916 
Q 2900 3119 2900 3481 
Q 2900 3844 2670 4047 
Q 2441 4250 2034 4250 
Q 1625 4250 1398 4047 
Q 1172 3844 1172 3481 
z
" transform="scale(0.015625)"/>
       </defs>
       <use xlink:href="#DejaVuSans-31"/>
       <use xlink:href="#DejaVuSans-38" x="63.623047"/>
       <use xlink:href="#DejaVuSans-30" x="127.246094"/>
       <use xlink:href="#DejaVuSans-30" x="190.869141"/>
      </g>
     </g>
    </g>
    <g id="ytick_7">
     <g id="line2d_16">
      <g>
       <use xlink:href="#mc663bfbf8f" x="71.590275" y="82.002419" style="stroke: #000000; stroke-width: 0.8"/>
      </g>
     </g>
     <g id="text_17">
      <!-- 1825 -->
      <g transform="translate(39.140275 85.801638)scale(0.1 -0.1)">
       <use xlink:href="#DejaVuSans-31"/>
       <use xlink:href="#DejaVuSans-38" x="63.623047"/>
       <use xlink:href="#DejaVuSans-32" x="127.246094"/>
       <use xlink:href="#DejaVuSans-35" x="190.869141"/>
      </g>
     </g>
    </g>
    <g id="ytick_8">
     <g id="line2d_17">
      <g>
       <use xlink:href="#mc663bfbf8f" x="71.590275" y="51.855996" style="stroke: #000000; stroke-width: 0.8"/>
      </g>
     </g>
     <g id="text_18">
      <!-- 1850 -->
      <g transform="translate(39.140275 55.655215)scale(0.1 -0.1)">
       <use xlink:href="#DejaVuSans-31"/>
       <use xlink:href="#DejaVuSans-38" x="63.623047"/>
       <use xlink:href="#DejaVuSans-35" x="127.246094"/>
       <use xlink:href="#DejaVuSans-30" x="190.869141"/>
      </g>
     </g>
    </g>
    <g id="text_19">
     <!-- Reached region coverage -->
     <g transform="translate(33.060587 219.136625)rotate(-90)scale(0.1 -0.1)">
      <defs>
       <path id="DejaVuSans-52" d="M 2841 2188 
Q 3044 2119 3236 1894 
Q 3428 1669 3622 1275 
L 4263 0 
L 3584 0 
L 2988 1197 
Q 2756 1666 2539 1819 
Q 2322 1972 1947 1972 
L 1259 1972 
L 1259 0 
L 628 0 
L 628 4666 
L 2053 4666 
Q 2853 4666 3247 4331 
Q 3641 3997 3641 3322 
Q 3641 2881 3436 2590 
Q 3231 2300 2841 2188 
z
M 1259 4147 
L 1259 2491 
L 2053 2491 
Q 2509 2491 2742 2702 
Q 2975 2913 2975 3322 
Q 2975 3731 2742 3939 
Q 2509 4147 2053 4147 
L 1259 4147 
z
" transform="scale(0.015625)"/>
      </defs>
      <use xlink:href="#DejaVuSans-52"/>
      <use xlink:href="#DejaVuSans-65" x="64.982422"/>
      <use xlink:href="#DejaVuSans-61" x="126.505859"/>
      <use xlink:href="#DejaVuSans-63" x="187.785156"/>
      <use xlink:href="#DejaVuSans-68" x="242.765625"/>
      <use xlink:href="#DejaVuSans-65" x="306.144531"/>
      <use xlink:href="#DejaVuSans-64" x="367.667969"/>
      <use xlink:href="#DejaVuSans-20" x="431.144531"/>
      <use xlink:href="#DejaVuSans-72" x="462.931641"/>
      <use xlink:href="#DejaVuSans-65" x="501.794922"/>
      <use xlink:href="#DejaVuSans-67" x="563.318359"/>
      <use xlink:href="#DejaVuSans-69" x="626.794922"/>
      <use xlink:href="#DejaVuSans-6f" x="654.578125"/>
      <use xlink:href="#DejaVuSans-6e" x="715.759766"/>
      <use xlink:href="#DejaVuSans-20" x="779.138672"/>
      <use xlink:href="#DejaVuSans-63" x="810.925781"/>
      <use xlink:href="#DejaVuSans-6f" x="865.90625"/>
      <use xlink:href="#DejaVuSans-76" x="927.087891"/>
      <use xlink:href="#DejaVuSans-65" x="986.267578"/>
      <use xlink:href="#DejaVuSans-72" x="1047.791016"/>
      <use xlink:href="#DejaVuSans-61" x="1088.904297"/>
      <use xlink:href="#DejaVuSans-67" x="1150.183594"/>
      <use xlink:href="#DejaVuSans-65" x="1213.660156"/>
     </g>
    </g>
   </g>
   <g id="line2d_18">
    <path d="M 91.430275 144.706978 
L 91.430275 112.148842 
" clip-path="url(#pfdc80ce8bc)" style="fill: none; stroke: #3d3d3d; stroke-width: 1.5; stroke-linecap: square"/>
   </g>
   <g id="line2d_19">
    <path d="M 91.430275 141.692336 
L 91.430275 125.413268 
" clip-path="url(#pfdc80ce8bc)" style="fill: none; stroke: #3d3d3d; stroke-width: 4.5; stroke-linecap: square"/>
   </g>
   <g id="line2d_20">
    <path d="M 131.110275 156.765547 
L 131.110275 143.501121 
" clip-path="url(#pfdc80ce8bc)" style="fill: none; stroke: #3d3d3d; stroke-width: 1.5; stroke-linecap: square"/>
   </g>
   <g id="line2d_21">
    <path d="M 131.110275 154.956762 
L 131.110275 148.324549 
" clip-path="url(#pfdc80ce8bc)" style="fill: none; stroke: #3d3d3d; stroke-width: 4.5; stroke-linecap: square"/>
   </g>
   <g id="line2d_22">
    <path d="M 170.790275 165.206546 
L 170.790275 95.266845 
" clip-path="url(#pfdc80ce8bc)" style="fill: none; stroke: #3d3d3d; stroke-width: 1.5; stroke-linecap: square"/>
   </g>
   <g id="line2d_23">
    <path d="M 170.790275 160.383118 
L 170.790275 125.413268 
" clip-path="url(#pfdc80ce8bc)" style="fill: none; stroke: #3d3d3d; stroke-width: 4.5; stroke-linecap: square"/>
   </g>
   <g id="line2d_24">
    <path d="M 210.470275 195.352969 
L 210.470275 154.353834 
" clip-path="url(#pfdc80ce8bc)" style="fill: none; stroke: #3d3d3d; stroke-width: 1.5; stroke-linecap: square"/>
   </g>
   <g id="line2d_25">
    <path d="M 210.470275 175.45633 
L 210.470275 154.956762 
" clip-path="url(#pfdc80ce8bc)" style="fill: none; stroke: #3d3d3d; stroke-width: 4.5; stroke-linecap: square"/>
   </g>
   <g id="line2d_26">
    <path d="M 250.150275 161.588975 
L 250.150275 154.353834 
" clip-path="url(#pfdc80ce8bc)" style="fill: none; stroke: #3d3d3d; stroke-width: 1.5; stroke-linecap: square"/>
   </g>
   <g id="line2d_27">
    <path d="M 250.150275 160.383118 
L 250.150275 156.765547 
" clip-path="url(#pfdc80ce8bc)" style="fill: none; stroke: #3d3d3d; stroke-width: 4.5; stroke-linecap: square"/>
   </g>
   <g id="line2d_28">
    <path d="M 289.830275 202.58811 
L 289.830275 148.324549 
" clip-path="url(#pfdc80ce8bc)" style="fill: none; stroke: #3d3d3d; stroke-width: 1.5; stroke-linecap: square"/>
   </g>
   <g id="line2d_29">
    <path d="M 289.830275 194.147112 
L 289.830275 167.015331 
" clip-path="url(#pfdc80ce8bc)" style="fill: none; stroke: #3d3d3d; stroke-width: 4.5; stroke-linecap: square"/>
   </g>
   <g id="line2d_30">
    <path d="M 329.510275 207.411538 
L 329.510275 156.765547 
" clip-path="url(#pfdc80ce8bc)" style="fill: none; stroke: #3d3d3d; stroke-width: 1.5; stroke-linecap: square"/>
   </g>
   <g id="line2d_31">
    <path d="M 329.510275 203.793967 
L 329.510275 178.470972 
" clip-path="url(#pfdc80ce8bc)" style="fill: none; stroke: #3d3d3d; stroke-width: 4.5; stroke-linecap: square"/>
   </g>
   <g id="line2d_32">
    <path d="M 369.190275 261.675099 
L 369.190275 244.793102 
" clip-path="url(#pfdc80ce8bc)" style="fill: none; stroke: #3d3d3d; stroke-width: 1.5; stroke-linecap: square"/>
   </g>
   <g id="line2d_33">
    <path d="M 369.190275 254.439957 
L 369.190275 245.998959 
" clip-path="url(#pfdc80ce8bc)" style="fill: none; stroke: #3d3d3d; stroke-width: 4.5; stroke-linecap: square"/>
   </g>
   <g id="line2d_34">
    <path d="M 408.870275 255.645814 
L 408.870275 238.763818 
" clip-path="url(#pfdc80ce8bc)" style="fill: none; stroke: #3d3d3d; stroke-width: 1.5; stroke-linecap: square"/>
   </g>
   <g id="line2d_35">
    <path d="M 408.870275 253.837029 
L 408.870275 245.396031 
" clip-path="url(#pfdc80ce8bc)" style="fill: none; stroke: #3d3d3d; stroke-width: 4.5; stroke-linecap: square"/>
   </g>
   <g id="patch_3">
    <path d="M 71.590275 262.880956 
L 71.590275 51.855996 
" style="fill: none; stroke: #000000; stroke-width: 0.8; stroke-linejoin: miter; stroke-linecap: square"/>
   </g>
   <g id="patch_4">
    <path d="M 91.430275 288.430125 
L 408.870275 288.430125 
" style="fill: none; stroke: #000000; stroke-width: 0.8; stroke-linejoin: miter; stroke-linecap: square"/>
   </g>
   <g id="PathCollection_1">
    <defs>
     <path id="md84735953f" d="M 0 1.5 
C 0.397805 1.5 0.77937 1.341951 1.06066 1.06066 
C 1.341951 0.77937 1.5 0.397805 1.5 0 
C 1.5 -0.397805 1.341951 -0.77937 1.06066 -1.06066 
C 0.77937 -1.341951 0.397805 -1.5 0 -1.5 
C -0.397805 -1.5 -0.77937 -1.341951 -1.06066 -1.06066 
C -1.341951 -0.77937 -1.5 -0.397805 -1.5 0 
C -1.5 0.397805 -1.341951 0.77937 -1.06066 1.06066 
C -0.77937 1.341951 -0.397805 1.5 0 1.5 
z
" style="stroke: #3d3d3d"/>
    </defs>
    <g clip-path="url(#pfdc80ce8bc)">
     <use xlink:href="#md84735953f" x="91.430275" y="138.677694" style="fill: #ffffff; stroke: #3d3d3d"/>
    </g>
   </g>
   <g id="PathCollection_2">
    <g clip-path="url(#pfdc80ce8bc)">
     <use xlink:href="#md84735953f" x="131.110275" y="153.147977" style="fill: #ffffff; stroke: #3d3d3d"/>
    </g>
   </g>
   <g id="PathCollection_3">
    <g clip-path="url(#pfdc80ce8bc)">
     <use xlink:href="#md84735953f" x="170.790275" y="155.559691" style="fill: #ffffff; stroke: #3d3d3d"/>
    </g>
   </g>
   <g id="PathCollection_4">
    <g clip-path="url(#pfdc80ce8bc)">
     <use xlink:href="#md84735953f" x="210.470275" y="155.559691" style="fill: #ffffff; stroke: #3d3d3d"/>
    </g>
   </g>
   <g id="PathCollection_5">
    <g clip-path="url(#pfdc80ce8bc)">
     <use xlink:href="#md84735953f" x="250.150275" y="159.177261" style="fill: #ffffff; stroke: #3d3d3d"/>
    </g>
   </g>
   <g id="PathCollection_6">
    <g clip-path="url(#pfdc80ce8bc)">
     <use xlink:href="#md84735953f" x="289.830275" y="185.706113" style="fill: #ffffff; stroke: #3d3d3d"/>
    </g>
   </g>
   <g id="PathCollection_7">
    <g clip-path="url(#pfdc80ce8bc)">
     <use xlink:href="#md84735953f" x="329.510275" y="200.176396" style="fill: #ffffff; stroke: #3d3d3d"/>
    </g>
   </g>
   <g id="PathCollection_8">
    <g clip-path="url(#pfdc80ce8bc)">
     <use xlink:href="#md84735953f" x="369.190275" y="247.204816" style="fill: #ffffff; stroke: #3d3d3d"/>
    </g>
   </g>
   <g id="PathCollection_9">
    <g clip-path="url(#pfdc80ce8bc)">
     <use xlink:href="#md84735953f" x="408.870275" y="252.028244" style="fill: #ffffff; stroke: #3d3d3d"/>
    </g>
   </g>
   <g id="text_20">
    <!-- libpng-1.2.56 (4h:15m, 3 trials/fuzzer) -->
    <g transform="translate(135.7434 16.318125)scale(0.12 -0.12)">
     <defs>
      <path id="DejaVuSans-2d" d="M 313 2009 
L 1997 2009 
L 1997 1497 
L 313 1497 
L 313 2009 
z
" transform="scale(0.015625)"/>
      <path id="DejaVuSans-2e" d="M 684 794 
L 1344 794 
L 1344 0 
L 684 0 
L 684 794 
z
" transform="scale(0.015625)"/>
      <path id="DejaVuSans-34" d="M 2419 4116 
L 825 1625 
L 2419 1625 
L 2419 4116 
z
M 2253 4666 
L 3047 4666 
L 3047 1625 
L 3713 1625 
L 3713 1100 
L 3047 1100 
L 3047 0 
L 2419 0 
L 2419 1100 
L 313 1100 
L 313 1709 
L 2253 4666 
z
" transform="scale(0.015625)"/>
      <path id="DejaVuSans-3a" d="M 750 794 
L 1409 794 
L 1409 0 
L 750 0 
L 750 794 
z
M 750 3309 
L 1409 3309 
L 1409 2516 
L 750 2516 
L 750 3309 
z
" transform="scale(0.015625)"/>
      <path id="DejaVuSans-2c" d="M 750 794 
L 1409 794 
L 1409 256 
L 897 -744 
L 494 -744 
L 750 256 
L 750 794 
z
" transform="scale(0.015625)"/>
      <path id="DejaVuSans-2f" d="M 1625 4666 
L 2156 4666 
L 531 -594 
L 0 -594 
L 1625 4666 
z
" transform="scale(0.015625)"/>
     </defs>
     <use xlink:href="#DejaVuSans-6c"/>
     <use xlink:href="#DejaVuSans-69" x="27.783203"/>
     <use xlink:href="#DejaVuSans-62" x="55.566406"/>
     <use xlink:href="#DejaVuSans-70" x="119.042969"/>
     <use xlink:href="#DejaVuSans-6e" x="182.519531"/>
     <use xlink:href="#DejaVuSans-67" x="245.898438"/>
     <use xlink:href="#DejaVuSans-2d" x="309.375"/>
     <use xlink:href="#DejaVuSans-31" x="345.458984"/>
     <use xlink:href="#DejaVuSans-2e" x="409.082031"/>
     <use xlink:href="#DejaVuSans-32" x="440.869141"/>
     <use xlink:href="#DejaVuSans-2e" x="504.492188"/>
     <use xlink:href="#DejaVuSans-35" x="536.279297"/>
     <use xlink:href="#DejaVuSans-36" x="599.902344"/>
     <use xlink:href="#DejaVuSans-20" x="663.525391"/>
     <use xlink:href="#DejaVuSans-28" x="695.3125"/>
     <use xlink:href="#DejaVuSans-34" x="734.326172"/>
     <use xlink:href="#DejaVuSans-68" x="797.949219"/>
     <use xlink:href="#DejaVuSans-3a" x="861.328125"/>
     <use xlink:href="#DejaVuSans-31" x="895.019531"/>
     <use xlink:href="#DejaVuSans-35" x="958.642578"/>
     <use xlink:href="#DejaVuSans-6d" x="1022.265625"/>
     <use xlink:href="#DejaVuSans-2c" x="1119.677734"/>
     <use xlink:href="#DejaVuSans-20" x="1151.464844"/>
     <use xlink:href="#DejaVuSans-33" x="1183.251953"/>
     <use xlink:href="#DejaVuSans-20" x="1246.875"/>
     <use xlink:href="#DejaVuSans-74" x="1278.662109"/>
     <use xlink:href="#DejaVuSans-72" x="1317.871094"/>
     <use xlink:href="#DejaVuSans-69" x="1358.984375"/>
     <use xlink:href="#DejaVuSans-61" x="1386.767578"/>
     <use xlink:href="#DejaVuSans-6c" x="1448.046875"/>
     <use xlink:href="#DejaVuSans-73" x="1475.830078"/>
     <use xlink:href="#DejaVuSans-2f" x="1527.929688"/>
     <use xlink:href="#DejaVuSans-66" x="1561.621094"/>
     <use xlink:href="#DejaVuSans-75" x="1596.826172"/>
     <use xlink:href="#DejaVuSans-7a" x="1660.205078"/>
     <use xlink:href="#DejaVuSans-7a" x="1712.695312"/>
     <use xlink:href="#DejaVuSans-65" x="1765.185547"/>
     <use xlink:href="#DejaVuSans-72" x="1826.708984"/>
     <use xlink:href="#DejaVuSans-29" x="1867.822266"/>
    </g>
   </g>
  </g>
 </g>
 <defs>
  <clipPath id="pfdc80ce8bc">
   <rect x="71.590275" y="22.318125" width="357.12" height="266.112"/>
  </clipPath>
 </defs>
</svg>
