<?xml version="1.0" encoding="utf-8" standalone="no"?>
<!DOCTYPE svg PUBLIC "-//W3C//DTD SVG 1.1//EN"
  "http://www.w3.org/Graphics/SVG/1.1/DTD/svg11.dtd">
<svg xmlns:xlink="http://www.w3.org/1999/xlink" width="514.225pt" height="126pt" viewBox="0 0 514.225 126" xmlns="http://www.w3.org/2000/svg" version="1.1">
 <metadata>
  <rdf:RDF xmlns:dc="http://purl.org/dc/elements/1.1/" xmlns:cc="http://creativecommons.org/ns#" xmlns:rdf="http://www.w3.org/1999/02/22-rdf-syntax-ns#">
   <cc:Work>
    <dc:type rdf:resource="http://purl.org/dc/dcmitype/StillImage"/>
    <dc:date>2022-04-28T16:42:44.712706</dc:date>
    <dc:format>image/svg+xml</dc:format>
    <dc:creator>
     <cc:Agent>
      <dc:title>Matplotlib v3.5.1, https://matplotlib.org/</dc:title>
     </cc:Agent>
    </dc:creator>
   </cc:Work>
  </rdf:RDF>
 </metadata>
 <defs>
  <style type="text/css">*{stroke-linejoin: round; stroke-linecap: butt}</style>
 </defs>
 <g id="figure_1">
  <g id="patch_1">
   <path d="M 0 126 
L 514.225 126 
L 514.225 0 
L 0 0 
z
" style="fill: #ffffff"/>
  </g>
  <g id="axes_1">
   <g id="line2d_1">
    <path d="M 41.1125 7.2 
L 473.1125 118.8 
" clip-path="url(#pfee42a0546)" style="fill: none; stroke: #ffffff; stroke-width: 1.5; stroke-linecap: square"/>
   </g>
   <g id="line2d_2">
    <path d="M 113.1125 54 
L 401.1125 54 
" clip-path="url(#pfee42a0546)" style="fill: none; stroke: #000000; stroke-width: 0.7; stroke-linecap: square"/>
   </g>
   <g id="line2d_3">
    <path d="M 113.1125 50.4 
L 113.1125 54 
" clip-path="url(#pfee42a0546)" style="fill: none; stroke: #000000; stroke-width: 0.7; stroke-linecap: square"/>
   </g>
   <g id="line2d_4">
    <path d="M 161.1125 52.2 
L 161.1125 54 
" clip-path="url(#pfee42a0546)" style="fill: none; stroke: #000000; stroke-width: 0.7; stroke-linecap: square"/>
   </g>
   <g id="line2d_5">
    <path d="M 209.1125 50.4 
L 209.1125 54 
" clip-path="url(#pfee42a0546)" style="fill: none; stroke: #000000; stroke-width: 0.7; stroke-linecap: square"/>
   </g>
   <g id="line2d_6">
    <path d="M 257.1125 52.2 
L 257.1125 54 
" clip-path="url(#pfee42a0546)" style="fill: none; stroke: #000000; stroke-width: 0.7; stroke-linecap: square"/>
   </g>
   <g id="line2d_7">
    <path d="M 305.1125 50.4 
L 305.1125 54 
" clip-path="url(#pfee42a0546)" style="fill: none; stroke: #000000; stroke-width: 0.7; stroke-linecap: square"/>
   </g>
   <g id="line2d_8">
    <path d="M 353.1125 52.2 
L 353.1125 54 
" clip-path="url(#pfee42a0546)" style="fill: none; stroke: #000000; stroke-width: 0.7; stroke-linecap: square"/>
   </g>
   <g id="line2d_9">
    <path d="M 401.1125 50.4 
L 401.1125 54 
" clip-path="url(#pfee42a0546)" style="fill: none; stroke: #000000; stroke-width: 0.7; stroke-linecap: square"/>
   </g>
   <g id="line2d_10">
    <path d="M 198.445833 54 
L 198.445833 82.8 
L 105.9125 82.8 
" clip-path="url(#pfee42a0546)" style="fill: none; stroke: #000000; stroke-width: 0.7; stroke-linecap: square"/>
   </g>
   <g id="line2d_11">
    <path d="M 219.779167 54 
L 219.779167 97.2 
L 105.9125 97.2 
" clip-path="url(#pfee42a0546)" style="fill: none; stroke: #000000; stroke-width: 0.7; stroke-linecap: square"/>
   </g>
   <g id="line2d_12">
    <path d="M 294.445833 54 
L 294.445833 97.2 
L 408.3125 97.2 
" clip-path="url(#pfee42a0546)" style="fill: none; stroke: #000000; stroke-width: 0.7; stroke-linecap: square"/>
   </g>
   <g id="line2d_13">
    <path d="M 315.779167 54 
L 315.779167 82.8 
L 408.3125 82.8 
" clip-path="url(#pfee42a0546)" style="fill: none; stroke: #000000; stroke-width: 0.7; stroke-linecap: square"/>
   </g>
   <g id="line2d_14">
    <path d="M 113.1125 25.2 
L 263.204956 25.2 
" clip-path="url(#pfee42a0546)" style="fill: none; stroke: #000000; stroke-width: 0.7; stroke-linecap: square"/>
   </g>
   <g id="line2d_15">
    <path d="M 113.1125 28.8 
L 113.1125 21.6 
" clip-path="url(#pfee42a0546)" style="fill: none; stroke: #000000; stroke-width: 0.7; stroke-linecap: square"/>
   </g>
   <g id="line2d_16">
    <path d="M 263.204956 28.8 
L 263.204956 21.6 
" clip-path="url(#pfee42a0546)" style="fill: none; stroke: #000000; stroke-width: 0.7; stroke-linecap: square"/>
   </g>
   <g id="line2d_17">
    <path d="M 194.845833 68.4 
L 319.379167 68.4 
" clip-path="url(#pfee42a0546)" style="fill: none; stroke: #000000; stroke-width: 2.5; stroke-linecap: square"/>
   </g>
   <g id="text_1">
    <!-- 1 -->
    <g transform="translate(109.93125 44.720313)scale(0.1 -0.1)">
     <defs>
      <path id="DejaVuSans-31" d="M 794 531 
L 1825 531 
L 1825 4091 
L 703 3866 
L 703 4441 
L 1819 4666 
L 2450 4666 
L 2450 531 
L 3481 531 
L 3481 0 
L 794 0 
L 794 531 
z
" transform="scale(0.015625)"/>
     </defs>
     <use xlink:href="#DejaVuSans-31"/>
    </g>
   </g>
   <g id="text_2">
    <!-- 2 -->
    <g transform="translate(205.93125 44.720313)scale(0.1 -0.1)">
     <defs>
      <path id="DejaVuSans-32" d="M 1228 531 
L 3431 531 
L 3431 0 
L 469 0 
L 469 531 
Q 828 903 1448 1529 
Q 2069 2156 2228 2338 
Q 2531 2678 2651 2914 
Q 2772 3150 2772 3378 
Q 2772 3750 2511 3984 
Q 2250 4219 1831 4219 
Q 1534 4219 1204 4116 
Q 875 4013 500 3803 
L 500 4441 
Q 881 4594 1212 4672 
Q 1544 4750 1819 4750 
Q 2544 4750 2975 4387 
Q 3406 4025 3406 3419 
Q 3406 3131 3298 2873 
Q 3191 2616 2906 2266 
Q 2828 2175 2409 1742 
Q 1991 1309 1228 531 
z
" transform="scale(0.015625)"/>
     </defs>
     <use xlink:href="#DejaVuSans-32"/>
    </g>
   </g>
   <g id="text_3">
    <!-- 3 -->
    <g transform="translate(301.93125 44.720313)scale(0.1 -0.1)">
     <defs>
      <path id="DejaVuSans-33" d="M 2597 2516 
Q 3050 2419 3304 2112 
Q 3559 1806 3559 1356 
Q 3559 666 3084 287 
Q 2609 -91 1734 -91 
Q 1441 -91 1130 -33 
Q 819 25 488 141 
L 488 750 
Q 750 597 1062 519 
Q 1375 441 1716 441 
Q 2309 441 2620 675 
Q 2931 909 2931 1356 
Q 2931 1769 2642 2001 
Q 2353 2234 1838 2234 
L 1294 2234 
L 1294 2753 
L 1863 2753 
Q 2328 2753 2575 2939 
Q 2822 3125 2822 3475 
Q 2822 3834 2567 4026 
Q 2313 4219 1838 4219 
Q 1578 4219 1281 4162 
Q 984 4106 628 3988 
L 628 4550 
Q 988 4650 1302 4700 
Q 1616 4750 1894 4750 
Q 2613 4750 3031 4423 
Q 3450 4097 3450 3541 
Q 3450 3153 3228 2886 
Q 3006 2619 2597 2516 
z
" transform="scale(0.015625)"/>
     </defs>
     <use xlink:href="#DejaVuSans-33"/>
    </g>
   </g>
   <g id="text_4">
    <!-- 4 -->
    <g transform="translate(397.93125 44.720313)scale(0.1 -0.1)">
     <defs>
      <path id="DejaVuSans-34" d="M 2419 4116 
L 825 1625 
L 2419 1625 
L 2419 4116 
z
M 2253 4666 
L 3047 4666 
L 3047 1625 
L 3713 1625 
L 3713 1100 
L 3047 1100 
L 3047 0 
L 2419 0 
L 2419 1100 
L 313 1100 
L 313 1709 
L 2253 4666 
z
" transform="scale(0.015625)"/>
     </defs>
     <use xlink:href="#DejaVuSans-34"/>
    </g>
   </g>
   <g id="text_5">
    <!-- aflplusplus_ast_o1 -->
    <g transform="translate(7.2 85.420313)scale(0.1 -0.1)">
     <defs>
      <path id="DejaVuSans-61" d="M 2194 1759 
Q 1497 1759 1228 1600 
Q 959 1441 959 1056 
Q 959 750 1161 570 
Q 1363 391 1709 391 
Q 2188 391 2477 730 
Q 2766 1069 2766 1631 
L 2766 1759 
L 2194 1759 
z
M 3341 1997 
L 3341 0 
L 2766 0 
L 2766 531 
Q 2569 213 2275 61 
Q 1981 -91 1556 -91 
Q 1019 -91 701 211 
Q 384 513 384 1019 
Q 384 1609 779 1909 
Q 1175 2209 1959 2209 
L 2766 2209 
L 2766 2266 
Q 2766 2663 2505 2880 
Q 2244 3097 1772 3097 
Q 1472 3097 1187 3025 
Q 903 2953 641 2809 
L 641 3341 
Q 956 3463 1253 3523 
Q 1550 3584 1831 3584 
Q 2591 3584 2966 3190 
Q 3341 2797 3341 1997 
z
" transform="scale(0.015625)"/>
      <path id="DejaVuSans-66" d="M 2375 4863 
L 2375 4384 
L 1825 4384 
Q 1516 4384 1395 4259 
Q 1275 4134 1275 3809 
L 1275 3500 
L 2222 3500 
L 2222 3053 
L 1275 3053 
L 1275 0 
L 697 0 
L 697 3053 
L 147 3053 
L 147 3500 
L 697 3500 
L 697 3744 
Q 697 4328 969 4595 
Q 1241 4863 1831 4863 
L 2375 4863 
z
" transform="scale(0.015625)"/>
      <path id="DejaVuSans-6c" d="M 603 4863 
L 1178 4863 
L 1178 0 
L 603 0 
L 603 4863 
z
" transform="scale(0.015625)"/>
      <path id="DejaVuSans-70" d="M 1159 525 
L 1159 -1331 
L 581 -1331 
L 581 3500 
L 1159 3500 
L 1159 2969 
Q 1341 3281 1617 3432 
Q 1894 3584 2278 3584 
Q 2916 3584 3314 3078 
Q 3713 2572 3713 1747 
Q 3713 922 3314 415 
Q 2916 -91 2278 -91 
Q 1894 -91 1617 61 
Q 1341 213 1159 525 
z
M 3116 1747 
Q 3116 2381 2855 2742 
Q 2594 3103 2138 3103 
Q 1681 3103 1420 2742 
Q 1159 2381 1159 1747 
Q 1159 1113 1420 752 
Q 1681 391 2138 391 
Q 2594 391 2855 752 
Q 3116 1113 3116 1747 
z
" transform="scale(0.015625)"/>
      <path id="DejaVuSans-75" d="M 544 1381 
L 544 3500 
L 1119 3500 
L 1119 1403 
Q 1119 906 1312 657 
Q 1506 409 1894 409 
Q 2359 409 2629 706 
Q 2900 1003 2900 1516 
L 2900 3500 
L 3475 3500 
L 3475 0 
L 2900 0 
L 2900 538 
Q 2691 219 2414 64 
Q 2138 -91 1772 -91 
Q 1169 -91 856 284 
Q 544 659 544 1381 
z
M 1991 3584 
L 1991 3584 
z
" transform="scale(0.015625)"/>
      <path id="DejaVuSans-73" d="M 2834 3397 
L 2834 2853 
Q 2591 2978 2328 3040 
Q 2066 3103 1784 3103 
Q 1356 3103 1142 2972 
Q 928 2841 928 2578 
Q 928 2378 1081 2264 
Q 1234 2150 1697 2047 
L 1894 2003 
Q 2506 1872 2764 1633 
Q 3022 1394 3022 966 
Q 3022 478 2636 193 
Q 2250 -91 1575 -91 
Q 1294 -91 989 -36 
Q 684 19 347 128 
L 347 722 
Q 666 556 975 473 
Q 1284 391 1588 391 
Q 1994 391 2212 530 
Q 2431 669 2431 922 
Q 2431 1156 2273 1281 
Q 2116 1406 1581 1522 
L 1381 1569 
Q 847 1681 609 1914 
Q 372 2147 372 2553 
Q 372 3047 722 3315 
Q 1072 3584 1716 3584 
Q 2034 3584 2315 3537 
Q 2597 3491 2834 3397 
z
" transform="scale(0.015625)"/>
      <path id="DejaVuSans-5f" d="M 3263 -1063 
L 3263 -1509 
L -63 -1509 
L -63 -1063 
L 3263 -1063 
z
" transform="scale(0.015625)"/>
      <path id="DejaVuSans-74" d="M 1172 4494 
L 1172 3500 
L 2356 3500 
L 2356 3053 
L 1172 3053 
L 1172 1153 
Q 1172 725 1289 603 
Q 1406 481 1766 481 
L 2356 481 
L 2356 0 
L 1766 0 
Q 1100 0 847 248 
Q 594 497 594 1153 
L 594 3053 
L 172 3053 
L 172 3500 
L 594 3500 
L 594 4494 
L 1172 4494 
z
" transform="scale(0.015625)"/>
      <path id="DejaVuSans-6f" d="M 1959 3097 
Q 1497 3097 1228 2736 
Q 959 2375 959 1747 
Q 959 1119 1226 758 
Q 1494 397 1959 397 
Q 2419 397 2687 759 
Q 2956 1122 2956 1747 
Q 2956 2369 2687 2733 
Q 2419 3097 1959 3097 
z
M 1959 3584 
Q 2709 3584 3137 3096 
Q 3566 2609 3566 1747 
Q 3566 888 3137 398 
Q 2709 -91 1959 -91 
Q 1206 -91 779 398 
Q 353 888 353 1747 
Q 353 2609 779 3096 
Q 1206 3584 1959 3584 
z
" transform="scale(0.015625)"/>
     </defs>
     <use xlink:href="#DejaVuSans-61"/>
     <use xlink:href="#DejaVuSans-66" x="61.279297"/>
     <use xlink:href="#DejaVuSans-6c" x="96.484375"/>
     <use xlink:href="#DejaVuSans-70" x="124.267578"/>
     <use xlink:href="#DejaVuSans-6c" x="187.744141"/>
     <use xlink:href="#DejaVuSans-75" x="215.527344"/>
     <use xlink:href="#DejaVuSans-73" x="278.90625"/>
     <use xlink:href="#DejaVuSans-70" x="331.005859"/>
     <use xlink:href="#DejaVuSans-6c" x="394.482422"/>
     <use xlink:href="#DejaVuSans-75" x="422.265625"/>
     <use xlink:href="#DejaVuSans-73" x="485.644531"/>
     <use xlink:href="#DejaVuSans-5f" x="537.744141"/>
     <use xlink:href="#DejaVuSans-61" x="587.744141"/>
     <use xlink:href="#DejaVuSans-73" x="649.023438"/>
     <use xlink:href="#DejaVuSans-74" x="701.123047"/>
     <use xlink:href="#DejaVuSans-5f" x="740.332031"/>
     <use xlink:href="#DejaVuSans-6f" x="790.332031"/>
     <use xlink:href="#DejaVuSans-31" x="851.513672"/>
    </g>
   </g>
   <g id="text_6">
    <!-- aflplusplus_ast_o2 -->
    <g transform="translate(7.2 99.820313)scale(0.1 -0.1)">
     <use xlink:href="#DejaVuSans-61"/>
     <use xlink:href="#DejaVuSans-66" x="61.279297"/>
     <use xlink:href="#DejaVuSans-6c" x="96.484375"/>
     <use xlink:href="#DejaVuSans-70" x="124.267578"/>
     <use xlink:href="#DejaVuSans-6c" x="187.744141"/>
     <use xlink:href="#DejaVuSans-75" x="215.527344"/>
     <use xlink:href="#DejaVuSans-73" x="278.90625"/>
     <use xlink:href="#DejaVuSans-70" x="331.005859"/>
     <use xlink:href="#DejaVuSans-6c" x="394.482422"/>
     <use xlink:href="#DejaVuSans-75" x="422.265625"/>
     <use xlink:href="#DejaVuSans-73" x="485.644531"/>
     <use xlink:href="#DejaVuSans-5f" x="537.744141"/>
     <use xlink:href="#DejaVuSans-61" x="587.744141"/>
     <use xlink:href="#DejaVuSans-73" x="649.023438"/>
     <use xlink:href="#DejaVuSans-74" x="701.123047"/>
     <use xlink:href="#DejaVuSans-5f" x="740.332031"/>
     <use xlink:href="#DejaVuSans-6f" x="790.332031"/>
     <use xlink:href="#DejaVuSans-32" x="851.513672"/>
    </g>
   </g>
   <g id="text_7">
    <!-- aflplusplus_ast_o3 -->
    <g transform="translate(415.5125 99.820313)scale(0.1 -0.1)">
     <use xlink:href="#DejaVuSans-61"/>
     <use xlink:href="#DejaVuSans-66" x="61.279297"/>
     <use xlink:href="#DejaVuSans-6c" x="96.484375"/>
     <use xlink:href="#DejaVuSans-70" x="124.267578"/>
     <use xlink:href="#DejaVuSans-6c" x="187.744141"/>
     <use xlink:href="#DejaVuSans-75" x="215.527344"/>
     <use xlink:href="#DejaVuSans-73" x="278.90625"/>
     <use xlink:href="#DejaVuSans-70" x="331.005859"/>
     <use xlink:href="#DejaVuSans-6c" x="394.482422"/>
     <use xlink:href="#DejaVuSans-75" x="422.265625"/>
     <use xlink:href="#DejaVuSans-73" x="485.644531"/>
     <use xlink:href="#DejaVuSans-5f" x="537.744141"/>
     <use xlink:href="#DejaVuSans-61" x="587.744141"/>
     <use xlink:href="#DejaVuSans-73" x="649.023438"/>
     <use xlink:href="#DejaVuSans-74" x="701.123047"/>
     <use xlink:href="#DejaVuSans-5f" x="740.332031"/>
     <use xlink:href="#DejaVuSans-6f" x="790.332031"/>
     <use xlink:href="#DejaVuSans-33" x="851.513672"/>
    </g>
   </g>
   <g id="text_8">
    <!-- aflplusplus_ast_o0 -->
    <g transform="translate(415.5125 85.420313)scale(0.1 -0.1)">
     <defs>
      <path id="DejaVuSans-30" d="M 2034 4250 
Q 1547 4250 1301 3770 
Q 1056 3291 1056 2328 
Q 1056 1369 1301 889 
Q 1547 409 2034 409 
Q 2525 409 2770 889 
Q 3016 1369 3016 2328 
Q 3016 3291 2770 3770 
Q 2525 4250 2034 4250 
z
M 2034 4750 
Q 2819 4750 3233 4129 
Q 3647 3509 3647 2328 
Q 3647 1150 3233 529 
Q 2819 -91 2034 -91 
Q 1250 -91 836 529 
Q 422 1150 422 2328 
Q 422 3509 836 4129 
Q 1250 4750 2034 4750 
z
" transform="scale(0.015625)"/>
     </defs>
     <use xlink:href="#DejaVuSans-61"/>
     <use xlink:href="#DejaVuSans-66" x="61.279297"/>
     <use xlink:href="#DejaVuSans-6c" x="96.484375"/>
     <use xlink:href="#DejaVuSans-70" x="124.267578"/>
     <use xlink:href="#DejaVuSans-6c" x="187.744141"/>
     <use xlink:href="#DejaVuSans-75" x="215.527344"/>
     <use xlink:href="#DejaVuSans-73" x="278.90625"/>
     <use xlink:href="#DejaVuSans-70" x="331.005859"/>
     <use xlink:href="#DejaVuSans-6c" x="394.482422"/>
     <use xlink:href="#DejaVuSans-75" x="422.265625"/>
     <use xlink:href="#DejaVuSans-73" x="485.644531"/>
     <use xlink:href="#DejaVuSans-5f" x="537.744141"/>
     <use xlink:href="#DejaVuSans-61" x="587.744141"/>
     <use xlink:href="#DejaVuSans-73" x="649.023438"/>
     <use xlink:href="#DejaVuSans-74" x="701.123047"/>
     <use xlink:href="#DejaVuSans-5f" x="740.332031"/>
     <use xlink:href="#DejaVuSans-6f" x="790.332031"/>
     <use xlink:href="#DejaVuSans-30" x="851.513672"/>
    </g>
   </g>
   <g id="text_9">
    <!-- CD -->
    <g transform="translate(180.817322 19.520313)scale(0.1 -0.1)">
     <defs>
      <path id="DejaVuSans-43" d="M 4122 4306 
L 4122 3641 
Q 3803 3938 3442 4084 
Q 3081 4231 2675 4231 
Q 1875 4231 1450 3742 
Q 1025 3253 1025 2328 
Q 1025 1406 1450 917 
Q 1875 428 2675 428 
Q 3081 428 3442 575 
Q 3803 722 4122 1019 
L 4122 359 
Q 3791 134 3420 21 
Q 3050 -91 2638 -91 
Q 1578 -91 968 557 
Q 359 1206 359 2328 
Q 359 3453 968 4101 
Q 1578 4750 2638 4750 
Q 3056 4750 3426 4639 
Q 3797 4528 4122 4306 
z
" transform="scale(0.015625)"/>
      <path id="DejaVuSans-44" d="M 1259 4147 
L 1259 519 
L 2022 519 
Q 2988 519 3436 956 
Q 3884 1394 3884 2338 
Q 3884 3275 3436 3711 
Q 2988 4147 2022 4147 
L 1259 4147 
z
M 628 4666 
L 1925 4666 
Q 3281 4666 3915 4102 
Q 4550 3538 4550 2338 
Q 4550 1131 3912 565 
Q 3275 0 1925 0 
L 628 0 
L 628 4666 
z
" transform="scale(0.015625)"/>
     </defs>
     <use xlink:href="#DejaVuSans-43"/>
     <use xlink:href="#DejaVuSans-44" x="69.824219"/>
    </g>
   </g>
  </g>
 </g>
 <defs>
  <clipPath id="pfee42a0546">
   <rect x="41.1125" y="7.2" width="432" height="111.6"/>
  </clipPath>
 </defs>
</svg>
